<?xml version="1.0" encoding="utf-8" standalone="no"?>
<!DOCTYPE svg PUBLIC "-//W3C//DTD SVG 1.1//EN"
  "http://www.w3.org/Graphics/SVG/1.1/DTD/svg11.dtd">
<svg xmlns:xlink="http://www.w3.org/1999/xlink" width="460.8pt" height="345.6pt" viewBox="0 0 460.8 345.6" xmlns="http://www.w3.org/2000/svg" version="1.1">
 <metadata>
  <rdf:RDF xmlns:dc="http://purl.org/dc/elements/1.1/" xmlns:cc="http://creativecommons.org/ns#" xmlns:rdf="http://www.w3.org/1999/02/22-rdf-syntax-ns#">
   <cc:Work>
    <dc:type rdf:resource="http://purl.org/dc/dcmitype/StillImage"/>
    <dc:date>2024-01-23T14:21:37.966395</dc:date>
    <dc:format>image/svg+xml</dc:format>
    <dc:creator>
     <cc:Agent>
      <dc:title>Matplotlib v3.8.2, https://matplotlib.org/</dc:title>
     </cc:Agent>
    </dc:creator>
   </cc:Work>
  </rdf:RDF>
 </metadata>
 <defs>
  <style type="text/css">*{stroke-linejoin: round; stroke-linecap: butt}</style>
 </defs>
 <g id="figure_1">
  <g id="patch_1">
   <path d="M 0 345.6 
L 460.8 345.6 
L 460.8 0 
L 0 0 
z
" style="fill: #ffffff"/>
  </g>
  <g id="axes_1">
   <g id="patch_2">
    <path d="M 103.104 307.584 
L 369.216 307.584 
L 369.216 41.472 
L 103.104 41.472 
z
" style="fill: #ffffff"/>
   </g>
   <g id="patch_3">
    <path d="M 130.124293 165.844741 
L 118.481893 165.844731 
L 118.481888 171.499611 
L 130.124288 171.499621 
z
" clip-path="url(#pf7a153bc5e)" style="fill: #00008b"/>
   </g>
   <g id="patch_4">
    <path d="M 244.843278 62.323642 
L 244.843239 50.681242 
L 239.188359 50.68126 
L 239.188398 62.32366 
z
" clip-path="url(#pf7a153bc5e)" style="fill: #800000"/>
   </g>
   <g id="patch_5">
    <path d="M 227.476732 282.520632 
L 227.476739 294.163032 
L 233.131619 294.163029 
L 233.131612 282.520629 
z
" clip-path="url(#pf7a153bc5e)" style="fill: #006400"/>
   </g>
   <g id="patch_6">
    <path d="M 344.154081 183.211271 
L 355.796481 183.21126 
L 355.796476 177.55638 
L 344.154076 177.556391 
z
" clip-path="url(#pf7a153bc5e)" style="fill: #4b0082"/>
   </g>
   <g id="patch_7">
    <path d="M 244.843687 106.545446 
L 244.843079 94.903046 
L 239.188199 94.903342 
L 239.188807 106.545742 
z
" clip-path="url(#pf7a153bc5e)" style="fill: #0000ff"/>
   </g>
   <g id="patch_8">
    <path d="M 168.315572 165.847762 
L 156.673172 165.846809 
L 156.67271 171.501689 
L 168.31511 171.502642 
z
" clip-path="url(#pf7a153bc5e)" style="fill: #ff0000"/>
   </g>
   <g id="patch_9">
    <path d="M 303.355337 183.209213 
L 314.997737 183.211662 
L 314.998926 177.556782 
L 303.356526 177.554333 
z
" clip-path="url(#pf7a153bc5e)" style="fill: #dbdc56"/>
   </g>
   <g id="patch_10">
    <path d="M 244.941258 134.844241 
L 244.696539 123.204413 
L 239.042909 123.323276 
L 239.287628 134.963104 
z
" clip-path="url(#pf7a153bc5e)" style="fill: #9400d3"/>
   </g>
   <g id="patch_11">
    <path d="M 268.749133 182.769123 
L 280.385674 183.138438 
L 280.565056 177.486404 
L 268.928515 177.117089 
z
" clip-path="url(#pf7a153bc5e)" style="fill: #1e90ff"/>
   </g>
   <g id="patch_12">
    <path d="M 227.481958 229.044912 
L 227.479116 240.687312 
L 233.133996 240.688692 
L 233.136838 229.046292 
z
" clip-path="url(#pf7a153bc5e)" style="fill: #ff4500"/>
   </g>
   <g id="patch_13">
    <path d="M 203.579795 166.311046 
L 191.944035 165.917897 
L 191.753077 171.569551 
L 203.388837 171.962701 
z
" clip-path="url(#pf7a153bc5e)" style="fill: #7cfc00"/>
   </g>
   <g id="patch_14">
    <path d="M 228.189847 205.848134 
L 227.55355 217.473133 
L 233.199978 217.782192 
L 233.836275 206.157193 
z
" clip-path="url(#pf7a153bc5e)" style="fill: #ff00ff"/>
   </g>
   <g id="matplotlib.axis_1">
    <g id="xtick_1">
     <g id="line2d_1">
      <defs>
       <path id="md7b83d77a8" d="M 0 0 
L 0 3.5 
" style="stroke: #000000; stroke-width: 0.8"/>
      </defs>
      <g>
       <use xlink:href="#md7b83d77a8" x="103.104" y="307.584" style="stroke: #000000; stroke-width: 0.8"/>
      </g>
     </g>
     <g id="text_1">
      <!-- −40 -->
      <g transform="translate(92.551656 322.182437) scale(0.1 -0.1)">
       <defs>
        <path id="DejaVuSans-2212" d="M 678 2272 
L 4684 2272 
L 4684 1741 
L 678 1741 
L 678 2272 
z
" transform="scale(0.015625)"/>
        <path id="DejaVuSans-34" d="M 2419 4116 
L 825 1625 
L 2419 1625 
L 2419 4116 
z
M 2253 4666 
L 3047 4666 
L 3047 1625 
L 3713 1625 
L 3713 1100 
L 3047 1100 
L 3047 0 
L 2419 0 
L 2419 1100 
L 313 1100 
L 313 1709 
L 2253 4666 
z
" transform="scale(0.015625)"/>
        <path id="DejaVuSans-30" d="M 2034 4250 
Q 1547 4250 1301 3770 
Q 1056 3291 1056 2328 
Q 1056 1369 1301 889 
Q 1547 409 2034 409 
Q 2525 409 2770 889 
Q 3016 1369 3016 2328 
Q 3016 3291 2770 3770 
Q 2525 4250 2034 4250 
z
M 2034 4750 
Q 2819 4750 3233 4129 
Q 3647 3509 3647 2328 
Q 3647 1150 3233 529 
Q 2819 -91 2034 -91 
Q 1250 -91 836 529 
Q 422 1150 422 2328 
Q 422 3509 836 4129 
Q 1250 4750 2034 4750 
z
" transform="scale(0.015625)"/>
       </defs>
       <use xlink:href="#DejaVuSans-2212"/>
       <use xlink:href="#DejaVuSans-34" x="83.789062"/>
       <use xlink:href="#DejaVuSans-30" x="147.412109"/>
      </g>
     </g>
    </g>
    <g id="xtick_2">
     <g id="line2d_2">
      <g>
       <use xlink:href="#md7b83d77a8" x="136.368" y="307.584" style="stroke: #000000; stroke-width: 0.8"/>
      </g>
     </g>
     <g id="text_2">
      <!-- −30 -->
      <g transform="translate(125.815656 322.182437) scale(0.1 -0.1)">
       <defs>
        <path id="DejaVuSans-33" d="M 2597 2516 
Q 3050 2419 3304 2112 
Q 3559 1806 3559 1356 
Q 3559 666 3084 287 
Q 2609 -91 1734 -91 
Q 1441 -91 1130 -33 
Q 819 25 488 141 
L 488 750 
Q 750 597 1062 519 
Q 1375 441 1716 441 
Q 2309 441 2620 675 
Q 2931 909 2931 1356 
Q 2931 1769 2642 2001 
Q 2353 2234 1838 2234 
L 1294 2234 
L 1294 2753 
L 1863 2753 
Q 2328 2753 2575 2939 
Q 2822 3125 2822 3475 
Q 2822 3834 2567 4026 
Q 2313 4219 1838 4219 
Q 1578 4219 1281 4162 
Q 984 4106 628 3988 
L 628 4550 
Q 988 4650 1302 4700 
Q 1616 4750 1894 4750 
Q 2613 4750 3031 4423 
Q 3450 4097 3450 3541 
Q 3450 3153 3228 2886 
Q 3006 2619 2597 2516 
z
" transform="scale(0.015625)"/>
       </defs>
       <use xlink:href="#DejaVuSans-2212"/>
       <use xlink:href="#DejaVuSans-33" x="83.789062"/>
       <use xlink:href="#DejaVuSans-30" x="147.412109"/>
      </g>
     </g>
    </g>
    <g id="xtick_3">
     <g id="line2d_3">
      <g>
       <use xlink:href="#md7b83d77a8" x="169.632" y="307.584" style="stroke: #000000; stroke-width: 0.8"/>
      </g>
     </g>
     <g id="text_3">
      <!-- −20 -->
      <g transform="translate(159.079656 322.182437) scale(0.1 -0.1)">
       <defs>
        <path id="DejaVuSans-32" d="M 1228 531 
L 3431 531 
L 3431 0 
L 469 0 
L 469 531 
Q 828 903 1448 1529 
Q 2069 2156 2228 2338 
Q 2531 2678 2651 2914 
Q 2772 3150 2772 3378 
Q 2772 3750 2511 3984 
Q 2250 4219 1831 4219 
Q 1534 4219 1204 4116 
Q 875 4013 500 3803 
L 500 4441 
Q 881 4594 1212 4672 
Q 1544 4750 1819 4750 
Q 2544 4750 2975 4387 
Q 3406 4025 3406 3419 
Q 3406 3131 3298 2873 
Q 3191 2616 2906 2266 
Q 2828 2175 2409 1742 
Q 1991 1309 1228 531 
z
" transform="scale(0.015625)"/>
       </defs>
       <use xlink:href="#DejaVuSans-2212"/>
       <use xlink:href="#DejaVuSans-32" x="83.789062"/>
       <use xlink:href="#DejaVuSans-30" x="147.412109"/>
      </g>
     </g>
    </g>
    <g id="xtick_4">
     <g id="line2d_4">
      <g>
       <use xlink:href="#md7b83d77a8" x="202.896" y="307.584" style="stroke: #000000; stroke-width: 0.8"/>
      </g>
     </g>
     <g id="text_4">
      <!-- −10 -->
      <g transform="translate(192.343656 322.182437) scale(0.1 -0.1)">
       <defs>
        <path id="DejaVuSans-31" d="M 794 531 
L 1825 531 
L 1825 4091 
L 703 3866 
L 703 4441 
L 1819 4666 
L 2450 4666 
L 2450 531 
L 3481 531 
L 3481 0 
L 794 0 
L 794 531 
z
" transform="scale(0.015625)"/>
       </defs>
       <use xlink:href="#DejaVuSans-2212"/>
       <use xlink:href="#DejaVuSans-31" x="83.789062"/>
       <use xlink:href="#DejaVuSans-30" x="147.412109"/>
      </g>
     </g>
    </g>
    <g id="xtick_5">
     <g id="line2d_5">
      <g>
       <use xlink:href="#md7b83d77a8" x="236.16" y="307.584" style="stroke: #000000; stroke-width: 0.8"/>
      </g>
     </g>
     <g id="text_5">
      <!-- 0 -->
      <g transform="translate(232.97875 322.182437) scale(0.1 -0.1)">
       <use xlink:href="#DejaVuSans-30"/>
      </g>
     </g>
    </g>
    <g id="xtick_6">
     <g id="line2d_6">
      <g>
       <use xlink:href="#md7b83d77a8" x="269.424" y="307.584" style="stroke: #000000; stroke-width: 0.8"/>
      </g>
     </g>
     <g id="text_6">
      <!-- 10 -->
      <g transform="translate(263.0615 322.182437) scale(0.1 -0.1)">
       <use xlink:href="#DejaVuSans-31"/>
       <use xlink:href="#DejaVuSans-30" x="63.623047"/>
      </g>
     </g>
    </g>
    <g id="xtick_7">
     <g id="line2d_7">
      <g>
       <use xlink:href="#md7b83d77a8" x="302.688" y="307.584" style="stroke: #000000; stroke-width: 0.8"/>
      </g>
     </g>
     <g id="text_7">
      <!-- 20 -->
      <g transform="translate(296.3255 322.182437) scale(0.1 -0.1)">
       <use xlink:href="#DejaVuSans-32"/>
       <use xlink:href="#DejaVuSans-30" x="63.623047"/>
      </g>
     </g>
    </g>
    <g id="xtick_8">
     <g id="line2d_8">
      <g>
       <use xlink:href="#md7b83d77a8" x="335.952" y="307.584" style="stroke: #000000; stroke-width: 0.8"/>
      </g>
     </g>
     <g id="text_8">
      <!-- 30 -->
      <g transform="translate(329.5895 322.182437) scale(0.1 -0.1)">
       <use xlink:href="#DejaVuSans-33"/>
       <use xlink:href="#DejaVuSans-30" x="63.623047"/>
      </g>
     </g>
    </g>
    <g id="xtick_9">
     <g id="line2d_9">
      <g>
       <use xlink:href="#md7b83d77a8" x="369.216" y="307.584" style="stroke: #000000; stroke-width: 0.8"/>
      </g>
     </g>
     <g id="text_9">
      <!-- 40 -->
      <g transform="translate(362.8535 322.182437) scale(0.1 -0.1)">
       <use xlink:href="#DejaVuSans-34"/>
       <use xlink:href="#DejaVuSans-30" x="63.623047"/>
      </g>
     </g>
    </g>
   </g>
   <g id="matplotlib.axis_2">
    <g id="ytick_1">
     <g id="line2d_10">
      <defs>
       <path id="mbc4ebe407b" d="M 0 0 
L -3.5 0 
" style="stroke: #000000; stroke-width: 0.8"/>
      </defs>
      <g>
       <use xlink:href="#mbc4ebe407b" x="103.104" y="307.584" style="stroke: #000000; stroke-width: 0.8"/>
      </g>
     </g>
     <g id="text_10">
      <!-- −40 -->
      <g transform="translate(74.999313 311.383219) scale(0.1 -0.1)">
       <use xlink:href="#DejaVuSans-2212"/>
       <use xlink:href="#DejaVuSans-34" x="83.789062"/>
       <use xlink:href="#DejaVuSans-30" x="147.412109"/>
      </g>
     </g>
    </g>
    <g id="ytick_2">
     <g id="line2d_11">
      <g>
       <use xlink:href="#mbc4ebe407b" x="103.104" y="274.32" style="stroke: #000000; stroke-width: 0.8"/>
      </g>
     </g>
     <g id="text_11">
      <!-- −30 -->
      <g transform="translate(74.999313 278.119219) scale(0.1 -0.1)">
       <use xlink:href="#DejaVuSans-2212"/>
       <use xlink:href="#DejaVuSans-33" x="83.789062"/>
       <use xlink:href="#DejaVuSans-30" x="147.412109"/>
      </g>
     </g>
    </g>
    <g id="ytick_3">
     <g id="line2d_12">
      <g>
       <use xlink:href="#mbc4ebe407b" x="103.104" y="241.056" style="stroke: #000000; stroke-width: 0.8"/>
      </g>
     </g>
     <g id="text_12">
      <!-- −20 -->
      <g transform="translate(74.999313 244.855219) scale(0.1 -0.1)">
       <use xlink:href="#DejaVuSans-2212"/>
       <use xlink:href="#DejaVuSans-32" x="83.789062"/>
       <use xlink:href="#DejaVuSans-30" x="147.412109"/>
      </g>
     </g>
    </g>
    <g id="ytick_4">
     <g id="line2d_13">
      <g>
       <use xlink:href="#mbc4ebe407b" x="103.104" y="207.792" style="stroke: #000000; stroke-width: 0.8"/>
      </g>
     </g>
     <g id="text_13">
      <!-- −10 -->
      <g transform="translate(74.999313 211.591219) scale(0.1 -0.1)">
       <use xlink:href="#DejaVuSans-2212"/>
       <use xlink:href="#DejaVuSans-31" x="83.789062"/>
       <use xlink:href="#DejaVuSans-30" x="147.412109"/>
      </g>
     </g>
    </g>
    <g id="ytick_5">
     <g id="line2d_14">
      <g>
       <use xlink:href="#mbc4ebe407b" x="103.104" y="174.528" style="stroke: #000000; stroke-width: 0.8"/>
      </g>
     </g>
     <g id="text_14">
      <!-- 0 -->
      <g transform="translate(89.7415 178.327219) scale(0.1 -0.1)">
       <use xlink:href="#DejaVuSans-30"/>
      </g>
     </g>
    </g>
    <g id="ytick_6">
     <g id="line2d_15">
      <g>
       <use xlink:href="#mbc4ebe407b" x="103.104" y="141.264" style="stroke: #000000; stroke-width: 0.8"/>
      </g>
     </g>
     <g id="text_15">
      <!-- 10 -->
      <g transform="translate(83.379 145.063219) scale(0.1 -0.1)">
       <use xlink:href="#DejaVuSans-31"/>
       <use xlink:href="#DejaVuSans-30" x="63.623047"/>
      </g>
     </g>
    </g>
    <g id="ytick_7">
     <g id="line2d_16">
      <g>
       <use xlink:href="#mbc4ebe407b" x="103.104" y="108" style="stroke: #000000; stroke-width: 0.8"/>
      </g>
     </g>
     <g id="text_16">
      <!-- 20 -->
      <g transform="translate(83.379 111.799219) scale(0.1 -0.1)">
       <use xlink:href="#DejaVuSans-32"/>
       <use xlink:href="#DejaVuSans-30" x="63.623047"/>
      </g>
     </g>
    </g>
    <g id="ytick_8">
     <g id="line2d_17">
      <g>
       <use xlink:href="#mbc4ebe407b" x="103.104" y="74.736" style="stroke: #000000; stroke-width: 0.8"/>
      </g>
     </g>
     <g id="text_17">
      <!-- 30 -->
      <g transform="translate(83.379 78.535219) scale(0.1 -0.1)">
       <use xlink:href="#DejaVuSans-33"/>
       <use xlink:href="#DejaVuSans-30" x="63.623047"/>
      </g>
     </g>
    </g>
    <g id="ytick_9">
     <g id="line2d_18">
      <g>
       <use xlink:href="#mbc4ebe407b" x="103.104" y="41.472" style="stroke: #000000; stroke-width: 0.8"/>
      </g>
     </g>
     <g id="text_18">
      <!-- 40 -->
      <g transform="translate(83.379 45.271219) scale(0.1 -0.1)">
       <use xlink:href="#DejaVuSans-34"/>
       <use xlink:href="#DejaVuSans-30" x="63.623047"/>
      </g>
     </g>
    </g>
   </g>
   <g id="line2d_19">
    <path d="M 250.2972 288.4572 
L 250.2972 188.6652 
" clip-path="url(#pf7a153bc5e)" style="fill: none; stroke: #000000; stroke-width: 0.25; stroke-linecap: square"/>
   </g>
   <g id="line2d_20">
    <path d="M 250.2972 188.6652 
L 350.0892 188.6652 
" clip-path="url(#pf7a153bc5e)" style="fill: none; stroke: #000000; stroke-width: 0.25; stroke-linecap: square"/>
   </g>
   <g id="line2d_21">
    <path d="M 350.0892 160.3908 
L 250.2972 160.3908 
" clip-path="url(#pf7a153bc5e)" style="fill: none; stroke: #000000; stroke-width: 0.25; stroke-linecap: square"/>
   </g>
   <g id="line2d_22">
    <path d="M 250.2972 160.3908 
L 250.2972 60.5988 
" clip-path="url(#pf7a153bc5e)" style="fill: none; stroke: #000000; stroke-width: 0.25; stroke-linecap: square"/>
   </g>
   <g id="line2d_23">
    <path d="M 222.0228 60.5988 
L 222.0228 160.3908 
" clip-path="url(#pf7a153bc5e)" style="fill: none; stroke: #000000; stroke-width: 0.25; stroke-linecap: square"/>
   </g>
   <g id="line2d_24">
    <path d="M 222.0228 160.3908 
L 122.2308 160.3908 
" clip-path="url(#pf7a153bc5e)" style="fill: none; stroke: #000000; stroke-width: 0.25; stroke-linecap: square"/>
   </g>
   <g id="line2d_25">
    <path d="M 122.2308 188.6652 
L 222.0228 188.6652 
" clip-path="url(#pf7a153bc5e)" style="fill: none; stroke: #000000; stroke-width: 0.25; stroke-linecap: square"/>
   </g>
   <g id="line2d_26">
    <path d="M 222.0228 188.6652 
L 222.0228 288.4572 
" clip-path="url(#pf7a153bc5e)" style="fill: none; stroke: #000000; stroke-width: 0.25; stroke-linecap: square"/>
   </g>
   <g id="line2d_27">
    <path d="M 250.2972 174.528 
L 350.0892 174.528 
" clip-path="url(#pf7a153bc5e)" style="fill: none; stroke-dasharray: 0.925,0.4; stroke-dashoffset: 0; stroke: #000000; stroke-width: 0.25"/>
   </g>
   <g id="line2d_28">
    <path d="M 236.16 160.3908 
L 236.16 60.5988 
" clip-path="url(#pf7a153bc5e)" style="fill: none; stroke-dasharray: 0.925,0.4; stroke-dashoffset: 0; stroke: #000000; stroke-width: 0.25"/>
   </g>
   <g id="line2d_29">
    <path d="M 222.0228 174.528 
L 122.2308 174.528 
" clip-path="url(#pf7a153bc5e)" style="fill: none; stroke-dasharray: 0.925,0.4; stroke-dashoffset: 0; stroke: #000000; stroke-width: 0.25"/>
   </g>
   <g id="line2d_30">
    <path d="M 236.16 188.6652 
L 236.16 288.4572 
" clip-path="url(#pf7a153bc5e)" style="fill: none; stroke-dasharray: 0.925,0.4; stroke-dashoffset: 0; stroke: #000000; stroke-width: 0.25"/>
   </g>
   <g id="line2d_31">
    <path d="M 125.930502 168.672176 
L 124.303091 168.672176 
L 122.675565 168.672176 
L 121.047931 168.672176 
L 119.420195 168.672176 
L 117.792361 168.672176 
L 116.164435 168.672177 
L 114.536424 168.672177 
L 112.908332 168.672177 
L 111.280164 168.672178 
L 109.651927 168.672178 
L 108.023626 168.672178 
L 106.395264 168.672179 
L 104.766847 168.672179 
L 103.13838 168.672179 
L 101.509867 168.672179 
L 99.881312 168.672179 
L 98.252719 168.67218 
L 96.624093 168.67218 
L 94.995436 168.67218 
L 93.366753 168.67218 
L 91.738046 168.67218 
L 90.109319 168.67218 
L 88.480574 168.67218 
L 86.851815 168.67218 
L 85.223043 168.67218 
L 83.594262 168.67218 
L 81.965472 168.67218 
L 80.336677 168.67218 
L 78.707879 168.67218 
L 77.079078 168.67218 
" clip-path="url(#pf7a153bc5e)" style="fill: none; stroke: #ff0000; stroke-opacity: 0.2; stroke-width: 0.25; stroke-linecap: square"/>
   </g>
   <g id="line2d_32">
    <path d="M 125.930502 168.672176 
L 124.303091 168.672176 
L 122.675566 168.672176 
L 121.047932 168.672176 
L 119.420196 168.672176 
L 117.792364 168.672176 
L 116.16444 168.672177 
L 114.536431 168.672177 
L 112.908342 168.672177 
L 111.280178 168.672178 
L 109.651945 168.672178 
L 108.023648 168.672178 
L 106.395291 168.672179 
L 104.76688 168.672179 
L 103.13842 168.672179 
L 101.509914 168.672179 
L 99.881367 168.672179 
L 98.252783 168.67218 
L 96.624167 168.67218 
L 94.995521 168.67218 
L 93.366849 168.67218 
L 91.738154 168.67218 
L 90.109441 168.67218 
L 88.48071 168.67218 
L 86.851966 168.67218 
L 85.223211 168.67218 
L 83.594447 168.67218 
L 81.965676 168.67218 
L 80.3369 168.67218 
L 78.708121 168.67218 
L 77.079341 168.67218 
" clip-path="url(#pf7a153bc5e)" style="fill: none; stroke: #ff0000; stroke-opacity: 0.4; stroke-width: 0.25; stroke-linecap: square"/>
   </g>
   <g id="line2d_33">
    <path d="M 125.930502 168.672176 
L 124.303091 168.672176 
L 122.675565 168.672176 
L 121.047932 168.672176 
L 119.420195 168.672176 
L 117.792361 168.672176 
L 116.164437 168.672177 
L 114.536426 168.672177 
L 112.908335 168.672177 
L 111.280169 168.672178 
L 109.651933 168.672178 
L 108.023633 168.672178 
L 106.395273 168.672179 
L 104.766859 168.672179 
L 103.138394 168.672179 
L 101.509884 168.672179 
L 99.881333 168.672179 
L 98.252744 168.67218 
L 96.624121 168.67218 
L 94.995469 168.67218 
L 93.366791 168.67218 
L 91.73809 168.67218 
L 90.109368 168.67218 
L 88.48063 168.67218 
L 86.851878 168.67218 
L 85.223114 168.67218 
L 83.59434 168.67218 
L 81.96556 168.67218 
L 80.336774 168.67218 
L 78.707985 168.67218 
L 77.079194 168.67218 
" clip-path="url(#pf7a153bc5e)" style="fill: none; stroke: #ff0000; stroke-opacity: 0.6; stroke-width: 0.25; stroke-linecap: square"/>
   </g>
   <g id="line2d_34">
    <path d="M 125.930502 168.672176 
L 124.303091 168.672176 
L 122.675565 168.672176 
L 121.047932 168.672176 
L 119.420196 168.672176 
L 117.792363 168.672176 
L 116.164439 168.672177 
L 114.536429 168.672177 
L 112.908339 168.672177 
L 111.280175 168.672178 
L 109.651941 168.672178 
L 108.023642 168.672178 
L 106.395284 168.672179 
L 104.766872 168.672179 
L 103.13841 168.672179 
L 101.509902 168.672179 
L 99.881354 168.672179 
L 98.252768 168.67218 
L 96.624149 168.67218 
L 94.9955 168.67218 
L 93.366825 168.67218 
L 91.738128 168.67218 
L 90.109411 168.67218 
L 88.480677 168.67218 
L 86.851929 168.67218 
L 85.22317 168.67218 
L 83.594401 168.67218 
L 81.965626 168.67218 
L 80.336845 168.67218 
L 78.708062 168.67218 
L 77.079277 168.67218 
" clip-path="url(#pf7a153bc5e)" style="fill: none; stroke: #ff0000; stroke-opacity: 0.8; stroke-width: 0.25; stroke-linecap: square"/>
   </g>
   <g id="line2d_35">
    <path d="M 125.930502 168.672176 
L 124.303091 168.672176 
L 122.675565 168.672176 
L 121.047932 168.672176 
L 119.420195 168.672176 
L 117.792362 168.672176 
L 116.164437 168.672177 
L 114.536427 168.672177 
L 112.908336 168.672177 
L 111.280171 168.672178 
L 109.651936 168.672178 
L 108.023637 168.672178 
L 106.395278 168.672179 
L 104.766864 168.672179 
L 103.138401 168.672179 
L 101.509891 168.672179 
L 99.881341 168.672179 
L 98.252753 168.67218 
L 96.624132 168.67218 
L 94.995482 168.67218 
L 93.366805 168.67218 
L 91.738106 168.67218 
L 90.109386 168.67218 
L 88.48065 168.67218 
L 86.8519 168.67218 
L 85.223138 168.67218 
L 83.594366 168.67218 
L 81.965588 168.67218 
L 80.336805 168.67218 
L 78.708018 168.67218 
L 77.07923 168.67218 
" clip-path="url(#pf7a153bc5e)" style="fill: none; stroke: #ff0000; stroke-width: 0.25; stroke-linecap: square"/>
   </g>
   <g id="line2d_36">
    <path d="M 242.01582 58.011151 
L 242.015818 56.502451 
L 242.015816 54.993894 
L 242.015815 53.485477 
L 242.015814 51.977198 
L 242.015814 50.469055 
L 242.015814 48.961043 
L 242.015814 47.45316 
L 242.015814 45.945399 
L 242.015814 44.437757 
L 242.015815 42.930228 
L 242.015815 41.422807 
L 242.015816 39.915487 
L 242.015816 38.408264 
L 242.015817 36.901131 
L 242.015817 35.394083 
L 242.015817 33.887112 
L 242.015818 32.380214 
L 242.015818 30.873381 
L 242.015819 29.366609 
L 242.015819 27.859891 
L 242.015819 26.353221 
L 242.015819 24.846593 
L 242.015819 23.340003 
L 242.01582 21.833445 
L 242.01582 20.326913 
L 242.01582 18.820403 
L 242.01582 17.313911 
L 242.01582 15.807431 
L 242.01582 14.30096 
L 242.01582 12.794494 
" clip-path="url(#pf7a153bc5e)" style="fill: none; stroke: #ff0000; stroke-opacity: 0.2; stroke-width: 0.25; stroke-linecap: square"/>
   </g>
   <g id="line2d_37">
    <path d="M 242.01582 58.011151 
L 242.015818 56.502451 
L 242.015817 54.993892 
L 242.015815 53.485472 
L 242.015815 51.977188 
L 242.015814 50.469038 
L 242.015814 48.961018 
L 242.015814 47.453123 
L 242.015814 45.94535 
L 242.015814 44.437693 
L 242.015815 42.930147 
L 242.015815 41.422706 
L 242.015816 39.915366 
L 242.015816 38.408119 
L 242.015817 36.900959 
L 242.015817 35.393882 
L 242.015817 33.88688 
L 242.015818 32.379947 
L 242.015818 30.873078 
L 242.015818 29.366267 
L 242.015819 27.859506 
L 242.015819 26.352792 
L 242.015819 24.846117 
L 242.015819 23.339477 
L 242.01582 21.832866 
L 242.01582 20.326279 
L 242.01582 18.819712 
L 242.01582 17.313159 
L 242.01582 15.806617 
L 242.01582 14.300081 
L 242.01582 12.793548 
" clip-path="url(#pf7a153bc5e)" style="fill: none; stroke: #ff0000; stroke-opacity: 0.4; stroke-width: 0.25; stroke-linecap: square"/>
   </g>
   <g id="line2d_38">
    <path d="M 242.01582 58.011151 
L 242.015818 56.502451 
L 242.015817 54.993893 
L 242.015815 53.485475 
L 242.015815 51.977195 
L 242.015814 50.469049 
L 242.015814 48.961034 
L 242.015814 47.453146 
L 242.015814 45.945381 
L 242.015814 44.437733 
L 242.015815 42.930197 
L 242.015815 41.422768 
L 242.015816 39.91544 
L 242.015816 38.408208 
L 242.015817 36.901064 
L 242.015817 35.394003 
L 242.015817 33.88702 
L 242.015818 32.380107 
L 242.015818 30.873259 
L 242.015818 29.366469 
L 242.015819 27.859732 
L 242.015819 26.353043 
L 242.015819 24.846394 
L 242.015819 23.339782 
L 242.01582 21.8332 
L 242.01582 20.326643 
L 242.01582 18.820107 
L 242.01582 17.313587 
L 242.01582 15.807078 
L 242.01582 14.300577 
L 242.01582 12.79408 
" clip-path="url(#pf7a153bc5e)" style="fill: none; stroke: #ff0000; stroke-opacity: 0.6; stroke-width: 0.25; stroke-linecap: square"/>
   </g>
   <g id="line2d_39">
    <path d="M 242.01582 58.011151 
L 242.015818 56.502451 
L 242.015817 54.993892 
L 242.015815 53.485473 
L 242.015815 51.977191 
L 242.015814 50.469042 
L 242.015814 48.961024 
L 242.015814 47.453132 
L 242.015814 45.945362 
L 242.015814 44.437709 
L 242.015815 42.930167 
L 242.015815 41.422731 
L 242.015816 39.915395 
L 242.015816 38.408154 
L 242.015817 36.901001 
L 242.015817 35.393931 
L 242.015817 33.886937 
L 242.015818 32.380013 
L 242.015818 30.873153 
L 242.015818 29.366351 
L 242.015819 27.859601 
L 242.015819 26.352897 
L 242.015819 24.846234 
L 242.015819 23.339606 
L 242.01582 21.833008 
L 242.01582 20.326435 
L 242.01582 18.819882 
L 242.01582 17.313344 
L 242.01582 15.806817 
L 242.01582 14.300297 
L 242.01582 12.793781 
" clip-path="url(#pf7a153bc5e)" style="fill: none; stroke: #ff0000; stroke-opacity: 0.8; stroke-width: 0.25; stroke-linecap: square"/>
   </g>
   <g id="line2d_40">
    <path d="M 242.01582 58.011151 
L 242.015819 56.502451 
L 242.015817 54.993893 
L 242.015816 53.485474 
L 242.015815 51.977193 
L 242.015814 50.469046 
L 242.015814 48.96103 
L 242.015814 47.453141 
L 242.015814 45.945373 
L 242.015814 44.437723 
L 242.015815 42.930185 
L 242.015815 41.422753 
L 242.015816 39.915422 
L 242.015816 38.408186 
L 242.015817 36.901038 
L 242.015817 35.393973 
L 242.015817 33.886985 
L 242.015818 32.380068 
L 242.015818 30.873214 
L 242.015818 29.366419 
L 242.015819 27.859677 
L 242.015819 26.352981 
L 242.015819 24.846326 
L 242.015819 23.339707 
L 242.01582 21.833118 
L 242.01582 20.326554 
L 242.01582 18.82001 
L 242.01582 17.313482 
L 242.01582 15.806965 
L 242.01582 14.300455 
L 242.01582 12.793949 
" clip-path="url(#pf7a153bc5e)" style="fill: none; stroke: #ff0000; stroke-width: 0.25; stroke-linecap: square"/>
   </g>
   <g id="line2d_41">
    <path d="M 230.304174 286.733785 
L 230.304175 288.34183 
L 230.304176 289.949871 
L 230.304177 291.557907 
L 230.304178 293.165936 
L 230.304178 294.773959 
L 230.304179 296.381974 
L 230.304179 297.989982 
L 230.304179 299.597981 
L 230.30418 301.205973 
L 230.30418 302.813957 
L 230.30418 304.421933 
L 230.30418 306.029901 
L 230.30418 307.637861 
L 230.30418 309.245814 
L 230.30418 310.853759 
L 230.30418 312.461698 
L 230.30418 314.06963 
L 230.30418 315.677556 
L 230.30418 317.285477 
L 230.30418 318.893392 
L 230.30418 320.501302 
L 230.30418 322.109209 
L 230.30418 323.717111 
L 230.30418 325.32501 
L 230.30418 326.932907 
L 230.30418 328.540801 
L 230.30418 330.148693 
L 230.30418 331.756584 
L 230.30418 333.364474 
L 230.30418 334.972364 
" clip-path="url(#pf7a153bc5e)" style="fill: none; stroke: #ff0000; stroke-opacity: 0.2; stroke-width: 0.25; stroke-linecap: square"/>
   </g>
   <g id="line2d_42">
    <path d="M 230.304174 286.733785 
L 230.304175 288.34183 
L 230.304176 289.949872 
L 230.304177 291.557908 
L 230.304178 293.165938 
L 230.304178 294.773961 
L 230.304179 296.381978 
L 230.304179 297.989987 
L 230.304179 299.597989 
L 230.30418 301.205983 
L 230.30418 302.813969 
L 230.30418 304.421948 
L 230.30418 306.029919 
L 230.30418 307.637883 
L 230.30418 309.24584 
L 230.30418 310.853789 
L 230.30418 312.461732 
L 230.30418 314.06967 
L 230.30418 315.677601 
L 230.30418 317.285527 
L 230.30418 318.893448 
L 230.30418 320.501365 
L 230.30418 322.109278 
L 230.30418 323.717187 
L 230.30418 325.325093 
L 230.30418 326.932997 
L 230.30418 328.540899 
L 230.30418 330.1488 
L 230.30418 331.756699 
L 230.30418 333.364598 
L 230.30418 334.972496 
" clip-path="url(#pf7a153bc5e)" style="fill: none; stroke: #ff0000; stroke-opacity: 0.4; stroke-width: 0.25; stroke-linecap: square"/>
   </g>
   <g id="line2d_43">
    <path d="M 230.304174 286.733785 
L 230.304175 288.34183 
L 230.304176 289.949872 
L 230.304177 291.557907 
L 230.304178 293.165937 
L 230.304178 294.77396 
L 230.304179 296.381975 
L 230.304179 297.989984 
L 230.30418 299.597984 
L 230.30418 301.205977 
L 230.30418 302.813962 
L 230.30418 304.421939 
L 230.30418 306.029908 
L 230.30418 307.63787 
L 230.30418 309.245824 
L 230.30418 310.853771 
L 230.30418 312.461712 
L 230.30418 314.069646 
L 230.30418 315.677575 
L 230.30418 317.285497 
L 230.30418 318.893415 
L 230.30418 320.501328 
L 230.30418 322.109238 
L 230.30418 323.717143 
L 230.30418 325.325046 
L 230.30418 326.932946 
L 230.30418 328.540843 
L 230.30418 330.148739 
L 230.30418 331.756634 
L 230.30418 333.364528 
L 230.30418 334.972422 
" clip-path="url(#pf7a153bc5e)" style="fill: none; stroke: #ff0000; stroke-opacity: 0.6; stroke-width: 0.25; stroke-linecap: square"/>
   </g>
   <g id="line2d_44">
    <path d="M 230.304174 286.733785 
L 230.304175 288.34183 
L 230.304176 289.949872 
L 230.304177 291.557908 
L 230.304178 293.165937 
L 230.304178 294.773961 
L 230.304179 296.381977 
L 230.304179 297.989986 
L 230.30418 299.597987 
L 230.30418 301.205981 
L 230.30418 302.813966 
L 230.30418 304.421944 
L 230.30418 306.029915 
L 230.30418 307.637878 
L 230.30418 309.245833 
L 230.30418 310.853782 
L 230.30418 312.461724 
L 230.30418 314.06966 
L 230.30418 315.67759 
L 230.30418 317.285515 
L 230.30418 318.893434 
L 230.30418 320.501349 
L 230.30418 322.109261 
L 230.30418 323.717168 
L 230.30418 325.325073 
L 230.30418 326.932975 
L 230.30418 328.540875 
L 230.30418 330.148774 
L 230.30418 331.756671 
L 230.30418 333.364568 
L 230.30418 334.972464 
" clip-path="url(#pf7a153bc5e)" style="fill: none; stroke: #ff0000; stroke-opacity: 0.8; stroke-width: 0.25; stroke-linecap: square"/>
   </g>
   <g id="line2d_45">
    <path d="M 230.304174 286.733785 
L 230.304175 288.34183 
L 230.304176 289.949872 
L 230.304177 291.557907 
L 230.304178 293.165937 
L 230.304178 294.77396 
L 230.304179 296.381976 
L 230.304179 297.989985 
L 230.30418 299.597985 
L 230.30418 301.205978 
L 230.30418 302.813964 
L 230.30418 304.421941 
L 230.30418 306.029911 
L 230.30418 307.637873 
L 230.30418 309.245828 
L 230.30418 310.853776 
L 230.30418 312.461717 
L 230.30418 314.069652 
L 230.30418 315.677581 
L 230.30418 317.285505 
L 230.30418 318.893423 
L 230.30418 320.501337 
L 230.30418 322.109247 
L 230.30418 323.717154 
L 230.30418 325.325057 
L 230.30418 326.932958 
L 230.30418 328.540857 
L 230.30418 330.148754 
L 230.30418 331.75665 
L 230.30418 333.364545 
L 230.30418 334.97244 
" clip-path="url(#pf7a153bc5e)" style="fill: none; stroke: #ff0000; stroke-width: 0.25; stroke-linecap: square"/>
   </g>
   <g id="line2d_46">
    <path d="M 348.367652 180.383826 
L 349.975279 180.383825 
L 351.582936 180.383824 
L 353.190621 180.383823 
L 354.798332 180.383822 
L 356.406066 180.383822 
L 358.013821 180.383821 
L 359.621596 180.383821 
L 361.229388 180.38382 
L 362.837197 180.38382 
L 364.44502 180.38382 
L 366.052855 180.38382 
L 367.660702 180.383819 
L 369.268559 180.383819 
L 370.876425 180.383819 
L 372.484299 180.383819 
L 374.09218 180.383819 
L 375.700067 180.383819 
L 377.307959 180.383819 
L 378.915855 180.383819 
L 380.523756 180.38382 
L 382.131659 180.38382 
L 383.739565 180.38382 
L 385.347473 180.38382 
L 386.955383 180.38382 
L 388.563295 180.38382 
L 390.171207 180.38382 
L 391.77912 180.38382 
L 393.387034 180.38382 
L 394.994949 180.38382 
L 396.602863 180.38382 
" clip-path="url(#pf7a153bc5e)" style="fill: none; stroke: #ff0000; stroke-opacity: 0.2; stroke-width: 0.25; stroke-linecap: square"/>
   </g>
   <g id="line2d_47">
    <path d="M 348.367652 180.383826 
L 349.975279 180.383825 
L 351.582936 180.383824 
L 353.190622 180.383823 
L 354.798333 180.383822 
L 356.406067 180.383822 
L 358.013823 180.383821 
L 359.621598 180.383821 
L 361.229392 180.38382 
L 362.837201 180.38382 
L 364.445024 180.38382 
L 366.052861 180.38382 
L 367.660709 180.383819 
L 369.268567 180.383819 
L 370.876434 180.383819 
L 372.484309 180.383819 
L 374.092191 180.383819 
L 375.70008 180.383819 
L 377.307973 180.383819 
L 378.915871 180.383819 
L 380.523772 180.38382 
L 382.131677 180.38382 
L 383.739584 180.38382 
L 385.347494 180.38382 
L 386.955405 180.38382 
L 388.563318 180.38382 
L 390.171231 180.38382 
L 391.779146 180.38382 
L 393.387061 180.38382 
L 394.994976 180.38382 
L 396.602891 180.38382 
" clip-path="url(#pf7a153bc5e)" style="fill: none; stroke: #ff0000; stroke-opacity: 0.4; stroke-width: 0.25; stroke-linecap: square"/>
   </g>
   <g id="line2d_48">
    <path d="M 348.367652 180.383826 
L 349.975279 180.383825 
L 351.582936 180.383824 
L 353.190621 180.383823 
L 354.798332 180.383822 
L 356.406066 180.383822 
L 358.013822 180.383821 
L 359.621597 180.383821 
L 361.22939 180.38382 
L 362.837199 180.38382 
L 364.445022 180.38382 
L 366.052858 180.38382 
L 367.660705 180.383819 
L 369.268563 180.383819 
L 370.876429 180.383819 
L 372.484304 180.383819 
L 374.092185 180.383819 
L 375.700073 180.383819 
L 377.307965 180.383819 
L 378.915862 180.383819 
L 380.523763 180.38382 
L 382.131667 180.38382 
L 383.739574 180.38382 
L 385.347482 180.38382 
L 386.955393 180.38382 
L 388.563305 180.38382 
L 390.171218 180.38382 
L 391.779131 180.38382 
L 393.387046 180.38382 
L 394.99496 180.38382 
L 396.602875 180.38382 
" clip-path="url(#pf7a153bc5e)" style="fill: none; stroke: #ff0000; stroke-opacity: 0.6; stroke-width: 0.25; stroke-linecap: square"/>
   </g>
   <g id="line2d_49">
    <path d="M 348.367652 180.383826 
L 349.975279 180.383825 
L 351.582936 180.383824 
L 353.190621 180.383823 
L 354.798332 180.383822 
L 356.406067 180.383822 
L 358.013822 180.383821 
L 359.621598 180.383821 
L 361.229391 180.38382 
L 362.8372 180.38382 
L 364.445023 180.38382 
L 366.052859 180.38382 
L 367.660707 180.383819 
L 369.268565 180.383819 
L 370.876432 180.383819 
L 372.484307 180.383819 
L 374.092189 180.383819 
L 375.700077 180.383819 
L 377.30797 180.383819 
L 378.915867 180.383819 
L 380.523768 180.38382 
L 382.131673 180.38382 
L 383.73958 180.38382 
L 385.347489 180.38382 
L 386.9554 180.38382 
L 388.563312 180.38382 
L 390.171225 180.38382 
L 391.779139 180.38382 
L 393.387054 180.38382 
L 394.994969 180.38382 
L 396.602884 180.38382 
" clip-path="url(#pf7a153bc5e)" style="fill: none; stroke: #ff0000; stroke-opacity: 0.8; stroke-width: 0.25; stroke-linecap: square"/>
   </g>
   <g id="line2d_50">
    <path d="M 348.367652 180.383826 
L 349.975279 180.383825 
L 351.582936 180.383824 
L 353.190621 180.383823 
L 354.798332 180.383822 
L 356.406067 180.383822 
L 358.013822 180.383821 
L 359.621597 180.383821 
L 361.22939 180.38382 
L 362.837199 180.38382 
L 364.445022 180.38382 
L 366.052858 180.38382 
L 367.660706 180.383819 
L 369.268564 180.383819 
L 370.87643 180.383819 
L 372.484305 180.383819 
L 374.092187 180.383819 
L 375.700074 180.383819 
L 377.307967 180.383819 
L 378.915864 180.383819 
L 380.523765 180.38382 
L 382.13167 180.38382 
L 383.739576 180.38382 
L 385.347485 180.38382 
L 386.955396 180.38382 
L 388.563308 180.38382 
L 390.171221 180.38382 
L 391.779135 180.38382 
L 393.387049 180.38382 
L 394.994964 180.38382 
L 396.602879 180.38382 
" clip-path="url(#pf7a153bc5e)" style="fill: none; stroke: #ff0000; stroke-width: 0.25; stroke-linecap: square"/>
   </g>
   <g id="line2d_51">
    <path d="M 242.015985 102.298641 
L 242.015936 100.724394 
L 242.015893 99.147702 
L 242.015858 97.568652 
L 242.01583 95.987337 
L 242.015809 94.40385 
L 242.015794 92.818293 
L 242.015783 91.230766 
L 242.015776 89.641372 
L 242.015772 88.050214 
L 242.015771 86.457397 
L 242.015771 84.863025 
L 242.015773 83.267199 
L 242.015775 81.670023 
L 242.015779 80.071595 
L 242.015782 78.472014 
L 242.015786 76.871376 
L 242.01579 75.269773 
L 242.015794 73.667297 
L 242.015797 72.064034 
L 242.0158 70.460068 
L 242.015804 68.855482 
L 242.015806 67.250351 
L 242.015809 65.644749 
L 242.015811 64.038747 
L 242.015813 62.432411 
L 242.015815 60.825803 
L 242.015817 59.218983 
L 242.015818 57.612003 
L 242.015819 56.004916 
L 242.015821 54.397768 
" clip-path="url(#pf7a153bc5e)" style="fill: none; stroke: #ff0000; stroke-opacity: 0.2; stroke-width: 0.25; stroke-linecap: square"/>
   </g>
   <g id="line2d_52">
    <path d="M 242.015985 102.298641 
L 242.015939 100.724394 
L 242.015896 99.147719 
L 242.01586 97.568704 
L 242.015832 95.987441 
L 242.015811 94.404028 
L 242.015795 92.818563 
L 242.015784 91.23115 
L 242.015777 89.641893 
L 242.015773 88.050894 
L 242.015771 86.45826 
L 242.015771 84.864096 
L 242.015772 83.268504 
L 242.015774 81.671587 
L 242.015778 80.073446 
L 242.015781 78.47418 
L 242.015785 76.873885 
L 242.015789 75.272656 
L 242.015793 73.670582 
L 242.015796 72.067752 
L 242.0158 70.46425 
L 242.015803 68.860158 
L 242.015806 67.255552 
L 242.015809 65.650506 
L 242.015811 64.045092 
L 242.015813 62.439374 
L 242.015815 60.833414 
L 242.015817 59.227272 
L 242.015819 57.621 
L 242.015821 56.01465 
L 242.015823 54.408266 
" clip-path="url(#pf7a153bc5e)" style="fill: none; stroke: #ff0000; stroke-opacity: 0.4; stroke-width: 0.25; stroke-linecap: square"/>
   </g>
   <g id="line2d_53">
    <path d="M 242.015985 102.298641 
L 242.015941 100.724394 
L 242.015897 99.147708 
L 242.015862 97.56867 
L 242.015834 95.987372 
L 242.015812 94.403912 
L 242.015797 92.818388 
L 242.015785 91.230903 
L 242.015778 89.64156 
L 242.015773 88.050463 
L 242.015771 86.457717 
L 242.015771 84.863426 
L 242.015773 83.267694 
L 242.015775 81.670622 
L 242.015778 80.072312 
L 242.015782 78.472861 
L 242.015785 76.872367 
L 242.015789 75.270922 
L 242.015793 73.668618 
L 242.015797 72.065542 
L 242.0158 70.461779 
L 242.015803 68.85741 
L 242.015806 67.252512 
L 242.015809 65.64716 
L 242.015811 64.041424 
L 242.015813 62.43537 
L 242.015815 60.82906 
L 242.015817 59.222553 
L 242.015818 57.615903 
L 242.01582 56.009161 
L 242.015822 54.402374 
" clip-path="url(#pf7a153bc5e)" style="fill: none; stroke: #ff0000; stroke-opacity: 0.6; stroke-width: 0.25; stroke-linecap: square"/>
   </g>
   <g id="line2d_54">
    <path d="M 242.015985 102.298641 
L 242.015942 100.724394 
L 242.015898 99.147715 
L 242.015863 97.568691 
L 242.015835 95.987416 
L 242.015813 94.403984 
L 242.015797 92.818497 
L 242.015786 91.231056 
L 242.015778 89.641765 
L 242.015773 88.050727 
L 242.015771 86.458049 
L 242.015771 84.863833 
L 242.015773 83.268184 
L 242.015775 81.671203 
L 242.015778 80.072992 
L 242.015782 78.473649 
L 242.015785 76.87327 
L 242.015789 75.271949 
L 242.015793 73.669776 
L 242.015796 72.06684 
L 242.0158 70.463224 
L 242.015803 68.85901 
L 242.015806 67.254275 
L 242.015809 65.649093 
L 242.015811 64.043534 
L 242.015813 62.437664 
L 242.015815 60.831545 
L 242.015817 59.225236 
L 242.015819 57.61879 
L 242.015821 56.012258 
L 242.015822 54.405686 
" clip-path="url(#pf7a153bc5e)" style="fill: none; stroke: #ff0000; stroke-opacity: 0.8; stroke-width: 0.25; stroke-linecap: square"/>
   </g>
   <g id="line2d_55">
    <path d="M 242.015985 102.298641 
L 242.015943 100.724394 
L 242.015899 99.147711 
L 242.015863 97.568678 
L 242.015835 95.987389 
L 242.015813 94.40394 
L 242.015797 92.818431 
L 242.015786 91.230964 
L 242.015778 89.641642 
L 242.015774 88.050569 
L 242.015772 86.457851 
L 242.015771 84.86359 
L 242.015773 83.267893 
L 242.015775 81.670859 
L 242.015778 80.07259 
L 242.015782 78.473185 
L 242.015785 76.872739 
L 242.015789 75.271347 
L 242.015793 73.6691 
L 242.015797 72.066084 
L 242.0158 70.462386 
L 242.015803 68.858084 
L 242.015806 67.253259 
L 242.015809 65.647982 
L 242.015811 64.042325 
L 242.015813 62.436353 
L 242.015815 60.830129 
L 242.015817 59.223712 
L 242.015819 57.617155 
L 242.01582 56.01051 
L 242.015822 54.403822 
" clip-path="url(#pf7a153bc5e)" style="fill: none; stroke: #ff0000; stroke-width: 0.25; stroke-linecap: square"/>
   </g>
   <g id="line2d_56">
    <path d="M 164.090398 168.675151 
L 162.494141 168.674776 
L 160.896937 168.674443 
L 159.298825 168.674124 
L 157.699848 168.673825 
L 156.100048 168.67355 
L 154.499468 168.673302 
L 152.898149 168.673082 
L 151.296136 168.672889 
L 149.69347 168.672722 
L 148.090195 168.672581 
L 146.48635 168.672462 
L 144.881976 168.672364 
L 143.277114 168.672285 
L 141.671801 168.672223 
L 140.066076 168.672174 
L 138.459973 168.672138 
L 136.853528 168.672113 
L 135.246775 168.672095 
L 133.639745 168.672085 
L 132.032469 168.672081 
L 130.424976 168.67208 
L 128.817295 168.672084 
L 127.20945 168.672089 
L 125.601468 168.672097 
L 123.993371 168.672106 
L 122.38518 168.672116 
L 120.776917 168.672126 
L 119.1686 168.672137 
L 117.560246 168.672148 
L 115.951871 168.672158 
" clip-path="url(#pf7a153bc5e)" style="fill: none; stroke: #ff0000; stroke-opacity: 0.2; stroke-width: 0.25; stroke-linecap: square"/>
   </g>
   <g id="line2d_57">
    <path d="M 164.090398 168.675151 
L 162.494141 168.674753 
L 160.896941 168.674421 
L 159.298838 168.674103 
L 157.699873 168.673807 
L 156.100091 168.673535 
L 154.499533 168.673291 
L 152.898242 168.673073 
L 151.296263 168.672883 
L 149.693638 168.67272 
L 148.090408 168.67258 
L 146.486617 168.672464 
L 144.882304 168.672368 
L 143.277509 168.672291 
L 141.672272 168.672229 
L 140.06663 168.672182 
L 138.460619 168.672146 
L 136.854275 168.67212 
L 135.247631 168.672103 
L 133.64072 168.672093 
L 132.033571 168.672088 
L 130.426216 168.672087 
L 128.818681 168.67209 
L 127.210992 168.672096 
L 125.603176 168.672103 
L 123.995254 168.672112 
L 122.387249 168.672121 
L 120.77918 168.672131 
L 119.171067 168.672141 
L 117.562927 168.672151 
L 115.954776 168.672162 
" clip-path="url(#pf7a153bc5e)" style="fill: none; stroke: #ff0000; stroke-opacity: 0.4; stroke-width: 0.25; stroke-linecap: square"/>
   </g>
   <g id="line2d_58">
    <path d="M 164.090398 168.675151 
L 162.494141 168.674739 
L 160.896938 168.674407 
L 159.298829 168.674091 
L 157.699856 168.673797 
L 156.100062 168.673526 
L 154.499489 168.673283 
L 152.89818 168.673067 
L 151.296179 168.672878 
L 149.693528 168.672715 
L 148.09027 168.672576 
L 146.486445 168.67246 
L 144.882095 168.672364 
L 143.27726 168.672287 
L 141.671978 168.672226 
L 140.066286 168.672178 
L 138.460221 168.672142 
L 136.853819 168.672117 
L 135.247112 168.6721 
L 133.640133 168.672089 
L 132.032913 168.672084 
L 130.425481 168.672084 
L 128.817865 168.672087 
L 127.210091 168.672093 
L 125.602184 168.6721 
L 123.994167 168.672109 
L 122.386062 168.672118 
L 120.77789 168.672128 
L 119.169669 168.672139 
L 117.561416 168.672149 
L 115.953148 168.67216 
" clip-path="url(#pf7a153bc5e)" style="fill: none; stroke: #ff0000; stroke-opacity: 0.6; stroke-width: 0.25; stroke-linecap: square"/>
   </g>
   <g id="line2d_59">
    <path d="M 164.090398 168.675151 
L 162.494141 168.67473 
L 160.89694 168.6744 
L 159.298835 168.674085 
L 157.699867 168.673791 
L 156.10008 168.673522 
L 154.499517 168.673279 
L 152.89822 168.673064 
L 151.296232 168.672876 
L 149.693597 168.672714 
L 148.090356 168.672575 
L 146.486551 168.67246 
L 144.882224 168.672365 
L 143.277413 168.672288 
L 141.672157 168.672226 
L 140.066494 168.672179 
L 138.460461 168.672144 
L 136.854092 168.672118 
L 135.247421 168.672101 
L 133.640481 168.672091 
L 132.033301 168.672086 
L 130.425912 168.672086 
L 128.818341 168.672089 
L 127.210614 168.672095 
L 125.602757 168.672102 
L 123.994792 168.672111 
L 122.386741 168.67212 
L 120.778624 168.67213 
L 119.170461 168.672141 
L 117.562268 168.672151 
L 115.954062 168.672161 
" clip-path="url(#pf7a153bc5e)" style="fill: none; stroke: #ff0000; stroke-opacity: 0.8; stroke-width: 0.25; stroke-linecap: square"/>
   </g>
   <g id="line2d_60">
    <path d="M 164.090398 168.675151 
L 162.494141 168.674725 
L 160.896939 168.674395 
L 159.298831 168.674081 
L 157.69986 168.673788 
L 156.100069 168.673519 
L 154.499499 168.673277 
L 152.898195 168.673062 
L 151.2962 168.672874 
L 149.693555 168.672712 
L 148.090304 168.672574 
L 146.486487 168.672459 
L 144.882146 168.672364 
L 143.277321 168.672287 
L 141.67205 168.672226 
L 140.06637 168.672178 
L 138.460319 168.672143 
L 136.853931 168.672118 
L 135.24724 168.6721 
L 133.640277 168.67209 
L 132.033075 168.672085 
L 130.425661 168.672085 
L 128.818065 168.672088 
L 127.210312 168.672094 
L 125.602427 168.672101 
L 123.994434 168.67211 
L 122.386354 168.672119 
L 120.778207 168.672129 
L 119.170012 168.67214 
L 117.561787 168.67215 
L 115.953548 168.67216 
" clip-path="url(#pf7a153bc5e)" style="fill: none; stroke: #ff0000; stroke-width: 0.25; stroke-linecap: square"/>
   </g>
   <g id="line2d_61">
    <path d="M 307.579588 180.382774 
L 309.177132 180.383009 
L 310.776472 180.383227 
L 312.377571 180.383408 
L 313.980385 180.383556 
L 315.584863 180.383676 
L 317.190948 180.38377 
L 318.79858 180.383842 
L 320.407693 180.383895 
L 322.018219 180.383933 
L 323.630088 180.383958 
L 325.243225 180.383973 
L 326.857557 180.38398 
L 328.473008 180.38398 
L 330.089501 180.383976 
L 331.706962 180.383968 
L 333.325313 180.383957 
L 334.944481 180.383946 
L 336.56439 180.383933 
L 338.18497 180.38392 
L 339.806148 180.383908 
L 341.427855 180.383895 
L 343.050026 180.383884 
L 344.672596 180.383873 
L 346.295502 180.383863 
L 347.918686 180.383853 
L 349.542091 180.383844 
L 351.165666 180.383836 
L 352.78936 180.383828 
L 354.413127 180.38382 
L 356.036926 180.383812 
" clip-path="url(#pf7a153bc5e)" style="fill: none; stroke: #ff0000; stroke-opacity: 0.2; stroke-width: 0.25; stroke-linecap: square"/>
   </g>
   <g id="line2d_62">
    <path d="M 307.579588 180.382774 
L 309.177132 180.383004 
L 310.776485 180.383222 
L 312.37761 180.383404 
L 313.980463 180.383552 
L 315.584994 180.383672 
L 317.191147 180.383767 
L 318.79886 180.383839 
L 320.408069 180.383893 
L 322.018706 180.383931 
L 323.630699 180.383957 
L 325.243977 180.383972 
L 326.858465 180.383979 
L 328.474087 180.383979 
L 330.090768 180.383974 
L 331.708431 180.383967 
L 333.327001 180.383956 
L 334.946404 180.383945 
L 336.566564 180.383932 
L 338.187411 180.38392 
L 339.808871 180.383907 
L 341.430878 180.383895 
L 343.053362 180.383884 
L 344.676261 180.383873 
L 346.299511 180.383863 
L 347.923053 180.383854 
L 349.546831 180.383846 
L 351.170791 180.383838 
L 352.794884 180.38383 
L 354.419063 180.383823 
L 356.043284 180.383816 
" clip-path="url(#pf7a153bc5e)" style="fill: none; stroke: #ff0000; stroke-opacity: 0.4; stroke-width: 0.25; stroke-linecap: square"/>
   </g>
   <g id="line2d_63">
    <path d="M 307.579588 180.382774 
L 309.177132 180.383001 
L 310.776477 180.383219 
L 312.377586 180.383401 
L 313.980415 180.38355 
L 315.584913 180.383671 
L 317.191025 180.383765 
L 318.798689 180.383838 
L 320.40784 180.383892 
L 322.018411 180.383931 
L 323.63033 180.383956 
L 325.243525 180.383972 
L 326.85792 180.383979 
L 328.473442 180.383979 
L 330.090014 180.383975 
L 331.707559 180.383967 
L 333.326004 180.383957 
L 334.945271 180.383945 
L 336.565289 180.383933 
L 338.185984 180.38392 
L 339.807285 180.383907 
L 341.429124 180.383895 
L 343.051433 180.383884 
L 344.674149 180.383873 
L 346.297209 180.383863 
L 347.920554 180.383854 
L 349.544129 180.383845 
L 351.167879 180.383837 
L 352.791756 180.383829 
L 354.415713 180.383821 
L 356.039708 180.383814 
" clip-path="url(#pf7a153bc5e)" style="fill: none; stroke: #ff0000; stroke-opacity: 0.6; stroke-width: 0.25; stroke-linecap: square"/>
   </g>
   <g id="line2d_64">
    <path d="M 307.579588 180.382774 
L 309.177132 180.382999 
L 310.776482 180.383217 
L 312.377601 180.3834 
L 313.980444 180.383549 
L 315.584962 180.38367 
L 317.191098 180.383764 
L 318.798791 180.383837 
L 320.407977 180.383892 
L 322.018586 180.38393 
L 323.630549 180.383956 
L 325.243793 180.383971 
L 326.858242 180.383978 
L 328.473822 180.383979 
L 330.090457 180.383974 
L 331.70807 180.383967 
L 333.326587 180.383956 
L 334.945932 180.383945 
L 336.566031 180.383932 
L 338.186812 180.38392 
L 339.808203 180.383907 
L 341.430136 180.383895 
L 343.052543 180.383884 
L 344.675361 180.383873 
L 346.298526 180.383863 
L 347.92198 180.383854 
L 349.545667 180.383845 
L 351.169532 180.383837 
L 352.793527 180.38383 
L 354.417604 180.383822 
L 356.041722 180.383815 
" clip-path="url(#pf7a153bc5e)" style="fill: none; stroke: #ff0000; stroke-opacity: 0.8; stroke-width: 0.25; stroke-linecap: square"/>
   </g>
   <g id="line2d_65">
    <path d="M 307.579588 180.382774 
L 309.177132 180.382997 
L 310.776479 180.383216 
L 312.377592 180.383399 
L 313.980427 180.383548 
L 315.584933 180.383669 
L 317.191055 180.383764 
L 318.798731 180.383837 
L 320.407896 180.383891 
L 322.018483 180.38393 
L 323.630421 180.383956 
L 325.243636 180.383971 
L 326.858054 180.383978 
L 328.4736 180.383979 
L 330.090199 180.383974 
L 331.707773 180.383967 
L 333.326248 180.383957 
L 334.945549 180.383945 
L 336.565602 180.383932 
L 338.186334 180.38392 
L 339.807674 180.383907 
L 341.429554 180.383895 
L 343.051907 180.383884 
L 344.674667 180.383873 
L 346.297774 180.383863 
L 347.921168 180.383854 
L 349.544793 180.383845 
L 351.168595 180.383837 
L 352.792525 180.383829 
L 354.416536 180.383822 
L 356.040587 180.383814 
" clip-path="url(#pf7a153bc5e)" style="fill: none; stroke: #ff0000; stroke-width: 0.25; stroke-linecap: square"/>
   </g>
   <g id="line2d_66">
    <path d="M 241.998803 130.530282 
L 241.98825 129.083781 
L 241.978507 127.645683 
L 241.972097 126.215532 
L 241.968399 124.792896 
L 241.966864 123.377343 
L 241.967015 121.968445 
L 241.968441 120.565781 
L 241.970794 119.168936 
L 241.973785 117.777505 
L 241.977176 116.391096 
L 241.980778 115.009328 
L 241.984441 113.631833 
L 241.988051 112.258259 
L 241.991522 110.888267 
L 241.994794 109.521533 
L 241.997829 108.157747 
L 242.000603 106.796617 
L 242.003109 105.437865 
L 242.005346 104.081226 
L 242.007326 102.726454 
L 242.009064 101.373315 
L 242.01058 100.021591 
L 242.011899 98.671078 
L 242.013044 97.321586 
L 242.014044 95.972938 
L 242.014926 94.62497 
L 242.015716 93.277534 
L 242.016443 91.930489 
L 242.017131 90.583709 
L 242.01785 89.237079 
" clip-path="url(#pf7a153bc5e)" style="fill: none; stroke: #ff0000; stroke-opacity: 0.2; stroke-width: 0.25; stroke-linecap: square"/>
   </g>
   <g id="line2d_67">
    <path d="M 241.998803 130.530282 
L 241.990121 129.083769 
L 241.98029 127.645655 
L 241.973731 126.215469 
L 241.969843 124.792777 
L 241.968092 123.377145 
L 241.968013 121.968143 
L 241.969207 120.565345 
L 241.971335 119.168336 
L 241.974115 117.776708 
L 241.977317 116.390067 
L 241.980752 115.008028 
L 241.984275 113.630223 
L 241.987771 112.256295 
L 241.991155 110.885904 
L 241.994367 109.518722 
L 241.997366 108.154441 
L 242.000128 106.792762 
L 242.002642 105.433408 
L 242.004907 104.076111 
L 242.006932 102.720624 
L 242.008731 101.366711 
L 242.010323 100.014153 
L 242.011731 98.662743 
L 242.01298 97.312292 
L 242.014097 95.962621 
L 242.015109 94.613566 
L 242.016045 93.264976 
L 242.016932 91.916713 
L 242.017797 90.568649 
L 242.018649 89.22067 
" clip-path="url(#pf7a153bc5e)" style="fill: none; stroke: #ff0000; stroke-opacity: 0.4; stroke-width: 0.25; stroke-linecap: square"/>
   </g>
   <g id="line2d_68">
    <path d="M 241.998803 130.530282 
L 241.991173 129.083763 
L 241.981271 127.645663 
L 241.97462 126.215505 
L 241.97063 124.792857 
L 241.968776 123.377284 
L 241.968598 121.968357 
L 241.969701 120.565652 
L 241.971751 119.168755 
L 241.974464 117.777258 
L 241.977611 116.390768 
L 241.981004 115.008903 
L 241.984493 113.631293 
L 241.987963 112.257584 
L 241.991326 110.887435 
L 241.994521 109.520522 
L 241.997505 108.156534 
L 242.000252 106.795175 
L 242.002748 105.436167 
L 242.004994 104.079245 
L 242.006996 102.72416 
L 242.008768 101.370677 
L 242.010328 100.018577 
L 242.011699 98.667655 
L 242.012906 97.317721 
L 242.013975 95.968596 
L 242.014933 94.620116 
L 242.015808 93.272132 
L 242.016627 91.924502 
L 242.017417 90.577102 
L 242.018211 89.229814 
" clip-path="url(#pf7a153bc5e)" style="fill: none; stroke: #ff0000; stroke-opacity: 0.6; stroke-width: 0.25; stroke-linecap: square"/>
   </g>
   <g id="line2d_69">
    <path d="M 241.998803 130.530282 
L 241.991756 129.08376 
L 241.981795 127.645651 
L 241.975078 126.215475 
L 241.97102 124.792797 
L 241.9691 123.377186 
L 241.968862 121.968209 
L 241.969911 120.565445 
L 241.971914 119.168476 
L 241.974587 117.776897 
L 241.9777 116.390312 
L 241.981065 115.00834 
L 241.98453 113.630611 
L 241.987981 112.256771 
L 241.99133 110.886477 
L 241.994513 109.519406 
L 241.997488 108.155247 
L 242.000229 106.793704 
L 242.002724 105.434497 
L 242.004971 104.077363 
L 242.006977 102.722052 
L 242.008757 101.36833 
L 242.010329 100.015977 
L 242.011716 98.664789 
L 242.012941 97.314574 
L 242.014032 95.965155 
L 242.015016 94.616368 
L 242.01592 93.268062 
L 242.016772 91.920099 
L 242.017598 90.572352 
L 242.018421 89.224705 
" clip-path="url(#pf7a153bc5e)" style="fill: none; stroke: #ff0000; stroke-opacity: 0.8; stroke-width: 0.25; stroke-linecap: square"/>
   </g>
   <g id="line2d_70">
    <path d="M 241.998803 130.530282 
L 241.992083 129.083758 
L 241.982084 127.645656 
L 241.975329 126.215492 
L 241.971233 124.792833 
L 241.969279 123.377246 
L 241.969011 121.9683 
L 241.970034 120.565573 
L 241.972014 119.168648 
L 241.974668 117.77712 
L 241.977765 116.390592 
L 241.981115 115.008684 
L 241.984569 113.631027 
L 241.98801 112.257264 
L 241.99135 110.887056 
L 241.994526 109.520077 
L 241.997494 108.156017 
L 242.000229 106.79458 
L 242.002718 105.435487 
L 242.00496 104.078473 
L 242.006961 102.723289 
L 242.008735 101.369701 
L 242.0103 100.017488 
L 242.011679 98.666447 
L 242.012895 97.316385 
L 242.013977 95.967126 
L 242.014949 94.618505 
L 242.015841 93.270372 
L 242.016678 91.922587 
L 242.017489 90.575023 
L 242.018298 89.227566 
" clip-path="url(#pf7a153bc5e)" style="fill: none; stroke: #ff0000; stroke-width: 0.25; stroke-linecap: square"/>
   </g>
   <g id="line2d_71">
    <path d="M 273.193202 180.07804 
L 274.65711 180.127319 
L 276.123969 180.171406 
L 277.593666 180.210699 
L 279.066088 180.245296 
L 280.541117 180.275394 
L 282.018632 180.301264 
L 283.498505 180.32322 
L 284.980612 180.341607 
L 286.464826 180.356781 
L 287.951023 180.369098 
L 289.439078 180.378908 
L 290.92887 180.38654 
L 292.420279 180.392307 
L 293.913188 180.396492 
L 295.40748 180.399358 
L 296.903045 180.401135 
L 298.399771 180.402031 
L 299.897554 180.402224 
L 301.396288 180.401868 
L 302.895874 180.401095 
L 304.396216 180.400013 
L 305.89722 180.398711 
L 307.398799 180.397262 
L 308.900868 180.39572 
L 310.403346 180.394128 
L 311.906157 180.392515 
L 313.409229 180.390901 
L 314.912496 180.389299 
L 316.415895 180.38771 
L 317.919369 180.386194 
" clip-path="url(#pf7a153bc5e)" style="fill: none; stroke: #ff0000; stroke-opacity: 0.2; stroke-width: 0.25; stroke-linecap: square"/>
   </g>
   <g id="line2d_72">
    <path d="M 273.193202 180.07804 
L 274.657102 180.127549 
L 276.123943 180.171621 
L 277.593601 180.21089 
L 279.065963 180.245458 
L 280.540911 180.275524 
L 282.01832 180.301358 
L 283.498064 180.323278 
L 284.980016 180.341629 
L 286.464048 180.356769 
L 287.950034 180.369054 
L 289.43785 180.378834 
L 290.927373 180.386439 
L 292.418482 180.392181 
L 293.911058 180.396344 
L 295.404985 180.399188 
L 296.90015 180.400945 
L 298.396442 180.40182 
L 299.893754 180.40199 
L 301.391982 180.401611 
L 302.891026 180.40081 
L 304.390788 180.399697 
L 305.891176 180.39836 
L 307.3921 180.39687 
L 308.893477 180.395282 
L 310.395227 180.39364 
L 311.897272 180.391973 
L 313.399543 180.390302 
L 314.901973 180.388642 
L 316.4045 180.386999 
L 317.907069 180.385352 
" clip-path="url(#pf7a153bc5e)" style="fill: none; stroke: #ff0000; stroke-opacity: 0.4; stroke-width: 0.25; stroke-linecap: square"/>
   </g>
   <g id="line2d_73">
    <path d="M 273.193202 180.07804 
L 274.657098 180.12767 
L 276.123952 180.171731 
L 277.593636 180.210989 
L 279.066039 180.245546 
L 280.541041 180.275602 
L 282.018518 180.301429 
L 283.498345 180.323343 
L 284.980395 180.341692 
L 286.464541 180.356831 
L 287.950657 180.369118 
L 289.438619 180.378902 
L 290.928305 180.386513 
L 292.419593 180.392262 
L 293.912366 180.396434 
L 295.406508 180.399288 
L 296.901906 180.401057 
L 298.398449 180.401944 
L 299.89603 180.402129 
L 301.394546 180.401764 
L 302.893896 180.400981 
L 304.393982 180.399888 
L 305.894712 180.398573 
L 307.395998 180.397108 
L 308.897753 180.395548 
L 310.399899 180.393936 
L 311.902357 180.392302 
L 313.405058 180.390666 
L 314.907935 180.389041 
L 316.410925 180.387434 
L 317.913971 180.385856 
" clip-path="url(#pf7a153bc5e)" style="fill: none; stroke: #ff0000; stroke-opacity: 0.6; stroke-width: 0.25; stroke-linecap: square"/>
   </g>
   <g id="line2d_74">
    <path d="M 273.193202 180.07804 
L 274.657096 180.127731 
L 276.123942 180.171784 
L 277.59361 180.211033 
L 279.065988 180.245581 
L 280.540957 180.275629 
L 282.018392 180.301447 
L 283.498168 180.323354 
L 284.980158 180.341695 
L 286.464235 180.356827 
L 287.950273 180.369107 
L 289.438148 180.378884 
L 290.927737 180.386488 
L 292.41892 180.392229 
L 293.911577 180.396393 
L 295.405594 180.399238 
L 296.900858 180.400998 
L 298.397256 180.401875 
L 299.894684 180.402049 
L 301.393036 180.401674 
L 302.892213 180.400878 
L 304.392118 180.399772 
L 305.892658 180.398442 
L 307.393744 180.396962 
L 308.895291 180.395385 
L 310.397219 180.393754 
L 311.899453 180.392099 
L 313.401922 180.390442 
L 314.904558 180.388796 
L 316.4073 180.387166 
L 317.910092 180.385551 
" clip-path="url(#pf7a153bc5e)" style="fill: none; stroke: #ff0000; stroke-opacity: 0.8; stroke-width: 0.25; stroke-linecap: square"/>
   </g>
   <g id="line2d_75">
    <path d="M 273.193202 180.07804 
L 274.657095 180.127764 
L 276.123946 180.171812 
L 277.593624 180.211057 
L 279.066018 180.245602 
L 280.541007 180.275647 
L 282.018467 180.301464 
L 283.498274 180.323371 
L 284.9803 180.341711 
L 286.464418 180.356844 
L 287.950502 180.369126 
L 289.438429 180.378904 
L 290.928075 180.38651 
L 292.419319 180.392254 
L 293.912044 180.396421 
L 295.406134 180.399271 
L 296.901474 180.401035 
L 298.397956 180.401917 
L 299.895471 180.402097 
L 301.393916 180.401728 
L 302.89319 180.40094 
L 304.393197 180.399842 
L 305.893844 180.398521 
L 307.39504 180.39705 
L 308.896703 180.395483 
L 310.398751 180.393864 
L 311.901108 180.392222 
L 313.403703 180.390578 
L 314.90647 180.388944 
L 316.409346 180.387328 
L 317.912275 180.385734 
" clip-path="url(#pf7a153bc5e)" style="fill: none; stroke: #ff0000; stroke-width: 0.25; stroke-linecap: square"/>
   </g>
   <g id="line2d_76">
    <path d="M 230.308832 233.003168 
L 230.308031 234.866802 
L 230.307364 236.729628 
L 230.306753 238.591865 
L 230.306208 240.45371 
L 230.305733 242.315338 
L 230.305328 244.1769 
L 230.30499 246.038532 
L 230.304714 247.900348 
L 230.304493 249.762444 
L 230.30432 251.6249 
L 230.30419 253.487782 
L 230.304096 255.351141 
L 230.30403 257.215012 
L 230.303988 259.07942 
L 230.303965 260.94438 
L 230.303956 262.809893 
L 230.303958 264.675954 
L 230.303968 266.542548 
L 230.303983 268.409653 
L 230.304001 270.277241 
L 230.30402 272.145278 
L 230.304041 274.013725 
L 230.304061 275.882541 
L 230.304081 277.75168 
L 230.3041 279.621096 
L 230.304118 281.490741 
L 230.304134 283.360567 
L 230.30415 285.230527 
L 230.304166 287.100573 
L 230.304181 288.970664 
" clip-path="url(#pf7a153bc5e)" style="fill: none; stroke: #ff0000; stroke-opacity: 0.2; stroke-width: 0.25; stroke-linecap: square"/>
   </g>
   <g id="line2d_77">
    <path d="M 230.308832 233.003168 
L 230.308012 234.866802 
L 230.307345 236.729613 
L 230.306736 238.59182 
L 230.306193 240.453619 
L 230.30572 242.315186 
L 230.305318 244.176673 
L 230.304981 246.038214 
L 230.304707 247.899923 
L 230.304488 249.761898 
L 230.304317 251.624218 
L 230.304188 253.486949 
L 230.304095 255.350141 
L 230.30403 257.213832 
L 230.303989 259.078045 
L 230.303966 260.942796 
L 230.303958 262.808086 
L 230.30396 264.673909 
L 230.30397 266.540253 
L 230.303985 268.407095 
L 230.304003 270.274407 
L 230.304023 272.142156 
L 230.304044 274.010305 
L 230.304064 275.878811 
L 230.304084 277.74763 
L 230.304103 279.616717 
L 230.304121 281.486023 
L 230.304138 283.355503 
L 230.304154 285.225108 
L 230.30417 287.094795 
L 230.304185 288.96452 
" clip-path="url(#pf7a153bc5e)" style="fill: none; stroke: #ff0000; stroke-opacity: 0.4; stroke-width: 0.25; stroke-linecap: square"/>
   </g>
   <g id="line2d_78">
    <path d="M 230.308832 233.003168 
L 230.307997 234.866802 
L 230.307331 236.729622 
L 230.306723 238.591846 
L 230.306182 240.453673 
L 230.305711 242.315275 
L 230.30531 244.176806 
L 230.304975 246.0384 
L 230.304702 247.900172 
L 230.304484 249.762217 
L 230.304315 251.624616 
L 230.304186 253.487435 
L 230.304093 255.350723 
L 230.304029 257.214518 
L 230.303988 259.078843 
L 230.303966 260.943713 
L 230.303957 262.809131 
L 230.30396 264.67509 
L 230.303969 266.541576 
L 230.303984 268.408567 
L 230.304002 270.276035 
L 230.304022 272.143946 
L 230.304043 274.012262 
L 230.304063 275.880941 
L 230.304083 277.749939 
L 230.304101 279.619208 
L 230.304119 281.488703 
L 230.304136 283.358374 
L 230.304152 285.228174 
L 230.304168 287.098059 
L 230.304183 288.967984 
" clip-path="url(#pf7a153bc5e)" style="fill: none; stroke: #ff0000; stroke-opacity: 0.6; stroke-width: 0.25; stroke-linecap: square"/>
   </g>
   <g id="line2d_79">
    <path d="M 230.308832 233.003168 
L 230.307986 234.866802 
L 230.307321 236.729616 
L 230.306714 238.591831 
L 230.306174 240.453642 
L 230.305705 242.315223 
L 230.305305 244.176729 
L 230.304971 246.038292 
L 230.304699 247.900027 
L 230.304482 249.762032 
L 230.304313 251.624386 
L 230.304185 253.487154 
L 230.304093 255.350387 
L 230.304029 257.214122 
L 230.303988 259.078383 
L 230.303966 260.943184 
L 230.303958 262.808529 
L 230.30396 264.674411 
L 230.30397 266.540817 
L 230.303985 268.407723 
L 230.304003 270.275103 
L 230.304023 272.142923 
L 230.304044 274.011145 
L 230.304064 275.879727 
L 230.304084 277.748625 
L 230.304103 279.617792 
L 230.30412 281.487182 
L 230.304137 283.356747 
L 230.304153 285.22644 
L 230.304169 287.096215 
L 230.304184 288.96603 
" clip-path="url(#pf7a153bc5e)" style="fill: none; stroke: #ff0000; stroke-opacity: 0.8; stroke-width: 0.25; stroke-linecap: square"/>
   </g>
   <g id="line2d_80">
    <path d="M 230.308832 233.003168 
L 230.307977 234.866802 
L 230.307313 236.729619 
L 230.306707 238.59184 
L 230.306168 240.45366 
L 230.3057 242.315253 
L 230.305301 244.176774 
L 230.304968 246.038355 
L 230.304697 247.900111 
L 230.30448 249.762138 
L 230.304312 251.624519 
L 230.304184 253.487316 
L 230.304092 255.35058 
L 230.304028 257.214349 
L 230.303988 259.078647 
L 230.303966 260.943488 
L 230.303958 262.808874 
L 230.30396 264.6748 
L 230.30397 266.541251 
L 230.303985 268.408205 
L 230.304003 270.275635 
L 230.304023 272.143506 
L 230.304043 274.011781 
L 230.304064 275.880418 
L 230.304083 277.749371 
L 230.304102 279.618596 
L 230.30412 281.488044 
L 230.304137 283.357668 
L 230.304153 285.227421 
L 230.304168 287.097257 
L 230.304184 288.967133 
" clip-path="url(#pf7a153bc5e)" style="fill: none; stroke: #ff0000; stroke-width: 0.25; stroke-linecap: square"/>
   </g>
   <g id="line2d_81">
    <path d="M 199.129655 168.992519 
L 197.666422 168.940677 
L 196.20014 168.894272 
L 194.730928 168.852959 
L 193.258907 168.816619 
L 191.784202 168.785035 
L 190.306943 168.757915 
L 188.827262 168.73492 
L 187.345292 168.715683 
L 185.861163 168.699825 
L 184.375005 168.686968 
L 182.886947 168.676745 
L 181.397115 168.668804 
L 179.905633 168.662819 
L 178.412622 168.658488 
L 176.9182 168.655539 
L 175.422482 168.653725 
L 173.925582 168.652832 
L 172.427607 168.652671 
L 170.928664 168.65308 
L 169.428855 168.653923 
L 167.928279 168.655085 
L 166.427028 168.656473 
L 164.925195 168.658014 
L 163.422865 168.659648 
L 161.92012 168.661333 
L 160.417036 168.663037 
L 158.913688 168.66474 
L 157.410142 168.666431 
L 155.906463 168.668105 
L 154.402707 168.669705 
" clip-path="url(#pf7a153bc5e)" style="fill: none; stroke: #ff0000; stroke-opacity: 0.2; stroke-width: 0.25; stroke-linecap: square"/>
   </g>
   <g id="line2d_82">
    <path d="M 199.129655 168.992519 
L 197.666429 168.94048 
L 196.200165 168.894089 
L 194.730993 168.852795 
L 193.259032 168.816481 
L 191.78441 168.784925 
L 190.307257 168.757836 
L 188.827707 168.734873 
L 187.345894 168.715668 
L 185.861949 168.699841 
L 184.376003 168.687013 
L 182.888187 168.676817 
L 181.398627 168.668902 
L 179.907449 168.662941 
L 178.414773 168.658633 
L 176.920721 168.655704 
L 175.425407 168.653912 
L 173.928945 168.653042 
L 172.431446 168.652905 
L 170.933014 168.653341 
L 169.433754 168.654214 
L 167.933763 168.655411 
L 166.433136 168.656839 
L 164.931964 168.658425 
L 163.430333 168.66011 
L 161.928324 168.66185 
L 160.426015 168.663614 
L 158.923477 168.665381 
L 157.420777 168.667136 
L 155.917979 168.668871 
L 154.415138 168.670612 
" clip-path="url(#pf7a153bc5e)" style="fill: none; stroke: #ff0000; stroke-opacity: 0.4; stroke-width: 0.25; stroke-linecap: square"/>
   </g>
   <g id="line2d_83">
    <path d="M 199.129655 168.992519 
L 197.666433 168.940378 
L 196.200156 168.893996 
L 194.730956 168.852712 
L 193.258955 168.816406 
L 191.784278 168.784858 
L 190.307057 168.757775 
L 188.827423 168.734815 
L 187.34551 168.715612 
L 185.86145 168.699785 
L 184.375374 168.686955 
L 182.88741 168.676754 
L 181.397686 168.668832 
L 179.906326 168.662863 
L 178.413451 168.658545 
L 176.919182 168.655606 
L 175.423633 168.653801 
L 173.926917 168.652917 
L 172.429146 168.652765 
L 170.930424 168.653184 
L 169.430854 168.654038 
L 167.930535 168.655213 
L 166.429562 168.656617 
L 164.928026 168.658175 
L 163.426012 168.659829 
L 161.923603 168.661536 
L 160.420875 168.663263 
L 158.917902 168.664991 
L 157.414752 168.666707 
L 155.911486 168.668404 
L 154.408163 168.670069 
" clip-path="url(#pf7a153bc5e)" style="fill: none; stroke: #ff0000; stroke-opacity: 0.6; stroke-width: 0.25; stroke-linecap: square"/>
   </g>
   <g id="line2d_84">
    <path d="M 199.129655 168.992519 
L 197.666435 168.940326 
L 196.200166 168.893951 
L 194.730983 168.852674 
L 193.259006 168.816376 
L 191.784363 168.784836 
L 190.307184 168.75776 
L 188.827602 168.734808 
L 187.34575 168.715611 
L 185.861759 168.69979 
L 184.375762 168.686967 
L 182.887886 168.676773 
L 181.398259 168.668858 
L 179.907006 168.662897 
L 178.414248 168.658587 
L 176.920105 168.655656 
L 175.424692 168.653862 
L 173.928123 168.652987 
L 172.430506 168.652846 
L 170.931949 168.653277 
L 169.432554 168.654144 
L 167.932419 168.655334 
L 166.431639 168.656753 
L 164.930304 168.658328 
L 163.428501 168.660002 
L 161.92631 168.661729 
L 160.42381 168.663479 
L 158.921072 168.66523 
L 157.418165 168.66697 
L 155.915149 168.668691 
L 154.412083 168.670397 
" clip-path="url(#pf7a153bc5e)" style="fill: none; stroke: #ff0000; stroke-opacity: 0.8; stroke-width: 0.25; stroke-linecap: square"/>
   </g>
   <g id="line2d_85">
    <path d="M 199.129655 168.992519 
L 197.666436 168.940299 
L 196.200161 168.893927 
L 194.730968 168.852654 
L 193.258976 168.816358 
L 191.784313 168.78482 
L 190.307108 168.757745 
L 188.827495 168.734793 
L 187.345606 168.715596 
L 185.861574 168.699774 
L 184.37553 168.686949 
L 182.887602 168.676753 
L 181.397918 168.668836 
L 179.906602 168.662872 
L 178.413777 168.658558 
L 176.91956 168.655624 
L 175.424069 168.653824 
L 173.927416 168.652944 
L 172.429711 168.652797 
L 170.93106 168.65322 
L 169.431566 168.65408 
L 167.931328 168.655261 
L 166.43044 168.656671 
L 164.928993 168.658235 
L 163.427073 168.659897 
L 161.924763 168.661612 
L 160.422138 168.663348 
L 158.919272 168.665086 
L 157.416232 168.66681 
L 155.913081 168.668517 
L 154.409877 168.6702 
" clip-path="url(#pf7a153bc5e)" style="fill: none; stroke: #ff0000; stroke-width: 0.25; stroke-linecap: square"/>
   </g>
   <g id="line2d_86">
    <path d="M 230.775192 210.246437 
L 230.693994 211.815116 
L 230.620895 213.382761 
L 230.556488 214.9492 
L 230.500471 216.514248 
L 230.452387 218.077748 
L 230.411676 219.639573 
L 230.377706 221.199626 
L 230.349812 222.757838 
L 230.32732 224.314171 
L 230.309566 225.868608 
L 230.295913 227.421157 
L 230.28576 228.971845 
L 230.278555 230.520719 
L 230.273793 232.067837 
L 230.271024 233.613274 
L 230.269849 235.157112 
L 230.269923 236.699445 
L 230.270949 238.240372 
L 230.272679 239.78 
L 230.274906 241.318436 
L 230.277465 242.855795 
L 230.280224 244.392191 
L 230.283083 245.927739 
L 230.28597 247.462553 
L 230.288837 248.996747 
L 230.291653 250.530431 
L 230.294407 252.063715 
L 230.297098 253.5967 
L 230.299738 255.129485 
L 230.30231 256.662162 
" clip-path="url(#pf7a153bc5e)" style="fill: none; stroke: #ff0000; stroke-opacity: 0.2; stroke-width: 0.25; stroke-linecap: square"/>
   </g>
   <g id="line2d_87">
    <path d="M 230.775192 210.246437 
L 230.694441 211.815139 
L 230.621339 213.382858 
L 230.556909 214.949443 
L 230.500852 216.514709 
L 230.452718 218.078499 
L 230.41195 219.640685 
L 230.377921 221.201171 
L 230.349971 222.759887 
L 230.327427 224.316794 
L 230.309629 225.871875 
L 230.29594 227.425136 
L 230.285764 228.976606 
L 230.278547 230.526328 
L 230.273787 232.074362 
L 230.271033 233.62078 
L 230.269886 235.165665 
L 230.270002 236.709108 
L 230.271085 238.251208 
L 230.272885 239.792069 
L 230.275196 241.3318 
L 230.277852 242.870511 
L 230.280723 244.408315 
L 230.283708 245.945326 
L 230.286735 247.481656 
L 230.289754 249.017415 
L 230.292735 250.552713 
L 230.295665 252.087654 
L 230.298543 253.622338 
L 230.301375 255.15686 
L 230.304187 256.691308 
" clip-path="url(#pf7a153bc5e)" style="fill: none; stroke: #ff0000; stroke-opacity: 0.4; stroke-width: 0.25; stroke-linecap: square"/>
   </g>
   <g id="line2d_88">
    <path d="M 230.775192 210.246437 
L 230.694685 211.815151 
L 230.621562 213.382824 
L 230.557103 214.949317 
L 230.501016 216.514447 
L 230.45285 218.078059 
L 230.41205 219.640025 
L 230.377992 221.200251 
L 230.350014 222.758668 
L 230.327445 224.315236 
L 230.309624 225.869941 
L 230.295915 227.422791 
L 230.285719 228.973813 
L 230.278484 230.523053 
L 230.273703 232.070572 
L 230.270928 233.616442 
L 230.269757 235.160749 
L 230.269846 236.703583 
L 230.270896 238.245047 
L 230.272659 239.785244 
L 230.274927 241.324284 
L 230.277535 242.86228 
L 230.280349 244.399346 
L 230.283272 245.935596 
L 230.286229 247.471144 
L 230.289172 249.006104 
L 230.292072 250.540583 
L 230.294915 252.07469 
L 230.297701 253.608526 
L 230.300438 255.142186 
L 230.303141 256.675762 
" clip-path="url(#pf7a153bc5e)" style="fill: none; stroke: #ff0000; stroke-opacity: 0.6; stroke-width: 0.25; stroke-linecap: square"/>
   </g>
   <g id="line2d_89">
    <path d="M 230.775192 210.246437 
L 230.694833 211.815159 
L 230.6217 213.382857 
L 230.55723 214.949403 
L 230.501129 216.51461 
L 230.452951 218.078323 
L 230.412141 219.640415 
L 230.378075 221.200789 
L 230.350091 222.759375 
L 230.32752 224.316135 
L 230.309699 225.871051 
L 230.295992 227.424131 
L 230.285801 228.975403 
L 230.278572 230.52491 
L 230.2738 232.072713 
L 230.271034 233.618885 
L 230.269876 235.163507 
L 230.269979 236.706672 
L 230.271046 238.24848 
L 230.272828 239.789034 
L 230.275118 241.328443 
L 230.277751 242.86682 
L 230.280595 244.404276 
L 230.283549 245.940927 
L 230.286542 247.476884 
L 230.289524 249.01226 
L 230.292466 250.547164 
L 230.295353 252.081701 
L 230.298185 253.615972 
L 230.300971 255.150072 
L 230.303726 256.684091 
" clip-path="url(#pf7a153bc5e)" style="fill: none; stroke: #ff0000; stroke-opacity: 0.8; stroke-width: 0.25; stroke-linecap: square"/>
   </g>
   <g id="line2d_90">
    <path d="M 230.775192 210.246437 
L 230.694913 211.815163 
L 230.621766 213.382846 
L 230.557282 214.949361 
L 230.501168 216.514524 
L 230.452977 218.07818 
L 230.412155 219.640201 
L 230.378078 221.200491 
L 230.350085 222.758983 
L 230.327504 224.315636 
L 230.309673 225.870435 
L 230.295957 227.423388 
L 230.285757 228.974522 
L 230.278519 230.523883 
L 230.273737 232.07153 
L 230.270962 233.617537 
L 230.269793 235.161988 
L 230.269885 236.704974 
L 230.270941 238.246595 
L 230.272711 239.786956 
L 230.274988 241.326168 
L 230.277607 242.86434 
L 230.280434 244.401588 
L 230.283372 245.938026 
L 230.286346 247.473766 
L 230.289308 249.008922 
L 230.292228 250.543603 
L 230.295093 252.077913 
L 230.297901 253.611956 
L 230.300663 255.145827 
L 230.303392 256.679615 
" clip-path="url(#pf7a153bc5e)" style="fill: none; stroke: #ff0000; stroke-width: 0.25; stroke-linecap: square"/>
   </g>
   <g id="patch_15">
    <path d="M 103.104 307.584 
L 103.104 41.472 
" style="fill: none; stroke: #000000; stroke-width: 0.8; stroke-linejoin: miter; stroke-linecap: square"/>
   </g>
   <g id="patch_16">
    <path d="M 369.216 307.584 
L 369.216 41.472 
" style="fill: none; stroke: #000000; stroke-width: 0.8; stroke-linejoin: miter; stroke-linecap: square"/>
   </g>
   <g id="patch_17">
    <path d="M 103.104 307.584 
L 369.216 307.584 
" style="fill: none; stroke: #000000; stroke-width: 0.8; stroke-linejoin: miter; stroke-linecap: square"/>
   </g>
   <g id="patch_18">
    <path d="M 103.104 41.472 
L 369.216 41.472 
" style="fill: none; stroke: #000000; stroke-width: 0.8; stroke-linejoin: miter; stroke-linecap: square"/>
   </g>
   <g id="text_19">
    <!-- Time: 100 ms -->
    <g transform="translate(261.069512 54.7776) scale(0.1 -0.1)">
     <defs>
      <path id="DejaVuSans-54" d="M -19 4666 
L 3928 4666 
L 3928 4134 
L 2272 4134 
L 2272 0 
L 1638 0 
L 1638 4134 
L -19 4134 
L -19 4666 
z
" transform="scale(0.015625)"/>
      <path id="DejaVuSans-69" d="M 603 3500 
L 1178 3500 
L 1178 0 
L 603 0 
L 603 3500 
z
M 603 4863 
L 1178 4863 
L 1178 4134 
L 603 4134 
L 603 4863 
z
" transform="scale(0.015625)"/>
      <path id="DejaVuSans-6d" d="M 3328 2828 
Q 3544 3216 3844 3400 
Q 4144 3584 4550 3584 
Q 5097 3584 5394 3201 
Q 5691 2819 5691 2113 
L 5691 0 
L 5113 0 
L 5113 2094 
Q 5113 2597 4934 2840 
Q 4756 3084 4391 3084 
Q 3944 3084 3684 2787 
Q 3425 2491 3425 1978 
L 3425 0 
L 2847 0 
L 2847 2094 
Q 2847 2600 2669 2842 
Q 2491 3084 2119 3084 
Q 1678 3084 1418 2786 
Q 1159 2488 1159 1978 
L 1159 0 
L 581 0 
L 581 3500 
L 1159 3500 
L 1159 2956 
Q 1356 3278 1631 3431 
Q 1906 3584 2284 3584 
Q 2666 3584 2933 3390 
Q 3200 3197 3328 2828 
z
" transform="scale(0.015625)"/>
      <path id="DejaVuSans-65" d="M 3597 1894 
L 3597 1613 
L 953 1613 
Q 991 1019 1311 708 
Q 1631 397 2203 397 
Q 2534 397 2845 478 
Q 3156 559 3463 722 
L 3463 178 
Q 3153 47 2828 -22 
Q 2503 -91 2169 -91 
Q 1331 -91 842 396 
Q 353 884 353 1716 
Q 353 2575 817 3079 
Q 1281 3584 2069 3584 
Q 2775 3584 3186 3129 
Q 3597 2675 3597 1894 
z
M 3022 2063 
Q 3016 2534 2758 2815 
Q 2500 3097 2075 3097 
Q 1594 3097 1305 2825 
Q 1016 2553 972 2059 
L 3022 2063 
z
" transform="scale(0.015625)"/>
      <path id="DejaVuSans-3a" d="M 750 794 
L 1409 794 
L 1409 0 
L 750 0 
L 750 794 
z
M 750 3309 
L 1409 3309 
L 1409 2516 
L 750 2516 
L 750 3309 
z
" transform="scale(0.015625)"/>
      <path id="DejaVuSans-20" transform="scale(0.015625)"/>
      <path id="DejaVuSans-73" d="M 2834 3397 
L 2834 2853 
Q 2591 2978 2328 3040 
Q 2066 3103 1784 3103 
Q 1356 3103 1142 2972 
Q 928 2841 928 2578 
Q 928 2378 1081 2264 
Q 1234 2150 1697 2047 
L 1894 2003 
Q 2506 1872 2764 1633 
Q 3022 1394 3022 966 
Q 3022 478 2636 193 
Q 2250 -91 1575 -91 
Q 1294 -91 989 -36 
Q 684 19 347 128 
L 347 722 
Q 666 556 975 473 
Q 1284 391 1588 391 
Q 1994 391 2212 530 
Q 2431 669 2431 922 
Q 2431 1156 2273 1281 
Q 2116 1406 1581 1522 
L 1381 1569 
Q 847 1681 609 1914 
Q 372 2147 372 2553 
Q 372 3047 722 3315 
Q 1072 3584 1716 3584 
Q 2034 3584 2315 3537 
Q 2597 3491 2834 3397 
z
" transform="scale(0.015625)"/>
     </defs>
     <use xlink:href="#DejaVuSans-54"/>
     <use xlink:href="#DejaVuSans-69" x="57.958984"/>
     <use xlink:href="#DejaVuSans-6d" x="85.742188"/>
     <use xlink:href="#DejaVuSans-65" x="183.154297"/>
     <use xlink:href="#DejaVuSans-3a" x="244.677734"/>
     <use xlink:href="#DejaVuSans-20" x="278.369141"/>
     <use xlink:href="#DejaVuSans-31" x="310.15625"/>
     <use xlink:href="#DejaVuSans-30" x="373.779297"/>
     <use xlink:href="#DejaVuSans-30" x="437.402344"/>
     <use xlink:href="#DejaVuSans-20" x="501.025391"/>
     <use xlink:href="#DejaVuSans-6d" x="532.8125"/>
     <use xlink:href="#DejaVuSans-73" x="630.224609"/>
    </g>
   </g>
  </g>
 </g>
 <defs>
  <clipPath id="pf7a153bc5e">
   <rect x="103.104" y="41.472" width="266.112" height="266.112"/>
  </clipPath>
 </defs>
</svg>
