<?xml version="1.0" encoding="utf-8" standalone="no"?>
<!DOCTYPE svg PUBLIC "-//W3C//DTD SVG 1.1//EN"
  "http://www.w3.org/Graphics/SVG/1.1/DTD/svg11.dtd">
<svg xmlns:xlink="http://www.w3.org/1999/xlink" width="460.8pt" height="345.6pt" viewBox="0 0 460.8 345.6" xmlns="http://www.w3.org/2000/svg" version="1.1">
 <metadata>
  <rdf:RDF xmlns:dc="http://purl.org/dc/elements/1.1/" xmlns:cc="http://creativecommons.org/ns#" xmlns:rdf="http://www.w3.org/1999/02/22-rdf-syntax-ns#">
   <cc:Work>
    <dc:type rdf:resource="http://purl.org/dc/dcmitype/StillImage"/>
    <dc:date>2024-01-23T14:21:35.962873</dc:date>
    <dc:format>image/svg+xml</dc:format>
    <dc:creator>
     <cc:Agent>
      <dc:title>Matplotlib v3.8.2, https://matplotlib.org/</dc:title>
     </cc:Agent>
    </dc:creator>
   </cc:Work>
  </rdf:RDF>
 </metadata>
 <defs>
  <style type="text/css">*{stroke-linejoin: round; stroke-linecap: butt}</style>
 </defs>
 <g id="figure_1">
  <g id="patch_1">
   <path d="M 0 345.6 
L 460.8 345.6 
L 460.8 0 
L 0 0 
z
" style="fill: #ffffff"/>
  </g>
  <g id="axes_1">
   <g id="patch_2">
    <path d="M 103.104 307.584 
L 369.216 307.584 
L 369.216 41.472 
L 103.104 41.472 
z
" style="fill: #ffffff"/>
   </g>
   <g id="patch_3">
    <path d="M 139.886874 165.84477 
L 128.244474 165.844707 
L 128.244443 171.499587 
L 139.886843 171.49965 
z
" clip-path="url(#p75f9e7baf5)" style="fill: #00008b"/>
   </g>
   <g id="patch_4">
    <path d="M 244.843345 71.377886 
L 244.843212 59.735486 
L 239.188332 59.735551 
L 239.188465 71.377951 
z
" clip-path="url(#p75f9e7baf5)" style="fill: #800000"/>
   </g>
   <g id="patch_5">
    <path d="M 227.47673 272.872335 
L 227.476724 284.514735 
L 233.131604 284.514738 
L 233.13161 272.872338 
z
" clip-path="url(#p75f9e7baf5)" style="fill: #006400"/>
   </g>
   <g id="patch_6">
    <path d="M 334.508866 183.211278 
L 346.151266 183.211274 
L 346.151264 177.556394 
L 334.508864 177.556398 
z
" clip-path="url(#p75f9e7baf5)" style="fill: #4b0082"/>
   </g>
   <g id="patch_7">
    <path d="M 244.844531 115.951994 
L 244.843145 104.309594 
L 239.188265 104.310267 
L 239.189651 115.952667 
z
" clip-path="url(#p75f9e7baf5)" style="fill: #0000ff"/>
   </g>
   <g id="patch_8">
    <path d="M 177.874377 165.843663 
L 166.231984 165.85633 
L 166.238137 171.511207 
L 177.88053 171.49854 
z
" clip-path="url(#p75f9e7baf5)" style="fill: #ff0000"/>
   </g>
   <g id="patch_9">
    <path d="M 293.797043 183.206531 
L 305.439442 183.209964 
L 305.44111 177.555084 
L 293.79871 177.551652 
z
" clip-path="url(#p75f9e7baf5)" style="fill: #dbdc56"/>
   </g>
   <g id="patch_10">
    <path d="M 245.345024 143.510696 
L 244.524823 131.897224 
L 238.883993 132.295607 
L 239.704195 143.90908 
z
" clip-path="url(#p75f9e7baf5)" style="fill: #9400d3"/>
   </g>
   <g id="patch_11">
    <path d="M 260.14681 182.64735 
L 271.787695 182.459566 
L 271.696486 176.805422 
L 260.0556 176.993206 
z
" clip-path="url(#p75f9e7baf5)" style="fill: #1e90ff"/>
   </g>
   <g id="patch_12">
    <path d="M 227.473609 217.846959 
L 227.499145 229.489331 
L 233.154012 229.476928 
L 233.128476 217.834556 
z
" clip-path="url(#p75f9e7baf5)" style="fill: #ff4500"/>
   </g>
   <g id="patch_13">
    <path d="M 212.174461 166.449758 
L 200.533343 166.622547 
L 200.617269 172.276805 
L 212.258387 172.104015 
z
" clip-path="url(#p75f9e7baf5)" style="fill: #7cfc00"/>
   </g>
   <g id="patch_14">
    <path d="M 228.557816 196.569451 
L 228.504385 208.211728 
L 234.159206 208.23768 
L 234.212636 196.595403 
z
" clip-path="url(#p75f9e7baf5)" style="fill: #ff00ff"/>
   </g>
   <g id="matplotlib.axis_1">
    <g id="xtick_1">
     <g id="line2d_1">
      <defs>
       <path id="m5b8d48f2e2" d="M 0 0 
L 0 3.5 
" style="stroke: #000000; stroke-width: 0.8"/>
      </defs>
      <g>
       <use xlink:href="#m5b8d48f2e2" x="103.104" y="307.584" style="stroke: #000000; stroke-width: 0.8"/>
      </g>
     </g>
     <g id="text_1">
      <!-- −40 -->
      <g transform="translate(92.551656 322.182437) scale(0.1 -0.1)">
       <defs>
        <path id="DejaVuSans-2212" d="M 678 2272 
L 4684 2272 
L 4684 1741 
L 678 1741 
L 678 2272 
z
" transform="scale(0.015625)"/>
        <path id="DejaVuSans-34" d="M 2419 4116 
L 825 1625 
L 2419 1625 
L 2419 4116 
z
M 2253 4666 
L 3047 4666 
L 3047 1625 
L 3713 1625 
L 3713 1100 
L 3047 1100 
L 3047 0 
L 2419 0 
L 2419 1100 
L 313 1100 
L 313 1709 
L 2253 4666 
z
" transform="scale(0.015625)"/>
        <path id="DejaVuSans-30" d="M 2034 4250 
Q 1547 4250 1301 3770 
Q 1056 3291 1056 2328 
Q 1056 1369 1301 889 
Q 1547 409 2034 409 
Q 2525 409 2770 889 
Q 3016 1369 3016 2328 
Q 3016 3291 2770 3770 
Q 2525 4250 2034 4250 
z
M 2034 4750 
Q 2819 4750 3233 4129 
Q 3647 3509 3647 2328 
Q 3647 1150 3233 529 
Q 2819 -91 2034 -91 
Q 1250 -91 836 529 
Q 422 1150 422 2328 
Q 422 3509 836 4129 
Q 1250 4750 2034 4750 
z
" transform="scale(0.015625)"/>
       </defs>
       <use xlink:href="#DejaVuSans-2212"/>
       <use xlink:href="#DejaVuSans-34" x="83.789062"/>
       <use xlink:href="#DejaVuSans-30" x="147.412109"/>
      </g>
     </g>
    </g>
    <g id="xtick_2">
     <g id="line2d_2">
      <g>
       <use xlink:href="#m5b8d48f2e2" x="136.368" y="307.584" style="stroke: #000000; stroke-width: 0.8"/>
      </g>
     </g>
     <g id="text_2">
      <!-- −30 -->
      <g transform="translate(125.815656 322.182437) scale(0.1 -0.1)">
       <defs>
        <path id="DejaVuSans-33" d="M 2597 2516 
Q 3050 2419 3304 2112 
Q 3559 1806 3559 1356 
Q 3559 666 3084 287 
Q 2609 -91 1734 -91 
Q 1441 -91 1130 -33 
Q 819 25 488 141 
L 488 750 
Q 750 597 1062 519 
Q 1375 441 1716 441 
Q 2309 441 2620 675 
Q 2931 909 2931 1356 
Q 2931 1769 2642 2001 
Q 2353 2234 1838 2234 
L 1294 2234 
L 1294 2753 
L 1863 2753 
Q 2328 2753 2575 2939 
Q 2822 3125 2822 3475 
Q 2822 3834 2567 4026 
Q 2313 4219 1838 4219 
Q 1578 4219 1281 4162 
Q 984 4106 628 3988 
L 628 4550 
Q 988 4650 1302 4700 
Q 1616 4750 1894 4750 
Q 2613 4750 3031 4423 
Q 3450 4097 3450 3541 
Q 3450 3153 3228 2886 
Q 3006 2619 2597 2516 
z
" transform="scale(0.015625)"/>
       </defs>
       <use xlink:href="#DejaVuSans-2212"/>
       <use xlink:href="#DejaVuSans-33" x="83.789062"/>
       <use xlink:href="#DejaVuSans-30" x="147.412109"/>
      </g>
     </g>
    </g>
    <g id="xtick_3">
     <g id="line2d_3">
      <g>
       <use xlink:href="#m5b8d48f2e2" x="169.632" y="307.584" style="stroke: #000000; stroke-width: 0.8"/>
      </g>
     </g>
     <g id="text_3">
      <!-- −20 -->
      <g transform="translate(159.079656 322.182437) scale(0.1 -0.1)">
       <defs>
        <path id="DejaVuSans-32" d="M 1228 531 
L 3431 531 
L 3431 0 
L 469 0 
L 469 531 
Q 828 903 1448 1529 
Q 2069 2156 2228 2338 
Q 2531 2678 2651 2914 
Q 2772 3150 2772 3378 
Q 2772 3750 2511 3984 
Q 2250 4219 1831 4219 
Q 1534 4219 1204 4116 
Q 875 4013 500 3803 
L 500 4441 
Q 881 4594 1212 4672 
Q 1544 4750 1819 4750 
Q 2544 4750 2975 4387 
Q 3406 4025 3406 3419 
Q 3406 3131 3298 2873 
Q 3191 2616 2906 2266 
Q 2828 2175 2409 1742 
Q 1991 1309 1228 531 
z
" transform="scale(0.015625)"/>
       </defs>
       <use xlink:href="#DejaVuSans-2212"/>
       <use xlink:href="#DejaVuSans-32" x="83.789062"/>
       <use xlink:href="#DejaVuSans-30" x="147.412109"/>
      </g>
     </g>
    </g>
    <g id="xtick_4">
     <g id="line2d_4">
      <g>
       <use xlink:href="#m5b8d48f2e2" x="202.896" y="307.584" style="stroke: #000000; stroke-width: 0.8"/>
      </g>
     </g>
     <g id="text_4">
      <!-- −10 -->
      <g transform="translate(192.343656 322.182437) scale(0.1 -0.1)">
       <defs>
        <path id="DejaVuSans-31" d="M 794 531 
L 1825 531 
L 1825 4091 
L 703 3866 
L 703 4441 
L 1819 4666 
L 2450 4666 
L 2450 531 
L 3481 531 
L 3481 0 
L 794 0 
L 794 531 
z
" transform="scale(0.015625)"/>
       </defs>
       <use xlink:href="#DejaVuSans-2212"/>
       <use xlink:href="#DejaVuSans-31" x="83.789062"/>
       <use xlink:href="#DejaVuSans-30" x="147.412109"/>
      </g>
     </g>
    </g>
    <g id="xtick_5">
     <g id="line2d_5">
      <g>
       <use xlink:href="#m5b8d48f2e2" x="236.16" y="307.584" style="stroke: #000000; stroke-width: 0.8"/>
      </g>
     </g>
     <g id="text_5">
      <!-- 0 -->
      <g transform="translate(232.97875 322.182437) scale(0.1 -0.1)">
       <use xlink:href="#DejaVuSans-30"/>
      </g>
     </g>
    </g>
    <g id="xtick_6">
     <g id="line2d_6">
      <g>
       <use xlink:href="#m5b8d48f2e2" x="269.424" y="307.584" style="stroke: #000000; stroke-width: 0.8"/>
      </g>
     </g>
     <g id="text_6">
      <!-- 10 -->
      <g transform="translate(263.0615 322.182437) scale(0.1 -0.1)">
       <use xlink:href="#DejaVuSans-31"/>
       <use xlink:href="#DejaVuSans-30" x="63.623047"/>
      </g>
     </g>
    </g>
    <g id="xtick_7">
     <g id="line2d_7">
      <g>
       <use xlink:href="#m5b8d48f2e2" x="302.688" y="307.584" style="stroke: #000000; stroke-width: 0.8"/>
      </g>
     </g>
     <g id="text_7">
      <!-- 20 -->
      <g transform="translate(296.3255 322.182437) scale(0.1 -0.1)">
       <use xlink:href="#DejaVuSans-32"/>
       <use xlink:href="#DejaVuSans-30" x="63.623047"/>
      </g>
     </g>
    </g>
    <g id="xtick_8">
     <g id="line2d_8">
      <g>
       <use xlink:href="#m5b8d48f2e2" x="335.952" y="307.584" style="stroke: #000000; stroke-width: 0.8"/>
      </g>
     </g>
     <g id="text_8">
      <!-- 30 -->
      <g transform="translate(329.5895 322.182437) scale(0.1 -0.1)">
       <use xlink:href="#DejaVuSans-33"/>
       <use xlink:href="#DejaVuSans-30" x="63.623047"/>
      </g>
     </g>
    </g>
    <g id="xtick_9">
     <g id="line2d_9">
      <g>
       <use xlink:href="#m5b8d48f2e2" x="369.216" y="307.584" style="stroke: #000000; stroke-width: 0.8"/>
      </g>
     </g>
     <g id="text_9">
      <!-- 40 -->
      <g transform="translate(362.8535 322.182437) scale(0.1 -0.1)">
       <use xlink:href="#DejaVuSans-34"/>
       <use xlink:href="#DejaVuSans-30" x="63.623047"/>
      </g>
     </g>
    </g>
   </g>
   <g id="matplotlib.axis_2">
    <g id="ytick_1">
     <g id="line2d_10">
      <defs>
       <path id="m245d9d3fe3" d="M 0 0 
L -3.5 0 
" style="stroke: #000000; stroke-width: 0.8"/>
      </defs>
      <g>
       <use xlink:href="#m245d9d3fe3" x="103.104" y="307.584" style="stroke: #000000; stroke-width: 0.8"/>
      </g>
     </g>
     <g id="text_10">
      <!-- −40 -->
      <g transform="translate(74.999313 311.383219) scale(0.1 -0.1)">
       <use xlink:href="#DejaVuSans-2212"/>
       <use xlink:href="#DejaVuSans-34" x="83.789062"/>
       <use xlink:href="#DejaVuSans-30" x="147.412109"/>
      </g>
     </g>
    </g>
    <g id="ytick_2">
     <g id="line2d_11">
      <g>
       <use xlink:href="#m245d9d3fe3" x="103.104" y="274.32" style="stroke: #000000; stroke-width: 0.8"/>
      </g>
     </g>
     <g id="text_11">
      <!-- −30 -->
      <g transform="translate(74.999313 278.119219) scale(0.1 -0.1)">
       <use xlink:href="#DejaVuSans-2212"/>
       <use xlink:href="#DejaVuSans-33" x="83.789062"/>
       <use xlink:href="#DejaVuSans-30" x="147.412109"/>
      </g>
     </g>
    </g>
    <g id="ytick_3">
     <g id="line2d_12">
      <g>
       <use xlink:href="#m245d9d3fe3" x="103.104" y="241.056" style="stroke: #000000; stroke-width: 0.8"/>
      </g>
     </g>
     <g id="text_12">
      <!-- −20 -->
      <g transform="translate(74.999313 244.855219) scale(0.1 -0.1)">
       <use xlink:href="#DejaVuSans-2212"/>
       <use xlink:href="#DejaVuSans-32" x="83.789062"/>
       <use xlink:href="#DejaVuSans-30" x="147.412109"/>
      </g>
     </g>
    </g>
    <g id="ytick_4">
     <g id="line2d_13">
      <g>
       <use xlink:href="#m245d9d3fe3" x="103.104" y="207.792" style="stroke: #000000; stroke-width: 0.8"/>
      </g>
     </g>
     <g id="text_13">
      <!-- −10 -->
      <g transform="translate(74.999313 211.591219) scale(0.1 -0.1)">
       <use xlink:href="#DejaVuSans-2212"/>
       <use xlink:href="#DejaVuSans-31" x="83.789062"/>
       <use xlink:href="#DejaVuSans-30" x="147.412109"/>
      </g>
     </g>
    </g>
    <g id="ytick_5">
     <g id="line2d_14">
      <g>
       <use xlink:href="#m245d9d3fe3" x="103.104" y="174.528" style="stroke: #000000; stroke-width: 0.8"/>
      </g>
     </g>
     <g id="text_14">
      <!-- 0 -->
      <g transform="translate(89.7415 178.327219) scale(0.1 -0.1)">
       <use xlink:href="#DejaVuSans-30"/>
      </g>
     </g>
    </g>
    <g id="ytick_6">
     <g id="line2d_15">
      <g>
       <use xlink:href="#m245d9d3fe3" x="103.104" y="141.264" style="stroke: #000000; stroke-width: 0.8"/>
      </g>
     </g>
     <g id="text_15">
      <!-- 10 -->
      <g transform="translate(83.379 145.063219) scale(0.1 -0.1)">
       <use xlink:href="#DejaVuSans-31"/>
       <use xlink:href="#DejaVuSans-30" x="63.623047"/>
      </g>
     </g>
    </g>
    <g id="ytick_7">
     <g id="line2d_16">
      <g>
       <use xlink:href="#m245d9d3fe3" x="103.104" y="108" style="stroke: #000000; stroke-width: 0.8"/>
      </g>
     </g>
     <g id="text_16">
      <!-- 20 -->
      <g transform="translate(83.379 111.799219) scale(0.1 -0.1)">
       <use xlink:href="#DejaVuSans-32"/>
       <use xlink:href="#DejaVuSans-30" x="63.623047"/>
      </g>
     </g>
    </g>
    <g id="ytick_8">
     <g id="line2d_17">
      <g>
       <use xlink:href="#m245d9d3fe3" x="103.104" y="74.736" style="stroke: #000000; stroke-width: 0.8"/>
      </g>
     </g>
     <g id="text_17">
      <!-- 30 -->
      <g transform="translate(83.379 78.535219) scale(0.1 -0.1)">
       <use xlink:href="#DejaVuSans-33"/>
       <use xlink:href="#DejaVuSans-30" x="63.623047"/>
      </g>
     </g>
    </g>
    <g id="ytick_9">
     <g id="line2d_18">
      <g>
       <use xlink:href="#m245d9d3fe3" x="103.104" y="41.472" style="stroke: #000000; stroke-width: 0.8"/>
      </g>
     </g>
     <g id="text_18">
      <!-- 40 -->
      <g transform="translate(83.379 45.271219) scale(0.1 -0.1)">
       <use xlink:href="#DejaVuSans-34"/>
       <use xlink:href="#DejaVuSans-30" x="63.623047"/>
      </g>
     </g>
    </g>
   </g>
   <g id="line2d_19">
    <path d="M 250.2972 288.4572 
L 250.2972 188.6652 
" clip-path="url(#p75f9e7baf5)" style="fill: none; stroke: #000000; stroke-width: 0.25; stroke-linecap: square"/>
   </g>
   <g id="line2d_20">
    <path d="M 250.2972 188.6652 
L 350.0892 188.6652 
" clip-path="url(#p75f9e7baf5)" style="fill: none; stroke: #000000; stroke-width: 0.25; stroke-linecap: square"/>
   </g>
   <g id="line2d_21">
    <path d="M 350.0892 160.3908 
L 250.2972 160.3908 
" clip-path="url(#p75f9e7baf5)" style="fill: none; stroke: #000000; stroke-width: 0.25; stroke-linecap: square"/>
   </g>
   <g id="line2d_22">
    <path d="M 250.2972 160.3908 
L 250.2972 60.5988 
" clip-path="url(#p75f9e7baf5)" style="fill: none; stroke: #000000; stroke-width: 0.25; stroke-linecap: square"/>
   </g>
   <g id="line2d_23">
    <path d="M 222.0228 60.5988 
L 222.0228 160.3908 
" clip-path="url(#p75f9e7baf5)" style="fill: none; stroke: #000000; stroke-width: 0.25; stroke-linecap: square"/>
   </g>
   <g id="line2d_24">
    <path d="M 222.0228 160.3908 
L 122.2308 160.3908 
" clip-path="url(#p75f9e7baf5)" style="fill: none; stroke: #000000; stroke-width: 0.25; stroke-linecap: square"/>
   </g>
   <g id="line2d_25">
    <path d="M 122.2308 188.6652 
L 222.0228 188.6652 
" clip-path="url(#p75f9e7baf5)" style="fill: none; stroke: #000000; stroke-width: 0.25; stroke-linecap: square"/>
   </g>
   <g id="line2d_26">
    <path d="M 222.0228 188.6652 
L 222.0228 288.4572 
" clip-path="url(#p75f9e7baf5)" style="fill: none; stroke: #000000; stroke-width: 0.25; stroke-linecap: square"/>
   </g>
   <g id="line2d_27">
    <path d="M 250.2972 174.528 
L 350.0892 174.528 
" clip-path="url(#p75f9e7baf5)" style="fill: none; stroke-dasharray: 0.925,0.4; stroke-dashoffset: 0; stroke: #000000; stroke-width: 0.25"/>
   </g>
   <g id="line2d_28">
    <path d="M 236.16 160.3908 
L 236.16 60.5988 
" clip-path="url(#p75f9e7baf5)" style="fill: none; stroke-dasharray: 0.925,0.4; stroke-dashoffset: 0; stroke: #000000; stroke-width: 0.25"/>
   </g>
   <g id="line2d_29">
    <path d="M 222.0228 174.528 
L 122.2308 174.528 
" clip-path="url(#p75f9e7baf5)" style="fill: none; stroke-dasharray: 0.925,0.4; stroke-dashoffset: 0; stroke: #000000; stroke-width: 0.25"/>
   </g>
   <g id="line2d_30">
    <path d="M 236.16 188.6652 
L 236.16 288.4572 
" clip-path="url(#p75f9e7baf5)" style="fill: none; stroke-dasharray: 0.925,0.4; stroke-dashoffset: 0; stroke: #000000; stroke-width: 0.25"/>
   </g>
   <g id="line2d_31">
    <path d="M 135.692275 168.672181 
L 134.065659 168.672177 
L 132.438897 168.672174 
L 130.811996 168.672172 
L 129.18496 168.672171 
L 127.557795 168.67217 
L 125.930506 168.67217 
L 124.303101 168.67217 
L 122.675584 168.67217 
L 121.047962 168.672171 
L 119.420241 168.672172 
L 117.792427 168.672173 
L 116.164527 168.672174 
L 114.536546 168.672174 
L 112.90849 168.672175 
L 111.280365 168.672176 
L 109.652177 168.672177 
L 108.023931 168.672177 
L 106.395633 168.672178 
L 104.767288 168.672178 
L 103.138901 168.672179 
L 101.510476 168.672179 
L 99.882019 168.672179 
L 98.253534 168.672179 
L 96.625025 168.67218 
L 94.996496 168.67218 
L 93.36795 168.67218 
L 91.739392 168.67218 
L 90.110824 168.67218 
L 88.48225 168.67218 
L 86.853672 168.67218 
" clip-path="url(#p75f9e7baf5)" style="fill: none; stroke: #ff0000; stroke-opacity: 0.2; stroke-width: 0.25; stroke-linecap: square"/>
   </g>
   <g id="line2d_32">
    <path d="M 135.692275 168.672181 
L 134.065659 168.672178 
L 132.438898 168.672175 
L 130.811998 168.672173 
L 129.184965 168.672171 
L 127.557804 168.67217 
L 125.93052 168.67217 
L 124.303121 168.67217 
L 122.675611 168.672171 
L 121.047998 168.672171 
L 119.420286 168.672172 
L 117.792484 168.672173 
L 116.164596 168.672173 
L 114.536629 168.672174 
L 112.908588 168.672175 
L 111.28048 168.672176 
L 109.652311 168.672176 
L 108.024085 168.672177 
L 106.395809 168.672178 
L 104.767488 168.672178 
L 103.139126 168.672178 
L 101.510728 168.672179 
L 99.8823 168.672179 
L 98.253846 168.672179 
L 96.625369 168.67218 
L 94.996874 168.67218 
L 93.368365 168.67218 
L 91.739844 168.67218 
L 90.111316 168.67218 
L 88.482783 168.67218 
L 86.854248 168.67218 
" clip-path="url(#p75f9e7baf5)" style="fill: none; stroke: #ff0000; stroke-opacity: 0.4; stroke-width: 0.25; stroke-linecap: square"/>
   </g>
   <g id="line2d_33">
    <path d="M 135.692275 168.672181 
L 134.065659 168.672178 
L 132.438897 168.672175 
L 130.811997 168.672173 
L 129.184962 168.672171 
L 127.557798 168.672171 
L 125.930511 168.67217 
L 124.303108 168.67217 
L 122.675594 168.672171 
L 121.047975 168.672171 
L 119.420258 168.672172 
L 117.792448 168.672173 
L 116.164553 168.672174 
L 114.536577 168.672174 
L 112.908527 168.672175 
L 111.28041 168.672176 
L 109.652229 168.672176 
L 108.023992 168.672177 
L 106.395703 168.672178 
L 104.767368 168.672178 
L 103.138992 168.672179 
L 101.51058 168.672179 
L 99.882136 168.672179 
L 98.253664 168.672179 
L 96.62517 168.67218 
L 94.996656 168.67218 
L 93.368127 168.67218 
L 91.739587 168.67218 
L 90.111037 168.67218 
L 88.482482 168.67218 
L 86.853925 168.67218 
" clip-path="url(#p75f9e7baf5)" style="fill: none; stroke: #ff0000; stroke-opacity: 0.6; stroke-width: 0.25; stroke-linecap: square"/>
   </g>
   <g id="line2d_34">
    <path d="M 135.692275 168.672181 
L 134.065659 168.672178 
L 132.438898 168.672175 
L 130.811998 168.672173 
L 129.184964 168.672172 
L 127.557802 168.672171 
L 125.930517 168.67217 
L 124.303116 168.67217 
L 122.675604 168.672171 
L 121.047989 168.672171 
L 119.420275 168.672172 
L 117.79247 168.672173 
L 116.164579 168.672174 
L 114.536608 168.672174 
L 112.908564 168.672175 
L 111.280452 168.672176 
L 109.652278 168.672176 
L 108.024047 168.672177 
L 106.395766 168.672178 
L 104.767439 168.672178 
L 103.139071 168.672178 
L 101.510667 168.672179 
L 99.882231 168.672179 
L 98.253769 168.672179 
L 96.625285 168.67218 
L 94.996781 168.67218 
L 93.368263 168.67218 
L 91.739733 168.67218 
L 90.111195 168.67218 
L 88.482652 168.67218 
L 86.854106 168.67218 
" clip-path="url(#p75f9e7baf5)" style="fill: none; stroke: #ff0000; stroke-opacity: 0.8; stroke-width: 0.25; stroke-linecap: square"/>
   </g>
   <g id="line2d_35">
    <path d="M 135.692275 168.672181 
L 134.065659 168.672179 
L 132.438898 168.672175 
L 130.811997 168.672173 
L 129.184962 168.672172 
L 127.557799 168.672171 
L 125.930513 168.67217 
L 124.303111 168.67217 
L 122.675598 168.672171 
L 121.04798 168.672171 
L 119.420265 168.672172 
L 117.792457 168.672173 
L 116.164563 168.672174 
L 114.53659 168.672174 
L 112.908542 168.672175 
L 111.280427 168.672176 
L 109.652249 168.672176 
L 108.024015 168.672177 
L 106.395729 168.672178 
L 104.767398 168.672178 
L 103.139025 168.672178 
L 101.510616 168.672179 
L 99.882176 168.672179 
L 98.253709 168.672179 
L 96.625219 168.67218 
L 94.99671 168.67218 
L 93.368186 168.67218 
L 91.73965 168.67218 
L 90.111106 168.67218 
L 88.482556 168.67218 
L 86.854004 168.67218 
" clip-path="url(#p75f9e7baf5)" style="fill: none; stroke: #ff0000; stroke-width: 0.25; stroke-linecap: square"/>
   </g>
   <g id="line2d_36">
    <path d="M 242.015846 67.06622 
L 242.015837 65.556718 
L 242.015829 64.04734 
L 242.015822 62.53809 
L 242.015817 61.02897 
L 242.015813 59.519983 
L 242.01581 58.011127 
L 242.015809 56.502402 
L 242.015808 54.993807 
L 242.015807 53.485339 
L 242.015807 51.976995 
L 242.015808 50.468771 
L 242.015808 48.960662 
L 242.015809 47.452664 
L 242.01581 45.944771 
L 242.015811 44.436977 
L 242.015812 42.929276 
L 242.015813 41.421662 
L 242.015814 39.914129 
L 242.015814 38.40667 
L 242.015815 36.899278 
L 242.015816 35.391947 
L 242.015817 33.884669 
L 242.015817 32.377438 
L 242.015818 30.870249 
L 242.015818 29.363094 
L 242.015819 27.855967 
L 242.015819 26.348862 
L 242.01582 24.841774 
L 242.01582 23.334698 
L 242.01582 21.827628 
" clip-path="url(#p75f9e7baf5)" style="fill: none; stroke: #ff0000; stroke-opacity: 0.2; stroke-width: 0.25; stroke-linecap: square"/>
   </g>
   <g id="line2d_37">
    <path d="M 242.015846 67.06622 
L 242.015838 65.556718 
L 242.015829 64.047338 
L 242.015823 62.538082 
L 242.015817 61.028955 
L 242.015814 59.519956 
L 242.015811 58.011086 
L 242.015809 56.502345 
L 242.015808 54.99373 
L 242.015807 53.485238 
L 242.015807 51.976868 
L 242.015807 50.468614 
L 242.015808 48.960471 
L 242.015809 47.452436 
L 242.01581 45.944502 
L 242.015811 44.436664 
L 242.015811 42.928916 
L 242.015812 41.421251 
L 242.015813 39.913662 
L 242.015814 38.406143 
L 242.015815 36.898688 
L 242.015816 35.39129 
L 242.015817 33.883942 
L 242.015817 32.376637 
L 242.015818 30.869369 
L 242.015818 29.362132 
L 242.015819 27.85492 
L 242.015819 26.347727 
L 242.01582 24.840548 
L 242.01582 23.333376 
L 242.015821 21.826209 
" clip-path="url(#p75f9e7baf5)" style="fill: none; stroke: #ff0000; stroke-opacity: 0.4; stroke-width: 0.25; stroke-linecap: square"/>
   </g>
   <g id="line2d_38">
    <path d="M 242.015846 67.06622 
L 242.015838 65.556718 
L 242.01583 64.047339 
L 242.015823 62.538087 
L 242.015818 61.028965 
L 242.015814 59.519973 
L 242.015811 58.011112 
L 242.015809 56.502381 
L 242.015808 54.993778 
L 242.015807 53.485301 
L 242.015807 51.976946 
L 242.015808 50.46871 
L 242.015808 48.960588 
L 242.015809 47.452574 
L 242.01581 45.944664 
L 242.015811 44.436852 
L 242.015812 42.929131 
L 242.015813 41.421495 
L 242.015813 39.913938 
L 242.015814 38.406453 
L 242.015815 36.899034 
L 242.015816 35.391673 
L 242.015817 33.884364 
L 242.015817 32.3771 
L 242.015818 30.869876 
L 242.015818 29.362683 
L 242.015819 27.855518 
L 242.015819 26.348372 
L 242.01582 24.841242 
L 242.01582 23.334122 
L 242.01582 21.827006 
" clip-path="url(#p75f9e7baf5)" style="fill: none; stroke: #ff0000; stroke-opacity: 0.6; stroke-width: 0.25; stroke-linecap: square"/>
   </g>
   <g id="line2d_39">
    <path d="M 242.015846 67.06622 
L 242.015838 65.556718 
L 242.01583 64.047338 
L 242.015823 62.538084 
L 242.015818 61.028958 
L 242.015814 59.519962 
L 242.015811 58.011096 
L 242.015809 56.502359 
L 242.015808 54.993749 
L 242.015807 53.485263 
L 242.015807 51.976899 
L 242.015808 50.468652 
L 242.015808 48.960518 
L 242.015809 47.452492 
L 242.01581 45.944568 
L 242.015811 44.436741 
L 242.015812 42.929004 
L 242.015813 41.421352 
L 242.015813 39.913777 
L 242.015814 38.406273 
L 242.015815 36.898833 
L 242.015816 35.391451 
L 242.015817 33.88412 
L 242.015817 32.376834 
L 242.015818 30.869585 
L 242.015818 29.362368 
L 242.015819 27.855177 
L 242.015819 26.348006 
L 242.01582 24.840849 
L 242.01582 23.333701 
L 242.015821 21.826557 
" clip-path="url(#p75f9e7baf5)" style="fill: none; stroke: #ff0000; stroke-opacity: 0.8; stroke-width: 0.25; stroke-linecap: square"/>
   </g>
   <g id="line2d_40">
    <path d="M 242.015846 67.06622 
L 242.015839 65.556718 
L 242.01583 64.047339 
L 242.015823 62.538086 
L 242.015818 61.028962 
L 242.015814 59.519969 
L 242.015811 58.011105 
L 242.015809 56.502372 
L 242.015808 54.993766 
L 242.015807 53.485285 
L 242.015807 51.976927 
L 242.015808 50.468686 
L 242.015808 48.960559 
L 242.015809 47.45254 
L 242.01581 45.944624 
L 242.015811 44.436806 
L 242.015812 42.929078 
L 242.015813 41.421435 
L 242.015813 39.91387 
L 242.015814 38.406377 
L 242.015815 36.898949 
L 242.015816 35.391579 
L 242.015817 33.88426 
L 242.015817 32.376987 
L 242.015818 30.869751 
L 242.015818 29.362548 
L 242.015819 27.855371 
L 242.015819 26.348214 
L 242.01582 24.841072 
L 242.01582 23.333939 
L 242.015821 21.82681 
" clip-path="url(#p75f9e7baf5)" style="fill: none; stroke: #ff0000; stroke-width: 0.25; stroke-linecap: square"/>
   </g>
   <g id="line2d_41">
    <path d="M 230.304165 277.085495 
L 230.304167 278.693537 
L 230.304168 280.301583 
L 230.304169 281.909633 
L 230.30417 283.517685 
L 230.304172 285.125737 
L 230.304173 286.733788 
L 230.304174 288.341838 
L 230.304175 289.949884 
L 230.304176 291.557928 
L 230.304177 293.165966 
L 230.304177 294.774001 
L 230.304178 296.38203 
L 230.304179 297.990054 
L 230.304179 299.598072 
L 230.304179 301.206085 
L 230.30418 302.814093 
L 230.30418 304.422095 
L 230.30418 306.030092 
L 230.30418 307.638084 
L 230.30418 309.246072 
L 230.30418 310.854055 
L 230.30418 312.462034 
L 230.30418 314.070009 
L 230.30418 315.677982 
L 230.30418 317.285951 
L 230.30418 318.893919 
L 230.30418 320.501885 
L 230.30418 322.109849 
L 230.30418 323.717812 
L 230.30418 325.325775 
" clip-path="url(#p75f9e7baf5)" style="fill: none; stroke: #ff0000; stroke-opacity: 0.2; stroke-width: 0.25; stroke-linecap: square"/>
   </g>
   <g id="line2d_42">
    <path d="M 230.304165 277.085495 
L 230.304167 278.693537 
L 230.304168 280.301584 
L 230.304169 281.909634 
L 230.304171 283.517687 
L 230.304172 285.125741 
L 230.304173 286.733794 
L 230.304174 288.341845 
L 230.304175 289.949894 
L 230.304176 291.557941 
L 230.304177 293.165983 
L 230.304177 294.774021 
L 230.304178 296.382054 
L 230.304179 297.990083 
L 230.304179 299.598106 
L 230.304179 301.206124 
L 230.30418 302.814138 
L 230.30418 304.422146 
L 230.30418 306.03015 
L 230.30418 307.638149 
L 230.30418 309.246144 
L 230.30418 310.854135 
L 230.30418 312.462122 
L 230.30418 314.070106 
L 230.30418 315.678087 
L 230.30418 317.286066 
L 230.30418 318.894044 
L 230.30418 320.502019 
L 230.30418 322.109994 
L 230.30418 323.717968 
L 230.30418 325.325941 
" clip-path="url(#p75f9e7baf5)" style="fill: none; stroke: #ff0000; stroke-opacity: 0.4; stroke-width: 0.25; stroke-linecap: square"/>
   </g>
   <g id="line2d_43">
    <path d="M 230.304165 277.085495 
L 230.304167 278.693537 
L 230.304168 280.301583 
L 230.304169 281.909634 
L 230.304171 283.517686 
L 230.304172 285.125738 
L 230.304173 286.73379 
L 230.304174 288.341841 
L 230.304175 289.949888 
L 230.304176 291.557933 
L 230.304177 293.165973 
L 230.304178 294.774009 
L 230.304178 296.38204 
L 230.304179 297.990065 
L 230.304179 299.598086 
L 230.304179 301.206101 
L 230.30418 302.814111 
L 230.30418 304.422116 
L 230.30418 306.030116 
L 230.30418 307.638111 
L 230.30418 309.246102 
L 230.30418 310.854088 
L 230.30418 312.462071 
L 230.30418 314.07005 
L 230.30418 315.678027 
L 230.30418 317.286001 
L 230.30418 318.893973 
L 230.30418 320.501943 
L 230.30418 322.109912 
L 230.30418 323.71788 
L 230.30418 325.325848 
" clip-path="url(#p75f9e7baf5)" style="fill: none; stroke: #ff0000; stroke-opacity: 0.6; stroke-width: 0.25; stroke-linecap: square"/>
   </g>
   <g id="line2d_44">
    <path d="M 230.304165 277.085495 
L 230.304167 278.693537 
L 230.304168 280.301583 
L 230.304169 281.909634 
L 230.304171 283.517686 
L 230.304172 285.12574 
L 230.304173 286.733792 
L 230.304174 288.341843 
L 230.304175 289.949892 
L 230.304176 291.557937 
L 230.304177 293.165979 
L 230.304178 294.774016 
L 230.304178 296.382048 
L 230.304179 297.990076 
L 230.304179 299.598098 
L 230.304179 301.206115 
L 230.30418 302.814127 
L 230.30418 304.422134 
L 230.30418 306.030136 
L 230.30418 307.638133 
L 230.30418 309.246126 
L 230.30418 310.854115 
L 230.30418 312.4621 
L 230.30418 314.070082 
L 230.30418 315.678061 
L 230.30418 317.286038 
L 230.30418 318.894013 
L 230.30418 320.501986 
L 230.30418 322.109958 
L 230.30418 323.71793 
L 230.30418 325.3259 
" clip-path="url(#p75f9e7baf5)" style="fill: none; stroke: #ff0000; stroke-opacity: 0.8; stroke-width: 0.25; stroke-linecap: square"/>
   </g>
   <g id="line2d_45">
    <path d="M 230.304165 277.085495 
L 230.304167 278.693537 
L 230.304168 280.301583 
L 230.30417 281.909634 
L 230.304171 283.517686 
L 230.304172 285.125739 
L 230.304173 286.733791 
L 230.304174 288.341842 
L 230.304175 289.94989 
L 230.304176 291.557935 
L 230.304177 293.165975 
L 230.304178 294.774012 
L 230.304178 296.382043 
L 230.304179 297.99007 
L 230.304179 299.598091 
L 230.304179 301.206107 
L 230.30418 302.814118 
L 230.30418 304.422124 
L 230.30418 306.030124 
L 230.30418 307.63812 
L 230.30418 309.246112 
L 230.30418 310.8541 
L 230.30418 312.462084 
L 230.30418 314.070064 
L 230.30418 315.678042 
L 230.30418 317.286017 
L 230.30418 318.89399 
L 230.30418 320.501962 
L 230.30418 322.109932 
L 230.30418 323.717902 
L 230.30418 325.325871 
" clip-path="url(#p75f9e7baf5)" style="fill: none; stroke: #ff0000; stroke-width: 0.25; stroke-linecap: square"/>
   </g>
   <g id="line2d_46">
    <path d="M 338.722677 180.383839 
L 340.330065 180.383837 
L 341.937499 180.383835 
L 343.544978 180.383833 
L 345.152499 180.383831 
L 346.760058 180.383829 
L 348.367653 180.383827 
L 349.975282 180.383826 
L 351.582941 180.383825 
L 353.190629 180.383824 
L 354.798342 180.383823 
L 356.40608 180.383822 
L 358.013839 180.383821 
L 359.621618 180.383821 
L 361.229415 180.38382 
L 362.837228 180.38382 
L 364.445055 180.38382 
L 366.052895 180.38382 
L 367.660747 180.383819 
L 369.268608 180.383819 
L 370.876478 180.383819 
L 372.484356 180.383819 
L 374.09224 180.383819 
L 375.70013 180.383819 
L 377.308025 180.383819 
L 378.915923 180.38382 
L 380.523824 180.38382 
L 382.131728 180.38382 
L 383.739633 180.38382 
L 385.34754 180.38382 
L 386.955447 180.38382 
" clip-path="url(#p75f9e7baf5)" style="fill: none; stroke: #ff0000; stroke-opacity: 0.2; stroke-width: 0.25; stroke-linecap: square"/>
   </g>
   <g id="line2d_47">
    <path d="M 338.722677 180.383839 
L 340.330065 180.383836 
L 341.937499 180.383834 
L 343.544979 180.383832 
L 345.152499 180.383831 
L 346.760058 180.383829 
L 348.367653 180.383827 
L 349.975282 180.383826 
L 351.582941 180.383825 
L 353.190628 180.383824 
L 354.798342 180.383823 
L 356.406079 180.383822 
L 358.013838 180.383821 
L 359.621616 180.383821 
L 361.229412 180.38382 
L 362.837224 180.38382 
L 364.44505 180.38382 
L 366.052889 180.38382 
L 367.660739 180.38382 
L 369.268599 180.383819 
L 370.876468 180.383819 
L 372.484344 180.383819 
L 374.092226 180.383819 
L 375.700113 180.383819 
L 377.308005 180.383819 
L 378.915901 180.38382 
L 380.523799 180.38382 
L 382.131699 180.38382 
L 383.739601 180.38382 
L 385.347503 180.38382 
L 386.955406 180.38382 
" clip-path="url(#p75f9e7baf5)" style="fill: none; stroke: #ff0000; stroke-opacity: 0.4; stroke-width: 0.25; stroke-linecap: square"/>
   </g>
   <g id="line2d_48">
    <path d="M 338.722677 180.383839 
L 340.330065 180.383836 
L 341.937499 180.383834 
L 343.544979 180.383832 
L 345.152499 180.383831 
L 346.760058 180.383829 
L 348.367654 180.383827 
L 349.975282 180.383826 
L 351.582941 180.383825 
L 353.190629 180.383824 
L 354.798343 180.383823 
L 356.40608 180.383822 
L 358.013839 180.383821 
L 359.621618 180.383821 
L 361.229414 180.38382 
L 362.837227 180.38382 
L 364.445054 180.38382 
L 366.052894 180.38382 
L 367.660744 180.38382 
L 369.268605 180.383819 
L 370.876475 180.383819 
L 372.484352 180.383819 
L 374.092235 180.383819 
L 375.700124 180.383819 
L 377.308017 180.383819 
L 378.915914 180.38382 
L 380.523814 180.38382 
L 382.131716 180.38382 
L 383.739619 180.38382 
L 385.347524 180.38382 
L 386.955429 180.38382 
" clip-path="url(#p75f9e7baf5)" style="fill: none; stroke: #ff0000; stroke-opacity: 0.6; stroke-width: 0.25; stroke-linecap: square"/>
   </g>
   <g id="line2d_49">
    <path d="M 338.722677 180.383839 
L 340.330065 180.383836 
L 341.937499 180.383834 
L 343.544979 180.383832 
L 345.152499 180.38383 
L 346.760058 180.383829 
L 348.367653 180.383827 
L 349.975282 180.383826 
L 351.582941 180.383825 
L 353.190628 180.383824 
L 354.798342 180.383823 
L 356.406079 180.383822 
L 358.013838 180.383821 
L 359.621617 180.383821 
L 361.229413 180.38382 
L 362.837225 180.38382 
L 364.445051 180.38382 
L 366.052891 180.38382 
L 367.660741 180.38382 
L 369.268602 180.383819 
L 370.87647 180.383819 
L 372.484347 180.383819 
L 374.09223 180.383819 
L 375.700118 180.383819 
L 377.30801 180.383819 
L 378.915906 180.38382 
L 380.523805 180.38382 
L 382.131706 180.38382 
L 383.739609 180.38382 
L 385.347512 180.38382 
L 386.955416 180.38382 
" clip-path="url(#p75f9e7baf5)" style="fill: none; stroke: #ff0000; stroke-opacity: 0.8; stroke-width: 0.25; stroke-linecap: square"/>
   </g>
   <g id="line2d_50">
    <path d="M 338.722677 180.383839 
L 340.330065 180.383836 
L 341.937499 180.383834 
L 343.544979 180.383832 
L 345.152499 180.38383 
L 346.760058 180.383829 
L 348.367654 180.383827 
L 349.975282 180.383826 
L 351.582941 180.383825 
L 353.190629 180.383824 
L 354.798342 180.383823 
L 356.40608 180.383822 
L 358.013839 180.383821 
L 359.621617 180.383821 
L 361.229414 180.38382 
L 362.837226 180.38382 
L 364.445053 180.38382 
L 366.052892 180.38382 
L 367.660743 180.38382 
L 369.268604 180.383819 
L 370.876473 180.383819 
L 372.48435 180.383819 
L 374.092233 180.383819 
L 375.700121 180.383819 
L 377.308014 180.383819 
L 378.915911 180.38382 
L 380.52381 180.38382 
L 382.131712 180.38382 
L 383.739615 180.38382 
L 385.347519 180.38382 
L 386.955423 180.38382 
" clip-path="url(#p75f9e7baf5)" style="fill: none; stroke: #ff0000; stroke-width: 0.25; stroke-linecap: square"/>
   </g>
   <g id="line2d_51">
    <path d="M 242.016539 111.689562 
L 242.016394 110.131131 
L 242.016261 108.569979 
L 242.016148 107.006153 
L 242.016053 105.439712 
L 242.015975 103.870725 
L 242.015911 102.299271 
L 242.015861 100.725437 
L 242.015822 99.149318 
L 242.015792 97.571013 
L 242.01577 95.990629 
L 242.015755 94.408274 
L 242.015746 92.824061 
L 242.015741 91.238103 
L 242.015739 89.650517 
L 242.015741 88.061418 
L 242.015744 86.470924 
L 242.015748 84.879149 
L 242.015754 83.286208 
L 242.01576 81.692213 
L 242.015766 80.097276 
L 242.015773 78.501503 
L 242.015779 76.904998 
L 242.015785 75.307864 
L 242.015791 73.710197 
L 242.015797 72.112091 
L 242.015802 70.513633 
L 242.015808 68.914907 
L 242.015813 67.315992 
L 242.015818 65.716961 
L 242.015823 64.11788 
" clip-path="url(#p75f9e7baf5)" style="fill: none; stroke: #ff0000; stroke-opacity: 0.2; stroke-width: 0.25; stroke-linecap: square"/>
   </g>
   <g id="line2d_52">
    <path d="M 242.016539 111.689562 
L 242.016396 110.131131 
L 242.016263 108.569958 
L 242.016149 107.00609 
L 242.016054 105.439584 
L 242.015976 103.87051 
L 242.015912 102.298946 
L 242.015862 100.724979 
L 242.015822 99.148704 
L 242.015792 97.570219 
L 242.015771 95.98963 
L 242.015756 94.407047 
L 242.015746 92.822579 
L 242.015741 91.236342 
L 242.01574 89.648452 
L 242.015741 88.059023 
L 242.015744 86.468172 
L 242.015749 84.876015 
L 242.015754 83.282666 
L 242.01576 81.688238 
L 242.015766 80.092841 
L 242.015773 78.496583 
L 242.015779 76.89957 
L 242.015785 75.301902 
L 242.015791 73.703678 
L 242.015796 72.104991 
L 242.015801 70.505929 
L 242.015806 68.906579 
L 242.015811 67.307018 
L 242.015816 65.707321 
L 242.01582 64.107557 
" clip-path="url(#p75f9e7baf5)" style="fill: none; stroke: #ff0000; stroke-opacity: 0.4; stroke-width: 0.25; stroke-linecap: square"/>
   </g>
   <g id="line2d_53">
    <path d="M 242.016539 111.689562 
L 242.016397 110.131131 
L 242.016264 108.569971 
L 242.01615 107.006129 
L 242.016055 105.439663 
L 242.015977 103.870642 
L 242.015913 102.299145 
L 242.015862 100.725258 
L 242.015823 99.149076 
L 242.015793 97.5707 
L 242.015771 95.990233 
L 242.015756 94.407784 
L 242.015746 92.823467 
L 242.015741 91.237393 
L 242.01574 89.64968 
L 242.015741 88.060442 
L 242.015744 86.469797 
L 242.015749 84.877859 
L 242.015754 83.284743 
L 242.01576 81.69056 
L 242.015766 80.095422 
L 242.015773 78.499437 
L 242.015779 76.902708 
L 242.015785 75.305336 
L 242.015791 73.70742 
L 242.015797 72.109052 
L 242.015802 70.510321 
L 242.015807 68.91131 
L 242.015812 67.312099 
L 242.015817 65.712761 
L 242.015822 64.113364 
" clip-path="url(#p75f9e7baf5)" style="fill: none; stroke: #ff0000; stroke-opacity: 0.6; stroke-width: 0.25; stroke-linecap: square"/>
   </g>
   <g id="line2d_54">
    <path d="M 242.016539 111.689562 
L 242.016398 110.131131 
L 242.016264 108.569963 
L 242.016151 107.006105 
L 242.016056 105.439615 
L 242.015977 103.870563 
L 242.015913 102.299026 
L 242.015862 100.725092 
L 242.015823 99.148854 
L 242.015793 97.570414 
L 242.015771 95.989875 
L 242.015756 94.407348 
L 242.015747 92.822943 
L 242.015741 91.236774 
L 242.01574 89.648958 
L 242.015741 88.059611 
L 242.015744 86.468847 
L 242.015749 84.876784 
L 242.015754 83.283535 
L 242.01576 81.689213 
L 242.015766 80.093929 
L 242.015773 78.497791 
L 242.015779 76.900903 
L 242.015785 75.303366 
L 242.015791 73.705279 
L 242.015796 72.106734 
L 242.015802 70.507822 
L 242.015807 68.908625 
L 242.015811 67.309223 
L 242.015816 65.70969 
L 242.015821 64.110093 
" clip-path="url(#p75f9e7baf5)" style="fill: none; stroke: #ff0000; stroke-opacity: 0.8; stroke-width: 0.25; stroke-linecap: square"/>
   </g>
   <g id="line2d_55">
    <path d="M 242.016539 111.689562 
L 242.016398 110.131131 
L 242.016265 108.569968 
L 242.016151 107.006119 
L 242.016056 105.439644 
L 242.015977 103.870609 
L 242.015913 102.299096 
L 242.015862 100.72519 
L 242.015823 99.148985 
L 242.015793 97.570582 
L 242.015771 95.990085 
L 242.015756 94.407603 
L 242.015747 92.823249 
L 242.015742 91.237135 
L 242.01574 89.649378 
L 242.015741 88.060094 
L 242.015744 86.469398 
L 242.015749 84.877406 
L 242.015754 83.284233 
L 242.01576 81.68999 
L 242.015766 80.094789 
L 242.015773 78.498736 
L 242.015779 76.901937 
L 242.015785 75.304493 
L 242.015791 73.706501 
L 242.015797 72.108054 
L 242.015802 70.509242 
L 242.015807 68.910148 
L 242.015812 67.310851 
L 242.015817 65.711425 
L 242.015821 64.111937 
" clip-path="url(#p75f9e7baf5)" style="fill: none; stroke: #ff0000; stroke-width: 0.25; stroke-linecap: square"/>
   </g>
   <g id="line2d_56">
    <path d="M 173.646133 168.677727 
L 172.056257 168.677783 
L 170.465243 168.677839 
L 168.873121 168.677706 
L 167.279924 168.677438 
L 165.685689 168.677075 
L 164.090456 168.676653 
L 162.494267 168.676199 
L 160.897165 168.675736 
L 159.299195 168.675281 
L 157.700403 168.674845 
L 156.100835 168.674437 
L 154.500539 168.674063 
L 152.899562 168.673726 
L 151.29795 168.673427 
L 149.69575 168.673166 
L 148.093009 168.672942 
L 146.489771 168.672751 
L 144.886082 168.672592 
L 143.281984 168.672462 
L 141.677519 168.672357 
L 140.07273 168.672274 
L 138.467654 168.672211 
L 136.86233 168.672164 
L 135.256795 168.67213 
L 133.651082 168.672107 
L 132.045225 168.672092 
L 130.439255 168.672084 
L 128.8332 168.67208 
L 127.227087 168.672079 
L 125.620942 168.672075 
" clip-path="url(#p75f9e7baf5)" style="fill: none; stroke: #ff0000; stroke-opacity: 0.2; stroke-width: 0.25; stroke-linecap: square"/>
   </g>
   <g id="line2d_57">
    <path d="M 173.646133 168.677727 
L 172.056257 168.677624 
L 170.465252 168.677687 
L 168.873148 168.677568 
L 167.279979 168.677316 
L 165.685783 168.676973 
L 164.090599 168.676573 
L 162.494471 168.676141 
L 160.897441 168.675699 
L 159.299556 168.675263 
L 157.700861 168.674844 
L 156.101404 168.674452 
L 154.501232 168.67409 
L 152.900393 168.673763 
L 151.298933 168.673471 
L 149.696901 168.673215 
L 148.094343 168.672993 
L 146.491304 168.672803 
L 144.887829 168.672643 
L 143.283962 168.67251 
L 141.679744 168.672401 
L 140.075218 168.672314 
L 138.470422 168.672245 
L 136.865395 168.672191 
L 135.260173 168.672151 
L 133.65479 168.672121 
L 132.049278 168.672098 
L 130.443669 168.672082 
L 128.837991 168.672069 
L 127.232271 168.672057 
L 125.626533 168.672047 
" clip-path="url(#p75f9e7baf5)" style="fill: none; stroke: #ff0000; stroke-opacity: 0.4; stroke-width: 0.25; stroke-linecap: square"/>
   </g>
   <g id="line2d_58">
    <path d="M 173.646133 168.677727 
L 172.056257 168.677528 
L 170.465246 168.677597 
L 168.87313 168.677487 
L 167.279943 168.677244 
L 165.685721 168.676911 
L 164.090506 168.676519 
L 162.49434 168.676095 
L 160.897265 168.67566 
L 159.299327 168.675229 
L 157.700572 168.674815 
L 156.101048 168.674425 
L 154.500802 168.674065 
L 152.89988 168.673739 
L 151.29833 168.673448 
L 149.6962 168.673191 
L 148.093535 168.67297 
L 146.490382 168.67278 
L 144.886784 168.672621 
L 143.282786 168.672489 
L 141.678429 168.672382 
L 140.073756 168.672297 
L 138.468805 168.67223 
L 136.863614 168.67218 
L 135.25822 168.672142 
L 133.652658 168.672116 
L 132.046959 168.672097 
L 130.441156 168.672085 
L 128.835277 168.672076 
L 127.229348 168.67207 
L 125.623395 168.672063 
" clip-path="url(#p75f9e7baf5)" style="fill: none; stroke: #ff0000; stroke-opacity: 0.6; stroke-width: 0.25; stroke-linecap: square"/>
   </g>
   <g id="line2d_59">
    <path d="M 173.646133 168.677727 
L 172.056257 168.67747 
L 170.46525 168.677546 
L 168.873141 168.677442 
L 167.279965 168.677208 
L 165.68576 168.676881 
L 164.090564 168.676496 
L 162.494421 168.676077 
L 160.897373 168.675647 
L 159.299467 168.675221 
L 157.700749 168.67481 
L 156.101264 168.674423 
L 154.501062 168.674066 
L 152.900189 168.673742 
L 151.298692 168.673453 
L 149.696619 168.673198 
L 148.094016 168.672978 
L 146.490928 168.672789 
L 144.8874 168.672631 
L 143.283476 168.672499 
L 141.679198 168.672392 
L 140.074608 168.672306 
L 138.469743 168.672239 
L 136.864643 168.672187 
L 135.259344 168.672148 
L 133.653879 168.67212 
L 132.048283 168.672099 
L 130.442585 168.672084 
L 128.836814 168.672073 
L 127.230997 168.672064 
L 125.625159 168.672055 
" clip-path="url(#p75f9e7baf5)" style="fill: none; stroke: #ff0000; stroke-opacity: 0.8; stroke-width: 0.25; stroke-linecap: square"/>
   </g>
   <g id="line2d_60">
    <path d="M 173.646133 168.677727 
L 172.056257 168.677435 
L 170.465248 168.677515 
L 168.873134 168.677416 
L 167.279952 168.677185 
L 165.685737 168.676862 
L 164.090529 168.67648 
L 162.494372 168.676064 
L 160.897308 168.675636 
L 159.299383 168.675211 
L 157.700643 168.674802 
L 156.101135 168.674416 
L 154.500907 168.674059 
L 152.900006 168.673736 
L 151.298478 168.673447 
L 149.696372 168.673193 
L 148.093734 168.672973 
L 146.490608 168.672784 
L 144.88704 168.672626 
L 143.283074 168.672495 
L 141.678752 168.672388 
L 140.074115 168.672302 
L 138.469202 168.672236 
L 136.864051 168.672184 
L 135.2587 168.672146 
L 133.653181 168.672119 
L 132.047529 168.672099 
L 130.441773 168.672085 
L 128.835944 168.672076 
L 127.230066 168.672068 
L 125.624166 168.67206 
" clip-path="url(#p75f9e7baf5)" style="fill: none; stroke: #ff0000; stroke-width: 0.25; stroke-linecap: square"/>
   </g>
   <g id="line2d_61">
    <path d="M 298.032292 180.380199 
L 299.619076 180.380793 
L 301.207577 180.381309 
L 302.797813 180.381773 
L 304.389789 180.382182 
L 305.983495 180.38254 
L 307.578912 180.382846 
L 309.17601 180.383106 
L 310.774749 180.383322 
L 312.37508 180.383499 
L 313.97695 180.383642 
L 315.580295 180.383754 
L 317.185049 180.38384 
L 318.791141 180.383905 
L 320.398494 180.38395 
L 322.007031 180.38398 
L 323.61667 180.383998 
L 325.227329 180.384006 
L 326.838924 180.384007 
L 328.451372 180.384001 
L 330.064588 180.383991 
L 331.678489 180.383978 
L 333.292994 180.383963 
L 334.908021 180.383947 
L 336.523492 180.38393 
L 338.139332 180.383912 
L 339.755467 180.383895 
L 341.371828 180.383878 
L 342.988349 180.383861 
L 344.60497 180.383844 
L 346.221632 180.383827 
" clip-path="url(#p75f9e7baf5)" style="fill: none; stroke: #ff0000; stroke-opacity: 0.2; stroke-width: 0.25; stroke-linecap: square"/>
   </g>
   <g id="line2d_62">
    <path d="M 298.032292 180.380199 
L 299.619076 180.3808 
L 301.207598 180.381316 
L 302.797877 180.381779 
L 304.389916 180.382188 
L 305.983709 180.382544 
L 307.579235 180.38285 
L 309.176464 180.383109 
L 310.775357 180.383325 
L 312.375866 180.383502 
L 313.977936 180.383644 
L 315.581506 180.383756 
L 317.186509 180.383843 
L 318.792873 180.383907 
L 320.400523 180.383953 
L 322.009381 180.383983 
L 323.619366 180.384001 
L 325.230395 180.384009 
L 326.842385 180.38401 
L 328.45525 180.384004 
L 330.068908 180.383995 
L 331.683275 180.383982 
L 333.298267 180.383967 
L 334.913804 180.383951 
L 336.529807 180.383934 
L 338.146199 180.383917 
L 339.762907 180.383899 
L 341.37986 180.383883 
L 342.996992 180.383866 
L 344.614239 180.383849 
L 346.231544 180.383833 
" clip-path="url(#p75f9e7baf5)" style="fill: none; stroke: #ff0000; stroke-opacity: 0.4; stroke-width: 0.25; stroke-linecap: square"/>
   </g>
   <g id="line2d_63">
    <path d="M 298.032292 180.380199 
L 299.619076 180.380804 
L 301.207585 180.381319 
L 302.797838 180.381782 
L 304.389838 180.38219 
L 305.983579 180.382546 
L 307.579039 180.382852 
L 309.17619 180.38311 
L 310.77499 180.383326 
L 312.375394 180.383502 
L 313.977345 180.383644 
L 315.580783 180.383756 
L 317.18564 180.383842 
L 318.791845 180.383906 
L 320.399323 180.383952 
L 322.007995 180.383982 
L 323.617781 180.384 
L 325.228598 180.384008 
L 326.840363 180.384008 
L 328.452992 180.384003 
L 330.0664 180.383993 
L 331.680505 180.38398 
L 333.295225 180.383965 
L 334.910479 180.383948 
L 336.526187 180.383931 
L 338.142275 180.383914 
L 339.758669 180.383897 
L 341.375299 180.383879 
L 342.992099 180.383863 
L 344.609007 180.383846 
L 346.225966 180.383829 
" clip-path="url(#p75f9e7baf5)" style="fill: none; stroke: #ff0000; stroke-opacity: 0.6; stroke-width: 0.25; stroke-linecap: square"/>
   </g>
   <g id="line2d_64">
    <path d="M 298.032292 180.380199 
L 299.619076 180.380806 
L 301.207593 180.381322 
L 302.797861 180.381784 
L 304.389885 180.382192 
L 305.983656 180.382548 
L 307.579156 180.382853 
L 309.176353 180.383111 
L 310.775208 180.383326 
L 312.375673 180.383503 
L 313.977694 180.383645 
L 315.581209 180.383757 
L 317.186151 180.383843 
L 318.792448 180.383907 
L 320.400025 180.383952 
L 322.008804 180.383983 
L 323.618704 180.384001 
L 325.229642 180.384009 
L 326.841535 180.384009 
L 328.454298 180.384004 
L 330.067848 180.383994 
L 331.6821 180.383981 
L 333.296972 180.383966 
L 334.912384 180.38395 
L 336.528256 180.383933 
L 338.144513 180.383915 
L 339.76108 180.383898 
L 341.377887 180.383881 
L 342.994868 180.383864 
L 344.611961 180.383848 
L 346.229108 180.383832 
" clip-path="url(#p75f9e7baf5)" style="fill: none; stroke: #ff0000; stroke-opacity: 0.8; stroke-width: 0.25; stroke-linecap: square"/>
   </g>
   <g id="line2d_65">
    <path d="M 298.032292 180.380199 
L 299.619076 180.380808 
L 301.207589 180.381323 
L 302.797848 180.381785 
L 304.389858 180.382193 
L 305.983611 180.382548 
L 307.579087 180.382854 
L 309.176257 180.383112 
L 310.77508 180.383327 
L 312.37551 180.383503 
L 313.97749 180.383645 
L 315.58096 180.383757 
L 317.185853 180.383843 
L 318.792097 180.383907 
L 320.399617 180.383952 
L 322.008335 180.383982 
L 323.61817 180.384 
L 325.229039 180.384008 
L 326.840859 180.384009 
L 328.453546 180.384003 
L 330.067016 180.383993 
L 331.681185 180.38398 
L 333.295972 180.383965 
L 334.911295 180.383949 
L 336.527076 180.383932 
L 338.143239 180.383915 
L 339.75971 180.383897 
L 341.37642 180.38388 
L 342.993301 180.383863 
L 344.610293 180.383847 
L 346.227336 180.38383 
" clip-path="url(#p75f9e7baf5)" style="fill: none; stroke: #ff0000; stroke-width: 0.25; stroke-linecap: square"/>
   </g>
   <g id="line2d_66">
    <path d="M 242.165164 139.408232 
L 242.107997 137.903385 
L 242.053101 136.409336 
L 242.010062 134.925357 
L 241.9773 133.451132 
L 241.953302 131.986301 
L 241.936659 130.530466 
L 241.926088 129.0832 
L 241.920437 127.644059 
L 241.918688 126.212583 
L 241.919953 124.788307 
L 241.923475 123.370766 
L 241.928616 121.959496 
L 241.934849 120.554038 
L 241.941742 119.153943 
L 241.948955 117.758773 
L 241.956221 116.368101 
L 241.963344 114.981513 
L 241.970181 113.59861 
L 241.976638 112.219007 
L 241.98266 110.842337 
L 241.988225 109.468247 
L 241.993337 108.096401 
L 241.998019 106.726479 
L 242.00231 105.35818 
L 242.006262 103.991219 
L 242.009931 102.62533 
L 242.013381 101.260261 
L 242.01668 99.895782 
L 242.019894 98.531678 
L 242.023085 97.167753 
" clip-path="url(#p75f9e7baf5)" style="fill: none; stroke: #ff0000; stroke-opacity: 0.2; stroke-width: 0.25; stroke-linecap: square"/>
   </g>
   <g id="line2d_67">
    <path d="M 242.165164 139.408232 
L 242.110979 137.903275 
L 242.05601 136.409276 
L 242.012817 134.925395 
L 241.979845 133.451313 
L 241.955601 131.986666 
L 241.938695 130.531053 
L 241.927854 129.084048 
L 241.921937 127.645201 
L 241.919931 126.214054 
L 241.920954 124.790139 
L 241.92425 123.372989 
L 241.929183 121.962137 
L 241.935225 120.557125 
L 241.941945 119.157501 
L 241.948999 117.762825 
L 241.95612 116.372667 
L 241.963107 114.986614 
L 241.969817 113.604263 
L 241.976152 112.22523 
L 241.982055 110.849143 
L 241.9875 109.475649 
L 241.992489 108.10441 
L 241.997043 106.735106 
L 242.001199 105.367433 
L 242.005008 104.001105 
L 242.008526 102.635854 
L 242.01182 101.271428 
L 242.014957 99.907595 
L 242.018006 98.544139 
L 242.021037 97.180862 
" clip-path="url(#p75f9e7baf5)" style="fill: none; stroke: #ff0000; stroke-opacity: 0.4; stroke-width: 0.25; stroke-linecap: square"/>
   </g>
   <g id="line2d_68">
    <path d="M 242.165164 139.408232 
L 242.112774 137.903211 
L 242.057697 136.409196 
L 242.014357 134.925277 
L 241.981216 133.451138 
L 241.956795 131.986414 
L 241.939714 130.530706 
L 241.928709 129.083587 
L 241.922642 127.644611 
L 241.920503 126.213318 
L 241.921413 124.789243 
L 241.924617 123.371918 
L 241.929479 121.96088 
L 241.935469 120.555668 
L 241.942154 119.155834 
L 241.949191 117.760938 
L 241.95631 116.370551 
L 241.963309 114.984259 
L 241.970042 113.601662 
L 241.976411 112.222374 
L 241.982356 110.846028 
L 241.987852 109.472268 
L 241.992897 108.100758 
L 241.997513 106.731179 
L 242.001736 105.363227 
L 242.005616 103.996617 
L 242.009209 102.631081 
L 242.012579 101.266369 
L 242.015794 99.902248 
L 242.018922 98.538503 
L 242.022031 97.174937 
" clip-path="url(#p75f9e7baf5)" style="fill: none; stroke: #ff0000; stroke-opacity: 0.6; stroke-width: 0.25; stroke-linecap: square"/>
   </g>
   <g id="line2d_69">
    <path d="M 242.165164 139.408232 
L 242.113849 137.903174 
L 242.058671 136.409172 
L 242.015213 134.925277 
L 241.981946 133.451169 
L 241.9574 131.986484 
L 241.940199 130.530823 
L 241.929083 129.083758 
L 241.922913 127.644843 
L 241.920683 126.213618 
L 241.921513 124.789616 
L 241.924647 123.372372 
L 241.929448 121.96142 
L 241.935386 120.5563 
L 241.942027 119.156562 
L 241.949025 117.761767 
L 241.956111 116.371486 
L 241.96308 114.985303 
L 241.969786 113.602819 
L 241.97613 112.223649 
L 241.982052 110.847422 
L 241.987525 109.473784 
L 241.992548 108.102398 
L 241.997141 106.732945 
L 242.00134 105.365121 
L 242.005195 103.998641 
L 242.008764 102.633236 
L 242.012108 101.268655 
L 242.015297 99.904666 
L 242.018399 98.541053 
L 242.021483 97.17762 
" clip-path="url(#p75f9e7baf5)" style="fill: none; stroke: #ff0000; stroke-opacity: 0.8; stroke-width: 0.25; stroke-linecap: square"/>
   </g>
   <g id="line2d_70">
    <path d="M 242.165164 139.408232 
L 242.114509 137.903152 
L 242.059267 136.409148 
L 242.01574 134.925246 
L 241.982404 133.451127 
L 241.957793 131.986427 
L 241.940532 130.530747 
L 241.929363 129.08366 
L 241.923149 127.644718 
L 241.920881 126.213463 
L 241.92168 124.789429 
L 241.924791 123.372149 
L 241.929576 121.961159 
L 241.935502 120.555999 
L 241.942136 119.156218 
L 241.949131 117.761378 
L 241.956218 116.37105 
L 241.963192 114.984819 
L 241.969905 113.602285 
L 241.976258 112.223063 
L 241.98219 110.846782 
L 241.987675 109.47309 
L 241.992711 108.10165 
L 241.997318 106.73214 
L 242.001533 105.36426 
L 242.005403 103.997722 
L 242.008987 102.632258 
L 242.012348 101.267619 
L 242.015554 99.903571 
L 242.018672 98.5399 
L 242.021772 97.176408 
" clip-path="url(#p75f9e7baf5)" style="fill: none; stroke: #ff0000; stroke-width: 0.25; stroke-linecap: square"/>
   </g>
   <g id="line2d_71">
    <path d="M 264.477299 179.636099 
L 265.922226 179.716604 
L 267.371046 179.777951 
L 268.822738 179.84051 
L 270.277337 179.902423 
L 271.734844 179.962253 
L 273.195227 180.018941 
L 274.658425 180.071746 
L 276.124348 180.120201 
L 277.592893 180.16406 
L 279.063938 180.203257 
L 280.537353 180.237864 
L 282.013001 180.268056 
L 283.490743 180.294083 
L 284.970436 180.316246 
L 286.451939 180.334875 
L 287.935111 180.350317 
L 289.419813 180.362915 
L 290.905909 180.37301 
L 292.393265 180.380929 
L 293.881752 180.386979 
L 295.371241 180.391448 
L 296.86161 180.394599 
L 298.352741 180.396671 
L 299.844518 180.397881 
L 301.336833 180.398422 
L 302.82958 180.398467 
L 304.322661 180.398169 
L 305.815982 180.397661 
L 307.309456 180.397067 
L 308.803003 180.396493 
" clip-path="url(#p75f9e7baf5)" style="fill: none; stroke: #ff0000; stroke-opacity: 0.2; stroke-width: 0.25; stroke-linecap: square"/>
   </g>
   <g id="line2d_72">
    <path d="M 264.477299 179.636099 
L 265.921953 179.721357 
L 267.370821 179.782283 
L 268.822593 179.844371 
L 270.2773 179.905802 
L 271.734941 179.965169 
L 273.195481 180.021433 
L 274.658856 180.073868 
L 276.124979 180.122013 
L 277.593741 180.165623 
L 279.065022 180.204625 
L 280.538692 180.239083 
L 282.014612 180.269162 
L 283.492642 180.295101 
L 284.97264 180.317188 
L 286.454463 180.335746 
L 287.937969 180.351112 
L 289.423019 180.363624 
L 290.909475 180.37362 
L 292.397201 180.381423 
L 293.886068 180.387338 
L 295.375947 180.391652 
L 296.866714 180.394627 
L 298.35825 180.396503 
L 299.850438 180.397499 
L 301.343168 180.397808 
L 302.836336 180.397605 
L 304.329841 180.397048 
L 305.823589 180.396277 
L 307.317492 180.395415 
L 308.811469 180.394576 
" clip-path="url(#p75f9e7baf5)" style="fill: none; stroke: #ff0000; stroke-opacity: 0.4; stroke-width: 0.25; stroke-linecap: square"/>
   </g>
   <g id="line2d_73">
    <path d="M 264.477299 179.636099 
L 265.921794 179.724018 
L 267.370661 179.784616 
L 268.822419 179.846376 
L 270.277098 179.907494 
L 271.734697 179.966573 
L 273.195181 180.022579 
L 274.658487 180.074789 
L 276.124527 180.122739 
L 277.593196 180.166182 
L 279.064373 180.205042 
L 280.537927 180.23938 
L 282.013723 180.269358 
L 283.491621 180.295213 
L 284.971478 180.317233 
L 286.453152 180.335739 
L 287.936503 180.351068 
L 289.421391 180.363562 
L 290.907679 180.373556 
L 292.395234 180.381372 
L 293.883923 180.387318 
L 295.373621 180.391679 
L 296.864204 180.394717 
L 298.355552 180.396671 
L 299.84755 180.397758 
L 301.340088 180.398172 
L 302.833061 180.398087 
L 304.326371 180.397655 
L 305.819922 180.397013 
L 307.313628 180.396284 
L 308.807408 180.395576 
" clip-path="url(#p75f9e7baf5)" style="fill: none; stroke: #ff0000; stroke-opacity: 0.6; stroke-width: 0.25; stroke-linecap: square"/>
   </g>
   <g id="line2d_74">
    <path d="M 264.477299 179.636099 
L 265.921701 179.725529 
L 267.370584 179.785919 
L 268.822364 179.847489 
L 270.277072 179.908438 
L 271.734704 179.96737 
L 273.195226 180.023251 
L 274.658575 180.075353 
L 276.124663 180.123213 
L 277.593384 180.16658 
L 279.064617 180.205374 
L 280.538232 180.239656 
L 282.014093 180.269584 
L 283.492059 180.295395 
L 284.971988 180.317375 
L 286.453738 180.335845 
L 287.937167 180.35114 
L 289.422136 180.363601 
L 290.908508 180.373561 
L 292.396149 180.381343 
L 293.884928 180.387254 
L 295.374716 180.391576 
L 296.86539 180.394572 
L 298.356831 180.39648 
L 299.848924 180.397518 
L 301.341558 180.397878 
L 302.834628 180.397733 
L 304.328034 180.39724 
L 305.821683 180.396534 
L 307.315487 180.395741 
L 308.809365 180.394969 
" clip-path="url(#p75f9e7baf5)" style="fill: none; stroke: #ff0000; stroke-opacity: 0.8; stroke-width: 0.25; stroke-linecap: square"/>
   </g>
   <g id="line2d_75">
    <path d="M 264.477299 179.636099 
L 265.921648 179.726386 
L 267.370533 179.786647 
L 268.822312 179.848105 
L 270.277013 179.908957 
L 271.734636 179.967808 
L 273.195146 180.023618 
L 274.658479 180.075662 
L 276.124549 180.123471 
L 277.593248 180.166793 
L 279.064457 180.205551 
L 280.538046 180.239801 
L 282.013879 180.269704 
L 283.491814 180.295494 
L 284.971711 180.317458 
L 286.453426 180.335916 
L 287.93682 180.351205 
L 289.421752 180.363662 
L 290.908086 180.373624 
L 292.395687 180.381412 
L 293.884425 180.387331 
L 295.374172 180.391666 
L 296.864804 180.394678 
L 298.356202 180.396606 
L 299.848251 180.397667 
L 301.340841 180.398052 
L 302.833867 180.397937 
L 304.327228 180.397474 
L 305.820832 180.396801 
L 307.314591 180.396039 
L 308.808424 180.3953 
" clip-path="url(#p75f9e7baf5)" style="fill: none; stroke: #ff0000; stroke-width: 0.25; stroke-linecap: square"/>
   </g>
   <g id="line2d_76">
    <path d="M 230.314187 221.786546 
L 230.314662 223.661943 
L 230.315125 225.534407 
L 230.314994 227.40431 
L 230.314446 229.271994 
L 230.313625 231.137774 
L 230.312645 233.001938 
L 230.311594 234.864746 
L 230.310536 236.726435 
L 230.309519 238.587217 
L 230.308574 240.44728 
L 230.307719 242.306791 
L 230.306964 244.165897 
L 230.306312 246.024723 
L 230.30576 247.883377 
L 230.305301 249.741951 
L 230.304928 251.600518 
L 230.304631 253.459139 
L 230.304401 255.317859 
L 230.304228 257.176713 
L 230.304102 259.035723 
L 230.304016 260.894901 
L 230.303963 262.75425 
L 230.303935 264.613767 
L 230.303926 266.473442 
L 230.303933 268.333257 
L 230.303951 270.193192 
L 230.303976 272.053224 
L 230.304005 273.913329 
L 230.304037 275.773479 
L 230.30407 277.633649 
" clip-path="url(#p75f9e7baf5)" style="fill: none; stroke: #ff0000; stroke-opacity: 0.2; stroke-width: 0.25; stroke-linecap: square"/>
   </g>
   <g id="line2d_77">
    <path d="M 230.314187 221.786546 
L 230.314359 223.661943 
L 230.314824 225.534437 
L 230.314708 227.4044 
L 230.314185 229.272173 
L 230.313394 231.138072 
L 230.312446 233.002384 
L 230.311427 234.865371 
L 230.310399 236.727268 
L 230.309409 238.588287 
L 230.308487 240.448617 
L 230.30765 242.308424 
L 230.30691 244.167854 
L 230.306268 246.027032 
L 230.305723 247.886067 
L 230.305269 249.745049 
L 230.304898 251.604051 
L 230.304603 253.463133 
L 230.304373 255.32234 
L 230.3042 257.181705 
L 230.304075 259.041249 
L 230.303991 260.900984 
L 230.303938 262.760912 
L 230.303912 264.621028 
L 230.303906 266.48132 
L 230.303915 268.341769 
L 230.303936 270.202355 
L 230.303964 272.063051 
L 230.303997 273.923832 
L 230.304033 275.784668 
L 230.304068 277.645532 
" clip-path="url(#p75f9e7baf5)" style="fill: none; stroke: #ff0000; stroke-opacity: 0.4; stroke-width: 0.25; stroke-linecap: square"/>
   </g>
   <g id="line2d_78">
    <path d="M 230.314187 221.786546 
L 230.314128 223.661943 
L 230.314601 225.53442 
L 230.314504 227.404347 
L 230.314006 229.272068 
L 230.313243 231.137898 
L 230.312324 233.002123 
L 230.311332 234.865006 
L 230.310329 236.726782 
L 230.30936 238.587663 
L 230.308456 240.447839 
L 230.307635 242.307475 
L 230.306906 244.166717 
L 230.306273 246.025693 
L 230.305735 247.88451 
L 230.305286 249.743258 
L 230.304919 251.602012 
L 230.304626 253.460831 
L 230.304398 255.319762 
L 230.304226 257.178837 
L 230.304102 259.03808 
L 230.304017 260.897501 
L 230.303963 262.757105 
L 230.303935 264.616886 
L 230.303927 266.476833 
L 230.303934 268.336929 
L 230.303952 270.197154 
L 230.303977 272.057483 
L 230.304007 273.91789 
L 230.304039 275.778348 
L 230.304071 277.63883 
" clip-path="url(#p75f9e7baf5)" style="fill: none; stroke: #ff0000; stroke-opacity: 0.6; stroke-width: 0.25; stroke-linecap: square"/>
   </g>
   <g id="line2d_79">
    <path d="M 230.314187 221.786546 
L 230.313949 223.661943 
L 230.314432 225.53443 
L 230.314352 227.404378 
L 230.313874 229.272129 
L 230.313132 231.137999 
L 230.312233 233.002275 
L 230.31126 234.865218 
L 230.310274 236.727064 
L 230.309319 238.588025 
L 230.308425 240.448289 
L 230.307612 242.308023 
L 230.30689 244.167373 
L 230.306262 246.026465 
L 230.305727 247.885407 
L 230.30528 249.744288 
L 230.304915 251.603184 
L 230.304622 253.462152 
L 230.304395 255.32124 
L 230.304223 257.180479 
L 230.304098 259.039892 
L 230.304012 260.89949 
L 230.303958 262.759276 
L 230.30393 264.619245 
L 230.303922 266.479385 
L 230.303929 268.339678 
L 230.303947 270.200104 
L 230.303973 272.060637 
L 230.304004 273.921251 
L 230.304036 275.781918 
L 230.304069 277.642612 
" clip-path="url(#p75f9e7baf5)" style="fill: none; stroke: #ff0000; stroke-opacity: 0.8; stroke-width: 0.25; stroke-linecap: square"/>
   </g>
   <g id="line2d_80">
    <path d="M 230.314187 221.786546 
L 230.31381 223.661943 
L 230.314303 225.534424 
L 230.314237 227.40436 
L 230.313776 229.272094 
L 230.313051 231.13794 
L 230.312168 233.002187 
L 230.311209 234.865096 
L 230.310236 236.726901 
L 230.309291 238.587817 
L 230.308406 240.44803 
L 230.3076 242.307708 
L 230.306883 244.166997 
L 230.306259 246.026022 
L 230.305728 247.884892 
L 230.305283 249.743698 
L 230.304919 251.602513 
L 230.304629 253.461396 
L 230.304402 255.320395 
L 230.30423 257.179542 
L 230.304106 259.038858 
L 230.30402 260.898357 
L 230.303967 262.75804 
L 230.303938 264.617903 
L 230.30393 266.477935 
L 230.303936 268.338118 
L 230.303953 270.198432 
L 230.303978 272.058851 
L 230.304007 273.91935 
L 230.304039 275.779901 
L 230.304071 277.640477 
" clip-path="url(#p75f9e7baf5)" style="fill: none; stroke: #ff0000; stroke-width: 0.25; stroke-linecap: square"/>
   </g>
   <g id="line2d_81">
    <path d="M 207.838655 169.459088 
L 206.395229 169.37339 
L 204.947681 169.307814 
L 203.497141 169.241289 
L 202.043576 169.175701 
L 200.586985 169.112502 
L 199.127406 169.052764 
L 197.664907 168.997228 
L 196.199582 168.946353 
L 194.731544 168.900375 
L 193.260921 168.859342 
L 191.787852 168.823163 
L 190.312481 168.791642 
L 188.834954 168.764505 
L 187.35542 168.741429 
L 185.874026 168.72206 
L 184.39092 168.706031 
L 182.906244 168.692978 
L 181.420139 168.68254 
L 179.932744 168.674374 
L 178.444193 168.668155 
L 176.954615 168.663584 
L 175.464138 168.660383 
L 173.972883 168.658303 
L 172.480967 168.657119 
L 170.988502 168.656628 
L 169.495596 168.65665 
L 168.002349 168.657028 
L 166.508857 168.657621 
L 165.015209 168.658303 
L 163.521486 168.658963 
" clip-path="url(#p75f9e7baf5)" style="fill: none; stroke: #ff0000; stroke-opacity: 0.2; stroke-width: 0.25; stroke-linecap: square"/>
   </g>
   <g id="line2d_82">
    <path d="M 207.838655 169.459088 
L 206.395529 169.368485 
L 204.94793 169.303349 
L 203.497308 169.237314 
L 202.043631 169.172226 
L 200.586904 169.109508 
L 199.127165 169.050209 
L 197.664486 168.995057 
L 196.19896 168.944504 
L 194.730702 168.898787 
L 193.259841 168.857959 
L 191.786515 168.821938 
L 190.31087 168.790537 
L 188.833052 168.763495 
L 187.353211 168.740499 
L 185.871495 168.721207 
L 184.388053 168.70526 
L 182.903027 168.692296 
L 181.416562 168.681962 
L 179.928794 168.673917 
L 178.439861 168.667839 
L 176.949892 168.663429 
L 175.459016 168.66041 
L 173.967354 168.658533 
L 172.475026 168.657571 
L 170.982145 168.65732 
L 169.488817 168.657598 
L 167.995145 168.658242 
L 166.501226 168.659108 
L 165.007147 168.660066 
L 163.512993 168.661 
" clip-path="url(#p75f9e7baf5)" style="fill: none; stroke: #ff0000; stroke-opacity: 0.4; stroke-width: 0.25; stroke-linecap: square"/>
   </g>
   <g id="line2d_83">
    <path d="M 207.838655 169.459088 
L 206.395704 169.365734 
L 204.948104 169.300937 
L 203.497495 169.23524 
L 202.043845 169.170474 
L 200.587158 169.108052 
L 199.127475 169.049017 
L 197.664864 168.994095 
L 196.199419 168.943742 
L 194.731254 168.898195 
L 193.260497 168.857512 
L 191.787286 168.821613 
L 190.311764 168.790314 
L 188.834079 168.763357 
L 187.354378 168.740429 
L 185.872811 168.721189 
L 184.389523 168.705276 
L 182.904659 168.69233 
L 181.41836 168.681997 
L 179.930764 168.673937 
L 178.442007 168.667826 
L 176.952219 168.663366 
L 175.461526 168.660283 
L 173.970052 168.658325 
L 172.477913 168.657268 
L 170.985223 168.656908 
L 169.492089 168.657065 
L 167.998612 168.657581 
L 166.504888 168.658313 
L 165.011006 168.659135 
L 163.517048 168.659933 
" clip-path="url(#p75f9e7baf5)" style="fill: none; stroke: #ff0000; stroke-opacity: 0.6; stroke-width: 0.25; stroke-linecap: square"/>
   </g>
   <g id="line2d_84">
    <path d="M 207.838655 169.459088 
L 206.395806 169.36417 
L 204.948189 169.29959 
L 203.497557 169.23409 
L 202.043878 169.169498 
L 200.587158 169.107228 
L 199.127436 169.048324 
L 197.664782 168.993513 
L 196.199289 168.943255 
L 194.731072 168.897788 
L 193.260258 168.857174 
L 191.786986 168.821335 
L 190.3114 168.790089 
L 188.833646 168.763178 
L 187.353874 168.740293 
L 185.872231 168.721091 
L 184.388865 168.705215 
L 182.90392 168.692305 
L 181.417537 168.682008 
L 179.929856 168.673984 
L 178.44101 168.667911 
L 176.951132 168.663492 
L 175.460348 168.660452 
L 173.968781 168.658542 
L 172.476548 168.657537 
L 170.983763 168.657233 
L 169.490532 168.657451 
L 167.996959 168.658031 
L 166.503138 168.658828 
L 165.009158 168.659717 
L 163.515104 168.660582 
" clip-path="url(#p75f9e7baf5)" style="fill: none; stroke: #ff0000; stroke-opacity: 0.8; stroke-width: 0.25; stroke-linecap: square"/>
   </g>
   <g id="line2d_85">
    <path d="M 207.838655 169.459088 
L 206.395865 169.363281 
L 204.948245 169.298835 
L 203.497614 169.23345 
L 202.04394 169.168958 
L 200.587229 169.106772 
L 199.127519 169.04794 
L 197.66488 168.99319 
L 196.199405 168.942985 
L 194.731209 168.897562 
L 193.260419 168.856986 
L 191.787173 168.821179 
L 190.311614 168.789959 
L 188.833891 168.76307 
L 187.35415 168.7402 
L 185.872542 168.72101 
L 184.389211 168.70514 
L 182.904302 168.692233 
L 181.417957 168.681934 
L 179.930314 168.673903 
L 178.441509 168.667821 
L 176.951672 168.663388 
L 175.460929 168.660331 
L 173.969404 168.6584 
L 172.477214 168.657371 
L 170.984473 168.65704 
L 169.491286 168.657228 
L 167.997756 168.657776 
L 166.50398 168.658541 
L 165.010045 168.659395 
L 163.516034 168.660227 
" clip-path="url(#p75f9e7baf5)" style="fill: none; stroke: #ff0000; stroke-width: 0.25; stroke-linecap: square"/>
   </g>
   <g id="line2d_86">
    <path d="M 231.514302 200.838501 
L 231.365626 202.404257 
L 231.252799 203.973588 
L 231.14132 205.543233 
L 231.033632 207.113044 
L 230.931606 208.682855 
L 230.836586 210.252492 
L 230.749458 211.821771 
L 230.670708 213.390512 
L 230.600495 214.958543 
L 230.538724 216.525711 
L 230.485098 218.091883 
L 230.439174 219.656953 
L 230.400408 221.220841 
L 230.368189 222.783496 
L 230.341873 224.344892 
L 230.320808 225.905026 
L 230.304355 227.463921 
L 230.291896 229.021616 
L 230.28285 230.578167 
L 230.276679 232.133646 
L 230.272892 233.688134 
L 230.271047 235.241724 
L 230.270753 236.794513 
L 230.271666 238.346604 
L 230.273487 239.898103 
L 230.275959 241.449115 
L 230.278865 242.999747 
L 230.282018 244.550101 
L 230.285259 246.100276 
L 230.288472 247.650365 
" clip-path="url(#p75f9e7baf5)" style="fill: none; stroke: #ff0000; stroke-opacity: 0.2; stroke-width: 0.25; stroke-linecap: square"/>
   </g>
   <g id="line2d_87">
    <path d="M 231.514302 200.838501 
L 231.362455 202.403953 
L 231.250422 203.973367 
L 231.139686 205.543119 
L 231.032675 207.113053 
L 230.931251 208.683004 
L 230.836763 210.252795 
L 230.750098 211.822243 
L 230.671751 213.391167 
L 230.601892 214.959395 
L 230.540434 216.526774 
L 230.487091 218.09317 
L 230.441426 219.658476 
L 230.402899 221.222613 
L 230.370904 222.785529 
L 230.344799 224.347196 
L 230.323931 225.907612 
L 230.30766 227.466797 
L 230.29537 229.02479 
L 230.286477 230.581648 
L 230.280446 232.13744 
L 230.276783 233.692248 
L 230.27505 235.246162 
L 230.274854 236.799281 
L 230.275853 238.351706 
L 230.277751 239.903541 
L 230.280292 241.454893 
L 230.283259 243.005866 
L 230.286471 244.556564 
L 230.289773 246.107083 
L 230.293031 247.657517 
" clip-path="url(#p75f9e7baf5)" style="fill: none; stroke: #ff0000; stroke-opacity: 0.4; stroke-width: 0.25; stroke-linecap: square"/>
   </g>
   <g id="line2d_88">
    <path d="M 231.514302 200.838501 
L 231.360421 202.403754 
L 231.248707 203.97318 
L 231.138212 205.542926 
L 231.031371 207.112838 
L 230.930057 208.682753 
L 230.835628 210.252494 
L 230.748979 211.821881 
L 230.670614 213.390733 
L 230.600713 214.95888 
L 230.539196 216.526169 
L 230.48578 218.092468 
L 230.440035 219.65767 
L 230.401422 221.221698 
L 230.369338 222.784497 
L 230.343142 224.346043 
L 230.322185 225.906333 
L 230.305825 227.465388 
L 230.293446 229.023247 
L 230.284468 230.579966 
L 230.278352 232.135617 
L 230.274609 233.690281 
L 230.272798 235.244048 
L 230.272528 236.797018 
L 230.273458 238.349291 
L 230.275289 239.900973 
L 230.277767 241.452171 
L 230.280676 243.002989 
L 230.283831 244.55353 
L 230.287076 246.103893 
L 230.290279 247.65417 
" clip-path="url(#p75f9e7baf5)" style="fill: none; stroke: #ff0000; stroke-opacity: 0.6; stroke-width: 0.25; stroke-linecap: square"/>
   </g>
   <g id="line2d_89">
    <path d="M 231.514302 200.838501 
L 231.359245 202.403638 
L 231.247788 203.973088 
L 231.137506 205.54286 
L 231.030846 207.112801 
L 230.929691 208.682748 
L 230.835403 210.252525 
L 230.748884 211.82195 
L 230.670642 213.390844 
L 230.600858 214.959036 
L 230.539453 216.526372 
L 230.486147 218.092722 
L 230.440507 219.657978 
L 230.401996 221.222062 
L 230.37001 222.78492 
L 230.343909 224.346527 
L 230.323041 225.90688 
L 230.306766 227.466 
L 230.294467 229.023925 
L 230.285564 230.580714 
L 230.279519 232.136434 
L 230.275843 233.691169 
L 230.274094 235.245009 
L 230.273883 236.798052 
L 230.274868 238.3504 
L 230.276751 239.902158 
L 230.279278 241.453432 
L 230.282234 243.004326 
L 230.285434 244.554944 
L 230.288723 246.105384 
L 230.291971 247.655738 
" clip-path="url(#p75f9e7baf5)" style="fill: none; stroke: #ff0000; stroke-opacity: 0.8; stroke-width: 0.25; stroke-linecap: square"/>
   </g>
   <g id="line2d_90">
    <path d="M 231.514302 200.838501 
L 231.358511 202.403565 
L 231.247175 203.973021 
L 231.136979 205.542795 
L 231.030379 207.112733 
L 230.929264 208.682673 
L 230.835003 210.25244 
L 230.7485 211.821853 
L 230.670265 213.390732 
L 230.600481 214.958907 
L 230.539071 216.526226 
L 230.485753 218.092555 
L 230.440098 219.657789 
L 230.401567 221.221849 
L 230.369557 222.784683 
L 230.343428 224.346264 
L 230.32253 225.90659 
L 230.306223 227.465682 
L 230.293891 229.023579 
L 230.284953 230.580338 
L 230.278872 232.136028 
L 230.275159 233.690732 
L 230.273374 235.244541 
L 230.273126 236.797552 
L 230.274074 238.349867 
L 230.275921 239.901592 
L 230.278414 241.452833 
L 230.281334 243.003695 
L 230.2845 244.554279 
L 230.287756 246.104685 
L 230.29097 247.655006 
" clip-path="url(#p75f9e7baf5)" style="fill: none; stroke: #ff0000; stroke-width: 0.25; stroke-linecap: square"/>
   </g>
   <g id="patch_15">
    <path d="M 103.104 307.584 
L 103.104 41.472 
" style="fill: none; stroke: #000000; stroke-width: 0.8; stroke-linejoin: miter; stroke-linecap: square"/>
   </g>
   <g id="patch_16">
    <path d="M 369.216 307.584 
L 369.216 41.472 
" style="fill: none; stroke: #000000; stroke-width: 0.8; stroke-linejoin: miter; stroke-linecap: square"/>
   </g>
   <g id="patch_17">
    <path d="M 103.104 307.584 
L 369.216 307.584 
" style="fill: none; stroke: #000000; stroke-width: 0.8; stroke-linejoin: miter; stroke-linecap: square"/>
   </g>
   <g id="patch_18">
    <path d="M 103.104 41.472 
L 369.216 41.472 
" style="fill: none; stroke: #000000; stroke-width: 0.8; stroke-linejoin: miter; stroke-linecap: square"/>
   </g>
   <g id="text_19">
    <!-- Time:  94 ms -->
    <g transform="translate(264.253887 54.7776) scale(0.1 -0.1)">
     <defs>
      <path id="DejaVuSans-54" d="M -19 4666 
L 3928 4666 
L 3928 4134 
L 2272 4134 
L 2272 0 
L 1638 0 
L 1638 4134 
L -19 4134 
L -19 4666 
z
" transform="scale(0.015625)"/>
      <path id="DejaVuSans-69" d="M 603 3500 
L 1178 3500 
L 1178 0 
L 603 0 
L 603 3500 
z
M 603 4863 
L 1178 4863 
L 1178 4134 
L 603 4134 
L 603 4863 
z
" transform="scale(0.015625)"/>
      <path id="DejaVuSans-6d" d="M 3328 2828 
Q 3544 3216 3844 3400 
Q 4144 3584 4550 3584 
Q 5097 3584 5394 3201 
Q 5691 2819 5691 2113 
L 5691 0 
L 5113 0 
L 5113 2094 
Q 5113 2597 4934 2840 
Q 4756 3084 4391 3084 
Q 3944 3084 3684 2787 
Q 3425 2491 3425 1978 
L 3425 0 
L 2847 0 
L 2847 2094 
Q 2847 2600 2669 2842 
Q 2491 3084 2119 3084 
Q 1678 3084 1418 2786 
Q 1159 2488 1159 1978 
L 1159 0 
L 581 0 
L 581 3500 
L 1159 3500 
L 1159 2956 
Q 1356 3278 1631 3431 
Q 1906 3584 2284 3584 
Q 2666 3584 2933 3390 
Q 3200 3197 3328 2828 
z
" transform="scale(0.015625)"/>
      <path id="DejaVuSans-65" d="M 3597 1894 
L 3597 1613 
L 953 1613 
Q 991 1019 1311 708 
Q 1631 397 2203 397 
Q 2534 397 2845 478 
Q 3156 559 3463 722 
L 3463 178 
Q 3153 47 2828 -22 
Q 2503 -91 2169 -91 
Q 1331 -91 842 396 
Q 353 884 353 1716 
Q 353 2575 817 3079 
Q 1281 3584 2069 3584 
Q 2775 3584 3186 3129 
Q 3597 2675 3597 1894 
z
M 3022 2063 
Q 3016 2534 2758 2815 
Q 2500 3097 2075 3097 
Q 1594 3097 1305 2825 
Q 1016 2553 972 2059 
L 3022 2063 
z
" transform="scale(0.015625)"/>
      <path id="DejaVuSans-3a" d="M 750 794 
L 1409 794 
L 1409 0 
L 750 0 
L 750 794 
z
M 750 3309 
L 1409 3309 
L 1409 2516 
L 750 2516 
L 750 3309 
z
" transform="scale(0.015625)"/>
      <path id="DejaVuSans-20" transform="scale(0.015625)"/>
      <path id="DejaVuSans-39" d="M 703 97 
L 703 672 
Q 941 559 1184 500 
Q 1428 441 1663 441 
Q 2288 441 2617 861 
Q 2947 1281 2994 2138 
Q 2813 1869 2534 1725 
Q 2256 1581 1919 1581 
Q 1219 1581 811 2004 
Q 403 2428 403 3163 
Q 403 3881 828 4315 
Q 1253 4750 1959 4750 
Q 2769 4750 3195 4129 
Q 3622 3509 3622 2328 
Q 3622 1225 3098 567 
Q 2575 -91 1691 -91 
Q 1453 -91 1209 -44 
Q 966 3 703 97 
z
M 1959 2075 
Q 2384 2075 2632 2365 
Q 2881 2656 2881 3163 
Q 2881 3666 2632 3958 
Q 2384 4250 1959 4250 
Q 1534 4250 1286 3958 
Q 1038 3666 1038 3163 
Q 1038 2656 1286 2365 
Q 1534 2075 1959 2075 
z
" transform="scale(0.015625)"/>
      <path id="DejaVuSans-73" d="M 2834 3397 
L 2834 2853 
Q 2591 2978 2328 3040 
Q 2066 3103 1784 3103 
Q 1356 3103 1142 2972 
Q 928 2841 928 2578 
Q 928 2378 1081 2264 
Q 1234 2150 1697 2047 
L 1894 2003 
Q 2506 1872 2764 1633 
Q 3022 1394 3022 966 
Q 3022 478 2636 193 
Q 2250 -91 1575 -91 
Q 1294 -91 989 -36 
Q 684 19 347 128 
L 347 722 
Q 666 556 975 473 
Q 1284 391 1588 391 
Q 1994 391 2212 530 
Q 2431 669 2431 922 
Q 2431 1156 2273 1281 
Q 2116 1406 1581 1522 
L 1381 1569 
Q 847 1681 609 1914 
Q 372 2147 372 2553 
Q 372 3047 722 3315 
Q 1072 3584 1716 3584 
Q 2034 3584 2315 3537 
Q 2597 3491 2834 3397 
z
" transform="scale(0.015625)"/>
     </defs>
     <use xlink:href="#DejaVuSans-54"/>
     <use xlink:href="#DejaVuSans-69" x="57.958984"/>
     <use xlink:href="#DejaVuSans-6d" x="85.742188"/>
     <use xlink:href="#DejaVuSans-65" x="183.154297"/>
     <use xlink:href="#DejaVuSans-3a" x="244.677734"/>
     <use xlink:href="#DejaVuSans-20" x="278.369141"/>
     <use xlink:href="#DejaVuSans-20" x="310.15625"/>
     <use xlink:href="#DejaVuSans-39" x="341.943359"/>
     <use xlink:href="#DejaVuSans-34" x="405.566406"/>
     <use xlink:href="#DejaVuSans-20" x="469.189453"/>
     <use xlink:href="#DejaVuSans-6d" x="500.976562"/>
     <use xlink:href="#DejaVuSans-73" x="598.388672"/>
    </g>
   </g>
  </g>
 </g>
 <defs>
  <clipPath id="p75f9e7baf5">
   <rect x="103.104" y="41.472" width="266.112" height="266.112"/>
  </clipPath>
 </defs>
</svg>
