<?xml version="1.0" encoding="utf-8" standalone="no"?>
<!DOCTYPE svg PUBLIC "-//W3C//DTD SVG 1.1//EN"
  "http://www.w3.org/Graphics/SVG/1.1/DTD/svg11.dtd">
<svg xmlns:xlink="http://www.w3.org/1999/xlink" width="460.8pt" height="345.6pt" viewBox="0 0 460.8 345.6" xmlns="http://www.w3.org/2000/svg" version="1.1">
 <metadata>
  <rdf:RDF xmlns:dc="http://purl.org/dc/elements/1.1/" xmlns:cc="http://creativecommons.org/ns#" xmlns:rdf="http://www.w3.org/1999/02/22-rdf-syntax-ns#">
   <cc:Work>
    <dc:type rdf:resource="http://purl.org/dc/dcmitype/StillImage"/>
    <dc:date>2024-01-23T14:21:38.299201</dc:date>
    <dc:format>image/svg+xml</dc:format>
    <dc:creator>
     <cc:Agent>
      <dc:title>Matplotlib v3.8.2, https://matplotlib.org/</dc:title>
     </cc:Agent>
    </dc:creator>
   </cc:Work>
  </rdf:RDF>
 </metadata>
 <defs>
  <style type="text/css">*{stroke-linejoin: round; stroke-linecap: butt}</style>
 </defs>
 <g id="figure_1">
  <g id="patch_1">
   <path d="M 0 345.6 
L 460.8 345.6 
L 460.8 0 
L 0 0 
z
" style="fill: #ffffff"/>
  </g>
  <g id="axes_1">
   <g id="patch_2">
    <path d="M 103.104 307.584 
L 369.216 307.584 
L 369.216 41.472 
L 103.104 41.472 
z
" style="fill: #ffffff"/>
   </g>
   <g id="patch_3">
    <path d="M 128.496767 165.844739 
L 116.854367 165.844733 
L 116.854364 171.499613 
L 128.496764 171.499619 
z
" clip-path="url(#pbd6225eb1f)" style="fill: #00008b"/>
   </g>
   <g id="patch_4">
    <path d="M 244.843273 60.815085 
L 244.843243 49.172685 
L 239.188363 49.1727 
L 239.188393 60.8151 
z
" clip-path="url(#pbd6225eb1f)" style="fill: #800000"/>
   </g>
   <g id="patch_5">
    <path d="M 227.476733 284.128673 
L 227.47674 295.771073 
L 233.13162 295.77107 
L 233.131613 284.12867 
z
" clip-path="url(#pbd6225eb1f)" style="fill: #006400"/>
   </g>
   <g id="patch_6">
    <path d="M 345.761739 183.211269 
L 357.404139 183.211259 
L 357.404134 177.556379 
L 345.761734 177.556389 
z
" clip-path="url(#pbd6225eb1f)" style="fill: #4b0082"/>
   </g>
   <g id="patch_7">
    <path d="M 244.843605 104.968787 
L 244.843095 93.326387 
L 239.188215 93.326635 
L 239.188725 104.969034 
z
" clip-path="url(#pbd6225eb1f)" style="fill: #0000ff"/>
   </g>
   <g id="patch_8">
    <path d="M 166.718495 165.847631 
L 155.076095 165.846164 
L 155.075383 171.501044 
L 166.717782 171.502511 
z
" clip-path="url(#pbd6225eb1f)" style="fill: #ff0000"/>
   </g>
   <g id="patch_9">
    <path d="M 304.954758 183.209549 
L 316.597158 183.211694 
L 316.598199 177.556814 
L 304.9558 177.554669 
z
" clip-path="url(#pbd6225eb1f)" style="fill: #dbdc56"/>
   </g>
   <g id="patch_10">
    <path d="M 244.911273 133.419424 
L 244.719345 121.778606 
L 239.065233 121.871828 
L 239.257162 133.512646 
z
" clip-path="url(#pbd6225eb1f)" style="fill: #9400d3"/>
   </g>
   <g id="patch_11">
    <path d="M 270.217447 182.815723 
L 281.854188 183.178687 
L 282.030485 177.526556 
L 270.393744 177.163592 
z
" clip-path="url(#pbd6225eb1f)" style="fill: #1e90ff"/>
   </g>
   <g id="patch_12">
    <path d="M 227.481504 230.907591 
L 227.478092 242.549991 
L 233.132972 242.551648 
L 233.136383 230.909248 
z
" clip-path="url(#pbd6225eb1f)" style="fill: #ff4500"/>
   </g>
   <g id="patch_13">
    <path d="M 202.111677 166.261442 
L 190.475649 165.876325 
L 190.288592 171.528111 
L 201.924621 171.913227 
z
" clip-path="url(#pbd6225eb1f)" style="fill: #7cfc00"/>
   </g>
   <g id="patch_14">
    <path d="M 228.103657 207.42302 
L 227.499907 219.049755 
L 233.147179 219.343004 
L 233.750928 207.716269 
z
" clip-path="url(#pbd6225eb1f)" style="fill: #ff00ff"/>
   </g>
   <g id="matplotlib.axis_1">
    <g id="xtick_1">
     <g id="line2d_1">
      <defs>
       <path id="m548674b6b5" d="M 0 0 
L 0 3.5 
" style="stroke: #000000; stroke-width: 0.8"/>
      </defs>
      <g>
       <use xlink:href="#m548674b6b5" x="103.104" y="307.584" style="stroke: #000000; stroke-width: 0.8"/>
      </g>
     </g>
     <g id="text_1">
      <!-- −40 -->
      <g transform="translate(92.551656 322.182437) scale(0.1 -0.1)">
       <defs>
        <path id="DejaVuSans-2212" d="M 678 2272 
L 4684 2272 
L 4684 1741 
L 678 1741 
L 678 2272 
z
" transform="scale(0.015625)"/>
        <path id="DejaVuSans-34" d="M 2419 4116 
L 825 1625 
L 2419 1625 
L 2419 4116 
z
M 2253 4666 
L 3047 4666 
L 3047 1625 
L 3713 1625 
L 3713 1100 
L 3047 1100 
L 3047 0 
L 2419 0 
L 2419 1100 
L 313 1100 
L 313 1709 
L 2253 4666 
z
" transform="scale(0.015625)"/>
        <path id="DejaVuSans-30" d="M 2034 4250 
Q 1547 4250 1301 3770 
Q 1056 3291 1056 2328 
Q 1056 1369 1301 889 
Q 1547 409 2034 409 
Q 2525 409 2770 889 
Q 3016 1369 3016 2328 
Q 3016 3291 2770 3770 
Q 2525 4250 2034 4250 
z
M 2034 4750 
Q 2819 4750 3233 4129 
Q 3647 3509 3647 2328 
Q 3647 1150 3233 529 
Q 2819 -91 2034 -91 
Q 1250 -91 836 529 
Q 422 1150 422 2328 
Q 422 3509 836 4129 
Q 1250 4750 2034 4750 
z
" transform="scale(0.015625)"/>
       </defs>
       <use xlink:href="#DejaVuSans-2212"/>
       <use xlink:href="#DejaVuSans-34" x="83.789062"/>
       <use xlink:href="#DejaVuSans-30" x="147.412109"/>
      </g>
     </g>
    </g>
    <g id="xtick_2">
     <g id="line2d_2">
      <g>
       <use xlink:href="#m548674b6b5" x="136.368" y="307.584" style="stroke: #000000; stroke-width: 0.8"/>
      </g>
     </g>
     <g id="text_2">
      <!-- −30 -->
      <g transform="translate(125.815656 322.182437) scale(0.1 -0.1)">
       <defs>
        <path id="DejaVuSans-33" d="M 2597 2516 
Q 3050 2419 3304 2112 
Q 3559 1806 3559 1356 
Q 3559 666 3084 287 
Q 2609 -91 1734 -91 
Q 1441 -91 1130 -33 
Q 819 25 488 141 
L 488 750 
Q 750 597 1062 519 
Q 1375 441 1716 441 
Q 2309 441 2620 675 
Q 2931 909 2931 1356 
Q 2931 1769 2642 2001 
Q 2353 2234 1838 2234 
L 1294 2234 
L 1294 2753 
L 1863 2753 
Q 2328 2753 2575 2939 
Q 2822 3125 2822 3475 
Q 2822 3834 2567 4026 
Q 2313 4219 1838 4219 
Q 1578 4219 1281 4162 
Q 984 4106 628 3988 
L 628 4550 
Q 988 4650 1302 4700 
Q 1616 4750 1894 4750 
Q 2613 4750 3031 4423 
Q 3450 4097 3450 3541 
Q 3450 3153 3228 2886 
Q 3006 2619 2597 2516 
z
" transform="scale(0.015625)"/>
       </defs>
       <use xlink:href="#DejaVuSans-2212"/>
       <use xlink:href="#DejaVuSans-33" x="83.789062"/>
       <use xlink:href="#DejaVuSans-30" x="147.412109"/>
      </g>
     </g>
    </g>
    <g id="xtick_3">
     <g id="line2d_3">
      <g>
       <use xlink:href="#m548674b6b5" x="169.632" y="307.584" style="stroke: #000000; stroke-width: 0.8"/>
      </g>
     </g>
     <g id="text_3">
      <!-- −20 -->
      <g transform="translate(159.079656 322.182437) scale(0.1 -0.1)">
       <defs>
        <path id="DejaVuSans-32" d="M 1228 531 
L 3431 531 
L 3431 0 
L 469 0 
L 469 531 
Q 828 903 1448 1529 
Q 2069 2156 2228 2338 
Q 2531 2678 2651 2914 
Q 2772 3150 2772 3378 
Q 2772 3750 2511 3984 
Q 2250 4219 1831 4219 
Q 1534 4219 1204 4116 
Q 875 4013 500 3803 
L 500 4441 
Q 881 4594 1212 4672 
Q 1544 4750 1819 4750 
Q 2544 4750 2975 4387 
Q 3406 4025 3406 3419 
Q 3406 3131 3298 2873 
Q 3191 2616 2906 2266 
Q 2828 2175 2409 1742 
Q 1991 1309 1228 531 
z
" transform="scale(0.015625)"/>
       </defs>
       <use xlink:href="#DejaVuSans-2212"/>
       <use xlink:href="#DejaVuSans-32" x="83.789062"/>
       <use xlink:href="#DejaVuSans-30" x="147.412109"/>
      </g>
     </g>
    </g>
    <g id="xtick_4">
     <g id="line2d_4">
      <g>
       <use xlink:href="#m548674b6b5" x="202.896" y="307.584" style="stroke: #000000; stroke-width: 0.8"/>
      </g>
     </g>
     <g id="text_4">
      <!-- −10 -->
      <g transform="translate(192.343656 322.182437) scale(0.1 -0.1)">
       <defs>
        <path id="DejaVuSans-31" d="M 794 531 
L 1825 531 
L 1825 4091 
L 703 3866 
L 703 4441 
L 1819 4666 
L 2450 4666 
L 2450 531 
L 3481 531 
L 3481 0 
L 794 0 
L 794 531 
z
" transform="scale(0.015625)"/>
       </defs>
       <use xlink:href="#DejaVuSans-2212"/>
       <use xlink:href="#DejaVuSans-31" x="83.789062"/>
       <use xlink:href="#DejaVuSans-30" x="147.412109"/>
      </g>
     </g>
    </g>
    <g id="xtick_5">
     <g id="line2d_5">
      <g>
       <use xlink:href="#m548674b6b5" x="236.16" y="307.584" style="stroke: #000000; stroke-width: 0.8"/>
      </g>
     </g>
     <g id="text_5">
      <!-- 0 -->
      <g transform="translate(232.97875 322.182437) scale(0.1 -0.1)">
       <use xlink:href="#DejaVuSans-30"/>
      </g>
     </g>
    </g>
    <g id="xtick_6">
     <g id="line2d_6">
      <g>
       <use xlink:href="#m548674b6b5" x="269.424" y="307.584" style="stroke: #000000; stroke-width: 0.8"/>
      </g>
     </g>
     <g id="text_6">
      <!-- 10 -->
      <g transform="translate(263.0615 322.182437) scale(0.1 -0.1)">
       <use xlink:href="#DejaVuSans-31"/>
       <use xlink:href="#DejaVuSans-30" x="63.623047"/>
      </g>
     </g>
    </g>
    <g id="xtick_7">
     <g id="line2d_7">
      <g>
       <use xlink:href="#m548674b6b5" x="302.688" y="307.584" style="stroke: #000000; stroke-width: 0.8"/>
      </g>
     </g>
     <g id="text_7">
      <!-- 20 -->
      <g transform="translate(296.3255 322.182437) scale(0.1 -0.1)">
       <use xlink:href="#DejaVuSans-32"/>
       <use xlink:href="#DejaVuSans-30" x="63.623047"/>
      </g>
     </g>
    </g>
    <g id="xtick_8">
     <g id="line2d_8">
      <g>
       <use xlink:href="#m548674b6b5" x="335.952" y="307.584" style="stroke: #000000; stroke-width: 0.8"/>
      </g>
     </g>
     <g id="text_8">
      <!-- 30 -->
      <g transform="translate(329.5895 322.182437) scale(0.1 -0.1)">
       <use xlink:href="#DejaVuSans-33"/>
       <use xlink:href="#DejaVuSans-30" x="63.623047"/>
      </g>
     </g>
    </g>
    <g id="xtick_9">
     <g id="line2d_9">
      <g>
       <use xlink:href="#m548674b6b5" x="369.216" y="307.584" style="stroke: #000000; stroke-width: 0.8"/>
      </g>
     </g>
     <g id="text_9">
      <!-- 40 -->
      <g transform="translate(362.8535 322.182437) scale(0.1 -0.1)">
       <use xlink:href="#DejaVuSans-34"/>
       <use xlink:href="#DejaVuSans-30" x="63.623047"/>
      </g>
     </g>
    </g>
   </g>
   <g id="matplotlib.axis_2">
    <g id="ytick_1">
     <g id="line2d_10">
      <defs>
       <path id="m33aa113d0c" d="M 0 0 
L -3.5 0 
" style="stroke: #000000; stroke-width: 0.8"/>
      </defs>
      <g>
       <use xlink:href="#m33aa113d0c" x="103.104" y="307.584" style="stroke: #000000; stroke-width: 0.8"/>
      </g>
     </g>
     <g id="text_10">
      <!-- −40 -->
      <g transform="translate(74.999313 311.383219) scale(0.1 -0.1)">
       <use xlink:href="#DejaVuSans-2212"/>
       <use xlink:href="#DejaVuSans-34" x="83.789062"/>
       <use xlink:href="#DejaVuSans-30" x="147.412109"/>
      </g>
     </g>
    </g>
    <g id="ytick_2">
     <g id="line2d_11">
      <g>
       <use xlink:href="#m33aa113d0c" x="103.104" y="274.32" style="stroke: #000000; stroke-width: 0.8"/>
      </g>
     </g>
     <g id="text_11">
      <!-- −30 -->
      <g transform="translate(74.999313 278.119219) scale(0.1 -0.1)">
       <use xlink:href="#DejaVuSans-2212"/>
       <use xlink:href="#DejaVuSans-33" x="83.789062"/>
       <use xlink:href="#DejaVuSans-30" x="147.412109"/>
      </g>
     </g>
    </g>
    <g id="ytick_3">
     <g id="line2d_12">
      <g>
       <use xlink:href="#m33aa113d0c" x="103.104" y="241.056" style="stroke: #000000; stroke-width: 0.8"/>
      </g>
     </g>
     <g id="text_12">
      <!-- −20 -->
      <g transform="translate(74.999313 244.855219) scale(0.1 -0.1)">
       <use xlink:href="#DejaVuSans-2212"/>
       <use xlink:href="#DejaVuSans-32" x="83.789062"/>
       <use xlink:href="#DejaVuSans-30" x="147.412109"/>
      </g>
     </g>
    </g>
    <g id="ytick_4">
     <g id="line2d_13">
      <g>
       <use xlink:href="#m33aa113d0c" x="103.104" y="207.792" style="stroke: #000000; stroke-width: 0.8"/>
      </g>
     </g>
     <g id="text_13">
      <!-- −10 -->
      <g transform="translate(74.999313 211.591219) scale(0.1 -0.1)">
       <use xlink:href="#DejaVuSans-2212"/>
       <use xlink:href="#DejaVuSans-31" x="83.789062"/>
       <use xlink:href="#DejaVuSans-30" x="147.412109"/>
      </g>
     </g>
    </g>
    <g id="ytick_5">
     <g id="line2d_14">
      <g>
       <use xlink:href="#m33aa113d0c" x="103.104" y="174.528" style="stroke: #000000; stroke-width: 0.8"/>
      </g>
     </g>
     <g id="text_14">
      <!-- 0 -->
      <g transform="translate(89.7415 178.327219) scale(0.1 -0.1)">
       <use xlink:href="#DejaVuSans-30"/>
      </g>
     </g>
    </g>
    <g id="ytick_6">
     <g id="line2d_15">
      <g>
       <use xlink:href="#m33aa113d0c" x="103.104" y="141.264" style="stroke: #000000; stroke-width: 0.8"/>
      </g>
     </g>
     <g id="text_15">
      <!-- 10 -->
      <g transform="translate(83.379 145.063219) scale(0.1 -0.1)">
       <use xlink:href="#DejaVuSans-31"/>
       <use xlink:href="#DejaVuSans-30" x="63.623047"/>
      </g>
     </g>
    </g>
    <g id="ytick_7">
     <g id="line2d_16">
      <g>
       <use xlink:href="#m33aa113d0c" x="103.104" y="108" style="stroke: #000000; stroke-width: 0.8"/>
      </g>
     </g>
     <g id="text_16">
      <!-- 20 -->
      <g transform="translate(83.379 111.799219) scale(0.1 -0.1)">
       <use xlink:href="#DejaVuSans-32"/>
       <use xlink:href="#DejaVuSans-30" x="63.623047"/>
      </g>
     </g>
    </g>
    <g id="ytick_8">
     <g id="line2d_17">
      <g>
       <use xlink:href="#m33aa113d0c" x="103.104" y="74.736" style="stroke: #000000; stroke-width: 0.8"/>
      </g>
     </g>
     <g id="text_17">
      <!-- 30 -->
      <g transform="translate(83.379 78.535219) scale(0.1 -0.1)">
       <use xlink:href="#DejaVuSans-33"/>
       <use xlink:href="#DejaVuSans-30" x="63.623047"/>
      </g>
     </g>
    </g>
    <g id="ytick_9">
     <g id="line2d_18">
      <g>
       <use xlink:href="#m33aa113d0c" x="103.104" y="41.472" style="stroke: #000000; stroke-width: 0.8"/>
      </g>
     </g>
     <g id="text_18">
      <!-- 40 -->
      <g transform="translate(83.379 45.271219) scale(0.1 -0.1)">
       <use xlink:href="#DejaVuSans-34"/>
       <use xlink:href="#DejaVuSans-30" x="63.623047"/>
      </g>
     </g>
    </g>
   </g>
   <g id="line2d_19">
    <path d="M 250.2972 288.4572 
L 250.2972 188.6652 
" clip-path="url(#pbd6225eb1f)" style="fill: none; stroke: #000000; stroke-width: 0.25; stroke-linecap: square"/>
   </g>
   <g id="line2d_20">
    <path d="M 250.2972 188.6652 
L 350.0892 188.6652 
" clip-path="url(#pbd6225eb1f)" style="fill: none; stroke: #000000; stroke-width: 0.25; stroke-linecap: square"/>
   </g>
   <g id="line2d_21">
    <path d="M 350.0892 160.3908 
L 250.2972 160.3908 
" clip-path="url(#pbd6225eb1f)" style="fill: none; stroke: #000000; stroke-width: 0.25; stroke-linecap: square"/>
   </g>
   <g id="line2d_22">
    <path d="M 250.2972 160.3908 
L 250.2972 60.5988 
" clip-path="url(#pbd6225eb1f)" style="fill: none; stroke: #000000; stroke-width: 0.25; stroke-linecap: square"/>
   </g>
   <g id="line2d_23">
    <path d="M 222.0228 60.5988 
L 222.0228 160.3908 
" clip-path="url(#pbd6225eb1f)" style="fill: none; stroke: #000000; stroke-width: 0.25; stroke-linecap: square"/>
   </g>
   <g id="line2d_24">
    <path d="M 222.0228 160.3908 
L 122.2308 160.3908 
" clip-path="url(#pbd6225eb1f)" style="fill: none; stroke: #000000; stroke-width: 0.25; stroke-linecap: square"/>
   </g>
   <g id="line2d_25">
    <path d="M 122.2308 188.6652 
L 222.0228 188.6652 
" clip-path="url(#pbd6225eb1f)" style="fill: none; stroke: #000000; stroke-width: 0.25; stroke-linecap: square"/>
   </g>
   <g id="line2d_26">
    <path d="M 222.0228 188.6652 
L 222.0228 288.4572 
" clip-path="url(#pbd6225eb1f)" style="fill: none; stroke: #000000; stroke-width: 0.25; stroke-linecap: square"/>
   </g>
   <g id="line2d_27">
    <path d="M 250.2972 174.528 
L 350.0892 174.528 
" clip-path="url(#pbd6225eb1f)" style="fill: none; stroke-dasharray: 0.925,0.4; stroke-dashoffset: 0; stroke: #000000; stroke-width: 0.25"/>
   </g>
   <g id="line2d_28">
    <path d="M 236.16 160.3908 
L 236.16 60.5988 
" clip-path="url(#pbd6225eb1f)" style="fill: none; stroke-dasharray: 0.925,0.4; stroke-dashoffset: 0; stroke: #000000; stroke-width: 0.25"/>
   </g>
   <g id="line2d_29">
    <path d="M 222.0228 174.528 
L 122.2308 174.528 
" clip-path="url(#pbd6225eb1f)" style="fill: none; stroke-dasharray: 0.925,0.4; stroke-dashoffset: 0; stroke: #000000; stroke-width: 0.25"/>
   </g>
   <g id="line2d_30">
    <path d="M 236.16 188.6652 
L 236.16 288.4572 
" clip-path="url(#pbd6225eb1f)" style="fill: none; stroke-dasharray: 0.925,0.4; stroke-dashoffset: 0; stroke: #000000; stroke-width: 0.25"/>
   </g>
   <g id="line2d_31">
    <path d="M 124.303091 168.672176 
L 122.675565 168.672176 
L 121.047932 168.672176 
L 119.420195 168.672176 
L 117.792361 168.672177 
L 116.164435 168.672177 
L 114.536423 168.672177 
L 112.90833 168.672178 
L 111.280161 168.672178 
L 109.651922 168.672178 
L 108.023618 168.672178 
L 106.395254 168.672179 
L 104.766834 168.672179 
L 103.138363 168.672179 
L 101.509845 168.672179 
L 99.881285 168.67218 
L 98.252686 168.67218 
L 96.624052 168.67218 
L 94.995387 168.67218 
L 93.366695 168.67218 
L 91.737978 168.67218 
L 90.10924 168.67218 
L 88.480483 168.67218 
L 86.85171 168.67218 
L 85.222924 168.67218 
L 83.594126 168.67218 
L 81.96532 168.67218 
L 80.336507 168.67218 
L 78.707688 168.67218 
L 77.078866 168.67218 
L 75.450042 168.67218 
" clip-path="url(#pbd6225eb1f)" style="fill: none; stroke: #ff0000; stroke-opacity: 0.2; stroke-width: 0.25; stroke-linecap: square"/>
   </g>
   <g id="line2d_32">
    <path d="M 124.303091 168.672176 
L 122.675565 168.672176 
L 121.047932 168.672176 
L 119.420195 168.672176 
L 117.792362 168.672177 
L 116.164437 168.672177 
L 114.536427 168.672177 
L 112.908336 168.672178 
L 111.280169 168.672178 
L 109.651933 168.672178 
L 108.023632 168.672178 
L 106.395272 168.672179 
L 104.766856 168.672179 
L 103.13839 168.672179 
L 101.509877 168.672179 
L 99.881323 168.67218 
L 98.252731 168.67218 
L 96.624104 168.67218 
L 94.995448 168.67218 
L 93.366764 168.67218 
L 91.738057 168.67218 
L 90.109329 168.67218 
L 88.480584 168.67218 
L 86.851823 168.67218 
L 85.22305 168.67218 
L 83.594267 168.67218 
L 81.965475 168.67218 
L 80.336677 168.67218 
L 78.707876 168.67218 
L 77.079071 168.67218 
L 75.450265 168.67218 
" clip-path="url(#pbd6225eb1f)" style="fill: none; stroke: #ff0000; stroke-opacity: 0.4; stroke-width: 0.25; stroke-linecap: square"/>
   </g>
   <g id="line2d_33">
    <path d="M 124.303091 168.672176 
L 122.675565 168.672176 
L 121.047932 168.672176 
L 119.420195 168.672176 
L 117.792361 168.672177 
L 116.164435 168.672177 
L 114.536424 168.672177 
L 112.908331 168.672178 
L 111.280164 168.672178 
L 109.651926 168.672178 
L 108.023623 168.672179 
L 106.39526 168.672179 
L 104.766841 168.672179 
L 103.138372 168.672179 
L 101.509856 168.672179 
L 99.881298 168.67218 
L 98.252702 168.67218 
L 96.624072 168.67218 
L 94.99541 168.67218 
L 93.366722 168.67218 
L 91.738009 168.67218 
L 90.109276 168.67218 
L 88.480524 168.67218 
L 86.851756 168.67218 
L 85.222976 168.67218 
L 83.594185 168.67218 
L 81.965386 168.67218 
L 80.33658 168.67218 
L 78.707769 168.67218 
L 77.078956 168.67218 
L 75.450141 168.67218 
" clip-path="url(#pbd6225eb1f)" style="fill: none; stroke: #ff0000; stroke-opacity: 0.6; stroke-width: 0.25; stroke-linecap: square"/>
   </g>
   <g id="line2d_34">
    <path d="M 124.303091 168.672176 
L 122.675565 168.672176 
L 121.047932 168.672176 
L 119.420195 168.672176 
L 117.792362 168.672177 
L 116.164437 168.672177 
L 114.536426 168.672177 
L 112.908334 168.672178 
L 111.280167 168.672178 
L 109.651931 168.672178 
L 108.023629 168.672179 
L 106.395267 168.672179 
L 104.766851 168.672179 
L 103.138383 168.672179 
L 101.509869 168.672179 
L 99.881313 168.67218 
L 98.25272 168.67218 
L 96.624092 168.67218 
L 94.995433 168.67218 
L 93.366747 168.67218 
L 91.738038 168.67218 
L 90.109307 168.67218 
L 88.480559 168.67218 
L 86.851795 168.67218 
L 85.223019 168.67218 
L 83.594232 168.67218 
L 81.965437 168.67218 
L 80.336636 168.67218 
L 78.70783 168.67218 
L 77.079021 168.67218 
L 75.450211 168.67218 
" clip-path="url(#pbd6225eb1f)" style="fill: none; stroke: #ff0000; stroke-opacity: 0.8; stroke-width: 0.25; stroke-linecap: square"/>
   </g>
   <g id="line2d_35">
    <path d="M 124.303091 168.672176 
L 122.675565 168.672176 
L 121.047932 168.672176 
L 119.420195 168.672176 
L 117.792361 168.672177 
L 116.164436 168.672177 
L 114.536424 168.672177 
L 112.908332 168.672178 
L 111.280165 168.672178 
L 109.651928 168.672178 
L 108.023625 168.672179 
L 106.395263 168.672179 
L 104.766845 168.672179 
L 103.138376 168.672179 
L 101.509861 168.672179 
L 99.881304 168.67218 
L 98.252709 168.67218 
L 96.62408 168.67218 
L 94.99542 168.67218 
L 93.366732 168.67218 
L 91.738021 168.67218 
L 90.109289 168.67218 
L 88.480538 168.67218 
L 86.851773 168.67218 
L 85.222994 168.67218 
L 83.594205 168.67218 
L 81.965408 168.67218 
L 80.336604 168.67218 
L 78.707795 168.67218 
L 77.078984 168.67218 
L 75.450171 168.67218 
" clip-path="url(#pbd6225eb1f)" style="fill: none; stroke: #ff0000; stroke-width: 0.25; stroke-linecap: square"/>
   </g>
   <g id="line2d_36">
    <path d="M 242.015819 56.502451 
L 242.015817 54.993893 
L 242.015816 53.485476 
L 242.015815 51.977199 
L 242.015815 50.469059 
L 242.015815 48.961052 
L 242.015814 47.453175 
L 242.015815 45.945423 
L 242.015815 44.437791 
L 242.015815 42.930274 
L 242.015816 41.422867 
L 242.015816 39.915564 
L 242.015816 38.408361 
L 242.015817 36.90125 
L 242.015817 35.394225 
L 242.015818 33.887282 
L 242.015818 32.380414 
L 242.015818 30.873615 
L 242.015819 29.366879 
L 242.015819 27.8602 
L 242.015819 26.353573 
L 242.015819 24.846992 
L 242.015819 23.340452 
L 242.01582 21.833947 
L 242.01582 20.327472 
L 242.01582 18.821023 
L 242.01582 17.314594 
L 242.01582 15.808182 
L 242.01582 14.301782 
L 242.01582 12.79539 
L 242.01582 11.289003 
" clip-path="url(#pbd6225eb1f)" style="fill: none; stroke: #ff0000; stroke-opacity: 0.2; stroke-width: 0.25; stroke-linecap: square"/>
   </g>
   <g id="line2d_37">
    <path d="M 242.015819 56.502451 
L 242.015817 54.993893 
L 242.015816 53.485475 
L 242.015815 51.977195 
L 242.015815 50.46905 
L 242.015815 48.961037 
L 242.015815 47.453152 
L 242.015815 45.945389 
L 242.015815 44.437746 
L 242.015815 42.930215 
L 242.015816 41.422793 
L 242.015816 39.915473 
L 242.015816 38.408249 
L 242.015817 36.901116 
L 242.015817 35.394068 
L 242.015818 33.887098 
L 242.015818 32.380201 
L 242.015818 30.87337 
L 242.015819 29.3666 
L 242.015819 27.859886 
L 242.015819 26.35322 
L 242.015819 24.846598 
L 242.015819 23.340014 
L 242.01582 21.833462 
L 242.01582 20.326939 
L 242.01582 18.820438 
L 242.01582 17.313956 
L 242.01582 15.807488 
L 242.01582 14.30103 
L 242.01582 12.794578 
L 242.01582 11.288128 
" clip-path="url(#pbd6225eb1f)" style="fill: none; stroke: #ff0000; stroke-opacity: 0.4; stroke-width: 0.25; stroke-linecap: square"/>
   </g>
   <g id="line2d_38">
    <path d="M 242.015819 56.502451 
L 242.015818 54.993893 
L 242.015816 53.485476 
L 242.015816 51.977198 
L 242.015815 50.469056 
L 242.015815 48.961047 
L 242.015815 47.453167 
L 242.015815 45.945411 
L 242.015815 44.437774 
L 242.015815 42.930252 
L 242.015816 41.422839 
L 242.015816 39.91553 
L 242.015816 38.408318 
L 242.015817 36.901198 
L 242.015817 35.394164 
L 242.015818 33.88721 
L 242.015818 32.380329 
L 242.015818 30.873517 
L 242.015819 29.366766 
L 242.015819 27.860072 
L 242.015819 26.353428 
L 242.015819 24.846829 
L 242.015819 23.340269 
L 242.01582 21.833743 
L 242.01582 20.327247 
L 242.01582 18.820774 
L 242.01582 17.314321 
L 242.01582 15.807883 
L 242.01582 14.301456 
L 242.01582 12.795036 
L 242.01582 11.288619 
" clip-path="url(#pbd6225eb1f)" style="fill: none; stroke: #ff0000; stroke-opacity: 0.6; stroke-width: 0.25; stroke-linecap: square"/>
   </g>
   <g id="line2d_39">
    <path d="M 242.015819 56.502451 
L 242.015818 54.993893 
L 242.015816 53.485475 
L 242.015816 51.977196 
L 242.015815 50.469052 
L 242.015815 48.961041 
L 242.015815 47.453157 
L 242.015815 45.945398 
L 242.015815 44.437757 
L 242.015815 42.93023 
L 242.015816 41.422811 
L 242.015816 39.915495 
L 242.015816 38.408276 
L 242.015817 36.901149 
L 242.015817 35.394106 
L 242.015818 33.887143 
L 242.015818 32.380253 
L 242.015818 30.87343 
L 242.015819 29.366669 
L 242.015819 27.859963 
L 242.015819 26.353307 
L 242.015819 24.846695 
L 242.015819 23.340121 
L 242.01582 21.833581 
L 242.01582 20.32707 
L 242.01582 18.820582 
L 242.01582 17.314113 
L 242.01582 15.807659 
L 242.01582 14.301215 
L 242.01582 12.794777 
L 242.01582 11.288343 
" clip-path="url(#pbd6225eb1f)" style="fill: none; stroke: #ff0000; stroke-opacity: 0.8; stroke-width: 0.25; stroke-linecap: square"/>
   </g>
   <g id="line2d_40">
    <path d="M 242.015819 56.502451 
L 242.015818 54.993893 
L 242.015816 53.485475 
L 242.015816 51.977197 
L 242.015815 50.469054 
L 242.015815 48.961044 
L 242.015815 47.453163 
L 242.015815 45.945405 
L 242.015815 44.437767 
L 242.015815 42.930243 
L 242.015816 41.422828 
L 242.015816 39.915516 
L 242.015816 38.408301 
L 242.015817 36.901178 
L 242.015817 35.39414 
L 242.015818 33.887182 
L 242.015818 32.380298 
L 242.015818 30.873481 
L 242.015819 29.366726 
L 242.015819 27.860026 
L 242.015819 26.353377 
L 242.015819 24.846772 
L 242.015819 23.340206 
L 242.01582 21.833674 
L 242.01582 20.327171 
L 242.01582 18.820692 
L 242.01582 17.314231 
L 242.01582 15.807786 
L 242.01582 14.301351 
L 242.01582 12.794923 
L 242.01582 11.288499 
" clip-path="url(#pbd6225eb1f)" style="fill: none; stroke: #ff0000; stroke-width: 0.25; stroke-linecap: square"/>
   </g>
   <g id="line2d_41">
    <path d="M 230.304175 288.34183 
L 230.304176 289.949872 
L 230.304177 291.557907 
L 230.304178 293.165936 
L 230.304178 294.773958 
L 230.304179 296.381972 
L 230.304179 297.989979 
L 230.304179 299.597977 
L 230.30418 301.205967 
L 230.30418 302.813949 
L 230.30418 304.421922 
L 230.30418 306.029888 
L 230.30418 307.637845 
L 230.30418 309.245794 
L 230.30418 310.853736 
L 230.30418 312.46167 
L 230.30418 314.069597 
L 230.30418 315.677518 
L 230.30418 317.285433 
L 230.30418 318.893343 
L 230.30418 320.501247 
L 230.30418 322.109146 
L 230.30418 323.717041 
L 230.30418 325.324933 
L 230.30418 326.932821 
L 230.30418 328.540706 
L 230.30418 330.14859 
L 230.30418 331.756471 
L 230.30418 333.364351 
L 230.30418 334.97223 
L 230.30418 336.580109 
" clip-path="url(#pbd6225eb1f)" style="fill: none; stroke: #ff0000; stroke-opacity: 0.2; stroke-width: 0.25; stroke-linecap: square"/>
   </g>
   <g id="line2d_42">
    <path d="M 230.304175 288.34183 
L 230.304176 289.949872 
L 230.304177 291.557907 
L 230.304178 293.165937 
L 230.304178 294.773959 
L 230.304179 296.381975 
L 230.304179 297.989982 
L 230.304179 299.597982 
L 230.30418 301.205974 
L 230.30418 302.813958 
L 230.30418 304.421934 
L 230.30418 306.029902 
L 230.30418 307.637862 
L 230.30418 309.245815 
L 230.30418 310.85376 
L 230.30418 312.461699 
L 230.30418 314.06963 
L 230.30418 315.677556 
L 230.30418 317.285476 
L 230.30418 318.89339 
L 230.30418 320.5013 
L 230.30418 322.109206 
L 230.30418 323.717107 
L 230.30418 325.325005 
L 230.30418 326.9329 
L 230.30418 328.540793 
L 230.30418 330.148684 
L 230.30418 331.756573 
L 230.30418 333.364461 
L 230.30418 334.972349 
L 230.30418 336.580236 
" clip-path="url(#pbd6225eb1f)" style="fill: none; stroke: #ff0000; stroke-opacity: 0.4; stroke-width: 0.25; stroke-linecap: square"/>
   </g>
   <g id="line2d_43">
    <path d="M 230.304175 288.34183 
L 230.304176 289.949872 
L 230.304177 291.557907 
L 230.304178 293.165936 
L 230.304178 294.773958 
L 230.304179 296.381973 
L 230.304179 297.98998 
L 230.304179 299.597979 
L 230.30418 301.20597 
L 230.30418 302.813953 
L 230.30418 304.421927 
L 230.30418 306.029893 
L 230.30418 307.637852 
L 230.30418 309.245802 
L 230.30418 310.853745 
L 230.30418 312.461682 
L 230.30418 314.069611 
L 230.30418 315.677534 
L 230.30418 317.285451 
L 230.30418 318.893362 
L 230.30418 320.501269 
L 230.30418 322.109171 
L 230.30418 323.717069 
L 230.30418 325.324963 
L 230.30418 326.932855 
L 230.30418 328.540743 
L 230.30418 330.14863 
L 230.30418 331.756515 
L 230.30418 333.364399 
L 230.30418 334.972282 
L 230.30418 336.580165 
" clip-path="url(#pbd6225eb1f)" style="fill: none; stroke: #ff0000; stroke-opacity: 0.6; stroke-width: 0.25; stroke-linecap: square"/>
   </g>
   <g id="line2d_44">
    <path d="M 230.304175 288.34183 
L 230.304176 289.949872 
L 230.304177 291.557907 
L 230.304178 293.165936 
L 230.304178 294.773959 
L 230.304179 296.381974 
L 230.304179 297.989982 
L 230.304179 299.597981 
L 230.30418 301.205973 
L 230.30418 302.813956 
L 230.30418 304.421931 
L 230.30418 306.029898 
L 230.30418 307.637858 
L 230.30418 309.24581 
L 230.30418 310.853754 
L 230.30418 312.461692 
L 230.30418 314.069622 
L 230.30418 315.677547 
L 230.30418 317.285465 
L 230.30418 318.893379 
L 230.30418 320.501287 
L 230.30418 322.109191 
L 230.30418 323.717091 
L 230.30418 325.324987 
L 230.30418 326.932881 
L 230.30418 328.540772 
L 230.30418 330.148661 
L 230.30418 331.756548 
L 230.30418 333.364434 
L 230.30418 334.97232 
L 230.30418 336.580205 
" clip-path="url(#pbd6225eb1f)" style="fill: none; stroke: #ff0000; stroke-opacity: 0.8; stroke-width: 0.25; stroke-linecap: square"/>
   </g>
   <g id="line2d_45">
    <path d="M 230.304175 288.34183 
L 230.304176 289.949872 
L 230.304177 291.557907 
L 230.304178 293.165936 
L 230.304178 294.773959 
L 230.304179 296.381974 
L 230.304179 297.989981 
L 230.304179 299.59798 
L 230.30418 301.205971 
L 230.30418 302.813954 
L 230.30418 304.421929 
L 230.30418 306.029895 
L 230.30418 307.637854 
L 230.30418 309.245805 
L 230.30418 310.853749 
L 230.30418 312.461686 
L 230.30418 314.069616 
L 230.30418 315.677539 
L 230.30418 317.285457 
L 230.30418 318.893369 
L 230.30418 320.501277 
L 230.30418 322.109179 
L 230.30418 323.717078 
L 230.30418 325.324974 
L 230.30418 326.932866 
L 230.30418 328.540756 
L 230.30418 330.148643 
L 230.30418 331.756529 
L 230.30418 333.364414 
L 230.30418 334.972298 
L 230.30418 336.580182 
" clip-path="url(#pbd6225eb1f)" style="fill: none; stroke: #ff0000; stroke-width: 0.25; stroke-linecap: square"/>
   </g>
   <g id="line2d_46">
    <path d="M 349.975279 180.383825 
L 351.582936 180.383824 
L 353.190621 180.383823 
L 354.798332 180.383822 
L 356.406065 180.383822 
L 358.01382 180.383821 
L 359.621594 180.383821 
L 361.229386 180.38382 
L 362.837193 180.38382 
L 364.445015 180.38382 
L 366.052849 180.38382 
L 367.660694 180.383819 
L 369.26855 180.383819 
L 370.876414 180.383819 
L 372.484287 180.383819 
L 374.092166 180.383819 
L 375.700051 180.383819 
L 377.307941 180.383819 
L 378.915835 180.38382 
L 380.523733 180.38382 
L 382.131635 180.38382 
L 383.739538 180.38382 
L 385.347444 180.38382 
L 386.955352 180.38382 
L 388.563261 180.38382 
L 390.171171 180.38382 
L 391.779083 180.38382 
L 393.386994 180.38382 
L 394.994906 180.38382 
L 396.602819 180.38382 
L 398.210731 180.38382 
" clip-path="url(#pbd6225eb1f)" style="fill: none; stroke: #ff0000; stroke-opacity: 0.2; stroke-width: 0.25; stroke-linecap: square"/>
   </g>
   <g id="line2d_47">
    <path d="M 349.975279 180.383825 
L 351.582936 180.383824 
L 353.190621 180.383823 
L 354.798332 180.383822 
L 356.406066 180.383822 
L 358.013821 180.383821 
L 359.621596 180.383821 
L 361.229388 180.38382 
L 362.837196 180.38382 
L 364.445019 180.38382 
L 366.052854 180.38382 
L 367.660701 180.383819 
L 369.268558 180.383819 
L 370.876423 180.383819 
L 372.484297 180.383819 
L 374.092177 180.383819 
L 375.700064 180.383819 
L 377.307955 180.383819 
L 378.915851 180.383819 
L 380.523751 180.38382 
L 382.131654 180.38382 
L 383.73956 180.38382 
L 385.347467 180.38382 
L 386.955377 180.38382 
L 388.563287 180.38382 
L 390.171199 180.38382 
L 391.779112 180.38382 
L 393.387025 180.38382 
L 394.994939 180.38382 
L 396.602853 180.38382 
L 398.210767 180.38382 
" clip-path="url(#pbd6225eb1f)" style="fill: none; stroke: #ff0000; stroke-opacity: 0.4; stroke-width: 0.25; stroke-linecap: square"/>
   </g>
   <g id="line2d_48">
    <path d="M 349.975279 180.383825 
L 351.582936 180.383824 
L 353.190621 180.383823 
L 354.798332 180.383822 
L 356.406065 180.383822 
L 358.013821 180.383821 
L 359.621595 180.383821 
L 361.229387 180.38382 
L 362.837194 180.38382 
L 364.445016 180.38382 
L 366.052851 180.38382 
L 367.660697 180.383819 
L 369.268553 180.383819 
L 370.876418 180.383819 
L 372.484291 180.383819 
L 374.092171 180.383819 
L 375.700057 180.383819 
L 377.307947 180.383819 
L 378.915842 180.383819 
L 380.523741 180.38382 
L 382.131643 180.38382 
L 383.739548 180.38382 
L 385.347454 180.38382 
L 386.955363 180.38382 
L 388.563273 180.38382 
L 390.171184 180.38382 
L 391.779095 180.38382 
L 393.387008 180.38382 
L 394.994921 180.38382 
L 396.602834 180.38382 
L 398.210747 180.38382 
" clip-path="url(#pbd6225eb1f)" style="fill: none; stroke: #ff0000; stroke-opacity: 0.6; stroke-width: 0.25; stroke-linecap: square"/>
   </g>
   <g id="line2d_49">
    <path d="M 349.975279 180.383825 
L 351.582936 180.383824 
L 353.190621 180.383823 
L 354.798332 180.383822 
L 356.406066 180.383822 
L 358.013821 180.383821 
L 359.621595 180.383821 
L 361.229388 180.38382 
L 362.837196 180.38382 
L 364.445018 180.38382 
L 366.052853 180.38382 
L 367.660699 180.383819 
L 369.268556 180.383819 
L 370.876421 180.383819 
L 372.484294 180.383819 
L 374.092175 180.383819 
L 375.700061 180.383819 
L 377.307952 180.383819 
L 378.915847 180.383819 
L 380.523747 180.38382 
L 382.131649 180.38382 
L 383.739554 180.38382 
L 385.347462 180.38382 
L 386.955371 180.38382 
L 388.563281 180.38382 
L 390.171192 180.38382 
L 391.779105 180.38382 
L 393.387018 180.38382 
L 394.994931 180.38382 
L 396.602845 180.38382 
L 398.210758 180.38382 
" clip-path="url(#pbd6225eb1f)" style="fill: none; stroke: #ff0000; stroke-opacity: 0.8; stroke-width: 0.25; stroke-linecap: square"/>
   </g>
   <g id="line2d_50">
    <path d="M 349.975279 180.383825 
L 351.582936 180.383824 
L 353.190621 180.383823 
L 354.798332 180.383822 
L 356.406066 180.383822 
L 358.013821 180.383821 
L 359.621595 180.383821 
L 361.229387 180.38382 
L 362.837195 180.38382 
L 364.445017 180.38382 
L 366.052852 180.38382 
L 367.660698 180.383819 
L 369.268554 180.383819 
L 370.87642 180.383819 
L 372.484293 180.383819 
L 374.092173 180.383819 
L 375.700058 180.383819 
L 377.307949 180.383819 
L 378.915845 180.383819 
L 380.523744 180.38382 
L 382.131646 180.38382 
L 383.739551 180.38382 
L 385.347458 180.38382 
L 386.955366 180.38382 
L 388.563276 180.38382 
L 390.171187 180.38382 
L 391.779099 180.38382 
L 393.387012 180.38382 
L 394.994925 180.38382 
L 396.602838 180.38382 
L 398.210752 180.38382 
" clip-path="url(#pbd6225eb1f)" style="fill: none; stroke: #ff0000; stroke-width: 0.25; stroke-linecap: square"/>
   </g>
   <g id="line2d_51">
    <path d="M 242.015943 100.724394 
L 242.015904 99.147711 
L 242.015868 97.568663 
L 242.015841 95.987342 
L 242.015819 94.403842 
L 242.015803 92.81826 
L 242.015791 91.230696 
L 242.015783 89.641251 
L 242.015779 88.050026 
L 242.015776 86.457126 
L 242.015776 84.862651 
L 242.015777 83.266703 
L 242.015779 81.669382 
L 242.015781 80.070786 
L 242.015784 78.471012 
L 242.015788 76.870155 
L 242.015791 75.268305 
L 242.015795 73.665552 
L 242.015798 72.061982 
L 242.015801 70.457677 
L 242.015804 68.852717 
L 242.015807 67.247179 
L 242.015809 65.641135 
L 242.015811 64.034653 
L 242.015813 62.427801 
L 242.015815 60.820639 
L 242.015816 59.213226 
L 242.015817 57.605616 
L 242.015819 55.99786 
L 242.01582 54.390005 
L 242.015821 52.782093 
" clip-path="url(#pbd6225eb1f)" style="fill: none; stroke: #ff0000; stroke-opacity: 0.2; stroke-width: 0.25; stroke-linecap: square"/>
   </g>
   <g id="line2d_52">
    <path d="M 242.015943 100.724394 
L 242.015906 99.147711 
L 242.015871 97.568675 
L 242.015843 95.987379 
L 242.015821 94.403918 
L 242.015805 92.818389 
L 242.015793 91.230893 
L 242.015784 89.641533 
L 242.015779 88.050411 
L 242.015777 86.45763 
L 242.015776 84.863294 
L 242.015776 83.267505 
L 242.015778 81.670363 
L 242.015781 80.071968 
L 242.015784 78.472417 
L 242.015787 76.871805 
L 242.01579 75.270224 
L 242.015794 73.667765 
L 242.015797 72.064514 
L 242.0158 70.460554 
L 242.015803 68.855964 
L 242.015806 67.250823 
L 242.015809 65.645202 
L 242.015811 64.039172 
L 242.015813 62.432796 
L 242.015815 60.826139 
L 242.015816 59.219257 
L 242.015818 57.612205 
L 242.015819 56.005032 
L 242.015821 54.397786 
L 242.015822 52.79051 
" clip-path="url(#pbd6225eb1f)" style="fill: none; stroke: #ff0000; stroke-opacity: 0.4; stroke-width: 0.25; stroke-linecap: square"/>
   </g>
   <g id="line2d_53">
    <path d="M 242.015943 100.724394 
L 242.015908 99.147711 
L 242.015873 97.568667 
L 242.015844 95.987354 
L 242.015822 94.403866 
L 242.015806 92.818302 
L 242.015794 91.230762 
L 242.015785 89.641346 
L 242.01578 88.050159 
L 242.015777 86.457303 
L 242.015776 84.862881 
L 242.015777 83.266994 
L 242.015779 81.669743 
L 242.015781 80.071228 
L 242.015784 78.471544 
L 242.015787 76.870788 
L 242.015791 75.26905 
L 242.015794 73.666421 
L 242.015798 72.062987 
L 242.015801 70.458831 
L 242.015804 68.854033 
L 242.015806 67.24867 
L 242.015809 65.642814 
L 242.015811 64.036536 
L 242.015813 62.4299 
L 242.015815 60.822969 
L 242.015816 59.215801 
L 242.015818 57.60845 
L 242.015819 56.000968 
L 242.01582 54.3934 
L 242.015822 52.78579 
" clip-path="url(#pbd6225eb1f)" style="fill: none; stroke: #ff0000; stroke-opacity: 0.6; stroke-width: 0.25; stroke-linecap: square"/>
   </g>
   <g id="line2d_54">
    <path d="M 242.015943 100.724394 
L 242.015909 99.147711 
L 242.015873 97.568672 
L 242.015845 95.98737 
L 242.015823 94.403899 
L 242.015806 92.818357 
L 242.015794 91.230845 
L 242.015785 89.641464 
L 242.01578 88.050317 
L 242.015777 86.457507 
L 242.015776 84.863137 
L 242.015777 83.267308 
L 242.015779 81.670122 
L 242.015781 80.071678 
L 242.015784 78.472072 
L 242.015787 76.8714 
L 242.015791 75.269754 
L 242.015794 73.667223 
L 242.015797 72.063893 
L 242.015801 70.459848 
L 242.015803 68.855168 
L 242.015806 67.249929 
L 242.015809 65.644204 
L 242.015811 64.038063 
L 242.015813 62.43157 
L 242.015815 60.824789 
L 242.015816 59.217776 
L 242.015818 57.610586 
L 242.015819 56.00327 
L 242.015821 54.395874 
L 242.015822 52.788441 
" clip-path="url(#pbd6225eb1f)" style="fill: none; stroke: #ff0000; stroke-opacity: 0.8; stroke-width: 0.25; stroke-linecap: square"/>
   </g>
   <g id="line2d_55">
    <path d="M 242.015943 100.724394 
L 242.01591 99.147711 
L 242.015874 97.568669 
L 242.015845 95.98736 
L 242.015823 94.403879 
L 242.015806 92.818323 
L 242.015794 91.230794 
L 242.015786 89.641392 
L 242.01578 88.050221 
L 242.015777 86.457384 
L 242.015776 84.862982 
L 242.015777 83.267119 
L 242.015779 81.669895 
L 242.015781 80.071409 
L 242.015784 78.471758 
L 242.015787 76.871037 
L 242.015791 75.269338 
L 242.015794 73.666751 
L 242.015797 72.063361 
L 242.015801 70.459253 
L 242.015804 68.854507 
L 242.015806 67.249198 
L 242.015809 65.6434 
L 242.015811 64.037183 
L 242.015813 62.430611 
L 242.015815 60.823747 
L 242.015816 59.21665 
L 242.015818 57.609373 
L 242.015819 56.001966 
L 242.01582 54.394478 
L 242.015822 52.78695 
" clip-path="url(#pbd6225eb1f)" style="fill: none; stroke: #ff0000; stroke-width: 0.25; stroke-linecap: square"/>
   </g>
   <g id="line2d_56">
    <path d="M 162.494141 168.674725 
L 160.896939 168.67437 
L 159.298828 168.674053 
L 157.699849 168.673759 
L 156.100044 168.67349 
L 154.499455 168.673248 
L 152.898125 168.673034 
L 151.296096 168.672847 
L 149.69341 168.672686 
L 148.090108 168.67255 
L 146.486231 168.672437 
L 144.88182 168.672344 
L 143.276912 168.672268 
L 141.671547 168.672209 
L 140.06576 168.672164 
L 138.459588 168.67213 
L 136.853065 168.672107 
L 135.246224 168.672091 
L 133.639097 168.672082 
L 132.031713 168.672078 
L 130.424101 168.672079 
L 128.81629 168.672082 
L 127.208303 168.672088 
L 125.600167 168.672096 
L 123.991904 168.672105 
L 122.383535 168.672114 
L 120.775081 168.672124 
L 119.16656 168.672134 
L 117.55799 168.672144 
L 115.949385 168.672154 
L 114.340762 168.672164 
" clip-path="url(#pbd6225eb1f)" style="fill: none; stroke: #ff0000; stroke-opacity: 0.2; stroke-width: 0.25; stroke-linecap: square"/>
   </g>
   <g id="line2d_57">
    <path d="M 162.494141 168.674725 
L 160.896939 168.674355 
L 159.298831 168.674039 
L 157.699859 168.673746 
L 156.100065 168.673479 
L 154.499491 168.673239 
L 152.89818 168.673027 
L 151.296175 168.672842 
L 149.693518 168.672683 
L 148.09025 168.672549 
L 146.486413 168.672437 
L 144.882047 168.672345 
L 143.277191 168.672271 
L 141.671884 168.672213 
L 140.066163 168.672168 
L 138.460064 168.672135 
L 136.85362 168.672112 
L 135.246867 168.672096 
L 133.639834 168.672087 
L 132.032553 168.672083 
L 130.425054 168.672084 
L 128.817362 168.672087 
L 127.209504 168.672093 
L 125.601505 168.6721 
L 123.993387 168.672109 
L 122.385173 168.672118 
L 120.776882 168.672128 
L 119.168533 168.672138 
L 117.560144 168.672149 
L 115.951729 168.672159 
L 114.343303 168.672169 
" clip-path="url(#pbd6225eb1f)" style="fill: none; stroke: #ff0000; stroke-opacity: 0.4; stroke-width: 0.25; stroke-linecap: square"/>
   </g>
   <g id="line2d_58">
    <path d="M 162.494141 168.674725 
L 160.896939 168.674346 
L 159.298828 168.674031 
L 157.699852 168.673739 
L 156.10005 168.673472 
L 154.499466 168.673233 
L 152.898143 168.673022 
L 151.296122 168.672837 
L 149.693446 168.672679 
L 148.090156 168.672545 
L 146.486294 168.672434 
L 144.8819 168.672342 
L 143.277012 168.672269 
L 141.67167 168.67221 
L 140.065909 168.672166 
L 138.459767 168.672133 
L 136.853277 168.672109 
L 135.246473 168.672094 
L 133.639386 168.672085 
L 132.032046 168.672081 
L 130.424484 168.672081 
L 128.816725 168.672085 
L 127.208796 168.67209 
L 125.600722 168.672098 
L 123.992525 168.672107 
L 122.384227 168.672116 
L 120.775849 168.672126 
L 119.167408 168.672136 
L 117.558923 168.672146 
L 115.950408 168.672156 
L 114.341879 168.672166 
" clip-path="url(#pbd6225eb1f)" style="fill: none; stroke: #ff0000; stroke-opacity: 0.6; stroke-width: 0.25; stroke-linecap: square"/>
   </g>
   <g id="line2d_59">
    <path d="M 162.494141 168.674725 
L 160.896939 168.674341 
L 159.29883 168.674026 
L 157.699856 168.673735 
L 156.100059 168.673469 
L 154.499482 168.67323 
L 152.898167 168.673019 
L 151.296156 168.672836 
L 149.693491 168.672678 
L 148.090215 168.672545 
L 146.486369 168.672433 
L 144.881991 168.672342 
L 143.277123 168.672269 
L 141.671802 168.672211 
L 140.066064 168.672166 
L 138.459947 168.672133 
L 136.853484 168.67211 
L 135.246709 168.672095 
L 133.639653 168.672086 
L 132.032347 168.672082 
L 130.42482 168.672083 
L 128.817099 168.672086 
L 127.209209 168.672092 
L 125.601177 168.6721 
L 123.993023 168.672108 
L 122.384771 168.672118 
L 120.77644 168.672127 
L 119.168049 168.672138 
L 117.559614 168.672148 
L 115.951153 168.672158 
L 114.342679 168.672168 
" clip-path="url(#pbd6225eb1f)" style="fill: none; stroke: #ff0000; stroke-opacity: 0.8; stroke-width: 0.25; stroke-linecap: square"/>
   </g>
   <g id="line2d_60">
    <path d="M 162.494141 168.674725 
L 160.896939 168.674337 
L 159.298829 168.674023 
L 157.699853 168.673732 
L 156.100054 168.673467 
L 154.499472 168.673228 
L 152.898152 168.673018 
L 151.296135 168.672835 
L 149.693463 168.672677 
L 148.090179 168.672544 
L 146.486323 168.672433 
L 144.881936 168.672341 
L 143.277056 168.672268 
L 141.671722 168.67221 
L 140.065972 168.672166 
L 138.45984 168.672133 
L 136.853361 168.67211 
L 135.246569 168.672094 
L 133.639496 168.672085 
L 132.032171 168.672082 
L 130.424623 168.672082 
L 128.816881 168.672085 
L 127.20897 168.672091 
L 125.600914 168.672099 
L 123.992737 168.672107 
L 122.38446 168.672117 
L 120.776103 168.672127 
L 119.167684 168.672137 
L 117.559223 168.672147 
L 115.950733 168.672157 
L 114.342229 168.672167 
" clip-path="url(#pbd6225eb1f)" style="fill: none; stroke: #ff0000; stroke-width: 0.25; stroke-linecap: square"/>
   </g>
   <g id="line2d_61">
    <path d="M 309.177132 180.382997 
L 310.776479 180.383201 
L 312.377617 180.383382 
L 313.980505 180.383531 
L 315.585094 180.383651 
L 317.191329 180.383746 
L 318.799152 180.38382 
L 320.408501 180.383875 
L 322.019308 180.383914 
L 323.631506 180.383941 
L 325.245023 180.383957 
L 326.859787 180.383965 
L 328.475725 180.383967 
L 330.092762 180.383964 
L 331.710825 180.383958 
L 333.329839 180.383949 
L 334.949732 180.383938 
L 336.570431 180.383927 
L 338.191864 180.383915 
L 339.813963 180.383904 
L 341.436659 180.383893 
L 343.059887 180.383882 
L 344.683581 180.383872 
L 346.307682 180.383864 
L 347.93213 180.383855 
L 349.556868 180.383848 
L 351.181843 180.383841 
L 352.807005 180.383835 
L 354.432306 180.383829 
L 356.057701 180.383824 
L 357.683149 180.383818 
" clip-path="url(#pbd6225eb1f)" style="fill: none; stroke: #ff0000; stroke-opacity: 0.2; stroke-width: 0.25; stroke-linecap: square"/>
   </g>
   <g id="line2d_62">
    <path d="M 309.177132 180.382997 
L 310.776479 180.383192 
L 312.377599 180.383374 
L 313.98045 180.383523 
L 315.584983 180.383644 
L 317.191142 180.383741 
L 318.798868 180.383815 
L 320.408098 180.383871 
L 322.018764 180.383912 
L 323.630797 180.38394 
L 325.244126 180.383957 
L 326.858677 180.383966 
L 328.474377 180.383969 
L 330.09115 180.383966 
L 331.708922 180.38396 
L 333.327619 180.383951 
L 334.947166 180.383941 
L 336.567492 180.383929 
L 338.188523 180.383918 
L 339.810191 180.383906 
L 341.432428 180.383894 
L 343.055167 180.383884 
L 344.678344 180.383873 
L 346.301898 180.383864 
L 347.925771 180.383855 
L 349.549906 180.383847 
L 351.17425 180.383839 
L 352.798754 180.383832 
L 354.42337 180.383825 
L 356.048055 180.383819 
L 357.67277 180.383812 
" clip-path="url(#pbd6225eb1f)" style="fill: none; stroke: #ff0000; stroke-opacity: 0.4; stroke-width: 0.25; stroke-linecap: square"/>
   </g>
   <g id="line2d_63">
    <path d="M 309.177132 180.382997 
L 310.776479 180.383187 
L 312.377611 180.383369 
L 313.980486 180.383519 
L 315.585054 180.38364 
L 317.191262 180.383737 
L 318.799049 180.383812 
L 320.408353 180.383869 
L 322.019106 180.38391 
L 323.63124 180.383938 
L 325.244683 180.383956 
L 326.859362 180.383965 
L 328.475204 180.383967 
L 330.092134 180.383965 
L 331.710077 180.383959 
L 333.328959 180.38395 
L 334.948707 180.38394 
L 336.569247 180.383928 
L 338.190508 180.383917 
L 339.812421 180.383905 
L 341.434917 180.383894 
L 343.057929 180.383883 
L 344.681394 180.383873 
L 346.30525 180.383864 
L 347.929439 180.383855 
L 349.553903 180.383848 
L 351.17859 180.383841 
L 352.803448 180.383834 
L 354.428431 180.383828 
L 356.053495 180.383822 
L 357.678599 180.383816 
" clip-path="url(#pbd6225eb1f)" style="fill: none; stroke: #ff0000; stroke-opacity: 0.6; stroke-width: 0.25; stroke-linecap: square"/>
   </g>
   <g id="line2d_64">
    <path d="M 309.177132 180.382997 
L 310.776479 180.383184 
L 312.377604 180.383366 
L 313.980464 180.383516 
L 315.58501 180.383638 
L 317.191188 180.383735 
L 318.798938 180.383811 
L 320.408197 180.383868 
L 322.018898 180.383909 
L 323.630971 180.383937 
L 325.244346 180.383955 
L 326.85895 180.383965 
L 328.474708 180.383967 
L 330.091545 180.383965 
L 331.709389 180.383959 
L 333.328163 180.38395 
L 334.947796 180.38394 
L 336.568212 180.383929 
L 338.189343 180.383917 
L 339.811117 180.383905 
L 341.433466 180.383894 
L 343.056325 180.383883 
L 344.67963 180.383873 
L 346.303318 180.383864 
L 347.927332 180.383855 
L 349.551616 180.383847 
L 351.176115 180.38384 
L 352.800781 180.383833 
L 354.425565 180.383826 
L 356.050425 180.38382 
L 357.67532 180.383814 
" clip-path="url(#pbd6225eb1f)" style="fill: none; stroke: #ff0000; stroke-opacity: 0.8; stroke-width: 0.25; stroke-linecap: square"/>
   </g>
   <g id="line2d_65">
    <path d="M 309.177132 180.382997 
L 310.776479 180.383182 
L 312.377608 180.383364 
L 313.980477 180.383515 
L 315.585037 180.383637 
L 317.191232 180.383734 
L 318.799004 180.38381 
L 320.40829 180.383867 
L 322.019022 180.383908 
L 323.631131 180.383937 
L 325.244546 180.383955 
L 326.859194 180.383964 
L 328.475001 180.383967 
L 330.091893 180.383965 
L 331.709794 180.383959 
L 333.32863 180.38395 
L 334.948329 180.38394 
L 336.568816 180.383929 
L 338.190021 180.383917 
L 339.811874 180.383905 
L 341.434306 180.383894 
L 343.057251 180.383883 
L 344.680645 180.383873 
L 346.304427 180.383864 
L 347.928538 180.383855 
L 349.552921 180.383848 
L 351.177524 180.38384 
L 352.802295 180.383834 
L 354.427188 180.383827 
L 356.052159 180.383821 
L 357.677167 180.383815 
" clip-path="url(#pbd6225eb1f)" style="fill: none; stroke: #ff0000; stroke-width: 0.25; stroke-linecap: square"/>
   </g>
   <g id="line2d_66">
    <path d="M 241.992083 129.083758 
L 241.98513 127.645638 
L 241.978562 126.215478 
L 241.974569 124.792835 
L 241.972642 123.37728 
L 241.972339 121.968388 
L 241.973277 120.565742 
L 241.975131 119.16893 
L 241.977628 117.777554 
L 241.980544 116.391223 
L 241.983698 115.009561 
L 241.986946 113.632204 
L 241.990177 112.258804 
L 241.993306 110.889024 
L 241.996275 109.522547 
L 241.999041 108.159065 
L 242.00158 106.798291 
L 242.003881 105.439948 
L 242.005941 104.083779 
L 242.007765 102.729539 
L 242.009366 101.376997 
L 242.01076 100.02594 
L 242.011966 98.676167 
L 242.013005 97.327489 
L 242.0139 95.979735 
L 242.014674 94.632743 
L 242.015349 93.286365 
L 242.01595 91.940465 
L 242.016499 90.594918 
L 242.017016 89.24961 
L 242.017562 87.904438 
" clip-path="url(#pbd6225eb1f)" style="fill: none; stroke: #ff0000; stroke-opacity: 0.2; stroke-width: 0.25; stroke-linecap: square"/>
   </g>
   <g id="line2d_67">
    <path d="M 241.992083 129.083758 
L 241.986687 127.645631 
L 241.98004 126.215461 
L 241.975916 124.792794 
L 241.973826 123.377199 
L 241.973339 121.968251 
L 241.974083 120.565528 
L 241.975742 119.168618 
L 241.978052 117.77712 
L 241.980793 116.39064 
L 241.98379 115.008801 
L 241.986901 113.631236 
L 241.990016 112.257594 
L 241.993052 110.887538 
L 241.99595 109.520745 
L 241.998668 108.156909 
L 242.001179 106.795737 
L 242.00347 105.436953 
L 242.005538 104.080295 
L 242.007386 102.725517 
L 242.009025 101.372388 
L 242.01047 100.020691 
L 242.011738 98.670224 
L 242.012852 97.320799 
L 242.013833 95.97224 
L 242.014703 94.624385 
L 242.015488 93.277087 
L 242.016209 91.930207 
L 242.016891 90.58362 
L 242.017556 89.237212 
L 242.018209 87.890879 
" clip-path="url(#pbd6225eb1f)" style="fill: none; stroke: #ff0000; stroke-opacity: 0.4; stroke-width: 0.25; stroke-linecap: square"/>
   </g>
   <g id="line2d_68">
    <path d="M 241.992083 129.083758 
L 241.987541 127.645628 
L 241.980833 126.215468 
L 241.976634 124.792821 
L 241.974461 123.377259 
L 241.973891 121.968355 
L 241.974556 120.565689 
L 241.976144 119.16885 
L 241.978392 117.777436 
L 241.981082 116.391058 
L 241.984037 115.009336 
L 241.987115 113.631906 
L 241.990205 112.258417 
L 241.993223 110.888534 
L 241.996106 109.521934 
L 241.99881 108.158311 
L 242.00131 106.797375 
L 242.003589 105.438849 
L 242.005642 104.082473 
L 242.007474 102.728002 
L 242.009094 101.375204 
L 242.010515 100.023864 
L 242.011757 98.673779 
L 242.01284 97.324762 
L 242.013784 95.976638 
L 242.014614 94.629245 
L 242.015352 93.282436 
L 242.016022 91.936072 
L 242.016646 90.590029 
L 242.017247 89.244191 
L 242.017852 87.898457 
" clip-path="url(#pbd6225eb1f)" style="fill: none; stroke: #ff0000; stroke-opacity: 0.6; stroke-width: 0.25; stroke-linecap: square"/>
   </g>
   <g id="line2d_69">
    <path d="M 241.992083 129.083758 
L 241.988001 127.645627 
L 241.981244 126.21546 
L 241.976992 124.792799 
L 241.974764 123.377214 
L 241.974142 121.96828 
L 241.97476 120.565576 
L 241.976305 119.168691 
L 241.978517 117.777222 
L 241.981175 116.390778 
L 241.984103 115.008982 
L 241.987159 113.631469 
L 241.99023 112.257886 
L 241.993232 110.887898 
L 241.996102 109.521182 
L 241.998797 108.157433 
L 242.001289 106.796359 
L 242.003564 105.437683 
L 242.005615 104.081145 
L 242.007448 102.726499 
L 242.009072 101.373515 
L 242.0105 100.021976 
L 242.011752 98.671679 
L 242.012847 97.322438 
L 242.013808 95.974077 
L 242.014656 94.626436 
L 242.015417 93.279364 
L 242.016111 91.932726 
L 242.016763 90.586395 
L 242.017395 89.240259 
L 242.018024 87.894212 
" clip-path="url(#pbd6225eb1f)" style="fill: none; stroke: #ff0000; stroke-opacity: 0.8; stroke-width: 0.25; stroke-linecap: square"/>
   </g>
   <g id="line2d_70">
    <path d="M 241.992083 129.083758 
L 241.988253 127.645626 
L 241.981467 126.215464 
L 241.977184 124.792813 
L 241.974928 123.377243 
L 241.97428 121.968328 
L 241.974874 120.565648 
L 241.9764 119.168792 
L 241.978595 117.777357 
L 241.981239 116.390954 
L 241.984155 115.009203 
L 241.9872 113.63174 
L 241.990263 112.258214 
L 241.993257 110.888288 
L 241.996121 109.521641 
L 241.998811 108.157966 
L 242.001298 106.796972 
L 242.003568 105.438383 
L 242.005615 104.081938 
L 242.007444 102.727392 
L 242.009063 101.374513 
L 242.010486 100.023085 
L 242.011732 98.672906 
L 242.012821 97.323789 
L 242.013774 95.975558 
L 242.014614 94.628052 
L 242.015364 93.281122 
L 242.016048 91.934631 
L 242.016688 90.588454 
L 242.017306 89.242476 
L 242.017924 87.896594 
" clip-path="url(#pbd6225eb1f)" style="fill: none; stroke: #ff0000; stroke-width: 0.25; stroke-linecap: square"/>
   </g>
   <g id="line2d_71">
    <path d="M 274.657095 180.127764 
L 276.123956 180.171464 
L 277.593657 180.210687 
L 279.066098 180.245222 
L 280.541161 180.275267 
L 282.018726 180.301092 
L 283.498669 180.323013 
L 284.980868 180.341375 
L 286.465197 180.356532 
L 287.951535 180.368842 
L 289.439758 180.378652 
L 290.929748 180.386291 
L 292.421386 180.392071 
L 293.914556 180.396276 
L 295.409145 180.399166 
L 296.905043 180.400972 
L 298.402142 180.401901 
L 299.900336 180.402132 
L 301.399524 180.401819 
L 302.899608 180.401093 
L 304.400491 180.400063 
L 305.902084 180.39882 
L 307.404297 180.397434 
L 308.907048 180.395964 
L 310.410256 180.394449 
L 311.913847 180.392922 
L 313.417749 180.391402 
L 314.921895 180.389901 
L 316.426221 180.388423 
L 317.930671 180.386967 
L 319.435191 180.385565 
" clip-path="url(#pbd6225eb1f)" style="fill: none; stroke: #ff0000; stroke-opacity: 0.2; stroke-width: 0.25; stroke-linecap: square"/>
   </g>
   <g id="line2d_72">
    <path d="M 274.657095 180.127764 
L 276.123961 180.171297 
L 277.593645 180.210533 
L 279.06605 180.245086 
L 280.541058 180.275151 
L 282.018548 180.300998 
L 283.498397 180.32294 
L 284.980478 180.341322 
L 286.464666 180.356497 
L 287.950839 180.368821 
L 289.438872 180.378642 
L 290.928645 180.386288 
L 292.420039 180.392071 
L 293.912938 180.396275 
L 295.407226 180.399158 
L 296.902793 180.400954 
L 298.399529 180.401868 
L 299.897328 180.402079 
L 301.396089 180.40174 
L 302.895713 180.400983 
L 304.396102 180.399917 
L 305.897167 180.398631 
L 307.398819 180.397197 
L 308.900973 180.395671 
L 310.403551 180.394094 
L 311.906477 180.392499 
L 313.40968 180.390905 
L 314.913093 180.389325 
L 316.416655 180.387763 
L 317.920308 180.386222 
L 319.423999 180.384682 
" clip-path="url(#pbd6225eb1f)" style="fill: none; stroke: #ff0000; stroke-opacity: 0.4; stroke-width: 0.25; stroke-linecap: square"/>
   </g>
   <g id="line2d_73">
    <path d="M 274.657095 180.127764 
L 276.123964 180.171208 
L 277.593659 180.210452 
L 279.066087 180.245013 
L 280.541131 180.275088 
L 282.01867 180.300944 
L 283.498579 180.322895 
L 284.980735 180.341284 
L 286.465012 180.356467 
L 287.951287 180.368798 
L 289.439438 180.378624 
L 290.929343 180.386277 
L 292.420884 180.392066 
L 293.913945 180.396276 
L 295.408412 180.399168 
L 296.904173 180.400973 
L 298.40112 180.401898 
L 299.899148 180.402122 
L 301.398153 180.4018 
L 302.898038 180.401062 
L 304.398705 180.400017 
L 305.900065 180.398756 
L 307.402028 180.397351 
L 308.904511 180.395857 
L 310.407434 180.394317 
L 311.910721 180.392762 
L 313.414301 180.391211 
L 314.918106 180.389678 
L 316.422076 180.388166 
L 317.926151 180.386675 
L 319.430278 180.38521 
" clip-path="url(#pbd6225eb1f)" style="fill: none; stroke: #ff0000; stroke-opacity: 0.6; stroke-width: 0.25; stroke-linecap: square"/>
   </g>
   <g id="line2d_74">
    <path d="M 274.657095 180.127764 
L 276.123965 180.171164 
L 277.593653 180.210413 
L 279.066066 180.244981 
L 280.541087 180.275061 
L 282.018595 180.300922 
L 283.498467 180.322877 
L 284.980576 180.341269 
L 286.464799 180.356453 
L 287.951012 180.368785 
L 289.439092 180.378612 
L 290.928918 180.386264 
L 292.420371 180.392052 
L 293.913336 180.39626 
L 295.407698 180.399149 
L 296.903346 180.40095 
L 298.400171 180.401869 
L 299.898067 180.402086 
L 301.396933 180.401755 
L 302.896669 180.401007 
L 304.39718 180.39995 
L 305.898374 180.398675 
L 307.400164 180.397253 
L 308.902465 180.395741 
L 310.405198 180.39418 
L 311.908287 180.392601 
L 313.411662 180.391025 
L 314.915256 180.389464 
L 316.419006 180.387923 
L 317.922855 180.386402 
L 319.42675 180.384896 
" clip-path="url(#pbd6225eb1f)" style="fill: none; stroke: #ff0000; stroke-opacity: 0.8; stroke-width: 0.25; stroke-linecap: square"/>
   </g>
   <g id="line2d_75">
    <path d="M 274.657095 180.127764 
L 276.123966 180.17114 
L 277.593658 180.210393 
L 279.06608 180.244964 
L 280.541115 180.275047 
L 282.018642 180.300911 
L 283.498536 180.322868 
L 284.980673 180.341263 
L 286.464929 180.356449 
L 287.951178 180.368783 
L 289.4393 180.378612 
L 290.929173 180.386267 
L 292.420678 180.392057 
L 293.913699 180.396268 
L 295.408122 180.39916 
L 296.903835 180.400965 
L 298.400731 180.401889 
L 299.898702 180.40211 
L 301.397647 180.401785 
L 302.897468 180.401043 
L 304.398067 180.399994 
L 305.899354 180.398727 
L 307.401241 180.397315 
L 308.903643 180.395814 
L 310.406481 180.394265 
L 311.909679 180.392701 
L 313.413166 180.391139 
L 314.916875 180.389594 
L 316.420744 180.38807 
L 317.924715 180.386568 
L 319.428735 180.385084 
" clip-path="url(#pbd6225eb1f)" style="fill: none; stroke: #ff0000; stroke-width: 0.25; stroke-linecap: square"/>
   </g>
   <g id="line2d_76">
    <path d="M 230.307977 234.866802 
L 230.307264 236.729619 
L 230.306656 238.591887 
L 230.306118 240.453802 
L 230.305652 242.315541 
L 230.305256 244.177258 
L 230.304927 246.03909 
L 230.30466 247.901152 
L 230.304448 249.763541 
L 230.304284 251.626342 
L 230.304161 253.489619 
L 230.304073 255.353424 
L 230.304013 257.217796 
L 230.303976 259.082761 
L 230.303957 260.948333 
L 230.303951 262.814516 
L 230.303956 264.681306 
L 230.303967 266.548687 
L 230.303983 268.416641 
L 230.304002 270.285137 
L 230.304023 272.154143 
L 230.304043 274.023619 
L 230.304063 275.893525 
L 230.304082 277.763813 
L 230.3041 279.634437 
L 230.304117 281.505346 
L 230.304132 283.376491 
L 230.304146 285.247821 
L 230.304159 287.119289 
L 230.304172 288.990845 
L 230.304185 290.862447 
" clip-path="url(#pbd6225eb1f)" style="fill: none; stroke: #ff0000; stroke-opacity: 0.2; stroke-width: 0.25; stroke-linecap: square"/>
   </g>
   <g id="line2d_77">
    <path d="M 230.307977 234.866802 
L 230.307254 236.729619 
L 230.306647 238.591872 
L 230.30611 240.453758 
L 230.305644 242.315452 
L 230.30525 244.177111 
L 230.304922 246.038869 
L 230.304656 247.900842 
L 230.304445 249.763128 
L 230.304282 251.625811 
L 230.304159 253.488955 
L 230.304072 255.352613 
L 230.304012 257.216823 
L 230.303976 259.081612 
L 230.303957 260.946993 
L 230.303952 262.812973 
L 230.303956 264.679544 
L 230.303968 266.546695 
L 230.303984 268.414403 
L 230.304004 270.282642 
L 230.304024 272.151378 
L 230.304045 274.020574 
L 230.304065 275.890186 
L 230.304084 277.760171 
L 230.304102 279.630481 
L 230.304119 281.501067 
L 230.304134 283.371881 
L 230.304149 285.242871 
L 230.304162 287.113991 
L 230.304176 288.985195 
L 230.304188 290.856437 
" clip-path="url(#pbd6225eb1f)" style="fill: none; stroke: #ff0000; stroke-opacity: 0.4; stroke-width: 0.25; stroke-linecap: square"/>
   </g>
   <g id="line2d_78">
    <path d="M 230.307977 234.866802 
L 230.307247 236.729619 
L 230.306641 238.591881 
L 230.306104 240.453784 
L 230.305639 242.315504 
L 230.305245 244.177198 
L 230.304918 246.038999 
L 230.304653 247.901024 
L 230.304443 249.763371 
L 230.30428 251.626122 
L 230.304158 253.489343 
L 230.304071 255.353086 
L 230.304012 257.21739 
L 230.303975 259.08228 
L 230.303957 260.947771 
L 230.303951 262.813868 
L 230.303956 264.680564 
L 230.303968 266.547846 
L 230.303984 268.415694 
L 230.304003 270.284078 
L 230.304024 272.152967 
L 230.304044 274.02232 
L 230.304064 275.892097 
L 230.304083 277.762252 
L 230.304101 279.632737 
L 230.304118 281.503502 
L 230.304133 283.374499 
L 230.304147 285.245677 
L 230.304161 287.116989 
L 230.304174 288.988386 
L 230.304186 290.859825 
" clip-path="url(#pbd6225eb1f)" style="fill: none; stroke: #ff0000; stroke-opacity: 0.6; stroke-width: 0.25; stroke-linecap: square"/>
   </g>
   <g id="line2d_79">
    <path d="M 230.307977 234.866802 
L 230.307242 236.729619 
L 230.306636 238.591876 
L 230.3061 240.453768 
L 230.305635 242.315474 
L 230.305242 244.177147 
L 230.304916 246.038923 
L 230.304651 247.900918 
L 230.304441 249.76323 
L 230.304279 251.625941 
L 230.304158 253.489118 
L 230.30407 255.352812 
L 230.304012 257.217062 
L 230.303975 259.081894 
L 230.303957 260.947322 
L 230.303951 262.813352 
L 230.303956 264.679977 
L 230.303968 266.547184 
L 230.303984 268.414953 
L 230.304004 270.283255 
L 230.304024 272.152057 
L 230.304045 274.021322 
L 230.304065 275.891006 
L 230.304084 277.761066 
L 230.304102 279.631453 
L 230.304119 281.502118 
L 230.304134 283.373013 
L 230.304148 285.244087 
L 230.304162 287.115293 
L 230.304175 288.986583 
L 230.304188 290.857914 
" clip-path="url(#pbd6225eb1f)" style="fill: none; stroke: #ff0000; stroke-opacity: 0.8; stroke-width: 0.25; stroke-linecap: square"/>
   </g>
   <g id="line2d_80">
    <path d="M 230.307977 234.866802 
L 230.307238 236.729619 
L 230.306632 238.591878 
L 230.306096 240.453777 
L 230.305633 242.315492 
L 230.30524 244.177176 
L 230.304914 246.038967 
L 230.30465 247.900979 
L 230.30444 249.763311 
L 230.304278 251.626045 
L 230.304157 253.489248 
L 230.30407 255.35297 
L 230.304011 257.217251 
L 230.303975 259.082116 
L 230.303956 260.94758 
L 230.303951 262.813648 
L 230.303956 264.680313 
L 230.303968 266.547563 
L 230.303984 268.415377 
L 230.304003 270.283726 
L 230.304024 272.152577 
L 230.304044 274.021891 
L 230.304065 275.891628 
L 230.304084 277.761741 
L 230.304102 279.632183 
L 230.304118 281.502904 
L 230.304134 283.373856 
L 230.304148 285.244988 
L 230.304161 287.116252 
L 230.304174 288.987602 
L 230.304187 290.858993 
" clip-path="url(#pbd6225eb1f)" style="fill: none; stroke: #ff0000; stroke-width: 0.25; stroke-linecap: square"/>
   </g>
   <g id="line2d_81">
    <path d="M 197.666436 168.940299 
L 196.200147 168.894368 
L 194.730932 168.853122 
L 193.258894 168.81684 
L 191.784157 168.785302 
L 190.306849 168.758218 
L 188.8271 168.735249 
L 187.34504 168.716027 
L 185.860798 168.700175 
L 184.374502 168.687316 
L 182.886279 168.677082 
L 181.396253 168.669125 
L 179.904546 168.663117 
L 178.411276 168.658758 
L 176.91656 168.655776 
L 175.420512 168.653926 
L 173.923243 168.652993 
L 172.42486 168.652787 
L 170.925466 168.653149 
L 169.425163 168.653939 
L 167.924047 168.655044 
L 166.422212 168.656369 
L 164.919746 168.65784 
L 163.416736 168.659399 
L 161.913261 168.661 
L 160.4094 168.662613 
L 158.905223 168.664216 
L 157.400799 168.665799 
L 155.896191 168.667356 
L 154.391459 168.66889 
L 152.886656 168.670367 
" clip-path="url(#pbd6225eb1f)" style="fill: none; stroke: #ff0000; stroke-opacity: 0.2; stroke-width: 0.25; stroke-linecap: square"/>
   </g>
   <g id="line2d_82">
    <path d="M 197.666436 168.940299 
L 196.200141 168.894578 
L 194.730943 168.853316 
L 193.25894 168.817012 
L 191.784258 168.785449 
L 190.307024 168.758337 
L 188.82737 168.73534 
L 187.345427 168.716093 
L 185.861326 168.700218 
L 184.375194 168.687339 
L 182.887161 168.67709 
L 181.397351 168.669122 
L 179.905886 168.663108 
L 178.412888 168.658749 
L 176.918473 168.655772 
L 175.422757 168.653933 
L 173.92585 168.653015 
L 172.427861 168.652831 
L 170.928894 168.653219 
L 169.429052 168.654043 
L 167.92843 168.655187 
L 166.427124 168.656559 
L 164.925221 168.658083 
L 163.422808 168.659701 
L 161.919966 168.661369 
L 160.41677 168.663055 
L 158.913295 168.664738 
L 157.409605 168.666407 
L 155.905766 168.668054 
L 154.401834 168.669679 
L 152.897863 168.671304 
" clip-path="url(#pbd6225eb1f)" style="fill: none; stroke: #ff0000; stroke-opacity: 0.4; stroke-width: 0.25; stroke-linecap: square"/>
   </g>
   <g id="line2d_83">
    <path d="M 197.666436 168.940299 
L 196.200137 168.89469 
L 194.730928 168.853419 
L 193.258902 168.817103 
L 191.784184 168.785528 
L 190.306902 168.758405 
L 188.827188 168.735398 
L 187.34517 168.716141 
L 185.86098 168.700257 
L 184.374747 168.687371 
L 182.886597 168.677115 
L 181.396655 168.669141 
L 179.905043 168.663121 
L 178.411883 168.658755 
L 176.917289 168.655769 
L 175.421378 168.65392 
L 173.92426 168.65299 
L 172.426044 168.652792 
L 170.926833 168.653163 
L 169.426729 168.653966 
L 167.925829 168.655087 
L 166.424227 168.656432 
L 164.922012 168.657925 
L 163.41927 168.659508 
L 161.916082 168.661137 
L 160.412525 168.66278 
L 158.908672 168.664416 
L 157.404589 168.666034 
L 155.90034 168.667628 
L 154.395985 168.669199 
L 152.891576 168.670744 
" clip-path="url(#pbd6225eb1f)" style="fill: none; stroke: #ff0000; stroke-opacity: 0.6; stroke-width: 0.25; stroke-linecap: square"/>
   </g>
   <g id="line2d_84">
    <path d="M 197.666436 168.940299 
L 196.200136 168.894746 
L 194.730934 168.853467 
L 193.258923 168.817144 
L 191.784228 168.785562 
L 190.306977 168.758432 
L 188.8273 168.73542 
L 187.345328 168.716159 
L 185.861193 168.700273 
L 184.375022 168.687385 
L 182.886942 168.677128 
L 181.397079 168.669153 
L 179.905555 168.663134 
L 178.412491 168.65877 
L 176.918002 168.655787 
L 175.422205 168.653942 
L 173.925209 168.653018 
L 172.427123 168.652827 
L 170.928052 168.653207 
L 169.428096 168.654021 
L 167.927354 168.655155 
L 166.425917 168.656514 
L 164.923876 168.658025 
L 163.421317 168.659628 
L 161.918319 168.66128 
L 160.41496 168.662948 
L 158.911312 168.664612 
L 157.407442 168.666259 
L 155.903413 168.667885 
L 154.399284 168.669488 
L 152.895109 168.671077 
" clip-path="url(#pbd6225eb1f)" style="fill: none; stroke: #ff0000; stroke-opacity: 0.8; stroke-width: 0.25; stroke-linecap: square"/>
   </g>
   <g id="line2d_85">
    <path d="M 197.666436 168.940299 
L 196.200135 168.894776 
L 194.730929 168.853493 
L 193.258909 168.817166 
L 191.7842 168.78558 
L 190.30693 168.758447 
L 188.82723 168.735431 
L 187.345231 168.716168 
L 185.861063 168.700279 
L 184.374855 168.687389 
L 182.886734 168.677129 
L 181.396824 168.669152 
L 179.905249 168.663131 
L 178.412128 168.658763 
L 176.917579 168.655777 
L 175.421715 168.653928 
L 173.924649 168.652999 
L 172.426488 168.652803 
L 170.927338 168.653177 
L 169.427298 168.653984 
L 167.926466 168.65511 
L 166.424937 168.656461 
L 164.922799 168.657961 
L 163.420138 168.659552 
L 161.917035 168.66119 
L 160.413568 168.662844 
L 158.909807 168.664492 
L 157.405821 168.666122 
L 155.901673 168.667729 
L 154.397422 168.669313 
L 152.893121 168.670877 
" clip-path="url(#pbd6225eb1f)" style="fill: none; stroke: #ff0000; stroke-width: 0.25; stroke-linecap: square"/>
   </g>
   <g id="line2d_86">
    <path d="M 230.694913 211.815163 
L 230.623482 213.382925 
L 230.559178 214.949364 
L 230.503189 216.514361 
L 230.455075 218.077758 
L 230.414286 219.639425 
L 230.380202 221.199262 
L 230.352168 222.757198 
L 230.329516 224.313191 
L 230.311591 225.86722 
L 230.297759 227.419292 
L 230.287426 228.96943 
L 230.280042 230.517675 
L 230.275105 232.064087 
L 230.272166 233.608733 
L 230.270828 235.151696 
L 230.270745 236.693066 
L 230.27162 238.232939 
L 230.273203 239.771419 
L 230.275287 241.308614 
L 230.277703 242.844636 
L 230.280317 244.379596 
L 230.283026 245.913611 
L 230.285755 247.446794 
L 230.288453 248.979259 
L 230.291087 250.511117 
L 230.293642 252.042478 
L 230.296115 253.573448 
L 230.298515 255.104127 
L 230.300861 256.634612 
L 230.303156 258.164992 
" clip-path="url(#pbd6225eb1f)" style="fill: none; stroke: #ff0000; stroke-opacity: 0.2; stroke-width: 0.25; stroke-linecap: square"/>
   </g>
   <g id="line2d_87">
    <path d="M 230.694913 211.815163 
L 230.624406 213.382967 
L 230.560071 214.949467 
L 230.504013 216.514586 
L 230.455802 218.078166 
L 230.414897 219.640078 
L 230.380688 221.200222 
L 230.352525 222.758527 
L 230.32975 224.314949 
L 230.311708 225.86947 
L 230.297774 227.422094 
L 230.287355 228.972845 
L 230.279903 230.521763 
L 230.274917 232.068907 
L 230.271949 233.614345 
L 230.270602 235.158158 
L 230.270529 236.700435 
L 230.271433 238.241273 
L 230.273063 239.780774 
L 230.27521 241.319045 
L 230.277706 242.856196 
L 230.280416 244.392339 
L 230.283236 245.927587 
L 230.286091 247.462053 
L 230.288928 248.995849 
L 230.291714 250.529085 
L 230.294434 252.061867 
L 230.297086 253.594299 
L 230.299675 255.126478 
L 230.302219 256.658499 
L 230.304741 258.190447 
" clip-path="url(#pbd6225eb1f)" style="fill: none; stroke: #ff0000; stroke-opacity: 0.4; stroke-width: 0.25; stroke-linecap: square"/>
   </g>
   <g id="line2d_88">
    <path d="M 230.694913 211.815163 
L 230.624934 213.38299 
L 230.56056 214.949449 
L 230.504452 216.514489 
L 230.456184 218.077952 
L 230.415222 219.639709 
L 230.380959 221.199663 
L 230.352747 222.757743 
L 230.329928 224.313907 
L 230.31185 225.868136 
L 230.297886 227.420435 
L 230.287443 228.970829 
L 230.27997 230.51936 
L 230.274967 232.066087 
L 230.271983 233.611078 
L 230.270619 235.154417 
L 230.270527 236.696192 
L 230.271408 238.236502 
L 230.273011 239.77545 
L 230.275126 241.313144 
L 230.277583 242.849695 
L 230.280246 244.385216 
L 230.283013 245.919821 
L 230.285808 247.453625 
L 230.288578 248.98674 
L 230.291292 250.519277 
L 230.293933 252.051346 
L 230.296499 253.583049 
L 230.298999 255.114488 
L 230.301449 256.645755 
L 230.303868 258.17694 
" clip-path="url(#pbd6225eb1f)" style="fill: none; stroke: #ff0000; stroke-opacity: 0.6; stroke-width: 0.25; stroke-linecap: square"/>
   </g>
   <g id="line2d_89">
    <path d="M 230.694913 211.815163 
L 230.625243 213.383004 
L 230.560838 214.949485 
L 230.504695 216.514568 
L 230.456392 218.078097 
L 230.415396 219.639942 
L 230.381102 221.200003 
L 230.352864 222.75821 
L 230.330024 224.31452 
L 230.31193 225.868913 
L 230.297953 227.421394 
L 230.287501 228.971988 
L 230.280022 230.520734 
L 230.275016 232.067691 
L 230.272032 233.612929 
L 230.27067 235.156527 
L 230.270583 236.698575 
L 230.271472 238.239171 
L 230.273086 239.778416 
L 230.275215 241.316418 
L 230.27769 242.853289 
L 230.280375 244.389139 
L 230.283168 245.924082 
L 230.285992 247.458232 
L 230.288796 248.991701 
L 230.291546 250.5246 
L 230.294227 252.057035 
L 230.296836 253.589111 
L 230.29938 255.120926 
L 230.301877 256.652575 
L 230.304346 258.184144 
" clip-path="url(#pbd6225eb1f)" style="fill: none; stroke: #ff0000; stroke-opacity: 0.8; stroke-width: 0.25; stroke-linecap: square"/>
   </g>
   <g id="line2d_90">
    <path d="M 230.694913 211.815163 
L 230.625418 213.383012 
L 230.560988 214.949478 
L 230.50482 216.514536 
L 230.456494 218.078026 
L 230.415477 219.639821 
L 230.381164 221.199821 
L 230.35291 222.757957 
L 230.330055 224.314185 
L 230.311949 225.868486 
L 230.297961 227.420866 
L 230.287499 228.97135 
L 230.280011 230.519978 
L 230.274996 232.066809 
L 230.272003 233.611912 
L 230.270633 235.155368 
L 230.270537 236.697268 
L 230.271418 238.237709 
L 230.273022 239.776794 
L 230.275141 241.314631 
L 230.277604 242.85133 
L 230.280277 244.387004 
L 230.283056 245.921768 
L 230.285865 247.455735 
L 230.288651 248.989017 
L 230.291383 250.521725 
L 230.294044 252.053968 
L 230.296632 253.585849 
L 230.299155 255.117468 
L 230.301629 256.648919 
L 230.304075 258.180289 
" clip-path="url(#pbd6225eb1f)" style="fill: none; stroke: #ff0000; stroke-width: 0.25; stroke-linecap: square"/>
   </g>
   <g id="patch_15">
    <path d="M 103.104 307.584 
L 103.104 41.472 
" style="fill: none; stroke: #000000; stroke-width: 0.8; stroke-linejoin: miter; stroke-linecap: square"/>
   </g>
   <g id="patch_16">
    <path d="M 369.216 307.584 
L 369.216 41.472 
" style="fill: none; stroke: #000000; stroke-width: 0.8; stroke-linejoin: miter; stroke-linecap: square"/>
   </g>
   <g id="patch_17">
    <path d="M 103.104 307.584 
L 369.216 307.584 
" style="fill: none; stroke: #000000; stroke-width: 0.8; stroke-linejoin: miter; stroke-linecap: square"/>
   </g>
   <g id="patch_18">
    <path d="M 103.104 41.472 
L 369.216 41.472 
" style="fill: none; stroke: #000000; stroke-width: 0.8; stroke-linejoin: miter; stroke-linecap: square"/>
   </g>
   <g id="text_19">
    <!-- Time: 101 ms -->
    <g transform="translate(261.069512 54.7776) scale(0.1 -0.1)">
     <defs>
      <path id="DejaVuSans-54" d="M -19 4666 
L 3928 4666 
L 3928 4134 
L 2272 4134 
L 2272 0 
L 1638 0 
L 1638 4134 
L -19 4134 
L -19 4666 
z
" transform="scale(0.015625)"/>
      <path id="DejaVuSans-69" d="M 603 3500 
L 1178 3500 
L 1178 0 
L 603 0 
L 603 3500 
z
M 603 4863 
L 1178 4863 
L 1178 4134 
L 603 4134 
L 603 4863 
z
" transform="scale(0.015625)"/>
      <path id="DejaVuSans-6d" d="M 3328 2828 
Q 3544 3216 3844 3400 
Q 4144 3584 4550 3584 
Q 5097 3584 5394 3201 
Q 5691 2819 5691 2113 
L 5691 0 
L 5113 0 
L 5113 2094 
Q 5113 2597 4934 2840 
Q 4756 3084 4391 3084 
Q 3944 3084 3684 2787 
Q 3425 2491 3425 1978 
L 3425 0 
L 2847 0 
L 2847 2094 
Q 2847 2600 2669 2842 
Q 2491 3084 2119 3084 
Q 1678 3084 1418 2786 
Q 1159 2488 1159 1978 
L 1159 0 
L 581 0 
L 581 3500 
L 1159 3500 
L 1159 2956 
Q 1356 3278 1631 3431 
Q 1906 3584 2284 3584 
Q 2666 3584 2933 3390 
Q 3200 3197 3328 2828 
z
" transform="scale(0.015625)"/>
      <path id="DejaVuSans-65" d="M 3597 1894 
L 3597 1613 
L 953 1613 
Q 991 1019 1311 708 
Q 1631 397 2203 397 
Q 2534 397 2845 478 
Q 3156 559 3463 722 
L 3463 178 
Q 3153 47 2828 -22 
Q 2503 -91 2169 -91 
Q 1331 -91 842 396 
Q 353 884 353 1716 
Q 353 2575 817 3079 
Q 1281 3584 2069 3584 
Q 2775 3584 3186 3129 
Q 3597 2675 3597 1894 
z
M 3022 2063 
Q 3016 2534 2758 2815 
Q 2500 3097 2075 3097 
Q 1594 3097 1305 2825 
Q 1016 2553 972 2059 
L 3022 2063 
z
" transform="scale(0.015625)"/>
      <path id="DejaVuSans-3a" d="M 750 794 
L 1409 794 
L 1409 0 
L 750 0 
L 750 794 
z
M 750 3309 
L 1409 3309 
L 1409 2516 
L 750 2516 
L 750 3309 
z
" transform="scale(0.015625)"/>
      <path id="DejaVuSans-20" transform="scale(0.015625)"/>
      <path id="DejaVuSans-73" d="M 2834 3397 
L 2834 2853 
Q 2591 2978 2328 3040 
Q 2066 3103 1784 3103 
Q 1356 3103 1142 2972 
Q 928 2841 928 2578 
Q 928 2378 1081 2264 
Q 1234 2150 1697 2047 
L 1894 2003 
Q 2506 1872 2764 1633 
Q 3022 1394 3022 966 
Q 3022 478 2636 193 
Q 2250 -91 1575 -91 
Q 1294 -91 989 -36 
Q 684 19 347 128 
L 347 722 
Q 666 556 975 473 
Q 1284 391 1588 391 
Q 1994 391 2212 530 
Q 2431 669 2431 922 
Q 2431 1156 2273 1281 
Q 2116 1406 1581 1522 
L 1381 1569 
Q 847 1681 609 1914 
Q 372 2147 372 2553 
Q 372 3047 722 3315 
Q 1072 3584 1716 3584 
Q 2034 3584 2315 3537 
Q 2597 3491 2834 3397 
z
" transform="scale(0.015625)"/>
     </defs>
     <use xlink:href="#DejaVuSans-54"/>
     <use xlink:href="#DejaVuSans-69" x="57.958984"/>
     <use xlink:href="#DejaVuSans-6d" x="85.742188"/>
     <use xlink:href="#DejaVuSans-65" x="183.154297"/>
     <use xlink:href="#DejaVuSans-3a" x="244.677734"/>
     <use xlink:href="#DejaVuSans-20" x="278.369141"/>
     <use xlink:href="#DejaVuSans-31" x="310.15625"/>
     <use xlink:href="#DejaVuSans-30" x="373.779297"/>
     <use xlink:href="#DejaVuSans-31" x="437.402344"/>
     <use xlink:href="#DejaVuSans-20" x="501.025391"/>
     <use xlink:href="#DejaVuSans-6d" x="532.8125"/>
     <use xlink:href="#DejaVuSans-73" x="630.224609"/>
    </g>
   </g>
  </g>
 </g>
 <defs>
  <clipPath id="pbd6225eb1f">
   <rect x="103.104" y="41.472" width="266.112" height="266.112"/>
  </clipPath>
 </defs>
</svg>
