<?xml version="1.0" encoding="utf-8" standalone="no"?>
<!DOCTYPE svg PUBLIC "-//W3C//DTD SVG 1.1//EN"
  "http://www.w3.org/Graphics/SVG/1.1/DTD/svg11.dtd">
<svg xmlns:xlink="http://www.w3.org/1999/xlink" width="460.8pt" height="345.6pt" viewBox="0 0 460.8 345.6" xmlns="http://www.w3.org/2000/svg" version="1.1">
 <metadata>
  <rdf:RDF xmlns:dc="http://purl.org/dc/elements/1.1/" xmlns:cc="http://creativecommons.org/ns#" xmlns:rdf="http://www.w3.org/1999/02/22-rdf-syntax-ns#">
   <cc:Work>
    <dc:type rdf:resource="http://purl.org/dc/dcmitype/StillImage"/>
    <dc:date>2024-01-23T14:21:21.538715</dc:date>
    <dc:format>image/svg+xml</dc:format>
    <dc:creator>
     <cc:Agent>
      <dc:title>Matplotlib v3.8.2, https://matplotlib.org/</dc:title>
     </cc:Agent>
    </dc:creator>
   </cc:Work>
  </rdf:RDF>
 </metadata>
 <defs>
  <style type="text/css">*{stroke-linejoin: round; stroke-linecap: butt}</style>
 </defs>
 <g id="figure_1">
  <g id="patch_1">
   <path d="M 0 345.6 
L 460.8 345.6 
L 460.8 0 
L 0 0 
z
" style="fill: #ffffff"/>
  </g>
  <g id="axes_1">
   <g id="patch_2">
    <path d="M 103.104 307.584 
L 369.216 307.584 
L 369.216 41.472 
L 103.104 41.472 
z
" style="fill: #ffffff"/>
   </g>
   <g id="patch_3">
    <path d="M 209.7459 165.598444 
L 198.107057 165.886235 
L 198.246841 171.539387 
L 209.885684 171.251596 
z
" clip-path="url(#p14087baf5e)" style="fill: #00008b"/>
   </g>
   <g id="patch_4">
    <path d="M 244.62549 136.010954 
L 244.854723 124.370811 
L 239.200939 124.259469 
L 238.971706 135.899612 
z
" clip-path="url(#p14087baf5e)" style="fill: #800000"/>
   </g>
   <g id="patch_5">
    <path d="M 227.368196 203.846417 
L 227.578687 215.486914 
L 233.232643 215.384676 
L 233.022152 203.744179 
z
" clip-path="url(#p14087baf5e)" style="fill: #006400"/>
   </g>
   <g id="patch_6">
    <path d="M 265.505072 183.313586 
L 277.145311 183.089266 
L 277.036355 177.435435 
L 265.396116 177.659756 
z
" clip-path="url(#p14087baf5e)" style="fill: #4b0082"/>
   </g>
   <g id="patch_7">
    <path d="M 246.594591 183.864034 
L 248.377352 172.358937 
L 242.789162 171.493025 
L 241.006402 182.998121 
z
" clip-path="url(#p14087baf5e)" style="fill: #0000ff"/>
   </g>
   <g id="patch_8">
    <path d="M 246.384146 162.507451 
L 235.121626 159.557684 
L 233.688882 165.028051 
L 244.951402 167.977818 
z
" clip-path="url(#p14087baf5e)" style="fill: #ff0000"/>
   </g>
   <g id="patch_9">
    <path d="M 227.751582 168.511313 
L 231.060186 179.673688 
L 236.481911 178.066652 
L 233.173307 166.904277 
z
" clip-path="url(#p14087baf5e)" style="fill: #dbdc56"/>
   </g>
   <g id="patch_10">
    <path d="M 211.775567 183.909923 
L 223.240555 185.934649 
L 224.223994 180.36594 
L 212.759005 178.341214 
z
" clip-path="url(#p14087baf5e)" style="fill: #9400d3"/>
   </g>
   <g id="patch_11">
    <path d="M 244.836603 229.28667 
L 244.785127 217.644384 
L 239.130302 217.669387 
L 239.181778 229.311673 
z
" clip-path="url(#p14087baf5e)" style="fill: #1e90ff"/>
   </g>
   <g id="patch_12">
    <path d="M 272.707529 164.080051 
L 261.170678 162.515902 
L 260.410949 168.119515 
L 271.947799 169.683664 
z
" clip-path="url(#p14087baf5e)" style="fill: #ff4500"/>
   </g>
   <g id="patch_13">
    <path d="M 227.483585 119.768559 
L 227.534567 131.410847 
L 233.189393 131.386084 
L 233.138411 119.743796 
z
" clip-path="url(#p14087baf5e)" style="fill: #7cfc00"/>
   </g>
   <g id="patch_14">
    <path d="M 181.210783 183.166606 
L 192.851834 183.343883 
L 192.93794 177.689659 
L 181.296889 177.512382 
z
" clip-path="url(#p14087baf5e)" style="fill: #ff00ff"/>
   </g>
   <g id="matplotlib.axis_1">
    <g id="xtick_1">
     <g id="line2d_1">
      <defs>
       <path id="m13eabe62fa" d="M 0 0 
L 0 3.5 
" style="stroke: #000000; stroke-width: 0.8"/>
      </defs>
      <g>
       <use xlink:href="#m13eabe62fa" x="103.104" y="307.584" style="stroke: #000000; stroke-width: 0.8"/>
      </g>
     </g>
     <g id="text_1">
      <!-- −40 -->
      <g transform="translate(92.551656 322.182437) scale(0.1 -0.1)">
       <defs>
        <path id="DejaVuSans-2212" d="M 678 2272 
L 4684 2272 
L 4684 1741 
L 678 1741 
L 678 2272 
z
" transform="scale(0.015625)"/>
        <path id="DejaVuSans-34" d="M 2419 4116 
L 825 1625 
L 2419 1625 
L 2419 4116 
z
M 2253 4666 
L 3047 4666 
L 3047 1625 
L 3713 1625 
L 3713 1100 
L 3047 1100 
L 3047 0 
L 2419 0 
L 2419 1100 
L 313 1100 
L 313 1709 
L 2253 4666 
z
" transform="scale(0.015625)"/>
        <path id="DejaVuSans-30" d="M 2034 4250 
Q 1547 4250 1301 3770 
Q 1056 3291 1056 2328 
Q 1056 1369 1301 889 
Q 1547 409 2034 409 
Q 2525 409 2770 889 
Q 3016 1369 3016 2328 
Q 3016 3291 2770 3770 
Q 2525 4250 2034 4250 
z
M 2034 4750 
Q 2819 4750 3233 4129 
Q 3647 3509 3647 2328 
Q 3647 1150 3233 529 
Q 2819 -91 2034 -91 
Q 1250 -91 836 529 
Q 422 1150 422 2328 
Q 422 3509 836 4129 
Q 1250 4750 2034 4750 
z
" transform="scale(0.015625)"/>
       </defs>
       <use xlink:href="#DejaVuSans-2212"/>
       <use xlink:href="#DejaVuSans-34" x="83.789062"/>
       <use xlink:href="#DejaVuSans-30" x="147.412109"/>
      </g>
     </g>
    </g>
    <g id="xtick_2">
     <g id="line2d_2">
      <g>
       <use xlink:href="#m13eabe62fa" x="136.368" y="307.584" style="stroke: #000000; stroke-width: 0.8"/>
      </g>
     </g>
     <g id="text_2">
      <!-- −30 -->
      <g transform="translate(125.815656 322.182437) scale(0.1 -0.1)">
       <defs>
        <path id="DejaVuSans-33" d="M 2597 2516 
Q 3050 2419 3304 2112 
Q 3559 1806 3559 1356 
Q 3559 666 3084 287 
Q 2609 -91 1734 -91 
Q 1441 -91 1130 -33 
Q 819 25 488 141 
L 488 750 
Q 750 597 1062 519 
Q 1375 441 1716 441 
Q 2309 441 2620 675 
Q 2931 909 2931 1356 
Q 2931 1769 2642 2001 
Q 2353 2234 1838 2234 
L 1294 2234 
L 1294 2753 
L 1863 2753 
Q 2328 2753 2575 2939 
Q 2822 3125 2822 3475 
Q 2822 3834 2567 4026 
Q 2313 4219 1838 4219 
Q 1578 4219 1281 4162 
Q 984 4106 628 3988 
L 628 4550 
Q 988 4650 1302 4700 
Q 1616 4750 1894 4750 
Q 2613 4750 3031 4423 
Q 3450 4097 3450 3541 
Q 3450 3153 3228 2886 
Q 3006 2619 2597 2516 
z
" transform="scale(0.015625)"/>
       </defs>
       <use xlink:href="#DejaVuSans-2212"/>
       <use xlink:href="#DejaVuSans-33" x="83.789062"/>
       <use xlink:href="#DejaVuSans-30" x="147.412109"/>
      </g>
     </g>
    </g>
    <g id="xtick_3">
     <g id="line2d_3">
      <g>
       <use xlink:href="#m13eabe62fa" x="169.632" y="307.584" style="stroke: #000000; stroke-width: 0.8"/>
      </g>
     </g>
     <g id="text_3">
      <!-- −20 -->
      <g transform="translate(159.079656 322.182437) scale(0.1 -0.1)">
       <defs>
        <path id="DejaVuSans-32" d="M 1228 531 
L 3431 531 
L 3431 0 
L 469 0 
L 469 531 
Q 828 903 1448 1529 
Q 2069 2156 2228 2338 
Q 2531 2678 2651 2914 
Q 2772 3150 2772 3378 
Q 2772 3750 2511 3984 
Q 2250 4219 1831 4219 
Q 1534 4219 1204 4116 
Q 875 4013 500 3803 
L 500 4441 
Q 881 4594 1212 4672 
Q 1544 4750 1819 4750 
Q 2544 4750 2975 4387 
Q 3406 4025 3406 3419 
Q 3406 3131 3298 2873 
Q 3191 2616 2906 2266 
Q 2828 2175 2409 1742 
Q 1991 1309 1228 531 
z
" transform="scale(0.015625)"/>
       </defs>
       <use xlink:href="#DejaVuSans-2212"/>
       <use xlink:href="#DejaVuSans-32" x="83.789062"/>
       <use xlink:href="#DejaVuSans-30" x="147.412109"/>
      </g>
     </g>
    </g>
    <g id="xtick_4">
     <g id="line2d_4">
      <g>
       <use xlink:href="#m13eabe62fa" x="202.896" y="307.584" style="stroke: #000000; stroke-width: 0.8"/>
      </g>
     </g>
     <g id="text_4">
      <!-- −10 -->
      <g transform="translate(192.343656 322.182437) scale(0.1 -0.1)">
       <defs>
        <path id="DejaVuSans-31" d="M 794 531 
L 1825 531 
L 1825 4091 
L 703 3866 
L 703 4441 
L 1819 4666 
L 2450 4666 
L 2450 531 
L 3481 531 
L 3481 0 
L 794 0 
L 794 531 
z
" transform="scale(0.015625)"/>
       </defs>
       <use xlink:href="#DejaVuSans-2212"/>
       <use xlink:href="#DejaVuSans-31" x="83.789062"/>
       <use xlink:href="#DejaVuSans-30" x="147.412109"/>
      </g>
     </g>
    </g>
    <g id="xtick_5">
     <g id="line2d_5">
      <g>
       <use xlink:href="#m13eabe62fa" x="236.16" y="307.584" style="stroke: #000000; stroke-width: 0.8"/>
      </g>
     </g>
     <g id="text_5">
      <!-- 0 -->
      <g transform="translate(232.97875 322.182437) scale(0.1 -0.1)">
       <use xlink:href="#DejaVuSans-30"/>
      </g>
     </g>
    </g>
    <g id="xtick_6">
     <g id="line2d_6">
      <g>
       <use xlink:href="#m13eabe62fa" x="269.424" y="307.584" style="stroke: #000000; stroke-width: 0.8"/>
      </g>
     </g>
     <g id="text_6">
      <!-- 10 -->
      <g transform="translate(263.0615 322.182437) scale(0.1 -0.1)">
       <use xlink:href="#DejaVuSans-31"/>
       <use xlink:href="#DejaVuSans-30" x="63.623047"/>
      </g>
     </g>
    </g>
    <g id="xtick_7">
     <g id="line2d_7">
      <g>
       <use xlink:href="#m13eabe62fa" x="302.688" y="307.584" style="stroke: #000000; stroke-width: 0.8"/>
      </g>
     </g>
     <g id="text_7">
      <!-- 20 -->
      <g transform="translate(296.3255 322.182437) scale(0.1 -0.1)">
       <use xlink:href="#DejaVuSans-32"/>
       <use xlink:href="#DejaVuSans-30" x="63.623047"/>
      </g>
     </g>
    </g>
    <g id="xtick_8">
     <g id="line2d_8">
      <g>
       <use xlink:href="#m13eabe62fa" x="335.952" y="307.584" style="stroke: #000000; stroke-width: 0.8"/>
      </g>
     </g>
     <g id="text_8">
      <!-- 30 -->
      <g transform="translate(329.5895 322.182437) scale(0.1 -0.1)">
       <use xlink:href="#DejaVuSans-33"/>
       <use xlink:href="#DejaVuSans-30" x="63.623047"/>
      </g>
     </g>
    </g>
    <g id="xtick_9">
     <g id="line2d_9">
      <g>
       <use xlink:href="#m13eabe62fa" x="369.216" y="307.584" style="stroke: #000000; stroke-width: 0.8"/>
      </g>
     </g>
     <g id="text_9">
      <!-- 40 -->
      <g transform="translate(362.8535 322.182437) scale(0.1 -0.1)">
       <use xlink:href="#DejaVuSans-34"/>
       <use xlink:href="#DejaVuSans-30" x="63.623047"/>
      </g>
     </g>
    </g>
   </g>
   <g id="matplotlib.axis_2">
    <g id="ytick_1">
     <g id="line2d_10">
      <defs>
       <path id="m8d2bc5a57b" d="M 0 0 
L -3.5 0 
" style="stroke: #000000; stroke-width: 0.8"/>
      </defs>
      <g>
       <use xlink:href="#m8d2bc5a57b" x="103.104" y="307.584" style="stroke: #000000; stroke-width: 0.8"/>
      </g>
     </g>
     <g id="text_10">
      <!-- −40 -->
      <g transform="translate(74.999313 311.383219) scale(0.1 -0.1)">
       <use xlink:href="#DejaVuSans-2212"/>
       <use xlink:href="#DejaVuSans-34" x="83.789062"/>
       <use xlink:href="#DejaVuSans-30" x="147.412109"/>
      </g>
     </g>
    </g>
    <g id="ytick_2">
     <g id="line2d_11">
      <g>
       <use xlink:href="#m8d2bc5a57b" x="103.104" y="274.32" style="stroke: #000000; stroke-width: 0.8"/>
      </g>
     </g>
     <g id="text_11">
      <!-- −30 -->
      <g transform="translate(74.999313 278.119219) scale(0.1 -0.1)">
       <use xlink:href="#DejaVuSans-2212"/>
       <use xlink:href="#DejaVuSans-33" x="83.789062"/>
       <use xlink:href="#DejaVuSans-30" x="147.412109"/>
      </g>
     </g>
    </g>
    <g id="ytick_3">
     <g id="line2d_12">
      <g>
       <use xlink:href="#m8d2bc5a57b" x="103.104" y="241.056" style="stroke: #000000; stroke-width: 0.8"/>
      </g>
     </g>
     <g id="text_12">
      <!-- −20 -->
      <g transform="translate(74.999313 244.855219) scale(0.1 -0.1)">
       <use xlink:href="#DejaVuSans-2212"/>
       <use xlink:href="#DejaVuSans-32" x="83.789062"/>
       <use xlink:href="#DejaVuSans-30" x="147.412109"/>
      </g>
     </g>
    </g>
    <g id="ytick_4">
     <g id="line2d_13">
      <g>
       <use xlink:href="#m8d2bc5a57b" x="103.104" y="207.792" style="stroke: #000000; stroke-width: 0.8"/>
      </g>
     </g>
     <g id="text_13">
      <!-- −10 -->
      <g transform="translate(74.999313 211.591219) scale(0.1 -0.1)">
       <use xlink:href="#DejaVuSans-2212"/>
       <use xlink:href="#DejaVuSans-31" x="83.789062"/>
       <use xlink:href="#DejaVuSans-30" x="147.412109"/>
      </g>
     </g>
    </g>
    <g id="ytick_5">
     <g id="line2d_14">
      <g>
       <use xlink:href="#m8d2bc5a57b" x="103.104" y="174.528" style="stroke: #000000; stroke-width: 0.8"/>
      </g>
     </g>
     <g id="text_14">
      <!-- 0 -->
      <g transform="translate(89.7415 178.327219) scale(0.1 -0.1)">
       <use xlink:href="#DejaVuSans-30"/>
      </g>
     </g>
    </g>
    <g id="ytick_6">
     <g id="line2d_15">
      <g>
       <use xlink:href="#m8d2bc5a57b" x="103.104" y="141.264" style="stroke: #000000; stroke-width: 0.8"/>
      </g>
     </g>
     <g id="text_15">
      <!-- 10 -->
      <g transform="translate(83.379 145.063219) scale(0.1 -0.1)">
       <use xlink:href="#DejaVuSans-31"/>
       <use xlink:href="#DejaVuSans-30" x="63.623047"/>
      </g>
     </g>
    </g>
    <g id="ytick_7">
     <g id="line2d_16">
      <g>
       <use xlink:href="#m8d2bc5a57b" x="103.104" y="108" style="stroke: #000000; stroke-width: 0.8"/>
      </g>
     </g>
     <g id="text_16">
      <!-- 20 -->
      <g transform="translate(83.379 111.799219) scale(0.1 -0.1)">
       <use xlink:href="#DejaVuSans-32"/>
       <use xlink:href="#DejaVuSans-30" x="63.623047"/>
      </g>
     </g>
    </g>
    <g id="ytick_8">
     <g id="line2d_17">
      <g>
       <use xlink:href="#m8d2bc5a57b" x="103.104" y="74.736" style="stroke: #000000; stroke-width: 0.8"/>
      </g>
     </g>
     <g id="text_17">
      <!-- 30 -->
      <g transform="translate(83.379 78.535219) scale(0.1 -0.1)">
       <use xlink:href="#DejaVuSans-33"/>
       <use xlink:href="#DejaVuSans-30" x="63.623047"/>
      </g>
     </g>
    </g>
    <g id="ytick_9">
     <g id="line2d_18">
      <g>
       <use xlink:href="#m8d2bc5a57b" x="103.104" y="41.472" style="stroke: #000000; stroke-width: 0.8"/>
      </g>
     </g>
     <g id="text_18">
      <!-- 40 -->
      <g transform="translate(83.379 45.271219) scale(0.1 -0.1)">
       <use xlink:href="#DejaVuSans-34"/>
       <use xlink:href="#DejaVuSans-30" x="63.623047"/>
      </g>
     </g>
    </g>
   </g>
   <g id="line2d_19">
    <path d="M 250.2972 288.4572 
L 250.2972 188.6652 
" clip-path="url(#p14087baf5e)" style="fill: none; stroke: #000000; stroke-width: 0.25; stroke-linecap: square"/>
   </g>
   <g id="line2d_20">
    <path d="M 250.2972 188.6652 
L 350.0892 188.6652 
" clip-path="url(#p14087baf5e)" style="fill: none; stroke: #000000; stroke-width: 0.25; stroke-linecap: square"/>
   </g>
   <g id="line2d_21">
    <path d="M 350.0892 160.3908 
L 250.2972 160.3908 
" clip-path="url(#p14087baf5e)" style="fill: none; stroke: #000000; stroke-width: 0.25; stroke-linecap: square"/>
   </g>
   <g id="line2d_22">
    <path d="M 250.2972 160.3908 
L 250.2972 60.5988 
" clip-path="url(#p14087baf5e)" style="fill: none; stroke: #000000; stroke-width: 0.25; stroke-linecap: square"/>
   </g>
   <g id="line2d_23">
    <path d="M 222.0228 60.5988 
L 222.0228 160.3908 
" clip-path="url(#p14087baf5e)" style="fill: none; stroke: #000000; stroke-width: 0.25; stroke-linecap: square"/>
   </g>
   <g id="line2d_24">
    <path d="M 222.0228 160.3908 
L 122.2308 160.3908 
" clip-path="url(#p14087baf5e)" style="fill: none; stroke: #000000; stroke-width: 0.25; stroke-linecap: square"/>
   </g>
   <g id="line2d_25">
    <path d="M 122.2308 188.6652 
L 222.0228 188.6652 
" clip-path="url(#p14087baf5e)" style="fill: none; stroke: #000000; stroke-width: 0.25; stroke-linecap: square"/>
   </g>
   <g id="line2d_26">
    <path d="M 222.0228 188.6652 
L 222.0228 288.4572 
" clip-path="url(#p14087baf5e)" style="fill: none; stroke: #000000; stroke-width: 0.25; stroke-linecap: square"/>
   </g>
   <g id="line2d_27">
    <path d="M 250.2972 174.528 
L 350.0892 174.528 
" clip-path="url(#p14087baf5e)" style="fill: none; stroke-dasharray: 0.925,0.4; stroke-dashoffset: 0; stroke: #000000; stroke-width: 0.25"/>
   </g>
   <g id="line2d_28">
    <path d="M 236.16 160.3908 
L 236.16 60.5988 
" clip-path="url(#p14087baf5e)" style="fill: none; stroke-dasharray: 0.925,0.4; stroke-dashoffset: 0; stroke: #000000; stroke-width: 0.25"/>
   </g>
   <g id="line2d_29">
    <path d="M 222.0228 174.528 
L 122.2308 174.528 
" clip-path="url(#p14087baf5e)" style="fill: none; stroke-dasharray: 0.925,0.4; stroke-dashoffset: 0; stroke: #000000; stroke-width: 0.25"/>
   </g>
   <g id="line2d_30">
    <path d="M 236.16 188.6652 
L 236.16 288.4572 
" clip-path="url(#p14087baf5e)" style="fill: none; stroke-dasharray: 0.925,0.4; stroke-dashoffset: 0; stroke: #000000; stroke-width: 0.25"/>
   </g>
   <g id="line2d_31">
    <path d="M 205.633131 168.539864 
L 203.996411 168.571104 
L 202.361086 168.598673 
L 200.727044 168.621596 
L 199.094203 168.640321 
L 197.46248 168.655314 
L 195.831794 168.667048 
L 194.202066 168.675977 
L 192.573218 168.682531 
L 190.945174 168.687108 
L 189.317863 168.690066 
L 187.691216 168.691724 
L 186.065168 168.692362 
L 184.439657 168.692221 
L 182.814626 168.691504 
L 181.190021 168.69038 
L 179.565794 168.68899 
L 177.941897 168.687443 
L 176.31829 168.685827 
L 174.694934 168.684208 
L 173.071794 168.682634 
L 171.448838 168.681138 
L 169.826039 168.67974 
L 168.203369 168.678449 
L 166.580807 168.677268 
L 164.958332 168.67619 
L 163.335926 168.675205 
L 161.713572 168.674299 
L 160.091256 168.673453 
L 158.468967 168.672649 
L 156.846692 168.671846 
" clip-path="url(#p14087baf5e)" style="fill: none; stroke: #ff0000; stroke-opacity: 0.2; stroke-width: 0.25; stroke-linecap: square"/>
   </g>
   <g id="line2d_32">
    <path d="M 205.633131 168.539864 
L 203.996393 168.57016 
L 202.361072 168.597756 
L 200.727039 168.620746 
L 199.094209 168.639565 
L 197.4625 168.654673 
L 195.831831 168.666532 
L 194.202122 168.675589 
L 192.573295 168.682269 
L 190.945274 168.686964 
L 189.317987 168.690029 
L 187.691365 168.691781 
L 186.065342 168.692497 
L 184.439857 168.692416 
L 182.814852 168.691743 
L 181.190274 168.690646 
L 179.566071 168.689267 
L 177.942199 168.687717 
L 176.318615 168.686085 
L 174.69528 168.684438 
L 173.072159 168.682825 
L 171.44922 168.681279 
L 169.826434 168.679822 
L 168.203775 168.678462 
L 166.58122 168.677202 
L 164.958747 168.676035 
L 163.336338 168.674949 
L 161.713977 168.67393 
L 160.091649 168.672958 
L 158.46934 168.672015 
L 156.84704 168.671086 
" clip-path="url(#p14087baf5e)" style="fill: none; stroke: #ff0000; stroke-opacity: 0.4; stroke-width: 0.25; stroke-linecap: square"/>
   </g>
   <g id="line2d_33">
    <path d="M 205.633131 168.539864 
L 203.996382 168.569551 
L 202.36106 168.597179 
L 200.727024 168.620218 
L 199.09419 168.639096 
L 197.462476 168.654266 
L 195.8318 168.666185 
L 194.202082 168.675298 
L 192.573245 168.682027 
L 190.945214 168.686763 
L 189.317915 168.689861 
L 187.691281 168.691637 
L 186.065246 168.692371 
L 184.439748 168.692303 
L 182.81473 168.691639 
L 181.190139 168.690551 
L 179.565923 168.689179 
L 177.942039 168.687638 
L 176.318443 168.686017 
L 174.695096 168.684384 
L 173.071965 168.682789 
L 171.449017 168.681266 
L 169.826223 168.679836 
L 168.203558 168.67851 
L 166.580997 168.677288 
L 164.958522 168.676165 
L 163.336112 168.675129 
L 161.713752 168.674167 
L 160.091428 168.673259 
L 158.469126 168.672385 
L 156.846835 168.671521 
" clip-path="url(#p14087baf5e)" style="fill: none; stroke: #ff0000; stroke-opacity: 0.6; stroke-width: 0.25; stroke-linecap: square"/>
   </g>
   <g id="line2d_34">
    <path d="M 205.633131 168.539864 
L 203.996375 168.569165 
L 202.361054 168.596827 
L 200.72702 168.61991 
L 199.09419 168.638834 
L 197.462479 168.654051 
L 195.831807 168.666013 
L 194.202095 168.675166 
L 192.573263 168.681929 
L 190.945237 168.686694 
L 189.317945 168.689815 
L 187.691317 168.69161 
L 186.065289 168.692359 
L 184.439798 168.692304 
L 182.814787 168.691649 
L 181.190203 168.690567 
L 179.565995 168.689199 
L 177.942117 168.68766 
L 176.318528 168.686038 
L 174.695188 168.684402 
L 173.072063 168.6828 
L 171.449121 168.681267 
L 169.826332 168.679824 
L 168.203671 168.678481 
L 166.581115 168.677238 
L 164.958642 168.676091 
L 163.336234 168.675028 
L 161.713876 168.674034 
L 160.091551 168.673091 
L 158.469248 168.672179 
L 156.846955 168.671279 
" clip-path="url(#p14087baf5e)" style="fill: none; stroke: #ff0000; stroke-opacity: 0.8; stroke-width: 0.25; stroke-linecap: square"/>
   </g>
   <g id="line2d_35">
    <path d="M 205.633131 168.539864 
L 203.996371 168.568916 
L 202.36105 168.596605 
L 200.727016 168.619716 
L 199.094184 168.63867 
L 197.462472 168.653914 
L 195.831799 168.665901 
L 194.202084 168.675075 
L 192.57325 168.681856 
L 190.945222 168.686635 
L 189.317926 168.689768 
L 187.691296 168.691574 
L 186.065264 168.692331 
L 184.439769 168.692282 
L 182.814755 168.691633 
L 181.190167 168.690556 
L 179.565955 168.689193 
L 177.942074 168.687658 
L 176.318481 168.68604 
L 174.695138 168.684408 
L 173.07201 168.682812 
L 171.449064 168.681286 
L 169.826272 168.67985 
L 168.203609 168.678515 
L 166.58105 168.677283 
L 164.958575 168.676148 
L 163.336166 168.675099 
L 161.713807 168.674121 
L 160.091482 168.673195 
L 158.469178 168.672302 
L 156.846886 168.671421 
" clip-path="url(#p14087baf5e)" style="fill: none; stroke: #ff0000; stroke-width: 0.25; stroke-linecap: square"/>
   </g>
   <g id="line2d_36">
    <path d="M 241.890365 131.607325 
L 241.914053 130.135225 
L 241.935439 128.660387 
L 241.95389 127.182919 
L 241.969615 125.702944 
L 241.982846 124.220587 
L 241.993823 122.735974 
L 242.002791 121.249228 
L 242.009987 119.760475 
L 242.015642 118.269837 
L 242.01997 116.777435 
L 242.023172 115.283387 
L 242.025427 113.787811 
L 242.026901 112.290819 
L 242.027739 110.792522 
L 242.028069 109.293027 
L 242.028 107.792438 
L 242.027627 106.290854 
L 242.02703 104.788373 
L 242.026274 103.285087 
L 242.025413 101.781085 
L 242.02449 100.27645 
L 242.023536 98.771263 
L 242.022577 97.2656 
L 242.021628 95.759534 
L 242.020701 94.253132 
L 242.0198 92.746456 
L 242.018926 91.239568 
L 242.018078 89.732521 
L 242.017248 88.225367 
L 242.01644 86.718151 
" clip-path="url(#p14087baf5e)" style="fill: none; stroke: #ff0000; stroke-opacity: 0.2; stroke-width: 0.25; stroke-linecap: square"/>
   </g>
   <g id="line2d_37">
    <path d="M 241.890365 131.607325 
L 241.913621 130.135218 
L 241.935039 128.660392 
L 241.953534 127.18295 
L 241.969314 125.703015 
L 241.982603 124.220713 
L 241.99364 122.736169 
L 242.002667 121.24951 
L 242.009919 119.760862 
L 242.015623 118.270346 
L 242.019994 116.778086 
L 242.02323 115.284201 
L 242.025513 113.788809 
L 242.027005 112.292023 
L 242.027853 110.793955 
L 242.028184 109.294714 
L 242.02811 107.794403 
L 242.027725 106.293124 
L 242.027108 104.790973 
L 242.026328 103.288044 
L 242.025436 101.784426 
L 242.024476 100.280204 
L 242.023481 98.775458 
L 242.022474 97.270265 
L 242.021473 95.764697 
L 242.020488 94.258821 
L 242.019524 92.752701 
L 242.018582 91.246397 
L 242.01766 89.739962 
L 242.016753 88.233447 
L 242.015849 86.726899 
" clip-path="url(#p14087baf5e)" style="fill: none; stroke: #ff0000; stroke-opacity: 0.4; stroke-width: 0.25; stroke-linecap: square"/>
   </g>
   <g id="line2d_38">
    <path d="M 241.890365 131.607325 
L 241.913392 130.135214 
L 241.93483 128.660381 
L 241.953348 127.182921 
L 241.96915 125.70296 
L 241.98246 124.220622 
L 241.993516 122.736032 
L 242.002559 121.249318 
L 242.009823 119.760602 
L 242.015537 118.27001 
L 242.019916 116.777661 
L 242.023157 115.283677 
L 242.025443 113.788172 
L 242.02694 112.291262 
L 242.027792 110.793058 
L 242.028129 109.293667 
L 242.028061 107.793194 
L 242.027685 106.291739 
L 242.027081 104.789399 
L 242.026315 103.286267 
L 242.025441 101.782433 
L 242.024501 100.27798 
L 242.023529 98.77299 
L 242.022549 97.267539 
L 242.021578 95.761699 
L 242.020626 94.255538 
L 242.019698 92.74912 
L 242.018795 91.242504 
L 242.017915 89.735745 
L 242.017052 88.228893 
L 242.016201 86.721995 
" clip-path="url(#p14087baf5e)" style="fill: none; stroke: #ff0000; stroke-opacity: 0.6; stroke-width: 0.25; stroke-linecap: square"/>
   </g>
   <g id="line2d_39">
    <path d="M 241.890365 131.607325 
L 241.913276 130.135212 
L 241.93473 128.660385 
L 241.953264 127.182937 
L 241.969082 125.702993 
L 241.982406 124.220677 
L 241.993475 122.736117 
L 242.002528 121.249437 
L 242.009801 119.760763 
L 242.015523 118.270218 
L 242.019907 116.777923 
L 242.023154 115.283999 
L 242.025445 113.788561 
L 242.026944 112.291725 
L 242.027798 110.793602 
L 242.028136 109.294298 
L 242.028068 107.793919 
L 242.02769 106.292565 
L 242.027082 104.790334 
L 242.02631 103.287317 
L 242.025428 101.783605 
L 242.024479 100.279282 
L 242.023495 98.774427 
L 242.022501 97.269119 
L 242.021513 95.763428 
L 242.020543 94.257423 
L 242.019594 92.751167 
L 242.018669 91.244719 
L 242.017765 89.738134 
L 242.016876 88.231462 
L 242.015996 86.724749 
" clip-path="url(#p14087baf5e)" style="fill: none; stroke: #ff0000; stroke-opacity: 0.8; stroke-width: 0.25; stroke-linecap: square"/>
   </g>
   <g id="line2d_40">
    <path d="M 241.890365 131.607325 
L 241.913214 130.135211 
L 241.934677 128.66038 
L 241.95322 127.182926 
L 241.969044 125.702971 
L 241.982374 124.220642 
L 241.993448 122.736064 
L 242.002505 121.249363 
L 242.009782 119.760664 
L 242.015506 118.270091 
L 242.019893 116.777764 
L 242.023141 115.283804 
L 242.025434 113.788327 
L 242.026935 112.291448 
L 242.027791 110.793277 
L 242.028131 109.293923 
L 242.028065 107.793489 
L 242.02769 106.292077 
L 242.027086 104.789784 
L 242.026318 103.286702 
L 242.025441 101.782921 
L 242.024497 100.278525 
L 242.023521 98.773595 
L 242.022535 97.268208 
L 242.021556 95.762435 
L 242.020596 94.256344 
L 242.01966 92.749999 
L 242.018747 91.24346 
L 242.017857 89.736781 
L 242.016983 88.230012 
L 242.016119 86.7232 
" clip-path="url(#p14087baf5e)" style="fill: none; stroke: #ff0000; stroke-width: 0.25; stroke-linecap: square"/>
   </g>
   <g id="line2d_41">
    <path d="M 230.291253 208.012742 
L 230.303925 209.615522 
L 230.315212 211.218547 
L 230.323303 212.821825 
L 230.328755 214.425345 
L 230.332069 216.0291 
L 230.333683 217.633081 
L 230.333978 219.237282 
L 230.333281 220.841694 
L 230.331865 222.446309 
L 230.329957 224.051121 
L 230.327743 225.65612 
L 230.325371 227.261297 
L 230.322954 228.866644 
L 230.320581 230.472149 
L 230.318315 232.077804 
L 230.316199 233.683597 
L 230.314262 235.289519 
L 230.312517 236.89556 
L 230.31097 238.501707 
L 230.309617 240.107953 
L 230.308449 241.714285 
L 230.307452 243.320694 
L 230.306608 244.927171 
L 230.305901 246.533705 
L 230.305309 248.140288 
L 230.304812 249.74691 
L 230.30439 251.353564 
L 230.304022 252.960241 
L 230.30369 254.566934 
L 230.303338 256.173636 
" clip-path="url(#p14087baf5e)" style="fill: none; stroke: #ff0000; stroke-opacity: 0.2; stroke-width: 0.25; stroke-linecap: square"/>
   </g>
   <g id="line2d_42">
    <path d="M 230.291253 208.012742 
L 230.302348 209.615534 
L 230.313701 211.218555 
L 230.321916 212.821826 
L 230.327536 214.425336 
L 230.331045 216.029077 
L 230.33287 217.633041 
L 230.333378 219.23722 
L 230.332888 220.841607 
L 230.331666 222.446194 
L 230.329933 224.050973 
L 230.32787 225.655935 
L 230.325622 227.261071 
L 230.323304 228.866371 
L 230.321002 230.471826 
L 230.318783 232.077425 
L 230.31669 233.683159 
L 230.314756 235.289016 
L 230.312996 236.894986 
L 230.311418 238.501059 
L 230.310022 240.107224 
L 230.3088 241.713471 
L 230.307739 243.319791 
L 230.306824 244.926172 
L 230.306037 246.532607 
L 230.305357 248.139085 
L 230.304764 249.745598 
L 230.304235 251.352138 
L 230.303749 252.958697 
L 230.303284 254.565268 
L 230.302836 256.171843 
" clip-path="url(#p14087baf5e)" style="fill: none; stroke: #ff0000; stroke-opacity: 0.4; stroke-width: 0.25; stroke-linecap: square"/>
   </g>
   <g id="line2d_43">
    <path d="M 230.291253 208.012742 
L 230.301375 209.615541 
L 230.312788 211.218563 
L 230.321088 212.821837 
L 230.326803 214.425353 
L 230.33041 216.029102 
L 230.332327 217.633077 
L 230.332918 219.237268 
L 230.332499 220.841671 
L 230.331333 222.446275 
L 230.329643 224.051074 
L 230.327611 225.656058 
L 230.325384 227.261218 
L 230.323079 228.866545 
L 230.320785 230.472029 
L 230.318571 232.077661 
L 230.316485 233.683428 
L 230.314557 235.289322 
L 230.312807 236.895332 
L 230.311244 238.501447 
L 230.309867 240.107657 
L 230.308668 241.713951 
L 230.307636 243.32032 
L 230.306754 244.926754 
L 230.306005 246.533243 
L 230.305368 248.139778 
L 230.304823 249.74635 
L 230.304348 251.352951 
L 230.303921 252.959573 
L 230.303523 254.566208 
L 230.303126 256.172851 
" clip-path="url(#p14087baf5e)" style="fill: none; stroke: #ff0000; stroke-opacity: 0.6; stroke-width: 0.25; stroke-linecap: square"/>
   </g>
   <g id="line2d_44">
    <path d="M 230.291253 208.012742 
L 230.300785 209.615544 
L 230.31226 211.218565 
L 230.320631 212.821836 
L 230.326421 214.425348 
L 230.330099 216.029092 
L 230.332082 217.633059 
L 230.332733 219.237243 
L 230.332364 220.841636 
L 230.331242 222.44623 
L 230.329588 224.051017 
L 230.327587 225.655988 
L 230.325386 227.261134 
L 230.323103 228.866445 
L 230.320827 230.471912 
L 230.318628 232.077524 
L 230.316553 233.683272 
L 230.314634 235.289145 
L 230.312889 236.895132 
L 230.311327 238.501223 
L 230.309946 240.107407 
L 230.30874 241.713675 
L 230.307697 243.320016 
L 230.3068 244.92642 
L 230.306032 246.532879 
L 230.305372 248.139382 
L 230.304801 249.745922 
L 230.304295 251.35249 
L 230.303836 252.959077 
L 230.303401 254.565678 
L 230.302973 256.172284 
" clip-path="url(#p14087baf5e)" style="fill: none; stroke: #ff0000; stroke-opacity: 0.8; stroke-width: 0.25; stroke-linecap: square"/>
   </g>
   <g id="line2d_45">
    <path d="M 230.291253 208.012742 
L 230.300419 209.615546 
L 230.311938 211.218568 
L 230.320353 212.82184 
L 230.326186 214.425354 
L 230.329902 216.029101 
L 230.331918 217.633072 
L 230.332597 219.237261 
L 230.332251 220.841659 
L 230.331147 222.446259 
L 230.329508 224.051053 
L 230.327518 225.656031 
L 230.325326 227.261185 
L 230.32305 228.866506 
L 230.32078 230.471983 
L 230.318585 232.077606 
L 230.316514 233.683365 
L 230.314598 235.28925 
L 230.312856 236.89525 
L 230.311297 238.501354 
L 230.30992 240.107553 
L 230.308719 241.713835 
L 230.307682 243.320192 
L 230.306793 244.926613 
L 230.306034 246.533088 
L 230.305386 248.139608 
L 230.304827 249.746166 
L 230.304336 251.352752 
L 230.303893 252.959358 
L 230.303476 254.565977 
L 230.303064 256.172603 
" clip-path="url(#p14087baf5e)" style="fill: none; stroke: #ff0000; stroke-width: 0.25; stroke-linecap: square"/>
   </g>
   <g id="line2d_46">
    <path d="M 269.664434 180.382325 
L 271.270688 180.370358 
L 272.876705 180.359733 
L 274.482526 180.352554 
L 276.08817 180.348172 
L 277.693658 180.346012 
L 279.299011 180.345579 
L 280.904249 180.346447 
L 282.509391 180.348257 
L 284.114454 180.350712 
L 285.719456 180.353571 
L 287.32441 180.356639 
L 288.929329 180.359766 
L 290.534224 180.362837 
L 292.139105 180.36577 
L 293.743978 180.368508 
L 295.348851 180.371012 
L 296.953729 180.373265 
L 298.558616 180.375259 
L 300.163515 180.376998 
L 301.768428 180.378494 
L 303.373356 180.379764 
L 304.978299 180.380829 
L 306.583258 180.381711 
L 308.188231 180.382435 
L 309.793217 180.383026 
L 311.398215 180.383509 
L 313.003222 180.383907 
L 314.608236 180.384244 
L 316.213256 180.384543 
L 317.818278 180.384866 
" clip-path="url(#p14087baf5e)" style="fill: none; stroke: #ff0000; stroke-opacity: 0.2; stroke-width: 0.25; stroke-linecap: square"/>
   </g>
   <g id="line2d_47">
    <path d="M 269.664434 180.382325 
L 271.270701 180.372212 
L 272.876714 180.361512 
L 274.482527 180.354189 
L 276.088159 180.349611 
L 277.693632 180.347225 
L 279.298967 180.346547 
L 280.904182 180.347166 
L 282.509299 180.348734 
L 284.114333 180.350962 
L 285.719302 180.353616 
L 287.324219 180.356507 
L 288.929097 180.359486 
L 290.533947 180.362442 
L 292.138779 180.365289 
L 293.743601 180.36797 
L 295.348418 180.370444 
L 296.953237 180.372691 
L 298.558061 180.3747 
L 300.162893 180.376472 
L 301.767736 180.378015 
L 303.37259 180.379345 
L 304.977457 180.380479 
L 306.582337 180.381441 
L 308.187227 180.382253 
L 309.792129 180.382941 
L 311.397039 180.38353 
L 313.001957 180.384047 
L 314.60688 180.384515 
L 316.211807 180.384961 
L 317.816735 180.385388 
" clip-path="url(#p14087baf5e)" style="fill: none; stroke: #ff0000; stroke-opacity: 0.4; stroke-width: 0.25; stroke-linecap: square"/>
   </g>
   <g id="line2d_48">
    <path d="M 269.664434 180.382325 
L 271.270708 180.373365 
L 272.876722 180.362594 
L 274.482539 180.355172 
L 276.088178 180.350481 
L 277.693659 180.347979 
L 279.299004 180.347191 
L 280.904232 180.34771 
L 282.509363 180.349193 
L 284.114415 180.351353 
L 285.719403 180.353954 
L 287.324341 180.356807 
L 288.929243 180.35976 
L 290.534119 180.362699 
L 292.138978 180.365536 
L 293.743829 180.36821 
L 295.348678 180.370679 
L 296.95353 180.372918 
L 298.558389 180.374916 
L 300.163259 180.376673 
L 301.76814 180.378196 
L 303.373036 180.3795 
L 304.977945 180.380604 
L 306.582868 180.38153 
L 308.187804 180.382301 
L 309.792752 180.382943 
L 311.39771 180.38348 
L 313.002676 180.383938 
L 314.607649 180.384342 
L 316.212626 180.384715 
L 317.817605 180.385088 
" clip-path="url(#p14087baf5e)" style="fill: none; stroke: #ff0000; stroke-opacity: 0.6; stroke-width: 0.25; stroke-linecap: square"/>
   </g>
   <g id="line2d_49">
    <path d="M 269.664434 180.382325 
L 271.270711 180.374071 
L 272.876724 180.363227 
L 274.482538 180.35572 
L 276.088173 180.350942 
L 277.693649 180.348354 
L 279.298987 180.347487 
L 280.904208 180.347936 
L 282.50933 180.349358 
L 284.114372 180.351465 
L 285.719348 180.354023 
L 287.324274 180.356838 
L 288.929162 180.359761 
L 290.534023 180.362674 
L 292.138867 180.365489 
L 293.743701 180.368145 
L 295.348531 180.3706 
L 296.953364 180.372829 
L 298.558203 180.37482 
L 300.163051 180.376575 
L 301.767911 180.378101 
L 303.372783 180.379413 
L 304.977668 180.380529 
L 306.582566 180.38147 
L 308.187477 180.382262 
L 309.792399 180.382928 
L 311.39733 180.383494 
L 313.002269 180.383985 
L 314.607214 180.384424 
L 316.212163 180.384838 
L 317.817114 180.385243 
" clip-path="url(#p14087baf5e)" style="fill: none; stroke: #ff0000; stroke-opacity: 0.8; stroke-width: 0.25; stroke-linecap: square"/>
   </g>
   <g id="line2d_50">
    <path d="M 269.664434 180.382325 
L 271.270714 180.374511 
L 272.876727 180.363616 
L 274.482542 180.356056 
L 276.088178 180.351226 
L 277.693657 180.348592 
L 279.298999 180.347684 
L 280.904224 180.348099 
L 282.509352 180.349493 
L 284.114399 180.351579 
L 285.719382 180.354118 
L 287.324315 180.356919 
L 288.929211 180.359831 
L 290.534081 180.362735 
L 292.138933 180.365544 
L 293.743776 180.368194 
L 295.348617 180.370645 
L 296.953461 180.37287 
L 298.558311 180.374858 
L 300.163171 180.37661 
L 301.768043 180.378132 
L 303.372928 180.379438 
L 304.977827 180.380548 
L 306.582739 180.381481 
L 308.187664 180.382263 
L 309.7926 180.382918 
L 311.397546 180.38347 
L 313.0025 180.383945 
L 314.60746 180.384368 
L 316.212424 180.384762 
L 317.817391 180.385151 
" clip-path="url(#p14087baf5e)" style="fill: none; stroke: #ff0000; stroke-width: 0.25; stroke-linecap: square"/>
   </g>
   <g id="line2d_51">
    <path d="M 244.412301 179.374355 
L 244.688713 177.678011 
L 244.945315 175.975781 
L 245.097902 174.259777 
L 245.031349 172.538744 
L 244.671655 170.856991 
L 244.117643 169.233919 
L 243.41774 167.675968 
L 242.657043 166.157349 
L 242.039877 164.587723 
L 241.575317 162.980981 
L 241.2483 161.356508 
L 241.049464 159.727602 
L 240.973936 158.104134 
L 240.980667 156.493658 
L 241.026906 154.89717 
L 241.098015 153.313611 
L 241.182087 151.741447 
L 241.273808 150.179286 
L 241.367797 148.625717 
L 241.460238 147.079465 
L 241.548585 145.539403 
L 241.631331 144.004546 
L 241.707795 142.474032 
L 241.777945 140.947101 
L 241.842227 139.423074 
L 241.901428 137.901339 
L 241.956562 136.381342 
L 242.008779 134.862576 
L 242.059307 133.344584 
L 242.109057 131.826939 
" clip-path="url(#p14087baf5e)" style="fill: none; stroke: #ff0000; stroke-opacity: 0.2; stroke-width: 0.25; stroke-linecap: square"/>
   </g>
   <g id="line2d_52">
    <path d="M 244.412301 179.374355 
L 244.690477 177.678299 
L 244.948872 175.976336 
L 245.103421 174.260507 
L 245.039027 172.539398 
L 244.681663 170.857168 
L 244.130049 169.233318 
L 243.432003 167.674596 
L 242.671946 166.155742 
L 242.056111 164.585695 
L 241.592631 162.978754 
L 241.266365 161.354252 
L 241.067855 159.725435 
L 240.99194 158.102117 
L 240.997447 156.491772 
L 241.042343 154.895384 
L 241.112066 153.311905 
L 241.194933 151.739822 
L 241.285429 150.177738 
L 241.378178 148.624248 
L 241.469361 147.078079 
L 241.556432 145.538108 
L 241.637877 144.003352 
L 241.71301 142.472949 
L 241.781791 140.94614 
L 241.844658 139.422247 
L 241.902393 137.900657 
L 241.956005 136.380816 
L 242.006646 134.862218 
L 242.055555 133.344404 
L 242.103736 131.826952 
" clip-path="url(#p14087baf5e)" style="fill: none; stroke: #ff0000; stroke-opacity: 0.4; stroke-width: 0.25; stroke-linecap: square"/>
   </g>
   <g id="line2d_53">
    <path d="M 244.412301 179.374355 
L 244.690591 177.678318 
L 244.948856 175.976312 
L 245.103232 174.260427 
L 245.038697 172.539275 
L 244.681343 170.856992 
L 244.131247 169.23258 
L 243.433601 167.673639 
L 242.673863 166.154597 
L 242.059114 164.584111 
L 241.59661 162.976887 
L 241.271208 161.35222 
L 241.073373 159.723338 
L 240.997678 158.100032 
L 241.002757 156.489714 
L 241.047246 154.893347 
L 241.116629 153.30989 
L 241.198946 151.73782 
L 241.288913 150.175752 
L 241.381157 148.622282 
L 241.471865 147.076142 
L 241.558487 145.536206 
L 241.639509 144.001493 
L 241.71424 142.471143 
L 241.782632 140.944394 
L 241.845119 139.420569 
L 241.902476 137.899056 
L 241.955707 136.379299 
L 242.005956 134.860794 
L 242.054452 133.34308 
L 242.10226 131.825736 
" clip-path="url(#p14087baf5e)" style="fill: none; stroke: #ff0000; stroke-opacity: 0.6; stroke-width: 0.25; stroke-linecap: square"/>
   </g>
   <g id="line2d_54">
    <path d="M 244.412301 179.374355 
L 244.691184 177.678415 
L 244.949886 175.976481 
L 245.104718 174.260654 
L 245.040716 172.539514 
L 244.684033 170.857141 
L 244.134597 169.232582 
L 243.436964 167.673741 
L 242.677609 166.154641 
L 242.063978 164.583867 
L 241.602528 162.976502 
L 241.27811 161.351808 
L 241.081112 159.722999 
L 241.005819 158.099853 
L 241.010649 156.489713 
L 241.054903 154.89352 
L 241.12411 153.310236 
L 241.205832 151.738317 
L 241.295199 150.176398 
L 241.38685 148.623079 
L 241.476979 147.077092 
L 241.563041 145.537314 
L 241.643522 144.002764 
L 241.717731 142.472583 
L 241.785617 140.946009 
L 241.847611 139.422365 
L 241.904482 137.901039 
L 241.95723 136.381476 
L 242.006997 134.863169 
L 242.055 133.345659 
L 242.102344 131.828527 
" clip-path="url(#p14087baf5e)" style="fill: none; stroke: #ff0000; stroke-opacity: 0.8; stroke-width: 0.25; stroke-linecap: square"/>
   </g>
   <g id="line2d_55">
    <path d="M 244.412301 179.374355 
L 244.691877 177.678529 
L 244.951126 175.976706 
L 245.106511 174.260983 
L 245.043112 172.539904 
L 244.687114 170.857501 
L 244.136871 169.233365 
L 243.439202 167.674727 
L 242.680008 166.155764 
L 242.067204 164.584896 
L 241.606533 162.977542 
L 241.282843 161.352938 
L 241.086447 159.724288 
L 241.011329 158.101359 
L 241.015668 156.491432 
L 241.059456 154.895434 
L 241.128264 153.312333 
L 241.209256 151.74057 
L 241.297918 150.178798 
L 241.3889 148.625622 
L 241.478404 147.079777 
L 241.563889 145.540142 
L 241.643843 144.005737 
L 241.717572 142.475703 
L 241.785022 140.949279 
L 241.846616 139.425789 
L 241.903121 137.90462 
L 241.95553 136.385216 
L 242.004973 134.867073 
L 242.052651 133.349731 
L 242.099693 131.832769 
" clip-path="url(#p14087baf5e)" style="fill: none; stroke: #ff0000; stroke-width: 0.25; stroke-linecap: square"/>
   </g>
   <g id="line2d_56">
    <path d="M 241.657241 164.139996 
L 240.037361 163.764082 
L 238.385448 163.582121 
L 236.727749 163.653042 
L 235.095413 163.925038 
L 233.491822 164.309454 
L 231.920195 164.785628 
L 230.372251 165.311419 
L 228.832141 165.83724 
L 227.288103 166.328634 
L 225.737896 166.777164 
L 224.181433 167.179969 
L 222.619003 167.534729 
L 221.051423 167.840695 
L 219.479624 168.097412 
L 217.905076 168.307951 
L 216.329122 168.476511 
L 214.752852 168.607921 
L 213.177136 168.708486 
L 211.602363 168.781517 
L 210.028823 168.83177 
L 208.45661 168.863158 
L 206.8857 168.879383 
L 205.315984 168.883711 
L 203.747305 168.878981 
L 202.179479 168.867639 
L 200.612313 168.851769 
L 199.04562 168.833141 
L 197.479226 168.813158 
L 195.912982 168.792362 
L 194.346821 168.76783 
" clip-path="url(#p14087baf5e)" style="fill: none; stroke: #ff0000; stroke-opacity: 0.2; stroke-width: 0.25; stroke-linecap: square"/>
   </g>
   <g id="line2d_57">
    <path d="M 241.657241 164.139996 
L 240.037095 163.76523 
L 238.38524 163.582831 
L 236.727542 163.653358 
L 235.095193 163.925134 
L 233.49159 164.309393 
L 231.919924 164.785353 
L 230.371918 165.310898 
L 228.83173 165.836444 
L 227.28758 166.327454 
L 225.737272 166.775614 
L 224.180722 167.178079 
L 222.618227 167.532545 
L 221.050603 167.838276 
L 219.478782 168.094823 
L 217.90423 168.305262 
L 216.32829 168.473789 
L 214.752047 168.605223 
L 213.176357 168.705661 
L 211.601628 168.77862 
L 210.028146 168.828802 
L 208.456007 168.86014 
L 206.885189 168.876312 
L 205.315584 168.880559 
L 203.747036 168.875693 
L 202.179364 168.864126 
L 200.612377 168.847911 
L 199.04589 168.828779 
L 197.479729 168.808114 
L 195.913745 168.786664 
L 194.347849 168.762621 
" clip-path="url(#p14087baf5e)" style="fill: none; stroke: #ff0000; stroke-opacity: 0.4; stroke-width: 0.25; stroke-linecap: square"/>
   </g>
   <g id="line2d_58">
    <path d="M 241.657241 164.139996 
L 240.036846 163.766307 
L 238.385039 163.583763 
L 236.727402 163.654412 
L 235.095197 163.92661 
L 233.491785 164.311316 
L 231.9203 164.787582 
L 230.372435 165.313289 
L 228.832339 165.838878 
L 227.288223 166.329785 
L 225.737941 166.777841 
L 224.181419 167.180215 
L 222.618955 167.534622 
L 221.051368 167.840336 
L 219.479592 168.096919 
L 217.905091 168.307448 
L 216.329207 168.476121 
L 214.753022 168.607747 
L 213.177385 168.708248 
L 211.602714 168.781314 
L 210.029297 168.831608 
L 208.457232 168.863075 
L 206.886496 168.879377 
L 205.316985 168.883735 
L 203.748545 168.878938 
L 202.180994 168.867378 
L 200.614146 168.851084 
L 199.047817 168.831762 
L 197.481834 168.810787 
L 195.916046 168.789049 
L 194.350351 168.765537 
" clip-path="url(#p14087baf5e)" style="fill: none; stroke: #ff0000; stroke-opacity: 0.6; stroke-width: 0.25; stroke-linecap: square"/>
   </g>
   <g id="line2d_59">
    <path d="M 241.657241 164.139996 
L 240.036667 163.767084 
L 238.384916 163.584231 
L 236.727314 163.654792 
L 235.095189 163.927175 
L 233.491884 164.312098 
L 231.920485 164.78847 
L 230.37266 165.314147 
L 228.832555 165.83959 
L 227.288379 166.330217 
L 225.738035 166.777991 
L 224.181455 167.180099 
L 222.618942 167.534266 
L 221.051316 167.839782 
L 219.47951 168.096213 
L 217.90499 168.306643 
L 216.329093 168.475267 
L 214.752901 168.606889 
L 213.177252 168.70728 
L 211.602576 168.78028 
L 210.02916 168.830516 
L 208.457101 168.861947 
L 206.88638 168.878219 
L 205.316892 168.882538 
L 203.748484 168.877676 
L 202.180976 168.866009 
L 200.614184 168.849548 
L 199.047924 168.829985 
L 197.482026 168.808692 
L 195.916336 168.786652 
L 194.350742 168.763424 
" clip-path="url(#p14087baf5e)" style="fill: none; stroke: #ff0000; stroke-opacity: 0.8; stroke-width: 0.25; stroke-linecap: square"/>
   </g>
   <g id="line2d_60">
    <path d="M 241.657241 164.139996 
L 240.036514 163.767751 
L 238.384811 163.584658 
L 236.727247 163.655235 
L 235.09522 163.927917 
L 233.492047 164.313163 
L 231.920768 164.789746 
L 230.373017 165.315491 
L 228.832936 165.840881 
L 227.288736 166.331329 
L 225.738366 166.778926 
L 224.18176 167.180871 
L 222.619226 167.534904 
L 221.051587 167.840323 
L 219.479775 168.096703 
L 217.905253 168.30713 
L 216.329358 168.475801 
L 214.753171 168.607509 
L 213.177518 168.7079 
L 211.602843 168.780942 
L 210.02943 168.83123 
L 208.457378 168.862733 
L 206.886667 168.879088 
L 205.317195 168.883483 
L 203.748808 168.878681 
L 202.181329 168.867045 
L 200.614574 168.850573 
L 199.048362 168.830947 
L 197.482522 168.809542 
L 195.9169 168.787401 
L 194.351377 168.764491 
" clip-path="url(#p14087baf5e)" style="fill: none; stroke: #ff0000; stroke-width: 0.25; stroke-linecap: square"/>
   </g>
   <g id="line2d_61">
    <path d="M 231.256188 171.761218 
L 232.115547 173.289658 
L 233.125238 174.724448 
L 234.268655 176.05565 
L 235.534056 177.27136 
L 236.909512 178.359659 
L 238.381607 179.309686 
L 239.935719 180.111579 
L 241.55547 180.758331 
L 243.223753 181.245259 
L 244.923252 181.569596 
L 246.63668 181.730898 
L 248.346596 181.778189 
L 250.045556 181.808515 
L 251.733025 181.80991 
L 253.408179 181.763123 
L 255.069893 181.663366 
L 256.718999 181.529552 
L 258.358435 181.38926 
L 259.989783 181.249053 
L 261.614436 181.113715 
L 263.233576 180.986448 
L 264.848189 180.869079 
L 266.4591 180.762281 
L 268.067012 180.665802 
L 269.672544 180.57869 
L 271.276252 180.499456 
L 272.878646 180.426239 
L 274.480191 180.357059 
L 276.081284 180.290214 
L 277.68229 180.225575 
" clip-path="url(#p14087baf5e)" style="fill: none; stroke: #ff0000; stroke-opacity: 0.2; stroke-width: 0.25; stroke-linecap: square"/>
   </g>
   <g id="line2d_62">
    <path d="M 231.256188 171.761218 
L 232.115617 173.289618 
L 233.124949 174.724667 
L 234.26839 176.055859 
L 235.53393 177.271441 
L 236.90958 178.359516 
L 238.381874 179.309262 
L 239.936142 180.110887 
L 241.556018 180.757371 
L 243.224407 181.243995 
L 244.923994 181.567959 
L 246.637484 181.728739 
L 248.347419 181.775522 
L 250.046378 181.805532 
L 251.733825 181.806936 
L 253.408941 181.760394 
L 255.070605 181.660944 
L 256.719635 181.527382 
L 258.358978 181.387468 
L 259.990214 181.247772 
L 261.614735 181.113081 
L 263.233721 180.986602 
L 264.848152 180.870161 
L 266.458852 180.764433 
L 268.066522 180.669166 
L 269.671779 180.583406 
L 271.275178 180.505667 
L 272.87723 180.434088 
L 274.478402 180.366692 
L 276.079094 180.301721 
L 277.679672 180.238852 
" clip-path="url(#p14087baf5e)" style="fill: none; stroke: #ff0000; stroke-opacity: 0.4; stroke-width: 0.25; stroke-linecap: square"/>
   </g>
   <g id="line2d_63">
    <path d="M 231.256188 171.761218 
L 232.115849 173.289488 
L 233.12504 174.724641 
L 234.268303 176.056 
L 235.534741 177.270663 
L 236.911749 178.357044 
L 238.385278 179.304904 
L 239.939924 180.10584 
L 241.559689 180.752657 
L 243.227909 181.239945 
L 244.927407 181.564504 
L 246.640936 181.725106 
L 248.350904 181.771315 
L 250.049879 181.800905 
L 251.73732 181.802158 
L 253.412413 181.755648 
L 255.074032 181.656241 
L 256.722985 181.522614 
L 258.36223 181.382709 
L 259.993349 181.243102 
L 261.617731 181.108587 
L 263.236556 180.982373 
L 264.850802 180.866289 
L 266.461291 180.761014 
L 268.068722 180.666294 
L 269.673711 180.581179 
L 271.276813 180.504183 
L 272.878538 180.433452 
L 274.479354 180.36701 
L 276.079666 180.303062 
L 277.679839 180.241118 
" clip-path="url(#p14087baf5e)" style="fill: none; stroke: #ff0000; stroke-opacity: 0.6; stroke-width: 0.25; stroke-linecap: square"/>
   </g>
   <g id="line2d_64">
    <path d="M 231.256188 171.761218 
L 232.11618 173.289302 
L 233.125366 174.724477 
L 234.26847 176.056007 
L 235.535108 177.270521 
L 236.912489 178.356511 
L 238.386378 179.303927 
L 239.941083 180.104906 
L 241.560748 180.752196 
L 243.22887 181.24014 
L 244.928333 181.56541 
L 246.641914 181.726577 
L 248.351995 181.772422 
L 250.051073 181.80175 
L 251.738602 181.802983 
L 253.41377 181.756599 
L 255.075447 181.657287 
L 256.724423 181.523594 
L 258.363671 181.383658 
L 259.99477 181.244062 
L 261.619112 181.109608 
L 263.237873 180.98351 
L 264.852034 180.867602 
L 266.462411 180.762565 
L 268.069705 180.66815 
L 269.674531 180.583407 
L 271.277442 180.506854 
L 272.878948 180.436644 
L 274.47952 180.370806 
L 276.079563 180.307515 
L 277.679447 180.246137 
" clip-path="url(#p14087baf5e)" style="fill: none; stroke: #ff0000; stroke-opacity: 0.8; stroke-width: 0.25; stroke-linecap: square"/>
   </g>
   <g id="line2d_65">
    <path d="M 231.256188 171.761218 
L 232.116747 173.288983 
L 233.126203 174.723992 
L 234.269673 176.055258 
L 235.535752 177.270434 
L 236.912167 178.357765 
L 238.385158 179.306738 
L 239.939643 180.108362 
L 241.559485 180.755517 
L 243.227836 181.243134 
L 244.927476 181.568213 
L 246.641152 181.729913 
L 248.351398 181.775167 
L 250.05063 181.803965 
L 251.738296 181.804893 
L 253.413583 181.758335 
L 255.075353 181.658799 
L 256.724381 181.524706 
L 258.363659 181.38439 
L 259.994769 181.244443 
L 261.619102 181.109674 
L 263.237835 180.983303 
L 264.851947 180.86717 
L 266.462256 180.761958 
L 268.06946 180.667422 
L 269.674172 180.582614 
L 271.276947 180.506055 
L 272.878294 180.435905 
L 274.478683 180.370197 
L 276.078522 180.307079 
L 277.678183 180.245792 
" clip-path="url(#p14087baf5e)" style="fill: none; stroke: #ff0000; stroke-width: 0.25; stroke-linecap: square"/>
   </g>
   <g id="line2d_66">
    <path d="M 216.706087 181.781341 
L 218.002747 182.12699 
L 219.314728 182.493737 
L 220.641989 182.883343 
L 221.98824 183.285149 
L 223.357929 183.686619 
L 224.756321 184.071615 
L 226.189118 184.418824 
L 227.661579 184.698868 
L 229.177408 184.858232 
L 230.722906 184.737174 
L 232.268732 184.425926 
L 233.807662 183.974597 
L 235.325922 183.380081 
L 236.80845 182.640755 
L 238.239109 181.756861 
L 239.601037 180.730761 
L 240.87654 179.566441 
L 242.048281 178.27122 
L 243.100435 176.855951 
L 244.018886 175.333804 
L 244.790683 173.719129 
L 245.404391 172.027417 
L 245.850541 170.275493 
L 246.12195 168.481363 
L 246.213838 166.663841 
L 246.123735 164.842175 
L 245.851468 163.035734 
L 245.399148 161.263711 
L 244.82776 159.525214 
L 244.249006 157.788713 
" clip-path="url(#p14087baf5e)" style="fill: none; stroke: #ff0000; stroke-opacity: 0.2; stroke-width: 0.25; stroke-linecap: square"/>
   </g>
   <g id="line2d_67">
    <path d="M 216.706087 181.781341 
L 218.00253 182.127802 
L 219.314595 182.494301 
L 220.64195 182.883677 
L 221.988293 183.2853 
L 223.358061 183.686662 
L 224.756506 184.071659 
L 226.189328 184.419012 
L 227.661785 184.699401 
L 229.177577 184.85973 
L 230.723279 184.740459 
L 232.269478 184.430721 
L 233.808944 183.980971 
L 235.327858 183.387912 
L 236.811081 182.649784 
L 238.242418 181.766798 
L 239.605032 180.741418 
L 240.881471 179.577928 
L 242.054236 178.283432 
L 243.107155 176.868524 
L 244.025798 175.346272 
L 244.797447 173.731293 
L 245.410392 172.039055 
L 245.85532 170.286552 
L 246.125091 168.491886 
L 246.214996 166.67395 
L 246.122635 164.852052 
L 245.847904 163.045606 
L 245.393019 161.27382 
L 244.816456 159.536569 
L 244.239698 157.798905 
" clip-path="url(#p14087baf5e)" style="fill: none; stroke: #ff0000; stroke-opacity: 0.4; stroke-width: 0.25; stroke-linecap: square"/>
   </g>
   <g id="line2d_68">
    <path d="M 216.706087 181.781341 
L 218.00184 182.130374 
L 219.314173 182.496485 
L 220.641927 182.885561 
L 221.988767 183.287039 
L 223.359093 183.688485 
L 224.758134 184.073868 
L 226.191575 184.421987 
L 227.66469 184.703635 
L 229.181141 184.866919 
L 230.728293 184.752876 
L 232.27607 184.445273 
L 233.817344 183.997413 
L 235.338189 183.405765 
L 236.823335 182.668429 
L 238.256489 181.785617 
L 239.620824 180.759957 
L 240.899292 179.59628 
L 242.074376 178.301587 
L 243.129551 176.886141 
L 244.049813 175.362706 
L 244.82243 173.74606 
L 245.435782 172.05185 
L 245.880902 170.297265 
L 246.150807 168.500457 
L 246.240841 166.680313 
L 246.148616 164.856119 
L 245.873997 163.047267 
L 245.419032 161.272985 
L 244.833524 159.536072 
L 244.262021 157.793947 
" clip-path="url(#p14087baf5e)" style="fill: none; stroke: #ff0000; stroke-opacity: 0.6; stroke-width: 0.25; stroke-linecap: square"/>
   </g>
   <g id="line2d_69">
    <path d="M 216.706087 181.781341 
L 218.001099 182.133112 
L 219.313505 182.499175 
L 220.641399 182.888175 
L 221.988437 183.289568 
L 223.359014 183.690928 
L 224.758354 184.076223 
L 226.19214 184.424242 
L 227.665639 184.705771 
L 229.182401 184.869871 
L 230.730128 184.757724 
L 232.278611 184.451244 
L 233.820699 184.004337 
L 235.342368 183.413261 
L 236.828214 182.675964 
L 238.261866 181.792699 
L 239.626581 180.766353 
L 240.905589 179.60213 
L 242.08105 178.306679 
L 243.136487 176.890359 
L 244.056842 175.365927 
L 244.829667 173.748332 
L 245.443235 172.053145 
L 245.888812 170.297607 
L 246.159419 168.499811 
L 246.25038 166.678584 
L 246.159243 164.853161 
L 245.885778 163.042899 
L 245.431885 161.267031 
L 244.840425 159.530741 
L 244.270526 157.786653 
" clip-path="url(#p14087baf5e)" style="fill: none; stroke: #ff0000; stroke-opacity: 0.8; stroke-width: 0.25; stroke-linecap: square"/>
   </g>
   <g id="line2d_70">
    <path d="M 216.706087 181.781341 
L 217.99978 182.137932 
L 219.312089 182.504682 
L 220.639978 182.894341 
L 221.987109 183.296348 
L 223.35789 183.698249 
L 224.757557 184.083963 
L 226.191808 184.432201 
L 227.665909 184.713646 
L 229.183216 184.878711 
L 230.7318 184.768546 
L 232.281164 184.462495 
L 233.824209 184.015844 
L 235.34689 183.424834 
L 236.833783 182.687408 
L 238.268539 181.803887 
L 239.634477 180.777253 
L 240.915064 179.612949 
L 242.092391 178.317457 
L 243.14991 176.90102 
L 244.072307 175.376199 
L 244.847036 173.757924 
L 245.462303 172.061776 
L 245.90934 170.305032 
L 246.181059 168.505813 
L 246.272668 166.682999 
L 246.181626 164.855907 
L 245.907658 163.043993 
L 245.452752 161.266573 
L 244.853368 159.531096 
L 244.281211 157.785803 
" clip-path="url(#p14087baf5e)" style="fill: none; stroke: #ff0000; stroke-width: 0.25; stroke-linecap: square"/>
   </g>
   <g id="line2d_71">
    <path d="M 241.998091 224.974761 
L 241.983812 223.478025 
L 241.970902 221.983831 
L 241.95723 220.492234 
L 241.943033 219.003267 
L 241.928597 217.51696 
L 241.914268 216.033342 
L 241.900472 214.552436 
L 241.887734 213.074262 
L 241.87669 211.598836 
L 241.86811 210.126168 
L 241.862913 208.656267 
L 241.862185 207.18914 
L 241.867192 205.724795 
L 241.879399 204.263249 
L 241.900473 202.804529 
L 241.932294 201.348687 
L 241.976952 199.895807 
L 242.03674 198.446024 
L 242.114135 196.999536 
L 242.211764 195.556625 
L 242.332358 194.117673 
L 242.478676 192.683178 
L 242.653415 191.253758 
L 242.859067 189.830142 
L 243.097759 188.413144 
L 243.368876 187.003177 
L 243.671234 185.600509 
L 243.99982 184.20444 
L 244.346097 182.813102 
L 244.699769 181.423843 
" clip-path="url(#p14087baf5e)" style="fill: none; stroke: #ff0000; stroke-opacity: 0.2; stroke-width: 0.25; stroke-linecap: square"/>
   </g>
   <g id="line2d_72">
    <path d="M 241.998091 224.974761 
L 241.98347 223.478028 
L 241.970201 221.983807 
L 241.956096 220.492152 
L 241.941384 219.003092 
L 241.926344 217.516656 
L 241.911317 216.03287 
L 241.896722 214.551754 
L 241.88308 213.073324 
L 241.871023 211.597595 
L 241.861323 210.124573 
L 241.854903 208.654265 
L 241.852859 207.186672 
L 241.856477 205.7218 
L 241.867247 204.259659 
L 241.886877 202.800276 
L 241.9173 201.343699 
L 241.960677 199.890011 
L 242.019393 198.439349 
L 242.096038 196.99192 
L 242.193384 195.54802 
L 242.314329 194.108059 
L 242.461833 192.672578 
L 242.638822 191.242256 
L 242.848037 189.817913 
L 243.091858 188.400474 
L 243.369153 186.990331 
L 243.678745 185.587807 
L 244.015546 184.192213 
L 244.370847 182.801634 
L 244.733012 181.413031 
" clip-path="url(#p14087baf5e)" style="fill: none; stroke: #ff0000; stroke-opacity: 0.4; stroke-width: 0.25; stroke-linecap: square"/>
   </g>
   <g id="line2d_73">
    <path d="M 241.998091 224.974761 
L 241.983424 223.478029 
L 241.970101 221.983799 
L 241.955925 220.492124 
L 241.941128 219.003037 
L 241.925985 217.516564 
L 241.910838 216.03273 
L 241.896105 214.551558 
L 241.882304 213.073062 
L 241.87007 211.597257 
L 241.860171 210.12415 
L 241.853533 208.653745 
L 241.851253 207.186046 
L 241.854618 205.721057 
L 241.865124 204.258789 
L 241.884484 202.799267 
L 241.914641 201.342539 
L 241.957769 199.888689 
L 242.016271 198.437854 
L 242.092766 196.990243 
L 242.190054 195.546156 
L 242.311081 194.10601 
L 242.458859 192.670355 
L 242.636367 191.239887 
L 242.846417 189.815447 
L 243.091467 188.397992 
L 243.370277 186.987912 
L 243.681612 185.58553 
L 244.020328 184.19015 
L 244.377639 182.799833 
L 244.741719 181.411475 
" clip-path="url(#p14087baf5e)" style="fill: none; stroke: #ff0000; stroke-opacity: 0.6; stroke-width: 0.25; stroke-linecap: square"/>
   </g>
   <g id="line2d_74">
    <path d="M 241.998091 224.974761 
L 241.983457 223.478028 
L 241.970174 221.983803 
L 241.956044 220.492139 
L 241.941296 219.003067 
L 241.926208 217.516614 
L 241.911116 216.032806 
L 241.89644 214.551662 
L 241.882696 213.073201 
L 241.870517 211.597434 
L 241.860671 210.124369 
L 241.854081 208.654011 
L 241.851842 207.186362 
L 241.855241 205.721427 
L 241.865771 204.259217 
L 241.885143 202.799756 
L 241.915296 201.343091 
L 241.958403 199.889307 
L 242.016861 198.43854 
L 242.093283 196.990997 
L 242.190463 195.546978 
L 242.311336 194.106895 
L 242.458904 192.671298 
L 242.636141 191.240878 
L 242.845851 189.816471 
L 243.090478 188.399028 
L 243.368787 186.988935 
L 243.679567 185.586518 
L 244.017683 184.191082 
L 244.374363 182.800693 
L 244.737825 181.412264 
" clip-path="url(#p14087baf5e)" style="fill: none; stroke: #ff0000; stroke-opacity: 0.8; stroke-width: 0.25; stroke-linecap: square"/>
   </g>
   <g id="line2d_75">
    <path d="M 241.998091 224.974761 
L 241.983452 223.478028 
L 241.970162 221.983801 
L 241.956023 220.492131 
L 241.941266 219.003051 
L 241.926166 217.516588 
L 241.911063 216.032767 
L 241.896376 214.551609 
L 241.882622 213.07313 
L 241.870434 211.597344 
L 241.860582 210.124259 
L 241.85399 208.653878 
L 241.851754 207.186205 
L 241.855162 205.721245 
L 241.865708 204.259008 
L 241.885103 202.799519 
L 241.91529 201.342825 
L 241.95844 199.889012 
L 242.016954 198.438216 
L 242.093443 196.990644 
L 242.190704 195.546597 
L 242.311673 194.10649 
L 242.459355 192.670869 
L 242.63672 191.24043 
L 242.846573 189.816009 
L 243.09136 188.398558 
L 243.36985 186.988465 
L 243.680823 185.586055 
L 244.019146 184.190632 
L 244.376041 182.800262 
L 244.739718 181.411852 
" clip-path="url(#p14087baf5e)" style="fill: none; stroke: #ff0000; stroke-width: 0.25; stroke-linecap: square"/>
   </g>
   <g id="line2d_76">
    <path d="M 268.37417 166.304532 
L 266.560333 166.090309 
L 264.72679 165.937009 
L 262.873108 165.881248 
L 261.005134 165.97325 
L 259.144494 166.288501 
L 257.340686 166.902186 
L 255.604409 167.733124 
L 253.947502 168.753333 
L 252.222352 169.699694 
L 250.329372 170.312629 
L 248.324138 170.469421 
L 246.293557 170.395006 
L 244.253708 170.181094 
L 242.187041 170.097047 
L 240.146799 170.521344 
L 238.230038 171.372875 
L 236.413437 172.443694 
L 234.725068 173.72208 
L 233.19142 175.192196 
L 231.836869 176.834978 
L 230.681961 178.627679 
L 229.743947 180.545352 
L 229.036908 182.561168 
L 228.570375 184.646481 
L 228.350863 186.771985 
L 228.381026 188.907938 
L 228.624294 191.029341 
L 228.902577 193.14574 
L 229.203705 195.258631 
L 229.575008 197.360218 
" clip-path="url(#p14087baf5e)" style="fill: none; stroke: #ff0000; stroke-opacity: 0.2; stroke-width: 0.25; stroke-linecap: square"/>
   </g>
   <g id="line2d_77">
    <path d="M 268.37417 166.304532 
L 266.559912 166.0939 
L 264.726078 165.943644 
L 262.87224 165.890751 
L 261.004287 165.985138 
L 259.143776 166.301834 
L 257.340267 166.916771 
L 255.604557 167.749169 
L 253.948489 168.770948 
L 252.220797 169.712848 
L 250.325515 170.318851 
L 248.319699 170.468622 
L 246.289069 170.394932 
L 244.248645 170.186576 
L 242.181654 170.111559 
L 240.144049 170.548108 
L 238.229517 171.404439 
L 236.416874 172.48172 
L 234.734011 173.767097 
L 233.206948 175.243781 
L 231.85853 176.891306 
L 230.709165 178.68724 
L 229.775982 180.606904 
L 229.072238 182.623458 
L 228.609224 184.709073 
L 228.394292 186.834477 
L 228.431171 188.969644 
L 228.669705 191.090765 
L 228.946615 193.206386 
L 229.247454 195.318251 
L 229.595981 197.422592 
" clip-path="url(#p14087baf5e)" style="fill: none; stroke: #ff0000; stroke-opacity: 0.4; stroke-width: 0.25; stroke-linecap: square"/>
   </g>
   <g id="line2d_78">
    <path d="M 268.37417 166.304532 
L 266.559799 166.094879 
L 264.725876 165.945605 
L 262.871993 165.893761 
L 261.004071 165.989207 
L 259.143701 166.306895 
L 257.340508 166.922859 
L 255.605346 167.756481 
L 253.949981 168.779469 
L 252.222293 169.721457 
L 250.326879 170.327166 
L 248.321 170.476552 
L 246.290316 170.403505 
L 244.249748 170.196322 
L 242.182679 170.1229 
L 240.145467 170.561335 
L 238.231505 171.418952 
L 236.419474 172.497256 
L 234.737266 173.783473 
L 233.210868 175.260819 
L 231.863063 176.908811 
L 230.714246 178.705054 
L 229.781552 180.624907 
L 229.078419 182.641616 
L 228.616104 184.727318 
L 228.401869 186.85271 
L 228.439315 188.98777 
L 228.677516 191.108809 
L 228.954617 193.224268 
L 229.255832 195.335925 
L 229.601765 197.44053 
" clip-path="url(#p14087baf5e)" style="fill: none; stroke: #ff0000; stroke-opacity: 0.6; stroke-width: 0.25; stroke-linecap: square"/>
   </g>
   <g id="line2d_79">
    <path d="M 268.37417 166.304532 
L 266.559686 166.095854 
L 264.725697 165.947583 
L 262.871811 165.89684 
L 261.00399 165.99344 
L 259.143871 166.312267 
L 257.341177 166.929472 
L 255.606668 167.764255 
L 253.95218 168.788469 
L 252.224769 169.730714 
L 250.329489 170.336392 
L 248.323773 170.485889 
L 246.293212 170.414234 
L 244.252611 170.209245 
L 242.185649 170.138602 
L 240.149358 170.580268 
L 238.237416 171.441815 
L 236.427158 172.522616 
L 234.746544 173.810493 
L 233.221763 175.289122 
L 231.876594 176.938905 
L 230.731399 178.737114 
L 229.803143 180.658779 
L 229.105712 182.677132 
L 228.648399 184.763596 
L 228.437363 186.888959 
L 228.474939 189.023649 
L 228.713713 191.144235 
L 228.991755 193.25916 
L 229.293994 195.370244 
L 229.638171 197.474698 
" clip-path="url(#p14087baf5e)" style="fill: none; stroke: #ff0000; stroke-opacity: 0.8; stroke-width: 0.25; stroke-linecap: square"/>
   </g>
   <g id="line2d_80">
    <path d="M 268.37417 166.304532 
L 266.559239 166.099783 
L 264.725 165.954925 
L 262.871075 165.907473 
L 261.003476 166.006906 
L 259.143786 166.327608 
L 257.341763 166.946339 
L 255.608201 167.782674 
L 253.954781 168.808187 
L 252.224862 169.745247 
L 250.327366 170.342868 
L 248.321376 170.483317 
L 246.291363 170.408612 
L 244.251226 170.204038 
L 242.18473 170.136548 
L 240.150184 170.583215 
L 238.238549 171.443723 
L 236.42918 172.524513 
L 234.749902 173.812768 
L 233.226727 175.291777 
L 231.882568 176.941166 
L 230.737731 178.738415 
L 229.809292 180.658813 
L 229.110629 182.675546 
L 228.652863 184.76068 
L 228.442958 186.884863 
L 228.484148 189.018106 
L 228.715083 191.138066 
L 228.987401 193.252135 
L 229.284567 195.362258 
L 229.61106 197.467791 
" clip-path="url(#p14087baf5e)" style="fill: none; stroke: #ff0000; stroke-width: 0.25; stroke-linecap: square"/>
   </g>
   <g id="line2d_81">
    <path d="M 230.322364 124.081038 
L 230.33422 125.577341 
L 230.344975 127.070223 
L 230.356188 128.559627 
L 230.367641 130.045514 
L 230.379072 131.527845 
L 230.390163 133.006583 
L 230.400527 134.481698 
L 230.409693 135.953162 
L 230.417094 137.42095 
L 230.422052 138.885046 
L 230.423764 140.345434 
L 230.421289 141.802105 
L 230.413539 143.25505 
L 230.39927 144.704258 
L 230.377073 146.149713 
L 230.345377 147.59139 
L 230.305368 149.029325 
L 230.252424 150.463396 
L 230.184422 151.893495 
L 230.09914 153.319465 
L 229.994303 154.741087 
L 229.867647 156.158077 
L 229.717012 157.570084 
L 229.540457 158.976702 
L 229.336422 160.377507 
L 229.10615 161.772479 
L 228.85142 163.161759 
L 228.577845 164.546348 
L 228.294587 165.928218 
L 227.998824 167.307033 
" clip-path="url(#p14087baf5e)" style="fill: none; stroke: #ff0000; stroke-opacity: 0.2; stroke-width: 0.25; stroke-linecap: square"/>
   </g>
   <g id="line2d_82">
    <path d="M 230.322364 124.081038 
L 230.336039 125.577325 
L 230.34836 127.070184 
L 230.361283 128.559557 
L 230.374561 130.045408 
L 230.387905 131.527703 
L 230.400964 133.006413 
L 230.413312 134.48151 
L 230.424435 135.952972 
L 230.43371 137.420781 
L 230.440395 138.884924 
L 230.44361 140.345393 
L 230.442323 141.80218 
L 230.435341 143.255279 
L 230.421292 144.704682 
L 230.398625 146.150368 
L 230.365602 147.592302 
L 230.32535 149.030572 
L 230.271045 150.464993 
L 230.200245 151.895421 
L 230.110383 153.321643 
L 229.998801 154.743359 
L 229.862821 156.16017 
L 229.699834 157.571574 
L 229.50742 158.976968 
L 229.283521 160.375686 
L 229.029179 161.767517 
L 228.745746 163.152373 
L 228.438421 164.531113 
L 228.116012 165.905726 
L 227.789066 167.278928 
" clip-path="url(#p14087baf5e)" style="fill: none; stroke: #ff0000; stroke-opacity: 0.4; stroke-width: 0.25; stroke-linecap: square"/>
   </g>
   <g id="line2d_83">
    <path d="M 230.322364 124.081038 
L 230.33628 125.577323 
L 230.348856 127.070189 
L 230.362092 128.559579 
L 230.375749 130.045458 
L 230.389539 131.527792 
L 230.403117 133.006553 
L 230.416061 134.481714 
L 230.42786 135.953254 
L 230.43789 137.421157 
L 230.445407 138.88541 
L 230.449523 140.346007 
L 230.449198 141.802943 
L 230.443218 143.256212 
L 230.430189 144.705808 
L 230.408527 146.151713 
L 230.37645 147.593891 
L 230.337215 149.032432 
L 230.283768 150.467148 
L 230.213573 151.897891 
L 230.123949 153.324434 
L 230.012104 154.746458 
L 229.875203 156.163531 
L 229.710457 157.575102 
L 229.51525 158.980507 
L 229.287312 160.378988 
L 229.027757 161.770293 
L 228.737833 163.154261 
L 228.422684 164.531704 
L 228.091129 165.904622 
L 227.754921 167.276072 
" clip-path="url(#p14087baf5e)" style="fill: none; stroke: #ff0000; stroke-opacity: 0.6; stroke-width: 0.25; stroke-linecap: square"/>
   </g>
   <g id="line2d_84">
    <path d="M 230.322364 124.081038 
L 230.336397 125.577322 
L 230.349097 127.070224 
L 230.362484 128.559686 
L 230.376317 130.045674 
L 230.390313 131.528154 
L 230.404124 133.007098 
L 230.41733 134.482478 
L 230.429417 135.954275 
L 230.439762 137.422471 
L 230.447616 138.887056 
L 230.452089 140.348021 
L 230.452133 141.805363 
L 230.446527 143.259078 
L 230.433866 144.709156 
L 230.41255 146.155581 
L 230.380779 147.598317 
L 230.341596 149.037445 
L 230.28809 150.47278 
L 230.217699 151.904167 
L 230.127703 153.331374 
L 230.015267 154.75407 
L 229.8775 156.171809 
L 229.711546 157.584019 
L 229.51471 158.990004 
L 229.284632 160.388971 
L 229.022432 161.78064 
L 228.729342 163.164823 
L 228.410523 164.542322 
L 228.074814 165.915142 
L 227.734135 167.286409 
" clip-path="url(#p14087baf5e)" style="fill: none; stroke: #ff0000; stroke-opacity: 0.8; stroke-width: 0.25; stroke-linecap: square"/>
   </g>
   <g id="line2d_85">
    <path d="M 230.322364 124.081038 
L 230.336489 125.577321 
L 230.349297 127.070226 
L 230.362819 128.559695 
L 230.376819 130.045693 
L 230.391013 131.528189 
L 230.405058 133.007152 
L 230.418534 134.482559 
L 230.430931 135.954387 
L 230.441627 137.422621 
L 230.449876 138.88725 
L 230.454789 140.348268 
L 230.455315 141.80567 
L 230.450233 143.259455 
L 230.438134 144.709615 
L 230.417411 146.156133 
L 230.386254 147.598974 
L 230.347098 149.038204 
L 230.293556 150.473647 
L 230.223066 151.905147 
L 230.132907 153.33247 
L 230.020234 154.755282 
L 229.882141 156.173133 
L 229.715752 157.585443 
L 229.518345 158.991508 
L 229.287533 160.39052 
L 229.024446 161.782196 
L 228.730305 163.166336 
L 228.410262 164.543736 
L 228.073161 165.916404 
L 227.730939 167.287477 
" clip-path="url(#p14087baf5e)" style="fill: none; stroke: #ff0000; stroke-width: 0.25; stroke-linecap: square"/>
   </g>
   <g id="line2d_86">
    <path d="M 185.610556 180.391616 
L 187.074337 180.429102 
L 188.531318 180.462245 
L 189.981628 180.493829 
L 191.425491 180.522921 
L 192.863139 180.548488 
L 194.294806 180.569358 
L 195.720731 180.584189 
L 197.141153 180.591433 
L 198.556303 180.589314 
L 199.966395 180.5758 
L 201.371613 180.548588 
L 202.772087 180.505087 
L 204.167877 180.44242 
L 205.558934 180.357435 
L 206.945075 180.24673 
L 208.325942 180.106719 
L 209.700973 179.933718 
L 211.069389 179.724097 
L 212.430205 179.474505 
L 213.78231 179.182208 
L 215.12464 178.845555 
L 216.456503 178.464643 
L 217.810956 178.163726 
L 219.188476 177.974584 
L 220.581921 178.013708 
L 221.953779 178.28124 
L 223.304479 178.653274 
L 224.624763 179.129424 
L 225.905593 179.70726 
L 227.138936 180.382183 
" clip-path="url(#p14087baf5e)" style="fill: none; stroke: #ff0000; stroke-opacity: 0.2; stroke-width: 0.25; stroke-linecap: square"/>
   </g>
   <g id="line2d_87">
    <path d="M 185.610556 180.391616 
L 187.074329 180.429417 
L 188.531105 180.461927 
L 189.981017 180.492706 
L 191.424308 180.520812 
L 192.861229 180.545204 
L 194.292034 180.564712 
L 195.716981 180.578002 
L 197.136327 180.583545 
L 198.55032 180.579594 
L 199.959192 180.56416 
L 201.363143 180.534997 
L 202.762327 180.489591 
L 204.156824 180.425162 
L 205.546618 180.338677 
L 206.931564 180.226881 
L 208.311359 180.086359 
L 209.685515 179.913629 
L 211.053355 179.705294 
L 212.414028 179.458269 
L 213.766599 179.170105 
L 215.11022 178.839456 
L 216.444438 178.466695 
L 217.800416 178.171191 
L 219.17917 177.986487 
L 220.573705 178.019754 
L 221.946255 178.290204 
L 223.297429 178.666197 
L 224.618302 179.145789 
L 225.899925 179.726356 
L 227.143112 180.386993 
" clip-path="url(#p14087baf5e)" style="fill: none; stroke: #ff0000; stroke-opacity: 0.4; stroke-width: 0.25; stroke-linecap: square"/>
   </g>
   <g id="line2d_88">
    <path d="M 185.610556 180.391616 
L 187.074342 180.428916 
L 188.531239 180.460788 
L 189.981372 180.490887 
L 191.424977 180.51829 
L 192.862297 180.541983 
L 194.293581 180.560817 
L 195.719078 180.573488 
L 197.139037 180.578497 
L 198.553703 180.574135 
L 199.963301 180.558454 
L 201.368029 180.529258 
L 202.76804 180.48409 
L 204.163418 180.420235 
L 205.554155 180.334737 
L 206.940124 180.22443 
L 208.321048 180.085998 
L 209.69648 179.916076 
L 211.065796 179.711397 
L 212.428221 179.469013 
L 213.782911 179.186624 
L 215.129123 178.86302 
L 216.466511 178.498678 
L 217.824429 178.208523 
L 219.204183 178.0259 
L 220.599419 178.057688 
L 221.971949 178.331424 
L 223.322784 178.710793 
L 224.642906 179.194053 
L 225.923408 179.778364 
L 227.168952 180.435651 
" clip-path="url(#p14087baf5e)" style="fill: none; stroke: #ff0000; stroke-opacity: 0.6; stroke-width: 0.25; stroke-linecap: square"/>
   </g>
   <g id="line2d_89">
    <path d="M 185.610556 180.391616 
L 187.07435 180.428598 
L 188.531266 180.460144 
L 189.981429 180.48989 
L 191.425075 180.516922 
L 192.862445 180.540231 
L 194.293788 180.55868 
L 195.71935 180.570974 
L 197.139383 180.575628 
L 198.554127 180.570945 
L 199.96381 180.554995 
L 201.368629 180.525603 
L 202.768737 180.480335 
L 204.164224 180.416507 
L 205.555086 180.331196 
L 206.941204 180.221279 
L 208.322315 180.083488 
L 209.697991 179.914515 
L 211.067634 179.711155 
L 212.430505 179.470533 
L 213.785803 179.190416 
L 215.132835 178.869657 
L 216.4713 178.508765 
L 217.829796 178.220657 
L 219.209783 178.038723 
L 220.6052 178.068758 
L 221.977659 178.343584 
L 223.328351 178.72399 
L 224.648277 179.208202 
L 225.928509 179.793448 
L 227.175152 180.44895 
" clip-path="url(#p14087baf5e)" style="fill: none; stroke: #ff0000; stroke-opacity: 0.8; stroke-width: 0.25; stroke-linecap: square"/>
   </g>
   <g id="line2d_90">
    <path d="M 185.610556 180.391616 
L 187.074362 180.428132 
L 188.53136 180.459293 
L 189.981675 180.488653 
L 191.425536 180.515315 
L 192.86318 180.538285 
L 194.294849 180.556443 
L 195.720787 180.568509 
L 197.141239 180.57302 
L 198.556442 180.568302 
L 199.966619 180.552451 
L 201.371967 180.523319 
L 202.77264 180.478506 
L 204.168727 180.415363 
L 205.560231 180.33101 
L 206.947043 180.222366 
L 208.328914 180.086212 
L 209.705437 179.919291 
L 211.076041 179.718452 
L 212.440022 179.480869 
L 213.796618 179.204358 
L 215.145177 178.8878 
L 216.485426 178.531702 
L 217.845038 178.246738 
L 219.225479 178.065216 
L 220.621282 178.093584 
L 221.993733 178.370014 
L 223.344245 178.752061 
L 224.663824 179.237933 
L 225.94356 179.824813 
L 227.191603 180.478123 
" clip-path="url(#p14087baf5e)" style="fill: none; stroke: #ff0000; stroke-width: 0.25; stroke-linecap: square"/>
   </g>
   <g id="patch_15">
    <path d="M 103.104 307.584 
L 103.104 41.472 
" style="fill: none; stroke: #000000; stroke-width: 0.8; stroke-linejoin: miter; stroke-linecap: square"/>
   </g>
   <g id="patch_16">
    <path d="M 369.216 307.584 
L 369.216 41.472 
" style="fill: none; stroke: #000000; stroke-width: 0.8; stroke-linejoin: miter; stroke-linecap: square"/>
   </g>
   <g id="patch_17">
    <path d="M 103.104 307.584 
L 369.216 307.584 
" style="fill: none; stroke: #000000; stroke-width: 0.8; stroke-linejoin: miter; stroke-linecap: square"/>
   </g>
   <g id="patch_18">
    <path d="M 103.104 41.472 
L 369.216 41.472 
" style="fill: none; stroke: #000000; stroke-width: 0.8; stroke-linejoin: miter; stroke-linecap: square"/>
   </g>
   <g id="text_19">
    <!-- Time:  51 ms -->
    <g transform="translate(264.253887 54.7776) scale(0.1 -0.1)">
     <defs>
      <path id="DejaVuSans-54" d="M -19 4666 
L 3928 4666 
L 3928 4134 
L 2272 4134 
L 2272 0 
L 1638 0 
L 1638 4134 
L -19 4134 
L -19 4666 
z
" transform="scale(0.015625)"/>
      <path id="DejaVuSans-69" d="M 603 3500 
L 1178 3500 
L 1178 0 
L 603 0 
L 603 3500 
z
M 603 4863 
L 1178 4863 
L 1178 4134 
L 603 4134 
L 603 4863 
z
" transform="scale(0.015625)"/>
      <path id="DejaVuSans-6d" d="M 3328 2828 
Q 3544 3216 3844 3400 
Q 4144 3584 4550 3584 
Q 5097 3584 5394 3201 
Q 5691 2819 5691 2113 
L 5691 0 
L 5113 0 
L 5113 2094 
Q 5113 2597 4934 2840 
Q 4756 3084 4391 3084 
Q 3944 3084 3684 2787 
Q 3425 2491 3425 1978 
L 3425 0 
L 2847 0 
L 2847 2094 
Q 2847 2600 2669 2842 
Q 2491 3084 2119 3084 
Q 1678 3084 1418 2786 
Q 1159 2488 1159 1978 
L 1159 0 
L 581 0 
L 581 3500 
L 1159 3500 
L 1159 2956 
Q 1356 3278 1631 3431 
Q 1906 3584 2284 3584 
Q 2666 3584 2933 3390 
Q 3200 3197 3328 2828 
z
" transform="scale(0.015625)"/>
      <path id="DejaVuSans-65" d="M 3597 1894 
L 3597 1613 
L 953 1613 
Q 991 1019 1311 708 
Q 1631 397 2203 397 
Q 2534 397 2845 478 
Q 3156 559 3463 722 
L 3463 178 
Q 3153 47 2828 -22 
Q 2503 -91 2169 -91 
Q 1331 -91 842 396 
Q 353 884 353 1716 
Q 353 2575 817 3079 
Q 1281 3584 2069 3584 
Q 2775 3584 3186 3129 
Q 3597 2675 3597 1894 
z
M 3022 2063 
Q 3016 2534 2758 2815 
Q 2500 3097 2075 3097 
Q 1594 3097 1305 2825 
Q 1016 2553 972 2059 
L 3022 2063 
z
" transform="scale(0.015625)"/>
      <path id="DejaVuSans-3a" d="M 750 794 
L 1409 794 
L 1409 0 
L 750 0 
L 750 794 
z
M 750 3309 
L 1409 3309 
L 1409 2516 
L 750 2516 
L 750 3309 
z
" transform="scale(0.015625)"/>
      <path id="DejaVuSans-20" transform="scale(0.015625)"/>
      <path id="DejaVuSans-35" d="M 691 4666 
L 3169 4666 
L 3169 4134 
L 1269 4134 
L 1269 2991 
Q 1406 3038 1543 3061 
Q 1681 3084 1819 3084 
Q 2600 3084 3056 2656 
Q 3513 2228 3513 1497 
Q 3513 744 3044 326 
Q 2575 -91 1722 -91 
Q 1428 -91 1123 -41 
Q 819 9 494 109 
L 494 744 
Q 775 591 1075 516 
Q 1375 441 1709 441 
Q 2250 441 2565 725 
Q 2881 1009 2881 1497 
Q 2881 1984 2565 2268 
Q 2250 2553 1709 2553 
Q 1456 2553 1204 2497 
Q 953 2441 691 2322 
L 691 4666 
z
" transform="scale(0.015625)"/>
      <path id="DejaVuSans-73" d="M 2834 3397 
L 2834 2853 
Q 2591 2978 2328 3040 
Q 2066 3103 1784 3103 
Q 1356 3103 1142 2972 
Q 928 2841 928 2578 
Q 928 2378 1081 2264 
Q 1234 2150 1697 2047 
L 1894 2003 
Q 2506 1872 2764 1633 
Q 3022 1394 3022 966 
Q 3022 478 2636 193 
Q 2250 -91 1575 -91 
Q 1294 -91 989 -36 
Q 684 19 347 128 
L 347 722 
Q 666 556 975 473 
Q 1284 391 1588 391 
Q 1994 391 2212 530 
Q 2431 669 2431 922 
Q 2431 1156 2273 1281 
Q 2116 1406 1581 1522 
L 1381 1569 
Q 847 1681 609 1914 
Q 372 2147 372 2553 
Q 372 3047 722 3315 
Q 1072 3584 1716 3584 
Q 2034 3584 2315 3537 
Q 2597 3491 2834 3397 
z
" transform="scale(0.015625)"/>
     </defs>
     <use xlink:href="#DejaVuSans-54"/>
     <use xlink:href="#DejaVuSans-69" x="57.958984"/>
     <use xlink:href="#DejaVuSans-6d" x="85.742188"/>
     <use xlink:href="#DejaVuSans-65" x="183.154297"/>
     <use xlink:href="#DejaVuSans-3a" x="244.677734"/>
     <use xlink:href="#DejaVuSans-20" x="278.369141"/>
     <use xlink:href="#DejaVuSans-20" x="310.15625"/>
     <use xlink:href="#DejaVuSans-35" x="341.943359"/>
     <use xlink:href="#DejaVuSans-31" x="405.566406"/>
     <use xlink:href="#DejaVuSans-20" x="469.189453"/>
     <use xlink:href="#DejaVuSans-6d" x="500.976562"/>
     <use xlink:href="#DejaVuSans-73" x="598.388672"/>
    </g>
   </g>
  </g>
 </g>
 <defs>
  <clipPath id="p14087baf5e">
   <rect x="103.104" y="41.472" width="266.112" height="266.112"/>
  </clipPath>
 </defs>
</svg>
