<?xml version="1.0" encoding="utf-8" standalone="no"?>
<!DOCTYPE svg PUBLIC "-//W3C//DTD SVG 1.1//EN"
  "http://www.w3.org/Graphics/SVG/1.1/DTD/svg11.dtd">
<svg xmlns:xlink="http://www.w3.org/1999/xlink" width="460.8pt" height="345.6pt" viewBox="0 0 460.8 345.6" xmlns="http://www.w3.org/2000/svg" version="1.1">
 <metadata>
  <rdf:RDF xmlns:dc="http://purl.org/dc/elements/1.1/" xmlns:cc="http://creativecommons.org/ns#" xmlns:rdf="http://www.w3.org/1999/02/22-rdf-syntax-ns#">
   <cc:Work>
    <dc:type rdf:resource="http://purl.org/dc/dcmitype/StillImage"/>
    <dc:date>2024-01-23T14:21:06.203618</dc:date>
    <dc:format>image/svg+xml</dc:format>
    <dc:creator>
     <cc:Agent>
      <dc:title>Matplotlib v3.8.2, https://matplotlib.org/</dc:title>
     </cc:Agent>
    </dc:creator>
   </cc:Work>
  </rdf:RDF>
 </metadata>
 <defs>
  <style type="text/css">*{stroke-linejoin: round; stroke-linecap: butt}</style>
 </defs>
 <g id="figure_1">
  <g id="patch_1">
   <path d="M 0 345.6 
L 460.8 345.6 
L 460.8 0 
L 0 0 
z
" style="fill: #ffffff"/>
  </g>
  <g id="axes_1">
   <g id="patch_2">
    <path d="M 103.104 307.584 
L 369.216 307.584 
L 369.216 41.472 
L 103.104 41.472 
z
" style="fill: #ffffff"/>
   </g>
   <g id="patch_3">
    <path d="M 244.898614 218.002306 
L 245.086166 206.361417 
L 239.43202 206.27032 
L 239.244468 217.911209 
z
" clip-path="url(#pd0a46e44d1)" style="fill: #00008b"/>
   </g>
   <g id="patch_4">
    <path d="M 280.348476 165.978178 
L 268.712669 166.369939 
L 268.902953 172.021617 
L 280.53876 171.629856 
z
" clip-path="url(#pd0a46e44d1)" style="fill: #800000"/>
   </g>
   <g id="patch_5">
    <path d="M 227.518427 130.922027 
L 227.602858 142.564121 
L 233.257589 142.523112 
L 233.173158 130.881018 
z
" clip-path="url(#pd0a46e44d1)" style="fill: #006400"/>
   </g>
   <g id="patch_6">
    <path d="M 192.585053 183.121217 
L 204.226391 182.963935 
L 204.149996 177.309571 
L 192.508659 177.466853 
z
" clip-path="url(#pd0a46e44d1)" style="fill: #4b0082"/>
   </g>
   <g id="patch_7">
    <path d="M 244.84326 258.02064 
L 244.84326 246.37824 
L 239.18838 246.37824 
L 239.18838 258.02064 
z
" clip-path="url(#pd0a46e44d1)" style="fill: #0000ff"/>
   </g>
   <g id="patch_8">
    <path d="M 319.65264 165.84474 
L 308.01024 165.84474 
L 308.01024 171.49962 
L 319.65264 171.49962 
z
" clip-path="url(#pd0a46e44d1)" style="fill: #ff0000"/>
   </g>
   <g id="patch_9">
    <path d="M 227.47674 91.160768 
L 227.477506 102.803168 
L 233.132386 102.802796 
L 233.13162 91.160397 
z
" clip-path="url(#pd0a46e44d1)" style="fill: #dbdc56"/>
   </g>
   <g id="patch_10">
    <path d="M 151.19591 183.21126 
L 162.83831 183.21126 
L 162.83831 177.55638 
L 151.19591 177.55638 
z
" clip-path="url(#pd0a46e44d1)" style="fill: #9400d3"/>
   </g>
   <g id="patch_11">
    <path d="M 244.84326 298.548082 
L 244.84326 286.905682 
L 239.18838 286.905682 
L 239.18838 298.548082 
z
" clip-path="url(#pd0a46e44d1)" style="fill: #1e90ff"/>
   </g>
   <g id="patch_12">
    <path d="M 357.847546 165.84474 
L 346.205146 165.84474 
L 346.205146 171.49962 
L 357.847546 171.49962 
z
" clip-path="url(#pd0a46e44d1)" style="fill: #ff4500"/>
   </g>
   <g id="patch_13">
    <path d="M 227.47674 50.507918 
L 227.47674 62.150318 
L 233.13162 62.150318 
L 233.13162 50.507918 
z
" clip-path="url(#pd0a46e44d1)" style="fill: #7cfc00"/>
   </g>
   <g id="patch_14">
    <path d="M 112.139918 183.21126 
L 123.782318 183.21126 
L 123.782318 177.55638 
L 112.139918 177.55638 
z
" clip-path="url(#pd0a46e44d1)" style="fill: #ff00ff"/>
   </g>
   <g id="matplotlib.axis_1">
    <g id="xtick_1">
     <g id="line2d_1">
      <defs>
       <path id="m169e632d5f" d="M 0 0 
L 0 3.5 
" style="stroke: #000000; stroke-width: 0.8"/>
      </defs>
      <g>
       <use xlink:href="#m169e632d5f" x="103.104" y="307.584" style="stroke: #000000; stroke-width: 0.8"/>
      </g>
     </g>
     <g id="text_1">
      <!-- −40 -->
      <g transform="translate(92.551656 322.182437) scale(0.1 -0.1)">
       <defs>
        <path id="DejaVuSans-2212" d="M 678 2272 
L 4684 2272 
L 4684 1741 
L 678 1741 
L 678 2272 
z
" transform="scale(0.015625)"/>
        <path id="DejaVuSans-34" d="M 2419 4116 
L 825 1625 
L 2419 1625 
L 2419 4116 
z
M 2253 4666 
L 3047 4666 
L 3047 1625 
L 3713 1625 
L 3713 1100 
L 3047 1100 
L 3047 0 
L 2419 0 
L 2419 1100 
L 313 1100 
L 313 1709 
L 2253 4666 
z
" transform="scale(0.015625)"/>
        <path id="DejaVuSans-30" d="M 2034 4250 
Q 1547 4250 1301 3770 
Q 1056 3291 1056 2328 
Q 1056 1369 1301 889 
Q 1547 409 2034 409 
Q 2525 409 2770 889 
Q 3016 1369 3016 2328 
Q 3016 3291 2770 3770 
Q 2525 4250 2034 4250 
z
M 2034 4750 
Q 2819 4750 3233 4129 
Q 3647 3509 3647 2328 
Q 3647 1150 3233 529 
Q 2819 -91 2034 -91 
Q 1250 -91 836 529 
Q 422 1150 422 2328 
Q 422 3509 836 4129 
Q 1250 4750 2034 4750 
z
" transform="scale(0.015625)"/>
       </defs>
       <use xlink:href="#DejaVuSans-2212"/>
       <use xlink:href="#DejaVuSans-34" x="83.789062"/>
       <use xlink:href="#DejaVuSans-30" x="147.412109"/>
      </g>
     </g>
    </g>
    <g id="xtick_2">
     <g id="line2d_2">
      <g>
       <use xlink:href="#m169e632d5f" x="136.368" y="307.584" style="stroke: #000000; stroke-width: 0.8"/>
      </g>
     </g>
     <g id="text_2">
      <!-- −30 -->
      <g transform="translate(125.815656 322.182437) scale(0.1 -0.1)">
       <defs>
        <path id="DejaVuSans-33" d="M 2597 2516 
Q 3050 2419 3304 2112 
Q 3559 1806 3559 1356 
Q 3559 666 3084 287 
Q 2609 -91 1734 -91 
Q 1441 -91 1130 -33 
Q 819 25 488 141 
L 488 750 
Q 750 597 1062 519 
Q 1375 441 1716 441 
Q 2309 441 2620 675 
Q 2931 909 2931 1356 
Q 2931 1769 2642 2001 
Q 2353 2234 1838 2234 
L 1294 2234 
L 1294 2753 
L 1863 2753 
Q 2328 2753 2575 2939 
Q 2822 3125 2822 3475 
Q 2822 3834 2567 4026 
Q 2313 4219 1838 4219 
Q 1578 4219 1281 4162 
Q 984 4106 628 3988 
L 628 4550 
Q 988 4650 1302 4700 
Q 1616 4750 1894 4750 
Q 2613 4750 3031 4423 
Q 3450 4097 3450 3541 
Q 3450 3153 3228 2886 
Q 3006 2619 2597 2516 
z
" transform="scale(0.015625)"/>
       </defs>
       <use xlink:href="#DejaVuSans-2212"/>
       <use xlink:href="#DejaVuSans-33" x="83.789062"/>
       <use xlink:href="#DejaVuSans-30" x="147.412109"/>
      </g>
     </g>
    </g>
    <g id="xtick_3">
     <g id="line2d_3">
      <g>
       <use xlink:href="#m169e632d5f" x="169.632" y="307.584" style="stroke: #000000; stroke-width: 0.8"/>
      </g>
     </g>
     <g id="text_3">
      <!-- −20 -->
      <g transform="translate(159.079656 322.182437) scale(0.1 -0.1)">
       <defs>
        <path id="DejaVuSans-32" d="M 1228 531 
L 3431 531 
L 3431 0 
L 469 0 
L 469 531 
Q 828 903 1448 1529 
Q 2069 2156 2228 2338 
Q 2531 2678 2651 2914 
Q 2772 3150 2772 3378 
Q 2772 3750 2511 3984 
Q 2250 4219 1831 4219 
Q 1534 4219 1204 4116 
Q 875 4013 500 3803 
L 500 4441 
Q 881 4594 1212 4672 
Q 1544 4750 1819 4750 
Q 2544 4750 2975 4387 
Q 3406 4025 3406 3419 
Q 3406 3131 3298 2873 
Q 3191 2616 2906 2266 
Q 2828 2175 2409 1742 
Q 1991 1309 1228 531 
z
" transform="scale(0.015625)"/>
       </defs>
       <use xlink:href="#DejaVuSans-2212"/>
       <use xlink:href="#DejaVuSans-32" x="83.789062"/>
       <use xlink:href="#DejaVuSans-30" x="147.412109"/>
      </g>
     </g>
    </g>
    <g id="xtick_4">
     <g id="line2d_4">
      <g>
       <use xlink:href="#m169e632d5f" x="202.896" y="307.584" style="stroke: #000000; stroke-width: 0.8"/>
      </g>
     </g>
     <g id="text_4">
      <!-- −10 -->
      <g transform="translate(192.343656 322.182437) scale(0.1 -0.1)">
       <defs>
        <path id="DejaVuSans-31" d="M 794 531 
L 1825 531 
L 1825 4091 
L 703 3866 
L 703 4441 
L 1819 4666 
L 2450 4666 
L 2450 531 
L 3481 531 
L 3481 0 
L 794 0 
L 794 531 
z
" transform="scale(0.015625)"/>
       </defs>
       <use xlink:href="#DejaVuSans-2212"/>
       <use xlink:href="#DejaVuSans-31" x="83.789062"/>
       <use xlink:href="#DejaVuSans-30" x="147.412109"/>
      </g>
     </g>
    </g>
    <g id="xtick_5">
     <g id="line2d_5">
      <g>
       <use xlink:href="#m169e632d5f" x="236.16" y="307.584" style="stroke: #000000; stroke-width: 0.8"/>
      </g>
     </g>
     <g id="text_5">
      <!-- 0 -->
      <g transform="translate(232.97875 322.182437) scale(0.1 -0.1)">
       <use xlink:href="#DejaVuSans-30"/>
      </g>
     </g>
    </g>
    <g id="xtick_6">
     <g id="line2d_6">
      <g>
       <use xlink:href="#m169e632d5f" x="269.424" y="307.584" style="stroke: #000000; stroke-width: 0.8"/>
      </g>
     </g>
     <g id="text_6">
      <!-- 10 -->
      <g transform="translate(263.0615 322.182437) scale(0.1 -0.1)">
       <use xlink:href="#DejaVuSans-31"/>
       <use xlink:href="#DejaVuSans-30" x="63.623047"/>
      </g>
     </g>
    </g>
    <g id="xtick_7">
     <g id="line2d_7">
      <g>
       <use xlink:href="#m169e632d5f" x="302.688" y="307.584" style="stroke: #000000; stroke-width: 0.8"/>
      </g>
     </g>
     <g id="text_7">
      <!-- 20 -->
      <g transform="translate(296.3255 322.182437) scale(0.1 -0.1)">
       <use xlink:href="#DejaVuSans-32"/>
       <use xlink:href="#DejaVuSans-30" x="63.623047"/>
      </g>
     </g>
    </g>
    <g id="xtick_8">
     <g id="line2d_8">
      <g>
       <use xlink:href="#m169e632d5f" x="335.952" y="307.584" style="stroke: #000000; stroke-width: 0.8"/>
      </g>
     </g>
     <g id="text_8">
      <!-- 30 -->
      <g transform="translate(329.5895 322.182437) scale(0.1 -0.1)">
       <use xlink:href="#DejaVuSans-33"/>
       <use xlink:href="#DejaVuSans-30" x="63.623047"/>
      </g>
     </g>
    </g>
    <g id="xtick_9">
     <g id="line2d_9">
      <g>
       <use xlink:href="#m169e632d5f" x="369.216" y="307.584" style="stroke: #000000; stroke-width: 0.8"/>
      </g>
     </g>
     <g id="text_9">
      <!-- 40 -->
      <g transform="translate(362.8535 322.182437) scale(0.1 -0.1)">
       <use xlink:href="#DejaVuSans-34"/>
       <use xlink:href="#DejaVuSans-30" x="63.623047"/>
      </g>
     </g>
    </g>
   </g>
   <g id="matplotlib.axis_2">
    <g id="ytick_1">
     <g id="line2d_10">
      <defs>
       <path id="m8da68ec17d" d="M 0 0 
L -3.5 0 
" style="stroke: #000000; stroke-width: 0.8"/>
      </defs>
      <g>
       <use xlink:href="#m8da68ec17d" x="103.104" y="307.584" style="stroke: #000000; stroke-width: 0.8"/>
      </g>
     </g>
     <g id="text_10">
      <!-- −40 -->
      <g transform="translate(74.999313 311.383219) scale(0.1 -0.1)">
       <use xlink:href="#DejaVuSans-2212"/>
       <use xlink:href="#DejaVuSans-34" x="83.789062"/>
       <use xlink:href="#DejaVuSans-30" x="147.412109"/>
      </g>
     </g>
    </g>
    <g id="ytick_2">
     <g id="line2d_11">
      <g>
       <use xlink:href="#m8da68ec17d" x="103.104" y="274.32" style="stroke: #000000; stroke-width: 0.8"/>
      </g>
     </g>
     <g id="text_11">
      <!-- −30 -->
      <g transform="translate(74.999313 278.119219) scale(0.1 -0.1)">
       <use xlink:href="#DejaVuSans-2212"/>
       <use xlink:href="#DejaVuSans-33" x="83.789062"/>
       <use xlink:href="#DejaVuSans-30" x="147.412109"/>
      </g>
     </g>
    </g>
    <g id="ytick_3">
     <g id="line2d_12">
      <g>
       <use xlink:href="#m8da68ec17d" x="103.104" y="241.056" style="stroke: #000000; stroke-width: 0.8"/>
      </g>
     </g>
     <g id="text_12">
      <!-- −20 -->
      <g transform="translate(74.999313 244.855219) scale(0.1 -0.1)">
       <use xlink:href="#DejaVuSans-2212"/>
       <use xlink:href="#DejaVuSans-32" x="83.789062"/>
       <use xlink:href="#DejaVuSans-30" x="147.412109"/>
      </g>
     </g>
    </g>
    <g id="ytick_4">
     <g id="line2d_13">
      <g>
       <use xlink:href="#m8da68ec17d" x="103.104" y="207.792" style="stroke: #000000; stroke-width: 0.8"/>
      </g>
     </g>
     <g id="text_13">
      <!-- −10 -->
      <g transform="translate(74.999313 211.591219) scale(0.1 -0.1)">
       <use xlink:href="#DejaVuSans-2212"/>
       <use xlink:href="#DejaVuSans-31" x="83.789062"/>
       <use xlink:href="#DejaVuSans-30" x="147.412109"/>
      </g>
     </g>
    </g>
    <g id="ytick_5">
     <g id="line2d_14">
      <g>
       <use xlink:href="#m8da68ec17d" x="103.104" y="174.528" style="stroke: #000000; stroke-width: 0.8"/>
      </g>
     </g>
     <g id="text_14">
      <!-- 0 -->
      <g transform="translate(89.7415 178.327219) scale(0.1 -0.1)">
       <use xlink:href="#DejaVuSans-30"/>
      </g>
     </g>
    </g>
    <g id="ytick_6">
     <g id="line2d_15">
      <g>
       <use xlink:href="#m8da68ec17d" x="103.104" y="141.264" style="stroke: #000000; stroke-width: 0.8"/>
      </g>
     </g>
     <g id="text_15">
      <!-- 10 -->
      <g transform="translate(83.379 145.063219) scale(0.1 -0.1)">
       <use xlink:href="#DejaVuSans-31"/>
       <use xlink:href="#DejaVuSans-30" x="63.623047"/>
      </g>
     </g>
    </g>
    <g id="ytick_7">
     <g id="line2d_16">
      <g>
       <use xlink:href="#m8da68ec17d" x="103.104" y="108" style="stroke: #000000; stroke-width: 0.8"/>
      </g>
     </g>
     <g id="text_16">
      <!-- 20 -->
      <g transform="translate(83.379 111.799219) scale(0.1 -0.1)">
       <use xlink:href="#DejaVuSans-32"/>
       <use xlink:href="#DejaVuSans-30" x="63.623047"/>
      </g>
     </g>
    </g>
    <g id="ytick_8">
     <g id="line2d_17">
      <g>
       <use xlink:href="#m8da68ec17d" x="103.104" y="74.736" style="stroke: #000000; stroke-width: 0.8"/>
      </g>
     </g>
     <g id="text_17">
      <!-- 30 -->
      <g transform="translate(83.379 78.535219) scale(0.1 -0.1)">
       <use xlink:href="#DejaVuSans-33"/>
       <use xlink:href="#DejaVuSans-30" x="63.623047"/>
      </g>
     </g>
    </g>
    <g id="ytick_9">
     <g id="line2d_18">
      <g>
       <use xlink:href="#m8da68ec17d" x="103.104" y="41.472" style="stroke: #000000; stroke-width: 0.8"/>
      </g>
     </g>
     <g id="text_18">
      <!-- 40 -->
      <g transform="translate(83.379 45.271219) scale(0.1 -0.1)">
       <use xlink:href="#DejaVuSans-34"/>
       <use xlink:href="#DejaVuSans-30" x="63.623047"/>
      </g>
     </g>
    </g>
   </g>
   <g id="line2d_19">
    <path d="M 250.2972 288.4572 
L 250.2972 188.6652 
" clip-path="url(#pd0a46e44d1)" style="fill: none; stroke: #000000; stroke-width: 0.25; stroke-linecap: square"/>
   </g>
   <g id="line2d_20">
    <path d="M 250.2972 188.6652 
L 350.0892 188.6652 
" clip-path="url(#pd0a46e44d1)" style="fill: none; stroke: #000000; stroke-width: 0.25; stroke-linecap: square"/>
   </g>
   <g id="line2d_21">
    <path d="M 350.0892 160.3908 
L 250.2972 160.3908 
" clip-path="url(#pd0a46e44d1)" style="fill: none; stroke: #000000; stroke-width: 0.25; stroke-linecap: square"/>
   </g>
   <g id="line2d_22">
    <path d="M 250.2972 160.3908 
L 250.2972 60.5988 
" clip-path="url(#pd0a46e44d1)" style="fill: none; stroke: #000000; stroke-width: 0.25; stroke-linecap: square"/>
   </g>
   <g id="line2d_23">
    <path d="M 222.0228 60.5988 
L 222.0228 160.3908 
" clip-path="url(#pd0a46e44d1)" style="fill: none; stroke: #000000; stroke-width: 0.25; stroke-linecap: square"/>
   </g>
   <g id="line2d_24">
    <path d="M 222.0228 160.3908 
L 122.2308 160.3908 
" clip-path="url(#pd0a46e44d1)" style="fill: none; stroke: #000000; stroke-width: 0.25; stroke-linecap: square"/>
   </g>
   <g id="line2d_25">
    <path d="M 122.2308 188.6652 
L 222.0228 188.6652 
" clip-path="url(#pd0a46e44d1)" style="fill: none; stroke: #000000; stroke-width: 0.25; stroke-linecap: square"/>
   </g>
   <g id="line2d_26">
    <path d="M 222.0228 188.6652 
L 222.0228 288.4572 
" clip-path="url(#pd0a46e44d1)" style="fill: none; stroke: #000000; stroke-width: 0.25; stroke-linecap: square"/>
   </g>
   <g id="line2d_27">
    <path d="M 250.2972 174.528 
L 350.0892 174.528 
" clip-path="url(#pd0a46e44d1)" style="fill: none; stroke-dasharray: 0.925,0.4; stroke-dashoffset: 0; stroke: #000000; stroke-width: 0.25"/>
   </g>
   <g id="line2d_28">
    <path d="M 236.16 160.3908 
L 236.16 60.5988 
" clip-path="url(#pd0a46e44d1)" style="fill: none; stroke-dasharray: 0.925,0.4; stroke-dashoffset: 0; stroke: #000000; stroke-width: 0.25"/>
   </g>
   <g id="line2d_29">
    <path d="M 222.0228 174.528 
L 122.2308 174.528 
" clip-path="url(#pd0a46e44d1)" style="fill: none; stroke-dasharray: 0.925,0.4; stroke-dashoffset: 0; stroke: #000000; stroke-width: 0.25"/>
   </g>
   <g id="line2d_30">
    <path d="M 236.16 188.6652 
L 236.16 288.4572 
" clip-path="url(#pd0a46e44d1)" style="fill: none; stroke-dasharray: 0.925,0.4; stroke-dashoffset: 0; stroke: #000000; stroke-width: 0.25"/>
   </g>
   <g id="line2d_31">
    <path d="M 242.12244 213.775062 
L 242.162684 212.136246 
L 242.208438 210.494051 
L 242.262562 208.848627 
L 242.325598 207.200082 
L 242.39786 205.548521 
L 242.479375 203.894044 
L 242.56977 202.236731 
L 242.668163 200.576633 
L 242.773017 198.913749 
L 242.881993 197.248017 
L 242.991773 195.579301 
L 243.097869 193.907396 
L 243.194407 192.232059 
L 243.273899 190.553088 
L 243.326968 188.870462 
L 243.34205 187.184599 
L 243.305248 185.496764 
L 243.201097 183.809646 
L 243.012522 182.128029 
L 242.720154 180.459791 
L 242.301492 178.817519 
L 241.710063 177.228524 
L 240.879056 175.75038 
L 239.907556 174.360693 
L 238.812877 173.066222 
L 237.602221 171.879795 
L 236.285887 170.811727 
L 234.875616 169.870965 
L 233.385121 169.063146 
L 231.826082 168.397071 
" clip-path="url(#pd0a46e44d1)" style="fill: none; stroke: #ff0000; stroke-opacity: 0.2; stroke-width: 0.25; stroke-linecap: square"/>
   </g>
   <g id="line2d_32">
    <path d="M 242.12244 213.775062 
L 242.16211 212.136232 
L 242.206179 210.493346 
L 242.258525 208.846582 
L 242.3198 207.196051 
L 242.390436 205.541872 
L 242.470583 203.884159 
L 242.560002 202.223012 
L 242.657947 200.558502 
L 242.76303 198.890655 
L 242.873062 197.219432 
L 242.984886 195.544723 
L 243.094176 193.866342 
L 243.195226 192.184053 
L 243.280716 190.497639 
L 243.341435 188.807035 
L 243.365975 187.112567 
L 243.340587 185.415341 
L 243.249939 183.71781 
L 243.077025 182.024422 
L 242.802434 180.342602 
L 242.403426 178.684352 
L 241.835045 177.075177 
L 241.030152 175.569712 
L 240.072935 174.156098 
L 238.987823 172.838288 
L 237.78345 171.628597 
L 236.471511 170.536303 
L 235.063358 169.570927 
L 233.569866 168.743422 
L 232.005319 168.059549 
" clip-path="url(#pd0a46e44d1)" style="fill: none; stroke: #ff0000; stroke-opacity: 0.4; stroke-width: 0.25; stroke-linecap: square"/>
   </g>
   <g id="line2d_33">
    <path d="M 242.12244 213.775062 
L 242.16395 212.136278 
L 242.20896 210.4938 
L 242.262275 208.847834 
L 242.324504 207.198493 
L 242.396038 205.545892 
L 242.476974 203.890144 
L 242.567006 202.231342 
L 242.665311 200.56955 
L 242.770409 198.904784 
L 242.880005 197.236994 
L 242.99081 195.566058 
L 243.098353 193.891779 
L 243.196754 192.213918 
L 243.278492 190.53227 
L 243.334129 188.846802 
L 243.351995 187.157916 
L 243.318001 185.466859 
L 243.216477 183.776316 
L 243.030042 182.091102 
L 242.738875 180.419203 
L 242.319804 178.773486 
L 241.726132 177.181633 
L 240.885801 175.704789 
L 239.910672 174.313438 
L 238.811091 173.018604 
L 237.596079 171.831673 
L 236.275474 170.763349 
L 234.861014 169.822584 
L 233.365354 169.016973 
L 231.801158 168.354089 
" clip-path="url(#pd0a46e44d1)" style="fill: none; stroke: #ff0000; stroke-opacity: 0.6; stroke-width: 0.25; stroke-linecap: square"/>
   </g>
   <g id="line2d_34">
    <path d="M 242.12244 213.775062 
L 242.163498 212.136266 
L 242.207619 210.493297 
L 242.26001 208.846369 
L 242.321339 207.195605 
L 242.392057 205.541126 
L 242.472329 203.883054 
L 242.561923 202.221495 
L 242.660095 200.556528 
L 242.765451 198.888186 
L 242.875791 197.216437 
L 242.987928 195.541174 
L 243.097499 193.862216 
L 243.198744 192.179332 
L 243.284265 190.492309 
L 243.344756 188.80109 
L 243.368681 187.106018 
L 243.342104 185.408236 
L 243.249498 183.710266 
L 243.073602 182.016679 
L 242.79468 180.335112 
L 242.389558 178.67794 
L 241.812017 177.071689 
L 240.992924 175.57363 
L 240.029023 174.16438 
L 238.937354 172.851904 
L 237.72692 171.648271 
L 236.409921 170.562157 
L 234.997036 169.60387 
L 233.499644 168.78367 
L 231.93192 168.107414 
" clip-path="url(#pd0a46e44d1)" style="fill: none; stroke: #ff0000; stroke-opacity: 0.8; stroke-width: 0.25; stroke-linecap: square"/>
   </g>
   <g id="line2d_35">
    <path d="M 242.12244 213.775062 
L 242.165317 212.136313 
L 242.211066 210.493795 
L 242.265295 208.847736 
L 242.328631 207.198254 
L 242.401475 205.545467 
L 242.483929 203.889488 
L 242.575695 202.230415 
L 242.675951 200.568312 
L 242.783207 198.903193 
L 242.895154 197.235006 
L 243.008477 195.56362 
L 243.118662 193.88883 
L 243.219772 192.210382 
L 243.304205 190.528052 
L 243.362418 188.841792 
L 243.3826 187.151987 
L 243.350475 185.459883 
L 243.250139 183.768192 
L 243.063902 182.081809 
L 242.771536 180.4089 
L 242.349322 178.762683 
L 241.749808 177.171609 
L 240.906669 175.69478 
L 239.928731 174.303694 
L 238.825742 173.009934 
L 237.607372 171.824482 
L 236.283985 170.757465 
L 234.866565 169.818753 
L 233.36846 169.014858 
L 231.801981 168.353918 
" clip-path="url(#pd0a46e44d1)" style="fill: none; stroke: #ff0000; stroke-width: 0.25; stroke-linecap: square"/>
   </g>
   <g id="line2d_36">
    <path d="M 276.097702 168.927602 
L 274.625537 168.996184 
L 273.160518 169.063673 
L 271.702688 169.131766 
L 270.251928 169.198843 
L 268.808102 169.262929 
L 267.37106 169.321626 
L 265.940651 169.372044 
L 264.516746 169.410728 
L 263.099276 169.433583 
L 261.688294 169.435796 
L 260.284059 169.411747 
L 258.887166 169.354914 
L 257.498729 169.25776 
L 256.120636 169.111607 
L 254.755918 168.906467 
L 253.409283 168.630831 
L 252.087924 168.271391 
L 250.802805 167.812625 
L 249.56663 167.245346 
L 248.398288 166.556907 
L 247.30844 165.756083 
L 246.282405 164.880016 
L 245.326036 163.932506 
L 244.444032 162.918803 
L 243.640591 161.844514 
L 242.920087 160.715094 
L 242.256667 159.552914 
L 241.617939 158.378216 
L 240.98613 157.20058 
L 240.360023 156.020274 
" clip-path="url(#pd0a46e44d1)" style="fill: none; stroke: #ff0000; stroke-opacity: 0.2; stroke-width: 0.25; stroke-linecap: square"/>
   </g>
   <g id="line2d_37">
    <path d="M 276.097702 168.927602 
L 274.625877 169.003138 
L 273.159911 169.074235 
L 271.700078 169.146693 
L 270.246282 169.218992 
L 268.798405 169.289244 
L 267.356309 169.355123 
L 265.919845 169.413792 
L 264.488876 169.46182 
L 263.06331 169.495101 
L 261.643159 169.508767 
L 260.228629 169.497083 
L 258.820247 169.453338 
L 257.419048 169.369714 
L 256.026851 169.237116 
L 254.646653 169.044966 
L 253.283227 168.780921 
L 251.944032 168.430485 
L 250.640732 167.976438 
L 249.387389 167.407771 
L 248.205573 166.709182 
L 247.098565 165.902551 
L 246.057551 165.016717 
L 245.088048 164.056688 
L 244.194053 163.028863 
L 243.37971 161.93917 
L 242.649576 160.793181 
L 242.00839 159.596554 
L 241.406395 158.380752 
L 240.809718 157.16299 
L 240.206641 155.948704 
" clip-path="url(#pd0a46e44d1)" style="fill: none; stroke: #ff0000; stroke-opacity: 0.4; stroke-width: 0.25; stroke-linecap: square"/>
   </g>
   <g id="line2d_38">
    <path d="M 276.097702 168.927602 
L 274.625711 168.999833 
L 273.160314 169.067096 
L 271.701746 169.135147 
L 270.249893 169.202494 
L 268.804624 169.267279 
L 267.36579 169.327203 
L 265.933236 169.379459 
L 264.506823 169.420652 
L 263.086464 169.446722 
L 261.672184 169.452855 
L 260.264205 169.433391 
L 258.863078 169.381718 
L 257.469865 169.290141 
L 256.086414 169.149724 
L 254.715744 168.950082 
L 253.362636 168.6791 
L 252.034552 168.32251 
L 250.743167 167.863251 
L 249.502562 167.29036 
L 248.334563 166.588317 
L 247.239351 165.783086 
L 246.209494 164.90043 
L 245.249779 163.945742 
L 244.365626 162.923749 
L 243.561367 161.84023 
L 242.840611 160.701391 
L 242.206256 159.513726 
L 241.603411 158.310827 
L 241.004935 157.106446 
L 240.398283 155.906505 
" clip-path="url(#pd0a46e44d1)" style="fill: none; stroke: #ff0000; stroke-opacity: 0.6; stroke-width: 0.25; stroke-linecap: square"/>
   </g>
   <g id="line2d_39">
    <path d="M 276.097702 168.927602 
L 274.625831 169.002228 
L 273.160083 169.07213 
L 271.700728 169.143276 
L 270.247665 169.214158 
L 268.800769 169.282901 
L 267.359896 169.347191 
L 265.924893 169.404203 
L 264.49562 169.45052 
L 263.071982 169.482055 
L 261.65399 169.493961 
L 260.241847 169.480533 
L 258.83608 169.435095 
L 257.43772 169.349872 
L 256.048583 169.215814 
L 254.671659 169.022384 
L 253.311715 168.757245 
L 251.97624 168.405809 
L 250.677055 167.950498 
L 249.428628 167.379669 
L 248.253739 166.676621 
L 247.150855 165.87072 
L 246.113641 164.98633 
L 245.146649 164.029281 
L 244.255952 163.003774 
L 243.446005 161.915701 
L 242.720348 160.771524 
L 242.081792 159.57794 
L 241.486811 158.363058 
L 240.89506 157.14726 
L 240.293934 155.936394 
" clip-path="url(#pd0a46e44d1)" style="fill: none; stroke: #ff0000; stroke-opacity: 0.8; stroke-width: 0.25; stroke-linecap: square"/>
   </g>
   <g id="line2d_40">
    <path d="M 276.097702 168.927602 
L 274.625714 168.999898 
L 273.160256 169.067219 
L 271.701564 169.135307 
L 270.249528 169.202647 
L 268.804018 169.26736 
L 267.364889 169.327128 
L 265.931988 169.379125 
L 264.505182 169.41994 
L 263.08439 169.445498 
L 261.669645 169.450977 
L 260.261179 169.430711 
L 258.859556 169.378086 
L 257.465855 169.285412 
L 256.081941 169.143761 
L 254.710856 168.942758 
L 253.35741 168.670283 
L 252.02911 168.312024 
L 250.737758 167.850735 
L 249.497699 167.275096 
L 248.331564 166.56869 
L 247.238435 165.759536 
L 246.211002 164.873076 
L 245.254087 163.914695 
L 244.372107 162.889992 
L 243.569362 161.804535 
L 242.849728 160.664184 
L 242.210548 159.478305 
L 241.603356 158.276776 
L 240.999743 157.074127 
L 240.387331 155.87627 
" clip-path="url(#pd0a46e44d1)" style="fill: none; stroke: #ff0000; stroke-width: 0.25; stroke-linecap: square"/>
   </g>
   <g id="line2d_41">
    <path d="M 230.376987 135.128195 
L 230.388848 136.722564 
L 230.39894 138.315828 
L 230.406574 139.908078 
L 230.410884 141.499403 
L 230.410846 143.08989 
L 230.40526 144.67962 
L 230.39274 146.268663 
L 230.3717 147.857073 
L 230.340361 149.44488 
L 230.296752 151.03208 
L 230.238733 152.618623 
L 230.16403 154.204399 
L 230.070285 155.789233 
L 229.955138 157.372869 
L 229.816331 158.954973 
L 229.651853 160.535144 
L 229.46089 162.113036 
L 229.242664 163.688258 
L 228.997229 165.260498 
L 228.725749 166.829632 
L 228.430801 168.39585 
L 228.11671 169.959802 
L 227.789895 171.522729 
L 227.488762 173.092492 
L 227.290985 174.680274 
L 227.283198 176.281787 
L 227.521971 177.86657 
L 227.963483 179.408036 
L 228.380072 180.95694 
L 228.783136 182.509672 
" clip-path="url(#pd0a46e44d1)" style="fill: none; stroke: #ff0000; stroke-opacity: 0.2; stroke-width: 0.25; stroke-linecap: square"/>
   </g>
   <g id="line2d_42">
    <path d="M 230.376987 135.128195 
L 230.38829 136.722568 
L 230.397507 138.316526 
L 230.403714 139.910156 
L 230.405935 141.503541 
L 230.403026 143.096759 
L 230.393664 144.689881 
L 230.376335 146.282959 
L 230.349326 147.876028 
L 230.310729 149.469088 
L 230.258457 151.062098 
L 230.190263 152.654962 
L 230.103786 154.247516 
L 229.996616 155.839518 
L 229.866382 157.430641 
L 229.710871 159.020477 
L 229.528186 160.608556 
L 229.317692 162.194481 
L 229.07892 163.777837 
L 228.812355 165.358334 
L 228.51973 166.935924 
L 228.204353 168.510951 
L 227.871455 170.084296 
L 227.528567 171.657507 
L 227.223102 173.240478 
L 227.02978 174.842992 
L 227.032013 176.458793 
L 227.281337 178.056464 
L 227.719497 179.613746 
L 228.182294 181.164287 
L 228.629765 182.719496 
" clip-path="url(#pd0a46e44d1)" style="fill: none; stroke: #ff0000; stroke-opacity: 0.4; stroke-width: 0.25; stroke-linecap: square"/>
   </g>
   <g id="line2d_43">
    <path d="M 230.376987 135.128195 
L 230.388519 136.722566 
L 230.39816 138.316094 
L 230.40515 139.908861 
L 230.408599 141.50095 
L 230.407454 143.092436 
L 230.400487 144.683393 
L 230.386282 146.273879 
L 230.36323 147.863935 
L 230.329524 149.453579 
L 230.283177 151.042788 
L 230.222037 152.631494 
L 230.143833 154.21957 
L 230.046227 155.806817 
L 229.926899 157.392958 
L 229.783664 158.977644 
L 229.614618 160.560461 
L 229.419123 162.141066 
L 229.196599 163.719084 
L 228.947355 165.294238 
L 228.672863 166.866464 
L 228.376065 168.436032 
L 228.061704 170.003695 
L 227.736675 171.570799 
L 227.440775 173.145363 
L 227.250304 174.737794 
L 227.251988 176.343021 
L 227.502652 177.929658 
L 227.951821 179.472652 
L 228.381998 181.021524 
L 228.790649 182.576437 
" clip-path="url(#pd0a46e44d1)" style="fill: none; stroke: #ff0000; stroke-opacity: 0.6; stroke-width: 0.25; stroke-linecap: square"/>
   </g>
   <g id="line2d_44">
    <path d="M 230.376987 135.128195 
L 230.388153 136.722569 
L 230.397317 138.316561 
L 230.403506 139.910256 
L 230.405746 141.503735 
L 230.402899 143.097076 
L 230.393643 144.690344 
L 230.376465 146.283593 
L 230.349652 147.876855 
L 230.311299 149.470129 
L 230.259316 151.063373 
L 230.191455 152.656489 
L 230.105358 154.249314 
L 229.998615 155.841603 
L 229.868856 157.43303 
L 229.713875 159.023188 
L 229.531788 160.611607 
L 229.322018 162.197899 
L 229.084129 163.781656 
L 228.818636 165.362594 
L 228.527304 166.940674 
L 228.213471 168.516246 
L 227.882393 170.090195 
L 227.541617 171.664063 
L 227.238645 173.247685 
L 227.048191 174.850685 
L 227.054222 176.46659 
L 227.307864 178.063673 
L 227.748642 179.620296 
L 228.211101 181.171013 
L 228.656884 182.726781 
" clip-path="url(#pd0a46e44d1)" style="fill: none; stroke: #ff0000; stroke-opacity: 0.8; stroke-width: 0.25; stroke-linecap: square"/>
   </g>
   <g id="line2d_45">
    <path d="M 230.376987 135.128195 
L 230.388008 136.72257 
L 230.397238 138.316322 
L 230.403691 139.909534 
L 230.406448 141.50228 
L 230.404426 143.094635 
L 230.396366 144.686662 
L 230.380817 146.278415 
L 230.356139 147.869928 
L 230.320494 149.461206 
L 230.271868 151.052216 
L 230.208087 152.642875 
L 230.126864 154.233039 
L 230.025859 155.822492 
L 229.902763 157.410939 
L 229.755424 158.998011 
L 229.581992 160.583278 
L 229.38194 162.166395 
L 229.154817 163.74699 
L 228.901094 165.324803 
L 228.622449 166.899803 
L 228.322075 168.472316 
L 228.00502 170.043166 
L 227.678539 171.613785 
L 227.383795 173.192432 
L 227.196268 174.78908 
L 227.200991 176.398161 
L 227.451696 177.988691 
L 227.900021 179.535914 
L 228.343938 181.084847 
L 228.7655 182.640216 
" clip-path="url(#pd0a46e44d1)" style="fill: none; stroke: #ff0000; stroke-width: 0.25; stroke-linecap: square"/>
   </g>
   <g id="line2d_46">
    <path d="M 196.768984 180.233222 
L 198.367509 180.21407 
L 199.966196 180.1986 
L 201.565238 180.18887 
L 203.164808 180.186672 
L 204.765055 180.19412 
L 206.366086 180.213674 
L 207.967949 180.248159 
L 209.5706 180.300769 
L 211.173878 180.375049 
L 212.777459 180.47487 
L 214.380819 180.604355 
L 215.98319 180.767781 
L 217.583537 180.969417 
L 219.18055 181.213315 
L 220.772684 181.503005 
L 222.358265 181.841124 
L 223.936078 182.227365 
L 225.505048 182.660871 
L 227.064813 183.13858 
L 228.616125 183.654757 
L 230.161238 184.200587 
L 231.723578 184.707458 
L 233.336186 185.038417 
L 234.985715 185.044369 
L 236.623158 184.823964 
L 238.235798 184.455829 
L 239.809023 183.94081 
L 241.329524 183.28429 
L 242.848892 182.623881 
L 244.37542 181.979552 
" clip-path="url(#pd0a46e44d1)" style="fill: none; stroke: #ff0000; stroke-opacity: 0.2; stroke-width: 0.25; stroke-linecap: square"/>
   </g>
   <g id="line2d_47">
    <path d="M 196.768984 180.233222 
L 198.367492 180.212664 
L 199.966302 180.195545 
L 201.565626 180.184062 
L 203.165653 180.180084 
L 204.766545 180.185807 
L 206.368426 180.203782 
L 207.971352 180.236931 
L 209.575289 180.288555 
L 211.180075 180.362317 
L 212.785382 180.46221 
L 214.390665 180.592495 
L 215.995125 180.757596 
L 217.597678 180.961945 
L 219.196941 181.209762 
L 220.791275 181.504762 
L 222.378887 181.84977 
L 223.958424 182.24469 
L 225.528656 182.688879 
L 227.089055 183.179504 
L 228.640219 183.711078 
L 230.184277 184.275064 
L 231.744967 184.804419 
L 233.358248 185.160488 
L 235.013739 185.191841 
L 236.660209 184.990213 
L 238.283524 184.638798 
L 239.86898 184.139196 
L 241.402939 183.496504 
L 242.916781 182.806595 
L 244.442321 182.142394 
" clip-path="url(#pd0a46e44d1)" style="fill: none; stroke: #ff0000; stroke-opacity: 0.4; stroke-width: 0.25; stroke-linecap: square"/>
   </g>
   <g id="line2d_48">
    <path d="M 196.768984 180.233222 
L 198.367522 180.215167 
L 199.966399 180.200582 
L 201.565801 180.191827 
L 203.165885 180.190671 
L 204.766788 180.199207 
L 206.368603 180.219871 
L 207.971365 180.255458 
L 209.575019 180.30913 
L 211.179391 180.384398 
L 212.78415 180.48509 
L 214.388764 180.615285 
L 215.992467 180.779202 
L 217.594227 180.981047 
L 219.192748 181.224793 
L 220.786511 181.513887 
L 222.373877 181.85087 
L 223.953676 182.235342 
L 225.524882 182.666356 
L 227.087183 183.140767 
L 228.641367 183.652782 
L 230.189697 184.193546 
L 231.75317 184.701059 
L 233.366032 185.036688 
L 235.016656 185.046344 
L 236.654915 184.824212 
L 238.268154 184.454305 
L 239.842694 183.940328 
L 241.364874 183.285479 
L 242.882039 182.617924 
L 244.410634 181.97641 
" clip-path="url(#pd0a46e44d1)" style="fill: none; stroke: #ff0000; stroke-opacity: 0.6; stroke-width: 0.25; stroke-linecap: square"/>
   </g>
   <g id="line2d_49">
    <path d="M 196.768984 180.233222 
L 198.367505 180.213702 
L 199.966449 180.197425 
L 201.566021 180.186878 
L 203.1664 180.183917 
L 204.76774 180.190723 
L 206.37015 180.209829 
L 207.973679 180.244139 
L 209.578283 180.296929 
L 211.183789 180.371829 
L 212.78986 180.472795 
L 214.395949 180.60404 
L 216.001256 180.769928 
L 217.604704 180.974819 
L 219.204926 181.222848 
L 220.800311 181.517629 
L 222.389112 181.861874 
L 223.970026 182.255378 
L 225.541889 182.697388 
L 227.104241 183.184958 
L 228.657742 183.71251 
L 230.204561 184.271426 
L 231.767602 184.796325 
L 233.382565 185.148127 
L 235.038795 185.174446 
L 236.685228 184.967877 
L 238.308044 184.611834 
L 239.892636 184.108045 
L 241.425327 183.461306 
L 242.939819 182.771914 
L 244.466201 182.108731 
" clip-path="url(#pd0a46e44d1)" style="fill: none; stroke: #ff0000; stroke-opacity: 0.8; stroke-width: 0.25; stroke-linecap: square"/>
   </g>
   <g id="line2d_50">
    <path d="M 196.768984 180.233222 
L 198.367525 180.215394 
L 199.966457 180.200903 
L 201.565966 180.192285 
L 203.166211 180.191324 
L 204.767325 180.200121 
L 206.369401 180.221127 
L 207.972468 180.257151 
L 209.576469 180.311363 
L 211.181226 180.387287 
L 212.7864 180.488757 
L 214.391453 180.619858 
L 215.99561 180.784809 
L 217.597833 180.987815 
L 219.196815 181.232838 
L 220.791031 181.52331 
L 222.378839 181.86175 
L 223.959066 182.247739 
L 225.530688 182.68031 
L 227.093399 183.1563 
L 228.647993 183.6699 
L 230.196742 184.212248 
L 231.760847 184.720891 
L 233.374619 185.056936 
L 235.026246 185.065468 
L 236.665865 184.845877 
L 238.28058 184.477893 
L 239.855811 183.962795 
L 241.378235 183.305991 
L 242.895374 182.635923 
L 244.423931 181.991772 
" clip-path="url(#pd0a46e44d1)" style="fill: none; stroke: #ff0000; stroke-width: 0.25; stroke-linecap: square"/>
   </g>
   <g id="line2d_51">
    <path d="M 242.01582 253.8072 
L 242.01582 252.19944 
L 242.01582 250.59168 
L 242.01582 248.98392 
L 242.01582 247.37616 
L 242.01582 245.7684 
L 242.01582 244.16064 
L 242.01582 242.55288 
L 242.01582 240.94512 
L 242.01582 239.33736 
L 242.01582 237.7296 
L 242.01582 236.12184 
L 242.01582 234.51408 
L 242.01582 232.90632 
L 242.01582 231.29856 
L 242.01582 229.6908 
L 242.01582 228.08304 
L 242.01582 226.47528 
L 242.01582 224.86752 
L 242.01582 223.25976 
L 242.01582 221.652 
L 242.01582 220.04424 
L 242.01582 218.43648 
L 242.01582 216.82872 
L 242.01582 215.22096 
L 242.01582 213.6132 
L 242.01582 212.00544 
L 242.01582 210.39768 
L 242.01582 208.78992 
L 242.01582 207.18216 
L 242.01582 205.5744 
" clip-path="url(#pd0a46e44d1)" style="fill: none; stroke: #ff0000; stroke-opacity: 0.2; stroke-width: 0.25; stroke-linecap: square"/>
   </g>
   <g id="line2d_52">
    <path d="M 242.01582 253.8072 
L 242.01582 252.19944 
L 242.01582 250.59168 
L 242.01582 248.98392 
L 242.01582 247.37616 
L 242.01582 245.7684 
L 242.01582 244.16064 
L 242.01582 242.55288 
L 242.01582 240.94512 
L 242.01582 239.33736 
L 242.01582 237.7296 
L 242.01582 236.12184 
L 242.01582 234.51408 
L 242.01582 232.90632 
L 242.01582 231.29856 
L 242.01582 229.6908 
L 242.01582 228.08304 
L 242.01582 226.47528 
L 242.01582 224.86752 
L 242.01582 223.25976 
L 242.01582 221.652 
L 242.01582 220.04424 
L 242.01582 218.43648 
L 242.01582 216.82872 
L 242.01582 215.22096 
L 242.01582 213.6132 
L 242.01582 212.00544 
L 242.01582 210.39768 
L 242.01582 208.78992 
L 242.01582 207.18216 
L 242.01582 205.5744 
" clip-path="url(#pd0a46e44d1)" style="fill: none; stroke: #ff0000; stroke-opacity: 0.4; stroke-width: 0.25; stroke-linecap: square"/>
   </g>
   <g id="line2d_53">
    <path d="M 242.01582 253.8072 
L 242.01582 252.19944 
L 242.01582 250.59168 
L 242.01582 248.98392 
L 242.01582 247.37616 
L 242.01582 245.7684 
L 242.01582 244.16064 
L 242.01582 242.55288 
L 242.01582 240.94512 
L 242.01582 239.33736 
L 242.01582 237.7296 
L 242.01582 236.12184 
L 242.01582 234.51408 
L 242.01582 232.90632 
L 242.01582 231.29856 
L 242.01582 229.6908 
L 242.01582 228.08304 
L 242.01582 226.47528 
L 242.01582 224.86752 
L 242.01582 223.25976 
L 242.01582 221.652 
L 242.01582 220.04424 
L 242.01582 218.43648 
L 242.01582 216.82872 
L 242.01582 215.22096 
L 242.01582 213.6132 
L 242.01582 212.00544 
L 242.01582 210.39768 
L 242.01582 208.78992 
L 242.01582 207.18216 
L 242.01582 205.5744 
" clip-path="url(#pd0a46e44d1)" style="fill: none; stroke: #ff0000; stroke-opacity: 0.6; stroke-width: 0.25; stroke-linecap: square"/>
   </g>
   <g id="line2d_54">
    <path d="M 242.01582 253.8072 
L 242.01582 252.19944 
L 242.01582 250.59168 
L 242.01582 248.98392 
L 242.01582 247.37616 
L 242.01582 245.7684 
L 242.01582 244.16064 
L 242.01582 242.55288 
L 242.01582 240.94512 
L 242.01582 239.33736 
L 242.01582 237.7296 
L 242.01582 236.12184 
L 242.01582 234.51408 
L 242.01582 232.90632 
L 242.01582 231.29856 
L 242.01582 229.6908 
L 242.01582 228.08304 
L 242.01582 226.47528 
L 242.01582 224.86752 
L 242.01582 223.25976 
L 242.01582 221.652 
L 242.01582 220.04424 
L 242.01582 218.43648 
L 242.01582 216.82872 
L 242.01582 215.22096 
L 242.01582 213.6132 
L 242.01582 212.00544 
L 242.01582 210.39768 
L 242.01582 208.78992 
L 242.01582 207.18216 
L 242.01582 205.5744 
" clip-path="url(#pd0a46e44d1)" style="fill: none; stroke: #ff0000; stroke-opacity: 0.8; stroke-width: 0.25; stroke-linecap: square"/>
   </g>
   <g id="line2d_55">
    <path d="M 242.01582 253.8072 
L 242.01582 252.19944 
L 242.01582 250.59168 
L 242.01582 248.98392 
L 242.01582 247.37616 
L 242.01582 245.7684 
L 242.01582 244.16064 
L 242.01582 242.55288 
L 242.01582 240.94512 
L 242.01582 239.33736 
L 242.01582 237.7296 
L 242.01582 236.12184 
L 242.01582 234.51408 
L 242.01582 232.90632 
L 242.01582 231.29856 
L 242.01582 229.6908 
L 242.01582 228.08304 
L 242.01582 226.47528 
L 242.01582 224.86752 
L 242.01582 223.25976 
L 242.01582 221.652 
L 242.01582 220.04424 
L 242.01582 218.43648 
L 242.01582 216.82872 
L 242.01582 215.22096 
L 242.01582 213.6132 
L 242.01582 212.00544 
L 242.01582 210.39768 
L 242.01582 208.78992 
L 242.01582 207.18216 
L 242.01582 205.5744 
" clip-path="url(#pd0a46e44d1)" style="fill: none; stroke: #ff0000; stroke-width: 0.25; stroke-linecap: square"/>
   </g>
   <g id="line2d_56">
    <path d="M 315.4392 168.67218 
L 313.83144 168.67218 
L 312.22368 168.67218 
L 310.61592 168.67218 
L 309.00816 168.67218 
L 307.4004 168.67218 
L 305.79264 168.67218 
L 304.18488 168.67218 
L 302.57712 168.67218 
L 300.96936 168.67218 
L 299.3616 168.67218 
L 297.75384 168.67218 
L 296.14608 168.67218 
L 294.53832 168.67218 
L 292.93056 168.67218 
L 291.3228 168.67218 
L 289.71504 168.67218 
L 288.10728 168.67218 
L 286.49952 168.67218 
L 284.89176 168.67218 
L 283.284 168.67218 
L 281.67624 168.67218 
L 280.06848 168.67218 
L 278.46072 168.67218 
L 276.85296 168.67218 
L 275.2452 168.67218 
L 273.63744 168.67218 
L 272.02968 168.67218 
L 270.42192 168.67218 
L 268.81416 168.67218 
L 267.2064 168.67218 
" clip-path="url(#pd0a46e44d1)" style="fill: none; stroke: #ff0000; stroke-opacity: 0.2; stroke-width: 0.25; stroke-linecap: square"/>
   </g>
   <g id="line2d_57">
    <path d="M 315.4392 168.67218 
L 313.83144 168.67218 
L 312.22368 168.67218 
L 310.61592 168.67218 
L 309.00816 168.67218 
L 307.4004 168.67218 
L 305.79264 168.67218 
L 304.18488 168.67218 
L 302.57712 168.67218 
L 300.96936 168.67218 
L 299.3616 168.67218 
L 297.75384 168.67218 
L 296.14608 168.67218 
L 294.53832 168.67218 
L 292.93056 168.67218 
L 291.3228 168.67218 
L 289.71504 168.67218 
L 288.10728 168.67218 
L 286.49952 168.67218 
L 284.89176 168.67218 
L 283.284 168.67218 
L 281.67624 168.67218 
L 280.06848 168.67218 
L 278.46072 168.67218 
L 276.85296 168.67218 
L 275.2452 168.67218 
L 273.63744 168.67218 
L 272.02968 168.67218 
L 270.42192 168.67218 
L 268.81416 168.67218 
L 267.2064 168.67218 
" clip-path="url(#pd0a46e44d1)" style="fill: none; stroke: #ff0000; stroke-opacity: 0.4; stroke-width: 0.25; stroke-linecap: square"/>
   </g>
   <g id="line2d_58">
    <path d="M 315.4392 168.67218 
L 313.83144 168.67218 
L 312.22368 168.67218 
L 310.61592 168.67218 
L 309.00816 168.67218 
L 307.4004 168.67218 
L 305.79264 168.67218 
L 304.18488 168.67218 
L 302.57712 168.67218 
L 300.96936 168.67218 
L 299.3616 168.67218 
L 297.75384 168.67218 
L 296.14608 168.67218 
L 294.53832 168.67218 
L 292.93056 168.67218 
L 291.3228 168.67218 
L 289.71504 168.67218 
L 288.10728 168.67218 
L 286.49952 168.67218 
L 284.89176 168.67218 
L 283.284 168.67218 
L 281.67624 168.67218 
L 280.06848 168.67218 
L 278.46072 168.67218 
L 276.85296 168.67218 
L 275.2452 168.67218 
L 273.63744 168.67218 
L 272.02968 168.67218 
L 270.42192 168.67218 
L 268.81416 168.67218 
L 267.2064 168.67218 
" clip-path="url(#pd0a46e44d1)" style="fill: none; stroke: #ff0000; stroke-opacity: 0.6; stroke-width: 0.25; stroke-linecap: square"/>
   </g>
   <g id="line2d_59">
    <path d="M 315.4392 168.67218 
L 313.83144 168.67218 
L 312.22368 168.67218 
L 310.61592 168.67218 
L 309.00816 168.67218 
L 307.4004 168.67218 
L 305.79264 168.67218 
L 304.18488 168.67218 
L 302.57712 168.67218 
L 300.96936 168.67218 
L 299.3616 168.67218 
L 297.75384 168.67218 
L 296.14608 168.67218 
L 294.53832 168.67218 
L 292.93056 168.67218 
L 291.3228 168.67218 
L 289.71504 168.67218 
L 288.10728 168.67218 
L 286.49952 168.67218 
L 284.89176 168.67218 
L 283.284 168.67218 
L 281.67624 168.67218 
L 280.06848 168.67218 
L 278.46072 168.67218 
L 276.85296 168.67218 
L 275.2452 168.67218 
L 273.63744 168.67218 
L 272.02968 168.67218 
L 270.42192 168.67218 
L 268.81416 168.67218 
L 267.2064 168.67218 
" clip-path="url(#pd0a46e44d1)" style="fill: none; stroke: #ff0000; stroke-opacity: 0.8; stroke-width: 0.25; stroke-linecap: square"/>
   </g>
   <g id="line2d_60">
    <path d="M 315.4392 168.67218 
L 313.83144 168.67218 
L 312.22368 168.67218 
L 310.61592 168.67218 
L 309.00816 168.67218 
L 307.4004 168.67218 
L 305.79264 168.67218 
L 304.18488 168.67218 
L 302.57712 168.67218 
L 300.96936 168.67218 
L 299.3616 168.67218 
L 297.75384 168.67218 
L 296.14608 168.67218 
L 294.53832 168.67218 
L 292.93056 168.67218 
L 291.3228 168.67218 
L 289.71504 168.67218 
L 288.10728 168.67218 
L 286.49952 168.67218 
L 284.89176 168.67218 
L 283.284 168.67218 
L 281.67624 168.67218 
L 280.06848 168.67218 
L 278.46072 168.67218 
L 276.85296 168.67218 
L 275.2452 168.67218 
L 273.63744 168.67218 
L 272.02968 168.67218 
L 270.42192 168.67218 
L 268.81416 168.67218 
L 267.2064 168.67218 
" clip-path="url(#pd0a46e44d1)" style="fill: none; stroke: #ff0000; stroke-width: 0.25; stroke-linecap: square"/>
   </g>
   <g id="line2d_61">
    <path d="M 230.30418 95.353152 
L 230.305132 96.981782 
L 230.306038 98.610135 
L 230.307136 100.23821 
L 230.308435 101.866007 
L 230.30994 103.493525 
L 230.311657 105.120765 
L 230.313583 106.747725 
L 230.31571 108.374406 
L 230.318021 110.000808 
L 230.320484 111.626931 
L 230.323052 113.252777 
L 230.325658 114.878346 
L 230.328212 116.50364 
L 230.330595 118.128661 
L 230.332653 119.753414 
L 230.334198 121.377901 
L 230.334996 123.002128 
L 230.334766 124.6261 
L 230.333175 126.249823 
L 230.329837 127.873304 
L 230.324302 129.49655 
L 230.316068 131.119568 
L 230.304568 132.742362 
L 230.289186 134.364937 
L 230.269256 135.987293 
L 230.244079 137.609427 
L 230.212937 139.231333 
L 230.17512 140.852998 
L 230.129957 142.474407 
L 230.076853 144.095538 
" clip-path="url(#pd0a46e44d1)" style="fill: none; stroke: #ff0000; stroke-opacity: 0.2; stroke-width: 0.25; stroke-linecap: square"/>
   </g>
   <g id="line2d_62">
    <path d="M 230.30418 95.353152 
L 230.304175 96.981782 
L 230.30417 98.61041 
L 230.304164 100.239034 
L 230.304158 101.867654 
L 230.304153 103.496272 
L 230.304147 105.124886 
L 230.304141 106.753497 
L 230.304136 108.382105 
L 230.304132 110.010709 
L 230.30413 111.63931 
L 230.30413 113.267909 
L 230.304132 114.896504 
L 230.304139 116.525096 
L 230.30415 118.153684 
L 230.304166 119.78227 
L 230.30419 121.410853 
L 230.304222 123.039432 
L 230.304265 124.668009 
L 230.304319 126.296583 
L 230.304387 127.925154 
L 230.30447 129.553723 
L 230.304571 131.182289 
L 230.30469 132.810853 
L 230.304831 134.439414 
L 230.304994 136.067974 
L 230.30518 137.696533 
L 230.305391 139.32509 
L 230.305625 140.953646 
L 230.305881 142.582201 
L 230.306158 144.210756 
" clip-path="url(#pd0a46e44d1)" style="fill: none; stroke: #ff0000; stroke-opacity: 0.4; stroke-width: 0.25; stroke-linecap: square"/>
   </g>
   <g id="line2d_63">
    <path d="M 230.30418 95.353152 
L 230.304663 96.981782 
L 230.30512 98.610299 
L 230.305675 100.238701 
L 230.306331 101.866989 
L 230.307093 103.495163 
L 230.307962 105.123222 
L 230.308937 106.751167 
L 230.310015 108.378996 
L 230.311187 110.006711 
L 230.312436 111.634312 
L 230.313741 113.261798 
L 230.315066 114.889171 
L 230.316367 116.51643 
L 230.317583 118.143578 
L 230.318638 119.770615 
L 230.319437 121.397542 
L 230.319861 123.024362 
L 230.31977 124.651077 
L 230.318995 126.27769 
L 230.317342 127.904204 
L 230.314584 129.530622 
L 230.310467 131.156947 
L 230.304707 132.783184 
L 230.29699 134.409335 
L 230.286984 136.035404 
L 230.274333 137.661394 
L 230.258677 139.287305 
L 230.239658 140.91314 
L 230.216935 142.538899 
L 230.190209 144.164582 
" clip-path="url(#pd0a46e44d1)" style="fill: none; stroke: #ff0000; stroke-opacity: 0.6; stroke-width: 0.25; stroke-linecap: square"/>
   </g>
   <g id="line2d_64">
    <path d="M 230.30418 95.353152 
L 230.304465 96.981782 
L 230.304737 98.610349 
L 230.305067 100.23885 
L 230.305458 101.867288 
L 230.305911 103.49566 
L 230.306429 105.123969 
L 230.307011 106.752212 
L 230.307654 108.380391 
L 230.308354 110.008505 
L 230.309101 111.636555 
L 230.309882 113.26454 
L 230.310677 114.892461 
L 230.311458 116.520319 
L 230.312191 118.148113 
L 230.31283 119.775845 
L 230.313319 121.403515 
L 230.313587 123.031125 
L 230.31355 124.658675 
L 230.31311 126.286169 
L 230.312149 127.913606 
L 230.310534 129.540989 
L 230.308112 131.168322 
L 230.304714 132.795605 
L 230.300154 134.422842 
L 230.294232 136.050035 
L 230.286736 137.677187 
L 230.27745 139.304301 
L 230.26616 140.93138 
L 230.252663 142.558426 
L 230.236778 144.185441 
" clip-path="url(#pd0a46e44d1)" style="fill: none; stroke: #ff0000; stroke-opacity: 0.8; stroke-width: 0.25; stroke-linecap: square"/>
   </g>
   <g id="line2d_65">
    <path d="M 230.30418 95.353152 
L 230.304563 96.981782 
L 230.304925 98.610324 
L 230.305363 100.238777 
L 230.305883 101.86714 
L 230.306485 103.495414 
L 230.307173 105.123599 
L 230.307944 106.751695 
L 230.308797 108.379701 
L 230.309724 110.007618 
L 230.310712 111.635446 
L 230.311742 113.263184 
L 230.312789 114.890835 
L 230.313815 116.518397 
L 230.314772 118.145872 
L 230.3156 119.773261 
L 230.316222 121.400565 
L 230.316545 123.027786 
L 230.316454 124.654925 
L 230.315817 126.281984 
L 230.314477 127.908967 
L 230.312253 129.535875 
L 230.308942 131.162713 
L 230.304315 132.789482 
L 230.298124 134.416186 
L 230.2901 136.042828 
L 230.279959 137.66941 
L 230.267411 139.295936 
L 230.25217 140.922408 
L 230.233962 142.548827 
L 230.212548 144.175195 
" clip-path="url(#pd0a46e44d1)" style="fill: none; stroke: #ff0000; stroke-width: 0.25; stroke-linecap: square"/>
   </g>
   <g id="line2d_66">
    <path d="M 155.654592 180.38382 
L 157.01711 180.38382 
L 158.379629 180.38382 
L 159.742147 180.38382 
L 161.104666 180.38382 
L 162.467184 180.38382 
L 163.829703 180.38382 
L 165.192221 180.38382 
L 166.554739 180.38382 
L 167.917258 180.38382 
L 169.279776 180.38382 
L 170.642295 180.38382 
L 172.004813 180.38382 
L 173.367331 180.38382 
L 174.72985 180.38382 
L 176.092368 180.38382 
L 177.454887 180.38382 
L 178.817405 180.38382 
L 180.179924 180.38382 
L 181.542442 180.38382 
L 182.90496 180.38382 
L 184.267479 180.38382 
L 185.629997 180.38382 
L 186.992516 180.38382 
L 188.355034 180.38382 
L 189.717552 180.38382 
L 191.080071 180.38382 
L 192.442589 180.38382 
L 193.805108 180.38382 
L 195.167626 180.38382 
L 196.530145 180.38382 
" clip-path="url(#pd0a46e44d1)" style="fill: none; stroke: #ff0000; stroke-opacity: 0.2; stroke-width: 0.25; stroke-linecap: square"/>
   </g>
   <g id="line2d_67">
    <path d="M 155.654592 180.38382 
L 157.01711 180.38382 
L 158.379629 180.38382 
L 159.742147 180.38382 
L 161.104666 180.38382 
L 162.467184 180.38382 
L 163.829703 180.38382 
L 165.192221 180.38382 
L 166.554739 180.38382 
L 167.917258 180.38382 
L 169.279776 180.38382 
L 170.642295 180.38382 
L 172.004813 180.38382 
L 173.367331 180.38382 
L 174.72985 180.38382 
L 176.092368 180.38382 
L 177.454887 180.38382 
L 178.817405 180.38382 
L 180.179924 180.38382 
L 181.542442 180.38382 
L 182.90496 180.38382 
L 184.267479 180.38382 
L 185.629997 180.38382 
L 186.992516 180.38382 
L 188.355034 180.38382 
L 189.717552 180.38382 
L 191.080071 180.38382 
L 192.442589 180.38382 
L 193.805108 180.38382 
L 195.167626 180.38382 
L 196.530145 180.38382 
" clip-path="url(#pd0a46e44d1)" style="fill: none; stroke: #ff0000; stroke-opacity: 0.4; stroke-width: 0.25; stroke-linecap: square"/>
   </g>
   <g id="line2d_68">
    <path d="M 155.654592 180.38382 
L 157.01711 180.38382 
L 158.379629 180.38382 
L 159.742147 180.38382 
L 161.104666 180.38382 
L 162.467184 180.38382 
L 163.829703 180.38382 
L 165.192221 180.38382 
L 166.554739 180.38382 
L 167.917258 180.38382 
L 169.279776 180.38382 
L 170.642295 180.38382 
L 172.004813 180.38382 
L 173.367331 180.38382 
L 174.72985 180.38382 
L 176.092368 180.38382 
L 177.454887 180.38382 
L 178.817405 180.38382 
L 180.179924 180.38382 
L 181.542442 180.38382 
L 182.90496 180.38382 
L 184.267479 180.38382 
L 185.629997 180.38382 
L 186.992516 180.38382 
L 188.355034 180.38382 
L 189.717552 180.38382 
L 191.080071 180.38382 
L 192.442589 180.38382 
L 193.805108 180.38382 
L 195.167626 180.38382 
L 196.530145 180.38382 
" clip-path="url(#pd0a46e44d1)" style="fill: none; stroke: #ff0000; stroke-opacity: 0.6; stroke-width: 0.25; stroke-linecap: square"/>
   </g>
   <g id="line2d_69">
    <path d="M 155.654592 180.38382 
L 157.01711 180.38382 
L 158.379629 180.38382 
L 159.742147 180.38382 
L 161.104666 180.38382 
L 162.467184 180.38382 
L 163.829703 180.38382 
L 165.192221 180.38382 
L 166.554739 180.38382 
L 167.917258 180.38382 
L 169.279776 180.38382 
L 170.642295 180.38382 
L 172.004813 180.38382 
L 173.367331 180.38382 
L 174.72985 180.38382 
L 176.092368 180.38382 
L 177.454887 180.38382 
L 178.817405 180.38382 
L 180.179924 180.38382 
L 181.542442 180.38382 
L 182.90496 180.38382 
L 184.267479 180.38382 
L 185.629997 180.38382 
L 186.992516 180.38382 
L 188.355034 180.38382 
L 189.717552 180.38382 
L 191.080071 180.38382 
L 192.442589 180.38382 
L 193.805108 180.38382 
L 195.167626 180.38382 
L 196.530145 180.38382 
" clip-path="url(#pd0a46e44d1)" style="fill: none; stroke: #ff0000; stroke-opacity: 0.8; stroke-width: 0.25; stroke-linecap: square"/>
   </g>
   <g id="line2d_70">
    <path d="M 155.654592 180.38382 
L 157.01711 180.38382 
L 158.379629 180.38382 
L 159.742147 180.38382 
L 161.104666 180.38382 
L 162.467184 180.38382 
L 163.829703 180.38382 
L 165.192221 180.38382 
L 166.554739 180.38382 
L 167.917258 180.38382 
L 169.279776 180.38382 
L 170.642295 180.38382 
L 172.004813 180.38382 
L 173.367331 180.38382 
L 174.72985 180.38382 
L 176.092368 180.38382 
L 177.454887 180.38382 
L 178.817405 180.38382 
L 180.179924 180.38382 
L 181.542442 180.38382 
L 182.90496 180.38382 
L 184.267479 180.38382 
L 185.629997 180.38382 
L 186.992516 180.38382 
L 188.355034 180.38382 
L 189.717552 180.38382 
L 191.080071 180.38382 
L 192.442589 180.38382 
L 193.805108 180.38382 
L 195.167626 180.38382 
L 196.530145 180.38382 
" clip-path="url(#pd0a46e44d1)" style="fill: none; stroke: #ff0000; stroke-width: 0.25; stroke-linecap: square"/>
   </g>
   <g id="line2d_71">
    <path d="M 242.01582 294.232868 
L 242.01582 292.726882 
L 242.01582 291.220895 
L 242.01582 289.714909 
L 242.01582 288.208922 
L 242.01582 286.702936 
L 242.01582 285.19695 
L 242.01582 283.690963 
L 242.01582 282.184977 
L 242.01582 280.67899 
L 242.01582 279.173004 
L 242.01582 277.667017 
L 242.01582 276.161031 
L 242.01582 274.655045 
L 242.01582 273.149058 
L 242.01582 271.643072 
L 242.01582 270.137085 
L 242.01582 268.631099 
L 242.01582 267.125113 
L 242.01582 265.619126 
L 242.01582 264.11314 
L 242.01582 262.607153 
L 242.01582 261.101167 
L 242.01582 259.595181 
L 242.01582 258.089194 
L 242.01582 256.583208 
L 242.01582 255.077221 
L 242.01582 253.571235 
L 242.01582 252.065249 
L 242.01582 250.559262 
L 242.01582 249.053276 
" clip-path="url(#pd0a46e44d1)" style="fill: none; stroke: #ff0000; stroke-opacity: 0.2; stroke-width: 0.25; stroke-linecap: square"/>
   </g>
   <g id="line2d_72">
    <path d="M 242.01582 294.232868 
L 242.01582 292.726882 
L 242.01582 291.220895 
L 242.01582 289.714909 
L 242.01582 288.208922 
L 242.01582 286.702936 
L 242.01582 285.19695 
L 242.01582 283.690963 
L 242.01582 282.184977 
L 242.01582 280.67899 
L 242.01582 279.173004 
L 242.01582 277.667017 
L 242.01582 276.161031 
L 242.01582 274.655045 
L 242.01582 273.149058 
L 242.01582 271.643072 
L 242.01582 270.137085 
L 242.01582 268.631099 
L 242.01582 267.125113 
L 242.01582 265.619126 
L 242.01582 264.11314 
L 242.01582 262.607153 
L 242.01582 261.101167 
L 242.01582 259.595181 
L 242.01582 258.089194 
L 242.01582 256.583208 
L 242.01582 255.077221 
L 242.01582 253.571235 
L 242.01582 252.065249 
L 242.01582 250.559262 
L 242.01582 249.053276 
" clip-path="url(#pd0a46e44d1)" style="fill: none; stroke: #ff0000; stroke-opacity: 0.4; stroke-width: 0.25; stroke-linecap: square"/>
   </g>
   <g id="line2d_73">
    <path d="M 242.01582 294.232868 
L 242.01582 292.726882 
L 242.01582 291.220895 
L 242.01582 289.714909 
L 242.01582 288.208922 
L 242.01582 286.702936 
L 242.01582 285.19695 
L 242.01582 283.690963 
L 242.01582 282.184977 
L 242.01582 280.67899 
L 242.01582 279.173004 
L 242.01582 277.667017 
L 242.01582 276.161031 
L 242.01582 274.655045 
L 242.01582 273.149058 
L 242.01582 271.643072 
L 242.01582 270.137085 
L 242.01582 268.631099 
L 242.01582 267.125113 
L 242.01582 265.619126 
L 242.01582 264.11314 
L 242.01582 262.607153 
L 242.01582 261.101167 
L 242.01582 259.595181 
L 242.01582 258.089194 
L 242.01582 256.583208 
L 242.01582 255.077221 
L 242.01582 253.571235 
L 242.01582 252.065249 
L 242.01582 250.559262 
L 242.01582 249.053276 
" clip-path="url(#pd0a46e44d1)" style="fill: none; stroke: #ff0000; stroke-opacity: 0.6; stroke-width: 0.25; stroke-linecap: square"/>
   </g>
   <g id="line2d_74">
    <path d="M 242.01582 294.232868 
L 242.01582 292.726882 
L 242.01582 291.220895 
L 242.01582 289.714909 
L 242.01582 288.208922 
L 242.01582 286.702936 
L 242.01582 285.19695 
L 242.01582 283.690963 
L 242.01582 282.184977 
L 242.01582 280.67899 
L 242.01582 279.173004 
L 242.01582 277.667017 
L 242.01582 276.161031 
L 242.01582 274.655045 
L 242.01582 273.149058 
L 242.01582 271.643072 
L 242.01582 270.137085 
L 242.01582 268.631099 
L 242.01582 267.125113 
L 242.01582 265.619126 
L 242.01582 264.11314 
L 242.01582 262.607153 
L 242.01582 261.101167 
L 242.01582 259.595181 
L 242.01582 258.089194 
L 242.01582 256.583208 
L 242.01582 255.077221 
L 242.01582 253.571235 
L 242.01582 252.065249 
L 242.01582 250.559262 
L 242.01582 249.053276 
" clip-path="url(#pd0a46e44d1)" style="fill: none; stroke: #ff0000; stroke-opacity: 0.8; stroke-width: 0.25; stroke-linecap: square"/>
   </g>
   <g id="line2d_75">
    <path d="M 242.01582 294.232868 
L 242.01582 292.726882 
L 242.01582 291.220895 
L 242.01582 289.714909 
L 242.01582 288.208922 
L 242.01582 286.702936 
L 242.01582 285.19695 
L 242.01582 283.690963 
L 242.01582 282.184977 
L 242.01582 280.67899 
L 242.01582 279.173004 
L 242.01582 277.667017 
L 242.01582 276.161031 
L 242.01582 274.655045 
L 242.01582 273.149058 
L 242.01582 271.643072 
L 242.01582 270.137085 
L 242.01582 268.631099 
L 242.01582 267.125113 
L 242.01582 265.619126 
L 242.01582 264.11314 
L 242.01582 262.607153 
L 242.01582 261.101167 
L 242.01582 259.595181 
L 242.01582 258.089194 
L 242.01582 256.583208 
L 242.01582 255.077221 
L 242.01582 253.571235 
L 242.01582 252.065249 
L 242.01582 250.559262 
L 242.01582 249.053276 
" clip-path="url(#pd0a46e44d1)" style="fill: none; stroke: #ff0000; stroke-width: 0.25; stroke-linecap: square"/>
   </g>
   <g id="line2d_76">
    <path d="M 353.921088 168.67218 
L 352.026346 168.67218 
L 350.131603 168.67218 
L 348.236861 168.67218 
L 346.342118 168.67218 
L 344.447376 168.67218 
L 342.552633 168.67218 
L 340.657891 168.67218 
L 338.763149 168.67218 
L 336.868406 168.67218 
L 334.973664 168.67218 
L 333.078921 168.67218 
L 331.184179 168.67218 
L 329.289437 168.67218 
L 327.394694 168.67218 
L 325.499952 168.67218 
L 323.605209 168.67218 
L 321.710467 168.67218 
L 319.815724 168.67218 
L 317.920982 168.67218 
L 316.02624 168.67218 
L 314.131497 168.67218 
L 312.236755 168.67218 
L 310.342012 168.67218 
L 308.44727 168.67218 
L 306.552528 168.67218 
L 304.657785 168.67218 
L 302.763043 168.67218 
L 300.8683 168.67218 
L 298.973558 168.67218 
L 297.078815 168.67218 
" clip-path="url(#pd0a46e44d1)" style="fill: none; stroke: #ff0000; stroke-opacity: 0.2; stroke-width: 0.25; stroke-linecap: square"/>
   </g>
   <g id="line2d_77">
    <path d="M 353.921088 168.67218 
L 352.026346 168.67218 
L 350.131603 168.67218 
L 348.236861 168.67218 
L 346.342118 168.67218 
L 344.447376 168.67218 
L 342.552633 168.67218 
L 340.657891 168.67218 
L 338.763149 168.67218 
L 336.868406 168.67218 
L 334.973664 168.67218 
L 333.078921 168.67218 
L 331.184179 168.67218 
L 329.289437 168.67218 
L 327.394694 168.67218 
L 325.499952 168.67218 
L 323.605209 168.67218 
L 321.710467 168.67218 
L 319.815724 168.67218 
L 317.920982 168.67218 
L 316.02624 168.67218 
L 314.131497 168.67218 
L 312.236755 168.67218 
L 310.342012 168.67218 
L 308.44727 168.67218 
L 306.552528 168.67218 
L 304.657785 168.67218 
L 302.763043 168.67218 
L 300.8683 168.67218 
L 298.973558 168.67218 
L 297.078815 168.67218 
" clip-path="url(#pd0a46e44d1)" style="fill: none; stroke: #ff0000; stroke-opacity: 0.4; stroke-width: 0.25; stroke-linecap: square"/>
   </g>
   <g id="line2d_78">
    <path d="M 353.921088 168.67218 
L 352.026346 168.67218 
L 350.131603 168.67218 
L 348.236861 168.67218 
L 346.342118 168.67218 
L 344.447376 168.67218 
L 342.552633 168.67218 
L 340.657891 168.67218 
L 338.763149 168.67218 
L 336.868406 168.67218 
L 334.973664 168.67218 
L 333.078921 168.67218 
L 331.184179 168.67218 
L 329.289437 168.67218 
L 327.394694 168.67218 
L 325.499952 168.67218 
L 323.605209 168.67218 
L 321.710467 168.67218 
L 319.815724 168.67218 
L 317.920982 168.67218 
L 316.02624 168.67218 
L 314.131497 168.67218 
L 312.236755 168.67218 
L 310.342012 168.67218 
L 308.44727 168.67218 
L 306.552528 168.67218 
L 304.657785 168.67218 
L 302.763043 168.67218 
L 300.8683 168.67218 
L 298.973558 168.67218 
L 297.078815 168.67218 
" clip-path="url(#pd0a46e44d1)" style="fill: none; stroke: #ff0000; stroke-opacity: 0.6; stroke-width: 0.25; stroke-linecap: square"/>
   </g>
   <g id="line2d_79">
    <path d="M 353.921088 168.67218 
L 352.026346 168.67218 
L 350.131603 168.67218 
L 348.236861 168.67218 
L 346.342118 168.67218 
L 344.447376 168.67218 
L 342.552633 168.67218 
L 340.657891 168.67218 
L 338.763149 168.67218 
L 336.868406 168.67218 
L 334.973664 168.67218 
L 333.078921 168.67218 
L 331.184179 168.67218 
L 329.289437 168.67218 
L 327.394694 168.67218 
L 325.499952 168.67218 
L 323.605209 168.67218 
L 321.710467 168.67218 
L 319.815724 168.67218 
L 317.920982 168.67218 
L 316.02624 168.67218 
L 314.131497 168.67218 
L 312.236755 168.67218 
L 310.342012 168.67218 
L 308.44727 168.67218 
L 306.552528 168.67218 
L 304.657785 168.67218 
L 302.763043 168.67218 
L 300.8683 168.67218 
L 298.973558 168.67218 
L 297.078815 168.67218 
" clip-path="url(#pd0a46e44d1)" style="fill: none; stroke: #ff0000; stroke-opacity: 0.8; stroke-width: 0.25; stroke-linecap: square"/>
   </g>
   <g id="line2d_80">
    <path d="M 353.921088 168.67218 
L 352.026346 168.67218 
L 350.131603 168.67218 
L 348.236861 168.67218 
L 346.342118 168.67218 
L 344.447376 168.67218 
L 342.552633 168.67218 
L 340.657891 168.67218 
L 338.763149 168.67218 
L 336.868406 168.67218 
L 334.973664 168.67218 
L 333.078921 168.67218 
L 331.184179 168.67218 
L 329.289437 168.67218 
L 327.394694 168.67218 
L 325.499952 168.67218 
L 323.605209 168.67218 
L 321.710467 168.67218 
L 319.815724 168.67218 
L 317.920982 168.67218 
L 316.02624 168.67218 
L 314.131497 168.67218 
L 312.236755 168.67218 
L 310.342012 168.67218 
L 308.44727 168.67218 
L 306.552528 168.67218 
L 304.657785 168.67218 
L 302.763043 168.67218 
L 300.8683 168.67218 
L 298.973558 168.67218 
L 297.078815 168.67218 
" clip-path="url(#pd0a46e44d1)" style="fill: none; stroke: #ff0000; stroke-width: 0.25; stroke-linecap: square"/>
   </g>
   <g id="line2d_81">
    <path d="M 230.30418 54.823132 
L 230.30418 56.329118 
L 230.30418 57.835105 
L 230.30418 59.341091 
L 230.30418 60.847078 
L 230.30418 62.353064 
L 230.30418 63.85905 
L 230.30418 65.365037 
L 230.30418 66.871023 
L 230.30418 68.37701 
L 230.30418 69.882996 
L 230.30418 71.388983 
L 230.30418 72.894969 
L 230.30418 74.400955 
L 230.30418 75.906942 
L 230.30418 77.412928 
L 230.30418 78.918915 
L 230.30418 80.424901 
L 230.30418 81.930887 
L 230.30418 83.436874 
L 230.30418 84.94286 
L 230.30418 86.448847 
L 230.30418 87.954833 
L 230.30418 89.460819 
L 230.30418 90.966806 
L 230.30418 92.472792 
L 230.30418 93.978779 
L 230.30418 95.484765 
L 230.30418 96.990751 
L 230.30418 98.496738 
L 230.30418 100.002724 
" clip-path="url(#pd0a46e44d1)" style="fill: none; stroke: #ff0000; stroke-opacity: 0.2; stroke-width: 0.25; stroke-linecap: square"/>
   </g>
   <g id="line2d_82">
    <path d="M 230.30418 54.823132 
L 230.30418 56.329118 
L 230.30418 57.835105 
L 230.30418 59.341091 
L 230.30418 60.847078 
L 230.30418 62.353064 
L 230.30418 63.85905 
L 230.30418 65.365037 
L 230.30418 66.871023 
L 230.30418 68.37701 
L 230.30418 69.882996 
L 230.30418 71.388983 
L 230.30418 72.894969 
L 230.30418 74.400955 
L 230.30418 75.906942 
L 230.30418 77.412928 
L 230.30418 78.918915 
L 230.30418 80.424901 
L 230.30418 81.930887 
L 230.30418 83.436874 
L 230.30418 84.94286 
L 230.30418 86.448847 
L 230.30418 87.954833 
L 230.30418 89.460819 
L 230.30418 90.966806 
L 230.30418 92.472792 
L 230.30418 93.978779 
L 230.30418 95.484765 
L 230.30418 96.990751 
L 230.30418 98.496738 
L 230.30418 100.002724 
" clip-path="url(#pd0a46e44d1)" style="fill: none; stroke: #ff0000; stroke-opacity: 0.4; stroke-width: 0.25; stroke-linecap: square"/>
   </g>
   <g id="line2d_83">
    <path d="M 230.30418 54.823132 
L 230.30418 56.329118 
L 230.30418 57.835105 
L 230.30418 59.341091 
L 230.30418 60.847078 
L 230.30418 62.353064 
L 230.30418 63.85905 
L 230.30418 65.365037 
L 230.30418 66.871023 
L 230.30418 68.37701 
L 230.30418 69.882996 
L 230.30418 71.388983 
L 230.30418 72.894969 
L 230.30418 74.400955 
L 230.30418 75.906942 
L 230.30418 77.412928 
L 230.30418 78.918915 
L 230.30418 80.424901 
L 230.30418 81.930887 
L 230.30418 83.436874 
L 230.30418 84.94286 
L 230.30418 86.448847 
L 230.30418 87.954833 
L 230.30418 89.460819 
L 230.30418 90.966806 
L 230.30418 92.472792 
L 230.30418 93.978779 
L 230.30418 95.484765 
L 230.30418 96.990751 
L 230.30418 98.496738 
L 230.30418 100.002724 
" clip-path="url(#pd0a46e44d1)" style="fill: none; stroke: #ff0000; stroke-opacity: 0.6; stroke-width: 0.25; stroke-linecap: square"/>
   </g>
   <g id="line2d_84">
    <path d="M 230.30418 54.823132 
L 230.30418 56.329118 
L 230.30418 57.835105 
L 230.30418 59.341091 
L 230.30418 60.847078 
L 230.30418 62.353064 
L 230.30418 63.85905 
L 230.30418 65.365037 
L 230.30418 66.871023 
L 230.30418 68.37701 
L 230.30418 69.882996 
L 230.30418 71.388983 
L 230.30418 72.894969 
L 230.30418 74.400955 
L 230.30418 75.906942 
L 230.30418 77.412928 
L 230.30418 78.918915 
L 230.30418 80.424901 
L 230.30418 81.930887 
L 230.30418 83.436874 
L 230.30418 84.94286 
L 230.30418 86.448847 
L 230.30418 87.954833 
L 230.30418 89.460819 
L 230.30418 90.966806 
L 230.30418 92.472792 
L 230.30418 93.978779 
L 230.30418 95.484765 
L 230.30418 96.990751 
L 230.30418 98.496738 
L 230.30418 100.002724 
" clip-path="url(#pd0a46e44d1)" style="fill: none; stroke: #ff0000; stroke-opacity: 0.8; stroke-width: 0.25; stroke-linecap: square"/>
   </g>
   <g id="line2d_85">
    <path d="M 230.30418 54.823132 
L 230.30418 56.329118 
L 230.30418 57.835105 
L 230.30418 59.341091 
L 230.30418 60.847078 
L 230.30418 62.353064 
L 230.30418 63.85905 
L 230.30418 65.365037 
L 230.30418 66.871023 
L 230.30418 68.37701 
L 230.30418 69.882996 
L 230.30418 71.388983 
L 230.30418 72.894969 
L 230.30418 74.400955 
L 230.30418 75.906942 
L 230.30418 77.412928 
L 230.30418 78.918915 
L 230.30418 80.424901 
L 230.30418 81.930887 
L 230.30418 83.436874 
L 230.30418 84.94286 
L 230.30418 86.448847 
L 230.30418 87.954833 
L 230.30418 89.460819 
L 230.30418 90.966806 
L 230.30418 92.472792 
L 230.30418 93.978779 
L 230.30418 95.484765 
L 230.30418 96.990751 
L 230.30418 98.496738 
L 230.30418 100.002724 
" clip-path="url(#pd0a46e44d1)" style="fill: none; stroke: #ff0000; stroke-width: 0.25; stroke-linecap: square"/>
   </g>
   <g id="line2d_86">
    <path d="M 116.455132 180.38382 
L 117.961118 180.38382 
L 119.467105 180.38382 
L 120.973091 180.38382 
L 122.479078 180.38382 
L 123.985064 180.38382 
L 125.49105 180.38382 
L 126.997037 180.38382 
L 128.503023 180.38382 
L 130.00901 180.38382 
L 131.514996 180.38382 
L 133.020983 180.38382 
L 134.526969 180.38382 
L 136.032955 180.38382 
L 137.538942 180.38382 
L 139.044928 180.38382 
L 140.550915 180.38382 
L 142.056901 180.38382 
L 143.562887 180.38382 
L 145.068874 180.38382 
L 146.57486 180.38382 
L 148.080847 180.38382 
L 149.586833 180.38382 
L 151.092819 180.38382 
L 152.598806 180.38382 
L 154.104792 180.38382 
L 155.610779 180.38382 
L 157.116765 180.38382 
L 158.622751 180.38382 
L 160.128738 180.38382 
L 161.634724 180.38382 
" clip-path="url(#pd0a46e44d1)" style="fill: none; stroke: #ff0000; stroke-opacity: 0.2; stroke-width: 0.25; stroke-linecap: square"/>
   </g>
   <g id="line2d_87">
    <path d="M 116.455132 180.38382 
L 117.961118 180.38382 
L 119.467105 180.38382 
L 120.973091 180.38382 
L 122.479078 180.38382 
L 123.985064 180.38382 
L 125.49105 180.38382 
L 126.997037 180.38382 
L 128.503023 180.38382 
L 130.00901 180.38382 
L 131.514996 180.38382 
L 133.020983 180.38382 
L 134.526969 180.38382 
L 136.032955 180.38382 
L 137.538942 180.38382 
L 139.044928 180.38382 
L 140.550915 180.38382 
L 142.056901 180.38382 
L 143.562887 180.38382 
L 145.068874 180.38382 
L 146.57486 180.38382 
L 148.080847 180.38382 
L 149.586833 180.38382 
L 151.092819 180.38382 
L 152.598806 180.38382 
L 154.104792 180.38382 
L 155.610779 180.38382 
L 157.116765 180.38382 
L 158.622751 180.38382 
L 160.128738 180.38382 
L 161.634724 180.38382 
" clip-path="url(#pd0a46e44d1)" style="fill: none; stroke: #ff0000; stroke-opacity: 0.4; stroke-width: 0.25; stroke-linecap: square"/>
   </g>
   <g id="line2d_88">
    <path d="M 116.455132 180.38382 
L 117.961118 180.38382 
L 119.467105 180.38382 
L 120.973091 180.38382 
L 122.479078 180.38382 
L 123.985064 180.38382 
L 125.49105 180.38382 
L 126.997037 180.38382 
L 128.503023 180.38382 
L 130.00901 180.38382 
L 131.514996 180.38382 
L 133.020983 180.38382 
L 134.526969 180.38382 
L 136.032955 180.38382 
L 137.538942 180.38382 
L 139.044928 180.38382 
L 140.550915 180.38382 
L 142.056901 180.38382 
L 143.562887 180.38382 
L 145.068874 180.38382 
L 146.57486 180.38382 
L 148.080847 180.38382 
L 149.586833 180.38382 
L 151.092819 180.38382 
L 152.598806 180.38382 
L 154.104792 180.38382 
L 155.610779 180.38382 
L 157.116765 180.38382 
L 158.622751 180.38382 
L 160.128738 180.38382 
L 161.634724 180.38382 
" clip-path="url(#pd0a46e44d1)" style="fill: none; stroke: #ff0000; stroke-opacity: 0.6; stroke-width: 0.25; stroke-linecap: square"/>
   </g>
   <g id="line2d_89">
    <path d="M 116.455132 180.38382 
L 117.961118 180.38382 
L 119.467105 180.38382 
L 120.973091 180.38382 
L 122.479078 180.38382 
L 123.985064 180.38382 
L 125.49105 180.38382 
L 126.997037 180.38382 
L 128.503023 180.38382 
L 130.00901 180.38382 
L 131.514996 180.38382 
L 133.020983 180.38382 
L 134.526969 180.38382 
L 136.032955 180.38382 
L 137.538942 180.38382 
L 139.044928 180.38382 
L 140.550915 180.38382 
L 142.056901 180.38382 
L 143.562887 180.38382 
L 145.068874 180.38382 
L 146.57486 180.38382 
L 148.080847 180.38382 
L 149.586833 180.38382 
L 151.092819 180.38382 
L 152.598806 180.38382 
L 154.104792 180.38382 
L 155.610779 180.38382 
L 157.116765 180.38382 
L 158.622751 180.38382 
L 160.128738 180.38382 
L 161.634724 180.38382 
" clip-path="url(#pd0a46e44d1)" style="fill: none; stroke: #ff0000; stroke-opacity: 0.8; stroke-width: 0.25; stroke-linecap: square"/>
   </g>
   <g id="line2d_90">
    <path d="M 116.455132 180.38382 
L 117.961118 180.38382 
L 119.467105 180.38382 
L 120.973091 180.38382 
L 122.479078 180.38382 
L 123.985064 180.38382 
L 125.49105 180.38382 
L 126.997037 180.38382 
L 128.503023 180.38382 
L 130.00901 180.38382 
L 131.514996 180.38382 
L 133.020983 180.38382 
L 134.526969 180.38382 
L 136.032955 180.38382 
L 137.538942 180.38382 
L 139.044928 180.38382 
L 140.550915 180.38382 
L 142.056901 180.38382 
L 143.562887 180.38382 
L 145.068874 180.38382 
L 146.57486 180.38382 
L 148.080847 180.38382 
L 149.586833 180.38382 
L 151.092819 180.38382 
L 152.598806 180.38382 
L 154.104792 180.38382 
L 155.610779 180.38382 
L 157.116765 180.38382 
L 158.622751 180.38382 
L 160.128738 180.38382 
L 161.634724 180.38382 
" clip-path="url(#pd0a46e44d1)" style="fill: none; stroke: #ff0000; stroke-width: 0.25; stroke-linecap: square"/>
   </g>
   <g id="patch_15">
    <path d="M 103.104 307.584 
L 103.104 41.472 
" style="fill: none; stroke: #000000; stroke-width: 0.8; stroke-linejoin: miter; stroke-linecap: square"/>
   </g>
   <g id="patch_16">
    <path d="M 369.216 307.584 
L 369.216 41.472 
" style="fill: none; stroke: #000000; stroke-width: 0.8; stroke-linejoin: miter; stroke-linecap: square"/>
   </g>
   <g id="patch_17">
    <path d="M 103.104 307.584 
L 369.216 307.584 
" style="fill: none; stroke: #000000; stroke-width: 0.8; stroke-linejoin: miter; stroke-linecap: square"/>
   </g>
   <g id="patch_18">
    <path d="M 103.104 41.472 
L 369.216 41.472 
" style="fill: none; stroke: #000000; stroke-width: 0.8; stroke-linejoin: miter; stroke-linecap: square"/>
   </g>
   <g id="text_19">
    <!-- Time:   5 ms -->
    <g transform="translate(267.438262 54.7776) scale(0.1 -0.1)">
     <defs>
      <path id="DejaVuSans-54" d="M -19 4666 
L 3928 4666 
L 3928 4134 
L 2272 4134 
L 2272 0 
L 1638 0 
L 1638 4134 
L -19 4134 
L -19 4666 
z
" transform="scale(0.015625)"/>
      <path id="DejaVuSans-69" d="M 603 3500 
L 1178 3500 
L 1178 0 
L 603 0 
L 603 3500 
z
M 603 4863 
L 1178 4863 
L 1178 4134 
L 603 4134 
L 603 4863 
z
" transform="scale(0.015625)"/>
      <path id="DejaVuSans-6d" d="M 3328 2828 
Q 3544 3216 3844 3400 
Q 4144 3584 4550 3584 
Q 5097 3584 5394 3201 
Q 5691 2819 5691 2113 
L 5691 0 
L 5113 0 
L 5113 2094 
Q 5113 2597 4934 2840 
Q 4756 3084 4391 3084 
Q 3944 3084 3684 2787 
Q 3425 2491 3425 1978 
L 3425 0 
L 2847 0 
L 2847 2094 
Q 2847 2600 2669 2842 
Q 2491 3084 2119 3084 
Q 1678 3084 1418 2786 
Q 1159 2488 1159 1978 
L 1159 0 
L 581 0 
L 581 3500 
L 1159 3500 
L 1159 2956 
Q 1356 3278 1631 3431 
Q 1906 3584 2284 3584 
Q 2666 3584 2933 3390 
Q 3200 3197 3328 2828 
z
" transform="scale(0.015625)"/>
      <path id="DejaVuSans-65" d="M 3597 1894 
L 3597 1613 
L 953 1613 
Q 991 1019 1311 708 
Q 1631 397 2203 397 
Q 2534 397 2845 478 
Q 3156 559 3463 722 
L 3463 178 
Q 3153 47 2828 -22 
Q 2503 -91 2169 -91 
Q 1331 -91 842 396 
Q 353 884 353 1716 
Q 353 2575 817 3079 
Q 1281 3584 2069 3584 
Q 2775 3584 3186 3129 
Q 3597 2675 3597 1894 
z
M 3022 2063 
Q 3016 2534 2758 2815 
Q 2500 3097 2075 3097 
Q 1594 3097 1305 2825 
Q 1016 2553 972 2059 
L 3022 2063 
z
" transform="scale(0.015625)"/>
      <path id="DejaVuSans-3a" d="M 750 794 
L 1409 794 
L 1409 0 
L 750 0 
L 750 794 
z
M 750 3309 
L 1409 3309 
L 1409 2516 
L 750 2516 
L 750 3309 
z
" transform="scale(0.015625)"/>
      <path id="DejaVuSans-20" transform="scale(0.015625)"/>
      <path id="DejaVuSans-35" d="M 691 4666 
L 3169 4666 
L 3169 4134 
L 1269 4134 
L 1269 2991 
Q 1406 3038 1543 3061 
Q 1681 3084 1819 3084 
Q 2600 3084 3056 2656 
Q 3513 2228 3513 1497 
Q 3513 744 3044 326 
Q 2575 -91 1722 -91 
Q 1428 -91 1123 -41 
Q 819 9 494 109 
L 494 744 
Q 775 591 1075 516 
Q 1375 441 1709 441 
Q 2250 441 2565 725 
Q 2881 1009 2881 1497 
Q 2881 1984 2565 2268 
Q 2250 2553 1709 2553 
Q 1456 2553 1204 2497 
Q 953 2441 691 2322 
L 691 4666 
z
" transform="scale(0.015625)"/>
      <path id="DejaVuSans-73" d="M 2834 3397 
L 2834 2853 
Q 2591 2978 2328 3040 
Q 2066 3103 1784 3103 
Q 1356 3103 1142 2972 
Q 928 2841 928 2578 
Q 928 2378 1081 2264 
Q 1234 2150 1697 2047 
L 1894 2003 
Q 2506 1872 2764 1633 
Q 3022 1394 3022 966 
Q 3022 478 2636 193 
Q 2250 -91 1575 -91 
Q 1294 -91 989 -36 
Q 684 19 347 128 
L 347 722 
Q 666 556 975 473 
Q 1284 391 1588 391 
Q 1994 391 2212 530 
Q 2431 669 2431 922 
Q 2431 1156 2273 1281 
Q 2116 1406 1581 1522 
L 1381 1569 
Q 847 1681 609 1914 
Q 372 2147 372 2553 
Q 372 3047 722 3315 
Q 1072 3584 1716 3584 
Q 2034 3584 2315 3537 
Q 2597 3491 2834 3397 
z
" transform="scale(0.015625)"/>
     </defs>
     <use xlink:href="#DejaVuSans-54"/>
     <use xlink:href="#DejaVuSans-69" x="57.958984"/>
     <use xlink:href="#DejaVuSans-6d" x="85.742188"/>
     <use xlink:href="#DejaVuSans-65" x="183.154297"/>
     <use xlink:href="#DejaVuSans-3a" x="244.677734"/>
     <use xlink:href="#DejaVuSans-20" x="278.369141"/>
     <use xlink:href="#DejaVuSans-20" x="310.15625"/>
     <use xlink:href="#DejaVuSans-20" x="341.943359"/>
     <use xlink:href="#DejaVuSans-35" x="373.730469"/>
     <use xlink:href="#DejaVuSans-20" x="437.353516"/>
     <use xlink:href="#DejaVuSans-6d" x="469.140625"/>
     <use xlink:href="#DejaVuSans-73" x="566.552734"/>
    </g>
   </g>
  </g>
 </g>
 <defs>
  <clipPath id="pd0a46e44d1">
   <rect x="103.104" y="41.472" width="266.112" height="266.112"/>
  </clipPath>
 </defs>
</svg>
