<?xml version="1.0" encoding="utf-8" standalone="no"?>
<!DOCTYPE svg PUBLIC "-//W3C//DTD SVG 1.1//EN"
  "http://www.w3.org/Graphics/SVG/1.1/DTD/svg11.dtd">
<svg xmlns:xlink="http://www.w3.org/1999/xlink" width="460.8pt" height="345.6pt" viewBox="0 0 460.8 345.6" xmlns="http://www.w3.org/2000/svg" version="1.1">
 <metadata>
  <rdf:RDF xmlns:dc="http://purl.org/dc/elements/1.1/" xmlns:cc="http://creativecommons.org/ns#" xmlns:rdf="http://www.w3.org/1999/02/22-rdf-syntax-ns#">
   <cc:Work>
    <dc:type rdf:resource="http://purl.org/dc/dcmitype/StillImage"/>
    <dc:date>2024-01-23T14:21:18.214999</dc:date>
    <dc:format>image/svg+xml</dc:format>
    <dc:creator>
     <cc:Agent>
      <dc:title>Matplotlib v3.8.2, https://matplotlib.org/</dc:title>
     </cc:Agent>
    </dc:creator>
   </cc:Work>
  </rdf:RDF>
 </metadata>
 <defs>
  <style type="text/css">*{stroke-linejoin: round; stroke-linecap: butt}</style>
 </defs>
 <g id="figure_1">
  <g id="patch_1">
   <path d="M 0 345.6 
L 460.8 345.6 
L 460.8 0 
L 0 0 
z
" style="fill: #ffffff"/>
  </g>
  <g id="axes_1">
   <g id="patch_2">
    <path d="M 103.104 307.584 
L 369.216 307.584 
L 369.216 41.472 
L 103.104 41.472 
z
" style="fill: #ffffff"/>
   </g>
   <g id="patch_3">
    <path d="M 226.38498 165.37005 
L 214.755393 164.823976 
L 214.490157 170.472632 
L 226.119744 171.018706 
z
" clip-path="url(#p7b4e999ad3)" style="fill: #00008b"/>
   </g>
   <g id="patch_4">
    <path d="M 244.483381 150.452109 
L 244.143725 138.814664 
L 238.491252 138.97964 
L 238.830908 150.617084 
z
" clip-path="url(#p7b4e999ad3)" style="fill: #800000"/>
   </g>
   <g id="patch_5">
    <path d="M 226.4033 188.140444 
L 227.718166 199.708356 
L 233.336866 199.069707 
L 232.022 187.501794 
z
" clip-path="url(#p7b4e999ad3)" style="fill: #006400"/>
   </g>
   <g id="patch_6">
    <path d="M 249.837808 184.463121 
L 261.363024 182.815434 
L 260.56272 177.217472 
L 249.037503 178.865158 
z
" clip-path="url(#p7b4e999ad3)" style="fill: #4b0082"/>
   </g>
   <g id="patch_7">
    <path d="M 244.944435 200.314443 
L 245.411714 188.681424 
L 239.76139 188.45446 
L 239.294111 200.087479 
z
" clip-path="url(#p7b4e999ad3)" style="fill: #0000ff"/>
   </g>
   <g id="patch_8">
    <path d="M 262.125942 165.543633 
L 250.539364 164.404906 
L 249.986268 170.032673 
L 261.572846 171.1714 
z
" clip-path="url(#p7b4e999ad3)" style="fill: #ff0000"/>
   </g>
   <g id="patch_9">
    <path d="M 226.899159 150.438879 
L 226.72146 162.079923 
L 232.375681 162.166234 
L 232.553381 150.52519 
z
" clip-path="url(#p7b4e999ad3)" style="fill: #dbdc56"/>
   </g>
   <g id="patch_10">
    <path d="M 199.50648 183.285238 
L 211.148701 183.349677 
L 211.18 177.694883 
L 199.537778 177.630445 
z
" clip-path="url(#p7b4e999ad3)" style="fill: #9400d3"/>
   </g>
   <g id="patch_11">
    <path d="M 244.84326 244.332571 
L 244.84326 232.690171 
L 239.18838 232.690171 
L 239.18838 244.332571 
z
" clip-path="url(#p7b4e999ad3)" style="fill: #1e90ff"/>
   </g>
   <g id="patch_12">
    <path d="M 290.354937 165.632146 
L 278.718421 165.262041 
L 278.538656 170.914063 
L 290.175172 171.284168 
z
" clip-path="url(#p7b4e999ad3)" style="fill: #ff4500"/>
   </g>
   <g id="patch_13">
    <path d="M 227.47674 104.723429 
L 227.47674 116.365829 
L 233.13162 116.365829 
L 233.13162 104.723429 
z
" clip-path="url(#p7b4e999ad3)" style="fill: #7cfc00"/>
   </g>
   <g id="patch_14">
    <path d="M 166.355431 183.21126 
L 177.997831 183.211259 
L 177.997831 177.556379 
L 166.355431 177.55638 
z
" clip-path="url(#p7b4e999ad3)" style="fill: #ff00ff"/>
   </g>
   <g id="matplotlib.axis_1">
    <g id="xtick_1">
     <g id="line2d_1">
      <defs>
       <path id="mc0f45b4468" d="M 0 0 
L 0 3.5 
" style="stroke: #000000; stroke-width: 0.8"/>
      </defs>
      <g>
       <use xlink:href="#mc0f45b4468" x="103.104" y="307.584" style="stroke: #000000; stroke-width: 0.8"/>
      </g>
     </g>
     <g id="text_1">
      <!-- −40 -->
      <g transform="translate(92.551656 322.182437) scale(0.1 -0.1)">
       <defs>
        <path id="DejaVuSans-2212" d="M 678 2272 
L 4684 2272 
L 4684 1741 
L 678 1741 
L 678 2272 
z
" transform="scale(0.015625)"/>
        <path id="DejaVuSans-34" d="M 2419 4116 
L 825 1625 
L 2419 1625 
L 2419 4116 
z
M 2253 4666 
L 3047 4666 
L 3047 1625 
L 3713 1625 
L 3713 1100 
L 3047 1100 
L 3047 0 
L 2419 0 
L 2419 1100 
L 313 1100 
L 313 1709 
L 2253 4666 
z
" transform="scale(0.015625)"/>
        <path id="DejaVuSans-30" d="M 2034 4250 
Q 1547 4250 1301 3770 
Q 1056 3291 1056 2328 
Q 1056 1369 1301 889 
Q 1547 409 2034 409 
Q 2525 409 2770 889 
Q 3016 1369 3016 2328 
Q 3016 3291 2770 3770 
Q 2525 4250 2034 4250 
z
M 2034 4750 
Q 2819 4750 3233 4129 
Q 3647 3509 3647 2328 
Q 3647 1150 3233 529 
Q 2819 -91 2034 -91 
Q 1250 -91 836 529 
Q 422 1150 422 2328 
Q 422 3509 836 4129 
Q 1250 4750 2034 4750 
z
" transform="scale(0.015625)"/>
       </defs>
       <use xlink:href="#DejaVuSans-2212"/>
       <use xlink:href="#DejaVuSans-34" x="83.789062"/>
       <use xlink:href="#DejaVuSans-30" x="147.412109"/>
      </g>
     </g>
    </g>
    <g id="xtick_2">
     <g id="line2d_2">
      <g>
       <use xlink:href="#mc0f45b4468" x="136.368" y="307.584" style="stroke: #000000; stroke-width: 0.8"/>
      </g>
     </g>
     <g id="text_2">
      <!-- −30 -->
      <g transform="translate(125.815656 322.182437) scale(0.1 -0.1)">
       <defs>
        <path id="DejaVuSans-33" d="M 2597 2516 
Q 3050 2419 3304 2112 
Q 3559 1806 3559 1356 
Q 3559 666 3084 287 
Q 2609 -91 1734 -91 
Q 1441 -91 1130 -33 
Q 819 25 488 141 
L 488 750 
Q 750 597 1062 519 
Q 1375 441 1716 441 
Q 2309 441 2620 675 
Q 2931 909 2931 1356 
Q 2931 1769 2642 2001 
Q 2353 2234 1838 2234 
L 1294 2234 
L 1294 2753 
L 1863 2753 
Q 2328 2753 2575 2939 
Q 2822 3125 2822 3475 
Q 2822 3834 2567 4026 
Q 2313 4219 1838 4219 
Q 1578 4219 1281 4162 
Q 984 4106 628 3988 
L 628 4550 
Q 988 4650 1302 4700 
Q 1616 4750 1894 4750 
Q 2613 4750 3031 4423 
Q 3450 4097 3450 3541 
Q 3450 3153 3228 2886 
Q 3006 2619 2597 2516 
z
" transform="scale(0.015625)"/>
       </defs>
       <use xlink:href="#DejaVuSans-2212"/>
       <use xlink:href="#DejaVuSans-33" x="83.789062"/>
       <use xlink:href="#DejaVuSans-30" x="147.412109"/>
      </g>
     </g>
    </g>
    <g id="xtick_3">
     <g id="line2d_3">
      <g>
       <use xlink:href="#mc0f45b4468" x="169.632" y="307.584" style="stroke: #000000; stroke-width: 0.8"/>
      </g>
     </g>
     <g id="text_3">
      <!-- −20 -->
      <g transform="translate(159.079656 322.182437) scale(0.1 -0.1)">
       <defs>
        <path id="DejaVuSans-32" d="M 1228 531 
L 3431 531 
L 3431 0 
L 469 0 
L 469 531 
Q 828 903 1448 1529 
Q 2069 2156 2228 2338 
Q 2531 2678 2651 2914 
Q 2772 3150 2772 3378 
Q 2772 3750 2511 3984 
Q 2250 4219 1831 4219 
Q 1534 4219 1204 4116 
Q 875 4013 500 3803 
L 500 4441 
Q 881 4594 1212 4672 
Q 1544 4750 1819 4750 
Q 2544 4750 2975 4387 
Q 3406 4025 3406 3419 
Q 3406 3131 3298 2873 
Q 3191 2616 2906 2266 
Q 2828 2175 2409 1742 
Q 1991 1309 1228 531 
z
" transform="scale(0.015625)"/>
       </defs>
       <use xlink:href="#DejaVuSans-2212"/>
       <use xlink:href="#DejaVuSans-32" x="83.789062"/>
       <use xlink:href="#DejaVuSans-30" x="147.412109"/>
      </g>
     </g>
    </g>
    <g id="xtick_4">
     <g id="line2d_4">
      <g>
       <use xlink:href="#mc0f45b4468" x="202.896" y="307.584" style="stroke: #000000; stroke-width: 0.8"/>
      </g>
     </g>
     <g id="text_4">
      <!-- −10 -->
      <g transform="translate(192.343656 322.182437) scale(0.1 -0.1)">
       <defs>
        <path id="DejaVuSans-31" d="M 794 531 
L 1825 531 
L 1825 4091 
L 703 3866 
L 703 4441 
L 1819 4666 
L 2450 4666 
L 2450 531 
L 3481 531 
L 3481 0 
L 794 0 
L 794 531 
z
" transform="scale(0.015625)"/>
       </defs>
       <use xlink:href="#DejaVuSans-2212"/>
       <use xlink:href="#DejaVuSans-31" x="83.789062"/>
       <use xlink:href="#DejaVuSans-30" x="147.412109"/>
      </g>
     </g>
    </g>
    <g id="xtick_5">
     <g id="line2d_5">
      <g>
       <use xlink:href="#mc0f45b4468" x="236.16" y="307.584" style="stroke: #000000; stroke-width: 0.8"/>
      </g>
     </g>
     <g id="text_5">
      <!-- 0 -->
      <g transform="translate(232.97875 322.182437) scale(0.1 -0.1)">
       <use xlink:href="#DejaVuSans-30"/>
      </g>
     </g>
    </g>
    <g id="xtick_6">
     <g id="line2d_6">
      <g>
       <use xlink:href="#mc0f45b4468" x="269.424" y="307.584" style="stroke: #000000; stroke-width: 0.8"/>
      </g>
     </g>
     <g id="text_6">
      <!-- 10 -->
      <g transform="translate(263.0615 322.182437) scale(0.1 -0.1)">
       <use xlink:href="#DejaVuSans-31"/>
       <use xlink:href="#DejaVuSans-30" x="63.623047"/>
      </g>
     </g>
    </g>
    <g id="xtick_7">
     <g id="line2d_7">
      <g>
       <use xlink:href="#mc0f45b4468" x="302.688" y="307.584" style="stroke: #000000; stroke-width: 0.8"/>
      </g>
     </g>
     <g id="text_7">
      <!-- 20 -->
      <g transform="translate(296.3255 322.182437) scale(0.1 -0.1)">
       <use xlink:href="#DejaVuSans-32"/>
       <use xlink:href="#DejaVuSans-30" x="63.623047"/>
      </g>
     </g>
    </g>
    <g id="xtick_8">
     <g id="line2d_8">
      <g>
       <use xlink:href="#mc0f45b4468" x="335.952" y="307.584" style="stroke: #000000; stroke-width: 0.8"/>
      </g>
     </g>
     <g id="text_8">
      <!-- 30 -->
      <g transform="translate(329.5895 322.182437) scale(0.1 -0.1)">
       <use xlink:href="#DejaVuSans-33"/>
       <use xlink:href="#DejaVuSans-30" x="63.623047"/>
      </g>
     </g>
    </g>
    <g id="xtick_9">
     <g id="line2d_9">
      <g>
       <use xlink:href="#mc0f45b4468" x="369.216" y="307.584" style="stroke: #000000; stroke-width: 0.8"/>
      </g>
     </g>
     <g id="text_9">
      <!-- 40 -->
      <g transform="translate(362.8535 322.182437) scale(0.1 -0.1)">
       <use xlink:href="#DejaVuSans-34"/>
       <use xlink:href="#DejaVuSans-30" x="63.623047"/>
      </g>
     </g>
    </g>
   </g>
   <g id="matplotlib.axis_2">
    <g id="ytick_1">
     <g id="line2d_10">
      <defs>
       <path id="mce25a10931" d="M 0 0 
L -3.5 0 
" style="stroke: #000000; stroke-width: 0.8"/>
      </defs>
      <g>
       <use xlink:href="#mce25a10931" x="103.104" y="307.584" style="stroke: #000000; stroke-width: 0.8"/>
      </g>
     </g>
     <g id="text_10">
      <!-- −40 -->
      <g transform="translate(74.999313 311.383219) scale(0.1 -0.1)">
       <use xlink:href="#DejaVuSans-2212"/>
       <use xlink:href="#DejaVuSans-34" x="83.789062"/>
       <use xlink:href="#DejaVuSans-30" x="147.412109"/>
      </g>
     </g>
    </g>
    <g id="ytick_2">
     <g id="line2d_11">
      <g>
       <use xlink:href="#mce25a10931" x="103.104" y="274.32" style="stroke: #000000; stroke-width: 0.8"/>
      </g>
     </g>
     <g id="text_11">
      <!-- −30 -->
      <g transform="translate(74.999313 278.119219) scale(0.1 -0.1)">
       <use xlink:href="#DejaVuSans-2212"/>
       <use xlink:href="#DejaVuSans-33" x="83.789062"/>
       <use xlink:href="#DejaVuSans-30" x="147.412109"/>
      </g>
     </g>
    </g>
    <g id="ytick_3">
     <g id="line2d_12">
      <g>
       <use xlink:href="#mce25a10931" x="103.104" y="241.056" style="stroke: #000000; stroke-width: 0.8"/>
      </g>
     </g>
     <g id="text_12">
      <!-- −20 -->
      <g transform="translate(74.999313 244.855219) scale(0.1 -0.1)">
       <use xlink:href="#DejaVuSans-2212"/>
       <use xlink:href="#DejaVuSans-32" x="83.789062"/>
       <use xlink:href="#DejaVuSans-30" x="147.412109"/>
      </g>
     </g>
    </g>
    <g id="ytick_4">
     <g id="line2d_13">
      <g>
       <use xlink:href="#mce25a10931" x="103.104" y="207.792" style="stroke: #000000; stroke-width: 0.8"/>
      </g>
     </g>
     <g id="text_13">
      <!-- −10 -->
      <g transform="translate(74.999313 211.591219) scale(0.1 -0.1)">
       <use xlink:href="#DejaVuSans-2212"/>
       <use xlink:href="#DejaVuSans-31" x="83.789062"/>
       <use xlink:href="#DejaVuSans-30" x="147.412109"/>
      </g>
     </g>
    </g>
    <g id="ytick_5">
     <g id="line2d_14">
      <g>
       <use xlink:href="#mce25a10931" x="103.104" y="174.528" style="stroke: #000000; stroke-width: 0.8"/>
      </g>
     </g>
     <g id="text_14">
      <!-- 0 -->
      <g transform="translate(89.7415 178.327219) scale(0.1 -0.1)">
       <use xlink:href="#DejaVuSans-30"/>
      </g>
     </g>
    </g>
    <g id="ytick_6">
     <g id="line2d_15">
      <g>
       <use xlink:href="#mce25a10931" x="103.104" y="141.264" style="stroke: #000000; stroke-width: 0.8"/>
      </g>
     </g>
     <g id="text_15">
      <!-- 10 -->
      <g transform="translate(83.379 145.063219) scale(0.1 -0.1)">
       <use xlink:href="#DejaVuSans-31"/>
       <use xlink:href="#DejaVuSans-30" x="63.623047"/>
      </g>
     </g>
    </g>
    <g id="ytick_7">
     <g id="line2d_16">
      <g>
       <use xlink:href="#mce25a10931" x="103.104" y="108" style="stroke: #000000; stroke-width: 0.8"/>
      </g>
     </g>
     <g id="text_16">
      <!-- 20 -->
      <g transform="translate(83.379 111.799219) scale(0.1 -0.1)">
       <use xlink:href="#DejaVuSans-32"/>
       <use xlink:href="#DejaVuSans-30" x="63.623047"/>
      </g>
     </g>
    </g>
    <g id="ytick_8">
     <g id="line2d_17">
      <g>
       <use xlink:href="#mce25a10931" x="103.104" y="74.736" style="stroke: #000000; stroke-width: 0.8"/>
      </g>
     </g>
     <g id="text_17">
      <!-- 30 -->
      <g transform="translate(83.379 78.535219) scale(0.1 -0.1)">
       <use xlink:href="#DejaVuSans-33"/>
       <use xlink:href="#DejaVuSans-30" x="63.623047"/>
      </g>
     </g>
    </g>
    <g id="ytick_9">
     <g id="line2d_18">
      <g>
       <use xlink:href="#mce25a10931" x="103.104" y="41.472" style="stroke: #000000; stroke-width: 0.8"/>
      </g>
     </g>
     <g id="text_18">
      <!-- 40 -->
      <g transform="translate(83.379 45.271219) scale(0.1 -0.1)">
       <use xlink:href="#DejaVuSans-34"/>
       <use xlink:href="#DejaVuSans-30" x="63.623047"/>
      </g>
     </g>
    </g>
   </g>
   <g id="line2d_19">
    <path d="M 250.2972 288.4572 
L 250.2972 188.6652 
" clip-path="url(#p7b4e999ad3)" style="fill: none; stroke: #000000; stroke-width: 0.25; stroke-linecap: square"/>
   </g>
   <g id="line2d_20">
    <path d="M 250.2972 188.6652 
L 350.0892 188.6652 
" clip-path="url(#p7b4e999ad3)" style="fill: none; stroke: #000000; stroke-width: 0.25; stroke-linecap: square"/>
   </g>
   <g id="line2d_21">
    <path d="M 350.0892 160.3908 
L 250.2972 160.3908 
" clip-path="url(#p7b4e999ad3)" style="fill: none; stroke: #000000; stroke-width: 0.25; stroke-linecap: square"/>
   </g>
   <g id="line2d_22">
    <path d="M 250.2972 160.3908 
L 250.2972 60.5988 
" clip-path="url(#p7b4e999ad3)" style="fill: none; stroke: #000000; stroke-width: 0.25; stroke-linecap: square"/>
   </g>
   <g id="line2d_23">
    <path d="M 222.0228 60.5988 
L 222.0228 160.3908 
" clip-path="url(#p7b4e999ad3)" style="fill: none; stroke: #000000; stroke-width: 0.25; stroke-linecap: square"/>
   </g>
   <g id="line2d_24">
    <path d="M 222.0228 160.3908 
L 122.2308 160.3908 
" clip-path="url(#p7b4e999ad3)" style="fill: none; stroke: #000000; stroke-width: 0.25; stroke-linecap: square"/>
   </g>
   <g id="line2d_25">
    <path d="M 122.2308 188.6652 
L 222.0228 188.6652 
" clip-path="url(#p7b4e999ad3)" style="fill: none; stroke: #000000; stroke-width: 0.25; stroke-linecap: square"/>
   </g>
   <g id="line2d_26">
    <path d="M 222.0228 188.6652 
L 222.0228 288.4572 
" clip-path="url(#p7b4e999ad3)" style="fill: none; stroke: #000000; stroke-width: 0.25; stroke-linecap: square"/>
   </g>
   <g id="line2d_27">
    <path d="M 250.2972 174.528 
L 350.0892 174.528 
" clip-path="url(#p7b4e999ad3)" style="fill: none; stroke-dasharray: 0.925,0.4; stroke-dashoffset: 0; stroke: #000000; stroke-width: 0.25"/>
   </g>
   <g id="line2d_28">
    <path d="M 236.16 160.3908 
L 236.16 60.5988 
" clip-path="url(#p7b4e999ad3)" style="fill: none; stroke-dasharray: 0.925,0.4; stroke-dashoffset: 0; stroke: #000000; stroke-width: 0.25"/>
   </g>
   <g id="line2d_29">
    <path d="M 222.0228 174.528 
L 122.2308 174.528 
" clip-path="url(#p7b4e999ad3)" style="fill: none; stroke-dasharray: 0.925,0.4; stroke-dashoffset: 0; stroke: #000000; stroke-width: 0.25"/>
   </g>
   <g id="line2d_30">
    <path d="M 236.16 188.6652 
L 236.16 288.4572 
" clip-path="url(#p7b4e999ad3)" style="fill: none; stroke-dasharray: 0.925,0.4; stroke-dashoffset: 0; stroke: #000000; stroke-width: 0.25"/>
   </g>
   <g id="line2d_31">
    <path d="M 222.091284 167.797261 
L 220.436043 167.898977 
L 218.781626 167.96335 
L 217.129925 168.030694 
L 215.48085 168.101837 
L 213.834133 168.173539 
L 212.189535 168.243332 
L 210.546853 168.309426 
L 208.905919 168.370621 
L 207.266592 168.426157 
L 205.628756 168.475651 
L 203.992306 168.519022 
L 202.357149 168.55641 
L 200.723198 168.588121 
L 199.090365 168.614566 
L 197.458568 168.636226 
L 195.827723 168.653614 
L 194.197746 168.667249 
L 192.568555 168.67764 
L 190.940071 168.685269 
L 189.312213 168.690582 
L 187.684907 168.693985 
L 186.058079 168.69584 
L 184.431661 168.696468 
L 182.805587 168.696145 
L 181.179796 168.695108 
L 179.554229 168.693559 
L 177.928835 168.691668 
L 176.303564 168.689576 
L 174.678371 168.687404 
L 173.053214 168.685243 
" clip-path="url(#p7b4e999ad3)" style="fill: none; stroke: #ff0000; stroke-opacity: 0.2; stroke-width: 0.25; stroke-linecap: square"/>
   </g>
   <g id="line2d_32">
    <path d="M 222.091284 167.797261 
L 220.436817 167.910875 
L 218.782347 167.973934 
L 217.130592 168.040131 
L 215.481452 168.110006 
L 213.834663 168.180397 
L 212.189991 168.248899 
L 210.547238 168.313766 
L 208.906237 168.373823 
L 207.266849 168.42833 
L 205.628956 168.476916 
L 203.992453 168.519502 
L 202.357248 168.556225 
L 200.72325 168.587383 
L 199.090374 168.613379 
L 197.458535 168.634679 
L 195.827649 168.651786 
L 194.197631 168.665206 
L 192.5684 168.675435 
L 190.939875 168.682947 
L 189.311977 168.688176 
L 187.684631 168.691522 
L 186.057763 168.69334 
L 184.431304 168.693944 
L 182.80519 168.693607 
L 181.179359 168.692563 
L 179.553753 168.69101 
L 177.928319 168.689118 
L 176.303008 168.687027 
L 174.677776 168.684854 
L 173.052581 168.682699 
" clip-path="url(#p7b4e999ad3)" style="fill: none; stroke: #ff0000; stroke-opacity: 0.4; stroke-width: 0.25; stroke-linecap: square"/>
   </g>
   <g id="line2d_33">
    <path d="M 222.091284 167.797261 
L 220.437117 167.915167 
L 218.782627 167.977736 
L 217.130853 168.043483 
L 215.481688 168.112877 
L 213.834874 168.182778 
L 212.190177 168.250801 
L 210.5474 168.315214 
L 208.906377 168.374848 
L 207.266968 168.428966 
L 205.629056 168.477201 
L 203.992536 168.519473 
L 202.357315 168.555919 
L 200.723303 168.58683 
L 199.090414 168.612607 
L 197.458561 168.633712 
L 195.827662 168.650641 
L 194.197632 168.663899 
L 192.568388 168.673978 
L 190.939851 168.681346 
L 189.311941 168.686438 
L 187.684583 168.689649 
L 186.057703 168.691335 
L 184.431232 168.691807 
L 182.805106 168.691338 
L 181.179263 168.690161 
L 179.553645 168.688475 
L 177.928199 168.686448 
L 176.302877 168.684222 
L 174.677633 168.681914 
L 173.052425 168.679624 
" clip-path="url(#p7b4e999ad3)" style="fill: none; stroke: #ff0000; stroke-opacity: 0.6; stroke-width: 0.25; stroke-linecap: square"/>
   </g>
   <g id="line2d_34">
    <path d="M 222.091284 167.797261 
L 220.437366 167.918605 
L 218.782862 167.980806 
L 217.131073 168.046228 
L 215.481893 168.115287 
L 213.835063 168.184863 
L 212.190351 168.252584 
L 210.547561 168.316727 
L 208.906526 168.376125 
L 207.267108 168.430046 
L 205.629188 168.478122 
L 203.992662 168.520272 
L 202.357435 168.556631 
L 200.723418 168.587488 
L 199.090524 168.613237 
L 197.458667 168.634338 
L 195.827764 168.651285 
L 194.19773 168.664576 
L 192.568483 168.674702 
L 190.939942 168.682129 
L 189.312029 168.687288 
L 187.684666 168.690574 
L 186.057782 168.692339 
L 184.431308 168.692895 
L 182.805178 168.692513 
L 181.179331 168.691426 
L 179.553709 168.689832 
L 177.928259 168.687899 
L 176.302933 168.685768 
L 174.677685 168.683554 
L 173.052474 168.68136 
" clip-path="url(#p7b4e999ad3)" style="fill: none; stroke: #ff0000; stroke-opacity: 0.8; stroke-width: 0.25; stroke-linecap: square"/>
   </g>
   <g id="line2d_35">
    <path d="M 222.091284 167.797261 
L 220.437569 167.921341 
L 218.783052 167.983229 
L 217.13125 168.048354 
L 215.482056 168.117108 
L 213.835211 168.186384 
L 212.190485 168.253821 
L 210.547681 168.317702 
L 208.906635 168.37686 
L 207.267205 168.430567 
L 205.629276 168.478455 
L 203.992741 168.520443 
L 202.357507 168.556662 
L 200.723484 168.587399 
L 199.090583 168.613046 
L 197.458721 168.63406 
L 195.827812 168.650931 
L 194.197773 168.664156 
L 192.568521 168.674223 
L 190.939974 168.681596 
L 189.312055 168.686706 
L 187.684688 168.689945 
L 186.057799 168.691664 
L 184.43132 168.692176 
L 182.805184 168.69175 
L 181.179332 168.690619 
L 179.553705 168.688981 
L 177.92825 168.687004 
L 176.302919 168.684827 
L 174.677666 168.682569 
L 173.05245 168.680329 
" clip-path="url(#p7b4e999ad3)" style="fill: none; stroke: #ff0000; stroke-width: 0.25; stroke-linecap: square"/>
   </g>
   <g id="line2d_36">
    <path d="M 241.421928 146.155587 
L 241.478191 144.715489 
L 241.518733 143.271604 
L 241.562512 141.824587 
L 241.607667 140.374433 
L 241.652722 138.921162 
L 241.696545 137.464818 
L 241.738291 136.005467 
L 241.777361 134.543198 
L 241.813366 133.078117 
L 241.846093 131.610346 
L 241.875458 130.140014 
L 241.901486 128.667262 
L 241.924286 127.192234 
L 241.944025 125.715077 
L 241.960909 124.235942 
L 241.97517 122.754979 
L 241.987055 121.272335 
L 241.996818 119.788159 
L 242.004708 118.302595 
L 242.010968 116.815787 
L 242.015828 115.327873 
L 242.019506 113.838988 
L 242.022203 112.349262 
L 242.024104 110.858823 
L 242.025379 109.367791 
L 242.026181 107.87628 
L 242.026648 106.384401 
L 242.026906 104.892256 
L 242.02707 103.399941 
L 242.027254 101.907546 
" clip-path="url(#p7b4e999ad3)" style="fill: none; stroke: #ff0000; stroke-opacity: 0.2; stroke-width: 0.25; stroke-linecap: square"/>
   </g>
   <g id="line2d_37">
    <path d="M 241.421928 146.155587 
L 241.48262 144.715669 
L 241.522769 143.271743 
L 241.566106 141.824653 
L 241.610809 140.374398 
L 241.655428 138.921 
L 241.698849 137.464505 
L 241.74024 136.004981 
L 241.779008 134.542518 
L 241.814765 133.077223 
L 241.847293 131.609219 
L 241.876502 130.138637 
L 241.90241 128.665617 
L 241.925116 127.190305 
L 241.944777 125.712849 
L 241.961591 124.233401 
L 241.975783 122.75211 
L 241.987594 121.269126 
L 241.997274 119.7846 
L 242.005066 118.298675 
L 242.011212 116.811497 
L 242.01594 115.323205 
L 242.019465 113.833934 
L 242.021991 112.343817 
L 242.023702 110.852981 
L 242.024769 109.361548 
L 242.025349 107.869633 
L 242.025585 106.377346 
L 242.025608 104.884792 
L 242.025535 103.392066 
L 242.025474 101.899259 
" clip-path="url(#p7b4e999ad3)" style="fill: none; stroke: #ff0000; stroke-opacity: 0.4; stroke-width: 0.25; stroke-linecap: square"/>
   </g>
   <g id="line2d_38">
    <path d="M 241.421928 146.155587 
L 241.485104 144.715776 
L 241.524948 143.271855 
L 241.567981 141.824782 
L 241.612393 140.374558 
L 241.656745 138.921203 
L 241.699927 137.464763 
L 241.741107 136.005306 
L 241.779694 134.542922 
L 241.815298 133.077717 
L 241.847697 131.609812 
L 241.8768 130.139339 
L 241.902621 128.666437 
L 241.925256 127.19125 
L 241.944862 125.713928 
L 241.961635 124.234619 
L 241.975802 122.753475 
L 241.987601 121.270643 
L 241.997281 119.786274 
L 242.005089 118.300511 
L 242.011262 116.813499 
L 242.016031 115.325377 
L 242.019611 113.836279 
L 242.022203 112.346338 
L 242.023993 110.855681 
L 242.025151 109.364427 
L 242.025831 107.872694 
L 242.026174 106.38059 
L 242.026307 104.888219 
L 242.026347 103.395678 
L 242.0264 101.903055 
" clip-path="url(#p7b4e999ad3)" style="fill: none; stroke: #ff0000; stroke-opacity: 0.6; stroke-width: 0.25; stroke-linecap: square"/>
   </g>
   <g id="line2d_39">
    <path d="M 241.421928 146.155587 
L 241.486515 144.715838 
L 241.526166 143.271905 
L 241.569019 141.824815 
L 241.613271 140.374568 
L 241.657482 138.921184 
L 241.700543 137.464711 
L 241.741619 136.005216 
L 241.780117 134.54279 
L 241.815646 133.077539 
L 241.847981 131.609585 
L 241.877027 130.139058 
L 241.9028 128.666099 
L 241.925392 127.190852 
L 241.944959 125.713465 
L 241.961696 124.23409 
L 241.975829 122.752876 
L 241.987596 121.269973 
L 241.997245 119.785529 
L 242.00502 118.29969 
L 242.011161 116.812599 
L 242.015896 115.324397 
L 242.019439 113.835218 
L 242.021992 112.345195 
L 242.02374 110.854453 
L 242.024852 109.363115 
L 242.025483 107.871296 
L 242.025775 106.379106 
L 242.025855 104.886649 
L 242.025842 103.394022 
L 242.025841 101.901312 
" clip-path="url(#p7b4e999ad3)" style="fill: none; stroke: #ff0000; stroke-opacity: 0.8; stroke-width: 0.25; stroke-linecap: square"/>
   </g>
   <g id="line2d_40">
    <path d="M 241.421928 146.155587 
L 241.487317 144.715874 
L 241.526847 143.271941 
L 241.569596 141.824853 
L 241.613757 140.374611 
L 241.657892 138.921236 
L 241.700887 137.464774 
L 241.741908 136.005293 
L 241.780359 134.542883 
L 241.815849 133.07765 
L 241.848151 131.609716 
L 241.87717 130.139212 
L 241.90292 128.666277 
L 241.925495 127.191057 
L 241.945049 125.713698 
L 241.961778 124.234352 
L 241.975906 122.753168 
L 241.987672 121.270297 
L 241.997323 119.785886 
L 242.005105 118.300081 
L 242.011254 116.813025 
L 242.016001 115.324858 
L 242.019559 113.835715 
L 242.022129 112.345728 
L 242.023896 110.855023 
L 242.025029 109.363723 
L 242.025684 107.871942 
L 242.026002 106.37979 
L 242.026108 104.887372 
L 242.026122 103.394782 
L 242.026147 101.902112 
" clip-path="url(#p7b4e999ad3)" style="fill: none; stroke: #ff0000; stroke-width: 0.25; stroke-linecap: square"/>
   </g>
   <g id="line2d_41">
    <path d="M 229.746782 192.008877 
L 229.880714 193.604219 
L 229.998048 195.201004 
L 230.095317 196.799292 
L 230.174576 198.398741 
L 230.237926 199.999077 
L 230.28743 201.600088 
L 230.325059 203.201614 
L 230.352655 204.803539 
L 230.371894 206.405782 
L 230.384296 208.00829 
L 230.391205 209.611024 
L 230.393797 211.21396 
L 230.393082 212.817082 
L 230.38992 214.420378 
L 230.385026 216.02384 
L 230.378987 217.627459 
L 230.372274 219.231225 
L 230.365257 220.835131 
L 230.358217 222.439167 
L 230.351356 224.043322 
L 230.344814 225.647584 
L 230.338676 227.251943 
L 230.33298 228.856387 
L 230.327728 230.460902 
L 230.322895 232.065479 
L 230.318431 233.670103 
L 230.314269 235.274765 
L 230.310329 236.879454 
L 230.306516 238.484158 
L 230.302771 240.088869 
" clip-path="url(#p7b4e999ad3)" style="fill: none; stroke: #ff0000; stroke-opacity: 0.2; stroke-width: 0.25; stroke-linecap: square"/>
   </g>
   <g id="line2d_42">
    <path d="M 229.746782 192.008877 
L 229.876614 193.604557 
L 229.99402 195.20133 
L 230.091505 196.799588 
L 230.171088 198.398997 
L 230.234834 199.999288 
L 230.284778 201.600248 
L 230.322866 203.201721 
L 230.350918 204.80359 
L 230.370595 206.405777 
L 230.3834 208.008224 
L 230.39067 209.610896 
L 230.393572 211.213767 
L 230.393114 212.816823 
L 230.390149 214.42005 
L 230.385394 216.02344 
L 230.379434 217.626986 
L 230.372743 219.230678 
L 230.365693 220.834507 
L 230.358566 222.438466 
L 230.35157 224.042543 
L 230.344849 225.646728 
L 230.338492 227.251009 
L 230.332542 228.855375 
L 230.327007 230.459814 
L 230.321866 232.064315 
L 230.317073 233.668865 
L 230.312567 235.273454 
L 230.308276 236.87807 
L 230.304116 238.482704 
L 230.300009 240.087346 
" clip-path="url(#p7b4e999ad3)" style="fill: none; stroke: #ff0000; stroke-opacity: 0.4; stroke-width: 0.25; stroke-linecap: square"/>
   </g>
   <g id="line2d_43">
    <path d="M 229.746782 192.008877 
L 229.873682 193.604793 
L 229.991214 195.201557 
L 230.088912 196.799803 
L 230.168768 198.3992 
L 230.232818 199.999481 
L 230.283077 201.600434 
L 230.321478 203.201903 
L 230.349827 204.803772 
L 230.369778 206.40596 
L 230.382831 208.008411 
L 230.39032 209.611089 
L 230.393411 211.213968 
L 230.393113 212.817032 
L 230.390284 214.42027 
L 230.38564 216.023671 
L 230.379772 217.627228 
L 230.373157 219.230933 
L 230.366171 220.834777 
L 230.359101 222.43875 
L 230.352158 224.042842 
L 230.34549 225.647043 
L 230.339188 227.251342 
L 230.333298 228.855726 
L 230.327831 230.460183 
L 230.322765 232.064703 
L 230.318057 233.669273 
L 230.313645 235.273883 
L 230.309455 236.878521 
L 230.305401 238.483177 
L 230.301397 240.087841 
" clip-path="url(#p7b4e999ad3)" style="fill: none; stroke: #ff0000; stroke-opacity: 0.6; stroke-width: 0.25; stroke-linecap: square"/>
   </g>
   <g id="line2d_44">
    <path d="M 229.746782 192.008877 
L 229.871584 193.604959 
L 229.989253 195.201711 
L 230.08714 196.799943 
L 230.16721 198.399326 
L 230.231483 199.999593 
L 230.28196 201.600533 
L 230.320563 203.201991 
L 230.349093 204.803849 
L 230.3692 206.406027 
L 230.382382 208.008469 
L 230.389974 209.611138 
L 230.393143 211.214007 
L 230.392899 212.817061 
L 230.390103 214.420288 
L 230.385473 216.023679 
L 230.379604 217.627226 
L 230.372974 219.230919 
L 230.365963 220.834752 
L 230.358861 222.438713 
L 230.35188 224.042794 
L 230.345169 225.646984 
L 230.338822 227.25127 
L 230.332885 228.855643 
L 230.32737 230.460089 
L 230.322256 232.064597 
L 230.317499 233.669156 
L 230.313037 235.273754 
L 230.308797 236.87838 
L 230.304693 238.483025 
L 230.300639 240.087679 
" clip-path="url(#p7b4e999ad3)" style="fill: none; stroke: #ff0000; stroke-opacity: 0.8; stroke-width: 0.25; stroke-linecap: square"/>
   </g>
   <g id="line2d_45">
    <path d="M 229.746782 192.008877 
L 229.870083 193.605075 
L 229.987884 195.201817 
L 230.085934 196.800039 
L 230.16618 198.399412 
L 230.23063 199.999671 
L 230.281276 201.600605 
L 230.320034 203.202058 
L 230.348701 204.803913 
L 230.368928 206.406088 
L 230.382214 208.008528 
L 230.389892 209.611195 
L 230.393132 211.214063 
L 230.392946 212.817116 
L 230.390196 214.420342 
L 230.385604 216.023732 
L 230.379764 217.627277 
L 230.37316 219.23097 
L 230.36617 220.834802 
L 230.359086 222.438763 
L 230.352123 224.042843 
L 230.345429 225.647032 
L 230.339099 227.251318 
L 230.333181 228.85569 
L 230.327684 230.460136 
L 230.32259 232.064644 
L 230.317854 233.669203 
L 230.313414 235.273801 
L 230.309195 236.878427 
L 230.305113 238.483072 
L 230.301081 240.087726 
" clip-path="url(#p7b4e999ad3)" style="fill: none; stroke: #ff0000; stroke-width: 0.25; stroke-linecap: square"/>
   </g>
   <g id="line2d_46">
    <path d="M 253.595757 180.98563 
L 255.198807 180.82502 
L 256.803218 180.686222 
L 258.409016 180.57303 
L 260.015675 180.482512 
L 261.622797 180.411739 
L 263.23009 180.357907 
L 264.837355 180.318392 
L 266.444467 180.290796 
L 268.051351 180.272953 
L 269.657972 180.262948 
L 271.264323 180.259103 
L 272.870411 180.259976 
L 274.476256 180.26434 
L 276.081881 180.271174 
L 277.687313 180.279637 
L 279.292575 180.289052 
L 280.897693 180.298889 
L 282.502686 180.308742 
L 284.107575 180.318315 
L 285.712376 180.327403 
L 287.317105 180.33588 
L 288.921772 180.343681 
L 290.526391 180.350796 
L 292.130969 180.357254 
L 293.735517 180.363117 
L 295.340041 180.368472 
L 296.944547 180.373421 
L 298.549042 180.378084 
L 300.15353 180.382597 
L 301.758016 180.386993 
" clip-path="url(#p7b4e999ad3)" style="fill: none; stroke: #ff0000; stroke-opacity: 0.2; stroke-width: 0.25; stroke-linecap: square"/>
   </g>
   <g id="line2d_47">
    <path d="M 253.595757 180.98563 
L 255.199344 180.830475 
L 256.803748 180.691629 
L 258.409522 180.578193 
L 260.016152 180.487301 
L 261.623242 180.416066 
L 263.230504 180.361718 
L 264.837741 180.321665 
L 266.444826 180.293529 
L 268.051686 180.275166 
L 269.658284 180.264673 
L 271.264611 180.260386 
L 272.870677 180.260871 
L 274.476499 180.264907 
L 276.082101 180.271476 
L 277.687508 180.279739 
L 279.292745 180.289022 
L 280.897836 180.298791 
L 282.502802 180.30864 
L 284.107662 180.318268 
L 285.712433 180.327468 
L 287.317131 180.336106 
L 288.921767 180.344114 
L 290.526353 180.351474 
L 292.130899 180.35821 
L 293.735413 180.364377 
L 295.339903 180.370054 
L 296.944374 180.375339 
L 298.548833 180.38034 
L 300.153284 180.385174 
L 301.757732 180.389931 
" clip-path="url(#p7b4e999ad3)" style="fill: none; stroke: #ff0000; stroke-opacity: 0.4; stroke-width: 0.25; stroke-linecap: square"/>
   </g>
   <g id="line2d_48">
    <path d="M 253.595757 180.98563 
L 255.199741 180.834637 
L 256.804131 180.695639 
L 258.409881 180.581914 
L 260.016485 180.490647 
L 261.623551 180.418985 
L 263.230792 180.364187 
L 264.83801 180.32368 
L 266.44508 180.295105 
L 268.051926 180.276327 
L 269.658513 180.265454 
L 271.264831 180.260826 
L 272.870887 180.261009 
L 274.476701 180.264787 
L 276.082294 180.271137 
L 277.687692 180.27922 
L 279.29292 180.288356 
L 280.898001 180.29801 
L 282.502957 180.307768 
L 284.107808 180.317328 
L 285.712569 180.326474 
L 287.317257 180.335071 
L 288.921883 180.343044 
L 290.526459 180.350373 
L 292.130994 180.357076 
L 293.735497 180.363206 
L 295.339976 180.36884 
L 296.944436 180.374074 
L 298.548884 180.379015 
L 300.153324 180.383782 
L 301.75776 180.388483 
" clip-path="url(#p7b4e999ad3)" style="fill: none; stroke: #ff0000; stroke-opacity: 0.6; stroke-width: 0.25; stroke-linecap: square"/>
   </g>
   <g id="line2d_49">
    <path d="M 253.595757 180.98563 
L 255.20004 180.837841 
L 256.804413 180.698677 
L 258.410143 180.5847 
L 260.016727 180.493129 
L 261.623773 180.421141 
L 263.230997 180.366014 
L 264.838202 180.325193 
L 266.445259 180.296327 
L 268.052095 180.277292 
L 269.658673 180.266198 
L 271.264982 180.261387 
L 272.87103 180.261425 
L 274.476835 180.265094 
L 276.08242 180.271369 
L 277.687809 180.279408 
L 279.293028 180.288526 
L 280.8981 180.298183 
L 282.503047 180.307964 
L 284.107888 180.317559 
L 285.71264 180.326753 
L 287.317318 180.335403 
L 288.921934 180.343435 
L 290.5265 180.350823 
L 292.131026 180.357587 
L 293.73552 180.363775 
L 295.339989 180.369465 
L 296.944439 180.374752 
L 298.548877 180.379745 
L 300.153306 180.384559 
L 301.757732 180.389313 
" clip-path="url(#p7b4e999ad3)" style="fill: none; stroke: #ff0000; stroke-opacity: 0.8; stroke-width: 0.25; stroke-linecap: square"/>
   </g>
   <g id="line2d_50">
    <path d="M 253.595757 180.98563 
L 255.200264 180.840296 
L 256.804621 180.700956 
L 258.410333 180.586743 
L 260.016898 180.494902 
L 261.623928 180.422632 
L 263.231139 180.367228 
L 264.838333 180.326145 
L 266.445382 180.297041 
L 268.05221 180.277794 
L 269.658781 180.266516 
L 271.265084 180.26155 
L 272.871127 180.261462 
L 274.476926 180.265029 
L 276.082505 180.271225 
L 277.687889 180.279203 
L 279.293102 180.288276 
L 280.898168 180.297902 
L 282.50311 180.30766 
L 284.107945 180.317239 
L 285.712691 180.32642 
L 287.317363 180.335061 
L 288.921973 180.343083 
L 290.526533 180.350461 
L 292.131053 180.357212 
L 293.735541 180.363387 
L 295.340004 180.369061 
L 296.944448 180.37433 
L 298.54888 180.379303 
L 300.153303 180.384098 
L 301.757723 180.388833 
" clip-path="url(#p7b4e999ad3)" style="fill: none; stroke: #ff0000; stroke-width: 0.25; stroke-linecap: square"/>
   </g>
   <g id="line2d_51">
    <path d="M 242.247392 196.026474 
L 242.349208 194.384218 
L 242.460791 192.736893 
L 242.594191 191.085752 
L 242.751737 189.431564 
L 242.935417 187.775165 
L 243.145539 186.117273 
L 243.382598 184.458681 
L 243.646198 182.800104 
L 243.934788 181.142077 
L 244.245382 179.484844 
L 244.573258 177.828234 
L 244.899602 176.169149 
L 245.137257 174.493545 
L 245.170749 172.800934 
L 244.927728 171.126156 
L 244.459919 169.501813 
L 243.845169 167.930813 
L 243.23193 166.364533 
L 242.744634 164.761356 
L 242.360897 163.138093 
L 242.075453 161.503054 
L 241.877644 159.863459 
L 241.74991 158.224722 
L 241.673579 156.589637 
L 241.634301 154.958937 
L 241.622569 153.332365 
L 241.629281 151.709265 
L 241.64676 150.088757 
L 241.66861 148.469902 
L 241.693771 146.851857 
" clip-path="url(#p7b4e999ad3)" style="fill: none; stroke: #ff0000; stroke-opacity: 0.2; stroke-width: 0.25; stroke-linecap: square"/>
   </g>
   <g id="line2d_52">
    <path d="M 242.247392 196.026474 
L 242.349868 194.384259 
L 242.460157 192.736658 
L 242.592136 191.085026 
L 242.748232 189.430139 
L 242.930524 187.772841 
L 243.139423 186.113864 
L 243.375513 184.454022 
L 243.638478 182.79405 
L 243.926837 181.134509 
L 244.237675 179.475669 
L 244.566334 177.817385 
L 244.893481 176.156458 
L 245.13069 174.478646 
L 245.162753 172.783731 
L 244.917517 171.106836 
L 244.448453 169.48022 
L 243.831461 167.907287 
L 243.213525 166.339995 
L 242.724991 164.734424 
L 242.341545 163.108432 
L 242.057102 161.470693 
L 241.860285 159.8286 
L 241.733365 158.18757 
L 241.658174 156.550342 
L 241.620816 154.917629 
L 241.612148 153.289168 
L 241.622993 151.664294 
L 241.645563 150.042106 
L 241.673314 148.421633 
L 241.701504 146.801946 
" clip-path="url(#p7b4e999ad3)" style="fill: none; stroke: #ff0000; stroke-opacity: 0.4; stroke-width: 0.25; stroke-linecap: square"/>
   </g>
   <g id="line2d_53">
    <path d="M 242.247392 196.026474 
L 242.351391 194.384355 
L 242.462605 192.736596 
L 242.595484 191.084622 
L 242.752373 189.429225 
L 242.935266 187.771263 
L 243.14449 186.111478 
L 243.380534 184.450686 
L 243.642992 182.789621 
L 243.930307 181.128843 
L 244.239491 179.46862 
L 244.56582 177.808811 
L 244.890575 176.146391 
L 245.125521 174.467308 
L 245.155408 172.771497 
L 244.908022 171.094163 
L 244.436938 169.467488 
L 243.81836 167.894669 
L 243.199515 166.327392 
L 242.711069 164.721627 
L 242.328327 163.095464 
L 242.045017 161.457661 
L 241.849346 159.815673 
L 241.723383 158.174883 
L 241.649252 156.537963 
L 241.613543 154.905586 
L 241.60692 153.277501 
L 241.620108 151.65304 
L 241.645225 150.031293 
L 241.675622 148.411275 
L 241.70585 146.792035 
" clip-path="url(#p7b4e999ad3)" style="fill: none; stroke: #ff0000; stroke-opacity: 0.6; stroke-width: 0.25; stroke-linecap: square"/>
   </g>
   <g id="line2d_54">
    <path d="M 242.247392 196.026474 
L 242.35217 194.384404 
L 242.46369 192.736468 
L 242.596772 191.084128 
L 242.75374 189.428186 
L 242.936575 187.769508 
L 243.145606 186.108846 
L 243.381337 184.447026 
L 243.643385 182.784799 
L 243.930223 181.122738 
L 244.2389 179.461134 
L 244.564733 177.79987 
L 244.888598 176.135864 
L 245.12181 174.455104 
L 245.149367 172.757814 
L 244.899843 171.079345 
L 244.426643 169.451814 
L 243.805327 167.878604 
L 243.186426 166.309953 
L 242.698084 164.702895 
L 242.315762 163.075501 
L 242.033283 161.436555 
L 241.838698 159.793559 
L 241.713824 158.151916 
L 241.640859 156.514263 
L 241.606712 154.881243 
L 241.601884 153.252598 
L 241.617003 151.627643 
L 241.644111 150.005448 
L 241.676509 148.385008 
L 241.708599 146.765353 
" clip-path="url(#p7b4e999ad3)" style="fill: none; stroke: #ff0000; stroke-opacity: 0.8; stroke-width: 0.25; stroke-linecap: square"/>
   </g>
   <g id="line2d_55">
    <path d="M 242.247392 196.026474 
L 242.352913 194.384452 
L 242.465015 192.736408 
L 242.598654 191.083833 
L 242.756119 189.427541 
L 242.939359 187.768405 
L 243.148674 186.107186 
L 243.384537 184.444717 
L 243.646534 182.781752 
L 243.933105 181.11887 
L 244.241264 179.456362 
L 244.566293 177.794116 
L 244.889092 176.129081 
L 245.120992 174.44734 
L 245.146984 172.749267 
L 244.895892 171.070313 
L 244.421334 169.442503 
L 243.798564 167.869251 
L 243.178763 166.300431 
L 242.689959 164.693098 
L 242.307517 163.065417 
L 242.025256 161.426208 
L 241.831149 159.783007 
L 241.706943 158.141225 
L 241.634827 156.503488 
L 241.601901 154.870423 
L 241.598413 153.241777 
L 241.614923 151.616855 
L 241.643429 149.994715 
L 241.677206 148.374342 
L 241.710626 146.754756 
" clip-path="url(#p7b4e999ad3)" style="fill: none; stroke: #ff0000; stroke-width: 0.25; stroke-linecap: square"/>
   </g>
   <g id="line2d_56">
    <path d="M 257.675322 168.025793 
L 256.055185 167.79451 
L 254.434274 167.548959 
L 252.81711 167.264611 
L 251.205473 166.938699 
L 249.60111 166.569639 
L 248.004946 166.159673 
L 246.417794 165.711014 
L 244.839712 165.228005 
L 243.269718 164.717464 
L 241.698865 164.209262 
L 240.093809 163.824541 
L 238.453708 163.651902 
L 236.809788 163.747488 
L 235.194197 164.046842 
L 233.606072 164.450205 
L 232.043241 164.92523 
L 230.494217 165.426575 
L 228.945431 165.91186 
L 227.390412 166.3602 
L 225.829297 166.770479 
L 224.262136 167.140896 
L 222.689387 167.470953 
L 221.111877 167.761965 
L 219.530376 168.015508 
L 217.946013 168.236432 
L 216.35976 168.430546 
L 214.772372 168.604159 
L 213.184398 168.763722 
L 211.596233 168.915579 
L 210.008077 169.064685 
" clip-path="url(#p7b4e999ad3)" style="fill: none; stroke: #ff0000; stroke-opacity: 0.2; stroke-width: 0.25; stroke-linecap: square"/>
   </g>
   <g id="line2d_57">
    <path d="M 257.675322 168.025793 
L 256.055627 167.791435 
L 254.434792 167.544716 
L 252.817673 167.258996 
L 251.206065 166.931516 
L 249.60173 166.560711 
L 248.005602 166.148833 
L 246.418497 165.698127 
L 244.840467 165.212984 
L 243.27051 164.700282 
L 241.699164 164.191373 
L 240.093201 163.807313 
L 238.45218 163.636182 
L 236.807562 163.733077 
L 235.191424 164.033715 
L 233.602838 164.438349 
L 232.039853 164.915405 
L 230.490935 165.419376 
L 228.94233 165.907512 
L 227.387376 166.358442 
L 225.826208 166.771007 
L 224.258859 167.143307 
L 222.685782 167.474733 
L 221.10781 167.766495 
L 219.525737 168.020148 
L 217.940717 168.240523 
L 216.353744 168.433453 
L 214.765591 168.605303 
L 213.176822 168.76261 
L 211.587839 168.911825 
L 209.998941 169.059068 
" clip-path="url(#p7b4e999ad3)" style="fill: none; stroke: #ff0000; stroke-opacity: 0.4; stroke-width: 0.25; stroke-linecap: square"/>
   </g>
   <g id="line2d_58">
    <path d="M 257.675322 168.025793 
L 256.055767 167.790469 
L 254.434881 167.543174 
L 252.817595 167.256893 
L 251.205713 166.928905 
L 249.600998 166.557681 
L 248.004383 166.145504 
L 246.416684 165.694655 
L 244.837948 165.209551 
L 243.267173 164.697097 
L 241.694958 164.188528 
L 240.088201 163.804648 
L 238.446456 163.63347 
L 236.801098 163.729846 
L 235.184058 164.029368 
L 233.594737 164.433751 
L 232.031269 164.911325 
L 230.482088 165.416339 
L 228.933318 165.905732 
L 227.378187 166.357843 
L 225.816825 166.771513 
L 224.249261 167.144812 
L 222.675941 167.477097 
L 221.097694 167.769548 
L 219.51532 168.023705 
L 217.929978 168.244402 
L 216.34267 168.437488 
L 214.754175 168.609355 
L 213.165061 168.766578 
L 211.575732 168.915662 
L 209.986495 169.062823 
" clip-path="url(#p7b4e999ad3)" style="fill: none; stroke: #ff0000; stroke-opacity: 0.6; stroke-width: 0.25; stroke-linecap: square"/>
   </g>
   <g id="line2d_59">
    <path d="M 257.675322 168.025793 
L 256.055941 167.789271 
L 254.435088 167.541092 
L 252.817765 167.253934 
L 251.205776 166.925128 
L 249.600884 166.553189 
L 248.004015 166.140446 
L 246.415975 165.689218 
L 244.836803 165.203961 
L 243.265489 164.691614 
L 241.692635 164.183438 
L 240.085269 163.80004 
L 238.443008 163.629341 
L 236.797211 163.72567 
L 235.17956 164.02407 
L 233.589777 164.42807 
L 232.026097 164.905991 
L 230.476932 165.411881 
L 228.928285 165.902352 
L 227.373257 166.35541 
L 225.811986 166.769912 
L 224.244495 167.143918 
L 222.67123 167.476769 
L 221.093023 167.769636 
L 219.510675 168.024058 
L 217.925354 168.244887 
L 216.338066 168.437999 
L 214.749593 168.609815 
L 213.160504 168.766942 
L 211.571204 168.915909 
L 209.982001 169.062967 
" clip-path="url(#p7b4e999ad3)" style="fill: none; stroke: #ff0000; stroke-opacity: 0.8; stroke-width: 0.25; stroke-linecap: square"/>
   </g>
   <g id="line2d_60">
    <path d="M 257.675322 168.025793 
L 256.056105 167.788153 
L 254.435262 167.539176 
L 252.817859 167.251275 
L 251.205698 166.921832 
L 249.600539 166.549409 
L 248.003302 166.13637 
L 246.414784 165.685069 
L 244.835019 165.199987 
L 243.262993 164.688085 
L 241.689356 164.180542 
L 240.081286 163.797728 
L 238.438442 163.627469 
L 236.792123 163.723606 
L 235.173776 164.020857 
L 233.583424 164.424392 
L 232.019409 164.90256 
L 230.470137 165.409236 
L 228.921495 165.900719 
L 227.366452 166.354653 
L 225.805152 166.769919 
L 224.237617 167.144568 
L 222.664292 167.477934 
L 221.086013 167.771185 
L 219.503585 168.025867 
L 217.918179 168.246849 
L 216.330808 168.440031 
L 214.742256 168.61186 
L 213.153091 168.768967 
L 211.563719 168.917897 
L 209.974446 169.064921 
" clip-path="url(#p7b4e999ad3)" style="fill: none; stroke: #ff0000; stroke-width: 0.25; stroke-linecap: square"/>
   </g>
   <g id="line2d_61">
    <path d="M 229.645697 154.586762 
L 229.640214 156.302568 
L 229.650757 158.023464 
L 229.660766 159.749131 
L 229.704 161.478649 
L 229.79201 163.210401 
L 229.937436 164.94175 
L 230.15355 166.668676 
L 230.454704 168.385253 
L 230.856902 170.082849 
L 231.385576 171.74661 
L 232.090013 173.344398 
L 232.9755 174.849183 
L 234.017203 176.249517 
L 235.208847 177.523296 
L 236.516127 178.675798 
L 237.925446 179.697182 
L 239.422349 180.579253 
L 240.993113 181.31307 
L 242.622702 181.892663 
L 244.295968 182.313627 
L 245.997664 182.573626 
L 247.712723 182.671251 
L 249.426164 182.607741 
L 251.123316 182.38383 
L 252.811893 182.116685 
L 254.496976 181.839305 
L 256.179248 181.55344 
L 257.859815 181.263235 
L 259.539642 180.971987 
L 261.216805 180.666868 
" clip-path="url(#p7b4e999ad3)" style="fill: none; stroke: #ff0000; stroke-opacity: 0.2; stroke-width: 0.25; stroke-linecap: square"/>
   </g>
   <g id="line2d_62">
    <path d="M 229.645697 154.586762 
L 229.638952 156.302563 
L 229.647546 158.023631 
L 229.656844 159.749611 
L 229.699451 161.479591 
L 229.786979 163.211941 
L 229.93215 164.944001 
L 230.148339 166.671715 
L 230.450025 168.389097 
L 230.853364 170.08742 
L 231.384128 171.751614 
L 232.091552 173.3493 
L 232.980743 174.853264 
L 234.029498 176.249862 
L 235.225213 177.521571 
L 236.536705 178.671254 
L 237.950295 179.688955 
L 239.451278 180.566594 
L 241.025493 181.295822 
L 242.657759 181.871008 
L 244.332956 182.28778 
L 246.035905 182.543644 
L 247.751578 182.636953 
L 249.46501 182.569306 
L 251.161512 182.34092 
L 252.850595 182.078512 
L 254.535943 181.805208 
L 256.218243 181.522735 
L 257.898615 181.235309 
L 259.578154 180.946904 
L 261.25641 180.65272 
" clip-path="url(#p7b4e999ad3)" style="fill: none; stroke: #ff0000; stroke-opacity: 0.4; stroke-width: 0.25; stroke-linecap: square"/>
   </g>
   <g id="line2d_63">
    <path d="M 229.645697 154.586762 
L 229.638678 156.302562 
L 229.646552 158.023751 
L 229.656248 159.749959 
L 229.699327 161.480266 
L 229.787394 163.213031 
L 229.933169 164.945587 
L 230.150038 166.673865 
L 230.452502 168.391862 
L 230.856748 170.090826 
L 231.38865 171.755626 
L 232.0973 173.353877 
L 232.987648 174.858435 
L 234.040265 176.253613 
L 235.237986 177.525178 
L 236.551613 178.67445 
L 237.967413 179.691448 
L 239.470506 180.568252 
L 241.046582 181.296724 
L 242.680968 181.869755 
L 244.357001 182.287916 
L 246.061072 182.542861 
L 247.777618 182.634582 
L 249.491591 182.564958 
L 251.188277 182.334414 
L 252.878106 182.074604 
L 254.563937 181.80287 
L 256.246499 181.521187 
L 257.926972 181.234074 
L 259.606538 180.945941 
L 261.285493 180.656177 
" clip-path="url(#p7b4e999ad3)" style="fill: none; stroke: #ff0000; stroke-opacity: 0.6; stroke-width: 0.25; stroke-linecap: square"/>
   </g>
   <g id="line2d_64">
    <path d="M 229.645697 154.586762 
L 229.637953 156.302559 
L 229.644666 158.023851 
L 229.654125 159.750252 
L 229.697019 161.480849 
L 229.784976 163.213998 
L 229.930759 164.947023 
L 230.147808 166.67584 
L 230.45069 168.394418 
L 230.855679 170.093957 
L 231.388816 171.759218 
L 232.099153 173.357702 
L 232.991563 174.862178 
L 234.049241 176.254859 
L 235.249498 177.525599 
L 236.565769 178.673676 
L 237.984265 179.68907 
L 239.48999 180.563899 
L 241.068436 181.290262 
L 242.705044 181.860604 
L 244.381756 182.280611 
L 246.087026 182.53408 
L 247.804481 182.624038 
L 249.519043 182.552392 
L 251.215986 182.319677 
L 252.906552 182.061768 
L 254.592915 181.79114 
L 256.275861 181.510084 
L 257.956613 181.223332 
L 259.636408 180.935545 
L 261.315939 180.648325 
" clip-path="url(#p7b4e999ad3)" style="fill: none; stroke: #ff0000; stroke-opacity: 0.8; stroke-width: 0.25; stroke-linecap: square"/>
   </g>
   <g id="line2d_65">
    <path d="M 229.645697 154.586762 
L 229.63742 156.302557 
L 229.643252 158.023934 
L 229.652618 159.750498 
L 229.695451 161.481339 
L 229.783392 163.214812 
L 229.929228 164.948236 
L 230.146433 166.677517 
L 230.449628 168.396606 
L 230.855143 170.09667 
L 231.389134 171.762401 
L 232.100624 173.36123 
L 232.994443 174.865866 
L 234.056238 176.256579 
L 235.258432 177.526858 
L 236.576763 178.674173 
L 237.997363 179.688513 
L 239.505145 180.562034 
L 241.085471 181.286982 
L 242.72392 181.855303 
L 244.400691 182.279148 
L 246.106936 182.532076 
L 247.8252 182.621132 
L 249.540353 182.548251 
L 251.237651 182.314154 
L 252.928858 182.057446 
L 254.615682 181.787289 
L 256.298965 181.506306 
L 257.979977 181.219441 
L 259.659993 180.931517 
L 261.339924 180.645331 
" clip-path="url(#p7b4e999ad3)" style="fill: none; stroke: #ff0000; stroke-width: 0.25; stroke-linecap: square"/>
   </g>
   <g id="line2d_66">
    <path d="M 204.07652 180.476265 
L 205.343255 180.488578 
L 206.603429 180.499775 
L 207.857531 180.510429 
L 209.106089 180.520032 
L 210.349663 180.528015 
L 211.588844 180.533736 
L 212.824257 180.536474 
L 214.05657 180.53542 
L 215.286484 180.52967 
L 216.514745 180.518221 
L 217.742138 180.499969 
L 218.969488 180.473715 
L 220.19766 180.438177 
L 221.427566 180.392263 
L 222.660383 180.340024 
L 223.894207 180.235304 
L 225.128699 180.084904 
L 226.36805 179.92458 
L 227.616229 179.784233 
L 228.874035 179.677188 
L 230.140238 179.603886 
L 231.41316 179.556677 
L 232.691551 179.52682 
L 233.974747 179.517735 
L 235.261345 179.474593 
L 236.548247 179.371589 
L 237.81974 179.129466 
L 239.010924 178.615931 
L 240.16398 178.017176 
L 241.272265 177.337082 
" clip-path="url(#p7b4e999ad3)" style="fill: none; stroke: #ff0000; stroke-opacity: 0.2; stroke-width: 0.25; stroke-linecap: square"/>
   </g>
   <g id="line2d_67">
    <path d="M 204.07652 180.476265 
L 205.343212 180.492436 
L 206.603523 180.507793 
L 207.857971 180.523783 
L 209.107124 180.540009 
L 210.351584 180.556005 
L 211.591986 180.571231 
L 212.829007 180.585049 
L 214.063363 180.596719 
L 215.295815 180.605378 
L 216.527171 180.61003 
L 217.758284 180.609529 
L 218.99005 180.602575 
L 220.22341 180.587703 
L 221.459346 180.56349 
L 222.698925 180.530625 
L 223.940963 180.444186 
L 225.184073 180.302798 
L 226.43136 180.139306 
L 227.687159 179.985848 
L 228.953145 179.859367 
L 230.228666 179.763844 
L 231.512161 179.694751 
L 232.802026 179.640702 
L 234.097609 179.604259 
L 235.396447 179.534512 
L 236.695394 179.410589 
L 237.977575 179.149341 
L 239.174517 178.613008 
L 240.331992 177.99136 
L 241.442735 177.287484 
" clip-path="url(#p7b4e999ad3)" style="fill: none; stroke: #ff0000; stroke-opacity: 0.4; stroke-width: 0.25; stroke-linecap: square"/>
   </g>
   <g id="line2d_68">
    <path d="M 204.07652 180.476265 
L 205.343218 180.491977 
L 206.603801 180.507067 
L 207.858781 180.523519 
L 209.108722 180.541099 
L 210.354222 180.559506 
L 211.595914 180.578357 
L 212.834474 180.597167 
L 214.070621 180.615339 
L 215.305122 180.632138 
L 216.538795 180.646676 
L 217.77251 180.657886 
L 219.007187 180.664502 
L 220.2438 180.665041 
L 221.483366 180.657915 
L 222.726944 180.642487 
L 223.974016 180.57419 
L 225.222534 180.444095 
L 226.474529 180.282424 
L 227.734503 180.124071 
L 229.004753 179.989331 
L 230.284989 179.884265 
L 231.573737 179.805294 
L 232.869408 179.742981 
L 234.171149 179.696085 
L 235.47567 179.60814 
L 236.779109 179.459767 
L 238.059637 179.157433 
L 239.256493 178.603169 
L 240.412235 177.962825 
L 241.519309 177.239464 
" clip-path="url(#p7b4e999ad3)" style="fill: none; stroke: #ff0000; stroke-opacity: 0.6; stroke-width: 0.25; stroke-linecap: square"/>
   </g>
   <g id="line2d_69">
    <path d="M 204.07652 180.476265 
L 205.343226 180.491295 
L 206.604045 180.50604 
L 207.859484 180.52265 
L 209.110102 180.541006 
L 210.356492 180.560922 
L 211.599282 180.582129 
L 212.839144 180.604257 
L 214.076793 180.626819 
L 215.312995 180.649187 
L 216.548569 180.670568 
L 217.784392 180.689976 
L 219.021397 180.706199 
L 220.260572 180.717773 
L 221.50296 180.723016 
L 222.749637 180.720775 
L 224.000594 180.666583 
L 225.253449 180.54585 
L 226.50935 180.386438 
L 227.772788 180.225117 
L 229.046459 180.084396 
L 230.330344 179.971636 
L 231.623067 179.883977 
L 232.92301 179.812303 
L 234.229241 179.754024 
L 235.538054 179.654464 
L 236.845443 179.494742 
L 238.127293 179.175091 
L 239.324201 178.608095 
L 240.478646 177.954191 
L 241.583518 177.217482 
" clip-path="url(#p7b4e999ad3)" style="fill: none; stroke: #ff0000; stroke-opacity: 0.8; stroke-width: 0.25; stroke-linecap: square"/>
   </g>
   <g id="line2d_70">
    <path d="M 204.07652 180.476265 
L 205.34324 180.490061 
L 206.604258 180.503922 
L 207.860078 180.519988 
L 209.111252 180.538235 
L 210.358363 180.558576 
L 211.602033 180.580839 
L 212.842924 180.604757 
L 214.081746 180.629942 
L 215.319256 180.655865 
L 216.556271 180.681826 
L 217.793662 180.706926 
L 219.032366 180.730023 
L 220.273379 180.749697 
L 221.517757 180.764223 
L 222.766591 180.772227 
L 224.020284 180.729515 
L 225.276318 180.617055 
L 226.535108 180.460452 
L 227.801037 180.297743 
L 229.077088 180.153233 
L 230.363465 180.035447 
L 231.658881 179.942185 
L 232.961709 179.864661 
L 234.270951 179.799351 
L 235.582494 179.690625 
L 236.892083 179.520039 
L 238.173198 179.182931 
L 239.369778 178.606713 
L 240.523186 177.943504 
L 241.626258 177.197435 
" clip-path="url(#p7b4e999ad3)" style="fill: none; stroke: #ff0000; stroke-width: 0.25; stroke-linecap: square"/>
   </g>
   <g id="line2d_71">
    <path d="M 242.01582 240.017357 
L 242.01582 238.511371 
L 242.01582 237.005384 
L 242.01582 235.499398 
L 242.01582 233.993412 
L 242.01582 232.487425 
L 242.01582 230.981439 
L 242.01582 229.475452 
L 242.01582 227.969466 
L 242.01582 226.46348 
L 242.01582 224.957493 
L 242.01582 223.451507 
L 242.01582 221.94552 
L 242.01582 220.439534 
L 242.01582 218.933548 
L 242.01582 217.427561 
L 242.01582 215.921575 
L 242.01582 214.415588 
L 242.01582 212.909602 
L 242.01582 211.403615 
L 242.01582 209.897629 
L 242.01582 208.391643 
L 242.01582 206.885656 
L 242.01582 205.37967 
L 242.01582 203.873683 
L 242.01582 202.367697 
L 242.01582 200.861711 
L 242.01582 199.355724 
L 242.01582 197.849738 
L 242.01582 196.343751 
L 242.01582 194.837765 
" clip-path="url(#p7b4e999ad3)" style="fill: none; stroke: #ff0000; stroke-opacity: 0.2; stroke-width: 0.25; stroke-linecap: square"/>
   </g>
   <g id="line2d_72">
    <path d="M 242.01582 240.017357 
L 242.01582 238.511371 
L 242.01582 237.005384 
L 242.01582 235.499398 
L 242.01582 233.993412 
L 242.01582 232.487425 
L 242.01582 230.981439 
L 242.01582 229.475452 
L 242.01582 227.969466 
L 242.01582 226.46348 
L 242.01582 224.957493 
L 242.01582 223.451507 
L 242.01582 221.94552 
L 242.01582 220.439534 
L 242.01582 218.933548 
L 242.01582 217.427561 
L 242.01582 215.921575 
L 242.01582 214.415588 
L 242.01582 212.909602 
L 242.01582 211.403615 
L 242.01582 209.897629 
L 242.01582 208.391643 
L 242.01582 206.885656 
L 242.01582 205.37967 
L 242.01582 203.873683 
L 242.01582 202.367697 
L 242.01582 200.861711 
L 242.01582 199.355724 
L 242.01582 197.849738 
L 242.01582 196.343751 
L 242.01582 194.837765 
" clip-path="url(#p7b4e999ad3)" style="fill: none; stroke: #ff0000; stroke-opacity: 0.4; stroke-width: 0.25; stroke-linecap: square"/>
   </g>
   <g id="line2d_73">
    <path d="M 242.01582 240.017357 
L 242.01582 238.511371 
L 242.01582 237.005384 
L 242.01582 235.499398 
L 242.01582 233.993412 
L 242.01582 232.487425 
L 242.01582 230.981439 
L 242.01582 229.475452 
L 242.01582 227.969466 
L 242.01582 226.46348 
L 242.01582 224.957493 
L 242.01582 223.451507 
L 242.01582 221.94552 
L 242.01582 220.439534 
L 242.01582 218.933548 
L 242.01582 217.427561 
L 242.01582 215.921575 
L 242.01582 214.415588 
L 242.01582 212.909602 
L 242.01582 211.403615 
L 242.01582 209.897629 
L 242.01582 208.391643 
L 242.01582 206.885656 
L 242.01582 205.37967 
L 242.01582 203.873683 
L 242.01582 202.367697 
L 242.01582 200.861711 
L 242.01582 199.355724 
L 242.01582 197.849738 
L 242.01582 196.343751 
L 242.01582 194.837765 
" clip-path="url(#p7b4e999ad3)" style="fill: none; stroke: #ff0000; stroke-opacity: 0.6; stroke-width: 0.25; stroke-linecap: square"/>
   </g>
   <g id="line2d_74">
    <path d="M 242.01582 240.017357 
L 242.01582 238.511371 
L 242.01582 237.005384 
L 242.01582 235.499398 
L 242.01582 233.993412 
L 242.01582 232.487425 
L 242.01582 230.981439 
L 242.01582 229.475452 
L 242.01582 227.969466 
L 242.01582 226.46348 
L 242.01582 224.957493 
L 242.01582 223.451507 
L 242.01582 221.94552 
L 242.01582 220.439534 
L 242.01582 218.933548 
L 242.01582 217.427561 
L 242.01582 215.921575 
L 242.01582 214.415588 
L 242.01582 212.909602 
L 242.01582 211.403615 
L 242.01582 209.897629 
L 242.01582 208.391643 
L 242.01582 206.885656 
L 242.01582 205.37967 
L 242.01582 203.873683 
L 242.01582 202.367697 
L 242.01582 200.861711 
L 242.01582 199.355724 
L 242.01582 197.849738 
L 242.01582 196.343751 
L 242.01582 194.837765 
" clip-path="url(#p7b4e999ad3)" style="fill: none; stroke: #ff0000; stroke-opacity: 0.8; stroke-width: 0.25; stroke-linecap: square"/>
   </g>
   <g id="line2d_75">
    <path d="M 242.01582 240.017357 
L 242.01582 238.511371 
L 242.01582 237.005384 
L 242.01582 235.499398 
L 242.01582 233.993412 
L 242.01582 232.487425 
L 242.01582 230.981439 
L 242.01582 229.475452 
L 242.01582 227.969466 
L 242.01582 226.46348 
L 242.01582 224.957493 
L 242.01582 223.451507 
L 242.01582 221.94552 
L 242.01582 220.439534 
L 242.01582 218.933548 
L 242.01582 217.427561 
L 242.01582 215.921575 
L 242.01582 214.415588 
L 242.01582 212.909602 
L 242.01582 211.403615 
L 242.01582 209.897629 
L 242.01582 208.391643 
L 242.01582 206.885656 
L 242.01582 205.37967 
L 242.01582 203.873683 
L 242.01582 202.367697 
L 242.01582 200.861711 
L 242.01582 199.355724 
L 242.01582 197.849738 
L 242.01582 196.343751 
L 242.01582 194.837765 
" clip-path="url(#p7b4e999ad3)" style="fill: none; stroke: #ff0000; stroke-width: 0.25; stroke-linecap: square"/>
   </g>
   <g id="line2d_76">
    <path d="M 286.254039 168.353628 
L 284.446523 168.279499 
L 282.643762 168.201879 
L 280.845214 168.121091 
L 279.050177 168.040376 
L 277.257872 167.96409 
L 275.467477 167.897875 
L 273.678188 167.848859 
L 271.88935 167.82583 
L 270.100663 167.839415 
L 268.312503 167.902208 
L 266.526384 168.028841 
L 264.745569 168.23591 
L 262.97583 168.541629 
L 261.226236 168.96493 
L 259.509585 169.523502 
L 257.841488 170.229938 
L 256.226572 171.067001 
L 254.551107 171.796932 
L 252.773437 172.259894 
L 250.926693 172.267265 
L 249.080095 172.075891 
L 247.253612 171.695721 
L 245.467854 171.128014 
L 243.725048 170.420436 
L 241.918098 169.876697 
L 240.050886 169.571968 
L 238.155361 169.538956 
L 236.289252 169.888966 
L 234.468121 170.432205 
L 232.713009 171.163054 
" clip-path="url(#p7b4e999ad3)" style="fill: none; stroke: #ff0000; stroke-opacity: 0.2; stroke-width: 0.25; stroke-linecap: square"/>
   </g>
   <g id="line2d_77">
    <path d="M 286.254039 168.353628 
L 284.446695 168.275415 
L 282.643678 168.19411 
L 280.844481 168.108779 
L 279.048373 168.022668 
L 277.25454 167.940164 
L 275.462108 167.866982 
L 273.670213 167.810372 
L 271.878121 167.779316 
L 270.085451 167.784714 
L 268.292506 167.839547 
L 266.500754 167.958968 
L 264.713496 168.160264 
L 262.936696 168.462554 
L 261.179881 168.88591 
L 259.456728 169.44938 
L 257.784279 170.16698 
L 256.167686 171.020407 
L 254.48822 171.765461 
L 252.703153 172.241227 
L 250.845403 172.257023 
L 248.986314 172.073152 
L 247.146596 171.696558 
L 245.345571 171.134883 
L 243.582813 170.441685 
L 241.757642 169.911743 
L 239.874415 169.619451 
L 237.96462 169.600124 
L 236.086979 169.965519 
L 234.256304 170.526479 
L 232.493681 171.276305 
" clip-path="url(#p7b4e999ad3)" style="fill: none; stroke: #ff0000; stroke-opacity: 0.4; stroke-width: 0.25; stroke-linecap: square"/>
   </g>
   <g id="line2d_78">
    <path d="M 286.254039 168.353628 
L 284.446756 168.274009 
L 282.643435 168.191961 
L 280.843617 168.105473 
L 279.046573 168.017714 
L 277.251486 167.933009 
L 275.457475 167.857042 
L 273.663654 167.797069 
L 271.869259 167.762124 
L 270.073869 167.763222 
L 268.277737 167.813532 
L 266.482298 167.928494 
L 264.690849 168.125809 
L 262.909438 168.42516 
L 261.147838 168.847381 
L 259.420257 169.412474 
L 257.74466 170.135498 
L 256.126243 170.996916 
L 254.442779 171.746922 
L 252.651797 172.223634 
L 250.787784 172.234235 
L 248.922654 172.045849 
L 247.076625 171.666927 
L 245.268845 171.104071 
L 243.496001 170.417679 
L 241.658685 169.904785 
L 239.764532 169.637986 
L 237.847619 169.656163 
L 235.967141 170.043551 
L 234.136187 170.627322 
L 232.376556 171.4018 
" clip-path="url(#p7b4e999ad3)" style="fill: none; stroke: #ff0000; stroke-opacity: 0.6; stroke-width: 0.25; stroke-linecap: square"/>
   </g>
   <g id="line2d_79">
    <path d="M 286.254039 168.353628 
L 284.446785 168.273357 
L 282.643223 168.191081 
L 280.842924 168.104138 
L 279.045165 168.01564 
L 277.249128 167.929871 
L 275.453928 167.852489 
L 273.658671 167.79075 
L 271.862578 167.753717 
L 270.065202 167.752473 
L 268.266774 167.800303 
L 266.468707 167.912825 
L 264.6743 168.107995 
L 262.889654 168.405854 
L 261.124704 168.827719 
L 259.393997 169.394208 
L 257.716105 170.121071 
L 256.096159 170.987793 
L 254.409745 171.741127 
L 252.614702 172.219051 
L 250.746274 172.228025 
L 248.8766 172.039289 
L 247.026171 171.658519 
L 245.212348 171.098992 
L 243.431247 170.420525 
L 241.585891 169.918247 
L 239.685203 169.662456 
L 237.763467 169.693931 
L 235.880399 170.093345 
L 234.048314 170.689858 
L 232.289075 171.477483 
" clip-path="url(#p7b4e999ad3)" style="fill: none; stroke: #ff0000; stroke-opacity: 0.8; stroke-width: 0.25; stroke-linecap: square"/>
   </g>
   <g id="line2d_80">
    <path d="M 286.254039 168.353628 
L 284.446796 168.273105 
L 282.643047 168.191033 
L 280.842391 168.104143 
L 279.044112 168.015483 
L 277.247397 167.929282 
L 275.451361 167.851163 
L 273.655105 167.78836 
L 271.857842 167.749945 
L 270.059109 167.747037 
L 268.259114 167.792999 
L 266.459249 167.903577 
L 264.662808 168.096919 
L 262.875923 168.393347 
L 261.108639 168.814561 
L 259.375767 169.381694 
L 257.696364 170.111088 
L 256.07535 170.981165 
L 254.386567 171.735697 
L 252.588441 172.212799 
L 250.717132 172.218512 
L 248.844654 172.028181 
L 246.991455 171.645928 
L 245.173605 171.089099 
L 243.386351 170.418178 
L 241.534668 169.927486 
L 239.62918 169.684347 
L 237.704627 169.730601 
L 235.82048 170.139756 
L 233.988588 170.746735 
L 232.230806 171.545057 
" clip-path="url(#p7b4e999ad3)" style="fill: none; stroke: #ff0000; stroke-width: 0.25; stroke-linecap: square"/>
   </g>
   <g id="line2d_81">
    <path d="M 230.30418 109.038643 
L 230.30418 110.544629 
L 230.30418 112.050616 
L 230.30418 113.556602 
L 230.30418 115.062588 
L 230.30418 116.568575 
L 230.30418 118.074561 
L 230.30418 119.580548 
L 230.30418 121.086534 
L 230.30418 122.592521 
L 230.30418 124.098507 
L 230.30418 125.604493 
L 230.30418 127.11048 
L 230.30418 128.616466 
L 230.30418 130.122453 
L 230.30418 131.628439 
L 230.30418 133.134425 
L 230.30418 134.640412 
L 230.30418 136.146398 
L 230.30418 137.652385 
L 230.30418 139.158371 
L 230.30418 140.664357 
L 230.30418 142.170344 
L 230.30418 143.67633 
L 230.30418 145.182317 
L 230.30418 146.688303 
L 230.30418 148.194289 
L 230.30418 149.700276 
L 230.30418 151.206262 
L 230.30418 152.712249 
L 230.30418 154.218235 
" clip-path="url(#p7b4e999ad3)" style="fill: none; stroke: #ff0000; stroke-opacity: 0.2; stroke-width: 0.25; stroke-linecap: square"/>
   </g>
   <g id="line2d_82">
    <path d="M 230.30418 109.038643 
L 230.30418 110.544629 
L 230.30418 112.050616 
L 230.30418 113.556602 
L 230.30418 115.062588 
L 230.30418 116.568575 
L 230.30418 118.074561 
L 230.30418 119.580548 
L 230.30418 121.086534 
L 230.30418 122.592521 
L 230.30418 124.098507 
L 230.30418 125.604493 
L 230.30418 127.11048 
L 230.30418 128.616466 
L 230.30418 130.122453 
L 230.30418 131.628439 
L 230.30418 133.134425 
L 230.30418 134.640412 
L 230.30418 136.146398 
L 230.30418 137.652385 
L 230.30418 139.158371 
L 230.30418 140.664357 
L 230.30418 142.170344 
L 230.30418 143.67633 
L 230.30418 145.182317 
L 230.30418 146.688303 
L 230.30418 148.194289 
L 230.30418 149.700276 
L 230.30418 151.206262 
L 230.30418 152.712249 
L 230.30418 154.218235 
" clip-path="url(#p7b4e999ad3)" style="fill: none; stroke: #ff0000; stroke-opacity: 0.4; stroke-width: 0.25; stroke-linecap: square"/>
   </g>
   <g id="line2d_83">
    <path d="M 230.30418 109.038643 
L 230.30418 110.544629 
L 230.30418 112.050616 
L 230.30418 113.556602 
L 230.30418 115.062588 
L 230.30418 116.568575 
L 230.30418 118.074561 
L 230.30418 119.580548 
L 230.30418 121.086534 
L 230.30418 122.592521 
L 230.30418 124.098507 
L 230.30418 125.604493 
L 230.30418 127.11048 
L 230.30418 128.616466 
L 230.30418 130.122453 
L 230.30418 131.628439 
L 230.30418 133.134425 
L 230.30418 134.640412 
L 230.30418 136.146398 
L 230.30418 137.652385 
L 230.30418 139.158371 
L 230.30418 140.664357 
L 230.30418 142.170344 
L 230.30418 143.67633 
L 230.30418 145.182317 
L 230.30418 146.688303 
L 230.30418 148.194289 
L 230.30418 149.700276 
L 230.30418 151.206262 
L 230.30418 152.712249 
L 230.30418 154.218235 
" clip-path="url(#p7b4e999ad3)" style="fill: none; stroke: #ff0000; stroke-opacity: 0.6; stroke-width: 0.25; stroke-linecap: square"/>
   </g>
   <g id="line2d_84">
    <path d="M 230.30418 109.038643 
L 230.30418 110.544629 
L 230.30418 112.050616 
L 230.30418 113.556602 
L 230.30418 115.062588 
L 230.30418 116.568575 
L 230.30418 118.074561 
L 230.30418 119.580548 
L 230.30418 121.086534 
L 230.30418 122.592521 
L 230.30418 124.098507 
L 230.30418 125.604493 
L 230.30418 127.11048 
L 230.30418 128.616466 
L 230.30418 130.122453 
L 230.30418 131.628439 
L 230.30418 133.134425 
L 230.30418 134.640412 
L 230.30418 136.146398 
L 230.30418 137.652385 
L 230.30418 139.158371 
L 230.30418 140.664357 
L 230.30418 142.170344 
L 230.30418 143.67633 
L 230.30418 145.182317 
L 230.30418 146.688303 
L 230.30418 148.194289 
L 230.30418 149.700276 
L 230.30418 151.206262 
L 230.30418 152.712249 
L 230.30418 154.218235 
" clip-path="url(#p7b4e999ad3)" style="fill: none; stroke: #ff0000; stroke-opacity: 0.8; stroke-width: 0.25; stroke-linecap: square"/>
   </g>
   <g id="line2d_85">
    <path d="M 230.30418 109.038643 
L 230.30418 110.544629 
L 230.30418 112.050616 
L 230.30418 113.556602 
L 230.30418 115.062588 
L 230.30418 116.568575 
L 230.30418 118.074561 
L 230.30418 119.580548 
L 230.30418 121.086534 
L 230.30418 122.592521 
L 230.30418 124.098507 
L 230.30418 125.604493 
L 230.30418 127.11048 
L 230.30418 128.616466 
L 230.30418 130.122453 
L 230.30418 131.628439 
L 230.30418 133.134425 
L 230.30418 134.640412 
L 230.30418 136.146398 
L 230.30418 137.652385 
L 230.30418 139.158371 
L 230.30418 140.664357 
L 230.30418 142.170344 
L 230.30418 143.67633 
L 230.30418 145.182317 
L 230.30418 146.688303 
L 230.30418 148.194289 
L 230.30418 149.700276 
L 230.30418 151.206262 
L 230.30418 152.712249 
L 230.30418 154.218235 
" clip-path="url(#p7b4e999ad3)" style="fill: none; stroke: #ff0000; stroke-width: 0.25; stroke-linecap: square"/>
   </g>
   <g id="line2d_86">
    <path d="M 170.670644 180.383819 
L 172.176631 180.383819 
L 173.682617 180.383819 
L 175.188604 180.383819 
L 176.694591 180.383819 
L 178.200577 180.383819 
L 179.706564 180.383819 
L 181.21255 180.383819 
L 182.718537 180.383819 
L 184.224523 180.383819 
L 185.73051 180.383818 
L 187.236496 180.383818 
L 188.742482 180.383818 
L 190.248469 180.383818 
L 191.754455 180.383817 
L 193.260442 180.383817 
L 194.766428 180.383817 
L 196.272414 180.383816 
L 197.778401 180.383816 
L 199.284387 180.383816 
L 200.790373 180.383815 
L 202.29636 180.383815 
L 203.802346 180.383814 
L 205.308332 180.383814 
L 206.814319 180.383813 
L 208.320305 180.383813 
L 209.826291 180.383812 
L 211.332277 180.383812 
L 212.838264 180.383811 
L 214.34425 180.383811 
L 215.850236 180.38381 
" clip-path="url(#p7b4e999ad3)" style="fill: none; stroke: #ff0000; stroke-opacity: 0.2; stroke-width: 0.25; stroke-linecap: square"/>
   </g>
   <g id="line2d_87">
    <path d="M 170.670644 180.383819 
L 172.176631 180.383819 
L 173.682617 180.38382 
L 175.188604 180.38382 
L 176.694591 180.38382 
L 178.200577 180.38382 
L 179.706564 180.38382 
L 181.21255 180.38382 
L 182.718537 180.38382 
L 184.224523 180.38382 
L 185.73051 180.383821 
L 187.236496 180.383821 
L 188.742482 180.383821 
L 190.248469 180.383821 
L 191.754455 180.383821 
L 193.260442 180.383822 
L 194.766428 180.383822 
L 196.272414 180.383822 
L 197.778401 180.383822 
L 199.284387 180.383822 
L 200.790373 180.383823 
L 202.296359 180.383823 
L 203.802346 180.383823 
L 205.308332 180.383824 
L 206.814318 180.383824 
L 208.320305 180.383824 
L 209.826291 180.383825 
L 211.332277 180.383825 
L 212.838264 180.383825 
L 214.34425 180.383825 
L 215.850236 180.383826 
" clip-path="url(#p7b4e999ad3)" style="fill: none; stroke: #ff0000; stroke-opacity: 0.4; stroke-width: 0.25; stroke-linecap: square"/>
   </g>
   <g id="line2d_88">
    <path d="M 170.670644 180.383819 
L 172.176631 180.383819 
L 173.682617 180.383819 
L 175.188604 180.383819 
L 176.694591 180.383819 
L 178.200577 180.383819 
L 179.706564 180.383819 
L 181.21255 180.383819 
L 182.718537 180.383819 
L 184.224523 180.383819 
L 185.73051 180.383819 
L 187.236496 180.383819 
L 188.742482 180.383819 
L 190.248469 180.383819 
L 191.754455 180.383819 
L 193.260442 180.383819 
L 194.766428 180.383819 
L 196.272414 180.383819 
L 197.778401 180.383819 
L 199.284387 180.383818 
L 200.790373 180.383818 
L 202.29636 180.383818 
L 203.802346 180.383818 
L 205.308332 180.383818 
L 206.814318 180.383818 
L 208.320305 180.383817 
L 209.826291 180.383817 
L 211.332277 180.383817 
L 212.838264 180.383817 
L 214.34425 180.383817 
L 215.850236 180.383817 
" clip-path="url(#p7b4e999ad3)" style="fill: none; stroke: #ff0000; stroke-opacity: 0.6; stroke-width: 0.25; stroke-linecap: square"/>
   </g>
   <g id="line2d_89">
    <path d="M 170.670644 180.383819 
L 172.176631 180.383819 
L 173.682617 180.38382 
L 175.188604 180.38382 
L 176.694591 180.38382 
L 178.200577 180.38382 
L 179.706564 180.38382 
L 181.21255 180.38382 
L 182.718537 180.38382 
L 184.224523 180.38382 
L 185.73051 180.38382 
L 187.236496 180.38382 
L 188.742482 180.38382 
L 190.248469 180.38382 
L 191.754455 180.38382 
L 193.260442 180.38382 
L 194.766428 180.383821 
L 196.272414 180.383821 
L 197.778401 180.383821 
L 199.284387 180.383821 
L 200.790373 180.383821 
L 202.29636 180.383821 
L 203.802346 180.383821 
L 205.308332 180.383821 
L 206.814318 180.383821 
L 208.320305 180.383821 
L 209.826291 180.383822 
L 211.332277 180.383822 
L 212.838264 180.383822 
L 214.34425 180.383822 
L 215.850236 180.383822 
" clip-path="url(#p7b4e999ad3)" style="fill: none; stroke: #ff0000; stroke-opacity: 0.8; stroke-width: 0.25; stroke-linecap: square"/>
   </g>
   <g id="line2d_90">
    <path d="M 170.670644 180.383819 
L 172.176631 180.383819 
L 173.682617 180.383819 
L 175.188604 180.383819 
L 176.694591 180.38382 
L 178.200577 180.38382 
L 179.706564 180.38382 
L 181.21255 180.38382 
L 182.718537 180.38382 
L 184.224523 180.38382 
L 185.73051 180.38382 
L 187.236496 180.38382 
L 188.742482 180.38382 
L 190.248469 180.38382 
L 191.754455 180.38382 
L 193.260442 180.38382 
L 194.766428 180.38382 
L 196.272414 180.38382 
L 197.778401 180.383819 
L 199.284387 180.383819 
L 200.790373 180.383819 
L 202.29636 180.383819 
L 203.802346 180.383819 
L 205.308332 180.383819 
L 206.814318 180.383819 
L 208.320305 180.383819 
L 209.826291 180.383819 
L 211.332277 180.383819 
L 212.838264 180.383819 
L 214.34425 180.383819 
L 215.850236 180.383819 
" clip-path="url(#p7b4e999ad3)" style="fill: none; stroke: #ff0000; stroke-width: 0.25; stroke-linecap: square"/>
   </g>
   <g id="patch_15">
    <path d="M 103.104 307.584 
L 103.104 41.472 
" style="fill: none; stroke: #000000; stroke-width: 0.8; stroke-linejoin: miter; stroke-linecap: square"/>
   </g>
   <g id="patch_16">
    <path d="M 369.216 307.584 
L 369.216 41.472 
" style="fill: none; stroke: #000000; stroke-width: 0.8; stroke-linejoin: miter; stroke-linecap: square"/>
   </g>
   <g id="patch_17">
    <path d="M 103.104 307.584 
L 369.216 307.584 
" style="fill: none; stroke: #000000; stroke-width: 0.8; stroke-linejoin: miter; stroke-linecap: square"/>
   </g>
   <g id="patch_18">
    <path d="M 103.104 41.472 
L 369.216 41.472 
" style="fill: none; stroke: #000000; stroke-width: 0.8; stroke-linejoin: miter; stroke-linecap: square"/>
   </g>
   <g id="text_19">
    <!-- Time:  41 ms -->
    <g transform="translate(264.253887 54.7776) scale(0.1 -0.1)">
     <defs>
      <path id="DejaVuSans-54" d="M -19 4666 
L 3928 4666 
L 3928 4134 
L 2272 4134 
L 2272 0 
L 1638 0 
L 1638 4134 
L -19 4134 
L -19 4666 
z
" transform="scale(0.015625)"/>
      <path id="DejaVuSans-69" d="M 603 3500 
L 1178 3500 
L 1178 0 
L 603 0 
L 603 3500 
z
M 603 4863 
L 1178 4863 
L 1178 4134 
L 603 4134 
L 603 4863 
z
" transform="scale(0.015625)"/>
      <path id="DejaVuSans-6d" d="M 3328 2828 
Q 3544 3216 3844 3400 
Q 4144 3584 4550 3584 
Q 5097 3584 5394 3201 
Q 5691 2819 5691 2113 
L 5691 0 
L 5113 0 
L 5113 2094 
Q 5113 2597 4934 2840 
Q 4756 3084 4391 3084 
Q 3944 3084 3684 2787 
Q 3425 2491 3425 1978 
L 3425 0 
L 2847 0 
L 2847 2094 
Q 2847 2600 2669 2842 
Q 2491 3084 2119 3084 
Q 1678 3084 1418 2786 
Q 1159 2488 1159 1978 
L 1159 0 
L 581 0 
L 581 3500 
L 1159 3500 
L 1159 2956 
Q 1356 3278 1631 3431 
Q 1906 3584 2284 3584 
Q 2666 3584 2933 3390 
Q 3200 3197 3328 2828 
z
" transform="scale(0.015625)"/>
      <path id="DejaVuSans-65" d="M 3597 1894 
L 3597 1613 
L 953 1613 
Q 991 1019 1311 708 
Q 1631 397 2203 397 
Q 2534 397 2845 478 
Q 3156 559 3463 722 
L 3463 178 
Q 3153 47 2828 -22 
Q 2503 -91 2169 -91 
Q 1331 -91 842 396 
Q 353 884 353 1716 
Q 353 2575 817 3079 
Q 1281 3584 2069 3584 
Q 2775 3584 3186 3129 
Q 3597 2675 3597 1894 
z
M 3022 2063 
Q 3016 2534 2758 2815 
Q 2500 3097 2075 3097 
Q 1594 3097 1305 2825 
Q 1016 2553 972 2059 
L 3022 2063 
z
" transform="scale(0.015625)"/>
      <path id="DejaVuSans-3a" d="M 750 794 
L 1409 794 
L 1409 0 
L 750 0 
L 750 794 
z
M 750 3309 
L 1409 3309 
L 1409 2516 
L 750 2516 
L 750 3309 
z
" transform="scale(0.015625)"/>
      <path id="DejaVuSans-20" transform="scale(0.015625)"/>
      <path id="DejaVuSans-73" d="M 2834 3397 
L 2834 2853 
Q 2591 2978 2328 3040 
Q 2066 3103 1784 3103 
Q 1356 3103 1142 2972 
Q 928 2841 928 2578 
Q 928 2378 1081 2264 
Q 1234 2150 1697 2047 
L 1894 2003 
Q 2506 1872 2764 1633 
Q 3022 1394 3022 966 
Q 3022 478 2636 193 
Q 2250 -91 1575 -91 
Q 1294 -91 989 -36 
Q 684 19 347 128 
L 347 722 
Q 666 556 975 473 
Q 1284 391 1588 391 
Q 1994 391 2212 530 
Q 2431 669 2431 922 
Q 2431 1156 2273 1281 
Q 2116 1406 1581 1522 
L 1381 1569 
Q 847 1681 609 1914 
Q 372 2147 372 2553 
Q 372 3047 722 3315 
Q 1072 3584 1716 3584 
Q 2034 3584 2315 3537 
Q 2597 3491 2834 3397 
z
" transform="scale(0.015625)"/>
     </defs>
     <use xlink:href="#DejaVuSans-54"/>
     <use xlink:href="#DejaVuSans-69" x="57.958984"/>
     <use xlink:href="#DejaVuSans-6d" x="85.742188"/>
     <use xlink:href="#DejaVuSans-65" x="183.154297"/>
     <use xlink:href="#DejaVuSans-3a" x="244.677734"/>
     <use xlink:href="#DejaVuSans-20" x="278.369141"/>
     <use xlink:href="#DejaVuSans-20" x="310.15625"/>
     <use xlink:href="#DejaVuSans-34" x="341.943359"/>
     <use xlink:href="#DejaVuSans-31" x="405.566406"/>
     <use xlink:href="#DejaVuSans-20" x="469.189453"/>
     <use xlink:href="#DejaVuSans-6d" x="500.976562"/>
     <use xlink:href="#DejaVuSans-73" x="598.388672"/>
    </g>
   </g>
  </g>
 </g>
 <defs>
  <clipPath id="p7b4e999ad3">
   <rect x="103.104" y="41.472" width="266.112" height="266.112"/>
  </clipPath>
 </defs>
</svg>
