<?xml version="1.0" encoding="utf-8" standalone="no"?>
<!DOCTYPE svg PUBLIC "-//W3C//DTD SVG 1.1//EN"
  "http://www.w3.org/Graphics/SVG/1.1/DTD/svg11.dtd">
<svg xmlns:xlink="http://www.w3.org/1999/xlink" width="460.8pt" height="345.6pt" viewBox="0 0 460.8 345.6" xmlns="http://www.w3.org/2000/svg" version="1.1">
 <metadata>
  <rdf:RDF xmlns:dc="http://purl.org/dc/elements/1.1/" xmlns:cc="http://creativecommons.org/ns#" xmlns:rdf="http://www.w3.org/1999/02/22-rdf-syntax-ns#">
   <cc:Work>
    <dc:type rdf:resource="http://purl.org/dc/dcmitype/StillImage"/>
    <dc:date>2024-01-23T14:21:04.848143</dc:date>
    <dc:format>image/svg+xml</dc:format>
    <dc:creator>
     <cc:Agent>
      <dc:title>Matplotlib v3.8.2, https://matplotlib.org/</dc:title>
     </cc:Agent>
    </dc:creator>
   </cc:Work>
  </rdf:RDF>
 </metadata>
 <defs>
  <style type="text/css">*{stroke-linejoin: round; stroke-linecap: butt}</style>
 </defs>
 <g id="figure_1">
  <g id="patch_1">
   <path d="M 0 345.6 
L 460.8 345.6 
L 460.8 0 
L 0 0 
z
" style="fill: #ffffff"/>
  </g>
  <g id="axes_1">
   <g id="patch_2">
    <path d="M 103.104 307.584 
L 369.216 307.584 
L 369.216 41.472 
L 103.104 41.472 
z
" style="fill: #ffffff"/>
   </g>
   <g id="patch_3">
    <path d="M 244.846236 224.504561 
L 244.896927 212.862271 
L 239.242101 212.83765 
L 239.19141 224.47994 
z
" clip-path="url(#p296ae41ea9)" style="fill: #00008b"/>
   </g>
   <g id="patch_4">
    <path d="M 286.339995 165.854353 
L 274.698565 166.004604 
L 274.771544 171.659013 
L 286.412974 171.508762 
z
" clip-path="url(#p296ae41ea9)" style="fill: #800000"/>
   </g>
   <g id="patch_5">
    <path d="M 227.480005 124.527242 
L 227.526549 136.169549 
L 233.181384 136.146942 
L 233.13484 124.504635 
z
" clip-path="url(#p296ae41ea9)" style="fill: #006400"/>
   </g>
   <g id="patch_6">
    <path d="M 186.175896 183.20217 
L 197.817772 183.091776 
L 197.764152 177.43715 
L 186.122276 177.547544 
z
" clip-path="url(#p296ae41ea9)" style="fill: #4b0082"/>
   </g>
   <g id="patch_7">
    <path d="M 244.84326 264.45168 
L 244.84326 252.80928 
L 239.18838 252.80928 
L 239.18838 264.45168 
z
" clip-path="url(#p296ae41ea9)" style="fill: #0000ff"/>
   </g>
   <g id="patch_8">
    <path d="M 326.08368 165.84474 
L 314.44128 165.84474 
L 314.44128 171.49962 
L 326.08368 171.49962 
z
" clip-path="url(#p296ae41ea9)" style="fill: #ff0000"/>
   </g>
   <g id="patch_9">
    <path d="M 227.47674 84.646061 
L 227.47674 96.288461 
L 233.13162 96.288461 
L 233.13162 84.646061 
z
" clip-path="url(#p296ae41ea9)" style="fill: #dbdc56"/>
   </g>
   <g id="patch_10">
    <path d="M 145.745837 183.21126 
L 157.388237 183.21126 
L 157.388237 177.55638 
L 145.745837 177.55638 
z
" clip-path="url(#p296ae41ea9)" style="fill: #9400d3"/>
   </g>
   <g id="patch_11">
    <path d="M 244.84326 304.572027 
L 244.84326 292.929627 
L 239.18838 292.929627 
L 239.18838 304.572027 
z
" clip-path="url(#p296ae41ea9)" style="fill: #1e90ff"/>
   </g>
   <g id="patch_12">
    <path d="M 365.426515 165.84474 
L 353.784115 165.84474 
L 353.784115 171.49962 
L 365.426515 171.49962 
z
" clip-path="url(#p296ae41ea9)" style="fill: #ff4500"/>
   </g>
   <g id="patch_13">
    <path d="M 227.47674 44.483973 
L 227.47674 56.126373 
L 233.13162 56.126373 
L 233.13162 44.483973 
z
" clip-path="url(#p296ae41ea9)" style="fill: #7cfc00"/>
   </g>
   <g id="patch_14">
    <path d="M 106.115973 183.21126 
L 117.758373 183.21126 
L 117.758373 177.55638 
L 106.115973 177.55638 
z
" clip-path="url(#p296ae41ea9)" style="fill: #ff00ff"/>
   </g>
   <g id="matplotlib.axis_1">
    <g id="xtick_1">
     <g id="line2d_1">
      <defs>
       <path id="m6a827ae21d" d="M 0 0 
L 0 3.5 
" style="stroke: #000000; stroke-width: 0.8"/>
      </defs>
      <g>
       <use xlink:href="#m6a827ae21d" x="103.104" y="307.584" style="stroke: #000000; stroke-width: 0.8"/>
      </g>
     </g>
     <g id="text_1">
      <!-- −40 -->
      <g transform="translate(92.551656 322.182437) scale(0.1 -0.1)">
       <defs>
        <path id="DejaVuSans-2212" d="M 678 2272 
L 4684 2272 
L 4684 1741 
L 678 1741 
L 678 2272 
z
" transform="scale(0.015625)"/>
        <path id="DejaVuSans-34" d="M 2419 4116 
L 825 1625 
L 2419 1625 
L 2419 4116 
z
M 2253 4666 
L 3047 4666 
L 3047 1625 
L 3713 1625 
L 3713 1100 
L 3047 1100 
L 3047 0 
L 2419 0 
L 2419 1100 
L 313 1100 
L 313 1709 
L 2253 4666 
z
" transform="scale(0.015625)"/>
        <path id="DejaVuSans-30" d="M 2034 4250 
Q 1547 4250 1301 3770 
Q 1056 3291 1056 2328 
Q 1056 1369 1301 889 
Q 1547 409 2034 409 
Q 2525 409 2770 889 
Q 3016 1369 3016 2328 
Q 3016 3291 2770 3770 
Q 2525 4250 2034 4250 
z
M 2034 4750 
Q 2819 4750 3233 4129 
Q 3647 3509 3647 2328 
Q 3647 1150 3233 529 
Q 2819 -91 2034 -91 
Q 1250 -91 836 529 
Q 422 1150 422 2328 
Q 422 3509 836 4129 
Q 1250 4750 2034 4750 
z
" transform="scale(0.015625)"/>
       </defs>
       <use xlink:href="#DejaVuSans-2212"/>
       <use xlink:href="#DejaVuSans-34" x="83.789062"/>
       <use xlink:href="#DejaVuSans-30" x="147.412109"/>
      </g>
     </g>
    </g>
    <g id="xtick_2">
     <g id="line2d_2">
      <g>
       <use xlink:href="#m6a827ae21d" x="136.368" y="307.584" style="stroke: #000000; stroke-width: 0.8"/>
      </g>
     </g>
     <g id="text_2">
      <!-- −30 -->
      <g transform="translate(125.815656 322.182437) scale(0.1 -0.1)">
       <defs>
        <path id="DejaVuSans-33" d="M 2597 2516 
Q 3050 2419 3304 2112 
Q 3559 1806 3559 1356 
Q 3559 666 3084 287 
Q 2609 -91 1734 -91 
Q 1441 -91 1130 -33 
Q 819 25 488 141 
L 488 750 
Q 750 597 1062 519 
Q 1375 441 1716 441 
Q 2309 441 2620 675 
Q 2931 909 2931 1356 
Q 2931 1769 2642 2001 
Q 2353 2234 1838 2234 
L 1294 2234 
L 1294 2753 
L 1863 2753 
Q 2328 2753 2575 2939 
Q 2822 3125 2822 3475 
Q 2822 3834 2567 4026 
Q 2313 4219 1838 4219 
Q 1578 4219 1281 4162 
Q 984 4106 628 3988 
L 628 4550 
Q 988 4650 1302 4700 
Q 1616 4750 1894 4750 
Q 2613 4750 3031 4423 
Q 3450 4097 3450 3541 
Q 3450 3153 3228 2886 
Q 3006 2619 2597 2516 
z
" transform="scale(0.015625)"/>
       </defs>
       <use xlink:href="#DejaVuSans-2212"/>
       <use xlink:href="#DejaVuSans-33" x="83.789062"/>
       <use xlink:href="#DejaVuSans-30" x="147.412109"/>
      </g>
     </g>
    </g>
    <g id="xtick_3">
     <g id="line2d_3">
      <g>
       <use xlink:href="#m6a827ae21d" x="169.632" y="307.584" style="stroke: #000000; stroke-width: 0.8"/>
      </g>
     </g>
     <g id="text_3">
      <!-- −20 -->
      <g transform="translate(159.079656 322.182437) scale(0.1 -0.1)">
       <defs>
        <path id="DejaVuSans-32" d="M 1228 531 
L 3431 531 
L 3431 0 
L 469 0 
L 469 531 
Q 828 903 1448 1529 
Q 2069 2156 2228 2338 
Q 2531 2678 2651 2914 
Q 2772 3150 2772 3378 
Q 2772 3750 2511 3984 
Q 2250 4219 1831 4219 
Q 1534 4219 1204 4116 
Q 875 4013 500 3803 
L 500 4441 
Q 881 4594 1212 4672 
Q 1544 4750 1819 4750 
Q 2544 4750 2975 4387 
Q 3406 4025 3406 3419 
Q 3406 3131 3298 2873 
Q 3191 2616 2906 2266 
Q 2828 2175 2409 1742 
Q 1991 1309 1228 531 
z
" transform="scale(0.015625)"/>
       </defs>
       <use xlink:href="#DejaVuSans-2212"/>
       <use xlink:href="#DejaVuSans-32" x="83.789062"/>
       <use xlink:href="#DejaVuSans-30" x="147.412109"/>
      </g>
     </g>
    </g>
    <g id="xtick_4">
     <g id="line2d_4">
      <g>
       <use xlink:href="#m6a827ae21d" x="202.896" y="307.584" style="stroke: #000000; stroke-width: 0.8"/>
      </g>
     </g>
     <g id="text_4">
      <!-- −10 -->
      <g transform="translate(192.343656 322.182437) scale(0.1 -0.1)">
       <defs>
        <path id="DejaVuSans-31" d="M 794 531 
L 1825 531 
L 1825 4091 
L 703 3866 
L 703 4441 
L 1819 4666 
L 2450 4666 
L 2450 531 
L 3481 531 
L 3481 0 
L 794 0 
L 794 531 
z
" transform="scale(0.015625)"/>
       </defs>
       <use xlink:href="#DejaVuSans-2212"/>
       <use xlink:href="#DejaVuSans-31" x="83.789062"/>
       <use xlink:href="#DejaVuSans-30" x="147.412109"/>
      </g>
     </g>
    </g>
    <g id="xtick_5">
     <g id="line2d_5">
      <g>
       <use xlink:href="#m6a827ae21d" x="236.16" y="307.584" style="stroke: #000000; stroke-width: 0.8"/>
      </g>
     </g>
     <g id="text_5">
      <!-- 0 -->
      <g transform="translate(232.97875 322.182437) scale(0.1 -0.1)">
       <use xlink:href="#DejaVuSans-30"/>
      </g>
     </g>
    </g>
    <g id="xtick_6">
     <g id="line2d_6">
      <g>
       <use xlink:href="#m6a827ae21d" x="269.424" y="307.584" style="stroke: #000000; stroke-width: 0.8"/>
      </g>
     </g>
     <g id="text_6">
      <!-- 10 -->
      <g transform="translate(263.0615 322.182437) scale(0.1 -0.1)">
       <use xlink:href="#DejaVuSans-31"/>
       <use xlink:href="#DejaVuSans-30" x="63.623047"/>
      </g>
     </g>
    </g>
    <g id="xtick_7">
     <g id="line2d_7">
      <g>
       <use xlink:href="#m6a827ae21d" x="302.688" y="307.584" style="stroke: #000000; stroke-width: 0.8"/>
      </g>
     </g>
     <g id="text_7">
      <!-- 20 -->
      <g transform="translate(296.3255 322.182437) scale(0.1 -0.1)">
       <use xlink:href="#DejaVuSans-32"/>
       <use xlink:href="#DejaVuSans-30" x="63.623047"/>
      </g>
     </g>
    </g>
    <g id="xtick_8">
     <g id="line2d_8">
      <g>
       <use xlink:href="#m6a827ae21d" x="335.952" y="307.584" style="stroke: #000000; stroke-width: 0.8"/>
      </g>
     </g>
     <g id="text_8">
      <!-- 30 -->
      <g transform="translate(329.5895 322.182437) scale(0.1 -0.1)">
       <use xlink:href="#DejaVuSans-33"/>
       <use xlink:href="#DejaVuSans-30" x="63.623047"/>
      </g>
     </g>
    </g>
    <g id="xtick_9">
     <g id="line2d_9">
      <g>
       <use xlink:href="#m6a827ae21d" x="369.216" y="307.584" style="stroke: #000000; stroke-width: 0.8"/>
      </g>
     </g>
     <g id="text_9">
      <!-- 40 -->
      <g transform="translate(362.8535 322.182437) scale(0.1 -0.1)">
       <use xlink:href="#DejaVuSans-34"/>
       <use xlink:href="#DejaVuSans-30" x="63.623047"/>
      </g>
     </g>
    </g>
   </g>
   <g id="matplotlib.axis_2">
    <g id="ytick_1">
     <g id="line2d_10">
      <defs>
       <path id="mdb752ff484" d="M 0 0 
L -3.5 0 
" style="stroke: #000000; stroke-width: 0.8"/>
      </defs>
      <g>
       <use xlink:href="#mdb752ff484" x="103.104" y="307.584" style="stroke: #000000; stroke-width: 0.8"/>
      </g>
     </g>
     <g id="text_10">
      <!-- −40 -->
      <g transform="translate(74.999313 311.383219) scale(0.1 -0.1)">
       <use xlink:href="#DejaVuSans-2212"/>
       <use xlink:href="#DejaVuSans-34" x="83.789062"/>
       <use xlink:href="#DejaVuSans-30" x="147.412109"/>
      </g>
     </g>
    </g>
    <g id="ytick_2">
     <g id="line2d_11">
      <g>
       <use xlink:href="#mdb752ff484" x="103.104" y="274.32" style="stroke: #000000; stroke-width: 0.8"/>
      </g>
     </g>
     <g id="text_11">
      <!-- −30 -->
      <g transform="translate(74.999313 278.119219) scale(0.1 -0.1)">
       <use xlink:href="#DejaVuSans-2212"/>
       <use xlink:href="#DejaVuSans-33" x="83.789062"/>
       <use xlink:href="#DejaVuSans-30" x="147.412109"/>
      </g>
     </g>
    </g>
    <g id="ytick_3">
     <g id="line2d_12">
      <g>
       <use xlink:href="#mdb752ff484" x="103.104" y="241.056" style="stroke: #000000; stroke-width: 0.8"/>
      </g>
     </g>
     <g id="text_12">
      <!-- −20 -->
      <g transform="translate(74.999313 244.855219) scale(0.1 -0.1)">
       <use xlink:href="#DejaVuSans-2212"/>
       <use xlink:href="#DejaVuSans-32" x="83.789062"/>
       <use xlink:href="#DejaVuSans-30" x="147.412109"/>
      </g>
     </g>
    </g>
    <g id="ytick_4">
     <g id="line2d_13">
      <g>
       <use xlink:href="#mdb752ff484" x="103.104" y="207.792" style="stroke: #000000; stroke-width: 0.8"/>
      </g>
     </g>
     <g id="text_13">
      <!-- −10 -->
      <g transform="translate(74.999313 211.591219) scale(0.1 -0.1)">
       <use xlink:href="#DejaVuSans-2212"/>
       <use xlink:href="#DejaVuSans-31" x="83.789062"/>
       <use xlink:href="#DejaVuSans-30" x="147.412109"/>
      </g>
     </g>
    </g>
    <g id="ytick_5">
     <g id="line2d_14">
      <g>
       <use xlink:href="#mdb752ff484" x="103.104" y="174.528" style="stroke: #000000; stroke-width: 0.8"/>
      </g>
     </g>
     <g id="text_14">
      <!-- 0 -->
      <g transform="translate(89.7415 178.327219) scale(0.1 -0.1)">
       <use xlink:href="#DejaVuSans-30"/>
      </g>
     </g>
    </g>
    <g id="ytick_6">
     <g id="line2d_15">
      <g>
       <use xlink:href="#mdb752ff484" x="103.104" y="141.264" style="stroke: #000000; stroke-width: 0.8"/>
      </g>
     </g>
     <g id="text_15">
      <!-- 10 -->
      <g transform="translate(83.379 145.063219) scale(0.1 -0.1)">
       <use xlink:href="#DejaVuSans-31"/>
       <use xlink:href="#DejaVuSans-30" x="63.623047"/>
      </g>
     </g>
    </g>
    <g id="ytick_7">
     <g id="line2d_16">
      <g>
       <use xlink:href="#mdb752ff484" x="103.104" y="108" style="stroke: #000000; stroke-width: 0.8"/>
      </g>
     </g>
     <g id="text_16">
      <!-- 20 -->
      <g transform="translate(83.379 111.799219) scale(0.1 -0.1)">
       <use xlink:href="#DejaVuSans-32"/>
       <use xlink:href="#DejaVuSans-30" x="63.623047"/>
      </g>
     </g>
    </g>
    <g id="ytick_8">
     <g id="line2d_17">
      <g>
       <use xlink:href="#mdb752ff484" x="103.104" y="74.736" style="stroke: #000000; stroke-width: 0.8"/>
      </g>
     </g>
     <g id="text_17">
      <!-- 30 -->
      <g transform="translate(83.379 78.535219) scale(0.1 -0.1)">
       <use xlink:href="#DejaVuSans-33"/>
       <use xlink:href="#DejaVuSans-30" x="63.623047"/>
      </g>
     </g>
    </g>
    <g id="ytick_9">
     <g id="line2d_18">
      <g>
       <use xlink:href="#mdb752ff484" x="103.104" y="41.472" style="stroke: #000000; stroke-width: 0.8"/>
      </g>
     </g>
     <g id="text_18">
      <!-- 40 -->
      <g transform="translate(83.379 45.271219) scale(0.1 -0.1)">
       <use xlink:href="#DejaVuSans-34"/>
       <use xlink:href="#DejaVuSans-30" x="63.623047"/>
      </g>
     </g>
    </g>
   </g>
   <g id="line2d_19">
    <path d="M 250.2972 288.4572 
L 250.2972 188.6652 
" clip-path="url(#p296ae41ea9)" style="fill: none; stroke: #000000; stroke-width: 0.25; stroke-linecap: square"/>
   </g>
   <g id="line2d_20">
    <path d="M 250.2972 188.6652 
L 350.0892 188.6652 
" clip-path="url(#p296ae41ea9)" style="fill: none; stroke: #000000; stroke-width: 0.25; stroke-linecap: square"/>
   </g>
   <g id="line2d_21">
    <path d="M 350.0892 160.3908 
L 250.2972 160.3908 
" clip-path="url(#p296ae41ea9)" style="fill: none; stroke: #000000; stroke-width: 0.25; stroke-linecap: square"/>
   </g>
   <g id="line2d_22">
    <path d="M 250.2972 160.3908 
L 250.2972 60.5988 
" clip-path="url(#p296ae41ea9)" style="fill: none; stroke: #000000; stroke-width: 0.25; stroke-linecap: square"/>
   </g>
   <g id="line2d_23">
    <path d="M 222.0228 60.5988 
L 222.0228 160.3908 
" clip-path="url(#p296ae41ea9)" style="fill: none; stroke: #000000; stroke-width: 0.25; stroke-linecap: square"/>
   </g>
   <g id="line2d_24">
    <path d="M 222.0228 160.3908 
L 122.2308 160.3908 
" clip-path="url(#p296ae41ea9)" style="fill: none; stroke: #000000; stroke-width: 0.25; stroke-linecap: square"/>
   </g>
   <g id="line2d_25">
    <path d="M 122.2308 188.6652 
L 222.0228 188.6652 
" clip-path="url(#p296ae41ea9)" style="fill: none; stroke: #000000; stroke-width: 0.25; stroke-linecap: square"/>
   </g>
   <g id="line2d_26">
    <path d="M 222.0228 188.6652 
L 222.0228 288.4572 
" clip-path="url(#p296ae41ea9)" style="fill: none; stroke: #000000; stroke-width: 0.25; stroke-linecap: square"/>
   </g>
   <g id="line2d_27">
    <path d="M 250.2972 174.528 
L 350.0892 174.528 
" clip-path="url(#p296ae41ea9)" style="fill: none; stroke-dasharray: 0.925,0.4; stroke-dashoffset: 0; stroke: #000000; stroke-width: 0.25"/>
   </g>
   <g id="line2d_28">
    <path d="M 236.16 160.3908 
L 236.16 60.5988 
" clip-path="url(#p296ae41ea9)" style="fill: none; stroke-dasharray: 0.925,0.4; stroke-dashoffset: 0; stroke: #000000; stroke-width: 0.25"/>
   </g>
   <g id="line2d_29">
    <path d="M 222.0228 174.528 
L 122.2308 174.528 
" clip-path="url(#p296ae41ea9)" style="fill: none; stroke-dasharray: 0.925,0.4; stroke-dashoffset: 0; stroke: #000000; stroke-width: 0.25"/>
   </g>
   <g id="line2d_30">
    <path d="M 236.16 188.6652 
L 236.16 288.4572 
" clip-path="url(#p296ae41ea9)" style="fill: none; stroke-dasharray: 0.925,0.4; stroke-dashoffset: 0; stroke: #000000; stroke-width: 0.25"/>
   </g>
   <g id="line2d_31">
    <path d="M 242.026547 220.300605 
L 242.042455 218.671088 
L 242.060868 217.042953 
L 242.084668 215.416268 
L 242.114534 213.791085 
L 242.151134 212.167465 
L 242.19509 210.545478 
L 242.246938 208.925196 
L 242.307078 207.306697 
L 242.375708 205.690055 
L 242.452752 204.075332 
L 242.537765 202.46257 
L 242.629832 200.851777 
L 242.727441 199.242908 
L 242.82835 197.635856 
L 242.92943 196.03044 
L 243.026489 194.426409 
L 243.114039 192.823468 
L 243.185165 191.221351 
L 243.231296 189.619949 
L 243.241937 188.019535 
L 243.20471 186.421117 
L 243.105868 184.826926 
L 242.930601 183.240953 
L 242.662592 181.669684 
L 242.283523 180.123232 
L 241.766468 178.619197 
L 241.004747 177.225203 
L 240.124844 175.904683 
L 239.170577 174.638421 
L 238.1778 173.402808 
" clip-path="url(#p296ae41ea9)" style="fill: none; stroke: #ff0000; stroke-opacity: 0.2; stroke-width: 0.25; stroke-linecap: square"/>
   </g>
   <g id="line2d_32">
    <path d="M 242.026547 220.300605 
L 242.041132 218.671075 
L 242.056873 217.0407 
L 242.076817 215.409498 
L 242.101431 213.777471 
L 242.131159 212.144627 
L 242.166388 210.510973 
L 242.207425 208.876522 
L 242.254444 207.241285 
L 242.307448 205.605272 
L 242.366204 203.968485 
L 242.430177 202.330913 
L 242.498459 200.692526 
L 242.569665 199.053271 
L 242.641845 197.413064 
L 242.712376 195.771791 
L 242.77785 194.129322 
L 242.833949 192.48553 
L 242.875313 190.840342 
L 242.895391 189.19382 
L 242.886269 187.546293 
L 242.838718 185.898555 
L 242.743088 184.252111 
L 242.589464 182.609377 
L 242.367201 180.973984 
L 242.06426 179.351259 
L 241.647103 177.753978 
L 241.060947 176.210878 
L 240.324106 174.734267 
L 239.503785 173.302916 
L 238.593665 171.927234 
" clip-path="url(#p296ae41ea9)" style="fill: none; stroke: #ff0000; stroke-opacity: 0.4; stroke-width: 0.25; stroke-linecap: square"/>
   </g>
   <g id="line2d_33">
    <path d="M 242.026547 220.300605 
L 242.04363 218.6711 
L 242.061796 217.041946 
L 242.08493 215.413204 
L 242.113617 213.784904 
L 242.14842 212.157087 
L 242.189849 210.529796 
L 242.23832 208.903078 
L 242.294109 207.276981 
L 242.357289 205.651551 
L 242.427657 204.026821 
L 242.504651 202.402803 
L 242.587253 200.779484 
L 242.67387 199.156804 
L 242.76221 197.534656 
L 242.849141 195.912881 
L 242.930533 194.291275 
L 243.001059 192.669626 
L 243.054069 191.047784 
L 243.08138 189.425786 
L 243.073045 187.804067 
L 243.017442 186.183774 
L 242.90185 184.567183 
L 242.712807 182.958124 
L 242.435736 181.362562 
L 242.054503 179.789464 
L 241.535358 178.257348 
L 240.823398 176.806009 
L 239.937041 175.455525 
L 238.984067 174.152349 
L 237.983816 172.885637 
" clip-path="url(#p296ae41ea9)" style="fill: none; stroke: #ff0000; stroke-opacity: 0.6; stroke-width: 0.25; stroke-linecap: square"/>
   </g>
   <g id="line2d_34">
    <path d="M 242.026547 220.300605 
L 242.041416 218.671078 
L 242.057033 217.040375 
L 242.076736 215.408529 
L 242.100979 213.775552 
L 242.130188 212.14146 
L 242.164739 210.506273 
L 242.204918 208.870012 
L 242.250887 207.232699 
L 242.302632 205.594352 
L 242.359907 203.954984 
L 242.422161 202.314595 
L 242.488455 200.673166 
L 242.557381 199.030657 
L 242.626957 197.386997 
L 242.694522 195.742092 
L 242.75662 194.09583 
L 242.808868 192.448113 
L 242.845826 190.798902 
L 242.860843 189.148304 
L 242.845884 187.496711 
L 242.791717 185.845001 
L 242.688536 184.194783 
L 242.526274 182.548613 
L 242.294177 180.910295 
L 241.98021 179.285363 
L 241.549303 177.687407 
L 240.957722 176.14198 
L 240.210591 174.666017 
L 239.387711 173.231535 
L 238.465387 171.859226 
" clip-path="url(#p296ae41ea9)" style="fill: none; stroke: #ff0000; stroke-opacity: 0.8; stroke-width: 0.25; stroke-linecap: square"/>
   </g>
   <g id="line2d_35">
    <path d="M 242.026547 220.300605 
L 242.044168 218.671105 
L 242.062747 217.041574 
L 242.086427 215.41208 
L 242.115818 213.782664 
L 242.151511 212.153374 
L 242.194044 210.524262 
L 242.243862 208.895386 
L 242.301267 207.266805 
L 242.366351 205.638572 
L 242.438931 204.010733 
L 242.51845 202.383311 
L 242.60388 200.7563 
L 242.693605 199.129648 
L 242.785286 197.503252 
L 242.875715 195.876954 
L 242.960653 194.250548 
L 243.034605 192.623815 
L 243.090718 190.996601 
L 243.120543 189.368949 
L 243.113798 187.741317 
L 243.058491 186.114917 
L 242.94138 184.492159 
L 242.748363 182.877124 
L 242.464086 181.276207 
L 242.071494 179.699093 
L 241.534413 178.166105 
L 240.799587 176.718696 
L 239.899047 175.36956 
L 238.929587 174.07025 
L 237.906923 172.812972 
" clip-path="url(#p296ae41ea9)" style="fill: none; stroke: #ff0000; stroke-width: 0.25; stroke-linecap: square"/>
   </g>
   <g id="line2d_36">
    <path d="M 282.055653 168.708563 
L 280.555702 168.754549 
L 279.062785 168.79507 
L 277.577016 168.837366 
L 276.098278 168.880484 
L 274.626447 168.923357 
L 273.161392 168.964754 
L 271.702977 169.003233 
L 270.251062 169.037094 
L 268.805514 169.064331 
L 267.366213 169.082589 
L 265.933072 169.089114 
L 264.506062 169.080718 
L 263.085253 169.053737 
L 261.67086 169.003999 
L 260.263317 168.9268 
L 258.86336 168.816885 
L 257.472147 168.668456 
L 256.091387 168.475189 
L 254.723501 168.230299 
L 253.371805 167.926656 
L 252.040681 167.556987 
L 250.735717 167.114218 
L 249.461285 166.597992 
L 248.222462 166.007288 
L 247.021829 165.346782 
L 245.857898 164.626735 
L 244.819729 163.736761 
L 243.848586 162.775332 
L 242.869335 161.822933 
L 241.836164 160.929676 
" clip-path="url(#p296ae41ea9)" style="fill: none; stroke: #ff0000; stroke-opacity: 0.2; stroke-width: 0.25; stroke-linecap: square"/>
   </g>
   <g id="line2d_37">
    <path d="M 282.055653 168.708563 
L 280.555657 168.75305 
L 279.061199 168.792497 
L 277.572409 168.834236 
L 276.089194 168.877497 
L 274.611454 168.921407 
L 273.139081 168.964937 
L 271.67196 169.006859 
L 270.20997 169.045704 
L 268.752985 169.079708 
L 267.300885 169.10677 
L 265.853568 169.1244 
L 264.410966 169.129676 
L 262.973081 169.119196 
L 261.540026 169.089033 
L 260.112082 169.034688 
L 258.689782 168.95106 
L 257.274014 168.832402 
L 255.866163 168.672314 
L 254.468275 168.46374 
L 253.083273 168.199022 
L 251.715189 167.870027 
L 250.369405 167.468412 
L 249.050255 166.993186 
L 247.763252 166.44167 
L 246.512049 165.816746 
L 245.296853 165.127021 
L 244.138046 164.348023 
L 243.012258 163.523256 
L 241.891989 162.691827 
L 240.7648 161.870227 
" clip-path="url(#p296ae41ea9)" style="fill: none; stroke: #ff0000; stroke-opacity: 0.4; stroke-width: 0.25; stroke-linecap: square"/>
   </g>
   <g id="line2d_38">
    <path d="M 282.055653 168.708563 
L 280.555761 168.756412 
L 279.062599 168.798139 
L 277.576312 168.841681 
L 276.096781 168.886056 
L 274.62388 168.930161 
L 273.157477 168.972725 
L 271.697435 169.012258 
L 270.243612 169.047006 
L 268.795876 169.074896 
L 267.354108 169.093497 
L 265.918226 169.099965 
L 264.488214 169.091007 
L 263.064157 169.062835 
L 261.646302 169.011135 
L 260.235129 168.931031 
L 258.831447 168.817067 
L 257.436518 168.663195 
L 256.052211 168.462789 
L 254.681181 168.20868 
L 253.32709 167.893245 
L 251.994841 167.508583 
L 250.69079 167.046822 
L 249.419986 166.507416 
L 248.188445 165.88893 
L 246.999501 165.196031 
L 245.851836 164.439614 
L 244.74556 163.625873 
L 243.727886 162.704924 
L 242.71599 161.778351 
L 241.657461 160.90578 
" clip-path="url(#p296ae41ea9)" style="fill: none; stroke: #ff0000; stroke-opacity: 0.6; stroke-width: 0.25; stroke-linecap: square"/>
   </g>
   <g id="line2d_39">
    <path d="M 282.055653 168.708563 
L 280.555664 168.753282 
L 279.0612 168.792946 
L 277.572394 168.834944 
L 276.089156 168.87851 
L 274.611387 168.922766 
L 273.138981 168.966682 
L 271.671824 169.009026 
L 270.209795 169.04832 
L 268.75277 169.082788 
L 267.30063 169.110312 
L 265.85327 169.12838 
L 264.410628 169.134039 
L 262.972706 169.123846 
L 261.539621 169.093825 
L 260.111662 169.039416 
L 258.689377 168.955435 
L 257.273681 168.836043 
L 255.865995 168.674713 
L 254.468434 168.464239 
L 253.084025 168.196762 
L 251.716964 167.863893 
L 250.372895 167.456943 
L 249.056332 166.974989 
L 247.773069 166.415243 
L 246.526938 165.780718 
L 245.318044 165.080505 
L 244.143443 164.326099 
L 243.007485 163.515971 
L 241.881515 162.69287 
L 240.750285 161.877449 
" clip-path="url(#p296ae41ea9)" style="fill: none; stroke: #ff0000; stroke-opacity: 0.8; stroke-width: 0.25; stroke-linecap: square"/>
   </g>
   <g id="line2d_40">
    <path d="M 282.055653 168.708563 
L 280.555769 168.756683 
L 279.062548 168.799301 
L 277.576122 168.843828 
L 276.096368 168.889238 
L 274.623161 168.934395 
L 273.156366 168.977999 
L 271.695844 169.018541 
L 270.241454 169.054254 
L 268.79306 169.083064 
L 267.350544 169.102542 
L 265.913825 169.109856 
L 264.482883 169.101729 
L 263.057805 169.074388 
L 261.638833 169.023529 
L 260.226447 168.944275 
L 258.821454 168.831149 
L 257.425121 168.678053 
L 256.039329 168.478267 
L 254.666773 168.224468 
L 253.311191 167.908808 
L 251.977634 167.523068 
L 250.672725 167.058943 
L 249.401755 166.515754 
L 248.171212 165.89161 
L 246.984988 165.190777 
L 245.842288 164.423886 
L 244.737314 163.605606 
L 243.716218 162.686027 
L 242.704641 161.756743 
L 241.64799 160.87942 
" clip-path="url(#p296ae41ea9)" style="fill: none; stroke: #ff0000; stroke-width: 0.25; stroke-linecap: square"/>
   </g>
   <g id="line2d_41">
    <path d="M 230.315957 128.734517 
L 230.330844 130.337091 
L 230.344172 131.935072 
L 230.358733 133.528497 
L 230.37434 135.117426 
L 230.390754 136.701924 
L 230.407672 138.282056 
L 230.424699 139.857892 
L 230.441331 141.429507 
L 230.456927 142.996981 
L 230.470692 144.560398 
L 230.481646 146.119849 
L 230.488607 147.67543 
L 230.490164 149.227236 
L 230.484654 150.775359 
L 230.470152 152.319879 
L 230.44445 153.860852 
L 230.405055 155.398298 
L 230.349195 156.932177 
L 230.273833 158.462367 
L 230.175702 159.988639 
L 230.051814 161.510662 
L 229.89884 163.027931 
L 229.713502 164.53976 
L 229.492734 166.045296 
L 229.233909 167.54355 
L 228.935111 169.033481 
L 228.595516 170.514151 
L 228.239952 171.990973 
L 227.932866 173.478829 
L 227.765612 174.989044 
" clip-path="url(#p296ae41ea9)" style="fill: none; stroke: #ff0000; stroke-opacity: 0.2; stroke-width: 0.25; stroke-linecap: square"/>
   </g>
   <g id="line2d_42">
    <path d="M 230.315957 128.734517 
L 230.331723 130.337082 
L 230.345568 131.935833 
L 230.360278 133.530798 
L 230.375548 135.122036 
L 230.391017 136.709607 
L 230.40625 138.293573 
L 230.42071 139.874 
L 230.433744 141.450955 
L 230.444554 143.024509 
L 230.452178 144.594737 
L 230.455467 146.161712 
L 230.453064 147.725506 
L 230.44339 149.286181 
L 230.424623 150.843787 
L 230.394695 152.398347 
L 230.351286 153.949844 
L 230.291832 155.498206 
L 230.213547 157.043287 
L 230.113458 158.584842 
L 229.988466 160.122509 
L 229.835927 161.655837 
L 229.652997 163.184214 
L 229.437086 164.706894 
L 229.18606 166.223043 
L 228.898499 167.731813 
L 228.574027 169.232479 
L 228.213704 170.72464 
L 227.844375 172.214608 
L 227.536694 173.718748 
L 227.381816 175.246439 
" clip-path="url(#p296ae41ea9)" style="fill: none; stroke: #ff0000; stroke-opacity: 0.4; stroke-width: 0.25; stroke-linecap: square"/>
   </g>
   <g id="line2d_43">
    <path d="M 230.315957 128.734517 
L 230.330741 130.337092 
L 230.344201 131.935797 
L 230.358985 133.530663 
L 230.374917 135.121744 
L 230.391773 136.709097 
L 230.409259 138.292782 
L 230.426989 139.872861 
L 230.444461 141.449402 
L 230.461034 143.022475 
L 230.475904 144.59216 
L 230.488071 146.158539 
L 230.496319 147.721698 
L 230.499188 149.281722 
L 230.494951 150.838693 
L 230.481591 152.392675 
L 230.456793 153.943707 
L 230.417933 155.491784 
L 230.362082 157.036834 
L 230.286033 158.578692 
L 230.186336 160.117072 
L 230.05997 161.651582 
L 229.90346 163.181632 
L 229.713402 164.706438 
L 229.486643 166.225033 
L 229.220531 167.736307 
L 228.913225 169.239109 
L 228.564072 170.732408 
L 228.204159 172.223138 
L 227.903308 173.727109 
L 227.74414 175.252803 
" clip-path="url(#p296ae41ea9)" style="fill: none; stroke: #ff0000; stroke-opacity: 0.6; stroke-width: 0.25; stroke-linecap: square"/>
   </g>
   <g id="line2d_44">
    <path d="M 230.315957 128.734517 
L 230.33194 130.33708 
L 230.345978 131.936071 
L 230.360883 133.53152 
L 230.376336 135.123487 
L 230.391961 136.712034 
L 230.407304 138.297224 
L 230.42181 139.879124 
L 230.4348 141.457803 
L 230.445449 143.033334 
L 230.452761 144.60579 
L 230.455548 146.175246 
L 230.452409 147.74177 
L 230.441711 149.305423 
L 230.421578 150.866248 
L 230.389878 152.424257 
L 230.344223 153.979423 
L 230.28198 155.531655 
L 230.200292 157.080781 
L 230.096122 158.626525 
L 229.966315 160.168486 
L 229.808204 161.706171 
L 229.618948 163.238922 
L 229.395998 164.765948 
L 229.137312 166.286374 
L 228.841639 167.799338 
L 228.508856 169.304129 
L 228.140378 170.800408 
L 227.76705 172.295601 
L 227.460349 173.80617 
L 227.315689 175.341012 
" clip-path="url(#p296ae41ea9)" style="fill: none; stroke: #ff0000; stroke-opacity: 0.8; stroke-width: 0.25; stroke-linecap: square"/>
   </g>
   <g id="line2d_45">
    <path d="M 230.315957 128.734517 
L 230.330694 130.337092 
L 230.344058 131.936115 
L 230.358669 133.531612 
L 230.374334 135.123635 
L 230.390813 136.712239 
L 230.407792 138.297478 
L 230.424869 139.879413 
L 230.441522 141.458106 
L 230.457091 143.033626 
L 230.47075 144.606046 
L 230.481483 146.175442 
L 230.488055 147.741893 
L 230.488989 149.305476 
L 230.482546 150.866262 
L 230.466704 152.424302 
L 230.439147 153.979621 
L 230.397259 155.532196 
L 230.338135 157.081934 
L 230.258607 158.62865 
L 230.155286 160.172035 
L 230.025256 161.711683 
L 229.865168 163.246993 
L 229.671776 164.777182 
L 229.442133 166.3013 
L 229.173835 167.818283 
L 228.865346 169.327053 
L 228.516361 170.826694 
L 228.156342 172.323733 
L 227.856347 173.834154 
L 227.70396 175.366719 
" clip-path="url(#p296ae41ea9)" style="fill: none; stroke: #ff0000; stroke-width: 0.25; stroke-linecap: square"/>
   </g>
   <g id="line2d_46">
    <path d="M 190.366231 180.351292 
L 191.970112 180.32449 
L 193.571034 180.297832 
L 195.169135 180.269927 
L 196.764589 180.241488 
L 198.357571 180.21336 
L 199.948264 180.186566 
L 201.53685 180.162349 
L 203.123512 180.142219 
L 204.708425 180.127996 
L 206.29175 180.121855 
L 207.873618 180.126358 
L 209.454107 180.144422 
L 211.033215 180.179472 
L 212.610819 180.235418 
L 214.186621 180.316659 
L 215.760085 180.428074 
L 217.330358 180.574983 
L 218.896187 180.763073 
L 220.455833 180.998268 
L 222.006999 181.286529 
L 223.547118 181.632168 
L 225.073038 182.039624 
L 226.581361 182.512074 
L 228.068858 183.050718 
L 229.533141 183.653945 
L 230.996778 184.263548 
L 232.515053 184.726865 
L 234.089482 184.941773 
L 235.6765 184.842113 
L 237.249562 184.606405 
" clip-path="url(#p296ae41ea9)" style="fill: none; stroke: #ff0000; stroke-opacity: 0.2; stroke-width: 0.25; stroke-linecap: square"/>
   </g>
   <g id="line2d_47">
    <path d="M 190.366231 180.351292 
L 191.969963 180.316733 
L 193.570725 180.283259 
L 195.168588 180.247245 
L 196.763719 180.20936 
L 198.356286 180.170407 
L 199.946468 180.131369 
L 201.534449 180.093465 
L 203.120421 180.058205 
L 204.704577 180.027454 
L 206.287105 180.003536 
L 207.868171 179.989201 
L 209.447896 179.987687 
L 211.026324 180.002821 
L 212.60337 180.039036 
L 214.178751 180.101399 
L 215.751906 180.195628 
L 217.321875 180.328069 
L 218.887177 180.505645 
L 220.445658 180.73574 
L 221.994348 181.026002 
L 223.529679 181.382599 
L 225.047055 181.812126 
L 226.541106 182.32011 
L 228.006046 182.910258 
L 229.436348 183.583595 
L 230.843177 184.308506 
L 232.293651 184.946299 
L 233.818591 185.383075 
L 235.402738 185.486781 
L 236.988458 185.398888 
" clip-path="url(#p296ae41ea9)" style="fill: none; stroke: #ff0000; stroke-opacity: 0.4; stroke-width: 0.25; stroke-linecap: square"/>
   </g>
   <g id="line2d_48">
    <path d="M 190.366231 180.351292 
L 191.970051 180.321067 
L 193.571084 180.293579 
L 195.169414 180.264791 
L 196.765205 180.235396 
L 198.358631 180.206225 
L 199.949864 180.178289 
L 201.539083 180.15283 
L 203.126466 180.131365 
L 204.712183 180.115733 
L 206.296391 180.108156 
L 207.879216 180.111242 
L 209.460731 180.128006 
L 211.040926 180.161967 
L 212.619664 180.217144 
L 214.196626 180.298063 
L 215.771244 180.409737 
L 217.342619 180.55763 
L 218.909436 180.747569 
L 220.46987 180.9856 
L 222.021525 181.277765 
L 223.561755 181.628276 
L 225.08733 182.041471 
L 226.594818 182.520298 
L 228.081035 183.065584 
L 229.543766 183.6752 
L 231.007361 184.287339 
L 232.527062 184.748898 
L 234.104711 184.945002 
L 235.69226 184.842526 
L 237.265118 184.600709 
" clip-path="url(#p296ae41ea9)" style="fill: none; stroke: #ff0000; stroke-opacity: 0.6; stroke-width: 0.25; stroke-linecap: square"/>
   </g>
   <g id="line2d_49">
    <path d="M 190.366231 180.351292 
L 191.969949 180.31605 
L 193.571044 180.283572 
L 195.169579 180.248982 
L 196.765731 180.213007 
L 198.359682 180.176514 
L 199.951623 180.140561 
L 201.541748 180.106448 
L 203.130257 180.075766 
L 204.717344 180.050461 
L 206.303196 180.032903 
L 207.887965 180.025907 
L 209.471756 180.032762 
L 211.054578 180.057314 
L 212.636306 180.103986 
L 214.216602 180.177791 
L 215.794842 180.284338 
L 217.370004 180.429791 
L 218.940553 180.620797 
L 220.504318 180.864348 
L 222.058376 181.167554 
L 223.599345 181.535807 
L 225.122981 181.974772 
L 226.624524 182.488825 
L 228.099132 183.080325 
L 229.542606 183.748804 
L 230.977502 184.440412 
L 232.464964 185.016301 
L 234.023565 185.364266 
L 235.621877 185.361241 
L 237.213981 185.213572 
" clip-path="url(#p296ae41ea9)" style="fill: none; stroke: #ff0000; stroke-opacity: 0.8; stroke-width: 0.25; stroke-linecap: square"/>
   </g>
   <g id="line2d_50">
    <path d="M 190.366231 180.351292 
L 191.970024 180.31966 
L 193.571172 180.291587 
L 195.169745 180.262194 
L 196.765913 180.232186 
L 198.359852 180.20241 
L 199.951742 180.1739 
L 201.541765 180.147924 
L 203.130104 180.126028 
L 204.716934 180.110089 
L 206.302415 180.102363 
L 207.886675 180.105514 
L 209.469786 180.122635 
L 211.051734 180.157322 
L 212.632371 180.213674 
L 214.211361 180.296302 
L 215.788109 180.410307 
L 217.361678 180.561234 
L 218.930699 180.754975 
L 220.49329 180.997613 
L 222.046988 181.295178 
L 223.589107 181.65175 
L 225.116391 182.071507 
L 226.625432 182.557145 
L 228.113143 183.109152 
L 229.577483 183.725018 
L 231.04754 184.332194 
L 232.574484 184.784252 
L 234.15834 184.96484 
L 235.74984 184.855291 
L 237.326227 184.607253 
" clip-path="url(#p296ae41ea9)" style="fill: none; stroke: #ff0000; stroke-width: 0.25; stroke-linecap: square"/>
   </g>
   <g id="line2d_51">
    <path d="M 242.01582 260.23824 
L 242.01582 258.63048 
L 242.01582 257.02272 
L 242.01582 255.41496 
L 242.01582 253.8072 
L 242.01582 252.19944 
L 242.01582 250.59168 
L 242.01582 248.98392 
L 242.01582 247.37616 
L 242.01582 245.7684 
L 242.01582 244.16064 
L 242.01582 242.55288 
L 242.01582 240.94512 
L 242.01582 239.33736 
L 242.01582 237.7296 
L 242.01582 236.12184 
L 242.01582 234.51408 
L 242.01582 232.90632 
L 242.01582 231.29856 
L 242.01582 229.6908 
L 242.01582 228.08304 
L 242.01582 226.47528 
L 242.01582 224.86752 
L 242.01582 223.25976 
L 242.01582 221.652 
L 242.01582 220.04424 
L 242.01582 218.43648 
L 242.01582 216.82872 
L 242.01582 215.22096 
L 242.01582 213.6132 
L 242.01582 212.00544 
" clip-path="url(#p296ae41ea9)" style="fill: none; stroke: #ff0000; stroke-opacity: 0.2; stroke-width: 0.25; stroke-linecap: square"/>
   </g>
   <g id="line2d_52">
    <path d="M 242.01582 260.23824 
L 242.01582 258.63048 
L 242.01582 257.02272 
L 242.01582 255.41496 
L 242.01582 253.8072 
L 242.01582 252.19944 
L 242.01582 250.59168 
L 242.01582 248.98392 
L 242.01582 247.37616 
L 242.01582 245.7684 
L 242.01582 244.16064 
L 242.01582 242.55288 
L 242.01582 240.94512 
L 242.01582 239.33736 
L 242.01582 237.7296 
L 242.01582 236.12184 
L 242.01582 234.51408 
L 242.01582 232.90632 
L 242.01582 231.29856 
L 242.01582 229.6908 
L 242.01582 228.08304 
L 242.01582 226.47528 
L 242.01582 224.86752 
L 242.01582 223.25976 
L 242.01582 221.652 
L 242.01582 220.04424 
L 242.01582 218.43648 
L 242.01582 216.82872 
L 242.01582 215.22096 
L 242.01582 213.6132 
L 242.01582 212.00544 
" clip-path="url(#p296ae41ea9)" style="fill: none; stroke: #ff0000; stroke-opacity: 0.4; stroke-width: 0.25; stroke-linecap: square"/>
   </g>
   <g id="line2d_53">
    <path d="M 242.01582 260.23824 
L 242.01582 258.63048 
L 242.01582 257.02272 
L 242.01582 255.41496 
L 242.01582 253.8072 
L 242.01582 252.19944 
L 242.01582 250.59168 
L 242.01582 248.98392 
L 242.01582 247.37616 
L 242.01582 245.7684 
L 242.01582 244.16064 
L 242.01582 242.55288 
L 242.01582 240.94512 
L 242.01582 239.33736 
L 242.01582 237.7296 
L 242.01582 236.12184 
L 242.01582 234.51408 
L 242.01582 232.90632 
L 242.01582 231.29856 
L 242.01582 229.6908 
L 242.01582 228.08304 
L 242.01582 226.47528 
L 242.01582 224.86752 
L 242.01582 223.25976 
L 242.01582 221.652 
L 242.01582 220.04424 
L 242.01582 218.43648 
L 242.01582 216.82872 
L 242.01582 215.22096 
L 242.01582 213.6132 
L 242.01582 212.00544 
" clip-path="url(#p296ae41ea9)" style="fill: none; stroke: #ff0000; stroke-opacity: 0.6; stroke-width: 0.25; stroke-linecap: square"/>
   </g>
   <g id="line2d_54">
    <path d="M 242.01582 260.23824 
L 242.01582 258.63048 
L 242.01582 257.02272 
L 242.01582 255.41496 
L 242.01582 253.8072 
L 242.01582 252.19944 
L 242.01582 250.59168 
L 242.01582 248.98392 
L 242.01582 247.37616 
L 242.01582 245.7684 
L 242.01582 244.16064 
L 242.01582 242.55288 
L 242.01582 240.94512 
L 242.01582 239.33736 
L 242.01582 237.7296 
L 242.01582 236.12184 
L 242.01582 234.51408 
L 242.01582 232.90632 
L 242.01582 231.29856 
L 242.01582 229.6908 
L 242.01582 228.08304 
L 242.01582 226.47528 
L 242.01582 224.86752 
L 242.01582 223.25976 
L 242.01582 221.652 
L 242.01582 220.04424 
L 242.01582 218.43648 
L 242.01582 216.82872 
L 242.01582 215.22096 
L 242.01582 213.6132 
L 242.01582 212.00544 
" clip-path="url(#p296ae41ea9)" style="fill: none; stroke: #ff0000; stroke-opacity: 0.8; stroke-width: 0.25; stroke-linecap: square"/>
   </g>
   <g id="line2d_55">
    <path d="M 242.01582 260.23824 
L 242.01582 258.63048 
L 242.01582 257.02272 
L 242.01582 255.41496 
L 242.01582 253.8072 
L 242.01582 252.19944 
L 242.01582 250.59168 
L 242.01582 248.98392 
L 242.01582 247.37616 
L 242.01582 245.7684 
L 242.01582 244.16064 
L 242.01582 242.55288 
L 242.01582 240.94512 
L 242.01582 239.33736 
L 242.01582 237.7296 
L 242.01582 236.12184 
L 242.01582 234.51408 
L 242.01582 232.90632 
L 242.01582 231.29856 
L 242.01582 229.6908 
L 242.01582 228.08304 
L 242.01582 226.47528 
L 242.01582 224.86752 
L 242.01582 223.25976 
L 242.01582 221.652 
L 242.01582 220.04424 
L 242.01582 218.43648 
L 242.01582 216.82872 
L 242.01582 215.22096 
L 242.01582 213.6132 
L 242.01582 212.00544 
" clip-path="url(#p296ae41ea9)" style="fill: none; stroke: #ff0000; stroke-width: 0.25; stroke-linecap: square"/>
   </g>
   <g id="line2d_56">
    <path d="M 321.87024 168.67218 
L 320.26248 168.67218 
L 318.65472 168.67218 
L 317.04696 168.67218 
L 315.4392 168.67218 
L 313.83144 168.67218 
L 312.22368 168.67218 
L 310.61592 168.67218 
L 309.00816 168.67218 
L 307.4004 168.67218 
L 305.79264 168.67218 
L 304.18488 168.67218 
L 302.57712 168.67218 
L 300.96936 168.67218 
L 299.3616 168.67218 
L 297.75384 168.67218 
L 296.14608 168.67218 
L 294.53832 168.67218 
L 292.93056 168.67218 
L 291.3228 168.67218 
L 289.71504 168.67218 
L 288.10728 168.67218 
L 286.49952 168.67218 
L 284.89176 168.67218 
L 283.284 168.67218 
L 281.67624 168.67218 
L 280.06848 168.67218 
L 278.46072 168.67218 
L 276.85296 168.67218 
L 275.2452 168.67218 
L 273.63744 168.67218 
" clip-path="url(#p296ae41ea9)" style="fill: none; stroke: #ff0000; stroke-opacity: 0.2; stroke-width: 0.25; stroke-linecap: square"/>
   </g>
   <g id="line2d_57">
    <path d="M 321.87024 168.67218 
L 320.26248 168.67218 
L 318.65472 168.67218 
L 317.04696 168.67218 
L 315.4392 168.67218 
L 313.83144 168.67218 
L 312.22368 168.67218 
L 310.61592 168.67218 
L 309.00816 168.67218 
L 307.4004 168.67218 
L 305.79264 168.67218 
L 304.18488 168.67218 
L 302.57712 168.67218 
L 300.96936 168.67218 
L 299.3616 168.67218 
L 297.75384 168.67218 
L 296.14608 168.67218 
L 294.53832 168.67218 
L 292.93056 168.67218 
L 291.3228 168.67218 
L 289.71504 168.67218 
L 288.10728 168.67218 
L 286.49952 168.67218 
L 284.89176 168.67218 
L 283.284 168.67218 
L 281.67624 168.67218 
L 280.06848 168.67218 
L 278.46072 168.67218 
L 276.85296 168.67218 
L 275.2452 168.67218 
L 273.63744 168.67218 
" clip-path="url(#p296ae41ea9)" style="fill: none; stroke: #ff0000; stroke-opacity: 0.4; stroke-width: 0.25; stroke-linecap: square"/>
   </g>
   <g id="line2d_58">
    <path d="M 321.87024 168.67218 
L 320.26248 168.67218 
L 318.65472 168.67218 
L 317.04696 168.67218 
L 315.4392 168.67218 
L 313.83144 168.67218 
L 312.22368 168.67218 
L 310.61592 168.67218 
L 309.00816 168.67218 
L 307.4004 168.67218 
L 305.79264 168.67218 
L 304.18488 168.67218 
L 302.57712 168.67218 
L 300.96936 168.67218 
L 299.3616 168.67218 
L 297.75384 168.67218 
L 296.14608 168.67218 
L 294.53832 168.67218 
L 292.93056 168.67218 
L 291.3228 168.67218 
L 289.71504 168.67218 
L 288.10728 168.67218 
L 286.49952 168.67218 
L 284.89176 168.67218 
L 283.284 168.67218 
L 281.67624 168.67218 
L 280.06848 168.67218 
L 278.46072 168.67218 
L 276.85296 168.67218 
L 275.2452 168.67218 
L 273.63744 168.67218 
" clip-path="url(#p296ae41ea9)" style="fill: none; stroke: #ff0000; stroke-opacity: 0.6; stroke-width: 0.25; stroke-linecap: square"/>
   </g>
   <g id="line2d_59">
    <path d="M 321.87024 168.67218 
L 320.26248 168.67218 
L 318.65472 168.67218 
L 317.04696 168.67218 
L 315.4392 168.67218 
L 313.83144 168.67218 
L 312.22368 168.67218 
L 310.61592 168.67218 
L 309.00816 168.67218 
L 307.4004 168.67218 
L 305.79264 168.67218 
L 304.18488 168.67218 
L 302.57712 168.67218 
L 300.96936 168.67218 
L 299.3616 168.67218 
L 297.75384 168.67218 
L 296.14608 168.67218 
L 294.53832 168.67218 
L 292.93056 168.67218 
L 291.3228 168.67218 
L 289.71504 168.67218 
L 288.10728 168.67218 
L 286.49952 168.67218 
L 284.89176 168.67218 
L 283.284 168.67218 
L 281.67624 168.67218 
L 280.06848 168.67218 
L 278.46072 168.67218 
L 276.85296 168.67218 
L 275.2452 168.67218 
L 273.63744 168.67218 
" clip-path="url(#p296ae41ea9)" style="fill: none; stroke: #ff0000; stroke-opacity: 0.8; stroke-width: 0.25; stroke-linecap: square"/>
   </g>
   <g id="line2d_60">
    <path d="M 321.87024 168.67218 
L 320.26248 168.67218 
L 318.65472 168.67218 
L 317.04696 168.67218 
L 315.4392 168.67218 
L 313.83144 168.67218 
L 312.22368 168.67218 
L 310.61592 168.67218 
L 309.00816 168.67218 
L 307.4004 168.67218 
L 305.79264 168.67218 
L 304.18488 168.67218 
L 302.57712 168.67218 
L 300.96936 168.67218 
L 299.3616 168.67218 
L 297.75384 168.67218 
L 296.14608 168.67218 
L 294.53832 168.67218 
L 292.93056 168.67218 
L 291.3228 168.67218 
L 289.71504 168.67218 
L 288.10728 168.67218 
L 286.49952 168.67218 
L 284.89176 168.67218 
L 283.284 168.67218 
L 281.67624 168.67218 
L 280.06848 168.67218 
L 278.46072 168.67218 
L 276.85296 168.67218 
L 275.2452 168.67218 
L 273.63744 168.67218 
" clip-path="url(#p296ae41ea9)" style="fill: none; stroke: #ff0000; stroke-width: 0.25; stroke-linecap: square"/>
   </g>
   <g id="line2d_61">
    <path d="M 230.30418 88.83863 
L 230.30418 90.467261 
L 230.30418 92.095891 
L 230.30418 93.724522 
L 230.30418 95.353152 
L 230.30418 96.981782 
L 230.30418 98.610413 
L 230.30418 100.239043 
L 230.30418 101.867674 
L 230.30418 103.496304 
L 230.30418 105.124935 
L 230.30418 106.753565 
L 230.30418 108.382195 
L 230.30418 110.010826 
L 230.30418 111.639456 
L 230.30418 113.268087 
L 230.30418 114.896717 
L 230.30418 116.525347 
L 230.30418 118.153978 
L 230.30418 119.782608 
L 230.30418 121.411239 
L 230.30418 123.039869 
L 230.30418 124.6685 
L 230.30418 126.29713 
L 230.30418 127.92576 
L 230.30418 129.554391 
L 230.30418 131.183021 
L 230.30418 132.811652 
L 230.30418 134.440282 
L 230.30418 136.068912 
L 230.30418 137.697543 
" clip-path="url(#p296ae41ea9)" style="fill: none; stroke: #ff0000; stroke-opacity: 0.2; stroke-width: 0.25; stroke-linecap: square"/>
   </g>
   <g id="line2d_62">
    <path d="M 230.30418 88.83863 
L 230.30418 90.467261 
L 230.30418 92.095891 
L 230.30418 93.724522 
L 230.30418 95.353152 
L 230.30418 96.981782 
L 230.30418 98.610413 
L 230.30418 100.239043 
L 230.30418 101.867674 
L 230.30418 103.496304 
L 230.30418 105.124935 
L 230.30418 106.753565 
L 230.30418 108.382195 
L 230.30418 110.010826 
L 230.30418 111.639456 
L 230.30418 113.268087 
L 230.30418 114.896717 
L 230.30418 116.525347 
L 230.30418 118.153978 
L 230.30418 119.782608 
L 230.30418 121.411239 
L 230.30418 123.039869 
L 230.30418 124.6685 
L 230.30418 126.29713 
L 230.30418 127.92576 
L 230.30418 129.554391 
L 230.30418 131.183021 
L 230.30418 132.811652 
L 230.30418 134.440282 
L 230.30418 136.068912 
L 230.30418 137.697543 
" clip-path="url(#p296ae41ea9)" style="fill: none; stroke: #ff0000; stroke-opacity: 0.4; stroke-width: 0.25; stroke-linecap: square"/>
   </g>
   <g id="line2d_63">
    <path d="M 230.30418 88.83863 
L 230.30418 90.467261 
L 230.30418 92.095891 
L 230.30418 93.724522 
L 230.30418 95.353152 
L 230.30418 96.981782 
L 230.30418 98.610413 
L 230.30418 100.239043 
L 230.30418 101.867674 
L 230.30418 103.496304 
L 230.30418 105.124935 
L 230.30418 106.753565 
L 230.30418 108.382195 
L 230.30418 110.010826 
L 230.30418 111.639456 
L 230.30418 113.268087 
L 230.30418 114.896717 
L 230.30418 116.525347 
L 230.30418 118.153978 
L 230.30418 119.782608 
L 230.30418 121.411239 
L 230.30418 123.039869 
L 230.30418 124.6685 
L 230.30418 126.29713 
L 230.30418 127.92576 
L 230.30418 129.554391 
L 230.30418 131.183021 
L 230.30418 132.811652 
L 230.30418 134.440282 
L 230.30418 136.068912 
L 230.30418 137.697543 
" clip-path="url(#p296ae41ea9)" style="fill: none; stroke: #ff0000; stroke-opacity: 0.6; stroke-width: 0.25; stroke-linecap: square"/>
   </g>
   <g id="line2d_64">
    <path d="M 230.30418 88.83863 
L 230.30418 90.467261 
L 230.30418 92.095891 
L 230.30418 93.724522 
L 230.30418 95.353152 
L 230.30418 96.981782 
L 230.30418 98.610413 
L 230.30418 100.239043 
L 230.30418 101.867674 
L 230.30418 103.496304 
L 230.30418 105.124935 
L 230.30418 106.753565 
L 230.30418 108.382195 
L 230.30418 110.010826 
L 230.30418 111.639456 
L 230.30418 113.268087 
L 230.30418 114.896717 
L 230.30418 116.525347 
L 230.30418 118.153978 
L 230.30418 119.782608 
L 230.30418 121.411239 
L 230.30418 123.039869 
L 230.30418 124.6685 
L 230.30418 126.29713 
L 230.30418 127.92576 
L 230.30418 129.554391 
L 230.30418 131.183021 
L 230.30418 132.811652 
L 230.30418 134.440282 
L 230.30418 136.068912 
L 230.30418 137.697543 
" clip-path="url(#p296ae41ea9)" style="fill: none; stroke: #ff0000; stroke-opacity: 0.8; stroke-width: 0.25; stroke-linecap: square"/>
   </g>
   <g id="line2d_65">
    <path d="M 230.30418 88.83863 
L 230.30418 90.467261 
L 230.30418 92.095891 
L 230.30418 93.724522 
L 230.30418 95.353152 
L 230.30418 96.981782 
L 230.30418 98.610413 
L 230.30418 100.239043 
L 230.30418 101.867674 
L 230.30418 103.496304 
L 230.30418 105.124935 
L 230.30418 106.753565 
L 230.30418 108.382195 
L 230.30418 110.010826 
L 230.30418 111.639456 
L 230.30418 113.268087 
L 230.30418 114.896717 
L 230.30418 116.525347 
L 230.30418 118.153978 
L 230.30418 119.782608 
L 230.30418 121.411239 
L 230.30418 123.039869 
L 230.30418 124.6685 
L 230.30418 126.29713 
L 230.30418 127.92576 
L 230.30418 129.554391 
L 230.30418 131.183021 
L 230.30418 132.811652 
L 230.30418 134.440282 
L 230.30418 136.068912 
L 230.30418 137.697543 
" clip-path="url(#p296ae41ea9)" style="fill: none; stroke: #ff0000; stroke-width: 0.25; stroke-linecap: square"/>
   </g>
   <g id="line2d_66">
    <path d="M 150.204518 180.38382 
L 151.567037 180.38382 
L 152.929555 180.38382 
L 154.292074 180.38382 
L 155.654592 180.38382 
L 157.01711 180.38382 
L 158.379629 180.38382 
L 159.742147 180.38382 
L 161.104666 180.38382 
L 162.467184 180.38382 
L 163.829703 180.38382 
L 165.192221 180.38382 
L 166.554739 180.38382 
L 167.917258 180.38382 
L 169.279776 180.38382 
L 170.642295 180.38382 
L 172.004813 180.38382 
L 173.367331 180.38382 
L 174.72985 180.38382 
L 176.092368 180.38382 
L 177.454887 180.38382 
L 178.817405 180.38382 
L 180.179924 180.38382 
L 181.542442 180.38382 
L 182.90496 180.38382 
L 184.267479 180.38382 
L 185.629997 180.38382 
L 186.992516 180.38382 
L 188.355034 180.38382 
L 189.717552 180.38382 
L 191.080071 180.38382 
" clip-path="url(#p296ae41ea9)" style="fill: none; stroke: #ff0000; stroke-opacity: 0.2; stroke-width: 0.25; stroke-linecap: square"/>
   </g>
   <g id="line2d_67">
    <path d="M 150.204518 180.38382 
L 151.567037 180.38382 
L 152.929555 180.38382 
L 154.292074 180.38382 
L 155.654592 180.38382 
L 157.01711 180.38382 
L 158.379629 180.38382 
L 159.742147 180.38382 
L 161.104666 180.38382 
L 162.467184 180.38382 
L 163.829703 180.38382 
L 165.192221 180.38382 
L 166.554739 180.38382 
L 167.917258 180.38382 
L 169.279776 180.38382 
L 170.642295 180.38382 
L 172.004813 180.38382 
L 173.367331 180.38382 
L 174.72985 180.38382 
L 176.092368 180.38382 
L 177.454887 180.38382 
L 178.817405 180.38382 
L 180.179924 180.38382 
L 181.542442 180.38382 
L 182.90496 180.38382 
L 184.267479 180.38382 
L 185.629997 180.38382 
L 186.992516 180.38382 
L 188.355034 180.38382 
L 189.717552 180.38382 
L 191.080071 180.38382 
" clip-path="url(#p296ae41ea9)" style="fill: none; stroke: #ff0000; stroke-opacity: 0.4; stroke-width: 0.25; stroke-linecap: square"/>
   </g>
   <g id="line2d_68">
    <path d="M 150.204518 180.38382 
L 151.567037 180.38382 
L 152.929555 180.38382 
L 154.292074 180.38382 
L 155.654592 180.38382 
L 157.01711 180.38382 
L 158.379629 180.38382 
L 159.742147 180.38382 
L 161.104666 180.38382 
L 162.467184 180.38382 
L 163.829703 180.38382 
L 165.192221 180.38382 
L 166.554739 180.38382 
L 167.917258 180.38382 
L 169.279776 180.38382 
L 170.642295 180.38382 
L 172.004813 180.38382 
L 173.367331 180.38382 
L 174.72985 180.38382 
L 176.092368 180.38382 
L 177.454887 180.38382 
L 178.817405 180.38382 
L 180.179924 180.38382 
L 181.542442 180.38382 
L 182.90496 180.38382 
L 184.267479 180.38382 
L 185.629997 180.38382 
L 186.992516 180.38382 
L 188.355034 180.38382 
L 189.717552 180.38382 
L 191.080071 180.38382 
" clip-path="url(#p296ae41ea9)" style="fill: none; stroke: #ff0000; stroke-opacity: 0.6; stroke-width: 0.25; stroke-linecap: square"/>
   </g>
   <g id="line2d_69">
    <path d="M 150.204518 180.38382 
L 151.567037 180.38382 
L 152.929555 180.38382 
L 154.292074 180.38382 
L 155.654592 180.38382 
L 157.01711 180.38382 
L 158.379629 180.38382 
L 159.742147 180.38382 
L 161.104666 180.38382 
L 162.467184 180.38382 
L 163.829703 180.38382 
L 165.192221 180.38382 
L 166.554739 180.38382 
L 167.917258 180.38382 
L 169.279776 180.38382 
L 170.642295 180.38382 
L 172.004813 180.38382 
L 173.367331 180.38382 
L 174.72985 180.38382 
L 176.092368 180.38382 
L 177.454887 180.38382 
L 178.817405 180.38382 
L 180.179924 180.38382 
L 181.542442 180.38382 
L 182.90496 180.38382 
L 184.267479 180.38382 
L 185.629997 180.38382 
L 186.992516 180.38382 
L 188.355034 180.38382 
L 189.717552 180.38382 
L 191.080071 180.38382 
" clip-path="url(#p296ae41ea9)" style="fill: none; stroke: #ff0000; stroke-opacity: 0.8; stroke-width: 0.25; stroke-linecap: square"/>
   </g>
   <g id="line2d_70">
    <path d="M 150.204518 180.38382 
L 151.567037 180.38382 
L 152.929555 180.38382 
L 154.292074 180.38382 
L 155.654592 180.38382 
L 157.01711 180.38382 
L 158.379629 180.38382 
L 159.742147 180.38382 
L 161.104666 180.38382 
L 162.467184 180.38382 
L 163.829703 180.38382 
L 165.192221 180.38382 
L 166.554739 180.38382 
L 167.917258 180.38382 
L 169.279776 180.38382 
L 170.642295 180.38382 
L 172.004813 180.38382 
L 173.367331 180.38382 
L 174.72985 180.38382 
L 176.092368 180.38382 
L 177.454887 180.38382 
L 178.817405 180.38382 
L 180.179924 180.38382 
L 181.542442 180.38382 
L 182.90496 180.38382 
L 184.267479 180.38382 
L 185.629997 180.38382 
L 186.992516 180.38382 
L 188.355034 180.38382 
L 189.717552 180.38382 
L 191.080071 180.38382 
" clip-path="url(#p296ae41ea9)" style="fill: none; stroke: #ff0000; stroke-width: 0.25; stroke-linecap: square"/>
   </g>
   <g id="line2d_71">
    <path d="M 242.01582 300.256814 
L 242.01582 298.750827 
L 242.01582 297.244841 
L 242.01582 295.738854 
L 242.01582 294.232868 
L 242.01582 292.726882 
L 242.01582 291.220895 
L 242.01582 289.714909 
L 242.01582 288.208922 
L 242.01582 286.702936 
L 242.01582 285.19695 
L 242.01582 283.690963 
L 242.01582 282.184977 
L 242.01582 280.67899 
L 242.01582 279.173004 
L 242.01582 277.667017 
L 242.01582 276.161031 
L 242.01582 274.655045 
L 242.01582 273.149058 
L 242.01582 271.643072 
L 242.01582 270.137085 
L 242.01582 268.631099 
L 242.01582 267.125113 
L 242.01582 265.619126 
L 242.01582 264.11314 
L 242.01582 262.607153 
L 242.01582 261.101167 
L 242.01582 259.595181 
L 242.01582 258.089194 
L 242.01582 256.583208 
L 242.01582 255.077221 
" clip-path="url(#p296ae41ea9)" style="fill: none; stroke: #ff0000; stroke-opacity: 0.2; stroke-width: 0.25; stroke-linecap: square"/>
   </g>
   <g id="line2d_72">
    <path d="M 242.01582 300.256814 
L 242.01582 298.750827 
L 242.01582 297.244841 
L 242.01582 295.738854 
L 242.01582 294.232868 
L 242.01582 292.726882 
L 242.01582 291.220895 
L 242.01582 289.714909 
L 242.01582 288.208922 
L 242.01582 286.702936 
L 242.01582 285.19695 
L 242.01582 283.690963 
L 242.01582 282.184977 
L 242.01582 280.67899 
L 242.01582 279.173004 
L 242.01582 277.667017 
L 242.01582 276.161031 
L 242.01582 274.655045 
L 242.01582 273.149058 
L 242.01582 271.643072 
L 242.01582 270.137085 
L 242.01582 268.631099 
L 242.01582 267.125113 
L 242.01582 265.619126 
L 242.01582 264.11314 
L 242.01582 262.607153 
L 242.01582 261.101167 
L 242.01582 259.595181 
L 242.01582 258.089194 
L 242.01582 256.583208 
L 242.01582 255.077221 
" clip-path="url(#p296ae41ea9)" style="fill: none; stroke: #ff0000; stroke-opacity: 0.4; stroke-width: 0.25; stroke-linecap: square"/>
   </g>
   <g id="line2d_73">
    <path d="M 242.01582 300.256814 
L 242.01582 298.750827 
L 242.01582 297.244841 
L 242.01582 295.738854 
L 242.01582 294.232868 
L 242.01582 292.726882 
L 242.01582 291.220895 
L 242.01582 289.714909 
L 242.01582 288.208922 
L 242.01582 286.702936 
L 242.01582 285.19695 
L 242.01582 283.690963 
L 242.01582 282.184977 
L 242.01582 280.67899 
L 242.01582 279.173004 
L 242.01582 277.667017 
L 242.01582 276.161031 
L 242.01582 274.655045 
L 242.01582 273.149058 
L 242.01582 271.643072 
L 242.01582 270.137085 
L 242.01582 268.631099 
L 242.01582 267.125113 
L 242.01582 265.619126 
L 242.01582 264.11314 
L 242.01582 262.607153 
L 242.01582 261.101167 
L 242.01582 259.595181 
L 242.01582 258.089194 
L 242.01582 256.583208 
L 242.01582 255.077221 
" clip-path="url(#p296ae41ea9)" style="fill: none; stroke: #ff0000; stroke-opacity: 0.6; stroke-width: 0.25; stroke-linecap: square"/>
   </g>
   <g id="line2d_74">
    <path d="M 242.01582 300.256814 
L 242.01582 298.750827 
L 242.01582 297.244841 
L 242.01582 295.738854 
L 242.01582 294.232868 
L 242.01582 292.726882 
L 242.01582 291.220895 
L 242.01582 289.714909 
L 242.01582 288.208922 
L 242.01582 286.702936 
L 242.01582 285.19695 
L 242.01582 283.690963 
L 242.01582 282.184977 
L 242.01582 280.67899 
L 242.01582 279.173004 
L 242.01582 277.667017 
L 242.01582 276.161031 
L 242.01582 274.655045 
L 242.01582 273.149058 
L 242.01582 271.643072 
L 242.01582 270.137085 
L 242.01582 268.631099 
L 242.01582 267.125113 
L 242.01582 265.619126 
L 242.01582 264.11314 
L 242.01582 262.607153 
L 242.01582 261.101167 
L 242.01582 259.595181 
L 242.01582 258.089194 
L 242.01582 256.583208 
L 242.01582 255.077221 
" clip-path="url(#p296ae41ea9)" style="fill: none; stroke: #ff0000; stroke-opacity: 0.8; stroke-width: 0.25; stroke-linecap: square"/>
   </g>
   <g id="line2d_75">
    <path d="M 242.01582 300.256814 
L 242.01582 298.750827 
L 242.01582 297.244841 
L 242.01582 295.738854 
L 242.01582 294.232868 
L 242.01582 292.726882 
L 242.01582 291.220895 
L 242.01582 289.714909 
L 242.01582 288.208922 
L 242.01582 286.702936 
L 242.01582 285.19695 
L 242.01582 283.690963 
L 242.01582 282.184977 
L 242.01582 280.67899 
L 242.01582 279.173004 
L 242.01582 277.667017 
L 242.01582 276.161031 
L 242.01582 274.655045 
L 242.01582 273.149058 
L 242.01582 271.643072 
L 242.01582 270.137085 
L 242.01582 268.631099 
L 242.01582 267.125113 
L 242.01582 265.619126 
L 242.01582 264.11314 
L 242.01582 262.607153 
L 242.01582 261.101167 
L 242.01582 259.595181 
L 242.01582 258.089194 
L 242.01582 256.583208 
L 242.01582 255.077221 
" clip-path="url(#p296ae41ea9)" style="fill: none; stroke: #ff0000; stroke-width: 0.25; stroke-linecap: square"/>
   </g>
   <g id="line2d_76">
    <path d="M 361.500058 168.67218 
L 359.605315 168.67218 
L 357.710573 168.67218 
L 355.81583 168.67218 
L 353.921088 168.67218 
L 352.026346 168.67218 
L 350.131603 168.67218 
L 348.236861 168.67218 
L 346.342118 168.67218 
L 344.447376 168.67218 
L 342.552633 168.67218 
L 340.657891 168.67218 
L 338.763149 168.67218 
L 336.868406 168.67218 
L 334.973664 168.67218 
L 333.078921 168.67218 
L 331.184179 168.67218 
L 329.289437 168.67218 
L 327.394694 168.67218 
L 325.499952 168.67218 
L 323.605209 168.67218 
L 321.710467 168.67218 
L 319.815724 168.67218 
L 317.920982 168.67218 
L 316.02624 168.67218 
L 314.131497 168.67218 
L 312.236755 168.67218 
L 310.342012 168.67218 
L 308.44727 168.67218 
L 306.552528 168.67218 
L 304.657785 168.67218 
" clip-path="url(#p296ae41ea9)" style="fill: none; stroke: #ff0000; stroke-opacity: 0.2; stroke-width: 0.25; stroke-linecap: square"/>
   </g>
   <g id="line2d_77">
    <path d="M 361.500058 168.67218 
L 359.605315 168.67218 
L 357.710573 168.67218 
L 355.81583 168.67218 
L 353.921088 168.67218 
L 352.026346 168.67218 
L 350.131603 168.67218 
L 348.236861 168.67218 
L 346.342118 168.67218 
L 344.447376 168.67218 
L 342.552633 168.67218 
L 340.657891 168.67218 
L 338.763149 168.67218 
L 336.868406 168.67218 
L 334.973664 168.67218 
L 333.078921 168.67218 
L 331.184179 168.67218 
L 329.289437 168.67218 
L 327.394694 168.67218 
L 325.499952 168.67218 
L 323.605209 168.67218 
L 321.710467 168.67218 
L 319.815724 168.67218 
L 317.920982 168.67218 
L 316.02624 168.67218 
L 314.131497 168.67218 
L 312.236755 168.67218 
L 310.342012 168.67218 
L 308.44727 168.67218 
L 306.552528 168.67218 
L 304.657785 168.67218 
" clip-path="url(#p296ae41ea9)" style="fill: none; stroke: #ff0000; stroke-opacity: 0.4; stroke-width: 0.25; stroke-linecap: square"/>
   </g>
   <g id="line2d_78">
    <path d="M 361.500058 168.67218 
L 359.605315 168.67218 
L 357.710573 168.67218 
L 355.81583 168.67218 
L 353.921088 168.67218 
L 352.026346 168.67218 
L 350.131603 168.67218 
L 348.236861 168.67218 
L 346.342118 168.67218 
L 344.447376 168.67218 
L 342.552633 168.67218 
L 340.657891 168.67218 
L 338.763149 168.67218 
L 336.868406 168.67218 
L 334.973664 168.67218 
L 333.078921 168.67218 
L 331.184179 168.67218 
L 329.289437 168.67218 
L 327.394694 168.67218 
L 325.499952 168.67218 
L 323.605209 168.67218 
L 321.710467 168.67218 
L 319.815724 168.67218 
L 317.920982 168.67218 
L 316.02624 168.67218 
L 314.131497 168.67218 
L 312.236755 168.67218 
L 310.342012 168.67218 
L 308.44727 168.67218 
L 306.552528 168.67218 
L 304.657785 168.67218 
" clip-path="url(#p296ae41ea9)" style="fill: none; stroke: #ff0000; stroke-opacity: 0.6; stroke-width: 0.25; stroke-linecap: square"/>
   </g>
   <g id="line2d_79">
    <path d="M 361.500058 168.67218 
L 359.605315 168.67218 
L 357.710573 168.67218 
L 355.81583 168.67218 
L 353.921088 168.67218 
L 352.026346 168.67218 
L 350.131603 168.67218 
L 348.236861 168.67218 
L 346.342118 168.67218 
L 344.447376 168.67218 
L 342.552633 168.67218 
L 340.657891 168.67218 
L 338.763149 168.67218 
L 336.868406 168.67218 
L 334.973664 168.67218 
L 333.078921 168.67218 
L 331.184179 168.67218 
L 329.289437 168.67218 
L 327.394694 168.67218 
L 325.499952 168.67218 
L 323.605209 168.67218 
L 321.710467 168.67218 
L 319.815724 168.67218 
L 317.920982 168.67218 
L 316.02624 168.67218 
L 314.131497 168.67218 
L 312.236755 168.67218 
L 310.342012 168.67218 
L 308.44727 168.67218 
L 306.552528 168.67218 
L 304.657785 168.67218 
" clip-path="url(#p296ae41ea9)" style="fill: none; stroke: #ff0000; stroke-opacity: 0.8; stroke-width: 0.25; stroke-linecap: square"/>
   </g>
   <g id="line2d_80">
    <path d="M 361.500058 168.67218 
L 359.605315 168.67218 
L 357.710573 168.67218 
L 355.81583 168.67218 
L 353.921088 168.67218 
L 352.026346 168.67218 
L 350.131603 168.67218 
L 348.236861 168.67218 
L 346.342118 168.67218 
L 344.447376 168.67218 
L 342.552633 168.67218 
L 340.657891 168.67218 
L 338.763149 168.67218 
L 336.868406 168.67218 
L 334.973664 168.67218 
L 333.078921 168.67218 
L 331.184179 168.67218 
L 329.289437 168.67218 
L 327.394694 168.67218 
L 325.499952 168.67218 
L 323.605209 168.67218 
L 321.710467 168.67218 
L 319.815724 168.67218 
L 317.920982 168.67218 
L 316.02624 168.67218 
L 314.131497 168.67218 
L 312.236755 168.67218 
L 310.342012 168.67218 
L 308.44727 168.67218 
L 306.552528 168.67218 
L 304.657785 168.67218 
" clip-path="url(#p296ae41ea9)" style="fill: none; stroke: #ff0000; stroke-width: 0.25; stroke-linecap: square"/>
   </g>
   <g id="line2d_81">
    <path d="M 230.30418 48.799186 
L 230.30418 50.305173 
L 230.30418 51.811159 
L 230.30418 53.317146 
L 230.30418 54.823132 
L 230.30418 56.329118 
L 230.30418 57.835105 
L 230.30418 59.341091 
L 230.30418 60.847078 
L 230.30418 62.353064 
L 230.30418 63.85905 
L 230.30418 65.365037 
L 230.30418 66.871023 
L 230.30418 68.37701 
L 230.30418 69.882996 
L 230.30418 71.388983 
L 230.30418 72.894969 
L 230.30418 74.400955 
L 230.30418 75.906942 
L 230.30418 77.412928 
L 230.30418 78.918915 
L 230.30418 80.424901 
L 230.30418 81.930887 
L 230.30418 83.436874 
L 230.30418 84.94286 
L 230.30418 86.448847 
L 230.30418 87.954833 
L 230.30418 89.460819 
L 230.30418 90.966806 
L 230.30418 92.472792 
L 230.30418 93.978779 
" clip-path="url(#p296ae41ea9)" style="fill: none; stroke: #ff0000; stroke-opacity: 0.2; stroke-width: 0.25; stroke-linecap: square"/>
   </g>
   <g id="line2d_82">
    <path d="M 230.30418 48.799186 
L 230.30418 50.305173 
L 230.30418 51.811159 
L 230.30418 53.317146 
L 230.30418 54.823132 
L 230.30418 56.329118 
L 230.30418 57.835105 
L 230.30418 59.341091 
L 230.30418 60.847078 
L 230.30418 62.353064 
L 230.30418 63.85905 
L 230.30418 65.365037 
L 230.30418 66.871023 
L 230.30418 68.37701 
L 230.30418 69.882996 
L 230.30418 71.388983 
L 230.30418 72.894969 
L 230.30418 74.400955 
L 230.30418 75.906942 
L 230.30418 77.412928 
L 230.30418 78.918915 
L 230.30418 80.424901 
L 230.30418 81.930887 
L 230.30418 83.436874 
L 230.30418 84.94286 
L 230.30418 86.448847 
L 230.30418 87.954833 
L 230.30418 89.460819 
L 230.30418 90.966806 
L 230.30418 92.472792 
L 230.30418 93.978779 
" clip-path="url(#p296ae41ea9)" style="fill: none; stroke: #ff0000; stroke-opacity: 0.4; stroke-width: 0.25; stroke-linecap: square"/>
   </g>
   <g id="line2d_83">
    <path d="M 230.30418 48.799186 
L 230.30418 50.305173 
L 230.30418 51.811159 
L 230.30418 53.317146 
L 230.30418 54.823132 
L 230.30418 56.329118 
L 230.30418 57.835105 
L 230.30418 59.341091 
L 230.30418 60.847078 
L 230.30418 62.353064 
L 230.30418 63.85905 
L 230.30418 65.365037 
L 230.30418 66.871023 
L 230.30418 68.37701 
L 230.30418 69.882996 
L 230.30418 71.388983 
L 230.30418 72.894969 
L 230.30418 74.400955 
L 230.30418 75.906942 
L 230.30418 77.412928 
L 230.30418 78.918915 
L 230.30418 80.424901 
L 230.30418 81.930887 
L 230.30418 83.436874 
L 230.30418 84.94286 
L 230.30418 86.448847 
L 230.30418 87.954833 
L 230.30418 89.460819 
L 230.30418 90.966806 
L 230.30418 92.472792 
L 230.30418 93.978779 
" clip-path="url(#p296ae41ea9)" style="fill: none; stroke: #ff0000; stroke-opacity: 0.6; stroke-width: 0.25; stroke-linecap: square"/>
   </g>
   <g id="line2d_84">
    <path d="M 230.30418 48.799186 
L 230.30418 50.305173 
L 230.30418 51.811159 
L 230.30418 53.317146 
L 230.30418 54.823132 
L 230.30418 56.329118 
L 230.30418 57.835105 
L 230.30418 59.341091 
L 230.30418 60.847078 
L 230.30418 62.353064 
L 230.30418 63.85905 
L 230.30418 65.365037 
L 230.30418 66.871023 
L 230.30418 68.37701 
L 230.30418 69.882996 
L 230.30418 71.388983 
L 230.30418 72.894969 
L 230.30418 74.400955 
L 230.30418 75.906942 
L 230.30418 77.412928 
L 230.30418 78.918915 
L 230.30418 80.424901 
L 230.30418 81.930887 
L 230.30418 83.436874 
L 230.30418 84.94286 
L 230.30418 86.448847 
L 230.30418 87.954833 
L 230.30418 89.460819 
L 230.30418 90.966806 
L 230.30418 92.472792 
L 230.30418 93.978779 
" clip-path="url(#p296ae41ea9)" style="fill: none; stroke: #ff0000; stroke-opacity: 0.8; stroke-width: 0.25; stroke-linecap: square"/>
   </g>
   <g id="line2d_85">
    <path d="M 230.30418 48.799186 
L 230.30418 50.305173 
L 230.30418 51.811159 
L 230.30418 53.317146 
L 230.30418 54.823132 
L 230.30418 56.329118 
L 230.30418 57.835105 
L 230.30418 59.341091 
L 230.30418 60.847078 
L 230.30418 62.353064 
L 230.30418 63.85905 
L 230.30418 65.365037 
L 230.30418 66.871023 
L 230.30418 68.37701 
L 230.30418 69.882996 
L 230.30418 71.388983 
L 230.30418 72.894969 
L 230.30418 74.400955 
L 230.30418 75.906942 
L 230.30418 77.412928 
L 230.30418 78.918915 
L 230.30418 80.424901 
L 230.30418 81.930887 
L 230.30418 83.436874 
L 230.30418 84.94286 
L 230.30418 86.448847 
L 230.30418 87.954833 
L 230.30418 89.460819 
L 230.30418 90.966806 
L 230.30418 92.472792 
L 230.30418 93.978779 
" clip-path="url(#p296ae41ea9)" style="fill: none; stroke: #ff0000; stroke-width: 0.25; stroke-linecap: square"/>
   </g>
   <g id="line2d_86">
    <path d="M 110.431186 180.38382 
L 111.937173 180.38382 
L 113.443159 180.38382 
L 114.949146 180.38382 
L 116.455132 180.38382 
L 117.961118 180.38382 
L 119.467105 180.38382 
L 120.973091 180.38382 
L 122.479078 180.38382 
L 123.985064 180.38382 
L 125.49105 180.38382 
L 126.997037 180.38382 
L 128.503023 180.38382 
L 130.00901 180.38382 
L 131.514996 180.38382 
L 133.020983 180.38382 
L 134.526969 180.38382 
L 136.032955 180.38382 
L 137.538942 180.38382 
L 139.044928 180.38382 
L 140.550915 180.38382 
L 142.056901 180.38382 
L 143.562887 180.38382 
L 145.068874 180.38382 
L 146.57486 180.38382 
L 148.080847 180.38382 
L 149.586833 180.38382 
L 151.092819 180.38382 
L 152.598806 180.38382 
L 154.104792 180.38382 
L 155.610779 180.38382 
" clip-path="url(#p296ae41ea9)" style="fill: none; stroke: #ff0000; stroke-opacity: 0.2; stroke-width: 0.25; stroke-linecap: square"/>
   </g>
   <g id="line2d_87">
    <path d="M 110.431186 180.38382 
L 111.937173 180.38382 
L 113.443159 180.38382 
L 114.949146 180.38382 
L 116.455132 180.38382 
L 117.961118 180.38382 
L 119.467105 180.38382 
L 120.973091 180.38382 
L 122.479078 180.38382 
L 123.985064 180.38382 
L 125.49105 180.38382 
L 126.997037 180.38382 
L 128.503023 180.38382 
L 130.00901 180.38382 
L 131.514996 180.38382 
L 133.020983 180.38382 
L 134.526969 180.38382 
L 136.032955 180.38382 
L 137.538942 180.38382 
L 139.044928 180.38382 
L 140.550915 180.38382 
L 142.056901 180.38382 
L 143.562887 180.38382 
L 145.068874 180.38382 
L 146.57486 180.38382 
L 148.080847 180.38382 
L 149.586833 180.38382 
L 151.092819 180.38382 
L 152.598806 180.38382 
L 154.104792 180.38382 
L 155.610779 180.38382 
" clip-path="url(#p296ae41ea9)" style="fill: none; stroke: #ff0000; stroke-opacity: 0.4; stroke-width: 0.25; stroke-linecap: square"/>
   </g>
   <g id="line2d_88">
    <path d="M 110.431186 180.38382 
L 111.937173 180.38382 
L 113.443159 180.38382 
L 114.949146 180.38382 
L 116.455132 180.38382 
L 117.961118 180.38382 
L 119.467105 180.38382 
L 120.973091 180.38382 
L 122.479078 180.38382 
L 123.985064 180.38382 
L 125.49105 180.38382 
L 126.997037 180.38382 
L 128.503023 180.38382 
L 130.00901 180.38382 
L 131.514996 180.38382 
L 133.020983 180.38382 
L 134.526969 180.38382 
L 136.032955 180.38382 
L 137.538942 180.38382 
L 139.044928 180.38382 
L 140.550915 180.38382 
L 142.056901 180.38382 
L 143.562887 180.38382 
L 145.068874 180.38382 
L 146.57486 180.38382 
L 148.080847 180.38382 
L 149.586833 180.38382 
L 151.092819 180.38382 
L 152.598806 180.38382 
L 154.104792 180.38382 
L 155.610779 180.38382 
" clip-path="url(#p296ae41ea9)" style="fill: none; stroke: #ff0000; stroke-opacity: 0.6; stroke-width: 0.25; stroke-linecap: square"/>
   </g>
   <g id="line2d_89">
    <path d="M 110.431186 180.38382 
L 111.937173 180.38382 
L 113.443159 180.38382 
L 114.949146 180.38382 
L 116.455132 180.38382 
L 117.961118 180.38382 
L 119.467105 180.38382 
L 120.973091 180.38382 
L 122.479078 180.38382 
L 123.985064 180.38382 
L 125.49105 180.38382 
L 126.997037 180.38382 
L 128.503023 180.38382 
L 130.00901 180.38382 
L 131.514996 180.38382 
L 133.020983 180.38382 
L 134.526969 180.38382 
L 136.032955 180.38382 
L 137.538942 180.38382 
L 139.044928 180.38382 
L 140.550915 180.38382 
L 142.056901 180.38382 
L 143.562887 180.38382 
L 145.068874 180.38382 
L 146.57486 180.38382 
L 148.080847 180.38382 
L 149.586833 180.38382 
L 151.092819 180.38382 
L 152.598806 180.38382 
L 154.104792 180.38382 
L 155.610779 180.38382 
" clip-path="url(#p296ae41ea9)" style="fill: none; stroke: #ff0000; stroke-opacity: 0.8; stroke-width: 0.25; stroke-linecap: square"/>
   </g>
   <g id="line2d_90">
    <path d="M 110.431186 180.38382 
L 111.937173 180.38382 
L 113.443159 180.38382 
L 114.949146 180.38382 
L 116.455132 180.38382 
L 117.961118 180.38382 
L 119.467105 180.38382 
L 120.973091 180.38382 
L 122.479078 180.38382 
L 123.985064 180.38382 
L 125.49105 180.38382 
L 126.997037 180.38382 
L 128.503023 180.38382 
L 130.00901 180.38382 
L 131.514996 180.38382 
L 133.020983 180.38382 
L 134.526969 180.38382 
L 136.032955 180.38382 
L 137.538942 180.38382 
L 139.044928 180.38382 
L 140.550915 180.38382 
L 142.056901 180.38382 
L 143.562887 180.38382 
L 145.068874 180.38382 
L 146.57486 180.38382 
L 148.080847 180.38382 
L 149.586833 180.38382 
L 151.092819 180.38382 
L 152.598806 180.38382 
L 154.104792 180.38382 
L 155.610779 180.38382 
" clip-path="url(#p296ae41ea9)" style="fill: none; stroke: #ff0000; stroke-width: 0.25; stroke-linecap: square"/>
   </g>
   <g id="patch_15">
    <path d="M 103.104 307.584 
L 103.104 41.472 
" style="fill: none; stroke: #000000; stroke-width: 0.8; stroke-linejoin: miter; stroke-linecap: square"/>
   </g>
   <g id="patch_16">
    <path d="M 369.216 307.584 
L 369.216 41.472 
" style="fill: none; stroke: #000000; stroke-width: 0.8; stroke-linejoin: miter; stroke-linecap: square"/>
   </g>
   <g id="patch_17">
    <path d="M 103.104 307.584 
L 369.216 307.584 
" style="fill: none; stroke: #000000; stroke-width: 0.8; stroke-linejoin: miter; stroke-linecap: square"/>
   </g>
   <g id="patch_18">
    <path d="M 103.104 41.472 
L 369.216 41.472 
" style="fill: none; stroke: #000000; stroke-width: 0.8; stroke-linejoin: miter; stroke-linecap: square"/>
   </g>
   <g id="text_19">
    <!-- Time:   1 ms -->
    <g transform="translate(267.438262 54.7776) scale(0.1 -0.1)">
     <defs>
      <path id="DejaVuSans-54" d="M -19 4666 
L 3928 4666 
L 3928 4134 
L 2272 4134 
L 2272 0 
L 1638 0 
L 1638 4134 
L -19 4134 
L -19 4666 
z
" transform="scale(0.015625)"/>
      <path id="DejaVuSans-69" d="M 603 3500 
L 1178 3500 
L 1178 0 
L 603 0 
L 603 3500 
z
M 603 4863 
L 1178 4863 
L 1178 4134 
L 603 4134 
L 603 4863 
z
" transform="scale(0.015625)"/>
      <path id="DejaVuSans-6d" d="M 3328 2828 
Q 3544 3216 3844 3400 
Q 4144 3584 4550 3584 
Q 5097 3584 5394 3201 
Q 5691 2819 5691 2113 
L 5691 0 
L 5113 0 
L 5113 2094 
Q 5113 2597 4934 2840 
Q 4756 3084 4391 3084 
Q 3944 3084 3684 2787 
Q 3425 2491 3425 1978 
L 3425 0 
L 2847 0 
L 2847 2094 
Q 2847 2600 2669 2842 
Q 2491 3084 2119 3084 
Q 1678 3084 1418 2786 
Q 1159 2488 1159 1978 
L 1159 0 
L 581 0 
L 581 3500 
L 1159 3500 
L 1159 2956 
Q 1356 3278 1631 3431 
Q 1906 3584 2284 3584 
Q 2666 3584 2933 3390 
Q 3200 3197 3328 2828 
z
" transform="scale(0.015625)"/>
      <path id="DejaVuSans-65" d="M 3597 1894 
L 3597 1613 
L 953 1613 
Q 991 1019 1311 708 
Q 1631 397 2203 397 
Q 2534 397 2845 478 
Q 3156 559 3463 722 
L 3463 178 
Q 3153 47 2828 -22 
Q 2503 -91 2169 -91 
Q 1331 -91 842 396 
Q 353 884 353 1716 
Q 353 2575 817 3079 
Q 1281 3584 2069 3584 
Q 2775 3584 3186 3129 
Q 3597 2675 3597 1894 
z
M 3022 2063 
Q 3016 2534 2758 2815 
Q 2500 3097 2075 3097 
Q 1594 3097 1305 2825 
Q 1016 2553 972 2059 
L 3022 2063 
z
" transform="scale(0.015625)"/>
      <path id="DejaVuSans-3a" d="M 750 794 
L 1409 794 
L 1409 0 
L 750 0 
L 750 794 
z
M 750 3309 
L 1409 3309 
L 1409 2516 
L 750 2516 
L 750 3309 
z
" transform="scale(0.015625)"/>
      <path id="DejaVuSans-20" transform="scale(0.015625)"/>
      <path id="DejaVuSans-73" d="M 2834 3397 
L 2834 2853 
Q 2591 2978 2328 3040 
Q 2066 3103 1784 3103 
Q 1356 3103 1142 2972 
Q 928 2841 928 2578 
Q 928 2378 1081 2264 
Q 1234 2150 1697 2047 
L 1894 2003 
Q 2506 1872 2764 1633 
Q 3022 1394 3022 966 
Q 3022 478 2636 193 
Q 2250 -91 1575 -91 
Q 1294 -91 989 -36 
Q 684 19 347 128 
L 347 722 
Q 666 556 975 473 
Q 1284 391 1588 391 
Q 1994 391 2212 530 
Q 2431 669 2431 922 
Q 2431 1156 2273 1281 
Q 2116 1406 1581 1522 
L 1381 1569 
Q 847 1681 609 1914 
Q 372 2147 372 2553 
Q 372 3047 722 3315 
Q 1072 3584 1716 3584 
Q 2034 3584 2315 3537 
Q 2597 3491 2834 3397 
z
" transform="scale(0.015625)"/>
     </defs>
     <use xlink:href="#DejaVuSans-54"/>
     <use xlink:href="#DejaVuSans-69" x="57.958984"/>
     <use xlink:href="#DejaVuSans-6d" x="85.742188"/>
     <use xlink:href="#DejaVuSans-65" x="183.154297"/>
     <use xlink:href="#DejaVuSans-3a" x="244.677734"/>
     <use xlink:href="#DejaVuSans-20" x="278.369141"/>
     <use xlink:href="#DejaVuSans-20" x="310.15625"/>
     <use xlink:href="#DejaVuSans-20" x="341.943359"/>
     <use xlink:href="#DejaVuSans-31" x="373.730469"/>
     <use xlink:href="#DejaVuSans-20" x="437.353516"/>
     <use xlink:href="#DejaVuSans-6d" x="469.140625"/>
     <use xlink:href="#DejaVuSans-73" x="566.552734"/>
    </g>
   </g>
  </g>
 </g>
 <defs>
  <clipPath id="p296ae41ea9">
   <rect x="103.104" y="41.472" width="266.112" height="266.112"/>
  </clipPath>
 </defs>
</svg>
