<?xml version="1.0" encoding="utf-8" standalone="no"?>
<!DOCTYPE svg PUBLIC "-//W3C//DTD SVG 1.1//EN"
  "http://www.w3.org/Graphics/SVG/1.1/DTD/svg11.dtd">
<svg xmlns:xlink="http://www.w3.org/1999/xlink" width="460.8pt" height="345.6pt" viewBox="0 0 460.8 345.6" xmlns="http://www.w3.org/2000/svg" version="1.1">
 <metadata>
  <rdf:RDF xmlns:dc="http://purl.org/dc/elements/1.1/" xmlns:cc="http://creativecommons.org/ns#" xmlns:rdf="http://www.w3.org/1999/02/22-rdf-syntax-ns#">
   <cc:Work>
    <dc:type rdf:resource="http://purl.org/dc/dcmitype/StillImage"/>
    <dc:date>2024-01-23T14:21:24.595580</dc:date>
    <dc:format>image/svg+xml</dc:format>
    <dc:creator>
     <cc:Agent>
      <dc:title>Matplotlib v3.8.2, https://matplotlib.org/</dc:title>
     </cc:Agent>
    </dc:creator>
   </cc:Work>
  </rdf:RDF>
 </metadata>
 <defs>
  <style type="text/css">*{stroke-linejoin: round; stroke-linecap: butt}</style>
 </defs>
 <g id="figure_1">
  <g id="patch_1">
   <path d="M 0 345.6 
L 460.8 345.6 
L 460.8 0 
L 0 0 
z
" style="fill: #ffffff"/>
  </g>
  <g id="axes_1">
   <g id="patch_2">
    <path d="M 103.104 307.584 
L 369.216 307.584 
L 369.216 41.472 
L 103.104 41.472 
z
" style="fill: #ffffff"/>
   </g>
   <g id="patch_3">
    <path d="M 195.123675 165.811753 
L 183.481428 165.871393 
L 183.510396 171.526199 
L 195.152643 171.466558 
z
" clip-path="url(#pd0e6cdac87)" style="fill: #00008b"/>
   </g>
   <g id="patch_4">
    <path d="M 244.799506 122.614392 
L 244.867381 110.97219 
L 239.212597 110.939222 
L 239.144722 122.581424 
z
" clip-path="url(#pd0e6cdac87)" style="fill: #800000"/>
   </g>
   <g id="patch_5">
    <path d="M 227.479915 218.232994 
L 227.491348 229.875388 
L 233.146225 229.869835 
L 233.134792 218.22744 
z
" clip-path="url(#pd0e6cdac87)" style="fill: #006400"/>
   </g>
   <g id="patch_6">
    <path d="M 279.900092 183.202378 
L 291.54249 183.196593 
L 291.53968 177.541713 
L 279.897282 177.547499 
z
" clip-path="url(#pd0e6cdac87)" style="fill: #4b0082"/>
   </g>
   <g id="patch_7">
    <path d="M 245.975046 167.769599 
L 242.676289 156.60431 
L 237.253148 158.206564 
L 240.551905 169.371853 
z
" clip-path="url(#pd0e6cdac87)" style="fill: #0000ff"/>
   </g>
   <g id="patch_8">
    <path d="M 230.797168 162.909086 
L 219.472956 165.612362 
L 220.785976 171.112694 
L 232.110188 168.409417 
z
" clip-path="url(#pd0e6cdac87)" style="fill: #ff0000"/>
   </g>
   <g id="patch_9">
    <path d="M 238.466682 181.779478 
L 249.105335 186.508593 
L 251.402334 181.341247 
L 240.76368 176.612132 
z
" clip-path="url(#pd0e6cdac87)" style="fill: #dbdc56"/>
   </g>
   <g id="patch_10">
    <path d="M 224.535944 186.798868 
L 236.036764 188.609016 
L 236.915979 183.022904 
L 225.415159 181.212756 
z
" clip-path="url(#pd0e6cdac87)" style="fill: #9400d3"/>
   </g>
   <g id="patch_11">
    <path d="M 244.585901 215.877555 
L 244.07261 204.246475 
L 238.423229 204.495788 
L 238.93652 216.126867 
z
" clip-path="url(#pd0e6cdac87)" style="fill: #1e90ff"/>
   </g>
   <g id="patch_12">
    <path d="M 254.905234 165.81357 
L 243.926779 169.689006 
L 245.809134 175.021399 
L 256.787589 171.145962 
z
" clip-path="url(#pd0e6cdac87)" style="fill: #ff4500"/>
   </g>
   <g id="patch_13">
    <path d="M 227.703962 133.130138 
L 228.093537 144.766019 
L 233.74525 144.576797 
L 233.355676 132.940917 
z
" clip-path="url(#pd0e6cdac87)" style="fill: #7cfc00"/>
   </g>
   <g id="patch_14">
    <path d="M 194.236772 183.116816 
L 205.856806 182.395501 
L 205.506453 176.751485 
L 193.88642 177.472799 
z
" clip-path="url(#pd0e6cdac87)" style="fill: #ff00ff"/>
   </g>
   <g id="matplotlib.axis_1">
    <g id="xtick_1">
     <g id="line2d_1">
      <defs>
       <path id="m8189a9e282" d="M 0 0 
L 0 3.5 
" style="stroke: #000000; stroke-width: 0.8"/>
      </defs>
      <g>
       <use xlink:href="#m8189a9e282" x="103.104" y="307.584" style="stroke: #000000; stroke-width: 0.8"/>
      </g>
     </g>
     <g id="text_1">
      <!-- −40 -->
      <g transform="translate(92.551656 322.182437) scale(0.1 -0.1)">
       <defs>
        <path id="DejaVuSans-2212" d="M 678 2272 
L 4684 2272 
L 4684 1741 
L 678 1741 
L 678 2272 
z
" transform="scale(0.015625)"/>
        <path id="DejaVuSans-34" d="M 2419 4116 
L 825 1625 
L 2419 1625 
L 2419 4116 
z
M 2253 4666 
L 3047 4666 
L 3047 1625 
L 3713 1625 
L 3713 1100 
L 3047 1100 
L 3047 0 
L 2419 0 
L 2419 1100 
L 313 1100 
L 313 1709 
L 2253 4666 
z
" transform="scale(0.015625)"/>
        <path id="DejaVuSans-30" d="M 2034 4250 
Q 1547 4250 1301 3770 
Q 1056 3291 1056 2328 
Q 1056 1369 1301 889 
Q 1547 409 2034 409 
Q 2525 409 2770 889 
Q 3016 1369 3016 2328 
Q 3016 3291 2770 3770 
Q 2525 4250 2034 4250 
z
M 2034 4750 
Q 2819 4750 3233 4129 
Q 3647 3509 3647 2328 
Q 3647 1150 3233 529 
Q 2819 -91 2034 -91 
Q 1250 -91 836 529 
Q 422 1150 422 2328 
Q 422 3509 836 4129 
Q 1250 4750 2034 4750 
z
" transform="scale(0.015625)"/>
       </defs>
       <use xlink:href="#DejaVuSans-2212"/>
       <use xlink:href="#DejaVuSans-34" x="83.789062"/>
       <use xlink:href="#DejaVuSans-30" x="147.412109"/>
      </g>
     </g>
    </g>
    <g id="xtick_2">
     <g id="line2d_2">
      <g>
       <use xlink:href="#m8189a9e282" x="136.368" y="307.584" style="stroke: #000000; stroke-width: 0.8"/>
      </g>
     </g>
     <g id="text_2">
      <!-- −30 -->
      <g transform="translate(125.815656 322.182437) scale(0.1 -0.1)">
       <defs>
        <path id="DejaVuSans-33" d="M 2597 2516 
Q 3050 2419 3304 2112 
Q 3559 1806 3559 1356 
Q 3559 666 3084 287 
Q 2609 -91 1734 -91 
Q 1441 -91 1130 -33 
Q 819 25 488 141 
L 488 750 
Q 750 597 1062 519 
Q 1375 441 1716 441 
Q 2309 441 2620 675 
Q 2931 909 2931 1356 
Q 2931 1769 2642 2001 
Q 2353 2234 1838 2234 
L 1294 2234 
L 1294 2753 
L 1863 2753 
Q 2328 2753 2575 2939 
Q 2822 3125 2822 3475 
Q 2822 3834 2567 4026 
Q 2313 4219 1838 4219 
Q 1578 4219 1281 4162 
Q 984 4106 628 3988 
L 628 4550 
Q 988 4650 1302 4700 
Q 1616 4750 1894 4750 
Q 2613 4750 3031 4423 
Q 3450 4097 3450 3541 
Q 3450 3153 3228 2886 
Q 3006 2619 2597 2516 
z
" transform="scale(0.015625)"/>
       </defs>
       <use xlink:href="#DejaVuSans-2212"/>
       <use xlink:href="#DejaVuSans-33" x="83.789062"/>
       <use xlink:href="#DejaVuSans-30" x="147.412109"/>
      </g>
     </g>
    </g>
    <g id="xtick_3">
     <g id="line2d_3">
      <g>
       <use xlink:href="#m8189a9e282" x="169.632" y="307.584" style="stroke: #000000; stroke-width: 0.8"/>
      </g>
     </g>
     <g id="text_3">
      <!-- −20 -->
      <g transform="translate(159.079656 322.182437) scale(0.1 -0.1)">
       <defs>
        <path id="DejaVuSans-32" d="M 1228 531 
L 3431 531 
L 3431 0 
L 469 0 
L 469 531 
Q 828 903 1448 1529 
Q 2069 2156 2228 2338 
Q 2531 2678 2651 2914 
Q 2772 3150 2772 3378 
Q 2772 3750 2511 3984 
Q 2250 4219 1831 4219 
Q 1534 4219 1204 4116 
Q 875 4013 500 3803 
L 500 4441 
Q 881 4594 1212 4672 
Q 1544 4750 1819 4750 
Q 2544 4750 2975 4387 
Q 3406 4025 3406 3419 
Q 3406 3131 3298 2873 
Q 3191 2616 2906 2266 
Q 2828 2175 2409 1742 
Q 1991 1309 1228 531 
z
" transform="scale(0.015625)"/>
       </defs>
       <use xlink:href="#DejaVuSans-2212"/>
       <use xlink:href="#DejaVuSans-32" x="83.789062"/>
       <use xlink:href="#DejaVuSans-30" x="147.412109"/>
      </g>
     </g>
    </g>
    <g id="xtick_4">
     <g id="line2d_4">
      <g>
       <use xlink:href="#m8189a9e282" x="202.896" y="307.584" style="stroke: #000000; stroke-width: 0.8"/>
      </g>
     </g>
     <g id="text_4">
      <!-- −10 -->
      <g transform="translate(192.343656 322.182437) scale(0.1 -0.1)">
       <defs>
        <path id="DejaVuSans-31" d="M 794 531 
L 1825 531 
L 1825 4091 
L 703 3866 
L 703 4441 
L 1819 4666 
L 2450 4666 
L 2450 531 
L 3481 531 
L 3481 0 
L 794 0 
L 794 531 
z
" transform="scale(0.015625)"/>
       </defs>
       <use xlink:href="#DejaVuSans-2212"/>
       <use xlink:href="#DejaVuSans-31" x="83.789062"/>
       <use xlink:href="#DejaVuSans-30" x="147.412109"/>
      </g>
     </g>
    </g>
    <g id="xtick_5">
     <g id="line2d_5">
      <g>
       <use xlink:href="#m8189a9e282" x="236.16" y="307.584" style="stroke: #000000; stroke-width: 0.8"/>
      </g>
     </g>
     <g id="text_5">
      <!-- 0 -->
      <g transform="translate(232.97875 322.182437) scale(0.1 -0.1)">
       <use xlink:href="#DejaVuSans-30"/>
      </g>
     </g>
    </g>
    <g id="xtick_6">
     <g id="line2d_6">
      <g>
       <use xlink:href="#m8189a9e282" x="269.424" y="307.584" style="stroke: #000000; stroke-width: 0.8"/>
      </g>
     </g>
     <g id="text_6">
      <!-- 10 -->
      <g transform="translate(263.0615 322.182437) scale(0.1 -0.1)">
       <use xlink:href="#DejaVuSans-31"/>
       <use xlink:href="#DejaVuSans-30" x="63.623047"/>
      </g>
     </g>
    </g>
    <g id="xtick_7">
     <g id="line2d_7">
      <g>
       <use xlink:href="#m8189a9e282" x="302.688" y="307.584" style="stroke: #000000; stroke-width: 0.8"/>
      </g>
     </g>
     <g id="text_7">
      <!-- 20 -->
      <g transform="translate(296.3255 322.182437) scale(0.1 -0.1)">
       <use xlink:href="#DejaVuSans-32"/>
       <use xlink:href="#DejaVuSans-30" x="63.623047"/>
      </g>
     </g>
    </g>
    <g id="xtick_8">
     <g id="line2d_8">
      <g>
       <use xlink:href="#m8189a9e282" x="335.952" y="307.584" style="stroke: #000000; stroke-width: 0.8"/>
      </g>
     </g>
     <g id="text_8">
      <!-- 30 -->
      <g transform="translate(329.5895 322.182437) scale(0.1 -0.1)">
       <use xlink:href="#DejaVuSans-33"/>
       <use xlink:href="#DejaVuSans-30" x="63.623047"/>
      </g>
     </g>
    </g>
    <g id="xtick_9">
     <g id="line2d_9">
      <g>
       <use xlink:href="#m8189a9e282" x="369.216" y="307.584" style="stroke: #000000; stroke-width: 0.8"/>
      </g>
     </g>
     <g id="text_9">
      <!-- 40 -->
      <g transform="translate(362.8535 322.182437) scale(0.1 -0.1)">
       <use xlink:href="#DejaVuSans-34"/>
       <use xlink:href="#DejaVuSans-30" x="63.623047"/>
      </g>
     </g>
    </g>
   </g>
   <g id="matplotlib.axis_2">
    <g id="ytick_1">
     <g id="line2d_10">
      <defs>
       <path id="m3227d3a6ec" d="M 0 0 
L -3.5 0 
" style="stroke: #000000; stroke-width: 0.8"/>
      </defs>
      <g>
       <use xlink:href="#m3227d3a6ec" x="103.104" y="307.584" style="stroke: #000000; stroke-width: 0.8"/>
      </g>
     </g>
     <g id="text_10">
      <!-- −40 -->
      <g transform="translate(74.999313 311.383219) scale(0.1 -0.1)">
       <use xlink:href="#DejaVuSans-2212"/>
       <use xlink:href="#DejaVuSans-34" x="83.789062"/>
       <use xlink:href="#DejaVuSans-30" x="147.412109"/>
      </g>
     </g>
    </g>
    <g id="ytick_2">
     <g id="line2d_11">
      <g>
       <use xlink:href="#m3227d3a6ec" x="103.104" y="274.32" style="stroke: #000000; stroke-width: 0.8"/>
      </g>
     </g>
     <g id="text_11">
      <!-- −30 -->
      <g transform="translate(74.999313 278.119219) scale(0.1 -0.1)">
       <use xlink:href="#DejaVuSans-2212"/>
       <use xlink:href="#DejaVuSans-33" x="83.789062"/>
       <use xlink:href="#DejaVuSans-30" x="147.412109"/>
      </g>
     </g>
    </g>
    <g id="ytick_3">
     <g id="line2d_12">
      <g>
       <use xlink:href="#m3227d3a6ec" x="103.104" y="241.056" style="stroke: #000000; stroke-width: 0.8"/>
      </g>
     </g>
     <g id="text_12">
      <!-- −20 -->
      <g transform="translate(74.999313 244.855219) scale(0.1 -0.1)">
       <use xlink:href="#DejaVuSans-2212"/>
       <use xlink:href="#DejaVuSans-32" x="83.789062"/>
       <use xlink:href="#DejaVuSans-30" x="147.412109"/>
      </g>
     </g>
    </g>
    <g id="ytick_4">
     <g id="line2d_13">
      <g>
       <use xlink:href="#m3227d3a6ec" x="103.104" y="207.792" style="stroke: #000000; stroke-width: 0.8"/>
      </g>
     </g>
     <g id="text_13">
      <!-- −10 -->
      <g transform="translate(74.999313 211.591219) scale(0.1 -0.1)">
       <use xlink:href="#DejaVuSans-2212"/>
       <use xlink:href="#DejaVuSans-31" x="83.789062"/>
       <use xlink:href="#DejaVuSans-30" x="147.412109"/>
      </g>
     </g>
    </g>
    <g id="ytick_5">
     <g id="line2d_14">
      <g>
       <use xlink:href="#m3227d3a6ec" x="103.104" y="174.528" style="stroke: #000000; stroke-width: 0.8"/>
      </g>
     </g>
     <g id="text_14">
      <!-- 0 -->
      <g transform="translate(89.7415 178.327219) scale(0.1 -0.1)">
       <use xlink:href="#DejaVuSans-30"/>
      </g>
     </g>
    </g>
    <g id="ytick_6">
     <g id="line2d_15">
      <g>
       <use xlink:href="#m3227d3a6ec" x="103.104" y="141.264" style="stroke: #000000; stroke-width: 0.8"/>
      </g>
     </g>
     <g id="text_15">
      <!-- 10 -->
      <g transform="translate(83.379 145.063219) scale(0.1 -0.1)">
       <use xlink:href="#DejaVuSans-31"/>
       <use xlink:href="#DejaVuSans-30" x="63.623047"/>
      </g>
     </g>
    </g>
    <g id="ytick_7">
     <g id="line2d_16">
      <g>
       <use xlink:href="#m3227d3a6ec" x="103.104" y="108" style="stroke: #000000; stroke-width: 0.8"/>
      </g>
     </g>
     <g id="text_16">
      <!-- 20 -->
      <g transform="translate(83.379 111.799219) scale(0.1 -0.1)">
       <use xlink:href="#DejaVuSans-32"/>
       <use xlink:href="#DejaVuSans-30" x="63.623047"/>
      </g>
     </g>
    </g>
    <g id="ytick_8">
     <g id="line2d_17">
      <g>
       <use xlink:href="#m3227d3a6ec" x="103.104" y="74.736" style="stroke: #000000; stroke-width: 0.8"/>
      </g>
     </g>
     <g id="text_17">
      <!-- 30 -->
      <g transform="translate(83.379 78.535219) scale(0.1 -0.1)">
       <use xlink:href="#DejaVuSans-33"/>
       <use xlink:href="#DejaVuSans-30" x="63.623047"/>
      </g>
     </g>
    </g>
    <g id="ytick_9">
     <g id="line2d_18">
      <g>
       <use xlink:href="#m3227d3a6ec" x="103.104" y="41.472" style="stroke: #000000; stroke-width: 0.8"/>
      </g>
     </g>
     <g id="text_18">
      <!-- 40 -->
      <g transform="translate(83.379 45.271219) scale(0.1 -0.1)">
       <use xlink:href="#DejaVuSans-34"/>
       <use xlink:href="#DejaVuSans-30" x="63.623047"/>
      </g>
     </g>
    </g>
   </g>
   <g id="line2d_19">
    <path d="M 250.2972 288.4572 
L 250.2972 188.6652 
" clip-path="url(#pd0e6cdac87)" style="fill: none; stroke: #000000; stroke-width: 0.25; stroke-linecap: square"/>
   </g>
   <g id="line2d_20">
    <path d="M 250.2972 188.6652 
L 350.0892 188.6652 
" clip-path="url(#pd0e6cdac87)" style="fill: none; stroke: #000000; stroke-width: 0.25; stroke-linecap: square"/>
   </g>
   <g id="line2d_21">
    <path d="M 350.0892 160.3908 
L 250.2972 160.3908 
" clip-path="url(#pd0e6cdac87)" style="fill: none; stroke: #000000; stroke-width: 0.25; stroke-linecap: square"/>
   </g>
   <g id="line2d_22">
    <path d="M 250.2972 160.3908 
L 250.2972 60.5988 
" clip-path="url(#pd0e6cdac87)" style="fill: none; stroke: #000000; stroke-width: 0.25; stroke-linecap: square"/>
   </g>
   <g id="line2d_23">
    <path d="M 222.0228 60.5988 
L 222.0228 160.3908 
" clip-path="url(#pd0e6cdac87)" style="fill: none; stroke: #000000; stroke-width: 0.25; stroke-linecap: square"/>
   </g>
   <g id="line2d_24">
    <path d="M 222.0228 160.3908 
L 122.2308 160.3908 
" clip-path="url(#pd0e6cdac87)" style="fill: none; stroke: #000000; stroke-width: 0.25; stroke-linecap: square"/>
   </g>
   <g id="line2d_25">
    <path d="M 122.2308 188.6652 
L 222.0228 188.6652 
" clip-path="url(#pd0e6cdac87)" style="fill: none; stroke: #000000; stroke-width: 0.25; stroke-linecap: square"/>
   </g>
   <g id="line2d_26">
    <path d="M 222.0228 188.6652 
L 222.0228 288.4572 
" clip-path="url(#pd0e6cdac87)" style="fill: none; stroke: #000000; stroke-width: 0.25; stroke-linecap: square"/>
   </g>
   <g id="line2d_27">
    <path d="M 250.2972 174.528 
L 350.0892 174.528 
" clip-path="url(#pd0e6cdac87)" style="fill: none; stroke-dasharray: 0.925,0.4; stroke-dashoffset: 0; stroke: #000000; stroke-width: 0.25"/>
   </g>
   <g id="line2d_28">
    <path d="M 236.16 160.3908 
L 236.16 60.5988 
" clip-path="url(#pd0e6cdac87)" style="fill: none; stroke-dasharray: 0.925,0.4; stroke-dashoffset: 0; stroke: #000000; stroke-width: 0.25"/>
   </g>
   <g id="line2d_29">
    <path d="M 222.0228 174.528 
L 122.2308 174.528 
" clip-path="url(#pd0e6cdac87)" style="fill: none; stroke-dasharray: 0.925,0.4; stroke-dashoffset: 0; stroke: #000000; stroke-width: 0.25"/>
   </g>
   <g id="line2d_30">
    <path d="M 236.16 188.6652 
L 236.16 288.4572 
" clip-path="url(#pd0e6cdac87)" style="fill: none; stroke-dasharray: 0.925,0.4; stroke-dashoffset: 0; stroke: #000000; stroke-width: 0.25"/>
   </g>
   <g id="line2d_31">
    <path d="M 190.944536 168.665932 
L 189.317037 168.669962 
L 187.690149 168.673509 
L 186.063804 168.676107 
L 184.437944 168.677915 
L 182.812511 168.67908 
L 181.187455 168.679727 
L 179.562726 168.67997 
L 177.938281 168.679904 
L 176.31408 168.67961 
L 174.690086 168.679158 
L 173.066265 168.678602 
L 171.442588 168.677987 
L 169.819029 168.677349 
L 168.195565 168.676713 
L 166.572174 168.6761 
L 164.94884 168.675523 
L 163.325546 168.674992 
L 161.702281 168.674512 
L 160.079035 168.674084 
L 158.455797 168.673709 
L 156.832563 168.673385 
L 155.209327 168.673107 
L 153.586086 168.672872 
L 151.962837 168.672674 
L 150.33958 168.672509 
L 148.716315 168.67237 
L 147.093042 168.672252 
L 145.469762 168.672148 
L 143.846479 168.672055 
L 142.223193 168.671957 
" clip-path="url(#pd0e6cdac87)" style="fill: none; stroke: #ff0000; stroke-opacity: 0.2; stroke-width: 0.25; stroke-linecap: square"/>
   </g>
   <g id="line2d_32">
    <path d="M 190.944536 168.665932 
L 189.317036 168.669531 
L 187.690154 168.673093 
L 186.063822 168.675722 
L 184.437981 168.677575 
L 182.812574 168.678792 
L 181.187549 168.679496 
L 179.562859 168.679796 
L 177.938458 168.679786 
L 176.314308 168.679546 
L 174.69037 168.679142 
L 173.066613 168.678628 
L 171.443005 168.678048 
L 169.819522 168.677437 
L 168.196139 168.676821 
L 166.572835 168.676222 
L 164.949594 168.675652 
L 163.326399 168.675123 
L 161.703239 168.674639 
L 160.080102 168.674204 
L 158.456979 168.673818 
L 156.833865 168.673479 
L 155.210753 168.673184 
L 153.58764 168.67293 
L 151.964524 168.672711 
L 150.341403 168.672521 
L 148.718277 168.672356 
L 147.095146 168.672209 
L 145.472011 168.672073 
L 143.848874 168.671944 
L 142.225735 168.671819 
" clip-path="url(#pd0e6cdac87)" style="fill: none; stroke: #ff0000; stroke-opacity: 0.4; stroke-width: 0.25; stroke-linecap: square"/>
   </g>
   <g id="line2d_33">
    <path d="M 190.944536 168.665932 
L 189.317036 168.669257 
L 187.69015 168.672834 
L 186.063811 168.675487 
L 184.437958 168.677366 
L 182.812536 168.67861 
L 181.187493 168.679341 
L 179.56278 168.679666 
L 177.938354 168.679678 
L 176.314174 168.679455 
L 174.690204 168.679064 
L 173.066409 168.67856 
L 171.442762 168.677986 
L 169.819235 168.67738 
L 168.195805 168.676767 
L 166.572452 168.676169 
L 164.949158 168.675602 
L 163.325907 168.675074 
L 161.702687 168.674593 
L 160.079488 168.674161 
L 158.456301 168.673779 
L 156.833119 168.673446 
L 155.209938 168.673159 
L 153.586753 168.672913 
L 151.963563 168.672704 
L 150.340366 168.672526 
L 148.717163 168.672373 
L 147.093953 168.67224 
L 145.470739 168.672121 
L 143.847521 168.672009 
L 142.224301 168.671898 
" clip-path="url(#pd0e6cdac87)" style="fill: none; stroke: #ff0000; stroke-opacity: 0.6; stroke-width: 0.25; stroke-linecap: square"/>
   </g>
   <g id="line2d_34">
    <path d="M 190.944536 168.665932 
L 189.317035 168.669085 
L 187.690152 168.672679 
L 186.063817 168.675351 
L 184.437971 168.677252 
L 182.812558 168.678517 
L 181.187525 168.679267 
L 179.562825 168.679609 
L 177.938414 168.679636 
L 176.314251 168.679426 
L 174.6903 168.679046 
L 173.066527 168.678551 
L 171.442902 168.677985 
L 169.8194 168.677384 
L 168.195997 168.676777 
L 166.572672 168.676183 
L 164.949408 168.675619 
L 163.326189 168.675093 
L 161.703003 168.674613 
L 160.079839 168.674182 
L 158.456689 168.6738 
L 156.833545 168.673465 
L 155.210402 168.673175 
L 153.587258 168.672925 
L 151.964109 168.672711 
L 150.340955 168.672526 
L 148.717795 168.672367 
L 147.094629 168.672226 
L 145.471459 168.672097 
L 143.848285 168.671976 
L 142.22511 168.671857 
" clip-path="url(#pd0e6cdac87)" style="fill: none; stroke: #ff0000; stroke-opacity: 0.8; stroke-width: 0.25; stroke-linecap: square"/>
   </g>
   <g id="line2d_35">
    <path d="M 190.944536 168.665932 
L 189.317035 168.668976 
L 187.69015 168.672581 
L 186.063813 168.675267 
L 184.437963 168.67718 
L 182.812545 168.678457 
L 181.187506 168.679218 
L 179.562799 168.679569 
L 177.938379 168.679603 
L 176.314207 168.679399 
L 174.690244 168.679023 
L 173.066459 168.678532 
L 171.442822 168.677969 
L 169.819305 168.677371 
L 168.195887 168.676765 
L 166.572546 168.676173 
L 164.949264 168.675609 
L 163.326028 168.675085 
L 161.702822 168.674606 
L 160.079639 168.674175 
L 158.456467 168.673794 
L 156.833302 168.673461 
L 155.210138 168.673172 
L 153.586971 168.672924 
L 151.963799 168.672712 
L 150.340621 168.672531 
L 148.717437 168.672375 
L 147.094246 168.672237 
L 145.471051 168.672113 
L 143.847853 168.671997 
L 142.224653 168.671881 
" clip-path="url(#pd0e6cdac87)" style="fill: none; stroke: #ff0000; stroke-width: 0.25; stroke-linecap: square"/>
   </g>
   <g id="line2d_36">
    <path d="M 242.002145 118.269387 
L 242.006732 116.776809 
L 242.010943 115.282537 
L 242.014279 113.786674 
L 242.016857 112.289325 
L 242.018791 110.79059 
L 242.020182 109.290565 
L 242.021123 107.789346 
L 242.021696 106.287023 
L 242.021974 104.783683 
L 242.022021 103.279408 
L 242.021891 101.774279 
L 242.02163 100.26837 
L 242.021277 98.761753 
L 242.020863 97.254495 
L 242.020415 95.74666 
L 242.019953 94.238309 
L 242.019493 92.729496 
L 242.019046 91.220274 
L 242.01862 89.710693 
L 242.018222 88.200797 
L 242.017854 86.690628 
L 242.017518 85.180225 
L 242.017212 83.669623 
L 242.016936 82.158856 
L 242.016686 80.647952 
L 242.016458 79.136939 
L 242.01625 77.625841 
L 242.016055 76.114682 
L 242.015869 74.60348 
L 242.015682 73.092254 
" clip-path="url(#pd0e6cdac87)" style="fill: none; stroke: #ff0000; stroke-opacity: 0.2; stroke-width: 0.25; stroke-linecap: square"/>
   </g>
   <g id="line2d_37">
    <path d="M 242.002145 118.269387 
L 242.006387 116.776808 
L 242.010622 115.282536 
L 242.013992 113.786673 
L 242.016613 112.289323 
L 242.018593 110.790589 
L 242.020033 109.290566 
L 242.021021 107.78935 
L 242.02164 106.287032 
L 242.02196 104.7837 
L 242.022043 103.279436 
L 242.021943 101.77432 
L 242.021707 100.268428 
L 242.021372 98.761833 
L 242.020972 97.254601 
L 242.02053 95.746798 
L 242.02007 94.238483 
L 242.019607 92.729712 
L 242.019153 91.22054 
L 242.018717 89.711015 
L 242.018305 88.201182 
L 242.01792 86.691084 
L 242.017565 85.180759 
L 242.017238 83.670245 
L 242.016937 82.159573 
L 242.016661 80.648774 
L 242.016404 79.137876 
L 242.016163 77.626902 
L 242.015933 76.115877 
L 242.015709 74.604819 
L 242.015489 73.093749 
" clip-path="url(#pd0e6cdac87)" style="fill: none; stroke: #ff0000; stroke-opacity: 0.4; stroke-width: 0.25; stroke-linecap: square"/>
   </g>
   <g id="line2d_38">
    <path d="M 242.002145 118.269387 
L 242.006201 116.776807 
L 242.010451 115.282535 
L 242.013839 113.786671 
L 242.016478 112.28932 
L 242.018476 110.790583 
L 242.019931 109.290557 
L 242.020932 107.789338 
L 242.021561 106.287014 
L 242.021888 104.783674 
L 242.021977 103.279401 
L 242.021881 101.774275 
L 242.021646 100.268371 
L 242.021313 98.761761 
L 242.020913 97.254512 
L 242.020473 95.746689 
L 242.020015 94.238351 
L 242.019555 92.729556 
L 242.019105 91.220355 
L 242.018675 89.710797 
L 242.01827 88.200929 
L 242.017894 86.690791 
L 242.017549 85.180424 
L 242.017233 83.669863 
L 242.016945 82.15914 
L 242.016683 80.648286 
L 242.016442 79.137328 
L 242.016218 77.626291 
L 242.016007 76.115197 
L 242.015804 74.604067 
L 242.015602 73.092919 
" clip-path="url(#pd0e6cdac87)" style="fill: none; stroke: #ff0000; stroke-opacity: 0.6; stroke-width: 0.25; stroke-linecap: square"/>
   </g>
   <g id="line2d_39">
    <path d="M 242.002145 118.269387 
L 242.006104 116.776807 
L 242.010368 115.282535 
L 242.013769 113.786672 
L 242.016421 112.289323 
L 242.018431 110.790588 
L 242.019896 109.290565 
L 242.020907 107.789349 
L 242.021544 106.28703 
L 242.021878 104.783695 
L 242.021972 103.279429 
L 242.021881 101.774309 
L 242.021652 100.268414 
L 242.021322 98.761813 
L 242.020925 97.254575 
L 242.020488 95.746764 
L 242.020032 94.23844 
L 242.019572 92.729659 
L 242.019123 91.220475 
L 242.018691 89.710936 
L 242.018284 88.201087 
L 242.017905 86.690972 
L 242.017555 85.180628 
L 242.017234 83.670092 
L 242.01694 82.159397 
L 242.01667 80.648572 
L 242.016421 79.137646 
L 242.016188 77.626642 
L 242.015967 76.115583 
L 242.015752 74.60449 
L 242.01554 73.093381 
" clip-path="url(#pd0e6cdac87)" style="fill: none; stroke: #ff0000; stroke-opacity: 0.8; stroke-width: 0.25; stroke-linecap: square"/>
   </g>
   <g id="line2d_40">
    <path d="M 242.002145 118.269387 
L 242.006052 116.776807 
L 242.010323 115.282534 
L 242.013731 113.786671 
L 242.016389 112.289321 
L 242.018403 110.790584 
L 242.019873 109.290559 
L 242.020887 107.78934 
L 242.021526 106.287018 
L 242.021862 104.78368 
L 242.021958 103.27941 
L 242.021868 101.774286 
L 242.02164 100.268385 
L 242.021311 98.761778 
L 242.020915 97.254533 
L 242.020478 95.746715 
L 242.020023 94.238383 
L 242.019564 92.729594 
L 242.019115 91.2204 
L 242.018685 89.71085 
L 242.01828 88.20099 
L 242.017903 86.690863 
L 242.017555 85.180506 
L 242.017237 83.669957 
L 242.016946 82.159246 
L 242.01668 80.648406 
L 242.016436 79.137463 
L 242.016208 77.626441 
L 242.015992 76.115364 
L 242.015783 74.604252 
L 242.015576 73.093123 
" clip-path="url(#pd0e6cdac87)" style="fill: none; stroke: #ff0000; stroke-width: 0.25; stroke-linecap: square"/>
   </g>
   <g id="line2d_41">
    <path d="M 230.313973 222.446529 
L 230.313507 224.051414 
L 230.313095 225.656509 
L 230.312508 227.261805 
L 230.311809 228.867294 
L 230.311047 230.472969 
L 230.310263 232.078822 
L 230.309487 233.684842 
L 230.30874 235.291023 
L 230.308039 236.897354 
L 230.307395 238.503827 
L 230.306813 240.110433 
L 230.306295 241.717164 
L 230.305843 243.32401 
L 230.305453 244.930964 
L 230.305123 246.538016 
L 230.304848 248.145158 
L 230.304622 249.752383 
L 230.30444 251.359683 
L 230.304298 252.96705 
L 230.304189 254.574477 
L 230.304108 256.181958 
L 230.304052 257.789485 
L 230.304016 259.397052 
L 230.303996 261.004654 
L 230.303989 262.612284 
L 230.303991 264.219937 
L 230.304 265.827609 
L 230.304014 267.435294 
L 230.304031 269.042988 
L 230.304044 270.650688 
" clip-path="url(#pd0e6cdac87)" style="fill: none; stroke: #ff0000; stroke-opacity: 0.2; stroke-width: 0.25; stroke-linecap: square"/>
   </g>
   <g id="line2d_42">
    <path d="M 230.313973 222.446529 
L 230.313311 224.051414 
L 230.312906 225.656507 
L 230.312335 227.261801 
L 230.311657 228.867287 
L 230.31092 230.472956 
L 230.310162 232.078802 
L 230.309412 233.684814 
L 230.308691 235.290984 
L 230.308014 236.897304 
L 230.307392 238.503763 
L 230.306828 240.110354 
L 230.306327 241.717067 
L 230.305887 243.323893 
L 230.305506 244.930825 
L 230.305182 246.537853 
L 230.30491 248.144969 
L 230.304685 249.752166 
L 230.304503 251.359434 
L 230.304357 252.966768 
L 230.304244 254.574159 
L 230.304159 256.181601 
L 230.304097 257.789087 
L 230.304055 259.396611 
L 230.304027 261.004167 
L 230.304012 262.611748 
L 230.304006 264.21935 
L 230.304006 265.826968 
L 230.30401 267.434598 
L 230.304016 269.042233 
L 230.304023 270.649872 
" clip-path="url(#pd0e6cdac87)" style="fill: none; stroke: #ff0000; stroke-opacity: 0.4; stroke-width: 0.25; stroke-linecap: square"/>
   </g>
   <g id="line2d_43">
    <path d="M 230.313973 222.446529 
L 230.313189 224.051414 
L 230.312793 225.656508 
L 230.312232 227.261803 
L 230.311565 228.867292 
L 230.310841 230.472965 
L 230.310094 232.078815 
L 230.309354 233.684833 
L 230.308642 235.291009 
L 230.307973 236.897336 
L 230.307355 238.503804 
L 230.306796 240.110404 
L 230.306297 241.717128 
L 230.305858 243.323966 
L 230.305478 244.930911 
L 230.305155 246.537953 
L 230.304883 248.145084 
L 230.304658 249.752297 
L 230.304476 251.359584 
L 230.304332 252.966936 
L 230.304221 254.574348 
L 230.304138 256.181811 
L 230.304078 257.78932 
L 230.304038 259.396868 
L 230.304014 261.004449 
L 230.304002 262.612057 
L 230.304 264.219686 
L 230.304005 265.827333 
L 230.304014 267.434992 
L 230.304024 269.042659 
L 230.304035 270.65033 
" clip-path="url(#pd0e6cdac87)" style="fill: none; stroke: #ff0000; stroke-opacity: 0.6; stroke-width: 0.25; stroke-linecap: square"/>
   </g>
   <g id="line2d_44">
    <path d="M 230.313973 222.446529 
L 230.313116 224.051414 
L 230.312727 225.656508 
L 230.312175 227.261802 
L 230.311518 228.867288 
L 230.310802 230.47296 
L 230.310064 232.078807 
L 230.309332 233.684821 
L 230.308626 235.290994 
L 230.307962 236.897316 
L 230.307349 238.503779 
L 230.306793 240.110373 
L 230.306297 241.717091 
L 230.305862 243.323922 
L 230.305485 244.930859 
L 230.305163 246.537893 
L 230.304893 248.145015 
L 230.30467 249.752219 
L 230.304489 251.359495 
L 230.304345 252.966837 
L 230.304234 254.574237 
L 230.30415 256.181689 
L 230.30409 257.789185 
L 230.304049 259.396719 
L 230.304023 261.004286 
L 230.30401 262.61188 
L 230.304006 264.219495 
L 230.304008 265.827126 
L 230.304014 267.434769 
L 230.304022 269.042419 
L 230.30403 270.650073 
" clip-path="url(#pd0e6cdac87)" style="fill: none; stroke: #ff0000; stroke-opacity: 0.8; stroke-width: 0.25; stroke-linecap: square"/>
   </g>
   <g id="line2d_45">
    <path d="M 230.313973 222.446529 
L 230.31307 224.051414 
L 230.312687 225.656508 
L 230.31214 227.261803 
L 230.311489 228.86729 
L 230.310777 230.472963 
L 230.310043 232.078812 
L 230.309315 233.684828 
L 230.308612 235.291003 
L 230.30795 236.897328 
L 230.307339 238.503794 
L 230.306784 240.110392 
L 230.30629 241.717113 
L 230.305855 243.323948 
L 230.305478 244.93089 
L 230.305157 246.537928 
L 230.304887 248.145056 
L 230.304664 249.752265 
L 230.304483 251.359547 
L 230.30434 252.966895 
L 230.304229 254.574302 
L 230.304145 256.18176 
L 230.304085 257.789263 
L 230.304045 259.396805 
L 230.30402 261.004379 
L 230.304007 262.611981 
L 230.304004 264.219604 
L 230.304007 265.827244 
L 230.304014 267.434895 
L 230.304024 269.042554 
L 230.304033 270.650217 
" clip-path="url(#pd0e6cdac87)" style="fill: none; stroke: #ff0000; stroke-width: 0.25; stroke-linecap: square"/>
   </g>
   <g id="line2d_46">
    <path d="M 284.114766 180.37046 
L 285.719886 180.371622 
L 287.324992 180.372655 
L 288.930098 180.373777 
L 290.535214 180.37493 
L 292.140352 180.376072 
L 293.745521 180.377169 
L 295.350727 180.378198 
L 296.955977 180.379144 
L 298.561276 180.379998 
L 300.166627 180.380757 
L 301.772034 180.381421 
L 303.377497 180.381993 
L 304.983018 180.382478 
L 306.588598 180.382882 
L 308.194234 180.383214 
L 309.799926 180.383481 
L 311.405672 180.383691 
L 313.01147 180.383851 
L 314.617316 180.383969 
L 316.223208 180.384051 
L 317.829141 180.384104 
L 319.435112 180.384133 
L 321.041117 180.384143 
L 322.647152 180.384138 
L 324.253212 180.384121 
L 325.859294 180.384096 
L 327.465392 180.384065 
L 329.071503 180.384031 
L 330.677622 180.383994 
L 332.283747 180.383961 
" clip-path="url(#pd0e6cdac87)" style="fill: none; stroke: #ff0000; stroke-opacity: 0.2; stroke-width: 0.25; stroke-linecap: square"/>
   </g>
   <g id="line2d_47">
    <path d="M 284.114766 180.37046 
L 285.719886 180.371812 
L 287.324989 180.372837 
L 288.930089 180.373944 
L 290.535197 180.375078 
L 292.140323 180.376196 
L 293.745477 180.377267 
L 295.350665 180.378271 
L 296.955894 180.379192 
L 298.561168 180.380023 
L 300.166491 180.380762 
L 301.771867 180.381407 
L 303.377295 180.381964 
L 304.982778 180.382437 
L 306.588316 180.382832 
L 308.193907 180.383158 
L 309.79955 180.383421 
L 311.405244 180.383629 
L 313.010986 180.38379 
L 314.616773 180.38391 
L 316.222601 180.383996 
L 317.828468 180.384053 
L 319.43437 180.384087 
L 321.040302 180.384102 
L 322.646261 180.384102 
L 324.252242 180.384092 
L 325.858241 180.384074 
L 327.464254 180.38405 
L 329.070277 180.384023 
L 330.676306 180.383995 
L 332.282338 180.383966 
" clip-path="url(#pd0e6cdac87)" style="fill: none; stroke: #ff0000; stroke-opacity: 0.4; stroke-width: 0.25; stroke-linecap: square"/>
   </g>
   <g id="line2d_48">
    <path d="M 284.114766 180.37046 
L 285.719886 180.37193 
L 287.324991 180.372947 
L 288.930094 180.374044 
L 290.535207 180.375166 
L 292.140341 180.376272 
L 293.745504 180.377333 
L 295.350703 180.378326 
L 296.955945 180.379239 
L 298.561233 180.380063 
L 300.166573 180.380796 
L 301.771967 180.381439 
L 303.377416 180.381993 
L 304.982922 180.382464 
L 306.588483 180.382859 
L 308.194101 180.383184 
L 309.799772 180.383447 
L 311.405496 180.383655 
L 313.011269 180.383816 
L 314.61709 180.383935 
L 316.222954 180.384019 
L 317.828858 180.384075 
L 319.434799 180.384107 
L 321.040772 180.38412 
L 322.646772 180.384118 
L 324.252797 180.384105 
L 325.858841 180.384084 
L 327.4649 180.384057 
L 329.070971 180.384027 
L 330.677049 180.383995 
L 332.283131 180.383964 
" clip-path="url(#pd0e6cdac87)" style="fill: none; stroke: #ff0000; stroke-opacity: 0.6; stroke-width: 0.25; stroke-linecap: square"/>
   </g>
   <g id="line2d_49">
    <path d="M 284.114766 180.37046 
L 285.719886 180.372001 
L 287.32499 180.373011 
L 288.930091 180.374099 
L 290.535201 180.375212 
L 292.14033 180.37631 
L 293.745488 180.377362 
L 295.35068 180.378349 
L 296.955914 180.379255 
L 298.561194 180.380074 
L 300.166525 180.380803 
L 301.771908 180.381441 
L 303.377345 180.381992 
L 304.982837 180.38246 
L 306.588385 180.382853 
L 308.193987 180.383176 
L 309.799642 180.383437 
L 311.405349 180.383644 
L 313.011105 180.383803 
L 314.616906 180.383922 
L 316.22275 180.384006 
L 317.828634 180.384062 
L 319.434552 180.384094 
L 321.040502 180.384108 
L 322.64648 180.384107 
L 324.25248 180.384096 
L 325.858499 180.384076 
L 327.464533 180.384051 
L 329.070578 180.384022 
L 330.676629 180.383993 
L 332.282684 180.383963 
" clip-path="url(#pd0e6cdac87)" style="fill: none; stroke: #ff0000; stroke-opacity: 0.8; stroke-width: 0.25; stroke-linecap: square"/>
   </g>
   <g id="line2d_50">
    <path d="M 284.114766 180.37046 
L 285.719886 180.372046 
L 287.32499 180.37305 
L 288.930093 180.374133 
L 290.535205 180.375241 
L 292.140337 180.376334 
L 293.745497 180.377382 
L 295.350694 180.378365 
L 296.955932 180.379269 
L 298.561217 180.380086 
L 300.166553 180.380813 
L 301.771942 180.38145 
L 303.377387 180.382 
L 304.982886 180.382468 
L 306.588442 180.382859 
L 308.194053 180.383182 
L 309.799718 180.383443 
L 311.405434 180.38365 
L 313.0112 180.383809 
L 314.617012 180.383927 
L 316.222868 180.384012 
L 317.828763 180.384067 
L 319.434694 180.3841 
L 321.040656 180.384113 
L 322.646647 180.384112 
L 324.25266 180.3841 
L 325.858693 180.384079 
L 327.464741 180.384053 
L 329.0708 180.384024 
L 330.676866 180.383994 
L 332.282936 180.383963 
" clip-path="url(#pd0e6cdac87)" style="fill: none; stroke: #ff0000; stroke-width: 0.25; stroke-linecap: square"/>
   </g>
   <g id="line2d_51">
    <path d="M 242.030194 164.606004 
L 241.604999 162.990449 
L 241.325358 161.358841 
L 241.190396 159.724757 
L 241.186369 158.10058 
L 241.256135 156.492383 
L 241.361388 154.899324 
L 241.476816 153.318954 
L 241.543912 151.746608 
L 241.612097 150.184032 
L 241.67491 148.629937 
L 241.734104 147.083459 
L 241.788238 145.543679 
L 241.836508 144.009778 
L 241.878596 142.481026 
L 241.914537 140.956769 
L 241.944614 139.43642 
L 241.96927 137.919446 
L 241.989045 136.405371 
L 242.004522 134.893762 
L 242.016291 133.384231 
L 242.024927 131.876433 
L 242.030972 130.37006 
L 242.034924 128.864841 
L 242.037234 127.360537 
L 242.038307 125.856942 
L 242.038499 124.353874 
L 242.038114 122.851179 
L 242.037436 121.348722 
L 242.036659 119.846386 
L 242.035326 118.344077 
" clip-path="url(#pd0e6cdac87)" style="fill: none; stroke: #ff0000; stroke-opacity: 0.2; stroke-width: 0.25; stroke-linecap: square"/>
   </g>
   <g id="line2d_52">
    <path d="M 242.030194 164.606004 
L 241.60851 162.989529 
L 241.330607 161.357619 
L 241.197806 159.723352 
L 241.196447 158.099167 
L 241.268907 156.491086 
L 241.376572 154.898185 
L 241.493573 153.317929 
L 241.561334 151.745609 
L 241.629753 150.183042 
L 241.692046 148.628923 
L 241.750523 147.082415 
L 241.803798 145.542602 
L 241.851113 144.008667 
L 241.892188 142.479883 
L 241.927087 140.955598 
L 241.956115 139.435224 
L 241.979734 137.918231 
L 241.998492 136.404141 
L 242.012978 134.892521 
L 242.023787 133.382986 
L 242.031491 131.875188 
L 242.036627 130.368823 
L 242.03969 128.863618 
L 242.041122 127.359338 
L 242.041319 125.855775 
L 242.040627 124.352752 
L 242.039342 122.850115 
L 242.037735 121.347732 
L 242.036009 119.845489 
L 242.033949 118.343292 
" clip-path="url(#pd0e6cdac87)" style="fill: none; stroke: #ff0000; stroke-opacity: 0.4; stroke-width: 0.25; stroke-linecap: square"/>
   </g>
   <g id="line2d_53">
    <path d="M 242.030194 164.606004 
L 241.610796 162.988934 
L 241.333592 161.356903 
L 241.201812 159.722554 
L 241.201958 158.098371 
L 241.275933 156.490366 
L 241.384849 154.89756 
L 241.502455 153.317362 
L 241.570153 151.745054 
L 241.63818 150.182487 
L 241.699459 148.628347 
L 241.756827 147.081818 
L 241.808953 145.541987 
L 241.855126 144.008041 
L 241.895099 142.479252 
L 241.928966 140.95497 
L 241.957052 139.434605 
L 241.979829 137.917627 
L 241.997856 136.403557 
L 242.011722 134.891963 
L 242.02202 133.382458 
L 242.029318 131.874695 
L 242.034145 130.368369 
L 242.036985 128.863208 
L 242.03827 127.358978 
L 242.038381 125.855471 
L 242.037651 124.352512 
L 242.036364 122.849948 
L 242.034761 121.347648 
L 242.033038 119.8455 
L 242.031119 118.343409 
" clip-path="url(#pd0e6cdac87)" style="fill: none; stroke: #ff0000; stroke-opacity: 0.6; stroke-width: 0.25; stroke-linecap: square"/>
   </g>
   <g id="line2d_54">
    <path d="M 242.030194 164.606004 
L 241.612707 162.98844 
L 241.336076 161.35631 
L 241.205172 159.72189 
L 241.206681 158.097712 
L 241.282045 156.489777 
L 241.39211 154.89706 
L 241.510283 153.316915 
L 241.577947 151.74462 
L 241.645655 150.182054 
L 241.706058 148.627898 
L 241.762492 147.081353 
L 241.813678 145.541511 
L 241.858943 144.007558 
L 241.898074 142.478769 
L 241.931185 140.954493 
L 241.958615 139.434139 
L 241.980847 137.917178 
L 241.99844 136.403128 
L 242.011981 134.891558 
L 242.022058 133.382079 
L 242.02923 131.874346 
L 242.034017 130.368052 
L 242.036888 128.862927 
L 242.038265 127.358735 
L 242.038516 125.855271 
L 242.03796 124.35236 
L 242.03687 122.849849 
L 242.035468 121.347609 
L 242.033944 119.845529 
L 242.032312 118.343515 
" clip-path="url(#pd0e6cdac87)" style="fill: none; stroke: #ff0000; stroke-opacity: 0.8; stroke-width: 0.25; stroke-linecap: square"/>
   </g>
   <g id="line2d_55">
    <path d="M 242.030194 164.606004 
L 241.614097 162.988082 
L 241.337692 161.355914 
L 241.207261 159.721459 
L 241.209686 158.097288 
L 241.285989 156.489406 
L 241.396778 154.896748 
L 241.515197 153.316633 
L 241.582637 151.744342 
L 241.649902 150.181772 
L 241.709414 148.627597 
L 241.764941 147.081036 
L 241.815246 145.541183 
L 241.859691 144.007225 
L 241.898086 142.478437 
L 241.93056 140.954166 
L 241.957463 139.433823 
L 241.979277 137.916877 
L 241.996559 136.402845 
L 242.009891 134.891295 
L 242.019851 133.381839 
L 242.026986 131.87413 
L 242.031803 130.367861 
L 242.034763 128.862764 
L 242.03627 127.358601 
L 242.036682 125.85517 
L 242.036308 124.352294 
L 242.03541 122.849822 
L 242.034201 121.347625 
L 242.032868 119.845594 
L 242.031481 118.343634 
" clip-path="url(#pd0e6cdac87)" style="fill: none; stroke: #ff0000; stroke-width: 0.25; stroke-linecap: square"/>
   </g>
   <g id="line2d_56">
    <path d="M 227.370077 166.676405 
L 225.795301 167.02803 
L 224.215071 167.324534 
L 222.630617 167.564602 
L 221.043765 167.750872 
L 219.456174 167.887099 
L 217.869348 167.97997 
L 216.284309 168.037131 
L 214.701609 168.066762 
L 213.122667 168.130767 
L 211.545834 168.186764 
L 209.971839 168.260453 
L 208.399543 168.331121 
L 206.828852 168.402305 
L 205.259105 168.463867 
L 203.690171 168.516298 
L 202.121938 168.560255 
L 200.554305 168.596494 
L 198.987183 168.625826 
L 197.42049 168.649073 
L 195.854153 168.667041 
L 194.288105 168.680506 
L 192.722288 168.690195 
L 191.15665 168.696782 
L 189.591147 168.700884 
L 188.025743 168.70306 
L 186.460409 168.703813 
L 184.895121 168.703597 
L 183.329861 168.702838 
L 181.764614 168.701923 
L 180.199369 168.700382 
" clip-path="url(#pd0e6cdac87)" style="fill: none; stroke: #ff0000; stroke-opacity: 0.2; stroke-width: 0.25; stroke-linecap: square"/>
   </g>
   <g id="line2d_57">
    <path d="M 227.370077 166.676405 
L 225.793214 167.018547 
L 224.211951 167.309335 
L 222.626629 167.543243 
L 221.039114 167.723074 
L 219.451079 167.852794 
L 217.864015 167.939311 
L 216.278914 167.990507 
L 214.696282 168.014823 
L 213.117441 168.076941 
L 211.540783 168.132461 
L 209.967084 168.208025 
L 208.395189 168.282541 
L 206.824967 168.358731 
L 205.255672 168.425364 
L 203.687164 168.482753 
L 202.119328 168.531421 
L 200.552065 168.572029 
L 198.985287 168.605318 
L 197.418917 168.632072 
L 195.852884 168.65308 
L 194.287125 168.669116 
L 192.721586 168.68092 
L 191.156218 168.68919 
L 189.59098 168.694575 
L 188.025836 168.697671 
L 186.460759 168.699025 
L 184.895728 168.699135 
L 183.330724 168.698476 
L 181.765737 168.697473 
L 180.200755 168.6964 
" clip-path="url(#pd0e6cdac87)" style="fill: none; stroke: #ff0000; stroke-opacity: 0.4; stroke-width: 0.25; stroke-linecap: square"/>
   </g>
   <g id="line2d_58">
    <path d="M 227.370077 166.676405 
L 225.792722 167.016275 
L 224.211246 167.305895 
L 222.625742 167.538553 
L 221.038084 167.717091 
L 219.449949 167.845535 
L 217.862825 167.930844 
L 216.277695 167.980958 
L 214.695057 168.004379 
L 213.116211 168.066101 
L 211.539562 168.121542 
L 209.965892 168.197395 
L 208.394052 168.272716 
L 206.823904 168.350018 
L 205.254679 168.417781 
L 203.686235 168.47629 
L 202.118457 168.526051 
L 200.551247 168.567715 
L 198.984517 168.602025 
L 197.41819 168.629765 
L 195.852197 168.651732 
L 194.286476 168.668708 
L 192.720971 168.681442 
L 191.155636 168.690641 
L 189.590428 168.696961 
L 188.025313 168.701006 
L 186.460265 168.703327 
L 184.895261 168.704424 
L 183.330285 168.704759 
L 181.765324 168.704745 
L 180.20037 168.7047 
" clip-path="url(#pd0e6cdac87)" style="fill: none; stroke: #ff0000; stroke-opacity: 0.6; stroke-width: 0.25; stroke-linecap: square"/>
   </g>
   <g id="line2d_59">
    <path d="M 227.370077 166.676405 
L 225.791959 167.012711 
L 224.209978 167.299545 
L 222.624033 167.529123 
L 221.036019 167.704376 
L 219.447629 167.829442 
L 217.860346 167.911397 
L 216.27514 167.958296 
L 214.692488 167.978769 
L 213.113605 168.038707 
L 211.536951 168.092945 
L 209.963312 168.168571 
L 208.391549 168.244524 
L 206.821514 168.323043 
L 205.252406 168.392193 
L 203.68408 168.4522 
L 202.116417 168.503522 
L 200.549318 168.546776 
L 198.982694 168.582676 
L 197.416469 168.611989 
L 195.850573 168.635497 
L 194.284946 168.653974 
L 192.719532 168.668164 
L 191.154284 168.678771 
L 189.589162 168.686451 
L 188.024133 168.691811 
L 186.459169 168.695403 
L 184.894248 168.697734 
L 183.329355 168.69927 
L 181.764477 168.700435 
L 180.199607 168.701583 
" clip-path="url(#pd0e6cdac87)" style="fill: none; stroke: #ff0000; stroke-opacity: 0.8; stroke-width: 0.25; stroke-linecap: square"/>
   </g>
   <g id="line2d_60">
    <path d="M 227.370077 166.676405 
L 225.791572 167.01089 
L 224.209449 167.29693 
L 222.62339 167.52569 
L 221.035293 167.700134 
L 219.446853 167.824455 
L 217.859547 167.905774 
L 216.27434 167.952201 
L 214.6917 167.972419 
L 213.112851 168.03279 
L 211.536245 168.087818 
L 209.962684 168.164552 
L 208.391026 168.242083 
L 206.821112 168.322399 
L 205.252114 168.393257 
L 203.683885 168.454838 
L 202.116307 168.507569 
L 200.549282 168.552045 
L 198.982723 168.588971 
L 197.416556 168.619108 
L 195.850713 168.643242 
L 194.285135 168.662153 
L 192.719769 168.676595 
L 191.154567 168.687287 
L 189.589491 168.694901 
L 188.024508 168.70006 
L 186.459589 168.703337 
L 184.894715 168.705257 
L 183.329869 168.706322 
L 181.765038 168.706987 
L 180.200214 168.70764 
" clip-path="url(#pd0e6cdac87)" style="fill: none; stroke: #ff0000; stroke-width: 0.25; stroke-linecap: square"/>
   </g>
   <g id="line2d_61">
    <path d="M 243.233984 181.237997 
L 244.934021 181.562917 
L 246.648149 181.722545 
L 248.358938 181.734847 
L 250.057917 181.730706 
L 251.744278 181.714355 
L 253.417285 181.666507 
L 255.075952 181.574665 
L 256.720164 181.44399 
L 258.352563 181.302568 
L 259.975179 181.163335 
L 261.589318 181.031124 
L 263.196066 180.909271 
L 264.79631 180.79983 
L 266.390778 180.703798 
L 267.980081 180.621351 
L 269.564748 180.55205 
L 271.145257 180.495039 
L 272.722053 180.449196 
L 274.295554 180.413261 
L 275.866162 180.385929 
L 277.434258 180.365912 
L 279.000204 180.351987 
L 280.564341 180.343018 
L 282.126985 180.337974 
L 283.688433 180.335932 
L 285.248952 180.336079 
L 286.808789 180.337707 
L 288.368165 180.340219 
L 289.927276 180.343179 
L 291.486288 180.346823 
" clip-path="url(#pd0e6cdac87)" style="fill: none; stroke: #ff0000; stroke-opacity: 0.2; stroke-width: 0.25; stroke-linecap: square"/>
   </g>
   <g id="line2d_62">
    <path d="M 243.233984 181.237997 
L 244.933867 181.563726 
L 246.648032 181.722882 
L 248.358828 181.733309 
L 250.057801 181.728445 
L 251.744157 181.711582 
L 253.417164 181.663541 
L 255.075851 181.571853 
L 256.720102 181.441464 
L 258.352533 181.300173 
L 259.975181 181.161049 
L 261.589349 181.028914 
L 263.196122 180.907096 
L 264.796384 180.797642 
L 266.390864 180.701551 
L 267.98017 180.618999 
L 269.564832 180.549552 
L 271.145326 180.492358 
L 272.722096 180.446303 
L 274.295559 180.410137 
L 275.866114 180.382561 
L 277.434141 180.362298 
L 278.999999 180.348135 
L 280.564028 180.338945 
L 282.126544 180.333707 
L 283.687836 180.331508 
L 285.248175 180.331543 
L 286.807802 180.333109 
L 288.366937 180.335604 
L 289.925778 180.338545 
L 291.484495 180.34182 
" clip-path="url(#pd0e6cdac87)" style="fill: none; stroke: #ff0000; stroke-opacity: 0.4; stroke-width: 0.25; stroke-linecap: square"/>
   </g>
   <g id="line2d_63">
    <path d="M 243.233984 181.237997 
L 244.934016 181.562947 
L 246.648178 181.722169 
L 248.358982 181.732063 
L 250.057963 181.727033 
L 251.74433 181.710093 
L 253.417353 181.662099 
L 255.076066 181.570593 
L 256.720355 181.440447 
L 258.352823 181.299359 
L 259.97551 181.160448 
L 261.589717 181.028532 
L 263.196526 180.906934 
L 264.796825 180.797702 
L 266.391337 180.701831 
L 267.980674 180.619496 
L 269.565362 180.550266 
L 271.14588 180.493289 
L 272.722669 180.447453 
L 274.296147 180.411507 
L 275.866714 180.384157 
L 277.434747 180.364126 
L 279.000608 180.350202 
L 280.564633 180.341262 
L 282.12714 180.336285 
L 283.688417 180.33436 
L 285.248734 180.334682 
L 286.808333 180.33655 
L 288.367434 180.339359 
L 289.926233 180.342612 
L 291.484902 180.346124 
" clip-path="url(#pd0e6cdac87)" style="fill: none; stroke: #ff0000; stroke-opacity: 0.6; stroke-width: 0.25; stroke-linecap: square"/>
   </g>
   <g id="line2d_64">
    <path d="M 243.233984 181.237997 
L 244.934471 181.560555 
L 246.648484 181.72141 
L 248.359298 181.730816 
L 250.058288 181.725627 
L 251.744666 181.708598 
L 253.417704 181.660621 
L 255.076441 181.569244 
L 256.720759 181.439266 
L 258.353252 181.298285 
L 259.975963 181.159472 
L 261.590192 181.027641 
L 263.197021 180.906114 
L 264.797337 180.796935 
L 266.391863 180.7011 
L 267.981211 180.618784 
L 269.565908 180.549556 
L 271.146432 180.492566 
L 272.723225 180.446703 
L 274.296704 180.41072 
L 275.867267 180.383323 
L 277.435296 180.363239 
L 279.001147 180.349257 
L 280.56516 180.340256 
L 282.127649 180.335219 
L 283.688906 180.333235 
L 285.249196 180.333502 
L 286.808764 180.335318 
L 288.367827 180.338078 
L 289.926584 180.341277 
L 291.485205 180.344675 
" clip-path="url(#pd0e6cdac87)" style="fill: none; stroke: #ff0000; stroke-opacity: 0.8; stroke-width: 0.25; stroke-linecap: square"/>
   </g>
   <g id="line2d_65">
    <path d="M 243.233984 181.237997 
L 244.934508 181.560362 
L 246.648464 181.721865 
L 248.359288 181.730939 
L 250.05829 181.725706 
L 251.744683 181.708693 
L 253.41774 181.660825 
L 255.076505 181.569655 
L 256.720858 181.439908 
L 258.353382 181.299089 
L 259.976121 181.160421 
L 261.590374 181.028716 
L 263.197225 180.907294 
L 264.797558 180.798198 
L 266.392099 180.702426 
L 267.981458 180.620153 
L 269.566164 180.550948 
L 271.146693 180.493965 
L 272.723489 180.448094 
L 274.296968 180.412091 
L 275.867529 180.384664 
L 277.435552 180.364543 
L 279.001395 180.350519 
L 280.565397 180.341474 
L 282.127871 180.336392 
L 283.689108 180.334365 
L 285.249376 180.33459 
L 286.808916 180.336369 
L 288.367947 180.339094 
L 289.926667 180.342255 
L 291.485248 180.345565 
" clip-path="url(#pd0e6cdac87)" style="fill: none; stroke: #ff0000; stroke-width: 0.25; stroke-linecap: square"/>
   </g>
   <g id="line2d_66">
    <path d="M 229.180139 184.888029 
L 230.72588 184.915833 
L 232.275405 184.663359 
L 233.818938 184.264932 
L 235.344193 183.724597 
L 236.836722 183.041223 
L 238.281 182.215112 
L 239.660928 181.248747 
L 240.960831 180.1475 
L 242.164762 178.918524 
L 243.256616 177.5708 
L 244.220993 176.115355 
L 245.045154 174.565797 
L 245.718757 172.937186 
L 246.23333 171.245504 
L 246.582392 169.507572 
L 246.761305 167.740742 
L 246.767491 165.962689 
L 246.600375 164.191147 
L 246.261308 162.443664 
L 245.807174 160.722361 
L 245.359839 158.999563 
L 244.917801 157.275966 
L 244.48364 155.551104 
L 244.060897 153.824213 
L 243.651998 152.094784 
L 243.257612 150.362702 
L 242.876568 148.628225 
L 242.505751 146.891965 
L 242.140414 145.154802 
L 241.77716 143.417297 
" clip-path="url(#pd0e6cdac87)" style="fill: none; stroke: #ff0000; stroke-opacity: 0.2; stroke-width: 0.25; stroke-linecap: square"/>
   </g>
   <g id="line2d_67">
    <path d="M 229.180139 184.888029 
L 230.725892 184.915194 
L 232.275577 184.66374 
L 233.819275 184.266002 
L 235.344799 183.726484 
L 236.837694 183.043978 
L 238.282437 182.21876 
L 239.662922 181.253279 
L 240.963391 180.152802 
L 242.168015 178.92462 
L 243.260758 177.577745 
L 244.226061 176.123058 
L 245.051143 174.574151 
L 245.725655 172.946096 
L 246.241183 171.254904 
L 246.591238 169.517393 
L 246.771168 167.75091 
L 246.778382 165.973132 
L 246.612298 164.201793 
L 246.274262 162.454443 
L 245.819929 160.733561 
L 245.372669 159.011142 
L 244.930777 157.287935 
L 244.496847 155.563469 
L 244.074454 153.836973 
L 243.66607 152.107927 
L 243.272406 150.376208 
L 242.892331 148.642065 
L 242.522796 146.906095 
L 242.159076 145.16917 
L 241.797621 143.431875 
" clip-path="url(#pd0e6cdac87)" style="fill: none; stroke: #ff0000; stroke-opacity: 0.4; stroke-width: 0.25; stroke-linecap: square"/>
   </g>
   <g id="line2d_68">
    <path d="M 229.180139 184.888029 
L 230.725898 184.91481 
L 232.275814 184.664731 
L 233.819489 184.266845 
L 235.345255 183.727953 
L 236.83853 183.046221 
L 238.283813 182.2219 
L 239.664934 181.257287 
L 240.965139 180.156466 
L 242.168053 178.92659 
L 243.258249 177.577647 
L 244.221834 176.121832 
L 245.046306 174.572625 
L 245.720886 172.94464 
L 246.236838 171.253636 
L 246.587333 169.516291 
L 246.767673 167.749946 
L 246.775196 165.972286 
L 246.609264 164.201072 
L 246.271203 162.453892 
L 245.815677 160.733518 
L 245.367472 159.011561 
L 244.92469 157.288822 
L 244.489941 155.564828 
L 244.066831 153.838794 
L 243.657872 152.110193 
L 243.263816 150.378891 
L 242.883566 148.645132 
L 242.514131 146.9095 
L 242.150815 145.172863 
L 241.789929 143.435832 
" clip-path="url(#pd0e6cdac87)" style="fill: none; stroke: #ff0000; stroke-opacity: 0.6; stroke-width: 0.25; stroke-linecap: square"/>
   </g>
   <g id="line2d_69">
    <path d="M 229.180139 184.888029 
L 230.72595 184.911649 
L 232.276649 184.66611 
L 233.820398 184.268079 
L 235.346341 183.72923 
L 236.83984 183.047531 
L 238.285401 182.223247 
L 239.666838 181.258661 
L 240.967234 180.15767 
L 242.169948 178.927245 
L 243.259641 177.577594 
L 244.223023 176.121399 
L 245.047738 174.572136 
L 245.722801 172.944226 
L 246.239331 171.253336 
L 246.590374 169.516101 
L 246.771223 167.749873 
L 246.779208 165.972351 
L 246.613688 164.201311 
L 246.276003 162.454353 
L 245.816807 160.735339 
L 245.366103 159.014505 
L 244.921207 157.292869 
L 244.48478 155.569942 
L 244.060544 153.844912 
L 243.65114 152.11722 
L 243.257437 150.386716 
L 242.878434 148.653629 
L 242.5113 146.918511 
L 242.151427 145.182206 
L 241.794597 143.445418 
" clip-path="url(#pd0e6cdac87)" style="fill: none; stroke: #ff0000; stroke-opacity: 0.8; stroke-width: 0.25; stroke-linecap: square"/>
   </g>
   <g id="line2d_70">
    <path d="M 229.180139 184.888029 
L 230.725961 184.910886 
L 232.276782 184.666018 
L 233.820625 184.268228 
L 235.346678 183.729559 
L 236.840318 183.048034 
L 238.286044 182.223906 
L 239.667672 181.259461 
L 240.968365 180.158696 
L 242.171504 178.928567 
L 243.261647 177.579169 
L 244.225358 176.123091 
L 245.05029 174.573852 
L 245.725487 172.945916 
L 246.242092 171.254976 
L 246.593184 169.517688 
L 246.774069 167.75141 
L 246.782088 165.973843 
L 246.616613 164.202764 
L 246.278992 162.455769 
L 245.819116 160.736923 
L 245.367932 159.016214 
L 244.922611 157.294699 
L 244.485817 155.571888 
L 244.06129 153.846965 
L 243.651689 152.119369 
L 243.257899 150.388943 
L 242.878933 148.655916 
L 242.511981 146.920838 
L 242.152456 145.184546 
L 241.796067 143.447757 
" clip-path="url(#pd0e6cdac87)" style="fill: none; stroke: #ff0000; stroke-width: 0.25; stroke-linecap: square"/>
   </g>
   <g id="line2d_71">
    <path d="M 241.597826 211.642656 
L 241.505821 210.186591 
L 241.41848 208.735064 
L 241.331509 207.288401 
L 241.247518 205.8465 
L 241.169678 204.40923 
L 241.10184 202.976451 
L 241.048634 201.548059 
L 241.015599 200.124051 
L 241.009311 198.704633 
L 241.037542 197.290387 
L 241.109455 195.882514 
L 241.235843 194.483208 
L 241.429471 193.096216 
L 241.70556 191.727722 
L 242.082551 190.387837 
L 242.583431 189.093348 
L 243.226828 187.867526 
L 243.984715 186.71295 
L 244.827055 185.622309 
L 245.747803 184.600732 
L 246.741345 183.653419 
L 247.801778 182.785137 
L 248.922934 182.000211 
L 250.098411 181.302514 
L 251.321601 180.695462 
L 252.585783 180.182178 
L 253.883644 179.76415 
L 255.198564 179.405884 
L 256.511373 179.041568 
L 257.823772 178.676523 
" clip-path="url(#pd0e6cdac87)" style="fill: none; stroke: #ff0000; stroke-opacity: 0.2; stroke-width: 0.25; stroke-linecap: square"/>
   </g>
   <g id="line2d_72">
    <path d="M 241.597826 211.642656 
L 241.505024 210.186642 
L 241.417188 208.735021 
L 241.329606 207.288149 
L 241.244875 205.845927 
L 241.16616 204.408223 
L 241.097304 202.974899 
L 241.042939 201.545846 
L 241.008609 200.121057 
L 241.000907 198.700729 
L 241.027636 197.285435 
L 241.098006 195.876366 
L 241.222895 194.47571 
L 241.415198 193.087218 
L 241.690352 191.717117 
L 242.067163 190.37565 
L 242.569258 189.079966 
L 243.216068 187.8541 
L 243.974837 186.698073 
L 244.818032 185.605861 
L 245.739731 184.582672 
L 246.734308 183.633692 
L 247.795861 182.763678 
L 248.918225 181.976945 
L 250.09502 181.277383 
L 251.319675 180.668469 
L 252.585378 180.153101 
L 253.885789 179.735681 
L 255.20633 179.389603 
L 256.5242 179.035048 
L 257.840041 178.673761 
" clip-path="url(#pd0e6cdac87)" style="fill: none; stroke: #ff0000; stroke-opacity: 0.4; stroke-width: 0.25; stroke-linecap: square"/>
   </g>
   <g id="line2d_73">
    <path d="M 241.597826 211.642656 
L 241.504578 210.18667 
L 241.416589 208.73503 
L 241.328795 207.288113 
L 241.243777 205.84582 
L 241.164687 204.408019 
L 241.095358 202.974569 
L 241.040416 201.545359 
L 241.005404 200.120376 
L 240.996919 198.699812 
L 241.022778 197.284229 
L 241.09222 195.87481 
L 241.216171 194.473734 
L 241.407612 193.084755 
L 241.682128 191.714124 
L 242.058786 190.372173 
L 242.561708 189.076324 
L 243.21099 187.851222 
L 243.970772 186.695258 
L 244.81392 185.60234 
L 245.735494 184.578289 
L 246.729965 183.628349 
L 247.791502 182.757347 
L 248.913988 181.969668 
L 250.091067 181.269271 
L 251.316176 180.659694 
L 252.582457 180.143817 
L 253.883609 179.726232 
L 255.207141 179.388599 
L 256.527487 179.04025 
L 257.844763 178.681177 
" clip-path="url(#pd0e6cdac87)" style="fill: none; stroke: #ff0000; stroke-opacity: 0.6; stroke-width: 0.25; stroke-linecap: square"/>
   </g>
   <g id="line2d_74">
    <path d="M 241.597826 211.642656 
L 241.504439 210.186679 
L 241.416581 208.735019 
L 241.328894 207.288072 
L 241.24394 205.845738 
L 241.164855 204.407887 
L 241.095456 202.974377 
L 241.040358 201.545095 
L 241.005092 200.120026 
L 240.996253 198.699357 
L 241.021656 197.283643 
L 241.09055 195.87406 
L 241.213885 194.472777 
L 241.404689 193.083541 
L 241.678641 191.712611 
L 242.054988 190.370369 
L 242.558224 189.074415 
L 243.208987 187.849846 
L 243.969108 186.693823 
L 244.812048 185.600431 
L 245.733343 184.575774 
L 246.727549 183.625153 
L 247.7889 182.753461 
L 248.911333 181.965167 
L 250.088515 181.264301 
L 251.313879 180.654462 
L 252.580609 180.138726 
L 253.881671 179.719621 
L 255.206953 179.387293 
L 256.528627 179.042404 
L 257.846562 178.6842 
" clip-path="url(#pd0e6cdac87)" style="fill: none; stroke: #ff0000; stroke-opacity: 0.8; stroke-width: 0.25; stroke-linecap: square"/>
   </g>
   <g id="line2d_75">
    <path d="M 241.597826 211.642656 
L 241.504565 210.186671 
L 241.417212 208.734963 
L 241.330004 207.287951 
L 241.245459 205.845541 
L 241.166675 204.407602 
L 241.097435 202.973996 
L 241.042319 201.544609 
L 241.006829 200.119422 
L 240.997529 198.698615 
L 241.022214 197.282732 
L 241.090116 195.872927 
L 241.21218 194.471342 
L 241.401459 193.081691 
L 241.673702 191.710197 
L 242.048331 190.367232 
L 242.550256 189.070507 
L 243.200804 187.845532 
L 243.959773 186.688432 
L 244.803237 185.595092 
L 245.725371 184.570799 
L 246.720559 183.620765 
L 247.782902 182.749777 
L 248.906241 181.962188 
L 250.084203 181.261944 
L 251.310215 180.65258 
L 252.577464 180.137096 
L 253.879372 179.719303 
L 255.206467 179.39253 
L 256.529489 179.051128 
L 257.84814 178.693915 
" clip-path="url(#pd0e6cdac87)" style="fill: none; stroke: #ff0000; stroke-width: 0.25; stroke-linecap: square"/>
   </g>
   <g id="line2d_76">
    <path d="M 252.282347 169.953815 
L 250.36109 170.433412 
L 248.364324 170.522438 
L 246.348984 170.468801 
L 244.322271 170.327296 
L 242.277012 170.344415 
L 240.284461 170.855503 
L 238.42094 171.749044 
L 236.663404 172.85033 
L 235.037599 174.146279 
L 233.567771 175.62042 
L 232.276103 177.2534 
L 231.180676 179.022342 
L 230.295788 180.902356 
L 229.632193 182.867178 
L 229.197143 184.889588 
L 228.994564 186.941931 
L 229.024361 188.99654 
L 229.147294 191.039305 
L 229.236516 193.075076 
L 229.332209 195.102012 
L 229.446328 197.120137 
L 229.571067 199.130725 
L 229.698103 201.135216 
L 229.822087 203.134867 
L 229.939965 205.130744 
L 230.050583 207.12374 
L 230.154273 209.114611 
L 230.252347 211.104024 
L 230.346791 213.092566 
L 230.439423 215.080773 
" clip-path="url(#pd0e6cdac87)" style="fill: none; stroke: #ff0000; stroke-opacity: 0.2; stroke-width: 0.25; stroke-linecap: square"/>
   </g>
   <g id="line2d_77">
    <path d="M 252.282347 169.953815 
L 250.359135 170.42551 
L 248.362346 170.517306 
L 246.346675 170.466089 
L 244.319426 170.327121 
L 242.273764 170.347518 
L 240.281733 170.862611 
L 238.419091 171.759252 
L 236.662646 172.863413 
L 235.038143 174.162047 
L 233.569911 175.638767 
L 232.2803 177.274311 
L 231.187289 179.045644 
L 230.305056 180.927764 
L 229.644139 182.894317 
L 229.211632 184.918075 
L 229.011345 186.971419 
L 229.042852 189.026745 
L 229.171639 191.069838 
L 229.262912 193.10612 
L 229.358118 195.133565 
L 229.470286 197.152146 
L 229.592655 199.163077 
L 229.716861 201.1678 
L 229.837591 203.167568 
L 229.951807 205.163446 
L 230.058361 207.156327 
L 230.157578 209.146975 
L 230.250786 211.13606 
L 230.339992 213.124183 
L 230.427306 215.111886 
" clip-path="url(#pd0e6cdac87)" style="fill: none; stroke: #ff0000; stroke-opacity: 0.4; stroke-width: 0.25; stroke-linecap: square"/>
   </g>
   <g id="line2d_78">
    <path d="M 252.282347 169.953815 
L 250.358786 170.424087 
L 248.362016 170.516325 
L 246.346338 170.465298 
L 244.319081 170.32638 
L 242.273417 170.34689 
L 240.281422 170.862126 
L 238.418676 171.758554 
L 236.662178 172.86263 
L 235.037658 174.161241 
L 233.569331 175.637867 
L 232.279349 177.273114 
L 231.185724 179.044063 
L 230.302697 180.9258 
L 229.64094 182.892057 
L 229.207688 184.915636 
L 229.006915 186.968908 
L 229.038368 189.024202 
L 229.167893 191.067204 
L 229.259348 193.103421 
L 229.354384 195.1308 
L 229.466197 197.149308 
L 229.588206 199.160147 
L 229.712038 201.164759 
L 229.832379 203.164399 
L 229.946186 205.16013 
L 230.052306 207.152847 
L 230.151055 209.143315 
L 230.243761 211.132206 
L 230.332427 213.120121 
L 230.4192 215.107605 
" clip-path="url(#pd0e6cdac87)" style="fill: none; stroke: #ff0000; stroke-opacity: 0.6; stroke-width: 0.25; stroke-linecap: square"/>
   </g>
   <g id="line2d_79">
    <path d="M 252.282347 169.953815 
L 250.358557 170.423147 
L 248.361827 170.516524 
L 246.346099 170.466491 
L 244.318745 170.328515 
L 242.273052 170.350051 
L 240.281287 170.866358 
L 238.417602 171.760945 
L 236.66142 172.865627 
L 235.038653 174.16652 
L 233.572938 175.645825 
L 232.284667 177.282503 
L 231.191616 179.053881 
L 230.308386 180.935594 
L 229.646264 182.901793 
L 229.213065 184.925444 
L 229.012881 186.978828 
L 229.046611 189.034133 
L 229.177747 191.07707 
L 229.270208 193.113267 
L 229.365805 195.140629 
L 229.477891 197.159111 
L 229.600076 199.169909 
L 229.723984 201.174466 
L 229.844308 203.174038 
L 229.95801 205.16969 
L 230.063941 207.162316 
L 230.162419 209.152681 
L 230.254779 211.141458 
L 230.343035 213.12925 
L 230.42938 215.116599 
" clip-path="url(#pd0e6cdac87)" style="fill: none; stroke: #ff0000; stroke-opacity: 0.8; stroke-width: 0.25; stroke-linecap: square"/>
   </g>
   <g id="line2d_80">
    <path d="M 252.282347 169.953815 
L 250.357184 170.417484 
L 248.36056 170.513688 
L 246.344752 170.464847 
L 244.317325 170.326988 
L 242.271562 170.348416 
L 240.279474 170.863752 
L 238.41529 171.757456 
L 236.658913 172.861952 
L 235.036358 174.163216 
L 233.571172 175.643132 
L 232.283228 177.280133 
L 231.190212 179.051577 
L 230.306909 180.933275 
L 229.644835 182.899488 
L 229.211976 184.923187 
L 229.012408 186.976584 
L 229.047287 189.031795 
L 229.181751 191.074407 
L 229.275388 193.110395 
L 229.370657 195.137565 
L 229.481555 197.155841 
L 229.602458 199.166376 
L 229.724991 201.170613 
L 229.843869 203.169807 
L 229.956066 205.165022 
L 230.060431 207.157154 
L 230.157276 209.146972 
L 230.247944 211.135152 
L 230.334457 213.122301 
L 230.419098 215.108969 
" clip-path="url(#pd0e6cdac87)" style="fill: none; stroke: #ff0000; stroke-width: 0.25; stroke-linecap: square"/>
   </g>
   <g id="line2d_81">
    <path d="M 230.659333 137.398159 
L 230.720958 138.853627 
L 230.777283 140.304213 
L 230.829248 141.74981 
L 230.874243 143.190447 
L 230.909165 144.626139 
L 230.930355 146.05686 
L 230.945046 147.482428 
L 230.980975 148.9024 
L 230.991347 150.317611 
L 230.988452 151.727748 
L 230.943126 153.132143 
L 230.843473 154.528834 
L 230.675722 155.914233 
L 230.423633 157.282192 
L 230.067573 158.622403 
L 229.582862 159.917344 
L 228.948108 161.141545 
L 228.205244 162.299276 
L 227.378046 163.394415 
L 226.472435 164.421863 
L 225.493897 165.376446 
L 224.448208 166.253419 
L 223.341402 167.048465 
L 222.179744 167.757703 
L 220.969703 168.377691 
L 219.717893 168.905352 
L 218.431182 169.338218 
L 217.122384 169.696259 
L 215.816439 170.062939 
L 214.511113 170.431067 
" clip-path="url(#pd0e6cdac87)" style="fill: none; stroke: #ff0000; stroke-opacity: 0.2; stroke-width: 0.25; stroke-linecap: square"/>
   </g>
   <g id="line2d_82">
    <path d="M 230.659333 137.398159 
L 230.722075 138.853579 
L 230.779467 140.304247 
L 230.832648 141.750046 
L 230.87899 143.191004 
L 230.915375 144.62714 
L 230.938123 146.058432 
L 230.954302 147.48469 
L 230.991576 148.905442 
L 231.003299 150.321565 
L 231.001949 151.732731 
L 230.958152 153.138304 
L 230.859942 154.536328 
L 230.693418 155.923208 
L 230.442108 157.29275 
L 230.085957 158.634493 
L 229.599513 159.930481 
L 228.960334 161.154259 
L 228.21627 162.313287 
L 227.388082 163.409948 
L 226.481498 164.439046 
L 225.501993 165.395433 
L 224.455329 166.274385 
L 223.34752 167.071606 
L 222.18479 167.783206 
L 220.97353 168.405652 
L 219.72032 168.935808 
L 218.43192 169.370903 
L 217.116959 169.715045 
L 215.80559 170.071056 
L 214.496698 170.43534 
" clip-path="url(#pd0e6cdac87)" style="fill: none; stroke: #ff0000; stroke-opacity: 0.4; stroke-width: 0.25; stroke-linecap: square"/>
   </g>
   <g id="line2d_83">
    <path d="M 230.659333 137.398159 
L 230.723253 138.853528 
L 230.781554 140.304212 
L 230.835802 141.750076 
L 230.883377 143.19115 
L 230.921164 144.627459 
L 230.945482 146.058986 
L 230.962755 147.485542 
L 231.000471 148.906646 
L 231.01271 150.323179 
L 231.012278 151.734811 
L 230.969573 153.140935 
L 230.872613 154.539614 
L 230.707412 155.927273 
L 230.457295 157.297708 
L 230.101781 158.640355 
L 229.614534 159.936847 
L 228.971787 161.159652 
L 228.227214 162.31934 
L 227.399195 163.417218 
L 226.49263 164.447545 
L 225.512882 165.405045 
L 224.465625 166.284836 
L 223.356821 167.08245 
L 222.192694 167.793836 
L 220.979703 168.41537 
L 219.724556 168.943942 
L 218.434206 169.37704 
L 217.115552 169.711879 
L 215.800251 170.058128 
L 214.489163 170.419298 
" clip-path="url(#pd0e6cdac87)" style="fill: none; stroke: #ff0000; stroke-opacity: 0.6; stroke-width: 0.25; stroke-linecap: square"/>
   </g>
   <g id="line2d_84">
    <path d="M 230.659333 137.398159 
L 230.724004 138.853495 
L 230.78273 140.304191 
L 230.837539 141.75009 
L 230.885835 143.191226 
L 230.924527 144.627623 
L 230.949954 146.05927 
L 230.96773 147.485987 
L 231.005185 148.90729 
L 231.017314 150.324043 
L 231.017007 151.735919 
L 230.97471 153.142325 
L 230.878483 154.54135 
L 230.714348 155.929456 
L 230.465568 157.300482 
L 230.111448 158.643872 
L 229.625067 159.941098 
L 228.981565 161.163959 
L 228.236557 162.323863 
L 227.407961 163.421849 
L 226.500688 164.452155 
L 225.520123 165.409494 
L 224.471966 166.288981 
L 223.362207 167.086149 
L 222.197104 167.796969 
L 220.983151 168.417855 
L 219.727074 168.945719 
L 218.435821 169.378026 
L 217.116236 169.711746 
L 215.799329 170.054384 
L 214.487529 170.415389 
" clip-path="url(#pd0e6cdac87)" style="fill: none; stroke: #ff0000; stroke-opacity: 0.8; stroke-width: 0.25; stroke-linecap: square"/>
   </g>
   <g id="line2d_85">
    <path d="M 230.659333 137.398159 
L 230.724606 138.853468 
L 230.783923 140.304152 
L 230.839407 141.75005 
L 230.888458 143.191195 
L 230.927977 144.627616 
L 230.954294 146.059304 
L 230.972652 147.486081 
L 231.010285 148.907457 
L 231.022575 150.324297 
L 231.022254 151.736271 
L 230.979938 153.142784 
L 230.883701 154.541926 
L 230.71958 155.930161 
L 230.470841 157.301331 
L 230.116766 158.644882 
L 229.63032 159.942247 
L 228.98633 161.165031 
L 228.240903 162.324864 
L 227.41177 163.422661 
L 226.503924 164.452701 
L 225.522779 165.40971 
L 224.474062 166.288825 
L 223.363787 167.085608 
L 222.198231 167.796067 
L 220.983898 168.416657 
L 219.727499 168.944289 
L 218.435944 169.376359 
L 217.116174 169.710214 
L 215.798846 170.052093 
L 214.486791 170.412988 
" clip-path="url(#pd0e6cdac87)" style="fill: none; stroke: #ff0000; stroke-width: 0.25; stroke-linecap: square"/>
   </g>
   <g id="line2d_86">
    <path d="M 198.492949 180.093843 
L 199.873339 179.949835 
L 201.245044 179.808504 
L 202.607883 179.659325 
L 203.963059 179.504822 
L 205.311928 179.348204 
L 206.656008 179.193544 
L 207.996968 179.045997 
L 209.336583 178.912043 
L 210.669114 178.731298 
L 212.004787 178.578212 
L 213.335309 178.378576 
L 214.671794 178.204438 
L 216.019657 178.104032 
L 217.376106 178.140269 
L 218.710153 178.423857 
L 220.016192 178.845556 
L 221.295435 179.369358 
L 222.540276 179.994308 
L 223.742578 180.718304 
L 224.8938 181.538281 
L 225.985207 182.450297 
L 227.008191 183.449514 
L 227.954129 184.530674 
L 228.815279 185.687345 
L 229.584706 186.91226 
L 230.256226 188.197512 
L 230.824542 189.534589 
L 231.285172 190.914531 
L 231.635107 192.327862 
L 231.963378 193.746981 
" clip-path="url(#pd0e6cdac87)" style="fill: none; stroke: #ff0000; stroke-opacity: 0.2; stroke-width: 0.25; stroke-linecap: square"/>
   </g>
   <g id="line2d_87">
    <path d="M 198.492949 180.093843 
L 199.872839 179.945114 
L 201.244432 179.802943 
L 202.607136 179.652952 
L 203.962161 179.4977 
L 205.310873 179.340444 
L 206.6548 179.185321 
L 207.995625 179.037569 
L 209.335132 178.903776 
L 210.667294 178.721326 
L 212.002685 178.567029 
L 213.332439 178.363332 
L 214.667897 178.182644 
L 216.015174 178.076682 
L 217.371487 178.111907 
L 218.701498 178.41312 
L 220.00648 178.837546 
L 221.285144 179.362406 
L 222.529801 179.98757 
L 223.732025 180.711754 
L 224.883066 181.532255 
L 225.974228 182.445027 
L 226.997215 183.444868 
L 227.943129 184.526803 
L 228.804284 185.684327 
L 229.573571 186.910269 
L 230.244704 188.19673 
L 230.8122 189.535217 
L 231.271482 190.916721 
L 231.620506 192.331433 
L 231.957341 193.749719 
" clip-path="url(#pd0e6cdac87)" style="fill: none; stroke: #ff0000; stroke-opacity: 0.4; stroke-width: 0.25; stroke-linecap: square"/>
   </g>
   <g id="line2d_88">
    <path d="M 198.492949 180.093843 
L 199.872173 179.93906 
L 201.243757 179.793969 
L 202.606675 179.640816 
L 203.96212 179.482195 
L 205.311442 179.321405 
L 206.656163 179.162642 
L 207.997958 179.011214 
L 209.338615 178.873797 
L 210.672192 178.689754 
L 212.009159 178.534286 
L 213.340628 178.330168 
L 214.677807 178.148868 
L 216.026867 178.042741 
L 217.384906 178.079372 
L 218.712854 178.396963 
L 220.017916 178.826328 
L 221.296145 179.356182 
L 222.539982 179.986034 
L 223.741121 180.714448 
L 224.890789 181.538831 
L 225.980113 182.455402 
L 227.000457 183.459276 
L 227.943239 184.545073 
L 228.800816 185.706227 
L 229.566194 186.935469 
L 230.233195 188.224845 
L 230.796464 189.56582 
L 231.251533 190.949374 
L 231.595168 192.366033 
L 231.933858 193.784495 
" clip-path="url(#pd0e6cdac87)" style="fill: none; stroke: #ff0000; stroke-opacity: 0.6; stroke-width: 0.25; stroke-linecap: square"/>
   </g>
   <g id="line2d_89">
    <path d="M 198.492949 180.093843 
L 199.871951 179.937099 
L 201.243535 179.791405 
L 202.606491 179.637492 
L 203.962007 179.477935 
L 205.311428 179.316024 
L 206.656276 179.155953 
L 207.99823 179.003032 
L 209.339085 178.863953 
L 210.672935 178.678925 
L 212.010223 178.522422 
L 213.341989 178.317172 
L 214.679429 178.134144 
L 216.028849 178.026084 
L 217.387459 178.061056 
L 218.714109 178.386293 
L 220.019413 178.816657 
L 221.297871 179.347377 
L 222.541964 179.977935 
L 223.743397 180.70692 
L 224.893338 181.531866 
L 225.982753 182.449184 
L 227.002755 183.454195 
L 227.945059 184.541143 
L 228.802025 185.703439 
L 229.566711 186.93377 
L 230.23296 188.224163 
L 230.795437 189.566076 
L 231.249676 190.950492 
L 231.592237 192.367986 
L 231.932137 193.786732 
" clip-path="url(#pd0e6cdac87)" style="fill: none; stroke: #ff0000; stroke-opacity: 0.8; stroke-width: 0.25; stroke-linecap: square"/>
   </g>
   <g id="line2d_90">
    <path d="M 198.492949 180.093843 
L 199.871613 179.93415 
L 201.243189 179.787104 
L 202.606234 179.631643 
L 203.961923 179.470345 
L 205.311596 179.306507 
L 206.656771 179.144338 
L 207.99913 178.98918 
L 209.340473 178.847768 
L 210.675059 178.662308 
L 212.013159 178.505539 
L 213.345935 178.301092 
L 214.684444 178.119241 
L 216.034884 178.012453 
L 217.39438 178.04864 
L 218.721141 178.377215 
L 220.027001 178.808697 
L 221.305767 179.340872 
L 222.549892 179.973129 
L 223.751059 180.704002 
L 224.900417 181.53097 
L 225.988945 182.45037 
L 227.007813 183.457421 
L 227.948733 184.54635 
L 228.804062 185.710552 
L 229.566871 186.942681 
L 230.231024 188.234739 
L 230.791211 189.578156 
L 231.242999 190.963891 
L 231.582891 192.382526 
L 231.92276 193.801775 
" clip-path="url(#pd0e6cdac87)" style="fill: none; stroke: #ff0000; stroke-width: 0.25; stroke-linecap: square"/>
   </g>
   <g id="patch_15">
    <path d="M 103.104 307.584 
L 103.104 41.472 
" style="fill: none; stroke: #000000; stroke-width: 0.8; stroke-linejoin: miter; stroke-linecap: square"/>
   </g>
   <g id="patch_16">
    <path d="M 369.216 307.584 
L 369.216 41.472 
" style="fill: none; stroke: #000000; stroke-width: 0.8; stroke-linejoin: miter; stroke-linecap: square"/>
   </g>
   <g id="patch_17">
    <path d="M 103.104 307.584 
L 369.216 307.584 
" style="fill: none; stroke: #000000; stroke-width: 0.8; stroke-linejoin: miter; stroke-linecap: square"/>
   </g>
   <g id="patch_18">
    <path d="M 103.104 41.472 
L 369.216 41.472 
" style="fill: none; stroke: #000000; stroke-width: 0.8; stroke-linejoin: miter; stroke-linecap: square"/>
   </g>
   <g id="text_19">
    <!-- Time:  60 ms -->
    <g transform="translate(264.253887 54.7776) scale(0.1 -0.1)">
     <defs>
      <path id="DejaVuSans-54" d="M -19 4666 
L 3928 4666 
L 3928 4134 
L 2272 4134 
L 2272 0 
L 1638 0 
L 1638 4134 
L -19 4134 
L -19 4666 
z
" transform="scale(0.015625)"/>
      <path id="DejaVuSans-69" d="M 603 3500 
L 1178 3500 
L 1178 0 
L 603 0 
L 603 3500 
z
M 603 4863 
L 1178 4863 
L 1178 4134 
L 603 4134 
L 603 4863 
z
" transform="scale(0.015625)"/>
      <path id="DejaVuSans-6d" d="M 3328 2828 
Q 3544 3216 3844 3400 
Q 4144 3584 4550 3584 
Q 5097 3584 5394 3201 
Q 5691 2819 5691 2113 
L 5691 0 
L 5113 0 
L 5113 2094 
Q 5113 2597 4934 2840 
Q 4756 3084 4391 3084 
Q 3944 3084 3684 2787 
Q 3425 2491 3425 1978 
L 3425 0 
L 2847 0 
L 2847 2094 
Q 2847 2600 2669 2842 
Q 2491 3084 2119 3084 
Q 1678 3084 1418 2786 
Q 1159 2488 1159 1978 
L 1159 0 
L 581 0 
L 581 3500 
L 1159 3500 
L 1159 2956 
Q 1356 3278 1631 3431 
Q 1906 3584 2284 3584 
Q 2666 3584 2933 3390 
Q 3200 3197 3328 2828 
z
" transform="scale(0.015625)"/>
      <path id="DejaVuSans-65" d="M 3597 1894 
L 3597 1613 
L 953 1613 
Q 991 1019 1311 708 
Q 1631 397 2203 397 
Q 2534 397 2845 478 
Q 3156 559 3463 722 
L 3463 178 
Q 3153 47 2828 -22 
Q 2503 -91 2169 -91 
Q 1331 -91 842 396 
Q 353 884 353 1716 
Q 353 2575 817 3079 
Q 1281 3584 2069 3584 
Q 2775 3584 3186 3129 
Q 3597 2675 3597 1894 
z
M 3022 2063 
Q 3016 2534 2758 2815 
Q 2500 3097 2075 3097 
Q 1594 3097 1305 2825 
Q 1016 2553 972 2059 
L 3022 2063 
z
" transform="scale(0.015625)"/>
      <path id="DejaVuSans-3a" d="M 750 794 
L 1409 794 
L 1409 0 
L 750 0 
L 750 794 
z
M 750 3309 
L 1409 3309 
L 1409 2516 
L 750 2516 
L 750 3309 
z
" transform="scale(0.015625)"/>
      <path id="DejaVuSans-20" transform="scale(0.015625)"/>
      <path id="DejaVuSans-36" d="M 2113 2584 
Q 1688 2584 1439 2293 
Q 1191 2003 1191 1497 
Q 1191 994 1439 701 
Q 1688 409 2113 409 
Q 2538 409 2786 701 
Q 3034 994 3034 1497 
Q 3034 2003 2786 2293 
Q 2538 2584 2113 2584 
z
M 3366 4563 
L 3366 3988 
Q 3128 4100 2886 4159 
Q 2644 4219 2406 4219 
Q 1781 4219 1451 3797 
Q 1122 3375 1075 2522 
Q 1259 2794 1537 2939 
Q 1816 3084 2150 3084 
Q 2853 3084 3261 2657 
Q 3669 2231 3669 1497 
Q 3669 778 3244 343 
Q 2819 -91 2113 -91 
Q 1303 -91 875 529 
Q 447 1150 447 2328 
Q 447 3434 972 4092 
Q 1497 4750 2381 4750 
Q 2619 4750 2861 4703 
Q 3103 4656 3366 4563 
z
" transform="scale(0.015625)"/>
      <path id="DejaVuSans-73" d="M 2834 3397 
L 2834 2853 
Q 2591 2978 2328 3040 
Q 2066 3103 1784 3103 
Q 1356 3103 1142 2972 
Q 928 2841 928 2578 
Q 928 2378 1081 2264 
Q 1234 2150 1697 2047 
L 1894 2003 
Q 2506 1872 2764 1633 
Q 3022 1394 3022 966 
Q 3022 478 2636 193 
Q 2250 -91 1575 -91 
Q 1294 -91 989 -36 
Q 684 19 347 128 
L 347 722 
Q 666 556 975 473 
Q 1284 391 1588 391 
Q 1994 391 2212 530 
Q 2431 669 2431 922 
Q 2431 1156 2273 1281 
Q 2116 1406 1581 1522 
L 1381 1569 
Q 847 1681 609 1914 
Q 372 2147 372 2553 
Q 372 3047 722 3315 
Q 1072 3584 1716 3584 
Q 2034 3584 2315 3537 
Q 2597 3491 2834 3397 
z
" transform="scale(0.015625)"/>
     </defs>
     <use xlink:href="#DejaVuSans-54"/>
     <use xlink:href="#DejaVuSans-69" x="57.958984"/>
     <use xlink:href="#DejaVuSans-6d" x="85.742188"/>
     <use xlink:href="#DejaVuSans-65" x="183.154297"/>
     <use xlink:href="#DejaVuSans-3a" x="244.677734"/>
     <use xlink:href="#DejaVuSans-20" x="278.369141"/>
     <use xlink:href="#DejaVuSans-20" x="310.15625"/>
     <use xlink:href="#DejaVuSans-36" x="341.943359"/>
     <use xlink:href="#DejaVuSans-30" x="405.566406"/>
     <use xlink:href="#DejaVuSans-20" x="469.189453"/>
     <use xlink:href="#DejaVuSans-6d" x="500.976562"/>
     <use xlink:href="#DejaVuSans-73" x="598.388672"/>
    </g>
   </g>
  </g>
 </g>
 <defs>
  <clipPath id="pd0e6cdac87">
   <rect x="103.104" y="41.472" width="266.112" height="266.112"/>
  </clipPath>
 </defs>
</svg>
