<?xml version="1.0" encoding="utf-8" standalone="no"?>
<!DOCTYPE svg PUBLIC "-//W3C//DTD SVG 1.1//EN"
  "http://www.w3.org/Graphics/SVG/1.1/DTD/svg11.dtd">
<svg xmlns:xlink="http://www.w3.org/1999/xlink" width="460.8pt" height="345.6pt" viewBox="0 0 460.8 345.6" xmlns="http://www.w3.org/2000/svg" version="1.1">
 <metadata>
  <rdf:RDF xmlns:dc="http://purl.org/dc/elements/1.1/" xmlns:cc="http://creativecommons.org/ns#" xmlns:rdf="http://www.w3.org/1999/02/22-rdf-syntax-ns#">
   <cc:Work>
    <dc:type rdf:resource="http://purl.org/dc/dcmitype/StillImage"/>
    <dc:date>2024-01-23T14:21:39.294642</dc:date>
    <dc:format>image/svg+xml</dc:format>
    <dc:creator>
     <cc:Agent>
      <dc:title>Matplotlib v3.8.2, https://matplotlib.org/</dc:title>
     </cc:Agent>
    </dc:creator>
   </cc:Work>
  </rdf:RDF>
 </metadata>
 <defs>
  <style type="text/css">*{stroke-linejoin: round; stroke-linecap: butt}</style>
 </defs>
 <g id="figure_1">
  <g id="patch_1">
   <path d="M 0 345.6 
L 460.8 345.6 
L 460.8 0 
L 0 0 
z
" style="fill: #ffffff"/>
  </g>
  <g id="axes_1">
   <g id="patch_2">
    <path d="M 103.104 307.584 
L 369.216 307.584 
L 369.216 41.472 
L 103.104 41.472 
z
" style="fill: #ffffff"/>
   </g>
   <g id="patch_3">
    <path d="M 123.613561 165.844738 
L 111.971161 165.844737 
L 111.971161 171.499617 
L 123.613561 171.499618 
z
" clip-path="url(#p2b303611b6)" style="fill: #00008b"/>
   </g>
   <g id="patch_4">
    <path d="M 244.843264 56.290256 
L 244.84325 44.647856 
L 239.18837 44.647862 
L 239.188384 56.290262 
z
" clip-path="url(#p2b303611b6)" style="fill: #800000"/>
   </g>
   <g id="patch_5">
    <path d="M 227.476735 288.952759 
L 227.476741 300.595159 
L 233.131621 300.595156 
L 233.131615 288.952756 
z
" clip-path="url(#p2b303611b6)" style="fill: #006400"/>
   </g>
   <g id="patch_6">
    <path d="M 350.584867 183.211265 
L 362.227267 183.211259 
L 362.227263 177.556379 
L 350.584863 177.556385 
z
" clip-path="url(#p2b303611b6)" style="fill: #4b0082"/>
   </g>
   <g id="patch_7">
    <path d="M 244.84343 100.224979 
L 244.843146 88.582579 
L 239.188266 88.582717 
L 239.18855 100.225117 
z
" clip-path="url(#p2b303611b6)" style="fill: #0000ff"/>
   </g>
   <g id="patch_8">
    <path d="M 161.921708 165.846929 
L 150.279308 165.845031 
L 150.278386 171.499911 
L 161.920786 171.501809 
z
" clip-path="url(#p2b303611b6)" style="fill: #ff0000"/>
   </g>
   <g id="patch_9">
    <path d="M 309.763557 183.210318 
L 321.405957 183.211656 
L 321.406607 177.556776 
L 309.764207 177.555438 
z
" clip-path="url(#p2b303611b6)" style="fill: #dbdc56"/>
   </g>
   <g id="patch_10">
    <path d="M 244.856243 129.178047 
L 244.773009 117.535944 
L 239.118274 117.576372 
L 239.201508 129.218475 
z
" clip-path="url(#p2b303611b6)" style="fill: #9400d3"/>
   </g>
   <g id="patch_11">
    <path d="M 274.650217 182.946737 
L 286.288865 183.242287 
L 286.432418 177.589229 
L 274.79377 177.293679 
z
" clip-path="url(#p2b303611b6)" style="fill: #1e90ff"/>
   </g>
   <g id="patch_12">
    <path d="M 227.479831 236.493658 
L 227.476613 248.136058 
L 233.131493 248.137621 
L 233.134711 236.495221 
z
" clip-path="url(#p2b303611b6)" style="fill: #ff4500"/>
   </g>
   <g id="patch_13">
    <path d="M 197.678809 166.122722 
L 186.040584 165.810931 
L 185.889143 171.463782 
L 197.527367 171.775574 
z
" clip-path="url(#p2b303611b6)" style="fill: #7cfc00"/>
   </g>
   <g id="patch_14">
    <path d="M 227.876786 212.150327 
L 227.418176 223.78369 
L 233.068667 224.006444 
L 233.527277 212.37308 
z
" clip-path="url(#p2b303611b6)" style="fill: #ff00ff"/>
   </g>
   <g id="matplotlib.axis_1">
    <g id="xtick_1">
     <g id="line2d_1">
      <defs>
       <path id="md9053009c2" d="M 0 0 
L 0 3.5 
" style="stroke: #000000; stroke-width: 0.8"/>
      </defs>
      <g>
       <use xlink:href="#md9053009c2" x="103.104" y="307.584" style="stroke: #000000; stroke-width: 0.8"/>
      </g>
     </g>
     <g id="text_1">
      <!-- −40 -->
      <g transform="translate(92.551656 322.182437) scale(0.1 -0.1)">
       <defs>
        <path id="DejaVuSans-2212" d="M 678 2272 
L 4684 2272 
L 4684 1741 
L 678 1741 
L 678 2272 
z
" transform="scale(0.015625)"/>
        <path id="DejaVuSans-34" d="M 2419 4116 
L 825 1625 
L 2419 1625 
L 2419 4116 
z
M 2253 4666 
L 3047 4666 
L 3047 1625 
L 3713 1625 
L 3713 1100 
L 3047 1100 
L 3047 0 
L 2419 0 
L 2419 1100 
L 313 1100 
L 313 1709 
L 2253 4666 
z
" transform="scale(0.015625)"/>
        <path id="DejaVuSans-30" d="M 2034 4250 
Q 1547 4250 1301 3770 
Q 1056 3291 1056 2328 
Q 1056 1369 1301 889 
Q 1547 409 2034 409 
Q 2525 409 2770 889 
Q 3016 1369 3016 2328 
Q 3016 3291 2770 3770 
Q 2525 4250 2034 4250 
z
M 2034 4750 
Q 2819 4750 3233 4129 
Q 3647 3509 3647 2328 
Q 3647 1150 3233 529 
Q 2819 -91 2034 -91 
Q 1250 -91 836 529 
Q 422 1150 422 2328 
Q 422 3509 836 4129 
Q 1250 4750 2034 4750 
z
" transform="scale(0.015625)"/>
       </defs>
       <use xlink:href="#DejaVuSans-2212"/>
       <use xlink:href="#DejaVuSans-34" x="83.789062"/>
       <use xlink:href="#DejaVuSans-30" x="147.412109"/>
      </g>
     </g>
    </g>
    <g id="xtick_2">
     <g id="line2d_2">
      <g>
       <use xlink:href="#md9053009c2" x="136.368" y="307.584" style="stroke: #000000; stroke-width: 0.8"/>
      </g>
     </g>
     <g id="text_2">
      <!-- −30 -->
      <g transform="translate(125.815656 322.182437) scale(0.1 -0.1)">
       <defs>
        <path id="DejaVuSans-33" d="M 2597 2516 
Q 3050 2419 3304 2112 
Q 3559 1806 3559 1356 
Q 3559 666 3084 287 
Q 2609 -91 1734 -91 
Q 1441 -91 1130 -33 
Q 819 25 488 141 
L 488 750 
Q 750 597 1062 519 
Q 1375 441 1716 441 
Q 2309 441 2620 675 
Q 2931 909 2931 1356 
Q 2931 1769 2642 2001 
Q 2353 2234 1838 2234 
L 1294 2234 
L 1294 2753 
L 1863 2753 
Q 2328 2753 2575 2939 
Q 2822 3125 2822 3475 
Q 2822 3834 2567 4026 
Q 2313 4219 1838 4219 
Q 1578 4219 1281 4162 
Q 984 4106 628 3988 
L 628 4550 
Q 988 4650 1302 4700 
Q 1616 4750 1894 4750 
Q 2613 4750 3031 4423 
Q 3450 4097 3450 3541 
Q 3450 3153 3228 2886 
Q 3006 2619 2597 2516 
z
" transform="scale(0.015625)"/>
       </defs>
       <use xlink:href="#DejaVuSans-2212"/>
       <use xlink:href="#DejaVuSans-33" x="83.789062"/>
       <use xlink:href="#DejaVuSans-30" x="147.412109"/>
      </g>
     </g>
    </g>
    <g id="xtick_3">
     <g id="line2d_3">
      <g>
       <use xlink:href="#md9053009c2" x="169.632" y="307.584" style="stroke: #000000; stroke-width: 0.8"/>
      </g>
     </g>
     <g id="text_3">
      <!-- −20 -->
      <g transform="translate(159.079656 322.182437) scale(0.1 -0.1)">
       <defs>
        <path id="DejaVuSans-32" d="M 1228 531 
L 3431 531 
L 3431 0 
L 469 0 
L 469 531 
Q 828 903 1448 1529 
Q 2069 2156 2228 2338 
Q 2531 2678 2651 2914 
Q 2772 3150 2772 3378 
Q 2772 3750 2511 3984 
Q 2250 4219 1831 4219 
Q 1534 4219 1204 4116 
Q 875 4013 500 3803 
L 500 4441 
Q 881 4594 1212 4672 
Q 1544 4750 1819 4750 
Q 2544 4750 2975 4387 
Q 3406 4025 3406 3419 
Q 3406 3131 3298 2873 
Q 3191 2616 2906 2266 
Q 2828 2175 2409 1742 
Q 1991 1309 1228 531 
z
" transform="scale(0.015625)"/>
       </defs>
       <use xlink:href="#DejaVuSans-2212"/>
       <use xlink:href="#DejaVuSans-32" x="83.789062"/>
       <use xlink:href="#DejaVuSans-30" x="147.412109"/>
      </g>
     </g>
    </g>
    <g id="xtick_4">
     <g id="line2d_4">
      <g>
       <use xlink:href="#md9053009c2" x="202.896" y="307.584" style="stroke: #000000; stroke-width: 0.8"/>
      </g>
     </g>
     <g id="text_4">
      <!-- −10 -->
      <g transform="translate(192.343656 322.182437) scale(0.1 -0.1)">
       <defs>
        <path id="DejaVuSans-31" d="M 794 531 
L 1825 531 
L 1825 4091 
L 703 3866 
L 703 4441 
L 1819 4666 
L 2450 4666 
L 2450 531 
L 3481 531 
L 3481 0 
L 794 0 
L 794 531 
z
" transform="scale(0.015625)"/>
       </defs>
       <use xlink:href="#DejaVuSans-2212"/>
       <use xlink:href="#DejaVuSans-31" x="83.789062"/>
       <use xlink:href="#DejaVuSans-30" x="147.412109"/>
      </g>
     </g>
    </g>
    <g id="xtick_5">
     <g id="line2d_5">
      <g>
       <use xlink:href="#md9053009c2" x="236.16" y="307.584" style="stroke: #000000; stroke-width: 0.8"/>
      </g>
     </g>
     <g id="text_5">
      <!-- 0 -->
      <g transform="translate(232.97875 322.182437) scale(0.1 -0.1)">
       <use xlink:href="#DejaVuSans-30"/>
      </g>
     </g>
    </g>
    <g id="xtick_6">
     <g id="line2d_6">
      <g>
       <use xlink:href="#md9053009c2" x="269.424" y="307.584" style="stroke: #000000; stroke-width: 0.8"/>
      </g>
     </g>
     <g id="text_6">
      <!-- 10 -->
      <g transform="translate(263.0615 322.182437) scale(0.1 -0.1)">
       <use xlink:href="#DejaVuSans-31"/>
       <use xlink:href="#DejaVuSans-30" x="63.623047"/>
      </g>
     </g>
    </g>
    <g id="xtick_7">
     <g id="line2d_7">
      <g>
       <use xlink:href="#md9053009c2" x="302.688" y="307.584" style="stroke: #000000; stroke-width: 0.8"/>
      </g>
     </g>
     <g id="text_7">
      <!-- 20 -->
      <g transform="translate(296.3255 322.182437) scale(0.1 -0.1)">
       <use xlink:href="#DejaVuSans-32"/>
       <use xlink:href="#DejaVuSans-30" x="63.623047"/>
      </g>
     </g>
    </g>
    <g id="xtick_8">
     <g id="line2d_8">
      <g>
       <use xlink:href="#md9053009c2" x="335.952" y="307.584" style="stroke: #000000; stroke-width: 0.8"/>
      </g>
     </g>
     <g id="text_8">
      <!-- 30 -->
      <g transform="translate(329.5895 322.182437) scale(0.1 -0.1)">
       <use xlink:href="#DejaVuSans-33"/>
       <use xlink:href="#DejaVuSans-30" x="63.623047"/>
      </g>
     </g>
    </g>
    <g id="xtick_9">
     <g id="line2d_9">
      <g>
       <use xlink:href="#md9053009c2" x="369.216" y="307.584" style="stroke: #000000; stroke-width: 0.8"/>
      </g>
     </g>
     <g id="text_9">
      <!-- 40 -->
      <g transform="translate(362.8535 322.182437) scale(0.1 -0.1)">
       <use xlink:href="#DejaVuSans-34"/>
       <use xlink:href="#DejaVuSans-30" x="63.623047"/>
      </g>
     </g>
    </g>
   </g>
   <g id="matplotlib.axis_2">
    <g id="ytick_1">
     <g id="line2d_10">
      <defs>
       <path id="m69d975b6a5" d="M 0 0 
L -3.5 0 
" style="stroke: #000000; stroke-width: 0.8"/>
      </defs>
      <g>
       <use xlink:href="#m69d975b6a5" x="103.104" y="307.584" style="stroke: #000000; stroke-width: 0.8"/>
      </g>
     </g>
     <g id="text_10">
      <!-- −40 -->
      <g transform="translate(74.999313 311.383219) scale(0.1 -0.1)">
       <use xlink:href="#DejaVuSans-2212"/>
       <use xlink:href="#DejaVuSans-34" x="83.789062"/>
       <use xlink:href="#DejaVuSans-30" x="147.412109"/>
      </g>
     </g>
    </g>
    <g id="ytick_2">
     <g id="line2d_11">
      <g>
       <use xlink:href="#m69d975b6a5" x="103.104" y="274.32" style="stroke: #000000; stroke-width: 0.8"/>
      </g>
     </g>
     <g id="text_11">
      <!-- −30 -->
      <g transform="translate(74.999313 278.119219) scale(0.1 -0.1)">
       <use xlink:href="#DejaVuSans-2212"/>
       <use xlink:href="#DejaVuSans-33" x="83.789062"/>
       <use xlink:href="#DejaVuSans-30" x="147.412109"/>
      </g>
     </g>
    </g>
    <g id="ytick_3">
     <g id="line2d_12">
      <g>
       <use xlink:href="#m69d975b6a5" x="103.104" y="241.056" style="stroke: #000000; stroke-width: 0.8"/>
      </g>
     </g>
     <g id="text_12">
      <!-- −20 -->
      <g transform="translate(74.999313 244.855219) scale(0.1 -0.1)">
       <use xlink:href="#DejaVuSans-2212"/>
       <use xlink:href="#DejaVuSans-32" x="83.789062"/>
       <use xlink:href="#DejaVuSans-30" x="147.412109"/>
      </g>
     </g>
    </g>
    <g id="ytick_4">
     <g id="line2d_13">
      <g>
       <use xlink:href="#m69d975b6a5" x="103.104" y="207.792" style="stroke: #000000; stroke-width: 0.8"/>
      </g>
     </g>
     <g id="text_13">
      <!-- −10 -->
      <g transform="translate(74.999313 211.591219) scale(0.1 -0.1)">
       <use xlink:href="#DejaVuSans-2212"/>
       <use xlink:href="#DejaVuSans-31" x="83.789062"/>
       <use xlink:href="#DejaVuSans-30" x="147.412109"/>
      </g>
     </g>
    </g>
    <g id="ytick_5">
     <g id="line2d_14">
      <g>
       <use xlink:href="#m69d975b6a5" x="103.104" y="174.528" style="stroke: #000000; stroke-width: 0.8"/>
      </g>
     </g>
     <g id="text_14">
      <!-- 0 -->
      <g transform="translate(89.7415 178.327219) scale(0.1 -0.1)">
       <use xlink:href="#DejaVuSans-30"/>
      </g>
     </g>
    </g>
    <g id="ytick_6">
     <g id="line2d_15">
      <g>
       <use xlink:href="#m69d975b6a5" x="103.104" y="141.264" style="stroke: #000000; stroke-width: 0.8"/>
      </g>
     </g>
     <g id="text_15">
      <!-- 10 -->
      <g transform="translate(83.379 145.063219) scale(0.1 -0.1)">
       <use xlink:href="#DejaVuSans-31"/>
       <use xlink:href="#DejaVuSans-30" x="63.623047"/>
      </g>
     </g>
    </g>
    <g id="ytick_7">
     <g id="line2d_16">
      <g>
       <use xlink:href="#m69d975b6a5" x="103.104" y="108" style="stroke: #000000; stroke-width: 0.8"/>
      </g>
     </g>
     <g id="text_16">
      <!-- 20 -->
      <g transform="translate(83.379 111.799219) scale(0.1 -0.1)">
       <use xlink:href="#DejaVuSans-32"/>
       <use xlink:href="#DejaVuSans-30" x="63.623047"/>
      </g>
     </g>
    </g>
    <g id="ytick_8">
     <g id="line2d_17">
      <g>
       <use xlink:href="#m69d975b6a5" x="103.104" y="74.736" style="stroke: #000000; stroke-width: 0.8"/>
      </g>
     </g>
     <g id="text_17">
      <!-- 30 -->
      <g transform="translate(83.379 78.535219) scale(0.1 -0.1)">
       <use xlink:href="#DejaVuSans-33"/>
       <use xlink:href="#DejaVuSans-30" x="63.623047"/>
      </g>
     </g>
    </g>
    <g id="ytick_9">
     <g id="line2d_18">
      <g>
       <use xlink:href="#m69d975b6a5" x="103.104" y="41.472" style="stroke: #000000; stroke-width: 0.8"/>
      </g>
     </g>
     <g id="text_18">
      <!-- 40 -->
      <g transform="translate(83.379 45.271219) scale(0.1 -0.1)">
       <use xlink:href="#DejaVuSans-34"/>
       <use xlink:href="#DejaVuSans-30" x="63.623047"/>
      </g>
     </g>
    </g>
   </g>
   <g id="line2d_19">
    <path d="M 250.2972 288.4572 
L 250.2972 188.6652 
" clip-path="url(#p2b303611b6)" style="fill: none; stroke: #000000; stroke-width: 0.25; stroke-linecap: square"/>
   </g>
   <g id="line2d_20">
    <path d="M 250.2972 188.6652 
L 350.0892 188.6652 
" clip-path="url(#p2b303611b6)" style="fill: none; stroke: #000000; stroke-width: 0.25; stroke-linecap: square"/>
   </g>
   <g id="line2d_21">
    <path d="M 350.0892 160.3908 
L 250.2972 160.3908 
" clip-path="url(#p2b303611b6)" style="fill: none; stroke: #000000; stroke-width: 0.25; stroke-linecap: square"/>
   </g>
   <g id="line2d_22">
    <path d="M 250.2972 160.3908 
L 250.2972 60.5988 
" clip-path="url(#p2b303611b6)" style="fill: none; stroke: #000000; stroke-width: 0.25; stroke-linecap: square"/>
   </g>
   <g id="line2d_23">
    <path d="M 222.0228 60.5988 
L 222.0228 160.3908 
" clip-path="url(#p2b303611b6)" style="fill: none; stroke: #000000; stroke-width: 0.25; stroke-linecap: square"/>
   </g>
   <g id="line2d_24">
    <path d="M 222.0228 160.3908 
L 122.2308 160.3908 
" clip-path="url(#p2b303611b6)" style="fill: none; stroke: #000000; stroke-width: 0.25; stroke-linecap: square"/>
   </g>
   <g id="line2d_25">
    <path d="M 122.2308 188.6652 
L 222.0228 188.6652 
" clip-path="url(#p2b303611b6)" style="fill: none; stroke: #000000; stroke-width: 0.25; stroke-linecap: square"/>
   </g>
   <g id="line2d_26">
    <path d="M 222.0228 188.6652 
L 222.0228 288.4572 
" clip-path="url(#p2b303611b6)" style="fill: none; stroke: #000000; stroke-width: 0.25; stroke-linecap: square"/>
   </g>
   <g id="line2d_27">
    <path d="M 250.2972 174.528 
L 350.0892 174.528 
" clip-path="url(#p2b303611b6)" style="fill: none; stroke-dasharray: 0.925,0.4; stroke-dashoffset: 0; stroke: #000000; stroke-width: 0.25"/>
   </g>
   <g id="line2d_28">
    <path d="M 236.16 160.3908 
L 236.16 60.5988 
" clip-path="url(#p2b303611b6)" style="fill: none; stroke-dasharray: 0.925,0.4; stroke-dashoffset: 0; stroke: #000000; stroke-width: 0.25"/>
   </g>
   <g id="line2d_29">
    <path d="M 222.0228 174.528 
L 122.2308 174.528 
" clip-path="url(#p2b303611b6)" style="fill: none; stroke-dasharray: 0.925,0.4; stroke-dashoffset: 0; stroke: #000000; stroke-width: 0.25"/>
   </g>
   <g id="line2d_30">
    <path d="M 236.16 188.6652 
L 236.16 288.4572 
" clip-path="url(#p2b303611b6)" style="fill: none; stroke-dasharray: 0.925,0.4; stroke-dashoffset: 0; stroke: #000000; stroke-width: 0.25"/>
   </g>
   <g id="line2d_31">
    <path d="M 119.420195 168.672177 
L 117.792361 168.672177 
L 116.164436 168.672178 
L 114.536424 168.672178 
L 112.908331 168.672178 
L 111.280162 168.672178 
L 109.651922 168.672179 
L 108.023616 168.672179 
L 106.39525 168.672179 
L 104.766826 168.672179 
L 103.138351 168.672179 
L 101.509827 168.67218 
L 99.88126 168.67218 
L 98.252653 168.67218 
L 96.62401 168.67218 
L 94.995333 168.67218 
L 93.366627 168.67218 
L 91.737895 168.67218 
L 90.109139 168.67218 
L 88.480362 168.67218 
L 86.851567 168.67218 
L 85.222756 168.67218 
L 83.593932 168.67218 
L 81.965095 168.67218 
L 80.336249 168.67218 
L 78.707395 168.67218 
L 77.078534 168.67218 
L 75.449669 168.67218 
L 73.820799 168.67218 
L 72.191928 168.67218 
L 70.563054 168.67218 
" clip-path="url(#p2b303611b6)" style="fill: none; stroke: #ff0000; stroke-opacity: 0.2; stroke-width: 0.25; stroke-linecap: square"/>
   </g>
   <g id="line2d_32">
    <path d="M 119.420195 168.672177 
L 117.792361 168.672177 
L 116.164436 168.672178 
L 114.536424 168.672178 
L 112.908331 168.672178 
L 111.280162 168.672178 
L 109.651923 168.672179 
L 108.023618 168.672179 
L 106.395252 168.672179 
L 104.76683 168.672179 
L 103.138356 168.672179 
L 101.509834 168.67218 
L 99.881269 168.67218 
L 98.252664 168.67218 
L 96.624023 168.67218 
L 94.995349 168.67218 
L 93.366646 168.67218 
L 91.737918 168.67218 
L 90.109166 168.67218 
L 88.480394 168.67218 
L 86.851604 168.67218 
L 85.222798 168.67218 
L 83.59398 168.67218 
L 81.96515 168.67218 
L 80.336311 168.67218 
L 78.707465 168.67218 
L 77.078612 168.67218 
L 75.449756 168.67218 
L 73.820896 168.67218 
L 72.192034 168.67218 
L 70.563172 168.67218 
" clip-path="url(#p2b303611b6)" style="fill: none; stroke: #ff0000; stroke-opacity: 0.4; stroke-width: 0.25; stroke-linecap: square"/>
   </g>
   <g id="line2d_33">
    <path d="M 119.420195 168.672177 
L 117.792361 168.672177 
L 116.164436 168.672178 
L 114.536424 168.672178 
L 112.908331 168.672178 
L 111.280162 168.672178 
L 109.651922 168.672179 
L 108.023617 168.672179 
L 106.39525 168.672179 
L 104.766827 168.672179 
L 103.138352 168.672179 
L 101.509829 168.67218 
L 99.881262 168.67218 
L 98.252656 168.67218 
L 96.624013 168.67218 
L 94.995338 168.67218 
L 93.366634 168.67218 
L 91.737903 168.67218 
L 90.109148 168.67218 
L 88.480374 168.67218 
L 86.851581 168.67218 
L 85.222772 168.67218 
L 83.593951 168.67218 
L 81.965117 168.67218 
L 80.336274 168.67218 
L 78.707424 168.67218 
L 77.078567 168.67218 
L 75.449706 168.67218 
L 73.820841 168.67218 
L 72.191974 168.67218 
L 70.563106 168.67218 
" clip-path="url(#p2b303611b6)" style="fill: none; stroke: #ff0000; stroke-opacity: 0.6; stroke-width: 0.25; stroke-linecap: square"/>
   </g>
   <g id="line2d_34">
    <path d="M 119.420195 168.672177 
L 117.792361 168.672177 
L 116.164436 168.672178 
L 114.536424 168.672178 
L 112.908331 168.672178 
L 111.280162 168.672178 
L 109.651923 168.672179 
L 108.023618 168.672179 
L 106.395252 168.672179 
L 104.766829 168.672179 
L 103.138355 168.672179 
L 101.509832 168.67218 
L 99.881267 168.67218 
L 98.252661 168.67218 
L 96.624019 168.67218 
L 94.995345 168.67218 
L 93.366642 168.67218 
L 91.737912 168.67218 
L 90.109159 168.67218 
L 88.480386 168.67218 
L 86.851595 168.67218 
L 85.222788 168.67218 
L 83.593968 168.67218 
L 81.965137 168.67218 
L 80.336296 168.67218 
L 78.707448 168.67218 
L 77.078593 168.67218 
L 75.449734 168.67218 
L 73.820872 168.67218 
L 72.192008 168.67218 
L 70.563143 168.67218 
" clip-path="url(#p2b303611b6)" style="fill: none; stroke: #ff0000; stroke-opacity: 0.8; stroke-width: 0.25; stroke-linecap: square"/>
   </g>
   <g id="line2d_35">
    <path d="M 119.420195 168.672177 
L 117.792361 168.672177 
L 116.164436 168.672178 
L 114.536424 168.672178 
L 112.908331 168.672178 
L 111.280162 168.672178 
L 109.651922 168.672179 
L 108.023617 168.672179 
L 106.395251 168.672179 
L 104.766828 168.672179 
L 103.138353 168.672179 
L 101.50983 168.67218 
L 99.881264 168.67218 
L 98.252658 168.67218 
L 96.624016 168.67218 
L 94.995341 168.67218 
L 93.366637 168.67218 
L 91.737906 168.67218 
L 90.109153 168.67218 
L 88.480379 168.67218 
L 86.851586 168.67218 
L 85.222779 168.67218 
L 83.593958 168.67218 
L 81.965125 168.67218 
L 80.336283 168.67218 
L 78.707434 168.67218 
L 77.078578 168.67218 
L 75.449718 168.67218 
L 73.820855 168.67218 
L 72.191989 168.67218 
L 70.563122 168.67218 
" clip-path="url(#p2b303611b6)" style="fill: none; stroke: #ff0000; stroke-width: 0.25; stroke-linecap: square"/>
   </g>
   <g id="line2d_36">
    <path d="M 242.015817 51.977198 
L 242.015817 50.469059 
L 242.015816 48.961057 
L 242.015816 47.453187 
L 242.015816 45.945446 
L 242.015816 44.43783 
L 242.015817 42.930333 
L 242.015817 41.422952 
L 242.015817 39.91568 
L 242.015817 38.408512 
L 242.015818 36.901443 
L 242.015818 35.394467 
L 242.015818 33.887578 
L 242.015818 32.380771 
L 242.015819 30.874041 
L 242.015819 29.367381 
L 242.015819 27.860787 
L 242.015819 26.354252 
L 242.015819 24.847771 
L 242.01582 23.34134 
L 242.01582 21.834953 
L 242.01582 20.328604 
L 242.01582 18.822291 
L 242.01582 17.316007 
L 242.01582 15.809748 
L 242.01582 14.303511 
L 242.01582 12.797291 
L 242.01582 11.291085 
L 242.01582 9.784889 
L 242.01582 8.2787 
L 242.01582 6.772515 
" clip-path="url(#p2b303611b6)" style="fill: none; stroke: #ff0000; stroke-opacity: 0.2; stroke-width: 0.25; stroke-linecap: square"/>
   </g>
   <g id="line2d_37">
    <path d="M 242.015817 51.977198 
L 242.015817 50.469059 
L 242.015816 48.961056 
L 242.015816 47.453184 
L 242.015816 45.945439 
L 242.015816 44.437819 
L 242.015817 42.930316 
L 242.015817 41.422927 
L 242.015817 39.915646 
L 242.015817 38.408468 
L 242.015818 36.901387 
L 242.015818 35.394398 
L 242.015818 33.887494 
L 242.015818 32.380671 
L 242.015819 30.873922 
L 242.015819 29.367242 
L 242.015819 27.860626 
L 242.015819 26.354067 
L 242.015819 24.84756 
L 242.015819 23.341101 
L 242.01582 21.834684 
L 242.01582 20.328304 
L 242.01582 18.821956 
L 242.01582 17.315636 
L 242.01582 15.80934 
L 242.01582 14.303063 
L 242.01582 12.796802 
L 242.01582 11.290552 
L 242.01582 9.784311 
L 242.01582 8.278074 
L 242.01582 6.77184 
" clip-path="url(#p2b303611b6)" style="fill: none; stroke: #ff0000; stroke-opacity: 0.4; stroke-width: 0.25; stroke-linecap: square"/>
   </g>
   <g id="line2d_38">
    <path d="M 242.015817 51.977198 
L 242.015817 50.469059 
L 242.015817 48.961056 
L 242.015816 47.453186 
L 242.015816 45.945444 
L 242.015816 44.437826 
L 242.015817 42.930327 
L 242.015817 41.422943 
L 242.015817 39.915668 
L 242.015817 38.408496 
L 242.015818 36.901422 
L 242.015818 35.394441 
L 242.015818 33.887546 
L 242.015818 32.380733 
L 242.015819 30.873995 
L 242.015819 29.367327 
L 242.015819 27.860723 
L 242.015819 26.354178 
L 242.015819 24.847687 
L 242.01582 23.341243 
L 242.01582 21.834843 
L 242.01582 20.32848 
L 242.01582 18.822152 
L 242.01582 17.315852 
L 242.01582 15.809576 
L 242.01582 14.303321 
L 242.01582 12.797082 
L 242.01582 11.290855 
L 242.01582 9.784638 
L 242.01582 8.278427 
L 242.01582 6.772219 
" clip-path="url(#p2b303611b6)" style="fill: none; stroke: #ff0000; stroke-opacity: 0.6; stroke-width: 0.25; stroke-linecap: square"/>
   </g>
   <g id="line2d_39">
    <path d="M 242.015817 51.977198 
L 242.015817 50.469059 
L 242.015817 48.961056 
L 242.015816 47.453184 
L 242.015816 45.945441 
L 242.015816 44.437821 
L 242.015817 42.93032 
L 242.015817 41.422933 
L 242.015817 39.915654 
L 242.015817 38.408479 
L 242.015818 36.901401 
L 242.015818 35.394415 
L 242.015818 33.887515 
L 242.015818 32.380696 
L 242.015819 30.873951 
L 242.015819 29.367276 
L 242.015819 27.860665 
L 242.015819 26.354112 
L 242.015819 24.847612 
L 242.015819 23.34116 
L 242.01582 21.83475 
L 242.01582 20.328378 
L 242.01582 18.822038 
L 242.01582 17.315727 
L 242.01582 15.80944 
L 242.01582 14.303173 
L 242.01582 12.796922 
L 242.01582 11.290683 
L 242.01582 9.784453 
L 242.01582 8.278228 
L 242.01582 6.772006 
" clip-path="url(#p2b303611b6)" style="fill: none; stroke: #ff0000; stroke-opacity: 0.8; stroke-width: 0.25; stroke-linecap: square"/>
   </g>
   <g id="line2d_40">
    <path d="M 242.015817 51.977198 
L 242.015817 50.469059 
L 242.015817 48.961056 
L 242.015816 47.453185 
L 242.015816 45.945443 
L 242.015816 44.437824 
L 242.015817 42.930325 
L 242.015817 41.422939 
L 242.015817 39.915662 
L 242.015817 38.408489 
L 242.015818 36.901413 
L 242.015818 35.39443 
L 242.015818 33.887534 
L 242.015818 32.380718 
L 242.015819 30.873977 
L 242.015819 29.367306 
L 242.015819 27.860699 
L 242.015819 26.354151 
L 242.015819 24.847656 
L 242.015819 23.341208 
L 242.01582 21.834804 
L 242.01582 20.328437 
L 242.01582 18.822104 
L 242.01582 17.315799 
L 242.01582 15.809518 
L 242.01582 14.303257 
L 242.01582 12.797013 
L 242.01582 11.290781 
L 242.01582 9.784558 
L 242.01582 8.27834 
L 242.01582 6.772126 
" clip-path="url(#p2b303611b6)" style="fill: none; stroke: #ff0000; stroke-width: 0.25; stroke-linecap: square"/>
   </g>
   <g id="line2d_41">
    <path d="M 230.304178 293.165936 
L 230.304178 294.773958 
L 230.304179 296.381971 
L 230.304179 297.989976 
L 230.304179 299.597972 
L 230.30418 301.205959 
L 230.30418 302.813937 
L 230.30418 304.421906 
L 230.30418 306.029866 
L 230.30418 307.637816 
L 230.30418 309.245758 
L 230.30418 310.853692 
L 230.30418 312.461617 
L 230.30418 314.069534 
L 230.30418 315.677443 
L 230.30418 317.285345 
L 230.30418 318.893241 
L 230.30418 320.50113 
L 230.30418 322.109013 
L 230.30418 323.716891 
L 230.30418 325.324764 
L 230.30418 326.932632 
L 230.30418 328.540496 
L 230.30418 330.148357 
L 230.30418 331.756215 
L 230.30418 333.36407 
L 230.30418 334.971923 
L 230.30418 336.579775 
L 230.30418 338.187625 
L 230.30418 339.795474 
L 230.30418 341.403323 
" clip-path="url(#p2b303611b6)" style="fill: none; stroke: #ff0000; stroke-opacity: 0.2; stroke-width: 0.25; stroke-linecap: square"/>
   </g>
   <g id="line2d_42">
    <path d="M 230.304178 293.165936 
L 230.304178 294.773958 
L 230.304179 296.381971 
L 230.304179 297.989977 
L 230.304179 299.597973 
L 230.30418 301.205961 
L 230.30418 302.81394 
L 230.30418 304.42191 
L 230.30418 306.029872 
L 230.30418 307.637824 
L 230.30418 309.245768 
L 230.30418 310.853704 
L 230.30418 312.461631 
L 230.30418 314.069551 
L 230.30418 315.677464 
L 230.30418 317.28537 
L 230.30418 318.893269 
L 230.30418 320.501162 
L 230.30418 322.109049 
L 230.30418 323.716931 
L 230.30418 325.324809 
L 230.30418 326.932683 
L 230.30418 328.540552 
L 230.30418 330.148419 
L 230.30418 331.756283 
L 230.30418 333.364144 
L 230.30418 334.972004 
L 230.30418 336.579862 
L 230.30418 338.187719 
L 230.30418 339.795576 
L 230.30418 341.403432 
" clip-path="url(#p2b303611b6)" style="fill: none; stroke: #ff0000; stroke-opacity: 0.4; stroke-width: 0.25; stroke-linecap: square"/>
   </g>
   <g id="line2d_43">
    <path d="M 230.304178 293.165936 
L 230.304178 294.773958 
L 230.304179 296.381971 
L 230.304179 297.989976 
L 230.304179 299.597973 
L 230.30418 301.20596 
L 230.30418 302.813938 
L 230.30418 304.421908 
L 230.30418 306.029868 
L 230.30418 307.637819 
L 230.30418 309.245762 
L 230.30418 310.853696 
L 230.30418 312.461622 
L 230.30418 314.069541 
L 230.30418 315.677451 
L 230.30418 317.285355 
L 230.30418 318.893252 
L 230.30418 320.501143 
L 230.30418 322.109028 
L 230.30418 323.716908 
L 230.30418 325.324782 
L 230.30418 326.932653 
L 230.30418 328.54052 
L 230.30418 330.148383 
L 230.30418 331.756244 
L 230.30418 333.364102 
L 230.30418 334.971958 
L 230.30418 336.579812 
L 230.30418 338.187666 
L 230.30418 339.795519 
L 230.30418 341.403371 
" clip-path="url(#p2b303611b6)" style="fill: none; stroke: #ff0000; stroke-opacity: 0.6; stroke-width: 0.25; stroke-linecap: square"/>
   </g>
   <g id="line2d_44">
    <path d="M 230.304178 293.165936 
L 230.304178 294.773958 
L 230.304179 296.381971 
L 230.304179 297.989977 
L 230.304179 299.597973 
L 230.30418 301.205961 
L 230.30418 302.81394 
L 230.30418 304.421909 
L 230.30418 306.02987 
L 230.30418 307.637822 
L 230.30418 309.245766 
L 230.30418 310.853701 
L 230.30418 312.461628 
L 230.30418 314.069547 
L 230.30418 315.677459 
L 230.30418 317.285364 
L 230.30418 318.893262 
L 230.30418 320.501154 
L 230.30418 322.10904 
L 230.30418 323.716921 
L 230.30418 325.324798 
L 230.30418 326.93267 
L 230.30418 328.540539 
L 230.30418 330.148404 
L 230.30418 331.756266 
L 230.30418 333.364126 
L 230.30418 334.971984 
L 230.30418 336.579841 
L 230.30418 338.187696 
L 230.30418 339.795551 
L 230.30418 341.403406 
" clip-path="url(#p2b303611b6)" style="fill: none; stroke: #ff0000; stroke-opacity: 0.8; stroke-width: 0.25; stroke-linecap: square"/>
   </g>
   <g id="line2d_45">
    <path d="M 230.304178 293.165936 
L 230.304178 294.773958 
L 230.304179 296.381971 
L 230.304179 297.989976 
L 230.304179 299.597973 
L 230.30418 301.20596 
L 230.30418 302.813939 
L 230.30418 304.421908 
L 230.30418 306.029869 
L 230.30418 307.637821 
L 230.30418 309.245764 
L 230.30418 310.853698 
L 230.30418 312.461625 
L 230.30418 314.069543 
L 230.30418 315.677454 
L 230.30418 317.285359 
L 230.30418 318.893256 
L 230.30418 320.501147 
L 230.30418 322.109033 
L 230.30418 323.716913 
L 230.30418 325.324789 
L 230.30418 326.93266 
L 230.30418 328.540528 
L 230.30418 330.148392 
L 230.30418 331.756253 
L 230.30418 333.364112 
L 230.30418 334.971969 
L 230.30418 336.579825 
L 230.30418 338.187679 
L 230.30418 339.795533 
L 230.30418 341.403386 
" clip-path="url(#p2b303611b6)" style="fill: none; stroke: #ff0000; stroke-width: 0.25; stroke-linecap: square"/>
   </g>
   <g id="line2d_46">
    <path d="M 354.798332 180.383823 
L 356.406065 180.383822 
L 358.013819 180.383821 
L 359.621592 180.383821 
L 361.229381 180.38382 
L 362.837187 180.38382 
L 364.445005 180.38382 
L 366.052836 180.38382 
L 367.660678 180.38382 
L 369.26853 180.38382 
L 370.876389 180.38382 
L 372.484257 180.383819 
L 374.09213 180.383819 
L 375.700009 180.383819 
L 377.307893 180.38382 
L 378.915781 180.38382 
L 380.523672 180.38382 
L 382.131566 180.38382 
L 383.739462 180.38382 
L 385.34736 180.38382 
L 386.955259 180.38382 
L 388.563159 180.38382 
L 390.171061 180.38382 
L 391.778963 180.38382 
L 393.386865 180.38382 
L 394.994768 180.38382 
L 396.602671 180.38382 
L 398.210574 180.38382 
L 399.818478 180.38382 
L 401.426381 180.38382 
L 403.034284 180.38382 
" clip-path="url(#p2b303611b6)" style="fill: none; stroke: #ff0000; stroke-opacity: 0.2; stroke-width: 0.25; stroke-linecap: square"/>
   </g>
   <g id="line2d_47">
    <path d="M 354.798332 180.383823 
L 356.406065 180.383822 
L 358.013819 180.383821 
L 359.621592 180.383821 
L 361.229382 180.383821 
L 362.837188 180.38382 
L 364.445007 180.38382 
L 366.052839 180.38382 
L 367.660682 180.38382 
L 369.268535 180.38382 
L 370.876396 180.38382 
L 372.484265 180.383819 
L 374.09214 180.383819 
L 375.70002 180.383819 
L 377.307906 180.38382 
L 378.915795 180.38382 
L 380.523688 180.38382 
L 382.131584 180.38382 
L 383.739483 180.38382 
L 385.347383 180.38382 
L 386.955285 180.38382 
L 388.563187 180.38382 
L 390.171091 180.38382 
L 391.778996 180.38382 
L 393.386901 180.38382 
L 394.994807 180.38382 
L 396.602713 180.38382 
L 398.210619 180.38382 
L 399.818525 180.38382 
L 401.426431 180.38382 
L 403.034337 180.38382 
" clip-path="url(#p2b303611b6)" style="fill: none; stroke: #ff0000; stroke-opacity: 0.4; stroke-width: 0.25; stroke-linecap: square"/>
   </g>
   <g id="line2d_48">
    <path d="M 354.798332 180.383823 
L 356.406065 180.383822 
L 358.013819 180.383821 
L 359.621592 180.383821 
L 361.229382 180.383821 
L 362.837187 180.38382 
L 364.445006 180.38382 
L 366.052838 180.38382 
L 367.66068 180.38382 
L 369.268532 180.38382 
L 370.876392 180.38382 
L 372.48426 180.383819 
L 374.092134 180.383819 
L 375.700014 180.383819 
L 377.307899 180.38382 
L 378.915787 180.38382 
L 380.523679 180.38382 
L 382.131574 180.38382 
L 383.739471 180.38382 
L 385.34737 180.38382 
L 386.95527 180.38382 
L 388.563172 180.38382 
L 390.171074 180.38382 
L 391.778977 180.38382 
L 393.386881 180.38382 
L 394.994785 180.38382 
L 396.602689 180.38382 
L 398.210594 180.38382 
L 399.818498 180.38382 
L 401.426403 180.38382 
L 403.034307 180.38382 
" clip-path="url(#p2b303611b6)" style="fill: none; stroke: #ff0000; stroke-opacity: 0.6; stroke-width: 0.25; stroke-linecap: square"/>
   </g>
   <g id="line2d_49">
    <path d="M 354.798332 180.383823 
L 356.406065 180.383822 
L 358.013819 180.383821 
L 359.621592 180.383821 
L 361.229382 180.383821 
L 362.837188 180.38382 
L 364.445007 180.38382 
L 366.052839 180.38382 
L 367.660681 180.38382 
L 369.268534 180.38382 
L 370.876394 180.38382 
L 372.484263 180.383819 
L 374.092137 180.383819 
L 375.700018 180.383819 
L 377.307903 180.38382 
L 378.915792 180.38382 
L 380.523684 180.38382 
L 382.13158 180.38382 
L 383.739477 180.38382 
L 385.347377 180.38382 
L 386.955278 180.38382 
L 388.563181 180.38382 
L 390.171084 180.38382 
L 391.778988 180.38382 
L 393.386892 180.38382 
L 394.994797 180.38382 
L 396.602702 180.38382 
L 398.210608 180.38382 
L 399.818513 180.38382 
L 401.426419 180.38382 
L 403.034324 180.38382 
" clip-path="url(#p2b303611b6)" style="fill: none; stroke: #ff0000; stroke-opacity: 0.8; stroke-width: 0.25; stroke-linecap: square"/>
   </g>
   <g id="line2d_50">
    <path d="M 354.798332 180.383823 
L 356.406065 180.383822 
L 358.013819 180.383821 
L 359.621592 180.383821 
L 361.229382 180.383821 
L 362.837187 180.38382 
L 364.445007 180.38382 
L 366.052838 180.38382 
L 367.66068 180.38382 
L 369.268533 180.38382 
L 370.876393 180.38382 
L 372.484261 180.383819 
L 374.092136 180.383819 
L 375.700016 180.383819 
L 377.3079 180.38382 
L 378.915789 180.38382 
L 380.523681 180.38382 
L 382.131576 180.38382 
L 383.739474 180.38382 
L 385.347373 180.38382 
L 386.955274 180.38382 
L 388.563175 180.38382 
L 390.171078 180.38382 
L 391.778982 180.38382 
L 393.386886 180.38382 
L 394.99479 180.38382 
L 396.602695 180.38382 
L 398.2106 180.38382 
L 399.818505 180.38382 
L 401.42641 180.38382 
L 403.034315 180.38382 
" clip-path="url(#p2b303611b6)" style="fill: none; stroke: #ff0000; stroke-width: 0.25; stroke-linecap: square"/>
   </g>
   <g id="line2d_51">
    <path d="M 242.015863 95.987352 
L 242.015844 94.403848 
L 242.015827 92.818243 
L 242.015814 91.230632 
L 242.015804 89.641114 
L 242.015797 88.049785 
L 242.015793 86.456745 
L 242.01579 84.862091 
L 242.015789 83.265921 
L 242.01579 81.668331 
L 242.015791 80.069414 
L 242.015792 78.469265 
L 242.015794 76.867973 
L 242.015797 75.265626 
L 242.015799 73.662309 
L 242.015801 72.058104 
L 242.015804 70.453091 
L 242.015806 68.847346 
L 242.015808 67.240942 
L 242.01581 65.633947 
L 242.015812 64.02643 
L 242.015813 62.418452 
L 242.015815 60.810073 
L 242.015816 59.201349 
L 242.015817 57.592333 
L 242.015818 55.983075 
L 242.015818 54.37362 
L 242.015819 52.764011 
L 242.01582 51.154289 
L 242.01582 49.54449 
L 242.015821 47.934647 
" clip-path="url(#p2b303611b6)" style="fill: none; stroke: #ff0000; stroke-opacity: 0.2; stroke-width: 0.25; stroke-linecap: square"/>
   </g>
   <g id="line2d_52">
    <path d="M 242.015863 95.987352 
L 242.015846 94.403848 
L 242.015828 92.81825 
L 242.015815 91.230655 
L 242.015805 89.641161 
L 242.015798 88.049866 
L 242.015794 86.456869 
L 242.015791 84.862269 
L 242.01579 83.266165 
L 242.01579 81.668652 
L 242.015791 80.069827 
L 242.015792 78.469781 
L 242.015794 76.868607 
L 242.015796 75.266393 
L 242.015799 73.663225 
L 242.015801 72.059185 
L 242.015803 70.454354 
L 242.015805 68.848808 
L 242.015808 67.24262 
L 242.01581 65.635861 
L 242.015811 64.028598 
L 242.015813 62.420894 
L 242.015814 60.812807 
L 242.015816 59.204396 
L 242.015817 57.595713 
L 242.015818 55.986807 
L 242.015819 54.377725 
L 242.015819 52.76851 
L 242.01582 51.159201 
L 242.015821 49.549834 
L 242.015821 47.940443 
" clip-path="url(#p2b303611b6)" style="fill: none; stroke: #ff0000; stroke-opacity: 0.4; stroke-width: 0.25; stroke-linecap: square"/>
   </g>
   <g id="line2d_53">
    <path d="M 242.015863 95.987352 
L 242.015847 94.403848 
L 242.01583 92.818245 
L 242.015816 91.230639 
L 242.015806 89.641127 
L 242.015799 88.049809 
L 242.015794 86.456784 
L 242.015791 84.862148 
L 242.01579 83.266001 
L 242.01579 81.668439 
L 242.015791 80.069556 
L 242.015792 78.469446 
L 242.015794 76.8682 
L 242.015796 75.265905 
L 242.015799 73.662648 
L 242.015801 72.05851 
L 242.015803 70.453572 
L 242.015806 68.847911 
L 242.015808 67.241599 
L 242.01581 65.634706 
L 242.015811 64.0273 
L 242.015813 62.419443 
L 242.015814 60.811195 
L 242.015816 59.202612 
L 242.015817 57.593747 
L 242.015818 55.984651 
L 242.015818 54.375369 
L 242.015819 52.765944 
L 242.01582 51.156417 
L 242.01582 49.546823 
L 242.015821 47.937196 
" clip-path="url(#p2b303611b6)" style="fill: none; stroke: #ff0000; stroke-opacity: 0.6; stroke-width: 0.25; stroke-linecap: square"/>
   </g>
   <g id="line2d_54">
    <path d="M 242.015863 95.987352 
L 242.015848 94.403848 
L 242.01583 92.818248 
L 242.015817 91.230649 
L 242.015806 89.641149 
L 242.015799 88.049846 
L 242.015795 86.456838 
L 242.015792 84.862226 
L 242.01579 83.266105 
L 242.01579 81.668573 
L 242.015791 80.069726 
L 242.015792 78.469655 
L 242.015794 76.868452 
L 242.015796 75.266205 
L 242.015799 73.663 
L 242.015801 72.05892 
L 242.015803 70.454044 
L 242.015806 68.848449 
L 242.015808 67.242209 
L 242.01581 65.635392 
L 242.015811 64.028066 
L 242.015813 62.420295 
L 242.015814 60.812137 
L 242.015816 59.203649 
L 242.015817 57.594884 
L 242.015818 55.985891 
L 242.015818 54.376717 
L 242.015819 52.767405 
L 242.01582 51.157994 
L 242.015821 49.548521 
L 242.015821 47.939019 
" clip-path="url(#p2b303611b6)" style="fill: none; stroke: #ff0000; stroke-opacity: 0.8; stroke-width: 0.25; stroke-linecap: square"/>
   </g>
   <g id="line2d_55">
    <path d="M 242.015863 95.987352 
L 242.015848 94.403848 
L 242.01583 92.818246 
L 242.015817 91.230643 
L 242.015807 89.641136 
L 242.0158 88.049823 
L 242.015795 86.456804 
L 242.015792 84.862178 
L 242.01579 83.266041 
L 242.01579 81.668491 
L 242.015791 80.069622 
L 242.015792 78.469528 
L 242.015794 76.8683 
L 242.015796 75.266025 
L 242.015799 73.662789 
L 242.015801 72.058676 
L 242.015803 70.453764 
L 242.015806 68.848131 
L 242.015808 67.241849 
L 242.01581 65.63499 
L 242.015811 64.027618 
L 242.015813 62.419799 
L 242.015814 60.81159 
L 242.015816 59.20305 
L 242.015817 57.59423 
L 242.015818 55.985181 
L 242.015818 54.375948 
L 242.015819 52.766575 
L 242.01582 51.157101 
L 242.015821 49.547563 
L 242.015821 47.937994 
" clip-path="url(#p2b303611b6)" style="fill: none; stroke: #ff0000; stroke-width: 0.25; stroke-linecap: square"/>
   </g>
   <g id="line2d_56">
    <path d="M 157.699852 168.673685 
L 156.100047 168.673421 
L 154.499456 168.673185 
L 152.898118 168.672978 
L 151.296075 168.672798 
L 149.693368 168.672644 
L 148.090036 168.672514 
L 146.486119 168.672407 
L 144.881656 168.672319 
L 143.276684 168.672249 
L 141.671241 168.672195 
L 140.065361 168.672153 
L 138.459079 168.672122 
L 136.852427 168.672101 
L 135.245439 168.672087 
L 133.638143 168.67208 
L 132.03057 168.672077 
L 130.422745 168.672078 
L 128.814697 168.672082 
L 127.206448 168.672088 
L 125.598024 168.672095 
L 123.989445 168.672103 
L 122.380732 168.672111 
L 120.771904 168.67212 
L 119.16298 168.672128 
L 117.553976 168.672137 
L 115.944907 168.672145 
L 114.335788 168.672153 
L 112.726632 168.672161 
L 111.117451 168.672168 
L 109.508255 168.672175 
" clip-path="url(#p2b303611b6)" style="fill: none; stroke: #ff0000; stroke-opacity: 0.2; stroke-width: 0.25; stroke-linecap: square"/>
   </g>
   <g id="line2d_57">
    <path d="M 157.699852 168.673685 
L 156.100047 168.67342 
L 154.499457 168.673185 
L 152.898123 168.672977 
L 151.296085 168.672797 
L 149.693386 168.672644 
L 148.090064 168.672514 
L 146.48616 168.672407 
L 144.881713 168.672319 
L 143.27676 168.672249 
L 141.671339 168.672195 
L 140.065485 168.672153 
L 138.459233 168.672122 
L 136.852616 168.672101 
L 135.245666 168.672088 
L 133.638413 168.67208 
L 132.030887 168.672077 
L 130.423116 168.672078 
L 128.815126 168.672082 
L 127.206941 168.672088 
L 125.598585 168.672095 
L 123.990081 168.672104 
L 122.381449 168.672112 
L 120.772708 168.672121 
L 119.163877 168.67213 
L 117.554972 168.672139 
L 115.946009 168.672148 
L 114.337001 168.672156 
L 112.727963 168.672164 
L 111.118907 168.672172 
L 109.509842 168.672181 
" clip-path="url(#p2b303611b6)" style="fill: none; stroke: #ff0000; stroke-opacity: 0.4; stroke-width: 0.25; stroke-linecap: square"/>
   </g>
   <g id="line2d_58">
    <path d="M 157.699852 168.673685 
L 156.100047 168.67342 
L 154.499456 168.673184 
L 152.898119 168.672977 
L 151.296077 168.672797 
L 149.693372 168.672644 
L 148.090043 168.672514 
L 146.486131 168.672407 
L 144.881673 168.672319 
L 143.276707 168.672249 
L 141.671272 168.672195 
L 140.065401 168.672153 
L 138.45913 168.672122 
L 136.852492 168.672101 
L 135.245519 168.672087 
L 133.63824 168.67208 
L 132.030686 168.672077 
L 130.422884 168.672078 
L 128.81486 168.672082 
L 127.206639 168.672088 
L 125.598245 168.672095 
L 123.989699 168.672103 
L 122.381022 168.672112 
L 120.772234 168.67212 
L 119.163352 168.672129 
L 117.554394 168.672138 
L 115.945375 168.672146 
L 114.336308 168.672154 
L 112.727208 168.672162 
L 111.118087 168.67217 
L 109.508954 168.672177 
" clip-path="url(#p2b303611b6)" style="fill: none; stroke: #ff0000; stroke-opacity: 0.6; stroke-width: 0.25; stroke-linecap: square"/>
   </g>
   <g id="line2d_59">
    <path d="M 157.699852 168.673685 
L 156.100047 168.67342 
L 154.499457 168.673184 
L 152.898122 168.672977 
L 151.296083 168.672797 
L 149.693381 168.672644 
L 148.090057 168.672514 
L 146.48615 168.672407 
L 144.881699 168.672319 
L 143.276742 168.672249 
L 141.671315 168.672195 
L 140.065455 168.672153 
L 138.459195 168.672122 
L 136.85257 168.672101 
L 135.24561 168.672088 
L 133.638347 168.67208 
L 132.03081 168.672077 
L 130.423025 168.672078 
L 128.81502 168.672082 
L 127.20682 168.672088 
L 125.598448 168.672095 
L 123.989925 168.672103 
L 122.381273 168.672112 
L 120.772511 168.672121 
L 119.163657 168.67213 
L 117.554727 168.672139 
L 115.945738 168.672147 
L 114.336703 168.672155 
L 112.727636 168.672163 
L 111.118549 168.672171 
L 109.509452 168.672179 
" clip-path="url(#p2b303611b6)" style="fill: none; stroke: #ff0000; stroke-opacity: 0.8; stroke-width: 0.25; stroke-linecap: square"/>
   </g>
   <g id="line2d_60">
    <path d="M 157.699852 168.673685 
L 156.100047 168.67342 
L 154.499456 168.673184 
L 152.89812 168.672977 
L 151.296079 168.672797 
L 149.693376 168.672644 
L 148.090048 168.672514 
L 146.486138 168.672407 
L 144.881683 168.672319 
L 143.27672 168.672249 
L 141.671288 168.672194 
L 140.065422 168.672153 
L 138.459155 168.672122 
L 136.852522 168.672101 
L 135.245555 168.672087 
L 133.638283 168.67208 
L 132.030736 168.672077 
L 130.422941 168.672078 
L 128.814925 168.672082 
L 127.206713 168.672088 
L 125.598328 168.672095 
L 123.989793 168.672103 
L 122.381127 168.672112 
L 120.77235 168.672121 
L 119.163481 168.672129 
L 117.554536 168.672138 
L 115.94553 168.672146 
L 114.336479 168.672155 
L 112.727394 168.672163 
L 111.118288 168.67217 
L 109.509172 168.672178 
" clip-path="url(#p2b303611b6)" style="fill: none; stroke: #ff0000; stroke-width: 0.25; stroke-linecap: square"/>
   </g>
   <g id="line2d_61">
    <path d="M 313.980488 180.383451 
L 315.585082 180.383562 
L 317.191352 180.383661 
L 318.799242 180.38374 
L 320.408694 180.383802 
L 322.019646 180.383848 
L 323.632033 180.383882 
L 325.245787 180.383905 
L 326.860842 180.38392 
L 328.477126 180.383928 
L 330.09457 180.383931 
L 331.713104 180.38393 
L 333.332658 180.383925 
L 334.953161 180.383919 
L 336.574546 180.383911 
L 338.196744 180.383903 
L 339.819689 180.383894 
L 341.443317 180.383885 
L 343.067565 180.383877 
L 344.69237 180.383869 
L 346.317675 180.383861 
L 347.943422 180.383855 
L 349.569557 180.383848 
L 351.196028 180.383843 
L 352.822784 180.383838 
L 354.44978 180.383834 
L 356.076969 180.38383 
L 357.704311 180.383827 
L 359.331766 180.383823 
L 360.959298 180.38382 
L 362.586873 180.383817 
" clip-path="url(#p2b303611b6)" style="fill: none; stroke: #ff0000; stroke-opacity: 0.2; stroke-width: 0.25; stroke-linecap: square"/>
   </g>
   <g id="line2d_62">
    <path d="M 313.980488 180.383451 
L 315.585082 180.383555 
L 317.191341 180.383655 
L 318.799209 180.383734 
L 320.408627 180.383796 
L 322.019532 180.383843 
L 323.631858 180.383878 
L 325.245539 180.383903 
L 326.860505 180.383918 
L 328.476685 180.383927 
L 330.094009 180.383931 
L 331.712407 180.38393 
L 333.331807 180.383927 
L 334.952138 180.383921 
L 336.573333 180.383913 
L 338.195322 180.383905 
L 339.818039 180.383896 
L 341.441419 180.383887 
L 343.065397 180.383879 
L 344.689913 180.383871 
L 346.314907 180.383863 
L 347.940322 180.383856 
L 349.566103 180.383849 
L 351.192198 180.383844 
L 352.818558 180.383838 
L 354.445135 180.383834 
L 356.071885 180.383829 
L 357.698766 180.383825 
L 359.32574 180.383821 
L 360.952771 180.383818 
L 362.579826 180.383814 
" clip-path="url(#p2b303611b6)" style="fill: none; stroke: #ff0000; stroke-opacity: 0.4; stroke-width: 0.25; stroke-linecap: square"/>
   </g>
   <g id="line2d_63">
    <path d="M 313.980488 180.383451 
L 315.585082 180.383551 
L 317.191348 180.383651 
L 318.799231 180.38373 
L 320.408672 180.383793 
L 322.019607 180.383841 
L 323.631973 180.383876 
L 325.245701 180.383901 
L 326.860722 180.383917 
L 328.476967 180.383926 
L 330.094366 180.38393 
L 331.712846 180.383929 
L 333.332339 180.383926 
L 334.952773 180.38392 
L 336.574081 180.383912 
L 338.196193 180.383904 
L 339.819043 180.383895 
L 341.442565 180.383887 
L 343.066698 180.383878 
L 344.691378 180.38387 
L 346.316547 180.383862 
L 347.942148 180.383855 
L 349.568126 180.383849 
L 351.194428 180.383843 
L 352.821004 180.383838 
L 354.447809 180.383834 
L 356.074796 180.38383 
L 357.701924 180.383826 
L 359.329154 180.383823 
L 360.956451 180.383819 
L 362.58378 180.383816 
" clip-path="url(#p2b303611b6)" style="fill: none; stroke: #ff0000; stroke-opacity: 0.6; stroke-width: 0.25; stroke-linecap: square"/>
   </g>
   <g id="line2d_64">
    <path d="M 313.980488 180.383451 
L 315.585082 180.383549 
L 317.191343 180.383648 
L 318.799217 180.383728 
L 320.408643 180.383791 
L 322.01956 180.383839 
L 323.631901 180.383875 
L 325.2456 180.3839 
L 326.860587 180.383916 
L 328.476793 180.383926 
L 330.094147 180.383929 
L 331.712578 180.383929 
L 333.332015 180.383926 
L 334.952389 180.38392 
L 336.57363 180.383912 
L 338.195671 180.383904 
L 339.818444 180.383896 
L 341.441884 180.383887 
L 343.065928 180.383878 
L 344.690515 180.38387 
L 346.315586 180.383863 
L 347.941083 180.383856 
L 349.566951 180.383849 
L 351.193138 180.383844 
L 352.819596 180.383838 
L 354.446276 180.383834 
L 356.073134 180.383829 
L 357.700128 180.383826 
L 359.327221 180.383822 
L 360.954375 180.383818 
L 362.581558 180.383815 
" clip-path="url(#p2b303611b6)" style="fill: none; stroke: #ff0000; stroke-opacity: 0.8; stroke-width: 0.25; stroke-linecap: square"/>
   </g>
   <g id="line2d_65">
    <path d="M 313.980488 180.383451 
L 315.585082 180.383547 
L 317.191346 180.383647 
L 318.799226 180.383727 
L 320.408661 180.38379 
L 322.019589 180.383838 
L 323.631945 180.383874 
L 325.245661 180.383899 
L 326.860669 180.383916 
L 328.476898 180.383925 
L 330.094278 180.383929 
L 331.712738 180.383929 
L 333.332208 180.383925 
L 334.952618 180.38392 
L 336.573897 180.383912 
L 338.195979 180.383904 
L 339.818796 180.383895 
L 341.442284 180.383887 
L 343.066379 180.383878 
L 344.691019 180.38387 
L 346.316145 180.383863 
L 347.9417 180.383856 
L 349.567629 180.383849 
L 351.19388 180.383844 
L 352.820404 180.383838 
L 354.447152 180.383834 
L 356.074081 180.38383 
L 357.701148 180.383826 
L 359.328316 180.383822 
L 360.955547 180.383819 
L 362.582808 180.383816 
" clip-path="url(#p2b303611b6)" style="fill: none; stroke: #ff0000; stroke-width: 0.25; stroke-linecap: square"/>
   </g>
   <g id="line2d_66">
    <path d="M 241.986364 124.792789 
L 241.985619 123.377209 
L 241.984698 121.968277 
L 241.984834 120.565581 
L 241.985771 119.168719 
L 241.987291 117.7773 
L 241.989211 116.390946 
L 241.991383 115.009288 
L 241.993688 113.631972 
L 241.996029 112.258659 
L 241.998336 110.889022 
L 242.000554 109.522752 
L 242.002643 108.159552 
L 242.00458 106.799142 
L 242.006349 105.441257 
L 242.007942 104.085647 
L 242.009359 102.732076 
L 242.010606 101.380325 
L 242.01169 100.030186 
L 242.012623 98.681469 
L 242.013418 97.333995 
L 242.014088 95.987599 
L 242.014648 94.642129 
L 242.015113 93.297444 
L 242.015497 91.953415 
L 242.015815 90.609927 
L 242.01608 89.26687 
L 242.016305 87.924147 
L 242.016503 86.581671 
L 242.016686 85.239362 
L 242.016889 83.897147 
" clip-path="url(#p2b303611b6)" style="fill: none; stroke: #ff0000; stroke-opacity: 0.2; stroke-width: 0.25; stroke-linecap: square"/>
   </g>
   <g id="line2d_67">
    <path d="M 241.986364 124.792789 
L 241.986456 123.377209 
L 241.985486 121.968278 
L 241.98555 120.565582 
L 241.986396 119.168719 
L 241.987814 117.777297 
L 241.989629 116.390933 
L 241.991695 115.009259 
L 241.993898 113.631919 
L 241.996146 112.258572 
L 241.998368 110.88889 
L 242.000512 109.522561 
L 242.00254 108.159287 
L 242.004427 106.798786 
L 242.006158 105.440791 
L 242.007725 104.085051 
L 242.009127 102.731328 
L 242.010369 101.3794 
L 242.011457 100.02906 
L 242.012402 98.680113 
L 242.013216 97.332381 
L 242.013913 95.985696 
L 242.014506 94.639905 
L 242.015009 93.294866 
L 242.015438 91.950449 
L 242.015807 90.606535 
L 242.016129 89.263015 
L 242.016418 87.919791 
L 242.016687 86.576773 
L 242.016948 85.233881 
L 242.017203 83.891042 
" clip-path="url(#p2b303611b6)" style="fill: none; stroke: #ff0000; stroke-opacity: 0.4; stroke-width: 0.25; stroke-linecap: square"/>
   </g>
   <g id="line2d_68">
    <path d="M 241.986364 124.792789 
L 241.986902 123.377209 
L 241.985899 121.96828 
L 241.985922 120.565588 
L 241.986726 119.168732 
L 241.988101 117.777319 
L 241.989876 116.39097 
L 241.991908 115.009314 
L 241.994081 113.631999 
L 241.996304 112.258682 
L 241.998506 110.889037 
L 242.000635 109.522752 
L 242.002653 108.159531 
L 242.004532 106.799092 
L 242.006256 105.441168 
L 242.007818 104.08551 
L 242.009215 102.73188 
L 242.010451 101.380058 
L 242.011532 100.029835 
L 242.012469 98.68102 
L 242.013272 97.333433 
L 242.013956 95.986908 
L 242.014535 94.641292 
L 242.015021 93.296443 
L 242.01543 91.952233 
L 242.015776 90.608542 
L 242.016073 89.265263 
L 242.016333 87.922298 
L 242.016571 86.579557 
L 242.016796 85.23696 
L 242.017027 83.894434 
" clip-path="url(#p2b303611b6)" style="fill: none; stroke: #ff0000; stroke-opacity: 0.6; stroke-width: 0.25; stroke-linecap: square"/>
   </g>
   <g id="line2d_69">
    <path d="M 241.986364 124.792789 
L 241.987135 123.377209 
L 241.986106 121.968278 
L 241.9861 120.565582 
L 241.986876 119.16872 
L 241.988225 117.777298 
L 241.989976 116.390936 
L 241.991986 115.009266 
L 241.99414 113.631932 
L 241.996347 112.258593 
L 241.998536 110.888922 
L 242.000653 109.522607 
L 242.00266 108.159351 
L 242.004531 106.798872 
L 242.006248 105.440904 
L 242.007804 104.085195 
L 242.009197 102.73151 
L 242.01043 101.379625 
L 242.01151 100.029334 
L 242.012447 98.680444 
L 242.013252 97.332775 
L 242.01394 95.986162 
L 242.014523 94.640449 
L 242.015016 93.295497 
L 242.015434 91.951176 
L 242.015791 90.607366 
L 242.016099 89.263961 
L 242.016373 87.92086 
L 242.016626 86.577976 
L 242.016869 85.235228 
L 242.017112 83.892543 
" clip-path="url(#p2b303611b6)" style="fill: none; stroke: #ff0000; stroke-opacity: 0.8; stroke-width: 0.25; stroke-linecap: square"/>
   </g>
   <g id="line2d_70">
    <path d="M 241.986364 124.792789 
L 241.987259 123.377209 
L 241.986214 121.96828 
L 241.986194 120.565587 
L 241.986956 119.168729 
L 241.988293 117.777314 
L 241.990033 116.390961 
L 241.992033 115.009301 
L 241.99418 113.631979 
L 241.99638 112.258655 
L 241.998564 110.889001 
L 242.000677 109.522705 
L 242.00268 108.159471 
L 242.004547 106.799017 
L 242.006262 105.441076 
L 242.007815 104.085398 
L 242.009206 102.731745 
L 242.010437 101.379897 
L 242.011515 100.029645 
L 242.01245 98.680798 
L 242.013253 97.333175 
L 242.013938 95.986611 
L 242.014518 94.640952 
L 242.015008 93.296056 
L 242.015422 91.951795 
L 242.015773 90.608049 
L 242.016077 89.264711 
L 242.016345 87.921682 
L 242.01659 86.578873 
L 242.016825 85.236203 
L 242.017062 83.8936 
" clip-path="url(#p2b303611b6)" style="fill: none; stroke: #ff0000; stroke-width: 0.25; stroke-linecap: square"/>
   </g>
   <g id="line2d_71">
    <path d="M 279.066193 180.240723 
L 280.541291 180.26939 
L 282.018891 180.295319 
L 283.498902 180.317452 
L 284.981207 180.336104 
L 286.465687 180.351607 
L 287.952226 180.364298 
L 289.440705 180.374506 
L 290.931011 180.38255 
L 292.42303 180.38873 
L 293.916653 180.393324 
L 295.411769 180.396586 
L 296.908274 180.398746 
L 298.406064 180.400007 
L 299.905039 180.400548 
L 301.405101 180.400525 
L 302.906157 180.400071 
L 304.408115 180.399299 
L 305.910888 180.398301 
L 307.414393 180.397154 
L 308.918548 180.395918 
L 310.423278 180.394641 
L 311.928508 180.393358 
L 313.434171 180.392094 
L 314.9402 180.390866 
L 316.446535 180.389681 
L 317.953118 180.388543 
L 319.459894 180.38745 
L 320.966815 180.386394 
L 322.473833 180.385366 
L 323.980906 180.384359 
" clip-path="url(#p2b303611b6)" style="fill: none; stroke: #ff0000; stroke-opacity: 0.2; stroke-width: 0.25; stroke-linecap: square"/>
   </g>
   <g id="line2d_72">
    <path d="M 279.066193 180.240723 
L 280.541305 180.268668 
L 282.018893 180.294648 
L 283.49888 180.316856 
L 284.981148 180.335597 
L 286.465578 180.351199 
L 287.952052 180.36399 
L 289.440452 180.374297 
L 290.930663 180.382434 
L 292.42257 180.388699 
L 293.916063 180.393366 
L 295.411031 180.396689 
L 296.907368 180.398896 
L 298.40497 180.40019 
L 299.903736 180.400752 
L 301.403568 180.400737 
L 302.90437 180.400278 
L 304.406052 180.39949 
L 305.908524 180.398466 
L 307.411703 180.397284 
L 308.915509 180.396005 
L 310.419862 180.394677 
L 311.924692 180.393334 
L 313.429927 180.392004 
L 314.935504 180.390701 
L 316.441359 180.389434 
L 317.947436 180.388206 
L 319.453682 180.387014 
L 320.960045 180.385852 
L 322.466481 180.384711 
L 323.972948 180.383576 
" clip-path="url(#p2b303611b6)" style="fill: none; stroke: #ff0000; stroke-opacity: 0.4; stroke-width: 0.25; stroke-linecap: square"/>
   </g>
   <g id="line2d_73">
    <path d="M 279.066193 180.240723 
L 280.541312 180.268284 
L 282.018907 180.294297 
L 283.498909 180.316542 
L 284.981201 180.335321 
L 286.465664 180.350958 
L 287.952179 180.363781 
L 289.44063 180.374115 
L 290.930901 180.382273 
L 292.422878 180.388553 
L 293.916451 180.393232 
L 295.41151 180.396563 
L 296.907949 180.398775 
L 298.405664 180.400075 
L 299.904555 180.400642 
L 301.404522 180.400633 
L 302.905472 180.400184 
L 304.407313 180.399408 
L 305.909958 180.3984 
L 307.413322 180.397238 
L 308.917324 180.395983 
L 310.421887 180.394683 
L 311.926938 180.393374 
L 313.432408 180.39208 
L 314.938232 180.390819 
L 316.444346 180.389599 
L 317.950695 180.388422 
L 319.457224 180.387286 
L 320.963882 180.386183 
L 322.470625 180.385105 
L 323.977409 180.384042 
" clip-path="url(#p2b303611b6)" style="fill: none; stroke: #ff0000; stroke-opacity: 0.6; stroke-width: 0.25; stroke-linecap: square"/>
   </g>
   <g id="line2d_74">
    <path d="M 279.066193 180.240723 
L 280.541316 180.268087 
L 282.018905 180.294128 
L 283.498897 180.3164 
L 284.981173 180.335206 
L 286.465614 180.350867 
L 287.952103 180.363711 
L 289.440522 180.374063 
L 290.930755 180.382237 
L 292.42269 180.38853 
L 293.916214 180.39322 
L 295.411218 180.39656 
L 296.907596 180.398781 
L 298.405244 180.400086 
L 299.904061 180.400658 
L 301.403948 180.400652 
L 302.904812 180.400204 
L 304.406562 180.399427 
L 305.909108 180.398415 
L 307.412366 180.397246 
L 308.916257 180.395981 
L 310.420703 180.394667 
L 311.925631 180.393342 
L 313.430971 180.392029 
L 314.936658 180.390745 
L 316.442632 180.3895 
L 317.948833 180.388294 
L 319.455209 180.387126 
L 320.961709 180.38599 
L 322.468288 180.384876 
L 323.974903 180.383773 
" clip-path="url(#p2b303611b6)" style="fill: none; stroke: #ff0000; stroke-opacity: 0.8; stroke-width: 0.25; stroke-linecap: square"/>
   </g>
   <g id="line2d_75">
    <path d="M 279.066193 180.240723 
L 280.541318 180.267983 
L 282.01891 180.294038 
L 283.498908 180.316324 
L 284.981193 180.335142 
L 286.465647 180.350812 
L 287.952152 180.363665 
L 289.44059 180.374023 
L 290.930846 180.382202 
L 292.422806 180.3885 
L 293.916359 180.393193 
L 295.411396 180.396537 
L 296.90781 180.39876 
L 298.405497 180.400068 
L 299.904356 180.400642 
L 301.40429 180.400639 
L 302.905204 180.400194 
L 304.407006 180.39942 
L 305.909608 180.398413 
L 307.412926 180.397249 
L 308.91688 180.39599 
L 310.421391 180.394685 
L 311.926388 180.393369 
L 313.4318 180.392067 
L 314.937563 180.390796 
L 316.443614 180.389565 
L 317.949895 180.388375 
L 319.456354 180.387225 
L 320.96294 180.386108 
L 322.469607 180.385014 
L 323.976313 180.383933 
" clip-path="url(#p2b303611b6)" style="fill: none; stroke: #ff0000; stroke-width: 0.25; stroke-linecap: square"/>
   </g>
   <g id="line2d_76">
    <path d="M 230.30609 240.453814 
L 230.305651 242.315639 
L 230.305261 244.177553 
L 230.304936 246.039696 
L 230.304672 247.902188 
L 230.304461 249.765133 
L 230.304298 251.628618 
L 230.304176 253.492714 
L 230.304087 255.357477 
L 230.304026 257.222952 
L 230.303988 259.089167 
L 230.303968 260.956142 
L 230.303961 262.823886 
L 230.303965 264.692397 
L 230.303975 266.561664 
L 230.303991 268.43167 
L 230.304009 270.30239 
L 230.304028 272.173792 
L 230.304048 274.045839 
L 230.304067 275.91849 
L 230.304085 277.7917 
L 230.304102 279.665419 
L 230.304116 281.539597 
L 230.30413 283.414182 
L 230.304141 285.289119 
L 230.304151 287.164355 
L 230.30416 289.039835 
L 230.304168 290.915507 
L 230.304175 292.79132 
L 230.304181 294.667225 
L 230.304187 296.543176 
" clip-path="url(#p2b303611b6)" style="fill: none; stroke: #ff0000; stroke-opacity: 0.2; stroke-width: 0.25; stroke-linecap: square"/>
   </g>
   <g id="line2d_77">
    <path d="M 230.30609 240.453814 
L 230.305655 242.315639 
L 230.305265 244.17754 
L 230.30494 246.039656 
L 230.304675 247.902108 
L 230.304464 249.765 
L 230.3043 251.628418 
L 230.304177 253.492434 
L 230.304088 255.357104 
L 230.304027 257.222472 
L 230.303989 259.088567 
L 230.303968 260.955409 
L 230.303961 262.823006 
L 230.303965 264.691357 
L 230.303975 266.560451 
L 230.30399 268.430272 
L 230.304009 270.300793 
L 230.304028 272.171984 
L 230.304048 274.043808 
L 230.304067 275.916224 
L 230.304085 277.789186 
L 230.304101 279.662648 
L 230.304116 281.536558 
L 230.30413 283.410864 
L 230.304141 285.285513 
L 230.304152 287.160452 
L 230.304161 289.035626 
L 230.304169 290.910985 
L 230.304176 292.786477 
L 230.304183 294.662055 
L 230.30419 296.537673 
" clip-path="url(#p2b303611b6)" style="fill: none; stroke: #ff0000; stroke-opacity: 0.4; stroke-width: 0.25; stroke-linecap: square"/>
   </g>
   <g id="line2d_78">
    <path d="M 230.30609 240.453814 
L 230.305658 242.315639 
L 230.305268 244.177548 
L 230.304942 246.039679 
L 230.304677 247.902155 
L 230.304466 249.765078 
L 230.304302 251.628536 
L 230.304178 253.492599 
L 230.304089 255.357324 
L 230.304028 257.222754 
L 230.303989 259.088919 
L 230.303969 260.955838 
L 230.303962 262.82352 
L 230.303965 264.691963 
L 230.303975 266.561157 
L 230.303991 268.431084 
L 230.304009 270.301719 
L 230.304028 272.17303 
L 230.304048 274.044981 
L 230.304067 275.91753 
L 230.304085 277.790632 
L 230.304101 279.664239 
L 230.304116 281.538299 
L 230.304129 283.412761 
L 230.304141 285.287571 
L 230.304151 287.162674 
L 230.30416 289.038018 
L 230.304168 290.913549 
L 230.304175 292.789218 
L 230.304182 294.664975 
L 230.304188 296.540775 
" clip-path="url(#p2b303611b6)" style="fill: none; stroke: #ff0000; stroke-opacity: 0.6; stroke-width: 0.25; stroke-linecap: square"/>
   </g>
   <g id="line2d_79">
    <path d="M 230.30609 240.453814 
L 230.30566 242.315639 
L 230.30527 244.177543 
L 230.304944 246.039666 
L 230.304679 247.902128 
L 230.304467 249.765033 
L 230.304303 251.628467 
L 230.304179 253.492503 
L 230.30409 255.357196 
L 230.304028 257.22259 
L 230.30399 259.088714 
L 230.303969 260.955589 
L 230.303962 262.823222 
L 230.303965 264.691612 
L 230.303975 266.560749 
L 230.303991 268.430615 
L 230.304009 270.301185 
L 230.304028 272.172428 
L 230.304048 274.044306 
L 230.304067 275.91678 
L 230.304085 277.789804 
L 230.304101 279.663329 
L 230.304116 281.537305 
L 230.304129 283.411679 
L 230.304141 285.286399 
L 230.304151 287.16141 
L 230.30416 289.03666 
L 230.304168 290.912096 
L 230.304176 292.787667 
L 230.304183 294.663325 
L 230.304189 296.539025 
" clip-path="url(#p2b303611b6)" style="fill: none; stroke: #ff0000; stroke-opacity: 0.8; stroke-width: 0.25; stroke-linecap: square"/>
   </g>
   <g id="line2d_80">
    <path d="M 230.30609 240.453814 
L 230.305662 242.315639 
L 230.305271 244.177546 
L 230.304946 246.039674 
L 230.30468 247.902144 
L 230.304468 249.765059 
L 230.304304 251.628507 
L 230.30418 253.492558 
L 230.30409 255.35727 
L 230.304029 257.222684 
L 230.30399 259.088832 
L 230.303969 260.955733 
L 230.303962 262.823394 
L 230.303965 264.691814 
L 230.303975 266.560984 
L 230.303991 268.430885 
L 230.304009 270.301492 
L 230.304028 272.172773 
L 230.304048 274.044693 
L 230.304067 275.917209 
L 230.304085 277.790277 
L 230.304101 279.663848 
L 230.304116 281.537872 
L 230.304129 283.412295 
L 230.304141 285.287065 
L 230.304151 287.162128 
L 230.30416 289.03743 
L 230.304168 290.912919 
L 230.304175 292.788544 
L 230.304182 294.664257 
L 230.304189 296.540012 
" clip-path="url(#p2b303611b6)" style="fill: none; stroke: #ff0000; stroke-width: 0.25; stroke-linecap: square"/>
   </g>
   <g id="line2d_81">
    <path d="M 193.25878 168.821813 
L 191.784005 168.791745 
L 190.306665 168.764538 
L 188.826851 168.741328 
L 187.344688 168.721782 
L 185.860299 168.705547 
L 184.373808 168.692267 
L 182.885334 168.681594 
L 181.394997 168.673192 
L 179.902913 168.666746 
L 178.409197 168.661962 
L 176.913961 168.658573 
L 175.417313 168.656339 
L 173.919358 168.655044 
L 172.420201 168.654502 
L 170.919939 168.654549 
L 169.41867 168.655045 
L 167.916486 168.655873 
L 166.413476 168.656935 
L 164.909725 168.658151 
L 163.405316 168.659458 
L 161.900326 168.660806 
L 160.394829 168.662159 
L 158.888895 168.663491 
L 157.38259 168.664785 
L 155.875977 168.666031 
L 154.369114 168.667227 
L 152.862055 168.668377 
L 151.354851 168.669486 
L 149.847548 168.670566 
L 148.34019 168.671625 
" clip-path="url(#p2b303611b6)" style="fill: none; stroke: #ff0000; stroke-opacity: 0.2; stroke-width: 0.25; stroke-linecap: square"/>
   </g>
   <g id="line2d_82">
    <path d="M 193.25878 168.821813 
L 191.78399 168.792519 
L 190.306661 168.765256 
L 188.826871 168.741967 
L 187.344745 168.722325 
L 185.860406 168.705984 
L 184.373977 168.692596 
L 182.885582 168.681817 
L 181.395339 168.673315 
L 179.903366 168.666778 
L 178.409779 168.661915 
L 176.914689 168.658461 
L 175.418207 168.656176 
L 173.920439 168.654846 
L 172.421488 168.654282 
L 170.921456 168.65432 
L 169.420438 168.654821 
L 167.918529 168.655666 
L 166.415818 168.656755 
L 164.912391 168.658008 
L 163.40833 168.659361 
L 161.903714 168.660765 
L 160.398616 168.662181 
L 158.893108 168.663583 
L 157.387255 168.664956 
L 155.88112 168.666289 
L 154.374761 168.667581 
L 152.868232 168.668835 
L 151.361584 168.670057 
L 149.854862 168.671257 
L 148.34811 168.67245 
" clip-path="url(#p2b303611b6)" style="fill: none; stroke: #ff0000; stroke-opacity: 0.4; stroke-width: 0.25; stroke-linecap: square"/>
   </g>
   <g id="line2d_83">
    <path d="M 193.25878 168.821813 
L 191.783982 168.79293 
L 190.306646 168.765632 
L 188.826841 168.742303 
L 187.344691 168.72262 
L 185.86032 168.706241 
L 184.373851 168.69282 
L 182.885406 168.682012 
L 181.395103 168.673488 
L 179.903061 168.666934 
L 178.409394 168.66206 
L 176.914214 168.658598 
L 175.417631 168.656306 
L 173.919751 168.654971 
L 172.420677 168.654401 
L 170.92051 168.654432 
L 169.419346 168.654924 
L 167.917278 168.655755 
L 166.414396 168.656827 
L 164.910785 168.65806 
L 163.406528 168.659387 
L 161.901704 168.66076 
L 160.396385 168.662141 
L 158.890643 168.663504 
L 157.384544 168.664832 
L 155.878151 168.666117 
L 154.371521 168.667355 
L 152.86471 168.668549 
L 151.357767 168.669708 
L 149.85074 168.670841 
L 148.34367 168.671959 
" clip-path="url(#p2b303611b6)" style="fill: none; stroke: #ff0000; stroke-opacity: 0.6; stroke-width: 0.25; stroke-linecap: square"/>
   </g>
   <g id="line2d_84">
    <path d="M 193.25878 168.821813 
L 191.783978 168.793141 
L 190.306648 168.765813 
L 188.826853 168.742455 
L 187.344719 168.722743 
L 185.860369 168.706339 
L 184.373926 168.692895 
L 182.885512 168.682067 
L 181.395247 168.673527 
L 179.903248 168.666959 
L 178.409629 168.662072 
L 176.914504 168.6586 
L 175.417981 168.6563 
L 173.920168 168.654957 
L 172.421167 168.654383 
L 170.921079 168.654411 
L 169.42 168.654901 
L 167.918024 168.655734 
L 166.41524 168.656811 
L 164.911734 168.65805 
L 163.407587 168.659388 
L 161.90288 168.660775 
L 160.397684 168.662173 
L 158.892071 168.663557 
L 157.386108 168.664909 
L 155.879855 168.66622 
L 154.373373 168.667489 
L 152.866714 168.668717 
L 151.359929 168.669912 
L 149.853065 168.671083 
L 148.346164 168.672243 
" clip-path="url(#p2b303611b6)" style="fill: none; stroke: #ff0000; stroke-opacity: 0.8; stroke-width: 0.25; stroke-linecap: square"/>
   </g>
   <g id="line2d_85">
    <path d="M 193.25878 168.821813 
L 191.783976 168.793252 
L 190.306643 168.765909 
L 188.826842 168.742536 
L 187.344699 168.722812 
L 185.860336 168.706397 
L 184.373878 168.692944 
L 182.885445 168.68211 
L 181.395157 168.673564 
L 179.903132 168.666991 
L 178.409485 168.662101 
L 176.914327 168.658625 
L 175.417769 168.656323 
L 173.919917 168.654978 
L 172.420873 168.6544 
L 170.920739 168.654426 
L 169.419611 168.654913 
L 167.917583 168.655742 
L 166.414743 168.656814 
L 164.911177 168.658048 
L 163.406969 168.659379 
L 161.902195 168.660757 
L 160.396931 168.662146 
L 158.891247 168.663517 
L 157.385209 168.664856 
L 155.878879 168.666152 
L 154.372316 168.667403 
L 152.865575 168.668613 
L 151.358705 168.669787 
L 149.851753 168.670937 
L 148.344762 168.672074 
" clip-path="url(#p2b303611b6)" style="fill: none; stroke: #ff0000; stroke-width: 0.25; stroke-linecap: square"/>
   </g>
   <g id="line2d_86">
    <path d="M 230.515275 216.514871 
L 230.469602 218.078297 
L 230.428493 219.639778 
L 230.393808 221.19928 
L 230.364971 222.756728 
L 230.341384 224.31207 
L 230.322443 225.865279 
L 230.307561 227.416351 
L 230.296177 228.965302 
L 230.287767 230.512162 
L 230.281849 232.056982 
L 230.277986 233.59982 
L 230.275789 235.14075 
L 230.274915 236.679852 
L 230.275069 238.217216 
L 230.275996 239.752938 
L 230.277483 241.287119 
L 230.279353 242.819863 
L 230.281464 244.35128 
L 230.283702 245.881477 
L 230.285979 247.410567 
L 230.288232 248.938661 
L 230.290416 250.46587 
L 230.292502 251.992303 
L 230.294475 253.518068 
L 230.296333 255.04327 
L 230.298081 256.56801 
L 230.299734 258.092387 
L 230.301311 259.616493 
L 230.302836 261.140417 
L 230.304343 262.66424 
" clip-path="url(#p2b303611b6)" style="fill: none; stroke: #ff0000; stroke-opacity: 0.2; stroke-width: 0.25; stroke-linecap: square"/>
   </g>
   <g id="line2d_87">
    <path d="M 230.515275 216.514871 
L 230.471078 218.07834 
L 230.429904 219.639868 
L 230.395098 221.199466 
L 230.366101 222.75706 
L 230.342327 224.312599 
L 230.323187 225.866057 
L 230.308103 227.41743 
L 230.296524 228.966733 
L 230.287932 230.514001 
L 230.281852 232.05928 
L 230.27785 233.602632 
L 230.275539 235.14413 
L 230.274579 236.683855 
L 230.274673 238.221896 
L 230.275567 239.758349 
L 230.277045 241.293316 
L 230.278929 242.826901 
L 230.281075 244.359212 
L 230.283367 245.890358 
L 230.285716 247.420451 
L 230.288055 248.949601 
L 230.29034 250.477917 
L 230.292541 252.005509 
L 230.294643 253.532483 
L 230.296644 255.058943 
L 230.29855 256.584988 
L 230.300375 258.110715 
L 230.302138 259.636213 
L 230.303861 261.161569 
L 230.305566 262.686862 
" clip-path="url(#p2b303611b6)" style="fill: none; stroke: #ff0000; stroke-opacity: 0.4; stroke-width: 0.25; stroke-linecap: square"/>
   </g>
   <g id="line2d_88">
    <path d="M 230.515275 216.514871 
L 230.471938 218.078364 
L 230.430705 219.639858 
L 230.395821 221.199391 
L 230.366738 222.756887 
L 230.342877 224.312297 
L 230.323655 225.865595 
L 230.308497 227.416779 
L 230.296855 228.965863 
L 230.288212 230.512881 
L 230.282091 232.057882 
L 230.278058 233.600926 
L 230.275724 235.142087 
L 230.274747 236.681447 
L 230.274826 238.219095 
L 230.275706 239.755128 
L 230.277169 241.289648 
L 230.279036 242.822759 
L 230.28116 244.354571 
L 230.283425 245.885193 
L 230.285741 247.414737 
L 230.288041 248.943314 
L 230.29028 250.471035 
L 230.292428 251.998009 
L 230.29447 253.524345 
L 230.296404 255.050145 
L 230.298235 256.575512 
L 230.299977 258.100543 
L 230.301652 259.625329 
L 230.303281 261.149957 
L 230.304893 262.674508 
" clip-path="url(#p2b303611b6)" style="fill: none; stroke: #ff0000; stroke-opacity: 0.6; stroke-width: 0.25; stroke-linecap: square"/>
   </g>
   <g id="line2d_89">
    <path d="M 230.515275 216.514871 
L 230.472436 218.078377 
L 230.431148 219.63989 
L 230.396203 221.19946 
L 230.367058 222.757013 
L 230.343139 224.312498 
L 230.323863 225.865891 
L 230.308658 227.417185 
L 230.296976 228.966398 
L 230.2883 230.513562 
L 230.282151 232.058725 
L 230.278097 233.601947 
L 230.275746 235.143302 
L 230.274755 236.68287 
L 230.274824 238.220742 
L 230.275698 239.757012 
L 230.277158 241.291783 
L 230.279025 242.825158 
L 230.281153 244.357246 
L 230.283426 245.888157 
L 230.285754 247.418001 
L 230.28807 248.946889 
L 230.29033 250.474932 
L 230.292503 252.002238 
L 230.294575 253.528914 
L 230.296542 255.055064 
L 230.298411 256.580789 
L 230.300196 258.106184 
L 230.301916 259.631341 
L 230.303593 261.156346 
L 230.305252 262.68128 
" clip-path="url(#p2b303611b6)" style="fill: none; stroke: #ff0000; stroke-opacity: 0.8; stroke-width: 0.25; stroke-linecap: square"/>
   </g>
   <g id="line2d_90">
    <path d="M 230.515275 216.514871 
L 230.472727 218.078385 
L 230.4314 219.639885 
L 230.396418 221.199432 
L 230.367238 222.75695 
L 230.343287 224.31239 
L 230.323984 225.865727 
L 230.308757 227.416956 
L 230.297055 228.966094 
L 230.288363 230.513174 
L 230.282201 232.058243 
L 230.278135 233.601363 
L 230.275774 235.142608 
L 230.274774 236.682057 
L 230.274836 238.219803 
L 230.275702 239.75594 
L 230.277155 241.290569 
L 230.279015 242.823798 
L 230.281136 244.355732 
L 230.283401 245.886483 
L 230.28572 247.416162 
L 230.288027 248.94488 
L 230.290275 250.472747 
L 230.292435 251.999873 
L 230.294492 253.526365 
L 230.296443 255.052327 
L 230.298294 256.57786 
L 230.300059 258.10306 
L 230.301757 259.62802 
L 230.303412 261.152826 
L 230.305048 262.677557 
" clip-path="url(#p2b303611b6)" style="fill: none; stroke: #ff0000; stroke-width: 0.25; stroke-linecap: square"/>
   </g>
   <g id="patch_15">
    <path d="M 103.104 307.584 
L 103.104 41.472 
" style="fill: none; stroke: #000000; stroke-width: 0.8; stroke-linejoin: miter; stroke-linecap: square"/>
   </g>
   <g id="patch_16">
    <path d="M 369.216 307.584 
L 369.216 41.472 
" style="fill: none; stroke: #000000; stroke-width: 0.8; stroke-linejoin: miter; stroke-linecap: square"/>
   </g>
   <g id="patch_17">
    <path d="M 103.104 307.584 
L 369.216 307.584 
" style="fill: none; stroke: #000000; stroke-width: 0.8; stroke-linejoin: miter; stroke-linecap: square"/>
   </g>
   <g id="patch_18">
    <path d="M 103.104 41.472 
L 369.216 41.472 
" style="fill: none; stroke: #000000; stroke-width: 0.8; stroke-linejoin: miter; stroke-linecap: square"/>
   </g>
   <g id="text_19">
    <!-- Time: 104 ms -->
    <g transform="translate(261.069512 54.7776) scale(0.1 -0.1)">
     <defs>
      <path id="DejaVuSans-54" d="M -19 4666 
L 3928 4666 
L 3928 4134 
L 2272 4134 
L 2272 0 
L 1638 0 
L 1638 4134 
L -19 4134 
L -19 4666 
z
" transform="scale(0.015625)"/>
      <path id="DejaVuSans-69" d="M 603 3500 
L 1178 3500 
L 1178 0 
L 603 0 
L 603 3500 
z
M 603 4863 
L 1178 4863 
L 1178 4134 
L 603 4134 
L 603 4863 
z
" transform="scale(0.015625)"/>
      <path id="DejaVuSans-6d" d="M 3328 2828 
Q 3544 3216 3844 3400 
Q 4144 3584 4550 3584 
Q 5097 3584 5394 3201 
Q 5691 2819 5691 2113 
L 5691 0 
L 5113 0 
L 5113 2094 
Q 5113 2597 4934 2840 
Q 4756 3084 4391 3084 
Q 3944 3084 3684 2787 
Q 3425 2491 3425 1978 
L 3425 0 
L 2847 0 
L 2847 2094 
Q 2847 2600 2669 2842 
Q 2491 3084 2119 3084 
Q 1678 3084 1418 2786 
Q 1159 2488 1159 1978 
L 1159 0 
L 581 0 
L 581 3500 
L 1159 3500 
L 1159 2956 
Q 1356 3278 1631 3431 
Q 1906 3584 2284 3584 
Q 2666 3584 2933 3390 
Q 3200 3197 3328 2828 
z
" transform="scale(0.015625)"/>
      <path id="DejaVuSans-65" d="M 3597 1894 
L 3597 1613 
L 953 1613 
Q 991 1019 1311 708 
Q 1631 397 2203 397 
Q 2534 397 2845 478 
Q 3156 559 3463 722 
L 3463 178 
Q 3153 47 2828 -22 
Q 2503 -91 2169 -91 
Q 1331 -91 842 396 
Q 353 884 353 1716 
Q 353 2575 817 3079 
Q 1281 3584 2069 3584 
Q 2775 3584 3186 3129 
Q 3597 2675 3597 1894 
z
M 3022 2063 
Q 3016 2534 2758 2815 
Q 2500 3097 2075 3097 
Q 1594 3097 1305 2825 
Q 1016 2553 972 2059 
L 3022 2063 
z
" transform="scale(0.015625)"/>
      <path id="DejaVuSans-3a" d="M 750 794 
L 1409 794 
L 1409 0 
L 750 0 
L 750 794 
z
M 750 3309 
L 1409 3309 
L 1409 2516 
L 750 2516 
L 750 3309 
z
" transform="scale(0.015625)"/>
      <path id="DejaVuSans-20" transform="scale(0.015625)"/>
      <path id="DejaVuSans-73" d="M 2834 3397 
L 2834 2853 
Q 2591 2978 2328 3040 
Q 2066 3103 1784 3103 
Q 1356 3103 1142 2972 
Q 928 2841 928 2578 
Q 928 2378 1081 2264 
Q 1234 2150 1697 2047 
L 1894 2003 
Q 2506 1872 2764 1633 
Q 3022 1394 3022 966 
Q 3022 478 2636 193 
Q 2250 -91 1575 -91 
Q 1294 -91 989 -36 
Q 684 19 347 128 
L 347 722 
Q 666 556 975 473 
Q 1284 391 1588 391 
Q 1994 391 2212 530 
Q 2431 669 2431 922 
Q 2431 1156 2273 1281 
Q 2116 1406 1581 1522 
L 1381 1569 
Q 847 1681 609 1914 
Q 372 2147 372 2553 
Q 372 3047 722 3315 
Q 1072 3584 1716 3584 
Q 2034 3584 2315 3537 
Q 2597 3491 2834 3397 
z
" transform="scale(0.015625)"/>
     </defs>
     <use xlink:href="#DejaVuSans-54"/>
     <use xlink:href="#DejaVuSans-69" x="57.958984"/>
     <use xlink:href="#DejaVuSans-6d" x="85.742188"/>
     <use xlink:href="#DejaVuSans-65" x="183.154297"/>
     <use xlink:href="#DejaVuSans-3a" x="244.677734"/>
     <use xlink:href="#DejaVuSans-20" x="278.369141"/>
     <use xlink:href="#DejaVuSans-31" x="310.15625"/>
     <use xlink:href="#DejaVuSans-30" x="373.779297"/>
     <use xlink:href="#DejaVuSans-34" x="437.402344"/>
     <use xlink:href="#DejaVuSans-20" x="501.025391"/>
     <use xlink:href="#DejaVuSans-6d" x="532.8125"/>
     <use xlink:href="#DejaVuSans-73" x="630.224609"/>
    </g>
   </g>
  </g>
 </g>
 <defs>
  <clipPath id="p2b303611b6">
   <rect x="103.104" y="41.472" width="266.112" height="266.112"/>
  </clipPath>
 </defs>
</svg>
