<?xml version="1.0" encoding="utf-8" standalone="no"?>
<!DOCTYPE svg PUBLIC "-//W3C//DTD SVG 1.1//EN"
  "http://www.w3.org/Graphics/SVG/1.1/DTD/svg11.dtd">
<svg xmlns:xlink="http://www.w3.org/1999/xlink" width="460.8pt" height="345.6pt" viewBox="0 0 460.8 345.6" xmlns="http://www.w3.org/2000/svg" version="1.1">
 <metadata>
  <rdf:RDF xmlns:dc="http://purl.org/dc/elements/1.1/" xmlns:cc="http://creativecommons.org/ns#" xmlns:rdf="http://www.w3.org/1999/02/22-rdf-syntax-ns#">
   <cc:Work>
    <dc:type rdf:resource="http://purl.org/dc/dcmitype/StillImage"/>
    <dc:date>2024-01-23T14:21:24.927989</dc:date>
    <dc:format>image/svg+xml</dc:format>
    <dc:creator>
     <cc:Agent>
      <dc:title>Matplotlib v3.8.2, https://matplotlib.org/</dc:title>
     </cc:Agent>
    </dc:creator>
   </cc:Work>
  </rdf:RDF>
 </metadata>
 <defs>
  <style type="text/css">*{stroke-linejoin: round; stroke-linecap: butt}</style>
 </defs>
 <g id="figure_1">
  <g id="patch_1">
   <path d="M 0 345.6 
L 460.8 345.6 
L 460.8 0 
L 0 0 
z
" style="fill: #ffffff"/>
  </g>
  <g id="axes_1">
   <g id="patch_2">
    <path d="M 103.104 307.584 
L 369.216 307.584 
L 369.216 41.472 
L 103.104 41.472 
z
" style="fill: #ffffff"/>
   </g>
   <g id="patch_3">
    <path d="M 193.499809 165.820073 
L 181.857505 165.867389 
L 181.880487 171.522222 
L 193.522791 171.474906 
z
" clip-path="url(#p6b3e0529ed)" style="fill: #00008b"/>
   </g>
   <g id="patch_4">
    <path d="M 244.808232 121.1174 
L 244.864799 109.475138 
L 239.209986 109.447663 
L 239.153419 121.089925 
z
" clip-path="url(#p6b3e0529ed)" style="fill: #800000"/>
   </g>
   <g id="patch_5">
    <path d="M 227.48149 219.836852 
L 227.487847 231.479251 
L 233.142726 231.476163 
L 233.136369 219.833765 
z
" clip-path="url(#p6b3e0529ed)" style="fill: #006400"/>
   </g>
   <g id="patch_6">
    <path d="M 281.50406 183.201581 
L 293.14646 183.200468 
L 293.14592 177.545588 
L 281.50352 177.546701 
z
" clip-path="url(#p6b3e0529ed)" style="fill: #4b0082"/>
   </g>
   <g id="patch_7">
    <path d="M 245.538975 166.301264 
L 242.685448 155.013976 
L 237.203051 156.399975 
L 240.056578 167.687263 
z
" clip-path="url(#p6b3e0529ed)" style="fill: #0000ff"/>
   </g>
   <g id="patch_8">
    <path d="M 229.293531 163.268641 
L 217.915835 165.737143 
L 219.114821 171.263453 
L 230.492518 168.794951 
z
" clip-path="url(#p6b3e0529ed)" style="fill: #ff0000"/>
   </g>
   <g id="patch_9">
    <path d="M 240.230331 182.548754 
L 251.267791 186.252801 
L 253.066899 180.891749 
L 242.02944 177.187702 
z
" clip-path="url(#p6b3e0529ed)" style="fill: #dbdc56"/>
   </g>
   <g id="patch_10">
    <path d="M 226.265978 187.060494 
L 237.878105 187.899533 
L 238.285638 182.259357 
L 226.673511 181.420318 
z
" clip-path="url(#p6b3e0529ed)" style="fill: #9400d3"/>
   </g>
   <g id="patch_11">
    <path d="M 244.5209 214.406092 
L 243.92964 202.778715 
L 238.282057 203.065898 
L 238.873317 214.693275 
z
" clip-path="url(#p6b3e0529ed)" style="fill: #1e90ff"/>
   </g>
   <g id="patch_12">
    <path d="M 253.375312 166.369732 
L 242.043839 169.042409 
L 243.341996 174.546267 
L 254.673469 171.87359 
z
" clip-path="url(#p6b3e0529ed)" style="fill: #ff4500"/>
   </g>
   <g id="patch_13">
    <path d="M 227.752918 134.591752 
L 228.186363 146.22608 
L 233.837323 146.01555 
L 233.403878 134.381221 
z
" clip-path="url(#p6b3e0529ed)" style="fill: #7cfc00"/>
   </g>
   <g id="patch_14">
    <path d="M 195.659894 183.02804 
L 207.265582 182.104194 
L 206.816857 176.467146 
L 195.211169 177.390991 
z
" clip-path="url(#p6b3e0529ed)" style="fill: #ff00ff"/>
   </g>
   <g id="matplotlib.axis_1">
    <g id="xtick_1">
     <g id="line2d_1">
      <defs>
       <path id="md7800af220" d="M 0 0 
L 0 3.5 
" style="stroke: #000000; stroke-width: 0.8"/>
      </defs>
      <g>
       <use xlink:href="#md7800af220" x="103.104" y="307.584" style="stroke: #000000; stroke-width: 0.8"/>
      </g>
     </g>
     <g id="text_1">
      <!-- −40 -->
      <g transform="translate(92.551656 322.182437) scale(0.1 -0.1)">
       <defs>
        <path id="DejaVuSans-2212" d="M 678 2272 
L 4684 2272 
L 4684 1741 
L 678 1741 
L 678 2272 
z
" transform="scale(0.015625)"/>
        <path id="DejaVuSans-34" d="M 2419 4116 
L 825 1625 
L 2419 1625 
L 2419 4116 
z
M 2253 4666 
L 3047 4666 
L 3047 1625 
L 3713 1625 
L 3713 1100 
L 3047 1100 
L 3047 0 
L 2419 0 
L 2419 1100 
L 313 1100 
L 313 1709 
L 2253 4666 
z
" transform="scale(0.015625)"/>
        <path id="DejaVuSans-30" d="M 2034 4250 
Q 1547 4250 1301 3770 
Q 1056 3291 1056 2328 
Q 1056 1369 1301 889 
Q 1547 409 2034 409 
Q 2525 409 2770 889 
Q 3016 1369 3016 2328 
Q 3016 3291 2770 3770 
Q 2525 4250 2034 4250 
z
M 2034 4750 
Q 2819 4750 3233 4129 
Q 3647 3509 3647 2328 
Q 3647 1150 3233 529 
Q 2819 -91 2034 -91 
Q 1250 -91 836 529 
Q 422 1150 422 2328 
Q 422 3509 836 4129 
Q 1250 4750 2034 4750 
z
" transform="scale(0.015625)"/>
       </defs>
       <use xlink:href="#DejaVuSans-2212"/>
       <use xlink:href="#DejaVuSans-34" x="83.789062"/>
       <use xlink:href="#DejaVuSans-30" x="147.412109"/>
      </g>
     </g>
    </g>
    <g id="xtick_2">
     <g id="line2d_2">
      <g>
       <use xlink:href="#md7800af220" x="136.368" y="307.584" style="stroke: #000000; stroke-width: 0.8"/>
      </g>
     </g>
     <g id="text_2">
      <!-- −30 -->
      <g transform="translate(125.815656 322.182437) scale(0.1 -0.1)">
       <defs>
        <path id="DejaVuSans-33" d="M 2597 2516 
Q 3050 2419 3304 2112 
Q 3559 1806 3559 1356 
Q 3559 666 3084 287 
Q 2609 -91 1734 -91 
Q 1441 -91 1130 -33 
Q 819 25 488 141 
L 488 750 
Q 750 597 1062 519 
Q 1375 441 1716 441 
Q 2309 441 2620 675 
Q 2931 909 2931 1356 
Q 2931 1769 2642 2001 
Q 2353 2234 1838 2234 
L 1294 2234 
L 1294 2753 
L 1863 2753 
Q 2328 2753 2575 2939 
Q 2822 3125 2822 3475 
Q 2822 3834 2567 4026 
Q 2313 4219 1838 4219 
Q 1578 4219 1281 4162 
Q 984 4106 628 3988 
L 628 4550 
Q 988 4650 1302 4700 
Q 1616 4750 1894 4750 
Q 2613 4750 3031 4423 
Q 3450 4097 3450 3541 
Q 3450 3153 3228 2886 
Q 3006 2619 2597 2516 
z
" transform="scale(0.015625)"/>
       </defs>
       <use xlink:href="#DejaVuSans-2212"/>
       <use xlink:href="#DejaVuSans-33" x="83.789062"/>
       <use xlink:href="#DejaVuSans-30" x="147.412109"/>
      </g>
     </g>
    </g>
    <g id="xtick_3">
     <g id="line2d_3">
      <g>
       <use xlink:href="#md7800af220" x="169.632" y="307.584" style="stroke: #000000; stroke-width: 0.8"/>
      </g>
     </g>
     <g id="text_3">
      <!-- −20 -->
      <g transform="translate(159.079656 322.182437) scale(0.1 -0.1)">
       <defs>
        <path id="DejaVuSans-32" d="M 1228 531 
L 3431 531 
L 3431 0 
L 469 0 
L 469 531 
Q 828 903 1448 1529 
Q 2069 2156 2228 2338 
Q 2531 2678 2651 2914 
Q 2772 3150 2772 3378 
Q 2772 3750 2511 3984 
Q 2250 4219 1831 4219 
Q 1534 4219 1204 4116 
Q 875 4013 500 3803 
L 500 4441 
Q 881 4594 1212 4672 
Q 1544 4750 1819 4750 
Q 2544 4750 2975 4387 
Q 3406 4025 3406 3419 
Q 3406 3131 3298 2873 
Q 3191 2616 2906 2266 
Q 2828 2175 2409 1742 
Q 1991 1309 1228 531 
z
" transform="scale(0.015625)"/>
       </defs>
       <use xlink:href="#DejaVuSans-2212"/>
       <use xlink:href="#DejaVuSans-32" x="83.789062"/>
       <use xlink:href="#DejaVuSans-30" x="147.412109"/>
      </g>
     </g>
    </g>
    <g id="xtick_4">
     <g id="line2d_4">
      <g>
       <use xlink:href="#md7800af220" x="202.896" y="307.584" style="stroke: #000000; stroke-width: 0.8"/>
      </g>
     </g>
     <g id="text_4">
      <!-- −10 -->
      <g transform="translate(192.343656 322.182437) scale(0.1 -0.1)">
       <defs>
        <path id="DejaVuSans-31" d="M 794 531 
L 1825 531 
L 1825 4091 
L 703 3866 
L 703 4441 
L 1819 4666 
L 2450 4666 
L 2450 531 
L 3481 531 
L 3481 0 
L 794 0 
L 794 531 
z
" transform="scale(0.015625)"/>
       </defs>
       <use xlink:href="#DejaVuSans-2212"/>
       <use xlink:href="#DejaVuSans-31" x="83.789062"/>
       <use xlink:href="#DejaVuSans-30" x="147.412109"/>
      </g>
     </g>
    </g>
    <g id="xtick_5">
     <g id="line2d_5">
      <g>
       <use xlink:href="#md7800af220" x="236.16" y="307.584" style="stroke: #000000; stroke-width: 0.8"/>
      </g>
     </g>
     <g id="text_5">
      <!-- 0 -->
      <g transform="translate(232.97875 322.182437) scale(0.1 -0.1)">
       <use xlink:href="#DejaVuSans-30"/>
      </g>
     </g>
    </g>
    <g id="xtick_6">
     <g id="line2d_6">
      <g>
       <use xlink:href="#md7800af220" x="269.424" y="307.584" style="stroke: #000000; stroke-width: 0.8"/>
      </g>
     </g>
     <g id="text_6">
      <!-- 10 -->
      <g transform="translate(263.0615 322.182437) scale(0.1 -0.1)">
       <use xlink:href="#DejaVuSans-31"/>
       <use xlink:href="#DejaVuSans-30" x="63.623047"/>
      </g>
     </g>
    </g>
    <g id="xtick_7">
     <g id="line2d_7">
      <g>
       <use xlink:href="#md7800af220" x="302.688" y="307.584" style="stroke: #000000; stroke-width: 0.8"/>
      </g>
     </g>
     <g id="text_7">
      <!-- 20 -->
      <g transform="translate(296.3255 322.182437) scale(0.1 -0.1)">
       <use xlink:href="#DejaVuSans-32"/>
       <use xlink:href="#DejaVuSans-30" x="63.623047"/>
      </g>
     </g>
    </g>
    <g id="xtick_8">
     <g id="line2d_8">
      <g>
       <use xlink:href="#md7800af220" x="335.952" y="307.584" style="stroke: #000000; stroke-width: 0.8"/>
      </g>
     </g>
     <g id="text_8">
      <!-- 30 -->
      <g transform="translate(329.5895 322.182437) scale(0.1 -0.1)">
       <use xlink:href="#DejaVuSans-33"/>
       <use xlink:href="#DejaVuSans-30" x="63.623047"/>
      </g>
     </g>
    </g>
    <g id="xtick_9">
     <g id="line2d_9">
      <g>
       <use xlink:href="#md7800af220" x="369.216" y="307.584" style="stroke: #000000; stroke-width: 0.8"/>
      </g>
     </g>
     <g id="text_9">
      <!-- 40 -->
      <g transform="translate(362.8535 322.182437) scale(0.1 -0.1)">
       <use xlink:href="#DejaVuSans-34"/>
       <use xlink:href="#DejaVuSans-30" x="63.623047"/>
      </g>
     </g>
    </g>
   </g>
   <g id="matplotlib.axis_2">
    <g id="ytick_1">
     <g id="line2d_10">
      <defs>
       <path id="me80d8951f1" d="M 0 0 
L -3.5 0 
" style="stroke: #000000; stroke-width: 0.8"/>
      </defs>
      <g>
       <use xlink:href="#me80d8951f1" x="103.104" y="307.584" style="stroke: #000000; stroke-width: 0.8"/>
      </g>
     </g>
     <g id="text_10">
      <!-- −40 -->
      <g transform="translate(74.999313 311.383219) scale(0.1 -0.1)">
       <use xlink:href="#DejaVuSans-2212"/>
       <use xlink:href="#DejaVuSans-34" x="83.789062"/>
       <use xlink:href="#DejaVuSans-30" x="147.412109"/>
      </g>
     </g>
    </g>
    <g id="ytick_2">
     <g id="line2d_11">
      <g>
       <use xlink:href="#me80d8951f1" x="103.104" y="274.32" style="stroke: #000000; stroke-width: 0.8"/>
      </g>
     </g>
     <g id="text_11">
      <!-- −30 -->
      <g transform="translate(74.999313 278.119219) scale(0.1 -0.1)">
       <use xlink:href="#DejaVuSans-2212"/>
       <use xlink:href="#DejaVuSans-33" x="83.789062"/>
       <use xlink:href="#DejaVuSans-30" x="147.412109"/>
      </g>
     </g>
    </g>
    <g id="ytick_3">
     <g id="line2d_12">
      <g>
       <use xlink:href="#me80d8951f1" x="103.104" y="241.056" style="stroke: #000000; stroke-width: 0.8"/>
      </g>
     </g>
     <g id="text_12">
      <!-- −20 -->
      <g transform="translate(74.999313 244.855219) scale(0.1 -0.1)">
       <use xlink:href="#DejaVuSans-2212"/>
       <use xlink:href="#DejaVuSans-32" x="83.789062"/>
       <use xlink:href="#DejaVuSans-30" x="147.412109"/>
      </g>
     </g>
    </g>
    <g id="ytick_4">
     <g id="line2d_13">
      <g>
       <use xlink:href="#me80d8951f1" x="103.104" y="207.792" style="stroke: #000000; stroke-width: 0.8"/>
      </g>
     </g>
     <g id="text_13">
      <!-- −10 -->
      <g transform="translate(74.999313 211.591219) scale(0.1 -0.1)">
       <use xlink:href="#DejaVuSans-2212"/>
       <use xlink:href="#DejaVuSans-31" x="83.789062"/>
       <use xlink:href="#DejaVuSans-30" x="147.412109"/>
      </g>
     </g>
    </g>
    <g id="ytick_5">
     <g id="line2d_14">
      <g>
       <use xlink:href="#me80d8951f1" x="103.104" y="174.528" style="stroke: #000000; stroke-width: 0.8"/>
      </g>
     </g>
     <g id="text_14">
      <!-- 0 -->
      <g transform="translate(89.7415 178.327219) scale(0.1 -0.1)">
       <use xlink:href="#DejaVuSans-30"/>
      </g>
     </g>
    </g>
    <g id="ytick_6">
     <g id="line2d_15">
      <g>
       <use xlink:href="#me80d8951f1" x="103.104" y="141.264" style="stroke: #000000; stroke-width: 0.8"/>
      </g>
     </g>
     <g id="text_15">
      <!-- 10 -->
      <g transform="translate(83.379 145.063219) scale(0.1 -0.1)">
       <use xlink:href="#DejaVuSans-31"/>
       <use xlink:href="#DejaVuSans-30" x="63.623047"/>
      </g>
     </g>
    </g>
    <g id="ytick_7">
     <g id="line2d_16">
      <g>
       <use xlink:href="#me80d8951f1" x="103.104" y="108" style="stroke: #000000; stroke-width: 0.8"/>
      </g>
     </g>
     <g id="text_16">
      <!-- 20 -->
      <g transform="translate(83.379 111.799219) scale(0.1 -0.1)">
       <use xlink:href="#DejaVuSans-32"/>
       <use xlink:href="#DejaVuSans-30" x="63.623047"/>
      </g>
     </g>
    </g>
    <g id="ytick_8">
     <g id="line2d_17">
      <g>
       <use xlink:href="#me80d8951f1" x="103.104" y="74.736" style="stroke: #000000; stroke-width: 0.8"/>
      </g>
     </g>
     <g id="text_17">
      <!-- 30 -->
      <g transform="translate(83.379 78.535219) scale(0.1 -0.1)">
       <use xlink:href="#DejaVuSans-33"/>
       <use xlink:href="#DejaVuSans-30" x="63.623047"/>
      </g>
     </g>
    </g>
    <g id="ytick_9">
     <g id="line2d_18">
      <g>
       <use xlink:href="#me80d8951f1" x="103.104" y="41.472" style="stroke: #000000; stroke-width: 0.8"/>
      </g>
     </g>
     <g id="text_18">
      <!-- 40 -->
      <g transform="translate(83.379 45.271219) scale(0.1 -0.1)">
       <use xlink:href="#DejaVuSans-34"/>
       <use xlink:href="#DejaVuSans-30" x="63.623047"/>
      </g>
     </g>
    </g>
   </g>
   <g id="line2d_19">
    <path d="M 250.2972 288.4572 
L 250.2972 188.6652 
" clip-path="url(#p6b3e0529ed)" style="fill: none; stroke: #000000; stroke-width: 0.25; stroke-linecap: square"/>
   </g>
   <g id="line2d_20">
    <path d="M 250.2972 188.6652 
L 350.0892 188.6652 
" clip-path="url(#p6b3e0529ed)" style="fill: none; stroke: #000000; stroke-width: 0.25; stroke-linecap: square"/>
   </g>
   <g id="line2d_21">
    <path d="M 350.0892 160.3908 
L 250.2972 160.3908 
" clip-path="url(#p6b3e0529ed)" style="fill: none; stroke: #000000; stroke-width: 0.25; stroke-linecap: square"/>
   </g>
   <g id="line2d_22">
    <path d="M 250.2972 160.3908 
L 250.2972 60.5988 
" clip-path="url(#p6b3e0529ed)" style="fill: none; stroke: #000000; stroke-width: 0.25; stroke-linecap: square"/>
   </g>
   <g id="line2d_23">
    <path d="M 222.0228 60.5988 
L 222.0228 160.3908 
" clip-path="url(#p6b3e0529ed)" style="fill: none; stroke: #000000; stroke-width: 0.25; stroke-linecap: square"/>
   </g>
   <g id="line2d_24">
    <path d="M 222.0228 160.3908 
L 122.2308 160.3908 
" clip-path="url(#p6b3e0529ed)" style="fill: none; stroke: #000000; stroke-width: 0.25; stroke-linecap: square"/>
   </g>
   <g id="line2d_25">
    <path d="M 122.2308 188.6652 
L 222.0228 188.6652 
" clip-path="url(#p6b3e0529ed)" style="fill: none; stroke: #000000; stroke-width: 0.25; stroke-linecap: square"/>
   </g>
   <g id="line2d_26">
    <path d="M 222.0228 188.6652 
L 222.0228 288.4572 
" clip-path="url(#p6b3e0529ed)" style="fill: none; stroke: #000000; stroke-width: 0.25; stroke-linecap: square"/>
   </g>
   <g id="line2d_27">
    <path d="M 250.2972 174.528 
L 350.0892 174.528 
" clip-path="url(#p6b3e0529ed)" style="fill: none; stroke-dasharray: 0.925,0.4; stroke-dashoffset: 0; stroke: #000000; stroke-width: 0.25"/>
   </g>
   <g id="line2d_28">
    <path d="M 236.16 160.3908 
L 236.16 60.5988 
" clip-path="url(#p6b3e0529ed)" style="fill: none; stroke-dasharray: 0.925,0.4; stroke-dashoffset: 0; stroke: #000000; stroke-width: 0.25"/>
   </g>
   <g id="line2d_29">
    <path d="M 222.0228 174.528 
L 122.2308 174.528 
" clip-path="url(#p6b3e0529ed)" style="fill: none; stroke-dasharray: 0.925,0.4; stroke-dashoffset: 0; stroke: #000000; stroke-width: 0.25"/>
   </g>
   <g id="line2d_30">
    <path d="M 236.16 188.6652 
L 236.16 288.4572 
" clip-path="url(#p6b3e0529ed)" style="fill: none; stroke-dasharray: 0.925,0.4; stroke-dashoffset: 0; stroke: #000000; stroke-width: 0.25"/>
   </g>
   <g id="line2d_31">
    <path d="M 189.317035 168.668976 
L 187.690149 168.671973 
L 186.063801 168.674609 
L 184.43793 168.676494 
L 182.81248 168.677759 
L 181.187398 168.678523 
L 179.562637 168.67889 
L 177.938153 168.67895 
L 176.313904 168.67878 
L 174.689854 168.678444 
L 173.065971 168.677997 
L 171.442224 168.677481 
L 169.818586 168.67693 
L 168.195035 168.676372 
L 166.57155 168.675827 
L 164.948114 168.675308 
L 163.32471 168.674826 
L 161.701328 168.674386 
L 160.077955 168.673992 
L 158.454585 168.673645 
L 156.831209 168.673343 
L 155.207825 168.673084 
L 153.584428 168.672864 
L 151.961016 168.67268 
L 150.33759 168.672526 
L 148.714149 168.6724 
L 147.090695 168.672294 
L 145.467229 168.672206 
L 143.843754 168.67213 
L 142.220273 168.672062 
L 140.596789 168.67199 
" clip-path="url(#p6b3e0529ed)" style="fill: none; stroke: #ff0000; stroke-opacity: 0.2; stroke-width: 0.25; stroke-linecap: square"/>
   </g>
   <g id="line2d_32">
    <path d="M 189.317035 168.668976 
L 187.690148 168.671612 
L 186.063807 168.674261 
L 184.437949 168.676172 
L 182.812518 168.677475 
L 181.187462 168.678282 
L 179.562733 168.678696 
L 177.938287 168.678805 
L 176.314083 168.678682 
L 174.690085 168.678391 
L 173.066259 168.677983 
L 171.442576 168.677502 
L 169.819009 168.676981 
L 168.195535 168.676446 
L 166.572133 168.675918 
L 164.948786 168.67541 
L 163.325478 168.674934 
L 161.702197 168.674496 
L 160.078932 168.674099 
L 158.455674 168.673746 
L 156.832417 168.673434 
L 155.209156 168.673163 
L 153.585888 168.67293 
L 151.96261 168.67273 
L 150.339321 168.672559 
L 148.716022 168.672413 
L 147.092714 168.672287 
L 145.469397 168.672175 
L 143.846074 168.672073 
L 142.222746 168.671976 
L 140.599417 168.671882 
" clip-path="url(#p6b3e0529ed)" style="fill: none; stroke: #ff0000; stroke-opacity: 0.4; stroke-width: 0.25; stroke-linecap: square"/>
   </g>
   <g id="line2d_33">
    <path d="M 189.317035 168.668976 
L 187.690148 168.671383 
L 186.063803 168.674045 
L 184.437937 168.675975 
L 182.812495 168.6773 
L 181.187424 168.678131 
L 179.562676 168.678567 
L 177.938207 168.678696 
L 176.313977 168.678591 
L 174.689949 168.678314 
L 173.06609 168.677918 
L 171.44237 168.677445 
L 169.818762 168.67693 
L 168.195244 168.676398 
L 166.571794 168.675872 
L 164.948395 168.675366 
L 163.325033 168.674891 
L 161.701694 168.674455 
L 160.078368 168.67406 
L 158.455046 168.673709 
L 156.831723 168.673402 
L 155.208392 168.673135 
L 153.585052 168.672908 
L 151.961699 168.672715 
L 150.338334 168.672552 
L 148.714956 168.672415 
L 147.091567 168.672299 
L 145.468168 168.672199 
L 143.844761 168.672109 
L 142.22135 168.672026 
L 140.597935 168.671944 
" clip-path="url(#p6b3e0529ed)" style="fill: none; stroke: #ff0000; stroke-opacity: 0.6; stroke-width: 0.25; stroke-linecap: square"/>
   </g>
   <g id="line2d_34">
    <path d="M 189.317035 168.668976 
L 187.690148 168.671239 
L 186.063805 168.673915 
L 184.437944 168.675862 
L 182.812508 168.677204 
L 181.187446 168.678053 
L 179.562709 168.678506 
L 177.938253 168.678649 
L 176.314039 168.678556 
L 174.690028 168.67829 
L 173.066188 168.677903 
L 171.442489 168.677438 
L 169.818905 168.676928 
L 168.195412 168.676402 
L 166.57199 168.675881 
L 164.948621 168.675378 
L 163.325289 168.674906 
L 161.701983 168.674471 
L 160.078692 168.674078 
L 158.455406 168.673727 
L 156.83212 168.673419 
L 155.208829 168.673152 
L 153.585529 168.672922 
L 151.962218 168.672725 
L 150.338896 168.672559 
L 148.715562 168.672417 
L 147.092218 168.672295 
L 145.468864 168.672188 
L 143.845504 168.672092 
L 142.222139 168.672001 
L 140.598771 168.671911 
" clip-path="url(#p6b3e0529ed)" style="fill: none; stroke: #ff0000; stroke-opacity: 0.8; stroke-width: 0.25; stroke-linecap: square"/>
   </g>
   <g id="line2d_35">
    <path d="M 189.317035 168.668976 
L 187.690148 168.671147 
L 186.063803 168.673833 
L 184.43794 168.675792 
L 182.8125 168.677145 
L 181.187433 168.678003 
L 179.56269 168.678464 
L 177.938227 168.678615 
L 176.314003 168.678528 
L 174.689982 168.678267 
L 173.066131 168.677884 
L 171.44242 168.677422 
L 169.818822 168.676915 
L 168.195315 168.676391 
L 166.571877 168.67587 
L 164.948491 168.675369 
L 163.325142 168.674898 
L 161.701817 168.674464 
L 160.078506 168.674071 
L 158.4552 168.673721 
L 156.831893 168.673414 
L 155.20858 168.673148 
L 153.585257 168.672919 
L 151.961923 168.672724 
L 150.338577 168.672559 
L 148.715218 168.67242 
L 147.091849 168.6723 
L 145.46847 168.672197 
L 143.845084 168.672104 
L 142.221693 168.672017 
L 140.598299 168.671931 
" clip-path="url(#p6b3e0529ed)" style="fill: none; stroke: #ff0000; stroke-width: 0.25; stroke-linecap: square"/>
   </g>
   <g id="line2d_36">
    <path d="M 242.006052 116.776807 
L 242.009707 115.282533 
L 242.013071 113.786674 
L 242.015702 112.289331 
L 242.017707 110.790605 
L 242.01918 109.290592 
L 242.020209 107.789386 
L 242.020873 106.287077 
L 242.021242 104.78375 
L 242.021376 103.27949 
L 242.021328 101.774373 
L 242.021144 100.268476 
L 242.020862 98.761868 
L 242.020513 97.254617 
L 242.020122 95.746785 
L 242.019711 94.238433 
L 242.019296 92.729615 
L 242.018888 91.220383 
L 242.018497 89.710785 
L 242.018129 88.200866 
L 242.017788 86.690667 
L 242.017475 85.180227 
L 242.017192 83.669579 
L 242.016936 82.158756 
L 242.016706 80.647787 
L 242.0165 79.136699 
L 242.016314 77.625515 
L 242.016143 76.114258 
L 242.015985 74.602946 
L 242.015835 73.091598 
L 242.015683 71.580229 
" clip-path="url(#p6b3e0529ed)" style="fill: none; stroke: #ff0000; stroke-opacity: 0.2; stroke-width: 0.25; stroke-linecap: square"/>
   </g>
   <g id="line2d_37">
    <path d="M 242.006052 116.776807 
L 242.009404 115.282532 
L 242.012788 113.786672 
L 242.01545 112.289327 
L 242.017491 110.790598 
L 242.019005 109.290582 
L 242.020077 107.789373 
L 242.020783 106.287062 
L 242.021192 104.783734 
L 242.021362 103.279473 
L 242.021347 101.774358 
L 242.02119 100.268463 
L 242.02093 98.761861 
L 242.020597 97.254619 
L 242.020218 95.746799 
L 242.019813 94.238462 
L 242.019399 92.729664 
L 242.018989 91.220456 
L 242.018592 89.710887 
L 242.018215 88.201002 
L 242.017862 86.690844 
L 242.017535 85.180449 
L 242.017235 83.669853 
L 242.016961 82.15909 
L 242.016711 80.648188 
L 242.016482 79.137173 
L 242.01627 77.626071 
L 242.016073 76.114904 
L 242.015885 74.603691 
L 242.015701 73.09245 
L 242.015522 71.581198 
" clip-path="url(#p6b3e0529ed)" style="fill: none; stroke: #ff0000; stroke-opacity: 0.4; stroke-width: 0.25; stroke-linecap: square"/>
   </g>
   <g id="line2d_38">
    <path d="M 242.006052 116.776807 
L 242.009241 115.282532 
L 242.012638 113.786672 
L 242.015316 112.289327 
L 242.017373 110.790599 
L 242.018902 109.290583 
L 242.019988 107.789374 
L 242.020705 106.287061 
L 242.021122 104.783732 
L 242.0213 103.279469 
L 242.021289 101.774351 
L 242.021135 100.268452 
L 242.020876 98.761844 
L 242.020545 97.254595 
L 242.020166 95.746767 
L 242.019763 94.238419 
L 242.019351 92.729608 
L 242.018943 91.220386 
L 242.01855 89.7108 
L 242.018178 88.200895 
L 242.017831 86.690714 
L 242.017511 85.180294 
L 242.01722 83.66967 
L 242.016955 82.158875 
L 242.016716 80.647938 
L 242.016499 79.136886 
L 242.016301 77.625742 
L 242.016118 76.114529 
L 242.015946 74.603267 
L 242.015781 73.091973 
L 242.015616 71.580663 
" clip-path="url(#p6b3e0529ed)" style="fill: none; stroke: #ff0000; stroke-opacity: 0.6; stroke-width: 0.25; stroke-linecap: square"/>
   </g>
   <g id="line2d_39">
    <path d="M 242.006052 116.776807 
L 242.009155 115.282532 
L 242.012564 113.786672 
L 242.015253 112.289327 
L 242.017322 110.790599 
L 242.018862 109.290584 
L 242.019957 107.789376 
L 242.020683 106.287065 
L 242.021107 104.783738 
L 242.021291 103.279477 
L 242.021285 101.774361 
L 242.021136 100.268466 
L 242.020881 98.761863 
L 242.020553 97.254618 
L 242.020177 95.746796 
L 242.019776 94.238455 
L 242.019365 92.729652 
L 242.018959 91.220438 
L 242.018566 89.710862 
L 242.018193 88.200969 
L 242.017844 86.690801 
L 242.017522 85.180394 
L 242.017226 83.669786 
L 242.016957 82.159008 
L 242.016713 80.648089 
L 242.016489 79.137057 
L 242.016284 77.625935 
L 242.016093 76.114745 
L 242.015912 74.603508 
L 242.015737 73.092241 
L 242.015564 71.58096 
" clip-path="url(#p6b3e0529ed)" style="fill: none; stroke: #ff0000; stroke-opacity: 0.8; stroke-width: 0.25; stroke-linecap: square"/>
   </g>
   <g id="line2d_40">
    <path d="M 242.006052 116.776807 
L 242.009109 115.282531 
L 242.012524 113.786671 
L 242.01522 112.289327 
L 242.017294 110.790598 
L 242.018838 109.290582 
L 242.019936 107.789373 
L 242.020665 106.287061 
L 242.021092 104.783732 
L 242.021277 103.27947 
L 242.021273 101.774352 
L 242.021124 100.268455 
L 242.02087 98.761848 
L 242.020543 97.2546 
L 242.020168 95.746774 
L 242.019767 94.238429 
L 242.019357 92.729622 
L 242.018951 91.220403 
L 242.018559 89.710821 
L 242.018187 88.200921 
L 242.017839 86.690746 
L 242.017519 85.180332 
L 242.017226 83.669715 
L 242.016959 82.158928 
L 242.016717 80.647999 
L 242.016497 79.136956 
L 242.016296 77.625823 
L 242.016109 76.114621 
L 242.015933 74.603371 
L 242.015763 73.09209 
L 242.015595 71.580795 
" clip-path="url(#p6b3e0529ed)" style="fill: none; stroke: #ff0000; stroke-width: 0.25; stroke-linecap: square"/>
   </g>
   <g id="line2d_41">
    <path d="M 230.31307 224.051414 
L 230.312432 225.656508 
L 230.311866 227.261804 
L 230.311203 228.867294 
L 230.310488 230.472971 
L 230.309755 232.078827 
L 230.309033 233.684851 
L 230.308341 235.291037 
L 230.307694 236.897376 
L 230.307099 238.503857 
L 230.306563 240.110474 
L 230.306088 241.717217 
L 230.305673 243.324077 
L 230.305316 244.931047 
L 230.305014 246.538118 
L 230.304762 248.145281 
L 230.304556 249.75253 
L 230.304391 251.359856 
L 230.304262 252.967252 
L 230.304163 254.574711 
L 230.304091 256.182227 
L 230.304041 257.789791 
L 230.304009 259.3974 
L 230.303992 261.005046 
L 230.303987 262.612723 
L 230.303991 264.220427 
L 230.304002 265.828153 
L 230.304017 267.435896 
L 230.304036 269.043651 
L 230.304057 270.651415 
L 230.304075 272.259183 
" clip-path="url(#p6b3e0529ed)" style="fill: none; stroke: #ff0000; stroke-opacity: 0.2; stroke-width: 0.25; stroke-linecap: square"/>
   </g>
   <g id="line2d_42">
    <path d="M 230.31307 224.051414 
L 230.312286 225.656508 
L 230.311726 227.261803 
L 230.311075 228.867291 
L 230.310375 230.472965 
L 230.309661 232.078815 
L 230.308958 233.684834 
L 230.308286 235.291013 
L 230.307657 236.897342 
L 230.307081 238.503813 
L 230.306561 240.110418 
L 230.306099 241.717147 
L 230.305696 243.323992 
L 230.305348 244.930944 
L 230.305053 246.537995 
L 230.304806 248.145138 
L 230.304603 249.752363 
L 230.304438 251.359664 
L 230.304308 252.967032 
L 230.304208 254.574461 
L 230.304133 256.181944 
L 230.304079 257.789475 
L 230.304044 259.397047 
L 230.304022 261.004653 
L 230.304012 262.61229 
L 230.304011 264.21995 
L 230.304016 265.82763 
L 230.304026 267.435324 
L 230.304038 269.043029 
L 230.304051 270.65074 
L 230.304065 272.258454 
" clip-path="url(#p6b3e0529ed)" style="fill: none; stroke: #ff0000; stroke-opacity: 0.4; stroke-width: 0.25; stroke-linecap: square"/>
   </g>
   <g id="line2d_43">
    <path d="M 230.31307 224.051414 
L 230.312196 225.656508 
L 230.311642 227.261804 
L 230.310998 228.867293 
L 230.310307 230.472969 
L 230.309602 232.078823 
L 230.308908 233.684846 
L 230.308243 235.291029 
L 230.307621 236.897364 
L 230.30705 238.503842 
L 230.306534 240.110454 
L 230.306075 241.717191 
L 230.305674 243.324046 
L 230.305327 244.931008 
L 230.305032 246.538071 
L 230.304785 248.145226 
L 230.304582 249.752465 
L 230.304418 251.35978 
L 230.304289 252.967165 
L 230.304189 254.574611 
L 230.304115 256.182112 
L 230.304063 257.789662 
L 230.304028 259.397254 
L 230.304009 261.004882 
L 230.304001 262.612541 
L 230.304002 264.220225 
L 230.30401 265.82793 
L 230.304022 267.43565 
L 230.304038 269.043381 
L 230.304054 270.65112 
L 230.30407 272.258863 
" clip-path="url(#p6b3e0529ed)" style="fill: none; stroke: #ff0000; stroke-opacity: 0.6; stroke-width: 0.25; stroke-linecap: square"/>
   </g>
   <g id="line2d_44">
    <path d="M 230.31307 224.051414 
L 230.312142 225.656508 
L 230.311593 227.261803 
L 230.310956 228.867292 
L 230.310272 230.472966 
L 230.309573 232.078818 
L 230.308885 233.684838 
L 230.308226 235.291019 
L 230.307609 236.89735 
L 230.307042 238.503824 
L 230.306529 240.110432 
L 230.306074 241.717164 
L 230.305674 243.324013 
L 230.30533 244.930969 
L 230.305037 246.538025 
L 230.304792 248.145173 
L 230.30459 249.752404 
L 230.304427 251.359711 
L 230.304298 252.967086 
L 230.304199 254.574523 
L 230.304125 256.182014 
L 230.304073 257.789553 
L 230.304038 259.397133 
L 230.304018 261.00475 
L 230.304009 262.612396 
L 230.304009 264.220067 
L 230.304015 265.827759 
L 230.304026 267.435465 
L 230.304039 269.043182 
L 230.304054 270.650906 
L 230.304069 272.258633 
" clip-path="url(#p6b3e0529ed)" style="fill: none; stroke: #ff0000; stroke-opacity: 0.8; stroke-width: 0.25; stroke-linecap: square"/>
   </g>
   <g id="line2d_45">
    <path d="M 230.31307 224.051414 
L 230.312108 225.656508 
L 230.311564 227.261803 
L 230.310931 228.867293 
L 230.31025 230.472968 
L 230.309555 232.078821 
L 230.30887 233.684843 
L 230.308214 235.291025 
L 230.307598 236.897358 
L 230.307033 238.503835 
L 230.306522 240.110445 
L 230.306067 241.71718 
L 230.305668 243.324032 
L 230.305325 244.930993 
L 230.305032 246.538053 
L 230.304787 248.145204 
L 230.304585 249.75244 
L 230.304422 251.359752 
L 230.304294 252.967132 
L 230.304195 254.574574 
L 230.304121 256.182071 
L 230.304069 257.789616 
L 230.304034 259.397203 
L 230.304014 261.004826 
L 230.304006 262.612479 
L 230.304006 264.220158 
L 230.304013 265.827856 
L 230.304024 267.43557 
L 230.304039 269.043295 
L 230.304054 270.651027 
L 230.30407 272.258762 
" clip-path="url(#p6b3e0529ed)" style="fill: none; stroke: #ff0000; stroke-width: 0.25; stroke-linecap: square"/>
   </g>
   <g id="line2d_46">
    <path d="M 285.719886 180.372046 
L 287.32499 180.373284 
L 288.930097 180.374384 
L 290.535217 180.375503 
L 292.140362 180.376599 
L 293.745541 180.377646 
L 295.35076 180.378622 
L 296.956026 180.379516 
L 298.561345 180.38032 
L 300.166719 180.381031 
L 301.772153 180.381651 
L 303.377647 180.382183 
L 304.983203 180.382633 
L 306.588821 180.383007 
L 308.1945 180.383312 
L 309.80024 180.383557 
L 311.406037 180.383748 
L 313.011891 180.383893 
L 314.617798 180.383999 
L 316.223755 180.384073 
L 317.829758 180.384119 
L 319.435804 180.384143 
L 321.041888 180.38415 
L 322.648007 180.384143 
L 324.254156 180.384125 
L 325.86033 180.3841 
L 327.466525 180.38407 
L 329.072738 180.384035 
L 330.678963 180.383999 
L 332.285197 180.383961 
L 333.891436 180.383926 
" clip-path="url(#p6b3e0529ed)" style="fill: none; stroke: #ff0000; stroke-opacity: 0.2; stroke-width: 0.25; stroke-linecap: square"/>
   </g>
   <g id="line2d_47">
    <path d="M 285.719886 180.372046 
L 287.32499 180.373419 
L 288.930094 180.374514 
L 290.535209 180.375621 
L 292.140345 180.376704 
L 293.745513 180.377734 
L 295.350717 180.378693 
L 296.955966 180.379568 
L 298.561265 180.380354 
L 300.166616 180.381049 
L 301.772022 180.381654 
L 303.377486 180.382173 
L 304.983009 180.382612 
L 306.58859 180.382978 
L 308.194229 180.383277 
L 309.799925 180.383517 
L 311.405675 180.383705 
L 313.011479 180.383849 
L 314.617331 180.383956 
L 316.223231 180.38403 
L 317.829173 180.384078 
L 319.435155 180.384105 
L 321.041171 180.384115 
L 322.647219 180.384111 
L 324.253294 180.384097 
L 325.859391 180.384076 
L 327.465506 180.384049 
L 329.071636 180.384019 
L 330.677776 180.383987 
L 332.283922 180.383955 
L 333.89007 180.383921 
" clip-path="url(#p6b3e0529ed)" style="fill: none; stroke: #ff0000; stroke-opacity: 0.4; stroke-width: 0.25; stroke-linecap: square"/>
   </g>
   <g id="line2d_48">
    <path d="M 285.719886 180.372046 
L 287.32499 180.373502 
L 288.930095 180.374592 
L 290.535214 180.375692 
L 292.140356 180.376766 
L 293.74553 180.377788 
L 295.350743 180.378739 
L 296.956003 180.379607 
L 298.561313 180.380387 
L 300.166679 180.381078 
L 301.772101 180.381679 
L 303.377583 180.382196 
L 304.983125 180.382633 
L 306.588728 180.382997 
L 308.19439 180.383296 
L 309.800112 180.383536 
L 311.405889 180.383724 
L 313.011722 180.383868 
L 314.617605 180.383974 
L 316.223537 180.384049 
L 317.829514 180.384096 
L 319.435531 180.384122 
L 321.041586 180.384131 
L 322.647673 180.384126 
L 324.253788 180.384111 
L 325.859928 180.384088 
L 327.466087 180.384059 
L 329.072262 180.384027 
L 330.678448 180.383993 
L 332.284641 180.383958 
L 333.890838 180.383925 
" clip-path="url(#p6b3e0529ed)" style="fill: none; stroke: #ff0000; stroke-opacity: 0.6; stroke-width: 0.25; stroke-linecap: square"/>
   </g>
   <g id="line2d_49">
    <path d="M 285.719886 180.372046 
L 287.32499 180.373553 
L 288.930094 180.374637 
L 290.535211 180.375731 
L 292.140349 180.376799 
L 293.745519 180.377815 
L 295.350728 180.37876 
L 296.955981 180.379623 
L 298.561284 180.380399 
L 300.166641 180.381085 
L 301.772054 180.381683 
L 303.377526 180.382197 
L 304.983056 180.382632 
L 306.588646 180.382995 
L 308.194295 180.383291 
L 309.800002 180.38353 
L 311.405764 180.383717 
L 313.01158 180.38386 
L 314.617446 180.383965 
L 316.223359 180.384039 
L 317.829317 180.384086 
L 319.435314 180.384112 
L 321.041347 180.384121 
L 322.647413 180.384116 
L 324.253505 180.384102 
L 325.859621 180.384079 
L 327.465757 180.384052 
L 329.071907 180.384021 
L 330.678067 180.383988 
L 332.284235 180.383955 
L 333.890406 180.383921 
" clip-path="url(#p6b3e0529ed)" style="fill: none; stroke: #ff0000; stroke-opacity: 0.8; stroke-width: 0.25; stroke-linecap: square"/>
   </g>
   <g id="line2d_50">
    <path d="M 285.719886 180.372046 
L 287.32499 180.373584 
L 288.930095 180.374665 
L 290.535213 180.375755 
L 292.140353 180.37682 
L 293.745525 180.377832 
L 295.350737 180.378774 
L 296.955994 180.379635 
L 298.561301 180.380409 
L 300.166663 180.381094 
L 301.772082 180.381691 
L 303.377559 180.382204 
L 304.983097 180.382638 
L 306.588694 180.383 
L 308.194351 180.383296 
L 309.800066 180.383534 
L 311.405837 180.383721 
L 313.011662 180.383864 
L 314.617538 180.38397 
L 316.223462 180.384043 
L 317.82943 180.384091 
L 319.435439 180.384116 
L 321.041484 180.384125 
L 322.647561 180.384121 
L 324.253667 180.384106 
L 325.859796 180.384083 
L 327.465944 180.384055 
L 329.072108 180.384024 
L 330.678283 180.383991 
L 332.284464 180.383957 
L 333.89065 180.383923 
" clip-path="url(#p6b3e0529ed)" style="fill: none; stroke: #ff0000; stroke-width: 0.25; stroke-linecap: square"/>
   </g>
   <g id="line2d_51">
    <path d="M 241.614097 162.988082 
L 241.346381 161.354466 
L 241.216961 159.719819 
L 241.220405 158.09543 
L 241.297492 156.487262 
L 241.408716 154.894209 
L 241.527203 153.313577 
L 241.594416 151.74066 
L 241.661223 150.177364 
L 241.719886 148.622364 
L 241.774519 147.074898 
L 241.823928 145.534063 
L 241.867508 143.999054 
L 241.90509 142.46915 
L 241.936818 140.943701 
L 241.963047 139.422124 
L 241.984262 137.903889 
L 242.001015 136.388519 
L 242.013883 134.875585 
L 242.023433 133.364704 
L 242.030203 131.855533 
L 242.034687 130.34777 
L 242.037332 128.841151 
L 242.038532 127.335446 
L 242.038631 125.830456 
L 242.037924 124.326011 
L 242.036662 122.821966 
L 242.035051 121.318199 
L 242.03327 119.814606 
L 242.03142 118.311099 
L 242.029163 116.807611 
" clip-path="url(#p6b3e0529ed)" style="fill: none; stroke: #ff0000; stroke-opacity: 0.2; stroke-width: 0.25; stroke-linecap: square"/>
   </g>
   <g id="line2d_52">
    <path d="M 241.614097 162.988082 
L 241.354564 161.353146 
L 241.226895 159.718358 
L 241.232476 158.093976 
L 241.311569 156.48591 
L 241.424458 154.892985 
L 241.543958 153.312442 
L 241.611432 151.739551 
L 241.678107 150.176265 
L 241.73594 148.621252 
L 241.789605 147.073767 
L 241.837965 145.532914 
L 241.88046 143.997888 
L 241.916955 142.467969 
L 241.947619 140.942508 
L 241.972824 139.42092 
L 241.993065 137.902675 
L 242.008898 136.387297 
L 242.020902 134.874355 
L 242.029639 133.363465 
L 242.035644 131.854286 
L 242.039406 130.346516 
L 242.041361 128.839891 
L 242.041897 127.334182 
L 242.041349 125.829191 
L 242.040004 124.324749 
L 242.038104 122.820714 
L 242.03585 121.316965 
L 242.033411 119.813401 
L 242.030901 118.309937 
L 242.028151 116.806504 
" clip-path="url(#p6b3e0529ed)" style="fill: none; stroke: #ff0000; stroke-opacity: 0.4; stroke-width: 0.25; stroke-linecap: square"/>
   </g>
   <g id="line2d_53">
    <path d="M 241.614097 162.988082 
L 241.360816 161.352166 
L 241.233598 159.717341 
L 241.239941 158.092965 
L 241.319701 156.484944 
L 241.432951 154.892063 
L 241.552418 153.311541 
L 241.619404 151.738658 
L 241.685326 150.175373 
L 241.741878 148.620348 
L 241.794232 147.072858 
L 241.841307 145.532005 
L 241.88258 143.996988 
L 241.917949 142.467085 
L 241.9476 140.941647 
L 241.971919 139.420088 
L 241.991406 137.901876 
L 242.006617 136.386534 
L 242.018125 134.873631 
L 242.026489 133.362782 
L 242.032232 131.853644 
L 242.035832 130.345916 
L 242.037716 128.839335 
L 242.038259 127.33367 
L 242.037782 125.828726 
L 242.036561 124.324334 
L 242.034827 122.820354 
L 242.032769 121.316665 
L 242.030536 119.813169 
L 242.028239 118.309781 
L 242.025806 116.806433 
" clip-path="url(#p6b3e0529ed)" style="fill: none; stroke: #ff0000; stroke-opacity: 0.6; stroke-width: 0.25; stroke-linecap: square"/>
   </g>
   <g id="line2d_54">
    <path d="M 241.614097 162.988082 
L 241.366402 161.351311 
L 241.239655 159.716448 
L 241.246783 158.092079 
L 241.327285 156.484106 
L 241.441012 154.891275 
L 241.56061 153.310784 
L 241.627287 151.737913 
L 241.692663 150.174635 
L 241.748179 148.619606 
L 241.799488 147.072116 
L 241.845556 145.53127 
L 241.885898 143.996266 
L 241.920431 142.466384 
L 241.949361 140.940973 
L 241.973079 139.419446 
L 241.992085 137.90127 
L 242.006932 136.385965 
L 242.018187 134.873102 
L 242.026397 133.362293 
L 242.032075 131.853197 
L 242.035686 130.345511 
L 242.037645 128.838972 
L 242.038314 127.333351 
L 242.038004 125.828451 
L 242.036979 124.324107 
L 242.03546 122.820176 
L 242.033627 121.316541 
L 242.031621 119.813103 
L 242.029553 118.309779 
L 242.027413 116.806502 
" clip-path="url(#p6b3e0529ed)" style="fill: none; stroke: #ff0000; stroke-opacity: 0.8; stroke-width: 0.25; stroke-linecap: square"/>
   </g>
   <g id="line2d_55">
    <path d="M 241.614097 162.988082 
L 241.371013 161.35062 
L 241.2443 159.715754 
L 241.251715 158.09139 
L 241.332469 156.483439 
L 241.446216 154.890623 
L 241.565608 153.310136 
L 241.631775 151.737266 
L 241.696474 150.173986 
L 241.750936 148.618947 
L 241.801223 147.071454 
L 241.84634 145.530613 
L 241.885828 143.995621 
L 241.919624 142.465757 
L 241.94794 140.94037 
L 241.971168 139.418871 
L 241.989805 137.900727 
L 242.004397 136.385457 
L 242.015497 134.872629 
L 242.023641 133.361857 
L 242.029328 131.852798 
L 242.033011 130.345149 
L 242.035091 128.838648 
L 242.035918 127.333065 
L 242.035792 125.828205 
L 242.034967 124.323901 
L 242.033655 122.820013 
L 242.032032 121.316423 
L 242.030233 119.813033 
L 242.028371 118.309761 
L 242.026476 116.806539 
" clip-path="url(#p6b3e0529ed)" style="fill: none; stroke: #ff0000; stroke-width: 0.25; stroke-linecap: square"/>
   </g>
   <g id="line2d_56">
    <path d="M 225.791572 167.01089 
L 224.208343 167.290743 
L 222.621935 167.517546 
L 221.033495 167.690067 
L 219.444716 167.812554 
L 217.857067 167.892173 
L 216.271499 167.937087 
L 214.688469 167.956035 
L 213.109174 168.015999 
L 211.532084 168.071032 
L 209.958011 168.148262 
L 208.385817 168.226792 
L 206.815336 168.308388 
L 205.245716 168.380512 
L 203.676811 168.443301 
L 202.108506 168.497148 
L 200.540702 168.542625 
L 198.973319 168.580421 
L 197.406285 168.61129 
L 195.839537 168.636013 
L 194.273017 168.655368 
L 192.706676 168.670109 
L 191.140471 168.680955 
L 189.574367 168.688577 
L 188.008332 168.693597 
L 186.442345 168.696584 
L 184.876386 168.698053 
L 183.310443 168.698485 
L 181.744508 168.698331 
L 180.178574 168.697994 
L 178.612639 168.697008 
" clip-path="url(#p6b3e0529ed)" style="fill: none; stroke: #ff0000; stroke-opacity: 0.2; stroke-width: 0.25; stroke-linecap: square"/>
   </g>
   <g id="line2d_57">
    <path d="M 225.791572 167.01089 
L 224.206527 167.280264 
L 222.619634 167.503544 
L 221.03085 167.672587 
L 219.441865 167.791758 
L 217.854129 167.868341 
L 216.268566 167.910622 
L 214.685586 167.92539 
L 213.106355 167.984112 
L 211.529383 168.038914 
L 209.955538 168.117886 
L 208.383661 168.199599 
L 206.81356 168.285228 
L 205.244308 168.361418 
L 203.67575 168.428175 
L 202.107767 168.485796 
L 200.540262 168.534781 
L 198.973154 168.57577 
L 197.406374 168.609486 
L 195.839862 168.636695 
L 194.273564 168.65817 
L 192.707432 168.674673 
L 191.141427 168.686933 
L 189.575513 168.69564 
L 188.009663 168.701437 
L 186.443855 168.704915 
L 184.878071 168.706619 
L 183.3123 168.707048 
L 181.746535 168.706691 
L 180.180771 168.705996 
L 178.615006 168.705142 
" clip-path="url(#p6b3e0529ed)" style="fill: none; stroke: #ff0000; stroke-opacity: 0.4; stroke-width: 0.25; stroke-linecap: square"/>
   </g>
   <g id="line2d_58">
    <path d="M 225.791572 167.01089 
L 224.205613 167.274833 
L 222.618374 167.49559 
L 221.02932 167.661972 
L 219.44015 167.778429 
L 217.852304 167.852325 
L 216.266697 167.892032 
L 214.683723 167.904848 
L 213.104482 167.962617 
L 211.52752 168.016923 
L 209.953707 168.095984 
L 208.381896 168.178372 
L 206.811884 168.265013 
L 205.242716 168.342246 
L 203.674237 168.410038 
L 202.106326 168.468659 
L 200.538886 168.518594 
L 198.971837 168.560478 
L 197.405111 168.595034 
L 195.838647 168.623034 
L 194.272392 168.645261 
L 192.706301 168.662488 
L 191.140332 168.675456 
L 189.574453 168.684866 
L 188.008635 168.691373 
L 186.442857 168.695578 
L 184.877101 168.698033 
L 183.311358 168.69924 
L 181.745618 168.699673 
L 180.17988 168.699756 
L 178.614141 168.699765 
" clip-path="url(#p6b3e0529ed)" style="fill: none; stroke: #ff0000; stroke-opacity: 0.6; stroke-width: 0.25; stroke-linecap: square"/>
   </g>
   <g id="line2d_59">
    <path d="M 225.791572 167.01089 
L 224.204857 167.270244 
L 222.617363 167.489128 
L 221.028118 167.65358 
L 219.43882 167.768118 
L 217.850907 167.840172 
L 216.265277 167.878187 
L 214.682317 167.889868 
L 213.103098 167.947558 
L 211.526176 168.002236 
L 209.952441 168.08223 
L 208.380741 168.16608 
L 206.810862 168.254467 
L 205.241819 168.333434 
L 203.673453 168.402902 
L 202.105644 168.463108 
L 200.538294 168.514518 
L 198.971326 168.557754 
L 197.404671 168.593536 
L 195.838272 168.622636 
L 194.272077 168.645844 
L 192.70604 168.663939 
L 191.140124 168.677675 
L 189.574294 168.687763 
L 188.008524 168.694868 
L 186.442791 168.699604 
L 184.877081 168.702534 
L 183.311382 168.704172 
L 181.745686 168.705001 
L 180.179992 168.705456 
L 178.614297 168.705876 
" clip-path="url(#p6b3e0529ed)" style="fill: none; stroke: #ff0000; stroke-opacity: 0.8; stroke-width: 0.25; stroke-linecap: square"/>
   </g>
   <g id="line2d_60">
    <path d="M 225.791572 167.01089 
L 224.204176 167.266047 
L 222.616446 167.48319 
L 221.02702 167.645837 
L 219.4376 167.75857 
L 217.849617 167.828881 
L 216.26396 167.86528 
L 214.681004 167.875811 
L 213.101792 167.933309 
L 211.524894 167.988196 
L 209.951214 168.068891 
L 208.379599 168.153929 
L 206.809825 168.243736 
L 205.240877 168.324079 
L 203.672597 168.394837 
L 202.104862 168.456219 
L 200.537577 168.508673 
L 198.970665 168.552814 
L 197.40406 168.58936 
L 195.837705 168.619088 
L 194.27155 168.642796 
L 192.705551 168.661273 
L 191.139671 168.675284 
L 189.573875 168.685555 
L 188.008139 168.692763 
L 186.44244 168.697536 
L 184.876763 168.700449 
L 183.311096 168.702029 
L 181.745434 168.702771 
L 180.179773 168.703123 
L 178.614111 168.703456 
" clip-path="url(#p6b3e0529ed)" style="fill: none; stroke: #ff0000; stroke-width: 0.25; stroke-linecap: square"/>
   </g>
   <g id="line2d_61">
    <path d="M 244.934508 181.560362 
L 246.648507 181.721412 
L 248.359396 181.729351 
L 250.058507 181.723231 
L 251.745051 181.705682 
L 253.418301 181.657815 
L 255.077319 181.567216 
L 256.721972 181.438209 
L 258.354783 181.297766 
L 259.97781 181.159403 
L 261.592346 181.027917 
L 263.199468 180.906621 
L 264.800057 180.797556 
L 266.394834 180.701721 
L 267.984405 180.619299 
L 269.569297 180.54987 
L 271.14998 180.4926 
L 272.726894 180.446397 
L 274.30045 180.410033 
L 275.871042 180.382235 
L 277.439043 180.361753 
L 279.004805 180.3474 
L 280.56866 180.338083 
L 282.130915 180.33281 
L 283.691853 180.330701 
L 285.251735 180.330986 
L 286.810795 180.332995 
L 288.369247 180.336157 
L 289.927281 180.339984 
L 291.485066 180.344092 
L 293.042749 180.348522 
" clip-path="url(#p6b3e0529ed)" style="fill: none; stroke: #ff0000; stroke-opacity: 0.2; stroke-width: 0.25; stroke-linecap: square"/>
   </g>
   <g id="line2d_62">
    <path d="M 244.934508 181.560362 
L 246.648541 181.721045 
L 248.359422 181.728182 
L 250.058514 181.721842 
L 251.745032 181.704118 
L 253.418254 181.656156 
L 255.077245 181.565573 
L 256.721881 181.436663 
L 258.354679 181.296332 
L 259.977696 181.158097 
L 261.592224 181.026751 
L 263.199339 180.905604 
L 264.799921 180.796696 
L 266.394691 180.701024 
L 267.984254 180.618773 
L 269.569135 180.549523 
L 271.149807 180.492442 
L 272.726706 180.446438 
L 274.300246 180.410286 
L 275.870818 180.382715 
L 277.438795 180.362476 
L 279.004529 180.348386 
L 280.568352 180.339351 
L 282.130569 180.334382 
L 283.691464 180.332601 
L 285.251297 180.333238 
L 286.810303 180.335625 
L 288.368693 180.33919 
L 289.926658 180.343445 
L 291.484366 180.347994 
L 293.041967 180.352774 
" clip-path="url(#p6b3e0529ed)" style="fill: none; stroke: #ff0000; stroke-opacity: 0.4; stroke-width: 0.25; stroke-linecap: square"/>
   </g>
   <g id="line2d_63">
    <path d="M 244.934508 181.560362 
L 246.648691 181.719437 
L 248.359567 181.725634 
L 250.058642 181.71895 
L 251.745139 181.700931 
L 253.418336 181.652765 
L 255.077304 181.562094 
L 256.721923 181.433185 
L 258.354709 181.292881 
L 259.977719 181.154691 
L 261.592242 181.023406 
L 263.199355 180.902328 
L 264.799936 180.793495 
L 266.394705 180.697901 
L 267.984268 180.615729 
L 269.569148 180.546558 
L 271.149819 180.489557 
L 272.726716 180.443634 
L 274.300252 180.407563 
L 275.870819 180.380075 
L 277.438788 180.359923 
L 279.004513 180.345923 
L 280.568322 180.336983 
L 282.130523 180.332116 
L 283.691399 180.330445 
L 285.251208 180.331201 
L 286.810184 180.333718 
L 288.36854 180.337422 
L 289.926466 180.341827 
L 291.484129 180.346528 
L 293.041679 180.351392 
" clip-path="url(#p6b3e0529ed)" style="fill: none; stroke: #ff0000; stroke-opacity: 0.6; stroke-width: 0.25; stroke-linecap: square"/>
   </g>
   <g id="line2d_64">
    <path d="M 244.934508 181.560362 
L 246.648725 181.719075 
L 248.359596 181.724673 
L 250.058662 181.717931 
L 251.745147 181.699887 
L 253.418332 181.651764 
L 255.077297 181.561232 
L 256.721923 181.432528 
L 258.35472 181.292434 
L 259.977743 181.154456 
L 261.592281 181.023377 
L 263.199407 180.902499 
L 264.800001 180.793852 
L 266.394782 180.698432 
L 267.984354 180.616417 
L 269.569243 180.547389 
L 271.149921 180.490513 
L 272.726823 180.444702 
L 274.300363 180.408728 
L 275.870931 180.381326 
L 277.438901 180.361248 
L 279.004624 180.347313 
L 280.568429 180.338431 
L 282.130623 180.333616 
L 283.691489 180.331993 
L 285.251286 180.332794 
L 286.810246 180.335355 
L 288.368582 180.339105 
L 289.926483 180.343557 
L 291.484117 180.348303 
L 293.041634 180.353159 
" clip-path="url(#p6b3e0529ed)" style="fill: none; stroke: #ff0000; stroke-opacity: 0.8; stroke-width: 0.25; stroke-linecap: square"/>
   </g>
   <g id="line2d_65">
    <path d="M 244.934508 181.560362 
L 246.648615 181.720251 
L 248.359482 181.72545 
L 250.058537 181.718778 
L 251.74501 181.700796 
L 253.418184 181.652757 
L 255.077143 181.56236 
L 256.721771 181.433825 
L 258.354573 181.293884 
L 259.9776 181.156035 
L 261.592142 181.025058 
L 263.199271 180.904251 
L 264.799865 180.795646 
L 266.394646 180.700237 
L 267.984219 180.618203 
L 269.569107 180.549128 
L 271.149783 180.492179 
L 272.726684 180.44627 
L 274.300222 180.410178 
L 275.870789 180.382638 
L 277.438756 180.362406 
L 279.004476 180.348303 
L 280.568277 180.339242 
L 282.130467 180.33424 
L 283.691326 180.332423 
L 285.251113 180.333027 
L 286.810062 180.335389 
L 288.368384 180.338938 
L 289.926267 180.34319 
L 291.48388 180.347735 
L 293.041373 180.352349 
" clip-path="url(#p6b3e0529ed)" style="fill: none; stroke: #ff0000; stroke-width: 0.25; stroke-linecap: square"/>
   </g>
   <g id="line2d_66">
    <path d="M 230.725961 184.910886 
L 232.276168 184.662157 
L 233.819196 184.263721 
L 235.343457 183.723778 
L 236.834541 183.041248 
L 238.277001 182.216562 
L 239.654851 181.252336 
L 240.952533 180.154042 
L 242.154251 178.92892 
L 243.24412 177.586044 
L 244.207011 176.13651 
L 245.030443 174.59391 
L 245.704325 172.973234 
L 246.220415 171.290333 
L 246.572463 169.56186 
L 246.756043 167.804953 
L 246.768754 166.037033 
L 246.610161 164.275541 
L 246.281713 162.5377 
L 245.831896 160.827802 
L 245.39181 159.116318 
L 244.95963 157.404023 
L 244.538045 155.690426 
L 244.130966 153.974697 
L 243.74129 152.256248 
L 243.370168 150.534891 
L 243.016871 148.810804 
L 242.67888 147.084456 
L 242.352071 145.356525 
L 242.03147 143.627761 
L 241.714946 141.898362 
" clip-path="url(#p6b3e0529ed)" style="fill: none; stroke: #ff0000; stroke-opacity: 0.2; stroke-width: 0.25; stroke-linecap: square"/>
   </g>
   <g id="line2d_67">
    <path d="M 230.725961 184.910886 
L 232.275839 184.660117 
L 233.81872 184.261171 
L 235.342931 183.721192 
L 236.834007 183.038807 
L 238.276555 182.214486 
L 239.654526 181.250696 
L 240.951275 180.151619 
L 242.150422 178.92436 
L 243.236831 177.579134 
L 244.19727 176.128501 
L 245.019577 174.585911 
L 245.693123 172.965796 
L 246.209336 171.283731 
L 246.561571 169.556197 
L 246.745362 167.800328 
L 246.758246 166.033551 
L 246.599749 164.273334 
L 246.271323 162.536931 
L 245.817818 160.82962 
L 245.375574 159.120452 
L 244.941763 157.410476 
L 244.519131 155.699188 
L 244.111737 153.985725 
L 243.722663 152.269466 
L 243.353248 150.550195 
L 243.002931 148.828074 
L 242.669349 147.10355 
L 242.348586 145.377265 
L 242.035488 143.649987 
L 241.726369 141.922165 
" clip-path="url(#p6b3e0529ed)" style="fill: none; stroke: #ff0000; stroke-opacity: 0.4; stroke-width: 0.25; stroke-linecap: square"/>
   </g>
   <g id="line2d_68">
    <path d="M 230.725961 184.910886 
L 232.275845 184.66015 
L 233.818738 184.261215 
L 235.342982 183.721282 
L 236.834106 183.038945 
L 238.27671 182.214666 
L 239.654748 181.250916 
L 240.95162 180.151933 
L 242.15092 178.924775 
L 243.237424 177.579584 
L 244.197956 176.12898 
L 245.02039 174.586435 
L 245.694061 172.966361 
L 246.21038 171.284325 
L 246.562696 169.556817 
L 246.746554 167.800975 
L 246.759502 166.03423 
L 246.601075 164.274051 
L 246.272734 162.537691 
L 245.818855 160.830555 
L 245.376441 159.121521 
L 244.942514 157.411679 
L 244.519829 155.700526 
L 244.112459 153.987193 
L 243.723508 152.271058 
L 243.354339 150.551901 
L 243.004408 148.829882 
L 242.67137 147.105447 
L 242.351327 145.379234 
L 242.039118 143.652009 
L 241.730874 141.924254 
" clip-path="url(#p6b3e0529ed)" style="fill: none; stroke: #ff0000; stroke-opacity: 0.6; stroke-width: 0.25; stroke-linecap: square"/>
   </g>
   <g id="line2d_69">
    <path d="M 230.725961 184.910886 
L 232.275809 184.659929 
L 233.818629 184.260688 
L 235.342657 183.72011 
L 236.833428 183.036963 
L 238.275492 182.211701 
L 239.652834 181.24692 
L 240.949576 180.147748 
L 242.149819 178.921482 
L 243.237941 177.577574 
L 244.19938 176.127554 
L 245.021719 174.58495 
L 245.694768 172.964616 
L 246.210225 171.282325 
L 246.561783 169.55468 
L 246.745043 167.798803 
L 246.757625 166.032094 
L 246.599121 164.271972 
L 246.27101 162.535632 
L 245.816571 160.828723 
L 245.373789 159.119876 
L 244.939548 157.41022 
L 244.516604 155.699251 
L 244.109046 153.986098 
L 243.719998 152.270133 
L 243.350841 150.551136 
L 243.001048 148.829263 
L 242.668287 147.104961 
L 242.348679 145.378865 
L 242.037057 143.651741 
L 241.729386 141.924096 
" clip-path="url(#p6b3e0529ed)" style="fill: none; stroke: #ff0000; stroke-opacity: 0.8; stroke-width: 0.25; stroke-linecap: square"/>
   </g>
   <g id="line2d_70">
    <path d="M 230.725961 184.910886 
L 232.275808 184.659925 
L 233.818671 184.260812 
L 235.342779 183.720413 
L 236.833647 183.037424 
L 238.275809 182.212278 
L 239.653256 181.247591 
L 240.950282 180.148699 
L 242.151248 178.923088 
L 243.240452 177.580009 
L 244.202595 176.130413 
L 245.025078 174.587848 
L 245.697987 172.967426 
L 246.213202 171.285038 
L 246.564571 169.557339 
L 246.747707 167.801441 
L 246.760252 166.034732 
L 246.60181 164.274615 
L 246.273861 162.538264 
L 245.819014 160.831496 
L 245.375997 159.122754 
L 244.94156 157.413203 
L 244.518461 155.702341 
L 244.110802 153.989293 
L 243.721725 152.273429 
L 243.35263 150.554524 
L 243.003005 148.832734 
L 242.670532 147.108505 
L 242.351345 145.382468 
L 242.040277 143.655391 
L 241.733148 141.927802 
" clip-path="url(#p6b3e0529ed)" style="fill: none; stroke: #ff0000; stroke-width: 0.25; stroke-linecap: square"/>
   </g>
   <g id="line2d_71">
    <path d="M 241.504565 210.186671 
L 241.402975 208.735889 
L 241.30714 207.289224 
L 241.213685 205.846971 
L 241.125953 204.408975 
L 241.047983 202.975067 
L 240.984636 201.545104 
L 240.941737 200.119046 
L 240.926224 198.697069 
L 240.946332 197.279747 
L 241.01182 195.868327 
L 241.134275 194.465147 
L 241.327537 193.07429 
L 241.608344 191.702642 
L 241.997416 190.361771 
L 242.521464 189.071642 
L 243.204004 187.861792 
L 243.976877 186.71133 
L 244.833881 185.62576 
L 245.769206 184.610457 
L 246.777127 183.670645 
L 247.851624 182.8111 
L 248.986411 182.036147 
L 250.174966 181.349653 
L 251.41056 180.755022 
L 252.686309 180.255262 
L 253.995142 179.852937 
L 255.329598 179.549166 
L 256.674006 179.295763 
L 258.016635 179.034824 
L 259.358833 178.772452 
" clip-path="url(#p6b3e0529ed)" style="fill: none; stroke: #ff0000; stroke-opacity: 0.2; stroke-width: 0.25; stroke-linecap: square"/>
   </g>
   <g id="line2d_72">
    <path d="M 241.504565 210.186671 
L 241.402291 208.735938 
L 241.306113 207.289196 
L 241.212213 205.846776 
L 241.123918 204.408525 
L 241.045253 202.974273 
L 240.981072 201.543877 
L 240.937194 200.117292 
L 240.920563 198.694687 
L 240.939429 197.276627 
L 241.003583 195.864345 
L 241.124666 194.460168 
L 241.316614 193.068173 
L 241.596332 191.695266 
L 241.98483 190.353103 
L 242.509368 189.061939 
L 243.19425 187.852033 
L 243.967693 186.700442 
L 244.82519 185.613596 
L 245.761112 184.596996 
L 246.769757 183.655892 
L 247.845117 182.795088 
L 248.980909 182.01893 
L 250.170601 181.331296 
L 251.407455 180.735596 
L 252.68457 180.23483 
L 253.994777 179.831262 
L 255.331152 179.5282 
L 256.679072 179.284196 
L 258.024925 179.030722 
L 259.369381 178.770701 
" clip-path="url(#p6b3e0529ed)" style="fill: none; stroke: #ff0000; stroke-opacity: 0.4; stroke-width: 0.25; stroke-linecap: square"/>
   </g>
   <g id="line2d_73">
    <path d="M 241.504565 210.186671 
L 241.401557 208.735989 
L 241.305512 207.289201 
L 241.21168 205.846701 
L 241.123341 204.408338 
L 241.044487 202.97394 
L 240.979943 201.543364 
L 240.935511 200.116558 
L 240.918127 198.693682 
L 240.936048 197.275287 
L 240.999098 195.86259 
L 241.118987 194.457903 
L 241.30978 193.065297 
L 241.588624 191.691713 
L 241.976979 190.348959 
L 242.503013 189.057793 
L 243.188951 187.847791 
L 243.962584 186.695563 
L 244.819978 185.607782 
L 245.7558 184.590128 
L 246.76441 183.647891 
L 247.83985 182.785927 
L 248.975879 182.008647 
L 250.165992 181.320001 
L 251.403463 180.72348 
L 252.681365 180.222105 
L 253.992516 179.818223 
L 255.329946 179.515137 
L 256.680997 179.282711 
L 258.029526 179.037696 
L 259.375452 178.779507 
" clip-path="url(#p6b3e0529ed)" style="fill: none; stroke: #ff0000; stroke-opacity: 0.6; stroke-width: 0.25; stroke-linecap: square"/>
   </g>
   <g id="line2d_74">
    <path d="M 241.504565 210.186671 
L 241.401487 208.735994 
L 241.305565 207.289192 
L 241.211844 205.846672 
L 241.123594 204.408283 
L 241.044793 202.973856 
L 240.98026 201.543246 
L 240.935789 200.116402 
L 240.918308 198.69348 
L 240.936073 197.275029 
L 240.998905 195.862262 
L 241.118521 194.457484 
L 241.309003 193.06476 
L 241.58754 191.691032 
L 241.975689 190.348127 
L 242.501862 189.056917 
L 243.187523 187.846644 
L 243.961101 186.694254 
L 244.818359 185.606226 
L 245.754037 184.588283 
L 246.762517 183.645729 
L 247.837865 182.783444 
L 248.973859 182.005873 
L 250.164011 181.317009 
L 251.401599 180.720384 
L 252.67968 180.219034 
L 253.991085 179.815415 
L 255.328673 179.512241 
L 256.680378 179.282566 
L 258.02939 179.039183 
L 259.375579 178.781382 
" clip-path="url(#p6b3e0529ed)" style="fill: none; stroke: #ff0000; stroke-opacity: 0.8; stroke-width: 0.25; stroke-linecap: square"/>
   </g>
   <g id="line2d_75">
    <path d="M 241.504565 210.186671 
L 241.401479 208.735995 
L 241.30571 207.289179 
L 241.21214 205.846643 
L 241.124028 204.408236 
L 241.045345 202.973789 
L 240.9809 201.543158 
L 240.93648 200.116291 
L 240.919009 198.693344 
L 240.936736 197.274864 
L 240.999481 195.86206 
L 241.118961 194.457233 
L 241.309269 193.064444 
L 241.587617 191.690631 
L 241.975634 190.347637 
L 242.501917 189.056413 
L 243.186488 187.845459 
L 243.960081 186.693007 
L 244.817332 185.604892 
L 245.753007 184.586855 
L 246.761493 183.644203 
L 247.836864 182.781825 
L 248.972907 182.004182 
L 250.163143 181.31529 
L 251.400855 180.718713 
L 252.679101 180.217518 
L 253.990761 179.81438 
L 255.32837 179.510818 
L 256.680502 179.282993 
L 258.029812 179.040615 
L 259.376154 178.783003 
" clip-path="url(#p6b3e0529ed)" style="fill: none; stroke: #ff0000; stroke-width: 0.25; stroke-linecap: square"/>
   </g>
   <g id="line2d_76">
    <path d="M 250.357184 170.417484 
L 248.359104 170.476156 
L 246.343343 170.436252 
L 244.315931 170.305421 
L 242.270965 170.333342 
L 240.281633 170.855402 
L 238.420361 171.752301 
L 236.667168 172.858982 
L 235.047923 174.161418 
L 233.586142 175.641618 
L 232.301978 177.27832 
L 231.212945 179.048715 
L 230.333485 180.928434 
L 229.67467 182.891635 
L 229.244141 184.911336 
L 229.045704 186.959884 
L 229.080005 189.009604 
L 229.213759 191.046164 
L 229.306176 193.075508 
L 229.397783 195.095516 
L 229.503394 197.106099 
L 229.618434 199.108357 
L 229.734401 201.103738 
L 229.845923 203.093503 
L 229.949852 205.078728 
L 230.044886 207.060328 
L 230.13117 209.039092 
L 230.209882 211.015727 
L 230.282882 212.990876 
L 230.35236 214.965135 
L 230.419656 216.939073 
" clip-path="url(#p6b3e0529ed)" style="fill: none; stroke: #ff0000; stroke-opacity: 0.2; stroke-width: 0.25; stroke-linecap: square"/>
   </g>
   <g id="line2d_77">
    <path d="M 250.357184 170.417484 
L 248.358795 170.464458 
L 246.342786 170.429024 
L 244.314902 170.30096 
L 242.269567 170.331355 
L 240.280435 170.856123 
L 238.419101 171.754227 
L 236.666112 172.862454 
L 235.047365 174.166664 
L 233.586412 175.648783 
L 232.303365 177.287416 
L 231.215593 179.059601 
L 230.337594 180.940984 
L 229.680391 182.905676 
L 229.25165 184.926686 
L 229.05514 186.976328 
L 229.091459 189.026897 
L 229.229205 191.064036 
L 229.323485 193.094075 
L 229.415557 195.114756 
L 229.520671 197.125957 
L 229.634922 199.128738 
L 229.74982 201.124547 
L 229.860007 203.114645 
L 229.962331 205.100107 
L 230.055475 207.081847 
L 230.139562 209.060657 
L 230.215753 211.037246 
L 230.285902 213.012262 
L 230.352222 214.986306 
L 230.416544 216.959943 
" clip-path="url(#p6b3e0529ed)" style="fill: none; stroke: #ff0000; stroke-opacity: 0.4; stroke-width: 0.25; stroke-linecap: square"/>
   </g>
   <g id="line2d_78">
    <path d="M 250.357184 170.417484 
L 248.358741 170.462077 
L 246.342698 170.427014 
L 244.314776 170.298785 
L 242.269371 170.328826 
L 240.280023 170.853083 
L 238.418381 171.750752 
L 236.66484 172.858293 
L 235.045315 174.161711 
L 233.58347 175.643112 
L 232.299642 177.281285 
L 231.211231 179.053222 
L 230.332738 180.93451 
L 229.675152 182.899201 
L 229.246113 184.92027 
L 229.049432 186.970011 
L 229.085662 189.020693 
L 229.223897 191.057901 
L 229.318374 193.088023 
L 229.41048 195.108782 
L 229.515526 197.12005 
L 229.629719 199.122881 
L 229.744567 201.118725 
L 229.854707 203.108842 
L 229.956982 205.094307 
L 230.050065 207.076035 
L 230.13407 209.05482 
L 230.210152 211.031371 
L 230.28016 213.006337 
L 230.346307 214.980318 
L 230.410495 216.953879 
" clip-path="url(#p6b3e0529ed)" style="fill: none; stroke: #ff0000; stroke-opacity: 0.6; stroke-width: 0.25; stroke-linecap: square"/>
   </g>
   <g id="line2d_79">
    <path d="M 250.357184 170.417484 
L 248.358702 170.46029 
L 246.342617 170.426166 
L 244.314616 170.298415 
L 242.26915 170.328786 
L 240.279786 170.853299 
L 238.419511 171.754011 
L 236.666525 172.862628 
L 235.046567 174.165691 
L 233.583638 175.646195 
L 232.299339 177.284165 
L 231.21159 179.056666 
L 230.334474 180.938745 
L 229.678609 182.904157 
L 229.251058 184.925679 
L 229.055509 186.975664 
L 229.091842 189.026473 
L 229.231184 191.063729 
L 229.326427 193.093928 
L 229.419055 195.114764 
L 229.524439 197.126101 
L 229.6389 199.128989 
L 229.753951 201.124877 
L 229.864231 203.115027 
L 229.966583 205.100514 
L 230.059679 207.082255 
L 230.143631 209.061042 
L 230.219595 211.037585 
L 230.289423 213.012531 
L 230.355337 214.986484 
L 230.419309 216.960005 
" clip-path="url(#p6b3e0529ed)" style="fill: none; stroke: #ff0000; stroke-opacity: 0.8; stroke-width: 0.25; stroke-linecap: square"/>
   </g>
   <g id="line2d_80">
    <path d="M 250.357184 170.417484 
L 248.358654 170.458 
L 246.342542 170.424099 
L 244.314522 170.295969 
L 242.268991 170.325734 
L 240.279341 170.849431 
L 238.41899 171.750166 
L 236.665622 172.858342 
L 235.044852 174.160548 
L 233.580714 175.640001 
L 232.295254 177.277194 
L 231.20672 179.049342 
L 230.329055 180.931288 
L 229.672822 182.896694 
L 229.244935 184.918258 
L 229.049123 186.968325 
L 229.08511 189.019244 
L 229.224617 191.056586 
L 229.319778 193.086878 
L 229.412179 195.107803 
L 229.517241 197.119223 
L 229.631384 199.122181 
L 229.746124 201.118127 
L 229.856094 203.108322 
L 229.958134 205.093841 
L 230.050908 207.075601 
L 230.134524 209.054394 
L 230.21013 211.03093 
L 230.279576 213.005859 
L 230.345089 214.979784 
L 230.408692 216.953268 
" clip-path="url(#p6b3e0529ed)" style="fill: none; stroke: #ff0000; stroke-width: 0.25; stroke-linecap: square"/>
   </g>
   <g id="line2d_81">
    <path d="M 230.724606 138.853468 
L 230.790821 140.303853 
L 230.850203 141.749678 
L 230.902812 143.190861 
L 230.945333 144.627438 
L 230.973865 146.059403 
L 230.995485 147.486529 
L 231.03805 148.908234 
L 231.053883 150.325575 
L 231.060213 151.738137 
L 231.022285 153.14544 
L 230.927246 154.54539 
L 230.760061 155.934044 
L 230.502715 157.304471 
L 230.132892 158.644685 
L 229.62141 159.933379 
L 228.950927 161.142939 
L 228.193361 162.296064 
L 227.352139 163.385897 
L 226.432668 164.406933 
L 225.44053 165.353988 
L 224.381592 166.222303 
L 223.261989 167.007561 
L 222.088094 167.705892 
L 220.866486 168.313873 
L 219.603888 168.828442 
L 218.30727 169.247125 
L 216.983697 169.56772 
L 215.645802 169.819186 
L 214.310291 170.081271 
L 212.975408 170.345746 
" clip-path="url(#p6b3e0529ed)" style="fill: none; stroke: #ff0000; stroke-opacity: 0.2; stroke-width: 0.25; stroke-linecap: square"/>
   </g>
   <g id="line2d_82">
    <path d="M 230.724606 138.853468 
L 230.792338 140.303783 
L 230.852566 141.749708 
L 230.906179 143.191122 
L 230.949877 144.628062 
L 230.979766 146.060527 
L 231.002534 147.48829 
L 231.046109 148.910744 
L 231.063097 150.328975 
L 231.071585 151.74255 
L 231.03604 153.151058 
L 230.943513 154.552438 
L 230.778739 155.942761 
L 230.523246 157.315041 
L 230.153833 158.657011 
L 229.639574 159.94641 
L 228.969232 161.158077 
L 228.211394 162.31325 
L 227.369845 163.405292 
L 226.449856 164.428604 
L 225.456954 165.377945 
L 224.396969 166.248486 
L 223.276003 167.035827 
L 222.100412 167.736002 
L 220.876771 168.345481 
L 219.611856 168.861175 
L 218.312655 169.280488 
L 216.986317 169.601264 
L 215.64167 169.830967 
L 214.300133 170.076549 
L 212.961543 170.336974 
" clip-path="url(#p6b3e0529ed)" style="fill: none; stroke: #ff0000; stroke-opacity: 0.4; stroke-width: 0.25; stroke-linecap: square"/>
   </g>
   <g id="line2d_83">
    <path d="M 230.724606 138.853468 
L 230.793567 140.303725 
L 230.855102 141.749624 
L 230.910187 143.191039 
L 230.955495 144.628014 
L 230.987102 146.060552 
L 231.011151 147.488428 
L 231.055433 148.911021 
L 231.07308 150.329427 
L 231.081896 151.743208 
L 231.046627 153.151953 
L 230.954337 154.553601 
L 230.789763 155.944224 
L 230.534403 157.316828 
L 230.164954 158.659114 
L 229.650179 159.948664 
L 228.979816 161.160718 
L 228.221572 162.316059 
L 227.379646 163.408289 
L 226.459253 164.431768 
L 225.465907 165.381232 
L 224.40542 166.251827 
L 223.283889 167.039117 
L 222.107664 167.7391 
L 220.883335 168.348225 
L 219.61771 168.863421 
L 218.317793 169.282083 
L 216.99077 169.602114 
L 215.644818 169.82711 
L 214.302239 170.069799 
L 212.962867 170.32886 
" clip-path="url(#p6b3e0529ed)" style="fill: none; stroke: #ff0000; stroke-opacity: 0.6; stroke-width: 0.25; stroke-linecap: square"/>
   </g>
   <g id="line2d_84">
    <path d="M 230.724606 138.853468 
L 230.794287 140.303691 
L 230.856502 141.74958 
L 230.912347 143.191003 
L 230.958483 144.628007 
L 230.990974 146.060598 
L 231.015434 147.488558 
L 231.059581 148.91126 
L 231.077042 150.32979 
L 231.085427 151.743711 
L 231.049699 153.152598 
L 230.956942 154.554382 
L 230.791901 155.945133 
L 230.536067 157.317846 
L 230.166072 158.660197 
L 229.650452 159.949646 
L 228.980642 161.162268 
L 228.222007 162.31764 
L 227.37985 163.410007 
L 226.459279 164.433675 
L 225.465778 165.383366 
L 224.405139 166.254212 
L 223.283444 167.041766 
L 222.107035 167.742016 
L 220.882497 168.351401 
L 219.61664 168.866852 
L 218.316462 169.285741 
L 216.989151 169.605967 
L 215.642437 169.828399 
L 214.299299 170.069884 
L 212.959542 170.32873 
" clip-path="url(#p6b3e0529ed)" style="fill: none; stroke: #ff0000; stroke-opacity: 0.8; stroke-width: 0.25; stroke-linecap: square"/>
   </g>
   <g id="line2d_85">
    <path d="M 230.724606 138.853468 
L 230.79512 140.303651 
L 230.858142 141.749514 
L 230.91489 143.190922 
L 230.962013 144.627922 
L 230.995563 146.060525 
L 231.020606 147.488519 
L 231.064791 148.911273 
L 231.082252 150.329863 
L 231.090385 151.743853 
L 231.054382 153.152809 
L 230.961345 154.554657 
L 230.796029 155.945465 
L 230.539921 157.318224 
L 230.169609 158.660593 
L 229.65345 159.949942 
L 228.983785 161.162772 
L 228.225017 162.318198 
L 227.382724 163.410614 
L 226.462005 164.434319 
L 225.468346 165.384035 
L 224.407547 166.2549 
L 223.285695 167.042477 
L 222.109141 167.742768 
L 220.884468 168.352217 
L 219.61847 168.867731 
L 218.318141 169.286671 
L 216.990659 169.606886 
L 215.643473 169.827485 
L 214.300016 170.068156 
L 212.960052 170.326832 
" clip-path="url(#p6b3e0529ed)" style="fill: none; stroke: #ff0000; stroke-width: 0.25; stroke-linecap: square"/>
   </g>
   <g id="line2d_86">
    <path d="M 199.871613 179.93415 
L 201.240777 179.766124 
L 202.602511 179.60158 
L 203.956781 179.432032 
L 205.305096 179.261269 
L 206.649141 179.094041 
L 207.990756 178.936294 
L 209.331861 178.795458 
L 210.666171 178.60857 
L 212.004846 178.45484 
L 213.338351 178.251246 
L 214.67818 178.071405 
L 216.030951 177.974834 
L 217.391694 178.036344 
L 218.719183 178.373597 
L 220.026562 178.811716 
L 221.306403 179.352458 
L 222.550912 179.995201 
L 223.751808 180.737945 
L 224.900381 181.577679 
L 225.987709 182.510453 
L 227.004968 183.53137 
L 227.94356 184.634813 
L 228.795341 185.81438 
L 229.553169 187.062617 
L 230.210646 188.371401 
L 230.762301 189.731962 
L 231.203504 191.135042 
L 231.530567 192.570976 
L 231.74 194.029907 
L 231.967317 195.486731 
" clip-path="url(#p6b3e0529ed)" style="fill: none; stroke: #ff0000; stroke-opacity: 0.2; stroke-width: 0.25; stroke-linecap: square"/>
   </g>
   <g id="line2d_87">
    <path d="M 199.871613 179.93415 
L 201.240072 179.760471 
L 202.601609 179.594233 
L 203.955708 179.423156 
L 205.303893 179.251132 
L 206.64787 179.083025 
L 207.989494 178.924919 
L 209.330596 178.783452 
L 210.664772 178.595095 
L 212.003468 178.440854 
L 213.336809 178.235625 
L 214.676463 178.053798 
L 216.02934 177.957334 
L 217.389904 178.024768 
L 218.717451 178.362233 
L 220.024196 178.802615 
L 221.303848 179.344196 
L 222.548776 179.986584 
L 223.750404 180.728693 
L 224.899712 181.568082 
L 225.987672 182.500886 
L 227.005621 183.521981 
L 227.944413 184.6262 
L 228.796264 185.806731 
L 229.553909 187.056153 
L 230.210843 188.366339 
L 230.76141 189.728521 
L 231.200889 191.133373 
L 231.52552 192.571139 
L 231.734626 194.03145 
L 231.969406 195.488449 
" clip-path="url(#p6b3e0529ed)" style="fill: none; stroke: #ff0000; stroke-opacity: 0.4; stroke-width: 0.25; stroke-linecap: square"/>
   </g>
   <g id="line2d_88">
    <path d="M 199.871613 179.93415 
L 201.239252 179.754129 
L 202.600627 179.585157 
L 203.954706 179.411325 
L 205.303015 179.236606 
L 206.647264 179.065963 
L 207.989314 178.905594 
L 209.331043 178.762679 
L 210.665991 178.573751 
L 212.005616 178.419738 
L 213.339999 178.215141 
L 214.680755 178.034363 
L 216.034761 177.940321 
L 217.395939 178.014071 
L 218.723785 178.354034 
L 220.030681 178.796658 
L 221.310205 179.340595 
L 222.554739 179.985346 
L 223.755771 180.729698 
L 224.90429 181.571201 
L 225.991186 182.5061 
L 227.007599 183.529445 
L 227.944666 184.635747 
L 228.79458 185.818215 
L 229.550151 187.069376 
L 230.204971 188.381061 
L 230.75349 189.744477 
L 231.191078 191.150308 
L 231.514053 192.588823 
L 231.720274 194.049915 
L 231.956476 195.507053 
" clip-path="url(#p6b3e0529ed)" style="fill: none; stroke: #ff0000; stroke-opacity: 0.6; stroke-width: 0.25; stroke-linecap: square"/>
   </g>
   <g id="line2d_89">
    <path d="M 199.871613 179.93415 
L 201.238773 179.750526 
L 202.599957 179.579632 
L 203.953869 179.40376 
L 205.302044 179.226933 
L 206.646204 179.054165 
L 207.988227 178.891716 
L 209.330022 178.747009 
L 210.665124 178.5571 
L 212.005004 178.402481 
L 213.33972 178.197742 
L 214.680881 178.017133 
L 216.035347 177.92393 
L 217.396796 178.000472 
L 218.724995 178.340842 
L 220.032163 178.784093 
L 221.311994 179.32852 
L 222.556851 179.973711 
L 223.758174 180.718541 
L 224.906903 181.56062 
L 225.993842 182.496264 
L 227.009968 183.520633 
L 227.94666 184.62795 
L 228.796081 185.811433 
L 229.551061 187.063583 
L 230.205225 188.376203 
L 230.75304 189.740492 
L 231.189879 191.147129 
L 231.512059 192.586386 
L 231.717215 194.048183 
L 231.953808 195.505816 
" clip-path="url(#p6b3e0529ed)" style="fill: none; stroke: #ff0000; stroke-opacity: 0.8; stroke-width: 0.25; stroke-linecap: square"/>
   </g>
   <g id="line2d_90">
    <path d="M 199.871613 179.93415 
L 201.238376 179.747593 
L 202.599512 179.575643 
L 203.953438 179.398642 
L 205.301688 179.220625 
L 206.645984 179.046631 
L 207.988205 178.882953 
L 209.330282 178.737204 
L 210.665808 178.547207 
L 212.006171 178.392739 
L 213.341471 178.1886 
L 214.683247 178.008812 
L 216.038305 177.916785 
L 217.400118 177.995885 
L 218.728595 178.33718 
L 220.036614 178.779435 
L 221.316833 179.324144 
L 222.561582 179.970509 
L 223.762511 180.716769 
L 224.910693 181.56026 
L 225.996968 182.497245 
L 227.012344 183.522852 
L 227.948267 184.631253 
L 228.796808 185.815756 
L 229.550803 187.06885 
L 230.20387 188.382338 
L 230.75051 189.747398 
L 231.186134 191.154695 
L 231.507104 192.594493 
L 231.710624 194.056783 
L 231.947143 195.51469 
" clip-path="url(#p6b3e0529ed)" style="fill: none; stroke: #ff0000; stroke-width: 0.25; stroke-linecap: square"/>
   </g>
   <g id="patch_15">
    <path d="M 103.104 307.584 
L 103.104 41.472 
" style="fill: none; stroke: #000000; stroke-width: 0.8; stroke-linejoin: miter; stroke-linecap: square"/>
   </g>
   <g id="patch_16">
    <path d="M 369.216 307.584 
L 369.216 41.472 
" style="fill: none; stroke: #000000; stroke-width: 0.8; stroke-linejoin: miter; stroke-linecap: square"/>
   </g>
   <g id="patch_17">
    <path d="M 103.104 307.584 
L 369.216 307.584 
" style="fill: none; stroke: #000000; stroke-width: 0.8; stroke-linejoin: miter; stroke-linecap: square"/>
   </g>
   <g id="patch_18">
    <path d="M 103.104 41.472 
L 369.216 41.472 
" style="fill: none; stroke: #000000; stroke-width: 0.8; stroke-linejoin: miter; stroke-linecap: square"/>
   </g>
   <g id="text_19">
    <!-- Time:  61 ms -->
    <g transform="translate(264.253887 54.7776) scale(0.1 -0.1)">
     <defs>
      <path id="DejaVuSans-54" d="M -19 4666 
L 3928 4666 
L 3928 4134 
L 2272 4134 
L 2272 0 
L 1638 0 
L 1638 4134 
L -19 4134 
L -19 4666 
z
" transform="scale(0.015625)"/>
      <path id="DejaVuSans-69" d="M 603 3500 
L 1178 3500 
L 1178 0 
L 603 0 
L 603 3500 
z
M 603 4863 
L 1178 4863 
L 1178 4134 
L 603 4134 
L 603 4863 
z
" transform="scale(0.015625)"/>
      <path id="DejaVuSans-6d" d="M 3328 2828 
Q 3544 3216 3844 3400 
Q 4144 3584 4550 3584 
Q 5097 3584 5394 3201 
Q 5691 2819 5691 2113 
L 5691 0 
L 5113 0 
L 5113 2094 
Q 5113 2597 4934 2840 
Q 4756 3084 4391 3084 
Q 3944 3084 3684 2787 
Q 3425 2491 3425 1978 
L 3425 0 
L 2847 0 
L 2847 2094 
Q 2847 2600 2669 2842 
Q 2491 3084 2119 3084 
Q 1678 3084 1418 2786 
Q 1159 2488 1159 1978 
L 1159 0 
L 581 0 
L 581 3500 
L 1159 3500 
L 1159 2956 
Q 1356 3278 1631 3431 
Q 1906 3584 2284 3584 
Q 2666 3584 2933 3390 
Q 3200 3197 3328 2828 
z
" transform="scale(0.015625)"/>
      <path id="DejaVuSans-65" d="M 3597 1894 
L 3597 1613 
L 953 1613 
Q 991 1019 1311 708 
Q 1631 397 2203 397 
Q 2534 397 2845 478 
Q 3156 559 3463 722 
L 3463 178 
Q 3153 47 2828 -22 
Q 2503 -91 2169 -91 
Q 1331 -91 842 396 
Q 353 884 353 1716 
Q 353 2575 817 3079 
Q 1281 3584 2069 3584 
Q 2775 3584 3186 3129 
Q 3597 2675 3597 1894 
z
M 3022 2063 
Q 3016 2534 2758 2815 
Q 2500 3097 2075 3097 
Q 1594 3097 1305 2825 
Q 1016 2553 972 2059 
L 3022 2063 
z
" transform="scale(0.015625)"/>
      <path id="DejaVuSans-3a" d="M 750 794 
L 1409 794 
L 1409 0 
L 750 0 
L 750 794 
z
M 750 3309 
L 1409 3309 
L 1409 2516 
L 750 2516 
L 750 3309 
z
" transform="scale(0.015625)"/>
      <path id="DejaVuSans-20" transform="scale(0.015625)"/>
      <path id="DejaVuSans-36" d="M 2113 2584 
Q 1688 2584 1439 2293 
Q 1191 2003 1191 1497 
Q 1191 994 1439 701 
Q 1688 409 2113 409 
Q 2538 409 2786 701 
Q 3034 994 3034 1497 
Q 3034 2003 2786 2293 
Q 2538 2584 2113 2584 
z
M 3366 4563 
L 3366 3988 
Q 3128 4100 2886 4159 
Q 2644 4219 2406 4219 
Q 1781 4219 1451 3797 
Q 1122 3375 1075 2522 
Q 1259 2794 1537 2939 
Q 1816 3084 2150 3084 
Q 2853 3084 3261 2657 
Q 3669 2231 3669 1497 
Q 3669 778 3244 343 
Q 2819 -91 2113 -91 
Q 1303 -91 875 529 
Q 447 1150 447 2328 
Q 447 3434 972 4092 
Q 1497 4750 2381 4750 
Q 2619 4750 2861 4703 
Q 3103 4656 3366 4563 
z
" transform="scale(0.015625)"/>
      <path id="DejaVuSans-73" d="M 2834 3397 
L 2834 2853 
Q 2591 2978 2328 3040 
Q 2066 3103 1784 3103 
Q 1356 3103 1142 2972 
Q 928 2841 928 2578 
Q 928 2378 1081 2264 
Q 1234 2150 1697 2047 
L 1894 2003 
Q 2506 1872 2764 1633 
Q 3022 1394 3022 966 
Q 3022 478 2636 193 
Q 2250 -91 1575 -91 
Q 1294 -91 989 -36 
Q 684 19 347 128 
L 347 722 
Q 666 556 975 473 
Q 1284 391 1588 391 
Q 1994 391 2212 530 
Q 2431 669 2431 922 
Q 2431 1156 2273 1281 
Q 2116 1406 1581 1522 
L 1381 1569 
Q 847 1681 609 1914 
Q 372 2147 372 2553 
Q 372 3047 722 3315 
Q 1072 3584 1716 3584 
Q 2034 3584 2315 3537 
Q 2597 3491 2834 3397 
z
" transform="scale(0.015625)"/>
     </defs>
     <use xlink:href="#DejaVuSans-54"/>
     <use xlink:href="#DejaVuSans-69" x="57.958984"/>
     <use xlink:href="#DejaVuSans-6d" x="85.742188"/>
     <use xlink:href="#DejaVuSans-65" x="183.154297"/>
     <use xlink:href="#DejaVuSans-3a" x="244.677734"/>
     <use xlink:href="#DejaVuSans-20" x="278.369141"/>
     <use xlink:href="#DejaVuSans-20" x="310.15625"/>
     <use xlink:href="#DejaVuSans-36" x="341.943359"/>
     <use xlink:href="#DejaVuSans-31" x="405.566406"/>
     <use xlink:href="#DejaVuSans-20" x="469.189453"/>
     <use xlink:href="#DejaVuSans-6d" x="500.976562"/>
     <use xlink:href="#DejaVuSans-73" x="598.388672"/>
    </g>
   </g>
  </g>
 </g>
 <defs>
  <clipPath id="p6b3e0529ed">
   <rect x="103.104" y="41.472" width="266.112" height="266.112"/>
  </clipPath>
 </defs>
</svg>
