<?xml version="1.0" encoding="utf-8" standalone="no"?>
<!DOCTYPE svg PUBLIC "-//W3C//DTD SVG 1.1//EN"
  "http://www.w3.org/Graphics/SVG/1.1/DTD/svg11.dtd">
<svg xmlns:xlink="http://www.w3.org/1999/xlink" width="460.8pt" height="345.6pt" viewBox="0 0 460.8 345.6" xmlns="http://www.w3.org/2000/svg" version="1.1">
 <metadata>
  <rdf:RDF xmlns:dc="http://purl.org/dc/elements/1.1/" xmlns:cc="http://creativecommons.org/ns#" xmlns:rdf="http://www.w3.org/1999/02/22-rdf-syntax-ns#">
   <cc:Work>
    <dc:type rdf:resource="http://purl.org/dc/dcmitype/StillImage"/>
    <dc:date>2024-01-23T14:21:39.960970</dc:date>
    <dc:format>image/svg+xml</dc:format>
    <dc:creator>
     <cc:Agent>
      <dc:title>Matplotlib v3.8.2, https://matplotlib.org/</dc:title>
     </cc:Agent>
    </dc:creator>
   </cc:Work>
  </rdf:RDF>
 </metadata>
 <defs>
  <style type="text/css">*{stroke-linejoin: round; stroke-linecap: butt}</style>
 </defs>
 <g id="figure_1">
  <g id="patch_1">
   <path d="M 0 345.6 
L 460.8 345.6 
L 460.8 0 
L 0 0 
z
" style="fill: #ffffff"/>
  </g>
  <g id="axes_1">
   <g id="patch_2">
    <path d="M 103.104 307.584 
L 369.216 307.584 
L 369.216 41.472 
L 103.104 41.472 
z
" style="fill: #ffffff"/>
   </g>
   <g id="patch_3">
    <path d="M 120.357623 165.844738 
L 108.715223 165.844739 
L 108.715224 171.499619 
L 120.357624 171.499618 
z
" clip-path="url(#p3c723111c5)" style="fill: #00008b"/>
   </g>
   <g id="patch_4">
    <path d="M 244.843261 53.274384 
L 244.843254 41.631984 
L 239.188374 41.631988 
L 239.188381 53.274388 
z
" clip-path="url(#p3c723111c5)" style="fill: #800000"/>
   </g>
   <g id="patch_5">
    <path d="M 227.476737 292.168777 
L 227.476741 303.811177 
L 233.131621 303.811175 
L 233.131617 292.168775 
z
" clip-path="url(#p3c723111c5)" style="fill: #006400"/>
   </g>
   <g id="patch_6">
    <path d="M 353.800393 183.211264 
L 365.442793 183.211259 
L 365.442791 177.556379 
L 353.800391 177.556384 
z
" clip-path="url(#p3c723111c5)" style="fill: #4b0082"/>
   </g>
   <g id="patch_7">
    <path d="M 244.84336 97.051794 
L 244.843176 85.409394 
L 239.188296 85.409484 
L 239.18848 97.051884 
z
" clip-path="url(#p3c723111c5)" style="fill: #0000ff"/>
   </g>
   <g id="patch_8">
    <path d="M 158.719736 165.846416 
L 147.077337 165.8447 
L 147.076503 171.49958 
L 158.718903 171.501296 
z
" clip-path="url(#p3c723111c5)" style="fill: #ff0000"/>
   </g>
   <g id="patch_9">
    <path d="M 312.977808 183.210657 
L 324.620208 183.211585 
L 324.620658 177.556705 
L 312.978258 177.555777 
z
" clip-path="url(#p3c723111c5)" style="fill: #dbdc56"/>
   </g>
   <g id="patch_10">
    <path d="M 244.839012 126.376699 
L 244.797664 114.734372 
L 239.14282 114.754455 
L 239.184168 126.396782 
z
" clip-path="url(#p3c723111c5)" style="fill: #9400d3"/>
   </g>
   <g id="patch_11">
    <path d="M 277.621447 183.018448 
L 289.261434 183.255495 
L 289.376571 177.601787 
L 277.736584 177.364741 
z
" clip-path="url(#p3c723111c5)" style="fill: #1e90ff"/>
   </g>
   <g id="patch_12">
    <path d="M 227.478855 240.217891 
L 227.476337 251.860291 
L 233.131217 251.861514 
L 233.133735 240.219115 
z
" clip-path="url(#p3c723111c5)" style="fill: #ff4500"/>
   </g>
   <g id="patch_13">
    <path d="M 194.70719 166.047102 
L 183.067464 165.797589 
L 182.946271 171.45117 
L 194.585997 171.700684 
z
" clip-path="url(#p3c723111c5)" style="fill: #7cfc00"/>
   </g>
   <g id="patch_14">
    <path d="M 227.759931 215.294677 
L 227.403745 226.931628 
L 233.055978 227.104632 
L 233.412164 215.467682 
z
" clip-path="url(#p3c723111c5)" style="fill: #ff00ff"/>
   </g>
   <g id="matplotlib.axis_1">
    <g id="xtick_1">
     <g id="line2d_1">
      <defs>
       <path id="m6aaa3361dd" d="M 0 0 
L 0 3.5 
" style="stroke: #000000; stroke-width: 0.8"/>
      </defs>
      <g>
       <use xlink:href="#m6aaa3361dd" x="103.104" y="307.584" style="stroke: #000000; stroke-width: 0.8"/>
      </g>
     </g>
     <g id="text_1">
      <!-- −40 -->
      <g transform="translate(92.551656 322.182437) scale(0.1 -0.1)">
       <defs>
        <path id="DejaVuSans-2212" d="M 678 2272 
L 4684 2272 
L 4684 1741 
L 678 1741 
L 678 2272 
z
" transform="scale(0.015625)"/>
        <path id="DejaVuSans-34" d="M 2419 4116 
L 825 1625 
L 2419 1625 
L 2419 4116 
z
M 2253 4666 
L 3047 4666 
L 3047 1625 
L 3713 1625 
L 3713 1100 
L 3047 1100 
L 3047 0 
L 2419 0 
L 2419 1100 
L 313 1100 
L 313 1709 
L 2253 4666 
z
" transform="scale(0.015625)"/>
        <path id="DejaVuSans-30" d="M 2034 4250 
Q 1547 4250 1301 3770 
Q 1056 3291 1056 2328 
Q 1056 1369 1301 889 
Q 1547 409 2034 409 
Q 2525 409 2770 889 
Q 3016 1369 3016 2328 
Q 3016 3291 2770 3770 
Q 2525 4250 2034 4250 
z
M 2034 4750 
Q 2819 4750 3233 4129 
Q 3647 3509 3647 2328 
Q 3647 1150 3233 529 
Q 2819 -91 2034 -91 
Q 1250 -91 836 529 
Q 422 1150 422 2328 
Q 422 3509 836 4129 
Q 1250 4750 2034 4750 
z
" transform="scale(0.015625)"/>
       </defs>
       <use xlink:href="#DejaVuSans-2212"/>
       <use xlink:href="#DejaVuSans-34" x="83.789062"/>
       <use xlink:href="#DejaVuSans-30" x="147.412109"/>
      </g>
     </g>
    </g>
    <g id="xtick_2">
     <g id="line2d_2">
      <g>
       <use xlink:href="#m6aaa3361dd" x="136.368" y="307.584" style="stroke: #000000; stroke-width: 0.8"/>
      </g>
     </g>
     <g id="text_2">
      <!-- −30 -->
      <g transform="translate(125.815656 322.182437) scale(0.1 -0.1)">
       <defs>
        <path id="DejaVuSans-33" d="M 2597 2516 
Q 3050 2419 3304 2112 
Q 3559 1806 3559 1356 
Q 3559 666 3084 287 
Q 2609 -91 1734 -91 
Q 1441 -91 1130 -33 
Q 819 25 488 141 
L 488 750 
Q 750 597 1062 519 
Q 1375 441 1716 441 
Q 2309 441 2620 675 
Q 2931 909 2931 1356 
Q 2931 1769 2642 2001 
Q 2353 2234 1838 2234 
L 1294 2234 
L 1294 2753 
L 1863 2753 
Q 2328 2753 2575 2939 
Q 2822 3125 2822 3475 
Q 2822 3834 2567 4026 
Q 2313 4219 1838 4219 
Q 1578 4219 1281 4162 
Q 984 4106 628 3988 
L 628 4550 
Q 988 4650 1302 4700 
Q 1616 4750 1894 4750 
Q 2613 4750 3031 4423 
Q 3450 4097 3450 3541 
Q 3450 3153 3228 2886 
Q 3006 2619 2597 2516 
z
" transform="scale(0.015625)"/>
       </defs>
       <use xlink:href="#DejaVuSans-2212"/>
       <use xlink:href="#DejaVuSans-33" x="83.789062"/>
       <use xlink:href="#DejaVuSans-30" x="147.412109"/>
      </g>
     </g>
    </g>
    <g id="xtick_3">
     <g id="line2d_3">
      <g>
       <use xlink:href="#m6aaa3361dd" x="169.632" y="307.584" style="stroke: #000000; stroke-width: 0.8"/>
      </g>
     </g>
     <g id="text_3">
      <!-- −20 -->
      <g transform="translate(159.079656 322.182437) scale(0.1 -0.1)">
       <defs>
        <path id="DejaVuSans-32" d="M 1228 531 
L 3431 531 
L 3431 0 
L 469 0 
L 469 531 
Q 828 903 1448 1529 
Q 2069 2156 2228 2338 
Q 2531 2678 2651 2914 
Q 2772 3150 2772 3378 
Q 2772 3750 2511 3984 
Q 2250 4219 1831 4219 
Q 1534 4219 1204 4116 
Q 875 4013 500 3803 
L 500 4441 
Q 881 4594 1212 4672 
Q 1544 4750 1819 4750 
Q 2544 4750 2975 4387 
Q 3406 4025 3406 3419 
Q 3406 3131 3298 2873 
Q 3191 2616 2906 2266 
Q 2828 2175 2409 1742 
Q 1991 1309 1228 531 
z
" transform="scale(0.015625)"/>
       </defs>
       <use xlink:href="#DejaVuSans-2212"/>
       <use xlink:href="#DejaVuSans-32" x="83.789062"/>
       <use xlink:href="#DejaVuSans-30" x="147.412109"/>
      </g>
     </g>
    </g>
    <g id="xtick_4">
     <g id="line2d_4">
      <g>
       <use xlink:href="#m6aaa3361dd" x="202.896" y="307.584" style="stroke: #000000; stroke-width: 0.8"/>
      </g>
     </g>
     <g id="text_4">
      <!-- −10 -->
      <g transform="translate(192.343656 322.182437) scale(0.1 -0.1)">
       <defs>
        <path id="DejaVuSans-31" d="M 794 531 
L 1825 531 
L 1825 4091 
L 703 3866 
L 703 4441 
L 1819 4666 
L 2450 4666 
L 2450 531 
L 3481 531 
L 3481 0 
L 794 0 
L 794 531 
z
" transform="scale(0.015625)"/>
       </defs>
       <use xlink:href="#DejaVuSans-2212"/>
       <use xlink:href="#DejaVuSans-31" x="83.789062"/>
       <use xlink:href="#DejaVuSans-30" x="147.412109"/>
      </g>
     </g>
    </g>
    <g id="xtick_5">
     <g id="line2d_5">
      <g>
       <use xlink:href="#m6aaa3361dd" x="236.16" y="307.584" style="stroke: #000000; stroke-width: 0.8"/>
      </g>
     </g>
     <g id="text_5">
      <!-- 0 -->
      <g transform="translate(232.97875 322.182437) scale(0.1 -0.1)">
       <use xlink:href="#DejaVuSans-30"/>
      </g>
     </g>
    </g>
    <g id="xtick_6">
     <g id="line2d_6">
      <g>
       <use xlink:href="#m6aaa3361dd" x="269.424" y="307.584" style="stroke: #000000; stroke-width: 0.8"/>
      </g>
     </g>
     <g id="text_6">
      <!-- 10 -->
      <g transform="translate(263.0615 322.182437) scale(0.1 -0.1)">
       <use xlink:href="#DejaVuSans-31"/>
       <use xlink:href="#DejaVuSans-30" x="63.623047"/>
      </g>
     </g>
    </g>
    <g id="xtick_7">
     <g id="line2d_7">
      <g>
       <use xlink:href="#m6aaa3361dd" x="302.688" y="307.584" style="stroke: #000000; stroke-width: 0.8"/>
      </g>
     </g>
     <g id="text_7">
      <!-- 20 -->
      <g transform="translate(296.3255 322.182437) scale(0.1 -0.1)">
       <use xlink:href="#DejaVuSans-32"/>
       <use xlink:href="#DejaVuSans-30" x="63.623047"/>
      </g>
     </g>
    </g>
    <g id="xtick_8">
     <g id="line2d_8">
      <g>
       <use xlink:href="#m6aaa3361dd" x="335.952" y="307.584" style="stroke: #000000; stroke-width: 0.8"/>
      </g>
     </g>
     <g id="text_8">
      <!-- 30 -->
      <g transform="translate(329.5895 322.182437) scale(0.1 -0.1)">
       <use xlink:href="#DejaVuSans-33"/>
       <use xlink:href="#DejaVuSans-30" x="63.623047"/>
      </g>
     </g>
    </g>
    <g id="xtick_9">
     <g id="line2d_9">
      <g>
       <use xlink:href="#m6aaa3361dd" x="369.216" y="307.584" style="stroke: #000000; stroke-width: 0.8"/>
      </g>
     </g>
     <g id="text_9">
      <!-- 40 -->
      <g transform="translate(362.8535 322.182437) scale(0.1 -0.1)">
       <use xlink:href="#DejaVuSans-34"/>
       <use xlink:href="#DejaVuSans-30" x="63.623047"/>
      </g>
     </g>
    </g>
   </g>
   <g id="matplotlib.axis_2">
    <g id="ytick_1">
     <g id="line2d_10">
      <defs>
       <path id="m7ad893b481" d="M 0 0 
L -3.5 0 
" style="stroke: #000000; stroke-width: 0.8"/>
      </defs>
      <g>
       <use xlink:href="#m7ad893b481" x="103.104" y="307.584" style="stroke: #000000; stroke-width: 0.8"/>
      </g>
     </g>
     <g id="text_10">
      <!-- −40 -->
      <g transform="translate(74.999313 311.383219) scale(0.1 -0.1)">
       <use xlink:href="#DejaVuSans-2212"/>
       <use xlink:href="#DejaVuSans-34" x="83.789062"/>
       <use xlink:href="#DejaVuSans-30" x="147.412109"/>
      </g>
     </g>
    </g>
    <g id="ytick_2">
     <g id="line2d_11">
      <g>
       <use xlink:href="#m7ad893b481" x="103.104" y="274.32" style="stroke: #000000; stroke-width: 0.8"/>
      </g>
     </g>
     <g id="text_11">
      <!-- −30 -->
      <g transform="translate(74.999313 278.119219) scale(0.1 -0.1)">
       <use xlink:href="#DejaVuSans-2212"/>
       <use xlink:href="#DejaVuSans-33" x="83.789062"/>
       <use xlink:href="#DejaVuSans-30" x="147.412109"/>
      </g>
     </g>
    </g>
    <g id="ytick_3">
     <g id="line2d_12">
      <g>
       <use xlink:href="#m7ad893b481" x="103.104" y="241.056" style="stroke: #000000; stroke-width: 0.8"/>
      </g>
     </g>
     <g id="text_12">
      <!-- −20 -->
      <g transform="translate(74.999313 244.855219) scale(0.1 -0.1)">
       <use xlink:href="#DejaVuSans-2212"/>
       <use xlink:href="#DejaVuSans-32" x="83.789062"/>
       <use xlink:href="#DejaVuSans-30" x="147.412109"/>
      </g>
     </g>
    </g>
    <g id="ytick_4">
     <g id="line2d_13">
      <g>
       <use xlink:href="#m7ad893b481" x="103.104" y="207.792" style="stroke: #000000; stroke-width: 0.8"/>
      </g>
     </g>
     <g id="text_13">
      <!-- −10 -->
      <g transform="translate(74.999313 211.591219) scale(0.1 -0.1)">
       <use xlink:href="#DejaVuSans-2212"/>
       <use xlink:href="#DejaVuSans-31" x="83.789062"/>
       <use xlink:href="#DejaVuSans-30" x="147.412109"/>
      </g>
     </g>
    </g>
    <g id="ytick_5">
     <g id="line2d_14">
      <g>
       <use xlink:href="#m7ad893b481" x="103.104" y="174.528" style="stroke: #000000; stroke-width: 0.8"/>
      </g>
     </g>
     <g id="text_14">
      <!-- 0 -->
      <g transform="translate(89.7415 178.327219) scale(0.1 -0.1)">
       <use xlink:href="#DejaVuSans-30"/>
      </g>
     </g>
    </g>
    <g id="ytick_6">
     <g id="line2d_15">
      <g>
       <use xlink:href="#m7ad893b481" x="103.104" y="141.264" style="stroke: #000000; stroke-width: 0.8"/>
      </g>
     </g>
     <g id="text_15">
      <!-- 10 -->
      <g transform="translate(83.379 145.063219) scale(0.1 -0.1)">
       <use xlink:href="#DejaVuSans-31"/>
       <use xlink:href="#DejaVuSans-30" x="63.623047"/>
      </g>
     </g>
    </g>
    <g id="ytick_7">
     <g id="line2d_16">
      <g>
       <use xlink:href="#m7ad893b481" x="103.104" y="108" style="stroke: #000000; stroke-width: 0.8"/>
      </g>
     </g>
     <g id="text_16">
      <!-- 20 -->
      <g transform="translate(83.379 111.799219) scale(0.1 -0.1)">
       <use xlink:href="#DejaVuSans-32"/>
       <use xlink:href="#DejaVuSans-30" x="63.623047"/>
      </g>
     </g>
    </g>
    <g id="ytick_8">
     <g id="line2d_17">
      <g>
       <use xlink:href="#m7ad893b481" x="103.104" y="74.736" style="stroke: #000000; stroke-width: 0.8"/>
      </g>
     </g>
     <g id="text_17">
      <!-- 30 -->
      <g transform="translate(83.379 78.535219) scale(0.1 -0.1)">
       <use xlink:href="#DejaVuSans-33"/>
       <use xlink:href="#DejaVuSans-30" x="63.623047"/>
      </g>
     </g>
    </g>
    <g id="ytick_9">
     <g id="line2d_18">
      <g>
       <use xlink:href="#m7ad893b481" x="103.104" y="41.472" style="stroke: #000000; stroke-width: 0.8"/>
      </g>
     </g>
     <g id="text_18">
      <!-- 40 -->
      <g transform="translate(83.379 45.271219) scale(0.1 -0.1)">
       <use xlink:href="#DejaVuSans-34"/>
       <use xlink:href="#DejaVuSans-30" x="63.623047"/>
      </g>
     </g>
    </g>
   </g>
   <g id="line2d_19">
    <path d="M 250.2972 288.4572 
L 250.2972 188.6652 
" clip-path="url(#p3c723111c5)" style="fill: none; stroke: #000000; stroke-width: 0.25; stroke-linecap: square"/>
   </g>
   <g id="line2d_20">
    <path d="M 250.2972 188.6652 
L 350.0892 188.6652 
" clip-path="url(#p3c723111c5)" style="fill: none; stroke: #000000; stroke-width: 0.25; stroke-linecap: square"/>
   </g>
   <g id="line2d_21">
    <path d="M 350.0892 160.3908 
L 250.2972 160.3908 
" clip-path="url(#p3c723111c5)" style="fill: none; stroke: #000000; stroke-width: 0.25; stroke-linecap: square"/>
   </g>
   <g id="line2d_22">
    <path d="M 250.2972 160.3908 
L 250.2972 60.5988 
" clip-path="url(#p3c723111c5)" style="fill: none; stroke: #000000; stroke-width: 0.25; stroke-linecap: square"/>
   </g>
   <g id="line2d_23">
    <path d="M 222.0228 60.5988 
L 222.0228 160.3908 
" clip-path="url(#p3c723111c5)" style="fill: none; stroke: #000000; stroke-width: 0.25; stroke-linecap: square"/>
   </g>
   <g id="line2d_24">
    <path d="M 222.0228 160.3908 
L 122.2308 160.3908 
" clip-path="url(#p3c723111c5)" style="fill: none; stroke: #000000; stroke-width: 0.25; stroke-linecap: square"/>
   </g>
   <g id="line2d_25">
    <path d="M 122.2308 188.6652 
L 222.0228 188.6652 
" clip-path="url(#p3c723111c5)" style="fill: none; stroke: #000000; stroke-width: 0.25; stroke-linecap: square"/>
   </g>
   <g id="line2d_26">
    <path d="M 222.0228 188.6652 
L 222.0228 288.4572 
" clip-path="url(#p3c723111c5)" style="fill: none; stroke: #000000; stroke-width: 0.25; stroke-linecap: square"/>
   </g>
   <g id="line2d_27">
    <path d="M 250.2972 174.528 
L 350.0892 174.528 
" clip-path="url(#p3c723111c5)" style="fill: none; stroke-dasharray: 0.925,0.4; stroke-dashoffset: 0; stroke: #000000; stroke-width: 0.25"/>
   </g>
   <g id="line2d_28">
    <path d="M 236.16 160.3908 
L 236.16 60.5988 
" clip-path="url(#p3c723111c5)" style="fill: none; stroke-dasharray: 0.925,0.4; stroke-dashoffset: 0; stroke: #000000; stroke-width: 0.25"/>
   </g>
   <g id="line2d_29">
    <path d="M 222.0228 174.528 
L 122.2308 174.528 
" clip-path="url(#p3c723111c5)" style="fill: none; stroke-dasharray: 0.925,0.4; stroke-dashoffset: 0; stroke: #000000; stroke-width: 0.25"/>
   </g>
   <g id="line2d_30">
    <path d="M 236.16 188.6652 
L 236.16 288.4572 
" clip-path="url(#p3c723111c5)" style="fill: none; stroke-dasharray: 0.925,0.4; stroke-dashoffset: 0; stroke: #000000; stroke-width: 0.25"/>
   </g>
   <g id="line2d_31">
    <path d="M 116.164436 168.672178 
L 114.536424 168.672178 
L 112.908331 168.672178 
L 111.280163 168.672179 
L 109.651924 168.672179 
L 108.023619 168.672179 
L 106.395253 168.672179 
L 104.766831 168.672179 
L 103.138356 168.67218 
L 101.509833 168.67218 
L 99.881266 168.67218 
L 98.252659 168.67218 
L 96.624015 168.67218 
L 94.995338 168.67218 
L 93.36663 168.67218 
L 91.737896 168.67218 
L 90.109137 168.67218 
L 88.480357 168.67218 
L 86.851558 168.67218 
L 85.222742 168.67218 
L 83.593911 168.67218 
L 81.965068 168.67218 
L 80.336213 168.67218 
L 78.70735 168.67218 
L 77.078479 168.67218 
L 75.449601 168.67218 
L 73.820719 168.67218 
L 72.191832 168.67218 
L 70.562943 168.67218 
L 68.934052 168.67218 
L 67.30516 168.67218 
" clip-path="url(#p3c723111c5)" style="fill: none; stroke: #ff0000; stroke-opacity: 0.2; stroke-width: 0.25; stroke-linecap: square"/>
   </g>
   <g id="line2d_32">
    <path d="M 116.164436 168.672178 
L 114.536424 168.672178 
L 112.908331 168.672178 
L 111.280163 168.672179 
L 109.651924 168.672179 
L 108.023619 168.672179 
L 106.395253 168.672179 
L 104.766831 168.672179 
L 103.138356 168.67218 
L 101.509833 168.67218 
L 99.881267 168.67218 
L 98.25266 168.67218 
L 96.624016 168.67218 
L 94.99534 168.67218 
L 93.366633 168.67218 
L 91.7379 168.67218 
L 90.109143 168.67218 
L 88.480364 168.67218 
L 86.851567 168.67218 
L 85.222753 168.67218 
L 83.593925 168.67218 
L 81.965084 168.67218 
L 80.336233 168.67218 
L 78.707373 168.67218 
L 77.078506 168.67218 
L 75.449633 168.67218 
L 73.820756 168.67218 
L 72.191874 168.67218 
L 70.562991 168.67218 
L 68.934106 168.67218 
L 67.30522 168.67218 
" clip-path="url(#p3c723111c5)" style="fill: none; stroke: #ff0000; stroke-opacity: 0.4; stroke-width: 0.25; stroke-linecap: square"/>
   </g>
   <g id="line2d_33">
    <path d="M 116.164436 168.672178 
L 114.536424 168.672178 
L 112.908331 168.672178 
L 111.280163 168.672179 
L 109.651924 168.672179 
L 108.023619 168.672179 
L 106.395253 168.672179 
L 104.76683 168.672179 
L 103.138355 168.67218 
L 101.509832 168.67218 
L 99.881266 168.67218 
L 98.252658 168.67218 
L 96.624014 168.67218 
L 94.995337 168.67218 
L 93.36663 168.67218 
L 91.737896 168.67218 
L 90.109138 168.67218 
L 88.480359 168.67218 
L 86.85156 168.67218 
L 85.222745 168.67218 
L 83.593915 168.67218 
L 81.965073 168.67218 
L 80.33622 168.67218 
L 78.707359 168.67218 
L 77.078489 168.67218 
L 75.449614 168.67218 
L 73.820734 168.67218 
L 72.19185 168.67218 
L 70.562964 168.67218 
L 68.934076 168.67218 
L 67.305187 168.67218 
" clip-path="url(#p3c723111c5)" style="fill: none; stroke: #ff0000; stroke-opacity: 0.6; stroke-width: 0.25; stroke-linecap: square"/>
   </g>
   <g id="line2d_34">
    <path d="M 116.164436 168.672178 
L 114.536424 168.672178 
L 112.908331 168.672178 
L 111.280163 168.672179 
L 109.651924 168.672179 
L 108.023619 168.672179 
L 106.395253 168.672179 
L 104.766831 168.672179 
L 103.138356 168.67218 
L 101.509833 168.67218 
L 99.881266 168.67218 
L 98.252659 168.67218 
L 96.624016 168.67218 
L 94.995339 168.67218 
L 93.366633 168.67218 
L 91.737899 168.67218 
L 90.109141 168.67218 
L 88.480362 168.67218 
L 86.851565 168.67218 
L 85.22275 168.67218 
L 83.593921 168.67218 
L 81.96508 168.67218 
L 80.336228 168.67218 
L 78.707368 168.67218 
L 77.078499 168.67218 
L 75.449625 168.67218 
L 73.820746 168.67218 
L 72.191864 168.67218 
L 70.562979 168.67218 
L 68.934093 168.67218 
L 67.305205 168.67218 
" clip-path="url(#p3c723111c5)" style="fill: none; stroke: #ff0000; stroke-opacity: 0.8; stroke-width: 0.25; stroke-linecap: square"/>
   </g>
   <g id="line2d_35">
    <path d="M 116.164436 168.672178 
L 114.536424 168.672178 
L 112.908331 168.672178 
L 111.280163 168.672179 
L 109.651924 168.672179 
L 108.023619 168.672179 
L 106.395253 168.672179 
L 104.76683 168.672179 
L 103.138355 168.67218 
L 101.509833 168.67218 
L 99.881266 168.67218 
L 98.252659 168.67218 
L 96.624015 168.67218 
L 94.995338 168.67218 
L 93.366631 168.67218 
L 91.737897 168.67218 
L 90.109139 168.67218 
L 88.48036 168.67218 
L 86.851562 168.67218 
L 85.222747 168.67218 
L 83.593918 168.67218 
L 81.965076 168.67218 
L 80.336224 168.67218 
L 78.707362 168.67218 
L 77.078494 168.67218 
L 75.449619 168.67218 
L 73.820739 168.67218 
L 72.191856 168.67218 
L 70.56297 168.67218 
L 68.934083 168.67218 
L 67.305195 168.67218 
" clip-path="url(#p3c723111c5)" style="fill: none; stroke: #ff0000; stroke-width: 0.25; stroke-linecap: square"/>
   </g>
   <g id="line2d_36">
    <path d="M 242.015817 48.961056 
L 242.015817 47.453186 
L 242.015817 45.945446 
L 242.015817 44.437833 
L 242.015817 42.930341 
L 242.015817 41.422966 
L 242.015818 39.915702 
L 242.015818 38.408545 
L 242.015818 36.90149 
L 242.015818 35.39453 
L 242.015818 33.887661 
L 242.015819 32.380877 
L 242.015819 30.874173 
L 242.015819 29.367543 
L 242.015819 27.860981 
L 242.015819 26.354483 
L 242.015819 24.848044 
L 242.01582 23.341658 
L 242.01582 21.835321 
L 242.01582 20.329027 
L 242.01582 18.822772 
L 242.01582 17.316552 
L 242.01582 15.810362 
L 242.01582 14.304199 
L 242.01582 12.798058 
L 242.01582 11.291935 
L 242.01582 9.785828 
L 242.01582 8.279733 
L 242.01582 6.773646 
L 242.01582 5.267566 
L 242.01582 3.761489 
" clip-path="url(#p3c723111c5)" style="fill: none; stroke: #ff0000; stroke-opacity: 0.2; stroke-width: 0.25; stroke-linecap: square"/>
   </g>
   <g id="line2d_37">
    <path d="M 242.015817 48.961056 
L 242.015817 47.453186 
L 242.015817 45.945446 
L 242.015817 44.43783 
L 242.015817 42.930336 
L 242.015817 41.422957 
L 242.015818 39.915688 
L 242.015818 38.408526 
L 242.015818 36.901463 
L 242.015818 35.394495 
L 242.015818 33.887617 
L 242.015819 32.380822 
L 242.015819 30.874106 
L 242.015819 29.367462 
L 242.015819 27.860885 
L 242.015819 26.354371 
L 242.015819 24.847914 
L 242.01582 23.341508 
L 242.01582 21.83515 
L 242.01582 20.328833 
L 242.01582 18.822554 
L 242.01582 17.316307 
L 242.01582 15.81009 
L 242.01582 14.303897 
L 242.01582 12.797724 
L 242.01582 11.291569 
L 242.01582 9.785427 
L 242.01582 8.279296 
L 242.01582 6.773171 
L 242.01582 5.267052 
L 242.01582 3.760934 
" clip-path="url(#p3c723111c5)" style="fill: none; stroke: #ff0000; stroke-opacity: 0.4; stroke-width: 0.25; stroke-linecap: square"/>
   </g>
   <g id="line2d_38">
    <path d="M 242.015817 48.961056 
L 242.015817 47.453186 
L 242.015817 45.945446 
L 242.015817 44.437832 
L 242.015817 42.930339 
L 242.015817 41.422963 
L 242.015818 39.915697 
L 242.015818 38.408538 
L 242.015818 36.90148 
L 242.015818 35.394518 
L 242.015818 33.887645 
L 242.015819 32.380857 
L 242.015819 30.874148 
L 242.015819 29.367512 
L 242.015819 27.860944 
L 242.015819 26.35444 
L 242.015819 24.847993 
L 242.01582 23.341599 
L 242.01582 21.835252 
L 242.01582 20.328948 
L 242.01582 18.822683 
L 242.01582 17.316451 
L 242.01582 15.810249 
L 242.01582 14.304072 
L 242.01582 12.797917 
L 242.01582 11.29178 
L 242.01582 9.785657 
L 242.01582 8.279545 
L 242.01582 6.773441 
L 242.01582 5.267342 
L 242.01582 3.761245 
" clip-path="url(#p3c723111c5)" style="fill: none; stroke: #ff0000; stroke-opacity: 0.6; stroke-width: 0.25; stroke-linecap: square"/>
   </g>
   <g id="line2d_39">
    <path d="M 242.015817 48.961056 
L 242.015817 47.453186 
L 242.015817 45.945446 
L 242.015817 44.437831 
L 242.015817 42.930337 
L 242.015817 41.422959 
L 242.015818 39.915692 
L 242.015818 38.408531 
L 242.015818 36.90147 
L 242.015818 35.394504 
L 242.015818 33.887628 
L 242.015819 32.380836 
L 242.015819 30.874122 
L 242.015819 29.367482 
L 242.015819 27.860909 
L 242.015819 26.354399 
L 242.015819 24.847946 
L 242.01582 23.341545 
L 242.01582 21.835191 
L 242.01582 20.32888 
L 242.01582 18.822607 
L 242.01582 17.316367 
L 242.01582 15.810156 
L 242.01582 14.303971 
L 242.01582 12.797806 
L 242.01582 11.291659 
L 242.01582 9.785526 
L 242.01582 8.279403 
L 242.01582 6.773288 
L 242.01582 5.267178 
L 242.01582 3.76107 
" clip-path="url(#p3c723111c5)" style="fill: none; stroke: #ff0000; stroke-opacity: 0.8; stroke-width: 0.25; stroke-linecap: square"/>
   </g>
   <g id="line2d_40">
    <path d="M 242.015817 48.961056 
L 242.015817 47.453186 
L 242.015817 45.945446 
L 242.015817 44.437832 
L 242.015817 42.930338 
L 242.015817 41.422961 
L 242.015818 39.915695 
L 242.015818 38.408535 
L 242.015818 36.901476 
L 242.015818 35.394512 
L 242.015818 33.887638 
L 242.015819 32.380848 
L 242.015819 30.874137 
L 242.015819 29.3675 
L 242.015819 27.86093 
L 242.015819 26.354423 
L 242.015819 24.847974 
L 242.01582 23.341577 
L 242.01582 21.835227 
L 242.01582 20.32892 
L 242.01582 18.822651 
L 242.01582 17.316416 
L 242.01582 15.81021 
L 242.01582 14.304029 
L 242.01582 12.79787 
L 242.01582 11.291728 
L 242.01582 9.7856 
L 242.01582 8.279483 
L 242.01582 6.773374 
L 242.01582 5.26727 
L 242.01582 3.761169 
" clip-path="url(#p3c723111c5)" style="fill: none; stroke: #ff0000; stroke-width: 0.25; stroke-linecap: square"/>
   </g>
   <g id="line2d_41">
    <path d="M 230.304179 296.381971 
L 230.304179 297.989976 
L 230.304179 299.597972 
L 230.30418 301.205958 
L 230.30418 302.813935 
L 230.30418 304.421903 
L 230.30418 306.02986 
L 230.30418 307.637809 
L 230.30418 309.245748 
L 230.30418 310.853678 
L 230.30418 312.461599 
L 230.30418 314.069512 
L 230.30418 315.677416 
L 230.30418 317.285313 
L 230.30418 318.893202 
L 230.30418 320.501084 
L 230.30418 322.10896 
L 230.30418 323.716829 
L 230.30418 325.324693 
L 230.30418 326.932551 
L 230.30418 328.540405 
L 230.30418 330.148255 
L 230.30418 331.756101 
L 230.30418 333.363944 
L 230.30418 334.971783 
L 230.30418 336.579621 
L 230.30418 338.187456 
L 230.30418 339.79529 
L 230.30418 341.403123 
L 230.30418 343.010955 
L 230.30418 344.618786 
" clip-path="url(#p3c723111c5)" style="fill: none; stroke: #ff0000; stroke-opacity: 0.2; stroke-width: 0.25; stroke-linecap: square"/>
   </g>
   <g id="line2d_42">
    <path d="M 230.304179 296.381971 
L 230.304179 297.989976 
L 230.304179 299.597972 
L 230.30418 301.205959 
L 230.30418 302.813936 
L 230.30418 304.421905 
L 230.30418 306.029863 
L 230.30418 307.637813 
L 230.30418 309.245753 
L 230.30418 310.853685 
L 230.30418 312.461608 
L 230.30418 314.069522 
L 230.30418 315.677429 
L 230.30418 317.285328 
L 230.30418 318.89322 
L 230.30418 320.501105 
L 230.30418 322.108984 
L 230.30418 323.716857 
L 230.30418 325.324725 
L 230.30418 326.932587 
L 230.30418 328.540446 
L 230.30418 330.1483 
L 230.30418 331.756151 
L 230.30418 333.363998 
L 230.30418 334.971844 
L 230.30418 336.579687 
L 230.30418 338.187528 
L 230.30418 339.795368 
L 230.30418 341.403207 
L 230.30418 343.011045 
L 230.30418 344.618883 
" clip-path="url(#p3c723111c5)" style="fill: none; stroke: #ff0000; stroke-opacity: 0.4; stroke-width: 0.25; stroke-linecap: square"/>
   </g>
   <g id="line2d_43">
    <path d="M 230.304179 296.381971 
L 230.304179 297.989976 
L 230.304179 299.597972 
L 230.304179 301.205959 
L 230.30418 302.813936 
L 230.30418 304.421903 
L 230.30418 306.029862 
L 230.30418 307.63781 
L 230.30418 309.24575 
L 230.30418 310.85368 
L 230.30418 312.461602 
L 230.30418 314.069516 
L 230.30418 315.677421 
L 230.30418 317.285319 
L 230.30418 318.893209 
L 230.30418 320.501092 
L 230.30418 322.108969 
L 230.30418 323.71684 
L 230.30418 325.324706 
L 230.30418 326.932566 
L 230.30418 328.540422 
L 230.30418 330.148274 
L 230.30418 331.756122 
L 230.30418 333.363967 
L 230.30418 334.971809 
L 230.30418 336.579649 
L 230.30418 338.187487 
L 230.30418 339.795324 
L 230.30418 341.403159 
L 230.30418 343.010994 
L 230.30418 344.618829 
" clip-path="url(#p3c723111c5)" style="fill: none; stroke: #ff0000; stroke-opacity: 0.6; stroke-width: 0.25; stroke-linecap: square"/>
   </g>
   <g id="line2d_44">
    <path d="M 230.304179 296.381971 
L 230.304179 297.989976 
L 230.304179 299.597972 
L 230.304179 301.205959 
L 230.30418 302.813936 
L 230.30418 304.421904 
L 230.30418 306.029863 
L 230.30418 307.637812 
L 230.30418 309.245752 
L 230.30418 310.853683 
L 230.30418 312.461606 
L 230.30418 314.06952 
L 230.30418 315.677426 
L 230.30418 317.285324 
L 230.30418 318.893216 
L 230.30418 320.5011 
L 230.30418 322.108978 
L 230.30418 323.71685 
L 230.30418 325.324717 
L 230.30418 326.932579 
L 230.30418 328.540436 
L 230.30418 330.148289 
L 230.30418 331.756139 
L 230.30418 333.363985 
L 230.30418 334.971829 
L 230.30418 336.57967 
L 230.30418 338.18751 
L 230.30418 339.795349 
L 230.30418 341.403186 
L 230.30418 343.011023 
L 230.30418 344.618859 
" clip-path="url(#p3c723111c5)" style="fill: none; stroke: #ff0000; stroke-opacity: 0.8; stroke-width: 0.25; stroke-linecap: square"/>
   </g>
   <g id="line2d_45">
    <path d="M 230.304179 296.381971 
L 230.304179 297.989976 
L 230.304179 299.597972 
L 230.304179 301.205959 
L 230.30418 302.813936 
L 230.30418 304.421904 
L 230.30418 306.029862 
L 230.30418 307.637811 
L 230.30418 309.245751 
L 230.30418 310.853682 
L 230.30418 312.461604 
L 230.30418 314.069517 
L 230.30418 315.677423 
L 230.30418 317.285321 
L 230.30418 318.893212 
L 230.30418 320.501096 
L 230.30418 322.108973 
L 230.30418 323.716845 
L 230.30418 325.324711 
L 230.30418 326.932571 
L 230.30418 328.540428 
L 230.30418 330.14828 
L 230.30418 331.756129 
L 230.30418 333.363975 
L 230.30418 334.971817 
L 230.30418 336.579658 
L 230.30418 338.187497 
L 230.30418 339.795334 
L 230.30418 341.403171 
L 230.30418 343.011007 
L 230.30418 344.618842 
" clip-path="url(#p3c723111c5)" style="fill: none; stroke: #ff0000; stroke-width: 0.25; stroke-linecap: square"/>
   </g>
   <g id="line2d_46">
    <path d="M 358.013819 180.383822 
L 359.621592 180.383821 
L 361.229381 180.383821 
L 362.837186 180.38382 
L 364.445003 180.38382 
L 366.052833 180.38382 
L 367.660673 180.38382 
L 369.268522 180.38382 
L 370.87638 180.38382 
L 372.484244 180.38382 
L 374.092114 180.38382 
L 375.69999 180.38382 
L 377.30787 180.38382 
L 378.915753 180.38382 
L 380.52364 180.38382 
L 382.131529 180.38382 
L 383.739419 180.38382 
L 385.347312 180.38382 
L 386.955205 180.38382 
L 388.563099 180.38382 
L 390.170994 180.38382 
L 391.778889 180.38382 
L 393.386785 180.38382 
L 394.99468 180.38382 
L 396.602576 180.38382 
L 398.210471 180.38382 
L 399.818366 180.38382 
L 401.426262 180.38382 
L 403.034157 180.38382 
L 404.642052 180.38382 
L 406.249947 180.38382 
" clip-path="url(#p3c723111c5)" style="fill: none; stroke: #ff0000; stroke-opacity: 0.2; stroke-width: 0.25; stroke-linecap: square"/>
   </g>
   <g id="line2d_47">
    <path d="M 358.013819 180.383822 
L 359.621592 180.383821 
L 361.229381 180.383821 
L 362.837186 180.38382 
L 364.445004 180.38382 
L 366.052834 180.38382 
L 367.660675 180.38382 
L 369.268525 180.38382 
L 370.876384 180.38382 
L 372.484249 180.38382 
L 374.092121 180.38382 
L 375.699998 180.38382 
L 377.30788 180.38382 
L 378.915765 180.38382 
L 380.523653 180.38382 
L 382.131544 180.38382 
L 383.739437 180.38382 
L 385.347332 180.38382 
L 386.955228 180.38382 
L 388.563125 180.38382 
L 390.171022 180.38382 
L 391.77892 180.38382 
L 393.386819 180.38382 
L 394.994717 180.38382 
L 396.602616 180.38382 
L 398.210514 180.38382 
L 399.818413 180.38382 
L 401.426311 180.38382 
L 403.03421 180.38382 
L 404.642108 180.38382 
L 406.250007 180.38382 
" clip-path="url(#p3c723111c5)" style="fill: none; stroke: #ff0000; stroke-opacity: 0.4; stroke-width: 0.25; stroke-linecap: square"/>
   </g>
   <g id="line2d_48">
    <path d="M 358.013819 180.383822 
L 359.621592 180.383821 
L 361.229381 180.383821 
L 362.837186 180.38382 
L 364.445004 180.38382 
L 366.052833 180.38382 
L 367.660674 180.38382 
L 369.268524 180.38382 
L 370.876381 180.38382 
L 372.484246 180.38382 
L 374.092117 180.38382 
L 375.699993 180.38382 
L 377.307874 180.38382 
L 378.915758 180.38382 
L 380.523645 180.38382 
L 382.131535 180.38382 
L 383.739427 180.38382 
L 385.34732 180.38382 
L 386.955215 180.38382 
L 388.56311 180.38382 
L 390.171006 180.38382 
L 391.778902 180.38382 
L 393.386799 180.38382 
L 394.994696 180.38382 
L 396.602593 180.38382 
L 398.21049 180.38382 
L 399.818386 180.38382 
L 401.426283 180.38382 
L 403.03418 180.38382 
L 404.642076 180.38382 
L 406.249973 180.38382 
" clip-path="url(#p3c723111c5)" style="fill: none; stroke: #ff0000; stroke-opacity: 0.6; stroke-width: 0.25; stroke-linecap: square"/>
   </g>
   <g id="line2d_49">
    <path d="M 358.013819 180.383822 
L 359.621592 180.383821 
L 361.229381 180.383821 
L 362.837186 180.38382 
L 364.445004 180.38382 
L 366.052834 180.38382 
L 367.660675 180.38382 
L 369.268525 180.38382 
L 370.876383 180.38382 
L 372.484248 180.38382 
L 374.09212 180.38382 
L 375.699996 180.38382 
L 377.307877 180.38382 
L 378.915762 180.38382 
L 380.52365 180.38382 
L 382.13154 180.38382 
L 383.739433 180.38382 
L 385.347327 180.38382 
L 386.955222 180.38382 
L 388.563118 180.38382 
L 390.171015 180.38382 
L 391.778913 180.38382 
L 393.38681 180.38382 
L 394.994708 180.38382 
L 396.602606 180.38382 
L 398.210504 180.38382 
L 399.818401 180.38382 
L 401.426299 180.38382 
L 403.034197 180.38382 
L 404.642094 180.38382 
L 406.249992 180.38382 
" clip-path="url(#p3c723111c5)" style="fill: none; stroke: #ff0000; stroke-opacity: 0.8; stroke-width: 0.25; stroke-linecap: square"/>
   </g>
   <g id="line2d_50">
    <path d="M 358.013819 180.383822 
L 359.621592 180.383821 
L 361.229381 180.383821 
L 362.837186 180.38382 
L 364.445004 180.38382 
L 366.052834 180.38382 
L 367.660674 180.38382 
L 369.268524 180.38382 
L 370.876382 180.38382 
L 372.484247 180.38382 
L 374.092118 180.38382 
L 375.699995 180.38382 
L 377.307875 180.38382 
L 378.91576 180.38382 
L 380.523647 180.38382 
L 382.131537 180.38382 
L 383.73943 180.38382 
L 385.347323 180.38382 
L 386.955218 180.38382 
L 388.563114 180.38382 
L 390.17101 180.38382 
L 391.778907 180.38382 
L 393.386804 180.38382 
L 394.994701 180.38382 
L 396.602598 180.38382 
L 398.210496 180.38382 
L 399.818393 180.38382 
L 401.42629 180.38382 
L 403.034187 180.38382 
L 404.642084 180.38382 
L 406.249981 180.38382 
" clip-path="url(#p3c723111c5)" style="fill: none; stroke: #ff0000; stroke-width: 0.25; stroke-linecap: square"/>
   </g>
   <g id="line2d_51">
    <path d="M 242.015836 92.818246 
L 242.015825 91.230639 
L 242.015815 89.641119 
L 242.015808 88.049783 
L 242.015803 86.456725 
L 242.015799 84.862043 
L 242.015797 83.265831 
L 242.015797 81.668183 
L 242.015797 80.069191 
L 242.015798 78.468947 
L 242.015799 76.867538 
L 242.0158 75.265049 
L 242.015802 73.661565 
L 242.015804 72.057164 
L 242.015806 70.451925 
L 242.015808 68.845921 
L 242.015809 67.239224 
L 242.015811 65.6319 
L 242.015812 64.024014 
L 242.015814 62.415628 
L 242.015815 60.806799 
L 242.015816 59.197582 
L 242.015817 57.588028 
L 242.015818 55.978184 
L 242.015818 54.368097 
L 242.015819 52.757807 
L 242.015819 51.147353 
L 242.01582 49.536773 
L 242.01582 47.926098 
L 242.01582 46.315359 
L 242.015821 44.704583 
" clip-path="url(#p3c723111c5)" style="fill: none; stroke: #ff0000; stroke-opacity: 0.2; stroke-width: 0.25; stroke-linecap: square"/>
   </g>
   <g id="line2d_52">
    <path d="M 242.015836 92.818246 
L 242.015827 91.230639 
L 242.015816 89.641124 
L 242.015809 88.049797 
L 242.015803 86.456756 
L 242.0158 84.862096 
L 242.015798 83.265913 
L 242.015797 81.668301 
L 242.015797 80.069355 
L 242.015798 78.469164 
L 242.015799 76.867817 
L 242.0158 75.265402 
L 242.015802 73.662 
L 242.015804 72.057694 
L 242.015806 70.452561 
L 242.015807 68.846675 
L 242.015809 67.240108 
L 242.015811 65.632929 
L 242.015812 64.025201 
L 242.015813 62.416988 
L 242.015815 60.808346 
L 242.015816 59.19933 
L 242.015817 57.589993 
L 242.015817 55.980382 
L 242.015818 54.370543 
L 242.015819 52.760518 
L 242.015819 51.150346 
L 242.01582 49.540063 
L 242.01582 47.929701 
L 242.015821 46.319292 
L 242.015821 44.708863 
" clip-path="url(#p3c723111c5)" style="fill: none; stroke: #ff0000; stroke-opacity: 0.4; stroke-width: 0.25; stroke-linecap: square"/>
   </g>
   <g id="line2d_53">
    <path d="M 242.015836 92.818246 
L 242.015827 91.230639 
L 242.015817 89.64112 
L 242.015809 88.049786 
L 242.015804 86.456733 
L 242.0158 84.862057 
L 242.015798 83.265854 
L 242.015797 81.668218 
L 242.015797 80.069241 
L 242.015798 78.469016 
L 242.015799 76.867629 
L 242.0158 75.265167 
L 242.015802 73.661714 
L 242.015804 72.05735 
L 242.015806 70.452153 
L 242.015808 68.846197 
L 242.015809 67.239553 
L 242.015811 65.63229 
L 242.015812 64.024472 
L 242.015814 62.41616 
L 242.015815 60.807413 
L 242.015816 59.198285 
L 242.015817 57.588828 
L 242.015817 55.979089 
L 242.015818 54.369116 
L 242.015819 52.758948 
L 242.015819 51.148626 
L 242.01582 49.538185 
L 242.01582 47.927658 
L 242.01582 46.317076 
L 242.015821 44.706467 
" clip-path="url(#p3c723111c5)" style="fill: none; stroke: #ff0000; stroke-opacity: 0.6; stroke-width: 0.25; stroke-linecap: square"/>
   </g>
   <g id="line2d_54">
    <path d="M 242.015836 92.818246 
L 242.015828 91.230639 
L 242.015817 89.641123 
L 242.01581 88.049794 
L 242.015804 86.456748 
L 242.015801 84.862083 
L 242.015799 83.265893 
L 242.015797 81.668272 
L 242.015797 80.069315 
L 242.015798 78.469111 
L 242.015799 76.867749 
L 242.015801 75.265315 
L 242.015802 73.661894 
L 242.015804 72.057564 
L 242.015806 70.452405 
L 242.015807 68.84649 
L 242.015809 67.239892 
L 242.015811 65.632677 
L 242.015812 64.024911 
L 242.015814 62.416654 
L 242.015815 60.807966 
L 242.015816 59.198901 
L 242.015817 57.589511 
L 242.015817 55.979843 
L 242.015818 54.369943 
L 242.015819 52.759853 
L 242.015819 51.149611 
L 242.01582 49.539255 
L 242.01582 47.928816 
L 242.015821 46.318326 
L 242.015821 44.707811 
" clip-path="url(#p3c723111c5)" style="fill: none; stroke: #ff0000; stroke-opacity: 0.8; stroke-width: 0.25; stroke-linecap: square"/>
   </g>
   <g id="line2d_55">
    <path d="M 242.015836 92.818246 
L 242.015828 91.230639 
L 242.015818 89.641121 
L 242.01581 88.049789 
L 242.015805 86.456739 
L 242.015801 84.862067 
L 242.015799 83.265868 
L 242.015798 81.668238 
L 242.015797 80.069269 
L 242.015798 78.469052 
L 242.015799 76.867675 
L 242.015801 75.265225 
L 242.015802 73.661784 
L 242.015804 72.057435 
L 242.015806 70.452253 
L 242.015808 68.846314 
L 242.015809 67.239689 
L 242.015811 65.632447 
L 242.015812 64.024651 
L 242.015814 62.416363 
L 242.015815 60.807642 
L 242.015816 59.198541 
L 242.015817 57.589114 
L 242.015817 55.979407 
L 242.015818 54.369466 
L 242.015819 52.759334 
L 242.015819 51.149048 
L 242.01582 49.538646 
L 242.01582 47.92816 
L 242.01582 46.317621 
L 242.015821 44.707056 
" clip-path="url(#p3c723111c5)" style="fill: none; stroke: #ff0000; stroke-width: 0.25; stroke-linecap: square"/>
   </g>
   <g id="line2d_56">
    <path d="M 154.499456 168.673192 
L 152.89812 168.672991 
L 151.296078 168.672811 
L 149.693372 168.672657 
L 148.090041 168.672528 
L 146.486122 168.67242 
L 144.881655 168.672332 
L 143.276676 168.672261 
L 141.671222 168.672205 
L 140.065326 168.672163 
L 138.459023 168.672131 
L 136.852345 168.672109 
L 135.245324 168.672094 
L 133.637988 168.672086 
L 132.030365 168.672082 
L 130.422484 168.672082 
L 128.814369 168.672085 
L 127.206045 168.672091 
L 125.597533 168.672097 
L 123.988856 168.672104 
L 122.380033 168.672112 
L 120.771083 168.67212 
L 119.162023 168.672128 
L 117.55287 168.672135 
L 115.943638 168.672142 
L 114.334341 168.672149 
L 112.724992 168.672156 
L 111.115602 168.672162 
L 109.506183 168.672168 
L 107.896743 168.672173 
L 106.287291 168.672179 
" clip-path="url(#p3c723111c5)" style="fill: none; stroke: #ff0000; stroke-opacity: 0.2; stroke-width: 0.25; stroke-linecap: square"/>
   </g>
   <g id="line2d_57">
    <path d="M 154.499456 168.673192 
L 152.89812 168.672994 
L 151.296079 168.672814 
L 149.693374 168.67266 
L 148.090045 168.67253 
L 146.486131 168.672422 
L 144.881669 168.672333 
L 143.276697 168.672262 
L 141.671251 168.672206 
L 140.065366 168.672163 
L 138.459077 168.672131 
L 136.852414 168.672109 
L 135.24541 168.672094 
L 133.638095 168.672085 
L 132.030497 168.672081 
L 130.422642 168.672082 
L 128.814558 168.672085 
L 127.206267 168.67209 
L 125.597793 168.672096 
L 123.989158 168.672104 
L 122.38038 168.672112 
L 120.77148 168.67212 
L 119.162475 168.672128 
L 117.55338 168.672136 
L 115.944212 168.672143 
L 114.334984 168.672151 
L 112.725708 168.672158 
L 111.116396 168.672164 
L 109.50706 168.672171 
L 107.897708 168.672177 
L 106.28835 168.672183 
" clip-path="url(#p3c723111c5)" style="fill: none; stroke: #ff0000; stroke-opacity: 0.4; stroke-width: 0.25; stroke-linecap: square"/>
   </g>
   <g id="line2d_58">
    <path d="M 154.499456 168.673192 
L 152.89812 168.672996 
L 151.296078 168.672816 
L 149.693372 168.672662 
L 148.090041 168.672532 
L 146.486123 168.672423 
L 144.881657 168.672334 
L 143.27668 168.672263 
L 141.671228 168.672207 
L 140.065336 168.672164 
L 138.459037 168.672132 
L 136.852365 168.672109 
L 135.245349 168.672094 
L 133.638021 168.672086 
L 132.030408 168.672082 
L 130.422537 168.672082 
L 128.814435 168.672085 
L 127.206124 168.67209 
L 125.597628 168.672096 
L 123.988969 168.672104 
L 122.380166 168.672112 
L 120.771238 168.67212 
L 119.162203 168.672127 
L 117.553076 168.672135 
L 115.943874 168.672143 
L 114.334609 168.67215 
L 112.725294 168.672156 
L 111.115942 168.672163 
L 109.506562 168.672169 
L 107.897165 168.672175 
L 106.287759 168.672181 
" clip-path="url(#p3c723111c5)" style="fill: none; stroke: #ff0000; stroke-opacity: 0.6; stroke-width: 0.25; stroke-linecap: square"/>
   </g>
   <g id="line2d_59">
    <path d="M 154.499456 168.673192 
L 152.89812 168.672997 
L 151.296079 168.672817 
L 149.693374 168.672663 
L 148.090044 168.672533 
L 146.486129 168.672424 
L 144.881666 168.672335 
L 143.276692 168.672263 
L 141.671244 168.672207 
L 140.065357 168.672164 
L 138.459064 168.672132 
L 136.852397 168.672109 
L 135.245389 168.672094 
L 133.638069 168.672086 
L 132.030465 168.672082 
L 130.422604 168.672082 
L 128.814512 168.672085 
L 127.206213 168.67209 
L 125.597729 168.672096 
L 123.989084 168.672104 
L 122.380295 168.672112 
L 120.771383 168.67212 
L 119.162364 168.672128 
L 117.553255 168.672135 
L 115.944071 168.672143 
L 114.334826 168.67215 
L 112.725532 168.672157 
L 111.116201 168.672164 
L 109.506844 168.67217 
L 107.897471 168.672176 
L 106.28809 168.672182 
" clip-path="url(#p3c723111c5)" style="fill: none; stroke: #ff0000; stroke-opacity: 0.8; stroke-width: 0.25; stroke-linecap: square"/>
   </g>
   <g id="line2d_60">
    <path d="M 154.499456 168.673192 
L 152.89812 168.672998 
L 151.296079 168.672818 
L 149.693373 168.672664 
L 148.090042 168.672533 
L 146.486125 168.672424 
L 144.88166 168.672335 
L 143.276684 168.672264 
L 141.671234 168.672207 
L 140.065343 168.672164 
L 138.459047 168.672132 
L 136.852377 168.672109 
L 135.245364 168.672094 
L 133.638039 168.672086 
L 132.03043 168.672082 
L 130.422563 168.672082 
L 128.814465 168.672085 
L 127.206159 168.67209 
L 125.597669 168.672096 
L 123.989015 168.672104 
L 122.380218 168.672111 
L 120.771297 168.67212 
L 119.16227 168.672127 
L 117.553151 168.672135 
L 115.943957 168.672143 
L 114.334701 168.67215 
L 112.725396 168.672157 
L 111.116053 168.672163 
L 109.506684 168.672169 
L 107.897298 168.672175 
L 106.287904 168.672181 
" clip-path="url(#p3c723111c5)" style="fill: none; stroke: #ff0000; stroke-width: 0.25; stroke-linecap: square"/>
   </g>
   <g id="line2d_61">
    <path d="M 317.191346 180.383622 
L 318.799233 180.383693 
L 320.408694 180.383756 
L 322.01967 180.383805 
L 323.632098 180.383842 
L 325.245913 180.383869 
L 326.86105 180.383888 
L 328.477439 180.3839 
L 330.095015 180.383906 
L 331.713708 180.383908 
L 333.333451 180.383907 
L 334.954176 180.383904 
L 336.575817 180.383899 
L 338.198308 180.383892 
L 339.821585 180.383886 
L 341.445584 180.383878 
L 343.070246 180.383871 
L 344.69551 180.383865 
L 346.321319 180.383858 
L 347.947619 180.383852 
L 349.574355 180.383847 
L 351.201478 180.383842 
L 352.828938 180.383838 
L 354.45669 180.383834 
L 356.084689 180.383831 
L 357.712896 180.383828 
L 359.34127 180.383826 
L 360.969775 180.383823 
L 362.598378 180.383821 
L 364.227047 180.38382 
L 365.855754 180.383818 
" clip-path="url(#p3c723111c5)" style="fill: none; stroke: #ff0000; stroke-opacity: 0.2; stroke-width: 0.25; stroke-linecap: square"/>
   </g>
   <g id="line2d_62">
    <path d="M 317.191346 180.383622 
L 318.799233 180.383687 
L 320.408686 180.383751 
L 322.019645 180.3838 
L 323.632047 180.383838 
L 325.245826 180.383866 
L 326.860915 180.383885 
L 328.477248 180.383898 
L 330.094754 180.383905 
L 331.713366 180.383908 
L 333.333015 180.383907 
L 334.953633 180.383904 
L 336.575153 180.383899 
L 338.197508 180.383894 
L 339.820634 180.383887 
L 341.444468 180.38388 
L 343.068948 180.383873 
L 344.694014 180.383866 
L 346.319608 180.38386 
L 347.945675 180.383854 
L 349.572162 180.383848 
L 351.199017 180.383843 
L 352.826192 180.383839 
L 354.453641 180.383835 
L 356.08132 180.383831 
L 357.709187 180.383828 
L 359.337203 180.383825 
L 360.965334 180.383823 
L 362.593544 180.38382 
L 364.221804 180.383818 
L 365.850084 180.383815 
" clip-path="url(#p3c723111c5)" style="fill: none; stroke: #ff0000; stroke-opacity: 0.4; stroke-width: 0.25; stroke-linecap: square"/>
   </g>
   <g id="line2d_63">
    <path d="M 317.191346 180.383622 
L 318.799233 180.383684 
L 320.408692 180.383748 
L 322.019662 180.383797 
L 323.632082 180.383835 
L 325.245885 180.383863 
L 326.861005 180.383883 
L 328.477374 180.383896 
L 330.094924 180.383903 
L 331.713587 180.383906 
L 333.333295 180.383906 
L 334.953979 180.383903 
L 336.575572 180.383899 
L 338.198008 180.383893 
L 339.821224 180.383886 
L 341.445155 180.383879 
L 343.069741 180.383872 
L 344.694922 180.383866 
L 346.320639 180.383859 
L 347.946838 180.383853 
L 349.573466 180.383848 
L 351.20047 180.383843 
L 352.827804 180.383839 
L 354.455419 180.383835 
L 356.083273 180.383831 
L 357.711324 180.383828 
L 359.339533 180.383826 
L 360.967864 180.383823 
L 362.596283 180.383821 
L 364.22476 180.383819 
L 365.853264 180.383817 
" clip-path="url(#p3c723111c5)" style="fill: none; stroke: #ff0000; stroke-opacity: 0.6; stroke-width: 0.25; stroke-linecap: square"/>
   </g>
   <g id="line2d_64">
    <path d="M 317.191346 180.383622 
L 318.799233 180.383682 
L 320.408688 180.383746 
L 322.019651 180.383796 
L 323.632059 180.383834 
L 325.245847 180.383862 
L 326.860948 180.383882 
L 328.477295 180.383895 
L 330.094818 180.383903 
L 331.71345 180.383906 
L 333.333122 180.383906 
L 334.953766 180.383903 
L 336.575316 180.383899 
L 338.197704 180.383893 
L 339.820867 180.383886 
L 341.444742 180.38388 
L 343.069266 180.383873 
L 344.69438 180.383866 
L 346.320027 180.38386 
L 347.946152 180.383854 
L 349.5727 180.383848 
L 351.199621 180.383843 
L 352.826866 180.383839 
L 354.454389 180.383835 
L 356.082147 180.383831 
L 357.710097 180.383828 
L 359.338202 180.383825 
L 360.966425 180.383823 
L 362.594732 180.383821 
L 364.223093 180.383818 
L 365.851478 180.383816 
" clip-path="url(#p3c723111c5)" style="fill: none; stroke: #ff0000; stroke-opacity: 0.8; stroke-width: 0.25; stroke-linecap: square"/>
   </g>
   <g id="line2d_65">
    <path d="M 317.191346 180.383622 
L 318.799233 180.383681 
L 320.40869 180.383745 
L 322.019658 180.383795 
L 323.632073 180.383833 
L 325.24587 180.383862 
L 326.860983 180.383882 
L 328.477343 180.383895 
L 330.094883 180.383903 
L 331.713533 180.383906 
L 333.333226 180.383906 
L 334.953894 180.383903 
L 336.575469 180.383898 
L 338.197886 180.383893 
L 339.821079 180.383886 
L 341.444987 180.383879 
L 343.069547 180.383873 
L 344.694699 180.383866 
L 346.320386 180.383859 
L 347.946553 180.383854 
L 349.573146 180.383848 
L 351.200114 180.383843 
L 352.827408 180.383839 
L 354.454983 180.383835 
L 356.082793 180.383831 
L 357.710799 180.383828 
L 359.338961 180.383826 
L 360.967243 180.383823 
L 362.595611 180.383821 
L 364.224033 180.383819 
L 365.852483 180.383816 
" clip-path="url(#p3c723111c5)" style="fill: none; stroke: #ff0000; stroke-width: 0.25; stroke-linecap: square"/>
   </g>
   <g id="line2d_66">
    <path d="M 241.988867 121.96828 
L 241.989907 120.565576 
L 241.990648 119.168676 
L 241.991889 117.777195 
L 241.993477 116.390757 
L 241.995284 115.008999 
L 241.99721 113.631571 
L 241.999174 112.258139 
L 242.001113 110.88838 
L 242.002982 109.52199 
L 242.004746 108.158675 
L 242.006383 106.798161 
L 242.00788 105.440188 
L 242.00923 104.084508 
L 242.010432 102.730892 
L 242.01149 101.379124 
L 242.012409 100.029003 
L 242.013198 98.680342 
L 242.013868 97.332967 
L 242.01443 95.986717 
L 242.014894 94.641446 
L 242.015273 93.297018 
L 242.015578 91.95331 
L 242.01582 90.610207 
L 242.01601 89.267609 
L 242.016156 87.925423 
L 242.01627 86.583564 
L 242.016358 85.241959 
L 242.016431 83.900539 
L 242.016494 82.559244 
L 242.016572 81.218021 
" clip-path="url(#p3c723111c5)" style="fill: none; stroke: #ff0000; stroke-opacity: 0.2; stroke-width: 0.25; stroke-linecap: square"/>
   </g>
   <g id="line2d_67">
    <path d="M 241.988867 121.96828 
L 241.99043 120.565576 
L 241.991139 119.168684 
L 241.992333 117.777216 
L 241.993862 116.390797 
L 241.995605 115.009061 
L 241.997464 113.631659 
L 241.999361 112.258254 
L 242.001237 110.888522 
L 242.003046 109.522157 
L 242.004757 108.158865 
L 242.006348 106.79837 
L 242.007807 105.440409 
L 242.009126 104.084736 
L 242.010304 102.731118 
L 242.011346 101.379339 
L 242.012255 100.029195 
L 242.013041 98.680497 
L 242.013714 97.333071 
L 242.014283 95.986756 
L 242.014759 94.641401 
L 242.015154 93.296871 
L 242.015479 91.953039 
L 242.015744 90.609793 
L 242.01596 89.267027 
L 242.016138 87.924649 
L 242.016286 86.582572 
L 242.016414 85.240722 
L 242.01653 83.899028 
L 242.016641 82.557429 
L 242.016749 81.21587 
" clip-path="url(#p3c723111c5)" style="fill: none; stroke: #ff0000; stroke-opacity: 0.4; stroke-width: 0.25; stroke-linecap: square"/>
   </g>
   <g id="line2d_68">
    <path d="M 241.988867 121.96828 
L 241.990703 120.565577 
L 241.991391 119.168682 
L 241.99256 117.77721 
L 241.994063 116.390784 
L 241.995781 115.009041 
L 241.997616 113.631631 
L 241.999493 112.258217 
L 242.001351 110.888478 
L 242.003146 109.522106 
L 242.004846 108.158809 
L 242.00643 106.798311 
L 242.007882 105.440351 
L 242.009197 104.084681 
L 242.010372 102.731071 
L 242.011411 101.379304 
L 242.012318 100.029178 
L 242.013101 98.680505 
L 242.013769 97.33311 
L 242.014333 95.986833 
L 242.014803 94.641525 
L 242.01519 93.29705 
L 242.015506 91.953284 
L 242.01576 90.610112 
L 242.015965 89.267432 
L 242.016128 87.92515 
L 242.01626 86.583183 
L 242.01637 85.241453 
L 242.016466 83.899893 
L 242.016555 82.558441 
L 242.016649 81.217043 
" clip-path="url(#p3c723111c5)" style="fill: none; stroke: #ff0000; stroke-opacity: 0.6; stroke-width: 0.25; stroke-linecap: square"/>
   </g>
   <g id="line2d_69">
    <path d="M 241.988867 121.96828 
L 241.990843 120.565577 
L 241.991515 119.168683 
L 241.992666 117.777212 
L 241.994152 116.390788 
L 241.995854 115.009046 
L 241.997675 113.631638 
L 241.999538 112.258226 
L 242.001385 110.888487 
L 242.00317 109.522115 
L 242.004862 108.158818 
L 242.006438 106.798318 
L 242.007884 105.440354 
L 242.009194 104.084679 
L 242.010365 102.731062 
L 242.011399 101.379285 
L 242.012303 100.029146 
L 242.013084 98.680458 
L 242.013751 97.333044 
L 242.014315 95.986745 
L 242.014786 94.641411 
L 242.015175 93.296905 
L 242.015494 91.953104 
L 242.015753 90.609893 
L 242.015962 89.267169 
L 242.016132 87.924838 
L 242.016272 86.582815 
L 242.016391 85.241025 
L 242.016496 83.899399 
L 242.016596 82.557875 
L 242.016697 81.216399 
" clip-path="url(#p3c723111c5)" style="fill: none; stroke: #ff0000; stroke-opacity: 0.8; stroke-width: 0.25; stroke-linecap: square"/>
   </g>
   <g id="line2d_70">
    <path d="M 241.988867 121.96828 
L 241.990916 120.565577 
L 241.991578 119.168683 
L 241.992721 117.777212 
L 241.994199 116.390787 
L 241.995894 115.009046 
L 241.997708 113.631638 
L 241.999567 112.258226 
L 242.001409 110.888489 
L 242.003191 109.522118 
L 242.00488 108.158823 
L 242.006453 106.798326 
L 242.007897 105.440366 
L 242.009205 104.084695 
L 242.010375 102.731083 
L 242.011408 101.379313 
L 242.012311 100.029183 
L 242.013091 98.680504 
L 242.013757 97.333101 
L 242.01432 95.986815 
L 242.014789 94.641496 
L 242.015177 93.297007 
L 242.015494 91.953224 
L 242.015751 90.610034 
L 242.015958 89.267333 
L 242.016125 87.925028 
L 242.016261 86.583033 
L 242.016375 85.241273 
L 242.016476 83.89968 
L 242.016572 82.558192 
L 242.016669 81.216755 
" clip-path="url(#p3c723111c5)" style="fill: none; stroke: #ff0000; stroke-width: 0.25; stroke-linecap: square"/>
   </g>
   <g id="line2d_71">
    <path d="M 282.018961 180.290941 
L 283.498988 180.311642 
L 284.981296 180.330443 
L 286.465791 180.3462 
L 287.952358 180.359217 
L 289.440885 180.369801 
L 290.93126 180.378248 
L 292.423372 180.384841 
L 293.917113 180.389846 
L 295.412378 180.393508 
L 296.909064 180.396048 
L 298.407069 180.397666 
L 299.906297 180.398539 
L 301.406652 180.398819 
L 302.908043 180.398642 
L 304.410382 180.398119 
L 305.913583 180.397347 
L 307.417566 180.396403 
L 308.922251 180.395353 
L 310.427565 180.394246 
L 311.933438 180.393122 
L 313.4398 180.39201 
L 314.94659 180.390931 
L 316.453748 180.389897 
L 317.961216 180.388915 
L 319.468943 180.387987 
L 320.976879 180.38711 
L 322.484978 180.386278 
L 323.993198 180.385483 
L 325.501501 180.384714 
L 327.00985 180.383953 
" clip-path="url(#p3c723111c5)" style="fill: none; stroke: #ff0000; stroke-opacity: 0.2; stroke-width: 0.25; stroke-linecap: square"/>
   </g>
   <g id="line2d_72">
    <path d="M 282.018961 180.290941 
L 283.498999 180.310862 
L 284.981298 180.329718 
L 286.465776 180.345554 
L 287.952317 180.358668 
L 289.440808 180.369358 
L 290.931137 180.377914 
L 292.423191 180.384615 
L 293.916863 180.389722 
L 295.412047 180.393477 
L 296.908637 180.396098 
L 298.406533 180.397783 
L 299.905636 180.398709 
L 301.405852 180.399028 
L 302.907086 180.398876 
L 304.409252 180.398365 
L 305.912262 180.397592 
L 307.416034 180.396636 
L 308.920491 180.395564 
L 310.425558 180.394426 
L 311.931162 180.393262 
L 313.437236 180.392104 
L 314.943717 180.39097 
L 316.450545 180.389875 
L 317.957662 180.388826 
L 319.465016 180.387823 
L 320.972558 180.386864 
L 322.480242 180.385942 
L 323.988026 180.385049 
L 325.495871 180.384174 
L 327.003742 180.383308 
" clip-path="url(#p3c723111c5)" style="fill: none; stroke: #ff0000; stroke-opacity: 0.4; stroke-width: 0.25; stroke-linecap: square"/>
   </g>
   <g id="line2d_73">
    <path d="M 282.018961 180.290941 
L 283.499005 180.310446 
L 284.981309 180.329337 
L 286.465798 180.345214 
L 287.952356 180.358369 
L 289.440871 180.369097 
L 290.93123 180.377687 
L 292.423322 180.384417 
L 293.917038 180.389546 
L 295.412274 180.393317 
L 296.908924 180.39595 
L 298.406887 180.397643 
L 299.906067 180.398574 
L 301.406367 180.398897 
L 302.907695 180.398749 
L 304.409962 180.398243 
L 305.913084 180.397477 
L 307.416978 180.396532 
L 308.921566 180.395473 
L 310.426773 180.394353 
L 311.932528 180.393211 
L 313.438763 180.392077 
L 314.945415 180.390973 
L 316.452423 180.389911 
L 317.959731 180.388899 
L 319.467287 180.387938 
L 320.975039 180.387025 
L 322.482944 180.386153 
L 323.990959 180.385315 
L 325.499044 180.384498 
L 327.007164 180.38369 
" clip-path="url(#p3c723111c5)" style="fill: none; stroke: #ff0000; stroke-opacity: 0.6; stroke-width: 0.25; stroke-linecap: square"/>
   </g>
   <g id="line2d_74">
    <path d="M 282.018961 180.290941 
L 283.499007 180.310232 
L 284.981308 180.329153 
L 286.465789 180.345059 
L 287.952335 180.358243 
L 289.440834 180.368997 
L 290.931173 180.377611 
L 292.423242 180.384361 
L 293.91693 180.389508 
L 295.412133 180.393293 
L 296.908747 180.395939 
L 298.406669 180.397643 
L 299.905803 180.398583 
L 301.406052 180.398915 
L 302.907325 180.398772 
L 304.409532 180.398271 
L 305.912589 180.397507 
L 307.416413 180.396562 
L 308.920926 180.395501 
L 310.426052 180.394376 
L 311.931722 180.393226 
L 313.437867 180.392081 
L 314.944424 180.390964 
L 316.451333 180.389885 
L 317.958536 180.388853 
L 319.465982 180.387869 
L 320.97362 180.386931 
L 322.481406 180.386031 
L 323.989297 180.385162 
L 325.497255 180.384313 
L 327.005243 180.383472 
" clip-path="url(#p3c723111c5)" style="fill: none; stroke: #ff0000; stroke-opacity: 0.8; stroke-width: 0.25; stroke-linecap: square"/>
   </g>
   <g id="line2d_75">
    <path d="M 282.018961 180.290941 
L 283.499009 180.310118 
L 284.981311 180.329055 
L 286.465797 180.344976 
L 287.952351 180.358173 
L 289.440859 180.368938 
L 290.93121 180.37756 
L 292.423292 180.384317 
L 293.916998 180.389469 
L 295.41222 180.393259 
L 296.908856 180.395908 
L 298.406803 180.397615 
L 299.905964 180.398558 
L 301.406242 180.398892 
L 302.907547 180.398751 
L 304.40979 180.398252 
L 305.912884 180.397491 
L 307.416748 180.396549 
L 308.921304 180.395491 
L 310.426476 180.39437 
L 311.932194 180.393225 
L 313.43839 180.392088 
L 314.944999 180.390978 
L 316.451963 180.389909 
L 317.959224 180.388888 
L 319.46673 180.387917 
L 320.974431 180.386992 
L 322.482281 180.386108 
L 323.990238 180.385256 
L 325.498264 180.384424 
L 327.006323 180.383602 
" clip-path="url(#p3c723111c5)" style="fill: none; stroke: #ff0000; stroke-width: 0.25; stroke-linecap: square"/>
   </g>
   <g id="line2d_76">
    <path d="M 230.305314 244.177546 
L 230.305015 246.039703 
L 230.30475 247.902251 
L 230.304536 249.765298 
L 230.304368 251.628934 
L 230.304239 253.493231 
L 230.304143 255.358251 
L 230.304076 257.224038 
L 230.304031 259.090628 
L 230.304004 260.958041 
L 230.303991 262.82629 
L 230.303989 264.695374 
L 230.303995 266.565288 
L 230.304006 268.436016 
L 230.30402 270.307535 
L 230.304036 272.179816 
L 230.304054 274.052825 
L 230.304071 275.926522 
L 230.304087 277.800863 
L 230.304102 279.675803 
L 230.304116 281.55129 
L 230.304129 283.427273 
L 230.30414 285.303699 
L 230.304149 287.180512 
L 230.304157 289.05766 
L 230.304164 290.935087 
L 230.30417 292.812739 
L 230.304176 294.690566 
L 230.30418 296.568517 
L 230.304185 298.446545 
L 230.304189 300.324606 
" clip-path="url(#p3c723111c5)" style="fill: none; stroke: #ff0000; stroke-opacity: 0.2; stroke-width: 0.25; stroke-linecap: square"/>
   </g>
   <g id="line2d_77">
    <path d="M 230.305314 244.177546 
L 230.305022 246.039703 
L 230.304757 247.902273 
L 230.304543 249.765363 
L 230.304374 251.629063 
L 230.304245 253.493448 
L 230.304148 255.358577 
L 230.30408 257.224497 
L 230.304034 259.091241 
L 230.304007 260.958832 
L 230.303993 262.82728 
L 230.303991 264.696588 
L 230.303996 266.566748 
L 230.304007 268.437745 
L 230.304021 270.309557 
L 230.304038 272.182154 
L 230.304055 274.055501 
L 230.304072 275.929559 
L 230.304088 277.804285 
L 230.304103 279.67963 
L 230.304117 281.555545 
L 230.304129 283.431977 
L 230.30414 285.308871 
L 230.304149 287.186174 
L 230.304157 289.063829 
L 230.304164 290.941782 
L 230.30417 292.819979 
L 230.304174 294.698365 
L 230.304179 296.576891 
L 230.304183 298.455508 
L 230.304186 300.33417 
" clip-path="url(#p3c723111c5)" style="fill: none; stroke: #ff0000; stroke-opacity: 0.4; stroke-width: 0.25; stroke-linecap: square"/>
   </g>
   <g id="line2d_78">
    <path d="M 230.305314 244.177546 
L 230.305028 246.039703 
L 230.304763 247.90226 
L 230.304548 249.765324 
L 230.304379 251.628985 
L 230.304248 253.493318 
L 230.304151 255.358382 
L 230.304082 257.224223 
L 230.304036 259.090876 
L 230.304008 260.958362 
L 230.303994 262.826692 
L 230.303991 264.69587 
L 230.303996 266.565886 
L 230.304007 268.436727 
L 230.304021 270.308369 
L 230.304037 272.180784 
L 230.304054 274.053937 
L 230.304071 275.927789 
L 230.304088 277.802296 
L 230.304103 279.677411 
L 230.304117 281.553085 
L 230.304129 283.429264 
L 230.30414 285.305897 
L 230.304149 287.182927 
L 230.304157 289.060301 
L 230.304164 290.937963 
L 230.30417 292.81586 
L 230.304175 294.69394 
L 230.30418 296.572152 
L 230.304184 298.450448 
L 230.304188 300.328784 
" clip-path="url(#p3c723111c5)" style="fill: none; stroke: #ff0000; stroke-opacity: 0.6; stroke-width: 0.25; stroke-linecap: square"/>
   </g>
   <g id="line2d_79">
    <path d="M 230.305314 244.177546 
L 230.305033 246.039703 
L 230.304767 247.902268 
L 230.304552 249.765347 
L 230.304382 251.629031 
L 230.304251 253.493395 
L 230.304153 255.358497 
L 230.304084 257.224384 
L 230.304037 259.09109 
L 230.304009 260.958638 
L 230.303995 262.827037 
L 230.303992 264.69629 
L 230.303997 266.56639 
L 230.304007 268.437321 
L 230.304021 270.30906 
L 230.304037 272.18158 
L 230.304054 274.054844 
L 230.304071 275.928814 
L 230.304088 277.803445 
L 230.304103 279.67869 
L 230.304117 281.5545 
L 230.304129 283.430822 
L 230.30414 285.307601 
L 230.304149 287.184784 
L 230.304157 289.062314 
L 230.304164 290.940138 
L 230.30417 292.8182 
L 230.304175 294.696449 
L 230.304179 296.574834 
L 230.304183 298.453306 
L 230.304187 300.33182 
" clip-path="url(#p3c723111c5)" style="fill: none; stroke: #ff0000; stroke-opacity: 0.8; stroke-width: 0.25; stroke-linecap: square"/>
   </g>
   <g id="line2d_80">
    <path d="M 230.305314 244.177546 
L 230.305036 246.039703 
L 230.30477 247.902263 
L 230.304554 249.765334 
L 230.304384 251.629004 
L 230.304253 253.49335 
L 230.304155 255.35843 
L 230.304085 257.22429 
L 230.304038 259.090965 
L 230.304009 260.958477 
L 230.303995 262.826837 
L 230.303992 264.696046 
L 230.303997 266.566098 
L 230.304007 268.436977 
L 230.304021 270.308661 
L 230.304037 272.18112 
L 230.304054 274.054321 
L 230.304071 275.928224 
L 230.304088 277.802784 
L 230.304103 279.677956 
L 230.304117 281.553689 
L 230.304129 283.42993 
L 230.30414 285.306627 
L 230.304149 287.183725 
L 230.304157 289.061167 
L 230.304164 290.938901 
L 230.30417 292.816872 
L 230.304175 294.695027 
L 230.304179 296.573316 
L 230.304184 298.451692 
L 230.304188 300.330108 
" clip-path="url(#p3c723111c5)" style="fill: none; stroke: #ff0000; stroke-width: 0.25; stroke-linecap: square"/>
   </g>
   <g id="line2d_81">
    <path d="M 190.306585 168.76921 
L 188.826753 168.74752 
L 187.344589 168.727814 
L 185.860187 168.711307 
L 184.373668 168.697677 
L 182.88515 168.686604 
L 181.394747 168.677772 
L 179.902575 168.670885 
L 178.408744 168.665663 
L 176.913364 168.661848 
L 175.41654 168.659208 
L 173.918376 168.657534 
L 172.418971 168.656639 
L 170.918423 168.656362 
L 169.416825 168.656565 
L 167.914268 168.657127 
L 166.410837 168.657949 
L 164.906616 168.658949 
L 163.401684 168.660059 
L 161.896116 168.661227 
L 160.389985 168.662412 
L 158.883359 168.663583 
L 157.376302 168.664719 
L 155.868875 168.665806 
L 154.361134 168.666838 
L 152.853132 168.667813 
L 151.34492 168.668734 
L 149.836544 168.669607 
L 148.328046 168.670441 
L 146.819465 168.671249 
L 145.310837 168.672047 
" clip-path="url(#p3c723111c5)" style="fill: none; stroke: #ff0000; stroke-opacity: 0.2; stroke-width: 0.25; stroke-linecap: square"/>
   </g>
   <g id="line2d_82">
    <path d="M 190.306585 168.76921 
L 188.826742 168.748348 
L 187.344585 168.728582 
L 185.8602 168.711991 
L 184.373707 168.698259 
L 182.885224 168.687073 
L 181.394867 168.678125 
L 179.90275 168.671124 
L 178.408987 168.665793 
L 176.913687 168.66188 
L 175.416957 168.659155 
L 173.9189 168.657408 
L 172.419617 168.656457 
L 170.919207 168.656139 
L 169.417763 168.656315 
L 167.915376 168.656865 
L 166.412134 168.657688 
L 164.908119 168.6587 
L 163.403413 168.659834 
L 161.898091 168.661035 
L 160.392225 168.662262 
L 158.885884 168.663482 
L 157.379132 168.664675 
L 155.872032 168.665827 
L 154.364639 168.66693 
L 152.857007 168.667984 
L 151.349185 168.668992 
L 149.841221 168.669959 
L 148.333156 168.670897 
L 146.82503 168.671816 
L 145.316877 168.672726 
" clip-path="url(#p3c723111c5)" style="fill: none; stroke: #ff0000; stroke-opacity: 0.4; stroke-width: 0.25; stroke-linecap: square"/>
   </g>
   <g id="line2d_83">
    <path d="M 190.306585 168.76921 
L 188.826735 168.748788 
L 187.344574 168.728986 
L 185.860178 168.712352 
L 184.373668 168.698577 
L 182.885162 168.68735 
L 181.394775 168.678366 
L 179.902622 168.671334 
L 178.408816 168.66598 
L 176.913464 168.66205 
L 175.416675 168.659312 
L 173.918552 168.657558 
L 172.419194 168.656601 
L 170.918701 168.656279 
L 169.417165 168.656451 
L 167.914677 168.656995 
L 166.411324 168.65781 
L 164.90719 168.658812 
L 163.402355 168.659931 
L 161.896893 168.661114 
L 160.390879 168.662318 
L 158.884379 168.663512 
L 157.377458 168.664673 
L 155.870179 168.66579 
L 154.362597 168.666854 
L 152.854766 168.667864 
L 151.346735 168.668823 
L 149.838552 168.669738 
L 148.330258 168.670618 
L 146.821894 168.671476 
L 145.313494 168.672324 
" clip-path="url(#p3c723111c5)" style="fill: none; stroke: #ff0000; stroke-opacity: 0.6; stroke-width: 0.25; stroke-linecap: square"/>
   </g>
   <g id="line2d_84">
    <path d="M 190.306585 168.76921 
L 188.826732 168.749015 
L 187.344575 168.729181 
L 185.860187 168.712515 
L 184.373689 168.69871 
L 182.885197 168.687455 
L 181.39483 168.678446 
L 179.902701 168.671393 
L 178.408922 168.666021 
L 176.913602 168.662075 
L 175.416849 168.659323 
L 173.918766 168.657557 
L 172.419454 168.656591 
L 170.91901 168.656261 
L 169.417529 168.656426 
L 167.9151 168.656965 
L 166.411812 168.657778 
L 164.907747 168.658779 
L 163.402986 168.659901 
L 161.897604 168.661089 
L 160.391673 168.662301 
L 158.885262 168.663506 
L 157.378436 168.664683 
L 155.871255 168.665817 
L 154.363777 168.666902 
L 152.856054 168.667935 
L 151.348137 168.668921 
L 149.840071 168.669866 
L 148.3319 168.670779 
L 146.823662 168.67167 
L 145.315393 168.672553 
" clip-path="url(#p3c723111c5)" style="fill: none; stroke: #ff0000; stroke-opacity: 0.8; stroke-width: 0.25; stroke-linecap: square"/>
   </g>
   <g id="line2d_85">
    <path d="M 190.306585 168.76921 
L 188.826731 168.749136 
L 187.344571 168.729285 
L 185.860179 168.712603 
L 184.373674 168.698784 
L 182.885173 168.687518 
L 181.394794 168.6785 
L 179.902651 168.67144 
L 178.408855 168.666061 
L 176.913516 168.662111 
L 175.416742 168.659356 
L 173.918635 168.657587 
L 172.419296 168.656618 
L 170.918823 168.656285 
L 169.417309 168.656448 
L 167.914846 168.656985 
L 166.411521 168.657796 
L 164.907416 168.658794 
L 163.402613 168.659912 
L 161.897186 168.661095 
L 160.391207 168.662302 
L 158.884747 168.6635 
L 157.377868 168.664668 
L 155.870633 168.665792 
L 154.363097 168.666866 
L 152.855315 168.667886 
L 151.347337 168.668857 
L 149.839207 168.669786 
L 148.33097 168.67068 
L 146.822664 168.671553 
L 145.314325 168.672417 
" clip-path="url(#p3c723111c5)" style="fill: none; stroke: #ff0000; stroke-width: 0.25; stroke-linecap: square"/>
   </g>
   <g id="line2d_86">
    <path d="M 230.437256 219.640029 
L 230.404926 221.199595 
L 230.375817 222.756982 
L 230.351731 224.312187 
L 230.332133 225.865179 
L 230.316492 227.415949 
L 230.304293 228.964506 
L 230.295047 230.510877 
L 230.288301 232.055105 
L 230.283638 233.597243 
L 230.280684 235.137357 
L 230.279107 236.675524 
L 230.278616 238.211825 
L 230.278959 239.746353 
L 230.279922 241.279202 
L 230.281328 242.810472 
L 230.283028 244.340266 
L 230.284902 245.868691 
L 230.286858 247.395854 
L 230.288823 248.921861 
L 230.290744 250.446822 
L 230.292584 251.970843 
L 230.294321 253.494032 
L 230.295941 255.016491 
L 230.297444 256.538323 
L 230.298835 258.059627 
L 230.300124 259.580497 
L 230.301327 261.101026 
L 230.302464 262.621299 
L 230.303555 264.141398 
L 230.304643 265.6614 
" clip-path="url(#p3c723111c5)" style="fill: none; stroke: #ff0000; stroke-opacity: 0.2; stroke-width: 0.25; stroke-linecap: square"/>
   </g>
   <g id="line2d_87">
    <path d="M 230.437256 219.640029 
L 230.406355 221.199624 
L 230.377181 222.757047 
L 230.352977 224.312326 
L 230.333223 225.865432 
L 230.317402 227.416357 
L 230.30501 228.965113 
L 230.29557 230.511727 
L 230.288635 232.056243 
L 230.283797 233.598717 
L 230.280687 235.139216 
L 230.278975 236.677816 
L 230.278373 238.214603 
L 230.278631 239.749667 
L 230.279535 241.283105 
L 230.280905 242.815018 
L 230.282592 244.34551 
L 230.284475 245.874686 
L 230.286457 247.402654 
L 230.288466 248.929522 
L 230.290446 250.455399 
L 230.292359 251.980392 
L 230.29418 253.504607 
L 230.295898 255.028146 
L 230.297509 256.551112 
L 230.29902 258.073602 
L 230.300441 259.59571 
L 230.301789 261.117525 
L 230.303084 262.639133 
L 230.304348 264.160612 
L 230.305597 265.682036 
" clip-path="url(#p3c723111c5)" style="fill: none; stroke: #ff0000; stroke-opacity: 0.4; stroke-width: 0.25; stroke-linecap: square"/>
   </g>
   <g id="line2d_88">
    <path d="M 230.437256 219.640029 
L 230.407191 221.19964 
L 230.377959 222.757038 
L 230.35368 224.312267 
L 230.333843 225.865297 
L 230.317939 227.416122 
L 230.305468 228.964751 
L 230.295958 230.511213 
L 230.288963 232.05555 
L 230.284076 233.597817 
L 230.280927 235.138082 
L 230.279187 236.676421 
L 230.278564 238.212917 
L 230.278807 239.747663 
L 230.279698 241.280754 
L 230.281057 242.812291 
L 230.282733 244.342379 
L 230.284601 245.871122 
L 230.286567 247.39863 
L 230.288553 248.925011 
L 230.290506 250.450373 
L 230.292387 251.974823 
L 230.29417 253.498469 
L 230.295843 255.021413 
L 230.297405 256.543759 
L 230.298859 258.065604 
L 230.300218 259.587044 
L 230.301498 261.108168 
L 230.302718 262.629064 
L 230.3039 264.14981 
L 230.30507 265.670484 
" clip-path="url(#p3c723111c5)" style="fill: none; stroke: #ff0000; stroke-opacity: 0.6; stroke-width: 0.25; stroke-linecap: square"/>
   </g>
   <g id="line2d_89">
    <path d="M 230.437256 219.640029 
L 230.407673 221.199649 
L 230.378387 222.757061 
L 230.354048 224.312319 
L 230.334152 225.865394 
L 230.31819 227.416279 
L 230.305667 228.964984 
L 230.29611 230.511537 
L 230.289076 232.055981 
L 230.284156 233.598371 
L 230.28098 235.138775 
L 230.279217 236.677267 
L 230.278576 238.213934 
L 230.278804 239.748866 
L 230.279685 241.282159 
L 230.281036 242.813913 
L 230.282706 244.344232 
L 230.284573 245.873223 
L 230.286539 247.400992 
L 230.288531 248.927648 
L 230.290493 250.453299 
L 230.292386 251.978052 
L 230.294186 253.502013 
L 230.29588 255.025286 
L 230.297466 256.547973 
L 230.298948 258.07017 
L 230.300339 259.591972 
L 230.301654 261.11347 
L 230.302913 262.634749 
L 230.304137 264.155888 
L 230.305348 265.676961 
" clip-path="url(#p3c723111c5)" style="fill: none; stroke: #ff0000; stroke-opacity: 0.8; stroke-width: 0.25; stroke-linecap: square"/>
   </g>
   <g id="line2d_90">
    <path d="M 230.437256 219.640029 
L 230.407954 221.199655 
L 230.378633 222.757057 
L 230.354259 224.312296 
L 230.334328 225.865344 
L 230.318337 227.416192 
L 230.305788 228.964851 
L 230.296209 230.511349 
L 230.289157 232.05573 
L 230.284222 233.598047 
L 230.281033 235.138369 
L 230.27926 236.676772 
L 230.278611 238.213339 
L 230.278831 239.748163 
L 230.279705 241.281339 
L 230.28105 242.812968 
L 230.282714 244.343154 
L 230.284576 245.872004 
L 230.286537 247.399624 
L 230.288522 248.926125 
L 230.290477 250.451613 
L 230.292362 251.976196 
L 230.294153 253.499981 
L 230.295837 255.023071 
L 230.297411 256.545569 
L 230.29888 258.067573 
L 230.300256 259.589176 
L 230.301554 261.11047 
L 230.302794 262.63154 
L 230.303998 264.152467 
L 230.30519 265.673324 
" clip-path="url(#p3c723111c5)" style="fill: none; stroke: #ff0000; stroke-width: 0.25; stroke-linecap: square"/>
   </g>
   <g id="patch_15">
    <path d="M 103.104 307.584 
L 103.104 41.472 
" style="fill: none; stroke: #000000; stroke-width: 0.8; stroke-linejoin: miter; stroke-linecap: square"/>
   </g>
   <g id="patch_16">
    <path d="M 369.216 307.584 
L 369.216 41.472 
" style="fill: none; stroke: #000000; stroke-width: 0.8; stroke-linejoin: miter; stroke-linecap: square"/>
   </g>
   <g id="patch_17">
    <path d="M 103.104 307.584 
L 369.216 307.584 
" style="fill: none; stroke: #000000; stroke-width: 0.8; stroke-linejoin: miter; stroke-linecap: square"/>
   </g>
   <g id="patch_18">
    <path d="M 103.104 41.472 
L 369.216 41.472 
" style="fill: none; stroke: #000000; stroke-width: 0.8; stroke-linejoin: miter; stroke-linecap: square"/>
   </g>
   <g id="text_19">
    <!-- Time: 106 ms -->
    <g transform="translate(261.069512 54.7776) scale(0.1 -0.1)">
     <defs>
      <path id="DejaVuSans-54" d="M -19 4666 
L 3928 4666 
L 3928 4134 
L 2272 4134 
L 2272 0 
L 1638 0 
L 1638 4134 
L -19 4134 
L -19 4666 
z
" transform="scale(0.015625)"/>
      <path id="DejaVuSans-69" d="M 603 3500 
L 1178 3500 
L 1178 0 
L 603 0 
L 603 3500 
z
M 603 4863 
L 1178 4863 
L 1178 4134 
L 603 4134 
L 603 4863 
z
" transform="scale(0.015625)"/>
      <path id="DejaVuSans-6d" d="M 3328 2828 
Q 3544 3216 3844 3400 
Q 4144 3584 4550 3584 
Q 5097 3584 5394 3201 
Q 5691 2819 5691 2113 
L 5691 0 
L 5113 0 
L 5113 2094 
Q 5113 2597 4934 2840 
Q 4756 3084 4391 3084 
Q 3944 3084 3684 2787 
Q 3425 2491 3425 1978 
L 3425 0 
L 2847 0 
L 2847 2094 
Q 2847 2600 2669 2842 
Q 2491 3084 2119 3084 
Q 1678 3084 1418 2786 
Q 1159 2488 1159 1978 
L 1159 0 
L 581 0 
L 581 3500 
L 1159 3500 
L 1159 2956 
Q 1356 3278 1631 3431 
Q 1906 3584 2284 3584 
Q 2666 3584 2933 3390 
Q 3200 3197 3328 2828 
z
" transform="scale(0.015625)"/>
      <path id="DejaVuSans-65" d="M 3597 1894 
L 3597 1613 
L 953 1613 
Q 991 1019 1311 708 
Q 1631 397 2203 397 
Q 2534 397 2845 478 
Q 3156 559 3463 722 
L 3463 178 
Q 3153 47 2828 -22 
Q 2503 -91 2169 -91 
Q 1331 -91 842 396 
Q 353 884 353 1716 
Q 353 2575 817 3079 
Q 1281 3584 2069 3584 
Q 2775 3584 3186 3129 
Q 3597 2675 3597 1894 
z
M 3022 2063 
Q 3016 2534 2758 2815 
Q 2500 3097 2075 3097 
Q 1594 3097 1305 2825 
Q 1016 2553 972 2059 
L 3022 2063 
z
" transform="scale(0.015625)"/>
      <path id="DejaVuSans-3a" d="M 750 794 
L 1409 794 
L 1409 0 
L 750 0 
L 750 794 
z
M 750 3309 
L 1409 3309 
L 1409 2516 
L 750 2516 
L 750 3309 
z
" transform="scale(0.015625)"/>
      <path id="DejaVuSans-20" transform="scale(0.015625)"/>
      <path id="DejaVuSans-36" d="M 2113 2584 
Q 1688 2584 1439 2293 
Q 1191 2003 1191 1497 
Q 1191 994 1439 701 
Q 1688 409 2113 409 
Q 2538 409 2786 701 
Q 3034 994 3034 1497 
Q 3034 2003 2786 2293 
Q 2538 2584 2113 2584 
z
M 3366 4563 
L 3366 3988 
Q 3128 4100 2886 4159 
Q 2644 4219 2406 4219 
Q 1781 4219 1451 3797 
Q 1122 3375 1075 2522 
Q 1259 2794 1537 2939 
Q 1816 3084 2150 3084 
Q 2853 3084 3261 2657 
Q 3669 2231 3669 1497 
Q 3669 778 3244 343 
Q 2819 -91 2113 -91 
Q 1303 -91 875 529 
Q 447 1150 447 2328 
Q 447 3434 972 4092 
Q 1497 4750 2381 4750 
Q 2619 4750 2861 4703 
Q 3103 4656 3366 4563 
z
" transform="scale(0.015625)"/>
      <path id="DejaVuSans-73" d="M 2834 3397 
L 2834 2853 
Q 2591 2978 2328 3040 
Q 2066 3103 1784 3103 
Q 1356 3103 1142 2972 
Q 928 2841 928 2578 
Q 928 2378 1081 2264 
Q 1234 2150 1697 2047 
L 1894 2003 
Q 2506 1872 2764 1633 
Q 3022 1394 3022 966 
Q 3022 478 2636 193 
Q 2250 -91 1575 -91 
Q 1294 -91 989 -36 
Q 684 19 347 128 
L 347 722 
Q 666 556 975 473 
Q 1284 391 1588 391 
Q 1994 391 2212 530 
Q 2431 669 2431 922 
Q 2431 1156 2273 1281 
Q 2116 1406 1581 1522 
L 1381 1569 
Q 847 1681 609 1914 
Q 372 2147 372 2553 
Q 372 3047 722 3315 
Q 1072 3584 1716 3584 
Q 2034 3584 2315 3537 
Q 2597 3491 2834 3397 
z
" transform="scale(0.015625)"/>
     </defs>
     <use xlink:href="#DejaVuSans-54"/>
     <use xlink:href="#DejaVuSans-69" x="57.958984"/>
     <use xlink:href="#DejaVuSans-6d" x="85.742188"/>
     <use xlink:href="#DejaVuSans-65" x="183.154297"/>
     <use xlink:href="#DejaVuSans-3a" x="244.677734"/>
     <use xlink:href="#DejaVuSans-20" x="278.369141"/>
     <use xlink:href="#DejaVuSans-31" x="310.15625"/>
     <use xlink:href="#DejaVuSans-30" x="373.779297"/>
     <use xlink:href="#DejaVuSans-36" x="437.402344"/>
     <use xlink:href="#DejaVuSans-20" x="501.025391"/>
     <use xlink:href="#DejaVuSans-6d" x="532.8125"/>
     <use xlink:href="#DejaVuSans-73" x="630.224609"/>
    </g>
   </g>
  </g>
 </g>
 <defs>
  <clipPath id="p3c723111c5">
   <rect x="103.104" y="41.472" width="266.112" height="266.112"/>
  </clipPath>
 </defs>
</svg>
