<?xml version="1.0" encoding="utf-8" standalone="no"?>
<!DOCTYPE svg PUBLIC "-//W3C//DTD SVG 1.1//EN"
  "http://www.w3.org/Graphics/SVG/1.1/DTD/svg11.dtd">
<svg xmlns:xlink="http://www.w3.org/1999/xlink" width="460.8pt" height="345.6pt" viewBox="0 0 460.8 345.6" xmlns="http://www.w3.org/2000/svg" version="1.1">
 <metadata>
  <rdf:RDF xmlns:dc="http://purl.org/dc/elements/1.1/" xmlns:cc="http://creativecommons.org/ns#" xmlns:rdf="http://www.w3.org/1999/02/22-rdf-syntax-ns#">
   <cc:Work>
    <dc:type rdf:resource="http://purl.org/dc/dcmitype/StillImage"/>
    <dc:date>2024-01-23T14:21:36.297061</dc:date>
    <dc:format>image/svg+xml</dc:format>
    <dc:creator>
     <cc:Agent>
      <dc:title>Matplotlib v3.8.2, https://matplotlib.org/</dc:title>
     </cc:Agent>
    </dc:creator>
   </cc:Work>
  </rdf:RDF>
 </metadata>
 <defs>
  <style type="text/css">*{stroke-linejoin: round; stroke-linecap: butt}</style>
 </defs>
 <g id="figure_1">
  <g id="patch_1">
   <path d="M 0 345.6 
L 460.8 345.6 
L 460.8 0 
L 0 0 
z
" style="fill: #ffffff"/>
  </g>
  <g id="axes_1">
   <g id="patch_2">
    <path d="M 103.104 307.584 
L 369.216 307.584 
L 369.216 41.472 
L 103.104 41.472 
z
" style="fill: #ffffff"/>
   </g>
   <g id="patch_3">
    <path d="M 138.260109 165.844761 
L 126.617709 165.844713 
L 126.617686 171.499593 
L 138.260086 171.499641 
z
" clip-path="url(#pce19d95047)" style="fill: #00008b"/>
   </g>
   <g id="patch_4">
    <path d="M 244.843328 69.868512 
L 244.843217 58.226112 
L 239.188337 58.226166 
L 239.188448 69.868566 
z
" clip-path="url(#pce19d95047)" style="fill: #800000"/>
   </g>
   <g id="patch_5">
    <path d="M 227.476729 274.480383 
L 227.476729 286.122783 
L 233.131609 286.122783 
L 233.131609 274.480383 
z
" clip-path="url(#pce19d95047)" style="fill: #006400"/>
   </g>
   <g id="patch_6">
    <path d="M 336.116301 183.211278 
L 347.758701 183.21127 
L 347.758697 177.55639 
L 336.116297 177.556398 
z
" clip-path="url(#pce19d95047)" style="fill: #4b0082"/>
   </g>
   <g id="patch_7">
    <path d="M 244.844345 114.390864 
L 244.843095 102.748464 
L 239.188215 102.749071 
L 239.189465 114.391471 
z
" clip-path="url(#pce19d95047)" style="fill: #0000ff"/>
   </g>
   <g id="patch_8">
    <path d="M 176.284406 165.845394 
L 164.642009 165.853795 
L 164.646089 171.508673 
L 176.288486 171.500272 
z
" clip-path="url(#pce19d95047)" style="fill: #ff0000"/>
   </g>
   <g id="patch_9">
    <path d="M 295.385526 183.207 
L 307.027925 183.210554 
L 307.029652 177.555674 
L 295.387252 177.55212 
z
" clip-path="url(#pce19d95047)" style="fill: #dbdc56"/>
   </g>
   <g id="patch_10">
    <path d="M 245.241876 142.05279 
L 244.554684 130.430689 
L 238.909663 130.764468 
L 239.596855 142.386569 
z
" clip-path="url(#pce19d95047)" style="fill: #9400d3"/>
   </g>
   <g id="patch_11">
    <path d="M 261.541747 182.624375 
L 273.184117 182.650854 
L 273.196978 176.995989 
L 261.554608 176.96951 
z
" clip-path="url(#pce19d95047)" style="fill: #1e90ff"/>
   </g>
   <g id="patch_12">
    <path d="M 227.477712 219.717019 
L 227.493318 231.359409 
L 233.148193 231.351829 
L 233.132587 219.709439 
z
" clip-path="url(#pce19d95047)" style="fill: #ff4500"/>
   </g>
   <g id="patch_13">
    <path d="M 210.782318 166.470923 
L 199.140017 166.423045 
L 199.116761 172.077877 
L 210.759063 172.125755 
z
" clip-path="url(#pce19d95047)" style="fill: #7cfc00"/>
   </g>
   <g id="patch_14">
    <path d="M 228.551658 198.073254 
L 228.229067 209.711184 
L 233.881776 209.867872 
L 234.204367 198.229942 
z
" clip-path="url(#pce19d95047)" style="fill: #ff00ff"/>
   </g>
   <g id="matplotlib.axis_1">
    <g id="xtick_1">
     <g id="line2d_1">
      <defs>
       <path id="m92a6360ecf" d="M 0 0 
L 0 3.5 
" style="stroke: #000000; stroke-width: 0.8"/>
      </defs>
      <g>
       <use xlink:href="#m92a6360ecf" x="103.104" y="307.584" style="stroke: #000000; stroke-width: 0.8"/>
      </g>
     </g>
     <g id="text_1">
      <!-- −40 -->
      <g transform="translate(92.551656 322.182437) scale(0.1 -0.1)">
       <defs>
        <path id="DejaVuSans-2212" d="M 678 2272 
L 4684 2272 
L 4684 1741 
L 678 1741 
L 678 2272 
z
" transform="scale(0.015625)"/>
        <path id="DejaVuSans-34" d="M 2419 4116 
L 825 1625 
L 2419 1625 
L 2419 4116 
z
M 2253 4666 
L 3047 4666 
L 3047 1625 
L 3713 1625 
L 3713 1100 
L 3047 1100 
L 3047 0 
L 2419 0 
L 2419 1100 
L 313 1100 
L 313 1709 
L 2253 4666 
z
" transform="scale(0.015625)"/>
        <path id="DejaVuSans-30" d="M 2034 4250 
Q 1547 4250 1301 3770 
Q 1056 3291 1056 2328 
Q 1056 1369 1301 889 
Q 1547 409 2034 409 
Q 2525 409 2770 889 
Q 3016 1369 3016 2328 
Q 3016 3291 2770 3770 
Q 2525 4250 2034 4250 
z
M 2034 4750 
Q 2819 4750 3233 4129 
Q 3647 3509 3647 2328 
Q 3647 1150 3233 529 
Q 2819 -91 2034 -91 
Q 1250 -91 836 529 
Q 422 1150 422 2328 
Q 422 3509 836 4129 
Q 1250 4750 2034 4750 
z
" transform="scale(0.015625)"/>
       </defs>
       <use xlink:href="#DejaVuSans-2212"/>
       <use xlink:href="#DejaVuSans-34" x="83.789062"/>
       <use xlink:href="#DejaVuSans-30" x="147.412109"/>
      </g>
     </g>
    </g>
    <g id="xtick_2">
     <g id="line2d_2">
      <g>
       <use xlink:href="#m92a6360ecf" x="136.368" y="307.584" style="stroke: #000000; stroke-width: 0.8"/>
      </g>
     </g>
     <g id="text_2">
      <!-- −30 -->
      <g transform="translate(125.815656 322.182437) scale(0.1 -0.1)">
       <defs>
        <path id="DejaVuSans-33" d="M 2597 2516 
Q 3050 2419 3304 2112 
Q 3559 1806 3559 1356 
Q 3559 666 3084 287 
Q 2609 -91 1734 -91 
Q 1441 -91 1130 -33 
Q 819 25 488 141 
L 488 750 
Q 750 597 1062 519 
Q 1375 441 1716 441 
Q 2309 441 2620 675 
Q 2931 909 2931 1356 
Q 2931 1769 2642 2001 
Q 2353 2234 1838 2234 
L 1294 2234 
L 1294 2753 
L 1863 2753 
Q 2328 2753 2575 2939 
Q 2822 3125 2822 3475 
Q 2822 3834 2567 4026 
Q 2313 4219 1838 4219 
Q 1578 4219 1281 4162 
Q 984 4106 628 3988 
L 628 4550 
Q 988 4650 1302 4700 
Q 1616 4750 1894 4750 
Q 2613 4750 3031 4423 
Q 3450 4097 3450 3541 
Q 3450 3153 3228 2886 
Q 3006 2619 2597 2516 
z
" transform="scale(0.015625)"/>
       </defs>
       <use xlink:href="#DejaVuSans-2212"/>
       <use xlink:href="#DejaVuSans-33" x="83.789062"/>
       <use xlink:href="#DejaVuSans-30" x="147.412109"/>
      </g>
     </g>
    </g>
    <g id="xtick_3">
     <g id="line2d_3">
      <g>
       <use xlink:href="#m92a6360ecf" x="169.632" y="307.584" style="stroke: #000000; stroke-width: 0.8"/>
      </g>
     </g>
     <g id="text_3">
      <!-- −20 -->
      <g transform="translate(159.079656 322.182437) scale(0.1 -0.1)">
       <defs>
        <path id="DejaVuSans-32" d="M 1228 531 
L 3431 531 
L 3431 0 
L 469 0 
L 469 531 
Q 828 903 1448 1529 
Q 2069 2156 2228 2338 
Q 2531 2678 2651 2914 
Q 2772 3150 2772 3378 
Q 2772 3750 2511 3984 
Q 2250 4219 1831 4219 
Q 1534 4219 1204 4116 
Q 875 4013 500 3803 
L 500 4441 
Q 881 4594 1212 4672 
Q 1544 4750 1819 4750 
Q 2544 4750 2975 4387 
Q 3406 4025 3406 3419 
Q 3406 3131 3298 2873 
Q 3191 2616 2906 2266 
Q 2828 2175 2409 1742 
Q 1991 1309 1228 531 
z
" transform="scale(0.015625)"/>
       </defs>
       <use xlink:href="#DejaVuSans-2212"/>
       <use xlink:href="#DejaVuSans-32" x="83.789062"/>
       <use xlink:href="#DejaVuSans-30" x="147.412109"/>
      </g>
     </g>
    </g>
    <g id="xtick_4">
     <g id="line2d_4">
      <g>
       <use xlink:href="#m92a6360ecf" x="202.896" y="307.584" style="stroke: #000000; stroke-width: 0.8"/>
      </g>
     </g>
     <g id="text_4">
      <!-- −10 -->
      <g transform="translate(192.343656 322.182437) scale(0.1 -0.1)">
       <defs>
        <path id="DejaVuSans-31" d="M 794 531 
L 1825 531 
L 1825 4091 
L 703 3866 
L 703 4441 
L 1819 4666 
L 2450 4666 
L 2450 531 
L 3481 531 
L 3481 0 
L 794 0 
L 794 531 
z
" transform="scale(0.015625)"/>
       </defs>
       <use xlink:href="#DejaVuSans-2212"/>
       <use xlink:href="#DejaVuSans-31" x="83.789062"/>
       <use xlink:href="#DejaVuSans-30" x="147.412109"/>
      </g>
     </g>
    </g>
    <g id="xtick_5">
     <g id="line2d_5">
      <g>
       <use xlink:href="#m92a6360ecf" x="236.16" y="307.584" style="stroke: #000000; stroke-width: 0.8"/>
      </g>
     </g>
     <g id="text_5">
      <!-- 0 -->
      <g transform="translate(232.97875 322.182437) scale(0.1 -0.1)">
       <use xlink:href="#DejaVuSans-30"/>
      </g>
     </g>
    </g>
    <g id="xtick_6">
     <g id="line2d_6">
      <g>
       <use xlink:href="#m92a6360ecf" x="269.424" y="307.584" style="stroke: #000000; stroke-width: 0.8"/>
      </g>
     </g>
     <g id="text_6">
      <!-- 10 -->
      <g transform="translate(263.0615 322.182437) scale(0.1 -0.1)">
       <use xlink:href="#DejaVuSans-31"/>
       <use xlink:href="#DejaVuSans-30" x="63.623047"/>
      </g>
     </g>
    </g>
    <g id="xtick_7">
     <g id="line2d_7">
      <g>
       <use xlink:href="#m92a6360ecf" x="302.688" y="307.584" style="stroke: #000000; stroke-width: 0.8"/>
      </g>
     </g>
     <g id="text_7">
      <!-- 20 -->
      <g transform="translate(296.3255 322.182437) scale(0.1 -0.1)">
       <use xlink:href="#DejaVuSans-32"/>
       <use xlink:href="#DejaVuSans-30" x="63.623047"/>
      </g>
     </g>
    </g>
    <g id="xtick_8">
     <g id="line2d_8">
      <g>
       <use xlink:href="#m92a6360ecf" x="335.952" y="307.584" style="stroke: #000000; stroke-width: 0.8"/>
      </g>
     </g>
     <g id="text_8">
      <!-- 30 -->
      <g transform="translate(329.5895 322.182437) scale(0.1 -0.1)">
       <use xlink:href="#DejaVuSans-33"/>
       <use xlink:href="#DejaVuSans-30" x="63.623047"/>
      </g>
     </g>
    </g>
    <g id="xtick_9">
     <g id="line2d_9">
      <g>
       <use xlink:href="#m92a6360ecf" x="369.216" y="307.584" style="stroke: #000000; stroke-width: 0.8"/>
      </g>
     </g>
     <g id="text_9">
      <!-- 40 -->
      <g transform="translate(362.8535 322.182437) scale(0.1 -0.1)">
       <use xlink:href="#DejaVuSans-34"/>
       <use xlink:href="#DejaVuSans-30" x="63.623047"/>
      </g>
     </g>
    </g>
   </g>
   <g id="matplotlib.axis_2">
    <g id="ytick_1">
     <g id="line2d_10">
      <defs>
       <path id="ma680ce982c" d="M 0 0 
L -3.5 0 
" style="stroke: #000000; stroke-width: 0.8"/>
      </defs>
      <g>
       <use xlink:href="#ma680ce982c" x="103.104" y="307.584" style="stroke: #000000; stroke-width: 0.8"/>
      </g>
     </g>
     <g id="text_10">
      <!-- −40 -->
      <g transform="translate(74.999313 311.383219) scale(0.1 -0.1)">
       <use xlink:href="#DejaVuSans-2212"/>
       <use xlink:href="#DejaVuSans-34" x="83.789062"/>
       <use xlink:href="#DejaVuSans-30" x="147.412109"/>
      </g>
     </g>
    </g>
    <g id="ytick_2">
     <g id="line2d_11">
      <g>
       <use xlink:href="#ma680ce982c" x="103.104" y="274.32" style="stroke: #000000; stroke-width: 0.8"/>
      </g>
     </g>
     <g id="text_11">
      <!-- −30 -->
      <g transform="translate(74.999313 278.119219) scale(0.1 -0.1)">
       <use xlink:href="#DejaVuSans-2212"/>
       <use xlink:href="#DejaVuSans-33" x="83.789062"/>
       <use xlink:href="#DejaVuSans-30" x="147.412109"/>
      </g>
     </g>
    </g>
    <g id="ytick_3">
     <g id="line2d_12">
      <g>
       <use xlink:href="#ma680ce982c" x="103.104" y="241.056" style="stroke: #000000; stroke-width: 0.8"/>
      </g>
     </g>
     <g id="text_12">
      <!-- −20 -->
      <g transform="translate(74.999313 244.855219) scale(0.1 -0.1)">
       <use xlink:href="#DejaVuSans-2212"/>
       <use xlink:href="#DejaVuSans-32" x="83.789062"/>
       <use xlink:href="#DejaVuSans-30" x="147.412109"/>
      </g>
     </g>
    </g>
    <g id="ytick_4">
     <g id="line2d_13">
      <g>
       <use xlink:href="#ma680ce982c" x="103.104" y="207.792" style="stroke: #000000; stroke-width: 0.8"/>
      </g>
     </g>
     <g id="text_13">
      <!-- −10 -->
      <g transform="translate(74.999313 211.591219) scale(0.1 -0.1)">
       <use xlink:href="#DejaVuSans-2212"/>
       <use xlink:href="#DejaVuSans-31" x="83.789062"/>
       <use xlink:href="#DejaVuSans-30" x="147.412109"/>
      </g>
     </g>
    </g>
    <g id="ytick_5">
     <g id="line2d_14">
      <g>
       <use xlink:href="#ma680ce982c" x="103.104" y="174.528" style="stroke: #000000; stroke-width: 0.8"/>
      </g>
     </g>
     <g id="text_14">
      <!-- 0 -->
      <g transform="translate(89.7415 178.327219) scale(0.1 -0.1)">
       <use xlink:href="#DejaVuSans-30"/>
      </g>
     </g>
    </g>
    <g id="ytick_6">
     <g id="line2d_15">
      <g>
       <use xlink:href="#ma680ce982c" x="103.104" y="141.264" style="stroke: #000000; stroke-width: 0.8"/>
      </g>
     </g>
     <g id="text_15">
      <!-- 10 -->
      <g transform="translate(83.379 145.063219) scale(0.1 -0.1)">
       <use xlink:href="#DejaVuSans-31"/>
       <use xlink:href="#DejaVuSans-30" x="63.623047"/>
      </g>
     </g>
    </g>
    <g id="ytick_7">
     <g id="line2d_16">
      <g>
       <use xlink:href="#ma680ce982c" x="103.104" y="108" style="stroke: #000000; stroke-width: 0.8"/>
      </g>
     </g>
     <g id="text_16">
      <!-- 20 -->
      <g transform="translate(83.379 111.799219) scale(0.1 -0.1)">
       <use xlink:href="#DejaVuSans-32"/>
       <use xlink:href="#DejaVuSans-30" x="63.623047"/>
      </g>
     </g>
    </g>
    <g id="ytick_8">
     <g id="line2d_17">
      <g>
       <use xlink:href="#ma680ce982c" x="103.104" y="74.736" style="stroke: #000000; stroke-width: 0.8"/>
      </g>
     </g>
     <g id="text_17">
      <!-- 30 -->
      <g transform="translate(83.379 78.535219) scale(0.1 -0.1)">
       <use xlink:href="#DejaVuSans-33"/>
       <use xlink:href="#DejaVuSans-30" x="63.623047"/>
      </g>
     </g>
    </g>
    <g id="ytick_9">
     <g id="line2d_18">
      <g>
       <use xlink:href="#ma680ce982c" x="103.104" y="41.472" style="stroke: #000000; stroke-width: 0.8"/>
      </g>
     </g>
     <g id="text_18">
      <!-- 40 -->
      <g transform="translate(83.379 45.271219) scale(0.1 -0.1)">
       <use xlink:href="#DejaVuSans-34"/>
       <use xlink:href="#DejaVuSans-30" x="63.623047"/>
      </g>
     </g>
    </g>
   </g>
   <g id="line2d_19">
    <path d="M 250.2972 288.4572 
L 250.2972 188.6652 
" clip-path="url(#pce19d95047)" style="fill: none; stroke: #000000; stroke-width: 0.25; stroke-linecap: square"/>
   </g>
   <g id="line2d_20">
    <path d="M 250.2972 188.6652 
L 350.0892 188.6652 
" clip-path="url(#pce19d95047)" style="fill: none; stroke: #000000; stroke-width: 0.25; stroke-linecap: square"/>
   </g>
   <g id="line2d_21">
    <path d="M 350.0892 160.3908 
L 250.2972 160.3908 
" clip-path="url(#pce19d95047)" style="fill: none; stroke: #000000; stroke-width: 0.25; stroke-linecap: square"/>
   </g>
   <g id="line2d_22">
    <path d="M 250.2972 160.3908 
L 250.2972 60.5988 
" clip-path="url(#pce19d95047)" style="fill: none; stroke: #000000; stroke-width: 0.25; stroke-linecap: square"/>
   </g>
   <g id="line2d_23">
    <path d="M 222.0228 60.5988 
L 222.0228 160.3908 
" clip-path="url(#pce19d95047)" style="fill: none; stroke: #000000; stroke-width: 0.25; stroke-linecap: square"/>
   </g>
   <g id="line2d_24">
    <path d="M 222.0228 160.3908 
L 122.2308 160.3908 
" clip-path="url(#pce19d95047)" style="fill: none; stroke: #000000; stroke-width: 0.25; stroke-linecap: square"/>
   </g>
   <g id="line2d_25">
    <path d="M 122.2308 188.6652 
L 222.0228 188.6652 
" clip-path="url(#pce19d95047)" style="fill: none; stroke: #000000; stroke-width: 0.25; stroke-linecap: square"/>
   </g>
   <g id="line2d_26">
    <path d="M 222.0228 188.6652 
L 222.0228 288.4572 
" clip-path="url(#pce19d95047)" style="fill: none; stroke: #000000; stroke-width: 0.25; stroke-linecap: square"/>
   </g>
   <g id="line2d_27">
    <path d="M 250.2972 174.528 
L 350.0892 174.528 
" clip-path="url(#pce19d95047)" style="fill: none; stroke-dasharray: 0.925,0.4; stroke-dashoffset: 0; stroke: #000000; stroke-width: 0.25"/>
   </g>
   <g id="line2d_28">
    <path d="M 236.16 160.3908 
L 236.16 60.5988 
" clip-path="url(#pce19d95047)" style="fill: none; stroke-dasharray: 0.925,0.4; stroke-dashoffset: 0; stroke: #000000; stroke-width: 0.25"/>
   </g>
   <g id="line2d_29">
    <path d="M 222.0228 174.528 
L 122.2308 174.528 
" clip-path="url(#pce19d95047)" style="fill: none; stroke-dasharray: 0.925,0.4; stroke-dashoffset: 0; stroke: #000000; stroke-width: 0.25"/>
   </g>
   <g id="line2d_30">
    <path d="M 236.16 188.6652 
L 236.16 288.4572 
" clip-path="url(#pce19d95047)" style="fill: none; stroke-dasharray: 0.925,0.4; stroke-dashoffset: 0; stroke: #000000; stroke-width: 0.25"/>
   </g>
   <g id="line2d_31">
    <path d="M 134.065659 168.672179 
L 132.438898 168.672176 
L 130.811996 168.672174 
L 129.184959 168.672172 
L 127.557793 168.672172 
L 125.930503 168.672171 
L 124.303094 168.672171 
L 122.675573 168.672172 
L 121.047946 168.672172 
L 119.420219 168.672173 
L 117.792398 168.672173 
L 116.164489 168.672174 
L 114.536498 168.672175 
L 112.90843 168.672176 
L 111.280292 168.672176 
L 109.652089 168.672177 
L 108.023827 168.672177 
L 106.39551 168.672178 
L 104.767144 168.672178 
L 103.138735 168.672179 
L 101.510286 168.672179 
L 99.881802 168.672179 
L 98.253288 168.672179 
L 96.624747 168.67218 
L 94.996184 168.67218 
L 93.367603 168.67218 
L 91.739006 168.67218 
L 90.110398 168.67218 
L 88.481781 168.67218 
L 86.853158 168.67218 
L 85.224531 168.67218 
" clip-path="url(#pce19d95047)" style="fill: none; stroke: #ff0000; stroke-opacity: 0.2; stroke-width: 0.25; stroke-linecap: square"/>
   </g>
   <g id="line2d_32">
    <path d="M 134.065659 168.672179 
L 132.438898 168.672176 
L 130.811997 168.672174 
L 129.184962 168.672173 
L 127.557798 168.672172 
L 125.930511 168.672172 
L 124.303106 168.672172 
L 122.675591 168.672172 
L 121.04797 168.672172 
L 119.420251 168.672173 
L 117.792438 168.672173 
L 116.164539 168.672174 
L 114.536559 168.672175 
L 112.908503 168.672175 
L 111.280379 168.672176 
L 109.652191 168.672177 
L 108.023945 168.672177 
L 106.395647 168.672178 
L 104.7673 168.672178 
L 103.138912 168.672179 
L 101.510485 168.672179 
L 99.882026 168.672179 
L 98.253538 168.672179 
L 96.625025 168.67218 
L 94.996491 168.67218 
L 93.36794 168.67218 
L 91.739376 168.67218 
L 90.110802 168.67218 
L 88.48222 168.67218 
L 86.853635 168.67218 
L 85.225047 168.67218 
" clip-path="url(#pce19d95047)" style="fill: none; stroke: #ff0000; stroke-opacity: 0.4; stroke-width: 0.25; stroke-linecap: square"/>
   </g>
   <g id="line2d_33">
    <path d="M 134.065659 168.672179 
L 132.438898 168.672177 
L 130.811996 168.672175 
L 129.18496 168.672173 
L 127.557795 168.672172 
L 125.930505 168.672172 
L 124.303098 168.672172 
L 122.675579 168.672172 
L 121.047955 168.672172 
L 119.420231 168.672173 
L 117.792413 168.672173 
L 116.164507 168.672174 
L 114.53652 168.672175 
L 112.908458 168.672175 
L 111.280325 168.672176 
L 109.652128 168.672177 
L 108.023873 168.672177 
L 106.395564 168.672178 
L 104.767207 168.672178 
L 103.138806 168.672179 
L 101.510367 168.672179 
L 99.881894 168.672179 
L 98.253391 168.672179 
L 96.624863 168.67218 
L 94.996313 168.67218 
L 93.367746 168.67218 
L 91.739164 168.67218 
L 90.110572 168.67218 
L 88.481971 168.67218 
L 86.853366 168.67218 
L 85.224758 168.67218 
" clip-path="url(#pce19d95047)" style="fill: none; stroke: #ff0000; stroke-opacity: 0.6; stroke-width: 0.25; stroke-linecap: square"/>
   </g>
   <g id="line2d_34">
    <path d="M 134.065659 168.672179 
L 132.438898 168.672177 
L 130.811997 168.672175 
L 129.184961 168.672173 
L 127.557797 168.672172 
L 125.930509 168.672172 
L 124.303103 168.672172 
L 122.675587 168.672172 
L 121.047964 168.672172 
L 119.420243 168.672173 
L 117.792428 168.672173 
L 116.164527 168.672174 
L 114.536544 168.672175 
L 112.908486 168.672175 
L 111.280358 168.672176 
L 109.652166 168.672177 
L 108.023916 168.672177 
L 106.395613 168.672178 
L 104.767262 168.672178 
L 103.138868 168.672179 
L 101.510436 168.672179 
L 99.881971 168.672179 
L 98.253476 168.672179 
L 96.624957 168.67218 
L 94.996416 168.67218 
L 93.367858 168.67218 
L 91.739286 168.67218 
L 90.110703 168.67218 
L 88.482112 168.67218 
L 86.853517 168.67218 
L 85.22492 168.67218 
" clip-path="url(#pce19d95047)" style="fill: none; stroke: #ff0000; stroke-opacity: 0.8; stroke-width: 0.25; stroke-linecap: square"/>
   </g>
   <g id="line2d_35">
    <path d="M 134.065659 168.672179 
L 132.438898 168.672177 
L 130.811997 168.672175 
L 129.184961 168.672173 
L 127.557795 168.672172 
L 125.930507 168.672172 
L 124.3031 168.672172 
L 122.675582 168.672172 
L 121.047959 168.672172 
L 119.420235 168.672173 
L 117.792419 168.672174 
L 116.164515 168.672174 
L 114.53653 168.672175 
L 112.908469 168.672176 
L 111.280338 168.672176 
L 109.652144 168.672177 
L 108.023891 168.672177 
L 106.395584 168.672178 
L 104.76723 168.672178 
L 103.138832 168.672179 
L 101.510396 168.672179 
L 99.881926 168.672179 
L 98.253427 168.672179 
L 96.624903 168.67218 
L 94.996357 168.67218 
L 93.367794 168.67218 
L 91.739216 168.67218 
L 90.110628 168.67218 
L 88.482033 168.67218 
L 86.853432 168.67218 
L 85.224829 168.67218 
" clip-path="url(#pce19d95047)" style="fill: none; stroke: #ff0000; stroke-width: 0.25; stroke-linecap: square"/>
   </g>
   <g id="line2d_36">
    <path d="M 242.015839 65.556718 
L 242.015831 64.047339 
L 242.015824 62.53809 
L 242.015819 61.028973 
L 242.015815 59.519991 
L 242.015812 58.011143 
L 242.01581 56.502429 
L 242.015809 54.993848 
L 242.015809 53.485397 
L 242.015808 51.977073 
L 242.015809 50.468873 
L 242.015809 48.960792 
L 242.01581 47.452825 
L 242.01581 45.944967 
L 242.015811 44.437212 
L 242.015812 42.929555 
L 242.015813 41.42199 
L 242.015814 39.914509 
L 242.015815 38.407107 
L 242.015815 36.899777 
L 242.015816 35.392512 
L 242.015817 33.885306 
L 242.015817 32.378152 
L 242.015818 30.871044 
L 242.015818 29.363976 
L 242.015819 27.856941 
L 242.015819 26.349933 
L 242.015819 24.842946 
L 242.01582 23.335976 
L 242.01582 21.829017 
L 242.01582 20.322064 
" clip-path="url(#pce19d95047)" style="fill: none; stroke: #ff0000; stroke-opacity: 0.2; stroke-width: 0.25; stroke-linecap: square"/>
   </g>
   <g id="line2d_37">
    <path d="M 242.015839 65.556718 
L 242.015832 64.047339 
L 242.015825 62.538087 
L 242.01582 61.028966 
L 242.015816 59.519976 
L 242.015813 58.011118 
L 242.015811 56.502391 
L 242.015809 54.993794 
L 242.015809 53.485325 
L 242.015809 51.976979 
L 242.015809 50.468754 
L 242.015809 48.960644 
L 242.01581 47.452646 
L 242.01581 45.944754 
L 242.015811 44.436961 
L 242.015812 42.929263 
L 242.015813 41.421652 
L 242.015814 39.914123 
L 242.015815 38.406669 
L 242.015815 36.899283 
L 242.015816 35.391959 
L 242.015817 33.88469 
L 242.015817 32.37747 
L 242.015818 30.870291 
L 242.015818 29.363149 
L 242.015819 27.856037 
L 242.015819 26.348949 
L 242.01582 24.841879 
L 242.01582 23.334822 
L 242.01582 21.827773 
L 242.015821 20.320727 
" clip-path="url(#pce19d95047)" style="fill: none; stroke: #ff0000; stroke-opacity: 0.4; stroke-width: 0.25; stroke-linecap: square"/>
   </g>
   <g id="line2d_38">
    <path d="M 242.015839 65.556718 
L 242.015832 64.047339 
L 242.015825 62.538089 
L 242.01582 61.02897 
L 242.015816 59.519985 
L 242.015813 58.011134 
L 242.015811 56.502415 
L 242.01581 54.993828 
L 242.015809 53.48537 
L 242.015809 51.977038 
L 242.015809 50.468827 
L 242.015809 48.960735 
L 242.01581 47.452755 
L 242.01581 45.944883 
L 242.015811 44.437113 
L 242.015812 42.929438 
L 242.015813 41.421854 
L 242.015814 39.914352 
L 242.015815 38.406928 
L 242.015815 36.899574 
L 242.015816 35.392283 
L 242.015817 33.88505 
L 242.015817 32.377866 
L 242.015818 30.870727 
L 242.015818 29.363625 
L 242.015819 27.856555 
L 242.015819 26.349511 
L 242.015819 24.842486 
L 242.01582 23.335475 
L 242.01582 21.828474 
L 242.01582 20.321478 
" clip-path="url(#pce19d95047)" style="fill: none; stroke: #ff0000; stroke-opacity: 0.6; stroke-width: 0.25; stroke-linecap: square"/>
   </g>
   <g id="line2d_39">
    <path d="M 242.015839 65.556718 
L 242.015832 64.047339 
L 242.015826 62.538088 
L 242.01582 61.028967 
L 242.015816 59.519979 
L 242.015813 58.011124 
L 242.015811 56.502401 
L 242.01581 54.993808 
L 242.015809 53.485342 
L 242.015809 51.977002 
L 242.015809 50.468783 
L 242.015809 48.960681 
L 242.01581 47.45269 
L 242.01581 45.944806 
L 242.015811 44.437023 
L 242.015812 42.929334 
L 242.015813 41.421735 
L 242.015814 39.914217 
L 242.015815 38.406776 
L 242.015815 36.899404 
L 242.015816 35.392094 
L 242.015817 33.884841 
L 242.015817 32.377637 
L 242.015818 30.870476 
L 242.015818 29.363352 
L 242.015819 27.856259 
L 242.015819 26.34919 
L 242.015819 24.842141 
L 242.01582 23.335105 
L 242.01582 21.828078 
L 242.015821 20.321056 
" clip-path="url(#pce19d95047)" style="fill: none; stroke: #ff0000; stroke-opacity: 0.8; stroke-width: 0.25; stroke-linecap: square"/>
   </g>
   <g id="line2d_40">
    <path d="M 242.015839 65.556718 
L 242.015832 64.047339 
L 242.015826 62.538088 
L 242.01582 61.028969 
L 242.015816 59.519983 
L 242.015813 58.01113 
L 242.015811 56.502409 
L 242.01581 54.99382 
L 242.015809 53.485359 
L 242.015809 51.977023 
L 242.015809 50.468809 
L 242.015809 48.960713 
L 242.01581 47.452728 
L 242.01581 45.944851 
L 242.015811 44.437075 
L 242.015812 42.929395 
L 242.015813 41.421804 
L 242.015814 39.914296 
L 242.015815 38.406864 
L 242.015815 36.899502 
L 242.015816 35.392204 
L 242.015817 33.884961 
L 242.015817 32.377769 
L 242.015818 30.87062 
L 242.015818 29.363508 
L 242.015819 27.856428 
L 242.015819 26.349373 
L 242.015819 24.842337 
L 242.01582 23.335315 
L 242.01582 21.828302 
L 242.01582 20.321294 
" clip-path="url(#pce19d95047)" style="fill: none; stroke: #ff0000; stroke-width: 0.25; stroke-linecap: square"/>
   </g>
   <g id="line2d_41">
    <path d="M 230.304167 278.693537 
L 230.304169 280.301583 
L 230.30417 281.909633 
L 230.304171 283.517684 
L 230.304172 285.125736 
L 230.304173 286.733786 
L 230.304174 288.341834 
L 230.304175 289.949879 
L 230.304176 291.55792 
L 230.304177 293.165956 
L 230.304178 294.773987 
L 230.304178 296.382012 
L 230.304179 297.990032 
L 230.304179 299.598046 
L 230.30418 301.206054 
L 230.30418 302.814057 
L 230.30418 304.422053 
L 230.30418 306.030043 
L 230.30418 307.638028 
L 230.30418 309.246008 
L 230.30418 310.853983 
L 230.30418 312.461954 
L 230.30418 314.069921 
L 230.30418 315.677883 
L 230.30418 317.285843 
L 230.30418 318.8938 
L 230.30418 320.501755 
L 230.30418 322.109707 
L 230.30418 323.717659 
L 230.30418 325.325609 
L 230.30418 326.933559 
" clip-path="url(#pce19d95047)" style="fill: none; stroke: #ff0000; stroke-opacity: 0.2; stroke-width: 0.25; stroke-linecap: square"/>
   </g>
   <g id="line2d_42">
    <path d="M 230.304167 278.693537 
L 230.304169 280.301583 
L 230.30417 281.909633 
L 230.304171 283.517685 
L 230.304172 285.125738 
L 230.304173 286.733789 
L 230.304175 288.341839 
L 230.304175 289.949886 
L 230.304176 291.557929 
L 230.304177 293.165968 
L 230.304178 294.774002 
L 230.304178 296.382031 
L 230.304179 297.990055 
L 230.304179 299.598073 
L 230.304179 301.206086 
L 230.30418 302.814093 
L 230.30418 304.422095 
L 230.30418 306.030092 
L 230.30418 307.638083 
L 230.30418 309.246069 
L 230.30418 310.854052 
L 230.30418 312.46203 
L 230.30418 314.070004 
L 230.30418 315.677975 
L 230.30418 317.285943 
L 230.30418 318.893909 
L 230.30418 320.501873 
L 230.30418 322.109835 
L 230.30418 323.717796 
L 230.30418 325.325757 
L 230.30418 326.933717 
" clip-path="url(#pce19d95047)" style="fill: none; stroke: #ff0000; stroke-opacity: 0.4; stroke-width: 0.25; stroke-linecap: square"/>
   </g>
   <g id="line2d_43">
    <path d="M 230.304167 278.693537 
L 230.304169 280.301583 
L 230.30417 281.909633 
L 230.304171 283.517685 
L 230.304172 285.125737 
L 230.304174 286.733787 
L 230.304175 288.341836 
L 230.304176 289.949881 
L 230.304176 291.557923 
L 230.304177 293.165961 
L 230.304178 294.773993 
L 230.304178 296.38202 
L 230.304179 297.990042 
L 230.304179 299.598057 
L 230.30418 301.206067 
L 230.30418 302.814072 
L 230.30418 304.42207 
L 230.30418 306.030063 
L 230.30418 307.638051 
L 230.30418 309.246034 
L 230.30418 310.854012 
L 230.30418 312.461986 
L 230.30418 314.069956 
L 230.30418 315.677922 
L 230.30418 317.285886 
L 230.30418 318.893847 
L 230.30418 320.501805 
L 230.30418 322.109762 
L 230.30418 323.717718 
L 230.30418 325.325673 
L 230.30418 326.933628 
" clip-path="url(#pce19d95047)" style="fill: none; stroke: #ff0000; stroke-opacity: 0.6; stroke-width: 0.25; stroke-linecap: square"/>
   </g>
   <g id="line2d_44">
    <path d="M 230.304167 278.693537 
L 230.304169 280.301583 
L 230.30417 281.909633 
L 230.304171 283.517685 
L 230.304172 285.125737 
L 230.304174 286.733789 
L 230.304175 288.341838 
L 230.304176 289.949884 
L 230.304176 291.557927 
L 230.304177 293.165965 
L 230.304178 294.773998 
L 230.304178 296.382027 
L 230.304179 297.99005 
L 230.304179 299.598067 
L 230.304179 301.206078 
L 230.30418 302.814084 
L 230.30418 304.422085 
L 230.30418 306.03008 
L 230.30418 307.63807 
L 230.30418 309.246054 
L 230.30418 310.854035 
L 230.30418 312.462011 
L 230.30418 314.069983 
L 230.30418 315.677952 
L 230.30418 317.285919 
L 230.30418 318.893882 
L 230.30418 320.501844 
L 230.30418 322.109804 
L 230.30418 323.717762 
L 230.30418 325.32572 
L 230.30418 326.933678 
" clip-path="url(#pce19d95047)" style="fill: none; stroke: #ff0000; stroke-opacity: 0.8; stroke-width: 0.25; stroke-linecap: square"/>
   </g>
   <g id="line2d_45">
    <path d="M 230.304167 278.693537 
L 230.304169 280.301583 
L 230.30417 281.909633 
L 230.304171 283.517685 
L 230.304172 285.125737 
L 230.304174 286.733788 
L 230.304175 288.341837 
L 230.304176 289.949883 
L 230.304176 291.557925 
L 230.304177 293.165962 
L 230.304178 294.773995 
L 230.304178 296.382023 
L 230.304179 297.990045 
L 230.304179 299.598061 
L 230.30418 301.206072 
L 230.30418 302.814077 
L 230.30418 304.422076 
L 230.30418 306.03007 
L 230.30418 307.638059 
L 230.30418 309.246043 
L 230.30418 310.854022 
L 230.30418 312.461997 
L 230.30418 314.069968 
L 230.30418 315.677935 
L 230.30418 317.2859 
L 230.30418 318.893862 
L 230.30418 320.501822 
L 230.30418 322.10978 
L 230.30418 323.717737 
L 230.30418 325.325694 
L 230.30418 326.93365 
" clip-path="url(#pce19d95047)" style="fill: none; stroke: #ff0000; stroke-width: 0.25; stroke-linecap: square"/>
   </g>
   <g id="line2d_46">
    <path d="M 340.330065 180.383836 
L 341.937499 180.383834 
L 343.544978 180.383832 
L 345.152499 180.38383 
L 346.760058 180.383829 
L 348.367653 180.383827 
L 349.975281 180.383826 
L 351.58294 180.383824 
L 353.190627 180.383823 
L 354.79834 180.383822 
L 356.406077 180.383822 
L 358.013836 180.383821 
L 359.621615 180.383821 
L 361.229411 180.38382 
L 362.837224 180.38382 
L 364.445051 180.38382 
L 366.052892 180.38382 
L 367.660743 180.383819 
L 369.268605 180.383819 
L 370.876476 180.383819 
L 372.484355 180.383819 
L 374.09224 180.383819 
L 375.700131 180.383819 
L 377.308027 180.383819 
L 378.915927 180.383819 
L 380.52383 180.38382 
L 382.131736 180.38382 
L 383.739645 180.38382 
L 385.347554 180.38382 
L 386.955465 180.38382 
L 388.563376 180.38382 
" clip-path="url(#pce19d95047)" style="fill: none; stroke: #ff0000; stroke-opacity: 0.2; stroke-width: 0.25; stroke-linecap: square"/>
   </g>
   <g id="line2d_47">
    <path d="M 340.330065 180.383836 
L 341.937499 180.383834 
L 343.544978 180.383832 
L 345.152499 180.38383 
L 346.760058 180.383828 
L 348.367653 180.383827 
L 349.975281 180.383826 
L 351.58294 180.383824 
L 353.190627 180.383823 
L 354.798341 180.383822 
L 356.406078 180.383822 
L 358.013836 180.383821 
L 359.621615 180.383821 
L 361.229411 180.38382 
L 362.837224 180.38382 
L 364.445051 180.38382 
L 366.05289 180.38382 
L 367.660741 180.383819 
L 369.268603 180.383819 
L 370.876473 180.383819 
L 372.48435 180.383819 
L 374.092234 180.383819 
L 375.700124 180.383819 
L 377.308018 180.383819 
L 378.915916 180.38382 
L 380.523818 180.38382 
L 382.131722 180.38382 
L 383.739627 180.38382 
L 385.347534 180.38382 
L 386.955442 180.38382 
L 388.56335 180.38382 
" clip-path="url(#pce19d95047)" style="fill: none; stroke: #ff0000; stroke-opacity: 0.4; stroke-width: 0.25; stroke-linecap: square"/>
   </g>
   <g id="line2d_48">
    <path d="M 340.330065 180.383836 
L 341.937499 180.383834 
L 343.544978 180.383832 
L 345.152499 180.38383 
L 346.760058 180.383828 
L 348.367653 180.383827 
L 349.975281 180.383826 
L 351.58294 180.383824 
L 353.190627 180.383823 
L 354.798341 180.383822 
L 356.406078 180.383822 
L 358.013837 180.383821 
L 359.621615 180.383821 
L 361.229412 180.38382 
L 362.837225 180.38382 
L 364.445052 180.38382 
L 366.052892 180.38382 
L 367.660743 180.383819 
L 369.268605 180.383819 
L 370.876475 180.383819 
L 372.484353 180.383819 
L 374.092238 180.383819 
L 375.700129 180.383819 
L 377.308024 180.383819 
L 378.915923 180.38382 
L 380.523825 180.38382 
L 382.13173 180.38382 
L 383.739637 180.38382 
L 385.347545 180.38382 
L 386.955455 180.38382 
L 388.563364 180.38382 
" clip-path="url(#pce19d95047)" style="fill: none; stroke: #ff0000; stroke-opacity: 0.6; stroke-width: 0.25; stroke-linecap: square"/>
   </g>
   <g id="line2d_49">
    <path d="M 340.330065 180.383836 
L 341.937499 180.383834 
L 343.544978 180.383832 
L 345.152499 180.38383 
L 346.760058 180.383828 
L 348.367653 180.383827 
L 349.975281 180.383826 
L 351.58294 180.383824 
L 353.190627 180.383823 
L 354.79834 180.383822 
L 356.406078 180.383822 
L 358.013836 180.383821 
L 359.621615 180.383821 
L 361.229411 180.38382 
L 362.837224 180.38382 
L 364.445051 180.38382 
L 366.052891 180.38382 
L 367.660742 180.383819 
L 369.268603 180.383819 
L 370.876473 180.383819 
L 372.484351 180.383819 
L 374.092236 180.383819 
L 375.700126 180.383819 
L 377.30802 180.383819 
L 378.915919 180.38382 
L 380.523821 180.38382 
L 382.131725 180.38382 
L 383.739631 180.38382 
L 385.347539 180.38382 
L 386.955447 180.38382 
L 388.563356 180.38382 
" clip-path="url(#pce19d95047)" style="fill: none; stroke: #ff0000; stroke-opacity: 0.8; stroke-width: 0.25; stroke-linecap: square"/>
   </g>
   <g id="line2d_50">
    <path d="M 340.330065 180.383836 
L 341.937499 180.383834 
L 343.544978 180.383832 
L 345.152499 180.38383 
L 346.760058 180.383828 
L 348.367653 180.383827 
L 349.975281 180.383826 
L 351.58294 180.383824 
L 353.190627 180.383823 
L 354.798341 180.383822 
L 356.406078 180.383822 
L 358.013837 180.383821 
L 359.621615 180.383821 
L 361.229412 180.38382 
L 362.837224 180.38382 
L 364.445051 180.38382 
L 366.052891 180.38382 
L 367.660743 180.383819 
L 369.268604 180.383819 
L 370.876475 180.383819 
L 372.484353 180.383819 
L 374.092237 180.383819 
L 375.700128 180.383819 
L 377.308023 180.383819 
L 378.915921 180.38382 
L 380.523824 180.38382 
L 382.131728 180.38382 
L 383.739635 180.38382 
L 385.347543 180.38382 
L 386.955451 180.38382 
L 388.56336 180.38382 
" clip-path="url(#pce19d95047)" style="fill: none; stroke: #ff0000; stroke-width: 0.25; stroke-linecap: square"/>
   </g>
   <g id="line2d_51">
    <path d="M 242.016398 110.131131 
L 242.016275 108.569968 
L 242.016162 107.006107 
L 242.016067 105.439604 
L 242.015988 103.870526 
L 242.015924 102.298949 
L 242.015872 100.724959 
L 242.015832 99.148647 
L 242.015801 97.570112 
L 242.015778 95.989456 
L 242.015762 94.406786 
L 242.015752 92.822212 
L 242.015746 91.235846 
L 242.015744 89.647801 
L 242.015744 88.058191 
L 242.015747 86.467132 
L 242.01575 84.874736 
L 242.015755 83.281116 
L 242.015761 81.686383 
L 242.015767 80.090646 
L 242.015773 78.494011 
L 242.015779 76.896581 
L 242.015785 75.298458 
L 242.015791 73.699737 
L 242.015796 72.100511 
L 242.015801 70.500868 
L 242.015806 68.900893 
L 242.01581 67.300665 
L 242.015815 65.700258 
L 242.015819 64.099741 
L 242.015823 62.499178 
" clip-path="url(#pce19d95047)" style="fill: none; stroke: #ff0000; stroke-opacity: 0.2; stroke-width: 0.25; stroke-linecap: square"/>
   </g>
   <g id="line2d_52">
    <path d="M 242.016398 110.131131 
L 242.016278 108.569968 
L 242.016164 107.006087 
L 242.016069 105.439545 
L 242.01599 103.870408 
L 242.015925 102.298752 
L 242.015873 100.724662 
L 242.015833 99.148228 
L 242.015802 97.56955 
L 242.015779 95.988728 
L 242.015763 94.405871 
L 242.015752 92.821086 
L 242.015747 91.234487 
L 242.015744 89.646185 
L 242.015745 88.056296 
L 242.015747 86.464933 
L 242.015751 84.872209 
L 242.015756 83.278237 
L 242.015761 81.683128 
L 242.015767 80.086992 
L 242.015773 78.489933 
L 242.015779 76.892057 
L 242.015785 75.293464 
L 242.01579 73.69425 
L 242.015795 72.09451 
L 242.0158 70.494331 
L 242.015805 68.893799 
L 242.015809 67.292993 
L 242.015813 65.691988 
L 242.015817 64.090856 
L 242.015821 62.489659 
" clip-path="url(#pce19d95047)" style="fill: none; stroke: #ff0000; stroke-opacity: 0.4; stroke-width: 0.25; stroke-linecap: square"/>
   </g>
   <g id="line2d_53">
    <path d="M 242.016398 110.131131 
L 242.016279 108.569968 
L 242.016165 107.006099 
L 242.01607 105.439582 
L 242.015991 103.870481 
L 242.015926 102.298873 
L 242.015874 100.724844 
L 242.015833 99.148484 
L 242.015802 97.569892 
L 242.015779 95.98917 
L 242.015763 94.406424 
L 242.015753 92.821764 
L 242.015747 91.235302 
L 242.015744 89.647151 
L 242.015744 88.057424 
L 242.015747 86.466237 
L 242.015751 84.873702 
L 242.015756 83.279932 
L 242.015761 81.685038 
L 242.015767 80.089128 
L 242.015773 78.492308 
L 242.015779 76.894683 
L 242.015785 75.296352 
L 242.01579 73.697412 
L 242.015796 72.097955 
L 242.015801 70.498071 
L 242.015805 68.897844 
L 242.01581 67.297352 
L 242.015814 65.696671 
L 242.015818 64.09587 
L 242.015822 62.495013 
" clip-path="url(#pce19d95047)" style="fill: none; stroke: #ff0000; stroke-opacity: 0.6; stroke-width: 0.25; stroke-linecap: square"/>
   </g>
   <g id="line2d_54">
    <path d="M 242.016398 110.131131 
L 242.01628 108.569968 
L 242.016166 107.006092 
L 242.01607 105.43956 
L 242.015991 103.870437 
L 242.015926 102.2988 
L 242.015874 100.724735 
L 242.015833 99.148331 
L 242.015802 97.569688 
L 242.015779 95.988907 
L 242.015763 94.406095 
L 242.015753 92.821363 
L 242.015747 91.23482 
L 242.015744 89.646582 
L 242.015745 88.056761 
L 242.015747 86.465472 
L 242.015751 84.872829 
L 242.015756 83.278943 
L 242.015761 81.683927 
L 242.015767 80.087888 
L 242.015773 78.490934 
L 242.015779 76.893168 
L 242.015785 75.29469 
L 242.01579 73.695598 
L 242.015795 72.095983 
L 242.0158 70.495937 
L 242.015805 68.895541 
L 242.015809 67.294878 
L 242.015813 65.69402 
L 242.015817 64.093039 
L 242.015821 62.491998 
" clip-path="url(#pce19d95047)" style="fill: none; stroke: #ff0000; stroke-opacity: 0.8; stroke-width: 0.25; stroke-linecap: square"/>
   </g>
   <g id="line2d_55">
    <path d="M 242.016398 110.131131 
L 242.01628 108.569968 
L 242.016167 107.006097 
L 242.016071 105.439573 
L 242.015991 103.870463 
L 242.015926 102.298843 
L 242.015874 100.724799 
L 242.015834 99.148421 
L 242.015802 97.569808 
L 242.015779 95.989061 
L 242.015763 94.406288 
L 242.015753 92.821598 
L 242.015747 91.235102 
L 242.015744 89.646914 
L 242.015745 88.057147 
L 242.015747 86.465917 
L 242.015751 84.873336 
L 242.015756 83.279516 
L 242.015761 81.684569 
L 242.015767 80.088603 
L 242.015773 78.491725 
L 242.015779 76.894038 
L 242.015785 75.295643 
L 242.01579 73.696635 
L 242.015796 72.097109 
L 242.015801 70.497152 
L 242.015805 68.89685 
L 242.01581 67.296281 
L 242.015814 65.695521 
L 242.015818 64.094638 
L 242.015822 62.493697 
" clip-path="url(#pce19d95047)" style="fill: none; stroke: #ff0000; stroke-width: 0.25; stroke-linecap: square"/>
   </g>
   <g id="line2d_56">
    <path d="M 172.056257 168.677435 
L 170.465248 168.6773 
L 168.873124 168.677184 
L 167.279919 168.676943 
L 165.685669 168.676617 
L 164.090412 168.676236 
L 162.49419 168.675825 
L 160.897045 168.675406 
L 159.299021 168.674993 
L 157.700164 168.674598 
L 156.100518 168.674227 
L 154.500131 168.673887 
L 152.899047 168.673581 
L 151.297315 168.673308 
L 149.694979 168.673071 
L 148.092084 168.672866 
L 146.488676 168.672692 
L 144.884798 168.672547 
L 143.280493 168.672428 
L 141.675802 168.672332 
L 140.070766 168.672257 
L 138.465424 168.672199 
L 136.859812 168.672156 
L 135.253968 168.672126 
L 133.647924 168.672106 
L 132.041715 168.672094 
L 130.43537 168.672089 
L 128.828919 168.672088 
L 127.222389 168.67209 
L 125.615806 168.672095 
L 124.009191 168.672097 
" clip-path="url(#pce19d95047)" style="fill: none; stroke: #ff0000; stroke-opacity: 0.2; stroke-width: 0.25; stroke-linecap: square"/>
   </g>
   <g id="line2d_57">
    <path d="M 172.056257 168.677435 
L 170.465248 168.677178 
L 168.873132 168.677068 
L 167.279943 168.676837 
L 165.685718 168.676524 
L 164.090496 168.676158 
L 162.494318 168.675764 
L 160.897228 168.675361 
L 159.299269 168.674964 
L 157.700487 168.674584 
L 156.100929 168.674227 
L 154.500641 168.673898 
L 152.89967 168.673601 
L 151.298062 168.673336 
L 149.695864 168.673104 
L 148.093121 168.672903 
L 146.489879 168.672731 
L 144.886181 168.672587 
L 143.28207 168.672467 
L 141.677589 168.672369 
L 140.072777 168.672291 
L 138.467674 168.67223 
L 136.862318 168.672183 
L 135.256743 168.672148 
L 133.650985 168.672124 
L 132.045076 168.672107 
L 130.439047 168.672095 
L 128.832926 168.672088 
L 127.226741 168.672084 
L 125.620516 168.672081 
L 124.014274 168.672078 
" clip-path="url(#pce19d95047)" style="fill: none; stroke: #ff0000; stroke-opacity: 0.4; stroke-width: 0.25; stroke-linecap: square"/>
   </g>
   <g id="line2d_58">
    <path d="M 172.056257 168.677435 
L 170.465248 168.677104 
L 168.873126 168.676999 
L 167.279927 168.676775 
L 165.685685 168.676468 
L 164.090441 168.67611 
L 162.494235 168.675723 
L 160.89711 168.675326 
L 159.29911 168.674934 
L 157.700281 168.674558 
L 156.100669 168.674204 
L 154.500321 168.673878 
L 152.899282 168.673582 
L 151.2976 168.673318 
L 149.69532 168.673086 
L 148.092488 168.672885 
L 146.48915 168.672713 
L 144.885348 168.672569 
L 143.281126 168.67245 
L 141.676525 168.672353 
L 140.071587 168.672276 
L 138.46635 168.672216 
L 136.860852 168.672171 
L 135.255129 168.672139 
L 133.649215 168.672116 
L 132.043142 168.672101 
L 130.436943 168.672093 
L 128.830645 168.672089 
L 127.224275 168.672088 
L 125.61786 168.672089 
L 124.011422 168.672089 
" clip-path="url(#pce19d95047)" style="fill: none; stroke: #ff0000; stroke-opacity: 0.6; stroke-width: 0.25; stroke-linecap: square"/>
   </g>
   <g id="line2d_59">
    <path d="M 172.056257 168.677435 
L 170.465248 168.67706 
L 168.87313 168.676959 
L 167.279937 168.676741 
L 165.685706 168.67644 
L 164.090476 168.676087 
L 162.494287 168.675705 
L 160.897183 168.675313 
L 159.299208 168.674925 
L 157.700408 168.674551 
L 156.100828 168.6742 
L 154.500516 168.673876 
L 152.899517 168.673583 
L 151.297879 168.67332 
L 149.695647 168.67309 
L 148.092867 168.67289 
L 146.489584 168.67272 
L 144.885842 168.672576 
L 143.281684 168.672458 
L 141.677151 168.672361 
L 140.072284 168.672284 
L 138.467122 168.672224 
L 136.861703 168.672178 
L 135.256062 168.672145 
L 133.650234 168.672121 
L 132.044251 168.672105 
L 130.438144 168.672096 
L 128.831942 168.67209 
L 127.225672 168.672087 
L 125.619358 168.672085 
L 124.013025 168.672084 
" clip-path="url(#pce19d95047)" style="fill: none; stroke: #ff0000; stroke-opacity: 0.8; stroke-width: 0.25; stroke-linecap: square"/>
   </g>
   <g id="line2d_60">
    <path d="M 172.056257 168.677435 
L 170.465248 168.677033 
L 168.873128 168.676936 
L 167.279931 168.67672 
L 165.685693 168.676423 
L 164.090455 168.676073 
L 162.494255 168.675693 
L 160.897139 168.675303 
L 159.299149 168.674916 
L 157.700332 168.674544 
L 156.100733 168.674194 
L 154.500399 168.673871 
L 152.899377 168.673578 
L 151.297713 168.673316 
L 149.695453 168.673086 
L 148.092644 168.672886 
L 146.489328 168.672716 
L 144.885552 168.672573 
L 143.281357 168.672454 
L 141.676786 168.672358 
L 140.071879 168.672281 
L 138.466675 168.672221 
L 136.861212 168.672176 
L 135.255525 168.672142 
L 133.649649 168.672119 
L 132.043617 168.672104 
L 130.437459 168.672095 
L 128.831205 168.67209 
L 127.224881 168.672088 
L 125.618513 168.672088 
L 124.012123 168.672087 
" clip-path="url(#pce19d95047)" style="fill: none; stroke: #ff0000; stroke-width: 0.25; stroke-linecap: square"/>
   </g>
   <g id="line2d_61">
    <path d="M 299.619076 180.380808 
L 301.207589 180.381332 
L 302.797862 180.381795 
L 304.389903 180.382203 
L 305.983705 180.382558 
L 307.579251 180.382863 
L 309.176511 180.38312 
L 310.775449 180.383335 
L 312.376018 180.38351 
L 313.978165 180.383651 
L 315.581831 180.383762 
L 317.18695 180.383848 
L 318.793452 180.383911 
L 320.401265 180.383955 
L 322.01031 180.383985 
L 323.620509 180.384002 
L 325.231781 180.38401 
L 326.844044 180.38401 
L 328.457215 180.384004 
L 330.071211 180.383994 
L 331.68595 180.383981 
L 333.301351 180.383966 
L 334.917333 180.38395 
L 336.533819 180.383933 
L 338.150731 180.383917 
L 339.767998 180.3839 
L 341.385549 180.383884 
L 343.003316 180.383868 
L 344.621238 180.383852 
L 346.239254 180.383836 
L 347.85731 180.383821 
" clip-path="url(#pce19d95047)" style="fill: none; stroke: #ff0000; stroke-opacity: 0.2; stroke-width: 0.25; stroke-linecap: square"/>
   </g>
   <g id="line2d_62">
    <path d="M 299.619076 180.380808 
L 301.207589 180.381334 
L 302.797882 180.381797 
L 304.389962 180.382205 
L 305.983824 180.38256 
L 307.57945 180.382864 
L 309.176812 180.383122 
L 310.775873 180.383336 
L 312.376586 180.383511 
L 313.978899 180.383652 
L 315.582752 180.383763 
L 317.188081 180.383848 
L 318.794815 180.383912 
L 320.402883 180.383956 
L 322.012206 180.383986 
L 323.622706 180.384003 
L 325.234302 180.384011 
L 326.846911 180.384011 
L 328.460451 180.384005 
L 330.074839 180.383996 
L 331.689993 180.383983 
L 333.305829 180.383968 
L 334.922269 180.383953 
L 336.539233 180.383936 
L 338.156645 180.38392 
L 339.774431 180.383903 
L 341.392519 180.383888 
L 343.010843 180.383872 
L 344.629338 180.383857 
L 346.247944 180.383842 
L 347.866605 180.383827 
" clip-path="url(#pce19d95047)" style="fill: none; stroke: #ff0000; stroke-opacity: 0.4; stroke-width: 0.25; stroke-linecap: square"/>
   </g>
   <g id="line2d_63">
    <path d="M 299.619076 180.380808 
L 301.207589 180.381336 
L 302.79787 180.381798 
L 304.389926 180.382206 
L 305.983752 180.38256 
L 307.579329 180.382865 
L 309.176629 180.383122 
L 310.775616 180.383336 
L 312.376243 180.383511 
L 313.978458 180.383652 
L 315.5822 180.383763 
L 317.187405 180.383848 
L 318.794003 180.383911 
L 320.401922 180.383956 
L 322.011083 180.383986 
L 323.621409 180.384003 
L 325.232819 180.38401 
L 326.84523 180.38401 
L 328.45856 180.384005 
L 330.072725 180.383995 
L 331.687645 180.383982 
L 333.303237 180.383967 
L 334.919421 180.383951 
L 336.536119 180.383934 
L 338.153255 180.383918 
L 339.770755 180.383901 
L 341.388548 180.383885 
L 343.006569 180.383869 
L 344.624752 180.383854 
L 346.243039 180.383839 
L 347.861374 180.383823 
" clip-path="url(#pce19d95047)" style="fill: none; stroke: #ff0000; stroke-opacity: 0.6; stroke-width: 0.25; stroke-linecap: square"/>
   </g>
   <g id="line2d_64">
    <path d="M 299.619076 180.380808 
L 301.207589 180.381337 
L 302.797877 180.381798 
L 304.389948 180.382206 
L 305.983795 180.382561 
L 307.579401 180.382865 
L 309.176738 180.383122 
L 310.775769 180.383337 
L 312.376446 180.383512 
L 313.978719 180.383653 
L 315.582526 180.383764 
L 317.187803 180.383849 
L 318.794481 180.383912 
L 320.402486 180.383956 
L 322.011741 180.383986 
L 323.622167 180.384003 
L 325.233683 180.384011 
L 326.846208 180.384011 
L 328.459657 180.384005 
L 330.073949 180.383995 
L 331.689 180.383982 
L 333.30473 180.383968 
L 334.921057 180.383952 
L 336.537903 180.383936 
L 338.155193 180.383919 
L 339.772851 180.383903 
L 341.390807 180.383887 
L 343.008994 180.383871 
L 344.627348 180.383856 
L 346.245809 180.383841 
L 347.864321 180.383826 
" clip-path="url(#pce19d95047)" style="fill: none; stroke: #ff0000; stroke-opacity: 0.8; stroke-width: 0.25; stroke-linecap: square"/>
   </g>
   <g id="line2d_65">
    <path d="M 299.619076 180.380808 
L 301.207589 180.381337 
L 302.797873 180.381799 
L 304.389935 180.382207 
L 305.983769 180.382561 
L 307.579359 180.382865 
L 309.176674 180.383123 
L 310.775679 180.383337 
L 312.376327 180.383512 
L 313.978566 180.383653 
L 315.582335 180.383764 
L 317.187571 180.383849 
L 318.794203 180.383912 
L 320.402157 180.383956 
L 322.011359 180.383986 
L 323.621728 180.384003 
L 325.233183 180.384011 
L 326.845643 180.384011 
L 328.459024 180.384005 
L 330.073244 180.383995 
L 331.688221 180.383982 
L 333.303873 180.383967 
L 334.92012 180.383951 
L 336.536884 180.383935 
L 338.154087 180.383918 
L 339.771658 180.383902 
L 341.389524 180.383886 
L 343.007619 180.38387 
L 344.625879 180.383854 
L 346.244244 180.383839 
L 347.86266 180.383824 
" clip-path="url(#pce19d95047)" style="fill: none; stroke: #ff0000; stroke-width: 0.25; stroke-linecap: square"/>
   </g>
   <g id="line2d_66">
    <path d="M 242.114509 137.903152 
L 242.070155 136.408785 
L 242.026951 134.924883 
L 241.993588 133.45079 
L 241.968673 131.986146 
L 241.9509 130.530554 
L 241.939067 129.083594 
L 241.932089 127.644826 
L 241.929002 126.213798 
L 241.92896 124.790053 
L 241.931238 123.373131 
L 241.935217 121.962576 
L 241.940382 120.557937 
L 241.946309 119.158772 
L 241.952657 117.764648 
L 241.959157 116.375144 
L 241.965604 114.989853 
L 241.971846 113.608381 
L 241.977778 112.23035 
L 241.983334 110.855395 
L 241.988479 109.48317 
L 241.993203 108.113343 
L 241.997516 106.745598 
L 242.001446 105.379637 
L 242.005032 104.015178 
L 242.00832 102.651955 
L 242.011364 101.28972 
L 242.01422 99.928242 
L 242.016947 98.567306 
L 242.019605 97.206715 
L 242.022242 95.846285 
" clip-path="url(#pce19d95047)" style="fill: none; stroke: #ff0000; stroke-opacity: 0.2; stroke-width: 0.25; stroke-linecap: square"/>
   </g>
   <g id="line2d_67">
    <path d="M 242.114509 137.903152 
L 242.072787 136.408709 
L 242.029522 134.924857 
L 241.996028 133.450861 
L 241.970938 131.986358 
L 241.952961 130.53095 
L 241.940911 129.084214 
L 241.933712 127.645708 
L 241.930406 126.214979 
L 241.930156 124.791569 
L 241.932236 123.375015 
L 241.93603 121.964861 
L 241.941024 120.560654 
L 241.946792 119.161948 
L 241.952993 117.768312 
L 241.959356 116.379321 
L 241.965675 114.994568 
L 241.971796 113.613656 
L 241.977613 112.236206 
L 241.983056 110.861852 
L 241.988088 109.490244 
L 241.992698 108.121051 
L 241.996894 106.753954 
L 242.000701 105.388654 
L 242.004156 104.024868 
L 242.007305 102.662328 
L 242.010203 101.300785 
L 242.012906 99.940005 
L 242.015475 98.579774 
L 242.01797 97.219891 
L 242.020452 95.860175 
" clip-path="url(#pce19d95047)" style="fill: none; stroke: #ff0000; stroke-opacity: 0.4; stroke-width: 0.25; stroke-linecap: square"/>
   </g>
   <g id="line2d_68">
    <path d="M 242.114509 137.903152 
L 242.074326 136.408667 
L 242.030957 134.924794 
L 241.997328 133.450755 
L 241.972085 131.986186 
L 241.953951 130.53069 
L 241.941747 129.083845 
L 241.934405 127.645211 
L 241.93097 126.214336 
L 241.930606 124.790761 
L 241.93259 123.374026 
L 241.936306 121.963675 
L 241.941237 120.559256 
L 241.946959 119.160325 
L 241.95313 117.766451 
L 241.959477 116.37721 
L 241.965792 114.992196 
L 241.971922 113.611013 
L 241.977757 112.233282 
L 241.983229 110.858639 
L 241.988298 109.486735 
L 241.992952 108.117238 
L 241.997198 106.749832 
L 242.001062 105.384217 
L 242.00458 104.020111 
L 242.007797 102.657248 
L 242.010766 101.295378 
L 242.013544 99.93427 
L 242.016188 98.573708 
L 242.01876 97.213493 
L 242.021318 95.853443 
" clip-path="url(#pce19d95047)" style="fill: none; stroke: #ff0000; stroke-opacity: 0.6; stroke-width: 0.25; stroke-linecap: square"/>
   </g>
   <g id="line2d_69">
    <path d="M 242.114509 137.903152 
L 242.075229 136.408643 
L 242.031772 134.924784 
L 241.998041 133.450771 
L 241.972693 131.986238 
L 241.954457 130.530788 
L 241.942157 129.083999 
L 241.934726 127.64543 
L 241.931212 126.214628 
L 241.930778 124.791134 
L 241.9327 123.374489 
L 241.936361 121.964236 
L 241.941245 120.559921 
L 241.946927 119.161101 
L 241.95306 117.767344 
L 241.959375 116.378226 
L 241.965662 114.99334 
L 241.971765 113.612291 
L 241.977577 112.234698 
L 241.983025 110.860196 
L 241.988071 109.488438 
L 241.992703 108.11909 
L 241.996927 106.751835 
L 242.000767 105.386374 
L 242.004261 104.022424 
L 242.007453 102.659718 
L 242.010395 101.298007 
L 242.013146 99.937059 
L 242.015763 98.576658 
L 242.018307 97.216605 
L 242.020838 95.856717 
" clip-path="url(#pce19d95047)" style="fill: none; stroke: #ff0000; stroke-opacity: 0.8; stroke-width: 0.25; stroke-linecap: square"/>
   </g>
   <g id="line2d_70">
    <path d="M 242.114509 137.903152 
L 242.075769 136.408629 
L 242.032256 134.924766 
L 241.998466 133.450743 
L 241.97306 131.986195 
L 241.95477 130.530724 
L 241.942422 129.083909 
L 241.93495 127.645309 
L 241.931401 126.214472 
L 241.930937 124.790939 
L 241.932836 123.374251 
L 241.936479 121.963951 
L 241.941349 120.559586 
L 241.947021 119.160713 
L 241.953149 117.766899 
L 241.959461 116.377722 
L 241.965748 114.992774 
L 241.971855 113.61166 
L 241.977671 112.234001 
L 241.983126 110.859431 
L 241.988182 109.487603 
L 241.992823 108.118183 
L 241.997059 106.750855 
L 242.000912 105.38532 
L 242.004419 104.021295 
L 242.007625 102.658513 
L 242.010583 101.296726 
L 242.013349 99.935701 
L 242.015982 98.575222 
L 242.018542 97.215091 
L 242.021088 95.855125 
" clip-path="url(#pce19d95047)" style="fill: none; stroke: #ff0000; stroke-width: 0.25; stroke-linecap: square"/>
   </g>
   <g id="line2d_71">
    <path d="M 265.921648 179.726386 
L 267.369713 179.803891 
L 268.821489 179.865797 
L 270.276228 179.926602 
L 271.733926 179.985 
L 273.194547 180.040035 
L 274.658024 180.091059 
L 276.124269 180.137675 
L 277.593175 180.179697 
L 279.064623 180.217102 
L 280.538483 180.249995 
L 282.014622 180.278576 
L 283.492901 180.303113 
L 284.973182 180.323914 
L 286.455324 180.341315 
L 287.93919 180.355662 
L 289.424644 180.367297 
L 290.911551 180.376552 
L 292.39978 180.383744 
L 293.889202 180.389167 
L 295.379691 180.393094 
L 296.871125 180.395771 
L 298.363387 180.397423 
L 299.856363 180.398247 
L 301.349942 180.398421 
L 302.844021 180.398101 
L 304.338499 180.397423 
L 305.833283 180.396507 
L 307.328283 180.395459 
L 308.823418 180.394372 
L 310.31861 180.393232 
" clip-path="url(#pce19d95047)" style="fill: none; stroke: #ff0000; stroke-opacity: 0.2; stroke-width: 0.25; stroke-linecap: square"/>
   </g>
   <g id="line2d_72">
    <path d="M 265.921648 179.726386 
L 267.36954 179.807053 
L 268.821355 179.868679 
L 270.276162 179.929172 
L 271.733956 179.987253 
L 273.194698 180.04199 
L 274.658323 180.092751 
L 276.124741 180.139148 
L 277.593847 180.181001 
L 279.06552 180.218284 
L 280.539633 180.2511 
L 282.01605 180.279639 
L 283.494634 180.304161 
L 284.975246 180.324965 
L 286.457747 180.342375 
L 287.941999 180.356729 
L 289.427865 180.368361 
L 290.91521 180.377599 
L 292.403903 180.384755 
L 293.893815 180.390121 
L 295.384818 180.39397 
L 296.876792 180.396548 
L 298.369618 180.398082 
L 299.86318 180.398769 
L 301.357369 180.39879 
L 302.852079 180.398299 
L 304.347211 180.397433 
L 305.842667 180.39631 
L 307.33836 180.395035 
L 308.834205 180.393696 
L 310.330125 180.392414 
" clip-path="url(#pce19d95047)" style="fill: none; stroke: #ff0000; stroke-opacity: 0.4; stroke-width: 0.25; stroke-linecap: square"/>
   </g>
   <g id="line2d_73">
    <path d="M 265.921648 179.726386 
L 267.369445 179.808747 
L 268.821253 179.870148 
L 270.276037 179.930415 
L 271.73379 179.988278 
L 273.194474 180.042814 
L 274.658023 180.093393 
L 276.124348 180.13963 
L 277.593343 180.181342 
L 279.064889 180.218502 
L 280.538859 180.251208 
L 282.015117 180.279649 
L 283.493527 180.304082 
L 284.973951 180.324805 
L 286.456248 180.342143 
L 287.940282 180.356433 
L 289.425917 180.368013 
L 290.913017 180.37721 
L 292.401452 180.38434 
L 293.891092 180.389696 
L 295.381812 180.393551 
L 296.873491 180.396154 
L 298.36601 180.397727 
L 299.859255 180.398471 
L 301.353116 180.398563 
L 302.847488 180.398158 
L 304.342272 180.397391 
L 305.837372 180.396381 
L 307.3327 180.39523 
L 308.828173 180.394028 
L 310.323713 180.392834 
" clip-path="url(#pce19d95047)" style="fill: none; stroke: #ff0000; stroke-opacity: 0.6; stroke-width: 0.25; stroke-linecap: square"/>
   </g>
   <g id="line2d_74">
    <path d="M 265.921648 179.726386 
L 267.369392 179.809678 
L 268.821215 179.87095 
L 270.276024 179.9311 
L 271.733811 179.988863 
L 273.194538 180.043314 
L 274.658139 180.093825 
L 276.124525 180.140008 
L 277.59359 180.181678 
L 279.065215 180.218805 
L 280.539271 180.251487 
L 282.015625 180.279911 
L 283.494139 180.304331 
L 284.974674 180.325045 
L 286.457091 180.342378 
L 287.941252 180.356665 
L 289.42702 180.368243 
L 290.914261 180.377439 
L 292.402843 180.384565 
L 293.892638 180.389914 
L 295.383518 180.393758 
L 296.875363 180.396342 
L 298.368054 180.397892 
L 299.861476 180.398604 
L 301.355518 180.398657 
L 302.850077 180.398205 
L 304.345052 180.397384 
L 305.840347 180.396313 
L 307.335873 180.395094 
L 308.831547 180.393818 
L 310.327293 180.392572 
" clip-path="url(#pce19d95047)" style="fill: none; stroke: #ff0000; stroke-opacity: 0.8; stroke-width: 0.25; stroke-linecap: square"/>
   </g>
   <g id="line2d_75">
    <path d="M 265.921648 179.726386 
L 267.369363 179.810182 
L 268.821184 179.871373 
L 270.275984 179.931451 
L 271.733756 179.989151 
L 273.194462 180.043549 
L 274.658036 180.094013 
L 276.12439 180.140156 
L 277.593417 180.18179 
L 279.064999 180.218886 
L 280.539006 180.251539 
L 282.015307 180.279937 
L 283.493763 180.304333 
L 284.974235 180.325026 
L 286.456585 180.34234 
L 287.940675 180.356611 
L 289.426369 180.368175 
L 290.913531 180.377359 
L 292.402032 180.384476 
L 293.891741 180.389821 
L 295.382533 180.393663 
L 296.874287 180.396251 
L 298.366883 180.397808 
L 299.860208 180.398533 
L 301.354152 180.398604 
L 302.848609 180.398176 
L 304.34348 180.397383 
L 305.83867 180.396344 
L 307.33409 180.395162 
L 308.829656 180.393926 
L 310.325292 180.392711 
" clip-path="url(#pce19d95047)" style="fill: none; stroke: #ff0000; stroke-width: 0.25; stroke-linecap: square"/>
   </g>
   <g id="line2d_76">
    <path d="M 230.31381 223.661943 
L 230.313444 225.534424 
L 230.313351 227.404421 
L 230.312899 229.272277 
L 230.312211 231.13831 
L 230.311385 233.002806 
L 230.310495 234.866029 
L 230.309597 236.728214 
L 230.308732 238.589576 
L 230.307926 240.450304 
L 230.307195 242.310564 
L 230.306548 244.170504 
L 230.305987 246.030251 
L 230.305511 247.889912 
L 230.305115 249.749578 
L 230.304792 251.609325 
L 230.304535 253.46921 
L 230.304335 255.329281 
L 230.304184 257.18957 
L 230.304075 259.050097 
L 230.304001 260.910874 
L 230.303955 262.771903 
L 230.303932 264.633175 
L 230.303927 266.494679 
L 230.303934 268.356394 
L 230.303952 270.218296 
L 230.303977 272.080356 
L 230.304006 273.942545 
L 230.304038 275.80483 
L 230.304072 277.667179 
L 230.304105 279.52956 
" clip-path="url(#pce19d95047)" style="fill: none; stroke: #ff0000; stroke-opacity: 0.2; stroke-width: 0.25; stroke-linecap: square"/>
   </g>
   <g id="line2d_77">
    <path d="M 230.31381 223.661943 
L 230.313269 225.534424 
L 230.31318 227.404403 
L 230.31274 229.272225 
L 230.312069 231.138205 
L 230.311262 233.002632 
L 230.310392 234.865767 
L 230.309515 236.727849 
L 230.308668 238.58909 
L 230.307878 240.449679 
L 230.307162 242.309785 
L 230.306527 244.169554 
L 230.305977 246.029113 
L 230.30551 247.88857 
L 230.305121 249.748018 
L 230.304803 251.607529 
L 230.30455 253.467166 
L 230.304353 255.326972 
L 230.304205 257.186983 
L 230.304097 259.047219 
L 230.304024 260.907692 
L 230.303978 262.768404 
L 230.303954 264.629349 
L 230.303947 266.490514 
L 230.303953 268.351881 
L 230.303969 270.213425 
L 230.303992 272.075121 
L 230.304018 273.936937 
L 230.304048 275.798843 
L 230.304079 277.660808 
L 230.30411 279.522801 
" clip-path="url(#pce19d95047)" style="fill: none; stroke: #ff0000; stroke-opacity: 0.4; stroke-width: 0.25; stroke-linecap: square"/>
   </g>
   <g id="line2d_78">
    <path d="M 230.31381 223.661943 
L 230.313135 225.534424 
L 230.313052 227.404413 
L 230.312623 229.272256 
L 230.311967 231.138266 
L 230.311175 233.002733 
L 230.310321 234.865919 
L 230.309458 236.728061 
L 230.308624 238.589372 
L 230.307845 240.450041 
L 230.307137 242.310236 
L 230.30651 244.170104 
L 230.305965 246.02977 
L 230.305501 247.889345 
L 230.305115 249.748918 
L 230.304799 251.608563 
L 230.304547 253.468342 
L 230.30435 255.328299 
L 230.304202 257.188467 
L 230.304094 259.048868 
L 230.304021 260.909513 
L 230.303974 262.770403 
L 230.30395 264.631532 
L 230.303943 266.492887 
L 230.303949 268.354449 
L 230.303965 270.216192 
L 230.303987 272.078091 
L 230.304014 273.940114 
L 230.304044 275.80223 
L 230.304076 277.664407 
L 230.304107 279.526614 
" clip-path="url(#pce19d95047)" style="fill: none; stroke: #ff0000; stroke-opacity: 0.6; stroke-width: 0.25; stroke-linecap: square"/>
   </g>
   <g id="line2d_79">
    <path d="M 230.31381 223.661943 
L 230.313032 225.534424 
L 230.312955 227.404408 
L 230.312537 229.272238 
L 230.311892 231.138231 
L 230.311114 233.002674 
L 230.310272 234.865831 
L 230.309419 236.727939 
L 230.308595 238.589209 
L 230.307824 240.449833 
L 230.307123 242.309976 
L 230.306501 244.169787 
L 230.30596 246.029392 
L 230.3055 247.8889 
L 230.305116 249.748401 
L 230.304802 251.60797 
L 230.304551 253.467668 
L 230.304355 255.327539 
L 230.304208 257.187618 
L 230.304101 259.047926 
L 230.304027 260.908474 
L 230.303981 262.769263 
L 230.303956 264.630289 
L 230.303949 266.491537 
L 230.303955 268.35299 
L 230.30397 270.214622 
L 230.303992 272.076407 
L 230.304019 273.938315 
L 230.304048 275.800314 
L 230.304079 277.662374 
L 230.304109 279.524462 
" clip-path="url(#pce19d95047)" style="fill: none; stroke: #ff0000; stroke-opacity: 0.8; stroke-width: 0.25; stroke-linecap: square"/>
   </g>
   <g id="line2d_80">
    <path d="M 230.31381 223.661943 
L 230.312952 225.534424 
L 230.312882 227.404411 
L 230.312472 229.272248 
L 230.311837 231.138251 
L 230.311068 233.002708 
L 230.310235 234.865882 
L 230.30939 236.728009 
L 230.308572 238.589303 
L 230.307807 240.449952 
L 230.307111 242.310125 
L 230.306492 244.169969 
L 230.305954 246.029609 
L 230.305496 247.889155 
L 230.305113 249.748696 
L 230.3048 251.608309 
L 230.30455 253.468053 
L 230.304355 255.327973 
L 230.304208 257.188103 
L 230.304101 259.048463 
L 230.304027 260.909066 
L 230.303981 262.769912 
L 230.303956 264.630996 
L 230.303949 266.492304 
L 230.303954 268.353818 
L 230.303969 270.215513 
L 230.303991 272.077361 
L 230.304018 273.939333 
L 230.304047 275.801398 
L 230.304078 277.663523 
L 230.304108 279.525677 
" clip-path="url(#pce19d95047)" style="fill: none; stroke: #ff0000; stroke-width: 0.25; stroke-linecap: square"/>
   </g>
   <g id="line2d_81">
    <path d="M 206.395865 169.363281 
L 204.949328 169.27792 
L 203.498663 169.212328 
L 202.044886 169.148172 
L 200.588005 169.086748 
L 199.128062 169.028995 
L 197.665131 168.975546 
L 196.199307 168.926779 
L 194.730704 168.882862 
L 193.25945 168.8438 
L 191.78568 168.80947 
L 190.309536 168.779656 
L 188.831163 168.754075 
L 187.350707 168.732403 
L 185.868311 168.714291 
L 184.38412 168.69938 
L 182.898275 168.687313 
L 181.410916 168.677745 
L 179.922177 168.670346 
L 178.432193 168.664808 
L 176.941092 168.660846 
L 175.449 168.658202 
L 173.956039 168.656642 
L 172.462325 168.655956 
L 170.967972 168.655962 
L 169.473087 168.656496 
L 167.977773 168.657419 
L 166.482127 168.658607 
L 164.98624 168.659954 
L 163.490198 168.661368 
L 161.994079 168.662712 
" clip-path="url(#pce19d95047)" style="fill: none; stroke: #ff0000; stroke-opacity: 0.2; stroke-width: 0.25; stroke-linecap: square"/>
   </g>
   <g id="line2d_82">
    <path d="M 206.395865 169.363281 
L 204.949432 169.276173 
L 203.49877 169.21084 
L 202.04501 169.146942 
L 200.588163 169.085765 
L 199.128271 169.028238 
L 197.665407 168.974991 
L 196.199667 168.926399 
L 194.731165 168.882633 
L 193.260027 168.8437 
L 191.78639 168.809482 
L 190.310394 168.779766 
L 188.832184 168.754274 
L 187.351905 168.732683 
L 185.869701 168.714647 
L 184.385716 168.699808 
L 182.900091 168.687808 
L 181.412965 168.678301 
L 179.924473 168.670956 
L 178.434749 168.665463 
L 176.94392 168.661537 
L 175.452112 168.658917 
L 173.959447 168.657369 
L 172.466041 168.656683 
L 170.972006 168.656675 
L 169.477449 168.657183 
L 167.982473 168.658064 
L 166.487175 168.659196 
L 164.991644 168.660472 
L 163.495966 168.661799 
L 162.000218 168.663121 
" clip-path="url(#pce19d95047)" style="fill: none; stroke: #ff0000; stroke-opacity: 0.4; stroke-width: 0.25; stroke-linecap: square"/>
   </g>
   <g id="line2d_83">
    <path d="M 206.395865 169.363281 
L 204.94949 169.275208 
L 203.498813 169.210013 
L 202.04503 169.146238 
L 200.588151 169.085164 
L 199.128219 169.027723 
L 197.665307 168.974542 
L 196.19951 168.926001 
L 194.730943 168.882271 
L 193.259732 168.843363 
L 191.786013 168.809162 
L 190.309928 168.779455 
L 188.83162 168.753967 
L 187.351235 168.732376 
L 185.868919 168.714335 
L 184.384813 168.699488 
L 182.899061 168.687478 
L 181.4118 168.677959 
L 179.923167 168.670601 
L 178.433294 168.665096 
L 176.942311 168.661158 
L 175.450344 168.65853 
L 173.957512 168.656977 
L 172.463935 168.656292 
L 170.969724 168.65629 
L 169.474986 168.656809 
L 167.979825 168.65771 
L 166.484337 168.658868 
L 164.988612 168.660179 
L 163.492737 168.661548 
L 161.99679 168.662883 
" clip-path="url(#pce19d95047)" style="fill: none; stroke: #ff0000; stroke-opacity: 0.6; stroke-width: 0.25; stroke-linecap: square"/>
   </g>
   <g id="line2d_84">
    <path d="M 206.395865 169.363281 
L 204.949522 169.274687 
L 203.498846 169.209579 
L 202.04507 169.145881 
L 200.588204 169.084873 
L 199.128291 169.027488 
L 197.665404 168.974357 
L 196.199637 168.925859 
L 194.731105 168.882168 
L 193.259934 168.843296 
L 191.786261 168.809127 
L 190.310226 168.779451 
L 188.831973 168.753992 
L 187.351647 168.732429 
L 185.869394 168.714415 
L 184.385356 168.699592 
L 182.899674 168.687604 
L 181.412488 168.678106 
L 179.923934 168.670768 
L 178.434143 168.66528 
L 176.943245 168.661357 
L 175.451365 168.658741 
L 173.958625 168.657197 
L 172.465141 168.656517 
L 170.971025 168.656516 
L 169.476386 168.657033 
L 167.981325 168.657927 
L 166.485938 168.659074 
L 164.990318 168.660369 
L 163.494548 168.661719 
L 161.998707 168.663047 
" clip-path="url(#pce19d95047)" style="fill: none; stroke: #ff0000; stroke-opacity: 0.8; stroke-width: 0.25; stroke-linecap: square"/>
   </g>
   <g id="line2d_85">
    <path d="M 206.395865 169.363281 
L 204.94954 169.2744 
L 203.498858 169.20934 
L 202.045075 169.145679 
L 200.588198 169.084702 
L 199.128272 169.027341 
L 197.665368 168.974228 
L 196.199582 168.925744 
L 194.731028 168.882065 
L 193.259833 168.843201 
L 191.786132 168.809038 
L 190.310067 168.779367 
L 188.831782 168.75391 
L 187.351422 168.732347 
L 185.869131 168.714331 
L 184.385054 168.699506 
L 182.899332 168.687515 
L 181.412103 168.678012 
L 179.923504 168.670668 
L 178.433666 168.665175 
L 176.94272 168.661247 
L 175.45079 168.658626 
L 173.957999 168.657078 
L 172.464462 168.656395 
L 170.970293 168.656393 
L 169.475599 168.656911 
L 167.980482 168.657807 
L 166.485039 168.658959 
L 164.989361 168.660261 
L 163.493533 168.661619 
L 161.997634 168.662951 
" clip-path="url(#pce19d95047)" style="fill: none; stroke: #ff0000; stroke-width: 0.25; stroke-linecap: square"/>
   </g>
   <g id="line2d_86">
    <path d="M 231.358511 202.403565 
L 231.220402 203.970892 
L 231.109692 205.540544 
L 231.003445 207.110334 
L 230.903363 208.680075 
L 230.810636 210.249572 
L 230.726009 211.818627 
L 230.649855 213.387046 
L 230.582241 214.954646 
L 230.522995 216.521268 
L 230.471763 218.086773 
L 230.428061 219.651053 
L 230.391316 221.214025 
L 230.360904 222.775637 
L 230.336176 224.33586 
L 230.316482 225.894694 
L 230.301191 227.452156 
L 230.289698 229.008288 
L 230.281442 230.563144 
L 230.275902 232.116796 
L 230.272611 233.669325 
L 230.271148 235.220824 
L 230.271144 236.771391 
L 230.27228 238.32113 
L 230.27428 239.870149 
L 230.276913 241.418557 
L 230.279986 242.966463 
L 230.28334 244.513976 
L 230.286847 246.061199 
L 230.290402 247.608234 
L 230.293876 249.155174 
" clip-path="url(#pce19d95047)" style="fill: none; stroke: #ff0000; stroke-opacity: 0.2; stroke-width: 0.25; stroke-linecap: square"/>
   </g>
   <g id="line2d_87">
    <path d="M 231.358511 202.403565 
L 231.218674 203.970739 
L 231.108441 205.540456 
L 231.00263 207.110337 
L 230.902933 208.680196 
L 230.810533 210.249836 
L 230.726179 211.81906 
L 230.650246 213.387673 
L 230.582812 214.955495 
L 230.523712 216.522366 
L 230.472603 218.088148 
L 230.429007 219.652733 
L 230.39236 221.216038 
L 230.362039 222.778011 
L 230.337399 224.338624 
L 230.31779 225.897874 
L 230.302577 227.45578 
L 230.291158 229.012382 
L 230.282965 230.567734 
L 230.277478 232.121907 
L 230.274227 233.674982 
L 230.272792 235.227049 
L 230.272804 236.778208 
L 230.273945 238.328559 
L 230.27594 239.878211 
L 230.27856 241.427271 
L 230.281613 242.975848 
L 230.28494 244.524046 
L 230.288412 246.071971 
L 230.291922 247.61972 
L 230.295404 249.167387 
" clip-path="url(#pce19d95047)" style="fill: none; stroke: #ff0000; stroke-opacity: 0.4; stroke-width: 0.25; stroke-linecap: square"/>
   </g>
   <g id="line2d_88">
    <path d="M 231.358511 202.403565 
L 231.217627 203.970645 
L 231.107581 205.540357 
L 231.001912 207.110212 
L 230.902314 208.680024 
L 230.809977 210.249597 
L 230.725654 211.818734 
L 230.649729 213.387241 
L 230.582284 214.95494 
L 230.523163 216.521671 
L 230.472025 218.087296 
L 230.428397 219.651707 
L 230.391715 221.214823 
L 230.361359 222.77659 
L 230.336684 224.336981 
L 230.31704 225.895995 
L 230.301794 227.45365 
L 230.290342 229.009986 
L 230.282119 230.565059 
L 230.276604 232.118939 
L 230.273329 233.671708 
L 230.271875 235.223458 
L 230.271873 236.774287 
L 230.273003 238.324298 
L 230.274993 239.873599 
L 230.277612 241.422299 
L 230.280668 242.970507 
L 230.284001 244.518329 
L 230.287482 246.065869 
L 230.291007 247.613229 
L 230.294482 249.1605 
" clip-path="url(#pce19d95047)" style="fill: none; stroke: #ff0000; stroke-opacity: 0.6; stroke-width: 0.25; stroke-linecap: square"/>
   </g>
   <g id="line2d_89">
    <path d="M 231.358511 202.403565 
L 231.217055 203.970594 
L 231.107143 205.540326 
L 231.001583 207.110209 
L 230.902074 208.680058 
L 230.809811 210.249677 
L 230.725552 211.81887 
L 230.649684 213.387443 
L 230.582293 214.955216 
L 230.523223 216.52203 
L 230.472134 218.087749 
L 230.428555 219.652262 
L 230.391921 221.215489 
L 230.361611 222.777377 
L 230.336979 224.337897 
L 230.317376 225.897047 
L 230.302169 227.454848 
L 230.290752 229.011337 
L 230.28256 230.566571 
L 230.277074 232.120619 
L 230.273824 233.673563 
L 230.272391 235.225494 
L 230.272406 236.776509 
L 230.27355 238.326714 
L 230.27555 239.876213 
L 230.278176 241.425116 
L 230.281236 242.97353 
L 230.284571 244.521563 
L 230.288052 246.069319 
L 230.291574 247.616895 
L 230.295055 249.164387 
" clip-path="url(#pce19d95047)" style="fill: none; stroke: #ff0000; stroke-opacity: 0.8; stroke-width: 0.25; stroke-linecap: square"/>
   </g>
   <g id="line2d_90">
    <path d="M 231.358511 202.403565 
L 231.216717 203.970563 
L 231.106866 205.540294 
L 231.001348 207.110168 
L 230.901868 208.68 
L 230.809624 210.249597 
L 230.725377 211.818761 
L 230.649516 213.387299 
L 230.582128 214.955032 
L 230.523059 216.521799 
L 230.471968 218.087466 
L 230.428385 219.651922 
L 230.391744 221.215087 
L 230.361426 222.776907 
L 230.336784 224.337355 
L 230.31717 225.896428 
L 230.30195 227.454147 
L 230.290521 229.01055 
L 230.282316 230.565694 
L 230.276817 232.119648 
L 230.273555 233.672494 
L 230.27211 235.224323 
L 230.272114 236.775235 
L 230.273248 238.325332 
L 230.27524 239.874721 
L 230.277859 241.423512 
L 230.280913 242.971812 
L 230.284243 244.519728 
L 230.287721 246.067365 
L 230.29124 247.614822 
L 230.294715 249.162193 
" clip-path="url(#pce19d95047)" style="fill: none; stroke: #ff0000; stroke-width: 0.25; stroke-linecap: square"/>
   </g>
   <g id="patch_15">
    <path d="M 103.104 307.584 
L 103.104 41.472 
" style="fill: none; stroke: #000000; stroke-width: 0.8; stroke-linejoin: miter; stroke-linecap: square"/>
   </g>
   <g id="patch_16">
    <path d="M 369.216 307.584 
L 369.216 41.472 
" style="fill: none; stroke: #000000; stroke-width: 0.8; stroke-linejoin: miter; stroke-linecap: square"/>
   </g>
   <g id="patch_17">
    <path d="M 103.104 307.584 
L 369.216 307.584 
" style="fill: none; stroke: #000000; stroke-width: 0.8; stroke-linejoin: miter; stroke-linecap: square"/>
   </g>
   <g id="patch_18">
    <path d="M 103.104 41.472 
L 369.216 41.472 
" style="fill: none; stroke: #000000; stroke-width: 0.8; stroke-linejoin: miter; stroke-linecap: square"/>
   </g>
   <g id="text_19">
    <!-- Time:  95 ms -->
    <g transform="translate(264.253887 54.7776) scale(0.1 -0.1)">
     <defs>
      <path id="DejaVuSans-54" d="M -19 4666 
L 3928 4666 
L 3928 4134 
L 2272 4134 
L 2272 0 
L 1638 0 
L 1638 4134 
L -19 4134 
L -19 4666 
z
" transform="scale(0.015625)"/>
      <path id="DejaVuSans-69" d="M 603 3500 
L 1178 3500 
L 1178 0 
L 603 0 
L 603 3500 
z
M 603 4863 
L 1178 4863 
L 1178 4134 
L 603 4134 
L 603 4863 
z
" transform="scale(0.015625)"/>
      <path id="DejaVuSans-6d" d="M 3328 2828 
Q 3544 3216 3844 3400 
Q 4144 3584 4550 3584 
Q 5097 3584 5394 3201 
Q 5691 2819 5691 2113 
L 5691 0 
L 5113 0 
L 5113 2094 
Q 5113 2597 4934 2840 
Q 4756 3084 4391 3084 
Q 3944 3084 3684 2787 
Q 3425 2491 3425 1978 
L 3425 0 
L 2847 0 
L 2847 2094 
Q 2847 2600 2669 2842 
Q 2491 3084 2119 3084 
Q 1678 3084 1418 2786 
Q 1159 2488 1159 1978 
L 1159 0 
L 581 0 
L 581 3500 
L 1159 3500 
L 1159 2956 
Q 1356 3278 1631 3431 
Q 1906 3584 2284 3584 
Q 2666 3584 2933 3390 
Q 3200 3197 3328 2828 
z
" transform="scale(0.015625)"/>
      <path id="DejaVuSans-65" d="M 3597 1894 
L 3597 1613 
L 953 1613 
Q 991 1019 1311 708 
Q 1631 397 2203 397 
Q 2534 397 2845 478 
Q 3156 559 3463 722 
L 3463 178 
Q 3153 47 2828 -22 
Q 2503 -91 2169 -91 
Q 1331 -91 842 396 
Q 353 884 353 1716 
Q 353 2575 817 3079 
Q 1281 3584 2069 3584 
Q 2775 3584 3186 3129 
Q 3597 2675 3597 1894 
z
M 3022 2063 
Q 3016 2534 2758 2815 
Q 2500 3097 2075 3097 
Q 1594 3097 1305 2825 
Q 1016 2553 972 2059 
L 3022 2063 
z
" transform="scale(0.015625)"/>
      <path id="DejaVuSans-3a" d="M 750 794 
L 1409 794 
L 1409 0 
L 750 0 
L 750 794 
z
M 750 3309 
L 1409 3309 
L 1409 2516 
L 750 2516 
L 750 3309 
z
" transform="scale(0.015625)"/>
      <path id="DejaVuSans-20" transform="scale(0.015625)"/>
      <path id="DejaVuSans-39" d="M 703 97 
L 703 672 
Q 941 559 1184 500 
Q 1428 441 1663 441 
Q 2288 441 2617 861 
Q 2947 1281 2994 2138 
Q 2813 1869 2534 1725 
Q 2256 1581 1919 1581 
Q 1219 1581 811 2004 
Q 403 2428 403 3163 
Q 403 3881 828 4315 
Q 1253 4750 1959 4750 
Q 2769 4750 3195 4129 
Q 3622 3509 3622 2328 
Q 3622 1225 3098 567 
Q 2575 -91 1691 -91 
Q 1453 -91 1209 -44 
Q 966 3 703 97 
z
M 1959 2075 
Q 2384 2075 2632 2365 
Q 2881 2656 2881 3163 
Q 2881 3666 2632 3958 
Q 2384 4250 1959 4250 
Q 1534 4250 1286 3958 
Q 1038 3666 1038 3163 
Q 1038 2656 1286 2365 
Q 1534 2075 1959 2075 
z
" transform="scale(0.015625)"/>
      <path id="DejaVuSans-35" d="M 691 4666 
L 3169 4666 
L 3169 4134 
L 1269 4134 
L 1269 2991 
Q 1406 3038 1543 3061 
Q 1681 3084 1819 3084 
Q 2600 3084 3056 2656 
Q 3513 2228 3513 1497 
Q 3513 744 3044 326 
Q 2575 -91 1722 -91 
Q 1428 -91 1123 -41 
Q 819 9 494 109 
L 494 744 
Q 775 591 1075 516 
Q 1375 441 1709 441 
Q 2250 441 2565 725 
Q 2881 1009 2881 1497 
Q 2881 1984 2565 2268 
Q 2250 2553 1709 2553 
Q 1456 2553 1204 2497 
Q 953 2441 691 2322 
L 691 4666 
z
" transform="scale(0.015625)"/>
      <path id="DejaVuSans-73" d="M 2834 3397 
L 2834 2853 
Q 2591 2978 2328 3040 
Q 2066 3103 1784 3103 
Q 1356 3103 1142 2972 
Q 928 2841 928 2578 
Q 928 2378 1081 2264 
Q 1234 2150 1697 2047 
L 1894 2003 
Q 2506 1872 2764 1633 
Q 3022 1394 3022 966 
Q 3022 478 2636 193 
Q 2250 -91 1575 -91 
Q 1294 -91 989 -36 
Q 684 19 347 128 
L 347 722 
Q 666 556 975 473 
Q 1284 391 1588 391 
Q 1994 391 2212 530 
Q 2431 669 2431 922 
Q 2431 1156 2273 1281 
Q 2116 1406 1581 1522 
L 1381 1569 
Q 847 1681 609 1914 
Q 372 2147 372 2553 
Q 372 3047 722 3315 
Q 1072 3584 1716 3584 
Q 2034 3584 2315 3537 
Q 2597 3491 2834 3397 
z
" transform="scale(0.015625)"/>
     </defs>
     <use xlink:href="#DejaVuSans-54"/>
     <use xlink:href="#DejaVuSans-69" x="57.958984"/>
     <use xlink:href="#DejaVuSans-6d" x="85.742188"/>
     <use xlink:href="#DejaVuSans-65" x="183.154297"/>
     <use xlink:href="#DejaVuSans-3a" x="244.677734"/>
     <use xlink:href="#DejaVuSans-20" x="278.369141"/>
     <use xlink:href="#DejaVuSans-20" x="310.15625"/>
     <use xlink:href="#DejaVuSans-39" x="341.943359"/>
     <use xlink:href="#DejaVuSans-35" x="405.566406"/>
     <use xlink:href="#DejaVuSans-20" x="469.189453"/>
     <use xlink:href="#DejaVuSans-6d" x="500.976562"/>
     <use xlink:href="#DejaVuSans-73" x="598.388672"/>
    </g>
   </g>
  </g>
 </g>
 <defs>
  <clipPath id="pce19d95047">
   <rect x="103.104" y="41.472" width="266.112" height="266.112"/>
  </clipPath>
 </defs>
</svg>
