<?xml version="1.0" encoding="utf-8" standalone="no"?>
<!DOCTYPE svg PUBLIC "-//W3C//DTD SVG 1.1//EN"
  "http://www.w3.org/Graphics/SVG/1.1/DTD/svg11.dtd">
<svg xmlns:xlink="http://www.w3.org/1999/xlink" width="460.8pt" height="345.6pt" viewBox="0 0 460.8 345.6" xmlns="http://www.w3.org/2000/svg" version="1.1">
 <metadata>
  <rdf:RDF xmlns:dc="http://purl.org/dc/elements/1.1/" xmlns:cc="http://creativecommons.org/ns#" xmlns:rdf="http://www.w3.org/1999/02/22-rdf-syntax-ns#">
   <cc:Work>
    <dc:type rdf:resource="http://purl.org/dc/dcmitype/StillImage"/>
    <dc:date>2024-01-23T14:21:35.294758</dc:date>
    <dc:format>image/svg+xml</dc:format>
    <dc:creator>
     <cc:Agent>
      <dc:title>Matplotlib v3.8.2, https://matplotlib.org/</dc:title>
     </cc:Agent>
    </dc:creator>
   </cc:Work>
  </rdf:RDF>
 </metadata>
 <defs>
  <style type="text/css">*{stroke-linejoin: round; stroke-linecap: butt}</style>
 </defs>
 <g id="figure_1">
  <g id="patch_1">
   <path d="M 0 345.6 
L 460.8 345.6 
L 460.8 0 
L 0 0 
z
" style="fill: #ffffff"/>
  </g>
  <g id="axes_1">
   <g id="patch_2">
    <path d="M 103.104 307.584 
L 369.216 307.584 
L 369.216 41.472 
L 103.104 41.472 
z
" style="fill: #ffffff"/>
   </g>
   <g id="patch_3">
    <path d="M 143.139967 165.844795 
L 131.497567 165.844693 
L 131.497517 171.499573 
L 143.139917 171.499675 
z
" clip-path="url(#p5c5cf19686)" style="fill: #00008b"/>
   </g>
   <g id="patch_4">
    <path d="M 244.84339 74.396992 
L 244.843203 62.754592 
L 239.188323 62.754683 
L 239.18851 74.397083 
z
" clip-path="url(#p5c5cf19686)" style="fill: #800000"/>
   </g>
   <g id="patch_5">
    <path d="M 227.476735 269.656256 
L 227.476713 281.298656 
L 233.131593 281.298667 
L 233.131615 269.656267 
z
" clip-path="url(#p5c5cf19686)" style="fill: #006400"/>
   </g>
   <g id="patch_6">
    <path d="M 331.294137 183.211277 
L 342.936537 183.211287 
L 342.936542 177.556407 
L 331.294142 177.556397 
z
" clip-path="url(#p5c5cf19686)" style="fill: #4b0082"/>
   </g>
   <g id="patch_7">
    <path d="M 244.844947 119.066065 
L 244.843347 107.423665 
L 239.188467 107.424442 
L 239.190067 119.066842 
z
" clip-path="url(#p5c5cf19686)" style="fill: #0000ff"/>
   </g>
   <g id="patch_8">
    <path d="M 181.049876 165.837716 
L 169.407504 165.863096 
L 169.419832 171.517963 
L 181.062204 171.492582 
z
" clip-path="url(#p5c5cf19686)" style="fill: #ff0000"/>
   </g>
   <g id="patch_9">
    <path d="M 290.62542 183.205805 
L 302.26782 183.208093 
L 302.268931 177.553214 
L 290.626532 177.550925 
z
" clip-path="url(#p5c5cf19686)" style="fill: #dbdc56"/>
   </g>
   <g id="patch_10">
    <path d="M 245.611518 146.442096 
L 244.47735 134.855072 
L 238.849367 135.405953 
L 239.983534 146.992978 
z
" clip-path="url(#p5c5cf19686)" style="fill: #9400d3"/>
   </g>
   <g id="patch_11">
    <path d="M 257.453491 182.8114 
L 269.060412 181.90319 
L 268.619281 176.265542 
L 257.01236 177.173753 
z
" clip-path="url(#p5c5cf19686)" style="fill: #1e90ff"/>
   </g>
   <g id="patch_12">
    <path d="M 227.458305 214.10032 
L 227.514591 225.742584 
L 233.169405 225.715244 
L 233.113119 214.072981 
z
" clip-path="url(#p5c5cf19686)" style="fill: #ff4500"/>
   </g>
   <g id="patch_13">
    <path d="M 214.857969 166.285684 
L 203.251804 167.203503 
L 203.697601 172.840783 
L 215.303767 171.922964 
z
" clip-path="url(#p5c5cf19686)" style="fill: #7cfc00"/>
   </g>
   <g id="patch_14">
    <path d="M 228.392518 193.708115 
L 229.35158 205.310945 
L 234.98724 204.845115 
L 234.028178 193.242285 
z
" clip-path="url(#p5c5cf19686)" style="fill: #ff00ff"/>
   </g>
   <g id="matplotlib.axis_1">
    <g id="xtick_1">
     <g id="line2d_1">
      <defs>
       <path id="m4ec03969a6" d="M 0 0 
L 0 3.5 
" style="stroke: #000000; stroke-width: 0.8"/>
      </defs>
      <g>
       <use xlink:href="#m4ec03969a6" x="103.104" y="307.584" style="stroke: #000000; stroke-width: 0.8"/>
      </g>
     </g>
     <g id="text_1">
      <!-- −40 -->
      <g transform="translate(92.551656 322.182437) scale(0.1 -0.1)">
       <defs>
        <path id="DejaVuSans-2212" d="M 678 2272 
L 4684 2272 
L 4684 1741 
L 678 1741 
L 678 2272 
z
" transform="scale(0.015625)"/>
        <path id="DejaVuSans-34" d="M 2419 4116 
L 825 1625 
L 2419 1625 
L 2419 4116 
z
M 2253 4666 
L 3047 4666 
L 3047 1625 
L 3713 1625 
L 3713 1100 
L 3047 1100 
L 3047 0 
L 2419 0 
L 2419 1100 
L 313 1100 
L 313 1709 
L 2253 4666 
z
" transform="scale(0.015625)"/>
        <path id="DejaVuSans-30" d="M 2034 4250 
Q 1547 4250 1301 3770 
Q 1056 3291 1056 2328 
Q 1056 1369 1301 889 
Q 1547 409 2034 409 
Q 2525 409 2770 889 
Q 3016 1369 3016 2328 
Q 3016 3291 2770 3770 
Q 2525 4250 2034 4250 
z
M 2034 4750 
Q 2819 4750 3233 4129 
Q 3647 3509 3647 2328 
Q 3647 1150 3233 529 
Q 2819 -91 2034 -91 
Q 1250 -91 836 529 
Q 422 1150 422 2328 
Q 422 3509 836 4129 
Q 1250 4750 2034 4750 
z
" transform="scale(0.015625)"/>
       </defs>
       <use xlink:href="#DejaVuSans-2212"/>
       <use xlink:href="#DejaVuSans-34" x="83.789062"/>
       <use xlink:href="#DejaVuSans-30" x="147.412109"/>
      </g>
     </g>
    </g>
    <g id="xtick_2">
     <g id="line2d_2">
      <g>
       <use xlink:href="#m4ec03969a6" x="136.368" y="307.584" style="stroke: #000000; stroke-width: 0.8"/>
      </g>
     </g>
     <g id="text_2">
      <!-- −30 -->
      <g transform="translate(125.815656 322.182437) scale(0.1 -0.1)">
       <defs>
        <path id="DejaVuSans-33" d="M 2597 2516 
Q 3050 2419 3304 2112 
Q 3559 1806 3559 1356 
Q 3559 666 3084 287 
Q 2609 -91 1734 -91 
Q 1441 -91 1130 -33 
Q 819 25 488 141 
L 488 750 
Q 750 597 1062 519 
Q 1375 441 1716 441 
Q 2309 441 2620 675 
Q 2931 909 2931 1356 
Q 2931 1769 2642 2001 
Q 2353 2234 1838 2234 
L 1294 2234 
L 1294 2753 
L 1863 2753 
Q 2328 2753 2575 2939 
Q 2822 3125 2822 3475 
Q 2822 3834 2567 4026 
Q 2313 4219 1838 4219 
Q 1578 4219 1281 4162 
Q 984 4106 628 3988 
L 628 4550 
Q 988 4650 1302 4700 
Q 1616 4750 1894 4750 
Q 2613 4750 3031 4423 
Q 3450 4097 3450 3541 
Q 3450 3153 3228 2886 
Q 3006 2619 2597 2516 
z
" transform="scale(0.015625)"/>
       </defs>
       <use xlink:href="#DejaVuSans-2212"/>
       <use xlink:href="#DejaVuSans-33" x="83.789062"/>
       <use xlink:href="#DejaVuSans-30" x="147.412109"/>
      </g>
     </g>
    </g>
    <g id="xtick_3">
     <g id="line2d_3">
      <g>
       <use xlink:href="#m4ec03969a6" x="169.632" y="307.584" style="stroke: #000000; stroke-width: 0.8"/>
      </g>
     </g>
     <g id="text_3">
      <!-- −20 -->
      <g transform="translate(159.079656 322.182437) scale(0.1 -0.1)">
       <defs>
        <path id="DejaVuSans-32" d="M 1228 531 
L 3431 531 
L 3431 0 
L 469 0 
L 469 531 
Q 828 903 1448 1529 
Q 2069 2156 2228 2338 
Q 2531 2678 2651 2914 
Q 2772 3150 2772 3378 
Q 2772 3750 2511 3984 
Q 2250 4219 1831 4219 
Q 1534 4219 1204 4116 
Q 875 4013 500 3803 
L 500 4441 
Q 881 4594 1212 4672 
Q 1544 4750 1819 4750 
Q 2544 4750 2975 4387 
Q 3406 4025 3406 3419 
Q 3406 3131 3298 2873 
Q 3191 2616 2906 2266 
Q 2828 2175 2409 1742 
Q 1991 1309 1228 531 
z
" transform="scale(0.015625)"/>
       </defs>
       <use xlink:href="#DejaVuSans-2212"/>
       <use xlink:href="#DejaVuSans-32" x="83.789062"/>
       <use xlink:href="#DejaVuSans-30" x="147.412109"/>
      </g>
     </g>
    </g>
    <g id="xtick_4">
     <g id="line2d_4">
      <g>
       <use xlink:href="#m4ec03969a6" x="202.896" y="307.584" style="stroke: #000000; stroke-width: 0.8"/>
      </g>
     </g>
     <g id="text_4">
      <!-- −10 -->
      <g transform="translate(192.343656 322.182437) scale(0.1 -0.1)">
       <defs>
        <path id="DejaVuSans-31" d="M 794 531 
L 1825 531 
L 1825 4091 
L 703 3866 
L 703 4441 
L 1819 4666 
L 2450 4666 
L 2450 531 
L 3481 531 
L 3481 0 
L 794 0 
L 794 531 
z
" transform="scale(0.015625)"/>
       </defs>
       <use xlink:href="#DejaVuSans-2212"/>
       <use xlink:href="#DejaVuSans-31" x="83.789062"/>
       <use xlink:href="#DejaVuSans-30" x="147.412109"/>
      </g>
     </g>
    </g>
    <g id="xtick_5">
     <g id="line2d_5">
      <g>
       <use xlink:href="#m4ec03969a6" x="236.16" y="307.584" style="stroke: #000000; stroke-width: 0.8"/>
      </g>
     </g>
     <g id="text_5">
      <!-- 0 -->
      <g transform="translate(232.97875 322.182437) scale(0.1 -0.1)">
       <use xlink:href="#DejaVuSans-30"/>
      </g>
     </g>
    </g>
    <g id="xtick_6">
     <g id="line2d_6">
      <g>
       <use xlink:href="#m4ec03969a6" x="269.424" y="307.584" style="stroke: #000000; stroke-width: 0.8"/>
      </g>
     </g>
     <g id="text_6">
      <!-- 10 -->
      <g transform="translate(263.0615 322.182437) scale(0.1 -0.1)">
       <use xlink:href="#DejaVuSans-31"/>
       <use xlink:href="#DejaVuSans-30" x="63.623047"/>
      </g>
     </g>
    </g>
    <g id="xtick_7">
     <g id="line2d_7">
      <g>
       <use xlink:href="#m4ec03969a6" x="302.688" y="307.584" style="stroke: #000000; stroke-width: 0.8"/>
      </g>
     </g>
     <g id="text_7">
      <!-- 20 -->
      <g transform="translate(296.3255 322.182437) scale(0.1 -0.1)">
       <use xlink:href="#DejaVuSans-32"/>
       <use xlink:href="#DejaVuSans-30" x="63.623047"/>
      </g>
     </g>
    </g>
    <g id="xtick_8">
     <g id="line2d_8">
      <g>
       <use xlink:href="#m4ec03969a6" x="335.952" y="307.584" style="stroke: #000000; stroke-width: 0.8"/>
      </g>
     </g>
     <g id="text_8">
      <!-- 30 -->
      <g transform="translate(329.5895 322.182437) scale(0.1 -0.1)">
       <use xlink:href="#DejaVuSans-33"/>
       <use xlink:href="#DejaVuSans-30" x="63.623047"/>
      </g>
     </g>
    </g>
    <g id="xtick_9">
     <g id="line2d_9">
      <g>
       <use xlink:href="#m4ec03969a6" x="369.216" y="307.584" style="stroke: #000000; stroke-width: 0.8"/>
      </g>
     </g>
     <g id="text_9">
      <!-- 40 -->
      <g transform="translate(362.8535 322.182437) scale(0.1 -0.1)">
       <use xlink:href="#DejaVuSans-34"/>
       <use xlink:href="#DejaVuSans-30" x="63.623047"/>
      </g>
     </g>
    </g>
   </g>
   <g id="matplotlib.axis_2">
    <g id="ytick_1">
     <g id="line2d_10">
      <defs>
       <path id="m71b7c2f4ba" d="M 0 0 
L -3.5 0 
" style="stroke: #000000; stroke-width: 0.8"/>
      </defs>
      <g>
       <use xlink:href="#m71b7c2f4ba" x="103.104" y="307.584" style="stroke: #000000; stroke-width: 0.8"/>
      </g>
     </g>
     <g id="text_10">
      <!-- −40 -->
      <g transform="translate(74.999313 311.383219) scale(0.1 -0.1)">
       <use xlink:href="#DejaVuSans-2212"/>
       <use xlink:href="#DejaVuSans-34" x="83.789062"/>
       <use xlink:href="#DejaVuSans-30" x="147.412109"/>
      </g>
     </g>
    </g>
    <g id="ytick_2">
     <g id="line2d_11">
      <g>
       <use xlink:href="#m71b7c2f4ba" x="103.104" y="274.32" style="stroke: #000000; stroke-width: 0.8"/>
      </g>
     </g>
     <g id="text_11">
      <!-- −30 -->
      <g transform="translate(74.999313 278.119219) scale(0.1 -0.1)">
       <use xlink:href="#DejaVuSans-2212"/>
       <use xlink:href="#DejaVuSans-33" x="83.789062"/>
       <use xlink:href="#DejaVuSans-30" x="147.412109"/>
      </g>
     </g>
    </g>
    <g id="ytick_3">
     <g id="line2d_12">
      <g>
       <use xlink:href="#m71b7c2f4ba" x="103.104" y="241.056" style="stroke: #000000; stroke-width: 0.8"/>
      </g>
     </g>
     <g id="text_12">
      <!-- −20 -->
      <g transform="translate(74.999313 244.855219) scale(0.1 -0.1)">
       <use xlink:href="#DejaVuSans-2212"/>
       <use xlink:href="#DejaVuSans-32" x="83.789062"/>
       <use xlink:href="#DejaVuSans-30" x="147.412109"/>
      </g>
     </g>
    </g>
    <g id="ytick_4">
     <g id="line2d_13">
      <g>
       <use xlink:href="#m71b7c2f4ba" x="103.104" y="207.792" style="stroke: #000000; stroke-width: 0.8"/>
      </g>
     </g>
     <g id="text_13">
      <!-- −10 -->
      <g transform="translate(74.999313 211.591219) scale(0.1 -0.1)">
       <use xlink:href="#DejaVuSans-2212"/>
       <use xlink:href="#DejaVuSans-31" x="83.789062"/>
       <use xlink:href="#DejaVuSans-30" x="147.412109"/>
      </g>
     </g>
    </g>
    <g id="ytick_5">
     <g id="line2d_14">
      <g>
       <use xlink:href="#m71b7c2f4ba" x="103.104" y="174.528" style="stroke: #000000; stroke-width: 0.8"/>
      </g>
     </g>
     <g id="text_14">
      <!-- 0 -->
      <g transform="translate(89.7415 178.327219) scale(0.1 -0.1)">
       <use xlink:href="#DejaVuSans-30"/>
      </g>
     </g>
    </g>
    <g id="ytick_6">
     <g id="line2d_15">
      <g>
       <use xlink:href="#m71b7c2f4ba" x="103.104" y="141.264" style="stroke: #000000; stroke-width: 0.8"/>
      </g>
     </g>
     <g id="text_15">
      <!-- 10 -->
      <g transform="translate(83.379 145.063219) scale(0.1 -0.1)">
       <use xlink:href="#DejaVuSans-31"/>
       <use xlink:href="#DejaVuSans-30" x="63.623047"/>
      </g>
     </g>
    </g>
    <g id="ytick_7">
     <g id="line2d_16">
      <g>
       <use xlink:href="#m71b7c2f4ba" x="103.104" y="108" style="stroke: #000000; stroke-width: 0.8"/>
      </g>
     </g>
     <g id="text_16">
      <!-- 20 -->
      <g transform="translate(83.379 111.799219) scale(0.1 -0.1)">
       <use xlink:href="#DejaVuSans-32"/>
       <use xlink:href="#DejaVuSans-30" x="63.623047"/>
      </g>
     </g>
    </g>
    <g id="ytick_8">
     <g id="line2d_17">
      <g>
       <use xlink:href="#m71b7c2f4ba" x="103.104" y="74.736" style="stroke: #000000; stroke-width: 0.8"/>
      </g>
     </g>
     <g id="text_17">
      <!-- 30 -->
      <g transform="translate(83.379 78.535219) scale(0.1 -0.1)">
       <use xlink:href="#DejaVuSans-33"/>
       <use xlink:href="#DejaVuSans-30" x="63.623047"/>
      </g>
     </g>
    </g>
    <g id="ytick_9">
     <g id="line2d_18">
      <g>
       <use xlink:href="#m71b7c2f4ba" x="103.104" y="41.472" style="stroke: #000000; stroke-width: 0.8"/>
      </g>
     </g>
     <g id="text_18">
      <!-- 40 -->
      <g transform="translate(83.379 45.271219) scale(0.1 -0.1)">
       <use xlink:href="#DejaVuSans-34"/>
       <use xlink:href="#DejaVuSans-30" x="63.623047"/>
      </g>
     </g>
    </g>
   </g>
   <g id="line2d_19">
    <path d="M 250.2972 288.4572 
L 250.2972 188.6652 
" clip-path="url(#p5c5cf19686)" style="fill: none; stroke: #000000; stroke-width: 0.25; stroke-linecap: square"/>
   </g>
   <g id="line2d_20">
    <path d="M 250.2972 188.6652 
L 350.0892 188.6652 
" clip-path="url(#p5c5cf19686)" style="fill: none; stroke: #000000; stroke-width: 0.25; stroke-linecap: square"/>
   </g>
   <g id="line2d_21">
    <path d="M 350.0892 160.3908 
L 250.2972 160.3908 
" clip-path="url(#p5c5cf19686)" style="fill: none; stroke: #000000; stroke-width: 0.25; stroke-linecap: square"/>
   </g>
   <g id="line2d_22">
    <path d="M 250.2972 160.3908 
L 250.2972 60.5988 
" clip-path="url(#p5c5cf19686)" style="fill: none; stroke: #000000; stroke-width: 0.25; stroke-linecap: square"/>
   </g>
   <g id="line2d_23">
    <path d="M 222.0228 60.5988 
L 222.0228 160.3908 
" clip-path="url(#p5c5cf19686)" style="fill: none; stroke: #000000; stroke-width: 0.25; stroke-linecap: square"/>
   </g>
   <g id="line2d_24">
    <path d="M 222.0228 160.3908 
L 122.2308 160.3908 
" clip-path="url(#p5c5cf19686)" style="fill: none; stroke: #000000; stroke-width: 0.25; stroke-linecap: square"/>
   </g>
   <g id="line2d_25">
    <path d="M 122.2308 188.6652 
L 222.0228 188.6652 
" clip-path="url(#p5c5cf19686)" style="fill: none; stroke: #000000; stroke-width: 0.25; stroke-linecap: square"/>
   </g>
   <g id="line2d_26">
    <path d="M 222.0228 188.6652 
L 222.0228 288.4572 
" clip-path="url(#p5c5cf19686)" style="fill: none; stroke: #000000; stroke-width: 0.25; stroke-linecap: square"/>
   </g>
   <g id="line2d_27">
    <path d="M 250.2972 174.528 
L 350.0892 174.528 
" clip-path="url(#p5c5cf19686)" style="fill: none; stroke-dasharray: 0.925,0.4; stroke-dashoffset: 0; stroke: #000000; stroke-width: 0.25"/>
   </g>
   <g id="line2d_28">
    <path d="M 236.16 160.3908 
L 236.16 60.5988 
" clip-path="url(#p5c5cf19686)" style="fill: none; stroke-dasharray: 0.925,0.4; stroke-dashoffset: 0; stroke: #000000; stroke-width: 0.25"/>
   </g>
   <g id="line2d_29">
    <path d="M 222.0228 174.528 
L 122.2308 174.528 
" clip-path="url(#p5c5cf19686)" style="fill: none; stroke-dasharray: 0.925,0.4; stroke-dashoffset: 0; stroke: #000000; stroke-width: 0.25"/>
   </g>
   <g id="line2d_30">
    <path d="M 236.16 188.6652 
L 236.16 288.4572 
" clip-path="url(#p5c5cf19686)" style="fill: none; stroke-dasharray: 0.925,0.4; stroke-dashoffset: 0; stroke: #000000; stroke-width: 0.25"/>
   </g>
   <g id="line2d_31">
    <path d="M 138.945057 168.672189 
L 137.318742 168.672183 
L 135.692274 168.672177 
L 134.065658 168.672173 
L 132.438897 168.67217 
L 130.811999 168.672168 
L 129.184967 168.672167 
L 127.557808 168.672166 
L 125.930529 168.672167 
L 124.303134 168.672167 
L 122.675631 168.672168 
L 121.048026 168.672169 
L 119.420325 168.67217 
L 117.792534 168.672171 
L 116.16466 168.672172 
L 114.536709 168.672173 
L 112.908688 168.672174 
L 111.280601 168.672175 
L 109.652455 168.672176 
L 108.024257 168.672177 
L 106.39601 168.672177 
L 104.767721 168.672178 
L 103.139395 168.672178 
L 101.511037 168.672179 
L 99.882651 168.672179 
L 98.254242 168.672179 
L 96.625815 168.67218 
L 94.997373 168.67218 
L 93.36892 168.67218 
L 91.74046 168.67218 
L 90.111995 168.67218 
" clip-path="url(#p5c5cf19686)" style="fill: none; stroke: #ff0000; stroke-opacity: 0.2; stroke-width: 0.25; stroke-linecap: square"/>
   </g>
   <g id="line2d_32">
    <path d="M 138.945057 168.672189 
L 137.318742 168.672183 
L 135.692275 168.672178 
L 134.065661 168.672173 
L 132.438904 168.67217 
L 130.81201 168.672168 
L 129.184985 168.672167 
L 127.557834 168.672167 
L 125.930563 168.672167 
L 124.303179 168.672167 
L 122.675689 168.672168 
L 121.048097 168.672169 
L 119.420412 168.67217 
L 117.792638 168.672171 
L 116.164784 168.672172 
L 114.536854 168.672173 
L 112.908855 168.672174 
L 111.280793 168.672175 
L 109.652675 168.672176 
L 108.024505 168.672177 
L 106.396289 168.672177 
L 104.768034 168.672178 
L 103.139743 168.672178 
L 101.511422 168.672179 
L 99.883076 168.672179 
L 98.254709 168.672179 
L 96.626326 168.67218 
L 94.997929 168.67218 
L 93.369524 168.67218 
L 91.741114 168.67218 
L 90.112701 168.672181 
" clip-path="url(#p5c5cf19686)" style="fill: none; stroke: #ff0000; stroke-opacity: 0.4; stroke-width: 0.25; stroke-linecap: square"/>
   </g>
   <g id="line2d_33">
    <path d="M 138.945057 168.672189 
L 137.318742 168.672184 
L 135.692275 168.672178 
L 134.065659 168.672174 
L 132.4389 168.672171 
L 130.812003 168.672169 
L 129.184973 168.672167 
L 127.557817 168.672167 
L 125.930541 168.672167 
L 124.303151 168.672167 
L 122.675652 168.672168 
L 121.048053 168.672169 
L 119.420358 168.67217 
L 117.792574 168.672171 
L 116.164708 168.672172 
L 114.536766 168.672173 
L 112.908754 168.672174 
L 111.280677 168.672175 
L 109.652543 168.672176 
L 108.024357 168.672177 
L 106.396124 168.672177 
L 104.76785 168.672178 
L 103.13954 168.672178 
L 101.511198 168.672179 
L 99.88283 168.672179 
L 98.254441 168.672179 
L 96.626033 168.67218 
L 94.997613 168.67218 
L 93.369182 168.67218 
L 91.740745 168.67218 
L 90.112305 168.672181 
" clip-path="url(#p5c5cf19686)" style="fill: none; stroke: #ff0000; stroke-opacity: 0.6; stroke-width: 0.25; stroke-linecap: square"/>
   </g>
   <g id="line2d_34">
    <path d="M 138.945057 168.672189 
L 137.318742 168.672184 
L 135.692275 168.672178 
L 134.06566 168.672174 
L 132.438903 168.672171 
L 130.812007 168.672169 
L 129.18498 168.672168 
L 127.557828 168.672167 
L 125.930555 168.672167 
L 124.303168 168.672168 
L 122.675675 168.672168 
L 121.04808 168.672169 
L 119.42039 168.67217 
L 117.792613 168.672171 
L 116.164753 168.672172 
L 114.536818 168.672173 
L 112.908814 168.672174 
L 111.280746 168.672175 
L 109.652621 168.672176 
L 108.024444 168.672177 
L 106.396221 168.672177 
L 104.767957 168.672178 
L 103.139658 168.672178 
L 101.511328 168.672179 
L 99.882972 168.672179 
L 98.254595 168.672179 
L 96.6262 168.67218 
L 94.997793 168.67218 
L 93.369376 168.67218 
L 91.740953 168.67218 
L 90.112527 168.672181 
" clip-path="url(#p5c5cf19686)" style="fill: none; stroke: #ff0000; stroke-opacity: 0.8; stroke-width: 0.25; stroke-linecap: square"/>
   </g>
   <g id="line2d_35">
    <path d="M 138.945057 168.672189 
L 137.318742 168.672184 
L 135.692275 168.672178 
L 134.065659 168.672174 
L 132.438901 168.672171 
L 130.812005 168.672169 
L 129.184976 168.672168 
L 127.557821 168.672167 
L 125.930547 168.672167 
L 124.303158 168.672168 
L 122.675661 168.672168 
L 121.048064 168.672169 
L 119.420371 168.67217 
L 117.79259 168.672171 
L 116.164726 168.672172 
L 114.536787 168.672173 
L 112.908778 168.672174 
L 111.280706 168.672175 
L 109.652576 168.672176 
L 108.024393 168.672177 
L 106.396165 168.672177 
L 104.767895 168.672178 
L 103.139589 168.672178 
L 101.511253 168.672179 
L 99.882891 168.672179 
L 98.254507 168.672179 
L 96.626105 168.67218 
L 94.99769 168.67218 
L 93.369266 168.67218 
L 91.740835 168.67218 
L 90.112402 168.672181 
" clip-path="url(#p5c5cf19686)" style="fill: none; stroke: #ff0000; stroke-width: 0.25; stroke-linecap: square"/>
   </g>
   <g id="line2d_36">
    <path d="M 242.015869 70.08556 
L 242.015855 68.575837 
L 242.015842 67.066222 
L 242.015831 65.55672 
L 242.015823 64.047338 
L 242.015817 62.538078 
L 242.015812 61.028943 
L 242.015808 59.519934 
L 242.015806 58.01105 
L 242.015805 56.502291 
L 242.015804 54.993654 
L 242.015804 53.485137 
L 242.015805 51.976736 
L 242.015805 50.468446 
L 242.015806 48.960264 
L 242.015807 47.452183 
L 242.015809 45.944198 
L 242.01581 44.436303 
L 242.015811 42.928491 
L 242.015812 41.420757 
L 242.015813 39.913092 
L 242.015814 38.405492 
L 242.015815 36.897948 
L 242.015816 35.390454 
L 242.015817 33.883002 
L 242.015817 32.375588 
L 242.015818 30.868203 
L 242.015819 29.360842 
L 242.015819 27.853499 
L 242.01582 26.346169 
L 242.01582 24.838845 
" clip-path="url(#p5c5cf19686)" style="fill: none; stroke: #ff0000; stroke-opacity: 0.2; stroke-width: 0.25; stroke-linecap: square"/>
   </g>
   <g id="line2d_37">
    <path d="M 242.015869 70.08556 
L 242.015856 68.575837 
L 242.015842 67.066219 
L 242.015832 65.556711 
L 242.015824 64.04732 
L 242.015817 62.538047 
L 242.015812 61.028897 
L 242.015809 59.519868 
L 242.015806 58.010962 
L 242.015805 56.502176 
L 242.015804 54.993509 
L 242.015804 53.484958 
L 242.015804 51.97652 
L 242.015805 50.468189 
L 242.015806 48.95996 
L 242.015807 47.45183 
L 242.015808 45.943791 
L 242.015809 44.435838 
L 242.015811 42.927964 
L 242.015812 41.420164 
L 242.015813 39.912429 
L 242.015814 38.404753 
L 242.015815 36.89713 
L 242.015816 35.389553 
L 242.015817 33.882015 
L 242.015817 32.37451 
L 242.015818 30.867031 
L 242.015819 29.359572 
L 242.01582 27.852127 
L 242.01582 26.344691 
L 242.015821 24.837259 
" clip-path="url(#p5c5cf19686)" style="fill: none; stroke: #ff0000; stroke-opacity: 0.4; stroke-width: 0.25; stroke-linecap: square"/>
   </g>
   <g id="line2d_38">
    <path d="M 242.015869 70.08556 
L 242.015856 68.575837 
L 242.015843 67.066221 
L 242.015832 65.556717 
L 242.015824 64.047331 
L 242.015817 62.538067 
L 242.015812 61.028926 
L 242.015809 59.519909 
L 242.015807 58.011016 
L 242.015805 56.502247 
L 242.015804 54.993598 
L 242.015804 53.485067 
L 242.015805 51.976651 
L 242.015805 50.468344 
L 242.015806 48.960143 
L 242.015807 47.452041 
L 242.015808 45.944033 
L 242.01581 44.436114 
L 242.015811 42.928275 
L 242.015812 41.420512 
L 242.015813 39.912817 
L 242.015814 38.405184 
L 242.015815 36.897605 
L 242.015816 35.390073 
L 242.015817 33.882583 
L 242.015817 32.375127 
L 242.015818 30.8677 
L 242.015819 29.360294 
L 242.015819 27.852904 
L 242.01582 26.345524 
L 242.015821 24.83815 
" clip-path="url(#p5c5cf19686)" style="fill: none; stroke: #ff0000; stroke-opacity: 0.6; stroke-width: 0.25; stroke-linecap: square"/>
   </g>
   <g id="line2d_39">
    <path d="M 242.015869 70.08556 
L 242.015856 68.575837 
L 242.015843 67.066219 
L 242.015833 65.556713 
L 242.015824 64.047324 
L 242.015818 62.538055 
L 242.015813 61.028908 
L 242.015809 59.519884 
L 242.015807 58.010983 
L 242.015805 56.502204 
L 242.015804 54.993545 
L 242.015804 53.485002 
L 242.015805 51.976573 
L 242.015805 50.468252 
L 242.015806 48.960035 
L 242.015807 47.451916 
L 242.015808 45.943891 
L 242.01581 44.435952 
L 242.015811 42.928094 
L 242.015812 41.420309 
L 242.015813 39.912592 
L 242.015814 38.404935 
L 242.015815 36.897331 
L 242.015816 35.389774 
L 242.015817 33.882258 
L 242.015817 32.374775 
L 242.015818 30.867319 
L 242.015819 29.359884 
L 242.015819 27.852464 
L 242.01582 26.345054 
L 242.015821 24.837648 
" clip-path="url(#p5c5cf19686)" style="fill: none; stroke: #ff0000; stroke-opacity: 0.8; stroke-width: 0.25; stroke-linecap: square"/>
   </g>
   <g id="line2d_40">
    <path d="M 242.015869 70.08556 
L 242.015856 68.575837 
L 242.015843 67.06622 
L 242.015833 65.556715 
L 242.015824 64.047328 
L 242.015818 62.538062 
L 242.015813 61.028918 
L 242.015809 59.519899 
L 242.015807 58.011003 
L 242.015805 56.502229 
L 242.015804 54.993576 
L 242.015804 53.48504 
L 242.015805 51.976618 
L 242.015805 50.468306 
L 242.015806 48.960098 
L 242.015807 47.451989 
L 242.015808 45.943974 
L 242.01581 44.436046 
L 242.015811 42.928199 
L 242.015812 41.420427 
L 242.015813 39.912722 
L 242.015814 38.405078 
L 242.015815 36.897488 
L 242.015816 35.389946 
L 242.015817 33.882444 
L 242.015817 32.374976 
L 242.015818 30.867535 
L 242.015819 29.360116 
L 242.015819 27.852713 
L 242.01582 26.34532 
L 242.015821 24.837931 
" clip-path="url(#p5c5cf19686)" style="fill: none; stroke: #ff0000; stroke-width: 0.25; stroke-linecap: square"/>
   </g>
   <g id="line2d_41">
    <path d="M 230.304162 273.869439 
L 230.304163 275.477462 
L 230.304164 277.085495 
L 230.304165 278.693536 
L 230.304166 280.301584 
L 230.304167 281.909635 
L 230.304169 283.517689 
L 230.30417 285.125744 
L 230.304172 286.733799 
L 230.304173 288.341853 
L 230.304174 289.949905 
L 230.304175 291.557955 
L 230.304176 293.166001 
L 230.304177 294.774043 
L 230.304178 296.382082 
L 230.304178 297.990116 
L 230.304179 299.598145 
L 230.304179 301.206171 
L 230.30418 302.814191 
L 230.30418 304.422208 
L 230.30418 306.03022 
L 230.30418 307.638229 
L 230.30418 309.246234 
L 230.30418 310.854236 
L 230.30418 312.462235 
L 230.30418 314.070231 
L 230.30418 315.678225 
L 230.30418 317.286218 
L 230.30418 318.894209 
L 230.30418 320.5022 
L 230.30418 322.110189 
" clip-path="url(#p5c5cf19686)" style="fill: none; stroke: #ff0000; stroke-opacity: 0.2; stroke-width: 0.25; stroke-linecap: square"/>
   </g>
   <g id="line2d_42">
    <path d="M 230.304162 273.869439 
L 230.304163 275.477462 
L 230.304164 277.085496 
L 230.304165 278.693538 
L 230.304166 280.301586 
L 230.304168 281.909639 
L 230.304169 283.517694 
L 230.30417 285.125752 
L 230.304172 286.733809 
L 230.304173 288.341866 
L 230.304174 289.949922 
L 230.304175 291.557975 
L 230.304176 293.166026 
L 230.304177 294.774073 
L 230.304178 296.382116 
L 230.304178 297.990156 
L 230.304179 299.598191 
L 230.304179 301.206223 
L 230.304179 302.814251 
L 230.30418 304.422274 
L 230.30418 306.030294 
L 230.30418 307.638311 
L 230.30418 309.246324 
L 230.30418 310.854334 
L 230.30418 312.462342 
L 230.30418 314.070348 
L 230.30418 315.678352 
L 230.30418 317.286355 
L 230.30418 318.894356 
L 230.30418 320.502357 
L 230.30418 322.110358 
" clip-path="url(#p5c5cf19686)" style="fill: none; stroke: #ff0000; stroke-opacity: 0.4; stroke-width: 0.25; stroke-linecap: square"/>
   </g>
   <g id="line2d_43">
    <path d="M 230.304162 273.869439 
L 230.304163 275.477462 
L 230.304164 277.085495 
L 230.304165 278.693537 
L 230.304166 280.301584 
L 230.304168 281.909636 
L 230.304169 283.517691 
L 230.30417 285.125747 
L 230.304172 286.733803 
L 230.304173 288.341858 
L 230.304174 289.949912 
L 230.304175 291.557963 
L 230.304176 293.166011 
L 230.304177 294.774055 
L 230.304178 296.382096 
L 230.304178 297.990132 
L 230.304179 299.598164 
L 230.304179 301.206192 
L 230.304179 302.814216 
L 230.30418 304.422236 
L 230.30418 306.030251 
L 230.30418 307.638263 
L 230.30418 309.246272 
L 230.30418 310.854278 
L 230.30418 312.462281 
L 230.30418 314.070281 
L 230.30418 315.67828 
L 230.30418 317.286277 
L 230.30418 318.894273 
L 230.30418 320.502268 
L 230.30418 322.110263 
" clip-path="url(#p5c5cf19686)" style="fill: none; stroke: #ff0000; stroke-opacity: 0.6; stroke-width: 0.25; stroke-linecap: square"/>
   </g>
   <g id="line2d_44">
    <path d="M 230.304162 273.869439 
L 230.304164 275.477462 
L 230.304164 277.085495 
L 230.304165 278.693537 
L 230.304166 280.301585 
L 230.304168 281.909638 
L 230.304169 283.517693 
L 230.30417 285.12575 
L 230.304172 286.733807 
L 230.304173 288.341863 
L 230.304174 289.949918 
L 230.304175 291.55797 
L 230.304176 293.16602 
L 230.304177 294.774065 
L 230.304178 296.382108 
L 230.304178 297.990146 
L 230.304179 299.59818 
L 230.304179 301.20621 
L 230.304179 302.814236 
L 230.30418 304.422258 
L 230.30418 306.030276 
L 230.30418 307.638291 
L 230.30418 309.246302 
L 230.30418 310.85431 
L 230.30418 312.462316 
L 230.30418 314.070319 
L 230.30418 315.678321 
L 230.30418 317.286321 
L 230.30418 318.89432 
L 230.30418 320.502318 
L 230.30418 322.110317 
" clip-path="url(#p5c5cf19686)" style="fill: none; stroke: #ff0000; stroke-opacity: 0.8; stroke-width: 0.25; stroke-linecap: square"/>
   </g>
   <g id="line2d_45">
    <path d="M 230.304162 273.869439 
L 230.304164 275.477462 
L 230.304164 277.085495 
L 230.304165 278.693537 
L 230.304166 280.301585 
L 230.304168 281.909637 
L 230.304169 283.517692 
L 230.30417 285.125748 
L 230.304172 286.733805 
L 230.304173 288.34186 
L 230.304174 289.949914 
L 230.304175 291.557966 
L 230.304176 293.166014 
L 230.304177 294.77406 
L 230.304178 296.382101 
L 230.304178 297.990138 
L 230.304179 299.598171 
L 230.304179 301.2062 
L 230.304179 302.814225 
L 230.30418 304.422245 
L 230.30418 306.030262 
L 230.30418 307.638275 
L 230.30418 309.246285 
L 230.30418 310.854292 
L 230.30418 312.462296 
L 230.30418 314.070298 
L 230.30418 315.678298 
L 230.30418 317.286296 
L 230.30418 318.894293 
L 230.30418 320.50229 
L 230.30418 322.110286 
" clip-path="url(#p5c5cf19686)" style="fill: none; stroke: #ff0000; stroke-width: 0.25; stroke-linecap: square"/>
   </g>
   <g id="line2d_46">
    <path d="M 335.508056 180.383845 
L 337.11534 180.383843 
L 338.722677 180.383841 
L 340.330065 180.383839 
L 341.9375 180.383836 
L 343.544979 180.383834 
L 345.1525 180.383832 
L 346.76006 180.38383 
L 348.367655 180.383829 
L 349.975284 180.383827 
L 351.582944 180.383826 
L 353.190631 180.383824 
L 354.798345 180.383823 
L 356.406082 180.383822 
L 358.013841 180.383822 
L 359.621619 180.383821 
L 361.229414 180.383821 
L 362.837226 180.38382 
L 364.445051 180.38382 
L 366.052888 180.38382 
L 367.660737 180.38382 
L 369.268595 180.383819 
L 370.876461 180.383819 
L 372.484334 180.383819 
L 374.092213 180.383819 
L 375.700097 180.383819 
L 377.307984 180.383819 
L 378.915875 180.38382 
L 380.523768 180.38382 
L 382.131662 180.38382 
L 383.739557 180.38382 
" clip-path="url(#p5c5cf19686)" style="fill: none; stroke: #ff0000; stroke-opacity: 0.2; stroke-width: 0.25; stroke-linecap: square"/>
   </g>
   <g id="line2d_47">
    <path d="M 335.508056 180.383845 
L 337.11534 180.383842 
L 338.722677 180.38384 
L 340.330065 180.383838 
L 341.937499 180.383836 
L 343.544979 180.383834 
L 345.152499 180.383832 
L 346.760058 180.38383 
L 348.367653 180.383829 
L 349.975281 180.383827 
L 351.58294 180.383826 
L 353.190627 180.383824 
L 354.798339 180.383823 
L 356.406075 180.383823 
L 358.013832 180.383822 
L 359.621608 180.383821 
L 361.229402 180.383821 
L 362.837211 180.38382 
L 364.445033 180.38382 
L 366.052868 180.38382 
L 367.660713 180.38382 
L 369.268567 180.38382 
L 370.87643 180.383819 
L 372.484299 180.383819 
L 374.092173 180.383819 
L 375.700052 180.383819 
L 377.307934 180.38382 
L 378.915819 180.38382 
L 380.523706 180.38382 
L 382.131594 180.38382 
L 383.739483 180.38382 
" clip-path="url(#p5c5cf19686)" style="fill: none; stroke: #ff0000; stroke-opacity: 0.4; stroke-width: 0.25; stroke-linecap: square"/>
   </g>
   <g id="line2d_48">
    <path d="M 335.508056 180.383845 
L 337.11534 180.383842 
L 338.722677 180.38384 
L 340.330065 180.383838 
L 341.9375 180.383836 
L 343.544979 180.383834 
L 345.1525 180.383832 
L 346.760059 180.38383 
L 348.367655 180.383828 
L 349.975283 180.383827 
L 351.582943 180.383826 
L 353.19063 180.383824 
L 354.798343 180.383823 
L 356.40608 180.383822 
L 358.013838 180.383822 
L 359.621615 180.383821 
L 361.22941 180.383821 
L 362.83722 180.38382 
L 364.445044 180.38382 
L 366.052881 180.38382 
L 367.660728 180.38382 
L 369.268584 180.38382 
L 370.876449 180.383819 
L 372.48432 180.383819 
L 374.092197 180.383819 
L 375.700078 180.383819 
L 377.307963 180.383819 
L 378.915851 180.38382 
L 380.523741 180.38382 
L 382.131632 180.38382 
L 383.739524 180.38382 
" clip-path="url(#p5c5cf19686)" style="fill: none; stroke: #ff0000; stroke-opacity: 0.6; stroke-width: 0.25; stroke-linecap: square"/>
   </g>
   <g id="line2d_49">
    <path d="M 335.508056 180.383845 
L 337.11534 180.383842 
L 338.722677 180.38384 
L 340.330065 180.383838 
L 341.937499 180.383836 
L 343.544979 180.383834 
L 345.152499 180.383832 
L 346.760059 180.38383 
L 348.367654 180.383828 
L 349.975282 180.383827 
L 351.582941 180.383826 
L 353.190628 180.383824 
L 354.798341 180.383823 
L 356.406077 180.383822 
L 358.013834 180.383822 
L 359.621611 180.383821 
L 361.229405 180.383821 
L 362.837214 180.38382 
L 364.445037 180.38382 
L 366.052873 180.38382 
L 367.660719 180.38382 
L 369.268574 180.38382 
L 370.876437 180.383819 
L 372.484307 180.383819 
L 374.092183 180.383819 
L 375.700063 180.383819 
L 377.307947 180.383819 
L 378.915833 180.38382 
L 380.523721 180.38382 
L 382.131611 180.38382 
L 383.739501 180.38382 
" clip-path="url(#p5c5cf19686)" style="fill: none; stroke: #ff0000; stroke-opacity: 0.8; stroke-width: 0.25; stroke-linecap: square"/>
   </g>
   <g id="line2d_50">
    <path d="M 335.508056 180.383845 
L 337.11534 180.383842 
L 338.722677 180.38384 
L 340.330065 180.383838 
L 341.9375 180.383836 
L 343.544979 180.383834 
L 345.1525 180.383832 
L 346.760059 180.38383 
L 348.367655 180.383828 
L 349.975283 180.383827 
L 351.582942 180.383826 
L 353.190629 180.383824 
L 354.798342 180.383823 
L 356.406079 180.383822 
L 358.013836 180.383822 
L 359.621614 180.383821 
L 361.229408 180.383821 
L 362.837218 180.38382 
L 364.445042 180.38382 
L 366.052878 180.38382 
L 367.660724 180.38382 
L 369.26858 180.38382 
L 370.876444 180.383819 
L 372.484315 180.383819 
L 374.092191 180.383819 
L 375.700072 180.383819 
L 377.307956 180.383819 
L 378.915843 180.38382 
L 380.523733 180.38382 
L 382.131623 180.38382 
L 383.739514 180.38382 
" clip-path="url(#p5c5cf19686)" style="fill: none; stroke: #ff0000; stroke-width: 0.25; stroke-linecap: square"/>
   </g>
   <g id="line2d_51">
    <path d="M 242.016904 114.798208 
L 242.016706 113.245253 
L 242.016528 111.689554 
L 242.016373 110.131132 
L 242.01624 108.570023 
L 242.016128 107.006279 
L 242.016034 105.439962 
L 242.015957 103.871148 
L 242.015895 102.299919 
L 242.015846 100.726369 
L 242.015809 99.150596 
L 242.015781 97.572705 
L 242.015761 95.992806 
L 242.015747 94.411014 
L 242.015739 92.827443 
L 242.015735 91.242214 
L 242.015735 89.655447 
L 242.015737 88.067261 
L 242.015741 86.477777 
L 242.015746 84.887114 
L 242.015753 83.29539 
L 242.015759 81.702722 
L 242.015766 80.109222 
L 242.015773 78.515001 
L 242.01578 76.920165 
L 242.015787 75.324816 
L 242.015793 73.729053 
L 242.0158 72.132969 
L 242.015806 70.536651 
L 242.015812 68.940182 
L 242.015818 67.343637 
" clip-path="url(#p5c5cf19686)" style="fill: none; stroke: #ff0000; stroke-opacity: 0.2; stroke-width: 0.25; stroke-linecap: square"/>
   </g>
   <g id="line2d_52">
    <path d="M 242.016904 114.798208 
L 242.016707 113.245253 
L 242.016528 111.689569 
L 242.016373 110.131175 
L 242.01624 108.57011 
L 242.016128 107.006424 
L 242.016034 105.440181 
L 242.015957 103.871455 
L 242.015895 102.30033 
L 242.015846 100.726899 
L 242.015809 99.15126 
L 242.015781 97.573519 
L 242.015761 95.993785 
L 242.015747 94.412172 
L 242.015739 92.828798 
L 242.015735 91.243781 
L 242.015735 89.65724 
L 242.015737 88.069296 
L 242.015741 86.480069 
L 242.015747 84.889678 
L 242.015753 83.298241 
L 242.01576 81.705873 
L 242.015767 80.112688 
L 242.015774 78.518795 
L 242.015781 76.924299 
L 242.015788 75.329304 
L 242.015794 73.733906 
L 242.015801 72.138198 
L 242.015807 70.542267 
L 242.015813 68.946195 
L 242.015819 67.350057 
" clip-path="url(#p5c5cf19686)" style="fill: none; stroke: #ff0000; stroke-opacity: 0.4; stroke-width: 0.25; stroke-linecap: square"/>
   </g>
   <g id="line2d_53">
    <path d="M 242.016904 114.798208 
L 242.016707 113.245253 
L 242.016529 111.68956 
L 242.016374 110.131149 
L 242.016241 108.570058 
L 242.016128 107.006337 
L 242.016034 105.44005 
L 242.015957 103.871272 
L 242.015895 102.300085 
L 242.015847 100.726584 
L 242.015809 99.150866 
L 242.015781 97.573037 
L 242.015761 95.993207 
L 242.015747 94.41149 
L 242.015739 92.828002 
L 242.015735 91.242862 
L 242.015735 89.656191 
L 242.015737 88.068109 
L 242.015741 86.478736 
L 242.015746 84.888191 
L 242.015753 83.296592 
L 242.015759 81.704055 
L 242.015766 80.110694 
L 242.015773 78.516618 
L 242.01578 76.921933 
L 242.015787 75.326743 
L 242.015794 73.731144 
L 242.0158 72.13523 
L 242.015806 70.539088 
L 242.015812 68.9428 
L 242.015818 67.346442 
" clip-path="url(#p5c5cf19686)" style="fill: none; stroke: #ff0000; stroke-opacity: 0.6; stroke-width: 0.25; stroke-linecap: square"/>
   </g>
   <g id="line2d_54">
    <path d="M 242.016904 114.798208 
L 242.016707 113.245253 
L 242.016529 111.689565 
L 242.016374 110.131165 
L 242.016241 108.570089 
L 242.016128 107.006389 
L 242.016034 105.440127 
L 242.015957 103.87138 
L 242.015895 102.30023 
L 242.015847 100.726769 
L 242.015809 99.151097 
L 242.015781 97.573319 
L 242.015761 95.993545 
L 242.015747 94.411888 
L 242.015739 92.828466 
L 242.015735 91.243396 
L 242.015735 89.6568 
L 242.015737 88.068796 
L 242.015741 86.479506 
L 242.015746 84.889049 
L 242.015753 83.297541 
L 242.015759 81.7051 
L 242.015766 80.111837 
L 242.015774 78.517863 
L 242.015781 76.923284 
L 242.015787 75.328201 
L 242.015794 73.732714 
L 242.0158 72.136913 
L 242.015807 70.540887 
L 242.015813 68.944718 
L 242.015819 67.34848 
" clip-path="url(#p5c5cf19686)" style="fill: none; stroke: #ff0000; stroke-opacity: 0.8; stroke-width: 0.25; stroke-linecap: square"/>
   </g>
   <g id="line2d_55">
    <path d="M 242.016904 114.798208 
L 242.016707 113.245253 
L 242.016529 111.689562 
L 242.016374 110.131156 
L 242.016241 108.570071 
L 242.016128 107.006358 
L 242.016034 105.440082 
L 242.015958 103.871317 
L 242.015896 102.300146 
L 242.015847 100.726661 
L 242.015809 99.150963 
L 242.015781 97.573155 
L 242.015761 95.993349 
L 242.015747 94.411657 
L 242.015739 92.828197 
L 242.015735 91.243088 
L 242.015735 89.656449 
L 242.015737 88.0684 
L 242.015741 86.479063 
L 242.015746 84.888556 
L 242.015753 83.296997 
L 242.015759 81.704502 
L 242.015766 80.111184 
L 242.015773 78.517152 
L 242.01578 76.922514 
L 242.015787 75.327372 
L 242.015794 73.731822 
L 242.0158 72.135959 
L 242.015807 70.539869 
L 242.015813 68.943634 
L 242.015819 67.34733 
" clip-path="url(#p5c5cf19686)" style="fill: none; stroke: #ff0000; stroke-width: 0.25; stroke-linecap: square"/>
   </g>
   <g id="line2d_56">
    <path d="M 176.822407 168.67768 
L 175.234854 168.678407 
L 173.646127 168.679063 
L 172.056249 168.679344 
L 170.465247 168.679333 
L 168.873154 168.679106 
L 167.280006 168.678724 
L 165.68584 168.678238 
L 164.090699 168.677688 
L 162.494627 168.677109 
L 160.897668 168.676525 
L 159.29987 168.675956 
L 157.701279 168.675415 
L 156.101945 168.674913 
L 154.501916 168.674456 
L 152.901242 168.674045 
L 151.29997 168.673683 
L 149.698149 168.673368 
L 148.095827 168.673098 
L 146.493051 168.67287 
L 144.889866 168.672681 
L 143.286318 168.672525 
L 141.682449 168.6724 
L 140.078301 168.672302 
L 138.473915 168.672225 
L 136.86933 168.672166 
L 135.264581 168.672122 
L 133.659704 168.67209 
L 132.054732 168.672065 
L 130.449695 168.672045 
L 128.84462 168.67202 
" clip-path="url(#p5c5cf19686)" style="fill: none; stroke: #ff0000; stroke-opacity: 0.2; stroke-width: 0.25; stroke-linecap: square"/>
   </g>
   <g id="line2d_57">
    <path d="M 176.822407 168.67768 
L 175.234854 168.678148 
L 173.646138 168.678816 
L 172.056283 168.679118 
L 170.465316 168.679135 
L 168.87327 168.678941 
L 167.280182 168.678593 
L 165.68609 168.678142 
L 164.091038 168.677626 
L 162.495068 168.677079 
L 160.898228 168.676523 
L 159.300563 168.675979 
L 157.702123 168.675459 
L 156.102956 168.674973 
L 154.503112 168.674527 
L 152.902639 168.674124 
L 151.301587 168.673766 
L 149.700005 168.673451 
L 148.097941 168.673179 
L 146.495441 168.672946 
L 144.892551 168.67275 
L 143.289317 168.672587 
L 141.685782 168.672453 
L 140.081988 168.672343 
L 138.477974 168.672255 
L 136.87378 168.672184 
L 135.269441 168.672126 
L 133.664992 168.672078 
L 132.060466 168.672036 
L 130.455891 168.671997 
L 128.851297 168.67196 
" clip-path="url(#p5c5cf19686)" style="fill: none; stroke: #ff0000; stroke-opacity: 0.4; stroke-width: 0.25; stroke-linecap: square"/>
   </g>
   <g id="line2d_58">
    <path d="M 176.822407 168.67768 
L 175.234854 168.67799 
L 173.646131 168.678669 
L 172.05626 168.678984 
L 170.465271 168.679018 
L 168.873195 168.678839 
L 167.280068 168.678506 
L 165.68593 168.678067 
L 164.090823 168.677563 
L 162.49479 168.677024 
L 160.897877 168.676475 
L 159.300132 168.675935 
L 157.701601 168.675418 
L 156.102335 168.674933 
L 154.502382 168.674488 
L 152.901791 168.674086 
L 151.300612 168.673728 
L 149.698892 168.673415 
L 148.09668 168.673144 
L 146.494024 168.672914 
L 144.890968 168.67272 
L 143.287558 168.672561 
L 141.683837 168.672431 
L 140.079848 168.672326 
L 138.47563 168.672244 
L 136.871223 168.672179 
L 135.266662 168.672128 
L 133.661983 168.672088 
L 132.057218 168.672055 
L 130.452397 168.672025 
L 128.847548 168.671995 
" clip-path="url(#p5c5cf19686)" style="fill: none; stroke: #ff0000; stroke-opacity: 0.6; stroke-width: 0.25; stroke-linecap: square"/>
   </g>
   <g id="line2d_59">
    <path d="M 176.822407 168.67768 
L 175.234854 168.677897 
L 173.646136 168.678585 
L 172.056274 168.678912 
L 170.465299 168.678958 
L 168.873241 168.67879 
L 167.280138 168.678468 
L 165.686029 168.678039 
L 164.090955 168.677542 
L 162.49496 168.67701 
L 160.89809 168.676467 
L 159.300393 168.675932 
L 157.701916 168.675419 
L 156.102708 168.674938 
L 154.502819 168.674496 
L 152.902296 168.674097 
L 151.301191 168.673741 
L 149.69955 168.673429 
L 148.097422 168.67316 
L 146.494854 168.67293 
L 144.891893 168.672736 
L 143.288581 168.672575 
L 141.684964 168.672444 
L 140.081083 168.672337 
L 138.476978 168.672252 
L 136.872687 168.672184 
L 135.268247 168.672129 
L 133.663693 168.672084 
L 132.059057 168.672046 
L 130.454369 168.672011 
L 128.849656 168.671977 
" clip-path="url(#p5c5cf19686)" style="fill: none; stroke: #ff0000; stroke-opacity: 0.8; stroke-width: 0.25; stroke-linecap: square"/>
   </g>
   <g id="line2d_60">
    <path d="M 176.822407 168.67768 
L 175.234854 168.677839 
L 173.646133 168.678535 
L 172.056266 168.678869 
L 170.465282 168.678921 
L 168.873213 168.678759 
L 167.280096 168.678442 
L 165.68597 168.678017 
L 164.090876 168.677524 
L 162.494858 168.676995 
L 160.897963 168.676454 
L 159.300238 168.67592 
L 157.701729 168.675409 
L 156.102487 168.674929 
L 154.502561 168.674488 
L 152.901999 168.674089 
L 151.300851 168.673734 
L 149.699165 168.673422 
L 148.09699 168.673153 
L 146.494371 168.672923 
L 144.891356 168.67273 
L 143.28799 168.67257 
L 141.684315 168.672439 
L 140.080373 168.672334 
L 138.476206 168.67225 
L 136.871851 168.672183 
L 135.267345 168.67213 
L 133.662722 168.672088 
L 132.058016 168.672052 
L 130.453256 168.67202 
L 128.848469 168.671988 
" clip-path="url(#p5c5cf19686)" style="fill: none; stroke: #ff0000; stroke-width: 0.25; stroke-linecap: square"/>
   </g>
   <g id="line2d_61">
    <path d="M 294.863655 180.378735 
L 296.447176 180.379478 
L 298.032299 180.380082 
L 299.619073 180.380649 
L 301.207525 180.381171 
L 302.797672 180.381642 
L 304.389513 180.382062 
L 305.983036 180.38243 
L 307.578217 180.382747 
L 309.175021 180.383018 
L 310.773405 180.383246 
L 312.373317 180.383433 
L 313.974697 180.383586 
L 315.57748 180.383708 
L 317.181596 180.383802 
L 318.786968 180.383874 
L 320.393518 180.383926 
L 322.001165 180.383962 
L 323.609823 180.383984 
L 325.219407 180.383996 
L 326.829832 180.383999 
L 328.44101 180.383996 
L 330.052855 180.383987 
L 331.665283 180.383975 
L 333.27821 180.38396 
L 334.891555 180.383943 
L 336.505239 180.383926 
L 338.119187 180.383907 
L 339.733327 180.383888 
L 341.347593 180.38387 
L 342.961921 180.383851 
" clip-path="url(#p5c5cf19686)" style="fill: none; stroke: #ff0000; stroke-opacity: 0.2; stroke-width: 0.25; stroke-linecap: square"/>
   </g>
   <g id="line2d_62">
    <path d="M 294.863655 180.378735 
L 296.447176 180.379492 
L 298.032286 180.380095 
L 299.619031 180.38066 
L 301.207442 180.38118 
L 302.797533 180.38165 
L 304.389304 180.382068 
L 305.982743 180.382435 
L 307.577826 180.382751 
L 309.174517 180.383021 
L 310.772774 180.383247 
L 312.372544 180.383435 
L 313.973768 180.383587 
L 315.576381 180.383708 
L 317.180312 180.383802 
L 318.785486 180.383873 
L 320.391823 180.383925 
L 321.999243 180.38396 
L 323.60766 180.383982 
L 325.216991 180.383994 
L 326.827148 180.383997 
L 328.438046 180.383993 
L 330.049599 180.383985 
L 331.661723 180.383972 
L 333.274334 180.383957 
L 334.887352 180.383941 
L 336.500699 180.383923 
L 338.114301 180.383904 
L 339.728086 180.383886 
L 341.341987 180.383867 
L 342.955943 180.383848 
" clip-path="url(#p5c5cf19686)" style="fill: none; stroke: #ff0000; stroke-opacity: 0.4; stroke-width: 0.25; stroke-linecap: square"/>
   </g>
   <g id="line2d_63">
    <path d="M 294.863655 180.378735 
L 296.447176 180.379501 
L 298.032294 180.380103 
L 299.619056 180.380667 
L 301.207492 180.381186 
L 302.797616 180.381655 
L 304.389429 180.382072 
L 305.982917 180.382438 
L 307.578058 180.382754 
L 309.174815 180.383023 
L 310.773147 180.383249 
L 312.373 180.383436 
L 313.974315 180.383588 
L 315.577026 180.383709 
L 317.181064 180.383803 
L 318.786352 180.383874 
L 320.392811 180.383926 
L 322.00036 180.383961 
L 323.608915 180.383983 
L 325.218389 180.383995 
L 326.828697 180.383998 
L 328.439753 180.383994 
L 330.05147 180.383986 
L 331.663763 180.383974 
L 333.27655 180.383959 
L 334.889748 180.383942 
L 336.503281 180.383924 
L 338.117073 180.383906 
L 339.731052 180.383887 
L 341.345152 180.383869 
L 342.95931 180.38385 
" clip-path="url(#p5c5cf19686)" style="fill: none; stroke: #ff0000; stroke-opacity: 0.6; stroke-width: 0.25; stroke-linecap: square"/>
   </g>
   <g id="line2d_64">
    <path d="M 294.863655 180.378735 
L 296.447176 180.379506 
L 298.032289 180.380107 
L 299.619041 180.380671 
L 301.207463 180.381189 
L 302.797567 180.381657 
L 304.389356 180.382074 
L 305.982815 180.382439 
L 307.577922 180.382755 
L 309.174641 180.383024 
L 310.772929 180.38325 
L 312.372734 180.383437 
L 313.973996 180.383588 
L 315.576651 180.383709 
L 317.180627 180.383803 
L 318.78585 180.383874 
L 320.392239 180.383925 
L 321.999715 180.383961 
L 323.608191 180.383983 
L 325.217584 180.383994 
L 326.827807 180.383997 
L 328.438774 180.383994 
L 330.050399 180.383985 
L 331.662597 180.383973 
L 333.275286 180.383958 
L 334.888385 180.383941 
L 336.501815 180.383923 
L 338.115501 180.383905 
L 339.729373 180.383886 
L 341.343364 180.383867 
L 342.957412 180.383849 
" clip-path="url(#p5c5cf19686)" style="fill: none; stroke: #ff0000; stroke-opacity: 0.8; stroke-width: 0.25; stroke-linecap: square"/>
   </g>
   <g id="line2d_65">
    <path d="M 294.863655 180.378735 
L 296.447176 180.379509 
L 298.032292 180.38011 
L 299.61905 180.380673 
L 301.20748 180.381191 
L 302.797596 180.381659 
L 304.389398 180.382075 
L 305.982875 180.382441 
L 307.578001 180.382756 
L 309.174742 180.383025 
L 310.773055 180.383251 
L 312.372888 180.383437 
L 313.97418 180.383589 
L 315.576868 180.383709 
L 317.180879 180.383803 
L 318.786139 180.383874 
L 320.392569 180.383926 
L 322.000086 180.383961 
L 323.608607 180.383983 
L 325.218046 180.383995 
L 326.828317 180.383998 
L 328.439334 180.383994 
L 330.05101 180.383985 
L 331.663262 180.383973 
L 333.276005 180.383958 
L 334.88916 180.383941 
L 336.502647 180.383924 
L 338.116392 180.383905 
L 339.730324 180.383887 
L 341.344375 180.383868 
L 342.958483 180.38385 
" clip-path="url(#p5c5cf19686)" style="fill: none; stroke: #ff0000; stroke-width: 0.25; stroke-linecap: square"/>
   </g>
   <g id="line2d_66">
    <path d="M 242.313421 142.450564 
L 242.221898 140.924513 
L 242.136603 139.409685 
L 242.06796 137.905201 
L 242.014003 136.410892 
L 241.972797 134.926512 
L 241.942491 133.451747 
L 241.92135 131.986231 
L 241.907784 130.529555 
L 241.900372 129.081279 
L 241.897851 127.640939 
L 241.899116 126.20806 
L 241.903225 124.78216 
L 241.909381 123.362755 
L 241.916924 121.949365 
L 241.925319 120.541516 
L 241.93414 119.138745 
L 241.943059 117.740597 
L 241.95183 116.346634 
L 241.960279 114.956427 
L 241.968293 113.569567 
L 241.975805 112.185659 
L 241.982793 110.804322 
L 241.989266 109.425197 
L 241.995257 108.04794 
L 242.00082 106.672224 
L 242.006022 105.297744 
L 242.010938 103.924212 
L 242.015652 102.551359 
L 242.020252 101.178938 
L 242.024812 99.80672 
" clip-path="url(#p5c5cf19686)" style="fill: none; stroke: #ff0000; stroke-opacity: 0.2; stroke-width: 0.25; stroke-linecap: square"/>
   </g>
   <g id="line2d_67">
    <path d="M 242.313421 142.450564 
L 242.225508 140.924301 
L 242.140117 139.409519 
L 242.071271 137.905125 
L 242.017034 136.410944 
L 241.975499 134.926726 
L 241.944834 133.452156 
L 241.923323 131.986866 
L 241.90939 130.530446 
L 241.901623 129.082452 
L 241.898764 127.642421 
L 241.899716 126.209877 
L 241.903536 124.784335 
L 241.90943 123.365312 
L 241.916738 121.952326 
L 241.924922 120.544901 
L 241.933555 119.142573 
L 241.942305 117.744887 
L 241.950922 116.351401 
L 241.95923 114.961687 
L 241.967109 113.575335 
L 241.974493 112.191946 
L 241.981353 110.811142 
L 241.987696 109.432559 
L 241.993552 108.055854 
L 241.998973 106.6807 
L 242.004025 105.306788 
L 242.008785 103.933832 
L 242.013337 102.561561 
L 242.01777 101.189727 
L 242.02217 99.818101 
" clip-path="url(#p5c5cf19686)" style="fill: none; stroke: #ff0000; stroke-opacity: 0.4; stroke-width: 0.25; stroke-linecap: square"/>
   </g>
   <g id="line2d_68">
    <path d="M 242.313421 142.450564 
L 242.227885 140.924166 
L 242.142384 139.409375 
L 242.07337 137.904958 
L 242.018929 136.41074 
L 241.977172 134.926471 
L 241.946284 133.451836 
L 241.924559 131.986466 
L 241.91043 130.529952 
L 241.902488 129.081852 
L 241.899479 127.641705 
L 241.900308 126.209034 
L 241.904032 124.783357 
L 241.909857 123.364188 
L 241.917121 121.951049 
L 241.925284 120.543463 
L 241.933917 119.140968 
L 241.942685 117.743107 
L 241.951336 116.349442 
L 241.95969 114.959544 
L 241.967626 113.573002 
L 241.975075 112.18942 
L 241.982007 110.808419 
L 241.988425 109.429637 
L 241.994361 108.05273 
L 241.999864 106.677372 
L 242.004999 105.303256 
L 242.009844 103.930093 
L 242.014482 102.557616 
L 242.018999 101.185575 
L 242.023484 99.813742 
" clip-path="url(#p5c5cf19686)" style="fill: none; stroke: #ff0000; stroke-opacity: 0.6; stroke-width: 0.25; stroke-linecap: square"/>
   </g>
   <g id="line2d_69">
    <path d="M 242.313421 142.450564 
L 242.22942 140.924081 
L 242.143792 139.409303 
L 242.074616 137.904907 
L 242.019996 136.410714 
L 241.978054 134.926474 
L 241.946984 133.451872 
L 241.925086 131.98654 
L 241.910797 130.530067 
L 241.902711 129.082012 
L 241.899575 127.641913 
L 241.900292 126.209294 
L 241.903921 124.783672 
L 241.909664 123.364563 
L 241.91686 121.951485 
L 241.924968 120.543965 
L 241.933554 119.141537 
L 241.942283 117.743747 
L 241.950902 116.350155 
L 241.959228 114.960332 
L 241.967139 113.573867 
L 241.974565 112.190363 
L 241.981474 110.809442 
L 241.98787 109.430741 
L 241.993783 108.053917 
L 241.999262 106.678642 
L 242.004374 105.304609 
L 242.009195 103.931531 
L 242.013807 102.559138 
L 242.0183 101.187183 
L 242.02276 99.815436 
" clip-path="url(#p5c5cf19686)" style="fill: none; stroke: #ff0000; stroke-opacity: 0.8; stroke-width: 0.25; stroke-linecap: square"/>
   </g>
   <g id="line2d_70">
    <path d="M 242.313421 142.450564 
L 242.230442 140.924025 
L 242.14473 139.40925 
L 242.075454 137.904854 
L 242.020727 136.410659 
L 241.97868 134.926414 
L 241.947511 133.451804 
L 241.925524 131.986461 
L 241.911159 130.529976 
L 241.903009 129.081906 
L 241.899819 127.641791 
L 241.900495 126.209154 
L 241.904094 124.783513 
L 241.909817 123.364382 
L 241.917002 121.951283 
L 241.925106 120.54374 
L 241.933695 119.141288 
L 241.942432 117.743473 
L 241.951062 116.349854 
L 241.959402 114.960005 
L 241.96733 113.573512 
L 241.974774 112.189981 
L 241.981702 110.809032 
L 241.988118 109.430302 
L 241.994051 108.053448 
L 241.999551 106.678143 
L 242.004683 105.30408 
L 242.009524 103.930972 
L 242.014158 102.558549 
L 242.018671 101.186563 
L 242.023152 99.814785 
" clip-path="url(#p5c5cf19686)" style="fill: none; stroke: #ff0000; stroke-width: 0.25; stroke-linecap: square"/>
   </g>
   <g id="line2d_71">
    <path d="M 261.599128 179.430579 
L 263.038087 179.512735 
L 264.481364 179.564795 
L 265.92723 179.625173 
L 267.375767 179.69068 
L 268.827051 179.758603 
L 270.28113 179.82672 
L 271.738023 179.893267 
L 273.197709 179.956903 
L 274.660133 180.016657 
L 276.12521 180.071879 
L 277.592833 180.122184 
L 279.062877 180.167407 
L 280.535203 180.207555 
L 282.009666 180.242767 
L 283.486116 180.273282 
L 284.9644 180.299408 
L 286.444369 180.321499 
L 287.925871 180.339935 
L 289.408761 180.355105 
L 290.892894 180.3674 
L 292.378131 180.3772 
L 293.864336 180.384869 
L 295.351378 180.390751 
L 296.839132 180.395168 
L 298.327475 180.39842 
L 299.816293 180.400782 
L 301.305476 180.402507 
L 302.794922 180.403828 
L 304.284534 180.404967 
L 305.774222 180.406101 
" clip-path="url(#p5c5cf19686)" style="fill: none; stroke: #ff0000; stroke-opacity: 0.2; stroke-width: 0.25; stroke-linecap: square"/>
   </g>
   <g id="line2d_72">
    <path d="M 261.599128 179.430579 
L 263.037204 179.526961 
L 264.480525 179.577786 
L 265.926445 179.636839 
L 267.375044 179.700965 
L 268.826392 179.767494 
L 270.280536 179.834241 
L 271.737489 179.899477 
L 273.19723 179.961888 
L 274.659702 180.020522 
L 276.12482 180.074738 
L 277.592478 180.12416 
L 279.062551 180.168618 
L 280.534902 180.208117 
L 282.009387 180.242786 
L 283.485856 180.272856 
L 284.964159 180.298621 
L 286.444146 180.320423 
L 287.925668 180.338631 
L 289.408578 180.353624 
L 290.892734 180.36578 
L 292.377996 180.37547 
L 293.864228 180.383051 
L 295.351301 180.38886 
L 296.839088 180.393214 
L 298.327468 180.396408 
L 299.816327 180.398717 
L 301.305554 180.400392 
L 302.795048 180.401665 
L 304.284712 180.402753 
L 305.774456 180.403852 
" clip-path="url(#p5c5cf19686)" style="fill: none; stroke: #ff0000; stroke-opacity: 0.4; stroke-width: 0.25; stroke-linecap: square"/>
   </g>
   <g id="line2d_73">
    <path d="M 261.599128 179.430579 
L 263.036869 179.531827 
L 264.480209 179.582131 
L 265.926152 179.640661 
L 267.374775 179.704266 
L 268.826149 179.770284 
L 270.280318 179.836541 
L 271.737296 179.901314 
L 273.197059 179.963296 
L 274.659551 180.021537 
L 276.124689 180.075398 
L 277.592364 180.124501 
L 279.062452 180.168674 
L 280.534817 180.207918 
L 282.009314 180.24236 
L 283.485796 180.272224 
L 284.964111 180.297802 
L 286.444109 180.319431 
L 287.925642 180.337477 
L 289.408563 180.352314 
L 290.89273 180.36432 
L 292.378003 180.373862 
L 293.864247 180.381296 
L 295.351332 180.386957 
L 296.83913 180.391163 
L 298.327523 180.394208 
L 299.816394 180.396366 
L 301.305635 180.397889 
L 302.795142 180.39901 
L 304.28482 180.399945 
L 305.774578 180.400892 
" clip-path="url(#p5c5cf19686)" style="fill: none; stroke: #ff0000; stroke-opacity: 0.6; stroke-width: 0.25; stroke-linecap: square"/>
   </g>
   <g id="line2d_74">
    <path d="M 261.599128 179.430579 
L 263.036599 179.535592 
L 264.479953 179.585497 
L 265.925912 179.643644 
L 267.374553 179.706882 
L 268.825943 179.772557 
L 270.280129 179.838498 
L 271.737122 179.902989 
L 273.196898 179.964725 
L 274.659401 180.022757 
L 276.124548 180.076448 
L 277.592231 180.125415 
L 279.062326 180.169487 
L 280.534697 180.20866 
L 282.009199 180.243058 
L 283.485685 180.272901 
L 284.964005 180.298479 
L 286.444008 180.320126 
L 287.925545 180.338203 
L 289.408471 180.353084 
L 290.892642 180.365143 
L 292.37792 180.374748 
L 293.864169 180.38225 
L 295.351258 180.387986 
L 296.839062 180.39227 
L 298.32746 180.395398 
L 299.816337 180.397641 
L 301.305584 180.399252 
L 302.795097 180.400463 
L 304.28478 180.401488 
L 305.774545 180.402525 
" clip-path="url(#p5c5cf19686)" style="fill: none; stroke: #ff0000; stroke-opacity: 0.8; stroke-width: 0.25; stroke-linecap: square"/>
   </g>
   <g id="line2d_75">
    <path d="M 261.599128 179.430579 
L 263.036386 179.538471 
L 264.479752 179.588026 
L 265.925726 179.645839 
L 267.374381 179.708759 
L 268.825787 179.774132 
L 270.279987 179.839793 
L 271.736994 179.904027 
L 273.196782 179.965531 
L 274.659297 180.023357 
L 276.124454 180.076866 
L 277.592146 180.125674 
L 279.062249 180.169609 
L 280.534626 180.208663 
L 282.009135 180.242958 
L 283.485628 180.272711 
L 284.963953 180.29821 
L 286.443961 180.319787 
L 287.925504 180.337801 
L 289.408435 180.352623 
L 290.892611 180.364628 
L 292.377894 180.37418 
L 293.864148 180.381633 
L 295.351242 180.38732 
L 296.839051 180.391556 
L 298.327455 180.394636 
L 299.816337 180.396831 
L 301.305588 180.398394 
L 302.795107 180.399557 
L 304.284796 180.400534 
L 305.774566 180.401523 
" clip-path="url(#p5c5cf19686)" style="fill: none; stroke: #ff0000; stroke-width: 0.25; stroke-linecap: square"/>
   </g>
   <g id="line2d_76">
    <path d="M 230.312398 218.025173 
L 230.315345 219.90778 
L 230.317947 221.786526 
L 230.319229 223.661841 
L 230.319512 225.534124 
L 230.319073 227.403745 
L 230.318138 229.271046 
L 230.316891 231.136339 
L 230.315474 232.999912 
L 230.313996 234.862023 
L 230.312538 236.722908 
L 230.311155 238.582777 
L 230.309884 240.441817 
L 230.308744 242.300196 
L 230.307745 244.158057 
L 230.306888 246.015526 
L 230.306167 247.872712 
L 230.305572 249.729704 
L 230.305092 251.586578 
L 230.304713 253.443394 
L 230.304422 255.3002 
L 230.304205 257.157031 
L 230.304051 259.013912 
L 230.303949 260.870857 
L 230.303887 262.727875 
L 230.303858 264.584964 
L 230.303852 266.442121 
L 230.303863 268.299335 
L 230.303884 270.156592 
L 230.30391 272.013878 
L 230.30394 273.871177 
" clip-path="url(#p5c5cf19686)" style="fill: none; stroke: #ff0000; stroke-opacity: 0.2; stroke-width: 0.25; stroke-linecap: square"/>
   </g>
   <g id="line2d_77">
    <path d="M 230.312398 218.025173 
L 230.31482 219.907781 
L 230.317423 221.786556 
L 230.318729 223.661929 
L 230.319055 225.534301 
L 230.318667 227.404039 
L 230.317788 229.271487 
L 230.316596 231.136955 
L 230.315232 233.000732 
L 230.313802 234.863075 
L 230.312385 236.724221 
L 230.311035 238.584378 
L 230.30979 240.443735 
L 230.308669 242.302456 
L 230.307684 244.160686 
L 230.306836 246.018551 
L 230.306121 247.876157 
L 230.305529 249.733595 
L 230.30505 251.590938 
L 230.304673 253.448245 
L 230.304383 255.305564 
L 230.304169 257.162929 
L 230.304018 259.020362 
L 230.303919 260.877878 
L 230.303862 262.735482 
L 230.303837 264.593174 
L 230.303837 266.450946 
L 230.303855 268.308786 
L 230.303884 270.166679 
L 230.303919 272.024609 
L 230.303953 273.882557 
" clip-path="url(#p5c5cf19686)" style="fill: none; stroke: #ff0000; stroke-opacity: 0.4; stroke-width: 0.25; stroke-linecap: square"/>
   </g>
   <g id="line2d_78">
    <path d="M 230.312398 218.025173 
L 230.314416 219.907782 
L 230.317032 221.786539 
L 230.31837 223.661878 
L 230.318739 225.534198 
L 230.318399 227.403869 
L 230.31757 229.271231 
L 230.316426 231.136598 
L 230.315106 233.000257 
L 230.313714 234.862466 
L 230.312329 236.723461 
L 230.311006 238.583452 
L 230.309782 240.442627 
L 230.308678 242.301152 
L 230.307705 244.159171 
L 230.306866 246.01681 
L 230.306156 247.874176 
L 230.305569 249.73136 
L 230.305093 251.588437 
L 230.304716 253.445467 
L 230.304426 255.302496 
L 230.304211 257.15956 
L 230.304057 259.016683 
L 230.303955 260.873879 
L 230.303894 262.731155 
L 230.303864 264.588511 
L 230.303859 266.445941 
L 230.30387 268.303433 
L 230.303892 270.160974 
L 230.30392 272.018547 
L 230.303949 273.876136 
" clip-path="url(#p5c5cf19686)" style="fill: none; stroke: #ff0000; stroke-opacity: 0.6; stroke-width: 0.25; stroke-linecap: square"/>
   </g>
   <g id="line2d_79">
    <path d="M 230.312398 218.025173 
L 230.314101 219.907782 
L 230.316732 221.786549 
L 230.318098 223.661908 
L 230.318502 225.534258 
L 230.318201 227.403968 
L 230.317408 229.271379 
L 230.316298 231.136805 
L 230.315007 233.000531 
L 230.31364 234.862818 
L 230.312276 236.723899 
L 230.310968 238.583986 
L 230.309756 240.443265 
L 230.30866 242.301902 
L 230.307693 244.160041 
L 230.306858 246.017809 
L 230.306151 247.875312 
L 230.305565 249.73264 
L 230.305089 251.589867 
L 230.304712 253.447054 
L 230.304422 255.304247 
L 230.304206 257.16148 
L 230.304052 259.018778 
L 230.30395 260.876154 
L 230.303889 262.733614 
L 230.30386 264.591157 
L 230.303855 266.448778 
L 230.303868 268.306464 
L 230.303892 270.164201 
L 230.303921 272.021972 
L 230.303952 273.879761 
" clip-path="url(#p5c5cf19686)" style="fill: none; stroke: #ff0000; stroke-opacity: 0.8; stroke-width: 0.25; stroke-linecap: square"/>
   </g>
   <g id="line2d_80">
    <path d="M 230.312398 218.025173 
L 230.313855 219.907782 
L 230.316502 221.786544 
L 230.317893 223.661892 
L 230.318326 225.534224 
L 230.318055 227.403911 
L 230.317291 229.271294 
L 230.316207 231.136687 
L 230.314939 233.000374 
L 230.313591 234.862616 
L 230.312242 236.723648 
L 230.310947 238.58368 
L 230.309744 240.4429 
L 230.308656 242.301473 
L 230.307695 244.159543 
L 230.306863 246.017238 
L 230.306159 247.874663 
L 230.305575 249.73191 
L 230.305101 251.589052 
L 230.304725 253.44615 
L 230.304436 255.30325 
L 230.304219 257.160388 
L 230.304065 259.017587 
L 230.303962 260.874861 
L 230.3039 262.732219 
L 230.30387 264.589657 
L 230.303863 266.447171 
L 230.303874 268.304748 
L 230.303896 270.162376 
L 230.303923 272.020037 
L 230.303952 273.877714 
" clip-path="url(#p5c5cf19686)" style="fill: none; stroke: #ff0000; stroke-width: 0.25; stroke-linecap: square"/>
   </g>
   <g id="line2d_81">
    <path d="M 210.712746 169.68181 
L 209.276105 169.585713 
L 207.834326 169.529132 
L 206.389855 169.464503 
L 204.942606 169.394994 
L 203.492501 169.323316 
L 202.039488 169.251701 
L 200.583552 169.181922 
L 199.124716 169.115326 
L 197.663042 169.052884 
L 196.198618 168.995241 
L 194.731559 168.942773 
L 193.261999 168.895635 
L 191.790082 168.853803 
L 190.315961 168.817121 
L 188.839793 168.785334 
L 187.361736 168.758117 
L 185.881946 168.735097 
L 184.400579 168.715878 
L 182.917787 168.700055 
L 181.433718 168.687221 
L 179.948516 168.676983 
L 178.462321 168.668963 
L 176.975266 168.662805 
L 175.487481 168.658174 
L 173.999091 168.65476 
L 172.510213 168.652278 
L 171.020958 168.650463 
L 169.531433 168.64907 
L 168.041736 168.647874 
L 166.551958 168.646659 
" clip-path="url(#p5c5cf19686)" style="fill: none; stroke: #ff0000; stroke-opacity: 0.2; stroke-width: 0.25; stroke-linecap: square"/>
   </g>
   <g id="line2d_82">
    <path d="M 210.712746 169.68181 
L 209.276974 169.573501 
L 207.835145 169.518122 
L 206.390611 169.45472 
L 204.943291 169.386453 
L 203.493109 169.316008 
L 202.040018 169.245593 
L 200.584004 169.176958 
L 199.125093 169.111431 
L 197.663346 169.049971 
L 196.198855 168.993217 
L 194.731732 168.941543 
L 193.262111 168.895104 
L 191.790136 168.853884 
L 190.315958 168.817734 
L 188.839734 168.786407 
L 187.361622 168.759585 
L 185.881777 168.736907 
L 184.400354 168.717985 
L 182.917506 168.702421 
L 181.433379 168.689815 
L 179.948119 168.679781 
L 178.461863 168.671944 
L 176.974747 168.665952 
L 175.486899 168.661475 
L 173.998444 168.658202 
L 172.509499 168.655849 
L 171.020176 168.654154 
L 169.530581 168.652876 
L 168.040812 168.65179 
L 166.55096 168.650689 
" clip-path="url(#p5c5cf19686)" style="fill: none; stroke: #ff0000; stroke-opacity: 0.4; stroke-width: 0.25; stroke-linecap: square"/>
   </g>
   <g id="line2d_83">
    <path d="M 210.712746 169.68181 
L 209.277303 169.569224 
L 207.835454 169.514346 
L 206.390898 169.451434 
L 204.943552 169.383648 
L 203.493344 169.313673 
L 202.040226 169.24371 
L 200.584187 169.175504 
L 199.125253 169.11038 
L 197.663484 169.049294 
L 196.198971 168.992885 
L 194.73183 168.941529 
L 193.262191 168.895382 
L 191.790199 168.854431 
L 190.316005 168.81853 
L 188.839767 168.787435 
L 187.36164 168.760833 
L 185.881781 168.738366 
L 184.400345 168.719647 
L 182.917483 168.704281 
L 181.433343 168.691872 
L 179.948069 168.682033 
L 178.4618 168.674391 
L 176.97467 168.668596 
L 175.486809 168.664316 
L 173.998341 168.661244 
L 172.509382 168.659093 
L 171.020046 168.657602 
L 169.530437 168.656528 
L 168.040654 168.655646 
L 166.550789 168.65475 
" clip-path="url(#p5c5cf19686)" style="fill: none; stroke: #ff0000; stroke-opacity: 0.6; stroke-width: 0.25; stroke-linecap: square"/>
   </g>
   <g id="line2d_84">
    <path d="M 210.712746 169.68181 
L 209.277572 169.565846 
L 207.835709 169.511332 
L 206.391137 169.448757 
L 204.943776 169.381285 
L 203.493552 169.311599 
L 202.040419 169.241897 
L 200.584367 169.173921 
L 199.12542 169.108994 
L 197.663642 169.04807 
L 196.199121 168.991791 
L 194.731972 168.94053 
L 193.262327 168.894449 
L 191.79033 168.853536 
L 190.316132 168.817648 
L 188.839889 168.786544 
L 187.361758 168.759914 
L 185.881895 168.737402 
L 184.400455 168.718625 
L 182.917589 168.703188 
L 181.433445 168.690698 
L 179.948166 168.680768 
L 178.461893 168.67303 
L 176.974759 168.667131 
L 175.486893 168.662742 
L 173.99842 168.659557 
L 172.509456 168.65729 
L 171.020115 168.655679 
L 169.530501 168.654483 
L 168.040712 168.65348 
L 166.550841 168.652462 
" clip-path="url(#p5c5cf19686)" style="fill: none; stroke: #ff0000; stroke-opacity: 0.8; stroke-width: 0.25; stroke-linecap: square"/>
   </g>
   <g id="line2d_85">
    <path d="M 210.712746 169.68181 
L 209.277785 169.563234 
L 207.835909 169.509052 
L 206.391323 169.446788 
L 204.943947 169.37961 
L 203.493708 169.310201 
L 202.040561 169.240759 
L 200.584494 169.173021 
L 199.125535 169.108311 
L 197.663745 169.047584 
L 196.199214 168.99148 
L 194.732056 168.940375 
L 193.262402 168.894433 
L 191.790398 168.853643 
L 190.316193 168.817865 
L 188.839943 168.78686 
L 187.361806 168.76032 
L 185.881937 168.737891 
L 184.400491 168.71919 
L 182.917619 168.703827 
L 181.43347 168.691407 
L 179.948186 168.681546 
L 178.461907 168.673874 
L 176.974768 168.668041 
L 175.486897 168.663719 
L 173.998418 168.660599 
L 172.509449 168.658399 
L 171.020102 168.656855 
L 169.530483 168.655726 
L 168.040689 168.65479 
L 166.550813 168.653839 
" clip-path="url(#p5c5cf19686)" style="fill: none; stroke: #ff0000; stroke-width: 0.25; stroke-linecap: square"/>
   </g>
   <g id="line2d_86">
    <path d="M 231.911355 197.722189 
L 231.712935 199.279726 
L 231.604974 200.847711 
L 231.489568 202.416287 
L 231.370247 203.985287 
L 231.250412 205.55461 
L 231.133001 207.124166 
L 231.020383 208.693856 
L 230.914352 210.263556 
L 230.816171 211.833129 
L 230.726632 213.402421 
L 230.64613 214.971281 
L 230.574736 216.539564 
L 230.51226 218.10714 
L 230.458318 219.673902 
L 230.412385 221.239766 
L 230.373836 222.804676 
L 230.341991 224.368601 
L 230.316141 225.931535 
L 230.295576 227.493494 
L 230.279601 229.054515 
L 230.267552 230.614651 
L 230.258804 232.17397 
L 230.25278 233.732552 
L 230.248948 235.290483 
L 230.246828 236.847857 
L 230.245987 238.40477 
L 230.246039 239.961321 
L 230.246638 241.517607 
L 230.247477 243.073721 
L 230.248319 244.629753 
" clip-path="url(#p5c5cf19686)" style="fill: none; stroke: #ff0000; stroke-opacity: 0.2; stroke-width: 0.25; stroke-linecap: square"/>
   </g>
   <g id="line2d_87">
    <path d="M 231.911355 197.722189 
L 231.699161 199.277909 
L 231.594326 200.846128 
L 231.481871 202.41496 
L 231.365405 203.984236 
L 231.248343 205.553845 
L 231.133616 207.123692 
L 231.023579 208.693671 
L 230.920013 210.263655 
L 230.824171 211.833501 
L 230.736841 213.403058 
L 230.658418 214.972172 
L 230.588976 216.540699 
L 230.528335 218.10851 
L 230.476119 219.6755 
L 230.431813 221.241585 
L 230.394804 222.80671 
L 230.364424 224.370846 
L 230.339973 225.933986 
L 230.320753 227.496149 
L 230.306077 229.057371 
L 230.295291 230.617706 
L 230.287778 232.177223 
L 230.282965 233.736 
L 230.280328 235.294125 
L 230.279392 236.851692 
L 230.279729 238.408797 
L 230.280955 239.965539 
L 230.28273 241.522015 
L 230.284749 243.078319 
L 230.286745 244.634541 
" clip-path="url(#p5c5cf19686)" style="fill: none; stroke: #ff0000; stroke-opacity: 0.4; stroke-width: 0.25; stroke-linecap: square"/>
   </g>
   <g id="line2d_88">
    <path d="M 231.911355 197.722189 
L 231.695488 199.277404 
L 231.59107 200.845652 
L 231.478917 202.41451 
L 231.362674 203.983807 
L 231.245772 205.553435 
L 231.131147 207.123297 
L 231.021158 208.693288 
L 230.917589 210.263282 
L 230.821694 211.833136 
L 230.734266 213.4027 
L 230.655704 214.971819 
L 230.586087 216.540351 
L 230.525237 218.108168 
L 230.472785 219.675163 
L 230.428219 221.241254 
L 230.390931 222.806387 
L 230.360254 224.370531 
L 230.335495 225.933682 
L 230.315956 227.495855 
L 230.300954 229.057088 
L 230.289835 230.617436 
L 230.281985 232.176965 
L 230.276832 233.735755 
L 230.273852 235.293894 
L 230.272571 236.851475 
L 230.27256 238.408594 
L 230.273438 239.965351 
L 230.274862 241.521841 
L 230.27653 243.078159 
L 230.278174 244.634395 
" clip-path="url(#p5c5cf19686)" style="fill: none; stroke: #ff0000; stroke-opacity: 0.6; stroke-width: 0.25; stroke-linecap: square"/>
   </g>
   <g id="line2d_89">
    <path d="M 231.911355 197.722189 
L 231.692511 199.276988 
L 231.588629 200.845273 
L 231.476938 202.414166 
L 231.361115 203.983497 
L 231.244603 205.553158 
L 231.130343 207.123053 
L 231.020697 208.693074 
L 230.917449 210.263096 
L 230.821856 211.832976 
L 230.73471 213.402563 
L 230.656415 214.971705 
L 230.587049 216.540256 
L 230.526439 218.108092 
L 230.474217 219.675104 
L 230.429874 221.241211 
L 230.392804 222.806359 
L 230.362343 224.370517 
L 230.337798 225.933681 
L 230.318472 227.495867 
L 230.303684 229.057112 
L 230.292781 230.617471 
L 230.285148 232.177011 
L 230.280213 233.735811 
L 230.277454 235.29396 
L 230.276395 236.851551 
L 230.276608 238.408679 
L 230.27771 239.965445 
L 230.279359 241.521944 
L 230.281253 243.078271 
L 230.283121 244.634516 
" clip-path="url(#p5c5cf19686)" style="fill: none; stroke: #ff0000; stroke-opacity: 0.8; stroke-width: 0.25; stroke-linecap: square"/>
   </g>
   <g id="line2d_90">
    <path d="M 231.911355 197.722189 
L 231.689879 199.276615 
L 231.586373 200.844926 
L 231.474978 202.413843 
L 231.359398 203.983195 
L 231.24309 205.552875 
L 231.128999 207.122787 
L 231.019489 208.692823 
L 230.916345 210.262858 
L 230.820827 211.83275 
L 230.733729 213.402347 
L 230.655455 214.971496 
L 230.586089 216.540056 
L 230.525457 218.107899 
L 230.473197 219.674918 
L 230.428799 221.241033 
L 230.391662 222.806187 
L 230.361122 224.370353 
L 230.336489 225.933523 
L 230.317068 227.495717 
L 230.302178 229.05697 
L 230.291168 230.617337 
L 230.283423 232.176885 
L 230.278372 233.735694 
L 230.275494 235.293851 
L 230.274312 236.85145 
L 230.2744 238.408587 
L 230.275375 239.965362 
L 230.276895 241.521869 
L 230.278659 243.078205 
L 230.280396 244.634459 
" clip-path="url(#p5c5cf19686)" style="fill: none; stroke: #ff0000; stroke-width: 0.25; stroke-linecap: square"/>
   </g>
   <g id="patch_15">
    <path d="M 103.104 307.584 
L 103.104 41.472 
" style="fill: none; stroke: #000000; stroke-width: 0.8; stroke-linejoin: miter; stroke-linecap: square"/>
   </g>
   <g id="patch_16">
    <path d="M 369.216 307.584 
L 369.216 41.472 
" style="fill: none; stroke: #000000; stroke-width: 0.8; stroke-linejoin: miter; stroke-linecap: square"/>
   </g>
   <g id="patch_17">
    <path d="M 103.104 307.584 
L 369.216 307.584 
" style="fill: none; stroke: #000000; stroke-width: 0.8; stroke-linejoin: miter; stroke-linecap: square"/>
   </g>
   <g id="patch_18">
    <path d="M 103.104 41.472 
L 369.216 41.472 
" style="fill: none; stroke: #000000; stroke-width: 0.8; stroke-linejoin: miter; stroke-linecap: square"/>
   </g>
   <g id="text_19">
    <!-- Time:  92 ms -->
    <g transform="translate(264.253887 54.7776) scale(0.1 -0.1)">
     <defs>
      <path id="DejaVuSans-54" d="M -19 4666 
L 3928 4666 
L 3928 4134 
L 2272 4134 
L 2272 0 
L 1638 0 
L 1638 4134 
L -19 4134 
L -19 4666 
z
" transform="scale(0.015625)"/>
      <path id="DejaVuSans-69" d="M 603 3500 
L 1178 3500 
L 1178 0 
L 603 0 
L 603 3500 
z
M 603 4863 
L 1178 4863 
L 1178 4134 
L 603 4134 
L 603 4863 
z
" transform="scale(0.015625)"/>
      <path id="DejaVuSans-6d" d="M 3328 2828 
Q 3544 3216 3844 3400 
Q 4144 3584 4550 3584 
Q 5097 3584 5394 3201 
Q 5691 2819 5691 2113 
L 5691 0 
L 5113 0 
L 5113 2094 
Q 5113 2597 4934 2840 
Q 4756 3084 4391 3084 
Q 3944 3084 3684 2787 
Q 3425 2491 3425 1978 
L 3425 0 
L 2847 0 
L 2847 2094 
Q 2847 2600 2669 2842 
Q 2491 3084 2119 3084 
Q 1678 3084 1418 2786 
Q 1159 2488 1159 1978 
L 1159 0 
L 581 0 
L 581 3500 
L 1159 3500 
L 1159 2956 
Q 1356 3278 1631 3431 
Q 1906 3584 2284 3584 
Q 2666 3584 2933 3390 
Q 3200 3197 3328 2828 
z
" transform="scale(0.015625)"/>
      <path id="DejaVuSans-65" d="M 3597 1894 
L 3597 1613 
L 953 1613 
Q 991 1019 1311 708 
Q 1631 397 2203 397 
Q 2534 397 2845 478 
Q 3156 559 3463 722 
L 3463 178 
Q 3153 47 2828 -22 
Q 2503 -91 2169 -91 
Q 1331 -91 842 396 
Q 353 884 353 1716 
Q 353 2575 817 3079 
Q 1281 3584 2069 3584 
Q 2775 3584 3186 3129 
Q 3597 2675 3597 1894 
z
M 3022 2063 
Q 3016 2534 2758 2815 
Q 2500 3097 2075 3097 
Q 1594 3097 1305 2825 
Q 1016 2553 972 2059 
L 3022 2063 
z
" transform="scale(0.015625)"/>
      <path id="DejaVuSans-3a" d="M 750 794 
L 1409 794 
L 1409 0 
L 750 0 
L 750 794 
z
M 750 3309 
L 1409 3309 
L 1409 2516 
L 750 2516 
L 750 3309 
z
" transform="scale(0.015625)"/>
      <path id="DejaVuSans-20" transform="scale(0.015625)"/>
      <path id="DejaVuSans-39" d="M 703 97 
L 703 672 
Q 941 559 1184 500 
Q 1428 441 1663 441 
Q 2288 441 2617 861 
Q 2947 1281 2994 2138 
Q 2813 1869 2534 1725 
Q 2256 1581 1919 1581 
Q 1219 1581 811 2004 
Q 403 2428 403 3163 
Q 403 3881 828 4315 
Q 1253 4750 1959 4750 
Q 2769 4750 3195 4129 
Q 3622 3509 3622 2328 
Q 3622 1225 3098 567 
Q 2575 -91 1691 -91 
Q 1453 -91 1209 -44 
Q 966 3 703 97 
z
M 1959 2075 
Q 2384 2075 2632 2365 
Q 2881 2656 2881 3163 
Q 2881 3666 2632 3958 
Q 2384 4250 1959 4250 
Q 1534 4250 1286 3958 
Q 1038 3666 1038 3163 
Q 1038 2656 1286 2365 
Q 1534 2075 1959 2075 
z
" transform="scale(0.015625)"/>
      <path id="DejaVuSans-73" d="M 2834 3397 
L 2834 2853 
Q 2591 2978 2328 3040 
Q 2066 3103 1784 3103 
Q 1356 3103 1142 2972 
Q 928 2841 928 2578 
Q 928 2378 1081 2264 
Q 1234 2150 1697 2047 
L 1894 2003 
Q 2506 1872 2764 1633 
Q 3022 1394 3022 966 
Q 3022 478 2636 193 
Q 2250 -91 1575 -91 
Q 1294 -91 989 -36 
Q 684 19 347 128 
L 347 722 
Q 666 556 975 473 
Q 1284 391 1588 391 
Q 1994 391 2212 530 
Q 2431 669 2431 922 
Q 2431 1156 2273 1281 
Q 2116 1406 1581 1522 
L 1381 1569 
Q 847 1681 609 1914 
Q 372 2147 372 2553 
Q 372 3047 722 3315 
Q 1072 3584 1716 3584 
Q 2034 3584 2315 3537 
Q 2597 3491 2834 3397 
z
" transform="scale(0.015625)"/>
     </defs>
     <use xlink:href="#DejaVuSans-54"/>
     <use xlink:href="#DejaVuSans-69" x="57.958984"/>
     <use xlink:href="#DejaVuSans-6d" x="85.742188"/>
     <use xlink:href="#DejaVuSans-65" x="183.154297"/>
     <use xlink:href="#DejaVuSans-3a" x="244.677734"/>
     <use xlink:href="#DejaVuSans-20" x="278.369141"/>
     <use xlink:href="#DejaVuSans-20" x="310.15625"/>
     <use xlink:href="#DejaVuSans-39" x="341.943359"/>
     <use xlink:href="#DejaVuSans-32" x="405.566406"/>
     <use xlink:href="#DejaVuSans-20" x="469.189453"/>
     <use xlink:href="#DejaVuSans-6d" x="500.976562"/>
     <use xlink:href="#DejaVuSans-73" x="598.388672"/>
    </g>
   </g>
  </g>
 </g>
 <defs>
  <clipPath id="p5c5cf19686">
   <rect x="103.104" y="41.472" width="266.112" height="266.112"/>
  </clipPath>
 </defs>
</svg>
