<?xml version="1.0" encoding="utf-8" standalone="no"?>
<!DOCTYPE svg PUBLIC "-//W3C//DTD SVG 1.1//EN"
  "http://www.w3.org/Graphics/SVG/1.1/DTD/svg11.dtd">
<svg xmlns:xlink="http://www.w3.org/1999/xlink" width="460.8pt" height="345.6pt" viewBox="0 0 460.8 345.6" xmlns="http://www.w3.org/2000/svg" version="1.1">
 <metadata>
  <rdf:RDF xmlns:dc="http://purl.org/dc/elements/1.1/" xmlns:cc="http://creativecommons.org/ns#" xmlns:rdf="http://www.w3.org/1999/02/22-rdf-syntax-ns#">
   <cc:Work>
    <dc:type rdf:resource="http://purl.org/dc/dcmitype/StillImage"/>
    <dc:date>2024-01-23T14:21:44.394023</dc:date>
    <dc:format>image/svg+xml</dc:format>
    <dc:creator>
     <cc:Agent>
      <dc:title>Matplotlib v3.8.2, https://matplotlib.org/</dc:title>
     </cc:Agent>
    </dc:creator>
   </cc:Work>
  </rdf:RDF>
 </metadata>
 <defs>
  <style type="text/css">*{stroke-linejoin: round; stroke-linecap: butt}</style>
 </defs>
 <g id="figure_1">
  <g id="patch_1">
   <path d="M 0 345.6 
L 460.8 345.6 
L 460.8 0 
L 0 0 
z
" style="fill: #ffffff"/>
  </g>
  <g id="axes_1">
   <g id="patch_2">
    <path d="M 103.104 307.584 
L 369.216 307.584 
L 369.216 41.472 
L 103.104 41.472 
z
" style="fill: #ffffff"/>
   </g>
   <g id="patch_3">
    <path d="M 568.8 -158.112 
L 557.1576 -158.112 
L 557.1576 -152.45712 
L 568.8 -152.45712 
z
" clip-path="url(#pc07033cade)" style="fill: #00008b"/>
   </g>
   <g id="patch_4">
    <path d="M 568.8 -158.112 
L 568.800001 -169.7544 
L 563.145121 -169.7544 
L 563.14512 -158.112 
z
" clip-path="url(#pc07033cade)" style="fill: #800000"/>
   </g>
   <g id="patch_5">
    <path d="M 568.8 -158.112 
L 568.8 -146.4696 
L 574.45488 -146.4696 
L 574.45488 -158.112 
z
" clip-path="url(#pc07033cade)" style="fill: #006400"/>
   </g>
   <g id="patch_6">
    <path d="M 568.8 -158.112 
L 580.4424 -158.112 
L 580.4424 -163.76688 
L 568.8 -163.76688 
z
" clip-path="url(#pc07033cade)" style="fill: #4b0082"/>
   </g>
   <g id="patch_7">
    <path d="M 568.8 -158.112 
L 568.8 -169.7544 
L 563.14512 -169.7544 
L 563.14512 -158.112 
z
" clip-path="url(#pc07033cade)" style="fill: #0000ff"/>
   </g>
   <g id="patch_8">
    <path d="M 568.8 -158.112 
L 557.1576 -158.112198 
L 557.157504 -152.457318 
L 568.799904 -152.45712 
z
" clip-path="url(#pc07033cade)" style="fill: #ff0000"/>
   </g>
   <g id="patch_9">
    <path d="M 568.8 -158.112 
L 580.4424 -158.111975 
L 580.442412 -163.766855 
L 568.800012 -163.76688 
z
" clip-path="url(#pc07033cade)" style="fill: #dbdc56"/>
   </g>
   <g id="patch_10">
    <path d="M 568.8 -158.112 
L 568.80866 -169.754397 
L 563.153781 -169.758603 
L 563.145122 -158.116206 
z
" clip-path="url(#pc07033cade)" style="fill: #9400d3"/>
   </g>
   <g id="patch_11">
    <path d="M 568.8 -158.112 
L 580.44238 -158.090204 
L 580.452966 -163.745075 
L 568.810586 -163.76687 
z
" clip-path="url(#pc07033cade)" style="fill: #1e90ff"/>
   </g>
   <g id="patch_12">
    <path d="M 568.8 -158.112 
L 568.799896 -146.4696 
L 574.454776 -146.469549 
L 574.45488 -158.111949 
z
" clip-path="url(#pc07033cade)" style="fill: #ff4500"/>
   </g>
   <g id="patch_13">
    <path d="M 568.8 -158.112 
L 557.157622 -158.134763 
L 557.146566 -152.479894 
L 568.788944 -152.457131 
z
" clip-path="url(#pc07033cade)" style="fill: #7cfc00"/>
   </g>
   <g id="patch_14">
    <path d="M 568.8 -158.112 
L 568.772978 -146.469631 
L 574.427842 -146.456506 
L 574.454865 -158.098875 
z
" clip-path="url(#pc07033cade)" style="fill: #ff00ff"/>
   </g>
   <g id="matplotlib.axis_1">
    <g id="xtick_1">
     <g id="line2d_1">
      <defs>
       <path id="m54e056264c" d="M 0 0 
L 0 3.5 
" style="stroke: #000000; stroke-width: 0.8"/>
      </defs>
      <g>
       <use xlink:href="#m54e056264c" x="103.104" y="307.584" style="stroke: #000000; stroke-width: 0.8"/>
      </g>
     </g>
     <g id="text_1">
      <!-- −40 -->
      <g transform="translate(92.551656 322.182437) scale(0.1 -0.1)">
       <defs>
        <path id="DejaVuSans-2212" d="M 678 2272 
L 4684 2272 
L 4684 1741 
L 678 1741 
L 678 2272 
z
" transform="scale(0.015625)"/>
        <path id="DejaVuSans-34" d="M 2419 4116 
L 825 1625 
L 2419 1625 
L 2419 4116 
z
M 2253 4666 
L 3047 4666 
L 3047 1625 
L 3713 1625 
L 3713 1100 
L 3047 1100 
L 3047 0 
L 2419 0 
L 2419 1100 
L 313 1100 
L 313 1709 
L 2253 4666 
z
" transform="scale(0.015625)"/>
        <path id="DejaVuSans-30" d="M 2034 4250 
Q 1547 4250 1301 3770 
Q 1056 3291 1056 2328 
Q 1056 1369 1301 889 
Q 1547 409 2034 409 
Q 2525 409 2770 889 
Q 3016 1369 3016 2328 
Q 3016 3291 2770 3770 
Q 2525 4250 2034 4250 
z
M 2034 4750 
Q 2819 4750 3233 4129 
Q 3647 3509 3647 2328 
Q 3647 1150 3233 529 
Q 2819 -91 2034 -91 
Q 1250 -91 836 529 
Q 422 1150 422 2328 
Q 422 3509 836 4129 
Q 1250 4750 2034 4750 
z
" transform="scale(0.015625)"/>
       </defs>
       <use xlink:href="#DejaVuSans-2212"/>
       <use xlink:href="#DejaVuSans-34" x="83.789062"/>
       <use xlink:href="#DejaVuSans-30" x="147.412109"/>
      </g>
     </g>
    </g>
    <g id="xtick_2">
     <g id="line2d_2">
      <g>
       <use xlink:href="#m54e056264c" x="136.368" y="307.584" style="stroke: #000000; stroke-width: 0.8"/>
      </g>
     </g>
     <g id="text_2">
      <!-- −30 -->
      <g transform="translate(125.815656 322.182437) scale(0.1 -0.1)">
       <defs>
        <path id="DejaVuSans-33" d="M 2597 2516 
Q 3050 2419 3304 2112 
Q 3559 1806 3559 1356 
Q 3559 666 3084 287 
Q 2609 -91 1734 -91 
Q 1441 -91 1130 -33 
Q 819 25 488 141 
L 488 750 
Q 750 597 1062 519 
Q 1375 441 1716 441 
Q 2309 441 2620 675 
Q 2931 909 2931 1356 
Q 2931 1769 2642 2001 
Q 2353 2234 1838 2234 
L 1294 2234 
L 1294 2753 
L 1863 2753 
Q 2328 2753 2575 2939 
Q 2822 3125 2822 3475 
Q 2822 3834 2567 4026 
Q 2313 4219 1838 4219 
Q 1578 4219 1281 4162 
Q 984 4106 628 3988 
L 628 4550 
Q 988 4650 1302 4700 
Q 1616 4750 1894 4750 
Q 2613 4750 3031 4423 
Q 3450 4097 3450 3541 
Q 3450 3153 3228 2886 
Q 3006 2619 2597 2516 
z
" transform="scale(0.015625)"/>
       </defs>
       <use xlink:href="#DejaVuSans-2212"/>
       <use xlink:href="#DejaVuSans-33" x="83.789062"/>
       <use xlink:href="#DejaVuSans-30" x="147.412109"/>
      </g>
     </g>
    </g>
    <g id="xtick_3">
     <g id="line2d_3">
      <g>
       <use xlink:href="#m54e056264c" x="169.632" y="307.584" style="stroke: #000000; stroke-width: 0.8"/>
      </g>
     </g>
     <g id="text_3">
      <!-- −20 -->
      <g transform="translate(159.079656 322.182437) scale(0.1 -0.1)">
       <defs>
        <path id="DejaVuSans-32" d="M 1228 531 
L 3431 531 
L 3431 0 
L 469 0 
L 469 531 
Q 828 903 1448 1529 
Q 2069 2156 2228 2338 
Q 2531 2678 2651 2914 
Q 2772 3150 2772 3378 
Q 2772 3750 2511 3984 
Q 2250 4219 1831 4219 
Q 1534 4219 1204 4116 
Q 875 4013 500 3803 
L 500 4441 
Q 881 4594 1212 4672 
Q 1544 4750 1819 4750 
Q 2544 4750 2975 4387 
Q 3406 4025 3406 3419 
Q 3406 3131 3298 2873 
Q 3191 2616 2906 2266 
Q 2828 2175 2409 1742 
Q 1991 1309 1228 531 
z
" transform="scale(0.015625)"/>
       </defs>
       <use xlink:href="#DejaVuSans-2212"/>
       <use xlink:href="#DejaVuSans-32" x="83.789062"/>
       <use xlink:href="#DejaVuSans-30" x="147.412109"/>
      </g>
     </g>
    </g>
    <g id="xtick_4">
     <g id="line2d_4">
      <g>
       <use xlink:href="#m54e056264c" x="202.896" y="307.584" style="stroke: #000000; stroke-width: 0.8"/>
      </g>
     </g>
     <g id="text_4">
      <!-- −10 -->
      <g transform="translate(192.343656 322.182437) scale(0.1 -0.1)">
       <defs>
        <path id="DejaVuSans-31" d="M 794 531 
L 1825 531 
L 1825 4091 
L 703 3866 
L 703 4441 
L 1819 4666 
L 2450 4666 
L 2450 531 
L 3481 531 
L 3481 0 
L 794 0 
L 794 531 
z
" transform="scale(0.015625)"/>
       </defs>
       <use xlink:href="#DejaVuSans-2212"/>
       <use xlink:href="#DejaVuSans-31" x="83.789062"/>
       <use xlink:href="#DejaVuSans-30" x="147.412109"/>
      </g>
     </g>
    </g>
    <g id="xtick_5">
     <g id="line2d_5">
      <g>
       <use xlink:href="#m54e056264c" x="236.16" y="307.584" style="stroke: #000000; stroke-width: 0.8"/>
      </g>
     </g>
     <g id="text_5">
      <!-- 0 -->
      <g transform="translate(232.97875 322.182437) scale(0.1 -0.1)">
       <use xlink:href="#DejaVuSans-30"/>
      </g>
     </g>
    </g>
    <g id="xtick_6">
     <g id="line2d_6">
      <g>
       <use xlink:href="#m54e056264c" x="269.424" y="307.584" style="stroke: #000000; stroke-width: 0.8"/>
      </g>
     </g>
     <g id="text_6">
      <!-- 10 -->
      <g transform="translate(263.0615 322.182437) scale(0.1 -0.1)">
       <use xlink:href="#DejaVuSans-31"/>
       <use xlink:href="#DejaVuSans-30" x="63.623047"/>
      </g>
     </g>
    </g>
    <g id="xtick_7">
     <g id="line2d_7">
      <g>
       <use xlink:href="#m54e056264c" x="302.688" y="307.584" style="stroke: #000000; stroke-width: 0.8"/>
      </g>
     </g>
     <g id="text_7">
      <!-- 20 -->
      <g transform="translate(296.3255 322.182437) scale(0.1 -0.1)">
       <use xlink:href="#DejaVuSans-32"/>
       <use xlink:href="#DejaVuSans-30" x="63.623047"/>
      </g>
     </g>
    </g>
    <g id="xtick_8">
     <g id="line2d_8">
      <g>
       <use xlink:href="#m54e056264c" x="335.952" y="307.584" style="stroke: #000000; stroke-width: 0.8"/>
      </g>
     </g>
     <g id="text_8">
      <!-- 30 -->
      <g transform="translate(329.5895 322.182437) scale(0.1 -0.1)">
       <use xlink:href="#DejaVuSans-33"/>
       <use xlink:href="#DejaVuSans-30" x="63.623047"/>
      </g>
     </g>
    </g>
    <g id="xtick_9">
     <g id="line2d_9">
      <g>
       <use xlink:href="#m54e056264c" x="369.216" y="307.584" style="stroke: #000000; stroke-width: 0.8"/>
      </g>
     </g>
     <g id="text_9">
      <!-- 40 -->
      <g transform="translate(362.8535 322.182437) scale(0.1 -0.1)">
       <use xlink:href="#DejaVuSans-34"/>
       <use xlink:href="#DejaVuSans-30" x="63.623047"/>
      </g>
     </g>
    </g>
   </g>
   <g id="matplotlib.axis_2">
    <g id="ytick_1">
     <g id="line2d_10">
      <defs>
       <path id="m57af8c3ad4" d="M 0 0 
L -3.5 0 
" style="stroke: #000000; stroke-width: 0.8"/>
      </defs>
      <g>
       <use xlink:href="#m57af8c3ad4" x="103.104" y="307.584" style="stroke: #000000; stroke-width: 0.8"/>
      </g>
     </g>
     <g id="text_10">
      <!-- −40 -->
      <g transform="translate(74.999313 311.383219) scale(0.1 -0.1)">
       <use xlink:href="#DejaVuSans-2212"/>
       <use xlink:href="#DejaVuSans-34" x="83.789062"/>
       <use xlink:href="#DejaVuSans-30" x="147.412109"/>
      </g>
     </g>
    </g>
    <g id="ytick_2">
     <g id="line2d_11">
      <g>
       <use xlink:href="#m57af8c3ad4" x="103.104" y="274.32" style="stroke: #000000; stroke-width: 0.8"/>
      </g>
     </g>
     <g id="text_11">
      <!-- −30 -->
      <g transform="translate(74.999313 278.119219) scale(0.1 -0.1)">
       <use xlink:href="#DejaVuSans-2212"/>
       <use xlink:href="#DejaVuSans-33" x="83.789062"/>
       <use xlink:href="#DejaVuSans-30" x="147.412109"/>
      </g>
     </g>
    </g>
    <g id="ytick_3">
     <g id="line2d_12">
      <g>
       <use xlink:href="#m57af8c3ad4" x="103.104" y="241.056" style="stroke: #000000; stroke-width: 0.8"/>
      </g>
     </g>
     <g id="text_12">
      <!-- −20 -->
      <g transform="translate(74.999313 244.855219) scale(0.1 -0.1)">
       <use xlink:href="#DejaVuSans-2212"/>
       <use xlink:href="#DejaVuSans-32" x="83.789062"/>
       <use xlink:href="#DejaVuSans-30" x="147.412109"/>
      </g>
     </g>
    </g>
    <g id="ytick_4">
     <g id="line2d_13">
      <g>
       <use xlink:href="#m57af8c3ad4" x="103.104" y="207.792" style="stroke: #000000; stroke-width: 0.8"/>
      </g>
     </g>
     <g id="text_13">
      <!-- −10 -->
      <g transform="translate(74.999313 211.591219) scale(0.1 -0.1)">
       <use xlink:href="#DejaVuSans-2212"/>
       <use xlink:href="#DejaVuSans-31" x="83.789062"/>
       <use xlink:href="#DejaVuSans-30" x="147.412109"/>
      </g>
     </g>
    </g>
    <g id="ytick_5">
     <g id="line2d_14">
      <g>
       <use xlink:href="#m57af8c3ad4" x="103.104" y="174.528" style="stroke: #000000; stroke-width: 0.8"/>
      </g>
     </g>
     <g id="text_14">
      <!-- 0 -->
      <g transform="translate(89.7415 178.327219) scale(0.1 -0.1)">
       <use xlink:href="#DejaVuSans-30"/>
      </g>
     </g>
    </g>
    <g id="ytick_6">
     <g id="line2d_15">
      <g>
       <use xlink:href="#m57af8c3ad4" x="103.104" y="141.264" style="stroke: #000000; stroke-width: 0.8"/>
      </g>
     </g>
     <g id="text_15">
      <!-- 10 -->
      <g transform="translate(83.379 145.063219) scale(0.1 -0.1)">
       <use xlink:href="#DejaVuSans-31"/>
       <use xlink:href="#DejaVuSans-30" x="63.623047"/>
      </g>
     </g>
    </g>
    <g id="ytick_7">
     <g id="line2d_16">
      <g>
       <use xlink:href="#m57af8c3ad4" x="103.104" y="108" style="stroke: #000000; stroke-width: 0.8"/>
      </g>
     </g>
     <g id="text_16">
      <!-- 20 -->
      <g transform="translate(83.379 111.799219) scale(0.1 -0.1)">
       <use xlink:href="#DejaVuSans-32"/>
       <use xlink:href="#DejaVuSans-30" x="63.623047"/>
      </g>
     </g>
    </g>
    <g id="ytick_8">
     <g id="line2d_17">
      <g>
       <use xlink:href="#m57af8c3ad4" x="103.104" y="74.736" style="stroke: #000000; stroke-width: 0.8"/>
      </g>
     </g>
     <g id="text_17">
      <!-- 30 -->
      <g transform="translate(83.379 78.535219) scale(0.1 -0.1)">
       <use xlink:href="#DejaVuSans-33"/>
       <use xlink:href="#DejaVuSans-30" x="63.623047"/>
      </g>
     </g>
    </g>
    <g id="ytick_9">
     <g id="line2d_18">
      <g>
       <use xlink:href="#m57af8c3ad4" x="103.104" y="41.472" style="stroke: #000000; stroke-width: 0.8"/>
      </g>
     </g>
     <g id="text_18">
      <!-- 40 -->
      <g transform="translate(83.379 45.271219) scale(0.1 -0.1)">
       <use xlink:href="#DejaVuSans-34"/>
       <use xlink:href="#DejaVuSans-30" x="63.623047"/>
      </g>
     </g>
    </g>
   </g>
   <g id="line2d_19">
    <path d="M 250.2972 288.4572 
L 250.2972 188.6652 
" clip-path="url(#pc07033cade)" style="fill: none; stroke: #000000; stroke-width: 0.25; stroke-linecap: square"/>
   </g>
   <g id="line2d_20">
    <path d="M 250.2972 188.6652 
L 350.0892 188.6652 
" clip-path="url(#pc07033cade)" style="fill: none; stroke: #000000; stroke-width: 0.25; stroke-linecap: square"/>
   </g>
   <g id="line2d_21">
    <path d="M 350.0892 160.3908 
L 250.2972 160.3908 
" clip-path="url(#pc07033cade)" style="fill: none; stroke: #000000; stroke-width: 0.25; stroke-linecap: square"/>
   </g>
   <g id="line2d_22">
    <path d="M 250.2972 160.3908 
L 250.2972 60.5988 
" clip-path="url(#pc07033cade)" style="fill: none; stroke: #000000; stroke-width: 0.25; stroke-linecap: square"/>
   </g>
   <g id="line2d_23">
    <path d="M 222.0228 60.5988 
L 222.0228 160.3908 
" clip-path="url(#pc07033cade)" style="fill: none; stroke: #000000; stroke-width: 0.25; stroke-linecap: square"/>
   </g>
   <g id="line2d_24">
    <path d="M 222.0228 160.3908 
L 122.2308 160.3908 
" clip-path="url(#pc07033cade)" style="fill: none; stroke: #000000; stroke-width: 0.25; stroke-linecap: square"/>
   </g>
   <g id="line2d_25">
    <path d="M 122.2308 188.6652 
L 222.0228 188.6652 
" clip-path="url(#pc07033cade)" style="fill: none; stroke: #000000; stroke-width: 0.25; stroke-linecap: square"/>
   </g>
   <g id="line2d_26">
    <path d="M 222.0228 188.6652 
L 222.0228 288.4572 
" clip-path="url(#pc07033cade)" style="fill: none; stroke: #000000; stroke-width: 0.25; stroke-linecap: square"/>
   </g>
   <g id="line2d_27">
    <path d="M 250.2972 174.528 
L 350.0892 174.528 
" clip-path="url(#pc07033cade)" style="fill: none; stroke-dasharray: 0.925,0.4; stroke-dashoffset: 0; stroke: #000000; stroke-width: 0.25"/>
   </g>
   <g id="line2d_28">
    <path d="M 236.16 160.3908 
L 236.16 60.5988 
" clip-path="url(#pc07033cade)" style="fill: none; stroke-dasharray: 0.925,0.4; stroke-dashoffset: 0; stroke: #000000; stroke-width: 0.25"/>
   </g>
   <g id="line2d_29">
    <path d="M 222.0228 174.528 
L 122.2308 174.528 
" clip-path="url(#pc07033cade)" style="fill: none; stroke-dasharray: 0.925,0.4; stroke-dashoffset: 0; stroke: #000000; stroke-width: 0.25"/>
   </g>
   <g id="line2d_30">
    <path d="M 236.16 188.6652 
L 236.16 288.4572 
" clip-path="url(#pc07033cade)" style="fill: none; stroke-dasharray: 0.925,0.4; stroke-dashoffset: 0; stroke: #000000; stroke-width: 0.25"/>
   </g>
   <g id="line2d_31">
    <path d="M 244.843255 226.127005 
L 244.846236 224.504561 
L 244.853301 222.880642 
L 244.863614 221.257169 
L 244.878821 219.630244 
L 244.898614 218.002306 
L 244.924841 216.372586 
L 244.958616 214.741556 
L 245.001496 213.108415 
L 245.054459 211.472802 
L 245.118222 209.835025 
L 245.193542 208.194312 
L 245.280743 206.550383 
L 245.379454 204.902226 
L 245.488672 203.248602 
L 245.606661 201.588252 
L 245.730975 199.919694 
L 245.85831 198.241051 
L 245.984208 196.550512 
L 246.103016 194.846265 
L 246.207807 193.126182 
L 246.289973 191.38723 
L 246.338155 189.625564 
L 246.336963 187.841872 
L 246.269623 186.039679 
L 246.118235 184.218259 
L 245.858737 182.383251 
L 245.459212 180.538361 
L 244.891641 178.738939 
L 244.160623 177.002138 
L 243.273227 175.342439 
L 242.237648 173.773494 
L 241.063268 172.308036 
L 239.760351 170.958069 
L 238.340613 169.735318 
L 236.816589 168.649618 
L 235.201847 167.709941 
L 233.510408 166.923464 
L 231.757158 166.296283 
L 229.95718 165.832612 
L 228.154714 165.535492 
L 226.38498 165.37005 
L 224.64801 165.289979 
L 222.940242 165.26525 
L 221.253542 165.275053 
L 219.5839 165.306677 
L 217.927372 165.350934 
L 216.280584 165.401392 
L 214.640579 165.453686 
L 213.005722 165.505087 
L 211.374533 165.553716 
L 209.7459 165.598444 
L 208.119007 165.638684 
L 206.493271 165.674232 
L 204.868284 165.705153 
L 203.243765 165.731682 
L 201.619531 165.754162 
L 199.995462 165.772993 
L 198.371487 165.788594 
L 196.747565 165.801382 
L 195.123675 165.811753 
L 193.499809 165.820073 
L 191.875964 165.826673 
L 190.252142 165.831848 
L 188.628343 165.835851 
L 187.004568 165.838905 
L 185.380814 165.841194 
L 183.757078 165.842877 
L 182.133353 165.844084 
L 180.509631 165.844922 
L 178.885901 165.845477 
L 177.262151 165.84582 
L 175.638371 165.846007 
L 174.014546 165.84608 
L 172.390663 165.846075 
L 170.76671 165.846018 
L 169.142673 165.845927 
L 167.51854 165.845818 
L 165.894301 165.845701 
L 164.269945 165.845583 
L 162.645462 165.84547 
L 161.020845 165.845364 
L 159.396086 165.845268 
L 157.77118 165.845181 
L 156.146123 165.845106 
L 154.520909 165.84504 
L 152.895538 165.844984 
L 151.270007 165.844936 
L 149.644316 165.844896 
L 148.018465 165.844863 
L 146.392455 165.844835 
L 144.766288 165.844813 
L 143.139967 165.844795 
L 141.513494 165.844781 
L 139.886874 165.84477 
L 138.260109 165.844761 
L 136.633205 165.844754 
L 135.006167 165.844749 
L 133.378998 165.844745 
L 131.751705 165.844743 
L 130.124293 165.844741 
L 128.496767 165.844739 
L 126.869133 165.844738 
L 125.241395 165.844738 
L 123.613561 165.844738 
L 121.985635 165.844738 
L 120.357623 165.844738 
L 118.729531 165.844738 
L 117.101363 165.844738 
L 115.473124 165.844738 
L 113.84482 165.844738 
L 112.216456 165.844739 
L 110.588036 165.844739 
L 108.959565 165.844739 
L 107.331047 165.844739 
L 105.702486 165.844739 
L 104.073887 165.844739 
L 102.445252 165.84474 
L 100.816587 165.84474 
L 99.187893 165.84474 
" clip-path="url(#pc07033cade)" style="fill: none; stroke: #00008b; stroke-width: 0.25; stroke-linecap: square"/>
   </g>
   <g id="line2d_32">
    <path d="M 287.859068 165.844795 
L 286.339995 165.854353 
L 284.831405 165.873864 
L 283.330625 165.901299 
L 281.836178 165.935833 
L 280.348476 165.978178 
L 278.861352 166.028329 
L 277.377084 166.089701 
L 275.901605 166.163959 
L 274.434539 166.249545 
L 272.978969 166.344673 
L 271.533052 166.446022 
L 270.099268 166.550797 
L 268.678051 166.654971 
L 267.27074 166.754143 
L 265.878833 166.843238 
L 264.503618 166.916584 
L 263.147787 166.968137 
L 261.815003 166.991212 
L 260.510751 166.978595 
L 259.243534 166.922713 
L 258.023319 166.815683 
L 256.86722 166.651403 
L 255.755079 166.414951 
L 254.666929 166.094922 
L 253.607659 165.692436 
L 252.582892 165.209542 
L 251.598266 164.64884 
L 250.659366 164.013413 
L 249.771256 163.306441 
L 248.93997 162.532738 
L 248.170045 161.695911 
L 247.466202 160.800601 
L 246.832924 159.851878 
L 246.274458 158.855334 
L 245.794127 157.815446 
L 245.395815 156.740197 
L 245.082176 155.634084 
L 244.844758 154.430134 
L 244.674262 153.147464 
L 244.557513 151.816761 
L 244.483381 150.452109 
L 244.442354 149.061799 
L 244.426274 147.652023 
L 244.428503 146.227016 
L 244.443676 144.789868 
L 244.46754 143.342889 
L 244.496773 141.887832 
L 244.528822 140.426121 
L 244.561801 138.958849 
L 244.594341 137.486891 
L 244.62549 136.010954 
L 244.654619 134.531605 
L 244.681356 133.049304 
L 244.705518 131.564423 
L 244.727062 130.07726 
L 244.746049 128.588061 
L 244.762604 127.097024 
L 244.776899 125.604312 
L 244.789131 124.110063 
L 244.799506 122.614392 
L 244.808232 121.1174 
L 244.815511 119.619176 
L 244.821531 118.1198 
L 244.826468 116.619347 
L 244.830482 115.117886 
L 244.833714 113.615484 
L 244.836291 112.112205 
L 244.838323 110.608112 
L 244.839907 109.103266 
L 244.841123 107.597726 
L 244.842041 106.09155 
L 244.842722 104.584795 
L 244.843213 103.077516 
L 244.843555 101.569766 
L 244.843782 100.061596 
L 244.843921 98.553056 
L 244.843994 97.044192 
L 244.844019 95.535049 
L 244.84401 94.02567 
L 244.843977 92.516094 
L 244.843928 91.006359 
L 244.843872 89.496499 
L 244.84381 87.986548 
L 244.843749 86.476534 
L 244.843689 84.966486 
L 244.843632 83.456427 
L 244.843579 81.946382 
L 244.843532 80.43637 
L 244.843489 78.92641 
L 244.843451 77.416517 
L 244.843418 75.906707 
L 244.84339 74.396992 
L 244.843366 72.887382 
L 244.843345 71.377886 
L 244.843328 69.868512 
L 244.843314 68.359266 
L 244.843302 66.850153 
L 244.843292 65.341176 
L 244.843284 63.832339 
L 244.843278 62.323642 
L 244.843273 60.815085 
L 244.843269 59.30667 
L 244.843266 57.798394 
L 244.843264 56.290256 
L 244.843262 54.782254 
L 244.843261 53.274384 
L 244.84326 51.766645 
L 244.843259 50.259031 
L 244.843259 48.75154 
L 244.843258 47.244167 
L 244.843258 45.736907 
L 244.843258 44.229756 
L 244.843258 42.72271 
L 244.843258 41.215762 
L 244.843259 39.70891 
L 244.843259 38.202147 
L 244.843259 36.695468 
L 244.843259 35.18887 
L 244.843259 33.682347 
" clip-path="url(#pc07033cade)" style="fill: none; stroke: #800000; stroke-width: 0.25; stroke-linecap: square"/>
   </g>
   <g id="line2d_33">
    <path d="M 227.476746 122.919049 
L 227.480005 124.527242 
L 227.486423 126.131403 
L 227.495718 127.73135 
L 227.506663 129.328021 
L 227.518427 130.922027 
L 227.529973 132.514046 
L 227.540545 134.10472 
L 227.549419 135.693748 
L 227.555581 137.281003 
L 227.55784 138.86694 
L 227.555546 140.452526 
L 227.548586 142.034457 
L 227.535261 143.613376 
L 227.51428 145.188482 
L 227.483957 146.760098 
L 227.442867 148.326799 
L 227.388873 149.888495 
L 227.31989 151.44472 
L 227.233682 152.995252 
L 227.127958 154.54046 
L 227.000661 156.081364 
L 226.850431 157.618056 
L 226.675846 159.15234 
L 226.476639 160.684702 
L 226.252516 162.217757 
L 226.004689 163.753147 
L 225.735329 165.291726 
L 225.443206 166.85389 
L 225.137371 168.467804 
L 224.849399 170.151092 
L 224.632962 171.906114 
L 224.551327 173.68919 
L 224.617569 175.437645 
L 224.786115 177.121389 
L 225.007831 178.755021 
L 225.253589 180.353905 
L 225.505685 181.929901 
L 225.752906 183.491271 
L 225.987834 185.043672 
L 226.205562 186.592186 
L 226.4033 188.140444 
L 226.579803 189.69091 
L 226.734962 191.245138 
L 226.869482 192.804048 
L 226.984652 194.368013 
L 227.082118 195.937069 
L 227.163729 197.510965 
L 227.231373 199.089295 
L 227.28688 200.671613 
L 227.331966 202.257448 
L 227.368196 203.846417 
L 227.396999 205.438106 
L 227.419636 207.032145 
L 227.437205 208.628203 
L 227.450649 210.225987 
L 227.460771 211.825243 
L 227.468245 213.425749 
L 227.473633 215.027314 
L 227.477397 216.629775 
L 227.479915 218.232994 
L 227.48149 219.836852 
L 227.482366 221.441253 
L 227.482735 223.046114 
L 227.482747 224.651365 
L 227.482517 226.256951 
L 227.482133 227.862823 
L 227.481659 229.468942 
L 227.481145 231.075277 
L 227.480623 232.6818 
L 227.480116 234.288488 
L 227.47964 235.895323 
L 227.479204 237.50229 
L 227.478812 239.109374 
L 227.478465 240.716564 
L 227.478162 242.32385 
L 227.477901 243.931224 
L 227.477679 245.538678 
L 227.477492 247.146204 
L 227.477336 248.753796 
L 227.477207 250.361448 
L 227.477101 251.969154 
L 227.477015 253.576911 
L 227.476947 255.184711 
L 227.476892 256.792552 
L 227.476849 258.400429 
L 227.476816 260.008337 
L 227.47679 261.616274 
L 227.476771 263.224234 
L 227.476757 264.832216 
L 227.476747 266.440216 
L 227.47674 268.04823 
L 227.476735 269.656256 
L 227.476732 271.264292 
L 227.47673 272.872335 
L 227.476729 274.480383 
L 227.476729 276.088434 
L 227.476729 277.696486 
L 227.47673 279.304537 
L 227.476731 280.912586 
L 227.476732 282.520632 
L 227.476733 284.128673 
L 227.476734 285.736709 
L 227.476735 287.344738 
L 227.476735 288.952759 
L 227.476736 290.560772 
L 227.476737 292.168777 
L 227.476737 293.776773 
L 227.476738 295.384759 
L 227.476738 296.992736 
L 227.476739 298.600703 
L 227.476739 300.208659 
L 227.476739 301.816606 
L 227.476739 303.424542 
L 227.47674 305.032469 
L 227.47674 306.640386 
L 227.47674 308.248292 
L 227.47674 309.85619 
L 227.47674 311.464078 
L 227.47674 313.071956 
" clip-path="url(#pc07033cade)" style="fill: none; stroke: #006400; stroke-width: 0.25; stroke-linecap: square"/>
   </g>
   <g id="line2d_34">
    <path d="M 184.560921 183.211216 
L 186.175896 183.20217 
L 187.786296 183.186884 
L 189.38919 183.16649 
L 190.989108 183.144205 
L 192.585053 183.121217 
L 194.179674 183.099669 
L 195.77351 183.080506 
L 197.365631 183.064559 
L 198.955364 183.053247 
L 200.542963 183.048402 
L 202.128132 183.05135 
L 203.709028 183.063515 
L 205.285496 183.087298 
L 206.856399 183.125125 
L 208.42115 183.179913 
L 209.978592 183.254677 
L 211.528072 183.352808 
L 213.069389 183.477779 
L 214.601907 183.632782 
L 216.125442 183.820974 
L 217.641592 184.045461 
L 219.152806 184.308395 
L 220.657133 184.609469 
L 222.155869 184.949629 
L 223.653655 185.329739 
L 225.163156 185.750541 
L 226.748777 186.221277 
L 228.437785 186.693723 
L 230.205657 187.075087 
L 232.000488 187.298038 
L 233.807634 187.360701 
L 235.612276 187.262615 
L 237.34521 187.01989 
L 238.99741 186.698325 
L 240.597899 186.345513 
L 242.165686 185.986284 
L 243.712721 185.635478 
L 245.247924 185.302674 
L 246.777187 184.994102 
L 248.305889 184.713644 
L 249.837808 184.463121 
L 251.374353 184.242913 
L 252.918213 184.052428 
L 254.470356 183.889737 
L 256.029588 183.752243 
L 257.595623 183.63746 
L 259.167925 183.542732 
L 260.745762 183.465393 
L 262.328359 183.402918 
L 263.915012 183.353003 
L 265.505072 183.313586 
L 267.098023 183.28286 
L 268.693376 183.259237 
L 270.290714 183.24136 
L 271.889683 183.22808 
L 273.489982 183.218437 
L 275.091363 183.211636 
L 276.693617 183.207027 
L 278.296573 183.204082 
L 279.900092 183.202378 
L 281.50406 183.201581 
L 283.108388 183.201427 
L 284.713005 183.201715 
L 286.317853 183.202288 
L 287.922891 183.203032 
L 289.528085 183.203862 
L 291.133411 183.204716 
L 292.738853 183.205552 
L 294.344396 183.206344 
L 295.950032 183.207074 
L 297.555757 183.207733 
L 299.161565 183.208318 
L 300.767456 183.20883 
L 302.373428 183.209272 
L 303.97948 183.20965 
L 305.585614 183.209968 
L 307.191828 183.210235 
L 308.798123 183.210456 
L 310.404498 183.210636 
L 312.010954 183.210783 
L 313.617489 183.210901 
L 315.224102 183.210995 
L 316.830793 183.211069 
L 318.437559 183.211127 
L 320.044398 183.211171 
L 321.651309 183.211204 
L 323.258289 183.211229 
L 324.865336 183.211247 
L 326.472447 183.211259 
L 328.07962 183.211268 
L 329.686851 183.211273 
L 331.294137 183.211277 
L 332.901477 183.211278 
L 334.508866 183.211278 
L 336.116301 183.211278 
L 337.723781 183.211277 
L 339.331301 183.211275 
L 340.93886 183.211274 
L 342.546455 183.211272 
L 344.154081 183.211271 
L 345.761739 183.211269 
L 347.369423 183.211268 
L 348.977134 183.211267 
L 350.584867 183.211265 
L 352.19262 183.211264 
L 353.800393 183.211264 
L 355.408182 183.211263 
L 357.015986 183.211262 
L 358.623804 183.211262 
L 360.231633 183.211261 
L 361.839471 183.211261 
L 363.447318 183.211261 
L 365.055173 183.211261 
L 366.663033 183.21126 
L 368.270898 183.21126 
L 369.878766 183.21126 
L 371.486637 183.21126 
L 373.094511 183.21126 
L 374.702385 183.21126 
" clip-path="url(#pc07033cade)" style="fill: none; stroke: #4b0082; stroke-width: 0.25; stroke-linecap: square"/>
   </g>
   <g id="line2d_35">
    <path d="M 244.84326 266.05944 
L 244.84326 264.45168 
L 244.84326 262.84392 
L 244.84326 261.23616 
L 244.84326 259.6284 
L 244.84326 258.02064 
L 244.84326 256.41288 
L 244.84326 254.80512 
L 244.84326 253.19736 
L 244.84326 251.5896 
L 244.84326 249.98184 
L 244.84326 248.37408 
L 244.84326 246.76632 
L 244.84326 245.15856 
L 244.84326 243.5508 
L 244.84326 241.94304 
L 244.84326 240.33528 
L 244.84326 238.728483 
L 244.84326 237.122646 
L 244.84326 235.517769 
L 244.84326 233.91384 
L 244.843254 232.310965 
L 244.843264 230.710042 
L 244.843362 229.110376 
L 244.842745 227.512045 
L 244.840452 225.915027 
L 244.835148 224.321945 
L 244.82749 222.732667 
L 244.818593 221.145916 
L 244.809618 219.560839 
L 244.801891 217.976828 
L 244.796884 216.392288 
L 244.795388 214.799244 
L 244.793855 213.203026 
L 244.793406 211.60385 
L 244.796238 209.998634 
L 244.802644 208.3895 
L 244.81384 206.77772 
L 244.831613 205.164036 
L 244.858022 203.548471 
L 244.894926 201.93167 
L 244.944435 200.314443 
L 245.009246 198.696549 
L 245.092213 197.078118 
L 245.196821 195.456831 
L 245.325444 193.830974 
L 245.479453 192.199568 
L 245.65985 190.55997 
L 245.866898 188.904796 
L 246.096331 187.232932 
L 246.340032 185.552108 
L 246.594591 183.864034 
L 246.85848 182.161018 
L 247.128749 180.405373 
L 247.370507 178.56925 
L 247.513029 176.672991 
L 247.497508 174.757756 
L 247.303074 172.861056 
L 246.937579 171.009689 
L 246.459071 169.324672 
L 245.975046 167.769599 
L 245.538975 166.301264 
L 245.180632 164.90379 
L 244.918018 163.560269 
L 244.754744 162.158407 
L 244.675756 160.67813 
L 244.652195 159.155877 
L 244.661768 157.60118 
L 244.682901 156.043062 
L 244.708928 154.480554 
L 244.732956 152.923576 
L 244.754364 151.37183 
L 244.772922 149.824839 
L 244.78864 148.282071 
L 244.801698 146.742905 
L 244.812358 145.206695 
L 244.820918 143.6728 
L 244.827678 142.1406 
L 244.832928 140.609506 
L 244.836928 139.078972 
L 244.839914 137.548495 
L 244.842086 136.017623 
L 244.843616 134.485948 
L 244.844647 132.953111 
L 244.845297 131.418797 
L 244.845662 129.882735 
L 244.845819 128.344688 
L 244.845828 126.804462 
L 244.845736 125.261896 
L 244.845578 123.716861 
L 244.845381 122.169257 
L 244.845166 120.619008 
L 244.844947 119.066065 
L 244.844733 117.510396 
L 244.844531 115.951994 
L 244.844345 114.390864 
L 244.844177 112.827027 
L 244.844028 111.260517 
L 244.843897 109.691378 
L 244.843784 108.119666 
L 244.843687 106.545446 
L 244.843605 104.968787 
L 244.843535 103.389766 
L 244.843478 101.808468 
L 244.84343 100.224979 
L 244.843392 98.63939 
L 244.84336 97.051794 
L 244.843335 95.462286 
L 244.843315 93.87096 
L 244.843299 92.277912 
L 244.843287 90.683237 
L 244.843278 89.087029 
L 244.843271 87.489382 
L 244.843266 85.890388 
L 244.843262 84.290134 
L 244.843259 82.68871 
L 244.843258 81.0862 
L 244.843257 79.482685 
L 244.843256 77.878245 
L 244.843256 76.272957 
" clip-path="url(#pc07033cade)" style="fill: none; stroke: #0000ff; stroke-width: 0.25; stroke-linecap: square"/>
   </g>
   <g id="line2d_36">
    <path d="M 327.69144 165.84474 
L 326.08368 165.84474 
L 324.47592 165.84474 
L 322.86816 165.84474 
L 321.2604 165.84474 
L 319.65264 165.84474 
L 318.04488 165.84474 
L 316.43712 165.84474 
L 314.82936 165.84474 
L 313.2216 165.84474 
L 311.61384 165.84474 
L 310.00608 165.84474 
L 308.39832 165.84474 
L 306.79056 165.84474 
L 305.1828 165.84474 
L 303.57504 165.84474 
L 301.96728 165.84474 
L 300.360483 165.84474 
L 298.754646 165.84474 
L 297.149769 165.84474 
L 295.545488 165.84474 
L 293.94171 165.844947 
L 292.339374 165.8461 
L 290.738029 165.849155 
L 289.140121 165.856004 
L 287.545719 165.867056 
L 285.954485 165.881806 
L 284.364809 165.899225 
L 282.776437 165.918599 
L 281.188987 165.938655 
L 279.601262 165.957667 
L 278.011732 165.974013 
L 276.423965 165.9865 
L 274.835003 165.991767 
L 273.243551 165.987399 
L 271.648902 165.971773 
L 270.054543 165.944263 
L 268.461715 165.902764 
L 266.871124 165.844738 
L 265.283987 165.767581 
L 263.702226 165.66842 
L 262.125942 165.543633 
L 260.556639 165.390027 
L 258.988665 165.203053 
L 257.422622 164.982107 
L 255.858185 164.726596 
L 254.294234 164.436415 
L 252.730035 164.112531 
L 251.164586 163.756545 
L 249.594973 163.370124 
L 248.019716 162.956909 
L 246.384146 162.507451 
L 244.667531 162.060879 
L 242.861655 161.684525 
L 241.02653 161.464143 
L 239.185832 161.411646 
L 237.357013 161.52526 
L 235.596433 161.787991 
L 233.926725 162.140087 
L 232.335304 162.525825 
L 230.797168 162.909086 
L 229.293531 163.268641 
L 227.813141 163.590994 
L 226.33889 163.868247 
L 224.865698 164.097228 
L 223.385729 164.276957 
L 221.885782 164.409851 
L 220.362212 164.503563 
L 218.786543 164.569507 
L 217.206496 164.633199 
L 215.609106 164.698775 
L 214.012802 164.776474 
L 212.420556 164.866588 
L 210.842616 164.966991 
L 209.275294 165.070438 
L 207.714736 165.171665 
L 206.157974 165.267268 
L 204.602802 165.355198 
L 203.047638 165.434389 
L 201.491391 165.504476 
L 199.93334 165.565579 
L 198.373043 165.618142 
L 196.810272 165.66281 
L 195.24489 165.700328 
L 193.67689 165.731502 
L 192.106326 165.757133 
L 190.53329 165.777984 
L 188.957894 165.794767 
L 187.380263 165.808124 
L 185.800523 165.818629 
L 184.218799 165.826783 
L 182.635212 165.833022 
L 181.049876 165.837716 
L 179.462898 165.841176 
L 177.874377 165.843663 
L 176.284406 165.845394 
L 174.693069 165.846542 
L 173.100446 165.847251 
L 171.50661 165.847634 
L 169.911631 165.847781 
L 168.315572 165.847762 
L 166.718495 165.847631 
L 165.120456 165.84743 
L 163.52151 165.847188 
L 161.921708 165.846929 
L 160.321101 165.846668 
L 158.719736 165.846416 
L 157.11766 165.84618 
L 155.514916 165.845964 
L 153.911547 165.84577 
L 152.307594 165.845598 
L 150.703098 165.845448 
L 149.098095 165.845319 
L 147.492625 165.845209 
L 145.886721 165.845116 
L 144.280418 165.845039 
L 142.67375 165.844974 
L 141.066746 165.844922 
L 139.459438 165.844879 
L 137.851853 165.844845 
" clip-path="url(#pc07033cade)" style="fill: none; stroke: #ff0000; stroke-width: 0.25; stroke-linecap: square"/>
   </g>
   <g id="line2d_37">
    <path d="M 227.47674 83.01743 
L 227.47674 84.646061 
L 227.47674 86.274691 
L 227.47674 87.903322 
L 227.47674 89.531952 
L 227.47674 91.160768 
L 227.476847 92.790263 
L 227.477504 94.419592 
L 227.478713 96.048359 
L 227.480133 97.676822 
L 227.481624 99.305029 
L 227.483024 100.933232 
L 227.484317 102.561444 
L 227.485498 104.189713 
L 227.486598 105.817968 
L 227.487605 107.446182 
L 227.488489 109.074046 
L 227.489123 110.701296 
L 227.489226 112.327746 
L 227.488417 113.953236 
L 227.486238 115.578737 
L 227.482811 117.204553 
L 227.478449 118.830216 
L 227.473294 120.454659 
L 227.46677 122.079402 
L 227.458321 123.705195 
L 227.447387 125.332804 
L 227.4335 126.963446 
L 227.416531 128.596637 
L 227.395789 130.233168 
L 227.370764 131.874337 
L 227.341022 133.5214 
L 227.306174 135.173679 
L 227.265079 136.83578 
L 227.219543 138.504044 
L 227.169069 140.179204 
L 227.113496 141.875262 
L 227.062709 143.57531 
L 227.015712 145.280829 
L 226.972466 146.991978 
L 226.933046 148.711193 
L 226.899159 150.438879 
L 226.872702 152.174649 
L 226.855292 153.910207 
L 226.843087 155.658339 
L 226.840804 157.420679 
L 226.854957 159.200957 
L 226.895531 160.999028 
L 226.974983 162.827834 
L 227.11852 164.692474 
L 227.361756 166.592641 
L 227.751582 168.511313 
L 228.3224 170.387905 
L 229.071302 172.201349 
L 229.991231 173.934365 
L 231.073425 175.570479 
L 232.306794 177.092924 
L 233.678167 178.48727 
L 235.17286 179.740365 
L 236.774651 180.840757 
L 238.466682 181.779478 
L 240.230331 182.548754 
L 242.047235 183.144485 
L 243.897603 183.564246 
L 245.717593 183.810112 
L 247.490019 183.939455 
L 249.234532 183.996517 
L 250.952507 183.997953 
L 252.636762 183.956882 
L 254.287922 183.88963 
L 255.915087 183.810543 
L 257.524414 183.728328 
L 259.120768 183.6485 
L 260.707821 183.574366 
L 262.288358 183.507729 
L 263.864264 183.449355 
L 265.437307 183.399392 
L 267.008545 183.357405 
L 268.57878 183.32271 
L 270.148567 183.294481 
L 271.718265 183.271859 
L 273.28827 183.254033 
L 274.858814 183.240205 
L 276.430085 183.229664 
L 278.002244 183.221784 
L 279.575429 183.216028 
L 281.149764 183.211946 
L 282.725359 183.20916 
L 284.302315 183.207363 
L 285.880722 183.206307 
L 287.460663 183.205794 
L 289.042208 183.205666 
L 290.62542 183.205805 
L 292.210352 183.206116 
L 293.797043 183.206531 
L 295.385526 183.207 
L 296.975825 183.207485 
L 298.567954 183.207963 
L 300.16192 183.208416 
L 301.757718 183.208835 
L 303.355337 183.209213 
L 304.954758 183.209549 
L 306.555958 183.209844 
L 308.158904 183.210099 
L 309.763557 183.210318 
L 311.369874 183.210502 
L 312.977808 183.210657 
L 314.587306 183.210785 
L 316.198313 183.210891 
L 317.810773 183.210976 
L 319.424626 183.211045 
L 321.039811 183.2111 
L 322.656266 183.211144 
L 324.273928 183.211178 
L 325.892735 183.211204 
L 327.512624 183.211224 
L 329.133533 183.211238 
L 330.7554 183.211249 
L 332.378164 183.211257 
L 334.001767 183.211262 
" clip-path="url(#pc07033cade)" style="fill: none; stroke: #dbdc56; stroke-width: 0.25; stroke-linecap: square"/>
   </g>
   <g id="line2d_38">
    <path d="M 144.383318 183.21126 
L 145.745837 183.21126 
L 147.108355 183.21126 
L 148.470874 183.21126 
L 149.833392 183.21126 
L 151.19591 183.21126 
L 152.558429 183.21126 
L 153.920947 183.21126 
L 155.283466 183.21126 
L 156.645984 183.21126 
L 158.008503 183.21126 
L 159.371021 183.21126 
L 160.733539 183.21126 
L 162.096058 183.21126 
L 163.458576 183.21126 
L 164.821095 183.21126 
L 166.183613 183.21126 
L 167.546131 183.21126 
L 168.90865 183.21126 
L 170.271168 183.21126 
L 171.633687 183.21126 
L 172.996205 183.21126 
L 174.358725 183.21126 
L 175.72244 183.211259 
L 177.085262 183.210682 
L 178.446999 183.209566 
L 179.80769 183.207536 
L 181.166738 183.20395 
L 182.522344 183.198206 
L 183.868723 183.19052 
L 185.201433 183.183453 
L 186.526147 183.18069 
L 187.844332 183.182898 
L 189.156022 183.190057 
L 190.465655 183.202298 
L 191.774051 183.21796 
L 193.080128 183.234848 
L 194.382515 183.250749 
L 195.678971 183.263924 
L 196.967168 183.273618 
L 198.24393 183.280134 
L 199.50648 183.285238 
L 200.758678 183.292156 
L 202.002534 183.302869 
L 203.240327 183.319389 
L 204.475058 183.343781 
L 205.70958 183.3779 
L 206.927823 183.422618 
L 208.116152 183.485761 
L 209.313797 183.585793 
L 210.534152 183.727623 
L 211.775567 183.909923 
L 213.044425 184.133173 
L 214.341671 184.394301 
L 215.669676 184.689882 
L 217.03178 185.01535 
L 218.430621 185.364083 
L 219.871483 185.728552 
L 221.35904 186.098052 
L 222.902426 186.460007 
L 224.535944 186.798868 
L 226.265978 187.060494 
L 228.041716 187.177279 
L 229.846633 187.137551 
L 231.665133 186.935085 
L 233.480204 186.565493 
L 235.273394 186.026514 
L 237.025714 185.318428 
L 238.717503 184.44428 
L 240.329141 183.41017 
L 241.842154 182.224918 
L 243.239534 180.899622 
L 244.506225 179.447324 
L 245.629309 177.882702 
L 246.597997 176.221747 
L 247.403728 174.481124 
L 248.039492 172.679003 
L 248.501566 170.833318 
L 248.787986 168.962056 
L 248.898795 167.082866 
L 248.835882 165.213292 
L 248.619758 163.436007 
L 248.325933 161.738666 
L 247.99747 160.099978 
L 247.658963 158.504938 
L 247.325681 156.942295 
L 247.007308 155.403992 
L 246.709968 153.884029 
L 246.437288 152.377979 
L 246.191087 150.882647 
L 245.971846 149.395792 
L 245.779061 147.91592 
L 245.611518 146.442096 
L 245.467511 144.973777 
L 245.345024 143.510696 
L 245.241876 142.05279 
L 245.155831 140.599946 
L 245.084655 139.152604 
L 245.026365 137.710843 
L 244.979124 136.274712 
L 244.941258 134.844241 
L 244.911273 133.419424 
L 244.887854 132.000185 
L 244.869843 130.586435 
L 244.856243 129.178047 
L 244.846206 127.774863 
L 244.839012 126.376699 
L 244.834061 124.983347 
L 244.830856 123.59458 
L 244.828989 122.21016 
L 244.828127 120.829833 
L 244.828004 119.453342 
L 244.828407 118.080425 
L 244.82917 116.710818 
L 244.830162 115.34426 
L 244.831285 113.980492 
L 244.832466 112.619263 
L 244.833649 111.260328 
L 244.834796 109.903449 
L 244.835881 108.548399 
" clip-path="url(#pc07033cade)" style="fill: none; stroke: #9400d3; stroke-width: 0.25; stroke-linecap: square"/>
   </g>
   <g id="line2d_39">
    <path d="M 244.84326 306.078014 
L 244.84326 304.572027 
L 244.84326 303.066041 
L 244.84326 301.560054 
L 244.84326 300.054068 
L 244.84326 298.548082 
L 244.84326 297.042095 
L 244.84326 295.536109 
L 244.84326 294.030122 
L 244.84326 292.524136 
L 244.84326 291.01815 
L 244.84326 289.512163 
L 244.84326 288.006177 
L 244.84326 286.50019 
L 244.84326 284.994204 
L 244.84326 283.488217 
L 244.84326 281.982231 
L 244.84326 280.476245 
L 244.84326 278.970258 
L 244.84326 277.464272 
L 244.84326 275.958285 
L 244.84326 274.452299 
L 244.84326 272.946313 
L 244.84326 271.440326 
L 244.84326 269.93434 
L 244.84326 268.428353 
L 244.84326 266.922367 
L 244.84326 265.416381 
L 244.84326 263.910394 
L 244.84326 262.404408 
L 244.84326 260.898421 
L 244.84326 259.392435 
L 244.84326 257.886449 
L 244.84326 256.380462 
L 244.84326 254.874476 
L 244.84326 253.368489 
L 244.84326 251.862503 
L 244.84326 250.356516 
L 244.84326 248.85053 
L 244.84326 247.344544 
L 244.84326 245.838557 
L 244.84326 244.332571 
L 244.84326 242.826584 
L 244.84326 241.320598 
L 244.84326 239.814612 
L 244.84326 238.308625 
L 244.84326 236.802639 
L 244.84326 235.298053 
L 244.843107 233.79437 
L 244.842381 232.291281 
L 244.840463 230.788684 
L 244.836603 229.28667 
L 244.829957 227.785514 
L 244.819634 226.285673 
L 244.804739 224.787766 
L 244.78445 223.293478 
L 244.758548 221.803101 
L 244.726509 220.316948 
L 244.687809 218.833825 
L 244.641293 217.353882 
L 244.585901 215.877555 
L 244.5209 214.406092 
L 244.44631 212.940374 
L 244.362855 211.482799 
L 244.27261 210.034304 
L 244.178352 208.596393 
L 244.083756 207.17022 
L 243.993195 205.756863 
L 243.911604 204.357175 
L 243.844307 202.972611 
L 243.797115 201.605392 
L 243.77639 200.258819 
L 243.789064 198.937598 
L 243.84251 197.648487 
L 243.944069 196.40243 
L 244.100667 195.214474 
L 244.321125 194.089147 
L 244.625544 192.988983 
L 245.014181 191.916582 
L 245.484982 190.877702 
L 246.035158 189.878426 
L 246.661606 188.924537 
L 247.360772 188.021664 
L 248.128752 187.175168 
L 248.961276 186.390137 
L 249.85363 185.671434 
L 250.800139 185.023976 
L 251.796967 184.451264 
L 252.837002 183.957575 
L 253.914091 183.546408 
L 255.022937 183.220552 
L 256.186418 182.977883 
L 257.453491 182.8114 
L 258.78013 182.705799 
L 260.14681 182.64735 
L 261.541747 182.624375 
L 262.957419 182.627367 
L 264.389064 182.648763 
L 265.833199 182.682495 
L 267.28722 182.723822 
L 268.749133 182.769123 
L 270.217447 182.815723 
L 271.690988 182.861682 
L 273.168825 182.905648 
L 274.650217 182.946737 
L 276.13458 182.984421 
L 277.621447 183.018448 
L 279.110455 183.048763 
L 280.601315 183.075454 
L 282.093805 183.098705 
L 283.587748 183.118763 
L 285.083007 183.135908 
L 286.579472 183.150436 
L 288.077054 183.162642 
L 289.575681 183.172811 
L 291.075288 183.181213 
L 292.575822 183.188094 
L 294.077229 183.193681 
L 295.579463 183.198173 
L 297.082476 183.201749 
" clip-path="url(#pc07033cade)" style="fill: none; stroke: #1e90ff; stroke-width: 0.25; stroke-linecap: square"/>
   </g>
   <g id="line2d_40">
    <path d="M 367.321258 165.84474 
L 365.426515 165.84474 
L 363.531773 165.84474 
L 361.63703 165.84474 
L 359.742288 165.84474 
L 357.847546 165.84474 
L 355.952803 165.84474 
L 354.058061 165.84474 
L 352.163318 165.84474 
L 350.268576 165.84474 
L 348.373833 165.84474 
L 346.479091 165.84474 
L 344.584349 165.84474 
L 342.689606 165.84474 
L 340.794864 165.84474 
L 338.900121 165.84474 
L 337.005379 165.84474 
L 335.110637 165.84474 
L 333.215894 165.84474 
L 331.321152 165.84474 
L 329.426409 165.84474 
L 327.531667 165.84474 
L 325.636924 165.84474 
L 323.742182 165.84474 
L 321.84744 165.84474 
L 319.952697 165.84474 
L 318.05785 165.84474 
L 316.1642 165.84481 
L 314.272996 165.844884 
L 312.385533 165.845053 
L 310.503091 165.845609 
L 308.627119 165.846845 
L 306.76692 165.848872 
L 304.915985 165.846443 
L 303.071275 165.838551 
L 301.233694 165.825247 
L 299.403004 165.806387 
L 297.578432 165.782067 
L 295.760046 165.752639 
L 293.948807 165.718343 
L 292.146923 165.6788 
L 290.354937 165.632146 
L 288.571349 165.575494 
L 286.792063 165.505902 
L 285.015984 165.422117 
L 283.247665 165.323942 
L 281.506985 165.21011 
L 279.835389 165.072119 
L 278.107062 164.861688 
L 276.342218 164.613918 
L 274.542834 164.347908 
L 272.707529 164.080051 
L 270.829319 163.826016 
L 268.898802 163.606186 
L 266.910021 163.449599 
L 264.849878 163.394315 
L 262.722136 163.502312 
L 260.596946 163.834953 
L 258.497388 164.395059 
L 256.581189 165.116384 
L 254.905234 165.81357 
L 253.375312 166.369732 
L 251.711715 166.773436 
L 249.926702 167.032563 
L 247.936211 167.171366 
L 245.699036 167.296906 
L 243.406015 167.612736 
L 241.156417 168.187671 
L 238.982659 169.015641 
L 236.916183 170.085841 
L 234.986434 171.383115 
L 233.219759 172.888843 
L 231.640088 174.581083 
L 230.267531 176.434572 
L 229.11717 178.423055 
L 228.202445 180.517775 
L 227.531429 182.689268 
L 227.108491 184.908109 
L 226.929296 187.064707 
L 226.888437 189.1395 
L 226.912566 191.162519 
L 226.969106 193.145777 
L 227.037962 195.103721 
L 227.10951 197.042494 
L 227.177927 198.966573 
L 227.239854 200.879406 
L 227.29367 202.783554 
L 227.338926 204.680836 
L 227.375897 206.572649 
L 227.405343 208.459925 
L 227.428228 210.343342 
L 227.445581 212.223264 
L 227.458305 214.10032 
L 227.467371 215.974797 
L 227.473609 217.846959 
L 227.477712 219.717019 
L 227.480217 221.585282 
L 227.481584 223.451975 
L 227.482165 225.317326 
L 227.482225 227.181563 
L 227.481958 229.044912 
L 227.481504 230.907591 
L 227.480958 232.769811 
L 227.480387 234.631771 
L 227.479831 236.493658 
L 227.479317 238.355646 
L 227.478855 240.217891 
L 227.478452 242.080541 
L 227.478108 243.943724 
L 227.477819 245.807557 
L 227.47758 247.672141 
L 227.477385 249.537565 
L 227.477229 251.403903 
L 227.477105 253.271218 
L 227.477008 255.139561 
L 227.476933 257.008972 
L 227.476876 258.879482 
L 227.476832 260.751115 
L 227.4768 262.623882 
L 227.476777 264.49779 
" clip-path="url(#pc07033cade)" style="fill: none; stroke: #ff4500; stroke-width: 0.25; stroke-linecap: square"/>
   </g>
   <g id="line2d_41">
    <path d="M 227.47674 42.977986 
L 227.47674 44.483973 
L 227.47674 45.989959 
L 227.47674 47.495946 
L 227.47674 49.001932 
L 227.47674 50.507918 
L 227.47674 52.013905 
L 227.47674 53.519891 
L 227.47674 55.025878 
L 227.47674 56.531864 
L 227.47674 58.03785 
L 227.47674 59.543837 
L 227.47674 61.049823 
L 227.47674 62.55581 
L 227.47674 64.061796 
L 227.47674 65.567783 
L 227.47674 67.073769 
L 227.47674 68.579755 
L 227.47674 70.085742 
L 227.47674 71.591728 
L 227.47674 73.097715 
L 227.47674 74.603701 
L 227.47674 76.109687 
L 227.47674 77.615674 
L 227.47674 79.12166 
L 227.47674 80.627647 
L 227.47674 82.133633 
L 227.47674 83.639619 
L 227.47674 85.145606 
L 227.47674 86.651592 
L 227.47674 88.157579 
L 227.47674 89.663565 
L 227.47674 91.169551 
L 227.47674 92.675538 
L 227.47674 94.181524 
L 227.47674 95.687511 
L 227.47674 97.193497 
L 227.47674 98.699484 
L 227.47674 100.20547 
L 227.47674 101.711456 
L 227.47674 103.217443 
L 227.47674 104.723429 
L 227.47674 106.229416 
L 227.47674 107.735402 
L 227.47674 109.241388 
L 227.47674 110.747375 
L 227.47674 112.25338 
L 227.47675 113.758025 
L 227.476943 115.261713 
L 227.477713 116.764731 
L 227.479635 118.267289 
L 227.483585 119.768559 
L 227.490166 121.269035 
L 227.500761 122.766775 
L 227.516013 124.260315 
L 227.535723 125.750021 
L 227.559858 127.23547 
L 227.588628 128.715978 
L 227.62205 130.191978 
L 227.660399 131.663424 
L 227.703962 133.130138 
L 227.752918 134.591752 
L 227.807198 136.048209 
L 227.866646 137.500416 
L 227.931285 138.945791 
L 227.999636 140.382963 
L 228.069329 141.810728 
L 228.137557 143.235443 
L 228.203569 144.642492 
L 228.260572 146.044539 
L 228.306749 147.423146 
L 228.33281 148.776143 
L 228.329528 150.09973 
L 228.287743 151.387659 
L 228.198643 152.629844 
L 228.054655 153.809896 
L 227.844782 154.929802 
L 227.549308 156.028416 
L 227.169254 157.100949 
L 226.706912 158.141272 
L 226.165572 159.142472 
L 225.547925 160.099142 
L 224.8574 161.005686 
L 224.097828 161.856716 
L 223.273358 162.647145 
L 222.388574 163.372116 
L 221.448569 164.026979 
L 220.4582 164.607718 
L 219.424092 165.110095 
L 218.351634 165.530758 
L 217.246775 165.866745 
L 216.113269 166.115981 
L 214.857969 166.285684 
L 213.537258 166.392051 
L 212.174461 166.449758 
L 210.782318 166.470923 
L 209.368447 166.465345 
L 207.93807 166.440957 
L 206.494756 166.404029 
L 205.041336 166.359495 
L 203.579795 166.311046 
L 202.111677 166.261442 
L 200.638198 166.212678 
L 199.16032 166.166138 
L 197.678809 166.122722 
L 196.194272 166.082961 
L 194.70719 166.047102 
L 193.217941 166.015188 
L 191.72682 165.987113 
L 190.234061 165.962675 
L 188.739842 165.941608 
L 187.244306 165.923612 
L 185.747564 165.908372 
L 184.249707 165.895574 
L 182.750809 165.884918 
L 181.250934 165.876119 
L 179.750137 165.868915 
L 178.24847 165.86307 
L 176.74598 165.858372 
L 175.242715 165.854634 
" clip-path="url(#pc07033cade)" style="fill: none; stroke: #7cfc00; stroke-width: 0.25; stroke-linecap: square"/>
   </g>
   <g id="line2d_42">
    <path d="M 104.609986 183.21126 
L 106.115973 183.21126 
L 107.621959 183.21126 
L 109.127946 183.21126 
L 110.633932 183.21126 
L 112.139918 183.21126 
L 113.645905 183.21126 
L 115.151891 183.21126 
L 116.657878 183.21126 
L 118.163864 183.21126 
L 119.66985 183.21126 
L 121.175837 183.21126 
L 122.681823 183.21126 
L 124.18781 183.21126 
L 125.693796 183.21126 
L 127.199783 183.21126 
L 128.705769 183.21126 
L 130.211755 183.21126 
L 131.717742 183.21126 
L 133.223728 183.21126 
L 134.729715 183.21126 
L 136.235701 183.21126 
L 137.741687 183.21126 
L 139.247674 183.21126 
L 140.75366 183.21126 
L 142.259647 183.21126 
L 143.765633 183.21126 
L 145.271619 183.21126 
L 146.777606 183.21126 
L 148.283592 183.21126 
L 149.789579 183.21126 
L 151.295565 183.21126 
L 152.801551 183.21126 
L 154.307538 183.21126 
L 155.813524 183.21126 
L 157.319511 183.21126 
L 158.825497 183.21126 
L 160.331484 183.21126 
L 161.83747 183.21126 
L 163.343457 183.21126 
L 164.849444 183.21126 
L 166.355431 183.21126 
L 167.862878 183.211259 
L 169.373211 183.210473 
L 170.885175 183.206974 
L 172.396789 183.199051 
L 173.911242 183.185915 
L 175.406481 183.164987 
L 176.852257 183.143968 
L 178.30248 183.140244 
L 179.755949 183.149216 
L 181.210783 183.166606 
L 182.665722 183.188762 
L 184.120649 183.212056 
L 185.573466 183.232686 
L 187.024942 183.2479 
L 188.474449 183.254205 
L 189.922488 183.248021 
L 191.367168 183.225137 
L 192.805823 183.18211 
L 194.236772 183.116816 
L 195.659894 183.02804 
L 197.073206 182.915111 
L 198.474792 182.778867 
L 199.860059 182.622139 
L 201.231425 182.450169 
L 202.588594 182.268039 
L 203.932043 182.081801 
L 205.293697 181.893802 
L 206.63196 181.702085 
L 208.008516 181.510992 
L 209.376366 181.311255 
L 210.695261 181.115797 
L 211.917839 180.953562 
L 213.046261 180.855349 
L 214.189229 180.844323 
L 215.341048 180.923046 
L 216.49535 181.093836 
L 217.64406 181.358258 
L 218.778762 181.71729 
L 219.890636 182.171044 
L 220.971287 182.719002 
L 222.010155 183.358044 
L 222.999629 184.08639 
L 223.929541 184.898395 
L 224.792409 185.790231 
L 225.58032 186.755845 
L 226.286197 187.788777 
L 226.904066 188.882655 
L 227.427857 190.028109 
L 227.852528 191.216024 
L 228.174276 192.438722 
L 228.392518 193.708115 
L 228.511756 195.105657 
L 228.557816 196.569451 
L 228.551658 198.073254 
L 228.509564 199.60285 
L 228.44394 201.150056 
L 228.364368 202.709147 
L 228.277958 204.276126 
L 228.189847 205.848134 
L 228.103657 207.42302 
L 228.021832 208.999145 
L 227.94592 210.575241 
L 227.876786 212.150327 
L 227.814791 213.723657 
L 227.759931 215.294677 
L 227.711951 216.863002 
L 227.670438 218.428343 
L 227.634867 219.990534 
L 227.604667 221.54949 
L 227.579251 223.105191 
L 227.558045 224.657663 
L 227.540501 226.206971 
L 227.526112 227.753204 
L 227.514416 229.296472 
L 227.504995 230.836896 
L 227.497484 232.374604 
L 227.491558 233.909729 
L 227.486939 235.442405 
" clip-path="url(#pc07033cade)" style="fill: none; stroke: #ff00ff; stroke-width: 0.25; stroke-linecap: square"/>
   </g>
   <g id="patch_15">
    <path d="M 103.104 307.584 
L 103.104 41.472 
" style="fill: none; stroke: #000000; stroke-width: 0.8; stroke-linejoin: miter; stroke-linecap: square"/>
   </g>
   <g id="patch_16">
    <path d="M 369.216 307.584 
L 369.216 41.472 
" style="fill: none; stroke: #000000; stroke-width: 0.8; stroke-linejoin: miter; stroke-linecap: square"/>
   </g>
   <g id="patch_17">
    <path d="M 103.104 307.584 
L 369.216 307.584 
" style="fill: none; stroke: #000000; stroke-width: 0.8; stroke-linejoin: miter; stroke-linecap: square"/>
   </g>
   <g id="patch_18">
    <path d="M 103.104 41.472 
L 369.216 41.472 
" style="fill: none; stroke: #000000; stroke-width: 0.8; stroke-linejoin: miter; stroke-linecap: square"/>
   </g>
   <g id="text_19">
    <!-- Time: 119 ms -->
    <g transform="translate(261.069512 54.7776) scale(0.1 -0.1)">
     <defs>
      <path id="DejaVuSans-54" d="M -19 4666 
L 3928 4666 
L 3928 4134 
L 2272 4134 
L 2272 0 
L 1638 0 
L 1638 4134 
L -19 4134 
L -19 4666 
z
" transform="scale(0.015625)"/>
      <path id="DejaVuSans-69" d="M 603 3500 
L 1178 3500 
L 1178 0 
L 603 0 
L 603 3500 
z
M 603 4863 
L 1178 4863 
L 1178 4134 
L 603 4134 
L 603 4863 
z
" transform="scale(0.015625)"/>
      <path id="DejaVuSans-6d" d="M 3328 2828 
Q 3544 3216 3844 3400 
Q 4144 3584 4550 3584 
Q 5097 3584 5394 3201 
Q 5691 2819 5691 2113 
L 5691 0 
L 5113 0 
L 5113 2094 
Q 5113 2597 4934 2840 
Q 4756 3084 4391 3084 
Q 3944 3084 3684 2787 
Q 3425 2491 3425 1978 
L 3425 0 
L 2847 0 
L 2847 2094 
Q 2847 2600 2669 2842 
Q 2491 3084 2119 3084 
Q 1678 3084 1418 2786 
Q 1159 2488 1159 1978 
L 1159 0 
L 581 0 
L 581 3500 
L 1159 3500 
L 1159 2956 
Q 1356 3278 1631 3431 
Q 1906 3584 2284 3584 
Q 2666 3584 2933 3390 
Q 3200 3197 3328 2828 
z
" transform="scale(0.015625)"/>
      <path id="DejaVuSans-65" d="M 3597 1894 
L 3597 1613 
L 953 1613 
Q 991 1019 1311 708 
Q 1631 397 2203 397 
Q 2534 397 2845 478 
Q 3156 559 3463 722 
L 3463 178 
Q 3153 47 2828 -22 
Q 2503 -91 2169 -91 
Q 1331 -91 842 396 
Q 353 884 353 1716 
Q 353 2575 817 3079 
Q 1281 3584 2069 3584 
Q 2775 3584 3186 3129 
Q 3597 2675 3597 1894 
z
M 3022 2063 
Q 3016 2534 2758 2815 
Q 2500 3097 2075 3097 
Q 1594 3097 1305 2825 
Q 1016 2553 972 2059 
L 3022 2063 
z
" transform="scale(0.015625)"/>
      <path id="DejaVuSans-3a" d="M 750 794 
L 1409 794 
L 1409 0 
L 750 0 
L 750 794 
z
M 750 3309 
L 1409 3309 
L 1409 2516 
L 750 2516 
L 750 3309 
z
" transform="scale(0.015625)"/>
      <path id="DejaVuSans-20" transform="scale(0.015625)"/>
      <path id="DejaVuSans-39" d="M 703 97 
L 703 672 
Q 941 559 1184 500 
Q 1428 441 1663 441 
Q 2288 441 2617 861 
Q 2947 1281 2994 2138 
Q 2813 1869 2534 1725 
Q 2256 1581 1919 1581 
Q 1219 1581 811 2004 
Q 403 2428 403 3163 
Q 403 3881 828 4315 
Q 1253 4750 1959 4750 
Q 2769 4750 3195 4129 
Q 3622 3509 3622 2328 
Q 3622 1225 3098 567 
Q 2575 -91 1691 -91 
Q 1453 -91 1209 -44 
Q 966 3 703 97 
z
M 1959 2075 
Q 2384 2075 2632 2365 
Q 2881 2656 2881 3163 
Q 2881 3666 2632 3958 
Q 2384 4250 1959 4250 
Q 1534 4250 1286 3958 
Q 1038 3666 1038 3163 
Q 1038 2656 1286 2365 
Q 1534 2075 1959 2075 
z
" transform="scale(0.015625)"/>
      <path id="DejaVuSans-73" d="M 2834 3397 
L 2834 2853 
Q 2591 2978 2328 3040 
Q 2066 3103 1784 3103 
Q 1356 3103 1142 2972 
Q 928 2841 928 2578 
Q 928 2378 1081 2264 
Q 1234 2150 1697 2047 
L 1894 2003 
Q 2506 1872 2764 1633 
Q 3022 1394 3022 966 
Q 3022 478 2636 193 
Q 2250 -91 1575 -91 
Q 1294 -91 989 -36 
Q 684 19 347 128 
L 347 722 
Q 666 556 975 473 
Q 1284 391 1588 391 
Q 1994 391 2212 530 
Q 2431 669 2431 922 
Q 2431 1156 2273 1281 
Q 2116 1406 1581 1522 
L 1381 1569 
Q 847 1681 609 1914 
Q 372 2147 372 2553 
Q 372 3047 722 3315 
Q 1072 3584 1716 3584 
Q 2034 3584 2315 3537 
Q 2597 3491 2834 3397 
z
" transform="scale(0.015625)"/>
     </defs>
     <use xlink:href="#DejaVuSans-54"/>
     <use xlink:href="#DejaVuSans-69" x="57.958984"/>
     <use xlink:href="#DejaVuSans-6d" x="85.742188"/>
     <use xlink:href="#DejaVuSans-65" x="183.154297"/>
     <use xlink:href="#DejaVuSans-3a" x="244.677734"/>
     <use xlink:href="#DejaVuSans-20" x="278.369141"/>
     <use xlink:href="#DejaVuSans-31" x="310.15625"/>
     <use xlink:href="#DejaVuSans-31" x="373.779297"/>
     <use xlink:href="#DejaVuSans-39" x="437.402344"/>
     <use xlink:href="#DejaVuSans-20" x="501.025391"/>
     <use xlink:href="#DejaVuSans-6d" x="532.8125"/>
     <use xlink:href="#DejaVuSans-73" x="630.224609"/>
    </g>
   </g>
  </g>
 </g>
 <defs>
  <clipPath id="pc07033cade">
   <rect x="103.104" y="41.472" width="266.112" height="266.112"/>
  </clipPath>
 </defs>
</svg>
