<?xml version="1.0" encoding="utf-8" standalone="no"?>
<!DOCTYPE svg PUBLIC "-//W3C//DTD SVG 1.1//EN"
  "http://www.w3.org/Graphics/SVG/1.1/DTD/svg11.dtd">
<svg xmlns:xlink="http://www.w3.org/1999/xlink" width="576pt" height="216pt" viewBox="0 0 576 216" xmlns="http://www.w3.org/2000/svg" version="1.1">
 <metadata>
  <rdf:RDF xmlns:dc="http://purl.org/dc/elements/1.1/" xmlns:cc="http://creativecommons.org/ns#" xmlns:rdf="http://www.w3.org/1999/02/22-rdf-syntax-ns#">
   <cc:Work>
    <dc:type rdf:resource="http://purl.org/dc/dcmitype/StillImage"/>
    <dc:date>2024-01-24T15:42:29.096702</dc:date>
    <dc:format>image/svg+xml</dc:format>
    <dc:creator>
     <cc:Agent>
      <dc:title>Matplotlib v3.8.2, https://matplotlib.org/</dc:title>
     </cc:Agent>
    </dc:creator>
   </cc:Work>
  </rdf:RDF>
 </metadata>
 <defs>
  <style type="text/css">*{stroke-linejoin: round; stroke-linecap: butt}</style>
 </defs>
 <g id="figure_1">
  <g id="patch_1">
   <path d="M 0 216 
L 576 216 
L 576 0 
L 0 0 
z
" style="fill: #ffffff"/>
  </g>
  <g id="axes_1">
   <g id="patch_2">
    <path d="M 51.84 34.56 
L 541.44 34.56 
L 541.44 4.32 
L 51.84 4.32 
z
" style="fill: #ffffff"/>
   </g>
   <g id="patch_3">
    <path d="M 281.575385 26.496 
L 323.003077 26.496 
L 323.003077 16.416 
L 281.575385 16.416 
L 281.575385 26.496 
z
" clip-path="url(#pbb87b05c43)" style="fill: none; stroke: #000000; stroke-linejoin: miter"/>
   </g>
   <g id="patch_4">
    <path d="M 281.575385 26.496 
L 323.003077 26.496 
L 323.003077 16.416 
L 281.575385 16.416 
L 281.575385 26.496 
z
" clip-path="url(#pbb87b05c43)" style="fill: none; opacity: 0.8; stroke: #0000ff; stroke-linejoin: miter"/>
   </g>
   <g id="matplotlib.axis_1">
    <g id="xtick_1">
     <g id="line2d_1">
      <path d="M 51.84 34.56 
L 51.84 4.32 
" clip-path="url(#pbb87b05c43)" style="fill: none; stroke: #b0b0b0; stroke-width: 0.8; stroke-linecap: square"/>
     </g>
     <g id="line2d_2">
      <defs>
       <path id="mfd05a98a19" d="M 0 0 
L 0 3.5 
" style="stroke: #000000; stroke-width: 0.8"/>
      </defs>
      <g>
       <use xlink:href="#mfd05a98a19" x="51.84" y="34.56" style="stroke: #000000; stroke-width: 0.8"/>
      </g>
     </g>
     <g id="text_1">
      <!-- −20 -->
      <g transform="translate(41.287656 49.158437) scale(0.1 -0.1)">
       <defs>
        <path id="DejaVuSans-2212" d="M 678 2272 
L 4684 2272 
L 4684 1741 
L 678 1741 
L 678 2272 
z
" transform="scale(0.015625)"/>
        <path id="DejaVuSans-32" d="M 1228 531 
L 3431 531 
L 3431 0 
L 469 0 
L 469 531 
Q 828 903 1448 1529 
Q 2069 2156 2228 2338 
Q 2531 2678 2651 2914 
Q 2772 3150 2772 3378 
Q 2772 3750 2511 3984 
Q 2250 4219 1831 4219 
Q 1534 4219 1204 4116 
Q 875 4013 500 3803 
L 500 4441 
Q 881 4594 1212 4672 
Q 1544 4750 1819 4750 
Q 2544 4750 2975 4387 
Q 3406 4025 3406 3419 
Q 3406 3131 3298 2873 
Q 3191 2616 2906 2266 
Q 2828 2175 2409 1742 
Q 1991 1309 1228 531 
z
" transform="scale(0.015625)"/>
        <path id="DejaVuSans-30" d="M 2034 4250 
Q 1547 4250 1301 3770 
Q 1056 3291 1056 2328 
Q 1056 1369 1301 889 
Q 1547 409 2034 409 
Q 2525 409 2770 889 
Q 3016 1369 3016 2328 
Q 3016 3291 2770 3770 
Q 2525 4250 2034 4250 
z
M 2034 4750 
Q 2819 4750 3233 4129 
Q 3647 3509 3647 2328 
Q 3647 1150 3233 529 
Q 2819 -91 2034 -91 
Q 1250 -91 836 529 
Q 422 1150 422 2328 
Q 422 3509 836 4129 
Q 1250 4750 2034 4750 
z
" transform="scale(0.015625)"/>
       </defs>
       <use xlink:href="#DejaVuSans-2212"/>
       <use xlink:href="#DejaVuSans-32" x="83.789062"/>
       <use xlink:href="#DejaVuSans-30" x="147.412109"/>
      </g>
     </g>
    </g>
    <g id="xtick_2">
     <g id="line2d_3">
      <path d="M 127.163077 34.56 
L 127.163077 4.32 
" clip-path="url(#pbb87b05c43)" style="fill: none; stroke: #b0b0b0; stroke-width: 0.8; stroke-linecap: square"/>
     </g>
     <g id="line2d_4">
      <g>
       <use xlink:href="#mfd05a98a19" x="127.163077" y="34.56" style="stroke: #000000; stroke-width: 0.8"/>
      </g>
     </g>
     <g id="text_2">
      <!-- 0 -->
      <g transform="translate(123.981827 49.158437) scale(0.1 -0.1)">
       <use xlink:href="#DejaVuSans-30"/>
      </g>
     </g>
    </g>
    <g id="xtick_3">
     <g id="line2d_5">
      <path d="M 202.486154 34.56 
L 202.486154 4.32 
" clip-path="url(#pbb87b05c43)" style="fill: none; stroke: #b0b0b0; stroke-width: 0.8; stroke-linecap: square"/>
     </g>
     <g id="line2d_6">
      <g>
       <use xlink:href="#mfd05a98a19" x="202.486154" y="34.56" style="stroke: #000000; stroke-width: 0.8"/>
      </g>
     </g>
     <g id="text_3">
      <!-- 20 -->
      <g transform="translate(196.123654 49.158437) scale(0.1 -0.1)">
       <use xlink:href="#DejaVuSans-32"/>
       <use xlink:href="#DejaVuSans-30" x="63.623047"/>
      </g>
     </g>
    </g>
    <g id="xtick_4">
     <g id="line2d_7">
      <path d="M 277.809231 34.56 
L 277.809231 4.32 
" clip-path="url(#pbb87b05c43)" style="fill: none; stroke: #b0b0b0; stroke-width: 0.8; stroke-linecap: square"/>
     </g>
     <g id="line2d_8">
      <g>
       <use xlink:href="#mfd05a98a19" x="277.809231" y="34.56" style="stroke: #000000; stroke-width: 0.8"/>
      </g>
     </g>
     <g id="text_4">
      <!-- 40 -->
      <g transform="translate(271.446731 49.158437) scale(0.1 -0.1)">
       <defs>
        <path id="DejaVuSans-34" d="M 2419 4116 
L 825 1625 
L 2419 1625 
L 2419 4116 
z
M 2253 4666 
L 3047 4666 
L 3047 1625 
L 3713 1625 
L 3713 1100 
L 3047 1100 
L 3047 0 
L 2419 0 
L 2419 1100 
L 313 1100 
L 313 1709 
L 2253 4666 
z
" transform="scale(0.015625)"/>
       </defs>
       <use xlink:href="#DejaVuSans-34"/>
       <use xlink:href="#DejaVuSans-30" x="63.623047"/>
      </g>
     </g>
    </g>
    <g id="xtick_5">
     <g id="line2d_9">
      <path d="M 353.132308 34.56 
L 353.132308 4.32 
" clip-path="url(#pbb87b05c43)" style="fill: none; stroke: #b0b0b0; stroke-width: 0.8; stroke-linecap: square"/>
     </g>
     <g id="line2d_10">
      <g>
       <use xlink:href="#mfd05a98a19" x="353.132308" y="34.56" style="stroke: #000000; stroke-width: 0.8"/>
      </g>
     </g>
     <g id="text_5">
      <!-- 60 -->
      <g transform="translate(346.769808 49.158437) scale(0.1 -0.1)">
       <defs>
        <path id="DejaVuSans-36" d="M 2113 2584 
Q 1688 2584 1439 2293 
Q 1191 2003 1191 1497 
Q 1191 994 1439 701 
Q 1688 409 2113 409 
Q 2538 409 2786 701 
Q 3034 994 3034 1497 
Q 3034 2003 2786 2293 
Q 2538 2584 2113 2584 
z
M 3366 4563 
L 3366 3988 
Q 3128 4100 2886 4159 
Q 2644 4219 2406 4219 
Q 1781 4219 1451 3797 
Q 1122 3375 1075 2522 
Q 1259 2794 1537 2939 
Q 1816 3084 2150 3084 
Q 2853 3084 3261 2657 
Q 3669 2231 3669 1497 
Q 3669 778 3244 343 
Q 2819 -91 2113 -91 
Q 1303 -91 875 529 
Q 447 1150 447 2328 
Q 447 3434 972 4092 
Q 1497 4750 2381 4750 
Q 2619 4750 2861 4703 
Q 3103 4656 3366 4563 
z
" transform="scale(0.015625)"/>
       </defs>
       <use xlink:href="#DejaVuSans-36"/>
       <use xlink:href="#DejaVuSans-30" x="63.623047"/>
      </g>
     </g>
    </g>
    <g id="xtick_6">
     <g id="line2d_11">
      <path d="M 428.455385 34.56 
L 428.455385 4.32 
" clip-path="url(#pbb87b05c43)" style="fill: none; stroke: #b0b0b0; stroke-width: 0.8; stroke-linecap: square"/>
     </g>
     <g id="line2d_12">
      <g>
       <use xlink:href="#mfd05a98a19" x="428.455385" y="34.56" style="stroke: #000000; stroke-width: 0.8"/>
      </g>
     </g>
     <g id="text_6">
      <!-- 80 -->
      <g transform="translate(422.092885 49.158437) scale(0.1 -0.1)">
       <defs>
        <path id="DejaVuSans-38" d="M 2034 2216 
Q 1584 2216 1326 1975 
Q 1069 1734 1069 1313 
Q 1069 891 1326 650 
Q 1584 409 2034 409 
Q 2484 409 2743 651 
Q 3003 894 3003 1313 
Q 3003 1734 2745 1975 
Q 2488 2216 2034 2216 
z
M 1403 2484 
Q 997 2584 770 2862 
Q 544 3141 544 3541 
Q 544 4100 942 4425 
Q 1341 4750 2034 4750 
Q 2731 4750 3128 4425 
Q 3525 4100 3525 3541 
Q 3525 3141 3298 2862 
Q 3072 2584 2669 2484 
Q 3125 2378 3379 2068 
Q 3634 1759 3634 1313 
Q 3634 634 3220 271 
Q 2806 -91 2034 -91 
Q 1263 -91 848 271 
Q 434 634 434 1313 
Q 434 1759 690 2068 
Q 947 2378 1403 2484 
z
M 1172 3481 
Q 1172 3119 1398 2916 
Q 1625 2713 2034 2713 
Q 2441 2713 2670 2916 
Q 2900 3119 2900 3481 
Q 2900 3844 2670 4047 
Q 2441 4250 2034 4250 
Q 1625 4250 1398 4047 
Q 1172 3844 1172 3481 
z
" transform="scale(0.015625)"/>
       </defs>
       <use xlink:href="#DejaVuSans-38"/>
       <use xlink:href="#DejaVuSans-30" x="63.623047"/>
      </g>
     </g>
    </g>
    <g id="xtick_7">
     <g id="line2d_13">
      <path d="M 503.778462 34.56 
L 503.778462 4.32 
" clip-path="url(#pbb87b05c43)" style="fill: none; stroke: #b0b0b0; stroke-width: 0.8; stroke-linecap: square"/>
     </g>
     <g id="line2d_14">
      <g>
       <use xlink:href="#mfd05a98a19" x="503.778462" y="34.56" style="stroke: #000000; stroke-width: 0.8"/>
      </g>
     </g>
     <g id="text_7">
      <!-- 100 -->
      <g transform="translate(494.234712 49.158437) scale(0.1 -0.1)">
       <defs>
        <path id="DejaVuSans-31" d="M 794 531 
L 1825 531 
L 1825 4091 
L 703 3866 
L 703 4441 
L 1819 4666 
L 2450 4666 
L 2450 531 
L 3481 531 
L 3481 0 
L 794 0 
L 794 531 
z
" transform="scale(0.015625)"/>
       </defs>
       <use xlink:href="#DejaVuSans-31"/>
       <use xlink:href="#DejaVuSans-30" x="63.623047"/>
       <use xlink:href="#DejaVuSans-30" x="127.246094"/>
      </g>
     </g>
    </g>
   </g>
   <g id="matplotlib.axis_2">
    <g id="ytick_1">
     <g id="line2d_15">
      <path d="M 51.84 29.52 
L 541.44 29.52 
" clip-path="url(#pbb87b05c43)" style="fill: none; stroke: #b0b0b0; stroke-width: 0.8; stroke-linecap: square"/>
     </g>
     <g id="line2d_16">
      <defs>
       <path id="me405787a62" d="M 0 0 
L -3.5 0 
" style="stroke: #000000; stroke-width: 0.8"/>
      </defs>
      <g>
       <use xlink:href="#me405787a62" x="51.84" y="29.52" style="stroke: #000000; stroke-width: 0.8"/>
      </g>
     </g>
     <g id="text_8">
      <!-- −0.1 -->
      <g transform="translate(20.557187 33.319219) scale(0.1 -0.1)">
       <defs>
        <path id="DejaVuSans-2e" d="M 684 794 
L 1344 794 
L 1344 0 
L 684 0 
L 684 794 
z
" transform="scale(0.015625)"/>
       </defs>
       <use xlink:href="#DejaVuSans-2212"/>
       <use xlink:href="#DejaVuSans-30" x="83.789062"/>
       <use xlink:href="#DejaVuSans-2e" x="147.412109"/>
       <use xlink:href="#DejaVuSans-31" x="179.199219"/>
      </g>
     </g>
    </g>
    <g id="ytick_2">
     <g id="line2d_17">
      <path d="M 51.84 19.44 
L 541.44 19.44 
" clip-path="url(#pbb87b05c43)" style="fill: none; stroke: #b0b0b0; stroke-width: 0.8; stroke-linecap: square"/>
     </g>
     <g id="line2d_18">
      <g>
       <use xlink:href="#me405787a62" x="51.84" y="19.44" style="stroke: #000000; stroke-width: 0.8"/>
      </g>
     </g>
     <g id="text_9">
      <!-- 0.0 -->
      <g transform="translate(28.936875 23.239219) scale(0.1 -0.1)">
       <use xlink:href="#DejaVuSans-30"/>
       <use xlink:href="#DejaVuSans-2e" x="63.623047"/>
       <use xlink:href="#DejaVuSans-30" x="95.410156"/>
      </g>
     </g>
    </g>
    <g id="ytick_3">
     <g id="line2d_19">
      <path d="M 51.84 9.36 
L 541.44 9.36 
" clip-path="url(#pbb87b05c43)" style="fill: none; stroke: #b0b0b0; stroke-width: 0.8; stroke-linecap: square"/>
     </g>
     <g id="line2d_20">
      <g>
       <use xlink:href="#me405787a62" x="51.84" y="9.36" style="stroke: #000000; stroke-width: 0.8"/>
      </g>
     </g>
     <g id="text_10">
      <!-- 0.1 -->
      <g transform="translate(28.936875 13.159219) scale(0.1 -0.1)">
       <use xlink:href="#DejaVuSans-30"/>
       <use xlink:href="#DejaVuSans-2e" x="63.623047"/>
       <use xlink:href="#DejaVuSans-31" x="95.410156"/>
      </g>
     </g>
    </g>
    <g id="text_11">
     <!-- $\Delta\phi$[$rad/100ms$] -->
     <g transform="translate(14.457187 57.09) rotate(-90) scale(0.1 -0.1)">
      <defs>
       <path id="DejaVuSans-394" d="M 2188 4044 
L 906 525 
L 3472 525 
L 2188 4044 
z
M 50 0 
L 1831 4666 
L 2547 4666 
L 4325 0 
L 50 0 
z
" transform="scale(0.015625)"/>
       <path id="DejaVuSans-Oblique-3d5" d="M 2991 4863 
L 2738 3572 
Q 3363 3572 3684 3094 
Q 4016 2606 3850 1747 
Q 3681 888 3159 400 
Q 2653 -78 2028 -78 
L 1784 -1331 
L 1213 -1331 
L 1456 -78 
Q 834 -78 509 400 
Q 178 888 347 1747 
Q 513 2606 1034 3094 
Q 1544 3572 2166 3572 
L 2419 4863 
L 2991 4863 
z
M 2128 434 
Q 2481 434 2784 756 
Q 3116 1116 3244 1747 
Q 3369 2372 3169 2738 
Q 2991 3059 2638 3059 
L 2128 434 
z
M 1556 434 
L 2066 3059 
Q 1716 3059 1413 2738 
Q 1072 2372 953 1747 
Q 834 1116 1028 756 
Q 1203 434 1556 434 
z
" transform="scale(0.015625)"/>
       <path id="DejaVuSans-5b" d="M 550 4863 
L 1875 4863 
L 1875 4416 
L 1125 4416 
L 1125 -397 
L 1875 -397 
L 1875 -844 
L 550 -844 
L 550 4863 
z
" transform="scale(0.015625)"/>
       <path id="DejaVuSans-Oblique-72" d="M 2853 2969 
Q 2766 3016 2653 3041 
Q 2541 3066 2413 3066 
Q 1953 3066 1609 2717 
Q 1266 2369 1153 1784 
L 800 0 
L 225 0 
L 909 3500 
L 1484 3500 
L 1375 2956 
Q 1603 3259 1920 3421 
Q 2238 3584 2597 3584 
Q 2691 3584 2781 3573 
Q 2872 3563 2963 3538 
L 2853 2969 
z
" transform="scale(0.015625)"/>
       <path id="DejaVuSans-Oblique-61" d="M 3438 1997 
L 3047 0 
L 2472 0 
L 2578 531 
Q 2325 219 2001 64 
Q 1678 -91 1281 -91 
Q 834 -91 548 182 
Q 263 456 263 884 
Q 263 1497 752 1853 
Q 1241 2209 2100 2209 
L 2900 2209 
L 2931 2363 
Q 2938 2388 2941 2417 
Q 2944 2447 2944 2509 
Q 2944 2788 2717 2942 
Q 2491 3097 2081 3097 
Q 1800 3097 1504 3025 
Q 1209 2953 897 2809 
L 997 3341 
Q 1322 3463 1633 3523 
Q 1944 3584 2234 3584 
Q 2853 3584 3176 3315 
Q 3500 3047 3500 2534 
Q 3500 2431 3484 2292 
Q 3469 2153 3438 1997 
z
M 2816 1759 
L 2241 1759 
Q 1534 1759 1195 1570 
Q 856 1381 856 984 
Q 856 709 1029 553 
Q 1203 397 1509 397 
Q 1978 397 2328 733 
Q 2678 1069 2791 1631 
L 2816 1759 
z
" transform="scale(0.015625)"/>
       <path id="DejaVuSans-Oblique-64" d="M 2675 525 
Q 2444 222 2128 65 
Q 1813 -91 1428 -91 
Q 903 -91 598 267 
Q 294 625 294 1247 
Q 294 1766 478 2236 
Q 663 2706 1013 3078 
Q 1244 3325 1534 3454 
Q 1825 3584 2144 3584 
Q 2481 3584 2739 3421 
Q 2997 3259 3138 2956 
L 3513 4863 
L 4091 4863 
L 3144 0 
L 2566 0 
L 2675 525 
z
M 891 1350 
Q 891 897 1095 644 
Q 1300 391 1663 391 
Q 1931 391 2161 520 
Q 2391 650 2566 903 
Q 2750 1166 2856 1509 
Q 2963 1853 2963 2188 
Q 2963 2622 2758 2865 
Q 2553 3109 2194 3109 
Q 1922 3109 1687 2981 
Q 1453 2853 1288 2613 
Q 1106 2353 998 2009 
Q 891 1666 891 1350 
z
" transform="scale(0.015625)"/>
       <path id="DejaVuSans-2f" d="M 1625 4666 
L 2156 4666 
L 531 -594 
L 0 -594 
L 1625 4666 
z
" transform="scale(0.015625)"/>
       <path id="DejaVuSans-Oblique-6d" d="M 5747 2113 
L 5338 0 
L 4763 0 
L 5166 2094 
Q 5191 2228 5203 2325 
Q 5216 2422 5216 2491 
Q 5216 2772 5059 2928 
Q 4903 3084 4622 3084 
Q 4203 3084 3875 2770 
Q 3547 2456 3450 1953 
L 3066 0 
L 2491 0 
L 2900 2094 
Q 2925 2209 2937 2307 
Q 2950 2406 2950 2484 
Q 2950 2769 2794 2926 
Q 2638 3084 2363 3084 
Q 1938 3084 1609 2770 
Q 1281 2456 1184 1953 
L 800 0 
L 225 0 
L 909 3500 
L 1484 3500 
L 1375 2956 
Q 1609 3263 1923 3423 
Q 2238 3584 2597 3584 
Q 2978 3584 3223 3384 
Q 3469 3184 3519 2828 
Q 3781 3197 4126 3390 
Q 4472 3584 4856 3584 
Q 5306 3584 5551 3325 
Q 5797 3066 5797 2591 
Q 5797 2488 5784 2364 
Q 5772 2241 5747 2113 
z
" transform="scale(0.015625)"/>
       <path id="DejaVuSans-Oblique-73" d="M 3200 3397 
L 3091 2853 
Q 2863 2978 2609 3040 
Q 2356 3103 2088 3103 
Q 1634 3103 1373 2948 
Q 1113 2794 1113 2528 
Q 1113 2219 1719 2053 
Q 1766 2041 1788 2034 
L 1972 1978 
Q 2547 1819 2739 1644 
Q 2931 1469 2931 1166 
Q 2931 609 2489 259 
Q 2047 -91 1331 -91 
Q 1053 -91 747 -37 
Q 441 16 72 128 
L 184 722 
Q 500 559 806 475 
Q 1113 391 1394 391 
Q 1816 391 2080 572 
Q 2344 753 2344 1031 
Q 2344 1331 1650 1516 
L 1591 1531 
L 1394 1581 
Q 956 1697 753 1886 
Q 550 2075 550 2369 
Q 550 2928 970 3256 
Q 1391 3584 2113 3584 
Q 2397 3584 2667 3537 
Q 2938 3491 3200 3397 
z
" transform="scale(0.015625)"/>
       <path id="DejaVuSans-5d" d="M 1947 4863 
L 1947 -844 
L 622 -844 
L 622 -397 
L 1369 -397 
L 1369 4416 
L 622 4416 
L 622 4863 
L 1947 4863 
z
" transform="scale(0.015625)"/>
      </defs>
      <use xlink:href="#DejaVuSans-394" transform="translate(0 0.015625)"/>
      <use xlink:href="#DejaVuSans-Oblique-3d5" transform="translate(68.408203 0.015625)"/>
      <use xlink:href="#DejaVuSans-5b" transform="translate(134.375 0.015625)"/>
      <use xlink:href="#DejaVuSans-Oblique-72" transform="translate(173.388672 0.015625)"/>
      <use xlink:href="#DejaVuSans-Oblique-61" transform="translate(214.501953 0.015625)"/>
      <use xlink:href="#DejaVuSans-Oblique-64" transform="translate(275.78125 0.015625)"/>
      <use xlink:href="#DejaVuSans-2f" transform="translate(339.257812 0.015625)"/>
      <use xlink:href="#DejaVuSans-31" transform="translate(372.949219 0.015625)"/>
      <use xlink:href="#DejaVuSans-30" transform="translate(436.572266 0.015625)"/>
      <use xlink:href="#DejaVuSans-30" transform="translate(500.195312 0.015625)"/>
      <use xlink:href="#DejaVuSans-Oblique-6d" transform="translate(563.818359 0.015625)"/>
      <use xlink:href="#DejaVuSans-Oblique-73" transform="translate(661.230469 0.015625)"/>
      <use xlink:href="#DejaVuSans-5d" transform="translate(713.330078 0.015625)"/>
     </g>
    </g>
   </g>
   <g id="line2d_21">
    <path d="M 127.163077 19.537248 
L 130.929231 19.538189 
L 134.695385 19.61828 
L 138.461538 19.605836 
L 142.227692 19.666162 
L 145.993846 19.7414 
L 149.76 19.837513 
L 153.526154 19.939215 
L 157.292308 20.021445 
L 161.058462 20.120535 
L 164.824615 20.17486 
L 168.590769 20.253405 
L 172.356923 20.277761 
L 176.123077 20.248939 
L 179.889231 20.174037 
L 183.655385 20.013273 
L 187.421538 19.777175 
L 191.187692 19.40009 
L 194.953846 18.868712 
L 198.72 18.13013 
L 202.486154 17.176994 
L 206.252308 15.933474 
L 210.018462 14.495185 
L 213.784615 12.41004 
L 217.550769 10.782892 
L 221.316923 10.707624 
L 225.083077 11.535161 
L 228.849231 10.897972 
L 232.615385 9.302056 
L 236.381538 9.31492 
L 240.147692 9.321573 
L 243.913846 9.326046 
L 247.68 9.36811 
L 251.446154 9.402125 
L 255.212308 9.406931 
L 258.978462 9.4568 
L 262.744615 9.528092 
L 266.510769 9.540275 
L 270.276923 12.480332 
L 274.043077 15.301583 
L 277.809231 17.184303 
L 281.575385 19.075928 
L 285.341538 19.966922 
L 289.107692 19.731199 
L 292.873846 19.464377 
L 296.64 18.971198 
L 300.406154 18.176996 
L 304.172308 18.405826 
L 307.938462 19.088312 
L 311.704615 19.680079 
L 315.470769 20.203042 
L 319.236923 20.527696 
L 323.003077 20.666547 
L 326.769231 20.528195 
L 330.535385 19.711049 
L 334.301538 19.269578 
L 338.067692 18.252364 
L 341.833846 17.360402 
L 345.6 17.980399 
L 349.366154 18.510902 
L 353.132308 19.154614 
L 356.898462 19.525099 
L 360.664615 19.753678 
L 364.430769 19.881798 
L 368.196923 19.939421 
L 371.963077 19.948902 
L 375.729231 19.927168 
L 379.495385 19.887432 
L 383.261538 19.838513 
L 387.027692 19.786439 
L 390.793846 19.735166 
L 394.56 19.687511 
L 398.326154 19.647176 
L 402.092308 19.60657 
L 405.858462 19.572364 
L 409.624615 19.54394 
L 413.390769 19.520644 
L 417.156923 19.501798 
L 420.923077 19.48674 
L 424.689231 19.474851 
L 428.455385 19.465577 
L 432.221538 19.458431 
L 435.987692 19.452993 
L 439.753846 19.448911 
L 443.52 19.445894 
L 447.286154 19.4437 
L 451.052308 19.442138 
L 454.818462 19.441052 
L 458.584615 19.440321 
L 462.350769 19.43985 
L 466.116923 19.439566 
L 469.883077 19.439413 
L 473.649231 19.439351 
L 477.415385 19.439347 
L 481.181538 19.43938 
L 484.947692 19.439435 
L 488.713846 19.439499 
L 492.48 19.439566 
L 496.246154 19.439632 
L 500.012308 19.439692 
L 503.778462 19.439747 
L 507.544615 19.439794 
L 511.310769 19.439835 
L 515.076923 19.439869 
L 518.843077 19.439897 
L 522.609231 19.439921 
L 526.375385 19.439939 
L 530.141538 19.439954 
L 533.907692 19.439966 
L 537.673846 19.439975 
L 541.44 19.439982 
L 545.206154 19.439987 
L 548.972308 19.439991 
L 552.738462 19.439994 
L 556.504615 19.439996 
L 560.270769 19.439998 
L 564.036923 19.439999 
L 567.803077 19.44 
L 571.569231 19.44 
" clip-path="url(#pbb87b05c43)" style="fill: none; stroke: #dbdc56; stroke-width: 0.75; stroke-linecap: square"/>
   </g>
   <g id="line2d_22">
    <path d="M 127.163077 19.44 
L 130.929231 19.44 
L 134.695385 19.44 
L 138.461538 19.44 
L 142.227692 19.44 
L 145.993846 19.44 
L 149.76 19.44 
L 153.526154 19.438064 
L 157.292308 19.433153 
L 161.058462 19.428941 
L 164.824615 19.423045 
L 168.590769 19.41993 
L 172.356923 19.420987 
L 176.123077 19.424383 
L 179.889231 19.42996 
L 183.655385 19.436427 
L 187.421538 19.441937 
L 191.187692 19.448662 
L 194.953846 19.453896 
L 198.72 19.462664 
L 202.486154 19.475922 
L 206.252308 19.479157 
L 210.018462 19.476287 
L 213.784615 19.465886 
L 217.550769 19.454047 
L 221.316923 19.453294 
L 225.083077 19.456298 
L 228.849231 19.493835 
L 232.615385 19.533752 
L 236.381538 19.603349 
L 240.147692 19.677162 
L 243.913846 19.750285 
L 247.68 19.834364 
L 251.446154 19.936365 
L 255.212308 20.100165 
L 258.978462 20.170084 
L 262.744615 20.197685 
L 266.510769 20.172453 
L 270.276923 20.137725 
L 274.043077 19.383173 
L 277.809231 18.668857 
L 281.575385 18.7744 
L 285.341538 19.054669 
L 289.107692 19.647315 
L 292.873846 20.466322 
L 296.64 21.456742 
L 300.406154 22.208453 
L 304.172308 22.584238 
L 307.938462 22.567445 
L 311.704615 22.524813 
L 315.470769 22.091815 
L 319.236923 20.487286 
L 323.003077 17.560907 
L 326.769231 13.719573 
L 330.535385 9.849153 
L 334.301538 8.543025 
L 338.067692 8.584154 
L 341.833846 8.665714 
L 345.6 12.157282 
L 349.366154 17.456734 
L 353.132308 21.777579 
L 356.898462 25.586022 
L 360.664615 28.493587 
L 364.430769 28.401452 
L 368.196923 28.051483 
L 371.963077 27.70152 
L 375.729231 25.217484 
L 379.495385 19.733483 
L 383.261538 18.175765 
L 387.027692 16.678108 
L 390.793846 15.508364 
L 394.56 15.718591 
L 398.326154 16.446074 
L 402.092308 17.464618 
L 405.858462 18.421572 
L 409.624615 19.03331 
L 413.390769 19.40985 
L 417.156923 19.659136 
L 420.923077 19.812569 
L 424.689231 19.895562 
L 428.455385 19.928036 
L 432.221538 19.925475 
L 435.987692 19.900026 
L 439.753846 19.860893 
L 443.52 19.814758 
L 447.286154 19.766357 
L 451.052308 19.718901 
L 454.818462 19.674434 
L 458.584615 19.63424 
L 462.350769 19.598724 
L 466.116923 19.56836 
L 469.883077 19.543373 
L 473.649231 19.520332 
L 477.415385 19.501695 
L 481.181538 19.48678 
L 484.947692 19.474981 
L 488.713846 19.465759 
L 492.48 19.458635 
L 496.246154 19.453201 
L 500.012308 19.44911 
L 503.778462 19.446076 
L 507.544615 19.443861 
L 511.310769 19.442276 
L 515.076923 19.441167 
L 518.843077 19.440415 
L 522.609231 19.439924 
L 526.375385 19.439623 
L 530.141538 19.439456 
L 533.907692 19.439381 
L 537.673846 19.439367 
L 541.44 19.439393 
L 545.206154 19.439441 
L 548.972308 19.439501 
L 552.738462 19.439565 
L 556.504615 19.439629 
L 560.270769 19.439688 
L 564.036923 19.439741 
L 567.803077 19.439789 
L 571.569231 19.439829 
" clip-path="url(#pbb87b05c43)" style="fill: none; stroke: #9400d3; stroke-width: 0.75; stroke-linecap: square"/>
   </g>
   <g id="line2d_23">
    <path d="M 127.163077 19.44 
L 130.929231 19.44 
L 134.695385 19.44 
L 138.461538 19.44 
L 142.227692 19.44 
L 145.993846 19.44 
L 149.76 19.44 
L 153.526154 19.44 
L 157.292308 19.44 
L 161.058462 19.44 
L 164.824615 19.44 
L 168.590769 19.44 
L 172.356923 19.44 
L 176.123077 19.44 
L 179.889231 19.44 
L 183.655385 19.44 
L 187.421538 19.44 
L 191.187692 19.44 
L 194.953846 19.44 
L 198.72 19.44 
L 202.486154 19.44 
L 206.252308 19.44 
L 210.018462 19.44 
L 213.784615 19.431449 
L 217.550769 19.425416 
L 221.316923 19.421273 
L 225.083077 19.418777 
L 228.849231 19.417871 
L 232.615385 19.420385 
L 236.381538 19.422172 
L 240.147692 19.429129 
L 243.913846 19.435597 
L 247.68 19.443086 
L 251.446154 19.450004 
L 255.212308 19.457651 
L 258.978462 19.468474 
L 262.744615 19.478549 
L 266.510769 19.496689 
L 270.276923 19.515747 
L 274.043077 19.540166 
L 277.809231 19.562255 
L 281.575385 19.597463 
L 285.341538 19.640795 
L 289.107692 19.683254 
L 292.873846 19.727901 
L 296.64 19.782558 
L 300.406154 19.826998 
L 304.172308 19.865854 
L 307.938462 19.899833 
L 311.704615 19.91984 
L 315.470769 19.923609 
L 319.236923 19.89542 
L 323.003077 19.8304 
L 326.769231 19.728625 
L 330.535385 18.98855 
L 334.301538 18.453865 
L 338.067692 17.659957 
L 341.833846 16.938272 
L 345.6 17.192158 
L 349.366154 17.56752 
L 353.132308 18.147235 
L 356.898462 18.566339 
L 360.664615 18.831027 
L 364.430769 19.004811 
L 368.196923 19.12835 
L 371.963077 19.307195 
L 375.729231 19.507401 
L 379.495385 19.783859 
L 383.261538 20.069199 
L 387.027692 20.433695 
L 390.793846 20.871188 
L 394.56 21.41591 
L 398.326154 22.085672 
L 402.092308 22.891937 
L 405.858462 23.97219 
L 409.624615 25.041571 
L 413.390769 26.035017 
L 417.156923 27.139734 
L 420.923077 27.083581 
L 424.689231 27.060884 
L 428.455385 27.042181 
L 432.221538 27.036212 
L 435.987692 27.043941 
L 439.753846 27.059923 
L 443.52 27.112534 
L 447.286154 27.129583 
L 451.052308 27.184405 
L 454.818462 27.256678 
L 458.584615 27.292956 
L 462.350769 27.368481 
L 466.116923 27.422137 
L 469.883077 27.484441 
L 473.649231 27.581629 
L 477.415385 26.590141 
L 481.181538 24.396067 
L 484.947692 22.298605 
L 488.713846 21.206162 
L 492.48 20.428592 
L 496.246154 19.874112 
L 500.012308 19.552044 
L 503.778462 19.334933 
L 507.544615 19.197426 
L 511.310769 19.118594 
L 515.076923 19.081921 
L 518.843077 19.074583 
L 522.609231 19.086782 
L 526.375385 19.111178 
L 530.141538 19.142394 
L 533.907692 19.176594 
L 537.673846 19.210628 
L 541.44 19.241351 
L 545.206154 19.273905 
L 548.972308 19.302657 
L 552.738462 19.327637 
L 556.504615 19.349006 
L 560.270769 19.367039 
L 564.036923 19.382072 
L 567.803077 19.394463 
L 571.569231 19.40457 
" clip-path="url(#pbb87b05c43)" style="fill: none; stroke: #1e90ff; stroke-width: 0.75; stroke-linecap: square"/>
   </g>
   <g id="patch_5">
    <path d="M 51.84 34.56 
L 51.84 4.32 
" style="fill: none; stroke: #000000; stroke-width: 0.8; stroke-linejoin: miter; stroke-linecap: square"/>
   </g>
   <g id="patch_6">
    <path d="M 541.44 34.56 
L 541.44 4.32 
" style="fill: none; stroke: #000000; stroke-width: 0.8; stroke-linejoin: miter; stroke-linecap: square"/>
   </g>
   <g id="patch_7">
    <path d="M 51.84 34.56 
L 541.44 34.56 
" style="fill: none; stroke: #000000; stroke-width: 0.8; stroke-linejoin: miter; stroke-linecap: square"/>
   </g>
   <g id="patch_8">
    <path d="M 51.84 4.32 
L 541.44 4.32 
" style="fill: none; stroke: #000000; stroke-width: 0.8; stroke-linejoin: miter; stroke-linecap: square"/>
   </g>
   <g id="text_12">
    <!-- proposed -->
    <g transform="translate(553.991375 39.729625) rotate(-90) scale(0.1 -0.1)">
     <defs>
      <path id="DejaVuSans-70" d="M 1159 525 
L 1159 -1331 
L 581 -1331 
L 581 3500 
L 1159 3500 
L 1159 2969 
Q 1341 3281 1617 3432 
Q 1894 3584 2278 3584 
Q 2916 3584 3314 3078 
Q 3713 2572 3713 1747 
Q 3713 922 3314 415 
Q 2916 -91 2278 -91 
Q 1894 -91 1617 61 
Q 1341 213 1159 525 
z
M 3116 1747 
Q 3116 2381 2855 2742 
Q 2594 3103 2138 3103 
Q 1681 3103 1420 2742 
Q 1159 2381 1159 1747 
Q 1159 1113 1420 752 
Q 1681 391 2138 391 
Q 2594 391 2855 752 
Q 3116 1113 3116 1747 
z
" transform="scale(0.015625)"/>
      <path id="DejaVuSans-72" d="M 2631 2963 
Q 2534 3019 2420 3045 
Q 2306 3072 2169 3072 
Q 1681 3072 1420 2755 
Q 1159 2438 1159 1844 
L 1159 0 
L 581 0 
L 581 3500 
L 1159 3500 
L 1159 2956 
Q 1341 3275 1631 3429 
Q 1922 3584 2338 3584 
Q 2397 3584 2469 3576 
Q 2541 3569 2628 3553 
L 2631 2963 
z
" transform="scale(0.015625)"/>
      <path id="DejaVuSans-6f" d="M 1959 3097 
Q 1497 3097 1228 2736 
Q 959 2375 959 1747 
Q 959 1119 1226 758 
Q 1494 397 1959 397 
Q 2419 397 2687 759 
Q 2956 1122 2956 1747 
Q 2956 2369 2687 2733 
Q 2419 3097 1959 3097 
z
M 1959 3584 
Q 2709 3584 3137 3096 
Q 3566 2609 3566 1747 
Q 3566 888 3137 398 
Q 2709 -91 1959 -91 
Q 1206 -91 779 398 
Q 353 888 353 1747 
Q 353 2609 779 3096 
Q 1206 3584 1959 3584 
z
" transform="scale(0.015625)"/>
      <path id="DejaVuSans-73" d="M 2834 3397 
L 2834 2853 
Q 2591 2978 2328 3040 
Q 2066 3103 1784 3103 
Q 1356 3103 1142 2972 
Q 928 2841 928 2578 
Q 928 2378 1081 2264 
Q 1234 2150 1697 2047 
L 1894 2003 
Q 2506 1872 2764 1633 
Q 3022 1394 3022 966 
Q 3022 478 2636 193 
Q 2250 -91 1575 -91 
Q 1294 -91 989 -36 
Q 684 19 347 128 
L 347 722 
Q 666 556 975 473 
Q 1284 391 1588 391 
Q 1994 391 2212 530 
Q 2431 669 2431 922 
Q 2431 1156 2273 1281 
Q 2116 1406 1581 1522 
L 1381 1569 
Q 847 1681 609 1914 
Q 372 2147 372 2553 
Q 372 3047 722 3315 
Q 1072 3584 1716 3584 
Q 2034 3584 2315 3537 
Q 2597 3491 2834 3397 
z
" transform="scale(0.015625)"/>
      <path id="DejaVuSans-65" d="M 3597 1894 
L 3597 1613 
L 953 1613 
Q 991 1019 1311 708 
Q 1631 397 2203 397 
Q 2534 397 2845 478 
Q 3156 559 3463 722 
L 3463 178 
Q 3153 47 2828 -22 
Q 2503 -91 2169 -91 
Q 1331 -91 842 396 
Q 353 884 353 1716 
Q 353 2575 817 3079 
Q 1281 3584 2069 3584 
Q 2775 3584 3186 3129 
Q 3597 2675 3597 1894 
z
M 3022 2063 
Q 3016 2534 2758 2815 
Q 2500 3097 2075 3097 
Q 1594 3097 1305 2825 
Q 1016 2553 972 2059 
L 3022 2063 
z
" transform="scale(0.015625)"/>
      <path id="DejaVuSans-64" d="M 2906 2969 
L 2906 4863 
L 3481 4863 
L 3481 0 
L 2906 0 
L 2906 525 
Q 2725 213 2448 61 
Q 2172 -91 1784 -91 
Q 1150 -91 751 415 
Q 353 922 353 1747 
Q 353 2572 751 3078 
Q 1150 3584 1784 3584 
Q 2172 3584 2448 3432 
Q 2725 3281 2906 2969 
z
M 947 1747 
Q 947 1113 1208 752 
Q 1469 391 1925 391 
Q 2381 391 2643 752 
Q 2906 1113 2906 1747 
Q 2906 2381 2643 2742 
Q 2381 3103 1925 3103 
Q 1469 3103 1208 2742 
Q 947 2381 947 1747 
z
" transform="scale(0.015625)"/>
     </defs>
     <use xlink:href="#DejaVuSans-70"/>
     <use xlink:href="#DejaVuSans-72" x="63.476562"/>
     <use xlink:href="#DejaVuSans-6f" x="102.339844"/>
     <use xlink:href="#DejaVuSans-70" x="163.521484"/>
     <use xlink:href="#DejaVuSans-6f" x="226.998047"/>
     <use xlink:href="#DejaVuSans-73" x="288.179688"/>
     <use xlink:href="#DejaVuSans-65" x="340.279297"/>
     <use xlink:href="#DejaVuSans-64" x="401.802734"/>
    </g>
   </g>
   <g id="axes_2">
    <g id="patch_9">
     <path d="M 56.736 33.048 
L 130.176 33.048 
L 130.176 5.832 
L 56.736 5.832 
z
" style="fill: #ffffff"/>
    </g>
    <g id="patch_10">
     <path d="M 130.176 33.048 
L 323.003077 26.496 
" style="fill: none; stroke: #000000; stroke-linejoin: miter"/>
    </g>
    <g id="patch_11">
     <path d="M 130.176 5.832 
L 323.003077 16.416 
" style="fill: none; stroke: #000000; stroke-linejoin: miter"/>
    </g>
    <g id="matplotlib.axis_3"/>
    <g id="matplotlib.axis_4"/>
    <g id="line2d_24">
     <path d="M 40.032482 -1 
L 43.383273 2.823074 
L 50.059636 7.906419 
L 56.736 13.013805 
L 63.412364 15.419488 
L 70.088727 14.783038 
L 76.765091 14.062618 
L 83.441455 12.731033 
L 90.117818 10.58669 
L 96.794182 11.204532 
L 103.470545 13.047242 
L 110.146909 14.645013 
L 116.823273 16.057012 
L 123.499636 16.933579 
L 130.176 17.308478 
L 136.852364 16.934927 
L 143.528727 14.728633 
L 150.205091 13.536661 
L 156.881455 10.790183 
L 163.557818 8.381886 
L 170.234182 10.055877 
L 176.910545 11.488237 
L 183.586909 13.226257 
L 190.263273 14.226567 
L 196.939636 14.84373 
L 203.616 15.189655 
L 210.292364 15.345236 
L 216.968727 15.370836 
L 223.645091 15.312154 
L 230.321455 15.204867 
L 236.997818 15.072786 
L 243.674182 14.932186 
L 250.350545 14.793749 
L 257.026909 14.66508 
L 263.703273 14.556176 
L 270.379636 14.446538 
L 277.056 14.354184 
L 283.732364 14.277438 
L 290.408727 14.214539 
L 297.085091 14.163655 
L 303.761455 14.122997 
L 310.437818 14.090899 
L 317.114182 14.065859 
L 323.790545 14.046562 
L 330.466909 14.03188 
L 337.143273 14.02086 
L 343.819636 14.012713 
L 350.496 14.006791 
L 357.172364 14.002573 
L 363.848727 13.999642 
L 370.525091 13.997668 
L 377.201455 13.996396 
L 383.877818 13.995629 
L 390.554182 13.995216 
L 397.230545 13.995047 
L 403.906909 13.995037 
L 410.583273 13.995127 
L 417.259636 13.995273 
L 423.936 13.995447 
L 430.612364 13.995629 
L 437.288727 13.995805 
L 443.965091 13.995969 
L 450.641455 13.996116 
L 457.317818 13.996244 
L 463.994182 13.996354 
L 470.670545 13.996446 
L 477.346909 13.996523 
L 484.023273 13.996585 
L 490.699636 13.996636 
L 497.376 13.996676 
L 504.052364 13.996708 
L 510.728727 13.996733 
L 517.405091 13.996752 
L 524.081455 13.996766 
L 530.757818 13.996777 
L 537.434182 13.996785 
L 544.110545 13.996791 
L 550.786909 13.996795 
L 557.463273 13.996797 
L 564.139636 13.996799 
L 570.816 13.996801 
" clip-path="url(#p31da51fd1a)" style="fill: none; stroke: #ff4500; stroke-width: 0.75; stroke-linecap: square"/>
    </g>
    <g id="line2d_25">
     <path d="M -1 15.158574 
L 3.325091 15.336985 
L 10.001455 15.779245 
L 16.677818 15.968026 
L 23.354182 16.042549 
L 30.030545 15.974423 
L 36.706909 15.880658 
L 43.383273 13.843367 
L 50.059636 11.914714 
L 56.736 12.19968 
L 63.412364 12.956407 
L 70.088727 14.556549 
L 76.765091 16.76787 
L 83.441455 19.442003 
L 90.117818 21.471624 
L 96.794182 22.486242 
L 103.470545 22.440901 
L 110.146909 22.325795 
L 116.823273 21.1567 
L 123.499636 16.824471 
L 130.176 8.923249 
L 136.563752 -1 
M 172.411591 -1 
L 176.910545 8.641983 
L 183.586909 20.308264 
L 190.263273 30.59106 
L 196.939636 38.441486 
L 203.616 38.192719 
L 210.292364 37.247803 
L 216.968727 36.302904 
L 223.645091 29.596007 
L 230.321455 14.789205 
L 236.997818 10.583366 
L 243.674182 6.539692 
L 250.350545 3.381382 
L 257.026909 3.948996 
L 263.703273 5.9132 
L 270.379636 8.66327 
L 277.056 11.247044 
L 283.732364 12.898736 
L 290.408727 13.915395 
L 297.085091 14.588467 
L 303.761455 15.002736 
L 310.437818 15.226818 
L 317.114182 15.314498 
L 323.790545 15.307582 
L 330.466909 15.238869 
L 337.143273 15.13321 
L 343.819636 15.008646 
L 350.496 14.877963 
L 357.172364 14.749832 
L 363.848727 14.629773 
L 370.525091 14.521248 
L 377.201455 14.425356 
L 383.877818 14.343373 
L 390.554182 14.275907 
L 397.230545 14.213695 
L 403.906909 14.163377 
L 410.583273 14.123105 
L 417.259636 14.09125 
L 423.936 14.066348 
L 430.612364 14.047114 
L 437.288727 14.032442 
L 443.965091 14.021398 
L 450.641455 14.013204 
L 457.317818 14.007225 
L 463.994182 14.002945 
L 470.670545 13.999952 
L 477.346909 13.99792 
L 484.023273 13.996596 
L 490.699636 13.995782 
L 497.376 13.99533 
L 504.052364 13.995128 
L 510.728727 13.995092 
L 517.405091 13.995161 
L 524.081455 13.995291 
L 530.757818 13.995453 
L 537.434182 13.995627 
L 544.110545 13.995797 
L 550.786909 13.995957 
L 557.463273 13.996102 
L 564.139636 13.996229 
L 570.816 13.996339 
" clip-path="url(#p31da51fd1a)" style="fill: none; stroke: #7cfc00; stroke-width: 0.75; stroke-linecap: square"/>
    </g>
    <g id="line2d_26">
     <path d="M -1 14.01171 
L 3.325091 14.023812 
L 10.001455 14.044458 
L 16.677818 14.073681 
L 23.354182 14.100881 
L 30.030545 14.14986 
L 36.706909 14.201316 
L 43.383273 14.267248 
L 50.059636 14.326889 
L 56.736 14.42195 
L 63.412364 14.538946 
L 70.088727 14.653586 
L 76.765091 14.774132 
L 83.441455 14.921706 
L 90.117818 15.041694 
L 96.794182 15.146605 
L 103.470545 15.23835 
L 110.146909 15.292369 
L 116.823273 15.302546 
L 123.499636 15.226434 
L 130.176 15.050879 
L 136.852364 14.776087 
L 143.528727 12.777885 
L 150.205091 11.334234 
L 156.881455 9.190684 
L 163.557818 7.242136 
L 170.234182 7.927627 
L 176.910545 8.941104 
L 183.586909 10.506335 
L 190.263273 11.637915 
L 196.939636 12.352574 
L 203.616 12.821789 
L 210.292364 13.155346 
L 216.968727 13.638226 
L 223.645091 14.178783 
L 230.321455 14.925221 
L 236.997818 15.695637 
L 243.674182 16.679777 
L 250.350545 17.861008 
L 257.026909 19.331757 
L 263.703273 21.140116 
L 270.379636 23.31703 
L 277.056 26.233713 
L 283.732364 29.12104 
L 290.408727 31.803346 
L 297.085091 34.786082 
L 303.761455 34.634468 
L 310.437818 34.573186 
L 317.114182 34.52269 
L 323.790545 34.506573 
L 330.466909 34.52744 
L 337.143273 34.570591 
L 343.819636 34.712643 
L 350.496 34.758673 
L 357.172364 34.906692 
L 363.848727 35.101831 
L 370.525091 35.199781 
L 377.201455 35.403699 
L 383.877818 35.54857 
L 390.554182 35.716792 
L 397.230545 35.979199 
L 403.906909 33.302182 
L 410.583273 27.378181 
L 417.259636 21.715034 
L 423.936 18.765436 
L 430.612364 16.665997 
L 437.288727 15.168902 
L 443.965091 14.299319 
L 450.641455 13.71312 
L 457.317818 13.34185 
L 463.994182 13.129005 
L 470.670545 13.029988 
L 477.346909 13.010174 
L 484.023273 13.043111 
L 490.699636 13.108982 
L 497.376 13.193264 
L 504.052364 13.285603 
L 510.728727 13.377496 
L 517.405091 13.460448 
L 524.081455 13.548344 
L 530.757818 13.625974 
L 537.434182 13.69342 
L 544.110545 13.751117 
L 550.786909 13.799806 
L 557.463273 13.840394 
L 564.139636 13.87385 
L 570.816 13.901139 
" clip-path="url(#p31da51fd1a)" style="fill: none; stroke: #ff00ff; stroke-width: 0.75; stroke-linecap: square"/>
    </g>
    <g id="patch_12">
     <path d="M 56.736 33.048 
L 56.736 5.832 
" style="fill: none; stroke: #000000; stroke-width: 0.8; stroke-linejoin: miter; stroke-linecap: square"/>
    </g>
    <g id="patch_13">
     <path d="M 130.176 33.048 
L 130.176 5.832 
" style="fill: none; stroke: #000000; stroke-width: 0.8; stroke-linejoin: miter; stroke-linecap: square"/>
    </g>
    <g id="patch_14">
     <path d="M 56.736 33.048 
L 130.176 33.048 
" style="fill: none; stroke: #000000; stroke-width: 0.8; stroke-linejoin: miter; stroke-linecap: square"/>
    </g>
    <g id="patch_15">
     <path d="M 56.736 5.832 
L 130.176 5.832 
" style="fill: none; stroke: #000000; stroke-width: 0.8; stroke-linejoin: miter; stroke-linecap: square"/>
    </g>
   </g>
  </g>
  <g id="axes_3">
   <g id="patch_16">
    <path d="M 51.84 75.6 
L 541.44 75.6 
L 541.44 45.36 
L 51.84 45.36 
z
" style="fill: #ffffff"/>
   </g>
   <g id="patch_17">
    <path d="M 281.575385 67.536 
L 323.003077 67.536 
L 323.003077 57.456 
L 281.575385 57.456 
L 281.575385 67.536 
z
" clip-path="url(#p9b25892740)" style="fill: none; stroke: #000000; stroke-linejoin: miter"/>
   </g>
   <g id="patch_18">
    <path d="M 281.575385 67.536 
L 323.003077 67.536 
L 323.003077 57.456 
L 281.575385 57.456 
L 281.575385 67.536 
z
" clip-path="url(#p9b25892740)" style="fill: none; opacity: 0.8; stroke: #0000ff; stroke-linejoin: miter"/>
   </g>
   <g id="matplotlib.axis_5">
    <g id="xtick_8">
     <g id="line2d_27">
      <path d="M 51.84 75.6 
L 51.84 45.36 
" clip-path="url(#p9b25892740)" style="fill: none; stroke: #b0b0b0; stroke-width: 0.8; stroke-linecap: square"/>
     </g>
     <g id="line2d_28">
      <g>
       <use xlink:href="#mfd05a98a19" x="51.84" y="75.6" style="stroke: #000000; stroke-width: 0.8"/>
      </g>
     </g>
     <g id="text_13">
      <!-- −20 -->
      <g transform="translate(41.287656 90.198437) scale(0.1 -0.1)">
       <use xlink:href="#DejaVuSans-2212"/>
       <use xlink:href="#DejaVuSans-32" x="83.789062"/>
       <use xlink:href="#DejaVuSans-30" x="147.412109"/>
      </g>
     </g>
    </g>
    <g id="xtick_9">
     <g id="line2d_29">
      <path d="M 127.163077 75.6 
L 127.163077 45.36 
" clip-path="url(#p9b25892740)" style="fill: none; stroke: #b0b0b0; stroke-width: 0.8; stroke-linecap: square"/>
     </g>
     <g id="line2d_30">
      <g>
       <use xlink:href="#mfd05a98a19" x="127.163077" y="75.6" style="stroke: #000000; stroke-width: 0.8"/>
      </g>
     </g>
     <g id="text_14">
      <!-- 0 -->
      <g transform="translate(123.981827 90.198437) scale(0.1 -0.1)">
       <use xlink:href="#DejaVuSans-30"/>
      </g>
     </g>
    </g>
    <g id="xtick_10">
     <g id="line2d_31">
      <path d="M 202.486154 75.6 
L 202.486154 45.36 
" clip-path="url(#p9b25892740)" style="fill: none; stroke: #b0b0b0; stroke-width: 0.8; stroke-linecap: square"/>
     </g>
     <g id="line2d_32">
      <g>
       <use xlink:href="#mfd05a98a19" x="202.486154" y="75.6" style="stroke: #000000; stroke-width: 0.8"/>
      </g>
     </g>
     <g id="text_15">
      <!-- 20 -->
      <g transform="translate(196.123654 90.198437) scale(0.1 -0.1)">
       <use xlink:href="#DejaVuSans-32"/>
       <use xlink:href="#DejaVuSans-30" x="63.623047"/>
      </g>
     </g>
    </g>
    <g id="xtick_11">
     <g id="line2d_33">
      <path d="M 277.809231 75.6 
L 277.809231 45.36 
" clip-path="url(#p9b25892740)" style="fill: none; stroke: #b0b0b0; stroke-width: 0.8; stroke-linecap: square"/>
     </g>
     <g id="line2d_34">
      <g>
       <use xlink:href="#mfd05a98a19" x="277.809231" y="75.6" style="stroke: #000000; stroke-width: 0.8"/>
      </g>
     </g>
     <g id="text_16">
      <!-- 40 -->
      <g transform="translate(271.446731 90.198437) scale(0.1 -0.1)">
       <use xlink:href="#DejaVuSans-34"/>
       <use xlink:href="#DejaVuSans-30" x="63.623047"/>
      </g>
     </g>
    </g>
    <g id="xtick_12">
     <g id="line2d_35">
      <path d="M 353.132308 75.6 
L 353.132308 45.36 
" clip-path="url(#p9b25892740)" style="fill: none; stroke: #b0b0b0; stroke-width: 0.8; stroke-linecap: square"/>
     </g>
     <g id="line2d_36">
      <g>
       <use xlink:href="#mfd05a98a19" x="353.132308" y="75.6" style="stroke: #000000; stroke-width: 0.8"/>
      </g>
     </g>
     <g id="text_17">
      <!-- 60 -->
      <g transform="translate(346.769808 90.198437) scale(0.1 -0.1)">
       <use xlink:href="#DejaVuSans-36"/>
       <use xlink:href="#DejaVuSans-30" x="63.623047"/>
      </g>
     </g>
    </g>
    <g id="xtick_13">
     <g id="line2d_37">
      <path d="M 428.455385 75.6 
L 428.455385 45.36 
" clip-path="url(#p9b25892740)" style="fill: none; stroke: #b0b0b0; stroke-width: 0.8; stroke-linecap: square"/>
     </g>
     <g id="line2d_38">
      <g>
       <use xlink:href="#mfd05a98a19" x="428.455385" y="75.6" style="stroke: #000000; stroke-width: 0.8"/>
      </g>
     </g>
     <g id="text_18">
      <!-- 80 -->
      <g transform="translate(422.092885 90.198437) scale(0.1 -0.1)">
       <use xlink:href="#DejaVuSans-38"/>
       <use xlink:href="#DejaVuSans-30" x="63.623047"/>
      </g>
     </g>
    </g>
    <g id="xtick_14">
     <g id="line2d_39">
      <path d="M 503.778462 75.6 
L 503.778462 45.36 
" clip-path="url(#p9b25892740)" style="fill: none; stroke: #b0b0b0; stroke-width: 0.8; stroke-linecap: square"/>
     </g>
     <g id="line2d_40">
      <g>
       <use xlink:href="#mfd05a98a19" x="503.778462" y="75.6" style="stroke: #000000; stroke-width: 0.8"/>
      </g>
     </g>
     <g id="text_19">
      <!-- 100 -->
      <g transform="translate(494.234712 90.198437) scale(0.1 -0.1)">
       <use xlink:href="#DejaVuSans-31"/>
       <use xlink:href="#DejaVuSans-30" x="63.623047"/>
       <use xlink:href="#DejaVuSans-30" x="127.246094"/>
      </g>
     </g>
    </g>
    <g id="text_20">
     <!-- time[ms] -->
     <g transform="translate(273.967344 103.876562) scale(0.1 -0.1)">
      <defs>
       <path id="DejaVuSans-74" d="M 1172 4494 
L 1172 3500 
L 2356 3500 
L 2356 3053 
L 1172 3053 
L 1172 1153 
Q 1172 725 1289 603 
Q 1406 481 1766 481 
L 2356 481 
L 2356 0 
L 1766 0 
Q 1100 0 847 248 
Q 594 497 594 1153 
L 594 3053 
L 172 3053 
L 172 3500 
L 594 3500 
L 594 4494 
L 1172 4494 
z
" transform="scale(0.015625)"/>
       <path id="DejaVuSans-69" d="M 603 3500 
L 1178 3500 
L 1178 0 
L 603 0 
L 603 3500 
z
M 603 4863 
L 1178 4863 
L 1178 4134 
L 603 4134 
L 603 4863 
z
" transform="scale(0.015625)"/>
       <path id="DejaVuSans-6d" d="M 3328 2828 
Q 3544 3216 3844 3400 
Q 4144 3584 4550 3584 
Q 5097 3584 5394 3201 
Q 5691 2819 5691 2113 
L 5691 0 
L 5113 0 
L 5113 2094 
Q 5113 2597 4934 2840 
Q 4756 3084 4391 3084 
Q 3944 3084 3684 2787 
Q 3425 2491 3425 1978 
L 3425 0 
L 2847 0 
L 2847 2094 
Q 2847 2600 2669 2842 
Q 2491 3084 2119 3084 
Q 1678 3084 1418 2786 
Q 1159 2488 1159 1978 
L 1159 0 
L 581 0 
L 581 3500 
L 1159 3500 
L 1159 2956 
Q 1356 3278 1631 3431 
Q 1906 3584 2284 3584 
Q 2666 3584 2933 3390 
Q 3200 3197 3328 2828 
z
" transform="scale(0.015625)"/>
      </defs>
      <use xlink:href="#DejaVuSans-74"/>
      <use xlink:href="#DejaVuSans-69" x="39.208984"/>
      <use xlink:href="#DejaVuSans-6d" x="66.992188"/>
      <use xlink:href="#DejaVuSans-65" x="164.404297"/>
      <use xlink:href="#DejaVuSans-5b" x="225.927734"/>
      <use xlink:href="#DejaVuSans-6d" x="264.941406"/>
      <use xlink:href="#DejaVuSans-73" x="362.353516"/>
      <use xlink:href="#DejaVuSans-5d" x="414.453125"/>
     </g>
    </g>
   </g>
   <g id="matplotlib.axis_6">
    <g id="ytick_4">
     <g id="line2d_41">
      <path d="M 51.84 70.56 
L 541.44 70.56 
" clip-path="url(#p9b25892740)" style="fill: none; stroke: #b0b0b0; stroke-width: 0.8; stroke-linecap: square"/>
     </g>
     <g id="line2d_42">
      <g>
       <use xlink:href="#me405787a62" x="51.84" y="70.56" style="stroke: #000000; stroke-width: 0.8"/>
      </g>
     </g>
     <g id="text_21">
      <!-- −0.1 -->
      <g transform="translate(20.557187 74.359219) scale(0.1 -0.1)">
       <use xlink:href="#DejaVuSans-2212"/>
       <use xlink:href="#DejaVuSans-30" x="83.789062"/>
       <use xlink:href="#DejaVuSans-2e" x="147.412109"/>
       <use xlink:href="#DejaVuSans-31" x="179.199219"/>
      </g>
     </g>
    </g>
    <g id="ytick_5">
     <g id="line2d_43">
      <path d="M 51.84 60.48 
L 541.44 60.48 
" clip-path="url(#p9b25892740)" style="fill: none; stroke: #b0b0b0; stroke-width: 0.8; stroke-linecap: square"/>
     </g>
     <g id="line2d_44">
      <g>
       <use xlink:href="#me405787a62" x="51.84" y="60.48" style="stroke: #000000; stroke-width: 0.8"/>
      </g>
     </g>
     <g id="text_22">
      <!-- 0.0 -->
      <g transform="translate(28.936875 64.279219) scale(0.1 -0.1)">
       <use xlink:href="#DejaVuSans-30"/>
       <use xlink:href="#DejaVuSans-2e" x="63.623047"/>
       <use xlink:href="#DejaVuSans-30" x="95.410156"/>
      </g>
     </g>
    </g>
    <g id="ytick_6">
     <g id="line2d_45">
      <path d="M 51.84 50.4 
L 541.44 50.4 
" clip-path="url(#p9b25892740)" style="fill: none; stroke: #b0b0b0; stroke-width: 0.8; stroke-linecap: square"/>
     </g>
     <g id="line2d_46">
      <g>
       <use xlink:href="#me405787a62" x="51.84" y="50.4" style="stroke: #000000; stroke-width: 0.8"/>
      </g>
     </g>
     <g id="text_23">
      <!-- 0.1 -->
      <g transform="translate(28.936875 54.199219) scale(0.1 -0.1)">
       <use xlink:href="#DejaVuSans-30"/>
       <use xlink:href="#DejaVuSans-2e" x="63.623047"/>
       <use xlink:href="#DejaVuSans-31" x="95.410156"/>
      </g>
     </g>
    </g>
    <g id="text_24">
     <!-- $\Delta\phi$[$rad/100ms$] -->
     <g transform="translate(14.457187 98.13) rotate(-90) scale(0.1 -0.1)">
      <use xlink:href="#DejaVuSans-394" transform="translate(0 0.015625)"/>
      <use xlink:href="#DejaVuSans-Oblique-3d5" transform="translate(68.408203 0.015625)"/>
      <use xlink:href="#DejaVuSans-5b" transform="translate(134.375 0.015625)"/>
      <use xlink:href="#DejaVuSans-Oblique-72" transform="translate(173.388672 0.015625)"/>
      <use xlink:href="#DejaVuSans-Oblique-61" transform="translate(214.501953 0.015625)"/>
      <use xlink:href="#DejaVuSans-Oblique-64" transform="translate(275.78125 0.015625)"/>
      <use xlink:href="#DejaVuSans-2f" transform="translate(339.257812 0.015625)"/>
      <use xlink:href="#DejaVuSans-31" transform="translate(372.949219 0.015625)"/>
      <use xlink:href="#DejaVuSans-30" transform="translate(436.572266 0.015625)"/>
      <use xlink:href="#DejaVuSans-30" transform="translate(500.195312 0.015625)"/>
      <use xlink:href="#DejaVuSans-Oblique-6d" transform="translate(563.818359 0.015625)"/>
      <use xlink:href="#DejaVuSans-Oblique-73" transform="translate(661.230469 0.015625)"/>
      <use xlink:href="#DejaVuSans-5d" transform="translate(713.330078 0.015625)"/>
     </g>
    </g>
   </g>
   <g id="line2d_47">
    <path d="M 127.163077 62.092425 
L 130.929231 59.735346 
L 134.695385 62.333847 
L 138.461538 63.052524 
L 142.227692 61.351132 
L 145.993846 61.493707 
L 149.76 61.161342 
L 153.526154 61.23467 
L 157.292308 61.12661 
L 161.058462 61.398787 
L 164.824615 61.099457 
L 168.590769 61.428429 
L 172.356923 60.618473 
L 176.123077 60.897776 
L 179.889231 59.90814 
L 183.655385 60.192384 
L 187.421538 59.024288 
L 191.187692 59.259927 
L 194.953846 57.931557 
L 198.72 58.058088 
L 202.486154 56.607815 
L 206.252308 56.573973 
L 210.018462 55.140812 
L 213.784615 54.940329 
L 217.550769 53.098912 
L 221.316923 52.363968 
L 225.083077 51.928171 
L 228.849231 52.801518 
L 232.615385 51.593955 
L 236.381538 50.307227 
L 240.147692 50.318942 
L 243.913846 50.325002 
L 247.68 50.330153 
L 251.446154 50.337649 
L 255.212308 50.350667 
L 258.978462 50.36728 
L 262.744615 50.390344 
L 266.510769 50.420315 
L 270.276923 54.605965 
L 274.043077 57.331007 
L 277.809231 59.151868 
L 281.575385 60.236954 
L 285.341538 60.79235 
L 289.107692 60.686267 
L 292.873846 60.243858 
L 296.64 60.148918 
L 300.406154 59.685387 
L 304.172308 59.767246 
L 307.938462 60.140492 
L 311.704615 60.409939 
L 315.470769 60.647598 
L 319.236923 60.742722 
L 323.003077 60.786858 
L 326.769231 60.72446 
L 330.535385 60.330793 
L 334.301538 60.155972 
L 338.067692 59.478712 
L 341.833846 59.220868 
L 345.6 59.514901 
L 349.366154 59.94487 
L 353.132308 60.266698 
L 356.898462 60.498097 
L 360.664615 60.659674 
L 364.430769 60.767556 
L 368.196923 60.834536 
L 371.963077 60.870794 
L 375.729231 60.884392 
L 379.495385 60.881677 
L 383.261538 60.867595 
L 387.027692 60.84596 
L 390.793846 60.819678 
L 394.56 60.790926 
L 398.326154 60.761309 
L 402.092308 60.73198 
L 405.858462 60.703739 
L 409.624615 60.677115 
L 413.390769 60.652434 
L 417.156923 60.629864 
L 420.923077 60.60946 
L 424.689231 60.591198 
L 428.455385 60.574992 
L 432.221538 60.560724 
L 435.987692 60.54825 
L 439.753846 60.537415 
L 443.52 60.52806 
L 447.286154 60.520029 
L 451.052308 60.513172 
L 454.818462 60.507348 
L 458.584615 60.502427 
L 462.350769 60.498289 
L 466.116923 60.494828 
L 469.883077 60.491946 
L 473.649231 60.489559 
L 477.415385 60.487593 
L 481.181538 60.485981 
L 484.947692 60.484667 
L 488.713846 60.483603 
L 492.48 60.482746 
L 496.246154 60.482061 
L 500.012308 60.481517 
L 503.778462 60.481089 
L 507.544615 60.480755 
L 511.310769 60.480498 
L 515.076923 60.480302 
L 518.843077 60.480155 
L 522.609231 60.480047 
L 526.375385 60.47997 
L 530.141538 60.479916 
L 533.907692 60.479881 
L 537.673846 60.47986 
L 541.44 60.47985 
L 545.206154 60.479847 
L 548.972308 60.479849 
L 552.738462 60.479856 
L 556.504615 60.479864 
L 560.270769 60.479875 
L 564.036923 60.479886 
L 567.803077 60.479897 
L 571.569231 60.479908 
" clip-path="url(#p9b25892740)" style="fill: none; stroke: #00008b; stroke-width: 0.75; stroke-linecap: square"/>
   </g>
   <g id="line2d_48">
    <path d="M 127.163077 60.48 
L 130.929231 60.48 
L 134.695385 60.48 
L 138.461538 60.48 
L 142.227692 60.48 
L 145.993846 60.48 
L 149.76 60.48 
L 153.526154 60.48 
L 157.292308 60.48 
L 161.058462 60.406939 
L 164.824615 60.427362 
L 168.590769 60.443925 
L 172.356923 60.476459 
L 176.123077 60.519681 
L 179.889231 60.542915 
L 183.655385 60.565464 
L 187.421538 60.584913 
L 191.187692 60.587542 
L 194.953846 60.594174 
L 198.72 60.594499 
L 202.486154 60.607172 
L 206.252308 60.627091 
L 210.018462 60.489383 
L 213.784615 60.457171 
L 217.550769 60.290125 
L 221.316923 60.300132 
L 225.083077 60.327519 
L 228.849231 60.559991 
L 232.615385 60.86178 
L 236.381538 61.124912 
L 240.147692 61.285074 
L 243.913846 61.32588 
L 247.68 61.185952 
L 251.446154 61.250008 
L 255.212308 61.261282 
L 258.978462 61.238254 
L 262.744615 60.25222 
L 266.510769 60.634618 
L 270.276923 60.809805 
L 274.043077 61.042058 
L 277.809231 61.162034 
L 281.575385 61.285559 
L 285.341538 61.509624 
L 289.107692 61.63905 
L 292.873846 61.703703 
L 296.64 61.648837 
L 300.406154 61.73843 
L 304.172308 61.473428 
L 307.938462 61.390835 
L 311.704615 60.94845 
L 315.470769 60.695827 
L 319.236923 60.160902 
L 323.003077 59.017147 
L 326.769231 56.762381 
L 330.535385 54.66188 
L 334.301538 52.669066 
L 338.067692 51.89598 
L 341.833846 53.330772 
L 345.6 55.833538 
L 349.366154 58.997738 
L 353.132308 61.951827 
L 356.898462 63.665895 
L 360.664615 64.457706 
L 364.430769 64.431329 
L 368.196923 63.844221 
L 371.963077 63.063385 
L 375.729231 62.352964 
L 379.495385 61.300265 
L 383.261538 60.908182 
L 387.027692 60.079159 
L 390.793846 59.554939 
L 394.56 59.696659 
L 398.326154 59.872133 
L 402.092308 60.194397 
L 405.858462 60.431454 
L 409.624615 60.602837 
L 413.390769 60.723179 
L 417.156923 60.803801 
L 420.923077 60.853637 
L 424.689231 60.879812 
L 428.455385 60.888042 
L 432.221538 60.882922 
L 435.987692 60.86814 
L 439.753846 60.846649 
L 443.52 60.820797 
L 447.286154 60.792433 
L 451.052308 60.76299 
L 454.818462 60.733564 
L 458.584615 60.704965 
L 462.350769 60.677773 
L 466.116923 60.652378 
L 469.883077 60.62902 
L 473.649231 60.607818 
L 477.415385 60.588797 
L 481.181538 60.571914 
L 484.947692 60.557074 
L 488.713846 60.544149 
L 492.48 60.532987 
L 496.246154 60.523427 
L 500.012308 60.515302 
L 503.778462 60.50845 
L 507.544615 60.502716 
L 511.310769 60.497952 
L 515.076923 60.494025 
L 518.843077 60.490813 
L 522.609231 60.488207 
L 526.375385 60.486111 
L 530.141538 60.48444 
L 533.907692 60.483121 
L 537.673846 60.482093 
L 541.44 60.481301 
L 545.206154 60.480701 
L 548.972308 60.480254 
L 552.738462 60.47993 
L 556.504615 60.479702 
L 560.270769 60.479549 
L 564.036923 60.479454 
L 567.803077 60.479403 
L 571.569231 60.479384 
" clip-path="url(#p9b25892740)" style="fill: none; stroke: #800000; stroke-width: 0.75; stroke-linecap: square"/>
   </g>
   <g id="line2d_49">
    <path d="M 127.163077 60.48 
L 130.929231 60.48 
L 134.695385 60.48 
L 138.461538 60.48 
L 142.227692 60.48 
L 145.993846 60.48 
L 149.76 60.48 
L 153.526154 60.48 
L 157.292308 60.48 
L 161.058462 60.48 
L 164.824615 60.48 
L 168.590769 60.48 
L 172.356923 60.48 
L 176.123077 60.48 
L 179.889231 60.48 
L 183.655385 60.48 
L 187.421538 60.48 
L 191.187692 60.48 
L 194.953846 60.48 
L 198.72 60.48 
L 202.486154 60.48 
L 206.252308 60.48 
L 210.018462 60.438611 
L 213.784615 60.338364 
L 217.550769 60.36779 
L 221.316923 60.372784 
L 225.083077 60.461494 
L 228.849231 60.511532 
L 232.615385 60.552987 
L 236.381538 60.584799 
L 240.147692 60.618484 
L 243.913846 60.654672 
L 247.68 60.675717 
L 251.446154 60.699637 
L 255.212308 60.704073 
L 258.978462 60.718096 
L 262.744615 60.712763 
L 266.510769 60.721535 
L 270.276923 60.715369 
L 274.043077 60.722271 
L 277.809231 60.71362 
L 281.575385 60.720391 
L 285.341538 60.72682 
L 289.107692 60.708493 
L 292.873846 60.674841 
L 296.64 60.715606 
L 300.406154 60.722027 
L 304.172308 60.666202 
L 307.938462 60.594106 
L 311.704615 60.51297 
L 315.470769 60.394135 
L 319.236923 60.321903 
L 323.003077 60.238235 
L 326.769231 60.14203 
L 330.535385 59.855938 
L 334.301538 59.540505 
L 338.067692 59.247912 
L 341.833846 58.804796 
L 345.6 59.001933 
L 349.366154 59.241056 
L 353.132308 59.645663 
L 356.898462 59.960642 
L 360.664615 60.215544 
L 364.430769 60.55436 
L 368.196923 60.829604 
L 371.963077 61.123949 
L 375.729231 61.392947 
L 379.495385 61.674403 
L 383.261538 61.953085 
L 387.027692 62.293656 
L 390.793846 62.648239 
L 394.56 63.058964 
L 398.326154 63.469527 
L 402.092308 63.944636 
L 405.858462 64.481597 
L 409.624615 65.112746 
L 413.390769 65.787268 
L 417.156923 66.50505 
L 420.923077 67.163393 
L 424.689231 67.770218 
L 428.455385 68.020009 
L 432.221538 67.991089 
L 435.987692 67.967898 
L 439.753846 67.951498 
L 443.52 67.942679 
L 447.286154 67.941823 
L 451.052308 67.948914 
L 454.818462 67.96317 
L 458.584615 67.983588 
L 462.350769 68.009117 
L 466.116923 67.775177 
L 469.883077 66.082904 
L 473.649231 65.045653 
L 477.415385 64.278527 
L 481.181538 63.666029 
L 484.947692 63.157574 
L 488.713846 62.726461 
L 492.48 62.356802 
L 496.246154 62.038237 
L 500.012308 61.763458 
L 503.778462 61.526926 
L 507.544615 61.32417 
L 511.310769 61.15138 
L 515.076923 61.005184 
L 518.843077 60.882519 
L 522.609231 60.780567 
L 526.375385 60.696724 
L 530.141538 60.628587 
L 533.907692 60.573956 
L 537.673846 60.530831 
L 541.44 60.49741 
L 545.206154 60.472091 
L 548.972308 60.453461 
L 552.738462 60.440286 
L 556.504615 60.431505 
L 560.270769 60.42621 
L 564.036923 60.423635 
L 567.803077 60.423139 
L 571.569231 60.424194 
" clip-path="url(#p9b25892740)" style="fill: none; stroke: #006400; stroke-width: 0.75; stroke-linecap: square"/>
   </g>
   <g id="patch_19">
    <path d="M 51.84 75.6 
L 51.84 45.36 
" style="fill: none; stroke: #000000; stroke-width: 0.8; stroke-linejoin: miter; stroke-linecap: square"/>
   </g>
   <g id="patch_20">
    <path d="M 541.44 75.6 
L 541.44 45.36 
" style="fill: none; stroke: #000000; stroke-width: 0.8; stroke-linejoin: miter; stroke-linecap: square"/>
   </g>
   <g id="patch_21">
    <path d="M 51.84 75.6 
L 541.44 75.6 
" style="fill: none; stroke: #000000; stroke-width: 0.8; stroke-linejoin: miter; stroke-linecap: square"/>
   </g>
   <g id="patch_22">
    <path d="M 51.84 45.36 
L 541.44 45.36 
" style="fill: none; stroke: #000000; stroke-width: 0.8; stroke-linejoin: miter; stroke-linecap: square"/>
   </g>
   <g id="text_25">
    <!-- IPOPT -->
    <g transform="translate(553.991375 71.998531) rotate(-90) scale(0.1 -0.1)">
     <defs>
      <path id="DejaVuSans-49" d="M 628 4666 
L 1259 4666 
L 1259 0 
L 628 0 
L 628 4666 
z
" transform="scale(0.015625)"/>
      <path id="DejaVuSans-50" d="M 1259 4147 
L 1259 2394 
L 2053 2394 
Q 2494 2394 2734 2622 
Q 2975 2850 2975 3272 
Q 2975 3691 2734 3919 
Q 2494 4147 2053 4147 
L 1259 4147 
z
M 628 4666 
L 2053 4666 
Q 2838 4666 3239 4311 
Q 3641 3956 3641 3272 
Q 3641 2581 3239 2228 
Q 2838 1875 2053 1875 
L 1259 1875 
L 1259 0 
L 628 0 
L 628 4666 
z
" transform="scale(0.015625)"/>
      <path id="DejaVuSans-4f" d="M 2522 4238 
Q 1834 4238 1429 3725 
Q 1025 3213 1025 2328 
Q 1025 1447 1429 934 
Q 1834 422 2522 422 
Q 3209 422 3611 934 
Q 4013 1447 4013 2328 
Q 4013 3213 3611 3725 
Q 3209 4238 2522 4238 
z
M 2522 4750 
Q 3503 4750 4090 4092 
Q 4678 3434 4678 2328 
Q 4678 1225 4090 567 
Q 3503 -91 2522 -91 
Q 1538 -91 948 565 
Q 359 1222 359 2328 
Q 359 3434 948 4092 
Q 1538 4750 2522 4750 
z
" transform="scale(0.015625)"/>
      <path id="DejaVuSans-54" d="M -19 4666 
L 3928 4666 
L 3928 4134 
L 2272 4134 
L 2272 0 
L 1638 0 
L 1638 4134 
L -19 4134 
L -19 4666 
z
" transform="scale(0.015625)"/>
     </defs>
     <use xlink:href="#DejaVuSans-49"/>
     <use xlink:href="#DejaVuSans-50" x="29.492188"/>
     <use xlink:href="#DejaVuSans-4f" x="89.794922"/>
     <use xlink:href="#DejaVuSans-50" x="168.505859"/>
     <use xlink:href="#DejaVuSans-54" x="228.808594"/>
    </g>
   </g>
   <g id="axes_4">
    <g id="patch_23">
     <path d="M 56.736 74.088 
L 130.176 74.088 
L 130.176 46.872 
L 56.736 46.872 
z
" style="fill: #ffffff"/>
    </g>
    <g id="patch_24">
     <path d="M 130.176 74.088 
L 323.003077 67.536 
" style="fill: none; stroke: #000000; stroke-linejoin: miter"/>
    </g>
    <g id="patch_25">
     <path d="M 130.176 46.872 
L 323.003077 57.456 
" style="fill: none; stroke: #000000; stroke-linejoin: miter"/>
    </g>
    <g id="matplotlib.axis_7"/>
    <g id="matplotlib.axis_8"/>
    <g id="line2d_50">
     <path d="M -1 27.639341 
L 3.325091 27.652451 
L 10.001455 27.687601 
L 16.677818 27.732457 
L 23.354182 27.794729 
L 30.030545 27.87565 
L 36.706909 39.176906 
L 43.383273 46.534518 
L 50.059636 51.450843 
L 56.736 54.380575 
L 63.412364 55.880146 
L 70.088727 55.593722 
L 76.765091 54.399217 
L 83.441455 54.142879 
L 90.117818 52.891344 
L 96.794182 53.112363 
L 103.470545 54.120127 
L 110.146909 54.847635 
L 116.823273 55.489316 
L 123.499636 55.74615 
L 130.176 55.865316 
L 136.852364 55.696843 
L 143.528727 54.63394 
L 150.205091 54.161925 
L 156.881455 52.333323 
L 163.557818 51.637144 
L 170.234182 52.431034 
L 176.910545 53.59195 
L 183.586909 54.460885 
L 190.263273 55.085663 
L 196.939636 55.521921 
L 203.616 55.8132 
L 210.292364 55.994048 
L 216.968727 56.091943 
L 223.645091 56.128659 
L 230.321455 56.121328 
L 236.997818 56.083306 
L 243.674182 56.024892 
L 250.350545 55.953929 
L 257.026909 55.8763 
L 263.703273 55.796336 
L 270.379636 55.717146 
L 277.056 55.640894 
L 283.732364 55.569011 
L 290.408727 55.502371 
L 297.085091 55.441432 
L 303.761455 55.386343 
L 310.437818 55.337033 
L 317.114182 55.293279 
L 323.790545 55.254756 
L 330.466909 55.221075 
L 337.143273 55.19182 
L 343.819636 55.166561 
L 350.496 55.144878 
L 357.172364 55.126364 
L 363.848727 55.11064 
L 370.525091 55.097353 
L 377.201455 55.086181 
L 383.877818 55.076834 
L 390.554182 55.069054 
L 397.230545 55.06261 
L 403.906909 55.0573 
L 410.583273 55.052948 
L 417.259636 55.049401 
L 423.936 55.046528 
L 430.612364 55.044214 
L 437.288727 55.042364 
L 443.965091 55.040895 
L 450.641455 55.03974 
L 457.317818 55.038838 
L 463.994182 55.038143 
L 470.670545 55.037614 
L 477.346909 55.037218 
L 484.023273 55.036927 
L 490.699636 55.036718 
L 497.376 55.036574 
L 504.052364 55.036479 
L 510.728727 55.036423 
L 517.405091 55.036394 
L 524.081455 55.036386 
L 530.757818 55.036393 
L 537.434182 55.03641 
L 544.110545 55.036434 
L 550.786909 55.036462 
L 557.463273 55.036491 
L 564.139636 55.036521 
L 570.816 55.036551 
" clip-path="url(#p48b58a38e0)" style="fill: none; stroke: #4b0082; stroke-width: 0.75; stroke-linecap: square"/>
    </g>
    <g id="line2d_51">
     <path d="M -1 57.003781 
L 3.325091 57.115822 
L 10.001455 57.146262 
L 16.677818 57.084086 
L 23.354182 54.421794 
L 30.030545 55.454268 
L 36.706909 55.927274 
L 43.383273 56.554357 
L 50.059636 56.878292 
L 56.736 57.21181 
L 63.412364 57.816786 
L 70.088727 58.166235 
L 76.765091 58.340798 
L 83.441455 58.192659 
L 90.117818 58.434562 
L 96.794182 57.719054 
L 103.470545 57.496056 
L 110.146909 56.301616 
L 116.823273 55.619532 
L 123.499636 54.175235 
L 130.176 51.087098 
L 136.852364 44.99923 
L 143.528727 39.327875 
L 150.205091 33.947278 
L 156.881455 31.859945 
L 163.557818 35.733885 
L 170.234182 42.491353 
L 176.910545 51.034693 
L 183.586909 59.010733 
L 190.263273 63.638717 
L 196.939636 65.776606 
L 203.616 65.705388 
L 210.292364 64.120197 
L 216.968727 62.011939 
L 223.645091 60.093802 
L 230.321455 57.251517 
L 236.997818 56.19289 
L 243.674182 53.954529 
L 250.350545 52.539135 
L 257.026909 52.92178 
L 263.703273 53.39556 
L 270.379636 54.265671 
L 277.056 54.905726 
L 283.732364 55.36846 
L 290.408727 55.693382 
L 297.085091 55.911063 
L 303.761455 56.045621 
L 310.437818 56.116294 
L 317.114182 56.138515 
L 323.790545 56.124688 
L 330.466909 56.084777 
L 337.143273 56.026753 
L 343.819636 55.956953 
L 350.496 55.880368 
L 357.172364 55.800874 
L 363.848727 55.721423 
L 370.525091 55.644206 
L 377.201455 55.570787 
L 383.877818 55.502221 
L 390.554182 55.439155 
L 397.230545 55.381908 
L 403.906909 55.330552 
L 410.583273 55.284968 
L 417.259636 55.244901 
L 423.936 55.210002 
L 430.612364 55.179865 
L 437.288727 55.154052 
L 443.965091 55.132115 
L 450.641455 55.113616 
L 457.317818 55.098133 
L 463.994182 55.085271 
L 470.670545 55.074669 
L 477.346909 55.065996 
L 484.023273 55.05896 
L 490.699636 55.053299 
L 497.376 55.048788 
L 504.052364 55.045228 
L 510.728727 55.042451 
L 517.405091 55.040313 
L 524.081455 55.038692 
L 530.757818 55.037487 
L 537.434182 55.036611 
L 544.110545 55.035996 
L 550.786909 55.035583 
L 557.463273 55.035327 
L 564.139636 55.035188 
L 570.816 55.035136 
" clip-path="url(#p48b58a38e0)" style="fill: none; stroke: #0000ff; stroke-width: 0.75; stroke-linecap: square"/>
    </g>
    <g id="line2d_52">
     <path d="M -1 55.587981 
L 3.325091 55.629821 
L 10.001455 55.641798 
L 16.677818 55.679659 
L 23.354182 55.665261 
L 30.030545 55.688944 
L 36.706909 55.672297 
L 43.383273 55.690931 
L 50.059636 55.667574 
L 56.736 55.685854 
L 63.412364 55.703214 
L 70.088727 55.653731 
L 76.765091 55.562871 
L 83.441455 55.672935 
L 90.117818 55.690274 
L 96.794182 55.539546 
L 103.470545 55.344887 
L 110.146909 55.12582 
L 116.823273 54.804966 
L 123.499636 54.609939 
L 130.176 54.384034 
L 136.852364 54.124281 
L 143.528727 53.351833 
L 150.205091 52.500162 
L 156.881455 51.710161 
L 163.557818 50.513749 
L 170.234182 51.046018 
L 176.910545 51.69165 
L 183.586909 52.78409 
L 190.263273 53.634534 
L 196.939636 54.322768 
L 203.616 55.237573 
L 210.292364 55.98073 
L 216.968727 56.775461 
L 223.645091 57.501758 
L 230.321455 58.261689 
L 236.997818 59.014128 
L 243.674182 59.93367 
L 250.350545 60.891044 
L 257.026909 62.000002 
L 263.703273 63.108524 
L 270.379636 64.391318 
L 277.056 65.841111 
L 283.732364 67.545215 
L 290.408727 69.366423 
L 297.085091 71.304436 
L 303.761455 73.08196 
L 310.437818 74.720389 
L 317.114182 75.394824 
L 323.790545 75.31674 
L 330.466909 75.254126 
L 337.143273 75.209845 
L 343.819636 75.186034 
L 350.496 75.183722 
L 357.172364 75.202867 
L 363.848727 75.241359 
L 370.525091 75.296487 
L 377.201455 75.365416 
L 383.877818 74.733778 
L 390.554182 70.16464 
L 397.230545 67.364062 
L 403.906909 65.292824 
L 410.583273 63.639079 
L 417.259636 62.266249 
L 423.936 61.102245 
L 430.612364 60.104166 
L 437.288727 59.24404 
L 443.965091 58.502136 
L 450.641455 57.863501 
L 457.317818 57.316059 
L 463.994182 56.849526 
L 470.670545 56.454797 
L 477.346909 56.123602 
L 484.023273 55.848331 
L 490.699636 55.621954 
L 497.376 55.437985 
L 504.052364 55.290482 
L 510.728727 55.174043 
L 517.405091 55.083808 
L 524.081455 55.015446 
L 530.757818 54.965144 
L 537.434182 54.929573 
L 544.110545 54.905864 
L 550.786909 54.891568 
L 557.463273 54.884615 
L 564.139636 54.883276 
L 570.816 54.886124 
" clip-path="url(#p48b58a38e0)" style="fill: none; stroke: #ff0000; stroke-width: 0.75; stroke-linecap: square"/>
    </g>
    <g id="patch_26">
     <path d="M 56.736 74.088 
L 56.736 46.872 
" style="fill: none; stroke: #000000; stroke-width: 0.8; stroke-linejoin: miter; stroke-linecap: square"/>
    </g>
    <g id="patch_27">
     <path d="M 130.176 74.088 
L 130.176 46.872 
" style="fill: none; stroke: #000000; stroke-width: 0.8; stroke-linejoin: miter; stroke-linecap: square"/>
    </g>
    <g id="patch_28">
     <path d="M 56.736 74.088 
L 130.176 74.088 
" style="fill: none; stroke: #000000; stroke-width: 0.8; stroke-linejoin: miter; stroke-linecap: square"/>
    </g>
    <g id="patch_29">
     <path d="M 56.736 46.872 
L 130.176 46.872 
" style="fill: none; stroke: #000000; stroke-width: 0.8; stroke-linejoin: miter; stroke-linecap: square"/>
    </g>
   </g>
  </g>
 </g>
 <defs>
  <clipPath id="pbb87b05c43">
   <rect x="51.84" y="4.32" width="489.6" height="30.24"/>
  </clipPath>
  <clipPath id="p31da51fd1a">
   <rect x="56.736" y="5.832" width="73.44" height="27.216"/>
  </clipPath>
  <clipPath id="p9b25892740">
   <rect x="51.84" y="45.36" width="489.6" height="30.24"/>
  </clipPath>
  <clipPath id="p48b58a38e0">
   <rect x="56.736" y="46.872" width="73.44" height="27.216"/>
  </clipPath>
 </defs>
</svg>
