<?xml version="1.0" encoding="utf-8" standalone="no"?>
<!DOCTYPE svg PUBLIC "-//W3C//DTD SVG 1.1//EN"
  "http://www.w3.org/Graphics/SVG/1.1/DTD/svg11.dtd">
<svg xmlns:xlink="http://www.w3.org/1999/xlink" width="460.8pt" height="345.6pt" viewBox="0 0 460.8 345.6" xmlns="http://www.w3.org/2000/svg" version="1.1">
 <metadata>
  <rdf:RDF xmlns:dc="http://purl.org/dc/elements/1.1/" xmlns:cc="http://creativecommons.org/ns#" xmlns:rdf="http://www.w3.org/1999/02/22-rdf-syntax-ns#">
   <cc:Work>
    <dc:type rdf:resource="http://purl.org/dc/dcmitype/StillImage"/>
    <dc:date>2024-01-23T11:21:43.681779</dc:date>
    <dc:format>image/svg+xml</dc:format>
    <dc:creator>
     <cc:Agent>
      <dc:title>Matplotlib v3.8.2, https://matplotlib.org/</dc:title>
     </cc:Agent>
    </dc:creator>
   </cc:Work>
  </rdf:RDF>
 </metadata>
 <defs>
  <style type="text/css">*{stroke-linejoin: round; stroke-linecap: butt}</style>
 </defs>
 <g id="figure_1">
  <g id="patch_1">
   <path d="M 0 345.6 
L 460.8 345.6 
L 460.8 0 
L 0 0 
z
" style="fill: #ffffff"/>
  </g>
  <g id="axes_1">
   <g id="patch_2">
    <path d="M 103.104 307.584 
L 369.216 307.584 
L 369.216 41.472 
L 103.104 41.472 
z
" style="fill: #ffffff"/>
   </g>
   <g id="patch_3">
    <path d="M 568.8 -158.112 
L 557.1576 -158.112 
L 557.1576 -152.45712 
L 568.8 -152.45712 
z
" clip-path="url(#pe2b8671ba0)" style="fill: #00008b"/>
   </g>
   <g id="patch_4">
    <path d="M 568.8 -158.112 
L 568.800001 -169.7544 
L 563.145121 -169.7544 
L 563.14512 -158.112 
z
" clip-path="url(#pe2b8671ba0)" style="fill: #800000"/>
   </g>
   <g id="patch_5">
    <path d="M 568.8 -158.112 
L 568.8 -146.4696 
L 574.45488 -146.4696 
L 574.45488 -158.112 
z
" clip-path="url(#pe2b8671ba0)" style="fill: #006400"/>
   </g>
   <g id="patch_6">
    <path d="M 568.8 -158.112 
L 580.4424 -158.112 
L 580.4424 -163.76688 
L 568.8 -163.76688 
z
" clip-path="url(#pe2b8671ba0)" style="fill: #4b0082"/>
   </g>
   <g id="patch_7">
    <path d="M 568.8 -158.112 
L 568.800006 -169.7544 
L 563.145126 -169.754403 
L 563.14512 -158.112003 
z
" clip-path="url(#pe2b8671ba0)" style="fill: #0000ff"/>
   </g>
   <g id="patch_8">
    <path d="M 568.8 -158.112 
L 557.1576 -158.112024 
L 557.157588 -152.457144 
L 568.799988 -152.45712 
z
" clip-path="url(#pe2b8671ba0)" style="fill: #ff0000"/>
   </g>
   <g id="patch_9">
    <path d="M 568.8 -158.112 
L 580.4424 -158.112015 
L 580.442393 -163.766895 
L 568.799993 -163.76688 
z
" clip-path="url(#pe2b8671ba0)" style="fill: #dbdc56"/>
   </g>
   <g id="patch_10">
    <path d="M 568.8 -158.112 
L 568.806285 -169.754398 
L 563.151406 -169.757451 
L 563.145121 -158.115053 
z
" clip-path="url(#pe2b8671ba0)" style="fill: #9400d3"/>
   </g>
   <g id="patch_11">
    <path d="M 568.8 -158.112 
L 580.442399 -158.108043 
L 580.444321 -163.762923 
L 568.801922 -163.76688 
z
" clip-path="url(#pe2b8671ba0)" style="fill: #1e90ff"/>
   </g>
   <g id="patch_12">
    <path d="M 568.8 -158.112 
L 568.799999 -146.4696 
L 574.454879 -146.4696 
L 574.45488 -158.112 
z
" clip-path="url(#pe2b8671ba0)" style="fill: #ff4500"/>
   </g>
   <g id="patch_13">
    <path d="M 568.8 -158.112 
L 557.157601 -158.116033 
L 557.155642 -152.461153 
L 568.798041 -152.45712 
z
" clip-path="url(#pe2b8671ba0)" style="fill: #7cfc00"/>
   </g>
   <g id="patch_14">
    <path d="M 568.8 -158.112 
L 568.79903 -146.4696 
L 574.45391 -146.469129 
L 574.45488 -158.111529 
z
" clip-path="url(#pe2b8671ba0)" style="fill: #ff00ff"/>
   </g>
   <g id="matplotlib.axis_1">
    <g id="xtick_1">
     <g id="line2d_1">
      <defs>
       <path id="mb4b6b88e97" d="M 0 0 
L 0 3.5 
" style="stroke: #000000; stroke-width: 0.8"/>
      </defs>
      <g>
       <use xlink:href="#mb4b6b88e97" x="103.104" y="307.584" style="stroke: #000000; stroke-width: 0.8"/>
      </g>
     </g>
     <g id="text_1">
      <!-- −40 -->
      <g transform="translate(92.551656 322.182437) scale(0.1 -0.1)">
       <defs>
        <path id="DejaVuSans-2212" d="M 678 2272 
L 4684 2272 
L 4684 1741 
L 678 1741 
L 678 2272 
z
" transform="scale(0.015625)"/>
        <path id="DejaVuSans-34" d="M 2419 4116 
L 825 1625 
L 2419 1625 
L 2419 4116 
z
M 2253 4666 
L 3047 4666 
L 3047 1625 
L 3713 1625 
L 3713 1100 
L 3047 1100 
L 3047 0 
L 2419 0 
L 2419 1100 
L 313 1100 
L 313 1709 
L 2253 4666 
z
" transform="scale(0.015625)"/>
        <path id="DejaVuSans-30" d="M 2034 4250 
Q 1547 4250 1301 3770 
Q 1056 3291 1056 2328 
Q 1056 1369 1301 889 
Q 1547 409 2034 409 
Q 2525 409 2770 889 
Q 3016 1369 3016 2328 
Q 3016 3291 2770 3770 
Q 2525 4250 2034 4250 
z
M 2034 4750 
Q 2819 4750 3233 4129 
Q 3647 3509 3647 2328 
Q 3647 1150 3233 529 
Q 2819 -91 2034 -91 
Q 1250 -91 836 529 
Q 422 1150 422 2328 
Q 422 3509 836 4129 
Q 1250 4750 2034 4750 
z
" transform="scale(0.015625)"/>
       </defs>
       <use xlink:href="#DejaVuSans-2212"/>
       <use xlink:href="#DejaVuSans-34" x="83.789062"/>
       <use xlink:href="#DejaVuSans-30" x="147.412109"/>
      </g>
     </g>
    </g>
    <g id="xtick_2">
     <g id="line2d_2">
      <g>
       <use xlink:href="#mb4b6b88e97" x="136.368" y="307.584" style="stroke: #000000; stroke-width: 0.8"/>
      </g>
     </g>
     <g id="text_2">
      <!-- −30 -->
      <g transform="translate(125.815656 322.182437) scale(0.1 -0.1)">
       <defs>
        <path id="DejaVuSans-33" d="M 2597 2516 
Q 3050 2419 3304 2112 
Q 3559 1806 3559 1356 
Q 3559 666 3084 287 
Q 2609 -91 1734 -91 
Q 1441 -91 1130 -33 
Q 819 25 488 141 
L 488 750 
Q 750 597 1062 519 
Q 1375 441 1716 441 
Q 2309 441 2620 675 
Q 2931 909 2931 1356 
Q 2931 1769 2642 2001 
Q 2353 2234 1838 2234 
L 1294 2234 
L 1294 2753 
L 1863 2753 
Q 2328 2753 2575 2939 
Q 2822 3125 2822 3475 
Q 2822 3834 2567 4026 
Q 2313 4219 1838 4219 
Q 1578 4219 1281 4162 
Q 984 4106 628 3988 
L 628 4550 
Q 988 4650 1302 4700 
Q 1616 4750 1894 4750 
Q 2613 4750 3031 4423 
Q 3450 4097 3450 3541 
Q 3450 3153 3228 2886 
Q 3006 2619 2597 2516 
z
" transform="scale(0.015625)"/>
       </defs>
       <use xlink:href="#DejaVuSans-2212"/>
       <use xlink:href="#DejaVuSans-33" x="83.789062"/>
       <use xlink:href="#DejaVuSans-30" x="147.412109"/>
      </g>
     </g>
    </g>
    <g id="xtick_3">
     <g id="line2d_3">
      <g>
       <use xlink:href="#mb4b6b88e97" x="169.632" y="307.584" style="stroke: #000000; stroke-width: 0.8"/>
      </g>
     </g>
     <g id="text_3">
      <!-- −20 -->
      <g transform="translate(159.079656 322.182437) scale(0.1 -0.1)">
       <defs>
        <path id="DejaVuSans-32" d="M 1228 531 
L 3431 531 
L 3431 0 
L 469 0 
L 469 531 
Q 828 903 1448 1529 
Q 2069 2156 2228 2338 
Q 2531 2678 2651 2914 
Q 2772 3150 2772 3378 
Q 2772 3750 2511 3984 
Q 2250 4219 1831 4219 
Q 1534 4219 1204 4116 
Q 875 4013 500 3803 
L 500 4441 
Q 881 4594 1212 4672 
Q 1544 4750 1819 4750 
Q 2544 4750 2975 4387 
Q 3406 4025 3406 3419 
Q 3406 3131 3298 2873 
Q 3191 2616 2906 2266 
Q 2828 2175 2409 1742 
Q 1991 1309 1228 531 
z
" transform="scale(0.015625)"/>
       </defs>
       <use xlink:href="#DejaVuSans-2212"/>
       <use xlink:href="#DejaVuSans-32" x="83.789062"/>
       <use xlink:href="#DejaVuSans-30" x="147.412109"/>
      </g>
     </g>
    </g>
    <g id="xtick_4">
     <g id="line2d_4">
      <g>
       <use xlink:href="#mb4b6b88e97" x="202.896" y="307.584" style="stroke: #000000; stroke-width: 0.8"/>
      </g>
     </g>
     <g id="text_4">
      <!-- −10 -->
      <g transform="translate(192.343656 322.182437) scale(0.1 -0.1)">
       <defs>
        <path id="DejaVuSans-31" d="M 794 531 
L 1825 531 
L 1825 4091 
L 703 3866 
L 703 4441 
L 1819 4666 
L 2450 4666 
L 2450 531 
L 3481 531 
L 3481 0 
L 794 0 
L 794 531 
z
" transform="scale(0.015625)"/>
       </defs>
       <use xlink:href="#DejaVuSans-2212"/>
       <use xlink:href="#DejaVuSans-31" x="83.789062"/>
       <use xlink:href="#DejaVuSans-30" x="147.412109"/>
      </g>
     </g>
    </g>
    <g id="xtick_5">
     <g id="line2d_5">
      <g>
       <use xlink:href="#mb4b6b88e97" x="236.16" y="307.584" style="stroke: #000000; stroke-width: 0.8"/>
      </g>
     </g>
     <g id="text_5">
      <!-- 0 -->
      <g transform="translate(232.97875 322.182437) scale(0.1 -0.1)">
       <use xlink:href="#DejaVuSans-30"/>
      </g>
     </g>
    </g>
    <g id="xtick_6">
     <g id="line2d_6">
      <g>
       <use xlink:href="#mb4b6b88e97" x="269.424" y="307.584" style="stroke: #000000; stroke-width: 0.8"/>
      </g>
     </g>
     <g id="text_6">
      <!-- 10 -->
      <g transform="translate(263.0615 322.182437) scale(0.1 -0.1)">
       <use xlink:href="#DejaVuSans-31"/>
       <use xlink:href="#DejaVuSans-30" x="63.623047"/>
      </g>
     </g>
    </g>
    <g id="xtick_7">
     <g id="line2d_7">
      <g>
       <use xlink:href="#mb4b6b88e97" x="302.688" y="307.584" style="stroke: #000000; stroke-width: 0.8"/>
      </g>
     </g>
     <g id="text_7">
      <!-- 20 -->
      <g transform="translate(296.3255 322.182437) scale(0.1 -0.1)">
       <use xlink:href="#DejaVuSans-32"/>
       <use xlink:href="#DejaVuSans-30" x="63.623047"/>
      </g>
     </g>
    </g>
    <g id="xtick_8">
     <g id="line2d_8">
      <g>
       <use xlink:href="#mb4b6b88e97" x="335.952" y="307.584" style="stroke: #000000; stroke-width: 0.8"/>
      </g>
     </g>
     <g id="text_8">
      <!-- 30 -->
      <g transform="translate(329.5895 322.182437) scale(0.1 -0.1)">
       <use xlink:href="#DejaVuSans-33"/>
       <use xlink:href="#DejaVuSans-30" x="63.623047"/>
      </g>
     </g>
    </g>
    <g id="xtick_9">
     <g id="line2d_9">
      <g>
       <use xlink:href="#mb4b6b88e97" x="369.216" y="307.584" style="stroke: #000000; stroke-width: 0.8"/>
      </g>
     </g>
     <g id="text_9">
      <!-- 40 -->
      <g transform="translate(362.8535 322.182437) scale(0.1 -0.1)">
       <use xlink:href="#DejaVuSans-34"/>
       <use xlink:href="#DejaVuSans-30" x="63.623047"/>
      </g>
     </g>
    </g>
   </g>
   <g id="matplotlib.axis_2">
    <g id="ytick_1">
     <g id="line2d_10">
      <defs>
       <path id="mdb961a2d58" d="M 0 0 
L -3.5 0 
" style="stroke: #000000; stroke-width: 0.8"/>
      </defs>
      <g>
       <use xlink:href="#mdb961a2d58" x="103.104" y="307.584" style="stroke: #000000; stroke-width: 0.8"/>
      </g>
     </g>
     <g id="text_10">
      <!-- −40 -->
      <g transform="translate(74.999313 311.383219) scale(0.1 -0.1)">
       <use xlink:href="#DejaVuSans-2212"/>
       <use xlink:href="#DejaVuSans-34" x="83.789062"/>
       <use xlink:href="#DejaVuSans-30" x="147.412109"/>
      </g>
     </g>
    </g>
    <g id="ytick_2">
     <g id="line2d_11">
      <g>
       <use xlink:href="#mdb961a2d58" x="103.104" y="274.32" style="stroke: #000000; stroke-width: 0.8"/>
      </g>
     </g>
     <g id="text_11">
      <!-- −30 -->
      <g transform="translate(74.999313 278.119219) scale(0.1 -0.1)">
       <use xlink:href="#DejaVuSans-2212"/>
       <use xlink:href="#DejaVuSans-33" x="83.789062"/>
       <use xlink:href="#DejaVuSans-30" x="147.412109"/>
      </g>
     </g>
    </g>
    <g id="ytick_3">
     <g id="line2d_12">
      <g>
       <use xlink:href="#mdb961a2d58" x="103.104" y="241.056" style="stroke: #000000; stroke-width: 0.8"/>
      </g>
     </g>
     <g id="text_12">
      <!-- −20 -->
      <g transform="translate(74.999313 244.855219) scale(0.1 -0.1)">
       <use xlink:href="#DejaVuSans-2212"/>
       <use xlink:href="#DejaVuSans-32" x="83.789062"/>
       <use xlink:href="#DejaVuSans-30" x="147.412109"/>
      </g>
     </g>
    </g>
    <g id="ytick_4">
     <g id="line2d_13">
      <g>
       <use xlink:href="#mdb961a2d58" x="103.104" y="207.792" style="stroke: #000000; stroke-width: 0.8"/>
      </g>
     </g>
     <g id="text_13">
      <!-- −10 -->
      <g transform="translate(74.999313 211.591219) scale(0.1 -0.1)">
       <use xlink:href="#DejaVuSans-2212"/>
       <use xlink:href="#DejaVuSans-31" x="83.789062"/>
       <use xlink:href="#DejaVuSans-30" x="147.412109"/>
      </g>
     </g>
    </g>
    <g id="ytick_5">
     <g id="line2d_14">
      <g>
       <use xlink:href="#mdb961a2d58" x="103.104" y="174.528" style="stroke: #000000; stroke-width: 0.8"/>
      </g>
     </g>
     <g id="text_14">
      <!-- 0 -->
      <g transform="translate(89.7415 178.327219) scale(0.1 -0.1)">
       <use xlink:href="#DejaVuSans-30"/>
      </g>
     </g>
    </g>
    <g id="ytick_6">
     <g id="line2d_15">
      <g>
       <use xlink:href="#mdb961a2d58" x="103.104" y="141.264" style="stroke: #000000; stroke-width: 0.8"/>
      </g>
     </g>
     <g id="text_15">
      <!-- 10 -->
      <g transform="translate(83.379 145.063219) scale(0.1 -0.1)">
       <use xlink:href="#DejaVuSans-31"/>
       <use xlink:href="#DejaVuSans-30" x="63.623047"/>
      </g>
     </g>
    </g>
    <g id="ytick_7">
     <g id="line2d_16">
      <g>
       <use xlink:href="#mdb961a2d58" x="103.104" y="108" style="stroke: #000000; stroke-width: 0.8"/>
      </g>
     </g>
     <g id="text_16">
      <!-- 20 -->
      <g transform="translate(83.379 111.799219) scale(0.1 -0.1)">
       <use xlink:href="#DejaVuSans-32"/>
       <use xlink:href="#DejaVuSans-30" x="63.623047"/>
      </g>
     </g>
    </g>
    <g id="ytick_8">
     <g id="line2d_17">
      <g>
       <use xlink:href="#mdb961a2d58" x="103.104" y="74.736" style="stroke: #000000; stroke-width: 0.8"/>
      </g>
     </g>
     <g id="text_17">
      <!-- 30 -->
      <g transform="translate(83.379 78.535219) scale(0.1 -0.1)">
       <use xlink:href="#DejaVuSans-33"/>
       <use xlink:href="#DejaVuSans-30" x="63.623047"/>
      </g>
     </g>
    </g>
    <g id="ytick_9">
     <g id="line2d_18">
      <g>
       <use xlink:href="#mdb961a2d58" x="103.104" y="41.472" style="stroke: #000000; stroke-width: 0.8"/>
      </g>
     </g>
     <g id="text_18">
      <!-- 40 -->
      <g transform="translate(83.379 45.271219) scale(0.1 -0.1)">
       <use xlink:href="#DejaVuSans-34"/>
       <use xlink:href="#DejaVuSans-30" x="63.623047"/>
      </g>
     </g>
    </g>
   </g>
   <g id="line2d_19">
    <path d="M 250.2972 288.4572 
L 250.2972 188.6652 
" clip-path="url(#pe2b8671ba0)" style="fill: none; stroke: #000000; stroke-width: 0.25; stroke-linecap: square"/>
   </g>
   <g id="line2d_20">
    <path d="M 250.2972 188.6652 
L 350.0892 188.6652 
" clip-path="url(#pe2b8671ba0)" style="fill: none; stroke: #000000; stroke-width: 0.25; stroke-linecap: square"/>
   </g>
   <g id="line2d_21">
    <path d="M 350.0892 160.3908 
L 250.2972 160.3908 
" clip-path="url(#pe2b8671ba0)" style="fill: none; stroke: #000000; stroke-width: 0.25; stroke-linecap: square"/>
   </g>
   <g id="line2d_22">
    <path d="M 250.2972 160.3908 
L 250.2972 60.5988 
" clip-path="url(#pe2b8671ba0)" style="fill: none; stroke: #000000; stroke-width: 0.25; stroke-linecap: square"/>
   </g>
   <g id="line2d_23">
    <path d="M 222.0228 60.5988 
L 222.0228 160.3908 
" clip-path="url(#pe2b8671ba0)" style="fill: none; stroke: #000000; stroke-width: 0.25; stroke-linecap: square"/>
   </g>
   <g id="line2d_24">
    <path d="M 222.0228 160.3908 
L 122.2308 160.3908 
" clip-path="url(#pe2b8671ba0)" style="fill: none; stroke: #000000; stroke-width: 0.25; stroke-linecap: square"/>
   </g>
   <g id="line2d_25">
    <path d="M 122.2308 188.6652 
L 222.0228 188.6652 
" clip-path="url(#pe2b8671ba0)" style="fill: none; stroke: #000000; stroke-width: 0.25; stroke-linecap: square"/>
   </g>
   <g id="line2d_26">
    <path d="M 222.0228 188.6652 
L 222.0228 288.4572 
" clip-path="url(#pe2b8671ba0)" style="fill: none; stroke: #000000; stroke-width: 0.25; stroke-linecap: square"/>
   </g>
   <g id="line2d_27">
    <path d="M 250.2972 174.528 
L 350.0892 174.528 
" clip-path="url(#pe2b8671ba0)" style="fill: none; stroke-dasharray: 0.925,0.4; stroke-dashoffset: 0; stroke: #000000; stroke-width: 0.25"/>
   </g>
   <g id="line2d_28">
    <path d="M 236.16 160.3908 
L 236.16 60.5988 
" clip-path="url(#pe2b8671ba0)" style="fill: none; stroke-dasharray: 0.925,0.4; stroke-dashoffset: 0; stroke: #000000; stroke-width: 0.25"/>
   </g>
   <g id="line2d_29">
    <path d="M 222.0228 174.528 
L 122.2308 174.528 
" clip-path="url(#pe2b8671ba0)" style="fill: none; stroke-dasharray: 0.925,0.4; stroke-dashoffset: 0; stroke: #000000; stroke-width: 0.25"/>
   </g>
   <g id="line2d_30">
    <path d="M 236.16 188.6652 
L 236.16 288.4572 
" clip-path="url(#pe2b8671ba0)" style="fill: none; stroke-dasharray: 0.925,0.4; stroke-dashoffset: 0; stroke: #000000; stroke-width: 0.25"/>
   </g>
   <g id="line2d_31">
    <path d="M 244.84326 226.394149 
L 244.94547 212.920295 
L 245.170898 206.113897 
L 245.625859 199.193805 
L 246.247145 190.540995 
L 246.292473 187.523786 
L 246.130747 184.445855 
L 245.654806 181.325045 
L 245.253058 179.778667 
L 244.731788 178.270809 
L 244.094807 176.811004 
L 243.346639 175.407913 
L 242.492315 174.069714 
L 241.537469 172.80432 
L 240.488517 171.619411 
L 239.352606 170.521979 
L 238.13727 169.51812 
L 236.850541 168.613478 
L 235.500622 167.812715 
L 234.096079 167.119993 
L 232.645529 166.538693 
L 231.158285 166.071766 
L 229.643127 165.72089 
L 226.651941 165.346005 
L 223.753156 165.229478 
L 218.149081 165.309643 
L 201.86482 165.74989 
L 187.014907 165.841459 
L 101.628799 165.84474 
L 90.769604 165.84474 
L 90.769604 165.84474 
" clip-path="url(#pe2b8671ba0)" style="fill: none; stroke: #00008b; stroke-width: 0.25; stroke-linecap: square"/>
   </g>
   <g id="line2d_32">
    <path d="M 288.125275 165.844741 
L 278.090092 165.937963 
L 269.509205 166.232301 
L 261.389441 166.605271 
L 258.246188 166.492267 
L 256.357292 166.219181 
L 254.549054 165.721691 
L 252.821206 164.997803 
L 251.200168 164.059439 
L 249.71163 162.920818 
L 248.377954 161.597438 
L 247.221467 160.10943 
L 246.263005 158.479798 
L 245.519778 156.731634 
L 245.003799 154.876454 
L 244.684955 152.779362 
L 244.464239 149.391829 
L 244.436681 144.656966 
L 244.842067 108.579373 
L 244.84326 25.650143 
L 244.84326 25.650143 
" clip-path="url(#pe2b8671ba0)" style="fill: none; stroke: #800000; stroke-width: 0.25; stroke-linecap: square"/>
   </g>
   <g id="line2d_33">
    <path d="M 227.47674 122.645439 
L 227.380016 150.409799 
L 227.074689 155.594516 
L 226.52196 160.711946 
L 225.910813 164.527976 
L 224.679839 171.316678 
L 224.550056 174.281502 
L 224.789659 177.116746 
L 225.605792 182.432245 
L 226.524187 188.84899 
L 226.99883 193.997029 
L 227.314785 200.511777 
L 227.465429 209.745849 
L 227.482648 231.071803 
L 227.47674 320.844123 
L 227.47674 320.844123 
" clip-path="url(#pe2b8671ba0)" style="fill: none; stroke: #006400; stroke-width: 0.25; stroke-linecap: square"/>
   </g>
   <g id="line2d_34">
    <path d="M 184.278121 183.21126 
L 196.261833 183.112911 
L 205.458256 183.082803 
L 210.693169 183.268491 
L 214.571483 183.575275 
L 218.391885 184.085222 
L 222.159151 184.844788 
L 225.949228 185.885496 
L 228.753135 186.679969 
L 230.235674 186.982559 
L 231.735479 187.173755 
L 233.243448 187.252713 
L 236.241594 187.076687 
L 239.033475 186.574449 
L 248.048254 184.656647 
L 251.853826 184.092251 
L 256.992415 183.611677 
L 262.202282 183.359772 
L 270.104213 183.218462 
L 288.722542 183.200973 
L 382.475634 183.21126 
L 382.475634 183.21126 
" clip-path="url(#pe2b8671ba0)" style="fill: none; stroke: #4b0082; stroke-width: 0.25; stroke-linecap: square"/>
   </g>
   <g id="line2d_35">
    <path d="M 244.84326 266.3274 
L 244.949341 200.934153 
L 245.256045 194.173997 
L 245.760686 188.731574 
L 246.576944 183.184774 
L 247.306286 178.676255 
L 247.450924 177.063183 
L 247.477786 175.434179 
L 247.374529 173.813109 
L 247.143281 172.213148 
L 246.368574 169.231307 
L 245.210564 165.471314 
L 244.740532 163.228438 
L 244.53318 160.849603 
L 244.495913 157.094891 
L 244.845324 126.807388 
L 244.84325 68.479344 
L 244.84325 68.479344 
" clip-path="url(#pe2b8671ba0)" style="fill: none; stroke: #0000ff; stroke-width: 0.25; stroke-linecap: square"/>
   </g>
   <g id="line2d_36">
    <path d="M 327.9594 165.84474 
L 275.822682 165.945197 
L 267.94618 165.9682 
L 262.671787 165.741384 
L 258.725059 165.368148 
L 254.809508 164.773772 
L 250.908963 163.924442 
L 242.529586 161.750107 
L 240.991087 161.57348 
L 239.450577 161.514915 
L 237.918208 161.573042 
L 234.974308 161.995118 
L 230.969607 162.962011 
L 226.035049 164.113873 
L 222.412099 164.657005 
L 218.672846 164.920802 
L 196.665123 165.729937 
L 183.543179 165.838575 
L 130.065659 165.844735 
L 130.065659 165.844735 
" clip-path="url(#pe2b8671ba0)" style="fill: none; stroke: #ff0000; stroke-width: 0.25; stroke-linecap: square"/>
   </g>
   <g id="line2d_37">
    <path d="M 227.47674 82.745992 
L 227.38417 131.543944 
L 227.085311 142.526814 
L 226.753853 154.037782 
L 226.76208 158.523366 
L 227.003486 163.107889 
L 227.370609 166.225921 
L 228.048888 169.423502 
L 228.570688 170.988361 
L 229.217431 172.506818 
L 229.985225 173.968152 
L 230.868786 175.361934 
L 231.861786 176.678668 
L 232.956753 177.908844 
L 234.145174 179.043946 
L 235.417642 180.076339 
L 236.764091 180.999498 
L 238.1734 181.807678 
L 239.634551 182.497157 
L 241.136178 183.064883 
L 242.666436 183.509052 
L 244.214825 183.829813 
L 247.228133 184.139731 
L 250.133841 184.193227 
L 254.293552 184.026026 
L 266.079627 183.415111 
L 275.156717 183.243124 
L 293.563505 183.204317 
L 342.140846 183.211281 
L 342.140846 183.211281 
" clip-path="url(#pe2b8671ba0)" style="fill: none; stroke: #dbdc56; stroke-width: 0.25; stroke-linecap: square"/>
   </g>
   <g id="line2d_38">
    <path d="M 144.156232 183.21126 
L 209.466909 183.296169 
L 213.320526 183.574088 
L 216.316994 184.09239 
L 220.902904 185.24564 
L 224.915605 186.188492 
L 227.929213 186.538524 
L 229.491054 186.545431 
L 231.07491 186.430385 
L 232.668998 186.188302 
L 234.260171 185.815484 
L 235.834487 185.310165 
L 237.378033 184.672384 
L 238.876096 183.90388 
L 240.312988 183.009075 
L 241.675402 181.994482 
L 242.950764 180.868017 
L 244.128192 179.63861 
L 245.197769 178.316181 
L 246.150627 176.912185 
L 246.980295 175.438614 
L 247.681585 173.907958 
L 248.250853 172.332993 
L 248.685996 170.726468 
L 248.986263 169.101102 
L 249.152343 167.469163 
L 249.186049 165.842451 
L 249.090303 164.23257 
L 248.600369 161.218279 
L 246.068031 149.522168 
L 245.572499 145.866157 
L 245.163701 141.067408 
L 244.920361 135.177974 
L 244.818616 125.969968 
L 244.839699 101.267784 
L 244.839699 101.267784 
" clip-path="url(#pe2b8671ba0)" style="fill: none; stroke: #9400d3; stroke-width: 0.25; stroke-linecap: square"/>
   </g>
   <g id="line2d_39">
    <path d="M 244.84326 306.329011 
L 244.758122 216.024065 
L 244.452842 207.478534 
L 244.113717 199.41897 
L 244.241648 196.29543 
L 244.520179 194.412462 
L 245.016605 192.615761 
L 245.736692 190.898275 
L 246.669738 189.285329 
L 247.80168 187.802238 
L 249.117775 186.471562 
L 250.598692 185.315615 
L 252.223203 184.354562 
L 253.966122 183.607182 
L 255.801346 183.088892 
L 257.852722 182.784806 
L 261.228557 182.611743 
L 265.969976 182.657272 
L 287.028422 183.153159 
L 304.621694 183.21262 
L 304.621694 183.21262 
" clip-path="url(#pe2b8671ba0)" style="fill: none; stroke: #1e90ff; stroke-width: 0.25; stroke-linecap: square"/>
   </g>
   <g id="line2d_40">
    <path d="M 367.637048 165.84474 
L 289.189781 165.738247 
L 278.897846 165.375923 
L 271.719868 164.851025 
L 263.957508 163.970831 
L 262.218105 164.020215 
L 260.464517 164.221135 
L 258.709017 164.578552 
L 255.467713 165.648656 
L 252.765694 166.535086 
L 251.347196 166.816748 
L 249.833189 166.990446 
L 244.255771 167.307574 
L 242.292136 167.68321 
L 240.366273 168.251812 
L 238.500364 169.009337 
L 236.716024 169.948479 
L 235.033731 171.058886 
L 233.471343 172.327863 
L 232.044738 173.741411 
L 230.769059 175.283203 
L 229.655992 176.935022 
L 228.71422 178.678201 
L 227.950841 180.493079 
L 227.370215 182.359541 
L 226.974068 184.258104 
L 226.761158 186.150767 
L 226.714811 189.71538 
L 227.078167 198.005962 
L 227.350145 205.952736 
L 227.471196 216.884052 
L 227.477075 254.080519 
L 227.476725 274.430126 
L 227.476725 274.430126 
" clip-path="url(#pe2b8671ba0)" style="fill: none; stroke: #ff4500; stroke-width: 0.25; stroke-linecap: square"/>
   </g>
   <g id="line2d_41">
    <path d="M 227.47674 42.726989 
L 227.585418 134.243026 
L 227.86849 142.73124 
L 228.128257 149.614856 
L 228.009668 152.739224 
L 227.738453 154.618931 
L 227.24826 156.414229 
L 226.533981 158.132058 
L 225.606505 159.74651 
L 224.479842 161.231841 
L 223.170068 162.564494 
L 221.694053 163.72357 
L 220.074355 164.687663 
L 218.334481 165.438999 
L 216.502344 165.961607 
L 214.457378 166.269332 
L 211.085964 166.445615 
L 206.347592 166.401552 
L 185.29257 165.903459 
L 167.699155 165.8434 
L 167.699155 165.8434 
" clip-path="url(#pe2b8671ba0)" style="fill: none; stroke: #7cfc00; stroke-width: 0.25; stroke-linecap: square"/>
   </g>
   <g id="line2d_42">
    <path d="M 104.358989 183.21126 
L 182.237049 183.133562 
L 185.780423 183.067359 
L 197.73492 183.114577 
L 201.239157 182.881251 
L 205.757433 182.33745 
L 213.966148 181.22024 
L 215.853902 181.353512 
L 217.756046 181.740128 
L 219.631506 182.39126 
L 221.434637 183.308685 
L 223.118515 184.483818 
L 224.637572 185.898888 
L 225.952167 187.529589 
L 227.026655 189.341915 
L 227.833614 191.299425 
L 228.350951 193.355014 
L 228.583756 195.626734 
L 228.577601 199.377422 
L 228.14552 207.195683 
L 227.72309 216.357124 
L 227.524601 226.678038 
L 227.472435 243.156225 
L 227.472435 243.156225 
" clip-path="url(#pe2b8671ba0)" style="fill: none; stroke: #ff00ff; stroke-width: 0.25; stroke-linecap: square"/>
   </g>
   <g id="patch_15">
    <path d="M 103.104 307.584 
L 103.104 41.472 
" style="fill: none; stroke: #000000; stroke-width: 0.8; stroke-linejoin: miter; stroke-linecap: square"/>
   </g>
   <g id="patch_16">
    <path d="M 369.216 307.584 
L 369.216 41.472 
" style="fill: none; stroke: #000000; stroke-width: 0.8; stroke-linejoin: miter; stroke-linecap: square"/>
   </g>
   <g id="patch_17">
    <path d="M 103.104 307.584 
L 369.216 307.584 
" style="fill: none; stroke: #000000; stroke-width: 0.8; stroke-linejoin: miter; stroke-linecap: square"/>
   </g>
   <g id="patch_18">
    <path d="M 103.104 41.472 
L 369.216 41.472 
" style="fill: none; stroke: #000000; stroke-width: 0.8; stroke-linejoin: miter; stroke-linecap: square"/>
   </g>
   <g id="text_19">
    <!-- Time: 149 ms -->
    <g transform="translate(261.069512 54.7776) scale(0.1 -0.1)">
     <defs>
      <path id="DejaVuSans-54" d="M -19 4666 
L 3928 4666 
L 3928 4134 
L 2272 4134 
L 2272 0 
L 1638 0 
L 1638 4134 
L -19 4134 
L -19 4666 
z
" transform="scale(0.015625)"/>
      <path id="DejaVuSans-69" d="M 603 3500 
L 1178 3500 
L 1178 0 
L 603 0 
L 603 3500 
z
M 603 4863 
L 1178 4863 
L 1178 4134 
L 603 4134 
L 603 4863 
z
" transform="scale(0.015625)"/>
      <path id="DejaVuSans-6d" d="M 3328 2828 
Q 3544 3216 3844 3400 
Q 4144 3584 4550 3584 
Q 5097 3584 5394 3201 
Q 5691 2819 5691 2113 
L 5691 0 
L 5113 0 
L 5113 2094 
Q 5113 2597 4934 2840 
Q 4756 3084 4391 3084 
Q 3944 3084 3684 2787 
Q 3425 2491 3425 1978 
L 3425 0 
L 2847 0 
L 2847 2094 
Q 2847 2600 2669 2842 
Q 2491 3084 2119 3084 
Q 1678 3084 1418 2786 
Q 1159 2488 1159 1978 
L 1159 0 
L 581 0 
L 581 3500 
L 1159 3500 
L 1159 2956 
Q 1356 3278 1631 3431 
Q 1906 3584 2284 3584 
Q 2666 3584 2933 3390 
Q 3200 3197 3328 2828 
z
" transform="scale(0.015625)"/>
      <path id="DejaVuSans-65" d="M 3597 1894 
L 3597 1613 
L 953 1613 
Q 991 1019 1311 708 
Q 1631 397 2203 397 
Q 2534 397 2845 478 
Q 3156 559 3463 722 
L 3463 178 
Q 3153 47 2828 -22 
Q 2503 -91 2169 -91 
Q 1331 -91 842 396 
Q 353 884 353 1716 
Q 353 2575 817 3079 
Q 1281 3584 2069 3584 
Q 2775 3584 3186 3129 
Q 3597 2675 3597 1894 
z
M 3022 2063 
Q 3016 2534 2758 2815 
Q 2500 3097 2075 3097 
Q 1594 3097 1305 2825 
Q 1016 2553 972 2059 
L 3022 2063 
z
" transform="scale(0.015625)"/>
      <path id="DejaVuSans-3a" d="M 750 794 
L 1409 794 
L 1409 0 
L 750 0 
L 750 794 
z
M 750 3309 
L 1409 3309 
L 1409 2516 
L 750 2516 
L 750 3309 
z
" transform="scale(0.015625)"/>
      <path id="DejaVuSans-20" transform="scale(0.015625)"/>
      <path id="DejaVuSans-39" d="M 703 97 
L 703 672 
Q 941 559 1184 500 
Q 1428 441 1663 441 
Q 2288 441 2617 861 
Q 2947 1281 2994 2138 
Q 2813 1869 2534 1725 
Q 2256 1581 1919 1581 
Q 1219 1581 811 2004 
Q 403 2428 403 3163 
Q 403 3881 828 4315 
Q 1253 4750 1959 4750 
Q 2769 4750 3195 4129 
Q 3622 3509 3622 2328 
Q 3622 1225 3098 567 
Q 2575 -91 1691 -91 
Q 1453 -91 1209 -44 
Q 966 3 703 97 
z
M 1959 2075 
Q 2384 2075 2632 2365 
Q 2881 2656 2881 3163 
Q 2881 3666 2632 3958 
Q 2384 4250 1959 4250 
Q 1534 4250 1286 3958 
Q 1038 3666 1038 3163 
Q 1038 2656 1286 2365 
Q 1534 2075 1959 2075 
z
" transform="scale(0.015625)"/>
      <path id="DejaVuSans-73" d="M 2834 3397 
L 2834 2853 
Q 2591 2978 2328 3040 
Q 2066 3103 1784 3103 
Q 1356 3103 1142 2972 
Q 928 2841 928 2578 
Q 928 2378 1081 2264 
Q 1234 2150 1697 2047 
L 1894 2003 
Q 2506 1872 2764 1633 
Q 3022 1394 3022 966 
Q 3022 478 2636 193 
Q 2250 -91 1575 -91 
Q 1294 -91 989 -36 
Q 684 19 347 128 
L 347 722 
Q 666 556 975 473 
Q 1284 391 1588 391 
Q 1994 391 2212 530 
Q 2431 669 2431 922 
Q 2431 1156 2273 1281 
Q 2116 1406 1581 1522 
L 1381 1569 
Q 847 1681 609 1914 
Q 372 2147 372 2553 
Q 372 3047 722 3315 
Q 1072 3584 1716 3584 
Q 2034 3584 2315 3537 
Q 2597 3491 2834 3397 
z
" transform="scale(0.015625)"/>
     </defs>
     <use xlink:href="#DejaVuSans-54"/>
     <use xlink:href="#DejaVuSans-69" x="57.958984"/>
     <use xlink:href="#DejaVuSans-6d" x="85.742188"/>
     <use xlink:href="#DejaVuSans-65" x="183.154297"/>
     <use xlink:href="#DejaVuSans-3a" x="244.677734"/>
     <use xlink:href="#DejaVuSans-20" x="278.369141"/>
     <use xlink:href="#DejaVuSans-31" x="310.15625"/>
     <use xlink:href="#DejaVuSans-34" x="373.779297"/>
     <use xlink:href="#DejaVuSans-39" x="437.402344"/>
     <use xlink:href="#DejaVuSans-20" x="501.025391"/>
     <use xlink:href="#DejaVuSans-6d" x="532.8125"/>
     <use xlink:href="#DejaVuSans-73" x="630.224609"/>
    </g>
   </g>
  </g>
 </g>
 <defs>
  <clipPath id="pe2b8671ba0">
   <rect x="103.104" y="41.472" width="266.112" height="266.112"/>
  </clipPath>
 </defs>
</svg>
