<?xml version="1.0" encoding="utf-8" standalone="no"?>
<!DOCTYPE svg PUBLIC "-//W3C//DTD SVG 1.1//EN"
  "http://www.w3.org/Graphics/SVG/1.1/DTD/svg11.dtd">
<svg xmlns:xlink="http://www.w3.org/1999/xlink" width="391.587187pt" height="243.677344pt" viewBox="0 0 391.587187 243.677344" xmlns="http://www.w3.org/2000/svg" version="1.1">
 <metadata>
  <rdf:RDF xmlns:dc="http://purl.org/dc/elements/1.1/" xmlns:cc="http://creativecommons.org/ns#" xmlns:rdf="http://www.w3.org/1999/02/22-rdf-syntax-ns#">
   <cc:Work>
    <dc:type rdf:resource="http://purl.org/dc/dcmitype/StillImage"/>
    <dc:date>2024-02-25T16:40:39.149569</dc:date>
    <dc:format>image/svg+xml</dc:format>
    <dc:creator>
     <cc:Agent>
      <dc:title>Matplotlib v3.8.2, https://matplotlib.org/</dc:title>
     </cc:Agent>
    </dc:creator>
   </cc:Work>
  </rdf:RDF>
 </metadata>
 <defs>
  <style type="text/css">*{stroke-linejoin: round; stroke-linecap: butt}</style>
 </defs>
 <g id="figure_1">
  <g id="patch_1">
   <path d="M 0 243.677344 
L 391.587187 243.677344 
L 391.587187 0 
L 0 0 
z
" style="fill: #ffffff"/>
  </g>
  <g id="axes_1">
   <g id="patch_2">
    <path d="M 28.104688 226.999219 
L 385.224688 226.999219 
L 385.224688 3.799219 
L 28.104688 3.799219 
z
" style="fill: #ffffff"/>
   </g>
   <g id="patch_3">
    <path d="M 198.653591 176.244069 
L 198.814058 144.996481 
L 183.636658 144.91854 
L 183.476191 176.166128 
z
" clip-path="url(#p9d895bb8ac)" style="fill: #00008b"/>
   </g>
   <g id="patch_4">
    <path d="M 337.72858 56.453936 
L 306.481424 56.224281 
L 306.369878 71.401471 
L 337.617034 71.631126 
z
" clip-path="url(#p9d895bb8ac)" style="fill: #800000"/>
   </g>
   <g id="patch_5">
    <path d="M 78.926052 40.436446 
L 110.173956 40.514138 
L 110.211692 25.336585 
L 78.963788 25.258893 
z
" clip-path="url(#p9d895bb8ac)" style="fill: #006400"/>
   </g>
   <g id="matplotlib.axis_1">
    <g id="xtick_1">
     <g id="line2d_1">
      <defs>
       <path id="mf1795ba8cb" d="M 0 0 
L 0 3.5 
" style="stroke: #000000; stroke-width: 0.8"/>
      </defs>
      <g>
       <use xlink:href="#mf1795ba8cb" x="28.104688" y="226.999219" style="stroke: #000000; stroke-width: 0.8"/>
      </g>
     </g>
     <g id="text_1">
      <!-- −20 -->
      <g transform="translate(17.552344 241.597656) scale(0.1 -0.1)">
       <defs>
        <path id="DejaVuSans-2212" d="M 678 2272 
L 4684 2272 
L 4684 1741 
L 678 1741 
L 678 2272 
z
" transform="scale(0.015625)"/>
        <path id="DejaVuSans-32" d="M 1228 531 
L 3431 531 
L 3431 0 
L 469 0 
L 469 531 
Q 828 903 1448 1529 
Q 2069 2156 2228 2338 
Q 2531 2678 2651 2914 
Q 2772 3150 2772 3378 
Q 2772 3750 2511 3984 
Q 2250 4219 1831 4219 
Q 1534 4219 1204 4116 
Q 875 4013 500 3803 
L 500 4441 
Q 881 4594 1212 4672 
Q 1544 4750 1819 4750 
Q 2544 4750 2975 4387 
Q 3406 4025 3406 3419 
Q 3406 3131 3298 2873 
Q 3191 2616 2906 2266 
Q 2828 2175 2409 1742 
Q 1991 1309 1228 531 
z
" transform="scale(0.015625)"/>
        <path id="DejaVuSans-30" d="M 2034 4250 
Q 1547 4250 1301 3770 
Q 1056 3291 1056 2328 
Q 1056 1369 1301 889 
Q 1547 409 2034 409 
Q 2525 409 2770 889 
Q 3016 1369 3016 2328 
Q 3016 3291 2770 3770 
Q 2525 4250 2034 4250 
z
M 2034 4750 
Q 2819 4750 3233 4129 
Q 3647 3509 3647 2328 
Q 3647 1150 3233 529 
Q 2819 -91 2034 -91 
Q 1250 -91 836 529 
Q 422 1150 422 2328 
Q 422 3509 836 4129 
Q 1250 4750 2034 4750 
z
" transform="scale(0.015625)"/>
       </defs>
       <use xlink:href="#DejaVuSans-2212"/>
       <use xlink:href="#DejaVuSans-32" x="83.789062"/>
       <use xlink:href="#DejaVuSans-30" x="147.412109"/>
      </g>
     </g>
    </g>
    <g id="xtick_2">
     <g id="line2d_2">
      <g>
       <use xlink:href="#mf1795ba8cb" x="72.744687" y="226.999219" style="stroke: #000000; stroke-width: 0.8"/>
      </g>
     </g>
     <g id="text_2">
      <!-- −15 -->
      <g transform="translate(62.192344 241.597656) scale(0.1 -0.1)">
       <defs>
        <path id="DejaVuSans-31" d="M 794 531 
L 1825 531 
L 1825 4091 
L 703 3866 
L 703 4441 
L 1819 4666 
L 2450 4666 
L 2450 531 
L 3481 531 
L 3481 0 
L 794 0 
L 794 531 
z
" transform="scale(0.015625)"/>
        <path id="DejaVuSans-35" d="M 691 4666 
L 3169 4666 
L 3169 4134 
L 1269 4134 
L 1269 2991 
Q 1406 3038 1543 3061 
Q 1681 3084 1819 3084 
Q 2600 3084 3056 2656 
Q 3513 2228 3513 1497 
Q 3513 744 3044 326 
Q 2575 -91 1722 -91 
Q 1428 -91 1123 -41 
Q 819 9 494 109 
L 494 744 
Q 775 591 1075 516 
Q 1375 441 1709 441 
Q 2250 441 2565 725 
Q 2881 1009 2881 1497 
Q 2881 1984 2565 2268 
Q 2250 2553 1709 2553 
Q 1456 2553 1204 2497 
Q 953 2441 691 2322 
L 691 4666 
z
" transform="scale(0.015625)"/>
       </defs>
       <use xlink:href="#DejaVuSans-2212"/>
       <use xlink:href="#DejaVuSans-31" x="83.789062"/>
       <use xlink:href="#DejaVuSans-35" x="147.412109"/>
      </g>
     </g>
    </g>
    <g id="xtick_3">
     <g id="line2d_3">
      <g>
       <use xlink:href="#mf1795ba8cb" x="117.384688" y="226.999219" style="stroke: #000000; stroke-width: 0.8"/>
      </g>
     </g>
     <g id="text_3">
      <!-- −10 -->
      <g transform="translate(106.832344 241.597656) scale(0.1 -0.1)">
       <use xlink:href="#DejaVuSans-2212"/>
       <use xlink:href="#DejaVuSans-31" x="83.789062"/>
       <use xlink:href="#DejaVuSans-30" x="147.412109"/>
      </g>
     </g>
    </g>
    <g id="xtick_4">
     <g id="line2d_4">
      <g>
       <use xlink:href="#mf1795ba8cb" x="162.024688" y="226.999219" style="stroke: #000000; stroke-width: 0.8"/>
      </g>
     </g>
     <g id="text_4">
      <!-- −5 -->
      <g transform="translate(154.653594 241.597656) scale(0.1 -0.1)">
       <use xlink:href="#DejaVuSans-2212"/>
       <use xlink:href="#DejaVuSans-35" x="83.789062"/>
      </g>
     </g>
    </g>
    <g id="xtick_5">
     <g id="line2d_5">
      <g>
       <use xlink:href="#mf1795ba8cb" x="206.664688" y="226.999219" style="stroke: #000000; stroke-width: 0.8"/>
      </g>
     </g>
     <g id="text_5">
      <!-- 0 -->
      <g transform="translate(203.483438 241.597656) scale(0.1 -0.1)">
       <use xlink:href="#DejaVuSans-30"/>
      </g>
     </g>
    </g>
    <g id="xtick_6">
     <g id="line2d_6">
      <g>
       <use xlink:href="#mf1795ba8cb" x="251.304688" y="226.999219" style="stroke: #000000; stroke-width: 0.8"/>
      </g>
     </g>
     <g id="text_6">
      <!-- 5 -->
      <g transform="translate(248.123437 241.597656) scale(0.1 -0.1)">
       <use xlink:href="#DejaVuSans-35"/>
      </g>
     </g>
    </g>
    <g id="xtick_7">
     <g id="line2d_7">
      <g>
       <use xlink:href="#mf1795ba8cb" x="295.944687" y="226.999219" style="stroke: #000000; stroke-width: 0.8"/>
      </g>
     </g>
     <g id="text_7">
      <!-- 10 -->
      <g transform="translate(289.582187 241.597656) scale(0.1 -0.1)">
       <use xlink:href="#DejaVuSans-31"/>
       <use xlink:href="#DejaVuSans-30" x="63.623047"/>
      </g>
     </g>
    </g>
    <g id="xtick_8">
     <g id="line2d_8">
      <g>
       <use xlink:href="#mf1795ba8cb" x="340.584688" y="226.999219" style="stroke: #000000; stroke-width: 0.8"/>
      </g>
     </g>
     <g id="text_8">
      <!-- 15 -->
      <g transform="translate(334.222188 241.597656) scale(0.1 -0.1)">
       <use xlink:href="#DejaVuSans-31"/>
       <use xlink:href="#DejaVuSans-35" x="63.623047"/>
      </g>
     </g>
    </g>
    <g id="xtick_9">
     <g id="line2d_9">
      <g>
       <use xlink:href="#mf1795ba8cb" x="385.224688" y="226.999219" style="stroke: #000000; stroke-width: 0.8"/>
      </g>
     </g>
     <g id="text_9">
      <!-- 20 -->
      <g transform="translate(378.862188 241.597656) scale(0.1 -0.1)">
       <use xlink:href="#DejaVuSans-32"/>
       <use xlink:href="#DejaVuSans-30" x="63.623047"/>
      </g>
     </g>
    </g>
   </g>
   <g id="matplotlib.axis_2">
    <g id="ytick_1">
     <g id="line2d_10">
      <defs>
       <path id="mb0471d5bc5" d="M 0 0 
L -3.5 0 
" style="stroke: #000000; stroke-width: 0.8"/>
      </defs>
      <g>
       <use xlink:href="#mb0471d5bc5" x="28.104688" y="226.999219" style="stroke: #000000; stroke-width: 0.8"/>
      </g>
     </g>
     <g id="text_10">
      <!-- −20 -->
      <g transform="translate(0 230.798438) scale(0.1 -0.1)">
       <use xlink:href="#DejaVuSans-2212"/>
       <use xlink:href="#DejaVuSans-32" x="83.789062"/>
       <use xlink:href="#DejaVuSans-30" x="147.412109"/>
      </g>
     </g>
    </g>
    <g id="ytick_2">
     <g id="line2d_11">
      <g>
       <use xlink:href="#mb0471d5bc5" x="28.104688" y="182.359219" style="stroke: #000000; stroke-width: 0.8"/>
      </g>
     </g>
     <g id="text_11">
      <!-- −15 -->
      <g transform="translate(0 186.158438) scale(0.1 -0.1)">
       <use xlink:href="#DejaVuSans-2212"/>
       <use xlink:href="#DejaVuSans-31" x="83.789062"/>
       <use xlink:href="#DejaVuSans-35" x="147.412109"/>
      </g>
     </g>
    </g>
    <g id="ytick_3">
     <g id="line2d_12">
      <g>
       <use xlink:href="#mb0471d5bc5" x="28.104688" y="137.719219" style="stroke: #000000; stroke-width: 0.8"/>
      </g>
     </g>
     <g id="text_12">
      <!-- −10 -->
      <g transform="translate(0 141.518438) scale(0.1 -0.1)">
       <use xlink:href="#DejaVuSans-2212"/>
       <use xlink:href="#DejaVuSans-31" x="83.789062"/>
       <use xlink:href="#DejaVuSans-30" x="147.412109"/>
      </g>
     </g>
    </g>
    <g id="ytick_4">
     <g id="line2d_13">
      <g>
       <use xlink:href="#mb0471d5bc5" x="28.104688" y="93.079219" style="stroke: #000000; stroke-width: 0.8"/>
      </g>
     </g>
     <g id="text_13">
      <!-- −5 -->
      <g transform="translate(6.3625 96.878437) scale(0.1 -0.1)">
       <use xlink:href="#DejaVuSans-2212"/>
       <use xlink:href="#DejaVuSans-35" x="83.789062"/>
      </g>
     </g>
    </g>
    <g id="ytick_5">
     <g id="line2d_14">
      <g>
       <use xlink:href="#mb0471d5bc5" x="28.104688" y="48.439219" style="stroke: #000000; stroke-width: 0.8"/>
      </g>
     </g>
     <g id="text_14">
      <!-- 0 -->
      <g transform="translate(14.742188 52.238438) scale(0.1 -0.1)">
       <use xlink:href="#DejaVuSans-30"/>
      </g>
     </g>
    </g>
    <g id="ytick_6">
     <g id="line2d_15">
      <g>
       <use xlink:href="#mb0471d5bc5" x="28.104688" y="3.799219" style="stroke: #000000; stroke-width: 0.8"/>
      </g>
     </g>
     <g id="text_15">
      <!-- 5 -->
      <g transform="translate(14.742188 7.598438) scale(0.1 -0.1)">
       <use xlink:href="#DejaVuSans-35"/>
      </g>
     </g>
    </g>
   </g>
   <g id="line2d_16">
    <path d="M 244.608688 244.677344 
L 244.608688 86.383219 
" clip-path="url(#p9d895bb8ac)" style="fill: none; stroke: #000000; stroke-width: 0.25; stroke-linecap: square"/>
   </g>
   <g id="line2d_17">
    <path d="M 244.608688 86.383219 
L 392.587187 86.383219 
" clip-path="url(#p9d895bb8ac)" style="fill: none; stroke: #000000; stroke-width: 0.25; stroke-linecap: square"/>
   </g>
   <g id="line2d_18">
    <path d="M -1 10.495219 
L 392.587187 10.495219 
" clip-path="url(#p9d895bb8ac)" style="fill: none; stroke: #000000; stroke-width: 0.25; stroke-linecap: square"/>
   </g>
   <g id="line2d_19">
    <path d="M 168.720687 244.677344 
L 168.720687 86.383219 
" clip-path="url(#p9d895bb8ac)" style="fill: none; stroke: #000000; stroke-width: 0.25; stroke-linecap: square"/>
   </g>
   <g id="line2d_20">
    <path d="M 168.720687 86.383219 
L -1 86.383219 
" clip-path="url(#p9d895bb8ac)" style="fill: none; stroke: #000000; stroke-width: 0.25; stroke-linecap: square"/>
   </g>
   <g id="line2d_21">
    <path d="M 244.608688 48.439219 
L 392.587187 48.439219 
" clip-path="url(#p9d895bb8ac)" style="fill: none; stroke-dasharray: 0.925,0.4; stroke-dashoffset: 0; stroke: #000000; stroke-width: 0.25"/>
   </g>
   <g id="line2d_22">
    <path d="M 168.720687 48.439219 
L -1 48.439219 
" clip-path="url(#p9d895bb8ac)" style="fill: none; stroke-dasharray: 0.925,0.4; stroke-dashoffset: 0; stroke: #000000; stroke-width: 0.25"/>
   </g>
   <g id="line2d_23">
    <path d="M 206.664688 244.677344 
L 206.664688 86.383219 
" clip-path="url(#p9d895bb8ac)" style="fill: none; stroke-dasharray: 0.925,0.4; stroke-dashoffset: 0; stroke: #000000; stroke-width: 0.25"/>
   </g>
   <g id="line2d_24">
    <path d="M 191.127548 165.892207 
L 191.145125 160.581304 
L 191.14111 155.304857 
L 191.103945 150.058684 
L 191.023253 144.838573 
L 190.887191 139.640269 
L 190.682447 134.459495 
L 190.394538 129.291976 
L 190.00809 124.133462 
L 189.507756 118.979672 
L 188.879702 113.826069 
L 188.114067 108.667357 
L 187.208685 103.496693 
L 186.174447 98.303396 
L 185.0425 93.070114 
L 183.87372 87.770236 
L 182.783384 82.364286 
L 181.919322 76.813864 
L 181.495513 71.094802 
L 181.847504 65.238023 
L 183.397092 59.425878 
L 185.708954 53.700697 
L 188.802817 48.169937 
L 192.678857 42.959696 
L 197.307851 38.210119 
L 202.626715 34.062264 
L 208.540443 30.643238 
L 214.929798 28.06009 
L 221.655105 26.389722 
L 228.567314 25.680403 
L 235.521385 25.650494 
" clip-path="url(#p9d895bb8ac)" style="fill: none; stroke: #ff0000; stroke-width: 0.25; stroke-linecap: square"/>
   </g>
   <g id="line2d_25">
    <path d="M 327.146248 63.973146 
L 322.049229 63.927703 
L 316.95555 63.884063 
L 311.863314 63.841883 
L 306.770578 63.804416 
L 301.675362 63.776248 
L 296.575647 63.763593 
L 291.469388 63.774589 
L 286.354571 63.819603 
L 281.229308 63.911495 
L 276.092006 64.065823 
L 270.941611 64.300916 
L 265.777946 64.637732 
L 260.602108 65.09938 
L 255.416862 65.710126 
L 250.22689 66.49368 
L 245.038597 67.470494 
L 239.859129 68.654028 
L 234.694224 70.045564 
L 229.544651 71.628196 
L 224.401838 73.360797 
L 219.201514 75.046077 
L 213.850577 76.328633 
L 208.344298 76.825609 
L 202.836668 76.214081 
L 197.443121 74.942324 
L 192.235308 73.073215 
L 187.139861 70.942115 
L 182.012707 68.908719 
L 176.866315 66.938162 
L 171.703802 65.016614 
" clip-path="url(#p9d895bb8ac)" style="fill: none; stroke: #ff0000; stroke-width: 0.25; stroke-linecap: square"/>
   </g>
   <g id="line2d_26">
    <path d="M 89.135287 32.888592 
L 94.568872 32.886515 
L 100.027467 32.86108 
L 105.518252 32.798892 
L 111.048312 32.688066 
L 116.62452 32.51508 
L 122.253372 32.265112 
L 127.940829 31.922806 
L 133.69222 31.473606 
L 139.512317 30.905827 
L 145.405714 30.213731 
L 151.377406 29.401676 
L 157.433788 28.489378 
L 163.584277 27.518072 
L 169.842214 26.557704 
L 176.223267 25.715681 
L 182.739154 25.153479 
L 189.377373 25.077256 
L 196.07027 25.762239 
L 202.627047 27.575942 
L 208.822099 30.519824 
L 214.573507 34.31605 
L 219.739839 38.886929 
L 224.202617 44.124124 
L 227.867633 49.903958 
L 230.669873 56.095653 
L 232.570307 62.570733 
L 233.552509 69.207698 
L 233.614434 75.891697 
L 232.769021 82.509078 
L 231.033882 88.94594 
" clip-path="url(#p9d895bb8ac)" style="fill: none; stroke: #ff0000; stroke-width: 0.25; stroke-linecap: square"/>
   </g>
   <g id="patch_6">
    <path d="M 28.104688 226.999219 
L 28.104688 3.799219 
" style="fill: none; stroke: #000000; stroke-width: 0.8; stroke-linejoin: miter; stroke-linecap: square"/>
   </g>
   <g id="patch_7">
    <path d="M 385.224688 226.999219 
L 385.224688 3.799219 
" style="fill: none; stroke: #000000; stroke-width: 0.8; stroke-linejoin: miter; stroke-linecap: square"/>
   </g>
   <g id="patch_8">
    <path d="M 28.104688 226.999219 
L 385.224688 226.999219 
" style="fill: none; stroke: #000000; stroke-width: 0.8; stroke-linejoin: miter; stroke-linecap: square"/>
   </g>
   <g id="patch_9">
    <path d="M 28.104688 3.799219 
L 385.224688 3.799219 
" style="fill: none; stroke: #000000; stroke-width: 0.8; stroke-linejoin: miter; stroke-linecap: square"/>
   </g>
   <g id="text_16">
    <!-- Time: 1.0 s -->
    <g transform="translate(276.352 14.959219) scale(0.1 -0.1)">
     <defs>
      <path id="DejaVuSans-54" d="M -19 4666 
L 3928 4666 
L 3928 4134 
L 2272 4134 
L 2272 0 
L 1638 0 
L 1638 4134 
L -19 4134 
L -19 4666 
z
" transform="scale(0.015625)"/>
      <path id="DejaVuSans-69" d="M 603 3500 
L 1178 3500 
L 1178 0 
L 603 0 
L 603 3500 
z
M 603 4863 
L 1178 4863 
L 1178 4134 
L 603 4134 
L 603 4863 
z
" transform="scale(0.015625)"/>
      <path id="DejaVuSans-6d" d="M 3328 2828 
Q 3544 3216 3844 3400 
Q 4144 3584 4550 3584 
Q 5097 3584 5394 3201 
Q 5691 2819 5691 2113 
L 5691 0 
L 5113 0 
L 5113 2094 
Q 5113 2597 4934 2840 
Q 4756 3084 4391 3084 
Q 3944 3084 3684 2787 
Q 3425 2491 3425 1978 
L 3425 0 
L 2847 0 
L 2847 2094 
Q 2847 2600 2669 2842 
Q 2491 3084 2119 3084 
Q 1678 3084 1418 2786 
Q 1159 2488 1159 1978 
L 1159 0 
L 581 0 
L 581 3500 
L 1159 3500 
L 1159 2956 
Q 1356 3278 1631 3431 
Q 1906 3584 2284 3584 
Q 2666 3584 2933 3390 
Q 3200 3197 3328 2828 
z
" transform="scale(0.015625)"/>
      <path id="DejaVuSans-65" d="M 3597 1894 
L 3597 1613 
L 953 1613 
Q 991 1019 1311 708 
Q 1631 397 2203 397 
Q 2534 397 2845 478 
Q 3156 559 3463 722 
L 3463 178 
Q 3153 47 2828 -22 
Q 2503 -91 2169 -91 
Q 1331 -91 842 396 
Q 353 884 353 1716 
Q 353 2575 817 3079 
Q 1281 3584 2069 3584 
Q 2775 3584 3186 3129 
Q 3597 2675 3597 1894 
z
M 3022 2063 
Q 3016 2534 2758 2815 
Q 2500 3097 2075 3097 
Q 1594 3097 1305 2825 
Q 1016 2553 972 2059 
L 3022 2063 
z
" transform="scale(0.015625)"/>
      <path id="DejaVuSans-3a" d="M 750 794 
L 1409 794 
L 1409 0 
L 750 0 
L 750 794 
z
M 750 3309 
L 1409 3309 
L 1409 2516 
L 750 2516 
L 750 3309 
z
" transform="scale(0.015625)"/>
      <path id="DejaVuSans-20" transform="scale(0.015625)"/>
      <path id="DejaVuSans-2e" d="M 684 794 
L 1344 794 
L 1344 0 
L 684 0 
L 684 794 
z
" transform="scale(0.015625)"/>
      <path id="DejaVuSans-73" d="M 2834 3397 
L 2834 2853 
Q 2591 2978 2328 3040 
Q 2066 3103 1784 3103 
Q 1356 3103 1142 2972 
Q 928 2841 928 2578 
Q 928 2378 1081 2264 
Q 1234 2150 1697 2047 
L 1894 2003 
Q 2506 1872 2764 1633 
Q 3022 1394 3022 966 
Q 3022 478 2636 193 
Q 2250 -91 1575 -91 
Q 1294 -91 989 -36 
Q 684 19 347 128 
L 347 722 
Q 666 556 975 473 
Q 1284 391 1588 391 
Q 1994 391 2212 530 
Q 2431 669 2431 922 
Q 2431 1156 2273 1281 
Q 2116 1406 1581 1522 
L 1381 1569 
Q 847 1681 609 1914 
Q 372 2147 372 2553 
Q 372 3047 722 3315 
Q 1072 3584 1716 3584 
Q 2034 3584 2315 3537 
Q 2597 3491 2834 3397 
z
" transform="scale(0.015625)"/>
     </defs>
     <use xlink:href="#DejaVuSans-54"/>
     <use xlink:href="#DejaVuSans-69" x="57.958984"/>
     <use xlink:href="#DejaVuSans-6d" x="85.742188"/>
     <use xlink:href="#DejaVuSans-65" x="183.154297"/>
     <use xlink:href="#DejaVuSans-3a" x="244.677734"/>
     <use xlink:href="#DejaVuSans-20" x="278.369141"/>
     <use xlink:href="#DejaVuSans-31" x="310.15625"/>
     <use xlink:href="#DejaVuSans-2e" x="373.779297"/>
     <use xlink:href="#DejaVuSans-30" x="405.566406"/>
     <use xlink:href="#DejaVuSans-20" x="469.189453"/>
     <use xlink:href="#DejaVuSans-73" x="500.976562"/>
    </g>
   </g>
  </g>
 </g>
 <defs>
  <clipPath id="p9d895bb8ac">
   <rect x="28.104688" y="3.799219" width="357.12" height="223.2"/>
  </clipPath>
 </defs>
</svg>
