<?xml version="1.0" encoding="utf-8" standalone="no"?>
<!DOCTYPE svg PUBLIC "-//W3C//DTD SVG 1.1//EN"
  "http://www.w3.org/Graphics/SVG/1.1/DTD/svg11.dtd">
<svg xmlns:xlink="http://www.w3.org/1999/xlink" width="460.8pt" height="345.6pt" viewBox="0 0 460.8 345.6" xmlns="http://www.w3.org/2000/svg" version="1.1">
 <metadata>
  <rdf:RDF xmlns:dc="http://purl.org/dc/elements/1.1/" xmlns:cc="http://creativecommons.org/ns#" xmlns:rdf="http://www.w3.org/1999/02/22-rdf-syntax-ns#">
   <cc:Work>
    <dc:type rdf:resource="http://purl.org/dc/dcmitype/StillImage"/>
    <dc:date>2024-01-20T23:17:21.315048</dc:date>
    <dc:format>image/svg+xml</dc:format>
    <dc:creator>
     <cc:Agent>
      <dc:title>Matplotlib v3.8.2, https://matplotlib.org/</dc:title>
     </cc:Agent>
    </dc:creator>
   </cc:Work>
  </rdf:RDF>
 </metadata>
 <defs>
  <style type="text/css">*{stroke-linejoin: round; stroke-linecap: butt}</style>
 </defs>
 <g id="figure_1">
  <g id="patch_1">
   <path d="M 0 345.6 
L 460.8 345.6 
L 460.8 0 
L 0 0 
z
" style="fill: #ffffff"/>
  </g>
  <g id="axes_1">
   <g id="patch_2">
    <path d="M 103.104 307.584 
L 369.216 307.584 
L 369.216 41.472 
L 103.104 41.472 
z
" style="fill: #ffffff"/>
   </g>
   <g id="patch_3">
    <path d="M 243.382176 226.660064 
L 243.382176 217.346144 
L 238.858272 217.346144 
L 238.858272 226.660064 
z
" clip-path="url(#p848f147eb3)" style="fill: #00008b"/>
   </g>
   <g id="patch_4">
    <path d="M 288.292064 167.305824 
L 278.978144 167.305824 
L 278.978144 171.829728 
L 288.292064 171.829728 
z
" clip-path="url(#p848f147eb3)" style="fill: #800000"/>
   </g>
   <g id="patch_5">
    <path d="M 228.937749 122.689144 
L 228.936596 132.003064 
L 233.4605 132.003624 
L 233.461653 122.689704 
z
" clip-path="url(#p848f147eb3)" style="fill: #006400"/>
   </g>
   <g id="patch_6">
    <path d="M 183.997516 181.749905 
L 193.311436 181.74708 
L 193.310064 177.223176 
L 183.996144 177.226001 
z
" clip-path="url(#p848f147eb3)" style="fill: #4b0082"/>
   </g>
   <g id="patch_7">
    <path d="M 243.382176 258.590959 
L 243.382176 249.277039 
L 238.858272 249.277039 
L 238.858272 258.590959 
z
" clip-path="url(#p848f147eb3)" style="fill: #0000ff"/>
   </g>
   <g id="patch_8">
    <path d="M 319.926503 167.305824 
L 310.612583 167.305824 
L 310.612583 171.829728 
L 319.926503 171.829728 
z
" clip-path="url(#p848f147eb3)" style="fill: #ff0000"/>
   </g>
   <g id="patch_9">
    <path d="M 228.937824 90.436608 
L 228.937824 99.750528 
L 233.461728 99.750528 
L 233.461728 90.436608 
z
" clip-path="url(#p848f147eb3)" style="fill: #dbdc56"/>
   </g>
   <g id="patch_10">
    <path d="M 152.097041 181.750176 
L 161.410961 181.750176 
L 161.410961 177.226272 
L 152.097041 177.226272 
z
" clip-path="url(#p848f147eb3)" style="fill: #9400d3"/>
   </g>
   <g id="patch_11">
    <path d="M 243.382176 290.552832 
L 243.382176 281.238912 
L 238.858272 281.238912 
L 238.858272 290.552832 
z
" clip-path="url(#p848f147eb3)" style="fill: #1e90ff"/>
   </g>
   <g id="patch_12">
    <path d="M 351.859943 167.305824 
L 342.546023 167.305824 
L 342.546023 171.829728 
L 351.859943 171.829728 
z
" clip-path="url(#p848f147eb3)" style="fill: #ff4500"/>
   </g>
   <g id="patch_13">
    <path d="M 228.937824 58.503168 
L 228.937824 67.817088 
L 233.461728 67.817088 
L 233.461728 58.503168 
z
" clip-path="url(#p848f147eb3)" style="fill: #7cfc00"/>
   </g>
   <g id="patch_14">
    <path d="M 120.460057 181.750176 
L 129.773977 181.750176 
L 129.773977 177.226272 
L 120.460057 177.226272 
z
" clip-path="url(#p848f147eb3)" style="fill: #ff00ff"/>
   </g>
   <g id="PathCollection_1">
    <defs>
     <path id="mb40b8821cc" d="M 0 0.223607 
C 0.059301 0.223607 0.116182 0.200046 0.158114 0.158114 
C 0.200046 0.116182 0.223607 0.059301 0.223607 0 
C 0.223607 -0.059301 0.200046 -0.116182 0.158114 -0.158114 
C 0.116182 -0.200046 0.059301 -0.223607 0 -0.223607 
C -0.059301 -0.223607 -0.116182 -0.200046 -0.158114 -0.158114 
C -0.200046 -0.116182 -0.223607 -0.059301 -0.223607 0 
C -0.223607 0.059301 -0.200046 0.116182 -0.158114 0.158114 
C -0.116182 0.200046 -0.059301 0.223607 0 0.223607 
z
" style="stroke: #00008b"/>
    </defs>
    <g clip-path="url(#p848f147eb3)">
     <use xlink:href="#mb40b8821cc" x="241.120224" y="224.956224" style="fill: #00008b; stroke: #00008b"/>
    </g>
   </g>
   <g id="PathCollection_2">
    <defs>
     <path id="m0d54b5c6fc" d="M 0 0.223607 
C 0.059301 0.223607 0.116182 0.200046 0.158114 0.158114 
C 0.200046 0.116182 0.223607 0.059301 0.223607 0 
C 0.223607 -0.059301 0.200046 -0.116182 0.158114 -0.158114 
C 0.116182 -0.200046 0.059301 -0.223607 0 -0.223607 
C -0.059301 -0.223607 -0.116182 -0.200046 -0.158114 -0.158114 
C -0.200046 -0.116182 -0.223607 -0.059301 -0.223607 0 
C -0.223607 0.059301 -0.200046 0.116182 -0.158114 0.158114 
C -0.116182 0.200046 -0.059301 0.223607 0 0.223607 
z
" style="stroke: #800000"/>
    </defs>
    <g clip-path="url(#p848f147eb3)">
     <use xlink:href="#m0d54b5c6fc" x="286.588224" y="169.567776" style="fill: #800000; stroke: #800000"/>
    </g>
   </g>
   <g id="PathCollection_3">
    <defs>
     <path id="m304cb1bb5c" d="M 0 0.223607 
C 0.059301 0.223607 0.116182 0.200046 0.158114 0.158114 
C 0.200046 0.116182 0.223607 0.059301 0.223607 0 
C 0.223607 -0.059301 0.200046 -0.116182 0.158114 -0.158114 
C 0.116182 -0.200046 0.059301 -0.223607 0 -0.223607 
C -0.059301 -0.223607 -0.116182 -0.200046 -0.158114 -0.158114 
C -0.200046 -0.116182 -0.223607 -0.059301 -0.223607 0 
C -0.223607 0.059301 -0.200046 0.116182 -0.158114 0.158114 
C -0.116182 0.200046 -0.059301 0.223607 0 0.223607 
z
" style="stroke: #006400"/>
    </defs>
    <g clip-path="url(#p848f147eb3)">
     <use xlink:href="#m304cb1bb5c" x="231.199751" y="124.208072" style="fill: #006400; stroke: #006400"/>
    </g>
   </g>
   <g id="PathCollection_4">
    <defs>
     <path id="m5aab52d556" d="M 0 0.223607 
C 0.059301 0.223607 0.116182 0.200046 0.158114 0.158114 
C 0.200046 0.116182 0.223607 0.059301 0.223607 0 
C 0.223607 -0.059301 0.200046 -0.116182 0.158114 -0.158114 
C 0.116182 -0.200046 0.059301 -0.223607 0 -0.223607 
C -0.059301 -0.223607 -0.116182 -0.200046 -0.158114 -0.158114 
C -0.200046 -0.116182 -0.223607 -0.059301 -0.223607 0 
C -0.223607 0.059301 -0.200046 0.116182 -0.158114 0.158114 
C -0.116182 0.200046 -0.059301 0.223607 0 0.223607 
z
" style="stroke: #4b0082"/>
    </defs>
    <g clip-path="url(#p848f147eb3)">
     <use xlink:href="#m5aab52d556" x="185.731776" y="179.488016" style="fill: #4b0082; stroke: #4b0082"/>
    </g>
   </g>
   <g id="PathCollection_5">
    <defs>
     <path id="mfdb370a919" d="M 0 0.223607 
C 0.059301 0.223607 0.116182 0.200046 0.158114 0.158114 
C 0.200046 0.116182 0.223607 0.059301 0.223607 0 
C 0.223607 -0.059301 0.200046 -0.116182 0.158114 -0.158114 
C 0.116182 -0.200046 0.059301 -0.223607 0 -0.223607 
C -0.059301 -0.223607 -0.116182 -0.200046 -0.158114 -0.158114 
C -0.200046 -0.116182 -0.223607 -0.059301 -0.223607 0 
C -0.223607 0.059301 -0.200046 0.116182 -0.158114 0.158114 
C -0.116182 0.200046 -0.059301 0.223607 0 0.223607 
z
" style="stroke: #0000ff"/>
    </defs>
    <g clip-path="url(#p848f147eb3)">
     <use xlink:href="#mfdb370a919" x="241.120224" y="256.889664" style="fill: #0000ff; stroke: #0000ff"/>
    </g>
   </g>
   <g id="PathCollection_6">
    <defs>
     <path id="me5006b7339" d="M 0 0.223607 
C 0.059301 0.223607 0.116182 0.200046 0.158114 0.158114 
C 0.200046 0.116182 0.223607 0.059301 0.223607 0 
C 0.223607 -0.059301 0.200046 -0.116182 0.158114 -0.158114 
C 0.116182 -0.200046 0.059301 -0.223607 0 -0.223607 
C -0.059301 -0.223607 -0.116182 -0.200046 -0.158114 -0.158114 
C -0.200046 -0.116182 -0.223607 -0.059301 -0.223607 0 
C -0.223607 0.059301 -0.200046 0.116182 -0.158114 0.158114 
C -0.116182 0.200046 -0.059301 0.223607 0 0.223607 
z
" style="stroke: #ff0000"/>
    </defs>
    <g clip-path="url(#p848f147eb3)">
     <use xlink:href="#me5006b7339" x="318.413368" y="169.567776" style="fill: #ff0000; stroke: #ff0000"/>
    </g>
   </g>
   <g id="PathCollection_7">
    <defs>
     <path id="m062cfe9932" d="M 0 0.223607 
C 0.059301 0.223607 0.116182 0.200046 0.158114 0.158114 
C 0.200046 0.116182 0.223607 0.059301 0.223607 0 
C 0.223607 -0.059301 0.200046 -0.116182 0.158114 -0.158114 
C 0.116182 -0.200046 0.059301 -0.223607 0 -0.223607 
C -0.059301 -0.223607 -0.116182 -0.200046 -0.158114 -0.158114 
C -0.200046 -0.116182 -0.223607 -0.059301 -0.223607 0 
C -0.223607 0.059301 -0.200046 0.116182 -0.158114 0.158114 
C -0.116182 0.200046 -0.059301 0.223607 0 0.223607 
z
" style="stroke: #dbdc56"/>
    </defs>
    <g clip-path="url(#p848f147eb3)">
     <use xlink:href="#m062cfe9932" x="231.199776" y="92.166336" style="fill: #dbdc56; stroke: #dbdc56"/>
    </g>
   </g>
   <g id="PathCollection_8">
    <defs>
     <path id="m5a7c3a6d50" d="M 0 0.223607 
C 0.059301 0.223607 0.116182 0.200046 0.158114 0.158114 
C 0.200046 0.116182 0.223607 0.059301 0.223607 0 
C 0.223607 -0.059301 0.200046 -0.116182 0.158114 -0.158114 
C 0.116182 -0.200046 0.059301 -0.223607 0 -0.223607 
C -0.059301 -0.223607 -0.116182 -0.200046 -0.158114 -0.158114 
C -0.200046 -0.116182 -0.223607 -0.059301 -0.223607 0 
C -0.223607 0.059301 -0.200046 0.116182 -0.158114 0.158114 
C -0.116182 0.200046 -0.059301 0.223607 0 0.223607 
z
" style="stroke: #9400d3"/>
    </defs>
    <g clip-path="url(#p848f147eb3)">
     <use xlink:href="#m5a7c3a6d50" x="153.798336" y="179.488224" style="fill: #9400d3; stroke: #9400d3"/>
    </g>
   </g>
   <g id="PathCollection_9">
    <defs>
     <path id="m48d9f64c95" d="M 0 0.223607 
C 0.059301 0.223607 0.116182 0.200046 0.158114 0.158114 
C 0.200046 0.116182 0.223607 0.059301 0.223607 0 
C 0.223607 -0.059301 0.200046 -0.116182 0.158114 -0.158114 
C 0.116182 -0.200046 0.059301 -0.223607 0 -0.223607 
C -0.059301 -0.223607 -0.116182 -0.200046 -0.158114 -0.158114 
C -0.200046 -0.116182 -0.223607 -0.059301 -0.223607 0 
C -0.223607 0.059301 -0.200046 0.116182 -0.158114 0.158114 
C -0.116182 0.200046 -0.059301 0.223607 0 0.223607 
z
" style="stroke: #1e90ff"/>
    </defs>
    <g clip-path="url(#p848f147eb3)">
     <use xlink:href="#m48d9f64c95" x="241.120224" y="288.823104" style="fill: #1e90ff; stroke: #1e90ff"/>
    </g>
   </g>
   <g id="PathCollection_10">
    <defs>
     <path id="m8cfa94597c" d="M 0 0.223607 
C 0.059301 0.223607 0.116182 0.200046 0.158114 0.158114 
C 0.200046 0.116182 0.223607 0.059301 0.223607 0 
C 0.223607 -0.059301 0.200046 -0.116182 0.158114 -0.158114 
C 0.116182 -0.200046 0.059301 -0.223607 0 -0.223607 
C -0.059301 -0.223607 -0.116182 -0.200046 -0.158114 -0.158114 
C -0.200046 -0.116182 -0.223607 -0.059301 -0.223607 0 
C -0.223607 0.059301 -0.200046 0.116182 -0.158114 0.158114 
C -0.116182 0.200046 -0.059301 0.223607 0 0.223607 
z
" style="stroke: #ff4500"/>
    </defs>
    <g clip-path="url(#p848f147eb3)">
     <use xlink:href="#m8cfa94597c" x="350.346808" y="169.567776" style="fill: #ff4500; stroke: #ff4500"/>
    </g>
   </g>
   <g id="PathCollection_11">
    <defs>
     <path id="m2a6a04d761" d="M 0 0.223607 
C 0.059301 0.223607 0.116182 0.200046 0.158114 0.158114 
C 0.200046 0.116182 0.223607 0.059301 0.223607 0 
C 0.223607 -0.059301 0.200046 -0.116182 0.158114 -0.158114 
C 0.116182 -0.200046 0.059301 -0.223607 0 -0.223607 
C -0.059301 -0.223607 -0.116182 -0.200046 -0.158114 -0.158114 
C -0.200046 -0.116182 -0.223607 -0.059301 -0.223607 0 
C -0.223607 0.059301 -0.200046 0.116182 -0.158114 0.158114 
C -0.116182 0.200046 -0.059301 0.223607 0 0.223607 
z
" style="stroke: #7cfc00"/>
    </defs>
    <g clip-path="url(#p848f147eb3)">
     <use xlink:href="#m2a6a04d761" x="231.199776" y="60.232896" style="fill: #7cfc00; stroke: #7cfc00"/>
    </g>
   </g>
   <g id="PathCollection_12">
    <defs>
     <path id="m1c23ed6107" d="M 0 0.223607 
C 0.059301 0.223607 0.116182 0.200046 0.158114 0.158114 
C 0.200046 0.116182 0.223607 0.059301 0.223607 0 
C 0.223607 -0.059301 0.200046 -0.116182 0.158114 -0.158114 
C 0.116182 -0.200046 0.059301 -0.223607 0 -0.223607 
C -0.059301 -0.223607 -0.116182 -0.200046 -0.158114 -0.158114 
C -0.200046 -0.116182 -0.223607 -0.059301 -0.223607 0 
C -0.223607 0.059301 -0.200046 0.116182 -0.158114 0.158114 
C -0.116182 0.200046 -0.059301 0.223607 0 0.223607 
z
" style="stroke: #ff00ff"/>
    </defs>
    <g clip-path="url(#p848f147eb3)">
     <use xlink:href="#m1c23ed6107" x="121.973192" y="179.488224" style="fill: #ff00ff; stroke: #ff00ff"/>
    </g>
   </g>
   <g id="PathCollection_13">
    <g clip-path="url(#p848f147eb3)">
     <use xlink:href="#mb40b8821cc" x="241.120224" y="224.956224" style="fill: #00008b; stroke: #00008b"/>
    </g>
   </g>
   <g id="PathCollection_14">
    <g clip-path="url(#p848f147eb3)">
     <use xlink:href="#m0d54b5c6fc" x="286.588224" y="169.567776" style="fill: #800000; stroke: #800000"/>
    </g>
   </g>
   <g id="PathCollection_15">
    <g clip-path="url(#p848f147eb3)">
     <use xlink:href="#m304cb1bb5c" x="231.199751" y="124.208072" style="fill: #006400; stroke: #006400"/>
    </g>
   </g>
   <g id="PathCollection_16">
    <g clip-path="url(#p848f147eb3)">
     <use xlink:href="#m5aab52d556" x="185.731776" y="179.488016" style="fill: #4b0082; stroke: #4b0082"/>
    </g>
   </g>
   <g id="PathCollection_17">
    <g clip-path="url(#p848f147eb3)">
     <use xlink:href="#mfdb370a919" x="241.120224" y="256.889664" style="fill: #0000ff; stroke: #0000ff"/>
    </g>
   </g>
   <g id="PathCollection_18">
    <g clip-path="url(#p848f147eb3)">
     <use xlink:href="#me5006b7339" x="318.413368" y="169.567776" style="fill: #ff0000; stroke: #ff0000"/>
    </g>
   </g>
   <g id="PathCollection_19">
    <g clip-path="url(#p848f147eb3)">
     <use xlink:href="#m062cfe9932" x="231.199776" y="92.166336" style="fill: #dbdc56; stroke: #dbdc56"/>
    </g>
   </g>
   <g id="PathCollection_20">
    <g clip-path="url(#p848f147eb3)">
     <use xlink:href="#m5a7c3a6d50" x="153.798336" y="179.488224" style="fill: #9400d3; stroke: #9400d3"/>
    </g>
   </g>
   <g id="PathCollection_21">
    <g clip-path="url(#p848f147eb3)">
     <use xlink:href="#m48d9f64c95" x="241.120224" y="288.823104" style="fill: #1e90ff; stroke: #1e90ff"/>
    </g>
   </g>
   <g id="PathCollection_22">
    <g clip-path="url(#p848f147eb3)">
     <use xlink:href="#m8cfa94597c" x="350.346808" y="169.567776" style="fill: #ff4500; stroke: #ff4500"/>
    </g>
   </g>
   <g id="PathCollection_23">
    <g clip-path="url(#p848f147eb3)">
     <use xlink:href="#m2a6a04d761" x="231.199776" y="60.232896" style="fill: #7cfc00; stroke: #7cfc00"/>
    </g>
   </g>
   <g id="PathCollection_24">
    <g clip-path="url(#p848f147eb3)">
     <use xlink:href="#m1c23ed6107" x="121.973192" y="179.488224" style="fill: #ff00ff; stroke: #ff00ff"/>
    </g>
   </g>
   <g id="PathCollection_25">
    <g clip-path="url(#p848f147eb3)">
     <use xlink:href="#mb40b8821cc" x="241.120224" y="223.483804" style="fill: #00008b; stroke: #00008b"/>
    </g>
   </g>
   <g id="PathCollection_26">
    <g clip-path="url(#p848f147eb3)">
     <use xlink:href="#m0d54b5c6fc" x="285.115804" y="169.567776" style="fill: #800000; stroke: #800000"/>
    </g>
   </g>
   <g id="PathCollection_27">
    <g clip-path="url(#p848f147eb3)">
     <use xlink:href="#m304cb1bb5c" x="231.199571" y="125.778156" style="fill: #006400; stroke: #006400"/>
    </g>
   </g>
   <g id="PathCollection_28">
    <g clip-path="url(#p848f147eb3)">
     <use xlink:href="#m5aab52d556" x="187.1937" y="179.487502" style="fill: #4b0082; stroke: #4b0082"/>
    </g>
   </g>
   <g id="PathCollection_29">
    <g clip-path="url(#p848f147eb3)">
     <use xlink:href="#mfdb370a919" x="241.120224" y="255.416389" style="fill: #0000ff; stroke: #0000ff"/>
    </g>
   </g>
   <g id="PathCollection_30">
    <g clip-path="url(#p848f147eb3)">
     <use xlink:href="#me5006b7339" x="316.841455" y="169.567776" style="fill: #ff0000; stroke: #ff0000"/>
    </g>
   </g>
   <g id="PathCollection_31">
    <g clip-path="url(#p848f147eb3)">
     <use xlink:href="#m062cfe9932" x="231.199776" y="93.629952" style="fill: #dbdc56; stroke: #dbdc56"/>
    </g>
   </g>
   <g id="PathCollection_32">
    <g clip-path="url(#p848f147eb3)">
     <use xlink:href="#m5a7c3a6d50" x="155.271611" y="179.488224" style="fill: #9400d3; stroke: #9400d3"/>
    </g>
   </g>
   <g id="PathCollection_33">
    <g clip-path="url(#p848f147eb3)">
     <use xlink:href="#m48d9f64c95" x="241.120224" y="287.359488" style="fill: #1e90ff; stroke: #1e90ff"/>
    </g>
   </g>
   <g id="PathCollection_34">
    <g clip-path="url(#p848f147eb3)">
     <use xlink:href="#m8cfa94597c" x="348.774895" y="169.567776" style="fill: #ff4500; stroke: #ff4500"/>
    </g>
   </g>
   <g id="PathCollection_35">
    <g clip-path="url(#p848f147eb3)">
     <use xlink:href="#m2a6a04d761" x="231.199776" y="61.696512" style="fill: #7cfc00; stroke: #7cfc00"/>
    </g>
   </g>
   <g id="PathCollection_36">
    <g clip-path="url(#p848f147eb3)">
     <use xlink:href="#m1c23ed6107" x="123.545105" y="179.488224" style="fill: #ff00ff; stroke: #ff00ff"/>
    </g>
   </g>
   <g id="PathCollection_37">
    <g clip-path="url(#p848f147eb3)">
     <use xlink:href="#mb40b8821cc" x="241.120224" y="222.003104" style="fill: #00008b; stroke: #00008b"/>
    </g>
   </g>
   <g id="PathCollection_38">
    <g clip-path="url(#p848f147eb3)">
     <use xlink:href="#m0d54b5c6fc" x="283.635104" y="169.567776" style="fill: #800000; stroke: #800000"/>
    </g>
   </g>
   <g id="PathCollection_39">
    <g clip-path="url(#p848f147eb3)">
     <use xlink:href="#m304cb1bb5c" x="231.199125" y="127.346384" style="fill: #006400; stroke: #006400"/>
    </g>
   </g>
   <g id="PathCollection_40">
    <g clip-path="url(#p848f147eb3)">
     <use xlink:href="#m5aab52d556" x="188.65379" y="179.486541" style="fill: #4b0082; stroke: #4b0082"/>
    </g>
   </g>
   <g id="PathCollection_41">
    <g clip-path="url(#p848f147eb3)">
     <use xlink:href="#mfdb370a919" x="241.120224" y="253.933999" style="fill: #0000ff; stroke: #0000ff"/>
    </g>
   </g>
   <g id="PathCollection_42">
    <g clip-path="url(#p848f147eb3)">
     <use xlink:href="#me5006b7339" x="315.269543" y="169.567776" style="fill: #ff0000; stroke: #ff0000"/>
    </g>
   </g>
   <g id="PathCollection_43">
    <g clip-path="url(#p848f147eb3)">
     <use xlink:href="#m062cfe9932" x="231.199776" y="95.093568" style="fill: #dbdc56; stroke: #dbdc56"/>
    </g>
   </g>
   <g id="PathCollection_44">
    <g clip-path="url(#p848f147eb3)">
     <use xlink:href="#m5a7c3a6d50" x="156.754001" y="179.488224" style="fill: #9400d3; stroke: #9400d3"/>
    </g>
   </g>
   <g id="PathCollection_45">
    <g clip-path="url(#p848f147eb3)">
     <use xlink:href="#m48d9f64c95" x="241.120224" y="285.895872" style="fill: #1e90ff; stroke: #1e90ff"/>
    </g>
   </g>
   <g id="PathCollection_46">
    <g clip-path="url(#p848f147eb3)">
     <use xlink:href="#m8cfa94597c" x="347.202983" y="169.567776" style="fill: #ff4500; stroke: #ff4500"/>
    </g>
   </g>
   <g id="PathCollection_47">
    <g clip-path="url(#p848f147eb3)">
     <use xlink:href="#m2a6a04d761" x="231.199776" y="63.160128" style="fill: #7cfc00; stroke: #7cfc00"/>
    </g>
   </g>
   <g id="PathCollection_48">
    <g clip-path="url(#p848f147eb3)">
     <use xlink:href="#m1c23ed6107" x="125.117017" y="179.488224" style="fill: #ff00ff; stroke: #ff00ff"/>
    </g>
   </g>
   <g id="matplotlib.axis_1">
    <g id="xtick_1">
     <g id="line2d_1">
      <defs>
       <path id="mb5970c091e" d="M 0 0 
L 0 3.5 
" style="stroke: #000000; stroke-width: 0.8"/>
      </defs>
      <g>
       <use xlink:href="#mb5970c091e" x="129.7152" y="307.584" style="stroke: #000000; stroke-width: 0.8"/>
      </g>
     </g>
     <g id="text_1">
      <!-- −40 -->
      <g transform="translate(119.162856 322.182437) scale(0.1 -0.1)">
       <defs>
        <path id="DejaVuSans-2212" d="M 678 2272 
L 4684 2272 
L 4684 1741 
L 678 1741 
L 678 2272 
z
" transform="scale(0.015625)"/>
        <path id="DejaVuSans-34" d="M 2419 4116 
L 825 1625 
L 2419 1625 
L 2419 4116 
z
M 2253 4666 
L 3047 4666 
L 3047 1625 
L 3713 1625 
L 3713 1100 
L 3047 1100 
L 3047 0 
L 2419 0 
L 2419 1100 
L 313 1100 
L 313 1709 
L 2253 4666 
z
" transform="scale(0.015625)"/>
        <path id="DejaVuSans-30" d="M 2034 4250 
Q 1547 4250 1301 3770 
Q 1056 3291 1056 2328 
Q 1056 1369 1301 889 
Q 1547 409 2034 409 
Q 2525 409 2770 889 
Q 3016 1369 3016 2328 
Q 3016 3291 2770 3770 
Q 2525 4250 2034 4250 
z
M 2034 4750 
Q 2819 4750 3233 4129 
Q 3647 3509 3647 2328 
Q 3647 1150 3233 529 
Q 2819 -91 2034 -91 
Q 1250 -91 836 529 
Q 422 1150 422 2328 
Q 422 3509 836 4129 
Q 1250 4750 2034 4750 
z
" transform="scale(0.015625)"/>
       </defs>
       <use xlink:href="#DejaVuSans-2212"/>
       <use xlink:href="#DejaVuSans-34" x="83.789062"/>
       <use xlink:href="#DejaVuSans-30" x="147.412109"/>
      </g>
     </g>
    </g>
    <g id="xtick_2">
     <g id="line2d_2">
      <g>
       <use xlink:href="#mb5970c091e" x="182.9376" y="307.584" style="stroke: #000000; stroke-width: 0.8"/>
      </g>
     </g>
     <g id="text_2">
      <!-- −20 -->
      <g transform="translate(172.385256 322.182437) scale(0.1 -0.1)">
       <defs>
        <path id="DejaVuSans-32" d="M 1228 531 
L 3431 531 
L 3431 0 
L 469 0 
L 469 531 
Q 828 903 1448 1529 
Q 2069 2156 2228 2338 
Q 2531 2678 2651 2914 
Q 2772 3150 2772 3378 
Q 2772 3750 2511 3984 
Q 2250 4219 1831 4219 
Q 1534 4219 1204 4116 
Q 875 4013 500 3803 
L 500 4441 
Q 881 4594 1212 4672 
Q 1544 4750 1819 4750 
Q 2544 4750 2975 4387 
Q 3406 4025 3406 3419 
Q 3406 3131 3298 2873 
Q 3191 2616 2906 2266 
Q 2828 2175 2409 1742 
Q 1991 1309 1228 531 
z
" transform="scale(0.015625)"/>
       </defs>
       <use xlink:href="#DejaVuSans-2212"/>
       <use xlink:href="#DejaVuSans-32" x="83.789062"/>
       <use xlink:href="#DejaVuSans-30" x="147.412109"/>
      </g>
     </g>
    </g>
    <g id="xtick_3">
     <g id="line2d_3">
      <g>
       <use xlink:href="#mb5970c091e" x="236.16" y="307.584" style="stroke: #000000; stroke-width: 0.8"/>
      </g>
     </g>
     <g id="text_3">
      <!-- 0 -->
      <g transform="translate(232.97875 322.182437) scale(0.1 -0.1)">
       <use xlink:href="#DejaVuSans-30"/>
      </g>
     </g>
    </g>
    <g id="xtick_4">
     <g id="line2d_4">
      <g>
       <use xlink:href="#mb5970c091e" x="289.3824" y="307.584" style="stroke: #000000; stroke-width: 0.8"/>
      </g>
     </g>
     <g id="text_4">
      <!-- 20 -->
      <g transform="translate(283.0199 322.182437) scale(0.1 -0.1)">
       <use xlink:href="#DejaVuSans-32"/>
       <use xlink:href="#DejaVuSans-30" x="63.623047"/>
      </g>
     </g>
    </g>
    <g id="xtick_5">
     <g id="line2d_5">
      <g>
       <use xlink:href="#mb5970c091e" x="342.6048" y="307.584" style="stroke: #000000; stroke-width: 0.8"/>
      </g>
     </g>
     <g id="text_5">
      <!-- 40 -->
      <g transform="translate(336.2423 322.182437) scale(0.1 -0.1)">
       <use xlink:href="#DejaVuSans-34"/>
       <use xlink:href="#DejaVuSans-30" x="63.623047"/>
      </g>
     </g>
    </g>
   </g>
   <g id="matplotlib.axis_2">
    <g id="ytick_1">
     <g id="line2d_6">
      <defs>
       <path id="me399393927" d="M 0 0 
L -3.5 0 
" style="stroke: #000000; stroke-width: 0.8"/>
      </defs>
      <g>
       <use xlink:href="#me399393927" x="103.104" y="280.9728" style="stroke: #000000; stroke-width: 0.8"/>
      </g>
     </g>
     <g id="text_6">
      <!-- −40 -->
      <g transform="translate(74.999313 284.772019) scale(0.1 -0.1)">
       <use xlink:href="#DejaVuSans-2212"/>
       <use xlink:href="#DejaVuSans-34" x="83.789062"/>
       <use xlink:href="#DejaVuSans-30" x="147.412109"/>
      </g>
     </g>
    </g>
    <g id="ytick_2">
     <g id="line2d_7">
      <g>
       <use xlink:href="#me399393927" x="103.104" y="227.7504" style="stroke: #000000; stroke-width: 0.8"/>
      </g>
     </g>
     <g id="text_7">
      <!-- −20 -->
      <g transform="translate(74.999313 231.549619) scale(0.1 -0.1)">
       <use xlink:href="#DejaVuSans-2212"/>
       <use xlink:href="#DejaVuSans-32" x="83.789062"/>
       <use xlink:href="#DejaVuSans-30" x="147.412109"/>
      </g>
     </g>
    </g>
    <g id="ytick_3">
     <g id="line2d_8">
      <g>
       <use xlink:href="#me399393927" x="103.104" y="174.528" style="stroke: #000000; stroke-width: 0.8"/>
      </g>
     </g>
     <g id="text_8">
      <!-- 0 -->
      <g transform="translate(89.7415 178.327219) scale(0.1 -0.1)">
       <use xlink:href="#DejaVuSans-30"/>
      </g>
     </g>
    </g>
    <g id="ytick_4">
     <g id="line2d_9">
      <g>
       <use xlink:href="#me399393927" x="103.104" y="121.3056" style="stroke: #000000; stroke-width: 0.8"/>
      </g>
     </g>
     <g id="text_9">
      <!-- 20 -->
      <g transform="translate(83.379 125.104819) scale(0.1 -0.1)">
       <use xlink:href="#DejaVuSans-32"/>
       <use xlink:href="#DejaVuSans-30" x="63.623047"/>
      </g>
     </g>
    </g>
    <g id="ytick_5">
     <g id="line2d_10">
      <g>
       <use xlink:href="#me399393927" x="103.104" y="68.0832" style="stroke: #000000; stroke-width: 0.8"/>
      </g>
     </g>
     <g id="text_10">
      <!-- 40 -->
      <g transform="translate(83.379 71.882419) scale(0.1 -0.1)">
       <use xlink:href="#DejaVuSans-34"/>
       <use xlink:href="#DejaVuSans-30" x="63.623047"/>
      </g>
     </g>
    </g>
   </g>
   <g id="line2d_11">
    <path d="M 248.13504 346.17024 
L 248.13504 186.50304 
" clip-path="url(#p848f147eb3)" style="fill: none; stroke: #000000; stroke-width: 0.25; stroke-linecap: square"/>
   </g>
   <g id="line2d_12">
    <path d="M 248.13504 186.50304 
L 407.80224 186.50304 
" clip-path="url(#p848f147eb3)" style="fill: none; stroke: #000000; stroke-width: 0.25; stroke-linecap: square"/>
   </g>
   <g id="line2d_13">
    <path d="M 407.80224 162.55296 
L 248.13504 162.55296 
" clip-path="url(#p848f147eb3)" style="fill: none; stroke: #000000; stroke-width: 0.25; stroke-linecap: square"/>
   </g>
   <g id="line2d_14">
    <path d="M 248.13504 162.55296 
L 248.13504 2.88576 
" clip-path="url(#p848f147eb3)" style="fill: none; stroke: #000000; stroke-width: 0.25; stroke-linecap: square"/>
   </g>
   <g id="line2d_15">
    <path d="M 224.18496 2.88576 
L 224.18496 162.55296 
" clip-path="url(#p848f147eb3)" style="fill: none; stroke: #000000; stroke-width: 0.25; stroke-linecap: square"/>
   </g>
   <g id="line2d_16">
    <path d="M 224.18496 162.55296 
L 64.51776 162.55296 
" clip-path="url(#p848f147eb3)" style="fill: none; stroke: #000000; stroke-width: 0.25; stroke-linecap: square"/>
   </g>
   <g id="line2d_17">
    <path d="M 64.51776 186.50304 
L 224.18496 186.50304 
" clip-path="url(#p848f147eb3)" style="fill: none; stroke: #000000; stroke-width: 0.25; stroke-linecap: square"/>
   </g>
   <g id="line2d_18">
    <path d="M 224.18496 186.50304 
L 224.18496 346.17024 
" clip-path="url(#p848f147eb3)" style="fill: none; stroke: #000000; stroke-width: 0.25; stroke-linecap: square"/>
   </g>
   <g id="line2d_19">
    <path d="M 248.13504 174.528 
L 407.80224 174.528 
" clip-path="url(#p848f147eb3)" style="fill: none; stroke-dasharray: 0.925,0.4; stroke-dashoffset: 0; stroke: #000000; stroke-width: 0.25"/>
   </g>
   <g id="line2d_20">
    <path d="M 236.16 162.55296 
L 236.16 2.88576 
" clip-path="url(#p848f147eb3)" style="fill: none; stroke-dasharray: 0.925,0.4; stroke-dashoffset: 0; stroke: #000000; stroke-width: 0.25"/>
   </g>
   <g id="line2d_21">
    <path d="M 224.18496 174.528 
L 64.51776 174.528 
" clip-path="url(#p848f147eb3)" style="fill: none; stroke-dasharray: 0.925,0.4; stroke-dashoffset: 0; stroke: #000000; stroke-width: 0.25"/>
   </g>
   <g id="line2d_22">
    <path d="M 236.16 186.50304 
L 236.16 346.17024 
" clip-path="url(#p848f147eb3)" style="fill: none; stroke-dasharray: 0.925,0.4; stroke-dashoffset: 0; stroke: #000000; stroke-width: 0.25"/>
   </g>
   <g id="line2d_23">
    <path d="M 241.120224 223.483804 
L 241.120224 222.003104 
L 241.120224 220.514649 
L 241.120224 219.018953 
L 241.120224 217.516525 
L 241.120224 216.007858 
L 241.120224 214.493434 
L 241.120224 212.973717 
L 241.120224 211.449156 
L 241.120224 209.920181 
L 241.120224 208.387205 
L 241.120224 206.85062 
L 241.120224 205.310797 
L 241.120224 203.768087 
L 241.120224 202.222821 
L 241.120224 200.675306 
L 241.120224 199.125828 
L 241.120224 197.574652 
L 241.120224 196.022018 
L 241.120224 194.468147 
L 241.120224 192.913234 
L 241.120224 191.357455 
L 241.120224 189.800961 
L 241.120224 188.243883 
L 241.120224 186.686328 
L 241.120224 185.128381 
L 241.120224 183.570123 
L 241.120224 182.011626 
L 241.120224 180.452958 
L 241.120224 178.894182 
L 241.120224 177.335355 
" clip-path="url(#p848f147eb3)" style="fill: none; stroke: #ff0000; stroke-width: 0.25; stroke-linecap: square"/>
   </g>
   <g id="line2d_24">
    <path d="M 285.115804 169.567776 
L 283.635104 169.567776 
L 282.146649 169.567776 
L 280.650953 169.567776 
L 279.148525 169.567776 
L 277.639858 169.567776 
L 276.125434 169.567776 
L 274.605717 169.567776 
L 273.081156 169.567776 
L 271.552181 169.567776 
L 270.019205 169.567776 
L 268.48262 169.567776 
L 266.942797 169.567776 
L 265.400087 169.567776 
L 263.854821 169.567776 
L 262.307306 169.567776 
L 260.757828 169.567776 
L 259.206652 169.567776 
L 257.654018 169.567776 
L 256.100147 169.567776 
L 254.545234 169.567776 
L 252.989455 169.567776 
L 251.432961 169.567776 
L 249.875883 169.567776 
L 248.318328 169.567776 
L 246.760381 169.567776 
L 245.202123 169.567776 
L 243.643626 169.567776 
L 242.084958 169.567776 
L 240.526182 169.567776 
L 238.967355 169.567776 
" clip-path="url(#p848f147eb3)" style="fill: none; stroke: #ff0000; stroke-width: 0.25; stroke-linecap: square"/>
   </g>
   <g id="line2d_25">
    <path d="M 231.199571 125.778156 
L 231.199125 127.346384 
L 231.198223 128.912721 
L 231.196613 130.477172 
L 231.194113 132.03974 
L 231.190538 133.600431 
L 231.185696 135.159248 
L 231.179409 136.716199 
L 231.171522 138.271289 
L 231.161931 139.824528 
L 231.150614 141.375929 
L 231.137674 142.925507 
L 231.123393 144.473286 
L 231.108299 146.019297 
L 231.093245 147.563579 
L 231.079502 149.106184 
L 231.06886 150.64717 
L 231.063746 152.186595 
L 231.067333 153.724499 
L 231.083648 155.26087 
L 231.117665 156.795586 
L 231.175347 158.328328 
L 231.263634 159.858458 
L 231.390318 161.38486 
L 231.563744 162.905774 
L 231.788007 164.419301 
L 232.066567 165.923201 
L 232.397151 167.416082 
L 232.771688 168.898226 
L 233.176903 170.372072 
L 233.595371 171.842111 
" clip-path="url(#p848f147eb3)" style="fill: none; stroke: #ff0000; stroke-width: 0.25; stroke-linecap: square"/>
   </g>
   <g id="line2d_26">
    <path d="M 187.1937 179.487502 
L 188.65379 179.486541 
L 190.111824 179.485136 
L 191.567792 179.482982 
L 193.021688 179.479919 
L 194.473503 179.475784 
L 195.92323 179.470415 
L 197.370863 179.463666 
L 198.816397 179.455417 
L 200.259831 179.445595 
L 201.701164 179.434202 
L 203.140403 179.421347 
L 204.577559 179.40729 
L 206.012651 179.39249 
L 207.445709 179.377671 
L 208.876772 179.363887 
L 210.305888 179.352608 
L 211.733109 179.345803 
L 213.158479 179.346033 
L 214.58201 179.356546 
L 216.003644 179.381355 
L 217.423187 179.425313 
L 218.840224 179.494138 
L 220.25399 179.594399 
L 221.663222 179.733404 
L 223.065992 179.918951 
L 224.459582 180.158857 
L 225.841942 180.453419 
L 227.21147 180.800783 
L 228.569886 181.188157 
L 229.92288 181.59352 
" clip-path="url(#p848f147eb3)" style="fill: none; stroke: #ff0000; stroke-width: 0.25; stroke-linecap: square"/>
   </g>
   <g id="line2d_27">
    <path d="M 241.120224 255.416389 
L 241.120224 253.933999 
L 241.120224 252.443035 
L 241.120224 250.944014 
L 241.120224 249.437447 
L 241.120224 247.923831 
L 241.120224 246.403648 
L 241.120224 244.877369 
L 241.120224 243.345445 
L 241.120224 241.808313 
L 241.120224 240.266391 
L 241.120224 238.720079 
L 241.120224 237.169759 
L 241.120224 235.615794 
L 241.120224 234.058529 
L 241.120224 232.498288 
L 241.120224 230.935379 
L 241.120224 229.37009 
L 241.120224 227.80269 
L 241.120224 226.233432 
L 241.120224 224.66255 
L 241.120224 223.090264 
L 241.120224 221.516775 
L 241.120224 219.942269 
L 241.120224 218.366919 
L 241.120224 216.79088 
L 241.120224 215.214297 
L 241.120224 213.637301 
L 241.120224 212.060011 
L 241.120224 210.482535 
L 241.120224 208.904971 
" clip-path="url(#p848f147eb3)" style="fill: none; stroke: #ff0000; stroke-width: 0.25; stroke-linecap: square"/>
   </g>
   <g id="line2d_28">
    <path d="M 316.841455 169.567776 
L 315.269543 169.567776 
L 313.69763 169.567776 
L 312.125718 169.567776 
L 310.553806 169.567776 
L 308.981893 169.567776 
L 307.409981 169.567776 
L 305.838068 169.567776 
L 304.266156 169.567776 
L 302.694243 169.567776 
L 301.122331 169.567776 
L 299.550419 169.567776 
L 297.978506 169.567776 
L 296.406594 169.567776 
L 294.834681 169.567776 
L 293.262769 169.567776 
L 291.690857 169.567776 
L 290.118944 169.567776 
L 288.547032 169.567776 
L 286.975119 169.567776 
L 285.403207 169.567776 
L 283.831295 169.567776 
L 282.259382 169.567776 
L 280.68747 169.567776 
L 279.115557 169.567776 
L 277.543645 169.567776 
L 275.971732 169.567776 
L 274.39982 169.567776 
L 272.827908 169.567776 
L 271.255995 169.567776 
L 269.684083 169.567776 
" clip-path="url(#p848f147eb3)" style="fill: none; stroke: #ff0000; stroke-width: 0.25; stroke-linecap: square"/>
   </g>
   <g id="line2d_29">
    <path d="M 231.199776 93.629952 
L 231.199776 95.093568 
L 231.199776 96.557184 
L 231.199776 98.0208 
L 231.199776 99.484416 
L 231.199776 100.948032 
L 231.199776 102.411648 
L 231.199776 103.875264 
L 231.199776 105.33888 
L 231.199776 106.802496 
L 231.199776 108.266112 
L 231.199776 109.729728 
L 231.199776 111.193344 
L 231.199776 112.65696 
L 231.199776 114.120576 
L 231.199776 115.584192 
L 231.199776 117.047808 
L 231.199776 118.511424 
L 231.199776 119.97504 
L 231.199776 121.438656 
L 231.199776 122.902272 
L 231.199776 124.365888 
L 231.199776 125.829504 
L 231.199776 127.29312 
L 231.199776 128.756736 
L 231.199776 130.220352 
L 231.199776 131.683968 
L 231.199776 133.147584 
L 231.199776 134.6112 
L 231.199776 136.074816 
L 231.199776 137.538432 
" clip-path="url(#p848f147eb3)" style="fill: none; stroke: #ff0000; stroke-width: 0.25; stroke-linecap: square"/>
   </g>
   <g id="line2d_30">
    <path d="M 155.271611 179.488224 
L 156.754001 179.488224 
L 158.244965 179.488224 
L 159.743986 179.488224 
L 161.250553 179.488224 
L 162.764169 179.488224 
L 164.284352 179.488224 
L 165.810631 179.488224 
L 167.342555 179.488224 
L 168.879687 179.488224 
L 170.421609 179.488224 
L 171.967921 179.488224 
L 173.518241 179.488224 
L 175.072206 179.488224 
L 176.629471 179.488224 
L 178.189712 179.488224 
L 179.752621 179.488224 
L 181.31791 179.488224 
L 182.88531 179.488224 
L 184.454568 179.488224 
L 186.02545 179.488224 
L 187.597736 179.488224 
L 189.171225 179.488224 
L 190.745731 179.488224 
L 192.321081 179.488224 
L 193.89712 179.488224 
L 195.473703 179.488224 
L 197.050699 179.488224 
L 198.627989 179.488224 
L 200.205465 179.488224 
L 201.783029 179.488224 
" clip-path="url(#p848f147eb3)" style="fill: none; stroke: #ff0000; stroke-width: 0.25; stroke-linecap: square"/>
   </g>
   <g id="line2d_31">
    <path d="M 241.120224 287.359488 
L 241.120224 285.895872 
L 241.120224 284.432256 
L 241.120224 282.96864 
L 241.120224 281.505024 
L 241.120224 280.041408 
L 241.120224 278.577792 
L 241.120224 277.114176 
L 241.120224 275.65056 
L 241.120224 274.186944 
L 241.120224 272.723328 
L 241.120224 271.259712 
L 241.120224 269.796096 
L 241.120224 268.33248 
L 241.120224 266.868864 
L 241.120224 265.405248 
L 241.120224 263.941632 
L 241.120224 262.478016 
L 241.120224 261.0144 
L 241.120224 259.550784 
L 241.120224 258.087168 
L 241.120224 256.623552 
L 241.120224 255.159936 
L 241.120224 253.69632 
L 241.120224 252.232704 
L 241.120224 250.769088 
L 241.120224 249.305472 
L 241.120224 247.841856 
L 241.120224 246.37824 
L 241.120224 244.914624 
L 241.120224 243.451008 
" clip-path="url(#p848f147eb3)" style="fill: none; stroke: #ff0000; stroke-width: 0.25; stroke-linecap: square"/>
   </g>
   <g id="line2d_32">
    <path d="M 348.774895 169.567776 
L 347.202983 169.567776 
L 345.63107 169.567776 
L 344.059158 169.567776 
L 342.487246 169.567776 
L 340.915333 169.567776 
L 339.343421 169.567776 
L 337.771508 169.567776 
L 336.199596 169.567776 
L 334.627683 169.567776 
L 333.055771 169.567776 
L 331.483859 169.567776 
L 329.911946 169.567776 
L 328.340034 169.567776 
L 326.768121 169.567776 
L 325.196209 169.567776 
L 323.624297 169.567776 
L 322.052384 169.567776 
L 320.480472 169.567776 
L 318.908559 169.567776 
L 317.336647 169.567776 
L 315.764735 169.567776 
L 314.192822 169.567776 
L 312.62091 169.567776 
L 311.048997 169.567776 
L 309.477085 169.567776 
L 307.905172 169.567776 
L 306.33326 169.567776 
L 304.761348 169.567776 
L 303.189435 169.567776 
L 301.617523 169.567776 
" clip-path="url(#p848f147eb3)" style="fill: none; stroke: #ff0000; stroke-width: 0.25; stroke-linecap: square"/>
   </g>
   <g id="line2d_33">
    <path d="M 231.199776 61.696512 
L 231.199776 63.160128 
L 231.199776 64.623744 
L 231.199776 66.08736 
L 231.199776 67.550976 
L 231.199776 69.014592 
L 231.199776 70.478208 
L 231.199776 71.941824 
L 231.199776 73.40544 
L 231.199776 74.869056 
L 231.199776 76.332672 
L 231.199776 77.796288 
L 231.199776 79.259904 
L 231.199776 80.72352 
L 231.199776 82.187136 
L 231.199776 83.650752 
L 231.199776 85.114368 
L 231.199776 86.577984 
L 231.199776 88.0416 
L 231.199776 89.505216 
L 231.199776 90.968832 
L 231.199776 92.432448 
L 231.199776 93.896064 
L 231.199776 95.35968 
L 231.199776 96.823296 
L 231.199776 98.286912 
L 231.199776 99.750528 
L 231.199776 101.214144 
L 231.199776 102.67776 
L 231.199776 104.141376 
L 231.199776 105.604992 
" clip-path="url(#p848f147eb3)" style="fill: none; stroke: #ff0000; stroke-width: 0.25; stroke-linecap: square"/>
   </g>
   <g id="line2d_34">
    <path d="M 123.545105 179.488224 
L 125.117017 179.488224 
L 126.68893 179.488224 
L 128.260842 179.488224 
L 129.832754 179.488224 
L 131.404667 179.488224 
L 132.976579 179.488224 
L 134.548492 179.488224 
L 136.120404 179.488224 
L 137.692317 179.488224 
L 139.264229 179.488224 
L 140.836141 179.488224 
L 142.408054 179.488224 
L 143.979966 179.488224 
L 145.551879 179.488224 
L 147.123791 179.488224 
L 148.695703 179.488224 
L 150.267616 179.488224 
L 151.839528 179.488224 
L 153.411441 179.488224 
L 154.983353 179.488224 
L 156.555265 179.488224 
L 158.127178 179.488224 
L 159.69909 179.488224 
L 161.271003 179.488224 
L 162.842915 179.488224 
L 164.414828 179.488224 
L 165.98674 179.488224 
L 167.558652 179.488224 
L 169.130565 179.488224 
L 170.702477 179.488224 
" clip-path="url(#p848f147eb3)" style="fill: none; stroke: #ff0000; stroke-width: 0.25; stroke-linecap: square"/>
   </g>
   <g id="patch_15">
    <path d="M 103.104 307.584 
L 103.104 41.472 
" style="fill: none; stroke: #000000; stroke-width: 0.8; stroke-linejoin: miter; stroke-linecap: square"/>
   </g>
   <g id="patch_16">
    <path d="M 369.216 307.584 
L 369.216 41.472 
" style="fill: none; stroke: #000000; stroke-width: 0.8; stroke-linejoin: miter; stroke-linecap: square"/>
   </g>
   <g id="patch_17">
    <path d="M 103.104 307.584 
L 369.216 307.584 
" style="fill: none; stroke: #000000; stroke-width: 0.8; stroke-linejoin: miter; stroke-linecap: square"/>
   </g>
   <g id="patch_18">
    <path d="M 103.104 41.472 
L 369.216 41.472 
" style="fill: none; stroke: #000000; stroke-width: 0.8; stroke-linejoin: miter; stroke-linecap: square"/>
   </g>
   <g id="text_11">
    <!-- Time:   2 ms -->
    <g transform="translate(267.438262 54.7776) scale(0.1 -0.1)">
     <defs>
      <path id="DejaVuSans-54" d="M -19 4666 
L 3928 4666 
L 3928 4134 
L 2272 4134 
L 2272 0 
L 1638 0 
L 1638 4134 
L -19 4134 
L -19 4666 
z
" transform="scale(0.015625)"/>
      <path id="DejaVuSans-69" d="M 603 3500 
L 1178 3500 
L 1178 0 
L 603 0 
L 603 3500 
z
M 603 4863 
L 1178 4863 
L 1178 4134 
L 603 4134 
L 603 4863 
z
" transform="scale(0.015625)"/>
      <path id="DejaVuSans-6d" d="M 3328 2828 
Q 3544 3216 3844 3400 
Q 4144 3584 4550 3584 
Q 5097 3584 5394 3201 
Q 5691 2819 5691 2113 
L 5691 0 
L 5113 0 
L 5113 2094 
Q 5113 2597 4934 2840 
Q 4756 3084 4391 3084 
Q 3944 3084 3684 2787 
Q 3425 2491 3425 1978 
L 3425 0 
L 2847 0 
L 2847 2094 
Q 2847 2600 2669 2842 
Q 2491 3084 2119 3084 
Q 1678 3084 1418 2786 
Q 1159 2488 1159 1978 
L 1159 0 
L 581 0 
L 581 3500 
L 1159 3500 
L 1159 2956 
Q 1356 3278 1631 3431 
Q 1906 3584 2284 3584 
Q 2666 3584 2933 3390 
Q 3200 3197 3328 2828 
z
" transform="scale(0.015625)"/>
      <path id="DejaVuSans-65" d="M 3597 1894 
L 3597 1613 
L 953 1613 
Q 991 1019 1311 708 
Q 1631 397 2203 397 
Q 2534 397 2845 478 
Q 3156 559 3463 722 
L 3463 178 
Q 3153 47 2828 -22 
Q 2503 -91 2169 -91 
Q 1331 -91 842 396 
Q 353 884 353 1716 
Q 353 2575 817 3079 
Q 1281 3584 2069 3584 
Q 2775 3584 3186 3129 
Q 3597 2675 3597 1894 
z
M 3022 2063 
Q 3016 2534 2758 2815 
Q 2500 3097 2075 3097 
Q 1594 3097 1305 2825 
Q 1016 2553 972 2059 
L 3022 2063 
z
" transform="scale(0.015625)"/>
      <path id="DejaVuSans-3a" d="M 750 794 
L 1409 794 
L 1409 0 
L 750 0 
L 750 794 
z
M 750 3309 
L 1409 3309 
L 1409 2516 
L 750 2516 
L 750 3309 
z
" transform="scale(0.015625)"/>
      <path id="DejaVuSans-20" transform="scale(0.015625)"/>
      <path id="DejaVuSans-73" d="M 2834 3397 
L 2834 2853 
Q 2591 2978 2328 3040 
Q 2066 3103 1784 3103 
Q 1356 3103 1142 2972 
Q 928 2841 928 2578 
Q 928 2378 1081 2264 
Q 1234 2150 1697 2047 
L 1894 2003 
Q 2506 1872 2764 1633 
Q 3022 1394 3022 966 
Q 3022 478 2636 193 
Q 2250 -91 1575 -91 
Q 1294 -91 989 -36 
Q 684 19 347 128 
L 347 722 
Q 666 556 975 473 
Q 1284 391 1588 391 
Q 1994 391 2212 530 
Q 2431 669 2431 922 
Q 2431 1156 2273 1281 
Q 2116 1406 1581 1522 
L 1381 1569 
Q 847 1681 609 1914 
Q 372 2147 372 2553 
Q 372 3047 722 3315 
Q 1072 3584 1716 3584 
Q 2034 3584 2315 3537 
Q 2597 3491 2834 3397 
z
" transform="scale(0.015625)"/>
     </defs>
     <use xlink:href="#DejaVuSans-54"/>
     <use xlink:href="#DejaVuSans-69" x="57.958984"/>
     <use xlink:href="#DejaVuSans-6d" x="85.742188"/>
     <use xlink:href="#DejaVuSans-65" x="183.154297"/>
     <use xlink:href="#DejaVuSans-3a" x="244.677734"/>
     <use xlink:href="#DejaVuSans-20" x="278.369141"/>
     <use xlink:href="#DejaVuSans-20" x="310.15625"/>
     <use xlink:href="#DejaVuSans-20" x="341.943359"/>
     <use xlink:href="#DejaVuSans-32" x="373.730469"/>
     <use xlink:href="#DejaVuSans-20" x="437.353516"/>
     <use xlink:href="#DejaVuSans-6d" x="469.140625"/>
     <use xlink:href="#DejaVuSans-73" x="566.552734"/>
    </g>
   </g>
  </g>
 </g>
 <defs>
  <clipPath id="p848f147eb3">
   <rect x="103.104" y="41.472" width="266.112" height="266.112"/>
  </clipPath>
 </defs>
</svg>
