<?xml version="1.0" encoding="utf-8" standalone="no"?>
<!DOCTYPE svg PUBLIC "-//W3C//DTD SVG 1.1//EN"
  "http://www.w3.org/Graphics/SVG/1.1/DTD/svg11.dtd">
<svg xmlns:xlink="http://www.w3.org/1999/xlink" width="460.8pt" height="345.6pt" viewBox="0 0 460.8 345.6" xmlns="http://www.w3.org/2000/svg" version="1.1">
 <metadata>
  <rdf:RDF xmlns:dc="http://purl.org/dc/elements/1.1/" xmlns:cc="http://creativecommons.org/ns#" xmlns:rdf="http://www.w3.org/1999/02/22-rdf-syntax-ns#">
   <cc:Work>
    <dc:type rdf:resource="http://purl.org/dc/dcmitype/StillImage"/>
    <dc:date>2024-01-23T16:31:25.278483</dc:date>
    <dc:format>image/svg+xml</dc:format>
    <dc:creator>
     <cc:Agent>
      <dc:title>Matplotlib v3.8.2, https://matplotlib.org/</dc:title>
     </cc:Agent>
    </dc:creator>
   </cc:Work>
  </rdf:RDF>
 </metadata>
 <defs>
  <style type="text/css">*{stroke-linejoin: round; stroke-linecap: butt}</style>
 </defs>
 <g id="figure_1">
  <g id="patch_1">
   <path d="M 0 345.6 
L 460.8 345.6 
L 460.8 0 
L 0 0 
z
" style="fill: #ffffff"/>
  </g>
  <g id="axes_1">
   <g id="patch_2">
    <path d="M 103.104 307.584 
L 369.216 307.584 
L 369.216 41.472 
L 103.104 41.472 
z
" style="fill: #ffffff"/>
   </g>
   <g id="patch_3">
    <path d="M 244.86201 209.004661 
L 244.828746 197.362308 
L 239.173889 197.378465 
L 239.207153 209.020817 
z
" clip-path="url(#p4c455d0a33)" style="fill: #00008b"/>
   </g>
   <g id="patch_4">
    <path d="M 271.697958 165.919251 
L 260.058302 166.172013 
L 260.181072 171.82556 
L 271.820728 171.572798 
z
" clip-path="url(#p4c455d0a33)" style="fill: #800000"/>
   </g>
   <g id="patch_5">
    <path d="M 227.477053 139.866121 
L 227.484986 151.508519 
L 233.139864 151.504665 
L 233.131931 139.862268 
z
" clip-path="url(#p4c455d0a33)" style="fill: #006400"/>
   </g>
   <g id="patch_6">
    <path d="M 201.48671 183.208156 
L 213.12911 183.204666 
L 213.127415 177.549786 
L 201.485015 177.553276 
z
" clip-path="url(#p4c455d0a33)" style="fill: #4b0082"/>
   </g>
   <g id="patch_7">
    <path d="M 244.84326 258.994801 
L 244.843257 247.352401 
L 239.188377 247.352402 
L 239.18838 258.994802 
z
" clip-path="url(#p4c455d0a33)" style="fill: #0000ff"/>
   </g>
   <g id="patch_8">
    <path d="M 320.6268 165.84474 
L 308.9844 165.844744 
L 308.984402 171.499624 
L 320.626802 171.49962 
z
" clip-path="url(#p4c455d0a33)" style="fill: #ff0000"/>
   </g>
   <g id="patch_9">
    <path d="M 227.476732 90.2842 
L 227.476745 101.9266 
L 233.131625 101.926594 
L 233.131612 90.284194 
z
" clip-path="url(#p4c455d0a33)" style="fill: #dbdc56"/>
   </g>
   <g id="patch_10">
    <path d="M 148.352812 183.21126 
L 159.995212 183.21126 
L 159.995212 177.55638 
L 148.352812 177.55638 
z
" clip-path="url(#p4c455d0a33)" style="fill: #9400d3"/>
   </g>
   <g id="patch_11">
    <path d="M 244.84326 309.981231 
L 244.84326 298.338831 
L 239.18838 298.338831 
L 239.18838 309.981231 
z
" clip-path="url(#p4c455d0a33)" style="fill: #1e90ff"/>
   </g>
   <g id="patch_12">
    <path d="M 366.735188 165.84474 
L 355.092788 165.84474 
L 355.092788 171.49962 
L 366.735188 171.49962 
z
" clip-path="url(#p4c455d0a33)" style="fill: #ff4500"/>
   </g>
   <g id="patch_13">
    <path d="M 227.47674 39.074769 
L 227.47674 50.717169 
L 233.13162 50.717169 
L 233.13162 39.074769 
z
" clip-path="url(#p4c455d0a33)" style="fill: #7cfc00"/>
   </g>
   <g id="patch_14">
    <path d="M 100.706769 183.21126 
L 112.349169 183.21126 
L 112.349169 177.55638 
L 100.706769 177.55638 
z
" clip-path="url(#p4c455d0a33)" style="fill: #ff00ff"/>
   </g>
   <g id="matplotlib.axis_1">
    <g id="xtick_1">
     <g id="line2d_1">
      <defs>
       <path id="ma28d16202d" d="M 0 0 
L 0 3.5 
" style="stroke: #000000; stroke-width: 0.8"/>
      </defs>
      <g>
       <use xlink:href="#ma28d16202d" x="103.104" y="307.584" style="stroke: #000000; stroke-width: 0.8"/>
      </g>
     </g>
     <g id="text_1">
      <!-- −40 -->
      <g transform="translate(92.551656 322.182437) scale(0.1 -0.1)">
       <defs>
        <path id="DejaVuSans-2212" d="M 678 2272 
L 4684 2272 
L 4684 1741 
L 678 1741 
L 678 2272 
z
" transform="scale(0.015625)"/>
        <path id="DejaVuSans-34" d="M 2419 4116 
L 825 1625 
L 2419 1625 
L 2419 4116 
z
M 2253 4666 
L 3047 4666 
L 3047 1625 
L 3713 1625 
L 3713 1100 
L 3047 1100 
L 3047 0 
L 2419 0 
L 2419 1100 
L 313 1100 
L 313 1709 
L 2253 4666 
z
" transform="scale(0.015625)"/>
        <path id="DejaVuSans-30" d="M 2034 4250 
Q 1547 4250 1301 3770 
Q 1056 3291 1056 2328 
Q 1056 1369 1301 889 
Q 1547 409 2034 409 
Q 2525 409 2770 889 
Q 3016 1369 3016 2328 
Q 3016 3291 2770 3770 
Q 2525 4250 2034 4250 
z
M 2034 4750 
Q 2819 4750 3233 4129 
Q 3647 3509 3647 2328 
Q 3647 1150 3233 529 
Q 2819 -91 2034 -91 
Q 1250 -91 836 529 
Q 422 1150 422 2328 
Q 422 3509 836 4129 
Q 1250 4750 2034 4750 
z
" transform="scale(0.015625)"/>
       </defs>
       <use xlink:href="#DejaVuSans-2212"/>
       <use xlink:href="#DejaVuSans-34" x="83.789062"/>
       <use xlink:href="#DejaVuSans-30" x="147.412109"/>
      </g>
     </g>
    </g>
    <g id="xtick_2">
     <g id="line2d_2">
      <g>
       <use xlink:href="#ma28d16202d" x="136.368" y="307.584" style="stroke: #000000; stroke-width: 0.8"/>
      </g>
     </g>
     <g id="text_2">
      <!-- −30 -->
      <g transform="translate(125.815656 322.182437) scale(0.1 -0.1)">
       <defs>
        <path id="DejaVuSans-33" d="M 2597 2516 
Q 3050 2419 3304 2112 
Q 3559 1806 3559 1356 
Q 3559 666 3084 287 
Q 2609 -91 1734 -91 
Q 1441 -91 1130 -33 
Q 819 25 488 141 
L 488 750 
Q 750 597 1062 519 
Q 1375 441 1716 441 
Q 2309 441 2620 675 
Q 2931 909 2931 1356 
Q 2931 1769 2642 2001 
Q 2353 2234 1838 2234 
L 1294 2234 
L 1294 2753 
L 1863 2753 
Q 2328 2753 2575 2939 
Q 2822 3125 2822 3475 
Q 2822 3834 2567 4026 
Q 2313 4219 1838 4219 
Q 1578 4219 1281 4162 
Q 984 4106 628 3988 
L 628 4550 
Q 988 4650 1302 4700 
Q 1616 4750 1894 4750 
Q 2613 4750 3031 4423 
Q 3450 4097 3450 3541 
Q 3450 3153 3228 2886 
Q 3006 2619 2597 2516 
z
" transform="scale(0.015625)"/>
       </defs>
       <use xlink:href="#DejaVuSans-2212"/>
       <use xlink:href="#DejaVuSans-33" x="83.789062"/>
       <use xlink:href="#DejaVuSans-30" x="147.412109"/>
      </g>
     </g>
    </g>
    <g id="xtick_3">
     <g id="line2d_3">
      <g>
       <use xlink:href="#ma28d16202d" x="169.632" y="307.584" style="stroke: #000000; stroke-width: 0.8"/>
      </g>
     </g>
     <g id="text_3">
      <!-- −20 -->
      <g transform="translate(159.079656 322.182437) scale(0.1 -0.1)">
       <defs>
        <path id="DejaVuSans-32" d="M 1228 531 
L 3431 531 
L 3431 0 
L 469 0 
L 469 531 
Q 828 903 1448 1529 
Q 2069 2156 2228 2338 
Q 2531 2678 2651 2914 
Q 2772 3150 2772 3378 
Q 2772 3750 2511 3984 
Q 2250 4219 1831 4219 
Q 1534 4219 1204 4116 
Q 875 4013 500 3803 
L 500 4441 
Q 881 4594 1212 4672 
Q 1544 4750 1819 4750 
Q 2544 4750 2975 4387 
Q 3406 4025 3406 3419 
Q 3406 3131 3298 2873 
Q 3191 2616 2906 2266 
Q 2828 2175 2409 1742 
Q 1991 1309 1228 531 
z
" transform="scale(0.015625)"/>
       </defs>
       <use xlink:href="#DejaVuSans-2212"/>
       <use xlink:href="#DejaVuSans-32" x="83.789062"/>
       <use xlink:href="#DejaVuSans-30" x="147.412109"/>
      </g>
     </g>
    </g>
    <g id="xtick_4">
     <g id="line2d_4">
      <g>
       <use xlink:href="#ma28d16202d" x="202.896" y="307.584" style="stroke: #000000; stroke-width: 0.8"/>
      </g>
     </g>
     <g id="text_4">
      <!-- −10 -->
      <g transform="translate(192.343656 322.182437) scale(0.1 -0.1)">
       <defs>
        <path id="DejaVuSans-31" d="M 794 531 
L 1825 531 
L 1825 4091 
L 703 3866 
L 703 4441 
L 1819 4666 
L 2450 4666 
L 2450 531 
L 3481 531 
L 3481 0 
L 794 0 
L 794 531 
z
" transform="scale(0.015625)"/>
       </defs>
       <use xlink:href="#DejaVuSans-2212"/>
       <use xlink:href="#DejaVuSans-31" x="83.789062"/>
       <use xlink:href="#DejaVuSans-30" x="147.412109"/>
      </g>
     </g>
    </g>
    <g id="xtick_5">
     <g id="line2d_5">
      <g>
       <use xlink:href="#ma28d16202d" x="236.16" y="307.584" style="stroke: #000000; stroke-width: 0.8"/>
      </g>
     </g>
     <g id="text_5">
      <!-- 0 -->
      <g transform="translate(232.97875 322.182437) scale(0.1 -0.1)">
       <use xlink:href="#DejaVuSans-30"/>
      </g>
     </g>
    </g>
    <g id="xtick_6">
     <g id="line2d_6">
      <g>
       <use xlink:href="#ma28d16202d" x="269.424" y="307.584" style="stroke: #000000; stroke-width: 0.8"/>
      </g>
     </g>
     <g id="text_6">
      <!-- 10 -->
      <g transform="translate(263.0615 322.182437) scale(0.1 -0.1)">
       <use xlink:href="#DejaVuSans-31"/>
       <use xlink:href="#DejaVuSans-30" x="63.623047"/>
      </g>
     </g>
    </g>
    <g id="xtick_7">
     <g id="line2d_7">
      <g>
       <use xlink:href="#ma28d16202d" x="302.688" y="307.584" style="stroke: #000000; stroke-width: 0.8"/>
      </g>
     </g>
     <g id="text_7">
      <!-- 20 -->
      <g transform="translate(296.3255 322.182437) scale(0.1 -0.1)">
       <use xlink:href="#DejaVuSans-32"/>
       <use xlink:href="#DejaVuSans-30" x="63.623047"/>
      </g>
     </g>
    </g>
    <g id="xtick_8">
     <g id="line2d_8">
      <g>
       <use xlink:href="#ma28d16202d" x="335.952" y="307.584" style="stroke: #000000; stroke-width: 0.8"/>
      </g>
     </g>
     <g id="text_8">
      <!-- 30 -->
      <g transform="translate(329.5895 322.182437) scale(0.1 -0.1)">
       <use xlink:href="#DejaVuSans-33"/>
       <use xlink:href="#DejaVuSans-30" x="63.623047"/>
      </g>
     </g>
    </g>
    <g id="xtick_9">
     <g id="line2d_9">
      <g>
       <use xlink:href="#ma28d16202d" x="369.216" y="307.584" style="stroke: #000000; stroke-width: 0.8"/>
      </g>
     </g>
     <g id="text_9">
      <!-- 40 -->
      <g transform="translate(362.8535 322.182437) scale(0.1 -0.1)">
       <use xlink:href="#DejaVuSans-34"/>
       <use xlink:href="#DejaVuSans-30" x="63.623047"/>
      </g>
     </g>
    </g>
   </g>
   <g id="matplotlib.axis_2">
    <g id="ytick_1">
     <g id="line2d_10">
      <defs>
       <path id="mfccce755cd" d="M 0 0 
L -3.5 0 
" style="stroke: #000000; stroke-width: 0.8"/>
      </defs>
      <g>
       <use xlink:href="#mfccce755cd" x="103.104" y="307.584" style="stroke: #000000; stroke-width: 0.8"/>
      </g>
     </g>
     <g id="text_10">
      <!-- −40 -->
      <g transform="translate(74.999313 311.383219) scale(0.1 -0.1)">
       <use xlink:href="#DejaVuSans-2212"/>
       <use xlink:href="#DejaVuSans-34" x="83.789062"/>
       <use xlink:href="#DejaVuSans-30" x="147.412109"/>
      </g>
     </g>
    </g>
    <g id="ytick_2">
     <g id="line2d_11">
      <g>
       <use xlink:href="#mfccce755cd" x="103.104" y="274.32" style="stroke: #000000; stroke-width: 0.8"/>
      </g>
     </g>
     <g id="text_11">
      <!-- −30 -->
      <g transform="translate(74.999313 278.119219) scale(0.1 -0.1)">
       <use xlink:href="#DejaVuSans-2212"/>
       <use xlink:href="#DejaVuSans-33" x="83.789062"/>
       <use xlink:href="#DejaVuSans-30" x="147.412109"/>
      </g>
     </g>
    </g>
    <g id="ytick_3">
     <g id="line2d_12">
      <g>
       <use xlink:href="#mfccce755cd" x="103.104" y="241.056" style="stroke: #000000; stroke-width: 0.8"/>
      </g>
     </g>
     <g id="text_12">
      <!-- −20 -->
      <g transform="translate(74.999313 244.855219) scale(0.1 -0.1)">
       <use xlink:href="#DejaVuSans-2212"/>
       <use xlink:href="#DejaVuSans-32" x="83.789062"/>
       <use xlink:href="#DejaVuSans-30" x="147.412109"/>
      </g>
     </g>
    </g>
    <g id="ytick_4">
     <g id="line2d_13">
      <g>
       <use xlink:href="#mfccce755cd" x="103.104" y="207.792" style="stroke: #000000; stroke-width: 0.8"/>
      </g>
     </g>
     <g id="text_13">
      <!-- −10 -->
      <g transform="translate(74.999313 211.591219) scale(0.1 -0.1)">
       <use xlink:href="#DejaVuSans-2212"/>
       <use xlink:href="#DejaVuSans-31" x="83.789062"/>
       <use xlink:href="#DejaVuSans-30" x="147.412109"/>
      </g>
     </g>
    </g>
    <g id="ytick_5">
     <g id="line2d_14">
      <g>
       <use xlink:href="#mfccce755cd" x="103.104" y="174.528" style="stroke: #000000; stroke-width: 0.8"/>
      </g>
     </g>
     <g id="text_14">
      <!-- 0 -->
      <g transform="translate(89.7415 178.327219) scale(0.1 -0.1)">
       <use xlink:href="#DejaVuSans-30"/>
      </g>
     </g>
    </g>
    <g id="ytick_6">
     <g id="line2d_15">
      <g>
       <use xlink:href="#mfccce755cd" x="103.104" y="141.264" style="stroke: #000000; stroke-width: 0.8"/>
      </g>
     </g>
     <g id="text_15">
      <!-- 10 -->
      <g transform="translate(83.379 145.063219) scale(0.1 -0.1)">
       <use xlink:href="#DejaVuSans-31"/>
       <use xlink:href="#DejaVuSans-30" x="63.623047"/>
      </g>
     </g>
    </g>
    <g id="ytick_7">
     <g id="line2d_16">
      <g>
       <use xlink:href="#mfccce755cd" x="103.104" y="108" style="stroke: #000000; stroke-width: 0.8"/>
      </g>
     </g>
     <g id="text_16">
      <!-- 20 -->
      <g transform="translate(83.379 111.799219) scale(0.1 -0.1)">
       <use xlink:href="#DejaVuSans-32"/>
       <use xlink:href="#DejaVuSans-30" x="63.623047"/>
      </g>
     </g>
    </g>
    <g id="ytick_8">
     <g id="line2d_17">
      <g>
       <use xlink:href="#mfccce755cd" x="103.104" y="74.736" style="stroke: #000000; stroke-width: 0.8"/>
      </g>
     </g>
     <g id="text_17">
      <!-- 30 -->
      <g transform="translate(83.379 78.535219) scale(0.1 -0.1)">
       <use xlink:href="#DejaVuSans-33"/>
       <use xlink:href="#DejaVuSans-30" x="63.623047"/>
      </g>
     </g>
    </g>
    <g id="ytick_9">
     <g id="line2d_18">
      <g>
       <use xlink:href="#mfccce755cd" x="103.104" y="41.472" style="stroke: #000000; stroke-width: 0.8"/>
      </g>
     </g>
     <g id="text_18">
      <!-- 40 -->
      <g transform="translate(83.379 45.271219) scale(0.1 -0.1)">
       <use xlink:href="#DejaVuSans-34"/>
       <use xlink:href="#DejaVuSans-30" x="63.623047"/>
      </g>
     </g>
    </g>
   </g>
   <g id="line2d_19">
    <path d="M 250.2972 288.4572 
L 250.2972 188.6652 
" clip-path="url(#p4c455d0a33)" style="fill: none; stroke: #000000; stroke-width: 0.25; stroke-linecap: square"/>
   </g>
   <g id="line2d_20">
    <path d="M 250.2972 188.6652 
L 350.0892 188.6652 
" clip-path="url(#p4c455d0a33)" style="fill: none; stroke: #000000; stroke-width: 0.25; stroke-linecap: square"/>
   </g>
   <g id="line2d_21">
    <path d="M 350.0892 160.3908 
L 250.2972 160.3908 
" clip-path="url(#p4c455d0a33)" style="fill: none; stroke: #000000; stroke-width: 0.25; stroke-linecap: square"/>
   </g>
   <g id="line2d_22">
    <path d="M 250.2972 160.3908 
L 250.2972 60.5988 
" clip-path="url(#p4c455d0a33)" style="fill: none; stroke: #000000; stroke-width: 0.25; stroke-linecap: square"/>
   </g>
   <g id="line2d_23">
    <path d="M 222.0228 60.5988 
L 222.0228 160.3908 
" clip-path="url(#p4c455d0a33)" style="fill: none; stroke: #000000; stroke-width: 0.25; stroke-linecap: square"/>
   </g>
   <g id="line2d_24">
    <path d="M 222.0228 160.3908 
L 122.2308 160.3908 
" clip-path="url(#p4c455d0a33)" style="fill: none; stroke: #000000; stroke-width: 0.25; stroke-linecap: square"/>
   </g>
   <g id="line2d_25">
    <path d="M 122.2308 188.6652 
L 222.0228 188.6652 
" clip-path="url(#p4c455d0a33)" style="fill: none; stroke: #000000; stroke-width: 0.25; stroke-linecap: square"/>
   </g>
   <g id="line2d_26">
    <path d="M 222.0228 188.6652 
L 222.0228 288.4572 
" clip-path="url(#p4c455d0a33)" style="fill: none; stroke: #000000; stroke-width: 0.25; stroke-linecap: square"/>
   </g>
   <g id="line2d_27">
    <path d="M 250.2972 174.528 
L 350.0892 174.528 
" clip-path="url(#p4c455d0a33)" style="fill: none; stroke-dasharray: 0.925,0.4; stroke-dashoffset: 0; stroke: #000000; stroke-width: 0.25"/>
   </g>
   <g id="line2d_28">
    <path d="M 236.16 160.3908 
L 236.16 60.5988 
" clip-path="url(#p4c455d0a33)" style="fill: none; stroke-dasharray: 0.925,0.4; stroke-dashoffset: 0; stroke: #000000; stroke-width: 0.25"/>
   </g>
   <g id="line2d_29">
    <path d="M 222.0228 174.528 
L 122.2308 174.528 
" clip-path="url(#p4c455d0a33)" style="fill: none; stroke-dasharray: 0.925,0.4; stroke-dashoffset: 0; stroke: #000000; stroke-width: 0.25"/>
   </g>
   <g id="line2d_30">
    <path d="M 236.16 188.6652 
L 236.16 288.4572 
" clip-path="url(#p4c455d0a33)" style="fill: none; stroke-dasharray: 0.925,0.4; stroke-dashoffset: 0; stroke: #000000; stroke-width: 0.25"/>
   </g>
   <g id="line2d_31">
    <path d="M 242.024905 205.069123 
L 242.016288 203.19157 
L 242.004898 201.308796 
L 241.996034 199.419731 
L 242.000454 197.523128 
L 242.035707 195.617802 
L 242.126186 193.703303 
L 242.299631 191.780947 
L 242.569201 189.853161 
L 242.913489 187.917794 
L 243.218512 185.953808 
L 243.364156 183.949019 
L 243.183915 181.925496 
L 242.702324 179.932995 
L 241.931843 178.018451 
L 240.946257 176.196438 
L 239.76081 174.498068 
L 238.396491 172.95227 
L 236.878463 171.581566 
L 235.23131 170.40026 
L 233.477593 169.417034 
L 231.639876 168.638324 
L 229.740698 168.068637 
L 227.803362 167.711144 
L 225.850575 167.566372 
L 223.903932 167.633091 
L 221.974699 167.834261 
L 220.048452 168.012178 
L 218.127115 168.207333 
L 216.214773 168.464046 
L 214.315142 168.797036 
" clip-path="url(#p4c455d0a33)" style="fill: none; stroke: #ff0000; stroke-opacity: 0.2; stroke-width: 0.25; stroke-linecap: square"/>
   </g>
   <g id="line2d_32">
    <path d="M 242.024905 205.069123 
L 242.016651 203.191568 
L 242.005624 201.308758 
L 241.997076 199.419625 
L 242.001712 197.522928 
L 242.037038 195.617483 
L 242.127418 193.702836 
L 242.300587 191.780291 
L 242.569727 189.85226 
L 242.913476 187.916596 
L 243.217779 185.952281 
L 243.362524 183.9472 
L 243.181233 181.923534 
L 242.698007 179.931184 
L 241.926467 178.016814 
L 240.939861 176.195106 
L 239.753446 174.497179 
L 238.38827 172.951924 
L 236.869541 171.581806 
L 235.221863 170.401069 
L 233.467826 169.418297 
L 231.629982 168.639853 
L 229.730826 168.070241 
L 227.793627 167.712591 
L 225.841048 167.567373 
L 223.894624 167.633122 
L 221.965938 167.836377 
L 220.040024 168.013643 
L 218.118831 168.205822 
L 216.206289 168.457424 
L 214.305994 168.78372 
" clip-path="url(#p4c455d0a33)" style="fill: none; stroke: #ff0000; stroke-opacity: 0.4; stroke-width: 0.25; stroke-linecap: square"/>
   </g>
   <g id="line2d_33">
    <path d="M 242.024905 205.069123 
L 242.017146 203.191566 
L 242.006662 201.308732 
L 241.998653 199.419558 
L 242.003776 197.522806 
L 242.039494 195.617296 
L 242.130141 193.702574 
L 242.303447 191.779941 
L 242.572621 189.851802 
L 242.916338 187.916007 
L 243.220476 185.951532 
L 243.364938 183.946289 
L 243.18329 181.922508 
L 242.699193 179.930221 
L 241.927649 178.015707 
L 240.940918 176.193935 
L 239.75388 174.496339 
L 238.38826 172.951407 
L 236.869246 171.58158 
L 235.221306 170.401243 
L 233.466875 169.419295 
L 231.628475 168.642439 
L 229.728774 168.075224 
L 227.791381 167.719891 
L 225.838991 167.576194 
L 223.892926 167.641398 
L 221.965067 167.848119 
L 220.039745 168.026141 
L 218.118975 168.216808 
L 216.206573 168.464815 
L 214.306032 168.785969 
" clip-path="url(#p4c455d0a33)" style="fill: none; stroke: #ff0000; stroke-opacity: 0.6; stroke-width: 0.25; stroke-linecap: square"/>
   </g>
   <g id="line2d_34">
    <path d="M 242.024905 205.069123 
L 242.017571 203.191564 
L 242.007548 201.308703 
L 241.999991 199.419478 
L 242.005512 197.522657 
L 242.041536 195.617064 
L 242.132375 193.702245 
L 242.30576 191.779497 
L 242.574931 189.851221 
L 242.918612 187.915271 
L 243.222618 185.950616 
L 243.366877 183.945191 
L 243.185025 181.921256 
L 242.7003 179.928945 
L 241.928621 178.014311 
L 240.941725 176.192465 
L 239.754373 174.494949 
L 238.388537 172.9501 
L 236.869376 171.580367 
L 235.221292 170.400212 
L 233.466631 169.418735 
L 231.627919 168.642811 
L 229.72795 168.076959 
L 227.790498 167.723041 
L 225.838289 167.580541 
L 223.892591 167.646415 
L 221.965513 167.856443 
L 220.040736 168.035073 
L 218.120341 168.224096 
L 216.208036 168.468394 
L 214.307211 168.784308 
" clip-path="url(#p4c455d0a33)" style="fill: none; stroke: #ff0000; stroke-opacity: 0.8; stroke-width: 0.25; stroke-linecap: square"/>
   </g>
   <g id="line2d_35">
    <path d="M 242.024905 205.069123 
L 242.017949 203.191563 
L 242.008331 201.308675 
L 242.001163 199.419402 
L 242.007016 197.522516 
L 242.043279 195.616844 
L 242.134243 193.701931 
L 242.307645 191.779069 
L 242.576759 189.850657 
L 242.920359 187.914551 
L 243.224199 185.949719 
L 243.368238 183.94412 
L 243.186192 181.920039 
L 242.700886 179.927703 
L 241.928344 178.013252 
L 240.940626 176.191701 
L 239.752848 174.494356 
L 238.38645 172.949911 
L 236.866655 171.580827 
L 235.218021 170.401442 
L 233.463058 169.420586 
L 231.624362 168.644844 
L 229.724644 168.078646 
L 227.787434 167.724557 
L 225.835463 167.582609 
L 223.890199 167.650846 
L 221.963917 167.864186 
L 220.039696 168.043449 
L 218.119692 168.230886 
L 216.20751 168.471572 
L 214.306442 168.782369 
" clip-path="url(#p4c455d0a33)" style="fill: none; stroke: #ff0000; stroke-width: 0.25; stroke-linecap: square"/>
   </g>
   <g id="line2d_36">
    <path d="M 267.692285 168.793968 
L 265.939449 168.870917 
L 264.194576 168.992487 
L 262.460555 169.165067 
L 260.739803 169.385088 
L 259.031539 169.627847 
L 257.329074 169.82994 
L 255.627669 169.857631 
L 253.983843 169.478029 
L 252.405661 168.928902 
L 250.900104 168.244648 
L 249.477922 167.435126 
L 248.147739 166.510579 
L 246.916444 165.481047 
L 245.789531 164.356055 
L 244.77137 163.14444 
L 243.86565 161.854054 
L 243.075582 160.491331 
L 242.404454 159.061705 
L 241.856232 157.569822 
L 241.436369 156.02243 
L 241.151292 154.42884 
L 241.007315 152.800947 
L 241.009705 151.153462 
L 241.161805 149.502466 
L 241.463611 147.864378 
L 241.72212 146.213786 
L 241.858463 144.545438 
L 241.937638 142.8716 
L 242.013865 141.19664 
L 242.093025 139.521202 
" clip-path="url(#p4c455d0a33)" style="fill: none; stroke: #ff0000; stroke-opacity: 0.2; stroke-width: 0.25; stroke-linecap: square"/>
   </g>
   <g id="line2d_37">
    <path d="M 267.692285 168.793968 
L 265.939467 168.871334 
L 264.194655 168.993341 
L 262.460735 169.166358 
L 260.740114 169.3868 
L 259.032 169.629945 
L 257.32968 169.832352 
L 255.628394 169.860194 
L 253.984789 169.480188 
L 252.406665 168.931286 
L 250.901138 168.247282 
L 249.478945 167.438037 
L 248.148708 166.513779 
L 246.917319 165.484527 
L 245.790276 164.359792 
L 244.771967 163.148389 
L 243.866096 161.858153 
L 243.075888 160.495511 
L 242.404639 159.065894 
L 241.856328 157.573942 
L 241.436424 156.026405 
L 241.151373 154.432589 
L 241.007509 152.804396 
L 241.010118 151.156546 
L 241.162559 149.50513 
L 241.465008 147.866622 
L 241.725007 146.215653 
L 241.861932 144.546689 
L 241.940217 142.872099 
L 242.014492 141.196312 
L 242.090735 139.519985 
" clip-path="url(#p4c455d0a33)" style="fill: none; stroke: #ff0000; stroke-opacity: 0.4; stroke-width: 0.25; stroke-linecap: square"/>
   </g>
   <g id="line2d_38">
    <path d="M 267.692285 168.793968 
L 265.939483 168.871685 
L 264.194724 168.994051 
L 262.460889 169.167418 
L 260.740381 169.388186 
L 259.032393 169.631619 
L 257.330195 169.834242 
L 255.629015 169.862135 
L 253.985638 169.481634 
L 252.407705 168.932528 
L 250.902383 168.248347 
L 249.480262 167.439198 
L 248.149945 166.515234 
L 246.918325 165.486397 
L 245.790912 164.362133 
L 244.772193 163.151133 
L 243.865882 161.861225 
L 243.075069 160.498909 
L 242.403063 159.069576 
L 241.853801 157.57785 
L 241.433029 156.030367 
L 241.147274 154.436435 
L 241.002873 152.807978 
L 241.0051 151.15974 
L 241.157283 149.507829 
L 241.461282 147.869048 
L 241.722591 146.217656 
L 241.859983 144.548045 
L 241.93735 142.872685 
L 242.009708 141.196055 
L 242.083127 139.518829 
" clip-path="url(#p4c455d0a33)" style="fill: none; stroke: #ff0000; stroke-opacity: 0.6; stroke-width: 0.25; stroke-linecap: square"/>
   </g>
   <g id="line2d_39">
    <path d="M 267.692285 168.793968 
L 265.939498 168.872022 
L 264.194792 168.994726 
L 262.461045 169.168413 
L 260.74065 169.389472 
L 259.03279 169.633147 
L 257.330717 169.835932 
L 255.629652 169.863814 
L 253.986533 169.482737 
L 252.408821 168.933381 
L 250.903755 168.248948 
L 249.481872 167.439636 
L 248.151764 166.515581 
L 246.920319 165.486704 
L 245.793042 164.362432 
L 244.774449 163.151416 
L 243.868241 161.861485 
L 243.077449 160.499163 
L 242.405387 159.069815 
L 241.85598 157.578051 
L 241.435094 156.030452 
L 241.149293 154.43632 
L 241.004924 152.807585 
L 241.007258 151.158997 
L 241.159621 149.506672 
L 241.464362 147.86751 
L 241.727254 146.215782 
L 241.8654 144.545593 
L 241.942172 142.869523 
L 242.012959 141.192113 
L 242.083922 139.514055 
" clip-path="url(#p4c455d0a33)" style="fill: none; stroke: #ff0000; stroke-opacity: 0.8; stroke-width: 0.25; stroke-linecap: square"/>
   </g>
   <g id="line2d_40">
    <path d="M 267.692285 168.793968 
L 265.939515 168.872405 
L 264.194869 168.995505 
L 262.46122 169.169584 
L 260.740955 169.391015 
L 259.033243 169.635029 
L 257.331317 169.838084 
L 255.630379 169.866074 
L 253.987502 169.484549 
L 252.409804 168.93558 
L 250.904702 168.251572 
L 249.482852 167.442491 
L 248.152847 166.518527 
L 246.92156 165.489659 
L 245.794475 164.365352 
L 244.776002 163.15435 
L 243.869831 161.864465 
L 243.079112 160.502129 
L 242.407159 159.072711 
L 241.857949 157.580803 
L 241.437127 156.033058 
L 241.151215 154.438754 
L 241.006598 152.80978 
L 241.008608 151.160855 
L 241.16065 149.508079 
L 241.463561 147.86807 
L 241.727319 146.215902 
L 241.865479 144.545083 
L 241.940921 142.868275 
L 242.009409 141.190064 
L 242.077187 139.511155 
" clip-path="url(#p4c455d0a33)" style="fill: none; stroke: #ff0000; stroke-width: 0.25; stroke-linecap: square"/>
   </g>
   <g id="line2d_41">
    <path d="M 230.305576 143.84356 
L 230.30829 145.685394 
L 230.312006 147.52306 
L 230.316235 149.356928 
L 230.319772 151.187715 
L 230.32024 153.016581 
L 230.314607 154.845212 
L 230.302637 156.675933 
L 230.297151 158.511896 
L 230.340729 160.356484 
L 230.479851 162.210318 
L 230.658064 164.079687 
L 230.140342 165.909548 
L 229.423834 167.7034 
L 228.505418 169.442771 
L 227.383347 171.103538 
L 226.595533 172.981068 
L 226.451338 175.030135 
L 226.551633 177.07962 
L 226.877206 179.081714 
L 227.412326 180.995714 
L 228.135604 182.792965 
L 229.023069 184.457761 
L 230.050697 185.983847 
L 230.639587 187.684166 
L 230.696754 189.451117 
L 230.582051 191.194203 
L 230.336026 192.910143 
L 230.084394 194.617606 
L 230.087468 196.340095 
L 230.175663 198.059441 
" clip-path="url(#p4c455d0a33)" style="fill: none; stroke: #ff0000; stroke-opacity: 0.2; stroke-width: 0.25; stroke-linecap: square"/>
   </g>
   <g id="line2d_42">
    <path d="M 230.305576 143.84356 
L 230.308146 145.685394 
L 230.311728 147.523134 
L 230.315849 149.357143 
L 230.319339 151.188128 
L 230.319797 153.017239 
L 230.314033 154.846152 
L 230.301424 156.677177 
L 230.294304 158.513459 
L 230.335489 160.358435 
L 230.473027 162.212717 
L 230.652579 164.082285 
L 230.133944 165.912215 
L 229.416558 167.706022 
L 228.497471 169.445313 
L 227.374531 171.105751 
L 226.587477 172.983834 
L 226.447977 175.033449 
L 226.549843 177.083061 
L 226.876876 179.085091 
L 227.412981 180.998931 
L 228.136571 182.796084 
L 229.024426 184.460598 
L 230.051784 185.986666 
L 230.640462 187.686747 
L 230.698363 189.45323 
L 230.584594 191.195744 
L 230.349113 192.912287 
L 230.122417 194.622066 
L 230.140142 196.342944 
L 230.213349 198.061112 
" clip-path="url(#p4c455d0a33)" style="fill: none; stroke: #ff0000; stroke-opacity: 0.4; stroke-width: 0.25; stroke-linecap: square"/>
   </g>
   <g id="line2d_43">
    <path d="M 230.305576 143.84356 
L 230.308221 145.685394 
L 230.311967 147.52314 
L 230.316365 149.357166 
L 230.320286 151.18818 
L 230.321316 153.017337 
L 230.316089 154.846316 
L 230.30354 156.677426 
L 230.295396 158.513811 
L 230.334646 160.358963 
L 230.471053 162.213491 
L 230.652604 164.083058 
L 230.134531 165.913374 
L 229.417033 167.707395 
L 228.496376 169.44614 
L 227.373441 171.106905 
L 226.586225 172.985244 
L 226.448234 175.035297 
L 226.551206 177.085215 
L 226.880602 179.087246 
L 227.419589 181.000706 
L 228.144368 182.797871 
L 229.030687 184.463802 
L 230.060216 185.989161 
L 230.634632 187.69488 
L 230.687555 189.462334 
L 230.572378 191.205583 
L 230.306043 192.91837 
L 230.050394 194.624652 
L 230.058902 196.345919 
L 230.179258 198.061441 
" clip-path="url(#p4c455d0a33)" style="fill: none; stroke: #ff0000; stroke-opacity: 0.6; stroke-width: 0.25; stroke-linecap: square"/>
   </g>
   <g id="line2d_44">
    <path d="M 230.305576 143.84356 
L 230.308223 145.685394 
L 230.312002 147.523142 
L 230.316478 149.357173 
L 230.320543 151.1882 
L 230.321759 153.017376 
L 230.316598 154.846384 
L 230.303587 156.677531 
L 230.293909 158.513963 
L 230.330676 160.359235 
L 230.465134 162.213993 
L 230.647372 164.0836 
L 230.128826 165.913917 
L 229.410769 167.707873 
L 228.489283 169.446357 
L 227.365859 171.106992 
L 226.579211 172.985773 
L 226.444474 175.036248 
L 226.548144 177.086331 
L 226.878215 179.088432 
L 227.417911 181.001827 
L 228.14323 182.798822 
L 229.029632 184.464649 
L 230.060187 185.989114 
L 230.641002 187.692337 
L 230.697483 189.459224 
L 230.583264 191.201928 
L 230.330041 192.915929 
L 230.099421 194.624826 
L 230.118164 196.344868 
L 230.213275 198.060633 
" clip-path="url(#p4c455d0a33)" style="fill: none; stroke: #ff0000; stroke-opacity: 0.8; stroke-width: 0.25; stroke-linecap: square"/>
   </g>
   <g id="line2d_45">
    <path d="M 230.305576 143.84356 
L 230.308458 145.685393 
L 230.312602 147.523142 
L 230.317594 149.357177 
L 230.322371 151.188212 
L 230.32449 153.017404 
L 230.320288 154.846439 
L 230.307918 156.677624 
L 230.298005 158.514099 
L 230.333695 160.359451 
L 230.467576 162.214324 
L 230.651641 164.083841 
L 230.13371 165.914438 
L 229.416126 167.7087 
L 228.494748 169.447361 
L 227.371894 171.108507 
L 226.584472 172.987086 
L 226.447979 175.037575 
L 226.551473 177.087813 
L 226.881774 179.090055 
L 227.422147 181.003486 
L 228.148434 182.800396 
L 229.035332 184.466381 
L 230.067404 185.990399 
L 230.638629 187.69749 
L 230.692154 189.465172 
L 230.573803 191.208367 
L 230.296292 192.919393 
L 230.04377 194.625941 
L 230.051177 196.34671 
L 230.175397 198.061125 
" clip-path="url(#p4c455d0a33)" style="fill: none; stroke: #ff0000; stroke-width: 0.25; stroke-linecap: square"/>
   </g>
   <g id="line2d_46">
    <path d="M 205.465015 180.37986 
L 207.307062 180.378352 
L 209.146032 180.376359 
L 210.982707 180.374718 
L 212.818238 180.374303 
L 214.654235 180.374884 
L 216.492846 180.372192 
L 218.336755 180.353566 
L 220.188877 180.301472 
L 222.054271 180.257161 
L 223.925457 180.476958 
L 225.71556 181.135637 
L 227.452686 181.990309 
L 229.117098 183.041551 
L 230.685462 184.288305 
L 232.679011 184.692835 
L 234.730707 184.780199 
L 236.78347 184.636659 
L 238.793128 184.265527 
L 240.719041 183.680497 
L 242.529714 182.900746 
L 244.206318 181.952544 
L 245.737599 180.86008 
L 247.453804 180.199745 
L 249.252763 180.086792 
L 251.025285 180.150705 
L 252.766436 180.36216 
L 254.507402 180.392556 
L 256.229569 180.590828 
L 257.959375 180.605943 
L 259.68528 180.508691 
" clip-path="url(#p4c455d0a33)" style="fill: none; stroke: #ff0000; stroke-opacity: 0.2; stroke-width: 0.25; stroke-linecap: square"/>
   </g>
   <g id="line2d_47">
    <path d="M 205.465015 180.37986 
L 207.307062 180.378522 
L 209.146049 180.376625 
L 210.982753 180.374993 
L 212.81832 180.374505 
L 214.654354 180.375005 
L 216.492999 180.372349 
L 218.336936 180.353846 
L 220.189061 180.301305 
L 222.054418 180.25543 
L 223.92521 180.478438 
L 225.714992 181.137918 
L 227.451687 181.993387 
L 229.11562 183.04534 
L 230.683361 184.292909 
L 232.677174 184.696543 
L 234.728983 184.784129 
L 236.781923 184.640903 
L 238.791844 184.270267 
L 240.718244 183.686251 
L 242.529295 182.907003 
L 244.206557 181.959732 
L 245.738911 180.868654 
L 247.45423 180.206003 
L 249.253106 180.092646 
L 251.02554 180.155393 
L 252.766691 180.364968 
L 254.507566 180.360843 
L 256.231895 180.53372 
L 257.960932 180.54046 
L 259.687136 180.472031 
" clip-path="url(#p4c455d0a33)" style="fill: none; stroke: #ff0000; stroke-opacity: 0.4; stroke-width: 0.25; stroke-linecap: square"/>
   </g>
   <g id="line2d_48">
    <path d="M 205.465015 180.37986 
L 207.307062 180.378676 
L 209.146056 180.376825 
L 210.982771 180.375113 
L 212.818351 180.374411 
L 214.654396 180.37463 
L 216.493048 180.371756 
L 218.336983 180.353054 
L 220.189073 180.299549 
L 222.054352 180.251263 
L 223.924741 180.47741 
L 225.714516 181.136832 
L 227.451117 181.992429 
L 229.114486 183.045256 
L 230.682331 184.292761 
L 232.676496 184.695229 
L 234.728471 184.782912 
L 236.781542 184.638251 
L 238.79131 184.2652 
L 240.717046 183.677771 
L 242.529338 182.900273 
L 244.207145 181.952819 
L 245.737609 180.85787 
L 247.457745 180.205352 
L 249.257749 180.093311 
L 251.031234 180.159164 
L 252.770356 180.394283 
L 254.512465 180.396279 
L 256.232942 180.613197 
L 257.962857 180.632045 
L 259.686572 180.506016 
" clip-path="url(#p4c455d0a33)" style="fill: none; stroke: #ff0000; stroke-opacity: 0.6; stroke-width: 0.25; stroke-linecap: square"/>
   </g>
   <g id="line2d_49">
    <path d="M 205.465015 180.37986 
L 207.307062 180.379064 
L 209.146113 180.377559 
L 210.982937 180.376137 
L 212.818668 180.375664 
L 214.654902 180.376113 
L 216.493773 180.373586 
L 218.337954 180.355265 
L 220.190289 180.301299 
L 222.055777 180.250861 
L 223.926035 180.480281 
L 225.715729 181.140688 
L 227.45221 181.997111 
L 229.115836 183.05001 
L 230.683239 184.298513 
L 232.678239 184.698406 
L 234.730581 184.784987 
L 236.783961 184.64031 
L 238.794129 184.267946 
L 240.720683 183.682554 
L 242.531727 182.902004 
L 244.208943 181.953676 
L 245.741174 180.861598 
L 247.458079 180.201717 
L 249.257511 180.089125 
L 251.030399 180.153155 
L 252.76869 180.388614 
L 254.509485 180.3496 
L 256.231881 180.541505 
L 257.960627 180.5575 
L 259.685766 180.477905 
" clip-path="url(#p4c455d0a33)" style="fill: none; stroke: #ff0000; stroke-opacity: 0.8; stroke-width: 0.25; stroke-linecap: square"/>
   </g>
   <g id="line2d_50">
    <path d="M 205.465015 180.37986 
L 207.307062 180.378971 
L 209.146143 180.377222 
L 210.983019 180.375402 
L 212.818822 180.374381 
L 214.655137 180.374203 
L 216.494093 180.371105 
L 218.33835 180.352236 
L 220.190718 180.296954 
L 222.05618 180.243651 
L 223.926122 180.475802 
L 225.715979 181.135729 
L 227.452577 181.991776 
L 229.115872 183.045004 
L 230.683659 184.292822 
L 232.67808 184.69491 
L 234.730236 184.78241 
L 236.783451 184.637461 
L 238.793271 184.263975 
L 240.718805 183.675604 
L 242.530788 182.897336 
L 244.208014 181.948889 
L 245.737831 180.853055 
L 247.461284 180.209282 
L 249.261531 180.099799 
L 251.035037 180.168394 
L 252.774185 180.404289 
L 254.516046 180.369353 
L 256.233647 180.607533 
L 257.963209 180.635522 
L 259.68618 180.505441 
" clip-path="url(#p4c455d0a33)" style="fill: none; stroke: #ff0000; stroke-width: 0.25; stroke-linecap: square"/>
   </g>
   <g id="line2d_51">
    <path d="M 242.01582 255.038757 
L 242.015817 253.173601 
L 242.015817 251.308442 
L 242.015816 249.443279 
L 242.015814 247.578114 
L 242.015811 245.712946 
L 242.015808 243.847775 
L 242.015803 241.982602 
L 242.015797 240.117428 
L 242.015788 238.252252 
L 242.015776 236.387076 
L 242.015759 234.5219 
L 242.015733 232.656725 
L 242.015696 230.791553 
L 242.015642 228.926386 
L 242.015561 227.061224 
L 242.015442 225.196072 
L 242.015266 223.330932 
L 242.015004 221.465806 
L 242.014616 219.600699 
L 242.014039 217.735615 
L 242.013185 215.870557 
L 242.011922 214.005529 
L 242.010071 212.140535 
L 242.007448 210.275579 
L 242.004203 208.410661 
L 242.002956 206.545779 
L 242.021114 204.681016 
L 242.1623 202.821519 
L 242.273895 200.959869 
L 242.119643 199.101235 
" clip-path="url(#p4c455d0a33)" style="fill: none; stroke: #ff0000; stroke-opacity: 0.2; stroke-width: 0.25; stroke-linecap: square"/>
   </g>
   <g id="line2d_52">
    <path d="M 242.01582 255.038757 
L 242.015814 253.173601 
L 242.015817 251.308428 
L 242.015817 249.443237 
L 242.015816 247.578028 
L 242.015815 245.712802 
L 242.015814 243.847559 
L 242.015813 241.982299 
L 242.015814 240.117025 
L 242.015817 238.251738 
L 242.015822 236.386443 
L 242.015832 234.521144 
L 242.015849 232.65585 
L 242.015875 230.790571 
L 242.015916 228.92532 
L 242.015978 227.060112 
L 242.016069 225.194967 
L 242.016203 223.329909 
L 242.016397 221.464965 
L 242.016678 219.600163 
L 242.017083 217.735538 
L 242.017668 215.871123 
L 242.018516 214.006953 
L 242.019755 212.143059 
L 242.021592 210.27947 
L 242.024357 208.416204 
L 242.028522 206.553267 
L 242.034612 204.690646 
L 242.046275 202.828325 
L 242.066241 200.966272 
L 242.094294 199.104421 
" clip-path="url(#p4c455d0a33)" style="fill: none; stroke: #ff0000; stroke-opacity: 0.4; stroke-width: 0.25; stroke-linecap: square"/>
   </g>
   <g id="line2d_53">
    <path d="M 242.01582 255.038757 
L 242.015818 253.173601 
L 242.015821 251.308438 
L 242.015823 249.443267 
L 242.015824 247.578089 
L 242.015826 245.712904 
L 242.015827 243.847713 
L 242.015827 241.982516 
L 242.015827 240.117313 
L 242.015824 238.252105 
L 242.015819 236.386895 
L 242.015809 234.521685 
L 242.015792 232.656477 
L 242.015766 230.791275 
L 242.015725 228.926084 
L 242.015664 227.060911 
L 242.015572 225.195761 
L 242.015438 223.330646 
L 242.015243 221.465573 
L 242.014959 219.600554 
L 242.014549 217.735601 
L 242.013954 215.870727 
L 242.013092 214.005943 
L 242.011841 212.141261 
L 242.010067 210.276692 
L 242.007876 208.41224 
L 242.007367 206.547904 
L 242.023167 204.683744 
L 242.143832 202.8235 
L 242.2239 200.960993 
L 242.112014 199.100148 
" clip-path="url(#p4c455d0a33)" style="fill: none; stroke: #ff0000; stroke-opacity: 0.6; stroke-width: 0.25; stroke-linecap: square"/>
   </g>
   <g id="line2d_54">
    <path d="M 242.01582 255.038757 
L 242.015818 253.173601 
L 242.015822 251.308432 
L 242.015825 249.44325 
L 242.015828 247.578056 
L 242.015832 245.712848 
L 242.015836 243.847628 
L 242.015841 241.982396 
L 242.015848 240.117154 
L 242.015857 238.251902 
L 242.015868 236.386645 
L 242.015883 234.521385 
L 242.015903 232.656129 
L 242.015931 230.790884 
L 242.01597 228.925659 
L 242.016027 227.060466 
L 242.016112 225.195319 
L 242.016239 223.330235 
L 242.016433 221.465233 
L 242.016729 219.600335 
L 242.017181 217.735565 
L 242.017872 215.870948 
L 242.018921 214.006507 
L 242.020497 212.142267 
L 242.022817 210.278247 
L 242.026117 208.41446 
L 242.030546 206.550912 
L 242.036368 204.687591 
L 242.050084 202.824509 
L 242.068626 200.961606 
L 242.097006 199.098896 
" clip-path="url(#p4c455d0a33)" style="fill: none; stroke: #ff0000; stroke-opacity: 0.8; stroke-width: 0.25; stroke-linecap: square"/>
   </g>
   <g id="line2d_55">
    <path d="M 242.01582 255.038757 
L 242.015818 253.173601 
L 242.015821 251.308438 
L 242.015823 249.443268 
L 242.015824 247.578091 
L 242.015826 245.712907 
L 242.015827 243.847716 
L 242.015828 241.98252 
L 242.015828 240.117318 
L 242.015827 238.252112 
L 242.015823 236.386902 
L 242.015817 234.521692 
L 242.015806 232.656484 
L 242.015788 230.791281 
L 242.01576 228.926089 
L 242.015717 227.060912 
L 242.015654 225.19576 
L 242.015563 223.330639 
L 242.01543 221.465559 
L 242.015238 219.600532 
L 242.014962 217.73557 
L 242.014565 215.870683 
L 242.013991 214.005886 
L 242.013161 212.141189 
L 242.011996 210.276603 
L 242.010645 208.412132 
L 242.010995 206.54778 
L 242.02568 204.683595 
L 242.13042 202.822375 
L 242.210386 200.959878 
L 242.11074 199.098345 
" clip-path="url(#p4c455d0a33)" style="fill: none; stroke: #ff0000; stroke-width: 0.25; stroke-linecap: square"/>
   </g>
   <g id="line2d_56">
    <path d="M 316.670757 168.672179 
L 314.805601 168.672182 
L 312.940441 168.672182 
L 311.075277 168.672182 
L 309.21011 168.672183 
L 307.344939 168.672185 
L 305.479766 168.672188 
L 303.614589 168.672191 
L 301.749411 168.672197 
L 299.88423 168.672204 
L 298.019049 168.672216 
L 296.153867 168.672232 
L 294.288686 168.672256 
L 292.423508 168.672291 
L 290.558336 168.672342 
L 288.693171 168.672415 
L 286.828017 168.672523 
L 284.962877 168.672679 
L 283.097756 168.672909 
L 281.232659 168.673244 
L 279.367591 168.673737 
L 277.502557 168.674461 
L 275.637562 168.675527 
L 273.772612 168.677085 
L 271.907711 168.679298 
L 270.042861 168.682017 
L 268.178061 168.682778 
L 266.313392 168.664997 
L 264.453616 168.529064 
L 262.592753 168.407004 
L 260.734546 168.564859 
" clip-path="url(#p4c455d0a33)" style="fill: none; stroke: #ff0000; stroke-opacity: 0.2; stroke-width: 0.25; stroke-linecap: square"/>
   </g>
   <g id="line2d_57">
    <path d="M 316.670757 168.672179 
L 314.805601 168.672186 
L 312.940427 168.672183 
L 311.075235 168.672183 
L 309.210025 168.672184 
L 307.344798 168.672185 
L 305.479552 168.672186 
L 303.61429 168.672187 
L 301.749013 168.672186 
L 299.883723 168.672183 
L 298.018424 168.672178 
L 296.153122 168.672168 
L 294.287825 168.672151 
L 292.422542 168.672125 
L 290.557287 168.672084 
L 288.692077 168.672022 
L 286.826932 168.67193 
L 284.961875 168.671796 
L 283.096934 168.6716 
L 281.232139 168.671316 
L 279.367525 168.670906 
L 277.503127 168.670314 
L 275.638979 168.669456 
L 273.775115 168.668201 
L 271.911563 168.666343 
L 270.048343 168.663552 
L 268.185461 168.659356 
L 266.322905 168.653234 
L 264.460656 168.641691 
L 262.598687 168.621276 
L 260.736912 168.593766 
" clip-path="url(#p4c455d0a33)" style="fill: none; stroke: #ff0000; stroke-opacity: 0.4; stroke-width: 0.25; stroke-linecap: square"/>
   </g>
   <g id="line2d_58">
    <path d="M 316.670757 168.672179 
L 314.805601 168.672185 
L 312.940437 168.672184 
L 311.075265 168.672186 
L 309.210086 168.672189 
L 307.344899 168.672191 
L 305.479707 168.672195 
L 303.614508 168.672199 
L 301.749303 168.672203 
L 299.884095 168.67221 
L 298.018885 168.672218 
L 296.153674 168.67223 
L 294.288467 168.672247 
L 292.423268 168.672273 
L 290.558081 168.672312 
L 288.692913 168.672373 
L 286.827773 168.672468 
L 284.962667 168.672613 
L 283.097608 168.672836 
L 281.232606 168.673178 
L 279.367673 168.673697 
L 277.502822 168.674481 
L 275.638065 168.675656 
L 273.773414 168.677386 
L 271.908877 168.679823 
L 270.044458 168.682739 
L 268.180155 168.683371 
L 266.316053 168.664368 
L 264.457089 168.52558 
L 262.594032 168.459123 
L 260.733407 168.574549 
" clip-path="url(#p4c455d0a33)" style="fill: none; stroke: #ff0000; stroke-opacity: 0.6; stroke-width: 0.25; stroke-linecap: square"/>
   </g>
   <g id="line2d_59">
    <path d="M 316.670757 168.672179 
L 314.805601 168.672182 
L 312.940431 168.672177 
L 311.075247 168.672174 
L 309.210049 168.672171 
L 307.344838 168.672167 
L 305.479614 168.672162 
L 303.614377 168.672156 
L 301.749129 168.672149 
L 299.883871 168.67214 
L 298.018607 168.672129 
L 296.153341 168.672115 
L 294.28808 168.672095 
L 292.42283 168.672069 
L 290.557602 168.672031 
L 288.692409 168.671977 
L 286.827265 168.671895 
L 284.962189 168.671771 
L 283.097202 168.671581 
L 281.232327 168.671289 
L 279.367589 168.67084 
L 277.503014 168.670152 
L 275.638629 168.669106 
L 273.774458 168.667537 
L 271.910522 168.665236 
L 270.046835 168.661995 
L 268.183401 168.657722 
L 266.320208 168.652178 
L 264.457273 168.637494 
L 262.594512 168.619295 
L 260.731966 168.590028 
" clip-path="url(#p4c455d0a33)" style="fill: none; stroke: #ff0000; stroke-opacity: 0.8; stroke-width: 0.25; stroke-linecap: square"/>
   </g>
   <g id="line2d_60">
    <path d="M 316.670757 168.672179 
L 314.805601 168.672182 
L 312.940437 168.672179 
L 311.075265 168.672177 
L 309.210087 168.672175 
L 307.344901 168.672173 
L 305.479709 168.672172 
L 303.614511 168.672172 
L 301.749307 168.672173 
L 299.8841 168.672176 
L 298.018891 168.672183 
L 296.153681 168.672194 
L 294.288475 168.672214 
L 292.423276 168.672244 
L 290.55809 168.672291 
L 288.692922 168.672362 
L 286.82778 168.672466 
L 284.962674 168.672618 
L 283.097612 168.672839 
L 281.232606 168.673158 
L 279.367668 168.673621 
L 277.50281 168.674292 
L 275.638044 168.675267 
L 273.773381 168.676686 
L 271.90883 168.678705 
L 270.044396 168.68121 
L 268.180074 168.681874 
L 266.315938 168.664465 
L 264.456591 168.530671 
L 262.593297 168.470869 
L 260.732062 168.576136 
" clip-path="url(#p4c455d0a33)" style="fill: none; stroke: #ff0000; stroke-width: 0.25; stroke-linecap: square"/>
   </g>
   <g id="line2d_61">
    <path d="M 230.304172 94.218106 
L 230.304182 96.105397 
L 230.304199 97.992656 
L 230.304213 99.879873 
L 230.304232 101.767035 
L 230.304261 103.654137 
L 230.304305 105.541177 
L 230.30437 107.428157 
L 230.304469 109.315088 
L 230.304617 111.20199 
L 230.304838 113.088891 
L 230.305168 114.975833 
L 230.30566 116.862872 
L 230.306396 118.750079 
L 230.307492 120.637542 
L 230.309129 122.525366 
L 230.311574 124.413676 
L 230.315226 126.302611 
L 230.32068 128.192325 
L 230.328793 130.082978 
L 230.340589 131.974731 
L 230.356011 133.867741 
L 230.365544 135.762221 
L 230.302073 137.657218 
L 229.764301 139.477193 
L 229.619508 141.371646 
L 229.878675 143.255109 
L 229.768653 145.153552 
L 230.031092 147.037647 
L 230.136622 148.936958 
L 230.304389 150.831799 
" clip-path="url(#p4c455d0a33)" style="fill: none; stroke: #ff0000; stroke-opacity: 0.2; stroke-width: 0.25; stroke-linecap: square"/>
   </g>
   <g id="line2d_62">
    <path d="M 230.304172 94.218106 
L 230.304176 96.105397 
L 230.304191 97.992652 
L 230.3042 99.87986 
L 230.304214 101.767008 
L 230.304237 103.65409 
L 230.304273 105.541101 
L 230.304329 107.428045 
L 230.304417 109.314932 
L 230.304552 111.201781 
L 230.304758 113.088621 
L 230.30507 114.975496 
L 230.305539 116.862461 
L 230.306243 118.749592 
L 230.307296 120.636979 
L 230.308864 122.524733 
L 230.3112 124.412985 
L 230.31467 126.301881 
L 230.319817 128.191588 
L 230.32741 130.082276 
L 230.338341 131.974124 
L 230.35241 133.867306 
L 230.36015 135.762044 
L 230.295448 137.657358 
L 229.757565 139.477803 
L 229.619366 141.373373 
L 229.873144 143.258345 
L 229.757813 145.157415 
L 230.002423 147.045 
L 230.117644 148.944957 
L 230.302236 150.839466 
" clip-path="url(#p4c455d0a33)" style="fill: none; stroke: #ff0000; stroke-opacity: 0.4; stroke-width: 0.25; stroke-linecap: square"/>
   </g>
   <g id="line2d_63">
    <path d="M 230.304172 94.218106 
L 230.304173 96.105397 
L 230.304184 97.992653 
L 230.304188 99.879862 
L 230.304197 101.767013 
L 230.304212 103.654097 
L 230.304241 105.541113 
L 230.30429 107.428062 
L 230.304369 109.314956 
L 230.304496 111.201812 
L 230.304693 113.088662 
L 230.304998 114.975548 
L 230.305462 116.862527 
L 230.306165 118.749673 
L 230.307221 120.637077 
L 230.308802 122.524851 
L 230.311162 124.413125 
L 230.314677 126.302046 
L 230.319895 128.19178 
L 230.327596 130.082497 
L 230.338686 131.974375 
L 230.35298 133.867588 
L 230.36102 135.762358 
L 230.296691 137.657718 
L 229.759237 139.478325 
L 229.621248 141.373945 
L 229.875708 143.258861 
L 229.760152 145.157954 
L 230.004474 147.045615 
L 230.118086 148.945708 
L 230.30154 150.840366 
" clip-path="url(#p4c455d0a33)" style="fill: none; stroke: #ff0000; stroke-opacity: 0.6; stroke-width: 0.25; stroke-linecap: square"/>
   </g>
   <g id="line2d_64">
    <path d="M 230.304172 94.218106 
L 230.304176 96.105397 
L 230.304189 97.992652 
L 230.304198 99.879859 
L 230.30421 101.767006 
L 230.304229 103.654086 
L 230.304261 105.541096 
L 230.304312 107.428038 
L 230.304392 109.314924 
L 230.304517 111.201771 
L 230.304711 113.08861 
L 230.305007 114.975483 
L 230.305458 116.862448 
L 230.306139 118.74958 
L 230.307167 120.636969 
L 230.308709 122.524728 
L 230.311017 124.412987 
L 230.314465 126.301896 
L 230.319601 128.191619 
L 230.327197 130.082332 
L 230.338154 131.974209 
L 230.352262 133.86743 
L 230.360011 135.762217 
L 230.29515 137.657585 
L 229.756695 139.477936 
L 229.617972 141.373554 
L 229.872961 143.25846 
L 229.757035 145.1576 
L 230.002237 147.045222 
L 230.115752 148.945399 
L 230.301597 150.839906 
" clip-path="url(#p4c455d0a33)" style="fill: none; stroke: #ff0000; stroke-opacity: 0.8; stroke-width: 0.25; stroke-linecap: square"/>
   </g>
   <g id="line2d_65">
    <path d="M 230.304172 94.218106 
L 230.304179 96.105397 
L 230.304196 97.992652 
L 230.304209 99.87986 
L 230.304225 101.767008 
L 230.30425 103.65409 
L 230.304286 105.541101 
L 230.30434 107.428046 
L 230.304424 109.314933 
L 230.30455 111.201783 
L 230.304743 113.088624 
L 230.305036 114.9755 
L 230.305481 116.862468 
L 230.306153 118.749601 
L 230.307169 120.636992 
L 230.3087 122.524753 
L 230.311 124.413013 
L 230.314451 126.301921 
L 230.319613 128.191642 
L 230.327277 130.082349 
L 230.338368 131.97422 
L 230.352705 133.86743 
L 230.360789 135.762205 
L 230.296316 137.657572 
L 229.758144 139.477989 
L 229.620336 141.373654 
L 229.877279 143.258275 
L 229.760627 145.15735 
L 230.00453 147.045124 
L 230.117003 148.945347 
L 230.301589 150.839964 
" clip-path="url(#p4c455d0a33)" style="fill: none; stroke: #ff0000; stroke-width: 0.25; stroke-linecap: square"/>
   </g>
   <g id="line2d_66">
    <path d="M 152.64289 180.38382 
L 154.174012 180.38382 
L 155.705133 180.38382 
L 157.236254 180.38382 
L 158.767375 180.38382 
L 160.298496 180.38382 
L 161.829617 180.38382 
L 163.360739 180.38382 
L 164.89186 180.38382 
L 166.422981 180.38382 
L 167.954102 180.38382 
L 169.485223 180.38382 
L 171.016344 180.38382 
L 172.547466 180.38382 
L 174.078587 180.38382 
L 175.609708 180.38382 
L 177.140829 180.38382 
L 178.67195 180.38382 
L 180.203071 180.38382 
L 181.734192 180.38382 
L 183.265314 180.38382 
L 184.796435 180.38382 
L 186.327556 180.38382 
L 187.858677 180.38382 
L 189.389798 180.38382 
L 190.920919 180.38382 
L 192.452041 180.38382 
L 193.983162 180.38382 
L 195.514283 180.38382 
L 197.045404 180.38382 
L 198.576525 180.38382 
" clip-path="url(#p4c455d0a33)" style="fill: none; stroke: #ff0000; stroke-opacity: 0.2; stroke-width: 0.25; stroke-linecap: square"/>
   </g>
   <g id="line2d_67">
    <path d="M 152.64289 180.38382 
L 154.174012 180.38382 
L 155.705133 180.38382 
L 157.236254 180.38382 
L 158.767375 180.38382 
L 160.298496 180.38382 
L 161.829617 180.38382 
L 163.360739 180.38382 
L 164.89186 180.38382 
L 166.422981 180.38382 
L 167.954102 180.38382 
L 169.485223 180.38382 
L 171.016344 180.38382 
L 172.547466 180.38382 
L 174.078587 180.38382 
L 175.609708 180.38382 
L 177.140829 180.38382 
L 178.67195 180.38382 
L 180.203071 180.38382 
L 181.734192 180.38382 
L 183.265314 180.38382 
L 184.796435 180.38382 
L 186.327556 180.38382 
L 187.858677 180.38382 
L 189.389798 180.38382 
L 190.920919 180.38382 
L 192.452041 180.38382 
L 193.983162 180.38382 
L 195.514283 180.38382 
L 197.045404 180.38382 
L 198.576525 180.38382 
" clip-path="url(#p4c455d0a33)" style="fill: none; stroke: #ff0000; stroke-opacity: 0.4; stroke-width: 0.25; stroke-linecap: square"/>
   </g>
   <g id="line2d_68">
    <path d="M 152.64289 180.38382 
L 154.174012 180.38382 
L 155.705133 180.38382 
L 157.236254 180.38382 
L 158.767375 180.38382 
L 160.298496 180.38382 
L 161.829617 180.38382 
L 163.360739 180.38382 
L 164.89186 180.38382 
L 166.422981 180.38382 
L 167.954102 180.38382 
L 169.485223 180.38382 
L 171.016344 180.38382 
L 172.547466 180.38382 
L 174.078587 180.38382 
L 175.609708 180.38382 
L 177.140829 180.38382 
L 178.67195 180.38382 
L 180.203071 180.38382 
L 181.734192 180.38382 
L 183.265314 180.38382 
L 184.796435 180.38382 
L 186.327556 180.38382 
L 187.858677 180.38382 
L 189.389798 180.38382 
L 190.920919 180.38382 
L 192.452041 180.38382 
L 193.983162 180.38382 
L 195.514283 180.38382 
L 197.045404 180.38382 
L 198.576525 180.38382 
" clip-path="url(#p4c455d0a33)" style="fill: none; stroke: #ff0000; stroke-opacity: 0.6; stroke-width: 0.25; stroke-linecap: square"/>
   </g>
   <g id="line2d_69">
    <path d="M 152.64289 180.38382 
L 154.174012 180.38382 
L 155.705133 180.38382 
L 157.236254 180.38382 
L 158.767375 180.38382 
L 160.298496 180.38382 
L 161.829617 180.38382 
L 163.360739 180.38382 
L 164.89186 180.38382 
L 166.422981 180.38382 
L 167.954102 180.38382 
L 169.485223 180.38382 
L 171.016344 180.38382 
L 172.547466 180.38382 
L 174.078587 180.38382 
L 175.609708 180.38382 
L 177.140829 180.38382 
L 178.67195 180.38382 
L 180.203071 180.38382 
L 181.734192 180.38382 
L 183.265314 180.38382 
L 184.796435 180.38382 
L 186.327556 180.38382 
L 187.858677 180.38382 
L 189.389798 180.38382 
L 190.920919 180.38382 
L 192.452041 180.38382 
L 193.983162 180.38382 
L 195.514283 180.38382 
L 197.045404 180.38382 
L 198.576525 180.38382 
" clip-path="url(#p4c455d0a33)" style="fill: none; stroke: #ff0000; stroke-opacity: 0.8; stroke-width: 0.25; stroke-linecap: square"/>
   </g>
   <g id="line2d_70">
    <path d="M 152.64289 180.38382 
L 154.174012 180.38382 
L 155.705133 180.38382 
L 157.236254 180.38382 
L 158.767375 180.38382 
L 160.298496 180.38382 
L 161.829617 180.38382 
L 163.360739 180.38382 
L 164.89186 180.38382 
L 166.422981 180.38382 
L 167.954102 180.38382 
L 169.485223 180.38382 
L 171.016344 180.38382 
L 172.547466 180.38382 
L 174.078587 180.38382 
L 175.609708 180.38382 
L 177.140829 180.38382 
L 178.67195 180.38382 
L 180.203071 180.38382 
L 181.734192 180.38382 
L 183.265314 180.38382 
L 184.796435 180.38382 
L 186.327556 180.38382 
L 187.858677 180.38382 
L 189.389798 180.38382 
L 190.920919 180.38382 
L 192.452041 180.38382 
L 193.983162 180.38382 
L 195.514283 180.38382 
L 197.045404 180.38382 
L 198.576525 180.38382 
" clip-path="url(#p4c455d0a33)" style="fill: none; stroke: #ff0000; stroke-width: 0.25; stroke-linecap: square"/>
   </g>
   <g id="line2d_71">
    <path d="M 242.01582 305.916148 
L 242.01582 304.160031 
L 242.01582 302.403914 
L 242.01582 300.647798 
L 242.01582 298.891681 
L 242.01582 297.135564 
L 242.01582 295.379447 
L 242.01582 293.62333 
L 242.01582 291.867213 
L 242.01582 290.111096 
L 242.01582 288.35498 
L 242.01582 286.598863 
L 242.01582 284.842746 
L 242.01582 283.086629 
L 242.01582 281.330512 
L 242.01582 279.574395 
L 242.01582 277.818278 
L 242.01582 276.062161 
L 242.01582 274.306045 
L 242.01582 272.549928 
L 242.01582 270.793811 
L 242.01582 269.037694 
L 242.01582 267.281577 
L 242.01582 265.52546 
L 242.01582 263.769343 
L 242.01582 262.013227 
L 242.01582 260.25711 
L 242.01582 258.500993 
L 242.01582 256.744876 
L 242.01582 254.988759 
L 242.01582 253.232642 
" clip-path="url(#p4c455d0a33)" style="fill: none; stroke: #ff0000; stroke-opacity: 0.2; stroke-width: 0.25; stroke-linecap: square"/>
   </g>
   <g id="line2d_72">
    <path d="M 242.01582 305.916148 
L 242.01582 304.160031 
L 242.01582 302.403914 
L 242.01582 300.647798 
L 242.01582 298.891681 
L 242.01582 297.135564 
L 242.01582 295.379447 
L 242.01582 293.62333 
L 242.01582 291.867213 
L 242.01582 290.111096 
L 242.01582 288.35498 
L 242.01582 286.598863 
L 242.01582 284.842746 
L 242.01582 283.086629 
L 242.01582 281.330512 
L 242.01582 279.574395 
L 242.01582 277.818278 
L 242.01582 276.062161 
L 242.01582 274.306045 
L 242.01582 272.549928 
L 242.01582 270.793811 
L 242.01582 269.037694 
L 242.01582 267.281577 
L 242.01582 265.52546 
L 242.01582 263.769343 
L 242.01582 262.013227 
L 242.01582 260.25711 
L 242.01582 258.500993 
L 242.01582 256.744876 
L 242.01582 254.988759 
L 242.01582 253.232642 
" clip-path="url(#p4c455d0a33)" style="fill: none; stroke: #ff0000; stroke-opacity: 0.4; stroke-width: 0.25; stroke-linecap: square"/>
   </g>
   <g id="line2d_73">
    <path d="M 242.01582 305.916148 
L 242.01582 304.160031 
L 242.01582 302.403914 
L 242.01582 300.647798 
L 242.01582 298.891681 
L 242.01582 297.135564 
L 242.01582 295.379447 
L 242.01582 293.62333 
L 242.01582 291.867213 
L 242.01582 290.111096 
L 242.01582 288.35498 
L 242.01582 286.598863 
L 242.01582 284.842746 
L 242.01582 283.086629 
L 242.01582 281.330512 
L 242.01582 279.574395 
L 242.01582 277.818278 
L 242.01582 276.062161 
L 242.01582 274.306045 
L 242.01582 272.549928 
L 242.01582 270.793811 
L 242.01582 269.037694 
L 242.01582 267.281577 
L 242.01582 265.52546 
L 242.01582 263.769343 
L 242.01582 262.013227 
L 242.01582 260.25711 
L 242.01582 258.500993 
L 242.01582 256.744876 
L 242.01582 254.988759 
L 242.01582 253.232642 
" clip-path="url(#p4c455d0a33)" style="fill: none; stroke: #ff0000; stroke-opacity: 0.6; stroke-width: 0.25; stroke-linecap: square"/>
   </g>
   <g id="line2d_74">
    <path d="M 242.01582 305.916148 
L 242.01582 304.160031 
L 242.01582 302.403914 
L 242.01582 300.647798 
L 242.01582 298.891681 
L 242.01582 297.135564 
L 242.01582 295.379447 
L 242.01582 293.62333 
L 242.01582 291.867213 
L 242.01582 290.111096 
L 242.01582 288.35498 
L 242.01582 286.598863 
L 242.01582 284.842746 
L 242.01582 283.086629 
L 242.01582 281.330512 
L 242.01582 279.574395 
L 242.01582 277.818278 
L 242.01582 276.062161 
L 242.01582 274.306045 
L 242.01582 272.549928 
L 242.01582 270.793811 
L 242.01582 269.037694 
L 242.01582 267.281577 
L 242.01582 265.52546 
L 242.01582 263.769343 
L 242.01582 262.013227 
L 242.01582 260.25711 
L 242.01582 258.500993 
L 242.01582 256.744876 
L 242.01582 254.988759 
L 242.01582 253.232642 
" clip-path="url(#p4c455d0a33)" style="fill: none; stroke: #ff0000; stroke-opacity: 0.8; stroke-width: 0.25; stroke-linecap: square"/>
   </g>
   <g id="line2d_75">
    <path d="M 242.01582 305.916148 
L 242.01582 304.160031 
L 242.01582 302.403914 
L 242.01582 300.647798 
L 242.01582 298.891681 
L 242.01582 297.135564 
L 242.01582 295.379447 
L 242.01582 293.62333 
L 242.01582 291.867213 
L 242.01582 290.111096 
L 242.01582 288.35498 
L 242.01582 286.598863 
L 242.01582 284.842746 
L 242.01582 283.086629 
L 242.01582 281.330512 
L 242.01582 279.574395 
L 242.01582 277.818278 
L 242.01582 276.062161 
L 242.01582 274.306045 
L 242.01582 272.549928 
L 242.01582 270.793811 
L 242.01582 269.037694 
L 242.01582 267.281577 
L 242.01582 265.52546 
L 242.01582 263.769343 
L 242.01582 262.013227 
L 242.01582 260.25711 
L 242.01582 258.500993 
L 242.01582 256.744876 
L 242.01582 254.988759 
L 242.01582 253.232642 
" clip-path="url(#p4c455d0a33)" style="fill: none; stroke: #ff0000; stroke-width: 0.25; stroke-linecap: square"/>
   </g>
   <g id="line2d_76">
    <path d="M 363.15791 168.67218 
L 360.913988 168.67218 
L 358.670067 168.67218 
L 356.426146 168.67218 
L 354.182225 168.67218 
L 351.938304 168.67218 
L 349.694383 168.67218 
L 347.450461 168.67218 
L 345.20654 168.67218 
L 342.962619 168.67218 
L 340.718698 168.67218 
L 338.474777 168.67218 
L 336.230856 168.67218 
L 333.986934 168.67218 
L 331.743013 168.67218 
L 329.499092 168.67218 
L 327.255171 168.67218 
L 325.01125 168.67218 
L 322.767329 168.67218 
L 320.523408 168.67218 
L 318.279486 168.67218 
L 316.035565 168.67218 
L 313.791644 168.67218 
L 311.547723 168.67218 
L 309.303802 168.67218 
L 307.059881 168.67218 
L 304.815959 168.67218 
L 302.572038 168.67218 
L 300.328117 168.67218 
L 298.084196 168.67218 
L 295.840275 168.67218 
" clip-path="url(#p4c455d0a33)" style="fill: none; stroke: #ff0000; stroke-opacity: 0.2; stroke-width: 0.25; stroke-linecap: square"/>
   </g>
   <g id="line2d_77">
    <path d="M 363.15791 168.67218 
L 360.913988 168.67218 
L 358.670067 168.67218 
L 356.426146 168.67218 
L 354.182225 168.67218 
L 351.938304 168.67218 
L 349.694383 168.67218 
L 347.450461 168.67218 
L 345.20654 168.67218 
L 342.962619 168.67218 
L 340.718698 168.67218 
L 338.474777 168.67218 
L 336.230856 168.67218 
L 333.986934 168.67218 
L 331.743013 168.67218 
L 329.499092 168.67218 
L 327.255171 168.67218 
L 325.01125 168.67218 
L 322.767329 168.67218 
L 320.523408 168.67218 
L 318.279486 168.67218 
L 316.035565 168.67218 
L 313.791644 168.67218 
L 311.547723 168.67218 
L 309.303802 168.67218 
L 307.059881 168.67218 
L 304.815959 168.67218 
L 302.572038 168.67218 
L 300.328117 168.67218 
L 298.084196 168.67218 
L 295.840275 168.67218 
" clip-path="url(#p4c455d0a33)" style="fill: none; stroke: #ff0000; stroke-opacity: 0.4; stroke-width: 0.25; stroke-linecap: square"/>
   </g>
   <g id="line2d_78">
    <path d="M 363.15791 168.67218 
L 360.913988 168.67218 
L 358.670067 168.67218 
L 356.426146 168.67218 
L 354.182225 168.67218 
L 351.938304 168.67218 
L 349.694383 168.67218 
L 347.450461 168.67218 
L 345.20654 168.67218 
L 342.962619 168.67218 
L 340.718698 168.67218 
L 338.474777 168.67218 
L 336.230856 168.67218 
L 333.986934 168.67218 
L 331.743013 168.67218 
L 329.499092 168.67218 
L 327.255171 168.67218 
L 325.01125 168.67218 
L 322.767329 168.67218 
L 320.523408 168.67218 
L 318.279486 168.67218 
L 316.035565 168.67218 
L 313.791644 168.67218 
L 311.547723 168.67218 
L 309.303802 168.67218 
L 307.059881 168.67218 
L 304.815959 168.67218 
L 302.572038 168.67218 
L 300.328117 168.67218 
L 298.084196 168.67218 
L 295.840275 168.67218 
" clip-path="url(#p4c455d0a33)" style="fill: none; stroke: #ff0000; stroke-opacity: 0.6; stroke-width: 0.25; stroke-linecap: square"/>
   </g>
   <g id="line2d_79">
    <path d="M 363.15791 168.67218 
L 360.913988 168.67218 
L 358.670067 168.67218 
L 356.426146 168.67218 
L 354.182225 168.67218 
L 351.938304 168.67218 
L 349.694383 168.67218 
L 347.450461 168.67218 
L 345.20654 168.67218 
L 342.962619 168.67218 
L 340.718698 168.67218 
L 338.474777 168.67218 
L 336.230856 168.67218 
L 333.986934 168.67218 
L 331.743013 168.67218 
L 329.499092 168.67218 
L 327.255171 168.67218 
L 325.01125 168.67218 
L 322.767329 168.67218 
L 320.523408 168.67218 
L 318.279486 168.67218 
L 316.035565 168.67218 
L 313.791644 168.67218 
L 311.547723 168.67218 
L 309.303802 168.67218 
L 307.059881 168.67218 
L 304.815959 168.67218 
L 302.572038 168.67218 
L 300.328117 168.67218 
L 298.084196 168.67218 
L 295.840275 168.67218 
" clip-path="url(#p4c455d0a33)" style="fill: none; stroke: #ff0000; stroke-opacity: 0.8; stroke-width: 0.25; stroke-linecap: square"/>
   </g>
   <g id="line2d_80">
    <path d="M 363.15791 168.67218 
L 360.913988 168.67218 
L 358.670067 168.67218 
L 356.426146 168.67218 
L 354.182225 168.67218 
L 351.938304 168.67218 
L 349.694383 168.67218 
L 347.450461 168.67218 
L 345.20654 168.67218 
L 342.962619 168.67218 
L 340.718698 168.67218 
L 338.474777 168.67218 
L 336.230856 168.67218 
L 333.986934 168.67218 
L 331.743013 168.67218 
L 329.499092 168.67218 
L 327.255171 168.67218 
L 325.01125 168.67218 
L 322.767329 168.67218 
L 320.523408 168.67218 
L 318.279486 168.67218 
L 316.035565 168.67218 
L 313.791644 168.67218 
L 311.547723 168.67218 
L 309.303802 168.67218 
L 307.059881 168.67218 
L 304.815959 168.67218 
L 302.572038 168.67218 
L 300.328117 168.67218 
L 298.084196 168.67218 
L 295.840275 168.67218 
" clip-path="url(#p4c455d0a33)" style="fill: none; stroke: #ff0000; stroke-width: 0.25; stroke-linecap: square"/>
   </g>
   <g id="line2d_81">
    <path d="M 230.30418 43.139852 
L 230.30418 44.895969 
L 230.30418 46.652086 
L 230.30418 48.408202 
L 230.30418 50.164319 
L 230.30418 51.920436 
L 230.30418 53.676553 
L 230.30418 55.43267 
L 230.30418 57.188787 
L 230.30418 58.944904 
L 230.30418 60.70102 
L 230.30418 62.457137 
L 230.30418 64.213254 
L 230.30418 65.969371 
L 230.30418 67.725488 
L 230.30418 69.481605 
L 230.30418 71.237722 
L 230.30418 72.993839 
L 230.30418 74.749955 
L 230.30418 76.506072 
L 230.30418 78.262189 
L 230.30418 80.018306 
L 230.30418 81.774423 
L 230.30418 83.53054 
L 230.30418 85.286657 
L 230.30418 87.042773 
L 230.30418 88.79889 
L 230.30418 90.555007 
L 230.30418 92.311124 
L 230.30418 94.067241 
L 230.30418 95.823358 
" clip-path="url(#p4c455d0a33)" style="fill: none; stroke: #ff0000; stroke-opacity: 0.2; stroke-width: 0.25; stroke-linecap: square"/>
   </g>
   <g id="line2d_82">
    <path d="M 230.30418 43.139852 
L 230.30418 44.895969 
L 230.30418 46.652086 
L 230.30418 48.408202 
L 230.30418 50.164319 
L 230.30418 51.920436 
L 230.30418 53.676553 
L 230.30418 55.43267 
L 230.30418 57.188787 
L 230.30418 58.944904 
L 230.30418 60.70102 
L 230.30418 62.457137 
L 230.30418 64.213254 
L 230.30418 65.969371 
L 230.30418 67.725488 
L 230.30418 69.481605 
L 230.30418 71.237722 
L 230.30418 72.993839 
L 230.30418 74.749955 
L 230.30418 76.506072 
L 230.30418 78.262189 
L 230.30418 80.018306 
L 230.30418 81.774423 
L 230.30418 83.53054 
L 230.30418 85.286657 
L 230.30418 87.042773 
L 230.30418 88.79889 
L 230.30418 90.555007 
L 230.30418 92.311124 
L 230.30418 94.067241 
L 230.30418 95.823358 
" clip-path="url(#p4c455d0a33)" style="fill: none; stroke: #ff0000; stroke-opacity: 0.4; stroke-width: 0.25; stroke-linecap: square"/>
   </g>
   <g id="line2d_83">
    <path d="M 230.30418 43.139852 
L 230.30418 44.895969 
L 230.30418 46.652086 
L 230.30418 48.408202 
L 230.30418 50.164319 
L 230.30418 51.920436 
L 230.30418 53.676553 
L 230.30418 55.43267 
L 230.30418 57.188787 
L 230.30418 58.944904 
L 230.30418 60.70102 
L 230.30418 62.457137 
L 230.30418 64.213254 
L 230.30418 65.969371 
L 230.30418 67.725488 
L 230.30418 69.481605 
L 230.30418 71.237722 
L 230.30418 72.993839 
L 230.30418 74.749955 
L 230.30418 76.506072 
L 230.30418 78.262189 
L 230.30418 80.018306 
L 230.30418 81.774423 
L 230.30418 83.53054 
L 230.30418 85.286657 
L 230.30418 87.042773 
L 230.30418 88.79889 
L 230.30418 90.555007 
L 230.30418 92.311124 
L 230.30418 94.067241 
L 230.30418 95.823358 
" clip-path="url(#p4c455d0a33)" style="fill: none; stroke: #ff0000; stroke-opacity: 0.6; stroke-width: 0.25; stroke-linecap: square"/>
   </g>
   <g id="line2d_84">
    <path d="M 230.30418 43.139852 
L 230.30418 44.895969 
L 230.30418 46.652086 
L 230.30418 48.408202 
L 230.30418 50.164319 
L 230.30418 51.920436 
L 230.30418 53.676553 
L 230.30418 55.43267 
L 230.30418 57.188787 
L 230.30418 58.944904 
L 230.30418 60.70102 
L 230.30418 62.457137 
L 230.30418 64.213254 
L 230.30418 65.969371 
L 230.30418 67.725488 
L 230.30418 69.481605 
L 230.30418 71.237722 
L 230.30418 72.993839 
L 230.30418 74.749955 
L 230.30418 76.506072 
L 230.30418 78.262189 
L 230.30418 80.018306 
L 230.30418 81.774423 
L 230.30418 83.53054 
L 230.30418 85.286657 
L 230.30418 87.042773 
L 230.30418 88.79889 
L 230.30418 90.555007 
L 230.30418 92.311124 
L 230.30418 94.067241 
L 230.30418 95.823358 
" clip-path="url(#p4c455d0a33)" style="fill: none; stroke: #ff0000; stroke-opacity: 0.8; stroke-width: 0.25; stroke-linecap: square"/>
   </g>
   <g id="line2d_85">
    <path d="M 230.30418 43.139852 
L 230.30418 44.895969 
L 230.30418 46.652086 
L 230.30418 48.408202 
L 230.30418 50.164319 
L 230.30418 51.920436 
L 230.30418 53.676553 
L 230.30418 55.43267 
L 230.30418 57.188787 
L 230.30418 58.944904 
L 230.30418 60.70102 
L 230.30418 62.457137 
L 230.30418 64.213254 
L 230.30418 65.969371 
L 230.30418 67.725488 
L 230.30418 69.481605 
L 230.30418 71.237722 
L 230.30418 72.993839 
L 230.30418 74.749955 
L 230.30418 76.506072 
L 230.30418 78.262189 
L 230.30418 80.018306 
L 230.30418 81.774423 
L 230.30418 83.53054 
L 230.30418 85.286657 
L 230.30418 87.042773 
L 230.30418 88.79889 
L 230.30418 90.555007 
L 230.30418 92.311124 
L 230.30418 94.067241 
L 230.30418 95.823358 
" clip-path="url(#p4c455d0a33)" style="fill: none; stroke: #ff0000; stroke-width: 0.25; stroke-linecap: square"/>
   </g>
   <g id="line2d_86">
    <path d="M 104.771852 180.38382 
L 106.527969 180.38382 
L 108.284086 180.38382 
L 110.040202 180.38382 
L 111.796319 180.38382 
L 113.552436 180.38382 
L 115.308553 180.38382 
L 117.06467 180.38382 
L 118.820787 180.38382 
L 120.576904 180.38382 
L 122.33302 180.38382 
L 124.089137 180.38382 
L 125.845254 180.38382 
L 127.601371 180.38382 
L 129.357488 180.38382 
L 131.113605 180.38382 
L 132.869722 180.38382 
L 134.625839 180.38382 
L 136.381955 180.38382 
L 138.138072 180.38382 
L 139.894189 180.38382 
L 141.650306 180.38382 
L 143.406423 180.38382 
L 145.16254 180.38382 
L 146.918657 180.38382 
L 148.674773 180.38382 
L 150.43089 180.38382 
L 152.187007 180.38382 
L 153.943124 180.38382 
L 155.699241 180.38382 
L 157.455358 180.38382 
" clip-path="url(#p4c455d0a33)" style="fill: none; stroke: #ff0000; stroke-opacity: 0.2; stroke-width: 0.25; stroke-linecap: square"/>
   </g>
   <g id="line2d_87">
    <path d="M 104.771852 180.38382 
L 106.527969 180.38382 
L 108.284086 180.38382 
L 110.040202 180.38382 
L 111.796319 180.38382 
L 113.552436 180.38382 
L 115.308553 180.38382 
L 117.06467 180.38382 
L 118.820787 180.38382 
L 120.576904 180.38382 
L 122.33302 180.38382 
L 124.089137 180.38382 
L 125.845254 180.38382 
L 127.601371 180.38382 
L 129.357488 180.38382 
L 131.113605 180.38382 
L 132.869722 180.38382 
L 134.625839 180.38382 
L 136.381955 180.38382 
L 138.138072 180.38382 
L 139.894189 180.38382 
L 141.650306 180.38382 
L 143.406423 180.38382 
L 145.16254 180.38382 
L 146.918657 180.38382 
L 148.674773 180.38382 
L 150.43089 180.38382 
L 152.187007 180.38382 
L 153.943124 180.38382 
L 155.699241 180.38382 
L 157.455358 180.38382 
" clip-path="url(#p4c455d0a33)" style="fill: none; stroke: #ff0000; stroke-opacity: 0.4; stroke-width: 0.25; stroke-linecap: square"/>
   </g>
   <g id="line2d_88">
    <path d="M 104.771852 180.38382 
L 106.527969 180.38382 
L 108.284086 180.38382 
L 110.040202 180.38382 
L 111.796319 180.38382 
L 113.552436 180.38382 
L 115.308553 180.38382 
L 117.06467 180.38382 
L 118.820787 180.38382 
L 120.576904 180.38382 
L 122.33302 180.38382 
L 124.089137 180.38382 
L 125.845254 180.38382 
L 127.601371 180.38382 
L 129.357488 180.38382 
L 131.113605 180.38382 
L 132.869722 180.38382 
L 134.625839 180.38382 
L 136.381955 180.38382 
L 138.138072 180.38382 
L 139.894189 180.38382 
L 141.650306 180.38382 
L 143.406423 180.38382 
L 145.16254 180.38382 
L 146.918657 180.38382 
L 148.674773 180.38382 
L 150.43089 180.38382 
L 152.187007 180.38382 
L 153.943124 180.38382 
L 155.699241 180.38382 
L 157.455358 180.38382 
" clip-path="url(#p4c455d0a33)" style="fill: none; stroke: #ff0000; stroke-opacity: 0.6; stroke-width: 0.25; stroke-linecap: square"/>
   </g>
   <g id="line2d_89">
    <path d="M 104.771852 180.38382 
L 106.527969 180.38382 
L 108.284086 180.38382 
L 110.040202 180.38382 
L 111.796319 180.38382 
L 113.552436 180.38382 
L 115.308553 180.38382 
L 117.06467 180.38382 
L 118.820787 180.38382 
L 120.576904 180.38382 
L 122.33302 180.38382 
L 124.089137 180.38382 
L 125.845254 180.38382 
L 127.601371 180.38382 
L 129.357488 180.38382 
L 131.113605 180.38382 
L 132.869722 180.38382 
L 134.625839 180.38382 
L 136.381955 180.38382 
L 138.138072 180.38382 
L 139.894189 180.38382 
L 141.650306 180.38382 
L 143.406423 180.38382 
L 145.16254 180.38382 
L 146.918657 180.38382 
L 148.674773 180.38382 
L 150.43089 180.38382 
L 152.187007 180.38382 
L 153.943124 180.38382 
L 155.699241 180.38382 
L 157.455358 180.38382 
" clip-path="url(#p4c455d0a33)" style="fill: none; stroke: #ff0000; stroke-opacity: 0.8; stroke-width: 0.25; stroke-linecap: square"/>
   </g>
   <g id="line2d_90">
    <path d="M 104.771852 180.38382 
L 106.527969 180.38382 
L 108.284086 180.38382 
L 110.040202 180.38382 
L 111.796319 180.38382 
L 113.552436 180.38382 
L 115.308553 180.38382 
L 117.06467 180.38382 
L 118.820787 180.38382 
L 120.576904 180.38382 
L 122.33302 180.38382 
L 124.089137 180.38382 
L 125.845254 180.38382 
L 127.601371 180.38382 
L 129.357488 180.38382 
L 131.113605 180.38382 
L 132.869722 180.38382 
L 134.625839 180.38382 
L 136.381955 180.38382 
L 138.138072 180.38382 
L 139.894189 180.38382 
L 141.650306 180.38382 
L 143.406423 180.38382 
L 145.16254 180.38382 
L 146.918657 180.38382 
L 148.674773 180.38382 
L 150.43089 180.38382 
L 152.187007 180.38382 
L 153.943124 180.38382 
L 155.699241 180.38382 
L 157.455358 180.38382 
" clip-path="url(#p4c455d0a33)" style="fill: none; stroke: #ff0000; stroke-width: 0.25; stroke-linecap: square"/>
   </g>
   <g id="patch_15">
    <path d="M 103.104 307.584 
L 103.104 41.472 
" style="fill: none; stroke: #000000; stroke-width: 0.8; stroke-linejoin: miter; stroke-linecap: square"/>
   </g>
   <g id="patch_16">
    <path d="M 369.216 307.584 
L 369.216 41.472 
" style="fill: none; stroke: #000000; stroke-width: 0.8; stroke-linejoin: miter; stroke-linecap: square"/>
   </g>
   <g id="patch_17">
    <path d="M 103.104 307.584 
L 369.216 307.584 
" style="fill: none; stroke: #000000; stroke-width: 0.8; stroke-linejoin: miter; stroke-linecap: square"/>
   </g>
   <g id="patch_18">
    <path d="M 103.104 41.472 
L 369.216 41.472 
" style="fill: none; stroke: #000000; stroke-width: 0.8; stroke-linejoin: miter; stroke-linecap: square"/>
   </g>
   <g id="text_19">
    <!-- Time:   9 ms -->
    <g transform="translate(267.438262 54.7776) scale(0.1 -0.1)">
     <defs>
      <path id="DejaVuSans-54" d="M -19 4666 
L 3928 4666 
L 3928 4134 
L 2272 4134 
L 2272 0 
L 1638 0 
L 1638 4134 
L -19 4134 
L -19 4666 
z
" transform="scale(0.015625)"/>
      <path id="DejaVuSans-69" d="M 603 3500 
L 1178 3500 
L 1178 0 
L 603 0 
L 603 3500 
z
M 603 4863 
L 1178 4863 
L 1178 4134 
L 603 4134 
L 603 4863 
z
" transform="scale(0.015625)"/>
      <path id="DejaVuSans-6d" d="M 3328 2828 
Q 3544 3216 3844 3400 
Q 4144 3584 4550 3584 
Q 5097 3584 5394 3201 
Q 5691 2819 5691 2113 
L 5691 0 
L 5113 0 
L 5113 2094 
Q 5113 2597 4934 2840 
Q 4756 3084 4391 3084 
Q 3944 3084 3684 2787 
Q 3425 2491 3425 1978 
L 3425 0 
L 2847 0 
L 2847 2094 
Q 2847 2600 2669 2842 
Q 2491 3084 2119 3084 
Q 1678 3084 1418 2786 
Q 1159 2488 1159 1978 
L 1159 0 
L 581 0 
L 581 3500 
L 1159 3500 
L 1159 2956 
Q 1356 3278 1631 3431 
Q 1906 3584 2284 3584 
Q 2666 3584 2933 3390 
Q 3200 3197 3328 2828 
z
" transform="scale(0.015625)"/>
      <path id="DejaVuSans-65" d="M 3597 1894 
L 3597 1613 
L 953 1613 
Q 991 1019 1311 708 
Q 1631 397 2203 397 
Q 2534 397 2845 478 
Q 3156 559 3463 722 
L 3463 178 
Q 3153 47 2828 -22 
Q 2503 -91 2169 -91 
Q 1331 -91 842 396 
Q 353 884 353 1716 
Q 353 2575 817 3079 
Q 1281 3584 2069 3584 
Q 2775 3584 3186 3129 
Q 3597 2675 3597 1894 
z
M 3022 2063 
Q 3016 2534 2758 2815 
Q 2500 3097 2075 3097 
Q 1594 3097 1305 2825 
Q 1016 2553 972 2059 
L 3022 2063 
z
" transform="scale(0.015625)"/>
      <path id="DejaVuSans-3a" d="M 750 794 
L 1409 794 
L 1409 0 
L 750 0 
L 750 794 
z
M 750 3309 
L 1409 3309 
L 1409 2516 
L 750 2516 
L 750 3309 
z
" transform="scale(0.015625)"/>
      <path id="DejaVuSans-20" transform="scale(0.015625)"/>
      <path id="DejaVuSans-39" d="M 703 97 
L 703 672 
Q 941 559 1184 500 
Q 1428 441 1663 441 
Q 2288 441 2617 861 
Q 2947 1281 2994 2138 
Q 2813 1869 2534 1725 
Q 2256 1581 1919 1581 
Q 1219 1581 811 2004 
Q 403 2428 403 3163 
Q 403 3881 828 4315 
Q 1253 4750 1959 4750 
Q 2769 4750 3195 4129 
Q 3622 3509 3622 2328 
Q 3622 1225 3098 567 
Q 2575 -91 1691 -91 
Q 1453 -91 1209 -44 
Q 966 3 703 97 
z
M 1959 2075 
Q 2384 2075 2632 2365 
Q 2881 2656 2881 3163 
Q 2881 3666 2632 3958 
Q 2384 4250 1959 4250 
Q 1534 4250 1286 3958 
Q 1038 3666 1038 3163 
Q 1038 2656 1286 2365 
Q 1534 2075 1959 2075 
z
" transform="scale(0.015625)"/>
      <path id="DejaVuSans-73" d="M 2834 3397 
L 2834 2853 
Q 2591 2978 2328 3040 
Q 2066 3103 1784 3103 
Q 1356 3103 1142 2972 
Q 928 2841 928 2578 
Q 928 2378 1081 2264 
Q 1234 2150 1697 2047 
L 1894 2003 
Q 2506 1872 2764 1633 
Q 3022 1394 3022 966 
Q 3022 478 2636 193 
Q 2250 -91 1575 -91 
Q 1294 -91 989 -36 
Q 684 19 347 128 
L 347 722 
Q 666 556 975 473 
Q 1284 391 1588 391 
Q 1994 391 2212 530 
Q 2431 669 2431 922 
Q 2431 1156 2273 1281 
Q 2116 1406 1581 1522 
L 1381 1569 
Q 847 1681 609 1914 
Q 372 2147 372 2553 
Q 372 3047 722 3315 
Q 1072 3584 1716 3584 
Q 2034 3584 2315 3537 
Q 2597 3491 2834 3397 
z
" transform="scale(0.015625)"/>
     </defs>
     <use xlink:href="#DejaVuSans-54"/>
     <use xlink:href="#DejaVuSans-69" x="57.958984"/>
     <use xlink:href="#DejaVuSans-6d" x="85.742188"/>
     <use xlink:href="#DejaVuSans-65" x="183.154297"/>
     <use xlink:href="#DejaVuSans-3a" x="244.677734"/>
     <use xlink:href="#DejaVuSans-20" x="278.369141"/>
     <use xlink:href="#DejaVuSans-20" x="310.15625"/>
     <use xlink:href="#DejaVuSans-20" x="341.943359"/>
     <use xlink:href="#DejaVuSans-39" x="373.730469"/>
     <use xlink:href="#DejaVuSans-20" x="437.353516"/>
     <use xlink:href="#DejaVuSans-6d" x="469.140625"/>
     <use xlink:href="#DejaVuSans-73" x="566.552734"/>
    </g>
   </g>
  </g>
 </g>
 <defs>
  <clipPath id="p4c455d0a33">
   <rect x="103.104" y="41.472" width="266.112" height="266.112"/>
  </clipPath>
 </defs>
</svg>
