<?xml version="1.0" encoding="utf-8" standalone="no"?>
<!DOCTYPE svg PUBLIC "-//W3C//DTD SVG 1.1//EN"
  "http://www.w3.org/Graphics/SVG/1.1/DTD/svg11.dtd">
<svg xmlns:xlink="http://www.w3.org/1999/xlink" width="460.8pt" height="345.6pt" viewBox="0 0 460.8 345.6" xmlns="http://www.w3.org/2000/svg" version="1.1">
 <metadata>
  <rdf:RDF xmlns:dc="http://purl.org/dc/elements/1.1/" xmlns:cc="http://creativecommons.org/ns#" xmlns:rdf="http://www.w3.org/1999/02/22-rdf-syntax-ns#">
   <cc:Work>
    <dc:type rdf:resource="http://purl.org/dc/dcmitype/StillImage"/>
    <dc:date>2024-01-23T16:31:58.644836</dc:date>
    <dc:format>image/svg+xml</dc:format>
    <dc:creator>
     <cc:Agent>
      <dc:title>Matplotlib v3.8.2, https://matplotlib.org/</dc:title>
     </cc:Agent>
    </dc:creator>
   </cc:Work>
  </rdf:RDF>
 </metadata>
 <defs>
  <style type="text/css">*{stroke-linejoin: round; stroke-linecap: butt}</style>
 </defs>
 <g id="figure_1">
  <g id="patch_1">
   <path d="M 0 345.6 
L 460.8 345.6 
L 460.8 0 
L 0 0 
z
" style="fill: #ffffff"/>
  </g>
  <g id="axes_1">
   <g id="patch_2">
    <path d="M 103.104 307.584 
L 369.216 307.584 
L 369.216 41.472 
L 103.104 41.472 
z
" style="fill: #ffffff"/>
   </g>
   <g id="patch_3">
    <path d="M 88.167434 165.84474 
L 76.525034 165.84474 
L 76.525034 171.49962 
L 88.167434 171.49962 
z
" clip-path="url(#pa82f903d48)" style="fill: #00008b"/>
   </g>
   <g id="patch_4">
    <path d="M 244.84326 22.210416 
L 244.84326 10.568016 
L 239.18838 10.568016 
L 239.18838 22.210416 
z
" clip-path="url(#pa82f903d48)" style="fill: #800000"/>
   </g>
   <g id="patch_5">
    <path d="M 227.47674 322.731003 
L 227.47674 334.373403 
L 233.13162 334.373403 
L 233.13162 322.731003 
z
" clip-path="url(#pa82f903d48)" style="fill: #006400"/>
   </g>
   <g id="patch_6">
    <path d="M 384.363003 183.21126 
L 396.005403 183.21126 
L 396.005403 177.55638 
L 384.363003 177.55638 
z
" clip-path="url(#pa82f903d48)" style="fill: #4b0082"/>
   </g>
   <g id="patch_7">
    <path d="M 244.843258 76.683585 
L 244.843257 65.041185 
L 239.188377 65.041186 
L 239.188378 76.683586 
z
" clip-path="url(#pa82f903d48)" style="fill: #0000ff"/>
   </g>
   <g id="patch_8">
    <path d="M 138.316237 165.844741 
L 126.673837 165.844741 
L 126.673837 171.499621 
L 138.316237 171.499621 
z
" clip-path="url(#pa82f903d48)" style="fill: #ff0000"/>
   </g>
   <g id="patch_9">
    <path d="M 333.189693 183.21126 
L 344.832093 183.211259 
L 344.832093 177.556379 
L 333.189693 177.55638 
z
" clip-path="url(#pa82f903d48)" style="fill: #dbdc56"/>
   </g>
   <g id="patch_10">
    <path d="M 244.843443 115.687219 
L 244.843088 104.044819 
L 239.188208 104.044992 
L 239.188563 115.687392 
z
" clip-path="url(#pa82f903d48)" style="fill: #9400d3"/>
   </g>
   <g id="patch_11">
    <path d="M 288.374604 183.208809 
L 300.017003 183.213774 
L 300.019414 177.558895 
L 288.377015 177.55393 
z
" clip-path="url(#pa82f903d48)" style="fill: #1e90ff"/>
   </g>
   <g id="patch_12">
    <path d="M 227.476733 261.378536 
L 227.476733 273.020936 
L 233.131613 273.020936 
L 233.131613 261.378536 
z
" clip-path="url(#pa82f903d48)" style="fill: #ff4500"/>
   </g>
   <g id="patch_13">
    <path d="M 183.944614 165.847596 
L 172.302215 165.841814 
L 172.299406 171.496693 
L 183.941805 171.502476 
z
" clip-path="url(#pa82f903d48)" style="fill: #7cfc00"/>
   </g>
   <g id="patch_14">
    <path d="M 227.479563 226.743454 
L 227.473836 238.385853 
L 233.128715 238.388635 
L 233.134442 226.746236 
z
" clip-path="url(#pa82f903d48)" style="fill: #ff00ff"/>
   </g>
   <g id="matplotlib.axis_1">
    <g id="xtick_1">
     <g id="line2d_1">
      <defs>
       <path id="mae9bbc2a92" d="M 0 0 
L 0 3.5 
" style="stroke: #000000; stroke-width: 0.8"/>
      </defs>
      <g>
       <use xlink:href="#mae9bbc2a92" x="103.104" y="307.584" style="stroke: #000000; stroke-width: 0.8"/>
      </g>
     </g>
     <g id="text_1">
      <!-- −40 -->
      <g transform="translate(92.551656 322.182437) scale(0.1 -0.1)">
       <defs>
        <path id="DejaVuSans-2212" d="M 678 2272 
L 4684 2272 
L 4684 1741 
L 678 1741 
L 678 2272 
z
" transform="scale(0.015625)"/>
        <path id="DejaVuSans-34" d="M 2419 4116 
L 825 1625 
L 2419 1625 
L 2419 4116 
z
M 2253 4666 
L 3047 4666 
L 3047 1625 
L 3713 1625 
L 3713 1100 
L 3047 1100 
L 3047 0 
L 2419 0 
L 2419 1100 
L 313 1100 
L 313 1709 
L 2253 4666 
z
" transform="scale(0.015625)"/>
        <path id="DejaVuSans-30" d="M 2034 4250 
Q 1547 4250 1301 3770 
Q 1056 3291 1056 2328 
Q 1056 1369 1301 889 
Q 1547 409 2034 409 
Q 2525 409 2770 889 
Q 3016 1369 3016 2328 
Q 3016 3291 2770 3770 
Q 2525 4250 2034 4250 
z
M 2034 4750 
Q 2819 4750 3233 4129 
Q 3647 3509 3647 2328 
Q 3647 1150 3233 529 
Q 2819 -91 2034 -91 
Q 1250 -91 836 529 
Q 422 1150 422 2328 
Q 422 3509 836 4129 
Q 1250 4750 2034 4750 
z
" transform="scale(0.015625)"/>
       </defs>
       <use xlink:href="#DejaVuSans-2212"/>
       <use xlink:href="#DejaVuSans-34" x="83.789062"/>
       <use xlink:href="#DejaVuSans-30" x="147.412109"/>
      </g>
     </g>
    </g>
    <g id="xtick_2">
     <g id="line2d_2">
      <g>
       <use xlink:href="#mae9bbc2a92" x="136.368" y="307.584" style="stroke: #000000; stroke-width: 0.8"/>
      </g>
     </g>
     <g id="text_2">
      <!-- −30 -->
      <g transform="translate(125.815656 322.182437) scale(0.1 -0.1)">
       <defs>
        <path id="DejaVuSans-33" d="M 2597 2516 
Q 3050 2419 3304 2112 
Q 3559 1806 3559 1356 
Q 3559 666 3084 287 
Q 2609 -91 1734 -91 
Q 1441 -91 1130 -33 
Q 819 25 488 141 
L 488 750 
Q 750 597 1062 519 
Q 1375 441 1716 441 
Q 2309 441 2620 675 
Q 2931 909 2931 1356 
Q 2931 1769 2642 2001 
Q 2353 2234 1838 2234 
L 1294 2234 
L 1294 2753 
L 1863 2753 
Q 2328 2753 2575 2939 
Q 2822 3125 2822 3475 
Q 2822 3834 2567 4026 
Q 2313 4219 1838 4219 
Q 1578 4219 1281 4162 
Q 984 4106 628 3988 
L 628 4550 
Q 988 4650 1302 4700 
Q 1616 4750 1894 4750 
Q 2613 4750 3031 4423 
Q 3450 4097 3450 3541 
Q 3450 3153 3228 2886 
Q 3006 2619 2597 2516 
z
" transform="scale(0.015625)"/>
       </defs>
       <use xlink:href="#DejaVuSans-2212"/>
       <use xlink:href="#DejaVuSans-33" x="83.789062"/>
       <use xlink:href="#DejaVuSans-30" x="147.412109"/>
      </g>
     </g>
    </g>
    <g id="xtick_3">
     <g id="line2d_3">
      <g>
       <use xlink:href="#mae9bbc2a92" x="169.632" y="307.584" style="stroke: #000000; stroke-width: 0.8"/>
      </g>
     </g>
     <g id="text_3">
      <!-- −20 -->
      <g transform="translate(159.079656 322.182437) scale(0.1 -0.1)">
       <defs>
        <path id="DejaVuSans-32" d="M 1228 531 
L 3431 531 
L 3431 0 
L 469 0 
L 469 531 
Q 828 903 1448 1529 
Q 2069 2156 2228 2338 
Q 2531 2678 2651 2914 
Q 2772 3150 2772 3378 
Q 2772 3750 2511 3984 
Q 2250 4219 1831 4219 
Q 1534 4219 1204 4116 
Q 875 4013 500 3803 
L 500 4441 
Q 881 4594 1212 4672 
Q 1544 4750 1819 4750 
Q 2544 4750 2975 4387 
Q 3406 4025 3406 3419 
Q 3406 3131 3298 2873 
Q 3191 2616 2906 2266 
Q 2828 2175 2409 1742 
Q 1991 1309 1228 531 
z
" transform="scale(0.015625)"/>
       </defs>
       <use xlink:href="#DejaVuSans-2212"/>
       <use xlink:href="#DejaVuSans-32" x="83.789062"/>
       <use xlink:href="#DejaVuSans-30" x="147.412109"/>
      </g>
     </g>
    </g>
    <g id="xtick_4">
     <g id="line2d_4">
      <g>
       <use xlink:href="#mae9bbc2a92" x="202.896" y="307.584" style="stroke: #000000; stroke-width: 0.8"/>
      </g>
     </g>
     <g id="text_4">
      <!-- −10 -->
      <g transform="translate(192.343656 322.182437) scale(0.1 -0.1)">
       <defs>
        <path id="DejaVuSans-31" d="M 794 531 
L 1825 531 
L 1825 4091 
L 703 3866 
L 703 4441 
L 1819 4666 
L 2450 4666 
L 2450 531 
L 3481 531 
L 3481 0 
L 794 0 
L 794 531 
z
" transform="scale(0.015625)"/>
       </defs>
       <use xlink:href="#DejaVuSans-2212"/>
       <use xlink:href="#DejaVuSans-31" x="83.789062"/>
       <use xlink:href="#DejaVuSans-30" x="147.412109"/>
      </g>
     </g>
    </g>
    <g id="xtick_5">
     <g id="line2d_5">
      <g>
       <use xlink:href="#mae9bbc2a92" x="236.16" y="307.584" style="stroke: #000000; stroke-width: 0.8"/>
      </g>
     </g>
     <g id="text_5">
      <!-- 0 -->
      <g transform="translate(232.97875 322.182437) scale(0.1 -0.1)">
       <use xlink:href="#DejaVuSans-30"/>
      </g>
     </g>
    </g>
    <g id="xtick_6">
     <g id="line2d_6">
      <g>
       <use xlink:href="#mae9bbc2a92" x="269.424" y="307.584" style="stroke: #000000; stroke-width: 0.8"/>
      </g>
     </g>
     <g id="text_6">
      <!-- 10 -->
      <g transform="translate(263.0615 322.182437) scale(0.1 -0.1)">
       <use xlink:href="#DejaVuSans-31"/>
       <use xlink:href="#DejaVuSans-30" x="63.623047"/>
      </g>
     </g>
    </g>
    <g id="xtick_7">
     <g id="line2d_7">
      <g>
       <use xlink:href="#mae9bbc2a92" x="302.688" y="307.584" style="stroke: #000000; stroke-width: 0.8"/>
      </g>
     </g>
     <g id="text_7">
      <!-- 20 -->
      <g transform="translate(296.3255 322.182437) scale(0.1 -0.1)">
       <use xlink:href="#DejaVuSans-32"/>
       <use xlink:href="#DejaVuSans-30" x="63.623047"/>
      </g>
     </g>
    </g>
    <g id="xtick_8">
     <g id="line2d_8">
      <g>
       <use xlink:href="#mae9bbc2a92" x="335.952" y="307.584" style="stroke: #000000; stroke-width: 0.8"/>
      </g>
     </g>
     <g id="text_8">
      <!-- 30 -->
      <g transform="translate(329.5895 322.182437) scale(0.1 -0.1)">
       <use xlink:href="#DejaVuSans-33"/>
       <use xlink:href="#DejaVuSans-30" x="63.623047"/>
      </g>
     </g>
    </g>
    <g id="xtick_9">
     <g id="line2d_9">
      <g>
       <use xlink:href="#mae9bbc2a92" x="369.216" y="307.584" style="stroke: #000000; stroke-width: 0.8"/>
      </g>
     </g>
     <g id="text_9">
      <!-- 40 -->
      <g transform="translate(362.8535 322.182437) scale(0.1 -0.1)">
       <use xlink:href="#DejaVuSans-34"/>
       <use xlink:href="#DejaVuSans-30" x="63.623047"/>
      </g>
     </g>
    </g>
   </g>
   <g id="matplotlib.axis_2">
    <g id="ytick_1">
     <g id="line2d_10">
      <defs>
       <path id="m7fe9400c1a" d="M 0 0 
L -3.5 0 
" style="stroke: #000000; stroke-width: 0.8"/>
      </defs>
      <g>
       <use xlink:href="#m7fe9400c1a" x="103.104" y="307.584" style="stroke: #000000; stroke-width: 0.8"/>
      </g>
     </g>
     <g id="text_10">
      <!-- −40 -->
      <g transform="translate(74.999313 311.383219) scale(0.1 -0.1)">
       <use xlink:href="#DejaVuSans-2212"/>
       <use xlink:href="#DejaVuSans-34" x="83.789062"/>
       <use xlink:href="#DejaVuSans-30" x="147.412109"/>
      </g>
     </g>
    </g>
    <g id="ytick_2">
     <g id="line2d_11">
      <g>
       <use xlink:href="#m7fe9400c1a" x="103.104" y="274.32" style="stroke: #000000; stroke-width: 0.8"/>
      </g>
     </g>
     <g id="text_11">
      <!-- −30 -->
      <g transform="translate(74.999313 278.119219) scale(0.1 -0.1)">
       <use xlink:href="#DejaVuSans-2212"/>
       <use xlink:href="#DejaVuSans-33" x="83.789062"/>
       <use xlink:href="#DejaVuSans-30" x="147.412109"/>
      </g>
     </g>
    </g>
    <g id="ytick_3">
     <g id="line2d_12">
      <g>
       <use xlink:href="#m7fe9400c1a" x="103.104" y="241.056" style="stroke: #000000; stroke-width: 0.8"/>
      </g>
     </g>
     <g id="text_12">
      <!-- −20 -->
      <g transform="translate(74.999313 244.855219) scale(0.1 -0.1)">
       <use xlink:href="#DejaVuSans-2212"/>
       <use xlink:href="#DejaVuSans-32" x="83.789062"/>
       <use xlink:href="#DejaVuSans-30" x="147.412109"/>
      </g>
     </g>
    </g>
    <g id="ytick_4">
     <g id="line2d_13">
      <g>
       <use xlink:href="#m7fe9400c1a" x="103.104" y="207.792" style="stroke: #000000; stroke-width: 0.8"/>
      </g>
     </g>
     <g id="text_13">
      <!-- −10 -->
      <g transform="translate(74.999313 211.591219) scale(0.1 -0.1)">
       <use xlink:href="#DejaVuSans-2212"/>
       <use xlink:href="#DejaVuSans-31" x="83.789062"/>
       <use xlink:href="#DejaVuSans-30" x="147.412109"/>
      </g>
     </g>
    </g>
    <g id="ytick_5">
     <g id="line2d_14">
      <g>
       <use xlink:href="#m7fe9400c1a" x="103.104" y="174.528" style="stroke: #000000; stroke-width: 0.8"/>
      </g>
     </g>
     <g id="text_14">
      <!-- 0 -->
      <g transform="translate(89.7415 178.327219) scale(0.1 -0.1)">
       <use xlink:href="#DejaVuSans-30"/>
      </g>
     </g>
    </g>
    <g id="ytick_6">
     <g id="line2d_15">
      <g>
       <use xlink:href="#m7fe9400c1a" x="103.104" y="141.264" style="stroke: #000000; stroke-width: 0.8"/>
      </g>
     </g>
     <g id="text_15">
      <!-- 10 -->
      <g transform="translate(83.379 145.063219) scale(0.1 -0.1)">
       <use xlink:href="#DejaVuSans-31"/>
       <use xlink:href="#DejaVuSans-30" x="63.623047"/>
      </g>
     </g>
    </g>
    <g id="ytick_7">
     <g id="line2d_16">
      <g>
       <use xlink:href="#m7fe9400c1a" x="103.104" y="108" style="stroke: #000000; stroke-width: 0.8"/>
      </g>
     </g>
     <g id="text_16">
      <!-- 20 -->
      <g transform="translate(83.379 111.799219) scale(0.1 -0.1)">
       <use xlink:href="#DejaVuSans-32"/>
       <use xlink:href="#DejaVuSans-30" x="63.623047"/>
      </g>
     </g>
    </g>
    <g id="ytick_8">
     <g id="line2d_17">
      <g>
       <use xlink:href="#m7fe9400c1a" x="103.104" y="74.736" style="stroke: #000000; stroke-width: 0.8"/>
      </g>
     </g>
     <g id="text_17">
      <!-- 30 -->
      <g transform="translate(83.379 78.535219) scale(0.1 -0.1)">
       <use xlink:href="#DejaVuSans-33"/>
       <use xlink:href="#DejaVuSans-30" x="63.623047"/>
      </g>
     </g>
    </g>
    <g id="ytick_9">
     <g id="line2d_18">
      <g>
       <use xlink:href="#m7fe9400c1a" x="103.104" y="41.472" style="stroke: #000000; stroke-width: 0.8"/>
      </g>
     </g>
     <g id="text_18">
      <!-- 40 -->
      <g transform="translate(83.379 45.271219) scale(0.1 -0.1)">
       <use xlink:href="#DejaVuSans-34"/>
       <use xlink:href="#DejaVuSans-30" x="63.623047"/>
      </g>
     </g>
    </g>
   </g>
   <g id="line2d_19">
    <path d="M 250.2972 288.4572 
L 250.2972 188.6652 
" clip-path="url(#pa82f903d48)" style="fill: none; stroke: #000000; stroke-width: 0.25; stroke-linecap: square"/>
   </g>
   <g id="line2d_20">
    <path d="M 250.2972 188.6652 
L 350.0892 188.6652 
" clip-path="url(#pa82f903d48)" style="fill: none; stroke: #000000; stroke-width: 0.25; stroke-linecap: square"/>
   </g>
   <g id="line2d_21">
    <path d="M 350.0892 160.3908 
L 250.2972 160.3908 
" clip-path="url(#pa82f903d48)" style="fill: none; stroke: #000000; stroke-width: 0.25; stroke-linecap: square"/>
   </g>
   <g id="line2d_22">
    <path d="M 250.2972 160.3908 
L 250.2972 60.5988 
" clip-path="url(#pa82f903d48)" style="fill: none; stroke: #000000; stroke-width: 0.25; stroke-linecap: square"/>
   </g>
   <g id="line2d_23">
    <path d="M 222.0228 60.5988 
L 222.0228 160.3908 
" clip-path="url(#pa82f903d48)" style="fill: none; stroke: #000000; stroke-width: 0.25; stroke-linecap: square"/>
   </g>
   <g id="line2d_24">
    <path d="M 222.0228 160.3908 
L 122.2308 160.3908 
" clip-path="url(#pa82f903d48)" style="fill: none; stroke: #000000; stroke-width: 0.25; stroke-linecap: square"/>
   </g>
   <g id="line2d_25">
    <path d="M 122.2308 188.6652 
L 222.0228 188.6652 
" clip-path="url(#pa82f903d48)" style="fill: none; stroke: #000000; stroke-width: 0.25; stroke-linecap: square"/>
   </g>
   <g id="line2d_26">
    <path d="M 222.0228 188.6652 
L 222.0228 288.4572 
" clip-path="url(#pa82f903d48)" style="fill: none; stroke: #000000; stroke-width: 0.25; stroke-linecap: square"/>
   </g>
   <g id="line2d_27">
    <path d="M 250.2972 174.528 
L 350.0892 174.528 
" clip-path="url(#pa82f903d48)" style="fill: none; stroke-dasharray: 0.925,0.4; stroke-dashoffset: 0; stroke: #000000; stroke-width: 0.25"/>
   </g>
   <g id="line2d_28">
    <path d="M 236.16 160.3908 
L 236.16 60.5988 
" clip-path="url(#pa82f903d48)" style="fill: none; stroke-dasharray: 0.925,0.4; stroke-dashoffset: 0; stroke: #000000; stroke-width: 0.25"/>
   </g>
   <g id="line2d_29">
    <path d="M 222.0228 174.528 
L 122.2308 174.528 
" clip-path="url(#pa82f903d48)" style="fill: none; stroke-dasharray: 0.925,0.4; stroke-dashoffset: 0; stroke: #000000; stroke-width: 0.25"/>
   </g>
   <g id="line2d_30">
    <path d="M 236.16 188.6652 
L 236.16 288.4572 
" clip-path="url(#pa82f903d48)" style="fill: none; stroke-dasharray: 0.925,0.4; stroke-dashoffset: 0; stroke: #000000; stroke-width: 0.25"/>
   </g>
   <g id="line2d_31">
    <path d="M 84.233755 168.67218 
L 82.346234 168.67218 
L 80.458713 168.67218 
L 78.571191 168.67218 
L 76.68367 168.67218 
L 74.796149 168.67218 
L 72.908628 168.67218 
L 71.021107 168.67218 
L 69.133586 168.67218 
L 67.246065 168.67218 
L 65.358544 168.67218 
L 63.471022 168.67218 
L 61.583501 168.67218 
L 59.69598 168.67218 
L 57.808459 168.67218 
L 55.920938 168.67218 
L 54.033417 168.67218 
L 52.145896 168.67218 
L 50.258374 168.67218 
L 48.370853 168.67218 
L 46.483332 168.67218 
L 44.595811 168.67218 
L 42.70829 168.67218 
L 40.820769 168.67218 
L 38.933248 168.67218 
L 37.045726 168.67218 
L 35.158205 168.67218 
L 33.270684 168.67218 
L 31.383163 168.67218 
L 29.495642 168.67218 
L 27.608121 168.67218 
" clip-path="url(#pa82f903d48)" style="fill: none; stroke: #ff0000; stroke-opacity: 0.2; stroke-width: 0.25; stroke-linecap: square"/>
   </g>
   <g id="line2d_32">
    <path d="M 84.233755 168.67218 
L 82.346234 168.67218 
L 80.458713 168.67218 
L 78.571191 168.67218 
L 76.68367 168.67218 
L 74.796149 168.67218 
L 72.908628 168.67218 
L 71.021107 168.67218 
L 69.133586 168.67218 
L 67.246065 168.67218 
L 65.358544 168.67218 
L 63.471022 168.67218 
L 61.583501 168.67218 
L 59.69598 168.67218 
L 57.808459 168.67218 
L 55.920938 168.67218 
L 54.033417 168.67218 
L 52.145896 168.67218 
L 50.258374 168.67218 
L 48.370853 168.67218 
L 46.483332 168.67218 
L 44.595811 168.67218 
L 42.70829 168.67218 
L 40.820769 168.67218 
L 38.933248 168.67218 
L 37.045726 168.67218 
L 35.158205 168.67218 
L 33.270684 168.67218 
L 31.383163 168.67218 
L 29.495642 168.67218 
L 27.608121 168.67218 
" clip-path="url(#pa82f903d48)" style="fill: none; stroke: #ff0000; stroke-opacity: 0.4; stroke-width: 0.25; stroke-linecap: square"/>
   </g>
   <g id="line2d_33">
    <path d="M 84.233755 168.67218 
L 82.346234 168.67218 
L 80.458713 168.67218 
L 78.571191 168.67218 
L 76.68367 168.67218 
L 74.796149 168.67218 
L 72.908628 168.67218 
L 71.021107 168.67218 
L 69.133586 168.67218 
L 67.246065 168.67218 
L 65.358544 168.67218 
L 63.471022 168.67218 
L 61.583501 168.67218 
L 59.69598 168.67218 
L 57.808459 168.67218 
L 55.920938 168.67218 
L 54.033417 168.67218 
L 52.145896 168.67218 
L 50.258374 168.67218 
L 48.370853 168.67218 
L 46.483332 168.67218 
L 44.595811 168.67218 
L 42.70829 168.67218 
L 40.820769 168.67218 
L 38.933248 168.67218 
L 37.045726 168.67218 
L 35.158205 168.67218 
L 33.270684 168.67218 
L 31.383163 168.67218 
L 29.495642 168.67218 
L 27.608121 168.67218 
" clip-path="url(#pa82f903d48)" style="fill: none; stroke: #ff0000; stroke-opacity: 0.6; stroke-width: 0.25; stroke-linecap: square"/>
   </g>
   <g id="line2d_34">
    <path d="M 84.233755 168.67218 
L 82.346234 168.67218 
L 80.458713 168.67218 
L 78.571191 168.67218 
L 76.68367 168.67218 
L 74.796149 168.67218 
L 72.908628 168.67218 
L 71.021107 168.67218 
L 69.133586 168.67218 
L 67.246065 168.67218 
L 65.358544 168.67218 
L 63.471022 168.67218 
L 61.583501 168.67218 
L 59.69598 168.67218 
L 57.808459 168.67218 
L 55.920938 168.67218 
L 54.033417 168.67218 
L 52.145896 168.67218 
L 50.258374 168.67218 
L 48.370853 168.67218 
L 46.483332 168.67218 
L 44.595811 168.67218 
L 42.70829 168.67218 
L 40.820769 168.67218 
L 38.933248 168.67218 
L 37.045726 168.67218 
L 35.158205 168.67218 
L 33.270684 168.67218 
L 31.383163 168.67218 
L 29.495642 168.67218 
L 27.608121 168.67218 
" clip-path="url(#pa82f903d48)" style="fill: none; stroke: #ff0000; stroke-opacity: 0.8; stroke-width: 0.25; stroke-linecap: square"/>
   </g>
   <g id="line2d_35">
    <path d="M 84.233755 168.67218 
L 82.346234 168.67218 
L 80.458713 168.67218 
L 78.571191 168.67218 
L 76.68367 168.67218 
L 74.796149 168.67218 
L 72.908628 168.67218 
L 71.021107 168.67218 
L 69.133586 168.67218 
L 67.246065 168.67218 
L 65.358544 168.67218 
L 63.471022 168.67218 
L 61.583501 168.67218 
L 59.69598 168.67218 
L 57.808459 168.67218 
L 55.920938 168.67218 
L 54.033417 168.67218 
L 52.145896 168.67218 
L 50.258374 168.67218 
L 48.370853 168.67218 
L 46.483332 168.67218 
L 44.595811 168.67218 
L 42.70829 168.67218 
L 40.820769 168.67218 
L 38.933248 168.67218 
L 37.045726 168.67218 
L 35.158205 168.67218 
L 33.270684 168.67218 
L 31.383163 168.67218 
L 29.495642 168.67218 
L 27.608121 168.67218 
" clip-path="url(#pa82f903d48)" style="fill: none; stroke: #ff0000; stroke-width: 0.25; stroke-linecap: square"/>
   </g>
   <g id="line2d_36">
    <path d="M 242.01582 18.145332 
L 242.01582 16.389216 
L 242.01582 14.633099 
L 242.01582 12.876982 
L 242.01582 11.120866 
L 242.01582 9.364749 
L 242.01582 7.608632 
L 242.01582 5.852516 
L 242.01582 4.096399 
L 242.01582 2.340282 
L 242.01582 0.584165 
L 242.01582 -1 
" clip-path="url(#pa82f903d48)" style="fill: none; stroke: #ff0000; stroke-opacity: 0.2; stroke-width: 0.25; stroke-linecap: square"/>
   </g>
   <g id="line2d_37">
    <path d="M 242.01582 18.145332 
L 242.01582 16.389216 
L 242.01582 14.633099 
L 242.01582 12.876982 
L 242.01582 11.120866 
L 242.01582 9.364749 
L 242.01582 7.608632 
L 242.01582 5.852516 
L 242.01582 4.096399 
L 242.01582 2.340282 
L 242.01582 0.584165 
L 242.01582 -1 
" clip-path="url(#pa82f903d48)" style="fill: none; stroke: #ff0000; stroke-opacity: 0.4; stroke-width: 0.25; stroke-linecap: square"/>
   </g>
   <g id="line2d_38">
    <path d="M 242.01582 18.145332 
L 242.01582 16.389216 
L 242.01582 14.633099 
L 242.01582 12.876982 
L 242.01582 11.120866 
L 242.01582 9.364749 
L 242.01582 7.608632 
L 242.01582 5.852516 
L 242.01582 4.096399 
L 242.01582 2.340282 
L 242.01582 0.584165 
L 242.01582 -1 
" clip-path="url(#pa82f903d48)" style="fill: none; stroke: #ff0000; stroke-opacity: 0.6; stroke-width: 0.25; stroke-linecap: square"/>
   </g>
   <g id="line2d_39">
    <path d="M 242.01582 18.145332 
L 242.01582 16.389216 
L 242.01582 14.633099 
L 242.01582 12.876982 
L 242.01582 11.120866 
L 242.01582 9.364749 
L 242.01582 7.608632 
L 242.01582 5.852516 
L 242.01582 4.096399 
L 242.01582 2.340282 
L 242.01582 0.584165 
L 242.01582 -1 
" clip-path="url(#pa82f903d48)" style="fill: none; stroke: #ff0000; stroke-opacity: 0.8; stroke-width: 0.25; stroke-linecap: square"/>
   </g>
   <g id="line2d_40">
    <path d="M 242.01582 18.145332 
L 242.01582 16.389216 
L 242.01582 14.633099 
L 242.01582 12.876982 
L 242.01582 11.120866 
L 242.01582 9.364749 
L 242.01582 7.608632 
L 242.01582 5.852516 
L 242.01582 4.096399 
L 242.01582 2.340282 
L 242.01582 0.584165 
L 242.01582 -1 
" clip-path="url(#pa82f903d48)" style="fill: none; stroke: #ff0000; stroke-width: 0.25; stroke-linecap: square"/>
   </g>
   <g id="line2d_41">
    <path d="M 230.30418 326.687044 
L 230.30418 328.552203 
L 230.30418 330.417363 
L 230.30418 332.282523 
L 230.30418 334.147683 
L 230.30418 336.012842 
L 230.30418 337.878002 
L 230.30418 339.743161 
L 230.30418 341.608321 
L 230.30418 343.473481 
L 230.30418 345.338641 
L 230.30418 346.6 
" clip-path="url(#pa82f903d48)" style="fill: none; stroke: #ff0000; stroke-opacity: 0.2; stroke-width: 0.25; stroke-linecap: square"/>
   </g>
   <g id="line2d_42">
    <path d="M 230.30418 326.687044 
L 230.30418 328.552203 
L 230.30418 330.417363 
L 230.30418 332.282523 
L 230.30418 334.147683 
L 230.30418 336.012842 
L 230.30418 337.878002 
L 230.30418 339.743161 
L 230.30418 341.608321 
L 230.30418 343.473481 
L 230.30418 345.338641 
L 230.30418 346.6 
" clip-path="url(#pa82f903d48)" style="fill: none; stroke: #ff0000; stroke-opacity: 0.4; stroke-width: 0.25; stroke-linecap: square"/>
   </g>
   <g id="line2d_43">
    <path d="M 230.30418 326.687044 
L 230.30418 328.552203 
L 230.30418 330.417363 
L 230.30418 332.282523 
L 230.30418 334.147683 
L 230.30418 336.012842 
L 230.30418 337.878002 
L 230.30418 339.743161 
L 230.30418 341.608321 
L 230.30418 343.473481 
L 230.30418 345.338641 
L 230.30418 346.6 
" clip-path="url(#pa82f903d48)" style="fill: none; stroke: #ff0000; stroke-opacity: 0.6; stroke-width: 0.25; stroke-linecap: square"/>
   </g>
   <g id="line2d_44">
    <path d="M 230.30418 326.687044 
L 230.30418 328.552203 
L 230.30418 330.417363 
L 230.30418 332.282523 
L 230.30418 334.147683 
L 230.30418 336.012842 
L 230.30418 337.878002 
L 230.30418 339.743161 
L 230.30418 341.608321 
L 230.30418 343.473481 
L 230.30418 345.338641 
L 230.30418 346.6 
" clip-path="url(#pa82f903d48)" style="fill: none; stroke: #ff0000; stroke-opacity: 0.8; stroke-width: 0.25; stroke-linecap: square"/>
   </g>
   <g id="line2d_45">
    <path d="M 230.30418 326.687044 
L 230.30418 328.552203 
L 230.30418 330.417363 
L 230.30418 332.282523 
L 230.30418 334.147683 
L 230.30418 336.012842 
L 230.30418 337.878002 
L 230.30418 339.743161 
L 230.30418 341.608321 
L 230.30418 343.473481 
L 230.30418 345.338641 
L 230.30418 346.6 
" clip-path="url(#pa82f903d48)" style="fill: none; stroke: #ff0000; stroke-width: 0.25; stroke-linecap: square"/>
   </g>
   <g id="line2d_46">
    <path d="M 388.319043 180.38382 
L 390.184203 180.38382 
L 392.049362 180.38382 
L 393.914522 180.38382 
L 395.779682 180.38382 
L 397.644842 180.38382 
L 399.510001 180.38382 
L 401.375161 180.38382 
L 403.240321 180.38382 
L 405.105481 180.38382 
L 406.97064 180.38382 
L 408.8358 180.38382 
L 410.70096 180.38382 
L 412.56612 180.38382 
L 414.43128 180.38382 
L 416.29644 180.38382 
L 418.1616 180.38382 
L 420.02676 180.38382 
L 421.89192 180.38382 
L 423.75708 180.38382 
L 425.62224 180.38382 
L 427.4874 180.38382 
L 429.35256 180.38382 
L 431.21772 180.38382 
L 433.08288 180.38382 
L 434.94804 180.38382 
L 436.8132 180.38382 
L 438.67836 180.38382 
L 440.54352 180.38382 
L 442.40868 180.38382 
L 444.27384 180.38382 
" clip-path="url(#pa82f903d48)" style="fill: none; stroke: #ff0000; stroke-opacity: 0.2; stroke-width: 0.25; stroke-linecap: square"/>
   </g>
   <g id="line2d_47">
    <path d="M 388.319043 180.38382 
L 390.184203 180.38382 
L 392.049362 180.38382 
L 393.914522 180.38382 
L 395.779682 180.38382 
L 397.644842 180.38382 
L 399.510001 180.38382 
L 401.375161 180.38382 
L 403.240321 180.38382 
L 405.105481 180.38382 
L 406.97064 180.38382 
L 408.8358 180.38382 
L 410.70096 180.38382 
L 412.56612 180.38382 
L 414.43128 180.38382 
L 416.29644 180.38382 
L 418.1616 180.38382 
L 420.02676 180.38382 
L 421.89192 180.38382 
L 423.75708 180.38382 
L 425.62224 180.38382 
L 427.4874 180.38382 
L 429.35256 180.38382 
L 431.21772 180.38382 
L 433.08288 180.38382 
L 434.94804 180.38382 
L 436.8132 180.38382 
L 438.67836 180.38382 
L 440.54352 180.38382 
L 442.40868 180.38382 
L 444.27384 180.38382 
" clip-path="url(#pa82f903d48)" style="fill: none; stroke: #ff0000; stroke-opacity: 0.4; stroke-width: 0.25; stroke-linecap: square"/>
   </g>
   <g id="line2d_48">
    <path d="M 388.319043 180.38382 
L 390.184203 180.38382 
L 392.049362 180.38382 
L 393.914522 180.38382 
L 395.779682 180.38382 
L 397.644842 180.38382 
L 399.510001 180.38382 
L 401.375161 180.38382 
L 403.240321 180.38382 
L 405.105481 180.38382 
L 406.97064 180.38382 
L 408.8358 180.38382 
L 410.70096 180.38382 
L 412.56612 180.38382 
L 414.43128 180.38382 
L 416.29644 180.38382 
L 418.1616 180.38382 
L 420.02676 180.38382 
L 421.89192 180.38382 
L 423.75708 180.38382 
L 425.62224 180.38382 
L 427.4874 180.38382 
L 429.35256 180.38382 
L 431.21772 180.38382 
L 433.08288 180.38382 
L 434.94804 180.38382 
L 436.8132 180.38382 
L 438.67836 180.38382 
L 440.54352 180.38382 
L 442.40868 180.38382 
L 444.27384 180.38382 
" clip-path="url(#pa82f903d48)" style="fill: none; stroke: #ff0000; stroke-opacity: 0.6; stroke-width: 0.25; stroke-linecap: square"/>
   </g>
   <g id="line2d_49">
    <path d="M 388.319043 180.38382 
L 390.184203 180.38382 
L 392.049362 180.38382 
L 393.914522 180.38382 
L 395.779682 180.38382 
L 397.644842 180.38382 
L 399.510001 180.38382 
L 401.375161 180.38382 
L 403.240321 180.38382 
L 405.105481 180.38382 
L 406.97064 180.38382 
L 408.8358 180.38382 
L 410.70096 180.38382 
L 412.56612 180.38382 
L 414.43128 180.38382 
L 416.29644 180.38382 
L 418.1616 180.38382 
L 420.02676 180.38382 
L 421.89192 180.38382 
L 423.75708 180.38382 
L 425.62224 180.38382 
L 427.4874 180.38382 
L 429.35256 180.38382 
L 431.21772 180.38382 
L 433.08288 180.38382 
L 434.94804 180.38382 
L 436.8132 180.38382 
L 438.67836 180.38382 
L 440.54352 180.38382 
L 442.40868 180.38382 
L 444.27384 180.38382 
" clip-path="url(#pa82f903d48)" style="fill: none; stroke: #ff0000; stroke-opacity: 0.8; stroke-width: 0.25; stroke-linecap: square"/>
   </g>
   <g id="line2d_50">
    <path d="M 388.319043 180.38382 
L 390.184203 180.38382 
L 392.049362 180.38382 
L 393.914522 180.38382 
L 395.779682 180.38382 
L 397.644842 180.38382 
L 399.510001 180.38382 
L 401.375161 180.38382 
L 403.240321 180.38382 
L 405.105481 180.38382 
L 406.97064 180.38382 
L 408.8358 180.38382 
L 410.70096 180.38382 
L 412.56612 180.38382 
L 414.43128 180.38382 
L 416.29644 180.38382 
L 418.1616 180.38382 
L 420.02676 180.38382 
L 421.89192 180.38382 
L 423.75708 180.38382 
L 425.62224 180.38382 
L 427.4874 180.38382 
L 429.35256 180.38382 
L 431.21772 180.38382 
L 433.08288 180.38382 
L 434.94804 180.38382 
L 436.8132 180.38382 
L 438.67836 180.38382 
L 440.54352 180.38382 
L 442.40868 180.38382 
L 444.27384 180.38382 
" clip-path="url(#pa82f903d48)" style="fill: none; stroke: #ff0000; stroke-width: 0.25; stroke-linecap: square"/>
   </g>
   <g id="line2d_51">
    <path d="M 242.015817 72.727284 
L 242.015818 70.862386 
L 242.015818 68.997447 
L 242.015819 67.132471 
L 242.01582 65.267457 
L 242.01582 63.402411 
L 242.01582 61.537336 
L 242.01582 59.672237 
L 242.01582 57.807117 
L 242.01582 55.94198 
L 242.01582 54.076831 
L 242.01582 52.211671 
L 242.01582 50.346505 
L 242.01582 48.481334 
L 242.01582 46.616159 
L 242.01582 44.750984 
L 242.01582 42.885808 
L 242.01582 41.020632 
L 242.01582 39.155458 
L 242.01582 37.290285 
L 242.01582 35.425114 
L 242.01582 33.559945 
L 242.01582 31.694777 
L 242.01582 29.829611 
L 242.01582 27.964446 
L 242.01582 26.099282 
L 242.01582 24.23412 
L 242.01582 22.368958 
L 242.01582 20.503797 
L 242.01582 18.638636 
L 242.01582 16.773475 
" clip-path="url(#pa82f903d48)" style="fill: none; stroke: #ff0000; stroke-opacity: 0.2; stroke-width: 0.25; stroke-linecap: square"/>
   </g>
   <g id="line2d_52">
    <path d="M 242.015817 72.727284 
L 242.015818 70.862386 
L 242.015818 68.997447 
L 242.015819 67.13247 
L 242.01582 65.267457 
L 242.01582 63.402411 
L 242.01582 61.537336 
L 242.01582 59.672237 
L 242.01582 57.807117 
L 242.01582 55.94198 
L 242.01582 54.076831 
L 242.01582 52.211672 
L 242.01582 50.346505 
L 242.01582 48.481334 
L 242.01582 46.61616 
L 242.01582 44.750984 
L 242.01582 42.885808 
L 242.01582 41.020633 
L 242.01582 39.155459 
L 242.01582 37.290286 
L 242.01582 35.425114 
L 242.01582 33.559945 
L 242.01582 31.694777 
L 242.01582 29.829611 
L 242.01582 27.964446 
L 242.01582 26.099282 
L 242.01582 24.234119 
L 242.01582 22.368957 
L 242.01582 20.503795 
L 242.01582 18.638634 
L 242.01582 16.773473 
" clip-path="url(#pa82f903d48)" style="fill: none; stroke: #ff0000; stroke-opacity: 0.4; stroke-width: 0.25; stroke-linecap: square"/>
   </g>
   <g id="line2d_53">
    <path d="M 242.015817 72.727284 
L 242.015818 70.862386 
L 242.015818 68.997447 
L 242.015819 67.13247 
L 242.01582 65.267457 
L 242.01582 63.402411 
L 242.01582 61.537336 
L 242.01582 59.672237 
L 242.01582 57.807117 
L 242.01582 55.94198 
L 242.01582 54.076831 
L 242.01582 52.211672 
L 242.01582 50.346505 
L 242.01582 48.481334 
L 242.01582 46.61616 
L 242.01582 44.750984 
L 242.01582 42.885808 
L 242.01582 41.020633 
L 242.01582 39.155458 
L 242.01582 37.290286 
L 242.01582 35.425114 
L 242.01582 33.559945 
L 242.01582 31.694777 
L 242.01582 29.829611 
L 242.01582 27.964446 
L 242.01582 26.099282 
L 242.01582 24.234119 
L 242.01582 22.368957 
L 242.01582 20.503796 
L 242.01582 18.638635 
L 242.01582 16.773474 
" clip-path="url(#pa82f903d48)" style="fill: none; stroke: #ff0000; stroke-opacity: 0.6; stroke-width: 0.25; stroke-linecap: square"/>
   </g>
   <g id="line2d_54">
    <path d="M 242.015817 72.727284 
L 242.015817 70.862386 
L 242.015818 68.997447 
L 242.015819 67.13247 
L 242.015819 65.267457 
L 242.01582 63.402411 
L 242.01582 61.537336 
L 242.01582 59.672237 
L 242.01582 57.807117 
L 242.01582 55.94198 
L 242.01582 54.076831 
L 242.01582 52.211672 
L 242.01582 50.346505 
L 242.01582 48.481334 
L 242.01582 46.61616 
L 242.01582 44.750984 
L 242.01582 42.885808 
L 242.01582 41.020633 
L 242.01582 39.155458 
L 242.01582 37.290286 
L 242.01582 35.425114 
L 242.01582 33.559945 
L 242.01582 31.694777 
L 242.01582 29.829611 
L 242.01582 27.964446 
L 242.01582 26.099282 
L 242.01582 24.234119 
L 242.01582 22.368957 
L 242.01582 20.503796 
L 242.01582 18.638635 
L 242.01582 16.773474 
" clip-path="url(#pa82f903d48)" style="fill: none; stroke: #ff0000; stroke-opacity: 0.8; stroke-width: 0.25; stroke-linecap: square"/>
   </g>
   <g id="line2d_55">
    <path d="M 242.015817 72.727284 
L 242.015817 70.862386 
L 242.015818 68.997447 
L 242.015819 67.13247 
L 242.015819 65.267457 
L 242.01582 63.402411 
L 242.01582 61.537336 
L 242.01582 59.672237 
L 242.01582 57.807117 
L 242.01582 55.94198 
L 242.01582 54.076831 
L 242.01582 52.211672 
L 242.01582 50.346505 
L 242.01582 48.481334 
L 242.01582 46.61616 
L 242.01582 44.750984 
L 242.01582 42.885808 
L 242.01582 41.020633 
L 242.01582 39.155458 
L 242.01582 37.290286 
L 242.01582 35.425114 
L 242.01582 33.559945 
L 242.01582 31.694777 
L 242.01582 29.829611 
L 242.01582 27.964446 
L 242.01582 26.099282 
L 242.01582 24.234119 
L 242.01582 22.368957 
L 242.01582 20.503796 
L 242.01582 18.638635 
L 242.01582 16.773474 
" clip-path="url(#pa82f903d48)" style="fill: none; stroke: #ff0000; stroke-width: 0.25; stroke-linecap: square"/>
   </g>
   <g id="line2d_56">
    <path d="M 134.360133 168.672181 
L 132.495037 168.672181 
L 130.629927 168.67218 
L 128.764804 168.67218 
L 126.899671 168.67218 
L 125.034529 168.67218 
L 123.169379 168.67218 
L 121.304224 168.67218 
L 119.439065 168.67218 
L 117.573902 168.67218 
L 115.708738 168.67218 
L 113.843572 168.67218 
L 111.978405 168.67218 
L 110.113238 168.67218 
L 108.248071 168.67218 
L 106.382905 168.67218 
L 104.517739 168.67218 
L 102.652575 168.67218 
L 100.78741 168.67218 
L 98.922247 168.67218 
L 97.057084 168.67218 
L 95.191922 168.67218 
L 93.32676 168.67218 
L 91.461599 168.67218 
L 89.596438 168.67218 
L 87.731278 168.67218 
L 85.866118 168.67218 
L 84.000958 168.67218 
L 82.135798 168.67218 
L 80.270638 168.67218 
L 78.405479 168.67218 
" clip-path="url(#pa82f903d48)" style="fill: none; stroke: #ff0000; stroke-opacity: 0.2; stroke-width: 0.25; stroke-linecap: square"/>
   </g>
   <g id="line2d_57">
    <path d="M 134.360133 168.672181 
L 132.495037 168.672181 
L 130.629927 168.67218 
L 128.764804 168.67218 
L 126.899671 168.67218 
L 125.034529 168.67218 
L 123.169379 168.67218 
L 121.304224 168.67218 
L 119.439065 168.67218 
L 117.573902 168.67218 
L 115.708738 168.67218 
L 113.843572 168.67218 
L 111.978405 168.67218 
L 110.113238 168.67218 
L 108.248071 168.67218 
L 106.382905 168.67218 
L 104.51774 168.67218 
L 102.652575 168.67218 
L 100.78741 168.67218 
L 98.922247 168.67218 
L 97.057084 168.67218 
L 95.191922 168.67218 
L 93.32676 168.67218 
L 91.461599 168.67218 
L 89.596438 168.67218 
L 87.731278 168.67218 
L 85.866118 168.67218 
L 84.000958 168.67218 
L 82.135798 168.67218 
L 80.270638 168.67218 
L 78.405479 168.67218 
" clip-path="url(#pa82f903d48)" style="fill: none; stroke: #ff0000; stroke-opacity: 0.4; stroke-width: 0.25; stroke-linecap: square"/>
   </g>
   <g id="line2d_58">
    <path d="M 134.360133 168.672181 
L 132.495037 168.672181 
L 130.629927 168.67218 
L 128.764804 168.67218 
L 126.899671 168.67218 
L 125.034529 168.67218 
L 123.169379 168.67218 
L 121.304224 168.67218 
L 119.439065 168.67218 
L 117.573902 168.67218 
L 115.708738 168.67218 
L 113.843572 168.67218 
L 111.978405 168.67218 
L 110.113238 168.67218 
L 108.248071 168.67218 
L 106.382905 168.67218 
L 104.51774 168.67218 
L 102.652575 168.67218 
L 100.78741 168.67218 
L 98.922247 168.67218 
L 97.057084 168.67218 
L 95.191922 168.67218 
L 93.32676 168.67218 
L 91.461599 168.67218 
L 89.596438 168.67218 
L 87.731278 168.67218 
L 85.866118 168.67218 
L 84.000958 168.67218 
L 82.135798 168.67218 
L 80.270638 168.67218 
L 78.405479 168.67218 
" clip-path="url(#pa82f903d48)" style="fill: none; stroke: #ff0000; stroke-opacity: 0.6; stroke-width: 0.25; stroke-linecap: square"/>
   </g>
   <g id="line2d_59">
    <path d="M 134.360133 168.672181 
L 132.495037 168.672181 
L 130.629927 168.67218 
L 128.764804 168.67218 
L 126.899671 168.67218 
L 125.034529 168.67218 
L 123.169379 168.67218 
L 121.304224 168.67218 
L 119.439065 168.67218 
L 117.573902 168.67218 
L 115.708738 168.67218 
L 113.843572 168.67218 
L 111.978405 168.67218 
L 110.113238 168.67218 
L 108.248071 168.67218 
L 106.382905 168.67218 
L 104.51774 168.67218 
L 102.652575 168.67218 
L 100.78741 168.67218 
L 98.922247 168.67218 
L 97.057084 168.67218 
L 95.191922 168.67218 
L 93.32676 168.67218 
L 91.461599 168.67218 
L 89.596438 168.67218 
L 87.731278 168.67218 
L 85.866118 168.67218 
L 84.000958 168.67218 
L 82.135798 168.67218 
L 80.270638 168.67218 
L 78.405479 168.67218 
" clip-path="url(#pa82f903d48)" style="fill: none; stroke: #ff0000; stroke-opacity: 0.8; stroke-width: 0.25; stroke-linecap: square"/>
   </g>
   <g id="line2d_60">
    <path d="M 134.360133 168.672181 
L 132.495037 168.672181 
L 130.629927 168.67218 
L 128.764804 168.67218 
L 126.899671 168.67218 
L 125.034529 168.67218 
L 123.169379 168.67218 
L 121.304224 168.67218 
L 119.439065 168.67218 
L 117.573902 168.67218 
L 115.708738 168.67218 
L 113.843572 168.67218 
L 111.978405 168.67218 
L 110.113238 168.67218 
L 108.248071 168.67218 
L 106.382905 168.67218 
L 104.51774 168.67218 
L 102.652575 168.67218 
L 100.78741 168.67218 
L 98.922247 168.67218 
L 97.057084 168.67218 
L 95.191922 168.67218 
L 93.32676 168.67218 
L 91.461599 168.67218 
L 89.596438 168.67218 
L 87.731278 168.67218 
L 85.866118 168.67218 
L 84.000958 168.67218 
L 82.135798 168.67218 
L 80.270638 168.67218 
L 78.405479 168.67218 
" clip-path="url(#pa82f903d48)" style="fill: none; stroke: #ff0000; stroke-width: 0.25; stroke-linecap: square"/>
   </g>
   <g id="line2d_61">
    <path d="M 337.123426 180.383819 
L 339.010893 180.38382 
L 340.898366 180.38382 
L 342.785845 180.38382 
L 344.673332 180.38382 
L 346.560824 180.38382 
L 348.448323 180.38382 
L 350.335827 180.38382 
L 352.223335 180.38382 
L 354.110848 180.38382 
L 355.998363 180.38382 
L 357.885881 180.38382 
L 359.773401 180.38382 
L 361.660923 180.38382 
L 363.548446 180.38382 
L 365.435969 180.38382 
L 367.323493 180.38382 
L 369.211016 180.38382 
L 371.09854 180.38382 
L 372.986064 180.38382 
L 374.873587 180.38382 
L 376.761111 180.38382 
L 378.648634 180.38382 
L 380.536156 180.38382 
L 382.423679 180.38382 
L 384.311201 180.38382 
L 386.198723 180.38382 
L 388.086244 180.38382 
L 389.973766 180.38382 
L 391.861288 180.38382 
L 393.748809 180.38382 
" clip-path="url(#pa82f903d48)" style="fill: none; stroke: #ff0000; stroke-opacity: 0.2; stroke-width: 0.25; stroke-linecap: square"/>
   </g>
   <g id="line2d_62">
    <path d="M 337.123426 180.383819 
L 339.010893 180.383819 
L 340.898366 180.38382 
L 342.785845 180.38382 
L 344.673332 180.38382 
L 346.560824 180.38382 
L 348.448323 180.38382 
L 350.335827 180.38382 
L 352.223335 180.38382 
L 354.110848 180.38382 
L 355.998363 180.38382 
L 357.885881 180.38382 
L 359.773401 180.38382 
L 361.660923 180.38382 
L 363.548446 180.38382 
L 365.435969 180.38382 
L 367.323493 180.38382 
L 369.211016 180.38382 
L 371.09854 180.38382 
L 372.986064 180.38382 
L 374.873587 180.38382 
L 376.761111 180.38382 
L 378.648634 180.38382 
L 380.536156 180.38382 
L 382.423679 180.38382 
L 384.311201 180.38382 
L 386.198723 180.38382 
L 388.086245 180.38382 
L 389.973766 180.38382 
L 391.861288 180.38382 
L 393.74881 180.38382 
" clip-path="url(#pa82f903d48)" style="fill: none; stroke: #ff0000; stroke-opacity: 0.4; stroke-width: 0.25; stroke-linecap: square"/>
   </g>
   <g id="line2d_63">
    <path d="M 337.123426 180.383819 
L 339.010893 180.383819 
L 340.898366 180.38382 
L 342.785845 180.38382 
L 344.673332 180.38382 
L 346.560824 180.38382 
L 348.448323 180.38382 
L 350.335827 180.38382 
L 352.223335 180.38382 
L 354.110848 180.38382 
L 355.998363 180.38382 
L 357.885881 180.38382 
L 359.773401 180.38382 
L 361.660923 180.38382 
L 363.548446 180.38382 
L 365.435969 180.38382 
L 367.323493 180.38382 
L 369.211016 180.38382 
L 371.09854 180.38382 
L 372.986064 180.38382 
L 374.873587 180.38382 
L 376.761111 180.38382 
L 378.648633 180.38382 
L 380.536156 180.38382 
L 382.423679 180.38382 
L 384.311201 180.38382 
L 386.198723 180.38382 
L 388.086244 180.38382 
L 389.973766 180.38382 
L 391.861288 180.38382 
L 393.748809 180.38382 
" clip-path="url(#pa82f903d48)" style="fill: none; stroke: #ff0000; stroke-opacity: 0.6; stroke-width: 0.25; stroke-linecap: square"/>
   </g>
   <g id="line2d_64">
    <path d="M 337.123426 180.383819 
L 339.010893 180.383819 
L 340.898366 180.38382 
L 342.785845 180.38382 
L 344.673332 180.38382 
L 346.560824 180.38382 
L 348.448323 180.38382 
L 350.335827 180.38382 
L 352.223335 180.38382 
L 354.110848 180.38382 
L 355.998363 180.38382 
L 357.885881 180.38382 
L 359.773401 180.38382 
L 361.660923 180.38382 
L 363.548446 180.38382 
L 365.435969 180.38382 
L 367.323493 180.38382 
L 369.211016 180.38382 
L 371.09854 180.38382 
L 372.986064 180.38382 
L 374.873587 180.38382 
L 376.761111 180.38382 
L 378.648634 180.38382 
L 380.536156 180.38382 
L 382.423679 180.38382 
L 384.311201 180.38382 
L 386.198723 180.38382 
L 388.086245 180.38382 
L 389.973766 180.38382 
L 391.861288 180.38382 
L 393.748809 180.38382 
" clip-path="url(#pa82f903d48)" style="fill: none; stroke: #ff0000; stroke-opacity: 0.8; stroke-width: 0.25; stroke-linecap: square"/>
   </g>
   <g id="line2d_65">
    <path d="M 337.123426 180.383819 
L 339.010893 180.383819 
L 340.898366 180.38382 
L 342.785845 180.38382 
L 344.673332 180.38382 
L 346.560824 180.38382 
L 348.448323 180.38382 
L 350.335827 180.38382 
L 352.223335 180.38382 
L 354.110848 180.38382 
L 355.998363 180.38382 
L 357.885881 180.38382 
L 359.773401 180.38382 
L 361.660923 180.38382 
L 363.548446 180.38382 
L 365.435969 180.38382 
L 367.323493 180.38382 
L 369.211016 180.38382 
L 371.09854 180.38382 
L 372.986064 180.38382 
L 374.873587 180.38382 
L 376.761111 180.38382 
L 378.648634 180.38382 
L 380.536156 180.38382 
L 382.423679 180.38382 
L 384.311201 180.38382 
L 386.198723 180.38382 
L 388.086245 180.38382 
L 389.973766 180.38382 
L 391.861288 180.38382 
L 393.748809 180.38382 
" clip-path="url(#pa82f903d48)" style="fill: none; stroke: #ff0000; stroke-width: 0.25; stroke-linecap: square"/>
   </g>
   <g id="line2d_66">
    <path d="M 242.015826 111.397757 
L 242.015825 109.866106 
L 242.015823 108.334497 
L 242.015822 106.802943 
L 242.015821 105.271446 
L 242.01582 103.740009 
L 242.01582 102.208629 
L 242.01582 100.677301 
L 242.015819 99.146022 
L 242.015819 97.614783 
L 242.015819 96.08358 
L 242.015819 94.552405 
L 242.015819 93.021254 
L 242.015819 91.490121 
L 242.015819 89.959002 
L 242.015819 88.427892 
L 242.015819 86.896789 
L 242.01582 85.365689 
L 242.01582 83.834591 
L 242.01582 82.303493 
L 242.01582 80.772394 
L 242.01582 79.241294 
L 242.01582 77.710191 
L 242.01582 76.179085 
L 242.01582 74.647978 
L 242.01582 73.116868 
L 242.01582 71.585756 
L 242.01582 70.054643 
L 242.01582 68.523528 
L 242.01582 66.992412 
L 242.01582 65.461296 
" clip-path="url(#pa82f903d48)" style="fill: none; stroke: #ff0000; stroke-opacity: 0.2; stroke-width: 0.25; stroke-linecap: square"/>
   </g>
   <g id="line2d_67">
    <path d="M 242.015826 111.397757 
L 242.015825 109.866106 
L 242.015823 108.334497 
L 242.015822 106.802943 
L 242.015821 105.271446 
L 242.01582 103.740009 
L 242.01582 102.208629 
L 242.01582 100.677301 
L 242.015819 99.146021 
L 242.015819 97.614783 
L 242.015819 96.083579 
L 242.015819 94.552405 
L 242.015819 93.021254 
L 242.015819 91.490121 
L 242.015819 89.959001 
L 242.015819 88.427891 
L 242.015819 86.896788 
L 242.015819 85.365688 
L 242.01582 83.83459 
L 242.01582 82.303492 
L 242.01582 80.772394 
L 242.01582 79.241293 
L 242.01582 77.710191 
L 242.01582 76.179086 
L 242.01582 74.647979 
L 242.01582 73.11687 
L 242.01582 71.585759 
L 242.01582 70.054647 
L 242.01582 68.523533 
L 242.01582 66.992418 
L 242.01582 65.461304 
" clip-path="url(#pa82f903d48)" style="fill: none; stroke: #ff0000; stroke-opacity: 0.4; stroke-width: 0.25; stroke-linecap: square"/>
   </g>
   <g id="line2d_68">
    <path d="M 242.015826 111.397757 
L 242.015825 109.866106 
L 242.015824 108.334497 
L 242.015822 106.802943 
L 242.015821 105.271446 
L 242.015821 103.740009 
L 242.01582 102.208629 
L 242.01582 100.677301 
L 242.015819 99.146021 
L 242.015819 97.614783 
L 242.015819 96.083579 
L 242.015819 94.552405 
L 242.015819 93.021254 
L 242.015819 91.490121 
L 242.015819 89.959001 
L 242.015819 88.427892 
L 242.015819 86.896788 
L 242.015819 85.365688 
L 242.01582 83.83459 
L 242.01582 82.303492 
L 242.01582 80.772394 
L 242.01582 79.241293 
L 242.01582 77.71019 
L 242.01582 76.179085 
L 242.01582 74.647978 
L 242.01582 73.116868 
L 242.01582 71.585757 
L 242.01582 70.054644 
L 242.01582 68.52353 
L 242.01582 66.992415 
L 242.01582 65.4613 
" clip-path="url(#pa82f903d48)" style="fill: none; stroke: #ff0000; stroke-opacity: 0.6; stroke-width: 0.25; stroke-linecap: square"/>
   </g>
   <g id="line2d_69">
    <path d="M 242.015826 111.397757 
L 242.015825 109.866106 
L 242.015824 108.334497 
L 242.015822 106.802943 
L 242.015821 105.271446 
L 242.015821 103.740009 
L 242.01582 102.208629 
L 242.01582 100.677301 
L 242.015819 99.146021 
L 242.015819 97.614783 
L 242.015819 96.083579 
L 242.015819 94.552405 
L 242.015819 93.021254 
L 242.015819 91.490121 
L 242.015819 89.959001 
L 242.015819 88.427891 
L 242.015819 86.896788 
L 242.015819 85.365688 
L 242.01582 83.83459 
L 242.01582 82.303493 
L 242.01582 80.772394 
L 242.01582 79.241293 
L 242.01582 77.710191 
L 242.01582 76.179086 
L 242.01582 74.647979 
L 242.01582 73.11687 
L 242.01582 71.585758 
L 242.01582 70.054646 
L 242.01582 68.523532 
L 242.01582 66.992417 
L 242.01582 65.461302 
" clip-path="url(#pa82f903d48)" style="fill: none; stroke: #ff0000; stroke-opacity: 0.8; stroke-width: 0.25; stroke-linecap: square"/>
   </g>
   <g id="line2d_70">
    <path d="M 242.015826 111.397757 
L 242.015826 109.866106 
L 242.015824 108.334497 
L 242.015822 106.802943 
L 242.015821 105.271446 
L 242.015821 103.740009 
L 242.01582 102.208629 
L 242.01582 100.677301 
L 242.015819 99.146021 
L 242.015819 97.614783 
L 242.015819 96.083579 
L 242.015819 94.552405 
L 242.015819 93.021254 
L 242.015819 91.490121 
L 242.015819 89.959001 
L 242.015819 88.427891 
L 242.015819 86.896788 
L 242.01582 85.365688 
L 242.01582 83.83459 
L 242.01582 82.303492 
L 242.01582 80.772394 
L 242.01582 79.241293 
L 242.01582 77.71019 
L 242.01582 76.179086 
L 242.01582 74.647978 
L 242.01582 73.116869 
L 242.01582 71.585757 
L 242.01582 70.054645 
L 242.01582 68.523531 
L 242.01582 66.992416 
L 242.01582 65.461301 
" clip-path="url(#pa82f903d48)" style="fill: none; stroke: #ff0000; stroke-width: 0.25; stroke-linecap: square"/>
   </g>
   <g id="line2d_71">
    <path d="M 292.438734 180.384021 
L 294.197009 180.383846 
L 295.95482 180.383766 
L 297.712221 180.383752 
L 299.469267 180.383803 
L 301.226017 180.383847 
L 302.982523 180.383858 
L 304.738837 180.383851 
L 306.495003 180.383833 
L 308.251061 180.383815 
L 310.007044 180.383803 
L 311.762979 180.383805 
L 313.518887 180.383812 
L 315.274786 180.383818 
L 317.030688 180.38382 
L 318.786603 180.383821 
L 320.542536 180.38382 
L 322.29849 180.383819 
L 324.054468 180.383819 
L 325.810468 180.38382 
L 327.566491 180.38382 
L 329.322534 180.38382 
L 331.078596 180.38382 
L 332.834673 180.38382 
L 334.590764 180.38382 
L 336.346865 180.38382 
L 338.102976 180.38382 
L 339.859093 180.38382 
L 341.615215 180.383821 
L 343.371341 180.383821 
L 345.127467 180.38382 
" clip-path="url(#pa82f903d48)" style="fill: none; stroke: #ff0000; stroke-opacity: 0.2; stroke-width: 0.25; stroke-linecap: square"/>
   </g>
   <g id="line2d_72">
    <path d="M 292.438734 180.384021 
L 294.197009 180.383847 
L 295.95482 180.383768 
L 297.712221 180.383755 
L 299.469267 180.383805 
L 301.226017 180.383848 
L 302.982523 180.383857 
L 304.738838 180.38385 
L 306.495004 180.383832 
L 308.251062 180.383814 
L 310.007045 180.383803 
L 311.76298 180.383805 
L 313.518889 180.383812 
L 315.274788 180.383818 
L 317.030691 180.38382 
L 318.786606 180.383821 
L 320.542539 180.38382 
L 322.298494 180.383819 
L 324.054471 180.383819 
L 325.810472 180.38382 
L 327.566495 180.38382 
L 329.322538 180.38382 
L 331.078599 180.38382 
L 332.834676 180.38382 
L 334.590766 180.38382 
L 336.346867 180.38382 
L 338.102976 180.38382 
L 339.859093 180.38382 
L 341.615213 180.38382 
L 343.371337 180.38382 
L 345.127462 180.38382 
" clip-path="url(#pa82f903d48)" style="fill: none; stroke: #ff0000; stroke-opacity: 0.4; stroke-width: 0.25; stroke-linecap: square"/>
   </g>
   <g id="line2d_73">
    <path d="M 292.438734 180.384021 
L 294.197009 180.383849 
L 295.95482 180.383771 
L 297.712221 180.383758 
L 299.469267 180.383807 
L 301.226017 180.383848 
L 302.982523 180.383856 
L 304.738837 180.383848 
L 306.495004 180.38383 
L 308.251062 180.383814 
L 310.007045 180.383803 
L 311.762979 180.383806 
L 313.518888 180.383812 
L 315.274787 180.383819 
L 317.03069 180.38382 
L 318.786605 180.38382 
L 320.542538 180.38382 
L 322.298492 180.383819 
L 324.05447 180.383819 
L 325.81047 180.38382 
L 327.566493 180.38382 
L 329.322536 180.38382 
L 331.078598 180.38382 
L 332.834675 180.38382 
L 334.590765 180.38382 
L 336.346867 180.38382 
L 338.102977 180.38382 
L 339.859094 180.38382 
L 341.615215 180.383821 
L 343.371339 180.38382 
L 345.127465 180.38382 
" clip-path="url(#pa82f903d48)" style="fill: none; stroke: #ff0000; stroke-opacity: 0.6; stroke-width: 0.25; stroke-linecap: square"/>
   </g>
   <g id="line2d_74">
    <path d="M 292.438734 180.384021 
L 294.197009 180.383851 
L 295.95482 180.383774 
L 297.712221 180.383761 
L 299.469267 180.383809 
L 301.226017 180.383848 
L 302.982523 180.383856 
L 304.738837 180.383847 
L 306.495004 180.383829 
L 308.251062 180.383813 
L 310.007045 180.383803 
L 311.76298 180.383806 
L 313.518888 180.383813 
L 315.274788 180.383819 
L 317.03069 180.38382 
L 318.786605 180.38382 
L 320.542538 180.38382 
L 322.298493 180.383819 
L 324.05447 180.383819 
L 325.810471 180.38382 
L 327.566494 180.38382 
L 329.322537 180.38382 
L 331.078598 180.38382 
L 332.834675 180.38382 
L 334.590765 180.38382 
L 336.346867 180.38382 
L 338.102976 180.38382 
L 339.859093 180.38382 
L 341.615214 180.38382 
L 343.371338 180.38382 
L 345.127463 180.38382 
" clip-path="url(#pa82f903d48)" style="fill: none; stroke: #ff0000; stroke-opacity: 0.8; stroke-width: 0.25; stroke-linecap: square"/>
   </g>
   <g id="line2d_75">
    <path d="M 292.438734 180.384021 
L 294.197009 180.383852 
L 295.95482 180.383777 
L 297.712221 180.383764 
L 299.469267 180.38381 
L 301.226017 180.383849 
L 302.982523 180.383855 
L 304.738837 180.383846 
L 306.495004 180.383828 
L 308.251062 180.383812 
L 310.007045 180.383803 
L 311.76298 180.383806 
L 313.518888 180.383813 
L 315.274788 180.383819 
L 317.03069 180.38382 
L 318.786605 180.38382 
L 320.542538 180.38382 
L 322.298493 180.383819 
L 324.05447 180.383819 
L 325.810471 180.38382 
L 327.566494 180.38382 
L 329.322537 180.38382 
L 331.078598 180.38382 
L 332.834675 180.38382 
L 334.590766 180.38382 
L 336.346867 180.38382 
L 338.102977 180.38382 
L 339.859093 180.38382 
L 341.615214 180.38382 
L 343.371338 180.38382 
L 345.127464 180.38382 
" clip-path="url(#pa82f903d48)" style="fill: none; stroke: #ff0000; stroke-width: 0.25; stroke-linecap: square"/>
   </g>
   <g id="line2d_76">
    <path d="M 230.304173 264.955028 
L 230.304174 267.199736 
L 230.304176 269.444348 
L 230.304177 271.688858 
L 230.304178 273.933268 
L 230.304179 276.177583 
L 230.30418 278.421813 
L 230.304181 280.665967 
L 230.304181 282.910056 
L 230.304181 285.15409 
L 230.304181 287.398079 
L 230.304181 289.642034 
L 230.304181 291.885961 
L 230.304181 294.12987 
L 230.304181 296.373765 
L 230.304181 298.617651 
L 230.304181 300.861533 
L 230.30418 303.105414 
L 230.30418 305.349295 
L 230.30418 307.593179 
L 230.30418 309.837067 
L 230.30418 312.080959 
L 230.30418 314.324855 
L 230.30418 316.568756 
L 230.30418 318.81266 
L 230.30418 321.056568 
L 230.30418 323.300479 
L 230.30418 325.544392 
L 230.30418 327.788307 
L 230.30418 330.032224 
L 230.30418 332.276141 
" clip-path="url(#pa82f903d48)" style="fill: none; stroke: #ff0000; stroke-opacity: 0.2; stroke-width: 0.25; stroke-linecap: square"/>
   </g>
   <g id="line2d_77">
    <path d="M 230.304173 264.955028 
L 230.304174 267.199736 
L 230.304176 269.444348 
L 230.304177 271.688858 
L 230.304178 273.933268 
L 230.304179 276.177583 
L 230.30418 278.421813 
L 230.304181 280.665967 
L 230.304181 282.910056 
L 230.304181 285.15409 
L 230.304181 287.39808 
L 230.304181 289.642035 
L 230.304181 291.885962 
L 230.304181 294.129871 
L 230.304181 296.373766 
L 230.304181 298.617652 
L 230.304181 300.861534 
L 230.30418 303.105415 
L 230.30418 305.349297 
L 230.30418 307.593181 
L 230.30418 309.837068 
L 230.30418 312.08096 
L 230.30418 314.324855 
L 230.30418 316.568755 
L 230.30418 318.812659 
L 230.30418 321.056566 
L 230.30418 323.300476 
L 230.30418 325.544388 
L 230.30418 327.788302 
L 230.30418 330.032217 
L 230.30418 332.276133 
" clip-path="url(#pa82f903d48)" style="fill: none; stroke: #ff0000; stroke-opacity: 0.4; stroke-width: 0.25; stroke-linecap: square"/>
   </g>
   <g id="line2d_78">
    <path d="M 230.304173 264.955028 
L 230.304174 267.199736 
L 230.304175 269.444348 
L 230.304177 271.688858 
L 230.304178 273.933268 
L 230.304179 276.177583 
L 230.30418 278.421813 
L 230.30418 280.665967 
L 230.304181 282.910056 
L 230.304181 285.15409 
L 230.304181 287.39808 
L 230.304181 289.642034 
L 230.304181 291.885962 
L 230.304181 294.12987 
L 230.304181 296.373765 
L 230.304181 298.617652 
L 230.304181 300.861534 
L 230.30418 303.105415 
L 230.30418 305.349296 
L 230.30418 307.59318 
L 230.30418 309.837068 
L 230.30418 312.08096 
L 230.30418 314.324856 
L 230.30418 316.568756 
L 230.30418 318.81266 
L 230.30418 321.056568 
L 230.30418 323.300478 
L 230.30418 325.544391 
L 230.30418 327.788305 
L 230.30418 330.032221 
L 230.30418 332.276137 
" clip-path="url(#pa82f903d48)" style="fill: none; stroke: #ff0000; stroke-opacity: 0.6; stroke-width: 0.25; stroke-linecap: square"/>
   </g>
   <g id="line2d_79">
    <path d="M 230.304173 264.955028 
L 230.304174 267.199736 
L 230.304175 269.444348 
L 230.304177 271.688858 
L 230.304178 273.933268 
L 230.304179 276.177583 
L 230.30418 278.421813 
L 230.30418 280.665967 
L 230.304181 282.910056 
L 230.304181 285.15409 
L 230.304181 287.39808 
L 230.304181 289.642034 
L 230.304181 291.885962 
L 230.304181 294.129871 
L 230.304181 296.373765 
L 230.304181 298.617652 
L 230.304181 300.861534 
L 230.30418 303.105415 
L 230.30418 305.349296 
L 230.30418 307.59318 
L 230.30418 309.837068 
L 230.30418 312.080959 
L 230.30418 314.324855 
L 230.30418 316.568755 
L 230.30418 318.812659 
L 230.30418 321.056566 
L 230.30418 323.300477 
L 230.30418 325.544389 
L 230.30418 327.788303 
L 230.30418 330.032219 
L 230.30418 332.276135 
" clip-path="url(#pa82f903d48)" style="fill: none; stroke: #ff0000; stroke-opacity: 0.8; stroke-width: 0.25; stroke-linecap: square"/>
   </g>
   <g id="line2d_80">
    <path d="M 230.304173 264.955028 
L 230.304173 267.199736 
L 230.304175 269.444348 
L 230.304177 271.688858 
L 230.304178 273.933268 
L 230.304179 276.177583 
L 230.30418 278.421813 
L 230.30418 280.665967 
L 230.304181 282.910056 
L 230.304181 285.15409 
L 230.304181 287.39808 
L 230.304181 289.642034 
L 230.304181 291.885962 
L 230.304181 294.129871 
L 230.304181 296.373765 
L 230.304181 298.617652 
L 230.304181 300.861534 
L 230.30418 303.105415 
L 230.30418 305.349296 
L 230.30418 307.59318 
L 230.30418 309.837068 
L 230.30418 312.08096 
L 230.30418 314.324856 
L 230.30418 316.568756 
L 230.30418 318.81266 
L 230.30418 321.056567 
L 230.30418 323.300478 
L 230.30418 325.54439 
L 230.30418 327.788305 
L 230.30418 330.03222 
L 230.30418 332.276136 
" clip-path="url(#pa82f903d48)" style="fill: none; stroke: #ff0000; stroke-width: 0.25; stroke-linecap: square"/>
   </g>
   <g id="line2d_81">
    <path d="M 179.880145 168.672017 
L 178.12201 168.67215 
L 176.364344 168.672238 
L 174.607086 168.672222 
L 172.850174 168.672177 
L 171.093547 168.672167 
L 169.337149 168.672151 
L 167.580927 168.672154 
L 165.824839 168.672169 
L 164.068844 168.672183 
L 162.312911 168.672194 
L 160.557014 168.672193 
L 158.801133 168.672188 
L 157.045253 168.672183 
L 155.289363 168.67218 
L 153.533454 168.672179 
L 151.777524 168.67218 
L 150.021568 168.67218 
L 148.265587 168.67218 
L 146.509582 168.67218 
L 144.753554 168.67218 
L 142.997504 168.67218 
L 141.241437 168.67218 
L 139.485354 168.67218 
L 137.729258 168.67218 
L 135.973151 168.67218 
L 134.217036 168.67218 
L 132.460915 168.67218 
L 130.70479 168.672179 
L 128.948661 168.67218 
L 127.192531 168.67218 
" clip-path="url(#pa82f903d48)" style="fill: none; stroke: #ff0000; stroke-opacity: 0.2; stroke-width: 0.25; stroke-linecap: square"/>
   </g>
   <g id="line2d_82">
    <path d="M 179.880145 168.672017 
L 178.12201 168.672149 
L 176.364344 168.672235 
L 174.607086 168.67222 
L 172.850174 168.672176 
L 171.093547 168.672167 
L 169.337148 168.672152 
L 167.580927 168.672155 
L 165.824838 168.672171 
L 164.068843 168.672184 
L 162.312909 168.672194 
L 160.557012 168.672193 
L 158.801131 168.672187 
L 157.045251 168.672182 
L 155.28936 168.67218 
L 153.533452 168.672179 
L 151.777521 168.67218 
L 150.021565 168.67218 
L 148.265584 168.67218 
L 146.509578 168.67218 
L 144.75355 168.67218 
L 142.997501 168.67218 
L 141.241433 168.67218 
L 139.485351 168.67218 
L 137.729255 168.67218 
L 135.973149 168.67218 
L 134.217034 168.67218 
L 132.460914 168.67218 
L 130.704789 168.67218 
L 128.948662 168.67218 
L 127.192533 168.67218 
" clip-path="url(#pa82f903d48)" style="fill: none; stroke: #ff0000; stroke-opacity: 0.4; stroke-width: 0.25; stroke-linecap: square"/>
   </g>
   <g id="line2d_83">
    <path d="M 179.880145 168.672017 
L 178.12201 168.672147 
L 176.364344 168.672233 
L 174.607086 168.672218 
L 172.850174 168.672174 
L 171.093547 168.672166 
L 169.337149 168.672152 
L 167.580927 168.672157 
L 165.824838 168.672172 
L 164.068843 168.672185 
L 162.31291 168.672194 
L 160.557013 168.672192 
L 158.801132 168.672187 
L 157.045252 168.672182 
L 155.289362 168.67218 
L 153.533453 168.672179 
L 151.777522 168.67218 
L 150.021566 168.67218 
L 148.265585 168.67218 
L 146.50958 168.67218 
L 144.753551 168.67218 
L 142.997502 168.67218 
L 141.241435 168.67218 
L 139.485352 168.67218 
L 137.729256 168.67218 
L 135.97315 168.67218 
L 134.217035 168.67218 
L 132.460914 168.67218 
L 130.704789 168.67218 
L 128.948661 168.67218 
L 127.192532 168.67218 
" clip-path="url(#pa82f903d48)" style="fill: none; stroke: #ff0000; stroke-opacity: 0.6; stroke-width: 0.25; stroke-linecap: square"/>
   </g>
   <g id="line2d_84">
    <path d="M 179.880145 168.672017 
L 178.12201 168.672146 
L 176.364344 168.672231 
L 174.607086 168.672216 
L 172.850174 168.672173 
L 171.093547 168.672166 
L 169.337149 168.672153 
L 167.580927 168.672158 
L 165.824838 168.672173 
L 164.068843 168.672185 
L 162.31291 168.672194 
L 160.557013 168.672192 
L 158.801132 168.672187 
L 157.045252 168.672182 
L 155.289361 168.67218 
L 153.533452 168.672179 
L 151.777521 168.67218 
L 150.021566 168.67218 
L 148.265585 168.67218 
L 146.509579 168.67218 
L 144.753551 168.67218 
L 142.997502 168.67218 
L 141.241434 168.67218 
L 139.485351 168.67218 
L 137.729256 168.67218 
L 135.973149 168.67218 
L 134.217035 168.67218 
L 132.460914 168.67218 
L 130.704789 168.67218 
L 128.948662 168.67218 
L 127.192533 168.67218 
" clip-path="url(#pa82f903d48)" style="fill: none; stroke: #ff0000; stroke-opacity: 0.8; stroke-width: 0.25; stroke-linecap: square"/>
   </g>
   <g id="line2d_85">
    <path d="M 179.880145 168.672017 
L 178.12201 168.672145 
L 176.364344 168.672229 
L 174.607086 168.672214 
L 172.850174 168.672172 
L 171.093547 168.672166 
L 169.337149 168.672154 
L 167.580927 168.672159 
L 165.824838 168.672173 
L 164.068843 168.672186 
L 162.31291 168.672194 
L 160.557013 168.672192 
L 158.801132 168.672186 
L 157.045252 168.672182 
L 155.289361 168.67218 
L 153.533453 168.672179 
L 151.777522 168.67218 
L 150.021566 168.672181 
L 148.265585 168.67218 
L 146.509579 168.67218 
L 144.753551 168.67218 
L 142.997502 168.67218 
L 141.241435 168.67218 
L 139.485352 168.67218 
L 137.729256 168.67218 
L 135.973149 168.67218 
L 134.217035 168.67218 
L 132.460914 168.67218 
L 130.704789 168.67218 
L 128.948662 168.67218 
L 127.192533 168.67218 
" clip-path="url(#pa82f903d48)" style="fill: none; stroke: #ff0000; stroke-width: 0.25; stroke-linecap: square"/>
   </g>
   <g id="line2d_86">
    <path d="M 230.303992 230.808596 
L 230.304143 232.566044 
L 230.304253 234.323214 
L 230.304244 236.080135 
L 230.304195 237.83684 
L 230.304158 239.593364 
L 230.304135 241.349737 
L 230.304138 243.105992 
L 230.304165 244.862154 
L 230.304185 246.618248 
L 230.304196 248.374294 
L 230.304194 250.130308 
L 230.304186 251.886305 
L 230.304181 253.642294 
L 230.30418 255.398284 
L 230.304179 257.15428 
L 230.304179 258.910286 
L 230.30418 260.666304 
L 230.304181 262.422336 
L 230.30418 264.178382 
L 230.30418 265.934441 
L 230.30418 267.690512 
L 230.30418 269.446594 
L 230.30418 271.202686 
L 230.30418 272.958786 
L 230.30418 274.714893 
L 230.30418 276.471005 
L 230.30418 278.227122 
L 230.30418 279.983241 
L 230.30418 281.739362 
L 230.30418 283.495484 
" clip-path="url(#pa82f903d48)" style="fill: none; stroke: #ff0000; stroke-opacity: 0.2; stroke-width: 0.25; stroke-linecap: square"/>
   </g>
   <g id="line2d_87">
    <path d="M 230.303992 230.808596 
L 230.304142 232.566044 
L 230.30425 234.323214 
L 230.304241 236.080135 
L 230.304194 237.836841 
L 230.304158 239.593364 
L 230.304136 241.349738 
L 230.30414 243.105992 
L 230.304166 244.862155 
L 230.304186 246.618249 
L 230.304196 248.374295 
L 230.304193 250.130309 
L 230.304186 251.886306 
L 230.304181 253.642295 
L 230.30418 255.398285 
L 230.304179 257.154281 
L 230.304179 258.910288 
L 230.30418 260.666306 
L 230.30418 262.422338 
L 230.30418 264.178384 
L 230.30418 265.934443 
L 230.30418 267.690514 
L 230.30418 269.446596 
L 230.30418 271.202688 
L 230.30418 272.958787 
L 230.30418 274.714894 
L 230.30418 276.471005 
L 230.30418 278.227121 
L 230.30418 279.983239 
L 230.30418 281.739359 
L 230.30418 283.49548 
" clip-path="url(#pa82f903d48)" style="fill: none; stroke: #ff0000; stroke-opacity: 0.4; stroke-width: 0.25; stroke-linecap: square"/>
   </g>
   <g id="line2d_88">
    <path d="M 230.303992 230.808596 
L 230.304141 232.566044 
L 230.304248 234.323214 
L 230.304238 236.080135 
L 230.304192 237.836841 
L 230.304158 239.593364 
L 230.304137 241.349738 
L 230.304141 243.105992 
L 230.304168 244.862155 
L 230.304186 246.618249 
L 230.304196 248.374294 
L 230.304193 250.130309 
L 230.304185 251.886305 
L 230.30418 253.642295 
L 230.30418 255.398284 
L 230.304179 257.154281 
L 230.304179 258.910287 
L 230.30418 260.666305 
L 230.304181 262.422338 
L 230.30418 264.178383 
L 230.30418 265.934442 
L 230.30418 267.690513 
L 230.30418 269.446596 
L 230.30418 271.202687 
L 230.30418 272.958787 
L 230.30418 274.714894 
L 230.30418 276.471006 
L 230.30418 278.227122 
L 230.30418 279.98324 
L 230.30418 281.739361 
L 230.30418 283.495482 
" clip-path="url(#pa82f903d48)" style="fill: none; stroke: #ff0000; stroke-opacity: 0.6; stroke-width: 0.25; stroke-linecap: square"/>
   </g>
   <g id="line2d_89">
    <path d="M 230.303992 230.808596 
L 230.30414 232.566044 
L 230.304245 234.323214 
L 230.304235 236.080135 
L 230.30419 237.836841 
L 230.304157 239.593364 
L 230.304138 241.349738 
L 230.304143 243.105992 
L 230.304169 244.862155 
L 230.304187 246.618249 
L 230.304196 248.374294 
L 230.304193 250.130309 
L 230.304185 251.886306 
L 230.30418 253.642295 
L 230.30418 255.398285 
L 230.304179 257.154281 
L 230.304179 258.910287 
L 230.30418 260.666306 
L 230.304181 262.422338 
L 230.30418 264.178384 
L 230.30418 265.934442 
L 230.30418 267.690514 
L 230.30418 269.446596 
L 230.30418 271.202687 
L 230.30418 272.958787 
L 230.30418 274.714893 
L 230.30418 276.471005 
L 230.30418 278.227121 
L 230.30418 279.98324 
L 230.30418 281.73936 
L 230.30418 283.495481 
" clip-path="url(#pa82f903d48)" style="fill: none; stroke: #ff0000; stroke-opacity: 0.8; stroke-width: 0.25; stroke-linecap: square"/>
   </g>
   <g id="line2d_90">
    <path d="M 230.303992 230.808596 
L 230.304139 232.566044 
L 230.304243 234.323214 
L 230.304233 236.080135 
L 230.304189 237.836841 
L 230.304157 239.593364 
L 230.304139 241.349738 
L 230.304144 243.105992 
L 230.30417 244.862155 
L 230.304187 246.618249 
L 230.304196 248.374294 
L 230.304192 250.130309 
L 230.304185 251.886305 
L 230.30418 253.642295 
L 230.30418 255.398285 
L 230.304179 257.154281 
L 230.304179 258.910287 
L 230.30418 260.666306 
L 230.304181 262.422338 
L 230.30418 264.178383 
L 230.30418 265.934442 
L 230.30418 267.690514 
L 230.30418 269.446596 
L 230.30418 271.202687 
L 230.30418 272.958787 
L 230.30418 274.714894 
L 230.30418 276.471005 
L 230.30418 278.227121 
L 230.30418 279.98324 
L 230.30418 281.73936 
L 230.30418 283.495482 
" clip-path="url(#pa82f903d48)" style="fill: none; stroke: #ff0000; stroke-width: 0.25; stroke-linecap: square"/>
   </g>
   <g id="patch_15">
    <path d="M 103.104 307.584 
L 103.104 41.472 
" style="fill: none; stroke: #000000; stroke-width: 0.8; stroke-linejoin: miter; stroke-linecap: square"/>
   </g>
   <g id="patch_16">
    <path d="M 369.216 307.584 
L 369.216 41.472 
" style="fill: none; stroke: #000000; stroke-width: 0.8; stroke-linejoin: miter; stroke-linecap: square"/>
   </g>
   <g id="patch_17">
    <path d="M 103.104 307.584 
L 369.216 307.584 
" style="fill: none; stroke: #000000; stroke-width: 0.8; stroke-linejoin: miter; stroke-linecap: square"/>
   </g>
   <g id="patch_18">
    <path d="M 103.104 41.472 
L 369.216 41.472 
" style="fill: none; stroke: #000000; stroke-width: 0.8; stroke-linejoin: miter; stroke-linecap: square"/>
   </g>
   <g id="text_19">
    <!-- Time: 108 ms -->
    <g transform="translate(261.069512 54.7776) scale(0.1 -0.1)">
     <defs>
      <path id="DejaVuSans-54" d="M -19 4666 
L 3928 4666 
L 3928 4134 
L 2272 4134 
L 2272 0 
L 1638 0 
L 1638 4134 
L -19 4134 
L -19 4666 
z
" transform="scale(0.015625)"/>
      <path id="DejaVuSans-69" d="M 603 3500 
L 1178 3500 
L 1178 0 
L 603 0 
L 603 3500 
z
M 603 4863 
L 1178 4863 
L 1178 4134 
L 603 4134 
L 603 4863 
z
" transform="scale(0.015625)"/>
      <path id="DejaVuSans-6d" d="M 3328 2828 
Q 3544 3216 3844 3400 
Q 4144 3584 4550 3584 
Q 5097 3584 5394 3201 
Q 5691 2819 5691 2113 
L 5691 0 
L 5113 0 
L 5113 2094 
Q 5113 2597 4934 2840 
Q 4756 3084 4391 3084 
Q 3944 3084 3684 2787 
Q 3425 2491 3425 1978 
L 3425 0 
L 2847 0 
L 2847 2094 
Q 2847 2600 2669 2842 
Q 2491 3084 2119 3084 
Q 1678 3084 1418 2786 
Q 1159 2488 1159 1978 
L 1159 0 
L 581 0 
L 581 3500 
L 1159 3500 
L 1159 2956 
Q 1356 3278 1631 3431 
Q 1906 3584 2284 3584 
Q 2666 3584 2933 3390 
Q 3200 3197 3328 2828 
z
" transform="scale(0.015625)"/>
      <path id="DejaVuSans-65" d="M 3597 1894 
L 3597 1613 
L 953 1613 
Q 991 1019 1311 708 
Q 1631 397 2203 397 
Q 2534 397 2845 478 
Q 3156 559 3463 722 
L 3463 178 
Q 3153 47 2828 -22 
Q 2503 -91 2169 -91 
Q 1331 -91 842 396 
Q 353 884 353 1716 
Q 353 2575 817 3079 
Q 1281 3584 2069 3584 
Q 2775 3584 3186 3129 
Q 3597 2675 3597 1894 
z
M 3022 2063 
Q 3016 2534 2758 2815 
Q 2500 3097 2075 3097 
Q 1594 3097 1305 2825 
Q 1016 2553 972 2059 
L 3022 2063 
z
" transform="scale(0.015625)"/>
      <path id="DejaVuSans-3a" d="M 750 794 
L 1409 794 
L 1409 0 
L 750 0 
L 750 794 
z
M 750 3309 
L 1409 3309 
L 1409 2516 
L 750 2516 
L 750 3309 
z
" transform="scale(0.015625)"/>
      <path id="DejaVuSans-20" transform="scale(0.015625)"/>
      <path id="DejaVuSans-38" d="M 2034 2216 
Q 1584 2216 1326 1975 
Q 1069 1734 1069 1313 
Q 1069 891 1326 650 
Q 1584 409 2034 409 
Q 2484 409 2743 651 
Q 3003 894 3003 1313 
Q 3003 1734 2745 1975 
Q 2488 2216 2034 2216 
z
M 1403 2484 
Q 997 2584 770 2862 
Q 544 3141 544 3541 
Q 544 4100 942 4425 
Q 1341 4750 2034 4750 
Q 2731 4750 3128 4425 
Q 3525 4100 3525 3541 
Q 3525 3141 3298 2862 
Q 3072 2584 2669 2484 
Q 3125 2378 3379 2068 
Q 3634 1759 3634 1313 
Q 3634 634 3220 271 
Q 2806 -91 2034 -91 
Q 1263 -91 848 271 
Q 434 634 434 1313 
Q 434 1759 690 2068 
Q 947 2378 1403 2484 
z
M 1172 3481 
Q 1172 3119 1398 2916 
Q 1625 2713 2034 2713 
Q 2441 2713 2670 2916 
Q 2900 3119 2900 3481 
Q 2900 3844 2670 4047 
Q 2441 4250 2034 4250 
Q 1625 4250 1398 4047 
Q 1172 3844 1172 3481 
z
" transform="scale(0.015625)"/>
      <path id="DejaVuSans-73" d="M 2834 3397 
L 2834 2853 
Q 2591 2978 2328 3040 
Q 2066 3103 1784 3103 
Q 1356 3103 1142 2972 
Q 928 2841 928 2578 
Q 928 2378 1081 2264 
Q 1234 2150 1697 2047 
L 1894 2003 
Q 2506 1872 2764 1633 
Q 3022 1394 3022 966 
Q 3022 478 2636 193 
Q 2250 -91 1575 -91 
Q 1294 -91 989 -36 
Q 684 19 347 128 
L 347 722 
Q 666 556 975 473 
Q 1284 391 1588 391 
Q 1994 391 2212 530 
Q 2431 669 2431 922 
Q 2431 1156 2273 1281 
Q 2116 1406 1581 1522 
L 1381 1569 
Q 847 1681 609 1914 
Q 372 2147 372 2553 
Q 372 3047 722 3315 
Q 1072 3584 1716 3584 
Q 2034 3584 2315 3537 
Q 2597 3491 2834 3397 
z
" transform="scale(0.015625)"/>
     </defs>
     <use xlink:href="#DejaVuSans-54"/>
     <use xlink:href="#DejaVuSans-69" x="57.958984"/>
     <use xlink:href="#DejaVuSans-6d" x="85.742188"/>
     <use xlink:href="#DejaVuSans-65" x="183.154297"/>
     <use xlink:href="#DejaVuSans-3a" x="244.677734"/>
     <use xlink:href="#DejaVuSans-20" x="278.369141"/>
     <use xlink:href="#DejaVuSans-31" x="310.15625"/>
     <use xlink:href="#DejaVuSans-30" x="373.779297"/>
     <use xlink:href="#DejaVuSans-38" x="437.402344"/>
     <use xlink:href="#DejaVuSans-20" x="501.025391"/>
     <use xlink:href="#DejaVuSans-6d" x="532.8125"/>
     <use xlink:href="#DejaVuSans-73" x="630.224609"/>
    </g>
   </g>
  </g>
 </g>
 <defs>
  <clipPath id="pa82f903d48">
   <rect x="103.104" y="41.472" width="266.112" height="266.112"/>
  </clipPath>
 </defs>
</svg>
