<?xml version="1.0" encoding="utf-8" standalone="no"?>
<!DOCTYPE svg PUBLIC "-//W3C//DTD SVG 1.1//EN"
  "http://www.w3.org/Graphics/SVG/1.1/DTD/svg11.dtd">
<svg xmlns:xlink="http://www.w3.org/1999/xlink" width="460.8pt" height="345.6pt" viewBox="0 0 460.8 345.6" xmlns="http://www.w3.org/2000/svg" version="1.1">
 <metadata>
  <rdf:RDF xmlns:dc="http://purl.org/dc/elements/1.1/" xmlns:cc="http://creativecommons.org/ns#" xmlns:rdf="http://www.w3.org/1999/02/22-rdf-syntax-ns#">
   <cc:Work>
    <dc:type rdf:resource="http://purl.org/dc/dcmitype/StillImage"/>
    <dc:date>2024-01-23T15:52:36.246300</dc:date>
    <dc:format>image/svg+xml</dc:format>
    <dc:creator>
     <cc:Agent>
      <dc:title>Matplotlib v3.8.2, https://matplotlib.org/</dc:title>
     </cc:Agent>
    </dc:creator>
   </cc:Work>
  </rdf:RDF>
 </metadata>
 <defs>
  <style type="text/css">*{stroke-linejoin: round; stroke-linecap: butt}</style>
 </defs>
 <g id="figure_1">
  <g id="patch_1">
   <path d="M 0 345.6 
L 460.8 345.6 
L 460.8 0 
L 0 0 
z
" style="fill: #ffffff"/>
  </g>
  <g id="axes_1">
   <g id="patch_2">
    <path d="M 103.104 307.584 
L 369.216 307.584 
L 369.216 41.472 
L 103.104 41.472 
z
" style="fill: #ffffff"/>
   </g>
   <g id="patch_3">
    <path d="M 112.576325 166.189197 
L 100.933925 166.1892 
L 100.933926 171.84408 
L 112.576326 171.844077 
z
" clip-path="url(#p85a573176a)" style="fill: #00008b"/>
   </g>
   <g id="patch_4">
    <path d="M 244.498799 47.007839 
L 244.498799 35.365439 
L 238.843919 35.365439 
L 238.843919 47.007839 
z
" clip-path="url(#p85a573176a)" style="fill: #800000"/>
   </g>
   <g id="patch_5">
    <path d="M 227.821199 298.126432 
L 227.8212 309.768832 
L 233.47608 309.768831 
L 233.476079 298.126431 
z
" clip-path="url(#p85a573176a)" style="fill: #006400"/>
   </g>
   <g id="patch_6">
    <path d="M 359.758645 182.866802 
L 371.401045 182.8668 
L 371.401044 177.21192 
L 359.758644 177.211922 
z
" clip-path="url(#p85a573176a)" style="fill: #4b0082"/>
   </g>
   <g id="patch_7">
    <path d="M 244.498832 84.123657 
L 244.49884 72.481257 
L 238.84396 72.481253 
L 238.843952 84.123653 
z
" clip-path="url(#p85a573176a)" style="fill: #0000ff"/>
   </g>
   <g id="patch_8">
    <path d="M 145.742441 166.189188 
L 134.100041 166.189188 
L 134.10004 171.844068 
L 145.74244 171.844068 
z
" clip-path="url(#p85a573176a)" style="fill: #ff0000"/>
   </g>
   <g id="patch_9">
    <path d="M 326.116998 182.866822 
L 337.759398 182.866834 
L 337.759404 177.211954 
L 326.117004 177.211942 
z
" clip-path="url(#p85a573176a)" style="fill: #dbdc56"/>
   </g>
   <g id="patch_10">
    <path d="M 244.498659 109.567286 
L 244.498713 97.924886 
L 238.843833 97.92486 
L 238.843779 109.56726 
z
" clip-path="url(#p85a573176a)" style="fill: #9400d3"/>
   </g>
   <g id="patch_11">
    <path d="M 297.283662 182.86702 
L 308.926062 182.866866 
L 308.925987 177.211986 
L 297.283587 177.21214 
z
" clip-path="url(#p85a573176a)" style="fill: #1e90ff"/>
   </g>
   <g id="patch_12">
    <path d="M 227.821626 257.206683 
L 227.821308 268.849083 
L 233.476188 268.849237 
L 233.476506 257.206837 
z
" clip-path="url(#p85a573176a)" style="fill: #ff4500"/>
   </g>
   <g id="patch_13">
    <path d="M 175.034638 166.188888 
L 163.392238 166.189052 
L 163.392318 171.843932 
L 175.034718 171.843768 
z
" clip-path="url(#p85a573176a)" style="fill: #7cfc00"/>
   </g>
   <g id="patch_14">
    <path d="M 227.819735 235.748503 
L 227.821668 247.390903 
L 233.476548 247.389964 
L 233.474615 235.747564 
z
" clip-path="url(#p85a573176a)" style="fill: #ff00ff"/>
   </g>
   <g id="matplotlib.axis_1">
    <g id="xtick_1">
     <g id="line2d_1">
      <defs>
       <path id="m44218bee0e" d="M 0 0 
L 0 3.5 
" style="stroke: #000000; stroke-width: 0.8"/>
      </defs>
      <g>
       <use xlink:href="#m44218bee0e" x="103.104" y="307.584" style="stroke: #000000; stroke-width: 0.8"/>
      </g>
     </g>
     <g id="text_1">
      <!-- −40 -->
      <g transform="translate(92.551656 322.182437) scale(0.1 -0.1)">
       <defs>
        <path id="DejaVuSans-2212" d="M 678 2272 
L 4684 2272 
L 4684 1741 
L 678 1741 
L 678 2272 
z
" transform="scale(0.015625)"/>
        <path id="DejaVuSans-34" d="M 2419 4116 
L 825 1625 
L 2419 1625 
L 2419 4116 
z
M 2253 4666 
L 3047 4666 
L 3047 1625 
L 3713 1625 
L 3713 1100 
L 3047 1100 
L 3047 0 
L 2419 0 
L 2419 1100 
L 313 1100 
L 313 1709 
L 2253 4666 
z
" transform="scale(0.015625)"/>
        <path id="DejaVuSans-30" d="M 2034 4250 
Q 1547 4250 1301 3770 
Q 1056 3291 1056 2328 
Q 1056 1369 1301 889 
Q 1547 409 2034 409 
Q 2525 409 2770 889 
Q 3016 1369 3016 2328 
Q 3016 3291 2770 3770 
Q 2525 4250 2034 4250 
z
M 2034 4750 
Q 2819 4750 3233 4129 
Q 3647 3509 3647 2328 
Q 3647 1150 3233 529 
Q 2819 -91 2034 -91 
Q 1250 -91 836 529 
Q 422 1150 422 2328 
Q 422 3509 836 4129 
Q 1250 4750 2034 4750 
z
" transform="scale(0.015625)"/>
       </defs>
       <use xlink:href="#DejaVuSans-2212"/>
       <use xlink:href="#DejaVuSans-34" x="83.789062"/>
       <use xlink:href="#DejaVuSans-30" x="147.412109"/>
      </g>
     </g>
    </g>
    <g id="xtick_2">
     <g id="line2d_2">
      <g>
       <use xlink:href="#m44218bee0e" x="136.368" y="307.584" style="stroke: #000000; stroke-width: 0.8"/>
      </g>
     </g>
     <g id="text_2">
      <!-- −30 -->
      <g transform="translate(125.815656 322.182437) scale(0.1 -0.1)">
       <defs>
        <path id="DejaVuSans-33" d="M 2597 2516 
Q 3050 2419 3304 2112 
Q 3559 1806 3559 1356 
Q 3559 666 3084 287 
Q 2609 -91 1734 -91 
Q 1441 -91 1130 -33 
Q 819 25 488 141 
L 488 750 
Q 750 597 1062 519 
Q 1375 441 1716 441 
Q 2309 441 2620 675 
Q 2931 909 2931 1356 
Q 2931 1769 2642 2001 
Q 2353 2234 1838 2234 
L 1294 2234 
L 1294 2753 
L 1863 2753 
Q 2328 2753 2575 2939 
Q 2822 3125 2822 3475 
Q 2822 3834 2567 4026 
Q 2313 4219 1838 4219 
Q 1578 4219 1281 4162 
Q 984 4106 628 3988 
L 628 4550 
Q 988 4650 1302 4700 
Q 1616 4750 1894 4750 
Q 2613 4750 3031 4423 
Q 3450 4097 3450 3541 
Q 3450 3153 3228 2886 
Q 3006 2619 2597 2516 
z
" transform="scale(0.015625)"/>
       </defs>
       <use xlink:href="#DejaVuSans-2212"/>
       <use xlink:href="#DejaVuSans-33" x="83.789062"/>
       <use xlink:href="#DejaVuSans-30" x="147.412109"/>
      </g>
     </g>
    </g>
    <g id="xtick_3">
     <g id="line2d_3">
      <g>
       <use xlink:href="#m44218bee0e" x="169.632" y="307.584" style="stroke: #000000; stroke-width: 0.8"/>
      </g>
     </g>
     <g id="text_3">
      <!-- −20 -->
      <g transform="translate(159.079656 322.182437) scale(0.1 -0.1)">
       <defs>
        <path id="DejaVuSans-32" d="M 1228 531 
L 3431 531 
L 3431 0 
L 469 0 
L 469 531 
Q 828 903 1448 1529 
Q 2069 2156 2228 2338 
Q 2531 2678 2651 2914 
Q 2772 3150 2772 3378 
Q 2772 3750 2511 3984 
Q 2250 4219 1831 4219 
Q 1534 4219 1204 4116 
Q 875 4013 500 3803 
L 500 4441 
Q 881 4594 1212 4672 
Q 1544 4750 1819 4750 
Q 2544 4750 2975 4387 
Q 3406 4025 3406 3419 
Q 3406 3131 3298 2873 
Q 3191 2616 2906 2266 
Q 2828 2175 2409 1742 
Q 1991 1309 1228 531 
z
" transform="scale(0.015625)"/>
       </defs>
       <use xlink:href="#DejaVuSans-2212"/>
       <use xlink:href="#DejaVuSans-32" x="83.789062"/>
       <use xlink:href="#DejaVuSans-30" x="147.412109"/>
      </g>
     </g>
    </g>
    <g id="xtick_4">
     <g id="line2d_4">
      <g>
       <use xlink:href="#m44218bee0e" x="202.896" y="307.584" style="stroke: #000000; stroke-width: 0.8"/>
      </g>
     </g>
     <g id="text_4">
      <!-- −10 -->
      <g transform="translate(192.343656 322.182437) scale(0.1 -0.1)">
       <defs>
        <path id="DejaVuSans-31" d="M 794 531 
L 1825 531 
L 1825 4091 
L 703 3866 
L 703 4441 
L 1819 4666 
L 2450 4666 
L 2450 531 
L 3481 531 
L 3481 0 
L 794 0 
L 794 531 
z
" transform="scale(0.015625)"/>
       </defs>
       <use xlink:href="#DejaVuSans-2212"/>
       <use xlink:href="#DejaVuSans-31" x="83.789062"/>
       <use xlink:href="#DejaVuSans-30" x="147.412109"/>
      </g>
     </g>
    </g>
    <g id="xtick_5">
     <g id="line2d_5">
      <g>
       <use xlink:href="#m44218bee0e" x="236.16" y="307.584" style="stroke: #000000; stroke-width: 0.8"/>
      </g>
     </g>
     <g id="text_5">
      <!-- 0 -->
      <g transform="translate(232.97875 322.182437) scale(0.1 -0.1)">
       <use xlink:href="#DejaVuSans-30"/>
      </g>
     </g>
    </g>
    <g id="xtick_6">
     <g id="line2d_6">
      <g>
       <use xlink:href="#m44218bee0e" x="269.424" y="307.584" style="stroke: #000000; stroke-width: 0.8"/>
      </g>
     </g>
     <g id="text_6">
      <!-- 10 -->
      <g transform="translate(263.0615 322.182437) scale(0.1 -0.1)">
       <use xlink:href="#DejaVuSans-31"/>
       <use xlink:href="#DejaVuSans-30" x="63.623047"/>
      </g>
     </g>
    </g>
    <g id="xtick_7">
     <g id="line2d_7">
      <g>
       <use xlink:href="#m44218bee0e" x="302.688" y="307.584" style="stroke: #000000; stroke-width: 0.8"/>
      </g>
     </g>
     <g id="text_7">
      <!-- 20 -->
      <g transform="translate(296.3255 322.182437) scale(0.1 -0.1)">
       <use xlink:href="#DejaVuSans-32"/>
       <use xlink:href="#DejaVuSans-30" x="63.623047"/>
      </g>
     </g>
    </g>
    <g id="xtick_8">
     <g id="line2d_8">
      <g>
       <use xlink:href="#m44218bee0e" x="335.952" y="307.584" style="stroke: #000000; stroke-width: 0.8"/>
      </g>
     </g>
     <g id="text_8">
      <!-- 30 -->
      <g transform="translate(329.5895 322.182437) scale(0.1 -0.1)">
       <use xlink:href="#DejaVuSans-33"/>
       <use xlink:href="#DejaVuSans-30" x="63.623047"/>
      </g>
     </g>
    </g>
    <g id="xtick_9">
     <g id="line2d_9">
      <g>
       <use xlink:href="#m44218bee0e" x="369.216" y="307.584" style="stroke: #000000; stroke-width: 0.8"/>
      </g>
     </g>
     <g id="text_9">
      <!-- 40 -->
      <g transform="translate(362.8535 322.182437) scale(0.1 -0.1)">
       <use xlink:href="#DejaVuSans-34"/>
       <use xlink:href="#DejaVuSans-30" x="63.623047"/>
      </g>
     </g>
    </g>
   </g>
   <g id="matplotlib.axis_2">
    <g id="ytick_1">
     <g id="line2d_10">
      <defs>
       <path id="me197bc40cf" d="M 0 0 
L -3.5 0 
" style="stroke: #000000; stroke-width: 0.8"/>
      </defs>
      <g>
       <use xlink:href="#me197bc40cf" x="103.104" y="307.584" style="stroke: #000000; stroke-width: 0.8"/>
      </g>
     </g>
     <g id="text_10">
      <!-- −40 -->
      <g transform="translate(74.999313 311.383219) scale(0.1 -0.1)">
       <use xlink:href="#DejaVuSans-2212"/>
       <use xlink:href="#DejaVuSans-34" x="83.789062"/>
       <use xlink:href="#DejaVuSans-30" x="147.412109"/>
      </g>
     </g>
    </g>
    <g id="ytick_2">
     <g id="line2d_11">
      <g>
       <use xlink:href="#me197bc40cf" x="103.104" y="274.32" style="stroke: #000000; stroke-width: 0.8"/>
      </g>
     </g>
     <g id="text_11">
      <!-- −30 -->
      <g transform="translate(74.999313 278.119219) scale(0.1 -0.1)">
       <use xlink:href="#DejaVuSans-2212"/>
       <use xlink:href="#DejaVuSans-33" x="83.789062"/>
       <use xlink:href="#DejaVuSans-30" x="147.412109"/>
      </g>
     </g>
    </g>
    <g id="ytick_3">
     <g id="line2d_12">
      <g>
       <use xlink:href="#me197bc40cf" x="103.104" y="241.056" style="stroke: #000000; stroke-width: 0.8"/>
      </g>
     </g>
     <g id="text_12">
      <!-- −20 -->
      <g transform="translate(74.999313 244.855219) scale(0.1 -0.1)">
       <use xlink:href="#DejaVuSans-2212"/>
       <use xlink:href="#DejaVuSans-32" x="83.789062"/>
       <use xlink:href="#DejaVuSans-30" x="147.412109"/>
      </g>
     </g>
    </g>
    <g id="ytick_4">
     <g id="line2d_13">
      <g>
       <use xlink:href="#me197bc40cf" x="103.104" y="207.792" style="stroke: #000000; stroke-width: 0.8"/>
      </g>
     </g>
     <g id="text_13">
      <!-- −10 -->
      <g transform="translate(74.999313 211.591219) scale(0.1 -0.1)">
       <use xlink:href="#DejaVuSans-2212"/>
       <use xlink:href="#DejaVuSans-31" x="83.789062"/>
       <use xlink:href="#DejaVuSans-30" x="147.412109"/>
      </g>
     </g>
    </g>
    <g id="ytick_5">
     <g id="line2d_14">
      <g>
       <use xlink:href="#me197bc40cf" x="103.104" y="174.528" style="stroke: #000000; stroke-width: 0.8"/>
      </g>
     </g>
     <g id="text_14">
      <!-- 0 -->
      <g transform="translate(89.7415 178.327219) scale(0.1 -0.1)">
       <use xlink:href="#DejaVuSans-30"/>
      </g>
     </g>
    </g>
    <g id="ytick_6">
     <g id="line2d_15">
      <g>
       <use xlink:href="#me197bc40cf" x="103.104" y="141.264" style="stroke: #000000; stroke-width: 0.8"/>
      </g>
     </g>
     <g id="text_15">
      <!-- 10 -->
      <g transform="translate(83.379 145.063219) scale(0.1 -0.1)">
       <use xlink:href="#DejaVuSans-31"/>
       <use xlink:href="#DejaVuSans-30" x="63.623047"/>
      </g>
     </g>
    </g>
    <g id="ytick_7">
     <g id="line2d_16">
      <g>
       <use xlink:href="#me197bc40cf" x="103.104" y="108" style="stroke: #000000; stroke-width: 0.8"/>
      </g>
     </g>
     <g id="text_16">
      <!-- 20 -->
      <g transform="translate(83.379 111.799219) scale(0.1 -0.1)">
       <use xlink:href="#DejaVuSans-32"/>
       <use xlink:href="#DejaVuSans-30" x="63.623047"/>
      </g>
     </g>
    </g>
    <g id="ytick_8">
     <g id="line2d_17">
      <g>
       <use xlink:href="#me197bc40cf" x="103.104" y="74.736" style="stroke: #000000; stroke-width: 0.8"/>
      </g>
     </g>
     <g id="text_17">
      <!-- 30 -->
      <g transform="translate(83.379 78.535219) scale(0.1 -0.1)">
       <use xlink:href="#DejaVuSans-33"/>
       <use xlink:href="#DejaVuSans-30" x="63.623047"/>
      </g>
     </g>
    </g>
    <g id="ytick_9">
     <g id="line2d_18">
      <g>
       <use xlink:href="#me197bc40cf" x="103.104" y="41.472" style="stroke: #000000; stroke-width: 0.8"/>
      </g>
     </g>
     <g id="text_18">
      <!-- 40 -->
      <g transform="translate(83.379 45.271219) scale(0.1 -0.1)">
       <use xlink:href="#DejaVuSans-34"/>
       <use xlink:href="#DejaVuSans-30" x="63.623047"/>
      </g>
     </g>
    </g>
   </g>
   <g id="line2d_19">
    <path d="M 249.4656 287.6256 
L 249.4656 187.8336 
" clip-path="url(#p85a573176a)" style="fill: none; stroke: #000000; stroke-width: 0.25; stroke-linecap: square"/>
   </g>
   <g id="line2d_20">
    <path d="M 249.4656 187.8336 
L 349.2576 187.8336 
" clip-path="url(#p85a573176a)" style="fill: none; stroke: #000000; stroke-width: 0.25; stroke-linecap: square"/>
   </g>
   <g id="line2d_21">
    <path d="M 349.2576 161.2224 
L 249.4656 161.2224 
" clip-path="url(#p85a573176a)" style="fill: none; stroke: #000000; stroke-width: 0.25; stroke-linecap: square"/>
   </g>
   <g id="line2d_22">
    <path d="M 249.4656 161.2224 
L 249.4656 61.4304 
" clip-path="url(#p85a573176a)" style="fill: none; stroke: #000000; stroke-width: 0.25; stroke-linecap: square"/>
   </g>
   <g id="line2d_23">
    <path d="M 222.8544 61.4304 
L 222.8544 161.2224 
" clip-path="url(#p85a573176a)" style="fill: none; stroke: #000000; stroke-width: 0.25; stroke-linecap: square"/>
   </g>
   <g id="line2d_24">
    <path d="M 222.8544 161.2224 
L 123.0624 161.2224 
" clip-path="url(#p85a573176a)" style="fill: none; stroke: #000000; stroke-width: 0.25; stroke-linecap: square"/>
   </g>
   <g id="line2d_25">
    <path d="M 123.0624 187.8336 
L 222.8544 187.8336 
" clip-path="url(#p85a573176a)" style="fill: none; stroke: #000000; stroke-width: 0.25; stroke-linecap: square"/>
   </g>
   <g id="line2d_26">
    <path d="M 222.8544 187.8336 
L 222.8544 287.6256 
" clip-path="url(#p85a573176a)" style="fill: none; stroke: #000000; stroke-width: 0.25; stroke-linecap: square"/>
   </g>
   <g id="line2d_27">
    <path d="M 249.4656 174.528 
L 349.2576 174.528 
" clip-path="url(#p85a573176a)" style="fill: none; stroke-dasharray: 0.925,0.4; stroke-dashoffset: 0; stroke: #000000; stroke-width: 0.25"/>
   </g>
   <g id="line2d_28">
    <path d="M 236.16 161.2224 
L 236.16 61.4304 
" clip-path="url(#p85a573176a)" style="fill: none; stroke-dasharray: 0.925,0.4; stroke-dashoffset: 0; stroke: #000000; stroke-width: 0.25"/>
   </g>
   <g id="line2d_29">
    <path d="M 222.8544 174.528 
L 123.0624 174.528 
" clip-path="url(#p85a573176a)" style="fill: none; stroke-dasharray: 0.925,0.4; stroke-dashoffset: 0; stroke: #000000; stroke-width: 0.25"/>
   </g>
   <g id="line2d_30">
    <path d="M 236.16 187.8336 
L 236.16 287.6256 
" clip-path="url(#p85a573176a)" style="fill: none; stroke-dasharray: 0.925,0.4; stroke-dashoffset: 0; stroke: #000000; stroke-width: 0.25"/>
   </g>
   <g id="line2d_31">
    <path d="M 108.282773 169.016638 
L 106.755125 169.016639 
L 105.227495 169.016639 
L 103.699879 169.01664 
L 102.172277 169.01664 
L 100.644685 169.01664 
L 99.117101 169.01664 
L 97.589524 169.01664 
L 96.061952 169.01664 
L 94.534385 169.01664 
L 93.00682 169.01664 
L 91.479256 169.01664 
L 89.951694 169.01664 
L 88.424131 169.01664 
L 86.896568 169.01664 
L 85.369003 169.01664 
L 83.841438 169.01664 
L 82.31387 169.01664 
L 80.786301 169.01664 
L 79.25873 169.01664 
L 77.731156 169.01664 
L 76.203581 169.01664 
L 74.676004 169.01664 
L 73.148425 169.01664 
L 71.620845 169.01664 
L 70.093263 169.01664 
L 68.565679 169.01664 
L 67.038095 169.01664 
L 65.51051 169.01664 
L 63.982925 169.01664 
L 62.455339 169.01664 
" clip-path="url(#p85a573176a)" style="fill: none; stroke: #ff0000; stroke-opacity: 0.25; stroke-width: 0.25; stroke-linecap: square"/>
   </g>
   <g id="line2d_32">
    <path d="M 108.282773 169.016638 
L 106.755125 169.016639 
L 105.227495 169.016639 
L 103.699879 169.01664 
L 102.172277 169.01664 
L 100.644685 169.01664 
L 99.117101 169.01664 
L 97.589524 169.01664 
L 96.061953 169.01664 
L 94.534385 169.01664 
L 93.006821 169.01664 
L 91.479257 169.01664 
L 89.951695 169.01664 
L 88.424133 169.01664 
L 86.89657 169.01664 
L 85.369007 169.01664 
L 83.841442 169.01664 
L 82.313875 169.01664 
L 80.786307 169.01664 
L 79.258737 169.01664 
L 77.731165 169.01664 
L 76.203591 169.01664 
L 74.676016 169.01664 
L 73.148439 169.01664 
L 71.62086 169.01664 
L 70.09328 169.01664 
L 68.565699 169.01664 
L 67.038118 169.01664 
L 65.510536 169.01664 
L 63.982953 169.01664 
L 62.45537 169.01664 
" clip-path="url(#p85a573176a)" style="fill: none; stroke: #ff0000; stroke-opacity: 0.5; stroke-width: 0.25; stroke-linecap: square"/>
   </g>
   <g id="line2d_33">
    <path d="M 108.282773 169.016638 
L 106.755125 169.016639 
L 105.227495 169.016639 
L 103.699879 169.01664 
L 102.172277 169.01664 
L 100.644684 169.01664 
L 99.117101 169.01664 
L 97.589524 169.01664 
L 96.061952 169.01664 
L 94.534385 169.01664 
L 93.00682 169.01664 
L 91.479256 169.01664 
L 89.951694 169.01664 
L 88.424131 169.01664 
L 86.896568 169.01664 
L 85.369004 169.01664 
L 83.841439 169.01664 
L 82.313872 169.01664 
L 80.786303 169.01664 
L 79.258732 169.01664 
L 77.731159 169.01664 
L 76.203585 169.01664 
L 74.676008 169.01664 
L 73.14843 169.01664 
L 71.62085 169.01664 
L 70.093269 169.01664 
L 68.565687 169.01664 
L 67.038104 169.01664 
L 65.510521 169.01664 
L 63.982937 169.01664 
L 62.455352 169.01664 
" clip-path="url(#p85a573176a)" style="fill: none; stroke: #ff0000; stroke-opacity: 0.75; stroke-width: 0.25; stroke-linecap: square"/>
   </g>
   <g id="line2d_34">
    <path d="M 108.282773 169.016638 
L 106.755125 169.016639 
L 105.227495 169.016639 
L 103.699879 169.01664 
L 102.172277 169.01664 
L 100.644685 169.01664 
L 99.117101 169.01664 
L 97.589524 169.01664 
L 96.061953 169.01664 
L 94.534385 169.01664 
L 93.00682 169.01664 
L 91.479257 169.01664 
L 89.951695 169.01664 
L 88.424132 169.01664 
L 86.89657 169.01664 
L 85.369006 169.01664 
L 83.841441 169.01664 
L 82.313874 169.01664 
L 80.786305 169.01664 
L 79.258735 169.01664 
L 77.731163 169.01664 
L 76.203589 169.01664 
L 74.676013 169.01664 
L 73.148435 169.01664 
L 71.620856 169.01664 
L 70.093276 169.01664 
L 68.565695 169.01664 
L 67.038112 169.01664 
L 65.51053 169.01664 
L 63.982946 169.01664 
L 62.455363 169.01664 
" clip-path="url(#p85a573176a)" style="fill: none; stroke: #ff0000; stroke-width: 0.25; stroke-linecap: square"/>
   </g>
   <g id="line2d_35">
    <path d="M 241.671359 42.598712 
L 241.671359 41.186639 
L 241.671359 39.774554 
L 241.671359 38.362457 
L 241.67136 36.950349 
L 241.67136 35.538232 
L 241.67136 34.126105 
L 241.67136 32.71397 
L 241.67136 31.301826 
L 241.67136 29.889676 
L 241.67136 28.477519 
L 241.67136 27.065356 
L 241.67136 25.653188 
L 241.67136 24.241016 
L 241.67136 22.828839 
L 241.67136 21.416659 
L 241.67136 20.004477 
L 241.67136 18.592291 
L 241.67136 17.180104 
L 241.67136 15.767914 
L 241.67136 14.355724 
L 241.67136 12.943532 
L 241.67136 11.531339 
L 241.67136 10.119145 
L 241.67136 8.706951 
L 241.67136 7.294756 
L 241.67136 5.882561 
L 241.67136 4.470366 
L 241.67136 3.058171 
L 241.67136 1.645975 
L 241.67136 0.233779 
" clip-path="url(#p85a573176a)" style="fill: none; stroke: #ff0000; stroke-opacity: 0.25; stroke-width: 0.25; stroke-linecap: square"/>
   </g>
   <g id="line2d_36">
    <path d="M 241.671359 42.598712 
L 241.671359 41.186639 
L 241.671359 39.774554 
L 241.671359 38.362457 
L 241.67136 36.950349 
L 241.67136 35.538232 
L 241.67136 34.126105 
L 241.67136 32.713969 
L 241.67136 31.301826 
L 241.67136 29.889675 
L 241.67136 28.477518 
L 241.67136 27.065355 
L 241.67136 25.653187 
L 241.67136 24.241014 
L 241.67136 22.828838 
L 241.67136 21.416658 
L 241.67136 20.004475 
L 241.67136 18.592289 
L 241.67136 17.180101 
L 241.67136 15.767912 
L 241.67136 14.355721 
L 241.67136 12.943528 
L 241.67136 11.531335 
L 241.67136 10.119141 
L 241.67136 8.706946 
L 241.67136 7.294751 
L 241.67136 5.882556 
L 241.67136 4.47036 
L 241.67136 3.058164 
L 241.67136 1.645968 
L 241.67136 0.233772 
" clip-path="url(#p85a573176a)" style="fill: none; stroke: #ff0000; stroke-opacity: 0.5; stroke-width: 0.25; stroke-linecap: square"/>
   </g>
   <g id="line2d_37">
    <path d="M 241.671359 42.598712 
L 241.671359 41.186639 
L 241.671359 39.774554 
L 241.671359 38.362457 
L 241.671359 36.950349 
L 241.67136 35.538232 
L 241.67136 34.126105 
L 241.67136 32.713969 
L 241.67136 31.301826 
L 241.67136 29.889675 
L 241.67136 28.477518 
L 241.67136 27.065356 
L 241.67136 25.653188 
L 241.67136 24.241015 
L 241.67136 22.828839 
L 241.67136 21.416659 
L 241.67136 20.004476 
L 241.67136 18.59229 
L 241.67136 17.180103 
L 241.67136 15.767913 
L 241.67136 14.355722 
L 241.67136 12.94353 
L 241.67136 11.531337 
L 241.67136 10.119144 
L 241.67136 8.706949 
L 241.67136 7.294754 
L 241.67136 5.882559 
L 241.67136 4.470364 
L 241.67136 3.058168 
L 241.67136 1.645972 
L 241.67136 0.233777 
" clip-path="url(#p85a573176a)" style="fill: none; stroke: #ff0000; stroke-opacity: 0.75; stroke-width: 0.25; stroke-linecap: square"/>
   </g>
   <g id="line2d_38">
    <path d="M 241.671359 42.598712 
L 241.671359 41.186639 
L 241.671359 39.774554 
L 241.671359 38.362457 
L 241.671359 36.950349 
L 241.67136 35.538232 
L 241.67136 34.126105 
L 241.67136 32.713969 
L 241.67136 31.301826 
L 241.67136 29.889675 
L 241.67136 28.477518 
L 241.67136 27.065355 
L 241.67136 25.653187 
L 241.67136 24.241015 
L 241.67136 22.828838 
L 241.67136 21.416658 
L 241.67136 20.004475 
L 241.67136 18.59229 
L 241.67136 17.180102 
L 241.67136 15.767912 
L 241.67136 14.355721 
L 241.67136 12.943529 
L 241.67136 11.531336 
L 241.67136 10.119142 
L 241.67136 8.706948 
L 241.67136 7.294753 
L 241.67136 5.882557 
L 241.67136 4.470362 
L 241.67136 3.058166 
L 241.67136 1.64597 
L 241.67136 0.233774 
" clip-path="url(#p85a573176a)" style="fill: none; stroke: #ff0000; stroke-width: 0.25; stroke-linecap: square"/>
   </g>
   <g id="line2d_39">
    <path d="M 230.64864 302.439676 
L 230.64864 303.947631 
L 230.64864 305.455582 
L 230.64864 306.963528 
L 230.64864 308.471472 
L 230.64864 309.979414 
L 230.64864 311.487354 
L 230.64864 312.995294 
L 230.64864 314.503233 
L 230.64864 316.011173 
L 230.64864 317.519113 
L 230.64864 319.027055 
L 230.64864 320.534997 
L 230.64864 322.042941 
L 230.64864 323.550886 
L 230.64864 325.058832 
L 230.64864 326.56678 
L 230.64864 328.074729 
L 230.64864 329.58268 
L 230.64864 331.090632 
L 230.64864 332.598586 
L 230.64864 334.106541 
L 230.64864 335.614497 
L 230.64864 337.122454 
L 230.64864 338.630412 
L 230.64864 340.13837 
L 230.64864 341.646329 
L 230.64864 343.154289 
L 230.64864 344.662249 
L 230.64864 346.17021 
L 230.64864 346.6 
" clip-path="url(#p85a573176a)" style="fill: none; stroke: #ff0000; stroke-opacity: 0.25; stroke-width: 0.25; stroke-linecap: square"/>
   </g>
   <g id="line2d_40">
    <path d="M 230.64864 302.439676 
L 230.64864 303.947631 
L 230.64864 305.455582 
L 230.64864 306.963528 
L 230.64864 308.471472 
L 230.64864 309.979413 
L 230.64864 311.487354 
L 230.64864 312.995294 
L 230.64864 314.503233 
L 230.64864 316.011173 
L 230.64864 317.519113 
L 230.64864 319.027054 
L 230.64864 320.534997 
L 230.64864 322.04294 
L 230.64864 323.550885 
L 230.64864 325.058831 
L 230.64864 326.566779 
L 230.64864 328.074728 
L 230.64864 329.582678 
L 230.64864 331.09063 
L 230.64864 332.598583 
L 230.64864 334.106537 
L 230.64864 335.614492 
L 230.64864 337.122449 
L 230.64864 338.630406 
L 230.64864 340.138363 
L 230.64864 341.646322 
L 230.64864 343.154281 
L 230.64864 344.66224 
L 230.64864 346.170199 
L 230.64864 346.6 
" clip-path="url(#p85a573176a)" style="fill: none; stroke: #ff0000; stroke-opacity: 0.5; stroke-width: 0.25; stroke-linecap: square"/>
   </g>
   <g id="line2d_41">
    <path d="M 230.64864 302.439676 
L 230.64864 303.947631 
L 230.64864 305.455582 
L 230.64864 306.963528 
L 230.64864 308.471472 
L 230.64864 309.979414 
L 230.64864 311.487354 
L 230.64864 312.995294 
L 230.64864 314.503233 
L 230.64864 316.011173 
L 230.64864 317.519114 
L 230.64864 319.027055 
L 230.64864 320.534997 
L 230.64864 322.042941 
L 230.64864 323.550886 
L 230.64864 325.058832 
L 230.64864 326.56678 
L 230.64864 328.074729 
L 230.64864 329.58268 
L 230.64864 331.090632 
L 230.64864 332.598585 
L 230.64864 334.10654 
L 230.64864 335.614495 
L 230.64864 337.122452 
L 230.64864 338.630409 
L 230.64864 340.138368 
L 230.64864 341.646326 
L 230.64864 343.154286 
L 230.64864 344.662245 
L 230.64864 346.170205 
L 230.64864 346.6 
" clip-path="url(#p85a573176a)" style="fill: none; stroke: #ff0000; stroke-opacity: 0.75; stroke-width: 0.25; stroke-linecap: square"/>
   </g>
   <g id="line2d_42">
    <path d="M 230.64864 302.439676 
L 230.64864 303.947631 
L 230.64864 305.455582 
L 230.64864 306.963528 
L 230.64864 308.471472 
L 230.64864 309.979414 
L 230.64864 311.487354 
L 230.64864 312.995294 
L 230.64864 314.503233 
L 230.64864 316.011173 
L 230.64864 317.519113 
L 230.64864 319.027054 
L 230.64864 320.534997 
L 230.64864 322.04294 
L 230.64864 323.550885 
L 230.64864 325.058831 
L 230.64864 326.566779 
L 230.64864 328.074728 
L 230.64864 329.582679 
L 230.64864 331.090631 
L 230.64864 332.598584 
L 230.64864 334.106538 
L 230.64864 335.614493 
L 230.64864 337.12245 
L 230.64864 338.630407 
L 230.64864 340.138365 
L 230.64864 341.646324 
L 230.64864 343.154283 
L 230.64864 344.662242 
L 230.64864 346.170202 
L 230.64864 346.6 
" clip-path="url(#p85a573176a)" style="fill: none; stroke: #ff0000; stroke-width: 0.25; stroke-linecap: square"/>
   </g>
   <g id="line2d_43">
    <path d="M 364.071879 180.039361 
L 365.579845 180.039361 
L 367.087801 180.03936 
L 368.59575 180.03936 
L 370.103693 180.03936 
L 371.61163 180.03936 
L 373.119565 180.03936 
L 374.627496 180.03936 
L 376.135427 180.03936 
L 377.643356 180.03936 
L 379.151285 180.03936 
L 380.659214 180.03936 
L 382.167145 180.03936 
L 383.675076 180.03936 
L 385.183009 180.03936 
L 386.690944 180.03936 
L 388.19888 180.03936 
L 389.706819 180.03936 
L 391.214759 180.03936 
L 392.722701 180.03936 
L 394.230645 180.03936 
L 395.73859 180.03936 
L 397.246538 180.03936 
L 398.754486 180.03936 
L 400.262436 180.03936 
L 401.770387 180.03936 
L 403.27834 180.03936 
L 404.786292 180.03936 
L 406.294246 180.03936 
L 407.8022 180.03936 
L 409.310154 180.03936 
" clip-path="url(#p85a573176a)" style="fill: none; stroke: #ff0000; stroke-opacity: 0.25; stroke-width: 0.25; stroke-linecap: square"/>
   </g>
   <g id="line2d_44">
    <path d="M 364.071879 180.039361 
L 365.579845 180.039361 
L 367.087801 180.03936 
L 368.59575 180.03936 
L 370.103693 180.03936 
L 371.61163 180.03936 
L 373.119565 180.03936 
L 374.627496 180.03936 
L 376.135426 180.03936 
L 377.643356 180.03936 
L 379.151285 180.03936 
L 380.659214 180.03936 
L 382.167144 180.03936 
L 383.675075 180.03936 
L 385.183008 180.03936 
L 386.690942 180.03936 
L 388.198878 180.03936 
L 389.706816 180.03936 
L 391.214755 180.03936 
L 392.722697 180.03936 
L 394.23064 180.03936 
L 395.738584 180.03936 
L 397.24653 180.03936 
L 398.754478 180.03936 
L 400.262427 180.03936 
L 401.770376 180.03936 
L 403.278327 180.03936 
L 404.786278 180.03936 
L 406.29423 180.03936 
L 407.802181 180.03936 
L 409.310133 180.03936 
" clip-path="url(#p85a573176a)" style="fill: none; stroke: #ff0000; stroke-opacity: 0.5; stroke-width: 0.25; stroke-linecap: square"/>
   </g>
   <g id="line2d_45">
    <path d="M 364.071879 180.039361 
L 365.579845 180.039361 
L 367.087801 180.03936 
L 368.59575 180.03936 
L 370.103693 180.03936 
L 371.61163 180.03936 
L 373.119565 180.03936 
L 374.627497 180.03936 
L 376.135427 180.03936 
L 377.643356 180.03936 
L 379.151285 180.03936 
L 380.659214 180.03936 
L 382.167145 180.03936 
L 383.675076 180.03936 
L 385.183009 180.03936 
L 386.690943 180.03936 
L 388.19888 180.03936 
L 389.706818 180.03936 
L 391.214758 180.03936 
L 392.7227 180.03936 
L 394.230643 180.03936 
L 395.738588 180.03936 
L 397.246535 180.03936 
L 398.754483 180.03936 
L 400.262433 180.03936 
L 401.770383 180.03936 
L 403.278334 180.03936 
L 404.786287 180.03936 
L 406.294239 180.03936 
L 407.802192 180.03936 
L 409.310145 180.03936 
" clip-path="url(#p85a573176a)" style="fill: none; stroke: #ff0000; stroke-opacity: 0.75; stroke-width: 0.25; stroke-linecap: square"/>
   </g>
   <g id="line2d_46">
    <path d="M 364.071879 180.039361 
L 365.579845 180.039361 
L 367.087801 180.03936 
L 368.59575 180.03936 
L 370.103693 180.03936 
L 371.61163 180.03936 
L 373.119565 180.03936 
L 374.627496 180.03936 
L 376.135426 180.03936 
L 377.643356 180.03936 
L 379.151285 180.03936 
L 380.659214 180.03936 
L 382.167144 180.03936 
L 383.675075 180.03936 
L 385.183008 180.03936 
L 386.690942 180.03936 
L 388.198878 180.03936 
L 389.706816 180.03936 
L 391.214756 180.03936 
L 392.722698 180.03936 
L 394.230641 180.03936 
L 395.738586 180.03936 
L 397.246532 180.03936 
L 398.75448 180.03936 
L 400.262429 180.03936 
L 401.770379 180.03936 
L 403.27833 180.03936 
L 404.786281 180.03936 
L 406.294233 180.03936 
L 407.802186 180.03936 
L 409.310138 180.03936 
" clip-path="url(#p85a573176a)" style="fill: none; stroke: #ff0000; stroke-width: 0.25; stroke-linecap: square"/>
   </g>
   <g id="line2d_47">
    <path d="M 241.671397 79.813981 
L 241.671391 78.302455 
L 241.671384 76.791241 
L 241.671378 75.280335 
L 241.671373 73.769728 
L 241.671369 72.259411 
L 241.671366 70.749368 
L 241.671363 69.239586 
L 241.671361 67.730049 
L 241.67136 66.220739 
L 241.671359 64.711639 
L 241.671358 63.202732 
L 241.671357 61.694001 
L 241.671357 60.185429 
L 241.671357 58.677 
L 241.671357 57.168699 
L 241.671357 55.66051 
L 241.671357 54.152421 
L 241.671357 52.644419 
L 241.671357 51.136492 
L 241.671357 49.628629 
L 241.671357 48.12082 
L 241.671358 46.613057 
L 241.671358 45.105333 
L 241.671358 43.597639 
L 241.671358 42.08997 
L 241.671358 40.582321 
L 241.671358 39.074687 
L 241.671358 37.567063 
L 241.671359 36.059447 
L 241.671359 34.551835 
" clip-path="url(#p85a573176a)" style="fill: none; stroke: #ff0000; stroke-opacity: 0.25; stroke-width: 0.25; stroke-linecap: square"/>
   </g>
   <g id="line2d_48">
    <path d="M 241.671397 79.813981 
L 241.671393 78.302455 
L 241.671386 76.791241 
L 241.671379 75.280336 
L 241.671374 73.769731 
L 241.67137 72.259415 
L 241.671366 70.749374 
L 241.671363 69.239595 
L 241.671361 67.73006 
L 241.67136 66.220753 
L 241.671359 64.711657 
L 241.671358 63.202753 
L 241.671357 61.694026 
L 241.671357 60.185459 
L 241.671357 58.677034 
L 241.671357 57.168737 
L 241.671357 55.660553 
L 241.671357 54.152469 
L 241.671357 52.64447 
L 241.671357 51.136547 
L 241.671357 49.628688 
L 241.671357 48.120883 
L 241.671358 46.613123 
L 241.671358 45.1054 
L 241.671358 43.597707 
L 241.671358 42.090039 
L 241.671358 40.582389 
L 241.671359 39.074752 
L 241.671359 37.567125 
L 241.671359 36.059503 
L 241.67136 34.551883 
" clip-path="url(#p85a573176a)" style="fill: none; stroke: #ff0000; stroke-opacity: 0.5; stroke-width: 0.25; stroke-linecap: square"/>
   </g>
   <g id="line2d_49">
    <path d="M 241.671397 79.813981 
L 241.671395 78.302455 
L 241.671387 76.791241 
L 241.67138 75.280335 
L 241.671375 73.76973 
L 241.67137 72.259413 
L 241.671366 70.749371 
L 241.671364 69.239591 
L 241.671361 67.730055 
L 241.67136 66.220746 
L 241.671359 64.711648 
L 241.671358 63.202743 
L 241.671357 61.694014 
L 241.671357 60.185444 
L 241.671357 58.677017 
L 241.671357 57.168718 
L 241.671357 55.660531 
L 241.671357 54.152444 
L 241.671357 52.644444 
L 241.671357 51.136519 
L 241.671357 49.628657 
L 241.671357 48.12085 
L 241.671358 46.613088 
L 241.671358 45.105364 
L 241.671358 43.597671 
L 241.671358 42.090002 
L 241.671358 40.582352 
L 241.671358 39.074716 
L 241.671359 37.567089 
L 241.671359 36.05947 
L 241.67136 34.551853 
" clip-path="url(#p85a573176a)" style="fill: none; stroke: #ff0000; stroke-opacity: 0.75; stroke-width: 0.25; stroke-linecap: square"/>
   </g>
   <g id="line2d_50">
    <path d="M 241.671397 79.813981 
L 241.671396 78.302455 
L 241.671388 76.791241 
L 241.671381 75.280336 
L 241.671375 73.76973 
L 241.67137 72.259414 
L 241.671367 70.749373 
L 241.671364 69.239593 
L 241.671361 67.730057 
L 241.67136 66.22075 
L 241.671358 64.711652 
L 241.671358 63.202748 
L 241.671357 61.69402 
L 241.671357 60.185451 
L 241.671357 58.677026 
L 241.671357 57.168728 
L 241.671357 55.660543 
L 241.671357 54.152457 
L 241.671357 52.644458 
L 241.671357 51.136534 
L 241.671357 49.628673 
L 241.671357 48.120867 
L 241.671358 46.613107 
L 241.671358 45.105383 
L 241.671358 43.597691 
L 241.671358 42.090022 
L 241.671358 40.582372 
L 241.671358 39.074736 
L 241.671359 37.56711 
L 241.671359 36.059489 
L 241.67136 34.551872 
" clip-path="url(#p85a573176a)" style="fill: none; stroke: #ff0000; stroke-width: 0.25; stroke-linecap: square"/>
   </g>
   <g id="line2d_51">
    <path d="M 141.430333 169.016627 
L 139.92124 169.016629 
L 138.412257 169.016632 
L 136.903378 169.016634 
L 135.3946 169.016636 
L 133.885918 169.016637 
L 132.377328 169.016638 
L 130.868822 169.016639 
L 129.360395 169.01664 
L 127.852041 169.01664 
L 126.343754 169.016641 
L 124.835527 169.016641 
L 123.327355 169.016641 
L 121.819233 169.016641 
L 120.311154 169.016641 
L 118.803114 169.016641 
L 117.295108 169.016641 
L 115.787131 169.016641 
L 114.27918 169.016641 
L 112.771251 169.016641 
L 111.263341 169.016641 
L 109.755446 169.016641 
L 108.247563 169.016641 
L 106.739692 169.016641 
L 105.231829 169.016641 
L 103.723972 169.016641 
L 102.216121 169.016641 
L 100.708274 169.016641 
L 99.20043 169.01664 
L 97.692587 169.01664 
L 96.184746 169.01664 
" clip-path="url(#p85a573176a)" style="fill: none; stroke: #ff0000; stroke-opacity: 0.25; stroke-width: 0.25; stroke-linecap: square"/>
   </g>
   <g id="line2d_52">
    <path d="M 141.430333 169.016627 
L 139.92124 169.016629 
L 138.412257 169.016631 
L 136.903378 169.016634 
L 135.394601 169.016636 
L 133.88592 169.016637 
L 132.37733 169.016638 
L 130.868824 169.016639 
L 129.360399 169.01664 
L 127.852046 169.01664 
L 126.34376 169.016641 
L 124.835534 169.016641 
L 123.327364 169.016641 
L 121.819243 169.016641 
L 120.311166 169.016641 
L 118.803128 169.016641 
L 117.295124 169.016641 
L 115.787149 169.016641 
L 114.2792 169.016641 
L 112.771273 169.016641 
L 111.263365 169.016641 
L 109.755471 169.016641 
L 108.247591 169.016641 
L 106.739721 169.016641 
L 105.23186 169.016641 
L 103.724005 169.016641 
L 102.216155 169.016641 
L 100.708309 169.01664 
L 99.200465 169.01664 
L 97.692623 169.01664 
L 96.184781 169.01664 
" clip-path="url(#p85a573176a)" style="fill: none; stroke: #ff0000; stroke-opacity: 0.5; stroke-width: 0.25; stroke-linecap: square"/>
   </g>
   <g id="line2d_53">
    <path d="M 141.430333 169.016627 
L 139.92124 169.016628 
L 138.412257 169.016631 
L 136.903378 169.016633 
L 135.3946 169.016635 
L 133.885919 169.016637 
L 132.377328 169.016638 
L 130.868823 169.016639 
L 129.360397 169.01664 
L 127.852043 169.01664 
L 126.343756 169.016641 
L 124.83553 169.016641 
L 123.327359 169.016641 
L 121.819238 169.016641 
L 120.31116 169.016641 
L 118.80312 169.016641 
L 117.295115 169.016641 
L 115.787139 169.016641 
L 114.279189 169.016641 
L 112.771261 169.016641 
L 111.263351 169.016641 
L 109.755457 169.016641 
L 108.247576 169.016641 
L 106.739705 169.016641 
L 105.231842 169.016641 
L 103.723987 169.016641 
L 102.216136 169.016641 
L 100.708289 169.01664 
L 99.200445 169.01664 
L 97.692602 169.01664 
L 96.18476 169.01664 
" clip-path="url(#p85a573176a)" style="fill: none; stroke: #ff0000; stroke-opacity: 0.75; stroke-width: 0.25; stroke-linecap: square"/>
   </g>
   <g id="line2d_54">
    <path d="M 141.430333 169.016627 
L 139.92124 169.016628 
L 138.412257 169.016631 
L 136.903378 169.016633 
L 135.394601 169.016635 
L 133.885919 169.016637 
L 132.377329 169.016638 
L 130.868824 169.016639 
L 129.360398 169.01664 
L 127.852044 169.01664 
L 126.343758 169.016641 
L 124.835533 169.016641 
L 123.327362 169.016641 
L 121.819241 169.016641 
L 120.311163 169.016641 
L 118.803124 169.016641 
L 117.29512 169.016641 
L 115.787145 169.016641 
L 114.279195 169.016641 
L 112.771268 169.016641 
L 111.263359 169.016641 
L 109.755465 169.016641 
L 108.247584 169.016641 
L 106.739714 169.016641 
L 105.231852 169.016641 
L 103.723997 169.016641 
L 102.216147 169.016641 
L 100.708301 169.01664 
L 99.200457 169.01664 
L 97.692614 169.01664 
L 96.184773 169.01664 
" clip-path="url(#p85a573176a)" style="fill: none; stroke: #ff0000; stroke-width: 0.25; stroke-linecap: square"/>
   </g>
   <g id="line2d_55">
    <path d="M 330.407486 180.039389 
L 331.938201 180.039385 
L 333.468677 180.03938 
L 334.998911 180.039375 
L 336.528905 180.039371 
L 338.058665 180.039368 
L 339.588198 180.039366 
L 341.117513 180.039364 
L 342.646621 180.039362 
L 344.175534 180.039361 
L 345.704265 180.03936 
L 347.232826 180.039359 
L 348.761232 180.039359 
L 350.289495 180.039358 
L 351.817629 180.039358 
L 353.345645 180.039358 
L 354.873557 180.039358 
L 356.401376 180.039358 
L 357.929113 180.039358 
L 359.456779 180.039358 
L 360.984382 180.039358 
L 362.511931 180.039358 
L 364.039435 180.039358 
L 365.566901 180.039358 
L 367.094336 180.039358 
L 368.621744 180.039358 
L 370.149133 180.039358 
L 371.676506 180.039358 
L 373.203867 180.039358 
L 374.731221 180.039359 
L 376.258571 180.039359 
" clip-path="url(#p85a573176a)" style="fill: none; stroke: #ff0000; stroke-opacity: 0.25; stroke-width: 0.25; stroke-linecap: square"/>
   </g>
   <g id="line2d_56">
    <path d="M 330.407486 180.039389 
L 331.938201 180.039386 
L 333.468676 180.039381 
L 334.99891 180.039376 
L 336.528903 180.039372 
L 338.058662 180.039369 
L 339.588193 180.039366 
L 341.117506 180.039364 
L 342.646612 180.039362 
L 344.175523 180.039361 
L 345.704251 180.03936 
L 347.23281 180.039359 
L 348.761213 180.039358 
L 350.289473 180.039358 
L 351.817604 180.039358 
L 353.345618 180.039358 
L 354.873528 180.039357 
L 356.401345 180.039357 
L 357.929081 180.039358 
L 359.456745 180.039358 
L 360.984348 180.039358 
L 362.511898 180.039358 
L 364.039403 180.039358 
L 365.566872 180.039358 
L 367.09431 180.039358 
L 368.621724 180.039358 
L 370.149119 180.039358 
L 371.676499 180.039359 
L 373.203871 180.039359 
L 374.731236 180.039359 
L 376.258599 180.03936 
" clip-path="url(#p85a573176a)" style="fill: none; stroke: #ff0000; stroke-opacity: 0.5; stroke-width: 0.25; stroke-linecap: square"/>
   </g>
   <g id="line2d_57">
    <path d="M 330.407486 180.039389 
L 331.938201 180.039387 
L 333.468676 180.039382 
L 334.99891 180.039377 
L 336.528904 180.039373 
L 338.058663 180.039369 
L 339.588195 180.039366 
L 341.117509 180.039364 
L 342.646616 180.039362 
L 344.175528 180.039361 
L 345.704257 180.03936 
L 347.232817 180.039359 
L 348.761221 180.039358 
L 350.289483 180.039358 
L 351.817615 180.039358 
L 353.34563 180.039358 
L 354.873541 180.039357 
L 356.401359 180.039358 
L 357.929095 180.039358 
L 359.45676 180.039358 
L 360.984363 180.039358 
L 362.511912 180.039358 
L 364.039417 180.039358 
L 365.566884 180.039358 
L 367.094321 180.039358 
L 368.621732 180.039358 
L 370.149124 180.039358 
L 371.676501 180.039358 
L 373.203868 180.039359 
L 374.731228 180.039359 
L 376.258585 180.03936 
" clip-path="url(#p85a573176a)" style="fill: none; stroke: #ff0000; stroke-opacity: 0.75; stroke-width: 0.25; stroke-linecap: square"/>
   </g>
   <g id="line2d_58">
    <path d="M 330.407486 180.039389 
L 331.938201 180.039388 
L 333.468676 180.039383 
L 334.99891 180.039377 
L 336.528904 180.039373 
L 338.058663 180.039369 
L 339.588194 180.039366 
L 341.117508 180.039364 
L 342.646614 180.039362 
L 344.175526 180.039361 
L 345.704254 180.039359 
L 347.232814 180.039359 
L 348.761218 180.039358 
L 350.289479 180.039358 
L 351.81761 180.039358 
L 353.345625 180.039357 
L 354.873535 180.039357 
L 356.401353 180.039357 
L 357.929089 180.039358 
L 359.456753 180.039358 
L 360.984356 180.039358 
L 362.511906 180.039358 
L 364.039411 180.039358 
L 365.566879 180.039358 
L 367.094316 180.039358 
L 368.621729 180.039358 
L 370.149122 180.039358 
L 371.676501 180.039358 
L 373.20387 180.039359 
L 374.731232 180.039359 
L 376.258592 180.03936 
" clip-path="url(#p85a573176a)" style="fill: none; stroke: #ff0000; stroke-width: 0.25; stroke-linecap: square"/>
   </g>
   <g id="line2d_59">
    <path d="M 241.671238 105.044403 
L 241.671263 103.746073 
L 241.671289 102.446813 
L 241.671311 101.14668 
L 241.671328 99.845734 
L 241.671341 98.544037 
L 241.671351 97.241651 
L 241.671359 95.938638 
L 241.671364 94.635057 
L 241.671367 93.330968 
L 241.67137 92.026426 
L 241.671371 90.721484 
L 241.671372 89.41619 
L 241.671372 88.110591 
L 241.671372 86.804728 
L 241.671371 85.498641 
L 241.671371 84.192365 
L 241.67137 82.88593 
L 241.671369 81.579364 
L 241.671368 80.272692 
L 241.671367 78.965934 
L 241.671366 77.65911 
L 241.671366 76.352233 
L 241.671365 75.045316 
L 241.671364 73.738371 
L 241.671363 72.431404 
L 241.671363 71.124423 
L 241.671362 69.817431 
L 241.671362 68.510434 
L 241.671361 67.203432 
L 241.671361 65.896428 
" clip-path="url(#p85a573176a)" style="fill: none; stroke: #ff0000; stroke-opacity: 0.25; stroke-width: 0.25; stroke-linecap: square"/>
   </g>
   <g id="line2d_60">
    <path d="M 241.671238 105.044403 
L 241.671256 103.746073 
L 241.671284 102.446812 
L 241.671307 101.146677 
L 241.671325 99.845728 
L 241.671339 98.544027 
L 241.67135 97.241636 
L 241.671358 95.938616 
L 241.671364 94.635028 
L 241.671368 93.330929 
L 241.67137 92.026376 
L 241.671372 90.721421 
L 241.671373 89.416112 
L 241.671373 88.110496 
L 241.671373 86.804615 
L 241.671372 85.498508 
L 241.671372 84.192208 
L 241.671371 82.885748 
L 241.67137 81.579155 
L 241.671369 80.272452 
L 241.671368 78.965663 
L 241.671367 77.658803 
L 241.671366 76.351889 
L 241.671365 75.044934 
L 241.671364 73.737948 
L 241.671363 72.43094 
L 241.671362 71.123916 
L 241.671362 69.816881 
L 241.671361 68.50984 
L 241.67136 67.202795 
L 241.67136 65.895749 
" clip-path="url(#p85a573176a)" style="fill: none; stroke: #ff0000; stroke-opacity: 0.5; stroke-width: 0.25; stroke-linecap: square"/>
   </g>
   <g id="line2d_61">
    <path d="M 241.671238 105.044403 
L 241.671251 103.746073 
L 241.67128 102.446813 
L 241.671304 101.146679 
L 241.671323 99.845732 
L 241.671338 98.544034 
L 241.671349 97.241646 
L 241.671357 95.93863 
L 241.671363 94.635048 
L 241.671368 93.330955 
L 241.671371 92.026409 
L 241.671372 90.721461 
L 241.671373 89.416162 
L 241.671373 88.110556 
L 241.671373 86.804687 
L 241.671372 85.498591 
L 241.671372 84.192306 
L 241.671371 82.88586 
L 241.67137 81.579283 
L 241.671369 80.272598 
L 241.671367 78.965827 
L 241.671366 77.658987 
L 241.671366 76.352095 
L 241.671365 75.045162 
L 241.671364 73.738199 
L 241.671363 72.431214 
L 241.671363 71.124215 
L 241.671362 69.817205 
L 241.671361 68.510188 
L 241.671361 67.203168 
L 241.67136 65.896146 
" clip-path="url(#p85a573176a)" style="fill: none; stroke: #ff0000; stroke-opacity: 0.75; stroke-width: 0.25; stroke-linecap: square"/>
   </g>
   <g id="line2d_62">
    <path d="M 241.671238 105.044403 
L 241.671246 103.746073 
L 241.671277 102.446812 
L 241.671302 101.146678 
L 241.671321 99.845729 
L 241.671337 98.544029 
L 241.671349 97.241639 
L 241.671357 95.938621 
L 241.671364 94.635035 
L 241.671368 93.330939 
L 241.671371 92.026388 
L 241.671373 90.721436 
L 241.671373 89.416131 
L 241.671374 88.110519 
L 241.671373 86.804643 
L 241.671373 85.49854 
L 241.671372 84.192246 
L 241.671371 82.885792 
L 241.67137 81.579205 
L 241.671369 80.27251 
L 241.671368 78.965728 
L 241.671367 77.658877 
L 241.671366 76.351972 
L 241.671365 75.045027 
L 241.671364 73.738051 
L 241.671363 72.431052 
L 241.671362 71.124039 
L 241.671362 69.817015 
L 241.671361 68.509984 
L 241.671361 67.20295 
L 241.67136 65.895914 
" clip-path="url(#p85a573176a)" style="fill: none; stroke: #ff0000; stroke-width: 0.25; stroke-linecap: square"/>
   </g>
   <g id="line2d_63">
    <path d="M 301.689478 180.039562 
L 303.104824 180.0395 
L 304.519993 180.039455 
L 305.93497 180.039422 
L 307.349749 180.0394 
L 308.764323 180.039384 
L 310.178692 180.039374 
L 311.592859 180.039367 
L 313.006827 180.039362 
L 314.420603 180.039359 
L 315.834195 180.039358 
L 317.247613 180.039357 
L 318.660868 180.039356 
L 320.073969 180.039356 
L 321.486928 180.039356 
L 322.899757 180.039356 
L 324.312467 180.039357 
L 325.72507 180.039357 
L 327.137576 180.039357 
L 328.549996 180.039357 
L 329.962339 180.039357 
L 331.374617 180.039357 
L 332.786837 180.039357 
L 334.199007 180.039357 
L 335.611137 180.039357 
L 337.023232 180.039357 
L 338.435301 180.039358 
L 339.847348 180.039358 
L 341.259379 180.039358 
L 342.6714 180.039358 
L 344.083414 180.039359 
" clip-path="url(#p85a573176a)" style="fill: none; stroke: #ff0000; stroke-opacity: 0.25; stroke-width: 0.25; stroke-linecap: square"/>
   </g>
   <g id="line2d_64">
    <path d="M 301.689478 180.039562 
L 303.104824 180.039501 
L 304.519992 180.039456 
L 305.934969 180.039423 
L 307.349747 180.0394 
L 308.76432 180.039384 
L 310.178688 180.039374 
L 311.592853 180.039367 
L 313.006819 180.039362 
L 314.420593 180.039359 
L 315.834184 180.039358 
L 317.247601 180.039357 
L 318.660854 180.039356 
L 320.073954 180.039356 
L 321.486913 180.039356 
L 322.899743 180.039356 
L 324.312454 180.039356 
L 325.725059 180.039357 
L 327.137568 180.039357 
L 328.549992 180.039357 
L 329.962341 180.039357 
L 331.374626 180.039357 
L 332.786855 180.039357 
L 334.199037 180.039357 
L 335.61118 180.039358 
L 337.023291 180.039358 
L 338.435377 180.039358 
L 339.847444 180.039358 
L 341.259498 180.039358 
L 342.671544 180.039359 
L 344.083586 180.03936 
" clip-path="url(#p85a573176a)" style="fill: none; stroke: #ff0000; stroke-opacity: 0.5; stroke-width: 0.25; stroke-linecap: square"/>
   </g>
   <g id="line2d_65">
    <path d="M 301.689478 180.039562 
L 303.104824 180.039502 
L 304.519993 180.039456 
L 305.93497 180.039424 
L 307.349747 180.039401 
L 308.764321 180.039385 
L 310.178689 180.039374 
L 311.592854 180.039367 
L 313.006821 180.039362 
L 314.420596 180.039359 
L 315.834187 180.039358 
L 317.247604 180.039357 
L 318.660857 180.039356 
L 320.073957 180.039356 
L 321.486915 180.039356 
L 322.899744 180.039356 
L 324.312454 180.039356 
L 325.725057 180.039357 
L 327.137564 180.039357 
L 328.549986 180.039357 
L 329.962332 180.039357 
L 331.374612 180.039357 
L 332.786836 180.039357 
L 334.199012 180.039357 
L 335.611147 180.039357 
L 337.02325 180.039358 
L 338.435327 180.039358 
L 339.847384 180.039358 
L 341.259427 180.039358 
L 342.67146 180.039359 
L 344.083489 180.039359 
" clip-path="url(#p85a573176a)" style="fill: none; stroke: #ff0000; stroke-opacity: 0.75; stroke-width: 0.25; stroke-linecap: square"/>
   </g>
   <g id="line2d_66">
    <path d="M 301.689478 180.039562 
L 303.104824 180.039503 
L 304.519993 180.039457 
L 305.93497 180.039424 
L 307.349747 180.039401 
L 308.764321 180.039385 
L 310.178689 180.039374 
L 311.592854 180.039367 
L 313.006821 180.039362 
L 314.420596 180.039359 
L 315.834187 180.039357 
L 317.247604 180.039356 
L 318.660857 180.039356 
L 320.073958 180.039356 
L 321.486917 180.039356 
L 322.899746 180.039356 
L 324.312458 180.039356 
L 325.725062 180.039357 
L 327.13757 180.039357 
L 328.549993 180.039357 
L 329.962341 180.039357 
L 331.374624 180.039357 
L 332.786851 180.039357 
L 334.19903 180.039357 
L 335.61117 180.039358 
L 337.023277 180.039358 
L 338.435358 180.039358 
L 339.847421 180.039358 
L 341.259469 180.039358 
L 342.671509 180.039359 
L 344.083545 180.03936 
" clip-path="url(#p85a573176a)" style="fill: none; stroke: #ff0000; stroke-width: 0.25; stroke-linecap: square"/>
   </g>
   <g id="line2d_67">
    <path d="M 230.648917 261.29749 
L 230.648869 263.02796 
L 230.648799 264.761809 
L 230.648742 266.498709 
L 230.648697 268.238345 
L 230.648662 269.980414 
L 230.648637 271.724629 
L 230.648619 273.47072 
L 230.648607 275.218436 
L 230.6486 276.967544 
L 230.648596 278.717832 
L 230.648595 280.469107 
L 230.648596 282.221194 
L 230.648598 283.97394 
L 230.648601 285.727207 
L 230.648604 287.480878 
L 230.648607 289.234849 
L 230.648611 290.989034 
L 230.648614 292.743361 
L 230.648618 294.497772 
L 230.648622 296.25222 
L 230.648625 298.006669 
L 230.648629 299.761095 
L 230.648632 301.51548 
L 230.648635 303.269816 
L 230.648638 305.024099 
L 230.64864 306.778333 
L 230.648642 308.532523 
L 230.648643 310.286679 
L 230.648643 312.040813 
L 230.648641 313.794936 
" clip-path="url(#p85a573176a)" style="fill: none; stroke: #ff0000; stroke-opacity: 0.25; stroke-width: 0.25; stroke-linecap: square"/>
   </g>
   <g id="line2d_68">
    <path d="M 230.648917 261.29749 
L 230.648882 263.02796 
L 230.64881 264.761807 
L 230.64875 266.498704 
L 230.648703 268.238334 
L 230.648667 269.980396 
L 230.64864 271.7246 
L 230.64862 273.470679 
L 230.648608 275.218379 
L 230.6486 276.967469 
L 230.648596 278.717734 
L 230.648594 280.468983 
L 230.648595 282.22104 
L 230.648597 283.97375 
L 230.6486 285.726977 
L 230.648603 287.480601 
L 230.648607 289.23452 
L 230.648611 290.988645 
L 230.648615 292.742906 
L 230.648619 294.497242 
L 230.648622 296.251608 
L 230.648626 298.005967 
L 230.64863 299.760294 
L 230.648633 301.514572 
L 230.648636 303.268793 
L 230.648639 305.022953 
L 230.648641 306.777057 
L 230.648643 308.53111 
L 230.648644 310.285124 
L 230.648643 312.039111 
L 230.648642 313.793083 
" clip-path="url(#p85a573176a)" style="fill: none; stroke: #ff0000; stroke-opacity: 0.5; stroke-width: 0.25; stroke-linecap: square"/>
   </g>
   <g id="line2d_69">
    <path d="M 230.648917 261.29749 
L 230.648895 263.02796 
L 230.64882 264.761809 
L 230.648758 266.498708 
L 230.648708 268.238343 
L 230.64867 269.98041 
L 230.648641 271.724622 
L 230.648621 273.47071 
L 230.648607 275.218421 
L 230.648599 276.967524 
L 230.648595 278.717805 
L 230.648593 280.469071 
L 230.648594 282.221148 
L 230.648596 283.973882 
L 230.648599 285.727134 
L 230.648603 287.480787 
L 230.648607 289.234738 
L 230.648611 290.9889 
L 230.648615 292.7432 
L 230.648618 294.497581 
L 230.648622 296.251994 
L 230.648626 298.006405 
L 230.648629 299.760789 
L 230.648633 301.515128 
L 230.648636 303.269414 
L 230.648638 305.023643 
L 230.648641 306.777819 
L 230.648642 308.531947 
L 230.648643 310.286039 
L 230.648643 312.040106 
L 230.648641 313.794161 
" clip-path="url(#p85a573176a)" style="fill: none; stroke: #ff0000; stroke-opacity: 0.75; stroke-width: 0.25; stroke-linecap: square"/>
   </g>
   <g id="line2d_70">
    <path d="M 230.648917 261.29749 
L 230.648907 263.02796 
L 230.648829 264.761808 
L 230.648764 266.498705 
L 230.648712 268.238337 
L 230.648672 269.9804 
L 230.648642 271.724608 
L 230.648621 273.470689 
L 230.648607 275.218393 
L 230.648598 276.967487 
L 230.648594 278.717758 
L 230.648592 280.469013 
L 230.648593 282.221077 
L 230.648595 283.973796 
L 230.648599 285.727033 
L 230.648603 287.480668 
L 230.648607 289.234599 
L 230.648611 290.988739 
L 230.648615 292.743016 
L 230.648619 294.49737 
L 230.648623 296.251755 
L 230.648626 298.006136 
L 230.64863 299.760487 
L 230.648633 301.514791 
L 230.648636 303.26904 
L 230.648638 305.02323 
L 230.648641 306.777365 
L 230.648643 308.531452 
L 230.648644 310.285501 
L 230.648643 312.039523 
L 230.648641 313.793533 
" clip-path="url(#p85a573176a)" style="fill: none; stroke: #ff0000; stroke-width: 0.25; stroke-linecap: square"/>
   </g>
   <g id="line2d_71">
    <path d="M 170.629103 169.016313 
L 169.213478 169.016413 
L 167.798098 169.016488 
L 166.382968 169.01654 
L 164.968089 169.016577 
L 163.553459 169.016603 
L 162.139073 169.01662 
L 160.724922 169.016631 
L 159.310997 169.016638 
L 157.897285 169.016642 
L 156.483776 169.016645 
L 155.070455 169.016646 
L 153.657308 169.016646 
L 152.244322 169.016646 
L 150.831482 169.016646 
L 149.418776 169.016645 
L 148.00619 169.016645 
L 146.593711 169.016645 
L 145.181327 169.016644 
L 143.769027 169.016644 
L 142.3568 169.016643 
L 140.944636 169.016643 
L 139.532526 169.016643 
L 138.120462 169.016643 
L 136.708436 169.016643 
L 135.29644 169.016643 
L 133.884469 169.016642 
L 132.472517 169.016642 
L 131.060579 169.016642 
L 129.648651 169.016642 
L 128.236728 169.016641 
" clip-path="url(#p85a573176a)" style="fill: none; stroke: #ff0000; stroke-opacity: 0.25; stroke-width: 0.25; stroke-linecap: square"/>
   </g>
   <g id="line2d_72">
    <path d="M 170.629103 169.016313 
L 169.213478 169.016412 
L 167.798098 169.016487 
L 166.382969 169.016539 
L 164.968091 169.016577 
L 163.553463 169.016602 
L 162.139078 169.016619 
L 160.724929 169.016631 
L 159.311006 169.016638 
L 157.897297 169.016642 
L 156.48379 169.016645 
L 155.070471 169.016646 
L 153.657327 169.016646 
L 152.244343 169.016646 
L 150.831506 169.016646 
L 149.418802 169.016646 
L 148.006217 169.016645 
L 146.593739 169.016645 
L 145.181355 169.016644 
L 143.769055 169.016644 
L 142.356826 169.016644 
L 140.944659 169.016643 
L 139.532545 169.016643 
L 138.120475 169.016643 
L 136.708442 169.016643 
L 135.296438 169.016642 
L 133.884456 169.016642 
L 132.472492 169.016642 
L 131.060539 169.016641 
L 129.648593 169.016641 
L 128.236651 169.01664 
" clip-path="url(#p85a573176a)" style="fill: none; stroke: #ff0000; stroke-opacity: 0.5; stroke-width: 0.25; stroke-linecap: square"/>
   </g>
   <g id="line2d_73">
    <path d="M 170.629103 169.016313 
L 169.213478 169.016411 
L 167.798098 169.016486 
L 166.382968 169.016539 
L 164.96809 169.016576 
L 163.553461 169.016602 
L 162.139076 169.016619 
L 160.724927 169.016631 
L 159.311003 169.016638 
L 157.897293 169.016642 
L 156.483785 169.016645 
L 155.070465 169.016646 
L 153.65732 169.016647 
L 152.244335 169.016646 
L 150.831497 169.016646 
L 149.418792 169.016646 
L 148.006207 169.016645 
L 146.593729 169.016645 
L 145.181345 169.016644 
L 143.769045 169.016644 
L 142.356818 169.016644 
L 140.944652 169.016643 
L 139.532541 169.016643 
L 138.120474 169.016643 
L 136.708444 169.016643 
L 135.296444 169.016642 
L 133.884468 169.016642 
L 132.472509 169.016642 
L 131.060564 169.016642 
L 129.648626 169.016641 
L 128.236693 169.016641 
" clip-path="url(#p85a573176a)" style="fill: none; stroke: #ff0000; stroke-opacity: 0.75; stroke-width: 0.25; stroke-linecap: square"/>
   </g>
   <g id="line2d_74">
    <path d="M 170.629103 169.016313 
L 169.213478 169.01641 
L 167.798098 169.016485 
L 166.382969 169.016538 
L 164.968091 169.016576 
L 163.553462 169.016602 
L 162.139077 169.016619 
L 160.724927 169.016631 
L 159.311004 169.016638 
L 157.897295 169.016642 
L 156.483787 169.016645 
L 155.070467 169.016646 
L 153.657322 169.016647 
L 152.244338 169.016647 
L 150.8315 169.016646 
L 149.418796 169.016646 
L 148.00621 169.016645 
L 146.593732 169.016645 
L 145.181348 169.016644 
L 143.769048 169.016644 
L 142.356819 169.016644 
L 140.944653 169.016643 
L 139.53254 169.016643 
L 138.120472 169.016643 
L 136.70844 169.016643 
L 135.296438 169.016642 
L 133.884459 169.016642 
L 132.472498 169.016642 
L 131.060549 169.016642 
L 129.648607 169.016641 
L 128.236669 169.01664 
" clip-path="url(#p85a573176a)" style="fill: none; stroke: #ff0000; stroke-width: 0.25; stroke-linecap: square"/>
   </g>
   <g id="line2d_75">
    <path d="M 230.647971 240.141247 
L 230.648195 241.569233 
L 230.648389 242.993728 
L 230.648522 244.415122 
L 230.64861 245.833785 
L 230.648667 247.250064 
L 230.648701 248.664283 
L 230.64872 250.076743 
L 230.648729 251.487718 
L 230.64873 252.897458 
L 230.648727 254.306188 
L 230.648722 255.714107 
L 230.648715 257.121395 
L 230.648708 258.528205 
L 230.6487 259.934671 
L 230.648693 261.340907 
L 230.648686 262.747009 
L 230.648679 264.153053 
L 230.648673 265.559101 
L 230.648667 266.965202 
L 230.648661 268.371389 
L 230.648656 269.777686 
L 230.648651 271.184105 
L 230.648647 272.59065 
L 230.648643 273.997319 
L 230.648639 275.404101 
L 230.648637 276.810983 
L 230.648635 278.217945 
L 230.648634 279.624969 
L 230.648635 281.032031 
L 230.648638 282.439111 
" clip-path="url(#p85a573176a)" style="fill: none; stroke: #ff0000; stroke-opacity: 0.25; stroke-width: 0.25; stroke-linecap: square"/>
   </g>
   <g id="line2d_76">
    <path d="M 230.647971 240.141247 
L 230.648176 241.569233 
L 230.648374 242.99373 
L 230.648511 244.415127 
L 230.648603 245.833796 
L 230.648662 247.250083 
L 230.648698 248.664313 
L 230.648719 250.076786 
L 230.648728 251.487778 
L 230.64873 252.897538 
L 230.648728 254.306291 
L 230.648723 255.714239 
L 230.648716 257.12156 
L 230.648709 258.528409 
L 230.648701 259.934921 
L 230.648693 261.341209 
L 230.648686 262.747371 
L 230.648679 264.153483 
L 230.648672 265.559608 
L 230.648666 266.965795 
L 230.64866 268.372079 
L 230.648655 269.778483 
L 230.64865 271.18502 
L 230.648646 272.591694 
L 230.648642 273.998502 
L 230.648638 275.405433 
L 230.648636 276.812474 
L 230.648634 278.219604 
L 230.648633 279.626804 
L 230.648634 281.03405 
L 230.648637 282.441319 
" clip-path="url(#p85a573176a)" style="fill: none; stroke: #ff0000; stroke-opacity: 0.5; stroke-width: 0.25; stroke-linecap: square"/>
   </g>
   <g id="line2d_77">
    <path d="M 230.647971 240.141247 
L 230.648158 241.569233 
L 230.648361 242.993728 
L 230.648502 244.415123 
L 230.648597 245.833787 
L 230.648658 247.250067 
L 230.648697 248.664289 
L 230.648718 250.076752 
L 230.648729 251.487731 
L 230.648732 252.897477 
L 230.64873 254.306213 
L 230.648725 255.714141 
L 230.648718 257.12144 
L 230.64871 258.528263 
L 230.648702 259.934745 
L 230.648694 261.341001 
L 230.648686 262.747124 
L 230.648679 264.153195 
L 230.648672 265.559274 
L 230.648666 266.96541 
L 230.64866 268.371637 
L 230.648655 269.777979 
L 230.64865 271.184449 
L 230.648646 272.59105 
L 230.648642 273.99778 
L 230.648639 275.404628 
L 230.648636 276.811581 
L 230.648635 278.218619 
L 230.648634 279.625723 
L 230.648635 281.03287 
L 230.648638 282.440037 
" clip-path="url(#p85a573176a)" style="fill: none; stroke: #ff0000; stroke-opacity: 0.75; stroke-width: 0.25; stroke-linecap: square"/>
   </g>
   <g id="line2d_78">
    <path d="M 230.647971 240.141247 
L 230.648142 241.569233 
L 230.64835 242.993729 
L 230.648494 244.415126 
L 230.648592 245.833793 
L 230.648656 247.250078 
L 230.648696 248.664306 
L 230.648719 250.076776 
L 230.64873 251.487763 
L 230.648733 252.897518 
L 230.648731 254.306266 
L 230.648726 255.714207 
L 230.648718 257.12152 
L 230.64871 258.52836 
L 230.648702 259.934861 
L 230.648694 261.341137 
L 230.648686 262.747284 
L 230.648679 264.153379 
L 230.648672 265.559486 
L 230.648666 266.965653 
L 230.64866 268.371913 
L 230.648655 269.778291 
L 230.64865 271.184799 
L 230.648646 272.591442 
L 230.648642 273.998216 
L 230.648639 275.405111 
L 230.648636 276.812113 
L 230.648634 278.219203 
L 230.648634 279.626359 
L 230.648634 281.03356 
L 230.648637 282.440784 
" clip-path="url(#p85a573176a)" style="fill: none; stroke: #ff0000; stroke-width: 0.25; stroke-linecap: square"/>
   </g>
   <g id="patch_15">
    <path d="M 103.104 307.584 
L 103.104 41.472 
" style="fill: none; stroke: #000000; stroke-width: 0.8; stroke-linejoin: miter; stroke-linecap: square"/>
   </g>
   <g id="patch_16">
    <path d="M 369.216 307.584 
L 369.216 41.472 
" style="fill: none; stroke: #000000; stroke-width: 0.8; stroke-linejoin: miter; stroke-linecap: square"/>
   </g>
   <g id="patch_17">
    <path d="M 103.104 307.584 
L 369.216 307.584 
" style="fill: none; stroke: #000000; stroke-width: 0.8; stroke-linejoin: miter; stroke-linecap: square"/>
   </g>
   <g id="patch_18">
    <path d="M 103.104 41.472 
L 369.216 41.472 
" style="fill: none; stroke: #000000; stroke-width: 0.8; stroke-linejoin: miter; stroke-linecap: square"/>
   </g>
   <g id="text_19">
    <!-- Time: 117 ms -->
    <g transform="translate(261.069512 54.7776) scale(0.1 -0.1)">
     <defs>
      <path id="DejaVuSans-54" d="M -19 4666 
L 3928 4666 
L 3928 4134 
L 2272 4134 
L 2272 0 
L 1638 0 
L 1638 4134 
L -19 4134 
L -19 4666 
z
" transform="scale(0.015625)"/>
      <path id="DejaVuSans-69" d="M 603 3500 
L 1178 3500 
L 1178 0 
L 603 0 
L 603 3500 
z
M 603 4863 
L 1178 4863 
L 1178 4134 
L 603 4134 
L 603 4863 
z
" transform="scale(0.015625)"/>
      <path id="DejaVuSans-6d" d="M 3328 2828 
Q 3544 3216 3844 3400 
Q 4144 3584 4550 3584 
Q 5097 3584 5394 3201 
Q 5691 2819 5691 2113 
L 5691 0 
L 5113 0 
L 5113 2094 
Q 5113 2597 4934 2840 
Q 4756 3084 4391 3084 
Q 3944 3084 3684 2787 
Q 3425 2491 3425 1978 
L 3425 0 
L 2847 0 
L 2847 2094 
Q 2847 2600 2669 2842 
Q 2491 3084 2119 3084 
Q 1678 3084 1418 2786 
Q 1159 2488 1159 1978 
L 1159 0 
L 581 0 
L 581 3500 
L 1159 3500 
L 1159 2956 
Q 1356 3278 1631 3431 
Q 1906 3584 2284 3584 
Q 2666 3584 2933 3390 
Q 3200 3197 3328 2828 
z
" transform="scale(0.015625)"/>
      <path id="DejaVuSans-65" d="M 3597 1894 
L 3597 1613 
L 953 1613 
Q 991 1019 1311 708 
Q 1631 397 2203 397 
Q 2534 397 2845 478 
Q 3156 559 3463 722 
L 3463 178 
Q 3153 47 2828 -22 
Q 2503 -91 2169 -91 
Q 1331 -91 842 396 
Q 353 884 353 1716 
Q 353 2575 817 3079 
Q 1281 3584 2069 3584 
Q 2775 3584 3186 3129 
Q 3597 2675 3597 1894 
z
M 3022 2063 
Q 3016 2534 2758 2815 
Q 2500 3097 2075 3097 
Q 1594 3097 1305 2825 
Q 1016 2553 972 2059 
L 3022 2063 
z
" transform="scale(0.015625)"/>
      <path id="DejaVuSans-3a" d="M 750 794 
L 1409 794 
L 1409 0 
L 750 0 
L 750 794 
z
M 750 3309 
L 1409 3309 
L 1409 2516 
L 750 2516 
L 750 3309 
z
" transform="scale(0.015625)"/>
      <path id="DejaVuSans-20" transform="scale(0.015625)"/>
      <path id="DejaVuSans-37" d="M 525 4666 
L 3525 4666 
L 3525 4397 
L 1831 0 
L 1172 0 
L 2766 4134 
L 525 4134 
L 525 4666 
z
" transform="scale(0.015625)"/>
      <path id="DejaVuSans-73" d="M 2834 3397 
L 2834 2853 
Q 2591 2978 2328 3040 
Q 2066 3103 1784 3103 
Q 1356 3103 1142 2972 
Q 928 2841 928 2578 
Q 928 2378 1081 2264 
Q 1234 2150 1697 2047 
L 1894 2003 
Q 2506 1872 2764 1633 
Q 3022 1394 3022 966 
Q 3022 478 2636 193 
Q 2250 -91 1575 -91 
Q 1294 -91 989 -36 
Q 684 19 347 128 
L 347 722 
Q 666 556 975 473 
Q 1284 391 1588 391 
Q 1994 391 2212 530 
Q 2431 669 2431 922 
Q 2431 1156 2273 1281 
Q 2116 1406 1581 1522 
L 1381 1569 
Q 847 1681 609 1914 
Q 372 2147 372 2553 
Q 372 3047 722 3315 
Q 1072 3584 1716 3584 
Q 2034 3584 2315 3537 
Q 2597 3491 2834 3397 
z
" transform="scale(0.015625)"/>
     </defs>
     <use xlink:href="#DejaVuSans-54"/>
     <use xlink:href="#DejaVuSans-69" x="57.958984"/>
     <use xlink:href="#DejaVuSans-6d" x="85.742188"/>
     <use xlink:href="#DejaVuSans-65" x="183.154297"/>
     <use xlink:href="#DejaVuSans-3a" x="244.677734"/>
     <use xlink:href="#DejaVuSans-20" x="278.369141"/>
     <use xlink:href="#DejaVuSans-31" x="310.15625"/>
     <use xlink:href="#DejaVuSans-31" x="373.779297"/>
     <use xlink:href="#DejaVuSans-37" x="437.402344"/>
     <use xlink:href="#DejaVuSans-20" x="501.025391"/>
     <use xlink:href="#DejaVuSans-6d" x="532.8125"/>
     <use xlink:href="#DejaVuSans-73" x="630.224609"/>
    </g>
   </g>
  </g>
 </g>
 <defs>
  <clipPath id="p85a573176a">
   <rect x="103.104" y="41.472" width="266.112" height="266.112"/>
  </clipPath>
 </defs>
</svg>
