<?xml version="1.0" encoding="utf-8" standalone="no"?>
<!DOCTYPE svg PUBLIC "-//W3C//DTD SVG 1.1//EN"
  "http://www.w3.org/Graphics/SVG/1.1/DTD/svg11.dtd">
<svg xmlns:xlink="http://www.w3.org/1999/xlink" width="460.8pt" height="345.6pt" viewBox="0 0 460.8 345.6" xmlns="http://www.w3.org/2000/svg" version="1.1">
 <metadata>
  <rdf:RDF xmlns:dc="http://purl.org/dc/elements/1.1/" xmlns:cc="http://creativecommons.org/ns#" xmlns:rdf="http://www.w3.org/1999/02/22-rdf-syntax-ns#">
   <cc:Work>
    <dc:type rdf:resource="http://purl.org/dc/dcmitype/StillImage"/>
    <dc:date>2024-01-22T16:49:26.769458</dc:date>
    <dc:format>image/svg+xml</dc:format>
    <dc:creator>
     <cc:Agent>
      <dc:title>Matplotlib v3.8.2, https://matplotlib.org/</dc:title>
     </cc:Agent>
    </dc:creator>
   </cc:Work>
  </rdf:RDF>
 </metadata>
 <defs>
  <style type="text/css">*{stroke-linejoin: round; stroke-linecap: butt}</style>
 </defs>
 <g id="figure_1">
  <g id="patch_1">
   <path d="M 0 345.6 
L 460.8 345.6 
L 460.8 0 
L 0 0 
z
" style="fill: #ffffff"/>
  </g>
  <g id="axes_1">
   <g id="patch_2">
    <path d="M 103.104 307.584 
L 369.216 307.584 
L 369.216 41.472 
L 103.104 41.472 
z
" style="fill: #ffffff"/>
   </g>
   <g id="patch_3">
    <path d="M 245.187864 91.443928 
L 245.187529 79.801528 
L 239.532649 79.801691 
L 239.532984 91.444091 
z
" clip-path="url(#pc7b4f1848f)" style="fill: #00008b"/>
   </g>
   <g id="patch_4">
    <path d="M 153.11721 165.500081 
L 141.47481 165.500268 
L 141.474901 171.155148 
L 153.117301 171.154961 
z
" clip-path="url(#pc7b4f1848f)" style="fill: #800000"/>
   </g>
   <g id="patch_5">
    <path d="M 316.8569 183.555651 
L 328.4993 183.555609 
L 328.499279 177.900729 
L 316.856879 177.900771 
z
" clip-path="url(#pc7b4f1848f)" style="fill: #006400"/>
   </g>
   <g id="patch_6">
    <path d="M 227.131864 262.24187 
L 227.132575 273.88427 
L 232.787455 273.883925 
L 232.786744 262.241525 
z
" clip-path="url(#pc7b4f1848f)" style="fill: #4b0082"/>
   </g>
   <g id="patch_7">
    <path d="M 245.19459 124.539919 
L 245.201573 112.897521 
L 239.546694 112.89413 
L 239.539712 124.536528 
z
" clip-path="url(#pc7b4f1848f)" style="fill: #0000ff"/>
   </g>
   <g id="patch_8">
    <path d="M 227.133039 223.775662 
L 227.1359 235.418062 
L 232.790779 235.416672 
L 232.787919 223.774273 
z
" clip-path="url(#pc7b4f1848f)" style="fill: #ff0000"/>
   </g>
   <g id="patch_9">
    <path d="M 181.28938 165.511402 
L 169.647035 165.475586 
L 169.629639 171.130439 
L 181.271984 171.166255 
z
" clip-path="url(#pc7b4f1848f)" style="fill: #dbdc56"/>
   </g>
   <g id="patch_10">
    <path d="M 285.907949 183.539484 
L 297.55033 183.560679 
L 297.560625 177.905809 
L 285.918244 177.884614 
z
" clip-path="url(#pc7b4f1848f)" style="fill: #9400d3"/>
   </g>
   <g id="patch_11">
    <path d="M 259.498045 183.333152 
L 271.100559 182.37027 
L 270.632874 176.734763 
L 259.03036 177.697645 
z
" clip-path="url(#pc7b4f1848f)" style="fill: #1e90ff"/>
   </g>
   <g id="patch_12">
    <path d="M 224.480231 188.149349 
L 226.077545 199.681654 
L 231.678951 198.905816 
L 230.081636 187.373511 
z
" clip-path="url(#pc7b4f1848f)" style="fill: #ff4500"/>
   </g>
   <g id="patch_13">
    <path d="M 212.758329 165.73627 
L 201.159786 166.745865 
L 201.65016 172.379443 
L 213.248703 171.369848 
z
" clip-path="url(#pc7b4f1848f)" style="fill: #7cfc00"/>
   </g>
   <g id="patch_14">
    <path d="M 248.072966 160.790386 
L 246.475723 149.258071 
L 240.874313 150.033874 
L 242.471556 161.566189 
z
" clip-path="url(#pc7b4f1848f)" style="fill: #ff00ff"/>
   </g>
   <g id="matplotlib.axis_1">
    <g id="xtick_1">
     <g id="line2d_1">
      <defs>
       <path id="m879c8b6e5f" d="M 0 0 
L 0 3.5 
" style="stroke: #000000; stroke-width: 0.8"/>
      </defs>
      <g>
       <use xlink:href="#m879c8b6e5f" x="103.104" y="307.584" style="stroke: #000000; stroke-width: 0.8"/>
      </g>
     </g>
     <g id="text_1">
      <!-- −40 -->
      <g transform="translate(92.551656 322.182437) scale(0.1 -0.1)">
       <defs>
        <path id="DejaVuSans-2212" d="M 678 2272 
L 4684 2272 
L 4684 1741 
L 678 1741 
L 678 2272 
z
" transform="scale(0.015625)"/>
        <path id="DejaVuSans-34" d="M 2419 4116 
L 825 1625 
L 2419 1625 
L 2419 4116 
z
M 2253 4666 
L 3047 4666 
L 3047 1625 
L 3713 1625 
L 3713 1100 
L 3047 1100 
L 3047 0 
L 2419 0 
L 2419 1100 
L 313 1100 
L 313 1709 
L 2253 4666 
z
" transform="scale(0.015625)"/>
        <path id="DejaVuSans-30" d="M 2034 4250 
Q 1547 4250 1301 3770 
Q 1056 3291 1056 2328 
Q 1056 1369 1301 889 
Q 1547 409 2034 409 
Q 2525 409 2770 889 
Q 3016 1369 3016 2328 
Q 3016 3291 2770 3770 
Q 2525 4250 2034 4250 
z
M 2034 4750 
Q 2819 4750 3233 4129 
Q 3647 3509 3647 2328 
Q 3647 1150 3233 529 
Q 2819 -91 2034 -91 
Q 1250 -91 836 529 
Q 422 1150 422 2328 
Q 422 3509 836 4129 
Q 1250 4750 2034 4750 
z
" transform="scale(0.015625)"/>
       </defs>
       <use xlink:href="#DejaVuSans-2212"/>
       <use xlink:href="#DejaVuSans-34" x="83.789062"/>
       <use xlink:href="#DejaVuSans-30" x="147.412109"/>
      </g>
     </g>
    </g>
    <g id="xtick_2">
     <g id="line2d_2">
      <g>
       <use xlink:href="#m879c8b6e5f" x="136.368" y="307.584" style="stroke: #000000; stroke-width: 0.8"/>
      </g>
     </g>
     <g id="text_2">
      <!-- −30 -->
      <g transform="translate(125.815656 322.182437) scale(0.1 -0.1)">
       <defs>
        <path id="DejaVuSans-33" d="M 2597 2516 
Q 3050 2419 3304 2112 
Q 3559 1806 3559 1356 
Q 3559 666 3084 287 
Q 2609 -91 1734 -91 
Q 1441 -91 1130 -33 
Q 819 25 488 141 
L 488 750 
Q 750 597 1062 519 
Q 1375 441 1716 441 
Q 2309 441 2620 675 
Q 2931 909 2931 1356 
Q 2931 1769 2642 2001 
Q 2353 2234 1838 2234 
L 1294 2234 
L 1294 2753 
L 1863 2753 
Q 2328 2753 2575 2939 
Q 2822 3125 2822 3475 
Q 2822 3834 2567 4026 
Q 2313 4219 1838 4219 
Q 1578 4219 1281 4162 
Q 984 4106 628 3988 
L 628 4550 
Q 988 4650 1302 4700 
Q 1616 4750 1894 4750 
Q 2613 4750 3031 4423 
Q 3450 4097 3450 3541 
Q 3450 3153 3228 2886 
Q 3006 2619 2597 2516 
z
" transform="scale(0.015625)"/>
       </defs>
       <use xlink:href="#DejaVuSans-2212"/>
       <use xlink:href="#DejaVuSans-33" x="83.789062"/>
       <use xlink:href="#DejaVuSans-30" x="147.412109"/>
      </g>
     </g>
    </g>
    <g id="xtick_3">
     <g id="line2d_3">
      <g>
       <use xlink:href="#m879c8b6e5f" x="169.632" y="307.584" style="stroke: #000000; stroke-width: 0.8"/>
      </g>
     </g>
     <g id="text_3">
      <!-- −20 -->
      <g transform="translate(159.079656 322.182437) scale(0.1 -0.1)">
       <defs>
        <path id="DejaVuSans-32" d="M 1228 531 
L 3431 531 
L 3431 0 
L 469 0 
L 469 531 
Q 828 903 1448 1529 
Q 2069 2156 2228 2338 
Q 2531 2678 2651 2914 
Q 2772 3150 2772 3378 
Q 2772 3750 2511 3984 
Q 2250 4219 1831 4219 
Q 1534 4219 1204 4116 
Q 875 4013 500 3803 
L 500 4441 
Q 881 4594 1212 4672 
Q 1544 4750 1819 4750 
Q 2544 4750 2975 4387 
Q 3406 4025 3406 3419 
Q 3406 3131 3298 2873 
Q 3191 2616 2906 2266 
Q 2828 2175 2409 1742 
Q 1991 1309 1228 531 
z
" transform="scale(0.015625)"/>
       </defs>
       <use xlink:href="#DejaVuSans-2212"/>
       <use xlink:href="#DejaVuSans-32" x="83.789062"/>
       <use xlink:href="#DejaVuSans-30" x="147.412109"/>
      </g>
     </g>
    </g>
    <g id="xtick_4">
     <g id="line2d_4">
      <g>
       <use xlink:href="#m879c8b6e5f" x="202.896" y="307.584" style="stroke: #000000; stroke-width: 0.8"/>
      </g>
     </g>
     <g id="text_4">
      <!-- −10 -->
      <g transform="translate(192.343656 322.182437) scale(0.1 -0.1)">
       <defs>
        <path id="DejaVuSans-31" d="M 794 531 
L 1825 531 
L 1825 4091 
L 703 3866 
L 703 4441 
L 1819 4666 
L 2450 4666 
L 2450 531 
L 3481 531 
L 3481 0 
L 794 0 
L 794 531 
z
" transform="scale(0.015625)"/>
       </defs>
       <use xlink:href="#DejaVuSans-2212"/>
       <use xlink:href="#DejaVuSans-31" x="83.789062"/>
       <use xlink:href="#DejaVuSans-30" x="147.412109"/>
      </g>
     </g>
    </g>
    <g id="xtick_5">
     <g id="line2d_5">
      <g>
       <use xlink:href="#m879c8b6e5f" x="236.16" y="307.584" style="stroke: #000000; stroke-width: 0.8"/>
      </g>
     </g>
     <g id="text_5">
      <!-- 0 -->
      <g transform="translate(232.97875 322.182437) scale(0.1 -0.1)">
       <use xlink:href="#DejaVuSans-30"/>
      </g>
     </g>
    </g>
    <g id="xtick_6">
     <g id="line2d_6">
      <g>
       <use xlink:href="#m879c8b6e5f" x="269.424" y="307.584" style="stroke: #000000; stroke-width: 0.8"/>
      </g>
     </g>
     <g id="text_6">
      <!-- 10 -->
      <g transform="translate(263.0615 322.182437) scale(0.1 -0.1)">
       <use xlink:href="#DejaVuSans-31"/>
       <use xlink:href="#DejaVuSans-30" x="63.623047"/>
      </g>
     </g>
    </g>
    <g id="xtick_7">
     <g id="line2d_7">
      <g>
       <use xlink:href="#m879c8b6e5f" x="302.688" y="307.584" style="stroke: #000000; stroke-width: 0.8"/>
      </g>
     </g>
     <g id="text_7">
      <!-- 20 -->
      <g transform="translate(296.3255 322.182437) scale(0.1 -0.1)">
       <use xlink:href="#DejaVuSans-32"/>
       <use xlink:href="#DejaVuSans-30" x="63.623047"/>
      </g>
     </g>
    </g>
    <g id="xtick_8">
     <g id="line2d_8">
      <g>
       <use xlink:href="#m879c8b6e5f" x="335.952" y="307.584" style="stroke: #000000; stroke-width: 0.8"/>
      </g>
     </g>
     <g id="text_8">
      <!-- 30 -->
      <g transform="translate(329.5895 322.182437) scale(0.1 -0.1)">
       <use xlink:href="#DejaVuSans-33"/>
       <use xlink:href="#DejaVuSans-30" x="63.623047"/>
      </g>
     </g>
    </g>
    <g id="xtick_9">
     <g id="line2d_9">
      <g>
       <use xlink:href="#m879c8b6e5f" x="369.216" y="307.584" style="stroke: #000000; stroke-width: 0.8"/>
      </g>
     </g>
     <g id="text_9">
      <!-- 40 -->
      <g transform="translate(362.8535 322.182437) scale(0.1 -0.1)">
       <use xlink:href="#DejaVuSans-34"/>
       <use xlink:href="#DejaVuSans-30" x="63.623047"/>
      </g>
     </g>
    </g>
   </g>
   <g id="matplotlib.axis_2">
    <g id="ytick_1">
     <g id="line2d_10">
      <defs>
       <path id="maabfbfef52" d="M 0 0 
L -3.5 0 
" style="stroke: #000000; stroke-width: 0.8"/>
      </defs>
      <g>
       <use xlink:href="#maabfbfef52" x="103.104" y="307.584" style="stroke: #000000; stroke-width: 0.8"/>
      </g>
     </g>
     <g id="text_10">
      <!-- −40 -->
      <g transform="translate(74.999313 311.383219) scale(0.1 -0.1)">
       <use xlink:href="#DejaVuSans-2212"/>
       <use xlink:href="#DejaVuSans-34" x="83.789062"/>
       <use xlink:href="#DejaVuSans-30" x="147.412109"/>
      </g>
     </g>
    </g>
    <g id="ytick_2">
     <g id="line2d_11">
      <g>
       <use xlink:href="#maabfbfef52" x="103.104" y="274.32" style="stroke: #000000; stroke-width: 0.8"/>
      </g>
     </g>
     <g id="text_11">
      <!-- −30 -->
      <g transform="translate(74.999313 278.119219) scale(0.1 -0.1)">
       <use xlink:href="#DejaVuSans-2212"/>
       <use xlink:href="#DejaVuSans-33" x="83.789062"/>
       <use xlink:href="#DejaVuSans-30" x="147.412109"/>
      </g>
     </g>
    </g>
    <g id="ytick_3">
     <g id="line2d_12">
      <g>
       <use xlink:href="#maabfbfef52" x="103.104" y="241.056" style="stroke: #000000; stroke-width: 0.8"/>
      </g>
     </g>
     <g id="text_12">
      <!-- −20 -->
      <g transform="translate(74.999313 244.855219) scale(0.1 -0.1)">
       <use xlink:href="#DejaVuSans-2212"/>
       <use xlink:href="#DejaVuSans-32" x="83.789062"/>
       <use xlink:href="#DejaVuSans-30" x="147.412109"/>
      </g>
     </g>
    </g>
    <g id="ytick_4">
     <g id="line2d_13">
      <g>
       <use xlink:href="#maabfbfef52" x="103.104" y="207.792" style="stroke: #000000; stroke-width: 0.8"/>
      </g>
     </g>
     <g id="text_13">
      <!-- −10 -->
      <g transform="translate(74.999313 211.591219) scale(0.1 -0.1)">
       <use xlink:href="#DejaVuSans-2212"/>
       <use xlink:href="#DejaVuSans-31" x="83.789062"/>
       <use xlink:href="#DejaVuSans-30" x="147.412109"/>
      </g>
     </g>
    </g>
    <g id="ytick_5">
     <g id="line2d_14">
      <g>
       <use xlink:href="#maabfbfef52" x="103.104" y="174.528" style="stroke: #000000; stroke-width: 0.8"/>
      </g>
     </g>
     <g id="text_14">
      <!-- 0 -->
      <g transform="translate(89.7415 178.327219) scale(0.1 -0.1)">
       <use xlink:href="#DejaVuSans-30"/>
      </g>
     </g>
    </g>
    <g id="ytick_6">
     <g id="line2d_15">
      <g>
       <use xlink:href="#maabfbfef52" x="103.104" y="141.264" style="stroke: #000000; stroke-width: 0.8"/>
      </g>
     </g>
     <g id="text_15">
      <!-- 10 -->
      <g transform="translate(83.379 145.063219) scale(0.1 -0.1)">
       <use xlink:href="#DejaVuSans-31"/>
       <use xlink:href="#DejaVuSans-30" x="63.623047"/>
      </g>
     </g>
    </g>
    <g id="ytick_7">
     <g id="line2d_16">
      <g>
       <use xlink:href="#maabfbfef52" x="103.104" y="108" style="stroke: #000000; stroke-width: 0.8"/>
      </g>
     </g>
     <g id="text_16">
      <!-- 20 -->
      <g transform="translate(83.379 111.799219) scale(0.1 -0.1)">
       <use xlink:href="#DejaVuSans-32"/>
       <use xlink:href="#DejaVuSans-30" x="63.623047"/>
      </g>
     </g>
    </g>
    <g id="ytick_8">
     <g id="line2d_17">
      <g>
       <use xlink:href="#maabfbfef52" x="103.104" y="74.736" style="stroke: #000000; stroke-width: 0.8"/>
      </g>
     </g>
     <g id="text_17">
      <!-- 30 -->
      <g transform="translate(83.379 78.535219) scale(0.1 -0.1)">
       <use xlink:href="#DejaVuSans-33"/>
       <use xlink:href="#DejaVuSans-30" x="63.623047"/>
      </g>
     </g>
    </g>
    <g id="ytick_9">
     <g id="line2d_18">
      <g>
       <use xlink:href="#maabfbfef52" x="103.104" y="41.472" style="stroke: #000000; stroke-width: 0.8"/>
      </g>
     </g>
     <g id="text_18">
      <!-- 40 -->
      <g transform="translate(83.379 45.271219) scale(0.1 -0.1)">
       <use xlink:href="#DejaVuSans-34"/>
       <use xlink:href="#DejaVuSans-30" x="63.623047"/>
      </g>
     </g>
    </g>
   </g>
   <g id="line2d_19">
    <path d="M 251.1288 346.6 
L 251.1288 189.4968 
" clip-path="url(#pc7b4f1848f)" style="fill: none; stroke: #000000; stroke-width: 0.25; stroke-linecap: square"/>
   </g>
   <g id="line2d_20">
    <path d="M 251.1288 189.4968 
L 417.4488 189.4968 
" clip-path="url(#pc7b4f1848f)" style="fill: none; stroke: #000000; stroke-width: 0.25; stroke-linecap: square"/>
   </g>
   <g id="line2d_21">
    <path d="M 417.4488 159.5592 
L 251.1288 159.5592 
" clip-path="url(#pc7b4f1848f)" style="fill: none; stroke: #000000; stroke-width: 0.25; stroke-linecap: square"/>
   </g>
   <g id="line2d_22">
    <path d="M 251.1288 159.5592 
L 251.1288 -1 
" clip-path="url(#pc7b4f1848f)" style="fill: none; stroke: #000000; stroke-width: 0.25; stroke-linecap: square"/>
   </g>
   <g id="line2d_23">
    <path d="M 221.1912 -1 
L 221.1912 159.5592 
" clip-path="url(#pc7b4f1848f)" style="fill: none; stroke: #000000; stroke-width: 0.25; stroke-linecap: square"/>
   </g>
   <g id="line2d_24">
    <path d="M 221.1912 159.5592 
L 54.8712 159.5592 
" clip-path="url(#pc7b4f1848f)" style="fill: none; stroke: #000000; stroke-width: 0.25; stroke-linecap: square"/>
   </g>
   <g id="line2d_25">
    <path d="M 54.8712 189.4968 
L 221.1912 189.4968 
" clip-path="url(#pc7b4f1848f)" style="fill: none; stroke: #000000; stroke-width: 0.25; stroke-linecap: square"/>
   </g>
   <g id="line2d_26">
    <path d="M 221.1912 189.4968 
L 221.1912 346.6 
" clip-path="url(#pc7b4f1848f)" style="fill: none; stroke: #000000; stroke-width: 0.25; stroke-linecap: square"/>
   </g>
   <g id="line2d_27">
    <path d="M 251.1288 174.528 
L 417.4488 174.528 
" clip-path="url(#pc7b4f1848f)" style="fill: none; stroke-dasharray: 0.925,0.4; stroke-dashoffset: 0; stroke: #000000; stroke-width: 0.25"/>
   </g>
   <g id="line2d_28">
    <path d="M 236.16 159.5592 
L 236.16 -1 
" clip-path="url(#pc7b4f1848f)" style="fill: none; stroke-dasharray: 0.925,0.4; stroke-dashoffset: 0; stroke: #000000; stroke-width: 0.25"/>
   </g>
   <g id="line2d_29">
    <path d="M 221.1912 174.528 
L 54.8712 174.528 
" clip-path="url(#pc7b4f1848f)" style="fill: none; stroke-dasharray: 0.925,0.4; stroke-dashoffset: 0; stroke: #000000; stroke-width: 0.25"/>
   </g>
   <g id="line2d_30">
    <path d="M 236.16 189.4968 
L 236.16 346.6 
" clip-path="url(#pc7b4f1848f)" style="fill: none; stroke-dasharray: 0.925,0.4; stroke-dashoffset: 0; stroke: #000000; stroke-width: 0.25"/>
   </g>
   <g id="line2d_31">
    <path d="M 242.360274 87.572519 
L 242.360252 85.62281 
L 242.360238 83.67276 
L 242.360231 81.722365 
L 242.360229 79.771622 
L 242.360231 77.820532 
L 242.360234 75.869098 
L 242.36024 73.917325 
L 242.360245 71.965221 
L 242.360251 70.012794 
L 242.360256 68.060054 
L 242.360261 66.107014 
L 242.360266 64.153685 
L 242.360269 62.200083 
L 242.360272 60.24622 
L 242.360275 58.292114 
L 242.360277 56.337778 
L 242.360278 54.383231 
L 242.360279 52.428487 
L 242.36028 50.473564 
L 242.360281 48.518479 
L 242.360281 46.563247 
L 242.360281 44.607886 
L 242.360281 42.652411 
L 242.360281 40.696839 
L 242.360281 38.741184 
L 242.360281 36.785462 
L 242.360281 34.829686 
L 242.36028 32.873871 
L 242.36028 30.918028 
L 242.36028 28.96217 
" clip-path="url(#pc7b4f1848f)" style="fill: none; stroke: #ff0000; stroke-opacity: 0.2; stroke-width: 0.25; stroke-linecap: square"/>
   </g>
   <g id="line2d_32">
    <path d="M 242.360274 87.572519 
L 242.360253 85.62281 
L 242.360239 83.672766 
L 242.360232 81.722382 
L 242.36023 79.771657 
L 242.360232 77.820592 
L 242.360235 75.869189 
L 242.36024 73.917455 
L 242.360246 71.965396 
L 242.360251 70.013021 
L 242.360256 68.060341 
L 242.360261 66.107369 
L 242.360265 64.154116 
L 242.360269 62.200597 
L 242.360272 60.246826 
L 242.360274 58.29282 
L 242.360276 56.338593 
L 242.360278 54.384163 
L 242.360279 52.429546 
L 242.36028 50.474758 
L 242.36028 48.519816 
L 242.360281 46.564738 
L 242.360281 44.609538 
L 242.360281 42.654234 
L 242.360281 40.69884 
L 242.360281 38.743373 
L 242.360281 36.787846 
L 242.360281 34.832274 
L 242.36028 32.87667 
L 242.36028 30.921046 
L 242.36028 28.965414 
" clip-path="url(#pc7b4f1848f)" style="fill: none; stroke: #ff0000; stroke-opacity: 0.4; stroke-width: 0.25; stroke-linecap: square"/>
   </g>
   <g id="line2d_33">
    <path d="M 242.360274 87.572519 
L 242.360255 85.62281 
L 242.36024 83.672762 
L 242.360233 81.722371 
L 242.360231 79.771635 
L 242.360232 77.820554 
L 242.360236 75.869132 
L 242.360241 73.917374 
L 242.360246 71.965287 
L 242.360251 70.01288 
L 242.360257 68.060164 
L 242.360261 66.107151 
L 242.360265 64.153853 
L 242.360269 62.200285 
L 242.360272 60.246461 
L 242.360274 58.292396 
L 242.360276 56.338106 
L 242.360278 54.383609 
L 242.360279 52.428919 
L 242.36028 50.474055 
L 242.36028 48.519032 
L 242.360281 46.563868 
L 242.360281 44.608579 
L 242.360281 42.65318 
L 242.360281 40.697688 
L 242.360281 38.742118 
L 242.360281 36.786485 
L 242.360281 34.830803 
L 242.36028 32.875085 
L 242.36028 30.919344 
L 242.36028 28.963591 
" clip-path="url(#pc7b4f1848f)" style="fill: none; stroke: #ff0000; stroke-opacity: 0.6; stroke-width: 0.25; stroke-linecap: square"/>
   </g>
   <g id="line2d_34">
    <path d="M 242.360274 87.572519 
L 242.360256 85.62281 
L 242.360241 83.672764 
L 242.360234 81.722378 
L 242.360232 79.771649 
L 242.360233 77.820577 
L 242.360236 75.869167 
L 242.360241 73.917423 
L 242.360246 71.965353 
L 242.360251 70.012965 
L 242.360257 68.060271 
L 242.360261 66.107281 
L 242.360265 64.15401 
L 242.360269 62.20047 
L 242.360272 60.246677 
L 242.360274 58.292646 
L 242.360276 56.338393 
L 242.360278 54.383934 
L 242.360279 52.429286 
L 242.36028 50.474465 
L 242.36028 48.519488 
L 242.360281 46.564372 
L 242.360281 44.609132 
L 242.360281 42.653786 
L 242.360281 40.698349 
L 242.360281 38.742835 
L 242.360281 36.787261 
L 242.360281 34.831638 
L 242.36028 32.875982 
L 242.36028 30.920304 
L 242.36028 28.964616 
" clip-path="url(#pc7b4f1848f)" style="fill: none; stroke: #ff0000; stroke-opacity: 0.8; stroke-width: 0.25; stroke-linecap: square"/>
   </g>
   <g id="line2d_35">
    <path d="M 242.360274 87.572519 
L 242.360256 85.62281 
L 242.360242 83.672763 
L 242.360235 81.722374 
L 242.360232 79.77164 
L 242.360233 77.820563 
L 242.360236 75.869146 
L 242.360241 73.917393 
L 242.360246 71.965313 
L 242.360251 70.012915 
L 242.360257 68.060208 
L 242.360261 66.107204 
L 242.360265 64.153918 
L 242.360269 62.200361 
L 242.360272 60.24655 
L 242.360274 58.2925 
L 242.360276 56.338226 
L 242.360278 54.383745 
L 242.360279 52.429073 
L 242.36028 50.474228 
L 242.36028 48.519225 
L 242.360281 46.564082 
L 242.360281 44.608814 
L 242.360281 42.653439 
L 242.360281 40.697971 
L 242.360281 38.742427 
L 242.360281 36.78682 
L 242.360281 34.831165 
L 242.36028 32.875475 
L 242.36028 30.919762 
L 242.36028 28.964039 
" clip-path="url(#pc7b4f1848f)" style="fill: none; stroke: #ff0000; stroke-width: 0.25; stroke-linecap: square"/>
   </g>
   <g id="line2d_36">
    <path d="M 149.253204 168.327581 
L 147.296056 168.327614 
L 145.339101 168.327643 
L 143.382316 168.327666 
L 141.42568 168.327684 
L 139.469173 168.327699 
L 137.512776 168.327709 
L 135.556473 168.327717 
L 133.600248 168.327723 
L 131.644088 168.327726 
L 129.687981 168.327728 
L 127.731915 168.327729 
L 125.775882 168.327729 
L 123.819871 168.327728 
L 121.863877 168.327728 
L 119.907893 168.327727 
L 117.951914 168.327726 
L 115.995936 168.327725 
L 114.039954 168.327724 
L 112.083967 168.327723 
L 110.127973 168.327722 
L 108.17197 168.327722 
L 106.215958 168.327721 
L 104.259937 168.327721 
L 102.303906 168.327721 
L 100.347868 168.32772 
L 98.391821 168.32772 
L 96.435769 168.32772 
L 94.479712 168.32772 
L 92.523651 168.32772 
L 90.567588 168.32772 
" clip-path="url(#pc7b4f1848f)" style="fill: none; stroke: #ff0000; stroke-opacity: 0.2; stroke-width: 0.25; stroke-linecap: square"/>
   </g>
   <g id="line2d_37">
    <path d="M 149.253204 168.327581 
L 147.296056 168.327614 
L 145.339103 168.327643 
L 143.382324 168.327666 
L 141.425696 168.327684 
L 139.469199 168.327699 
L 137.512815 168.327709 
L 135.556528 168.327717 
L 133.600322 168.327723 
L 131.644184 168.327726 
L 129.688101 168.327728 
L 127.732062 168.327729 
L 125.776058 168.327729 
L 123.82008 168.327728 
L 121.86412 168.327728 
L 119.908174 168.327727 
L 117.952235 168.327726 
L 115.996299 168.327725 
L 114.040363 168.327724 
L 112.084424 168.327723 
L 110.128479 168.327722 
L 108.172529 168.327722 
L 106.216572 168.327721 
L 104.260607 168.327721 
L 102.304635 168.327721 
L 100.348657 168.32772 
L 98.392673 168.32772 
L 96.436684 168.32772 
L 94.480692 168.32772 
L 92.524697 168.32772 
L 90.568702 168.32772 
" clip-path="url(#pc7b4f1848f)" style="fill: none; stroke: #ff0000; stroke-opacity: 0.4; stroke-width: 0.25; stroke-linecap: square"/>
   </g>
   <g id="line2d_38">
    <path d="M 149.253204 168.327581 
L 147.296056 168.327614 
L 145.339102 168.327643 
L 143.382319 168.327666 
L 141.425686 168.327684 
L 139.469183 168.327699 
L 137.512792 168.327709 
L 135.556495 168.327717 
L 133.600278 168.327723 
L 131.644128 168.327726 
L 129.68803 168.327728 
L 127.731976 168.327729 
L 125.775955 168.327729 
L 123.819958 168.327728 
L 121.863979 168.327728 
L 119.908011 168.327727 
L 117.952049 168.327726 
L 115.996089 168.327725 
L 114.040127 168.327724 
L 112.084161 168.327723 
L 110.128188 168.327722 
L 108.172208 168.327722 
L 106.21622 168.327721 
L 104.260224 168.327721 
L 102.30422 168.327721 
L 100.348208 168.32772 
L 98.392189 168.32772 
L 96.436165 168.32772 
L 94.480137 168.32772 
L 92.524107 168.32772 
L 90.568074 168.32772 
" clip-path="url(#pc7b4f1848f)" style="fill: none; stroke: #ff0000; stroke-opacity: 0.6; stroke-width: 0.25; stroke-linecap: square"/>
   </g>
   <g id="line2d_39">
    <path d="M 149.253204 168.327581 
L 147.296056 168.327614 
L 145.339103 168.327643 
L 143.382322 168.327666 
L 141.425692 168.327684 
L 139.469193 168.327699 
L 137.512806 168.327709 
L 135.556515 168.327717 
L 133.600304 168.327723 
L 131.64416 168.327726 
L 129.688071 168.327728 
L 127.732026 168.327729 
L 125.776014 168.327729 
L 123.820028 168.327728 
L 121.864061 168.327728 
L 119.908105 168.327727 
L 117.952156 168.327726 
L 115.99621 168.327725 
L 114.040262 168.327724 
L 112.084312 168.327723 
L 110.128355 168.327722 
L 108.172392 168.327722 
L 106.216421 168.327721 
L 104.260442 168.327721 
L 102.304456 168.327721 
L 100.348463 168.32772 
L 98.392464 168.32772 
L 96.436459 168.32772 
L 94.480451 168.32772 
L 92.52444 168.32772 
L 90.568428 168.32772 
" clip-path="url(#pc7b4f1848f)" style="fill: none; stroke: #ff0000; stroke-opacity: 0.8; stroke-width: 0.25; stroke-linecap: square"/>
   </g>
   <g id="line2d_40">
    <path d="M 149.253204 168.327581 
L 147.296056 168.327615 
L 145.339102 168.327643 
L 143.38232 168.327666 
L 141.425689 168.327684 
L 139.469187 168.327699 
L 137.512798 168.327709 
L 135.556503 168.327717 
L 133.600289 168.327723 
L 131.644141 168.327726 
L 129.688048 168.327728 
L 127.731997 168.327729 
L 125.77598 168.327729 
L 123.819988 168.327728 
L 121.864014 168.327728 
L 119.908051 168.327727 
L 117.952095 168.327726 
L 115.99614 168.327725 
L 114.040185 168.327724 
L 112.084225 168.327723 
L 110.12826 168.327722 
L 108.172287 168.327722 
L 106.216307 168.327721 
L 104.260318 168.327721 
L 102.304322 168.327721 
L 100.348318 168.32772 
L 98.392308 168.32772 
L 96.436293 168.32772 
L 94.480274 168.32772 
L 92.524252 168.32772 
L 90.568229 168.32772 
" clip-path="url(#pc7b4f1848f)" style="fill: none; stroke: #ff0000; stroke-width: 0.25; stroke-linecap: square"/>
   </g>
   <g id="line2d_41">
    <path d="M 320.703623 180.728174 
L 322.67809 180.728187 
L 324.652986 180.7282 
L 326.628317 180.728214 
L 328.60408 180.728226 
L 330.580275 180.728238 
L 332.556894 180.728248 
L 334.533931 180.728256 
L 336.511375 180.728263 
L 338.489215 180.728269 
L 340.467435 180.728273 
L 342.446022 180.728276 
L 344.424959 180.728279 
L 346.404229 180.72828 
L 348.383812 180.728282 
L 350.363691 180.728282 
L 352.343845 180.728282 
L 354.324255 180.728283 
L 356.3049 180.728282 
L 358.28576 180.728282 
L 360.266816 180.728282 
L 362.248046 180.728282 
L 364.229432 180.728281 
L 366.210953 180.728281 
L 368.19259 180.728281 
L 370.174326 180.728281 
L 372.156143 180.728281 
L 374.138023 180.72828 
L 376.119951 180.72828 
L 378.101911 180.72828 
L 380.083889 180.72828 
" clip-path="url(#pc7b4f1848f)" style="fill: none; stroke: #ff0000; stroke-opacity: 0.2; stroke-width: 0.25; stroke-linecap: square"/>
   </g>
   <g id="line2d_42">
    <path d="M 320.703623 180.728174 
L 322.67809 180.728188 
L 324.65298 180.728201 
L 326.628296 180.728214 
L 328.604039 180.728227 
L 330.580205 180.728238 
L 332.556788 180.728248 
L 334.533781 180.728257 
L 336.511173 180.728263 
L 338.488951 180.728269 
L 340.467102 180.728273 
L 342.44561 180.728276 
L 344.424459 180.728279 
L 346.403631 180.72828 
L 348.383108 180.728281 
L 350.36287 180.728282 
L 352.342897 180.728282 
L 354.32317 180.728282 
L 356.303668 180.728282 
L 358.284371 180.728282 
L 360.265258 180.728282 
L 362.24631 180.728282 
L 364.227506 180.728281 
L 366.208828 180.728281 
L 368.190257 180.728281 
L 370.171773 180.728281 
L 372.153361 180.72828 
L 374.135002 180.72828 
L 376.116682 180.72828 
L 378.098386 180.72828 
L 380.0801 180.72828 
" clip-path="url(#pc7b4f1848f)" style="fill: none; stroke: #ff0000; stroke-opacity: 0.4; stroke-width: 0.25; stroke-linecap: square"/>
   </g>
   <g id="line2d_43">
    <path d="M 320.703623 180.728174 
L 322.67809 180.728189 
L 324.652984 180.728202 
L 326.628309 180.728215 
L 328.604065 180.728227 
L 330.580249 180.728239 
L 332.556855 180.728248 
L 334.533875 180.728257 
L 336.511299 180.728264 
L 338.489115 180.728269 
L 340.467308 180.728273 
L 342.445863 180.728276 
L 344.424764 180.728279 
L 346.403994 180.72828 
L 348.383533 180.728281 
L 350.363363 180.728282 
L 352.343464 180.728282 
L 354.323815 180.728282 
L 356.304397 180.728282 
L 358.285189 180.728282 
L 360.266172 180.728282 
L 362.247323 180.728282 
L 364.228625 180.728281 
L 366.210057 180.728281 
L 368.191601 180.728281 
L 370.173237 180.728281 
L 372.154949 180.72828 
L 374.13672 180.72828 
L 376.118533 180.72828 
L 378.100374 180.72828 
L 380.082228 180.72828 
" clip-path="url(#pc7b4f1848f)" style="fill: none; stroke: #ff0000; stroke-opacity: 0.6; stroke-width: 0.25; stroke-linecap: square"/>
   </g>
   <g id="line2d_44">
    <path d="M 320.703623 180.728174 
L 322.67809 180.728189 
L 324.652981 180.728202 
L 326.628301 180.728215 
L 328.604049 180.728228 
L 330.580222 180.728239 
L 332.556814 180.728249 
L 334.533818 180.728257 
L 336.511222 180.728264 
L 338.489016 180.728269 
L 340.467184 180.728273 
L 342.445711 180.728276 
L 344.424582 180.728279 
L 346.403778 180.72828 
L 348.383281 180.728281 
L 350.363071 180.728282 
L 352.343129 180.728282 
L 354.323436 180.728282 
L 356.30397 180.728282 
L 358.284712 180.728282 
L 360.26564 180.728282 
L 362.246736 180.728282 
L 364.227979 180.728281 
L 366.20935 180.728281 
L 368.19083 180.728281 
L 370.1724 180.728281 
L 372.154044 180.72828 
L 374.135744 180.72828 
L 376.117485 180.72828 
L 378.099252 180.72828 
L 380.081031 180.72828 
" clip-path="url(#pc7b4f1848f)" style="fill: none; stroke: #ff0000; stroke-opacity: 0.8; stroke-width: 0.25; stroke-linecap: square"/>
   </g>
   <g id="line2d_45">
    <path d="M 320.703623 180.728174 
L 322.67809 180.72819 
L 324.652983 180.728203 
L 326.628306 180.728216 
L 328.604059 180.728228 
L 330.580238 180.728239 
L 332.556839 180.728249 
L 334.533852 180.728257 
L 336.511268 180.728264 
L 338.489074 180.728269 
L 340.467257 180.728273 
L 342.445801 180.728276 
L 344.42469 180.728279 
L 346.403905 180.72828 
L 348.383429 180.728281 
L 350.363242 180.728282 
L 352.343325 180.728282 
L 354.323657 180.728282 
L 356.304218 180.728282 
L 358.284988 180.728282 
L 360.265947 180.728282 
L 362.247075 180.728282 
L 364.22835 180.728281 
L 366.209755 180.728281 
L 368.19127 180.728281 
L 370.172878 180.728281 
L 372.154559 180.72828 
L 374.136298 180.72828 
L 376.118078 180.72828 
L 378.099885 180.72828 
L 380.081705 180.72828 
" clip-path="url(#pc7b4f1848f)" style="fill: none; stroke: #ff0000; stroke-width: 0.25; stroke-linecap: square"/>
   </g>
   <g id="line2d_46">
    <path d="M 229.959608 266.232168 
L 229.959667 268.062897 
L 229.959711 269.894066 
L 229.959742 271.725626 
L 229.959762 273.557532 
L 229.959774 275.389741 
L 229.959779 277.222215 
L 229.959779 279.054918 
L 229.959777 280.887818 
L 229.959772 282.720885 
L 229.959766 284.554091 
L 229.95976 286.387414 
L 229.959754 288.220832 
L 229.959748 290.054324 
L 229.959742 291.887876 
L 229.959738 293.721471 
L 229.959733 295.555099 
L 229.95973 297.388748 
L 229.959727 299.222409 
L 229.959725 301.056076 
L 229.959723 302.889742 
L 229.959722 304.723405 
L 229.959721 306.55706 
L 229.95972 308.390707 
L 229.95972 310.224343 
L 229.959719 312.05797 
L 229.959719 313.891588 
L 229.959719 315.725197 
L 229.959719 317.5588 
L 229.959719 319.392399 
L 229.959719 321.225995 
" clip-path="url(#pc7b4f1848f)" style="fill: none; stroke: #ff0000; stroke-opacity: 0.2; stroke-width: 0.25; stroke-linecap: square"/>
   </g>
   <g id="line2d_47">
    <path d="M 229.959608 266.232168 
L 229.959664 268.062897 
L 229.959709 269.894071 
L 229.95974 271.725641 
L 229.95976 273.557562 
L 229.959772 275.389791 
L 229.959777 277.22229 
L 229.959778 279.055023 
L 229.959776 280.887958 
L 229.959772 282.721064 
L 229.959766 284.554316 
L 229.95976 286.387689 
L 229.959754 288.221161 
L 229.959748 290.054713 
L 229.959743 291.888329 
L 229.959738 293.721994 
L 229.959734 295.555696 
L 229.959731 297.389423 
L 229.959728 299.223168 
L 229.959725 301.056922 
L 229.959724 302.89068 
L 229.959722 304.724438 
L 229.959721 306.558193 
L 229.95972 308.391943 
L 229.95972 310.225686 
L 229.959719 312.059423 
L 229.959719 313.893153 
L 229.959719 315.726877 
L 229.959719 317.560597 
L 229.959719 319.394314 
L 229.959719 321.22803 
" clip-path="url(#pc7b4f1848f)" style="fill: none; stroke: #ff0000; stroke-opacity: 0.4; stroke-width: 0.25; stroke-linecap: square"/>
   </g>
   <g id="line2d_48">
    <path d="M 229.959608 266.232168 
L 229.959662 268.062897 
L 229.959707 269.894068 
L 229.959739 271.725632 
L 229.959759 273.557544 
L 229.959771 275.389762 
L 229.959777 277.222246 
L 229.959778 279.054962 
L 229.959775 280.887876 
L 229.959771 282.720959 
L 229.959766 284.554185 
L 229.95976 286.387529 
L 229.959754 288.220969 
L 229.959748 290.054487 
L 229.959743 291.888066 
L 229.959738 293.721691 
L 229.959734 295.555351 
L 229.95973 297.389033 
L 229.959728 299.22273 
L 229.959725 301.056435 
L 229.959723 302.890142 
L 229.959722 304.723846 
L 229.959721 306.557545 
L 229.95972 308.391237 
L 229.95972 310.224921 
L 229.959719 312.058597 
L 229.959719 313.892264 
L 229.959719 315.725925 
L 229.959719 317.559581 
L 229.959719 319.393233 
L 229.959719 321.226883 
" clip-path="url(#pc7b4f1848f)" style="fill: none; stroke: #ff0000; stroke-opacity: 0.6; stroke-width: 0.25; stroke-linecap: square"/>
   </g>
   <g id="line2d_49">
    <path d="M 229.959608 266.232168 
L 229.959661 268.062897 
L 229.959706 269.89407 
L 229.959737 271.725638 
L 229.959758 273.557554 
L 229.95977 275.389779 
L 229.959776 277.222271 
L 229.959777 279.054997 
L 229.959775 280.887923 
L 229.959771 282.72102 
L 229.959766 284.554261 
L 229.95976 286.387621 
L 229.959754 288.22108 
L 229.959748 290.054618 
L 229.959743 291.888218 
L 229.959738 293.721866 
L 229.959734 295.555549 
L 229.959731 297.389257 
L 229.959728 299.222981 
L 229.959725 301.056714 
L 229.959723 302.89045 
L 229.959722 304.724185 
L 229.959721 306.557915 
L 229.95972 308.391639 
L 229.95972 310.225356 
L 229.959719 312.059066 
L 229.959719 313.892768 
L 229.959719 315.726464 
L 229.959719 317.560156 
L 229.959719 319.393844 
L 229.959719 321.22753 
" clip-path="url(#pc7b4f1848f)" style="fill: none; stroke: #ff0000; stroke-opacity: 0.8; stroke-width: 0.25; stroke-linecap: square"/>
   </g>
   <g id="line2d_50">
    <path d="M 229.959608 266.232168 
L 229.95966 268.062897 
L 229.959705 269.894069 
L 229.959737 271.725635 
L 229.959757 273.557548 
L 229.95977 275.389769 
L 229.959776 277.222257 
L 229.959777 279.054977 
L 229.959775 280.887896 
L 229.959771 282.720985 
L 229.959766 284.554217 
L 229.95976 286.387568 
L 229.959754 288.221016 
L 229.959748 290.054543 
L 229.959743 291.888131 
L 229.959738 293.721766 
L 229.959734 295.555435 
L 229.959731 297.389129 
L 229.959728 299.222838 
L 229.959725 301.056555 
L 229.959723 302.890274 
L 229.959722 304.723992 
L 229.959721 306.557705 
L 229.95972 308.391411 
L 229.95972 310.225109 
L 229.959719 312.0588 
L 229.959719 313.892483 
L 229.959719 315.726159 
L 229.959719 317.559831 
L 229.959719 319.393499 
L 229.959719 321.227165 
" clip-path="url(#pc7b4f1848f)" style="fill: none; stroke: #ff0000; stroke-width: 0.25; stroke-linecap: square"/>
   </g>
   <g id="line2d_51">
    <path d="M 242.372345 120.674362 
L 242.370996 118.717024 
L 242.369545 116.76118 
L 242.368035 114.806679 
L 242.366576 112.853381 
L 242.365238 110.901153 
L 242.36406 108.949875 
L 242.363057 106.999432 
L 242.362228 105.049721 
L 242.361564 103.100646 
L 242.361047 101.15212 
L 242.360658 99.204064 
L 242.360377 97.256405 
L 242.360183 95.30908 
L 242.360058 93.362031 
L 242.359987 91.415207 
L 242.359955 89.468565 
L 242.359952 87.522064 
L 242.359968 85.575674 
L 242.359995 83.629364 
L 242.360029 81.683113 
L 242.360065 79.7369 
L 242.360101 77.790712 
L 242.360134 75.844537 
L 242.360164 73.898366 
L 242.360191 71.952194 
L 242.360214 70.006018 
L 242.360233 68.059836 
L 242.36025 66.113648 
L 242.360266 64.167456 
L 242.36028 62.221261 
" clip-path="url(#pc7b4f1848f)" style="fill: none; stroke: #ff0000; stroke-opacity: 0.2; stroke-width: 0.25; stroke-linecap: square"/>
   </g>
   <g id="line2d_52">
    <path d="M 242.372345 120.674362 
L 242.370886 118.717024 
L 242.369441 116.761194 
L 242.36794 114.806719 
L 242.366494 112.853461 
L 242.36517 110.901287 
L 242.364006 108.950075 
L 242.363016 106.999712 
L 242.3622 105.050094 
L 242.361548 103.101125 
L 242.361042 101.152718 
L 242.360661 99.204793 
L 242.360387 97.257278 
L 242.360199 95.310109 
L 242.360078 93.363228 
L 242.36001 91.416585 
L 242.359979 89.470134 
L 242.359976 87.523837 
L 242.359991 85.57766 
L 242.360016 83.631575 
L 242.360048 81.685558 
L 242.360081 79.739589 
L 242.360115 77.793654 
L 242.360146 75.84774 
L 242.360174 73.901837 
L 242.360199 71.955939 
L 242.360222 70.010043 
L 242.360242 68.064146 
L 242.36026 66.118247 
L 242.360277 64.172345 
L 242.360293 62.226443 
" clip-path="url(#pc7b4f1848f)" style="fill: none; stroke: #ff0000; stroke-opacity: 0.4; stroke-width: 0.25; stroke-linecap: square"/>
   </g>
   <g id="line2d_53">
    <path d="M 242.372345 120.674362 
L 242.370792 118.717024 
L 242.369354 116.761186 
L 242.367864 114.806696 
L 242.36643 112.853414 
L 242.365118 110.901209 
L 242.363965 108.949959 
L 242.362987 106.99955 
L 242.36218 105.049878 
L 242.361535 103.100848 
L 242.361035 101.152372 
L 242.360659 99.204371 
L 242.360387 97.256774 
L 242.3602 95.309515 
L 242.36008 93.362538 
L 242.360011 91.415792 
L 242.35998 89.469232 
L 242.359975 87.52282 
L 242.359988 85.576521 
L 242.360013 83.63031 
L 242.360043 81.68416 
L 242.360076 79.738055 
L 242.360109 77.791978 
L 242.36014 75.845917 
L 242.360168 73.899864 
L 242.360193 71.953814 
L 242.360216 70.007762 
L 242.360235 68.061706 
L 242.360253 66.115647 
L 242.360269 64.169584 
L 242.360285 62.22352 
" clip-path="url(#pc7b4f1848f)" style="fill: none; stroke: #ff0000; stroke-opacity: 0.6; stroke-width: 0.25; stroke-linecap: square"/>
   </g>
   <g id="line2d_54">
    <path d="M 242.372345 120.674362 
L 242.370711 118.717024 
L 242.369282 116.76119 
L 242.367803 114.80671 
L 242.36638 112.853441 
L 242.36508 110.901254 
L 242.363938 108.950026 
L 242.362968 106.999644 
L 242.362169 105.050003 
L 242.36153 103.101008 
L 242.361034 101.152571 
L 242.360662 99.204614 
L 242.360392 97.257064 
L 242.360206 95.309856 
L 242.360087 93.362934 
L 242.360017 91.416247 
L 242.359986 89.469749 
L 242.35998 87.523402 
L 242.359993 85.577172 
L 242.360017 83.631032 
L 242.360048 81.684957 
L 242.36008 79.738929 
L 242.360113 77.792931 
L 242.360144 75.846953 
L 242.360172 73.900984 
L 242.360197 71.955019 
L 242.36022 70.009054 
L 242.36024 68.063087 
L 242.360257 66.117117 
L 242.360274 64.171144 
L 242.36029 62.22517 
" clip-path="url(#pc7b4f1848f)" style="fill: none; stroke: #ff0000; stroke-opacity: 0.8; stroke-width: 0.25; stroke-linecap: square"/>
   </g>
   <g id="line2d_55">
    <path d="M 242.372345 120.674362 
L 242.370642 118.717024 
L 242.369221 116.761188 
L 242.367752 114.806702 
L 242.36634 112.853426 
L 242.365049 110.901229 
L 242.363916 108.949987 
L 242.362954 106.99959 
L 242.362161 105.049931 
L 242.361526 103.100916 
L 242.361033 101.152457 
L 242.360663 99.204475 
L 242.360394 97.256898 
L 242.360208 95.309661 
L 242.360088 93.362708 
L 242.360019 91.415987 
L 242.359986 89.469454 
L 242.359981 87.52307 
L 242.359993 85.576801 
L 242.360017 83.63062 
L 242.360047 81.684504 
L 242.360079 79.738432 
L 242.360111 77.792389 
L 242.360142 75.846365 
L 242.36017 73.900349 
L 242.360195 71.954336 
L 242.360218 70.008322 
L 242.360237 68.062306 
L 242.360255 66.116286 
L 242.360271 64.170263 
L 242.360287 62.224238 
" clip-path="url(#pc7b4f1848f)" style="fill: none; stroke: #ff0000; stroke-width: 0.25; stroke-linecap: square"/>
   </g>
   <g id="line2d_56">
    <path d="M 229.962169 227.623706 
L 229.962001 229.596167 
L 229.961773 231.567618 
L 229.961499 233.538213 
L 229.961211 235.508093 
L 229.960933 237.477386 
L 229.960677 239.446208 
L 229.960451 241.414663 
L 229.960259 243.382844 
L 229.9601 245.350833 
L 229.959972 247.318701 
L 229.959873 249.286512 
L 229.959798 251.254319 
L 229.959744 253.222165 
L 229.959706 255.190089 
L 229.959682 257.158119 
L 229.959667 259.126277 
L 229.959661 261.094581 
L 229.95966 263.06304 
L 229.959663 265.031659 
L 229.959668 267.00044 
L 229.959674 268.969378 
L 229.95968 270.938466 
L 229.959687 272.907693 
L 229.959693 274.877048 
L 229.959699 276.846514 
L 229.959704 278.816075 
L 229.959708 280.785714 
L 229.959712 282.755411 
L 229.959716 284.725149 
L 229.959719 286.69491 
" clip-path="url(#pc7b4f1848f)" style="fill: none; stroke: #ff0000; stroke-opacity: 0.2; stroke-width: 0.25; stroke-linecap: square"/>
   </g>
   <g id="line2d_57">
    <path d="M 229.962169 227.623706 
L 229.961973 229.596167 
L 229.961746 231.567597 
L 229.961474 233.53815 
L 229.96119 235.507966 
L 229.960915 237.477174 
L 229.960663 239.445888 
L 229.960441 241.414214 
L 229.960252 243.382243 
L 229.960096 245.350057 
L 229.959971 247.317729 
L 229.959874 249.28532 
L 229.959801 251.252884 
L 229.959748 253.220465 
L 229.959711 255.1881 
L 229.959688 257.155818 
L 229.959674 259.123642 
L 229.959667 261.091588 
L 229.959666 263.059668 
L 229.959668 265.027886 
L 229.959673 266.996243 
L 229.959678 268.964736 
L 229.959684 270.93336 
L 229.95969 272.902103 
L 229.959696 274.870954 
L 229.959701 276.839899 
L 229.959706 278.808922 
L 229.95971 280.778007 
L 229.959714 282.747138 
L 229.959718 284.716297 
L 229.959722 286.685468 
" clip-path="url(#pc7b4f1848f)" style="fill: none; stroke: #ff0000; stroke-opacity: 0.4; stroke-width: 0.25; stroke-linecap: square"/>
   </g>
   <g id="line2d_58">
    <path d="M 229.962169 227.623706 
L 229.961948 229.596167 
L 229.961723 231.56761 
L 229.961454 233.538188 
L 229.961173 235.508043 
L 229.960901 237.477302 
L 229.960652 239.44608 
L 229.960433 241.414483 
L 229.960246 243.382601 
L 229.960092 245.350519 
L 229.959969 247.318306 
L 229.959873 249.286026 
L 229.959801 251.253731 
L 229.959748 253.221466 
L 229.959712 255.189268 
L 229.959688 257.157165 
L 229.959674 259.125181 
L 229.959667 261.093331 
L 229.959665 263.061626 
L 229.959667 265.030072 
L 229.959671 266.998668 
L 229.959677 268.967411 
L 229.959682 270.936294 
L 229.959688 272.905307 
L 229.959694 274.874437 
L 229.959699 276.84367 
L 229.959704 278.812989 
L 229.959709 280.782378 
L 229.959713 282.751818 
L 229.959717 284.721293 
L 229.95972 286.690784 
" clip-path="url(#pc7b4f1848f)" style="fill: none; stroke: #ff0000; stroke-opacity: 0.6; stroke-width: 0.25; stroke-linecap: square"/>
   </g>
   <g id="line2d_59">
    <path d="M 229.962169 227.623706 
L 229.961927 229.596167 
L 229.961704 231.567603 
L 229.961438 233.538166 
L 229.96116 235.507998 
L 229.960891 237.477226 
L 229.960645 239.445967 
L 229.960428 241.414324 
L 229.960243 243.38239 
L 229.960091 245.350248 
L 229.959969 247.317968 
L 229.959874 249.285613 
L 229.959802 251.253236 
L 229.95975 253.220882 
L 229.959713 255.188588 
L 229.95969 257.156383 
L 229.959675 259.124289 
L 229.959669 261.092323 
L 229.959667 263.060496 
L 229.959668 265.028812 
L 229.959672 266.997273 
L 229.959678 268.965876 
L 229.959683 270.934614 
L 229.959689 272.903476 
L 229.959695 274.872451 
L 229.9597 276.841524 
L 229.959705 278.810679 
L 229.95971 280.779901 
L 229.959714 282.749171 
L 229.959718 284.718472 
L 229.959721 286.687789 
" clip-path="url(#pc7b4f1848f)" style="fill: none; stroke: #ff0000; stroke-opacity: 0.8; stroke-width: 0.25; stroke-linecap: square"/>
   </g>
   <g id="line2d_60">
    <path d="M 229.962169 227.623706 
L 229.961909 229.596167 
L 229.961688 231.567607 
L 229.961425 233.538179 
L 229.961149 235.508024 
L 229.960883 237.47727 
L 229.960639 239.446033 
L 229.960424 241.414417 
L 229.960241 243.382513 
L 229.96009 245.350405 
L 229.959969 247.318164 
L 229.959874 249.285852 
L 229.959802 251.253523 
L 229.95975 253.22122 
L 229.959714 255.188981 
L 229.95969 257.156834 
L 229.959676 259.124803 
L 229.959669 261.092903 
L 229.959667 263.061146 
L 229.959668 265.029535 
L 229.959672 266.998072 
L 229.959677 268.966754 
L 229.959683 270.935573 
L 229.959689 272.90452 
L 229.959695 274.873581 
L 229.9597 276.842743 
L 229.959705 278.81199 
L 229.959709 280.781304 
L 229.959713 282.750668 
L 229.959717 284.720065 
L 229.959721 286.689478 
" clip-path="url(#pc7b4f1848f)" style="fill: none; stroke: #ff0000; stroke-width: 0.25; stroke-linecap: square"/>
   </g>
   <g id="line2d_61">
    <path d="M 177.272102 168.321579 
L 175.45951 168.320353 
L 173.645155 168.319721 
L 171.829133 168.319681 
L 170.01154 168.320046 
L 168.192469 168.32067 
L 166.372014 168.32144 
L 164.550264 168.322273 
L 162.727307 168.323108 
L 160.903231 168.323903 
L 159.078117 168.324634 
L 157.252046 168.325284 
L 155.425094 168.325847 
L 153.597337 168.326324 
L 151.768845 168.326718 
L 149.939685 168.327036 
L 148.109922 168.327286 
L 146.279616 168.327478 
L 144.448826 168.32762 
L 142.617605 168.327722 
L 140.786005 168.327791 
L 138.954073 168.327833 
L 137.121854 168.327856 
L 135.28939 168.327864 
L 133.45672 168.327861 
L 131.623879 168.327851 
L 129.7909 168.327836 
L 127.957815 168.327818 
L 126.12465 168.327798 
L 124.291432 168.327777 
L 122.458184 168.327758 
" clip-path="url(#pc7b4f1848f)" style="fill: none; stroke: #ff0000; stroke-opacity: 0.2; stroke-width: 0.25; stroke-linecap: square"/>
   </g>
   <g id="line2d_62">
    <path d="M 177.272102 168.321579 
L 175.45951 168.320545 
L 173.645157 168.319903 
L 171.829141 168.319847 
L 170.011557 168.320191 
L 168.1925 168.320791 
L 166.372063 168.321536 
L 164.550336 168.322343 
L 162.727408 168.323154 
L 160.903366 168.323927 
L 159.078293 168.324637 
L 157.25227 168.32527 
L 155.425374 168.32582 
L 153.597681 168.326285 
L 151.769261 168.326672 
L 149.940182 168.326985 
L 148.110511 168.327233 
L 146.280306 168.327426 
L 144.449628 168.327571 
L 142.61853 168.327676 
L 140.787064 168.32775 
L 138.955278 168.327798 
L 137.123217 168.327826 
L 135.290924 168.327839 
L 133.458437 168.327841 
L 131.625792 168.327834 
L 129.793024 168.327822 
L 127.960161 168.327807 
L 126.127233 168.327789 
L 124.294265 168.32777 
L 122.46128 168.327751 
" clip-path="url(#pc7b4f1848f)" style="fill: none; stroke: #ff0000; stroke-opacity: 0.4; stroke-width: 0.25; stroke-linecap: square"/>
   </g>
   <g id="line2d_63">
    <path d="M 177.272102 168.321579 
L 175.45951 168.320699 
L 173.645155 168.320045 
L 171.829134 168.319972 
L 170.011543 168.320297 
L 168.192475 168.320878 
L 166.372025 168.321604 
L 164.550281 168.322395 
L 162.727334 168.323191 
L 160.903268 168.323952 
L 159.078168 168.324654 
L 157.252114 168.325281 
L 155.425184 168.325826 
L 153.597451 168.32629 
L 151.768987 168.326677 
L 149.93986 168.326991 
L 148.110134 168.327242 
L 146.27987 168.327436 
L 144.449127 168.327583 
L 142.61796 168.32769 
L 140.786418 168.327765 
L 138.954551 168.327813 
L 137.122403 168.327841 
L 135.290017 168.327853 
L 133.45743 168.327854 
L 131.62468 168.327846 
L 129.7918 168.327832 
L 127.95882 168.327815 
L 126.125768 168.327796 
L 124.29267 168.327776 
L 122.459549 168.327756 
" clip-path="url(#pc7b4f1848f)" style="fill: none; stroke: #ff0000; stroke-opacity: 0.6; stroke-width: 0.25; stroke-linecap: square"/>
   </g>
   <g id="line2d_64">
    <path d="M 177.272102 168.321579 
L 175.45951 168.320822 
L 173.645156 168.320153 
L 171.829139 168.320063 
L 170.011553 168.32037 
L 168.192492 168.320934 
L 166.37205 168.321644 
L 164.550318 168.322421 
L 162.727383 168.323206 
L 160.903332 168.323959 
L 159.078249 168.324654 
L 157.252215 168.325276 
L 155.425305 168.325819 
L 153.597596 168.326281 
L 151.769159 168.326667 
L 149.940061 168.326981 
L 148.110366 168.327231 
L 146.280137 168.327426 
L 144.449431 168.327573 
L 142.618303 168.32768 
L 140.786804 168.327755 
L 138.954982 168.327803 
L 137.122883 168.327831 
L 135.290548 168.327844 
L 133.458016 168.327845 
L 131.625323 168.327838 
L 129.792502 168.327825 
L 127.959585 168.327809 
L 126.126598 168.327791 
L 124.293569 168.327772 
L 122.460519 168.327753 
" clip-path="url(#pc7b4f1848f)" style="fill: none; stroke: #ff0000; stroke-opacity: 0.8; stroke-width: 0.25; stroke-linecap: square"/>
   </g>
   <g id="line2d_65">
    <path d="M 177.272102 168.321579 
L 175.45951 168.32092 
L 173.645155 168.320238 
L 171.829136 168.320133 
L 170.011546 168.320426 
L 168.192481 168.320975 
L 166.372034 168.321674 
L 164.550295 168.322442 
L 162.727352 168.323219 
L 160.903292 168.323967 
L 159.078199 168.324658 
L 157.252152 168.325278 
L 155.42523 168.32582 
L 153.597507 168.326282 
L 151.769054 168.326668 
L 149.939939 168.326982 
L 148.110226 168.327233 
L 146.279977 168.327428 
L 144.44925 168.327576 
L 142.618099 168.327683 
L 140.786576 168.327758 
L 138.954729 168.327807 
L 137.122603 168.327835 
L 135.290239 168.327848 
L 133.457677 168.327849 
L 131.624953 168.327842 
L 129.792101 168.327829 
L 127.959149 168.327812 
L 126.126128 168.327794 
L 124.293062 168.327774 
L 122.459975 168.327755 
" clip-path="url(#pc7b4f1848f)" style="fill: none; stroke: #ff0000; stroke-width: 0.25; stroke-linecap: square"/>
   </g>
   <g id="line2d_66">
    <path d="M 289.773146 180.720064 
L 291.734287 180.722772 
L 293.694838 180.724913 
L 295.654842 180.726529 
L 297.614343 180.727703 
L 299.573379 180.728518 
L 301.531991 180.729047 
L 303.490214 180.729356 
L 305.448083 180.729501 
L 307.405632 180.72953 
L 309.36289 180.729478 
L 311.319887 180.729376 
L 313.276649 180.729247 
L 315.233202 180.729106 
L 317.189569 180.728966 
L 319.145771 180.728835 
L 321.101829 180.728716 
L 323.05776 180.728613 
L 325.013582 180.728525 
L 326.969308 180.728454 
L 328.924953 180.728397 
L 330.880529 180.728353 
L 332.836047 180.72832 
L 334.791517 180.728296 
L 336.746947 180.72828 
L 338.702346 180.72827 
L 340.657719 180.728264 
L 342.613074 180.728262 
L 344.568415 180.728262 
L 346.523746 180.728263 
L 348.479072 180.728264 
" clip-path="url(#pc7b4f1848f)" style="fill: none; stroke: #ff0000; stroke-opacity: 0.2; stroke-width: 0.25; stroke-linecap: square"/>
   </g>
   <g id="line2d_67">
    <path d="M 289.773146 180.720064 
L 291.734287 180.722732 
L 293.694836 180.724874 
L 295.654837 180.726492 
L 297.614332 180.72767 
L 299.573362 180.72849 
L 301.531965 180.729024 
L 303.490179 180.729339 
L 305.448037 180.72949 
L 307.405574 180.729523 
L 309.362819 180.729476 
L 311.319801 180.729379 
L 313.276549 180.729253 
L 315.233087 180.729115 
L 317.189438 180.728977 
L 319.145624 180.728847 
L 321.101666 180.728729 
L 323.057581 180.728625 
L 325.013386 180.728538 
L 326.969096 180.728465 
L 328.924725 180.728407 
L 330.880286 180.728362 
L 332.83579 180.728327 
L 334.791246 180.728302 
L 336.746664 180.728285 
L 338.702052 180.728273 
L 340.657416 180.728266 
L 342.612762 180.728263 
L 344.568097 180.728261 
L 346.523424 180.728261 
L 348.478749 180.728261 
" clip-path="url(#pc7b4f1848f)" style="fill: none; stroke: #ff0000; stroke-opacity: 0.4; stroke-width: 0.25; stroke-linecap: square"/>
   </g>
   <g id="line2d_68">
    <path d="M 289.773146 180.720064 
L 291.734287 180.722699 
L 293.694837 180.724842 
L 295.65484 180.726462 
L 297.614337 180.727645 
L 299.573371 180.728468 
L 301.531978 180.729007 
L 303.490197 180.729326 
L 305.448061 180.729481 
L 307.405604 180.729517 
L 309.362856 180.729473 
L 311.319846 180.729377 
L 313.276601 180.729252 
L 315.233147 180.729115 
L 317.189507 180.728977 
L 319.145702 180.728846 
L 321.101752 180.728728 
L 323.057676 180.728624 
L 325.01349 180.728536 
L 326.96921 180.728463 
L 328.924848 180.728404 
L 330.880417 180.728358 
L 332.83593 180.728324 
L 334.791394 180.728299 
L 336.746819 180.728282 
L 338.702214 180.728271 
L 340.657584 180.728265 
L 342.612936 180.728262 
L 344.568276 180.728261 
L 346.523607 180.728262 
L 348.478934 180.728263 
" clip-path="url(#pc7b4f1848f)" style="fill: none; stroke: #ff0000; stroke-opacity: 0.6; stroke-width: 0.25; stroke-linecap: square"/>
   </g>
   <g id="line2d_69">
    <path d="M 289.773146 180.720064 
L 291.734287 180.722671 
L 293.694836 180.724815 
L 295.654838 180.726439 
L 297.614335 180.727625 
L 299.573366 180.728453 
L 301.531972 180.728996 
L 303.490188 180.729319 
L 305.448049 180.729477 
L 307.405588 180.729516 
L 309.362836 180.729473 
L 311.319822 180.729379 
L 313.276574 180.729255 
L 315.233115 180.729118 
L 317.18947 180.72898 
L 319.145661 180.728849 
L 321.101706 180.728731 
L 323.057625 180.728627 
L 325.013434 180.728538 
L 326.969148 180.728465 
L 328.924781 180.728406 
L 330.880346 180.72836 
L 332.835853 180.728326 
L 334.791313 180.728301 
L 336.746734 180.728283 
L 338.702124 180.728272 
L 340.65749 180.728266 
L 342.612839 180.728262 
L 344.568175 180.728261 
L 346.523503 180.728261 
L 348.478828 180.728262 
" clip-path="url(#pc7b4f1848f)" style="fill: none; stroke: #ff0000; stroke-opacity: 0.8; stroke-width: 0.25; stroke-linecap: square"/>
   </g>
   <g id="line2d_70">
    <path d="M 289.773146 180.720064 
L 291.734287 180.722646 
L 293.694837 180.724793 
L 295.654839 180.726421 
L 297.614336 180.72761 
L 299.573369 180.728442 
L 301.531975 180.728988 
L 303.490193 180.729313 
L 305.448055 180.729473 
L 307.405596 180.729514 
L 309.362847 180.729473 
L 311.319835 180.729379 
L 313.276589 180.729255 
L 315.233132 180.729118 
L 317.18949 180.728981 
L 319.145683 180.72885 
L 321.101731 180.728731 
L 323.057653 180.728626 
L 325.013465 180.728538 
L 326.969182 180.728464 
L 328.924818 180.728406 
L 330.880385 180.72836 
L 332.835895 180.728325 
L 334.791358 180.7283 
L 336.746781 180.728283 
L 338.702174 180.728272 
L 340.657543 180.728265 
L 342.612894 180.728262 
L 344.568232 180.728261 
L 346.523562 180.728262 
L 348.478889 180.728262 
" clip-path="url(#pc7b4f1848f)" style="fill: none; stroke: #ff0000; stroke-width: 0.25; stroke-linecap: square"/>
   </g>
   <g id="line2d_71">
    <path d="M 263.334178 179.944767 
L 265.066391 180.013546 
L 266.802138 180.087194 
L 268.541419 180.166823 
L 270.284479 180.247463 
L 272.031496 180.325231 
L 273.782548 180.397413 
L 275.537628 180.462338 
L 277.296654 180.51919 
L 279.059496 180.567801 
L 280.825995 180.608462 
L 282.595971 180.641764 
L 284.369239 180.668471 
L 286.145606 180.689427 
L 287.92488 180.705481 
L 289.706868 180.717452 
L 291.491374 180.726089 
L 293.278205 180.73206 
L 295.067165 180.735947 
L 296.85806 180.738239 
L 298.650695 180.739344 
L 300.444879 180.739591 
L 302.240421 180.739237 
L 304.037136 180.738484 
L 305.834841 180.73748 
L 307.633361 180.736333 
L 309.432527 180.735117 
L 311.232177 180.733877 
L 313.032159 180.732639 
L 314.832332 180.73141 
L 316.632564 180.730093 
" clip-path="url(#pc7b4f1848f)" style="fill: none; stroke: #ff0000; stroke-opacity: 0.2; stroke-width: 0.25; stroke-linecap: square"/>
   </g>
   <g id="line2d_72">
    <path d="M 263.334178 179.944767 
L 265.066149 180.01937 
L 266.801868 180.09259 
L 268.541083 180.171683 
L 270.284042 180.251716 
L 272.030921 180.328845 
L 273.781803 180.40039 
L 275.53668 180.464709 
L 277.295475 180.521008 
L 279.058062 180.56913 
L 280.824284 180.609376 
L 282.593969 180.642336 
L 284.366932 180.668771 
L 286.142989 180.689517 
L 287.921949 180.705416 
L 289.703624 180.717277 
L 291.487822 180.725837 
L 293.274351 180.731758 
L 295.063021 180.735609 
L 296.85364 180.737875 
L 298.646016 180.738955 
L 300.43996 180.739174 
L 302.235284 180.738787 
L 304.031805 180.737993 
L 305.829342 180.736939 
L 307.627721 180.735735 
L 309.426775 180.734453 
L 311.226342 180.733143 
L 313.026272 180.731833 
L 314.826422 180.730533 
L 316.626661 180.729186 
" clip-path="url(#pc7b4f1848f)" style="fill: none; stroke: #ff0000; stroke-opacity: 0.4; stroke-width: 0.25; stroke-linecap: square"/>
   </g>
   <g id="line2d_73">
    <path d="M 263.334178 179.944767 
L 265.065913 180.024668 
L 266.801645 180.09739 
L 268.540871 180.175904 
L 270.283839 180.255313 
L 272.030722 180.331807 
L 273.781602 180.402739 
L 275.536471 180.466491 
L 277.295252 180.522288 
L 279.057823 180.569983 
L 280.824027 180.60988 
L 282.593693 180.642567 
L 284.366641 180.668802 
L 286.142686 180.689412 
L 287.92164 180.70523 
L 289.703316 180.717054 
L 291.487523 180.725613 
L 293.274073 180.731558 
L 295.062774 180.735452 
L 296.853435 180.737771 
L 298.645867 180.73891 
L 300.43988 180.73919 
L 302.235288 180.738862 
L 304.031908 180.738125 
L 305.82956 180.737125 
L 307.62807 180.73597 
L 309.42727 180.734736 
L 311.227002 180.733472 
L 313.027111 180.732207 
L 314.827458 180.730954 
L 316.627908 180.729682 
" clip-path="url(#pc7b4f1848f)" style="fill: none; stroke: #ff0000; stroke-opacity: 0.6; stroke-width: 0.25; stroke-linecap: square"/>
   </g>
   <g id="line2d_74">
    <path d="M 263.334178 179.944767 
L 265.065683 180.029514 
L 266.801431 180.101717 
L 268.540672 180.179654 
L 270.283652 180.258456 
L 272.030542 180.334348 
L 273.781423 180.404708 
L 275.536287 180.467943 
L 277.295057 180.523287 
L 279.05761 180.570604 
L 280.823794 180.610196 
L 282.593437 180.64265 
L 284.366361 180.668715 
L 286.142383 180.689211 
L 287.921315 180.70496 
L 289.702971 180.71675 
L 291.487163 180.725301 
L 293.2737 180.731256 
L 295.062393 180.73517 
L 296.853052 180.737513 
L 298.645487 180.738676 
L 300.43951 180.738976 
L 302.234935 180.738664 
L 304.031578 180.737935 
L 305.82926 180.736937 
L 307.627809 180.735779 
L 309.427057 180.734536 
L 311.226844 180.733259 
L 313.027017 180.731978 
L 314.827435 180.73071 
L 316.627965 180.729437 
" clip-path="url(#pc7b4f1848f)" style="fill: none; stroke: #ff0000; stroke-opacity: 0.8; stroke-width: 0.25; stroke-linecap: square"/>
   </g>
   <g id="line2d_75">
    <path d="M 263.334178 179.944767 
L 265.06546 180.033958 
L 266.801227 180.105637 
L 268.540489 180.183012 
L 270.283488 180.26124 
L 272.030395 180.336573 
L 273.781288 180.406414 
L 275.536159 180.469187 
L 277.294931 180.524138 
L 279.057483 180.571133 
L 280.823661 180.610475 
L 282.593298 180.642745 
L 284.366214 180.668684 
L 286.142228 180.689102 
L 287.921153 180.704814 
L 289.702804 180.716596 
L 291.486991 180.725161 
L 293.273526 180.731143 
L 295.06222 180.735092 
L 296.852882 180.737472 
L 298.645323 180.738671 
L 300.439355 180.739003 
L 302.234792 180.738719 
L 304.031451 180.738012 
L 305.829154 180.737031 
L 307.627727 180.735885 
L 309.427003 180.734651 
L 311.226822 180.73338 
L 313.027033 180.732104 
L 314.827492 180.73084 
L 316.628068 180.729582 
" clip-path="url(#pc7b4f1848f)" style="fill: none; stroke: #ff0000; stroke-width: 0.25; stroke-linecap: square"/>
   </g>
   <g id="line2d_76">
    <path d="M 227.568716 191.439834 
L 228.097693 193.523069 
L 228.485025 195.631557 
L 228.828508 197.741774 
L 229.124581 199.853191 
L 229.372487 201.964771 
L 229.573937 204.07525 
L 229.732478 206.183384 
L 229.852838 208.288122 
L 229.940355 210.388676 
L 230.000521 212.484536 
L 230.038647 214.575438 
L 230.05963 216.661313 
L 230.067817 218.742237 
L 230.066934 220.818389 
L 230.060063 222.890007 
L 230.049667 224.957371 
L 230.037632 227.020779 
L 230.025336 229.080541 
L 230.013721 231.13697 
L 230.003375 233.190379 
L 229.994603 235.241082 
L 229.987501 237.289389 
L 229.982016 239.335607 
L 229.977992 241.380035 
L 229.975217 243.422967 
L 229.973447 245.464687 
L 229.972433 247.505468 
L 229.971932 249.545569 
L 229.97172 251.585234 
L 229.971645 253.624692 
" clip-path="url(#pc7b4f1848f)" style="fill: none; stroke: #ff0000; stroke-opacity: 0.2; stroke-width: 0.25; stroke-linecap: square"/>
   </g>
   <g id="line2d_77">
    <path d="M 227.568716 191.439834 
L 228.084168 193.526457 
L 228.473056 195.634655 
L 228.818306 197.744576 
L 229.115907 199.855766 
L 229.36492 201.967199 
L 229.567035 204.077593 
L 229.725869 206.18568 
L 229.846249 208.290385 
L 229.933613 210.390911 
L 229.993531 212.486739 
L 230.031367 214.577602 
L 230.052048 216.663432 
L 230.059933 218.744306 
L 230.058743 220.820402 
L 230.051553 222.89196 
L 230.040812 224.959259 
L 230.028399 227.022599 
L 230.015687 229.08229 
L 230.00362 231.138644 
L 229.992787 233.191977 
L 229.983503 235.242601 
L 229.975871 237.290827 
L 229.969846 239.336963 
L 229.965283 241.381307 
L 229.961973 243.424155 
L 229.959682 245.465789 
L 229.958163 247.506483 
L 229.957175 249.546496 
L 229.956493 251.586074 
L 229.955914 253.625443 
" clip-path="url(#pc7b4f1848f)" style="fill: none; stroke: #ff0000; stroke-opacity: 0.4; stroke-width: 0.25; stroke-linecap: square"/>
   </g>
   <g id="line2d_78">
    <path d="M 227.568716 191.439834 
L 228.08246 193.526878 
L 228.471708 195.635008 
L 228.817326 197.744868 
L 229.115258 199.856008 
L 229.364547 201.967406 
L 229.566882 204.077776 
L 229.725883 206.185846 
L 229.84639 208.29054 
L 229.933849 210.391058 
L 229.993841 212.486879 
L 230.031733 214.577736 
L 230.05246 216.66356 
L 230.060383 218.744429 
L 230.059225 220.820519 
L 230.052063 222.892072 
L 230.04135 224.959366 
L 230.028962 227.0227 
L 230.016275 229.082385 
L 230.004232 231.138734 
L 229.993423 233.192061 
L 229.984163 235.242679 
L 229.976556 237.2909 
L 229.970559 239.337029 
L 229.966026 241.381368 
L 229.962752 243.424209 
L 229.960501 245.465838 
L 229.959028 247.506526 
L 229.958089 249.546533 
L 229.95746 251.586105 
L 229.956928 253.625468 
" clip-path="url(#pc7b4f1848f)" style="fill: none; stroke: #ff0000; stroke-opacity: 0.6; stroke-width: 0.25; stroke-linecap: square"/>
   </g>
   <g id="line2d_79">
    <path d="M 227.568716 191.439834 
L 228.080934 193.527253 
L 228.470489 195.635326 
L 228.816408 197.745134 
L 229.1146 199.856235 
L 229.364093 201.967605 
L 229.566576 204.077956 
L 229.725677 206.186014 
L 229.846246 208.290699 
L 229.933738 210.391209 
L 229.99374 212.487024 
L 230.031629 214.577874 
L 230.05234 216.663692 
L 230.06024 218.744553 
L 230.059056 220.820636 
L 230.051864 222.892181 
L 230.04112 224.959467 
L 230.028701 227.022794 
L 230.015983 229.08247 
L 230.003909 231.13881 
L 229.993071 233.192129 
L 229.983782 235.242739 
L 229.976149 237.290951 
L 229.970127 239.337072 
L 229.96557 241.381403 
L 229.962273 243.424236 
L 229.960001 245.465856 
L 229.958505 247.506536 
L 229.957545 249.546535 
L 229.956893 251.586098 
L 229.956339 253.625453 
" clip-path="url(#pc7b4f1848f)" style="fill: none; stroke: #ff0000; stroke-opacity: 0.8; stroke-width: 0.25; stroke-linecap: square"/>
   </g>
   <g id="line2d_80">
    <path d="M 227.568716 191.439834 
L 228.079591 193.527582 
L 228.469435 195.635601 
L 228.815632 197.745362 
L 229.114065 199.856427 
L 229.363752 201.967771 
L 229.566381 204.078105 
L 229.725589 206.186151 
L 229.846234 208.290828 
L 229.933779 210.391332 
L 229.993818 212.487141 
L 230.031732 214.577986 
L 230.052463 216.663798 
L 230.060377 218.744655 
L 230.059203 220.820732 
L 230.052022 222.892272 
L 230.041286 224.959552 
L 230.028877 227.022873 
L 230.016169 229.082544 
L 230.004106 231.138879 
L 229.99328 233.192192 
L 229.984004 235.242797 
L 229.976383 237.291003 
L 229.970374 239.337118 
L 229.965831 241.381443 
L 229.962548 243.424271 
L 229.960289 245.465885 
L 229.958806 247.506559 
L 229.95786 249.546552 
L 229.957221 251.58611 
L 229.95668 253.625459 
" clip-path="url(#pc7b4f1848f)" style="fill: none; stroke: #ff0000; stroke-width: 0.25; stroke-linecap: square"/>
   </g>
   <g id="line2d_81">
    <path d="M 208.930461 169.153358 
L 207.20321 169.078867 
L 205.472182 169.000447 
L 203.737405 168.916393 
L 201.998623 168.831604 
L 200.255653 168.749994 
L 198.508411 168.674331 
L 196.756911 168.606324 
L 195.00124 168.546803 
L 193.24154 168.495931 
L 191.477984 168.453393 
L 189.710763 168.418563 
L 187.940077 168.390637 
L 186.166131 168.36873 
L 184.389128 168.351948 
L 182.609275 168.339435 
L 180.826777 168.330405 
L 179.04184 168.324157 
L 177.254669 168.320084 
L 175.465469 168.317673 
L 173.674445 168.316498 
L 171.881799 168.316215 
L 170.087731 168.316555 
L 168.292435 168.317307 
L 166.496104 168.318316 
L 164.698921 168.319473 
L 162.901064 168.320699 
L 161.102703 168.321949 
L 159.303998 168.323196 
L 157.505096 168.324439 
L 155.706134 168.325777 
" clip-path="url(#pc7b4f1848f)" style="fill: none; stroke: #ff0000; stroke-opacity: 0.2; stroke-width: 0.25; stroke-linecap: square"/>
   </g>
   <g id="line2d_82">
    <path d="M 208.930461 169.153358 
L 207.203477 169.072917 
L 205.472473 168.994943 
L 203.737756 168.911439 
L 201.999067 168.827272 
L 200.256223 168.746318 
L 198.50914 168.67131 
L 196.757827 168.603924 
L 195.002371 168.54497 
L 193.242908 168.494596 
L 191.479608 168.452479 
L 189.712657 168.417993 
L 187.94225 168.390337 
L 186.168588 168.368633 
L 184.39187 168.351996 
L 182.612299 168.339581 
L 180.830076 168.330613 
L 179.045404 168.324402 
L 177.258485 168.320351 
L 175.469521 168.317955 
L 173.678714 168.316795 
L 171.886262 168.316534 
L 170.092365 168.316904 
L 168.297214 168.317699 
L 166.500999 168.318764 
L 164.703903 168.319989 
L 162.906103 168.321295 
L 161.107767 168.322634 
L 159.309054 168.323975 
L 157.510113 168.325311 
L 155.711082 168.3267 
" clip-path="url(#pc7b4f1848f)" style="fill: none; stroke: #ff0000; stroke-opacity: 0.4; stroke-width: 0.25; stroke-linecap: square"/>
   </g>
   <g id="line2d_83">
    <path d="M 208.930461 169.153358 
L 207.203739 169.067475 
L 205.472722 168.990015 
L 203.737995 168.907102 
L 201.999301 168.823575 
L 200.256458 168.743275 
L 198.509382 168.668899 
L 196.758085 168.602099 
L 195.002651 168.543665 
L 193.243215 168.493734 
L 191.479945 168.451978 
L 189.713024 168.417773 
L 187.942645 168.390322 
L 186.169007 168.368756 
L 184.392308 168.3522 
L 182.612748 168.339818 
L 180.830528 168.330847 
L 179.045847 168.324606 
L 177.258908 168.320507 
L 175.469911 168.318051 
L 173.679057 168.316828 
L 171.886544 168.316504 
L 170.092569 168.316813 
L 168.297325 168.317552 
L 166.500999 168.318567 
L 164.703776 168.319746 
L 162.90583 168.321011 
L 161.10733 168.322311 
L 159.308435 168.323614 
L 157.509295 168.324909 
L 155.710048 168.326229 
" clip-path="url(#pc7b4f1848f)" style="fill: none; stroke: #ff0000; stroke-opacity: 0.6; stroke-width: 0.25; stroke-linecap: square"/>
   </g>
   <g id="line2d_84">
    <path d="M 208.930461 169.153358 
L 207.203995 169.06247 
L 205.472961 168.985545 
L 203.738217 168.903224 
L 201.99951 168.820321 
L 200.256659 168.740642 
L 198.509583 168.666858 
L 196.758292 168.600597 
L 195.002871 168.542634 
L 193.243453 168.493097 
L 191.480205 168.451659 
L 189.713308 168.417698 
L 187.942955 168.390423 
L 186.169342 168.368975 
L 184.392666 168.352489 
L 182.613126 168.340139 
L 180.830921 168.331173 
L 179.046252 168.324918 
L 177.259318 168.320794 
L 175.470321 168.31831 
L 173.67946 168.317059 
L 171.886933 168.316711 
L 170.092936 168.317003 
L 168.297662 168.317731 
L 166.501297 168.318743 
L 164.704025 168.319927 
L 162.906022 168.321201 
L 161.107456 168.322515 
L 159.308485 168.323835 
L 157.509259 168.325146 
L 155.709917 168.326465 
" clip-path="url(#pc7b4f1848f)" style="fill: none; stroke: #ff0000; stroke-opacity: 0.8; stroke-width: 0.25; stroke-linecap: square"/>
   </g>
   <g id="line2d_85">
    <path d="M 208.930461 169.153358 
L 207.204245 169.057857 
L 205.473189 168.981471 
L 203.738423 168.899727 
L 201.999696 168.817416 
L 200.256828 168.738317 
L 198.50974 168.665073 
L 196.758443 168.599294 
L 195.00302 168.541744 
L 193.243606 168.492545 
L 191.480364 168.451371 
L 189.713477 168.417605 
L 187.943134 168.390464 
L 186.16953 168.369097 
L 184.392863 168.352649 
L 182.61333 168.340307 
L 180.831131 168.331325 
L 179.046465 168.325041 
L 177.259531 168.32088 
L 175.470531 168.318356 
L 173.679663 168.317066 
L 171.887126 168.316684 
L 170.093114 168.316947 
L 168.29782 168.317653 
L 166.501432 168.318649 
L 164.704132 168.31982 
L 162.906095 168.321088 
L 161.10749 168.322397 
L 159.308475 168.323714 
L 157.509201 168.325021 
L 155.709805 168.326327 
" clip-path="url(#pc7b4f1848f)" style="fill: none; stroke: #ff0000; stroke-width: 0.25; stroke-linecap: square"/>
   </g>
   <g id="line2d_86">
    <path d="M 245.043881 157.478604 
L 244.475797 155.411536 
L 244.043193 153.317535 
L 243.657792 151.220106 
L 243.32389 149.119741 
L 243.043026 147.017546 
L 242.813854 144.915004 
L 242.632753 142.813642 
L 242.494608 140.7148 
L 242.393517 138.619505 
L 242.32336 136.528455 
L 242.2782 134.442044 
L 242.252556 132.360425 
L 242.241554 130.283573 
L 242.241021 128.211343 
L 242.24749 126.143512 
L 242.258188 124.079811 
L 242.270975 122.019949 
L 242.284278 119.963624 
L 242.297005 117.910527 
L 242.308465 115.860355 
L 242.31828 113.8128 
L 242.326312 111.767564 
L 242.332595 109.724349 
L 242.337278 107.682863 
L 242.340583 105.642825 
L 242.342768 103.603958 
L 242.344105 101.565999 
L 242.344859 99.528698 
L 242.34528 97.491818 
L 242.345548 95.455139 
" clip-path="url(#pc7b4f1848f)" style="fill: none; stroke: #ff0000; stroke-opacity: 0.2; stroke-width: 0.25; stroke-linecap: square"/>
   </g>
   <g id="line2d_87">
    <path d="M 245.043881 157.478604 
L 244.473461 155.412179 
L 244.043646 153.317588 
L 243.659548 151.219892 
L 243.326535 149.119345 
L 243.046514 147.016987 
L 242.818226 144.91429 
L 242.638041 142.812783 
L 242.500807 140.713807 
L 242.400591 138.618392 
L 242.33125 136.527231 
L 242.28684 134.440716 
L 242.261878 132.358997 
L 242.251501 130.282047 
L 242.251545 128.20972 
L 242.258556 126.141792 
L 242.269772 124.077993 
L 242.283066 122.018032 
L 242.296874 119.961607 
L 242.310111 117.90841 
L 242.322086 115.858135 
L 242.332423 113.810479 
L 242.340981 111.765139 
L 242.34779 109.72182 
L 242.352995 107.68023 
L 242.356813 105.640087 
L 242.359499 103.601115 
L 242.361322 101.563051 
L 242.362547 99.525645 
L 242.363426 97.488659 
L 242.364189 95.451875 
" clip-path="url(#pc7b4f1848f)" style="fill: none; stroke: #ff0000; stroke-opacity: 0.4; stroke-width: 0.25; stroke-linecap: square"/>
   </g>
   <g id="line2d_88">
    <path d="M 245.043881 157.478604 
L 244.473515 155.412164 
L 244.043586 153.317597 
L 243.659427 151.219912 
L 243.326372 149.119372 
L 243.046316 147.01702 
L 242.817999 144.914326 
L 242.63779 142.812822 
L 242.500538 140.713848 
L 242.40031 138.618435 
L 242.330962 136.527275 
L 242.286547 134.440761 
L 242.261581 132.359044 
L 242.2512 130.282096 
L 242.251238 128.209771 
L 242.258242 126.141844 
L 242.26945 124.078047 
L 242.282734 122.018088 
L 242.296532 119.961665 
L 242.309758 117.90847 
L 242.321722 115.858198 
L 242.332049 113.810544 
L 242.340595 111.765206 
L 242.34739 109.72189 
L 242.352579 107.680303 
L 242.356378 105.640162 
L 242.359042 103.601193 
L 242.36084 101.563132 
L 242.362038 99.525728 
L 242.362888 97.488745 
L 242.363627 95.451964 
" clip-path="url(#pc7b4f1848f)" style="fill: none; stroke: #ff0000; stroke-opacity: 0.6; stroke-width: 0.25; stroke-linecap: square"/>
   </g>
   <g id="line2d_89">
    <path d="M 245.043881 157.478604 
L 244.473581 155.412146 
L 244.043577 153.317594 
L 243.659393 151.219914 
L 243.326333 149.119374 
L 243.04628 147.01702 
L 242.817972 144.914325 
L 242.637777 142.812818 
L 242.500545 140.713843 
L 242.40034 138.618427 
L 242.331018 136.527265 
L 242.28663 134.440749 
L 242.26169 132.35903 
L 242.251333 130.282081 
L 242.251392 128.209754 
L 242.258415 126.141825 
L 242.269638 124.078027 
L 242.282937 122.018066 
L 242.296747 119.961641 
L 242.309984 117.908444 
L 242.321958 115.85817 
L 242.332294 113.810513 
L 242.340848 111.765174 
L 242.347652 109.721855 
L 242.352849 107.680266 
L 242.356656 105.640123 
L 242.359329 103.601152 
L 242.361135 101.563088 
L 242.362343 99.525682 
L 242.363203 97.488697 
L 242.363952 95.451913 
" clip-path="url(#pc7b4f1848f)" style="fill: none; stroke: #ff0000; stroke-opacity: 0.8; stroke-width: 0.25; stroke-linecap: square"/>
   </g>
   <g id="line2d_90">
    <path d="M 245.043881 157.478604 
L 244.473639 155.41213 
L 244.043569 153.317591 
L 243.65936 151.219916 
L 243.326291 149.119378 
L 243.046232 147.017025 
L 242.817921 144.914331 
L 242.637726 142.812825 
L 242.500495 140.713849 
L 242.400292 138.618434 
L 242.330972 136.527273 
L 242.286585 134.440758 
L 242.261643 132.359039 
L 242.251283 130.282091 
L 242.251336 128.209765 
L 242.25835 126.141837 
L 242.269564 124.078039 
L 242.282851 122.01808 
L 242.296649 119.961655 
L 242.309875 117.908459 
L 242.321839 115.858186 
L 242.332164 113.810531 
L 242.340709 111.765193 
L 242.347504 109.721875 
L 242.352693 107.680287 
L 242.356493 105.640145 
L 242.359159 103.601175 
L 242.36096 101.563113 
L 242.362161 99.525708 
L 242.363016 97.488724 
L 242.363759 95.451942 
" clip-path="url(#pc7b4f1848f)" style="fill: none; stroke: #ff0000; stroke-width: 0.25; stroke-linecap: square"/>
   </g>
   <g id="patch_15">
    <path d="M 103.104 307.584 
L 103.104 41.472 
" style="fill: none; stroke: #000000; stroke-width: 0.8; stroke-linejoin: miter; stroke-linecap: square"/>
   </g>
   <g id="patch_16">
    <path d="M 369.216 307.584 
L 369.216 41.472 
" style="fill: none; stroke: #000000; stroke-width: 0.8; stroke-linejoin: miter; stroke-linecap: square"/>
   </g>
   <g id="patch_17">
    <path d="M 103.104 307.584 
L 369.216 307.584 
" style="fill: none; stroke: #000000; stroke-width: 0.8; stroke-linejoin: miter; stroke-linecap: square"/>
   </g>
   <g id="patch_18">
    <path d="M 103.104 41.472 
L 369.216 41.472 
" style="fill: none; stroke: #000000; stroke-width: 0.8; stroke-linejoin: miter; stroke-linecap: square"/>
   </g>
   <g id="text_19">
    <!-- Time:  78 ms -->
    <g transform="translate(264.253887 54.7776) scale(0.1 -0.1)">
     <defs>
      <path id="DejaVuSans-54" d="M -19 4666 
L 3928 4666 
L 3928 4134 
L 2272 4134 
L 2272 0 
L 1638 0 
L 1638 4134 
L -19 4134 
L -19 4666 
z
" transform="scale(0.015625)"/>
      <path id="DejaVuSans-69" d="M 603 3500 
L 1178 3500 
L 1178 0 
L 603 0 
L 603 3500 
z
M 603 4863 
L 1178 4863 
L 1178 4134 
L 603 4134 
L 603 4863 
z
" transform="scale(0.015625)"/>
      <path id="DejaVuSans-6d" d="M 3328 2828 
Q 3544 3216 3844 3400 
Q 4144 3584 4550 3584 
Q 5097 3584 5394 3201 
Q 5691 2819 5691 2113 
L 5691 0 
L 5113 0 
L 5113 2094 
Q 5113 2597 4934 2840 
Q 4756 3084 4391 3084 
Q 3944 3084 3684 2787 
Q 3425 2491 3425 1978 
L 3425 0 
L 2847 0 
L 2847 2094 
Q 2847 2600 2669 2842 
Q 2491 3084 2119 3084 
Q 1678 3084 1418 2786 
Q 1159 2488 1159 1978 
L 1159 0 
L 581 0 
L 581 3500 
L 1159 3500 
L 1159 2956 
Q 1356 3278 1631 3431 
Q 1906 3584 2284 3584 
Q 2666 3584 2933 3390 
Q 3200 3197 3328 2828 
z
" transform="scale(0.015625)"/>
      <path id="DejaVuSans-65" d="M 3597 1894 
L 3597 1613 
L 953 1613 
Q 991 1019 1311 708 
Q 1631 397 2203 397 
Q 2534 397 2845 478 
Q 3156 559 3463 722 
L 3463 178 
Q 3153 47 2828 -22 
Q 2503 -91 2169 -91 
Q 1331 -91 842 396 
Q 353 884 353 1716 
Q 353 2575 817 3079 
Q 1281 3584 2069 3584 
Q 2775 3584 3186 3129 
Q 3597 2675 3597 1894 
z
M 3022 2063 
Q 3016 2534 2758 2815 
Q 2500 3097 2075 3097 
Q 1594 3097 1305 2825 
Q 1016 2553 972 2059 
L 3022 2063 
z
" transform="scale(0.015625)"/>
      <path id="DejaVuSans-3a" d="M 750 794 
L 1409 794 
L 1409 0 
L 750 0 
L 750 794 
z
M 750 3309 
L 1409 3309 
L 1409 2516 
L 750 2516 
L 750 3309 
z
" transform="scale(0.015625)"/>
      <path id="DejaVuSans-20" transform="scale(0.015625)"/>
      <path id="DejaVuSans-37" d="M 525 4666 
L 3525 4666 
L 3525 4397 
L 1831 0 
L 1172 0 
L 2766 4134 
L 525 4134 
L 525 4666 
z
" transform="scale(0.015625)"/>
      <path id="DejaVuSans-38" d="M 2034 2216 
Q 1584 2216 1326 1975 
Q 1069 1734 1069 1313 
Q 1069 891 1326 650 
Q 1584 409 2034 409 
Q 2484 409 2743 651 
Q 3003 894 3003 1313 
Q 3003 1734 2745 1975 
Q 2488 2216 2034 2216 
z
M 1403 2484 
Q 997 2584 770 2862 
Q 544 3141 544 3541 
Q 544 4100 942 4425 
Q 1341 4750 2034 4750 
Q 2731 4750 3128 4425 
Q 3525 4100 3525 3541 
Q 3525 3141 3298 2862 
Q 3072 2584 2669 2484 
Q 3125 2378 3379 2068 
Q 3634 1759 3634 1313 
Q 3634 634 3220 271 
Q 2806 -91 2034 -91 
Q 1263 -91 848 271 
Q 434 634 434 1313 
Q 434 1759 690 2068 
Q 947 2378 1403 2484 
z
M 1172 3481 
Q 1172 3119 1398 2916 
Q 1625 2713 2034 2713 
Q 2441 2713 2670 2916 
Q 2900 3119 2900 3481 
Q 2900 3844 2670 4047 
Q 2441 4250 2034 4250 
Q 1625 4250 1398 4047 
Q 1172 3844 1172 3481 
z
" transform="scale(0.015625)"/>
      <path id="DejaVuSans-73" d="M 2834 3397 
L 2834 2853 
Q 2591 2978 2328 3040 
Q 2066 3103 1784 3103 
Q 1356 3103 1142 2972 
Q 928 2841 928 2578 
Q 928 2378 1081 2264 
Q 1234 2150 1697 2047 
L 1894 2003 
Q 2506 1872 2764 1633 
Q 3022 1394 3022 966 
Q 3022 478 2636 193 
Q 2250 -91 1575 -91 
Q 1294 -91 989 -36 
Q 684 19 347 128 
L 347 722 
Q 666 556 975 473 
Q 1284 391 1588 391 
Q 1994 391 2212 530 
Q 2431 669 2431 922 
Q 2431 1156 2273 1281 
Q 2116 1406 1581 1522 
L 1381 1569 
Q 847 1681 609 1914 
Q 372 2147 372 2553 
Q 372 3047 722 3315 
Q 1072 3584 1716 3584 
Q 2034 3584 2315 3537 
Q 2597 3491 2834 3397 
z
" transform="scale(0.015625)"/>
     </defs>
     <use xlink:href="#DejaVuSans-54"/>
     <use xlink:href="#DejaVuSans-69" x="57.958984"/>
     <use xlink:href="#DejaVuSans-6d" x="85.742188"/>
     <use xlink:href="#DejaVuSans-65" x="183.154297"/>
     <use xlink:href="#DejaVuSans-3a" x="244.677734"/>
     <use xlink:href="#DejaVuSans-20" x="278.369141"/>
     <use xlink:href="#DejaVuSans-20" x="310.15625"/>
     <use xlink:href="#DejaVuSans-37" x="341.943359"/>
     <use xlink:href="#DejaVuSans-38" x="405.566406"/>
     <use xlink:href="#DejaVuSans-20" x="469.189453"/>
     <use xlink:href="#DejaVuSans-6d" x="500.976562"/>
     <use xlink:href="#DejaVuSans-73" x="598.388672"/>
    </g>
   </g>
  </g>
 </g>
 <defs>
  <clipPath id="pc7b4f1848f">
   <rect x="103.104" y="41.472" width="266.112" height="266.112"/>
  </clipPath>
 </defs>
</svg>
