<?xml version="1.0" encoding="utf-8" standalone="no"?>
<!DOCTYPE svg PUBLIC "-//W3C//DTD SVG 1.1//EN"
  "http://www.w3.org/Graphics/SVG/1.1/DTD/svg11.dtd">
<svg xmlns:xlink="http://www.w3.org/1999/xlink" width="460.8pt" height="345.6pt" viewBox="0 0 460.8 345.6" xmlns="http://www.w3.org/2000/svg" version="1.1">
 <metadata>
  <rdf:RDF xmlns:dc="http://purl.org/dc/elements/1.1/" xmlns:cc="http://creativecommons.org/ns#" xmlns:rdf="http://www.w3.org/1999/02/22-rdf-syntax-ns#">
   <cc:Work>
    <dc:type rdf:resource="http://purl.org/dc/dcmitype/StillImage"/>
    <dc:date>2024-01-23T16:31:47.503262</dc:date>
    <dc:format>image/svg+xml</dc:format>
    <dc:creator>
     <cc:Agent>
      <dc:title>Matplotlib v3.8.2, https://matplotlib.org/</dc:title>
     </cc:Agent>
    </dc:creator>
   </cc:Work>
  </rdf:RDF>
 </metadata>
 <defs>
  <style type="text/css">*{stroke-linejoin: round; stroke-linecap: butt}</style>
 </defs>
 <g id="figure_1">
  <g id="patch_1">
   <path d="M 0 345.6 
L 460.8 345.6 
L 460.8 0 
L 0 0 
z
" style="fill: #ffffff"/>
  </g>
  <g id="axes_1">
   <g id="patch_2">
    <path d="M 103.104 307.584 
L 369.216 307.584 
L 369.216 41.472 
L 103.104 41.472 
z
" style="fill: #ffffff"/>
   </g>
   <g id="patch_3">
    <path d="M 150.455358 165.844629 
L 138.812958 165.844853 
L 138.813067 171.499733 
L 150.455467 171.499509 
z
" clip-path="url(#p4dc4ea6c5c)" style="fill: #00008b"/>
   </g>
   <g id="patch_4">
    <path d="M 244.843316 80.162132 
L 244.843202 68.519732 
L 239.188322 68.519788 
L 239.188436 80.162188 
z
" clip-path="url(#p4dc4ea6c5c)" style="fill: #800000"/>
   </g>
   <g id="patch_5">
    <path d="M 227.476641 261.181688 
L 227.476844 272.824088 
L 233.131724 272.823989 
L 233.131521 261.181589 
z
" clip-path="url(#p4dc4ea6c5c)" style="fill: #006400"/>
   </g>
   <g id="patch_6">
    <path d="M 322.813392 183.21127 
L 334.455792 183.211247 
L 334.455781 177.556367 
L 322.813381 177.55639 
z
" clip-path="url(#p4dc4ea6c5c)" style="fill: #4b0082"/>
   </g>
   <g id="patch_7">
    <path d="M 244.895647 138.231272 
L 244.788794 126.589363 
L 239.134152 126.641263 
L 239.241005 138.283172 
z
" clip-path="url(#p4dc4ea6c5c)" style="fill: #0000ff"/>
   </g>
   <g id="patch_8">
    <path d="M 199.86171 165.764632 
L 188.220424 165.925661 
L 188.298638 171.58 
L 199.939924 171.418971 
z
" clip-path="url(#p4dc4ea6c5c)" style="fill: #ff0000"/>
   </g>
   <g id="patch_9">
    <path d="M 270.912058 183.214576 
L 282.554456 183.207059 
L 282.550805 177.552181 
L 270.908407 177.559697 
z
" clip-path="url(#p4dc4ea6c5c)" style="fill: #dbdc56"/>
   </g>
   <g id="patch_10">
    <path d="M 246.761101 166.132334 
L 247.219878 154.498977 
L 241.569391 154.276143 
L 241.110613 165.9095 
z
" clip-path="url(#p4dc4ea6c5c)" style="fill: #9400d3"/>
   </g>
   <g id="patch_11">
    <path d="M 243.865213 195.265636 
L 245.962563 183.813711 
L 240.400199 182.794998 
L 238.302849 194.246923 
z
" clip-path="url(#p4dc4ea6c5c)" style="fill: #1e90ff"/>
   </g>
   <g id="patch_12">
    <path d="M 225.801553 187.979348 
L 227.893391 199.432281 
L 233.456245 198.416245 
L 231.364406 186.963312 
z
" clip-path="url(#p4dc4ea6c5c)" style="fill: #ff4500"/>
   </g>
   <g id="patch_13">
    <path d="M 228.332926 153.756011 
L 226.319663 165.223018 
L 231.889352 166.200888 
L 233.902615 154.733881 
z
" clip-path="url(#p4dc4ea6c5c)" style="fill: #7cfc00"/>
   </g>
   <g id="patch_14">
    <path d="M 214.840639 182.009791 
L 226.378776 183.564423 
L 227.133883 177.960186 
L 215.595746 176.405553 
z
" clip-path="url(#p4dc4ea6c5c)" style="fill: #ff00ff"/>
   </g>
   <g id="matplotlib.axis_1">
    <g id="xtick_1">
     <g id="line2d_1">
      <defs>
       <path id="m6589f8f115" d="M 0 0 
L 0 3.5 
" style="stroke: #000000; stroke-width: 0.8"/>
      </defs>
      <g>
       <use xlink:href="#m6589f8f115" x="103.104" y="307.584" style="stroke: #000000; stroke-width: 0.8"/>
      </g>
     </g>
     <g id="text_1">
      <!-- −40 -->
      <g transform="translate(92.551656 322.182437) scale(0.1 -0.1)">
       <defs>
        <path id="DejaVuSans-2212" d="M 678 2272 
L 4684 2272 
L 4684 1741 
L 678 1741 
L 678 2272 
z
" transform="scale(0.015625)"/>
        <path id="DejaVuSans-34" d="M 2419 4116 
L 825 1625 
L 2419 1625 
L 2419 4116 
z
M 2253 4666 
L 3047 4666 
L 3047 1625 
L 3713 1625 
L 3713 1100 
L 3047 1100 
L 3047 0 
L 2419 0 
L 2419 1100 
L 313 1100 
L 313 1709 
L 2253 4666 
z
" transform="scale(0.015625)"/>
        <path id="DejaVuSans-30" d="M 2034 4250 
Q 1547 4250 1301 3770 
Q 1056 3291 1056 2328 
Q 1056 1369 1301 889 
Q 1547 409 2034 409 
Q 2525 409 2770 889 
Q 3016 1369 3016 2328 
Q 3016 3291 2770 3770 
Q 2525 4250 2034 4250 
z
M 2034 4750 
Q 2819 4750 3233 4129 
Q 3647 3509 3647 2328 
Q 3647 1150 3233 529 
Q 2819 -91 2034 -91 
Q 1250 -91 836 529 
Q 422 1150 422 2328 
Q 422 3509 836 4129 
Q 1250 4750 2034 4750 
z
" transform="scale(0.015625)"/>
       </defs>
       <use xlink:href="#DejaVuSans-2212"/>
       <use xlink:href="#DejaVuSans-34" x="83.789062"/>
       <use xlink:href="#DejaVuSans-30" x="147.412109"/>
      </g>
     </g>
    </g>
    <g id="xtick_2">
     <g id="line2d_2">
      <g>
       <use xlink:href="#m6589f8f115" x="136.368" y="307.584" style="stroke: #000000; stroke-width: 0.8"/>
      </g>
     </g>
     <g id="text_2">
      <!-- −30 -->
      <g transform="translate(125.815656 322.182437) scale(0.1 -0.1)">
       <defs>
        <path id="DejaVuSans-33" d="M 2597 2516 
Q 3050 2419 3304 2112 
Q 3559 1806 3559 1356 
Q 3559 666 3084 287 
Q 2609 -91 1734 -91 
Q 1441 -91 1130 -33 
Q 819 25 488 141 
L 488 750 
Q 750 597 1062 519 
Q 1375 441 1716 441 
Q 2309 441 2620 675 
Q 2931 909 2931 1356 
Q 2931 1769 2642 2001 
Q 2353 2234 1838 2234 
L 1294 2234 
L 1294 2753 
L 1863 2753 
Q 2328 2753 2575 2939 
Q 2822 3125 2822 3475 
Q 2822 3834 2567 4026 
Q 2313 4219 1838 4219 
Q 1578 4219 1281 4162 
Q 984 4106 628 3988 
L 628 4550 
Q 988 4650 1302 4700 
Q 1616 4750 1894 4750 
Q 2613 4750 3031 4423 
Q 3450 4097 3450 3541 
Q 3450 3153 3228 2886 
Q 3006 2619 2597 2516 
z
" transform="scale(0.015625)"/>
       </defs>
       <use xlink:href="#DejaVuSans-2212"/>
       <use xlink:href="#DejaVuSans-33" x="83.789062"/>
       <use xlink:href="#DejaVuSans-30" x="147.412109"/>
      </g>
     </g>
    </g>
    <g id="xtick_3">
     <g id="line2d_3">
      <g>
       <use xlink:href="#m6589f8f115" x="169.632" y="307.584" style="stroke: #000000; stroke-width: 0.8"/>
      </g>
     </g>
     <g id="text_3">
      <!-- −20 -->
      <g transform="translate(159.079656 322.182437) scale(0.1 -0.1)">
       <defs>
        <path id="DejaVuSans-32" d="M 1228 531 
L 3431 531 
L 3431 0 
L 469 0 
L 469 531 
Q 828 903 1448 1529 
Q 2069 2156 2228 2338 
Q 2531 2678 2651 2914 
Q 2772 3150 2772 3378 
Q 2772 3750 2511 3984 
Q 2250 4219 1831 4219 
Q 1534 4219 1204 4116 
Q 875 4013 500 3803 
L 500 4441 
Q 881 4594 1212 4672 
Q 1544 4750 1819 4750 
Q 2544 4750 2975 4387 
Q 3406 4025 3406 3419 
Q 3406 3131 3298 2873 
Q 3191 2616 2906 2266 
Q 2828 2175 2409 1742 
Q 1991 1309 1228 531 
z
" transform="scale(0.015625)"/>
       </defs>
       <use xlink:href="#DejaVuSans-2212"/>
       <use xlink:href="#DejaVuSans-32" x="83.789062"/>
       <use xlink:href="#DejaVuSans-30" x="147.412109"/>
      </g>
     </g>
    </g>
    <g id="xtick_4">
     <g id="line2d_4">
      <g>
       <use xlink:href="#m6589f8f115" x="202.896" y="307.584" style="stroke: #000000; stroke-width: 0.8"/>
      </g>
     </g>
     <g id="text_4">
      <!-- −10 -->
      <g transform="translate(192.343656 322.182437) scale(0.1 -0.1)">
       <defs>
        <path id="DejaVuSans-31" d="M 794 531 
L 1825 531 
L 1825 4091 
L 703 3866 
L 703 4441 
L 1819 4666 
L 2450 4666 
L 2450 531 
L 3481 531 
L 3481 0 
L 794 0 
L 794 531 
z
" transform="scale(0.015625)"/>
       </defs>
       <use xlink:href="#DejaVuSans-2212"/>
       <use xlink:href="#DejaVuSans-31" x="83.789062"/>
       <use xlink:href="#DejaVuSans-30" x="147.412109"/>
      </g>
     </g>
    </g>
    <g id="xtick_5">
     <g id="line2d_5">
      <g>
       <use xlink:href="#m6589f8f115" x="236.16" y="307.584" style="stroke: #000000; stroke-width: 0.8"/>
      </g>
     </g>
     <g id="text_5">
      <!-- 0 -->
      <g transform="translate(232.97875 322.182437) scale(0.1 -0.1)">
       <use xlink:href="#DejaVuSans-30"/>
      </g>
     </g>
    </g>
    <g id="xtick_6">
     <g id="line2d_6">
      <g>
       <use xlink:href="#m6589f8f115" x="269.424" y="307.584" style="stroke: #000000; stroke-width: 0.8"/>
      </g>
     </g>
     <g id="text_6">
      <!-- 10 -->
      <g transform="translate(263.0615 322.182437) scale(0.1 -0.1)">
       <use xlink:href="#DejaVuSans-31"/>
       <use xlink:href="#DejaVuSans-30" x="63.623047"/>
      </g>
     </g>
    </g>
    <g id="xtick_7">
     <g id="line2d_7">
      <g>
       <use xlink:href="#m6589f8f115" x="302.688" y="307.584" style="stroke: #000000; stroke-width: 0.8"/>
      </g>
     </g>
     <g id="text_7">
      <!-- 20 -->
      <g transform="translate(296.3255 322.182437) scale(0.1 -0.1)">
       <use xlink:href="#DejaVuSans-32"/>
       <use xlink:href="#DejaVuSans-30" x="63.623047"/>
      </g>
     </g>
    </g>
    <g id="xtick_8">
     <g id="line2d_8">
      <g>
       <use xlink:href="#m6589f8f115" x="335.952" y="307.584" style="stroke: #000000; stroke-width: 0.8"/>
      </g>
     </g>
     <g id="text_8">
      <!-- 30 -->
      <g transform="translate(329.5895 322.182437) scale(0.1 -0.1)">
       <use xlink:href="#DejaVuSans-33"/>
       <use xlink:href="#DejaVuSans-30" x="63.623047"/>
      </g>
     </g>
    </g>
    <g id="xtick_9">
     <g id="line2d_9">
      <g>
       <use xlink:href="#m6589f8f115" x="369.216" y="307.584" style="stroke: #000000; stroke-width: 0.8"/>
      </g>
     </g>
     <g id="text_9">
      <!-- 40 -->
      <g transform="translate(362.8535 322.182437) scale(0.1 -0.1)">
       <use xlink:href="#DejaVuSans-34"/>
       <use xlink:href="#DejaVuSans-30" x="63.623047"/>
      </g>
     </g>
    </g>
   </g>
   <g id="matplotlib.axis_2">
    <g id="ytick_1">
     <g id="line2d_10">
      <defs>
       <path id="ma1e897086e" d="M 0 0 
L -3.5 0 
" style="stroke: #000000; stroke-width: 0.8"/>
      </defs>
      <g>
       <use xlink:href="#ma1e897086e" x="103.104" y="307.584" style="stroke: #000000; stroke-width: 0.8"/>
      </g>
     </g>
     <g id="text_10">
      <!-- −40 -->
      <g transform="translate(74.999313 311.383219) scale(0.1 -0.1)">
       <use xlink:href="#DejaVuSans-2212"/>
       <use xlink:href="#DejaVuSans-34" x="83.789062"/>
       <use xlink:href="#DejaVuSans-30" x="147.412109"/>
      </g>
     </g>
    </g>
    <g id="ytick_2">
     <g id="line2d_11">
      <g>
       <use xlink:href="#ma1e897086e" x="103.104" y="274.32" style="stroke: #000000; stroke-width: 0.8"/>
      </g>
     </g>
     <g id="text_11">
      <!-- −30 -->
      <g transform="translate(74.999313 278.119219) scale(0.1 -0.1)">
       <use xlink:href="#DejaVuSans-2212"/>
       <use xlink:href="#DejaVuSans-33" x="83.789062"/>
       <use xlink:href="#DejaVuSans-30" x="147.412109"/>
      </g>
     </g>
    </g>
    <g id="ytick_3">
     <g id="line2d_12">
      <g>
       <use xlink:href="#ma1e897086e" x="103.104" y="241.056" style="stroke: #000000; stroke-width: 0.8"/>
      </g>
     </g>
     <g id="text_12">
      <!-- −20 -->
      <g transform="translate(74.999313 244.855219) scale(0.1 -0.1)">
       <use xlink:href="#DejaVuSans-2212"/>
       <use xlink:href="#DejaVuSans-32" x="83.789062"/>
       <use xlink:href="#DejaVuSans-30" x="147.412109"/>
      </g>
     </g>
    </g>
    <g id="ytick_4">
     <g id="line2d_13">
      <g>
       <use xlink:href="#ma1e897086e" x="103.104" y="207.792" style="stroke: #000000; stroke-width: 0.8"/>
      </g>
     </g>
     <g id="text_13">
      <!-- −10 -->
      <g transform="translate(74.999313 211.591219) scale(0.1 -0.1)">
       <use xlink:href="#DejaVuSans-2212"/>
       <use xlink:href="#DejaVuSans-31" x="83.789062"/>
       <use xlink:href="#DejaVuSans-30" x="147.412109"/>
      </g>
     </g>
    </g>
    <g id="ytick_5">
     <g id="line2d_14">
      <g>
       <use xlink:href="#ma1e897086e" x="103.104" y="174.528" style="stroke: #000000; stroke-width: 0.8"/>
      </g>
     </g>
     <g id="text_14">
      <!-- 0 -->
      <g transform="translate(89.7415 178.327219) scale(0.1 -0.1)">
       <use xlink:href="#DejaVuSans-30"/>
      </g>
     </g>
    </g>
    <g id="ytick_6">
     <g id="line2d_15">
      <g>
       <use xlink:href="#ma1e897086e" x="103.104" y="141.264" style="stroke: #000000; stroke-width: 0.8"/>
      </g>
     </g>
     <g id="text_15">
      <!-- 10 -->
      <g transform="translate(83.379 145.063219) scale(0.1 -0.1)">
       <use xlink:href="#DejaVuSans-31"/>
       <use xlink:href="#DejaVuSans-30" x="63.623047"/>
      </g>
     </g>
    </g>
    <g id="ytick_7">
     <g id="line2d_16">
      <g>
       <use xlink:href="#ma1e897086e" x="103.104" y="108" style="stroke: #000000; stroke-width: 0.8"/>
      </g>
     </g>
     <g id="text_16">
      <!-- 20 -->
      <g transform="translate(83.379 111.799219) scale(0.1 -0.1)">
       <use xlink:href="#DejaVuSans-32"/>
       <use xlink:href="#DejaVuSans-30" x="63.623047"/>
      </g>
     </g>
    </g>
    <g id="ytick_8">
     <g id="line2d_17">
      <g>
       <use xlink:href="#ma1e897086e" x="103.104" y="74.736" style="stroke: #000000; stroke-width: 0.8"/>
      </g>
     </g>
     <g id="text_17">
      <!-- 30 -->
      <g transform="translate(83.379 78.535219) scale(0.1 -0.1)">
       <use xlink:href="#DejaVuSans-33"/>
       <use xlink:href="#DejaVuSans-30" x="63.623047"/>
      </g>
     </g>
    </g>
    <g id="ytick_9">
     <g id="line2d_18">
      <g>
       <use xlink:href="#ma1e897086e" x="103.104" y="41.472" style="stroke: #000000; stroke-width: 0.8"/>
      </g>
     </g>
     <g id="text_18">
      <!-- 40 -->
      <g transform="translate(83.379 45.271219) scale(0.1 -0.1)">
       <use xlink:href="#DejaVuSans-34"/>
       <use xlink:href="#DejaVuSans-30" x="63.623047"/>
      </g>
     </g>
    </g>
   </g>
   <g id="line2d_19">
    <path d="M 250.2972 288.4572 
L 250.2972 188.6652 
" clip-path="url(#p4dc4ea6c5c)" style="fill: none; stroke: #000000; stroke-width: 0.25; stroke-linecap: square"/>
   </g>
   <g id="line2d_20">
    <path d="M 250.2972 188.6652 
L 350.0892 188.6652 
" clip-path="url(#p4dc4ea6c5c)" style="fill: none; stroke: #000000; stroke-width: 0.25; stroke-linecap: square"/>
   </g>
   <g id="line2d_21">
    <path d="M 350.0892 160.3908 
L 250.2972 160.3908 
" clip-path="url(#p4dc4ea6c5c)" style="fill: none; stroke: #000000; stroke-width: 0.25; stroke-linecap: square"/>
   </g>
   <g id="line2d_22">
    <path d="M 250.2972 160.3908 
L 250.2972 60.5988 
" clip-path="url(#p4dc4ea6c5c)" style="fill: none; stroke: #000000; stroke-width: 0.25; stroke-linecap: square"/>
   </g>
   <g id="line2d_23">
    <path d="M 222.0228 60.5988 
L 222.0228 160.3908 
" clip-path="url(#p4dc4ea6c5c)" style="fill: none; stroke: #000000; stroke-width: 0.25; stroke-linecap: square"/>
   </g>
   <g id="line2d_24">
    <path d="M 222.0228 160.3908 
L 122.2308 160.3908 
" clip-path="url(#p4dc4ea6c5c)" style="fill: none; stroke: #000000; stroke-width: 0.25; stroke-linecap: square"/>
   </g>
   <g id="line2d_25">
    <path d="M 122.2308 188.6652 
L 222.0228 188.6652 
" clip-path="url(#p4dc4ea6c5c)" style="fill: none; stroke: #000000; stroke-width: 0.25; stroke-linecap: square"/>
   </g>
   <g id="line2d_26">
    <path d="M 222.0228 188.6652 
L 222.0228 288.4572 
" clip-path="url(#p4dc4ea6c5c)" style="fill: none; stroke: #000000; stroke-width: 0.25; stroke-linecap: square"/>
   </g>
   <g id="line2d_27">
    <path d="M 250.2972 174.528 
L 350.0892 174.528 
" clip-path="url(#p4dc4ea6c5c)" style="fill: none; stroke-dasharray: 0.925,0.4; stroke-dashoffset: 0; stroke: #000000; stroke-width: 0.25"/>
   </g>
   <g id="line2d_28">
    <path d="M 236.16 160.3908 
L 236.16 60.5988 
" clip-path="url(#p4dc4ea6c5c)" style="fill: none; stroke-dasharray: 0.925,0.4; stroke-dashoffset: 0; stroke: #000000; stroke-width: 0.25"/>
   </g>
   <g id="line2d_29">
    <path d="M 222.0228 174.528 
L 122.2308 174.528 
" clip-path="url(#p4dc4ea6c5c)" style="fill: none; stroke-dasharray: 0.925,0.4; stroke-dashoffset: 0; stroke: #000000; stroke-width: 0.25"/>
   </g>
   <g id="line2d_30">
    <path d="M 236.16 188.6652 
L 236.16 288.4572 
" clip-path="url(#p4dc4ea6c5c)" style="fill: none; stroke-dasharray: 0.925,0.4; stroke-dashoffset: 0; stroke: #000000; stroke-width: 0.25"/>
   </g>
   <g id="line2d_31">
    <path d="M 146.521706 168.672181 
L 144.634213 168.672181 
L 142.746721 168.672181 
L 140.85923 168.672181 
L 138.971738 168.672181 
L 137.084243 168.67218 
L 135.196746 168.67218 
L 133.309246 168.67218 
L 131.421743 168.67218 
L 129.534236 168.67218 
L 127.646727 168.67218 
L 125.759215 168.67218 
L 123.871701 168.67218 
L 121.984185 168.67218 
L 120.096667 168.67218 
L 118.209148 168.67218 
L 116.321627 168.67218 
L 114.434106 168.67218 
L 112.546585 168.67218 
L 110.659063 168.67218 
L 108.77154 168.67218 
L 106.884018 168.67218 
L 104.996496 168.67218 
L 103.108973 168.67218 
L 101.221451 168.67218 
L 99.333929 168.67218 
L 97.446407 168.67218 
L 95.558884 168.67218 
L 93.671362 168.67218 
L 91.783841 168.67218 
L 89.896319 168.67218 
" clip-path="url(#p4dc4ea6c5c)" style="fill: none; stroke: #ff0000; stroke-opacity: 0.2; stroke-width: 0.25; stroke-linecap: square"/>
   </g>
   <g id="line2d_32">
    <path d="M 146.521706 168.672181 
L 144.634213 168.672181 
L 142.746721 168.672181 
L 140.85923 168.672181 
L 138.971738 168.672181 
L 137.084243 168.67218 
L 135.196746 168.67218 
L 133.309246 168.67218 
L 131.421743 168.67218 
L 129.534236 168.67218 
L 127.646727 168.67218 
L 125.759215 168.67218 
L 123.871701 168.67218 
L 121.984185 168.67218 
L 120.096667 168.67218 
L 118.209148 168.67218 
L 116.321627 168.67218 
L 114.434106 168.67218 
L 112.546585 168.67218 
L 110.659063 168.67218 
L 108.77154 168.67218 
L 106.884018 168.67218 
L 104.996496 168.67218 
L 103.108973 168.67218 
L 101.221451 168.67218 
L 99.333928 168.67218 
L 97.446406 168.67218 
L 95.558884 168.67218 
L 93.671362 168.67218 
L 91.78384 168.67218 
L 89.896318 168.67218 
" clip-path="url(#p4dc4ea6c5c)" style="fill: none; stroke: #ff0000; stroke-opacity: 0.4; stroke-width: 0.25; stroke-linecap: square"/>
   </g>
   <g id="line2d_33">
    <path d="M 146.521706 168.672181 
L 144.634213 168.672181 
L 142.746721 168.672181 
L 140.85923 168.672181 
L 138.971738 168.672181 
L 137.084243 168.67218 
L 135.196746 168.67218 
L 133.309246 168.67218 
L 131.421743 168.67218 
L 129.534236 168.67218 
L 127.646727 168.67218 
L 125.759215 168.67218 
L 123.871701 168.67218 
L 121.984185 168.67218 
L 120.096667 168.67218 
L 118.209148 168.67218 
L 116.321627 168.67218 
L 114.434106 168.67218 
L 112.546585 168.67218 
L 110.659063 168.67218 
L 108.77154 168.67218 
L 106.884018 168.67218 
L 104.996496 168.67218 
L 103.108973 168.67218 
L 101.221451 168.67218 
L 99.333929 168.67218 
L 97.446406 168.67218 
L 95.558884 168.67218 
L 93.671362 168.67218 
L 91.78384 168.67218 
L 89.896318 168.67218 
" clip-path="url(#p4dc4ea6c5c)" style="fill: none; stroke: #ff0000; stroke-opacity: 0.6; stroke-width: 0.25; stroke-linecap: square"/>
   </g>
   <g id="line2d_34">
    <path d="M 146.521706 168.672181 
L 144.634213 168.672181 
L 142.746721 168.672181 
L 140.85923 168.672181 
L 138.971738 168.672181 
L 137.084243 168.67218 
L 135.196746 168.67218 
L 133.309246 168.67218 
L 131.421743 168.67218 
L 129.534236 168.67218 
L 127.646727 168.67218 
L 125.759215 168.67218 
L 123.871701 168.67218 
L 121.984185 168.67218 
L 120.096667 168.67218 
L 118.209148 168.67218 
L 116.321627 168.67218 
L 114.434106 168.67218 
L 112.546585 168.67218 
L 110.659063 168.67218 
L 108.77154 168.67218 
L 106.884018 168.67218 
L 104.996496 168.67218 
L 103.108973 168.67218 
L 101.221451 168.67218 
L 99.333928 168.67218 
L 97.446406 168.67218 
L 95.558884 168.67218 
L 93.671362 168.67218 
L 91.78384 168.67218 
L 89.896318 168.67218 
" clip-path="url(#p4dc4ea6c5c)" style="fill: none; stroke: #ff0000; stroke-opacity: 0.8; stroke-width: 0.25; stroke-linecap: square"/>
   </g>
   <g id="line2d_35">
    <path d="M 146.521706 168.672181 
L 144.634213 168.672181 
L 142.746721 168.672181 
L 140.85923 168.672181 
L 138.971738 168.672181 
L 137.084243 168.67218 
L 135.196746 168.67218 
L 133.309246 168.67218 
L 131.421743 168.67218 
L 129.534236 168.67218 
L 127.646727 168.67218 
L 125.759215 168.67218 
L 123.871701 168.67218 
L 121.984185 168.67218 
L 120.096667 168.67218 
L 118.209148 168.67218 
L 116.321627 168.67218 
L 114.434106 168.67218 
L 112.546585 168.67218 
L 110.659063 168.67218 
L 108.77154 168.67218 
L 106.884018 168.67218 
L 104.996496 168.67218 
L 103.108973 168.67218 
L 101.221451 168.67218 
L 99.333929 168.67218 
L 97.446406 168.67218 
L 95.558884 168.67218 
L 93.671362 168.67218 
L 91.78384 168.67218 
L 89.896318 168.67218 
" clip-path="url(#p4dc4ea6c5c)" style="fill: none; stroke: #ff0000; stroke-width: 0.25; stroke-linecap: square"/>
   </g>
   <g id="line2d_36">
    <path d="M 242.015819 76.097005 
L 242.015819 74.34096 
L 242.015819 72.5849 
L 242.01582 70.828827 
L 242.01582 69.072742 
L 242.01582 67.316648 
L 242.01582 65.560545 
L 242.01582 63.804435 
L 242.01582 62.048321 
L 242.01582 60.292203 
L 242.01582 58.536082 
L 242.01582 56.77996 
L 242.01582 55.023837 
L 242.01582 53.267713 
L 242.01582 51.511589 
L 242.01582 49.755466 
L 242.01582 47.999343 
L 242.01582 46.243221 
L 242.01582 44.487099 
L 242.01582 42.730978 
L 242.01582 40.974858 
L 242.01582 39.218739 
L 242.01582 37.46262 
L 242.01582 35.706502 
L 242.01582 33.950384 
L 242.01582 32.194267 
L 242.01582 30.43815 
L 242.01582 28.682033 
L 242.01582 26.925916 
L 242.01582 25.1698 
L 242.01582 23.413683 
" clip-path="url(#p4dc4ea6c5c)" style="fill: none; stroke: #ff0000; stroke-opacity: 0.2; stroke-width: 0.25; stroke-linecap: square"/>
   </g>
   <g id="line2d_37">
    <path d="M 242.015819 76.097005 
L 242.015819 74.34096 
L 242.015819 72.5849 
L 242.01582 70.828827 
L 242.01582 69.072742 
L 242.01582 67.316648 
L 242.01582 65.560545 
L 242.01582 63.804435 
L 242.01582 62.048321 
L 242.01582 60.292203 
L 242.01582 58.536082 
L 242.01582 56.77996 
L 242.01582 55.023837 
L 242.01582 53.267713 
L 242.01582 51.511589 
L 242.01582 49.755466 
L 242.01582 47.999343 
L 242.01582 46.243221 
L 242.01582 44.487099 
L 242.01582 42.730979 
L 242.01582 40.974859 
L 242.01582 39.218739 
L 242.01582 37.46262 
L 242.01582 35.706502 
L 242.01582 33.950384 
L 242.01582 32.194267 
L 242.01582 30.43815 
L 242.01582 28.682033 
L 242.01582 26.925916 
L 242.01582 25.169799 
L 242.01582 23.413683 
" clip-path="url(#p4dc4ea6c5c)" style="fill: none; stroke: #ff0000; stroke-opacity: 0.4; stroke-width: 0.25; stroke-linecap: square"/>
   </g>
   <g id="line2d_38">
    <path d="M 242.015819 76.097005 
L 242.015819 74.34096 
L 242.015819 72.5849 
L 242.01582 70.828827 
L 242.01582 69.072742 
L 242.01582 67.316648 
L 242.01582 65.560545 
L 242.01582 63.804435 
L 242.01582 62.048321 
L 242.01582 60.292203 
L 242.01582 58.536082 
L 242.01582 56.77996 
L 242.01582 55.023837 
L 242.01582 53.267713 
L 242.01582 51.511589 
L 242.01582 49.755466 
L 242.01582 47.999343 
L 242.01582 46.243221 
L 242.01582 44.487099 
L 242.01582 42.730979 
L 242.01582 40.974859 
L 242.01582 39.218739 
L 242.01582 37.46262 
L 242.01582 35.706502 
L 242.01582 33.950384 
L 242.01582 32.194267 
L 242.01582 30.43815 
L 242.01582 28.682033 
L 242.01582 26.925916 
L 242.01582 25.169799 
L 242.01582 23.413683 
" clip-path="url(#p4dc4ea6c5c)" style="fill: none; stroke: #ff0000; stroke-opacity: 0.6; stroke-width: 0.25; stroke-linecap: square"/>
   </g>
   <g id="line2d_39">
    <path d="M 242.015819 76.097005 
L 242.015819 74.34096 
L 242.015819 72.5849 
L 242.01582 70.828827 
L 242.01582 69.072742 
L 242.01582 67.316648 
L 242.01582 65.560545 
L 242.01582 63.804435 
L 242.01582 62.048321 
L 242.01582 60.292203 
L 242.01582 58.536082 
L 242.01582 56.77996 
L 242.01582 55.023837 
L 242.01582 53.267713 
L 242.01582 51.511589 
L 242.01582 49.755466 
L 242.01582 47.999343 
L 242.01582 46.243221 
L 242.01582 44.487099 
L 242.01582 42.730979 
L 242.01582 40.974859 
L 242.01582 39.218739 
L 242.01582 37.46262 
L 242.01582 35.706502 
L 242.01582 33.950384 
L 242.01582 32.194267 
L 242.01582 30.43815 
L 242.01582 28.682033 
L 242.01582 26.925916 
L 242.01582 25.169799 
L 242.01582 23.413683 
" clip-path="url(#p4dc4ea6c5c)" style="fill: none; stroke: #ff0000; stroke-opacity: 0.8; stroke-width: 0.25; stroke-linecap: square"/>
   </g>
   <g id="line2d_40">
    <path d="M 242.015819 76.097005 
L 242.015819 74.34096 
L 242.015819 72.5849 
L 242.01582 70.828827 
L 242.01582 69.072742 
L 242.01582 67.316648 
L 242.01582 65.560545 
L 242.01582 63.804435 
L 242.01582 62.048321 
L 242.01582 60.292203 
L 242.01582 58.536082 
L 242.01582 56.77996 
L 242.01582 55.023837 
L 242.01582 53.267713 
L 242.01582 51.511589 
L 242.01582 49.755466 
L 242.01582 47.999343 
L 242.01582 46.243221 
L 242.01582 44.487099 
L 242.01582 42.730979 
L 242.01582 40.974859 
L 242.01582 39.218739 
L 242.01582 37.46262 
L 242.01582 35.706502 
L 242.01582 33.950384 
L 242.01582 32.194267 
L 242.01582 30.43815 
L 242.01582 28.682033 
L 242.01582 26.925916 
L 242.01582 25.169799 
L 242.01582 23.413683 
" clip-path="url(#p4dc4ea6c5c)" style="fill: none; stroke: #ff0000; stroke-width: 0.25; stroke-linecap: square"/>
   </g>
   <g id="line2d_41">
    <path d="M 230.304183 265.137882 
L 230.304183 267.002838 
L 230.304182 268.86781 
L 230.304182 270.732801 
L 230.304181 272.597814 
L 230.304181 274.462849 
L 230.30418 276.327906 
L 230.30418 278.192983 
L 230.30418 280.058079 
L 230.30418 281.923191 
L 230.30418 283.788317 
L 230.30418 285.653454 
L 230.30418 287.518601 
L 230.30418 289.383755 
L 230.30418 291.248915 
L 230.30418 293.114078 
L 230.30418 294.979244 
L 230.30418 296.844412 
L 230.30418 298.709581 
L 230.30418 300.574749 
L 230.30418 302.439918 
L 230.30418 304.305086 
L 230.30418 306.170253 
L 230.30418 308.035419 
L 230.30418 309.900585 
L 230.30418 311.765749 
L 230.30418 313.630913 
L 230.30418 315.496076 
L 230.30418 317.361239 
L 230.30418 319.226401 
L 230.30418 321.091563 
" clip-path="url(#p4dc4ea6c5c)" style="fill: none; stroke: #ff0000; stroke-opacity: 0.2; stroke-width: 0.25; stroke-linecap: square"/>
   </g>
   <g id="line2d_42">
    <path d="M 230.304183 265.137882 
L 230.304183 267.002838 
L 230.304182 268.86781 
L 230.304182 270.732801 
L 230.304181 272.597814 
L 230.304181 274.462849 
L 230.30418 276.327906 
L 230.30418 278.192983 
L 230.30418 280.058079 
L 230.30418 281.923191 
L 230.30418 283.788317 
L 230.30418 285.653454 
L 230.30418 287.518601 
L 230.30418 289.383755 
L 230.30418 291.248914 
L 230.30418 293.114078 
L 230.30418 294.979244 
L 230.30418 296.844412 
L 230.30418 298.70958 
L 230.30418 300.574749 
L 230.30418 302.439918 
L 230.30418 304.305086 
L 230.30418 306.170253 
L 230.30418 308.03542 
L 230.30418 309.900585 
L 230.30418 311.76575 
L 230.30418 313.630914 
L 230.30418 315.496078 
L 230.30418 317.361241 
L 230.30418 319.226403 
L 230.30418 321.091566 
" clip-path="url(#p4dc4ea6c5c)" style="fill: none; stroke: #ff0000; stroke-opacity: 0.4; stroke-width: 0.25; stroke-linecap: square"/>
   </g>
   <g id="line2d_43">
    <path d="M 230.304183 265.137882 
L 230.304183 267.002838 
L 230.304182 268.86781 
L 230.304182 270.732801 
L 230.304181 272.597814 
L 230.304181 274.462849 
L 230.30418 276.327906 
L 230.30418 278.192983 
L 230.30418 280.058079 
L 230.30418 281.923191 
L 230.30418 283.788317 
L 230.30418 285.653454 
L 230.30418 287.518601 
L 230.30418 289.383755 
L 230.30418 291.248914 
L 230.30418 293.114078 
L 230.30418 294.979244 
L 230.30418 296.844412 
L 230.30418 298.70958 
L 230.30418 300.574749 
L 230.30418 302.439918 
L 230.30418 304.305086 
L 230.30418 306.170253 
L 230.30418 308.035419 
L 230.30418 309.900585 
L 230.30418 311.765749 
L 230.30418 313.630913 
L 230.30418 315.496077 
L 230.30418 317.361239 
L 230.30418 319.226402 
L 230.30418 321.091564 
" clip-path="url(#p4dc4ea6c5c)" style="fill: none; stroke: #ff0000; stroke-opacity: 0.6; stroke-width: 0.25; stroke-linecap: square"/>
   </g>
   <g id="line2d_44">
    <path d="M 230.304183 265.137882 
L 230.304183 267.002838 
L 230.304182 268.86781 
L 230.304182 270.732801 
L 230.304181 272.597814 
L 230.304181 274.462849 
L 230.30418 276.327906 
L 230.30418 278.192983 
L 230.30418 280.058079 
L 230.30418 281.923191 
L 230.30418 283.788317 
L 230.30418 285.653454 
L 230.30418 287.518601 
L 230.30418 289.383755 
L 230.30418 291.248914 
L 230.30418 293.114078 
L 230.30418 294.979244 
L 230.30418 296.844412 
L 230.30418 298.709581 
L 230.30418 300.574749 
L 230.30418 302.439918 
L 230.30418 304.305086 
L 230.30418 306.170253 
L 230.30418 308.03542 
L 230.30418 309.900585 
L 230.30418 311.76575 
L 230.30418 313.630914 
L 230.30418 315.496077 
L 230.30418 317.36124 
L 230.30418 319.226403 
L 230.30418 321.091565 
" clip-path="url(#p4dc4ea6c5c)" style="fill: none; stroke: #ff0000; stroke-opacity: 0.8; stroke-width: 0.25; stroke-linecap: square"/>
   </g>
   <g id="line2d_45">
    <path d="M 230.304183 265.137882 
L 230.304183 267.002838 
L 230.304182 268.86781 
L 230.304182 270.732801 
L 230.304181 272.597814 
L 230.304181 274.462849 
L 230.30418 276.327906 
L 230.30418 278.192983 
L 230.30418 280.058079 
L 230.30418 281.923191 
L 230.30418 283.788317 
L 230.30418 285.653454 
L 230.30418 287.518601 
L 230.30418 289.383755 
L 230.30418 291.248914 
L 230.30418 293.114078 
L 230.30418 294.979244 
L 230.30418 296.844412 
L 230.30418 298.70958 
L 230.30418 300.574749 
L 230.30418 302.439918 
L 230.30418 304.305086 
L 230.30418 306.170253 
L 230.30418 308.035419 
L 230.30418 309.900585 
L 230.30418 311.765749 
L 230.30418 313.630913 
L 230.30418 315.496077 
L 230.30418 317.36124 
L 230.30418 319.226402 
L 230.30418 321.091565 
" clip-path="url(#p4dc4ea6c5c)" style="fill: none; stroke: #ff0000; stroke-width: 0.25; stroke-linecap: square"/>
   </g>
   <g id="line2d_46">
    <path d="M 326.769584 180.383819 
L 328.634586 180.383819 
L 330.499603 180.383819 
L 332.364635 180.383819 
L 334.229686 180.383819 
L 336.094754 180.38382 
L 337.959839 180.38382 
L 339.824939 180.38382 
L 341.690054 180.38382 
L 343.55518 180.38382 
L 345.420317 180.38382 
L 347.285463 180.38382 
L 349.150615 180.38382 
L 351.015772 180.38382 
L 352.880933 180.38382 
L 354.746097 180.38382 
L 356.611262 180.38382 
L 358.476429 180.38382 
L 360.341596 180.38382 
L 362.206763 180.38382 
L 364.071929 180.38382 
L 365.937096 180.38382 
L 367.802261 180.38382 
L 369.667426 180.38382 
L 371.532589 180.38382 
L 373.397753 180.38382 
L 375.262915 180.38382 
L 377.128078 180.38382 
L 378.993239 180.38382 
L 380.858401 180.38382 
L 382.723562 180.38382 
" clip-path="url(#p4dc4ea6c5c)" style="fill: none; stroke: #ff0000; stroke-opacity: 0.2; stroke-width: 0.25; stroke-linecap: square"/>
   </g>
   <g id="line2d_47">
    <path d="M 326.769584 180.383819 
L 328.634586 180.383819 
L 330.499603 180.383819 
L 332.364635 180.383819 
L 334.229686 180.383819 
L 336.094754 180.38382 
L 337.959839 180.38382 
L 339.824939 180.38382 
L 341.690054 180.38382 
L 343.55518 180.38382 
L 345.420317 180.38382 
L 347.285462 180.38382 
L 349.150614 180.38382 
L 351.015772 180.38382 
L 352.880933 180.38382 
L 354.746097 180.38382 
L 356.611262 180.38382 
L 358.476429 180.38382 
L 360.341596 180.38382 
L 362.206763 180.38382 
L 364.071929 180.38382 
L 365.937095 180.38382 
L 367.802261 180.38382 
L 369.667426 180.38382 
L 371.53259 180.38382 
L 373.397753 180.38382 
L 375.262916 180.38382 
L 377.128079 180.38382 
L 378.993241 180.38382 
L 380.858403 180.38382 
L 382.723565 180.38382 
" clip-path="url(#p4dc4ea6c5c)" style="fill: none; stroke: #ff0000; stroke-opacity: 0.4; stroke-width: 0.25; stroke-linecap: square"/>
   </g>
   <g id="line2d_48">
    <path d="M 326.769584 180.383819 
L 328.634586 180.383819 
L 330.499603 180.383819 
L 332.364635 180.383819 
L 334.229686 180.383819 
L 336.094754 180.38382 
L 337.959839 180.38382 
L 339.824939 180.38382 
L 341.690054 180.38382 
L 343.55518 180.38382 
L 345.420317 180.38382 
L 347.285463 180.38382 
L 349.150615 180.38382 
L 351.015772 180.38382 
L 352.880933 180.38382 
L 354.746097 180.38382 
L 356.611262 180.38382 
L 358.476429 180.38382 
L 360.341596 180.38382 
L 362.206763 180.38382 
L 364.071929 180.38382 
L 365.937095 180.38382 
L 367.802261 180.38382 
L 369.667426 180.38382 
L 371.53259 180.38382 
L 373.397753 180.38382 
L 375.262916 180.38382 
L 377.128078 180.38382 
L 378.99324 180.38382 
L 380.858402 180.38382 
L 382.723563 180.38382 
" clip-path="url(#p4dc4ea6c5c)" style="fill: none; stroke: #ff0000; stroke-opacity: 0.6; stroke-width: 0.25; stroke-linecap: square"/>
   </g>
   <g id="line2d_49">
    <path d="M 326.769584 180.383819 
L 328.634586 180.383819 
L 330.499603 180.383819 
L 332.364635 180.383819 
L 334.229686 180.383819 
L 336.094754 180.38382 
L 337.959839 180.38382 
L 339.824939 180.38382 
L 341.690054 180.38382 
L 343.55518 180.38382 
L 345.420317 180.38382 
L 347.285463 180.38382 
L 349.150615 180.38382 
L 351.015772 180.38382 
L 352.880933 180.38382 
L 354.746097 180.38382 
L 356.611262 180.38382 
L 358.476429 180.38382 
L 360.341596 180.38382 
L 362.206763 180.38382 
L 364.071929 180.38382 
L 365.937095 180.38382 
L 367.802261 180.38382 
L 369.667426 180.38382 
L 371.53259 180.38382 
L 373.397753 180.38382 
L 375.262916 180.38382 
L 377.128078 180.38382 
L 378.993241 180.38382 
L 380.858402 180.38382 
L 382.723564 180.38382 
" clip-path="url(#p4dc4ea6c5c)" style="fill: none; stroke: #ff0000; stroke-opacity: 0.8; stroke-width: 0.25; stroke-linecap: square"/>
   </g>
   <g id="line2d_50">
    <path d="M 326.769584 180.383819 
L 328.634586 180.383818 
L 330.499603 180.383819 
L 332.364635 180.383819 
L 334.229686 180.383819 
L 336.094754 180.38382 
L 337.959839 180.38382 
L 339.824939 180.38382 
L 341.690054 180.38382 
L 343.55518 180.38382 
L 345.420317 180.38382 
L 347.285463 180.38382 
L 349.150615 180.38382 
L 351.015772 180.38382 
L 352.880933 180.38382 
L 354.746097 180.38382 
L 356.611262 180.38382 
L 358.476429 180.38382 
L 360.341596 180.38382 
L 362.206763 180.38382 
L 364.071929 180.38382 
L 365.937095 180.38382 
L 367.802261 180.38382 
L 369.667426 180.38382 
L 371.53259 180.38382 
L 373.397753 180.38382 
L 375.262916 180.38382 
L 377.128078 180.38382 
L 378.99324 180.38382 
L 380.858402 180.38382 
L 382.723564 180.38382 
" clip-path="url(#p4dc4ea6c5c)" style="fill: none; stroke: #ff0000; stroke-width: 0.25; stroke-linecap: square"/>
   </g>
   <g id="line2d_51">
    <path d="M 242.013543 134.259016 
L 242.014974 132.436268 
L 242.015864 130.600563 
L 242.016115 128.754197 
L 242.015995 126.8993 
L 242.015818 125.037797 
L 242.015733 123.171372 
L 242.015748 121.301463 
L 242.015809 119.429263 
L 242.015862 117.555735 
L 242.015889 115.681633 
L 242.015892 113.807527 
L 242.015885 111.933826 
L 242.015874 110.060808 
L 242.015861 108.188643 
L 242.015852 106.317412 
L 242.015841 104.447135 
L 242.015829 102.577781 
L 242.01582 100.709289 
L 242.015807 98.841574 
L 242.015809 96.974542 
L 242.015806 95.108092 
L 242.015806 93.242129 
L 242.015805 91.37656 
L 242.015806 89.511302 
L 242.015806 87.646279 
L 242.015807 85.781427 
L 242.015808 83.916688 
L 242.01581 82.052017 
L 242.015813 80.187377 
L 242.015817 78.322743 
" clip-path="url(#p4dc4ea6c5c)" style="fill: none; stroke: #ff0000; stroke-opacity: 0.2; stroke-width: 0.25; stroke-linecap: square"/>
   </g>
   <g id="line2d_52">
    <path d="M 242.013543 134.259016 
L 242.014954 132.436268 
L 242.015837 130.600562 
L 242.016086 128.754195 
L 242.015971 126.899301 
L 242.015802 125.037801 
L 242.015725 123.171382 
L 242.015746 121.301479 
L 242.015811 119.429286 
L 242.015867 117.555766 
L 242.015895 115.681672 
L 242.015897 113.807574 
L 242.01589 111.933882 
L 242.015877 110.060872 
L 242.015864 108.188713 
L 242.015854 106.317488 
L 242.015841 104.447215 
L 242.015829 102.577865 
L 242.01582 100.709374 
L 242.015808 98.841659 
L 242.01581 96.974626 
L 242.015807 95.108176 
L 242.015808 93.242212 
L 242.015808 91.376644 
L 242.015808 89.511389 
L 242.015809 87.646372 
L 242.01581 85.781529 
L 242.015811 83.916804 
L 242.015813 82.052153 
L 242.015817 80.187539 
L 242.015821 78.322936 
" clip-path="url(#p4dc4ea6c5c)" style="fill: none; stroke: #ff0000; stroke-opacity: 0.4; stroke-width: 0.25; stroke-linecap: square"/>
   </g>
   <g id="line2d_53">
    <path d="M 242.013543 134.259016 
L 242.014935 132.436268 
L 242.015812 130.60056 
L 242.01606 128.754192 
L 242.01595 126.899296 
L 242.015789 125.037796 
L 242.01572 123.171376 
L 242.015746 121.301473 
L 242.015815 119.42928 
L 242.015872 117.55576 
L 242.0159 115.681666 
L 242.015902 113.807567 
L 242.015893 111.933874 
L 242.015879 110.060862 
L 242.015864 108.1887 
L 242.015853 106.317471 
L 242.01584 104.447192 
L 242.015828 102.577835 
L 242.015818 100.709337 
L 242.015806 98.841613 
L 242.015809 96.97457 
L 242.015806 95.108109 
L 242.015807 93.242134 
L 242.015807 91.376556 
L 242.015807 89.511291 
L 242.015808 87.646266 
L 242.015809 85.781418 
L 242.015809 83.916692 
L 242.015811 82.052044 
L 242.015815 80.187437 
L 242.015819 78.322844 
" clip-path="url(#p4dc4ea6c5c)" style="fill: none; stroke: #ff0000; stroke-opacity: 0.6; stroke-width: 0.25; stroke-linecap: square"/>
   </g>
   <g id="line2d_54">
    <path d="M 242.013543 134.259016 
L 242.014917 132.436268 
L 242.015788 130.600558 
L 242.016036 128.75419 
L 242.015931 126.899294 
L 242.015778 125.037795 
L 242.015716 123.171377 
L 242.015748 121.301477 
L 242.01582 119.429286 
L 242.015878 117.555769 
L 242.015906 115.681679 
L 242.015906 113.807583 
L 242.015897 111.933893 
L 242.015882 110.060885 
L 242.015865 108.188726 
L 242.015853 106.317499 
L 242.015839 104.447223 
L 242.015827 102.577867 
L 242.015817 100.709368 
L 242.015806 98.841644 
L 242.015809 96.9746 
L 242.015806 95.108137 
L 242.015808 93.242161 
L 242.015808 91.376581 
L 242.015808 89.511316 
L 242.015809 87.646292 
L 242.01581 85.781446 
L 242.015811 83.916725 
L 242.015812 82.052085 
L 242.015816 80.187489 
L 242.01582 78.32291 
" clip-path="url(#p4dc4ea6c5c)" style="fill: none; stroke: #ff0000; stroke-opacity: 0.8; stroke-width: 0.25; stroke-linecap: square"/>
   </g>
   <g id="line2d_55">
    <path d="M 242.013543 134.259016 
L 242.014899 132.436267 
L 242.015765 130.600557 
L 242.016013 128.754187 
L 242.015914 126.899291 
L 242.015768 125.037792 
L 242.015713 123.171374 
L 242.01575 121.301473 
L 242.015825 119.429283 
L 242.015883 117.555766 
L 242.015911 115.681676 
L 242.015911 113.807581 
L 242.015899 111.933891 
L 242.015883 110.060882 
L 242.015865 108.188723 
L 242.015852 106.317495 
L 242.015837 104.447217 
L 242.015825 102.577859 
L 242.015816 100.709358 
L 242.015805 98.84163 
L 242.015808 96.974582 
L 242.015806 95.108115 
L 242.015807 93.242134 
L 242.015808 91.37655 
L 242.015808 89.51128 
L 242.015809 87.646253 
L 242.01581 85.781405 
L 242.01581 83.916683 
L 242.015811 82.052045 
L 242.015815 80.187453 
L 242.015819 78.32288 
" clip-path="url(#p4dc4ea6c5c)" style="fill: none; stroke: #ff0000; stroke-width: 0.25; stroke-linecap: square"/>
   </g>
   <g id="line2d_56">
    <path d="M 195.940747 168.672193 
L 194.080174 168.67236 
L 192.216714 168.672526 
L 190.351101 168.672586 
L 188.483961 168.672519 
L 186.615815 168.672402 
L 184.747084 168.672301 
L 182.878094 168.672241 
L 181.009093 168.672211 
L 179.140261 168.672192 
L 177.271716 168.672181 
L 175.403533 168.672167 
L 173.535747 168.672165 
L 171.668367 168.672168 
L 169.801379 168.672178 
L 167.934758 168.672191 
L 166.068466 168.672198 
L 164.202464 168.672199 
L 162.336709 168.672197 
L 160.47116 168.672188 
L 158.605779 168.672182 
L 156.740531 168.672179 
L 154.875385 168.672179 
L 153.010316 168.672182 
L 151.145301 168.672184 
L 149.280324 168.672185 
L 147.41537 168.672184 
L 145.550428 168.672183 
L 143.685492 168.672182 
L 141.820558 168.672181 
L 139.955624 168.672181 
" clip-path="url(#p4dc4ea6c5c)" style="fill: none; stroke: #ff0000; stroke-opacity: 0.2; stroke-width: 0.25; stroke-linecap: square"/>
   </g>
   <g id="line2d_57">
    <path d="M 195.940747 168.672193 
L 194.080174 168.672348 
L 192.216718 168.672516 
L 190.351108 168.672576 
L 188.48397 168.672509 
L 186.615827 168.672394 
L 184.747097 168.672294 
L 182.878109 168.672236 
L 181.00911 168.672208 
L 179.14028 168.672191 
L 177.271738 168.672182 
L 175.403558 168.67217 
L 173.535775 168.672169 
L 171.668399 168.672173 
L 169.801416 168.672182 
L 167.934799 168.672195 
L 166.068512 168.672201 
L 164.202515 168.672201 
L 162.336765 168.672198 
L 160.47122 168.672189 
L 158.605844 168.672184 
L 156.7406 168.672181 
L 154.875458 168.672181 
L 153.010393 168.672183 
L 151.145382 168.672185 
L 149.280409 168.672185 
L 147.415459 168.672183 
L 145.550522 168.672182 
L 143.685591 168.672181 
L 141.820663 168.67218 
L 139.955736 168.672179 
" clip-path="url(#p4dc4ea6c5c)" style="fill: none; stroke: #ff0000; stroke-opacity: 0.4; stroke-width: 0.25; stroke-linecap: square"/>
   </g>
   <g id="line2d_58">
    <path d="M 195.940747 168.672193 
L 194.080174 168.672337 
L 192.216721 168.672507 
L 190.351111 168.672567 
L 188.483974 168.6725 
L 186.615829 168.672386 
L 184.747098 168.672289 
L 182.878108 168.672232 
L 181.009107 168.672206 
L 179.140274 168.672191 
L 177.27173 168.672183 
L 175.403547 168.672172 
L 173.535762 168.672172 
L 171.668384 168.672176 
L 169.801398 168.672184 
L 167.934779 168.672195 
L 166.06849 168.6722 
L 164.20249 168.672199 
L 162.336737 168.672197 
L 160.471191 168.672188 
L 158.605811 168.672183 
L 156.740564 168.67218 
L 154.875419 168.672181 
L 153.010349 168.672183 
L 151.145335 168.672184 
L 149.280358 168.672184 
L 147.415404 168.672183 
L 145.550464 168.672181 
L 143.68553 168.672181 
L 141.8206 168.672181 
L 139.955671 168.67218 
" clip-path="url(#p4dc4ea6c5c)" style="fill: none; stroke: #ff0000; stroke-opacity: 0.6; stroke-width: 0.25; stroke-linecap: square"/>
   </g>
   <g id="line2d_59">
    <path d="M 195.940747 168.672193 
L 194.080174 168.672327 
L 192.216723 168.672498 
L 190.351115 168.672559 
L 188.483978 168.672493 
L 186.615834 168.67238 
L 184.747103 168.672285 
L 182.878113 168.67223 
L 181.009112 168.672206 
L 179.14028 168.672192 
L 177.271735 168.672185 
L 175.403553 168.672175 
L 173.53577 168.672175 
L 171.668392 168.672178 
L 169.801408 168.672186 
L 167.934791 168.672196 
L 166.068503 168.6722 
L 164.202505 168.672199 
L 162.336754 168.672196 
L 160.471209 168.672187 
L 158.605831 168.672183 
L 156.740585 168.672181 
L 154.875442 168.672181 
L 153.010374 168.672183 
L 151.14536 168.672184 
L 149.280384 168.672184 
L 147.415432 168.672182 
L 145.550494 168.672181 
L 143.685563 168.672181 
L 141.820635 168.67218 
L 139.955709 168.67218 
" clip-path="url(#p4dc4ea6c5c)" style="fill: none; stroke: #ff0000; stroke-opacity: 0.8; stroke-width: 0.25; stroke-linecap: square"/>
   </g>
   <g id="line2d_60">
    <path d="M 195.940747 168.672193 
L 194.080174 168.672316 
L 192.216725 168.67249 
L 190.351117 168.672551 
L 188.483981 168.672486 
L 186.615836 168.672375 
L 184.747104 168.672281 
L 182.878113 168.672228 
L 181.009111 168.672206 
L 179.140278 168.672193 
L 177.271733 168.672187 
L 175.40355 168.672178 
L 173.535765 168.672177 
L 171.668387 168.672181 
L 169.801402 168.672187 
L 167.934784 168.672197 
L 166.068496 168.6722 
L 164.202497 168.672198 
L 162.336745 168.672195 
L 160.471199 168.672186 
L 158.60582 168.672182 
L 156.740573 168.672181 
L 154.875428 168.672181 
L 153.010359 168.672183 
L 151.145344 168.672184 
L 149.280367 168.672184 
L 147.415413 168.672182 
L 145.550474 168.672181 
L 143.685542 168.672181 
L 141.820614 168.67218 
L 139.955688 168.67218 
" clip-path="url(#p4dc4ea6c5c)" style="fill: none; stroke: #ff0000; stroke-width: 0.25; stroke-linecap: square"/>
   </g>
   <g id="line2d_61">
    <path d="M 274.855456 180.383647 
L 276.731431 180.38338 
L 278.610239 180.383416 
L 280.491481 180.383596 
L 282.374762 180.383808 
L 284.259704 180.383985 
L 286.145959 180.384038 
L 288.033217 180.383977 
L 289.921209 180.383897 
L 291.809706 180.383811 
L 293.698524 180.383772 
L 295.587513 180.383774 
L 297.476557 180.383797 
L 299.365572 180.383826 
L 301.254497 180.383843 
L 303.143293 180.383844 
L 305.031938 180.383835 
L 306.920422 180.383825 
L 308.808746 180.383818 
L 310.696916 180.383817 
L 312.584946 180.383818 
L 314.47285 180.383819 
L 316.360645 180.383819 
L 318.248347 180.383819 
L 320.135972 180.383819 
L 322.023535 180.383818 
L 323.911051 180.383818 
L 325.798531 180.383817 
L 327.685985 180.383817 
L 329.573424 180.383817 
L 331.460855 180.383818 
" clip-path="url(#p4dc4ea6c5c)" style="fill: none; stroke: #ff0000; stroke-opacity: 0.2; stroke-width: 0.25; stroke-linecap: square"/>
   </g>
   <g id="line2d_62">
    <path d="M 274.855456 180.383647 
L 276.731431 180.38338 
L 278.61024 180.383418 
L 280.491483 180.383597 
L 282.374764 180.383805 
L 284.259705 180.383979 
L 286.14596 180.384029 
L 288.033216 180.383968 
L 289.921206 180.383891 
L 291.809702 180.383809 
L 293.698518 180.383774 
L 295.587505 180.383778 
L 297.476547 180.383802 
L 299.36556 180.38383 
L 301.254483 180.383846 
L 303.143277 180.383847 
L 305.03192 180.383837 
L 306.920403 180.383826 
L 308.808725 180.38382 
L 310.696894 180.383818 
L 312.584923 180.383819 
L 314.472826 180.383819 
L 316.360621 180.383819 
L 318.248324 180.383819 
L 320.13595 180.383818 
L 322.023516 180.383818 
L 323.911034 180.383818 
L 325.798517 180.383818 
L 327.685976 180.383818 
L 329.573419 180.383819 
L 331.460855 180.383821 
" clip-path="url(#p4dc4ea6c5c)" style="fill: none; stroke: #ff0000; stroke-opacity: 0.4; stroke-width: 0.25; stroke-linecap: square"/>
   </g>
   <g id="line2d_63">
    <path d="M 274.855456 180.383647 
L 276.731431 180.383379 
L 278.610241 180.38342 
L 280.491485 180.383598 
L 282.374766 180.383804 
L 284.259708 180.383973 
L 286.145963 180.384021 
L 288.03322 180.383961 
L 289.92121 180.383886 
L 291.809706 180.383808 
L 293.698522 180.383776 
L 295.587509 180.383782 
L 297.476552 180.383805 
L 299.365566 180.383833 
L 301.25449 180.383848 
L 303.143285 180.383847 
L 305.031929 180.383836 
L 306.920411 180.383825 
L 308.808734 180.383819 
L 310.696904 180.383818 
L 312.584933 180.383818 
L 314.472837 180.383819 
L 316.360631 180.383818 
L 318.248333 180.383818 
L 320.135959 180.383818 
L 322.023524 180.383818 
L 323.911041 180.383818 
L 325.798523 180.383817 
L 327.68598 180.383817 
L 329.573422 180.383817 
L 331.460857 180.383819 
" clip-path="url(#p4dc4ea6c5c)" style="fill: none; stroke: #ff0000; stroke-opacity: 0.6; stroke-width: 0.25; stroke-linecap: square"/>
   </g>
   <g id="line2d_64">
    <path d="M 274.855456 180.383647 
L 276.731431 180.383379 
L 278.610242 180.383422 
L 280.491486 180.3836 
L 282.374767 180.383803 
L 284.259709 180.383969 
L 286.145963 180.384015 
L 288.03322 180.383955 
L 289.921209 180.383883 
L 291.809705 180.383807 
L 293.698521 180.383778 
L 295.587508 180.383785 
L 297.47655 180.383809 
L 299.365563 180.383836 
L 301.254487 180.383849 
L 303.143281 180.383847 
L 305.031925 180.383836 
L 306.920407 180.383825 
L 308.80873 180.383819 
L 310.696899 180.383817 
L 312.584928 180.383818 
L 314.472832 180.383819 
L 316.360627 180.383818 
L 318.248329 180.383818 
L 320.135955 180.383818 
L 322.02352 180.383818 
L 323.911038 180.383818 
L 325.79852 180.383818 
L 327.685978 180.383818 
L 329.57342 180.383818 
L 331.460855 180.38382 
" clip-path="url(#p4dc4ea6c5c)" style="fill: none; stroke: #ff0000; stroke-opacity: 0.8; stroke-width: 0.25; stroke-linecap: square"/>
   </g>
   <g id="line2d_65">
    <path d="M 274.855456 180.383647 
L 276.731431 180.383378 
L 278.610242 180.383425 
L 280.491486 180.383603 
L 282.374768 180.383803 
L 284.25971 180.383965 
L 286.145964 180.384009 
L 288.033221 180.38395 
L 289.92121 180.383879 
L 291.809706 180.383807 
L 293.698522 180.38378 
L 295.587509 180.383789 
L 297.476551 180.383812 
L 299.365564 180.383838 
L 301.254488 180.383849 
L 303.143283 180.383846 
L 305.031926 180.383835 
L 306.920409 180.383824 
L 308.808732 180.383818 
L 310.696901 180.383817 
L 312.58493 180.383818 
L 314.472834 180.383818 
L 316.360629 180.383818 
L 318.248331 180.383818 
L 320.135957 180.383818 
L 322.023522 180.383818 
L 323.91104 180.383818 
L 325.798522 180.383818 
L 327.685979 180.383817 
L 329.573422 180.383818 
L 331.460857 180.38382 
" clip-path="url(#p4dc4ea6c5c)" style="fill: none; stroke: #ff0000; stroke-width: 0.25; stroke-linecap: square"/>
   </g>
   <g id="line2d_66">
    <path d="M 244.487913 161.849076 
L 244.166484 160.203996 
L 243.70361 158.628366 
L 243.110737 157.129483 
L 242.589742 155.631798 
L 242.281206 154.097837 
L 242.097423 152.560168 
L 241.996015 151.026885 
L 241.948543 149.499731 
L 241.933781 147.978026 
L 241.938427 146.46023 
L 241.952885 144.944795 
L 241.970544 143.430373 
L 241.987789 141.915926 
L 242.002219 140.400726 
L 242.012826 138.884289 
L 242.019564 137.366328 
L 242.023037 135.846707 
L 242.024004 134.325408 
L 242.023216 132.802507 
L 242.021426 131.278148 
L 242.019249 129.752523 
L 242.017077 128.225849 
L 242.015062 126.69836 
L 242.013572 125.17029 
L 242.01259 123.641868 
L 242.012166 122.113302 
L 242.01218 120.584775 
L 242.012543 119.056423 
L 242.013242 117.528333 
L 242.014288 116.000559 
" clip-path="url(#p4dc4ea6c5c)" style="fill: none; stroke: #ff0000; stroke-opacity: 0.2; stroke-width: 0.25; stroke-linecap: square"/>
   </g>
   <g id="line2d_67">
    <path d="M 244.487913 161.849076 
L 244.166202 160.204051 
L 243.7031 158.628481 
L 243.110083 157.129655 
L 242.587277 155.632612 
L 242.278184 154.098784 
L 242.09452 152.561133 
L 241.993617 151.027858 
L 241.946801 149.500732 
L 241.93269 147.979072 
L 241.937903 146.461328 
L 241.952816 144.945943 
L 241.970817 143.431561 
L 241.988307 141.91714 
L 242.00291 140.40195 
L 242.013641 138.885505 
L 242.020479 137.367518 
L 242.024048 135.84785 
L 242.025118 134.326483 
L 242.024447 132.803495 
L 242.022794 131.279027 
L 242.020771 129.753272 
L 242.018769 128.226448 
L 242.016933 126.69879 
L 242.015627 125.170533 
L 242.014826 123.641906 
L 242.014577 122.11312 
L 242.014755 120.584359 
L 242.015273 119.055761 
L 242.016112 117.527417 
L 242.017292 115.999382 
" clip-path="url(#p4dc4ea6c5c)" style="fill: none; stroke: #ff0000; stroke-opacity: 0.4; stroke-width: 0.25; stroke-linecap: square"/>
   </g>
   <g id="line2d_68">
    <path d="M 244.487913 161.849076 
L 244.163894 160.204504 
L 243.700444 158.629031 
L 243.108888 157.129629 
L 242.584349 155.633205 
L 242.274767 154.099501 
L 242.091268 152.561867 
L 241.99089 151.028606 
L 241.944723 149.501517 
L 241.931236 147.979914 
L 241.936967 146.462235 
L 241.952267 144.946914 
L 241.970522 143.432589 
L 241.988153 141.918214 
L 242.002807 140.403057 
L 242.013527 138.886631 
L 242.020314 137.368646 
L 242.023813 135.848964 
L 242.024805 134.327565 
L 242.024061 132.804527 
L 242.022339 131.279992 
L 242.020255 129.75415 
L 242.018195 128.227222 
L 242.016302 126.699443 
L 242.014934 125.171047 
L 242.014061 123.642266 
L 242.013727 122.113312 
L 242.013805 120.58437 
L 242.014205 119.055581 
L 242.014912 117.527036 
L 242.015947 115.998796 
" clip-path="url(#p4dc4ea6c5c)" style="fill: none; stroke: #ff0000; stroke-opacity: 0.6; stroke-width: 0.25; stroke-linecap: square"/>
   </g>
   <g id="line2d_69">
    <path d="M 244.487913 161.849076 
L 244.163213 160.204638 
L 243.699847 158.629134 
L 243.109035 157.129437 
L 242.582846 155.633602 
L 242.27285 154.100004 
L 242.089574 152.562377 
L 241.989765 151.029125 
L 241.94428 149.502069 
L 241.931436 147.98052 
L 241.937699 146.462906 
L 241.953391 144.947648 
L 241.971903 143.433382 
L 241.989674 141.919055 
L 242.004377 140.403934 
L 242.015082 138.887531 
L 242.021816 137.369555 
L 242.025241 135.849867 
L 242.026156 134.328447 
L 242.025339 132.80537 
L 242.023554 131.280781 
L 242.021416 129.754869 
L 242.01931 128.227854 
L 242.017374 126.69997 
L 242.015961 125.171456 
L 242.01504 123.642542 
L 242.014647 122.113441 
L 242.014654 120.58434 
L 242.014971 119.055382 
L 242.015583 117.526661 
L 242.016512 115.998238 
" clip-path="url(#p4dc4ea6c5c)" style="fill: none; stroke: #ff0000; stroke-opacity: 0.8; stroke-width: 0.25; stroke-linecap: square"/>
   </g>
   <g id="line2d_70">
    <path d="M 244.487913 161.849076 
L 244.165246 160.204238 
L 243.702244 158.628617 
L 243.110254 157.129378 
L 242.582297 155.63417 
L 242.271764 154.100694 
L 242.088579 152.563082 
L 241.9892 151.029838 
L 241.944253 149.502811 
L 241.931906 147.981308 
L 241.938553 146.463748 
L 241.954492 144.948543 
L 241.97312 143.434323 
L 241.990894 141.920034 
L 242.005515 140.404941 
L 242.016081 138.888553 
L 242.022644 137.37058 
L 242.025888 135.850881 
L 242.026626 134.329436 
L 242.025645 132.80632 
L 242.023713 131.281676 
L 242.021448 129.755693 
L 242.019229 128.228593 
L 242.017194 126.700609 
L 242.01569 125.171979 
L 242.014679 123.642937 
L 242.014195 122.113695 
L 242.014106 120.584442 
L 242.01432 119.055321 
L 242.014822 117.526431 
L 242.015635 115.997833 
" clip-path="url(#p4dc4ea6c5c)" style="fill: none; stroke: #ff0000; stroke-width: 0.25; stroke-linecap: square"/>
   </g>
   <g id="line2d_71">
    <path d="M 241.46694 190.537004 
L 242.133976 189.030879 
L 242.926858 187.605246 
L 243.836327 186.268281 
L 244.853472 185.026861 
L 245.969661 183.886496 
L 247.176877 182.851622 
L 248.468262 181.926293 
L 249.838125 181.114657 
L 251.281706 180.421269 
L 252.794905 179.851632 
L 254.370781 179.412815 
L 255.999519 179.113318 
L 257.668101 178.961147 
L 259.360999 178.962977 
L 261.060959 179.123441 
L 262.74992 179.444736 
L 264.438593 179.812755 
L 266.159381 180.034848 
L 267.893941 180.172633 
L 269.634972 180.266439 
L 271.379758 180.334299 
L 273.127014 180.384379 
L 274.876025 180.420526 
L 276.626323 180.444995 
L 278.377581 180.458778 
L 280.129568 180.462274 
L 281.882106 180.455432 
L 283.635058 180.43796 
L 285.388311 180.409608 
L 287.141766 180.370119 
" clip-path="url(#p4dc4ea6c5c)" style="fill: none; stroke: #ff0000; stroke-opacity: 0.2; stroke-width: 0.25; stroke-linecap: square"/>
   </g>
   <g id="line2d_72">
    <path d="M 241.46694 190.537004 
L 242.13298 189.030438 
L 242.924715 187.604183 
L 243.832885 186.266362 
L 244.848566 185.023784 
L 245.963312 183.882066 
L 247.169343 182.845884 
L 248.459863 181.919439 
L 249.829124 181.106895 
L 251.27229 180.41278 
L 252.785184 179.842494 
L 254.360869 179.403191 
L 255.989459 179.103165 
L 257.657941 178.950356 
L 259.350809 178.951401 
L 261.050841 179.110903 
L 262.740012 179.431075 
L 264.42867 179.799234 
L 266.149513 180.021174 
L 267.884152 180.158705 
L 269.625281 180.252195 
L 271.370182 180.319709 
L 273.117569 180.369444 
L 274.866725 180.405282 
L 276.617179 180.429513 
L 278.368603 180.443157 
L 280.120765 180.44664 
L 281.873488 180.439928 
L 283.626631 180.422734 
L 285.380082 180.394801 
L 287.133742 180.355837 
" clip-path="url(#p4dc4ea6c5c)" style="fill: none; stroke: #ff0000; stroke-opacity: 0.4; stroke-width: 0.25; stroke-linecap: square"/>
   </g>
   <g id="line2d_73">
    <path d="M 241.46694 190.537004 
L 242.131754 189.029896 
L 242.922045 187.602844 
L 243.828559 186.263909 
L 244.84229 185.019749 
L 245.955046 183.876102 
L 247.159503 182.8381 
L 248.449031 181.910282 
L 249.817801 181.09691 
L 251.260839 180.402514 
L 252.773763 179.832272 
L 254.349664 179.393657 
L 255.978457 179.094534 
L 257.647079 178.942707 
L 259.340014 178.944682 
L 261.040063 179.104938 
L 262.729256 179.425583 
L 264.417717 179.795273 
L 266.138562 180.018476 
L 267.873304 180.157167 
L 269.614597 180.251744 
L 271.359707 180.3203 
L 273.107339 180.371062 
L 274.856768 180.407944 
L 276.607521 180.433272 
L 278.359265 180.448095 
L 280.111766 180.452866 
L 281.864844 180.44757 
L 283.61836 180.431925 
L 285.372199 180.405668 
L 287.126261 180.368479 
" clip-path="url(#p4dc4ea6c5c)" style="fill: none; stroke: #ff0000; stroke-opacity: 0.6; stroke-width: 0.25; stroke-linecap: square"/>
   </g>
   <g id="line2d_74">
    <path d="M 241.46694 190.537004 
L 242.13176 189.029899 
L 242.922041 187.602845 
L 243.828558 186.263917 
L 244.842302 185.019776 
L 245.955019 183.876098 
L 247.159349 182.837955 
L 248.448689 181.909877 
L 249.817252 181.09615 
L 251.260099 180.401333 
L 252.772866 179.830622 
L 254.348666 179.391538 
L 255.977423 179.091992 
L 257.64607 178.939811 
L 259.33908 178.941509 
L 261.039243 179.101568 
L 262.728584 179.422065 
L 264.417058 179.792376 
L 266.138036 180.015904 
L 267.87297 180.154776 
L 269.614495 180.249421 
L 271.35987 180.317962 
L 273.107792 180.368658 
L 274.857534 180.40546 
L 276.608617 180.430727 
L 278.360707 180.445543 
L 280.113566 180.450388 
L 281.867012 180.445268 
L 283.620905 180.429913 
L 285.375129 180.404055 
L 287.129582 180.367353 
" clip-path="url(#p4dc4ea6c5c)" style="fill: none; stroke: #ff0000; stroke-opacity: 0.8; stroke-width: 0.25; stroke-linecap: square"/>
   </g>
   <g id="line2d_75">
    <path d="M 241.46694 190.537004 
L 242.132706 189.030317 
L 242.924126 187.603905 
L 243.831992 186.265913 
L 244.847394 185.023157 
L 245.961804 183.881173 
L 247.167402 182.844558 
L 248.457431 181.917503 
L 249.826208 181.104215 
L 251.268953 180.409276 
L 252.781513 179.838123 
L 254.356987 179.397989 
L 255.985498 179.097253 
L 257.654022 178.943899 
L 259.347028 178.94459 
L 261.047269 179.103939 
L 262.736698 179.424121 
L 264.425146 179.794765 
L 266.146193 180.018316 
L 267.881231 180.157068 
L 269.622887 180.251486 
L 271.368415 180.31972 
L 273.116508 180.370063 
L 274.866436 180.4065 
L 276.617718 180.431426 
L 278.370017 180.445957 
L 280.123094 180.4506 
L 281.876766 180.445383 
L 283.63089 180.430045 
L 285.38535 180.404315 
L 287.140042 180.367827 
" clip-path="url(#p4dc4ea6c5c)" style="fill: none; stroke: #ff0000; stroke-width: 0.25; stroke-linecap: square"/>
   </g>
   <g id="line2d_76">
    <path d="M 228.751918 190.964202 
L 229.628989 193.197761 
L 230.21594 195.480824 
L 230.432693 197.790973 
L 230.459714 200.08138 
L 230.414679 202.348124 
L 230.360787 204.596806 
L 230.324665 206.832701 
L 230.309643 209.05968 
L 230.311337 211.28085 
L 230.316944 213.498807 
L 230.321392 215.71564 
L 230.323616 217.932904 
L 230.324395 220.151697 
L 230.324965 222.372743 
L 230.325861 224.596458 
L 230.32707 226.823021 
L 230.328367 229.052433 
L 230.329556 231.284567 
L 230.330604 233.519212 
L 230.331541 235.756102 
L 230.332471 237.994949 
L 230.333447 240.235458 
L 230.334471 242.477346 
L 230.335517 244.720349 
L 230.336566 246.96423 
L 230.337608 249.208779 
L 230.338645 251.453816 
L 230.339678 253.699189 
L 230.340715 255.944767 
L 230.341792 258.19044 
" clip-path="url(#p4dc4ea6c5c)" style="fill: none; stroke: #ff0000; stroke-opacity: 0.2; stroke-width: 0.25; stroke-linecap: square"/>
   </g>
   <g id="line2d_77">
    <path d="M 228.751918 190.964202 
L 229.629128 193.197706 
L 230.226277 195.47926 
L 230.43236 197.792268 
L 230.444154 200.085295 
L 230.388382 202.354748 
L 230.330355 204.606563 
L 230.295057 206.845823 
L 230.283061 209.076132 
L 230.287815 211.300451 
L 230.295625 213.521319 
L 230.301371 215.740772 
L 230.304203 217.960335 
L 230.305053 220.181093 
L 230.305193 222.403772 
L 230.305205 224.628803 
L 230.30517 226.856391 
L 230.305011 229.086564 
L 230.304689 231.319227 
L 230.304287 233.554201 
L 230.3039 235.791253 
L 230.303633 238.030124 
L 230.303506 240.270547 
L 230.30349 242.512262 
L 230.303531 244.755026 
L 230.303593 246.99862 
L 230.303649 249.242848 
L 230.303685 251.487541 
L 230.303697 253.732554 
L 230.303688 255.977765 
L 230.303695 258.223067 
" clip-path="url(#p4dc4ea6c5c)" style="fill: none; stroke: #ff0000; stroke-opacity: 0.4; stroke-width: 0.25; stroke-linecap: square"/>
   </g>
   <g id="line2d_78">
    <path d="M 228.751918 190.964202 
L 229.628704 193.197873 
L 230.267507 195.468879 
L 230.454349 197.784687 
L 230.436794 200.079104 
L 230.365928 202.349611 
L 230.309189 204.602803 
L 230.284044 206.843316 
L 230.282581 209.074525 
L 230.293409 211.299456 
L 230.30244 213.520745 
L 230.30651 215.740457 
L 230.306791 217.960138 
L 230.305406 220.180906 
L 230.303995 222.403519 
L 230.303112 224.628436 
L 230.3027 226.855883 
L 230.302559 229.085909 
L 230.302526 231.318436 
L 230.302534 233.553292 
L 230.302536 235.790255 
L 230.302517 238.029067 
L 230.302468 240.269465 
L 230.302389 242.511187 
L 230.302287 244.753989 
L 230.30218 246.997647 
L 230.302079 249.241962 
L 230.301988 251.48676 
L 230.301906 253.731891 
L 230.301831 255.977228 
L 230.301791 258.22266 
" clip-path="url(#p4dc4ea6c5c)" style="fill: none; stroke: #ff0000; stroke-opacity: 0.6; stroke-width: 0.25; stroke-linecap: square"/>
   </g>
   <g id="line2d_79">
    <path d="M 228.751918 190.964202 
L 229.62884 193.19782 
L 230.310127 195.456988 
L 230.475198 197.77529 
L 230.429297 200.070407 
L 230.347401 202.341761 
L 230.295165 204.596291 
L 230.280137 206.83806 
L 230.2862 209.070323 
L 230.299116 211.296188 
L 230.306408 213.518308 
L 230.307795 215.738728 
L 230.306232 217.958999 
L 230.304249 220.180247 
L 230.303067 222.403237 
L 230.302674 224.62844 
L 230.302679 226.856094 
L 230.30277 229.086261 
L 230.302803 231.318875 
L 230.302768 233.553776 
L 230.302684 235.79075 
L 230.302587 238.029549 
L 230.30249 240.269915 
L 230.302401 242.511594 
L 230.302318 244.754344 
L 230.302241 246.997945 
L 230.302166 249.242199 
L 230.30209 251.486936 
L 230.30201 253.732005 
L 230.301931 255.97728 
L 230.301883 258.22265 
" clip-path="url(#p4dc4ea6c5c)" style="fill: none; stroke: #ff0000; stroke-opacity: 0.8; stroke-width: 0.25; stroke-linecap: square"/>
   </g>
   <g id="line2d_80">
    <path d="M 228.751918 190.964202 
L 229.628899 193.197797 
L 230.357177 195.442893 
L 230.493547 197.764032 
L 230.416895 200.059612 
L 230.327325 202.332126 
L 230.283442 204.588306 
L 230.279509 206.831523 
L 230.29134 209.065049 
L 230.303921 211.292065 
L 230.308173 213.5152 
L 230.30705 215.736483 
L 230.304587 217.957469 
L 230.302888 220.179294 
L 230.302319 222.402734 
L 230.302334 224.628273 
L 230.302445 226.856168 
L 230.302454 229.086495 
L 230.302356 231.319204 
L 230.302215 233.55415 
L 230.302072 235.79113 
L 230.301945 238.029906 
L 230.301832 240.270229 
L 230.301724 242.51185 
L 230.301618 244.754534 
L 230.301512 246.998064 
L 230.301405 249.242247 
L 230.301297 251.48691 
L 230.301187 253.731907 
L 230.301079 255.97711 
L 230.301005 258.22241 
" clip-path="url(#p4dc4ea6c5c)" style="fill: none; stroke: #ff0000; stroke-width: 0.25; stroke-linecap: square"/>
   </g>
   <g id="line2d_81">
    <path d="M 230.76606 158.465641 
L 230.110593 159.978213 
L 229.330248 161.410948 
L 228.432895 162.755094 
L 227.42743 164.00386 
L 226.322175 165.151616 
L 225.125201 166.19418 
L 223.843355 167.127785 
L 222.482258 167.948611 
L 221.04652 168.652355 
L 219.540069 169.233647 
L 217.96946 169.685394 
L 216.344187 169.998979 
L 214.676943 170.16627 
L 212.983072 170.180138 
L 211.279866 170.035316 
L 209.58564 169.728972 
L 207.912494 169.284394 
L 206.192675 169.031755 
L 204.456237 168.876427 
L 202.712219 168.774066 
L 200.964063 168.702398 
L 199.213316 168.650691 
L 197.460811 168.614115 
L 195.707038 168.590387 
L 193.952326 168.578554 
L 192.196914 168.578268 
L 190.44099 168.589653 
L 188.68471 168.613085 
L 186.928216 168.649095 
L 185.171626 168.697878 
" clip-path="url(#p4dc4ea6c5c)" style="fill: none; stroke: #ff0000; stroke-opacity: 0.2; stroke-width: 0.25; stroke-linecap: square"/>
   </g>
   <g id="line2d_82">
    <path d="M 230.76606 158.465641 
L 230.110869 159.978333 
L 229.330639 161.411117 
L 228.433536 162.755402 
L 227.428481 164.004456 
L 226.323785 165.152695 
L 225.127398 166.19586 
L 223.846096 167.130119 
L 222.485467 167.951608 
L 221.050111 168.655992 
L 219.543966 169.237901 
L 217.97358 169.690197 
L 216.348469 170.004305 
L 214.681327 170.172076 
L 212.987508 170.18641 
L 211.284296 170.042094 
L 209.589987 169.736361 
L 207.916946 169.291433 
L 206.197122 169.038801 
L 204.46065 168.883601 
L 202.716581 168.781437 
L 200.968359 168.709996 
L 199.217535 168.658501 
L 197.464943 168.622081 
L 195.711074 168.598409 
L 193.956258 168.586498 
L 192.200734 168.585968 
L 190.444689 168.596924 
L 188.688279 168.61974 
L 186.931646 168.654957 
L 185.174906 168.702813 
" clip-path="url(#p4dc4ea6c5c)" style="fill: none; stroke: #ff0000; stroke-opacity: 0.4; stroke-width: 0.25; stroke-linecap: square"/>
   </g>
   <g id="line2d_83">
    <path d="M 230.76606 158.465641 
L 230.111401 159.978563 
L 229.33019 161.410803 
L 228.432861 162.754918 
L 227.428534 164.00453 
L 226.325601 165.154425 
L 225.131181 166.199793 
L 223.851563 167.136299 
L 222.492144 167.959722 
L 221.057497 168.665467 
L 219.551701 169.248187 
L 217.981305 169.700342 
L 216.356082 170.013753 
L 214.688823 170.1802 
L 212.994993 170.192831 
L 211.291907 170.046921 
L 209.597749 169.740212 
L 207.925053 169.29382 
L 206.205331 169.040043 
L 204.46886 168.883849 
L 202.724732 168.780802 
L 200.976413 168.708552 
L 199.225463 168.656278 
L 197.472723 168.619063 
L 195.718687 168.59454 
L 193.963687 168.581679 
L 192.207965 168.58007 
L 190.451706 168.589796 
L 188.695068 168.611219 
L 186.938191 168.644892 
L 185.181192 168.691086 
" clip-path="url(#p4dc4ea6c5c)" style="fill: none; stroke: #ff0000; stroke-opacity: 0.6; stroke-width: 0.25; stroke-linecap: square"/>
   </g>
   <g id="line2d_84">
    <path d="M 230.76606 158.465641 
L 230.111112 159.978438 
L 229.331301 161.411352 
L 228.434573 162.755693 
L 227.429818 164.004692 
L 226.325343 165.152737 
L 225.129172 166.195626 
L 223.84812 167.129571 
L 222.487782 167.950733 
L 221.052754 168.65479 
L 219.546953 169.236355 
L 217.976921 169.688302 
L 216.352151 170.002 
L 214.685335 170.169287 
L 212.991825 170.183015 
L 211.288921 170.037908 
L 209.594951 169.731135 
L 207.922974 169.28238 
L 206.203268 169.0283 
L 204.466569 168.872958 
L 202.722072 168.771666 
L 200.973281 168.701815 
L 199.221779 168.652305 
L 197.468423 168.617939 
L 195.713721 168.596077 
L 193.958016 168.585447 
L 192.201555 168.585434 
L 190.444527 168.595974 
L 188.687089 168.617361 
L 186.929382 168.650181 
L 185.171526 168.694885 
" clip-path="url(#p4dc4ea6c5c)" style="fill: none; stroke: #ff0000; stroke-opacity: 0.8; stroke-width: 0.25; stroke-linecap: square"/>
   </g>
   <g id="line2d_85">
    <path d="M 230.76606 158.465641 
L 230.111139 159.97845 
L 229.33126 161.411313 
L 228.434526 162.75562 
L 227.429837 164.004628 
L 226.325506 165.152751 
L 225.129502 166.195752 
L 223.848612 167.12982 
L 222.48842 167.951099 
L 221.053517 168.655256 
L 219.547825 169.23691 
L 217.977882 169.688911 
L 216.353191 170.002655 
L 214.686442 170.169971 
L 212.99299 170.183727 
L 211.29013 170.038678 
L 209.596177 169.732022 
L 207.924364 169.282749 
L 206.204692 169.028491 
L 204.467985 168.87313 
L 202.723455 168.771934 
L 200.974615 168.702252 
L 199.223051 168.65294 
L 197.469622 168.618757 
L 195.714838 168.597022 
L 193.959044 168.586425 
L 192.202486 168.58632 
L 190.445355 168.596623 
L 188.687808 168.61762 
L 186.929984 168.649906 
L 185.172005 168.693964 
" clip-path="url(#p4dc4ea6c5c)" style="fill: none; stroke: #ff0000; stroke-width: 0.25; stroke-linecap: square"/>
   </g>
   <g id="line2d_86">
    <path d="M 219.378082 179.370599 
L 220.986868 179.986016 
L 222.536523 180.753577 
L 224.005877 181.6639 
L 225.376492 182.704505 
L 226.634485 183.861881 
L 227.77016 185.122484 
L 228.777043 186.473903 
L 229.650844 187.90546 
L 230.388289 189.408484 
L 230.986022 190.976107 
L 231.439332 192.599801 
L 231.742453 194.268723 
L 231.889826 195.969467 
L 231.877075 197.686648 
L 231.701666 199.403548 
L 231.363248 201.102898 
L 230.943436 202.789531 
L 230.696712 204.514188 
L 230.539249 206.252336 
L 230.430356 207.99649 
L 230.351873 209.744027 
L 230.295066 211.49377 
L 230.2546 213.245056 
L 230.227812 214.997483 
L 230.213335 216.750785 
L 230.210616 218.50477 
L 230.219655 220.259282 
L 230.240809 222.014186 
L 230.274581 223.769355 
L 230.321318 225.524669 
" clip-path="url(#p4dc4ea6c5c)" style="fill: none; stroke: #ff0000; stroke-opacity: 0.2; stroke-width: 0.25; stroke-linecap: square"/>
   </g>
   <g id="line2d_87">
    <path d="M 219.378082 179.370599 
L 220.98695 179.985801 
L 222.536701 180.75314 
L 224.006155 181.663261 
L 225.376865 182.703688 
L 226.634958 183.860896 
L 227.770731 185.12135 
L 228.7777 186.47264 
L 229.651568 187.904092 
L 230.38906 189.407027 
L 230.98684 190.974569 
L 231.440193 192.598188 
L 231.743373 194.26704 
L 231.890834 195.96772 
L 231.878205 197.684849 
L 231.702943 199.401717 
L 231.364672 201.101054 
L 230.944375 202.787533 
L 230.697509 204.512145 
L 230.540096 206.250283 
L 230.4314 207.994445 
L 230.353225 209.742001 
L 230.296794 211.49177 
L 230.256725 213.243086 
L 230.230316 214.995547 
L 230.216161 216.748886 
L 230.213674 218.502909 
L 230.222831 220.257462 
L 230.243976 222.012409 
L 230.277618 223.767624 
L 230.324129 225.52299 
" clip-path="url(#p4dc4ea6c5c)" style="fill: none; stroke: #ff0000; stroke-opacity: 0.4; stroke-width: 0.25; stroke-linecap: square"/>
   </g>
   <g id="line2d_88">
    <path d="M 219.378082 179.370599 
L 220.987611 179.984071 
L 222.538139 180.749816 
L 224.008288 181.658779 
L 225.379521 182.698475 
L 226.638055 183.855158 
L 227.774094 185.115324 
L 228.781034 186.466588 
L 229.654444 187.898271 
L 230.391069 189.401585 
L 230.987846 190.969465 
L 231.440024 192.593371 
L 231.74214 194.262378 
L 231.88886 195.963091 
L 231.87591 197.680192 
L 231.700676 199.397044 
L 231.362517 201.096394 
L 230.941426 202.782675 
L 230.694102 204.507234 
L 230.536431 206.245373 
L 230.427641 207.989567 
L 230.349495 209.737173 
L 230.293172 211.487005 
L 230.253247 213.238394 
L 230.226974 214.990934 
L 230.212908 216.744357 
L 230.21043 218.498469 
L 230.21949 220.253114 
L 230.240421 222.008159 
L 230.273732 223.763478 
L 230.31982 225.518951 
" clip-path="url(#p4dc4ea6c5c)" style="fill: none; stroke: #ff0000; stroke-opacity: 0.6; stroke-width: 0.25; stroke-linecap: square"/>
   </g>
   <g id="line2d_89">
    <path d="M 219.378082 179.370599 
L 220.987815 179.983535 
L 222.538576 180.74879 
L 224.00892 181.657406 
L 225.380287 182.696891 
L 226.638922 183.853424 
L 227.775002 185.113513 
L 228.781883 186.464781 
L 229.655092 187.896549 
L 230.391381 189.399992 
L 230.987781 190.967982 
L 231.439529 192.591979 
L 231.74126 194.261031 
L 231.887706 195.961748 
L 231.874624 197.678837 
L 231.699375 199.395685 
L 231.361233 201.095045 
L 230.939586 202.781206 
L 230.692047 204.505766 
L 230.534372 206.243951 
L 230.425755 207.988216 
L 230.347917 209.735909 
L 230.291992 211.485838 
L 230.25251 213.237331 
L 230.22668 214.989981 
L 230.213017 216.743518 
L 230.21087 218.497746 
L 230.220161 220.252511 
L 230.24121 222.007678 
L 230.274528 223.763122 
L 230.320536 225.518722 
" clip-path="url(#p4dc4ea6c5c)" style="fill: none; stroke: #ff0000; stroke-opacity: 0.8; stroke-width: 0.25; stroke-linecap: square"/>
   </g>
   <g id="line2d_90">
    <path d="M 219.378082 179.370599 
L 220.987261 179.984988 
L 222.537349 180.751583 
L 224.007075 181.661164 
L 225.377954 182.701247 
L 226.636155 183.858206 
L 227.771931 185.118519 
L 228.778743 186.469788 
L 229.652231 187.901335 
L 230.389127 189.404432 
L 230.986222 190.97211 
L 231.438781 192.595837 
L 231.74119 194.264726 
L 231.887997 195.965376 
L 231.874874 197.682434 
L 231.699244 199.39922 
L 231.360613 201.098468 
L 230.938437 202.784491 
L 230.690708 204.50903 
L 230.533049 206.247235 
L 230.424614 207.991541 
L 230.347083 209.73929 
L 230.291545 211.489283 
L 230.252486 213.240846 
L 230.227072 214.99357 
L 230.213779 216.747185 
L 230.21192 218.501493 
L 230.221397 220.256341 
L 230.242513 222.011593 
L 230.275784 223.767125 
L 230.321654 225.522817 
" clip-path="url(#p4dc4ea6c5c)" style="fill: none; stroke: #ff0000; stroke-width: 0.25; stroke-linecap: square"/>
   </g>
   <g id="patch_15">
    <path d="M 103.104 307.584 
L 103.104 41.472 
" style="fill: none; stroke: #000000; stroke-width: 0.8; stroke-linejoin: miter; stroke-linecap: square"/>
   </g>
   <g id="patch_16">
    <path d="M 369.216 307.584 
L 369.216 41.472 
" style="fill: none; stroke: #000000; stroke-width: 0.8; stroke-linejoin: miter; stroke-linecap: square"/>
   </g>
   <g id="patch_17">
    <path d="M 103.104 307.584 
L 369.216 307.584 
" style="fill: none; stroke: #000000; stroke-width: 0.8; stroke-linejoin: miter; stroke-linecap: square"/>
   </g>
   <g id="patch_18">
    <path d="M 103.104 41.472 
L 369.216 41.472 
" style="fill: none; stroke: #000000; stroke-width: 0.8; stroke-linejoin: miter; stroke-linecap: square"/>
   </g>
   <g id="text_19">
    <!-- Time:  75 ms -->
    <g transform="translate(264.253887 54.7776) scale(0.1 -0.1)">
     <defs>
      <path id="DejaVuSans-54" d="M -19 4666 
L 3928 4666 
L 3928 4134 
L 2272 4134 
L 2272 0 
L 1638 0 
L 1638 4134 
L -19 4134 
L -19 4666 
z
" transform="scale(0.015625)"/>
      <path id="DejaVuSans-69" d="M 603 3500 
L 1178 3500 
L 1178 0 
L 603 0 
L 603 3500 
z
M 603 4863 
L 1178 4863 
L 1178 4134 
L 603 4134 
L 603 4863 
z
" transform="scale(0.015625)"/>
      <path id="DejaVuSans-6d" d="M 3328 2828 
Q 3544 3216 3844 3400 
Q 4144 3584 4550 3584 
Q 5097 3584 5394 3201 
Q 5691 2819 5691 2113 
L 5691 0 
L 5113 0 
L 5113 2094 
Q 5113 2597 4934 2840 
Q 4756 3084 4391 3084 
Q 3944 3084 3684 2787 
Q 3425 2491 3425 1978 
L 3425 0 
L 2847 0 
L 2847 2094 
Q 2847 2600 2669 2842 
Q 2491 3084 2119 3084 
Q 1678 3084 1418 2786 
Q 1159 2488 1159 1978 
L 1159 0 
L 581 0 
L 581 3500 
L 1159 3500 
L 1159 2956 
Q 1356 3278 1631 3431 
Q 1906 3584 2284 3584 
Q 2666 3584 2933 3390 
Q 3200 3197 3328 2828 
z
" transform="scale(0.015625)"/>
      <path id="DejaVuSans-65" d="M 3597 1894 
L 3597 1613 
L 953 1613 
Q 991 1019 1311 708 
Q 1631 397 2203 397 
Q 2534 397 2845 478 
Q 3156 559 3463 722 
L 3463 178 
Q 3153 47 2828 -22 
Q 2503 -91 2169 -91 
Q 1331 -91 842 396 
Q 353 884 353 1716 
Q 353 2575 817 3079 
Q 1281 3584 2069 3584 
Q 2775 3584 3186 3129 
Q 3597 2675 3597 1894 
z
M 3022 2063 
Q 3016 2534 2758 2815 
Q 2500 3097 2075 3097 
Q 1594 3097 1305 2825 
Q 1016 2553 972 2059 
L 3022 2063 
z
" transform="scale(0.015625)"/>
      <path id="DejaVuSans-3a" d="M 750 794 
L 1409 794 
L 1409 0 
L 750 0 
L 750 794 
z
M 750 3309 
L 1409 3309 
L 1409 2516 
L 750 2516 
L 750 3309 
z
" transform="scale(0.015625)"/>
      <path id="DejaVuSans-20" transform="scale(0.015625)"/>
      <path id="DejaVuSans-37" d="M 525 4666 
L 3525 4666 
L 3525 4397 
L 1831 0 
L 1172 0 
L 2766 4134 
L 525 4134 
L 525 4666 
z
" transform="scale(0.015625)"/>
      <path id="DejaVuSans-35" d="M 691 4666 
L 3169 4666 
L 3169 4134 
L 1269 4134 
L 1269 2991 
Q 1406 3038 1543 3061 
Q 1681 3084 1819 3084 
Q 2600 3084 3056 2656 
Q 3513 2228 3513 1497 
Q 3513 744 3044 326 
Q 2575 -91 1722 -91 
Q 1428 -91 1123 -41 
Q 819 9 494 109 
L 494 744 
Q 775 591 1075 516 
Q 1375 441 1709 441 
Q 2250 441 2565 725 
Q 2881 1009 2881 1497 
Q 2881 1984 2565 2268 
Q 2250 2553 1709 2553 
Q 1456 2553 1204 2497 
Q 953 2441 691 2322 
L 691 4666 
z
" transform="scale(0.015625)"/>
      <path id="DejaVuSans-73" d="M 2834 3397 
L 2834 2853 
Q 2591 2978 2328 3040 
Q 2066 3103 1784 3103 
Q 1356 3103 1142 2972 
Q 928 2841 928 2578 
Q 928 2378 1081 2264 
Q 1234 2150 1697 2047 
L 1894 2003 
Q 2506 1872 2764 1633 
Q 3022 1394 3022 966 
Q 3022 478 2636 193 
Q 2250 -91 1575 -91 
Q 1294 -91 989 -36 
Q 684 19 347 128 
L 347 722 
Q 666 556 975 473 
Q 1284 391 1588 391 
Q 1994 391 2212 530 
Q 2431 669 2431 922 
Q 2431 1156 2273 1281 
Q 2116 1406 1581 1522 
L 1381 1569 
Q 847 1681 609 1914 
Q 372 2147 372 2553 
Q 372 3047 722 3315 
Q 1072 3584 1716 3584 
Q 2034 3584 2315 3537 
Q 2597 3491 2834 3397 
z
" transform="scale(0.015625)"/>
     </defs>
     <use xlink:href="#DejaVuSans-54"/>
     <use xlink:href="#DejaVuSans-69" x="57.958984"/>
     <use xlink:href="#DejaVuSans-6d" x="85.742188"/>
     <use xlink:href="#DejaVuSans-65" x="183.154297"/>
     <use xlink:href="#DejaVuSans-3a" x="244.677734"/>
     <use xlink:href="#DejaVuSans-20" x="278.369141"/>
     <use xlink:href="#DejaVuSans-20" x="310.15625"/>
     <use xlink:href="#DejaVuSans-37" x="341.943359"/>
     <use xlink:href="#DejaVuSans-35" x="405.566406"/>
     <use xlink:href="#DejaVuSans-20" x="469.189453"/>
     <use xlink:href="#DejaVuSans-6d" x="500.976562"/>
     <use xlink:href="#DejaVuSans-73" x="598.388672"/>
    </g>
   </g>
  </g>
 </g>
 <defs>
  <clipPath id="p4dc4ea6c5c">
   <rect x="103.104" y="41.472" width="266.112" height="266.112"/>
  </clipPath>
 </defs>
</svg>
