<?xml version="1.0" encoding="utf-8" standalone="no"?>
<!DOCTYPE svg PUBLIC "-//W3C//DTD SVG 1.1//EN"
  "http://www.w3.org/Graphics/SVG/1.1/DTD/svg11.dtd">
<svg xmlns:xlink="http://www.w3.org/1999/xlink" width="460.8pt" height="345.6pt" viewBox="0 0 460.8 345.6" xmlns="http://www.w3.org/2000/svg" version="1.1">
 <metadata>
  <rdf:RDF xmlns:dc="http://purl.org/dc/elements/1.1/" xmlns:cc="http://creativecommons.org/ns#" xmlns:rdf="http://www.w3.org/1999/02/22-rdf-syntax-ns#">
   <cc:Work>
    <dc:type rdf:resource="http://purl.org/dc/dcmitype/StillImage"/>
    <dc:date>2024-01-23T16:31:50.879970</dc:date>
    <dc:format>image/svg+xml</dc:format>
    <dc:creator>
     <cc:Agent>
      <dc:title>Matplotlib v3.8.2, https://matplotlib.org/</dc:title>
     </cc:Agent>
    </dc:creator>
   </cc:Work>
  </rdf:RDF>
 </metadata>
 <defs>
  <style type="text/css">*{stroke-linejoin: round; stroke-linecap: butt}</style>
 </defs>
 <g id="figure_1">
  <g id="patch_1">
   <path d="M 0 345.6 
L 460.8 345.6 
L 460.8 0 
L 0 0 
z
" style="fill: #ffffff"/>
  </g>
  <g id="axes_1">
   <g id="patch_2">
    <path d="M 103.104 307.584 
L 369.216 307.584 
L 369.216 41.472 
L 103.104 41.472 
z
" style="fill: #ffffff"/>
   </g>
   <g id="patch_3">
    <path d="M 131.580414 165.844738 
L 119.938014 165.844742 
L 119.938016 171.499622 
L 131.580416 171.499618 
z
" clip-path="url(#pf6a71d6efe)" style="fill: #00008b"/>
   </g>
   <g id="patch_4">
    <path d="M 244.843261 62.601159 
L 244.843259 50.958759 
L 239.188379 50.95876 
L 239.188381 62.60116 
z
" clip-path="url(#pf6a71d6efe)" style="fill: #800000"/>
   </g>
   <g id="patch_5">
    <path d="M 227.476739 279.832256 
L 227.476742 291.474656 
L 233.131622 291.474654 
L 233.131619 279.832254 
z
" clip-path="url(#pf6a71d6efe)" style="fill: #006400"/>
   </g>
   <g id="patch_6">
    <path d="M 341.464263 183.21126 
L 353.106663 183.21126 
L 353.106663 177.55638 
L 341.464263 177.55638 
z
" clip-path="url(#pf6a71d6efe)" style="fill: #4b0082"/>
   </g>
   <g id="patch_7">
    <path d="M 244.84438 119.628215 
L 244.842302 107.985815 
L 239.187422 107.986824 
L 239.1895 119.629224 
z
" clip-path="url(#pf6a71d6efe)" style="fill: #0000ff"/>
   </g>
   <g id="patch_8">
    <path d="M 181.224048 165.843076 
L 169.581649 165.846361 
L 169.583244 171.501241 
L 181.225644 171.497956 
z
" clip-path="url(#pf6a71d6efe)" style="fill: #ff0000"/>
   </g>
   <g id="patch_9">
    <path d="M 289.76637 183.211309 
L 301.40877 183.211226 
L 301.408729 177.556346 
L 289.766329 177.556429 
z
" clip-path="url(#pf6a71d6efe)" style="fill: #dbdc56"/>
   </g>
   <g id="patch_10">
    <path d="M 245.040562 150.702911 
L 244.663708 139.066611 
L 239.011791 139.249654 
L 239.388645 150.885954 
z
" clip-path="url(#pf6a71d6efe)" style="fill: #9400d3"/>
   </g>
   <g id="patch_11">
    <path d="M 250.63036 184.706935 
L 260.801895 179.042541 
L 258.050617 174.102081 
L 247.879083 179.766476 
z
" clip-path="url(#pf6a71d6efe)" style="fill: #1e90ff"/>
   </g>
   <g id="patch_12">
    <path d="M 227.463578 209.92349 
L 227.496405 221.565844 
L 233.151263 221.549899 
L 233.118436 209.907546 
z
" clip-path="url(#pf6a71d6efe)" style="fill: #ff4500"/>
   </g>
   <g id="patch_13">
    <path d="M 221.655979 164.353317 
L 211.531239 170.100936 
L 214.32294 175.018667 
L 224.44768 169.271048 
z
" clip-path="url(#pf6a71d6efe)" style="fill: #7cfc00"/>
   </g>
   <g id="patch_14">
    <path d="M 226.143785 188.861545 
L 231.773221 199.052469 
L 236.723098 196.318171 
L 231.093662 186.127248 
z
" clip-path="url(#pf6a71d6efe)" style="fill: #ff00ff"/>
   </g>
   <g id="matplotlib.axis_1">
    <g id="xtick_1">
     <g id="line2d_1">
      <defs>
       <path id="m61b5f07041" d="M 0 0 
L 0 3.5 
" style="stroke: #000000; stroke-width: 0.8"/>
      </defs>
      <g>
       <use xlink:href="#m61b5f07041" x="103.104" y="307.584" style="stroke: #000000; stroke-width: 0.8"/>
      </g>
     </g>
     <g id="text_1">
      <!-- −40 -->
      <g transform="translate(92.551656 322.182437) scale(0.1 -0.1)">
       <defs>
        <path id="DejaVuSans-2212" d="M 678 2272 
L 4684 2272 
L 4684 1741 
L 678 1741 
L 678 2272 
z
" transform="scale(0.015625)"/>
        <path id="DejaVuSans-34" d="M 2419 4116 
L 825 1625 
L 2419 1625 
L 2419 4116 
z
M 2253 4666 
L 3047 4666 
L 3047 1625 
L 3713 1625 
L 3713 1100 
L 3047 1100 
L 3047 0 
L 2419 0 
L 2419 1100 
L 313 1100 
L 313 1709 
L 2253 4666 
z
" transform="scale(0.015625)"/>
        <path id="DejaVuSans-30" d="M 2034 4250 
Q 1547 4250 1301 3770 
Q 1056 3291 1056 2328 
Q 1056 1369 1301 889 
Q 1547 409 2034 409 
Q 2525 409 2770 889 
Q 3016 1369 3016 2328 
Q 3016 3291 2770 3770 
Q 2525 4250 2034 4250 
z
M 2034 4750 
Q 2819 4750 3233 4129 
Q 3647 3509 3647 2328 
Q 3647 1150 3233 529 
Q 2819 -91 2034 -91 
Q 1250 -91 836 529 
Q 422 1150 422 2328 
Q 422 3509 836 4129 
Q 1250 4750 2034 4750 
z
" transform="scale(0.015625)"/>
       </defs>
       <use xlink:href="#DejaVuSans-2212"/>
       <use xlink:href="#DejaVuSans-34" x="83.789062"/>
       <use xlink:href="#DejaVuSans-30" x="147.412109"/>
      </g>
     </g>
    </g>
    <g id="xtick_2">
     <g id="line2d_2">
      <g>
       <use xlink:href="#m61b5f07041" x="136.368" y="307.584" style="stroke: #000000; stroke-width: 0.8"/>
      </g>
     </g>
     <g id="text_2">
      <!-- −30 -->
      <g transform="translate(125.815656 322.182437) scale(0.1 -0.1)">
       <defs>
        <path id="DejaVuSans-33" d="M 2597 2516 
Q 3050 2419 3304 2112 
Q 3559 1806 3559 1356 
Q 3559 666 3084 287 
Q 2609 -91 1734 -91 
Q 1441 -91 1130 -33 
Q 819 25 488 141 
L 488 750 
Q 750 597 1062 519 
Q 1375 441 1716 441 
Q 2309 441 2620 675 
Q 2931 909 2931 1356 
Q 2931 1769 2642 2001 
Q 2353 2234 1838 2234 
L 1294 2234 
L 1294 2753 
L 1863 2753 
Q 2328 2753 2575 2939 
Q 2822 3125 2822 3475 
Q 2822 3834 2567 4026 
Q 2313 4219 1838 4219 
Q 1578 4219 1281 4162 
Q 984 4106 628 3988 
L 628 4550 
Q 988 4650 1302 4700 
Q 1616 4750 1894 4750 
Q 2613 4750 3031 4423 
Q 3450 4097 3450 3541 
Q 3450 3153 3228 2886 
Q 3006 2619 2597 2516 
z
" transform="scale(0.015625)"/>
       </defs>
       <use xlink:href="#DejaVuSans-2212"/>
       <use xlink:href="#DejaVuSans-33" x="83.789062"/>
       <use xlink:href="#DejaVuSans-30" x="147.412109"/>
      </g>
     </g>
    </g>
    <g id="xtick_3">
     <g id="line2d_3">
      <g>
       <use xlink:href="#m61b5f07041" x="169.632" y="307.584" style="stroke: #000000; stroke-width: 0.8"/>
      </g>
     </g>
     <g id="text_3">
      <!-- −20 -->
      <g transform="translate(159.079656 322.182437) scale(0.1 -0.1)">
       <defs>
        <path id="DejaVuSans-32" d="M 1228 531 
L 3431 531 
L 3431 0 
L 469 0 
L 469 531 
Q 828 903 1448 1529 
Q 2069 2156 2228 2338 
Q 2531 2678 2651 2914 
Q 2772 3150 2772 3378 
Q 2772 3750 2511 3984 
Q 2250 4219 1831 4219 
Q 1534 4219 1204 4116 
Q 875 4013 500 3803 
L 500 4441 
Q 881 4594 1212 4672 
Q 1544 4750 1819 4750 
Q 2544 4750 2975 4387 
Q 3406 4025 3406 3419 
Q 3406 3131 3298 2873 
Q 3191 2616 2906 2266 
Q 2828 2175 2409 1742 
Q 1991 1309 1228 531 
z
" transform="scale(0.015625)"/>
       </defs>
       <use xlink:href="#DejaVuSans-2212"/>
       <use xlink:href="#DejaVuSans-32" x="83.789062"/>
       <use xlink:href="#DejaVuSans-30" x="147.412109"/>
      </g>
     </g>
    </g>
    <g id="xtick_4">
     <g id="line2d_4">
      <g>
       <use xlink:href="#m61b5f07041" x="202.896" y="307.584" style="stroke: #000000; stroke-width: 0.8"/>
      </g>
     </g>
     <g id="text_4">
      <!-- −10 -->
      <g transform="translate(192.343656 322.182437) scale(0.1 -0.1)">
       <defs>
        <path id="DejaVuSans-31" d="M 794 531 
L 1825 531 
L 1825 4091 
L 703 3866 
L 703 4441 
L 1819 4666 
L 2450 4666 
L 2450 531 
L 3481 531 
L 3481 0 
L 794 0 
L 794 531 
z
" transform="scale(0.015625)"/>
       </defs>
       <use xlink:href="#DejaVuSans-2212"/>
       <use xlink:href="#DejaVuSans-31" x="83.789062"/>
       <use xlink:href="#DejaVuSans-30" x="147.412109"/>
      </g>
     </g>
    </g>
    <g id="xtick_5">
     <g id="line2d_5">
      <g>
       <use xlink:href="#m61b5f07041" x="236.16" y="307.584" style="stroke: #000000; stroke-width: 0.8"/>
      </g>
     </g>
     <g id="text_5">
      <!-- 0 -->
      <g transform="translate(232.97875 322.182437) scale(0.1 -0.1)">
       <use xlink:href="#DejaVuSans-30"/>
      </g>
     </g>
    </g>
    <g id="xtick_6">
     <g id="line2d_6">
      <g>
       <use xlink:href="#m61b5f07041" x="269.424" y="307.584" style="stroke: #000000; stroke-width: 0.8"/>
      </g>
     </g>
     <g id="text_6">
      <!-- 10 -->
      <g transform="translate(263.0615 322.182437) scale(0.1 -0.1)">
       <use xlink:href="#DejaVuSans-31"/>
       <use xlink:href="#DejaVuSans-30" x="63.623047"/>
      </g>
     </g>
    </g>
    <g id="xtick_7">
     <g id="line2d_7">
      <g>
       <use xlink:href="#m61b5f07041" x="302.688" y="307.584" style="stroke: #000000; stroke-width: 0.8"/>
      </g>
     </g>
     <g id="text_7">
      <!-- 20 -->
      <g transform="translate(296.3255 322.182437) scale(0.1 -0.1)">
       <use xlink:href="#DejaVuSans-32"/>
       <use xlink:href="#DejaVuSans-30" x="63.623047"/>
      </g>
     </g>
    </g>
    <g id="xtick_8">
     <g id="line2d_8">
      <g>
       <use xlink:href="#m61b5f07041" x="335.952" y="307.584" style="stroke: #000000; stroke-width: 0.8"/>
      </g>
     </g>
     <g id="text_8">
      <!-- 30 -->
      <g transform="translate(329.5895 322.182437) scale(0.1 -0.1)">
       <use xlink:href="#DejaVuSans-33"/>
       <use xlink:href="#DejaVuSans-30" x="63.623047"/>
      </g>
     </g>
    </g>
    <g id="xtick_9">
     <g id="line2d_9">
      <g>
       <use xlink:href="#m61b5f07041" x="369.216" y="307.584" style="stroke: #000000; stroke-width: 0.8"/>
      </g>
     </g>
     <g id="text_9">
      <!-- 40 -->
      <g transform="translate(362.8535 322.182437) scale(0.1 -0.1)">
       <use xlink:href="#DejaVuSans-34"/>
       <use xlink:href="#DejaVuSans-30" x="63.623047"/>
      </g>
     </g>
    </g>
   </g>
   <g id="matplotlib.axis_2">
    <g id="ytick_1">
     <g id="line2d_10">
      <defs>
       <path id="mc3037dd035" d="M 0 0 
L -3.5 0 
" style="stroke: #000000; stroke-width: 0.8"/>
      </defs>
      <g>
       <use xlink:href="#mc3037dd035" x="103.104" y="307.584" style="stroke: #000000; stroke-width: 0.8"/>
      </g>
     </g>
     <g id="text_10">
      <!-- −40 -->
      <g transform="translate(74.999313 311.383219) scale(0.1 -0.1)">
       <use xlink:href="#DejaVuSans-2212"/>
       <use xlink:href="#DejaVuSans-34" x="83.789062"/>
       <use xlink:href="#DejaVuSans-30" x="147.412109"/>
      </g>
     </g>
    </g>
    <g id="ytick_2">
     <g id="line2d_11">
      <g>
       <use xlink:href="#mc3037dd035" x="103.104" y="274.32" style="stroke: #000000; stroke-width: 0.8"/>
      </g>
     </g>
     <g id="text_11">
      <!-- −30 -->
      <g transform="translate(74.999313 278.119219) scale(0.1 -0.1)">
       <use xlink:href="#DejaVuSans-2212"/>
       <use xlink:href="#DejaVuSans-33" x="83.789062"/>
       <use xlink:href="#DejaVuSans-30" x="147.412109"/>
      </g>
     </g>
    </g>
    <g id="ytick_3">
     <g id="line2d_12">
      <g>
       <use xlink:href="#mc3037dd035" x="103.104" y="241.056" style="stroke: #000000; stroke-width: 0.8"/>
      </g>
     </g>
     <g id="text_12">
      <!-- −20 -->
      <g transform="translate(74.999313 244.855219) scale(0.1 -0.1)">
       <use xlink:href="#DejaVuSans-2212"/>
       <use xlink:href="#DejaVuSans-32" x="83.789062"/>
       <use xlink:href="#DejaVuSans-30" x="147.412109"/>
      </g>
     </g>
    </g>
    <g id="ytick_4">
     <g id="line2d_13">
      <g>
       <use xlink:href="#mc3037dd035" x="103.104" y="207.792" style="stroke: #000000; stroke-width: 0.8"/>
      </g>
     </g>
     <g id="text_13">
      <!-- −10 -->
      <g transform="translate(74.999313 211.591219) scale(0.1 -0.1)">
       <use xlink:href="#DejaVuSans-2212"/>
       <use xlink:href="#DejaVuSans-31" x="83.789062"/>
       <use xlink:href="#DejaVuSans-30" x="147.412109"/>
      </g>
     </g>
    </g>
    <g id="ytick_5">
     <g id="line2d_14">
      <g>
       <use xlink:href="#mc3037dd035" x="103.104" y="174.528" style="stroke: #000000; stroke-width: 0.8"/>
      </g>
     </g>
     <g id="text_14">
      <!-- 0 -->
      <g transform="translate(89.7415 178.327219) scale(0.1 -0.1)">
       <use xlink:href="#DejaVuSans-30"/>
      </g>
     </g>
    </g>
    <g id="ytick_6">
     <g id="line2d_15">
      <g>
       <use xlink:href="#mc3037dd035" x="103.104" y="141.264" style="stroke: #000000; stroke-width: 0.8"/>
      </g>
     </g>
     <g id="text_15">
      <!-- 10 -->
      <g transform="translate(83.379 145.063219) scale(0.1 -0.1)">
       <use xlink:href="#DejaVuSans-31"/>
       <use xlink:href="#DejaVuSans-30" x="63.623047"/>
      </g>
     </g>
    </g>
    <g id="ytick_7">
     <g id="line2d_16">
      <g>
       <use xlink:href="#mc3037dd035" x="103.104" y="108" style="stroke: #000000; stroke-width: 0.8"/>
      </g>
     </g>
     <g id="text_16">
      <!-- 20 -->
      <g transform="translate(83.379 111.799219) scale(0.1 -0.1)">
       <use xlink:href="#DejaVuSans-32"/>
       <use xlink:href="#DejaVuSans-30" x="63.623047"/>
      </g>
     </g>
    </g>
    <g id="ytick_8">
     <g id="line2d_17">
      <g>
       <use xlink:href="#mc3037dd035" x="103.104" y="74.736" style="stroke: #000000; stroke-width: 0.8"/>
      </g>
     </g>
     <g id="text_17">
      <!-- 30 -->
      <g transform="translate(83.379 78.535219) scale(0.1 -0.1)">
       <use xlink:href="#DejaVuSans-33"/>
       <use xlink:href="#DejaVuSans-30" x="63.623047"/>
      </g>
     </g>
    </g>
    <g id="ytick_9">
     <g id="line2d_18">
      <g>
       <use xlink:href="#mc3037dd035" x="103.104" y="41.472" style="stroke: #000000; stroke-width: 0.8"/>
      </g>
     </g>
     <g id="text_18">
      <!-- 40 -->
      <g transform="translate(83.379 45.271219) scale(0.1 -0.1)">
       <use xlink:href="#DejaVuSans-34"/>
       <use xlink:href="#DejaVuSans-30" x="63.623047"/>
      </g>
     </g>
    </g>
   </g>
   <g id="line2d_19">
    <path d="M 250.2972 288.4572 
L 250.2972 188.6652 
" clip-path="url(#pf6a71d6efe)" style="fill: none; stroke: #000000; stroke-width: 0.25; stroke-linecap: square"/>
   </g>
   <g id="line2d_20">
    <path d="M 250.2972 188.6652 
L 350.0892 188.6652 
" clip-path="url(#pf6a71d6efe)" style="fill: none; stroke: #000000; stroke-width: 0.25; stroke-linecap: square"/>
   </g>
   <g id="line2d_21">
    <path d="M 350.0892 160.3908 
L 250.2972 160.3908 
" clip-path="url(#pf6a71d6efe)" style="fill: none; stroke: #000000; stroke-width: 0.25; stroke-linecap: square"/>
   </g>
   <g id="line2d_22">
    <path d="M 250.2972 160.3908 
L 250.2972 60.5988 
" clip-path="url(#pf6a71d6efe)" style="fill: none; stroke: #000000; stroke-width: 0.25; stroke-linecap: square"/>
   </g>
   <g id="line2d_23">
    <path d="M 222.0228 60.5988 
L 222.0228 160.3908 
" clip-path="url(#pf6a71d6efe)" style="fill: none; stroke: #000000; stroke-width: 0.25; stroke-linecap: square"/>
   </g>
   <g id="line2d_24">
    <path d="M 222.0228 160.3908 
L 122.2308 160.3908 
" clip-path="url(#pf6a71d6efe)" style="fill: none; stroke: #000000; stroke-width: 0.25; stroke-linecap: square"/>
   </g>
   <g id="line2d_25">
    <path d="M 122.2308 188.6652 
L 222.0228 188.6652 
" clip-path="url(#pf6a71d6efe)" style="fill: none; stroke: #000000; stroke-width: 0.25; stroke-linecap: square"/>
   </g>
   <g id="line2d_26">
    <path d="M 222.0228 188.6652 
L 222.0228 288.4572 
" clip-path="url(#pf6a71d6efe)" style="fill: none; stroke: #000000; stroke-width: 0.25; stroke-linecap: square"/>
   </g>
   <g id="line2d_27">
    <path d="M 250.2972 174.528 
L 350.0892 174.528 
" clip-path="url(#pf6a71d6efe)" style="fill: none; stroke-dasharray: 0.925,0.4; stroke-dashoffset: 0; stroke: #000000; stroke-width: 0.25"/>
   </g>
   <g id="line2d_28">
    <path d="M 236.16 160.3908 
L 236.16 60.5988 
" clip-path="url(#pf6a71d6efe)" style="fill: none; stroke-dasharray: 0.925,0.4; stroke-dashoffset: 0; stroke: #000000; stroke-width: 0.25"/>
   </g>
   <g id="line2d_29">
    <path d="M 222.0228 174.528 
L 122.2308 174.528 
" clip-path="url(#pf6a71d6efe)" style="fill: none; stroke-dasharray: 0.925,0.4; stroke-dashoffset: 0; stroke: #000000; stroke-width: 0.25"/>
   </g>
   <g id="line2d_30">
    <path d="M 236.16 188.6652 
L 236.16 288.4572 
" clip-path="url(#pf6a71d6efe)" style="fill: none; stroke-dasharray: 0.925,0.4; stroke-dashoffset: 0; stroke: #000000; stroke-width: 0.25"/>
   </g>
   <g id="line2d_31">
    <path d="M 127.646727 168.67218 
L 125.759215 168.67218 
L 123.871701 168.67218 
L 121.984185 168.67218 
L 120.096667 168.67218 
L 118.209147 168.67218 
L 116.321627 168.67218 
L 114.434106 168.67218 
L 112.546584 168.67218 
L 110.659062 168.67218 
L 108.77154 168.67218 
L 106.884018 168.67218 
L 104.996495 168.67218 
L 103.108973 168.67218 
L 101.22145 168.67218 
L 99.333928 168.67218 
L 97.446406 168.67218 
L 95.558884 168.67218 
L 93.671362 168.67218 
L 91.783841 168.67218 
L 89.896319 168.67218 
L 88.008798 168.67218 
L 86.121276 168.67218 
L 84.233755 168.67218 
L 82.346234 168.67218 
L 80.458713 168.67218 
L 78.571191 168.67218 
L 76.68367 168.67218 
L 74.796149 168.67218 
L 72.908628 168.67218 
L 71.021107 168.67218 
" clip-path="url(#pf6a71d6efe)" style="fill: none; stroke: #ff0000; stroke-opacity: 0.2; stroke-width: 0.25; stroke-linecap: square"/>
   </g>
   <g id="line2d_32">
    <path d="M 127.646727 168.67218 
L 125.759215 168.67218 
L 123.871701 168.67218 
L 121.984185 168.67218 
L 120.096667 168.67218 
L 118.209147 168.67218 
L 116.321627 168.67218 
L 114.434106 168.67218 
L 112.546584 168.67218 
L 110.659062 168.67218 
L 108.77154 168.67218 
L 106.884018 168.67218 
L 104.996495 168.67218 
L 103.108973 168.67218 
L 101.22145 168.67218 
L 99.333928 168.67218 
L 97.446406 168.67218 
L 95.558884 168.67218 
L 93.671362 168.67218 
L 91.783841 168.67218 
L 89.896319 168.67218 
L 88.008798 168.67218 
L 86.121276 168.67218 
L 84.233755 168.67218 
L 82.346234 168.67218 
L 80.458713 168.67218 
L 78.571191 168.67218 
L 76.68367 168.67218 
L 74.796149 168.67218 
L 72.908628 168.67218 
L 71.021107 168.67218 
" clip-path="url(#pf6a71d6efe)" style="fill: none; stroke: #ff0000; stroke-opacity: 0.4; stroke-width: 0.25; stroke-linecap: square"/>
   </g>
   <g id="line2d_33">
    <path d="M 127.646727 168.67218 
L 125.759215 168.67218 
L 123.871701 168.67218 
L 121.984185 168.67218 
L 120.096667 168.67218 
L 118.209147 168.67218 
L 116.321627 168.67218 
L 114.434106 168.67218 
L 112.546584 168.67218 
L 110.659062 168.67218 
L 108.77154 168.67218 
L 106.884018 168.67218 
L 104.996495 168.67218 
L 103.108973 168.67218 
L 101.22145 168.67218 
L 99.333928 168.67218 
L 97.446406 168.67218 
L 95.558884 168.67218 
L 93.671362 168.67218 
L 91.783841 168.67218 
L 89.896319 168.67218 
L 88.008798 168.67218 
L 86.121276 168.67218 
L 84.233755 168.67218 
L 82.346234 168.67218 
L 80.458713 168.67218 
L 78.571191 168.67218 
L 76.68367 168.67218 
L 74.796149 168.67218 
L 72.908628 168.67218 
L 71.021107 168.67218 
" clip-path="url(#pf6a71d6efe)" style="fill: none; stroke: #ff0000; stroke-opacity: 0.6; stroke-width: 0.25; stroke-linecap: square"/>
   </g>
   <g id="line2d_34">
    <path d="M 127.646727 168.67218 
L 125.759215 168.67218 
L 123.871701 168.67218 
L 121.984185 168.67218 
L 120.096667 168.67218 
L 118.209147 168.67218 
L 116.321627 168.67218 
L 114.434106 168.67218 
L 112.546584 168.67218 
L 110.659062 168.67218 
L 108.77154 168.67218 
L 106.884018 168.67218 
L 104.996495 168.67218 
L 103.108973 168.67218 
L 101.22145 168.67218 
L 99.333928 168.67218 
L 97.446406 168.67218 
L 95.558884 168.67218 
L 93.671362 168.67218 
L 91.783841 168.67218 
L 89.896319 168.67218 
L 88.008798 168.67218 
L 86.121276 168.67218 
L 84.233755 168.67218 
L 82.346234 168.67218 
L 80.458713 168.67218 
L 78.571191 168.67218 
L 76.68367 168.67218 
L 74.796149 168.67218 
L 72.908628 168.67218 
L 71.021107 168.67218 
" clip-path="url(#pf6a71d6efe)" style="fill: none; stroke: #ff0000; stroke-opacity: 0.8; stroke-width: 0.25; stroke-linecap: square"/>
   </g>
   <g id="line2d_35">
    <path d="M 127.646727 168.67218 
L 125.759215 168.67218 
L 123.871701 168.67218 
L 121.984185 168.67218 
L 120.096667 168.67218 
L 118.209147 168.67218 
L 116.321627 168.67218 
L 114.434106 168.67218 
L 112.546584 168.67218 
L 110.659062 168.67218 
L 108.77154 168.67218 
L 106.884018 168.67218 
L 104.996495 168.67218 
L 103.108973 168.67218 
L 101.22145 168.67218 
L 99.333928 168.67218 
L 97.446406 168.67218 
L 95.558884 168.67218 
L 93.671362 168.67218 
L 91.783841 168.67218 
L 89.896319 168.67218 
L 88.008798 168.67218 
L 86.121276 168.67218 
L 84.233755 168.67218 
L 82.346234 168.67218 
L 80.458713 168.67218 
L 78.571191 168.67218 
L 76.68367 168.67218 
L 74.796149 168.67218 
L 72.908628 168.67218 
L 71.021107 168.67218 
" clip-path="url(#pf6a71d6efe)" style="fill: none; stroke: #ff0000; stroke-width: 0.25; stroke-linecap: square"/>
   </g>
   <g id="line2d_36">
    <path d="M 242.01582 58.536082 
L 242.01582 56.77996 
L 242.01582 55.023836 
L 242.01582 53.267713 
L 242.01582 51.511589 
L 242.01582 49.755466 
L 242.01582 47.999343 
L 242.01582 46.243221 
L 242.01582 44.487099 
L 242.01582 42.730978 
L 242.01582 40.974858 
L 242.01582 39.218739 
L 242.01582 37.46262 
L 242.01582 35.706502 
L 242.01582 33.950384 
L 242.01582 32.194266 
L 242.01582 30.438149 
L 242.01582 28.682032 
L 242.01582 26.925915 
L 242.01582 25.169799 
L 242.01582 23.413682 
L 242.01582 21.657565 
L 242.01582 19.901449 
L 242.01582 18.145332 
L 242.01582 16.389216 
L 242.01582 14.633099 
L 242.01582 12.876982 
L 242.01582 11.120866 
L 242.01582 9.364749 
L 242.01582 7.608632 
L 242.01582 5.852516 
" clip-path="url(#pf6a71d6efe)" style="fill: none; stroke: #ff0000; stroke-opacity: 0.2; stroke-width: 0.25; stroke-linecap: square"/>
   </g>
   <g id="line2d_37">
    <path d="M 242.01582 58.536082 
L 242.01582 56.77996 
L 242.01582 55.023836 
L 242.01582 53.267713 
L 242.01582 51.511589 
L 242.01582 49.755466 
L 242.01582 47.999343 
L 242.01582 46.243221 
L 242.01582 44.487099 
L 242.01582 42.730978 
L 242.01582 40.974858 
L 242.01582 39.218739 
L 242.01582 37.46262 
L 242.01582 35.706502 
L 242.01582 33.950384 
L 242.01582 32.194266 
L 242.01582 30.438149 
L 242.01582 28.682032 
L 242.01582 26.925915 
L 242.01582 25.169799 
L 242.01582 23.413682 
L 242.01582 21.657565 
L 242.01582 19.901449 
L 242.01582 18.145332 
L 242.01582 16.389216 
L 242.01582 14.633099 
L 242.01582 12.876982 
L 242.01582 11.120866 
L 242.01582 9.364749 
L 242.01582 7.608633 
L 242.01582 5.852516 
" clip-path="url(#pf6a71d6efe)" style="fill: none; stroke: #ff0000; stroke-opacity: 0.4; stroke-width: 0.25; stroke-linecap: square"/>
   </g>
   <g id="line2d_38">
    <path d="M 242.01582 58.536082 
L 242.01582 56.77996 
L 242.01582 55.023836 
L 242.01582 53.267713 
L 242.01582 51.511589 
L 242.01582 49.755466 
L 242.01582 47.999343 
L 242.01582 46.243221 
L 242.01582 44.487099 
L 242.01582 42.730978 
L 242.01582 40.974858 
L 242.01582 39.218739 
L 242.01582 37.46262 
L 242.01582 35.706502 
L 242.01582 33.950384 
L 242.01582 32.194266 
L 242.01582 30.438149 
L 242.01582 28.682032 
L 242.01582 26.925915 
L 242.01582 25.169799 
L 242.01582 23.413682 
L 242.01582 21.657565 
L 242.01582 19.901449 
L 242.01582 18.145332 
L 242.01582 16.389216 
L 242.01582 14.633099 
L 242.01582 12.876982 
L 242.01582 11.120866 
L 242.01582 9.364749 
L 242.01582 7.608633 
L 242.01582 5.852516 
" clip-path="url(#pf6a71d6efe)" style="fill: none; stroke: #ff0000; stroke-opacity: 0.6; stroke-width: 0.25; stroke-linecap: square"/>
   </g>
   <g id="line2d_39">
    <path d="M 242.01582 58.536082 
L 242.01582 56.77996 
L 242.01582 55.023836 
L 242.01582 53.267713 
L 242.01582 51.511589 
L 242.01582 49.755466 
L 242.01582 47.999343 
L 242.01582 46.243221 
L 242.01582 44.487099 
L 242.01582 42.730978 
L 242.01582 40.974858 
L 242.01582 39.218739 
L 242.01582 37.46262 
L 242.01582 35.706502 
L 242.01582 33.950384 
L 242.01582 32.194266 
L 242.01582 30.438149 
L 242.01582 28.682032 
L 242.01582 26.925915 
L 242.01582 25.169799 
L 242.01582 23.413682 
L 242.01582 21.657565 
L 242.01582 19.901449 
L 242.01582 18.145332 
L 242.01582 16.389216 
L 242.01582 14.633099 
L 242.01582 12.876982 
L 242.01582 11.120866 
L 242.01582 9.364749 
L 242.01582 7.608633 
L 242.01582 5.852516 
" clip-path="url(#pf6a71d6efe)" style="fill: none; stroke: #ff0000; stroke-opacity: 0.8; stroke-width: 0.25; stroke-linecap: square"/>
   </g>
   <g id="line2d_40">
    <path d="M 242.01582 58.536082 
L 242.01582 56.77996 
L 242.01582 55.023836 
L 242.01582 53.267713 
L 242.01582 51.511589 
L 242.01582 49.755466 
L 242.01582 47.999343 
L 242.01582 46.243221 
L 242.01582 44.487099 
L 242.01582 42.730978 
L 242.01582 40.974858 
L 242.01582 39.218739 
L 242.01582 37.46262 
L 242.01582 35.706502 
L 242.01582 33.950384 
L 242.01582 32.194266 
L 242.01582 30.438149 
L 242.01582 28.682032 
L 242.01582 26.925915 
L 242.01582 25.169799 
L 242.01582 23.413682 
L 242.01582 21.657565 
L 242.01582 19.901449 
L 242.01582 18.145332 
L 242.01582 16.389216 
L 242.01582 14.633099 
L 242.01582 12.876982 
L 242.01582 11.120866 
L 242.01582 9.364749 
L 242.01582 7.608633 
L 242.01582 5.852516 
" clip-path="url(#pf6a71d6efe)" style="fill: none; stroke: #ff0000; stroke-width: 0.25; stroke-linecap: square"/>
   </g>
   <g id="line2d_41">
    <path d="M 230.30418 283.788318 
L 230.30418 285.653455 
L 230.30418 287.518602 
L 230.30418 289.383756 
L 230.30418 291.248916 
L 230.30418 293.114079 
L 230.30418 294.979245 
L 230.30418 296.844413 
L 230.30418 298.709582 
L 230.30418 300.574751 
L 230.30418 302.43992 
L 230.30418 304.305088 
L 230.30418 306.170255 
L 230.30418 308.035421 
L 230.30418 309.900587 
L 230.30418 311.765752 
L 230.30418 313.630915 
L 230.30418 315.496078 
L 230.30418 317.36124 
L 230.30418 319.226402 
L 230.30418 321.091563 
L 230.30418 322.956723 
L 230.30418 324.821884 
L 230.30418 326.687044 
L 230.30418 328.552204 
L 230.30418 330.417363 
L 230.30418 332.282523 
L 230.30418 334.147682 
L 230.30418 336.012842 
L 230.30418 337.878001 
L 230.30418 339.743161 
" clip-path="url(#pf6a71d6efe)" style="fill: none; stroke: #ff0000; stroke-opacity: 0.2; stroke-width: 0.25; stroke-linecap: square"/>
   </g>
   <g id="line2d_42">
    <path d="M 230.30418 283.788318 
L 230.30418 285.653455 
L 230.30418 287.518602 
L 230.30418 289.383756 
L 230.30418 291.248916 
L 230.30418 293.114079 
L 230.30418 294.979245 
L 230.30418 296.844413 
L 230.30418 298.709582 
L 230.30418 300.574751 
L 230.30418 302.43992 
L 230.30418 304.305088 
L 230.30418 306.170255 
L 230.30418 308.035421 
L 230.30418 309.900587 
L 230.30418 311.765751 
L 230.30418 313.630915 
L 230.30418 315.496078 
L 230.30418 317.36124 
L 230.30418 319.226402 
L 230.30418 321.091563 
L 230.30418 322.956723 
L 230.30418 324.821884 
L 230.30418 326.687044 
L 230.30418 328.552203 
L 230.30418 330.417363 
L 230.30418 332.282523 
L 230.30418 334.147682 
L 230.30418 336.012842 
L 230.30418 337.878001 
L 230.30418 339.74316 
" clip-path="url(#pf6a71d6efe)" style="fill: none; stroke: #ff0000; stroke-opacity: 0.4; stroke-width: 0.25; stroke-linecap: square"/>
   </g>
   <g id="line2d_43">
    <path d="M 230.30418 283.788318 
L 230.30418 285.653455 
L 230.30418 287.518602 
L 230.30418 289.383756 
L 230.30418 291.248916 
L 230.30418 293.114079 
L 230.30418 294.979245 
L 230.30418 296.844413 
L 230.30418 298.709582 
L 230.30418 300.574751 
L 230.30418 302.43992 
L 230.30418 304.305088 
L 230.30418 306.170255 
L 230.30418 308.035421 
L 230.30418 309.900587 
L 230.30418 311.765751 
L 230.30418 313.630915 
L 230.30418 315.496078 
L 230.30418 317.36124 
L 230.30418 319.226402 
L 230.30418 321.091563 
L 230.30418 322.956723 
L 230.30418 324.821884 
L 230.30418 326.687044 
L 230.30418 328.552203 
L 230.30418 330.417363 
L 230.30418 332.282523 
L 230.30418 334.147682 
L 230.30418 336.012842 
L 230.30418 337.878001 
L 230.30418 339.74316 
" clip-path="url(#pf6a71d6efe)" style="fill: none; stroke: #ff0000; stroke-opacity: 0.6; stroke-width: 0.25; stroke-linecap: square"/>
   </g>
   <g id="line2d_44">
    <path d="M 230.30418 283.788318 
L 230.30418 285.653455 
L 230.30418 287.518602 
L 230.30418 289.383756 
L 230.30418 291.248916 
L 230.30418 293.114079 
L 230.30418 294.979245 
L 230.30418 296.844413 
L 230.30418 298.709582 
L 230.30418 300.574751 
L 230.30418 302.43992 
L 230.30418 304.305088 
L 230.30418 306.170255 
L 230.30418 308.035421 
L 230.30418 309.900587 
L 230.30418 311.765751 
L 230.30418 313.630915 
L 230.30418 315.496078 
L 230.30418 317.36124 
L 230.30418 319.226402 
L 230.30418 321.091563 
L 230.30418 322.956723 
L 230.30418 324.821884 
L 230.30418 326.687044 
L 230.30418 328.552203 
L 230.30418 330.417363 
L 230.30418 332.282523 
L 230.30418 334.147682 
L 230.30418 336.012842 
L 230.30418 337.878001 
L 230.30418 339.74316 
" clip-path="url(#pf6a71d6efe)" style="fill: none; stroke: #ff0000; stroke-opacity: 0.8; stroke-width: 0.25; stroke-linecap: square"/>
   </g>
   <g id="line2d_45">
    <path d="M 230.30418 283.788318 
L 230.30418 285.653455 
L 230.30418 287.518602 
L 230.30418 289.383756 
L 230.30418 291.248916 
L 230.30418 293.114079 
L 230.30418 294.979245 
L 230.30418 296.844413 
L 230.30418 298.709582 
L 230.30418 300.574751 
L 230.30418 302.43992 
L 230.30418 304.305088 
L 230.30418 306.170255 
L 230.30418 308.035421 
L 230.30418 309.900587 
L 230.30418 311.765751 
L 230.30418 313.630915 
L 230.30418 315.496078 
L 230.30418 317.36124 
L 230.30418 319.226402 
L 230.30418 321.091563 
L 230.30418 322.956723 
L 230.30418 324.821884 
L 230.30418 326.687044 
L 230.30418 328.552203 
L 230.30418 330.417363 
L 230.30418 332.282523 
L 230.30418 334.147682 
L 230.30418 336.012842 
L 230.30418 337.878001 
L 230.30418 339.74316 
" clip-path="url(#pf6a71d6efe)" style="fill: none; stroke: #ff0000; stroke-width: 0.25; stroke-linecap: square"/>
   </g>
   <g id="line2d_46">
    <path d="M 345.420318 180.38382 
L 347.285463 180.38382 
L 349.150615 180.38382 
L 351.015773 180.38382 
L 352.880934 180.38382 
L 354.746098 180.38382 
L 356.611263 180.38382 
L 358.47643 180.38382 
L 360.341597 180.38382 
L 362.206764 180.38382 
L 364.071931 180.38382 
L 365.937097 180.38382 
L 367.802262 180.38382 
L 369.667427 180.38382 
L 371.532591 180.38382 
L 373.397755 180.38382 
L 375.262917 180.38382 
L 377.128079 180.38382 
L 378.993241 180.38382 
L 380.858402 180.38382 
L 382.723562 180.38382 
L 384.588723 180.38382 
L 386.453883 180.38382 
L 388.319043 180.38382 
L 390.184203 180.38382 
L 392.049362 180.38382 
L 393.914522 180.38382 
L 395.779682 180.38382 
L 397.644841 180.38382 
L 399.510001 180.38382 
L 401.37516 180.38382 
" clip-path="url(#pf6a71d6efe)" style="fill: none; stroke: #ff0000; stroke-opacity: 0.2; stroke-width: 0.25; stroke-linecap: square"/>
   </g>
   <g id="line2d_47">
    <path d="M 345.420318 180.38382 
L 347.285463 180.38382 
L 349.150615 180.38382 
L 351.015773 180.38382 
L 352.880934 180.38382 
L 354.746098 180.38382 
L 356.611263 180.38382 
L 358.47643 180.38382 
L 360.341597 180.38382 
L 362.206764 180.38382 
L 364.071931 180.38382 
L 365.937097 180.38382 
L 367.802262 180.38382 
L 369.667427 180.38382 
L 371.532591 180.38382 
L 373.397755 180.38382 
L 375.262917 180.38382 
L 377.128079 180.38382 
L 378.993241 180.38382 
L 380.858402 180.38382 
L 382.723562 180.38382 
L 384.588723 180.38382 
L 386.453883 180.38382 
L 388.319043 180.38382 
L 390.184203 180.38382 
L 392.049362 180.38382 
L 393.914522 180.38382 
L 395.779682 180.38382 
L 397.644841 180.38382 
L 399.510001 180.38382 
L 401.37516 180.38382 
" clip-path="url(#pf6a71d6efe)" style="fill: none; stroke: #ff0000; stroke-opacity: 0.4; stroke-width: 0.25; stroke-linecap: square"/>
   </g>
   <g id="line2d_48">
    <path d="M 345.420318 180.38382 
L 347.285463 180.38382 
L 349.150615 180.38382 
L 351.015773 180.38382 
L 352.880934 180.38382 
L 354.746098 180.38382 
L 356.611263 180.38382 
L 358.47643 180.38382 
L 360.341597 180.38382 
L 362.206764 180.38382 
L 364.071931 180.38382 
L 365.937097 180.38382 
L 367.802262 180.38382 
L 369.667427 180.38382 
L 371.532591 180.38382 
L 373.397755 180.38382 
L 375.262917 180.38382 
L 377.128079 180.38382 
L 378.993241 180.38382 
L 380.858402 180.38382 
L 382.723562 180.38382 
L 384.588723 180.38382 
L 386.453883 180.38382 
L 388.319043 180.38382 
L 390.184203 180.38382 
L 392.049362 180.38382 
L 393.914522 180.38382 
L 395.779682 180.38382 
L 397.644841 180.38382 
L 399.510001 180.38382 
L 401.37516 180.38382 
" clip-path="url(#pf6a71d6efe)" style="fill: none; stroke: #ff0000; stroke-opacity: 0.6; stroke-width: 0.25; stroke-linecap: square"/>
   </g>
   <g id="line2d_49">
    <path d="M 345.420318 180.38382 
L 347.285463 180.38382 
L 349.150615 180.38382 
L 351.015773 180.38382 
L 352.880934 180.38382 
L 354.746098 180.38382 
L 356.611263 180.38382 
L 358.47643 180.38382 
L 360.341597 180.38382 
L 362.206764 180.38382 
L 364.071931 180.38382 
L 365.937097 180.38382 
L 367.802262 180.38382 
L 369.667427 180.38382 
L 371.532591 180.38382 
L 373.397755 180.38382 
L 375.262917 180.38382 
L 377.128079 180.38382 
L 378.993241 180.38382 
L 380.858402 180.38382 
L 382.723562 180.38382 
L 384.588723 180.38382 
L 386.453883 180.38382 
L 388.319043 180.38382 
L 390.184203 180.38382 
L 392.049362 180.38382 
L 393.914522 180.38382 
L 395.779682 180.38382 
L 397.644841 180.38382 
L 399.510001 180.38382 
L 401.37516 180.38382 
" clip-path="url(#pf6a71d6efe)" style="fill: none; stroke: #ff0000; stroke-opacity: 0.8; stroke-width: 0.25; stroke-linecap: square"/>
   </g>
   <g id="line2d_50">
    <path d="M 345.420318 180.38382 
L 347.285463 180.38382 
L 349.150615 180.38382 
L 351.015773 180.38382 
L 352.880934 180.38382 
L 354.746098 180.38382 
L 356.611263 180.38382 
L 358.47643 180.38382 
L 360.341597 180.38382 
L 362.206764 180.38382 
L 364.071931 180.38382 
L 365.937097 180.38382 
L 367.802262 180.38382 
L 369.667427 180.38382 
L 371.532591 180.38382 
L 373.397755 180.38382 
L 375.262917 180.38382 
L 377.128079 180.38382 
L 378.993241 180.38382 
L 380.858402 180.38382 
L 382.723562 180.38382 
L 384.588723 180.38382 
L 386.453883 180.38382 
L 388.319043 180.38382 
L 390.184203 180.38382 
L 392.049362 180.38382 
L 393.914522 180.38382 
L 395.779682 180.38382 
L 397.644841 180.38382 
L 399.510001 180.38382 
L 401.37516 180.38382 
" clip-path="url(#pf6a71d6efe)" style="fill: none; stroke: #ff0000; stroke-width: 0.25; stroke-linecap: square"/>
   </g>
   <g id="line2d_51">
    <path d="M 242.015903 115.681594 
L 242.015895 113.80752 
L 242.015879 111.933855 
L 242.015864 110.060874 
L 242.01585 108.188743 
L 242.015841 106.317541 
L 242.015832 104.447285 
L 242.015824 102.577942 
L 242.015819 100.709447 
L 242.015812 98.841715 
L 242.015811 96.974649 
L 242.015808 95.108148 
L 242.015808 93.242116 
L 242.015808 91.37646 
L 242.015808 89.511096 
L 242.01581 87.645952 
L 242.015811 85.780965 
L 242.015812 83.916081 
L 242.015813 82.051259 
L 242.015815 80.186465 
L 242.015816 78.321674 
L 242.015817 76.456868 
L 242.015817 74.592036 
L 242.015818 72.727171 
L 242.015819 70.86227 
L 242.01582 68.997335 
L 242.015821 67.132367 
L 242.015822 65.267372 
L 242.015823 63.402356 
L 242.015822 61.537325 
L 242.015822 59.672287 
" clip-path="url(#pf6a71d6efe)" style="fill: none; stroke: #ff0000; stroke-opacity: 0.2; stroke-width: 0.25; stroke-linecap: square"/>
   </g>
   <g id="line2d_52">
    <path d="M 242.015903 115.681594 
L 242.015896 113.80752 
L 242.015881 111.933855 
L 242.015865 110.060874 
L 242.015851 108.188742 
L 242.015842 106.317539 
L 242.015833 104.447282 
L 242.015825 102.577937 
L 242.015819 100.709441 
L 242.015812 98.841707 
L 242.015811 96.974639 
L 242.015808 95.108136 
L 242.015807 93.242103 
L 242.015807 91.376445 
L 242.015808 89.511081 
L 242.015809 87.645937 
L 242.015811 85.780949 
L 242.015812 83.916066 
L 242.015813 82.051246 
L 242.015814 80.186456 
L 242.015816 78.32167 
L 242.015817 76.456872 
L 242.015818 74.592048 
L 242.015818 72.727194 
L 242.015819 70.862306 
L 242.01582 68.997385 
L 242.01582 67.132434 
L 242.015821 65.267458 
L 242.015822 63.402462 
L 242.015821 61.537453 
L 242.015819 59.672438 
" clip-path="url(#pf6a71d6efe)" style="fill: none; stroke: #ff0000; stroke-opacity: 0.4; stroke-width: 0.25; stroke-linecap: square"/>
   </g>
   <g id="line2d_53">
    <path d="M 242.015903 115.681594 
L 242.015898 113.80752 
L 242.015883 111.933856 
L 242.015867 110.060875 
L 242.015853 108.188743 
L 242.015843 106.317541 
L 242.015833 104.447284 
L 242.015825 102.57794 
L 242.015819 100.709444 
L 242.015811 98.84171 
L 242.015811 96.974642 
L 242.015808 95.108141 
L 242.015807 93.242107 
L 242.015807 91.37645 
L 242.015808 89.511086 
L 242.015809 87.645941 
L 242.015811 85.780953 
L 242.015812 83.916069 
L 242.015813 82.051247 
L 242.015815 80.186454 
L 242.015816 78.321664 
L 242.015817 76.456861 
L 242.015818 74.592033 
L 242.015819 72.727172 
L 242.015819 70.862277 
L 242.01582 68.997348 
L 242.015821 67.132388 
L 242.015821 65.267403 
L 242.015822 63.402397 
L 242.015822 61.537378 
L 242.015821 59.672353 
" clip-path="url(#pf6a71d6efe)" style="fill: none; stroke: #ff0000; stroke-opacity: 0.6; stroke-width: 0.25; stroke-linecap: square"/>
   </g>
   <g id="line2d_54">
    <path d="M 242.015903 115.681594 
L 242.0159 113.80752 
L 242.015884 111.933856 
L 242.015868 110.060875 
L 242.015853 108.188743 
L 242.015843 106.317541 
L 242.015833 104.447284 
L 242.015825 102.577939 
L 242.015819 100.709443 
L 242.015811 98.841709 
L 242.01581 96.974642 
L 242.015807 95.10814 
L 242.015807 93.242106 
L 242.015807 91.376449 
L 242.015808 89.511085 
L 242.015809 87.645941 
L 242.015811 85.780954 
L 242.015812 83.916071 
L 242.015813 82.05125 
L 242.015815 80.186459 
L 242.015816 78.321671 
L 242.015817 76.456871 
L 242.015818 74.592046 
L 242.015818 72.727188 
L 242.015819 70.862297 
L 242.01582 68.997373 
L 242.01582 67.132417 
L 242.015821 65.267436 
L 242.015822 63.402436 
L 242.015822 61.537422 
L 242.01582 59.672401 
" clip-path="url(#pf6a71d6efe)" style="fill: none; stroke: #ff0000; stroke-opacity: 0.8; stroke-width: 0.25; stroke-linecap: square"/>
   </g>
   <g id="line2d_55">
    <path d="M 242.015903 115.681594 
L 242.015901 113.80752 
L 242.015885 111.933856 
L 242.015869 110.060875 
L 242.015854 108.188743 
L 242.015844 106.317541 
L 242.015833 104.447284 
L 242.015825 102.577939 
L 242.015818 100.709443 
L 242.015811 98.841709 
L 242.01581 96.974641 
L 242.015807 95.10814 
L 242.015807 93.242106 
L 242.015807 91.376449 
L 242.015808 89.511084 
L 242.015809 87.64594 
L 242.015811 85.780952 
L 242.015812 83.916068 
L 242.015813 82.051247 
L 242.015815 80.186454 
L 242.015816 78.321666 
L 242.015817 76.456864 
L 242.015818 74.592036 
L 242.015819 72.727177 
L 242.015819 70.862284 
L 242.01582 68.997357 
L 242.015821 67.132399 
L 242.015821 65.267416 
L 242.015822 63.402413 
L 242.015822 61.537396 
L 242.01582 59.672373 
" clip-path="url(#pf6a71d6efe)" style="fill: none; stroke: #ff0000; stroke-width: 0.25; stroke-linecap: square"/>
   </g>
   <g id="line2d_56">
    <path d="M 177.271825 168.672163 
L 175.403646 168.672164 
L 173.535864 168.67217 
L 171.668487 168.672175 
L 169.801503 168.672179 
L 167.934885 168.672183 
L 166.068596 168.672185 
L 164.202598 168.672185 
L 162.336845 168.672186 
L 160.471297 168.672185 
L 158.605914 168.672186 
L 156.740659 168.672185 
L 154.875501 168.672185 
L 153.010413 168.672184 
L 151.145371 168.672183 
L 149.280357 168.672183 
L 147.415356 168.672182 
L 145.550358 168.672182 
L 143.685353 168.672181 
L 141.820337 168.672181 
L 139.955306 168.672181 
L 138.090257 168.672181 
L 136.225191 168.67218 
L 134.360109 168.67218 
L 132.495011 168.67218 
L 130.629899 168.67218 
L 128.764775 168.67218 
L 126.899643 168.672179 
L 125.034503 168.672179 
L 123.169359 168.672179 
L 121.304212 168.672179 
" clip-path="url(#pf6a71d6efe)" style="fill: none; stroke: #ff0000; stroke-opacity: 0.2; stroke-width: 0.25; stroke-linecap: square"/>
   </g>
   <g id="line2d_57">
    <path d="M 177.271825 168.672163 
L 175.403646 168.672163 
L 173.535865 168.672169 
L 171.668488 168.672174 
L 169.801503 168.672178 
L 167.934885 168.672183 
L 166.068596 168.672184 
L 164.202597 168.672185 
L 162.336844 168.672186 
L 160.471295 168.672185 
L 158.605911 168.672186 
L 156.740656 168.672186 
L 154.875497 168.672185 
L 153.010408 168.672184 
L 151.145366 168.672184 
L 149.280352 168.672183 
L 147.415351 168.672182 
L 145.550353 168.672182 
L 143.685348 168.672182 
L 141.820333 168.672181 
L 139.955302 168.672181 
L 138.090255 168.672181 
L 136.225191 168.67218 
L 134.36011 168.67218 
L 132.495015 168.67218 
L 130.629906 168.67218 
L 128.764786 168.67218 
L 126.899657 168.67218 
L 125.034522 168.672179 
L 123.169383 168.67218 
L 121.304241 168.67218 
" clip-path="url(#pf6a71d6efe)" style="fill: none; stroke: #ff0000; stroke-opacity: 0.4; stroke-width: 0.25; stroke-linecap: square"/>
   </g>
   <g id="line2d_58">
    <path d="M 177.271825 168.672163 
L 175.403646 168.672161 
L 173.535865 168.672168 
L 171.668488 168.672173 
L 169.801504 168.672178 
L 167.934885 168.672183 
L 166.068597 168.672184 
L 164.202598 168.672185 
L 162.336845 168.672186 
L 160.471296 168.672185 
L 158.605912 168.672186 
L 156.740657 168.672186 
L 154.875499 168.672185 
L 153.01041 168.672184 
L 151.145368 168.672184 
L 149.280354 168.672183 
L 147.415353 168.672182 
L 145.550354 168.672182 
L 143.68535 168.672182 
L 141.820333 168.672181 
L 139.955302 168.672181 
L 138.090254 168.67218 
L 136.225189 168.67218 
L 134.360107 168.67218 
L 132.49501 168.67218 
L 130.6299 168.67218 
L 128.764778 168.67218 
L 126.899648 168.672179 
L 125.03451 168.672179 
L 123.169369 168.672179 
L 121.304225 168.67218 
" clip-path="url(#pf6a71d6efe)" style="fill: none; stroke: #ff0000; stroke-opacity: 0.6; stroke-width: 0.25; stroke-linecap: square"/>
   </g>
   <g id="line2d_59">
    <path d="M 177.271825 168.672163 
L 175.403646 168.67216 
L 173.535865 168.672167 
L 171.668488 168.672172 
L 169.801504 168.672177 
L 167.934886 168.672182 
L 166.068597 168.672184 
L 164.202598 168.672185 
L 162.336845 168.672186 
L 160.471296 168.672185 
L 158.605912 168.672186 
L 156.740657 168.672186 
L 154.875498 168.672185 
L 153.01041 168.672185 
L 151.145367 168.672184 
L 149.280353 168.672183 
L 147.415353 168.672182 
L 145.550354 168.672182 
L 143.68535 168.672182 
L 141.820334 168.672181 
L 139.955303 168.672181 
L 138.090255 168.672181 
L 136.225191 168.67218 
L 134.36011 168.67218 
L 132.495014 168.67218 
L 130.629904 168.67218 
L 128.764783 168.67218 
L 126.899654 168.67218 
L 125.034517 168.672179 
L 123.169377 168.672179 
L 121.304234 168.67218 
" clip-path="url(#pf6a71d6efe)" style="fill: none; stroke: #ff0000; stroke-opacity: 0.8; stroke-width: 0.25; stroke-linecap: square"/>
   </g>
   <g id="line2d_60">
    <path d="M 177.271825 168.672163 
L 175.403646 168.672158 
L 173.535865 168.672166 
L 171.668488 168.672172 
L 169.801504 168.672177 
L 167.934886 168.672182 
L 166.068597 168.672184 
L 164.202598 168.672185 
L 162.336845 168.672186 
L 160.471296 168.672186 
L 158.605912 168.672186 
L 156.740657 168.672186 
L 154.875499 168.672185 
L 153.01041 168.672185 
L 151.145368 168.672184 
L 149.280353 168.672183 
L 147.415353 168.672182 
L 145.550354 168.672182 
L 143.685349 168.672182 
L 141.820333 168.672181 
L 139.955302 168.672181 
L 138.090254 168.67218 
L 136.225189 168.67218 
L 134.360108 168.67218 
L 132.495011 168.67218 
L 130.629901 168.67218 
L 128.76478 168.67218 
L 126.89965 168.67218 
L 125.034513 168.672179 
L 123.169372 168.672179 
L 121.304229 168.67218 
" clip-path="url(#pf6a71d6efe)" style="fill: none; stroke: #ff0000; stroke-width: 0.25; stroke-linecap: square"/>
   </g>
   <g id="line2d_61">
    <path d="M 293.698565 180.383812 
L 295.58755 180.383828 
L 297.476588 180.383837 
L 299.365596 180.383839 
L 301.254514 180.383834 
L 303.143304 180.383827 
L 305.031943 180.383821 
L 306.920423 180.383819 
L 308.808744 180.38382 
L 310.696915 180.38382 
L 312.584948 180.38382 
L 314.472858 180.383819 
L 316.360662 180.383818 
L 318.248378 180.383818 
L 320.13602 180.383818 
L 322.023605 180.383818 
L 323.911146 180.383818 
L 325.798653 180.383818 
L 327.686138 180.383818 
L 329.573609 180.383819 
L 331.461071 180.383819 
L 333.34853 180.383819 
L 335.235989 180.383819 
L 337.123452 180.38382 
L 339.010918 180.38382 
L 340.898389 180.38382 
L 342.785865 180.38382 
L 344.673346 180.38382 
L 346.56083 180.38382 
L 348.448317 180.38382 
L 350.335805 180.38382 
" clip-path="url(#pf6a71d6efe)" style="fill: none; stroke: #ff0000; stroke-opacity: 0.2; stroke-width: 0.25; stroke-linecap: square"/>
   </g>
   <g id="line2d_62">
    <path d="M 293.698565 180.383812 
L 295.58755 180.383828 
L 297.476588 180.383836 
L 299.365596 180.383839 
L 301.254514 180.383834 
L 303.143304 180.383827 
L 305.031944 180.383821 
L 306.920424 180.383819 
L 308.808745 180.38382 
L 310.696916 180.38382 
L 312.58495 180.38382 
L 314.47286 180.383819 
L 316.360665 180.383818 
L 318.24838 180.383818 
L 320.136023 180.383818 
L 322.023608 180.383818 
L 323.911148 180.383818 
L 325.798656 180.383818 
L 327.68614 180.383818 
L 329.57361 180.383819 
L 331.461071 180.383819 
L 333.348528 180.383819 
L 335.235985 180.383819 
L 337.123445 180.38382 
L 339.010908 180.38382 
L 340.898376 180.38382 
L 342.785849 180.38382 
L 344.673325 180.38382 
L 346.560805 180.38382 
L 348.448287 180.38382 
L 350.33577 180.38382 
" clip-path="url(#pf6a71d6efe)" style="fill: none; stroke: #ff0000; stroke-opacity: 0.4; stroke-width: 0.25; stroke-linecap: square"/>
   </g>
   <g id="line2d_63">
    <path d="M 293.698565 180.383812 
L 295.58755 180.383828 
L 297.476588 180.383836 
L 299.365596 180.383839 
L 301.254514 180.383834 
L 303.143304 180.383826 
L 305.031943 180.383821 
L 306.920423 180.383819 
L 308.808745 180.38382 
L 310.696916 180.38382 
L 312.584949 180.38382 
L 314.47286 180.383819 
L 316.360664 180.383818 
L 318.24838 180.383818 
L 320.136022 180.383818 
L 322.023607 180.383818 
L 323.911148 180.383818 
L 325.798656 180.383818 
L 327.686141 180.383818 
L 329.573611 180.383819 
L 331.461073 180.383819 
L 333.348531 180.383819 
L 335.235989 180.383819 
L 337.123451 180.38382 
L 339.010916 180.38382 
L 340.898385 180.38382 
L 342.78586 180.38382 
L 344.673338 180.38382 
L 346.56082 180.38382 
L 348.448304 180.38382 
L 350.33579 180.38382 
" clip-path="url(#pf6a71d6efe)" style="fill: none; stroke: #ff0000; stroke-opacity: 0.6; stroke-width: 0.25; stroke-linecap: square"/>
   </g>
   <g id="line2d_64">
    <path d="M 293.698565 180.383812 
L 295.58755 180.383827 
L 297.476588 180.383836 
L 299.365596 180.383839 
L 301.254514 180.383834 
L 303.143304 180.383826 
L 305.031944 180.383821 
L 306.920424 180.38382 
L 308.808745 180.38382 
L 310.696916 180.38382 
L 312.584949 180.38382 
L 314.47286 180.383819 
L 316.360664 180.383818 
L 318.24838 180.383818 
L 320.136022 180.383818 
L 322.023607 180.383818 
L 323.911147 180.383818 
L 325.798655 180.383818 
L 327.68614 180.383818 
L 329.573609 180.383819 
L 331.461071 180.383819 
L 333.348528 180.383819 
L 335.235986 180.383819 
L 337.123446 180.38382 
L 339.010911 180.38382 
L 340.898379 180.38382 
L 342.785853 180.38382 
L 344.67333 180.38382 
L 346.560811 180.38382 
L 348.448294 180.38382 
L 350.335778 180.38382 
" clip-path="url(#pf6a71d6efe)" style="fill: none; stroke: #ff0000; stroke-opacity: 0.8; stroke-width: 0.25; stroke-linecap: square"/>
   </g>
   <g id="line2d_65">
    <path d="M 293.698565 180.383812 
L 295.58755 180.383827 
L 297.476588 180.383836 
L 299.365596 180.383838 
L 301.254514 180.383834 
L 303.143304 180.383826 
L 305.031944 180.383821 
L 306.920424 180.38382 
L 308.808745 180.38382 
L 310.696916 180.38382 
L 312.584949 180.38382 
L 314.47286 180.383819 
L 316.360664 180.383818 
L 318.24838 180.383818 
L 320.136023 180.383818 
L 322.023608 180.383818 
L 323.911148 180.383818 
L 325.798656 180.383818 
L 327.68614 180.383818 
L 329.57361 180.383819 
L 331.461072 180.383819 
L 333.34853 180.383819 
L 335.235988 180.383819 
L 337.123449 180.38382 
L 339.010914 180.38382 
L 340.898383 180.38382 
L 342.785857 180.38382 
L 344.673335 180.38382 
L 346.560817 180.38382 
L 348.4483 180.38382 
L 350.335785 180.38382 
" clip-path="url(#pf6a71d6efe)" style="fill: none; stroke: #ff0000; stroke-width: 0.25; stroke-linecap: square"/>
   </g>
   <g id="line2d_66">
    <path d="M 242.022417 146.496534 
L 242.026477 144.976283 
L 242.023646 143.457676 
L 242.018901 141.939695 
L 242.014815 140.421571 
L 242.012477 138.902752 
L 242.011918 137.382877 
L 242.012642 135.86173 
L 242.013946 134.339216 
L 242.015242 132.815327 
L 242.016127 131.29012 
L 242.016564 129.763697 
L 242.01665 128.236189 
L 242.016475 126.707736 
L 242.016259 125.178483 
L 242.016042 123.648571 
L 242.015896 122.11813 
L 242.015811 120.587278 
L 242.015775 119.056116 
L 242.015774 117.524731 
L 242.01579 115.993198 
L 242.015803 114.461574 
L 242.015797 112.929907 
L 242.015796 111.398234 
L 242.015795 109.866569 
L 242.015793 108.334918 
L 242.015792 106.803281 
L 242.015794 105.271658 
L 242.015796 103.740044 
L 242.015802 102.208437 
L 242.015812 100.676832 
" clip-path="url(#pf6a71d6efe)" style="fill: none; stroke: #ff0000; stroke-opacity: 0.2; stroke-width: 0.25; stroke-linecap: square"/>
   </g>
   <g id="line2d_67">
    <path d="M 242.022417 146.496534 
L 242.026404 144.976283 
L 242.023529 143.457679 
L 242.018819 141.9397 
L 242.014814 140.421573 
L 242.012563 138.902749 
L 242.012067 137.382866 
L 242.012813 135.86171 
L 242.014102 134.339184 
L 242.015356 132.815281 
L 242.016188 131.290058 
L 242.016574 129.76362 
L 242.016618 128.236094 
L 242.016416 126.707624 
L 242.016185 125.178355 
L 242.015963 123.648427 
L 242.015819 122.11797 
L 242.015741 120.587103 
L 242.015714 119.055927 
L 242.015723 117.524531 
L 242.015749 115.992987 
L 242.015772 114.461354 
L 242.015776 112.929679 
L 242.015784 111.397999 
L 242.015791 109.866328 
L 242.015796 108.334672 
L 242.015801 106.803034 
L 242.015807 105.271411 
L 242.015813 103.739799 
L 242.01582 102.208195 
L 242.015832 100.676594 
" clip-path="url(#pf6a71d6efe)" style="fill: none; stroke: #ff0000; stroke-opacity: 0.4; stroke-width: 0.25; stroke-linecap: square"/>
   </g>
   <g id="line2d_68">
    <path d="M 242.022417 146.496534 
L 242.026329 144.976283 
L 242.023406 143.457684 
L 242.018728 141.93971 
L 242.0148 140.421586 
L 242.012631 138.902765 
L 242.012193 137.382884 
L 242.01296 135.861728 
L 242.014234 134.339202 
L 242.015451 132.815299 
L 242.016238 131.290076 
L 242.01658 129.763636 
L 242.016593 128.23611 
L 242.016372 126.70764 
L 242.016134 125.178371 
L 242.015915 123.648444 
L 242.01578 122.117989 
L 242.015713 120.587125 
L 242.015697 119.055954 
L 242.015717 117.524563 
L 242.015751 115.993025 
L 242.01578 114.4614 
L 242.015789 112.929734 
L 242.0158 111.398063 
L 242.015808 109.866402 
L 242.015811 108.334759 
L 242.015815 106.803134 
L 242.015817 105.271526 
L 242.015817 103.739931 
L 242.015818 102.208345 
L 242.015822 100.676763 
" clip-path="url(#pf6a71d6efe)" style="fill: none; stroke: #ff0000; stroke-opacity: 0.6; stroke-width: 0.25; stroke-linecap: square"/>
   </g>
   <g id="line2d_69">
    <path d="M 242.022417 146.496534 
L 242.026253 144.976283 
L 242.023279 143.457689 
L 242.01863 141.939717 
L 242.014773 140.421595 
L 242.012681 138.902774 
L 242.012297 137.382892 
L 242.013082 135.861734 
L 242.014341 134.339205 
L 242.015521 132.815297 
L 242.016265 131.290069 
L 242.01657 129.763624 
L 242.016555 128.236092 
L 242.016322 126.707615 
L 242.016081 125.17834 
L 242.015869 123.648406 
L 242.015744 122.117945 
L 242.015689 120.587075 
L 242.015685 119.055899 
L 242.015713 117.524504 
L 242.015754 115.992962 
L 242.015788 114.461334 
L 242.0158 112.929665 
L 242.015812 111.397991 
L 242.01582 109.866328 
L 242.015824 108.334682 
L 242.015825 106.803057 
L 242.015826 105.271451 
L 242.015823 103.739859 
L 242.015822 102.208276 
L 242.015823 100.676698 
" clip-path="url(#pf6a71d6efe)" style="fill: none; stroke: #ff0000; stroke-opacity: 0.8; stroke-width: 0.25; stroke-linecap: square"/>
   </g>
   <g id="line2d_70">
    <path d="M 242.022417 146.496534 
L 242.026176 144.976282 
L 242.023152 143.457693 
L 242.018528 141.939725 
L 242.01474 140.421607 
L 242.012722 138.902788 
L 242.012389 137.382907 
L 242.01319 135.861749 
L 242.014435 134.33922 
L 242.01558 132.815311 
L 242.016285 131.290082 
L 242.016556 129.763636 
L 242.016519 128.236103 
L 242.016275 126.707624 
L 242.016036 125.178348 
L 242.015832 123.648413 
L 242.015719 122.117951 
L 242.015675 120.587081 
L 242.015681 119.055904 
L 242.015717 117.52451 
L 242.015763 115.99297 
L 242.015798 114.461343 
L 242.01581 112.929676 
L 242.015822 111.398003 
L 242.015829 109.866343 
L 242.015831 108.334701 
L 242.01583 106.80308 
L 242.015828 105.271479 
L 242.015824 103.739893 
L 242.01582 102.208318 
L 242.015819 100.676748 
" clip-path="url(#pf6a71d6efe)" style="fill: none; stroke: #ff0000; stroke-width: 0.25; stroke-linecap: square"/>
   </g>
   <g id="line2d_71">
    <path d="M 252.768506 179.843267 
L 254.340137 179.403248 
L 255.964592 179.101951 
L 257.629109 178.947081 
L 259.318483 178.945303 
L 261.015807 179.101011 
L 262.7034 179.416412 
L 264.38326 179.815834 
L 266.101586 180.051979 
L 267.836499 180.191421 
L 269.57945 180.277609 
L 271.327217 180.331462 
L 273.078238 180.36412 
L 274.831617 180.382361 
L 276.58676 180.391208 
L 278.343251 180.394203 
L 280.100787 180.394024 
L 281.859139 180.392557 
L 283.618134 180.391031 
L 285.377641 180.39021 
L 287.137559 180.390214 
L 288.897822 180.39082 
L 290.658386 180.391485 
L 292.419226 180.391836 
L 294.180343 180.391401 
L 295.941742 180.390074 
L 297.703437 180.387682 
L 299.465446 180.38421 
L 301.22778 180.379545 
L 302.990451 180.373648 
L 304.753464 180.366607 
" clip-path="url(#pf6a71d6efe)" style="fill: none; stroke: #ff0000; stroke-opacity: 0.2; stroke-width: 0.25; stroke-linecap: square"/>
   </g>
   <g id="line2d_72">
    <path d="M 252.768506 179.843267 
L 254.340045 179.40292 
L 255.96435 179.100827 
L 257.628765 178.944901 
L 259.318136 178.941828 
L 261.015552 179.09655 
L 262.703229 179.411521 
L 264.382953 179.811543 
L 266.101248 180.047976 
L 267.83615 180.187643 
L 269.579098 180.274038 
L 271.326864 180.328104 
L 273.077882 180.361003 
L 274.831255 180.379524 
L 276.586387 180.388705 
L 278.342859 180.392095 
L 280.100368 180.392377 
L 281.858683 180.391439 
L 283.617632 180.390515 
L 285.377081 180.39037 
L 287.13693 180.391125 
L 288.897112 180.392562 
L 290.657583 180.394139 
L 292.418322 180.395488 
L 294.179328 180.396137 
L 295.940608 180.395983 
L 297.702179 180.39485 
L 299.464057 180.392721 
L 301.226258 180.389475 
L 302.988792 180.385061 
L 304.751667 180.379553 
" clip-path="url(#pf6a71d6efe)" style="fill: none; stroke: #ff0000; stroke-opacity: 0.4; stroke-width: 0.25; stroke-linecap: square"/>
   </g>
   <g id="line2d_73">
    <path d="M 252.768506 179.843267 
L 254.340173 179.403379 
L 255.964568 179.1018 
L 257.629033 178.946522 
L 259.318395 178.944128 
L 261.015726 179.099667 
L 262.703204 179.415664 
L 264.38265 179.816845 
L 266.100834 180.054101 
L 267.835695 180.194387 
L 269.578633 180.281227 
L 271.326404 180.335588 
L 273.077435 180.368657 
L 274.83082 180.387244 
L 276.585963 180.396402 
L 278.342442 180.399696 
L 280.099951 180.399817 
L 281.858259 180.398664 
L 283.617191 180.397478 
L 285.376615 180.397032 
L 287.13643 180.397456 
L 288.896569 180.39854 
L 290.656988 180.399751 
L 292.417666 180.400731 
L 294.178602 180.401019 
L 295.939805 180.400516 
L 297.701291 180.399054 
L 299.46308 180.39662 
L 301.225185 180.393095 
L 302.987621 180.388427 
L 304.750397 180.382682 
" clip-path="url(#pf6a71d6efe)" style="fill: none; stroke: #ff0000; stroke-opacity: 0.6; stroke-width: 0.25; stroke-linecap: square"/>
   </g>
   <g id="line2d_74">
    <path d="M 252.768506 179.843267 
L 254.340371 179.404085 
L 255.964991 179.103777 
L 257.629597 178.950157 
L 259.318943 178.949755 
L 261.016089 179.107113 
L 262.703284 179.424539 
L 264.382412 179.827015 
L 266.100463 180.065226 
L 267.835276 180.206192 
L 269.578207 180.293456 
L 271.325992 180.348016 
L 273.077045 180.38109 
L 274.830456 180.399518 
L 276.585624 180.408375 
L 278.342124 180.411245 
L 280.099648 180.410837 
L 281.857966 180.409063 
L 283.6169 180.407176 
L 285.37632 180.405964 
L 287.136122 180.405567 
L 288.89624 180.40579 
L 290.656631 180.406111 
L 292.417272 180.406185 
L 294.178163 180.40556 
L 295.939314 180.40415 
L 297.700742 180.401794 
L 299.462466 180.398484 
L 301.224503 180.394105 
L 302.986866 180.388604 
L 304.749566 180.382042 
" clip-path="url(#pf6a71d6efe)" style="fill: none; stroke: #ff0000; stroke-opacity: 0.8; stroke-width: 0.25; stroke-linecap: square"/>
   </g>
   <g id="line2d_75">
    <path d="M 252.768506 179.843267 
L 254.340489 179.404508 
L 255.965245 179.104979 
L 257.629928 178.952342 
L 259.319259 178.953198 
L 261.016279 179.111771 
L 262.703276 179.430196 
L 264.3822 179.833507 
L 266.100188 180.072224 
L 267.834996 180.213438 
L 269.57795 180.300719 
L 271.325769 180.355104 
L 273.076862 180.387844 
L 274.830313 180.405812 
L 276.585519 180.414108 
L 278.342053 180.416338 
L 280.099607 180.415228 
L 281.857948 180.412708 
L 283.616901 180.410043 
L 285.376331 180.408033 
L 287.136137 180.406832 
L 288.896252 180.406255 
L 290.656631 180.405793 
L 292.417253 180.405109 
L 294.178118 180.403763 
L 295.939235 180.401673 
L 297.700624 180.398685 
L 299.462303 180.394793 
L 301.224291 180.389879 
L 302.986602 180.383885 
L 304.749248 180.376862 
" clip-path="url(#pf6a71d6efe)" style="fill: none; stroke: #ff0000; stroke-width: 0.25; stroke-linecap: square"/>
   </g>
   <g id="line2d_76">
    <path d="M 230.308973 213.515314 
L 230.307464 215.736695 
L 230.30512 217.957796 
L 230.303778 220.179742 
L 230.303552 222.403298 
L 230.303806 224.628941 
L 230.304078 226.856921 
L 230.30422 229.087311 
L 230.304256 231.320052 
L 230.304253 233.554997 
L 230.304244 235.791935 
L 230.304237 238.030626 
L 230.304227 240.270816 
L 230.30421 242.512252 
L 230.304188 244.754697 
L 230.304167 246.997933 
L 230.304152 249.241766 
L 230.304145 251.48603 
L 230.304145 253.730587 
L 230.304148 255.975324 
L 230.304163 258.220153 
L 230.304172 260.465006 
L 230.304176 262.709837 
L 230.304176 264.954615 
L 230.304176 267.199323 
L 230.304177 269.443955 
L 230.30418 271.688514 
L 230.304183 273.93301 
L 230.304186 276.177457 
L 230.304185 278.421872 
L 230.304184 280.666274 
" clip-path="url(#pf6a71d6efe)" style="fill: none; stroke: #ff0000; stroke-opacity: 0.2; stroke-width: 0.25; stroke-linecap: square"/>
   </g>
   <g id="line2d_77">
    <path d="M 230.308973 213.515314 
L 230.307454 215.736695 
L 230.305118 217.957792 
L 230.303789 220.179735 
L 230.303572 222.403288 
L 230.30383 224.628928 
L 230.304102 226.856904 
L 230.30424 229.08729 
L 230.30427 231.320029 
L 230.304262 233.55497 
L 230.304247 235.791906 
L 230.304235 238.030596 
L 230.30422 240.270786 
L 230.3042 242.512224 
L 230.304177 244.754673 
L 230.304157 246.997915 
L 230.304143 249.241758 
L 230.304138 251.486037 
L 230.304139 253.730612 
L 230.304144 255.97537 
L 230.30416 258.220224 
L 230.304169 260.465107 
L 230.304174 262.709971 
L 230.304175 264.954785 
L 230.304176 267.199531 
L 230.304177 269.444203 
L 230.30418 271.688804 
L 230.304183 273.933341 
L 230.304185 276.177828 
L 230.304183 278.422281 
L 230.304178 280.666719 
" clip-path="url(#pf6a71d6efe)" style="fill: none; stroke: #ff0000; stroke-opacity: 0.4; stroke-width: 0.25; stroke-linecap: square"/>
   </g>
   <g id="line2d_78">
    <path d="M 230.308973 213.515314 
L 230.307443 215.736695 
L 230.305115 217.957791 
L 230.303797 220.179733 
L 230.303589 222.403285 
L 230.303851 224.628924 
L 230.304121 226.856901 
L 230.304256 229.087287 
L 230.304281 231.320025 
L 230.304268 233.554965 
L 230.304248 235.791901 
L 230.304232 238.030589 
L 230.304214 240.270777 
L 230.304193 242.512212 
L 230.304171 244.754657 
L 230.304151 246.997893 
L 230.304139 249.24173 
L 230.304137 251.486 
L 230.304141 253.730564 
L 230.304146 255.975312 
L 230.304163 258.220153 
L 230.304173 260.465022 
L 230.304177 262.709871 
L 230.304178 264.954669 
L 230.304178 267.199399 
L 230.304179 269.444053 
L 230.304181 271.688634 
L 230.304184 273.933152 
L 230.304186 276.177618 
L 230.304186 278.42205 
L 230.304181 280.666466 
" clip-path="url(#pf6a71d6efe)" style="fill: none; stroke: #ff0000; stroke-opacity: 0.6; stroke-width: 0.25; stroke-linecap: square"/>
   </g>
   <g id="line2d_79">
    <path d="M 230.308973 213.515314 
L 230.307432 215.736695 
L 230.30511 217.95779 
L 230.303804 220.179731 
L 230.303603 222.403283 
L 230.303868 224.628923 
L 230.304137 226.8569 
L 230.304268 229.087287 
L 230.304289 231.320027 
L 230.30427 233.554969 
L 230.304246 235.791907 
L 230.304227 238.030597 
L 230.304208 240.270788 
L 230.304186 242.512226 
L 230.304164 244.754674 
L 230.304146 246.997915 
L 230.304136 249.241756 
L 230.304136 251.486031 
L 230.304141 253.730602 
L 230.304148 255.975356 
L 230.304165 258.220204 
L 230.304174 260.465081 
L 230.304177 262.709938 
L 230.304177 264.954745 
L 230.304177 267.199484 
L 230.304178 269.444147 
L 230.30418 271.688739 
L 230.304182 273.933266 
L 230.304184 276.177743 
L 230.304184 278.422185 
L 230.30418 280.66661 
" clip-path="url(#pf6a71d6efe)" style="fill: none; stroke: #ff0000; stroke-opacity: 0.8; stroke-width: 0.25; stroke-linecap: square"/>
   </g>
   <g id="line2d_80">
    <path d="M 230.308973 213.515314 
L 230.30742 215.736695 
L 230.305105 217.957789 
L 230.303809 220.17973 
L 230.303616 222.403281 
L 230.303883 224.628921 
L 230.304151 226.856897 
L 230.304278 229.087284 
L 230.304295 231.320023 
L 230.304272 233.554964 
L 230.304244 235.791901 
L 230.304222 238.03059 
L 230.304201 240.270779 
L 230.304179 242.512215 
L 230.304158 244.754661 
L 230.304143 246.9979 
L 230.304135 249.241738 
L 230.304137 251.486009 
L 230.304144 253.730577 
L 230.304151 255.975327 
L 230.304167 258.220171 
L 230.304176 260.465044 
L 230.304178 262.709896 
L 230.304178 264.954698 
L 230.304178 267.199432 
L 230.304178 269.44409 
L 230.30418 271.688676 
L 230.304183 273.933198 
L 230.304185 276.17767 
L 230.304185 278.422106 
L 230.304181 280.666526 
" clip-path="url(#pf6a71d6efe)" style="fill: none; stroke: #ff0000; stroke-width: 0.25; stroke-linecap: square"/>
   </g>
   <g id="line2d_81">
    <path d="M 219.556575 169.234315 
L 217.989555 169.686323 
L 216.367982 170.000674 
L 214.704293 170.168975 
L 213.013664 170.184253 
L 211.313169 170.041418 
L 209.620879 169.737703 
L 207.954931 169.273265 
L 206.237018 169.013993 
L 204.500223 168.863569 
L 202.754764 168.774547 
L 201.004534 168.72145 
L 199.25129 168.690336 
L 197.495992 168.673281 
L 195.739215 168.665103 
L 193.981347 168.662209 
L 192.222663 168.661927 
L 190.463366 168.662447 
L 188.703606 168.662682 
L 186.943496 168.66229 
L 185.183109 168.661369 
L 183.422488 168.660228 
L 181.661652 168.659236 
L 179.900599 168.658792 
L 178.139317 168.659231 
L 176.377786 168.660792 
L 174.615985 168.663516 
L 172.853892 168.667623 
L 171.091491 168.673277 
L 169.328767 168.68033 
L 167.565713 168.688739 
" clip-path="url(#pf6a71d6efe)" style="fill: none; stroke: #ff0000; stroke-opacity: 0.2; stroke-width: 0.25; stroke-linecap: square"/>
   </g>
   <g id="line2d_82">
    <path d="M 219.556575 169.234315 
L 217.989485 169.686079 
L 216.367915 170.000442 
L 214.704265 170.16911 
L 213.013641 170.185016 
L 211.313073 170.043012 
L 209.620589 169.740346 
L 207.954483 169.276443 
L 206.236563 169.017159 
L 204.499755 168.86679 
L 202.754286 168.777838 
L 201.004051 168.724801 
L 199.250808 168.693719 
L 197.495517 168.676652 
L 195.738756 168.668408 
L 193.980913 168.665384 
L 192.222264 168.664905 
L 190.463013 168.665155 
L 188.70331 168.665044 
L 186.94327 168.664223 
L 185.182964 168.66279 
L 183.422438 168.661047 
L 181.661707 168.659357 
L 179.90077 168.658117 
L 178.139613 168.657658 
L 176.378216 168.658218 
L 174.616555 168.659839 
L 172.854609 168.662744 
L 171.092358 168.667107 
L 169.329785 168.672791 
L 167.566885 168.679774 
" clip-path="url(#pf6a71d6efe)" style="fill: none; stroke: #ff0000; stroke-opacity: 0.4; stroke-width: 0.25; stroke-linecap: square"/>
   </g>
   <g id="line2d_83">
    <path d="M 219.556575 169.234315 
L 217.989489 169.686095 
L 216.367832 169.999982 
L 214.704127 170.168062 
L 213.013502 170.183328 
L 211.312985 170.04077 
L 209.62055 169.737836 
L 207.954455 169.273882 
L 206.2366 169.014124 
L 204.49981 168.863437 
L 202.754341 168.774284 
L 201.004098 168.721142 
L 199.250847 168.690026 
L 197.49555 168.672982 
L 195.738788 168.664801 
L 193.980952 168.661873 
L 192.222317 168.661512 
L 190.46309 168.661896 
L 188.703421 168.661926 
L 186.943425 168.661249 
L 185.183174 168.659951 
L 183.422713 168.65833 
L 181.662058 168.656738 
L 179.901206 168.655564 
L 178.140144 168.655133 
L 176.37885 168.655674 
L 174.617298 168.657228 
L 172.855468 168.660013 
L 171.093337 168.664207 
L 169.330888 168.669679 
L 167.568112 168.676415 
" clip-path="url(#pf6a71d6efe)" style="fill: none; stroke: #ff0000; stroke-opacity: 0.6; stroke-width: 0.25; stroke-linecap: square"/>
   </g>
   <g id="line2d_84">
    <path d="M 219.556575 169.234315 
L 217.989545 169.686287 
L 216.367836 169.999882 
L 214.704066 170.167242 
L 213.013441 170.181476 
L 211.313033 170.037686 
L 209.620847 169.733381 
L 207.954974 169.268618 
L 206.237221 169.008114 
L 204.500462 168.856892 
L 202.754988 168.767391 
L 201.004727 168.714057 
L 199.25145 168.682883 
L 197.496128 168.665892 
L 195.739343 168.657858 
L 193.981488 168.655155 
L 192.222842 168.655086 
L 190.46361 168.655818 
L 188.703945 168.656243 
L 186.94396 168.655996 
L 185.183731 168.655154 
L 183.4233 168.654001 
L 181.662684 168.652882 
L 179.901881 168.652173 
L 178.140875 168.652189 
L 176.379645 168.653153 
L 174.618165 168.655096 
L 172.856411 168.658236 
L 171.094361 168.662746 
L 169.331997 168.6685 
L 167.569308 168.675494 
" clip-path="url(#pf6a71d6efe)" style="fill: none; stroke: #ff0000; stroke-opacity: 0.8; stroke-width: 0.25; stroke-linecap: square"/>
   </g>
   <g id="line2d_85">
    <path d="M 219.556575 169.234315 
L 217.98946 169.685992 
L 216.367734 169.999479 
L 214.703943 170.166559 
L 213.013319 170.180329 
L 211.312976 170.035806 
L 209.620999 169.730332 
L 207.955356 169.264705 
L 206.237664 169.003674 
L 204.500905 168.852137 
L 202.755405 168.762506 
L 201.005104 168.709197 
L 199.251783 168.678172 
L 197.496416 168.661431 
L 195.739588 168.65373 
L 193.981694 168.651425 
L 192.223015 168.651806 
L 190.463756 168.653028 
L 188.704071 168.653972 
L 186.944074 168.654262 
L 185.18384 168.653965 
L 183.423414 168.653354 
L 181.66281 168.652762 
L 179.902028 168.652556 
L 178.141051 168.653042 
L 176.379856 168.654435 
L 174.618419 168.656762 
L 172.856712 168.660236 
L 171.094715 168.665035 
L 169.332405 168.671035 
L 167.569774 168.678243 
" clip-path="url(#pf6a71d6efe)" style="fill: none; stroke: #ff0000; stroke-width: 0.25; stroke-linecap: square"/>
   </g>
   <g id="line2d_86">
    <path d="M 230.981917 190.967693 
L 231.433351 192.589883 
L 231.735642 194.256912 
L 231.883341 195.955653 
L 231.87193 197.671011 
L 231.698397 199.386477 
L 231.361682 201.084809 
L 230.917608 202.764205 
L 230.662717 204.487126 
L 230.508815 206.225506 
L 230.412052 207.970727 
L 230.351179 209.719717 
L 230.314334 211.471095 
L 230.293184 213.224116 
L 230.282245 214.978347 
L 230.277557 216.733515 
L 230.276257 218.489438 
L 230.276371 220.245983 
L 230.276701 222.00305 
L 230.276715 223.760565 
L 230.276381 225.518474 
L 230.27597 227.276742 
L 230.275917 229.035349 
L 230.276697 230.794287 
L 230.278721 232.553556 
L 230.282283 234.31316 
L 230.28742 236.073107 
L 230.29435 237.833406 
L 230.303207 239.594062 
L 230.313957 241.355082 
L 230.3265 243.116468 
" clip-path="url(#pf6a71d6efe)" style="fill: none; stroke: #ff0000; stroke-opacity: 0.2; stroke-width: 0.25; stroke-linecap: square"/>
   </g>
   <g id="line2d_87">
    <path d="M 230.981917 190.967693 
L 231.434394 192.589593 
L 231.737847 194.25641 
L 231.886533 195.955065 
L 231.875849 197.67043 
L 231.702967 199.385967 
L 231.367223 201.084498 
L 230.922783 202.763806 
L 230.667898 204.486738 
L 230.514116 206.225136 
L 230.417536 207.970374 
L 230.356871 209.719377 
L 230.320231 211.470761 
L 230.299253 213.223782 
L 230.288434 214.978006 
L 230.283796 216.733162 
L 230.28246 218.489066 
L 230.28244 220.245585 
L 230.282527 222.00262 
L 230.282177 223.760094 
L 230.281349 225.517954 
L 230.280304 227.276166 
L 230.279469 229.034709 
L 230.279311 230.793576 
L 230.280237 232.552769 
L 230.282539 234.312291 
L 230.286257 236.072153 
L 230.291615 237.832363 
L 230.298762 239.59293 
L 230.307683 241.35386 
L 230.318311 243.115157 
" clip-path="url(#pf6a71d6efe)" style="fill: none; stroke: #ff0000; stroke-opacity: 0.4; stroke-width: 0.25; stroke-linecap: square"/>
   </g>
   <g id="line2d_88">
    <path d="M 230.981917 190.967693 
L 231.435667 192.589237 
L 231.739415 194.255998 
L 231.887692 195.954688 
L 231.876256 197.670048 
L 231.702772 199.385526 
L 231.367054 201.084069 
L 230.921752 202.76316 
L 230.66638 204.486034 
L 230.512306 206.224425 
L 230.415585 207.969676 
L 230.354898 209.718698 
L 230.31832 211.470106 
L 230.297464 213.223149 
L 230.286803 214.977393 
L 230.28234 216.732565 
L 230.281181 218.488481 
L 230.281325 220.245006 
L 230.281551 222.002041 
L 230.281301 223.759511 
L 230.280523 225.51736 
L 230.279467 227.275553 
L 230.278546 229.034073 
L 230.278218 230.79291 
L 230.278882 232.552066 
L 230.280823 234.311547 
L 230.28408 236.071363 
L 230.288876 237.831525 
L 230.295367 239.59204 
L 230.303552 241.352917 
L 230.313383 243.11416 
" clip-path="url(#pf6a71d6efe)" style="fill: none; stroke: #ff0000; stroke-opacity: 0.6; stroke-width: 0.25; stroke-linecap: square"/>
   </g>
   <g id="line2d_89">
    <path d="M 230.981917 190.967693 
L 231.435211 192.589365 
L 231.737993 194.256297 
L 231.885198 195.955075 
L 231.872817 197.670423 
L 231.698519 199.385815 
L 231.361899 201.08418 
L 230.915555 202.762999 
L 230.659516 204.485785 
L 230.505029 206.224155 
L 230.408118 207.969415 
L 230.347424 209.718461 
L 230.310988 211.469897 
L 230.290392 213.222969 
L 230.280082 214.977241 
L 230.276041 216.732437 
L 230.275355 218.488373 
L 230.276007 220.244915 
L 230.27676 222.001962 
L 230.277041 223.759437 
L 230.276784 225.517287 
L 230.276224 227.275477 
L 230.275761 229.033985 
L 230.27584 230.792806 
L 230.276851 232.55194 
L 230.279067 234.311394 
L 230.282524 236.071179 
L 230.287444 237.831305 
L 230.293985 239.591781 
L 230.302154 241.352617 
L 230.311922 243.113818 
" clip-path="url(#pf6a71d6efe)" style="fill: none; stroke: #ff0000; stroke-opacity: 0.8; stroke-width: 0.25; stroke-linecap: square"/>
   </g>
   <g id="line2d_90">
    <path d="M 230.981917 190.967693 
L 231.433442 192.589858 
L 231.735139 194.256983 
L 231.881832 195.955797 
L 231.869236 197.671136 
L 231.694534 199.386481 
L 231.356765 201.084614 
L 230.909577 202.76321 
L 230.653064 204.485931 
L 230.498365 206.224294 
L 230.401467 207.969571 
L 230.340973 209.718643 
L 230.304884 211.470107 
L 230.284748 213.223207 
L 230.274986 214.977503 
L 230.271554 216.73272 
L 230.27152 218.488672 
L 230.272849 220.245226 
L 230.274286 222.002281 
L 230.275246 223.759759 
L 230.275647 225.517607 
L 230.275709 227.275788 
L 230.27582 229.034283 
L 230.276413 230.793084 
L 230.277867 232.552193 
L 230.280448 234.311617 
L 230.284188 236.071366 
L 230.289307 237.831453 
L 230.295968 239.591888 
L 230.304189 241.35268 
L 230.313956 243.113835 
" clip-path="url(#pf6a71d6efe)" style="fill: none; stroke: #ff0000; stroke-width: 0.25; stroke-linecap: square"/>
   </g>
   <g id="patch_15">
    <path d="M 103.104 307.584 
L 103.104 41.472 
" style="fill: none; stroke: #000000; stroke-width: 0.8; stroke-linejoin: miter; stroke-linecap: square"/>
   </g>
   <g id="patch_16">
    <path d="M 369.216 307.584 
L 369.216 41.472 
" style="fill: none; stroke: #000000; stroke-width: 0.8; stroke-linejoin: miter; stroke-linecap: square"/>
   </g>
   <g id="patch_17">
    <path d="M 103.104 307.584 
L 369.216 307.584 
" style="fill: none; stroke: #000000; stroke-width: 0.8; stroke-linejoin: miter; stroke-linecap: square"/>
   </g>
   <g id="patch_18">
    <path d="M 103.104 41.472 
L 369.216 41.472 
" style="fill: none; stroke: #000000; stroke-width: 0.8; stroke-linejoin: miter; stroke-linecap: square"/>
   </g>
   <g id="text_19">
    <!-- Time:  85 ms -->
    <g transform="translate(264.253887 54.7776) scale(0.1 -0.1)">
     <defs>
      <path id="DejaVuSans-54" d="M -19 4666 
L 3928 4666 
L 3928 4134 
L 2272 4134 
L 2272 0 
L 1638 0 
L 1638 4134 
L -19 4134 
L -19 4666 
z
" transform="scale(0.015625)"/>
      <path id="DejaVuSans-69" d="M 603 3500 
L 1178 3500 
L 1178 0 
L 603 0 
L 603 3500 
z
M 603 4863 
L 1178 4863 
L 1178 4134 
L 603 4134 
L 603 4863 
z
" transform="scale(0.015625)"/>
      <path id="DejaVuSans-6d" d="M 3328 2828 
Q 3544 3216 3844 3400 
Q 4144 3584 4550 3584 
Q 5097 3584 5394 3201 
Q 5691 2819 5691 2113 
L 5691 0 
L 5113 0 
L 5113 2094 
Q 5113 2597 4934 2840 
Q 4756 3084 4391 3084 
Q 3944 3084 3684 2787 
Q 3425 2491 3425 1978 
L 3425 0 
L 2847 0 
L 2847 2094 
Q 2847 2600 2669 2842 
Q 2491 3084 2119 3084 
Q 1678 3084 1418 2786 
Q 1159 2488 1159 1978 
L 1159 0 
L 581 0 
L 581 3500 
L 1159 3500 
L 1159 2956 
Q 1356 3278 1631 3431 
Q 1906 3584 2284 3584 
Q 2666 3584 2933 3390 
Q 3200 3197 3328 2828 
z
" transform="scale(0.015625)"/>
      <path id="DejaVuSans-65" d="M 3597 1894 
L 3597 1613 
L 953 1613 
Q 991 1019 1311 708 
Q 1631 397 2203 397 
Q 2534 397 2845 478 
Q 3156 559 3463 722 
L 3463 178 
Q 3153 47 2828 -22 
Q 2503 -91 2169 -91 
Q 1331 -91 842 396 
Q 353 884 353 1716 
Q 353 2575 817 3079 
Q 1281 3584 2069 3584 
Q 2775 3584 3186 3129 
Q 3597 2675 3597 1894 
z
M 3022 2063 
Q 3016 2534 2758 2815 
Q 2500 3097 2075 3097 
Q 1594 3097 1305 2825 
Q 1016 2553 972 2059 
L 3022 2063 
z
" transform="scale(0.015625)"/>
      <path id="DejaVuSans-3a" d="M 750 794 
L 1409 794 
L 1409 0 
L 750 0 
L 750 794 
z
M 750 3309 
L 1409 3309 
L 1409 2516 
L 750 2516 
L 750 3309 
z
" transform="scale(0.015625)"/>
      <path id="DejaVuSans-20" transform="scale(0.015625)"/>
      <path id="DejaVuSans-38" d="M 2034 2216 
Q 1584 2216 1326 1975 
Q 1069 1734 1069 1313 
Q 1069 891 1326 650 
Q 1584 409 2034 409 
Q 2484 409 2743 651 
Q 3003 894 3003 1313 
Q 3003 1734 2745 1975 
Q 2488 2216 2034 2216 
z
M 1403 2484 
Q 997 2584 770 2862 
Q 544 3141 544 3541 
Q 544 4100 942 4425 
Q 1341 4750 2034 4750 
Q 2731 4750 3128 4425 
Q 3525 4100 3525 3541 
Q 3525 3141 3298 2862 
Q 3072 2584 2669 2484 
Q 3125 2378 3379 2068 
Q 3634 1759 3634 1313 
Q 3634 634 3220 271 
Q 2806 -91 2034 -91 
Q 1263 -91 848 271 
Q 434 634 434 1313 
Q 434 1759 690 2068 
Q 947 2378 1403 2484 
z
M 1172 3481 
Q 1172 3119 1398 2916 
Q 1625 2713 2034 2713 
Q 2441 2713 2670 2916 
Q 2900 3119 2900 3481 
Q 2900 3844 2670 4047 
Q 2441 4250 2034 4250 
Q 1625 4250 1398 4047 
Q 1172 3844 1172 3481 
z
" transform="scale(0.015625)"/>
      <path id="DejaVuSans-35" d="M 691 4666 
L 3169 4666 
L 3169 4134 
L 1269 4134 
L 1269 2991 
Q 1406 3038 1543 3061 
Q 1681 3084 1819 3084 
Q 2600 3084 3056 2656 
Q 3513 2228 3513 1497 
Q 3513 744 3044 326 
Q 2575 -91 1722 -91 
Q 1428 -91 1123 -41 
Q 819 9 494 109 
L 494 744 
Q 775 591 1075 516 
Q 1375 441 1709 441 
Q 2250 441 2565 725 
Q 2881 1009 2881 1497 
Q 2881 1984 2565 2268 
Q 2250 2553 1709 2553 
Q 1456 2553 1204 2497 
Q 953 2441 691 2322 
L 691 4666 
z
" transform="scale(0.015625)"/>
      <path id="DejaVuSans-73" d="M 2834 3397 
L 2834 2853 
Q 2591 2978 2328 3040 
Q 2066 3103 1784 3103 
Q 1356 3103 1142 2972 
Q 928 2841 928 2578 
Q 928 2378 1081 2264 
Q 1234 2150 1697 2047 
L 1894 2003 
Q 2506 1872 2764 1633 
Q 3022 1394 3022 966 
Q 3022 478 2636 193 
Q 2250 -91 1575 -91 
Q 1294 -91 989 -36 
Q 684 19 347 128 
L 347 722 
Q 666 556 975 473 
Q 1284 391 1588 391 
Q 1994 391 2212 530 
Q 2431 669 2431 922 
Q 2431 1156 2273 1281 
Q 2116 1406 1581 1522 
L 1381 1569 
Q 847 1681 609 1914 
Q 372 2147 372 2553 
Q 372 3047 722 3315 
Q 1072 3584 1716 3584 
Q 2034 3584 2315 3537 
Q 2597 3491 2834 3397 
z
" transform="scale(0.015625)"/>
     </defs>
     <use xlink:href="#DejaVuSans-54"/>
     <use xlink:href="#DejaVuSans-69" x="57.958984"/>
     <use xlink:href="#DejaVuSans-6d" x="85.742188"/>
     <use xlink:href="#DejaVuSans-65" x="183.154297"/>
     <use xlink:href="#DejaVuSans-3a" x="244.677734"/>
     <use xlink:href="#DejaVuSans-20" x="278.369141"/>
     <use xlink:href="#DejaVuSans-20" x="310.15625"/>
     <use xlink:href="#DejaVuSans-38" x="341.943359"/>
     <use xlink:href="#DejaVuSans-35" x="405.566406"/>
     <use xlink:href="#DejaVuSans-20" x="469.189453"/>
     <use xlink:href="#DejaVuSans-6d" x="500.976562"/>
     <use xlink:href="#DejaVuSans-73" x="598.388672"/>
    </g>
   </g>
  </g>
 </g>
 <defs>
  <clipPath id="pf6a71d6efe">
   <rect x="103.104" y="41.472" width="266.112" height="266.112"/>
  </clipPath>
 </defs>
</svg>
