<?xml version="1.0" encoding="utf-8" standalone="no"?>
<!DOCTYPE svg PUBLIC "-//W3C//DTD SVG 1.1//EN"
  "http://www.w3.org/Graphics/SVG/1.1/DTD/svg11.dtd">
<svg xmlns:xlink="http://www.w3.org/1999/xlink" width="460.8pt" height="345.6pt" viewBox="0 0 460.8 345.6" xmlns="http://www.w3.org/2000/svg" version="1.1">
 <metadata>
  <rdf:RDF xmlns:dc="http://purl.org/dc/elements/1.1/" xmlns:cc="http://creativecommons.org/ns#" xmlns:rdf="http://www.w3.org/1999/02/22-rdf-syntax-ns#">
   <cc:Work>
    <dc:type rdf:resource="http://purl.org/dc/dcmitype/StillImage"/>
    <dc:date>2024-01-22T16:49:19.982400</dc:date>
    <dc:format>image/svg+xml</dc:format>
    <dc:creator>
     <cc:Agent>
      <dc:title>Matplotlib v3.8.2, https://matplotlib.org/</dc:title>
     </cc:Agent>
    </dc:creator>
   </cc:Work>
  </rdf:RDF>
 </metadata>
 <defs>
  <style type="text/css">*{stroke-linejoin: round; stroke-linecap: butt}</style>
 </defs>
 <g id="figure_1">
  <g id="patch_1">
   <path d="M 0 345.6 
L 460.8 345.6 
L 460.8 0 
L 0 0 
z
" style="fill: #ffffff"/>
  </g>
  <g id="axes_1">
   <g id="patch_2">
    <path d="M 103.104 307.584 
L 369.216 307.584 
L 369.216 41.472 
L 103.104 41.472 
z
" style="fill: #ffffff"/>
   </g>
   <g id="patch_3">
    <path d="M 245.178195 128.47367 
L 245.206185 116.831304 
L 239.551321 116.817709 
L 239.523331 128.460075 
z
" clip-path="url(#p8f19723235)" style="fill: #00008b"/>
   </g>
   <g id="patch_4">
    <path d="M 190.382464 165.520484 
L 178.740084 165.498509 
L 178.729411 171.153379 
L 190.37179 171.175354 
z
" clip-path="url(#p8f19723235)" style="fill: #800000"/>
   </g>
   <g id="patch_5">
    <path d="M 279.375275 183.564376 
L 291.017675 183.565682 
L 291.01831 177.910802 
L 279.37591 177.909496 
z
" clip-path="url(#p8f19723235)" style="fill: #006400"/>
   </g>
   <g id="patch_6">
    <path d="M 227.149419 227.605043 
L 227.10555 239.24736 
L 232.760389 239.268668 
L 232.804259 227.626351 
z
" clip-path="url(#p8f19723235)" style="fill: #4b0082"/>
   </g>
   <g id="patch_7">
    <path d="M 244.987846 161.822573 
L 243.583987 150.265123 
L 237.970369 150.946997 
L 239.374228 162.504448 
z
" clip-path="url(#p8f19723235)" style="fill: #0000ff"/>
   </g>
   <g id="patch_8">
    <path d="M 227.232773 185.711748 
L 226.692087 197.341586 
L 232.340866 197.604205 
L 232.881552 185.974366 
z
" clip-path="url(#p8f19723235)" style="fill: #ff0000"/>
   </g>
   <g id="patch_9">
    <path d="M 215.045666 166.020948 
L 203.441687 166.966009 
L 203.900717 172.602228 
L 215.504696 171.657167 
z
" clip-path="url(#p8f19723235)" style="fill: #dbdc56"/>
   </g>
   <g id="patch_10">
    <path d="M 249.098355 185.012823 
L 260.557381 182.954617 
L 259.557681 177.388805 
L 248.098655 179.44701 
z
" clip-path="url(#p8f19723235)" style="fill: #9400d3"/>
   </g>
   <g id="patch_11">
    <path d="M 244.295184 203.087283 
L 244.314881 191.444899 
L 238.660009 191.435332 
L 238.640312 203.077716 
z
" clip-path="url(#p8f19723235)" style="fill: #1e90ff"/>
   </g>
   <g id="patch_12">
    <path d="M 254.339219 165.74731 
L 242.699792 165.484219 
L 242.572006 171.137655 
L 254.211433 171.400746 
z
" clip-path="url(#p8f19723235)" style="fill: #ff4500"/>
   </g>
   <g id="patch_13">
    <path d="M 227.879631 145.869752 
L 227.674951 157.510353 
L 233.328957 157.609769 
L 233.533637 145.969168 
z
" clip-path="url(#p8f19723235)" style="fill: #7cfc00"/>
   </g>
   <g id="patch_14">
    <path d="M 218.154842 183.138253 
L 229.776157 182.437882 
L 229.435977 176.793244 
L 217.814662 177.493615 
z
" clip-path="url(#p8f19723235)" style="fill: #ff00ff"/>
   </g>
   <g id="matplotlib.axis_1">
    <g id="xtick_1">
     <g id="line2d_1">
      <defs>
       <path id="m365ff94f8b" d="M 0 0 
L 0 3.5 
" style="stroke: #000000; stroke-width: 0.8"/>
      </defs>
      <g>
       <use xlink:href="#m365ff94f8b" x="103.104" y="307.584" style="stroke: #000000; stroke-width: 0.8"/>
      </g>
     </g>
     <g id="text_1">
      <!-- −40 -->
      <g transform="translate(92.551656 322.182437) scale(0.1 -0.1)">
       <defs>
        <path id="DejaVuSans-2212" d="M 678 2272 
L 4684 2272 
L 4684 1741 
L 678 1741 
L 678 2272 
z
" transform="scale(0.015625)"/>
        <path id="DejaVuSans-34" d="M 2419 4116 
L 825 1625 
L 2419 1625 
L 2419 4116 
z
M 2253 4666 
L 3047 4666 
L 3047 1625 
L 3713 1625 
L 3713 1100 
L 3047 1100 
L 3047 0 
L 2419 0 
L 2419 1100 
L 313 1100 
L 313 1709 
L 2253 4666 
z
" transform="scale(0.015625)"/>
        <path id="DejaVuSans-30" d="M 2034 4250 
Q 1547 4250 1301 3770 
Q 1056 3291 1056 2328 
Q 1056 1369 1301 889 
Q 1547 409 2034 409 
Q 2525 409 2770 889 
Q 3016 1369 3016 2328 
Q 3016 3291 2770 3770 
Q 2525 4250 2034 4250 
z
M 2034 4750 
Q 2819 4750 3233 4129 
Q 3647 3509 3647 2328 
Q 3647 1150 3233 529 
Q 2819 -91 2034 -91 
Q 1250 -91 836 529 
Q 422 1150 422 2328 
Q 422 3509 836 4129 
Q 1250 4750 2034 4750 
z
" transform="scale(0.015625)"/>
       </defs>
       <use xlink:href="#DejaVuSans-2212"/>
       <use xlink:href="#DejaVuSans-34" x="83.789062"/>
       <use xlink:href="#DejaVuSans-30" x="147.412109"/>
      </g>
     </g>
    </g>
    <g id="xtick_2">
     <g id="line2d_2">
      <g>
       <use xlink:href="#m365ff94f8b" x="136.368" y="307.584" style="stroke: #000000; stroke-width: 0.8"/>
      </g>
     </g>
     <g id="text_2">
      <!-- −30 -->
      <g transform="translate(125.815656 322.182437) scale(0.1 -0.1)">
       <defs>
        <path id="DejaVuSans-33" d="M 2597 2516 
Q 3050 2419 3304 2112 
Q 3559 1806 3559 1356 
Q 3559 666 3084 287 
Q 2609 -91 1734 -91 
Q 1441 -91 1130 -33 
Q 819 25 488 141 
L 488 750 
Q 750 597 1062 519 
Q 1375 441 1716 441 
Q 2309 441 2620 675 
Q 2931 909 2931 1356 
Q 2931 1769 2642 2001 
Q 2353 2234 1838 2234 
L 1294 2234 
L 1294 2753 
L 1863 2753 
Q 2328 2753 2575 2939 
Q 2822 3125 2822 3475 
Q 2822 3834 2567 4026 
Q 2313 4219 1838 4219 
Q 1578 4219 1281 4162 
Q 984 4106 628 3988 
L 628 4550 
Q 988 4650 1302 4700 
Q 1616 4750 1894 4750 
Q 2613 4750 3031 4423 
Q 3450 4097 3450 3541 
Q 3450 3153 3228 2886 
Q 3006 2619 2597 2516 
z
" transform="scale(0.015625)"/>
       </defs>
       <use xlink:href="#DejaVuSans-2212"/>
       <use xlink:href="#DejaVuSans-33" x="83.789062"/>
       <use xlink:href="#DejaVuSans-30" x="147.412109"/>
      </g>
     </g>
    </g>
    <g id="xtick_3">
     <g id="line2d_3">
      <g>
       <use xlink:href="#m365ff94f8b" x="169.632" y="307.584" style="stroke: #000000; stroke-width: 0.8"/>
      </g>
     </g>
     <g id="text_3">
      <!-- −20 -->
      <g transform="translate(159.079656 322.182437) scale(0.1 -0.1)">
       <defs>
        <path id="DejaVuSans-32" d="M 1228 531 
L 3431 531 
L 3431 0 
L 469 0 
L 469 531 
Q 828 903 1448 1529 
Q 2069 2156 2228 2338 
Q 2531 2678 2651 2914 
Q 2772 3150 2772 3378 
Q 2772 3750 2511 3984 
Q 2250 4219 1831 4219 
Q 1534 4219 1204 4116 
Q 875 4013 500 3803 
L 500 4441 
Q 881 4594 1212 4672 
Q 1544 4750 1819 4750 
Q 2544 4750 2975 4387 
Q 3406 4025 3406 3419 
Q 3406 3131 3298 2873 
Q 3191 2616 2906 2266 
Q 2828 2175 2409 1742 
Q 1991 1309 1228 531 
z
" transform="scale(0.015625)"/>
       </defs>
       <use xlink:href="#DejaVuSans-2212"/>
       <use xlink:href="#DejaVuSans-32" x="83.789062"/>
       <use xlink:href="#DejaVuSans-30" x="147.412109"/>
      </g>
     </g>
    </g>
    <g id="xtick_4">
     <g id="line2d_4">
      <g>
       <use xlink:href="#m365ff94f8b" x="202.896" y="307.584" style="stroke: #000000; stroke-width: 0.8"/>
      </g>
     </g>
     <g id="text_4">
      <!-- −10 -->
      <g transform="translate(192.343656 322.182437) scale(0.1 -0.1)">
       <defs>
        <path id="DejaVuSans-31" d="M 794 531 
L 1825 531 
L 1825 4091 
L 703 3866 
L 703 4441 
L 1819 4666 
L 2450 4666 
L 2450 531 
L 3481 531 
L 3481 0 
L 794 0 
L 794 531 
z
" transform="scale(0.015625)"/>
       </defs>
       <use xlink:href="#DejaVuSans-2212"/>
       <use xlink:href="#DejaVuSans-31" x="83.789062"/>
       <use xlink:href="#DejaVuSans-30" x="147.412109"/>
      </g>
     </g>
    </g>
    <g id="xtick_5">
     <g id="line2d_5">
      <g>
       <use xlink:href="#m365ff94f8b" x="236.16" y="307.584" style="stroke: #000000; stroke-width: 0.8"/>
      </g>
     </g>
     <g id="text_5">
      <!-- 0 -->
      <g transform="translate(232.97875 322.182437) scale(0.1 -0.1)">
       <use xlink:href="#DejaVuSans-30"/>
      </g>
     </g>
    </g>
    <g id="xtick_6">
     <g id="line2d_6">
      <g>
       <use xlink:href="#m365ff94f8b" x="269.424" y="307.584" style="stroke: #000000; stroke-width: 0.8"/>
      </g>
     </g>
     <g id="text_6">
      <!-- 10 -->
      <g transform="translate(263.0615 322.182437) scale(0.1 -0.1)">
       <use xlink:href="#DejaVuSans-31"/>
       <use xlink:href="#DejaVuSans-30" x="63.623047"/>
      </g>
     </g>
    </g>
    <g id="xtick_7">
     <g id="line2d_7">
      <g>
       <use xlink:href="#m365ff94f8b" x="302.688" y="307.584" style="stroke: #000000; stroke-width: 0.8"/>
      </g>
     </g>
     <g id="text_7">
      <!-- 20 -->
      <g transform="translate(296.3255 322.182437) scale(0.1 -0.1)">
       <use xlink:href="#DejaVuSans-32"/>
       <use xlink:href="#DejaVuSans-30" x="63.623047"/>
      </g>
     </g>
    </g>
    <g id="xtick_8">
     <g id="line2d_8">
      <g>
       <use xlink:href="#m365ff94f8b" x="335.952" y="307.584" style="stroke: #000000; stroke-width: 0.8"/>
      </g>
     </g>
     <g id="text_8">
      <!-- 30 -->
      <g transform="translate(329.5895 322.182437) scale(0.1 -0.1)">
       <use xlink:href="#DejaVuSans-33"/>
       <use xlink:href="#DejaVuSans-30" x="63.623047"/>
      </g>
     </g>
    </g>
    <g id="xtick_9">
     <g id="line2d_9">
      <g>
       <use xlink:href="#m365ff94f8b" x="369.216" y="307.584" style="stroke: #000000; stroke-width: 0.8"/>
      </g>
     </g>
     <g id="text_9">
      <!-- 40 -->
      <g transform="translate(362.8535 322.182437) scale(0.1 -0.1)">
       <use xlink:href="#DejaVuSans-34"/>
       <use xlink:href="#DejaVuSans-30" x="63.623047"/>
      </g>
     </g>
    </g>
   </g>
   <g id="matplotlib.axis_2">
    <g id="ytick_1">
     <g id="line2d_10">
      <defs>
       <path id="m0076bd8420" d="M 0 0 
L -3.5 0 
" style="stroke: #000000; stroke-width: 0.8"/>
      </defs>
      <g>
       <use xlink:href="#m0076bd8420" x="103.104" y="307.584" style="stroke: #000000; stroke-width: 0.8"/>
      </g>
     </g>
     <g id="text_10">
      <!-- −40 -->
      <g transform="translate(74.999313 311.383219) scale(0.1 -0.1)">
       <use xlink:href="#DejaVuSans-2212"/>
       <use xlink:href="#DejaVuSans-34" x="83.789062"/>
       <use xlink:href="#DejaVuSans-30" x="147.412109"/>
      </g>
     </g>
    </g>
    <g id="ytick_2">
     <g id="line2d_11">
      <g>
       <use xlink:href="#m0076bd8420" x="103.104" y="274.32" style="stroke: #000000; stroke-width: 0.8"/>
      </g>
     </g>
     <g id="text_11">
      <!-- −30 -->
      <g transform="translate(74.999313 278.119219) scale(0.1 -0.1)">
       <use xlink:href="#DejaVuSans-2212"/>
       <use xlink:href="#DejaVuSans-33" x="83.789062"/>
       <use xlink:href="#DejaVuSans-30" x="147.412109"/>
      </g>
     </g>
    </g>
    <g id="ytick_3">
     <g id="line2d_12">
      <g>
       <use xlink:href="#m0076bd8420" x="103.104" y="241.056" style="stroke: #000000; stroke-width: 0.8"/>
      </g>
     </g>
     <g id="text_12">
      <!-- −20 -->
      <g transform="translate(74.999313 244.855219) scale(0.1 -0.1)">
       <use xlink:href="#DejaVuSans-2212"/>
       <use xlink:href="#DejaVuSans-32" x="83.789062"/>
       <use xlink:href="#DejaVuSans-30" x="147.412109"/>
      </g>
     </g>
    </g>
    <g id="ytick_4">
     <g id="line2d_13">
      <g>
       <use xlink:href="#m0076bd8420" x="103.104" y="207.792" style="stroke: #000000; stroke-width: 0.8"/>
      </g>
     </g>
     <g id="text_13">
      <!-- −10 -->
      <g transform="translate(74.999313 211.591219) scale(0.1 -0.1)">
       <use xlink:href="#DejaVuSans-2212"/>
       <use xlink:href="#DejaVuSans-31" x="83.789062"/>
       <use xlink:href="#DejaVuSans-30" x="147.412109"/>
      </g>
     </g>
    </g>
    <g id="ytick_5">
     <g id="line2d_14">
      <g>
       <use xlink:href="#m0076bd8420" x="103.104" y="174.528" style="stroke: #000000; stroke-width: 0.8"/>
      </g>
     </g>
     <g id="text_14">
      <!-- 0 -->
      <g transform="translate(89.7415 178.327219) scale(0.1 -0.1)">
       <use xlink:href="#DejaVuSans-30"/>
      </g>
     </g>
    </g>
    <g id="ytick_6">
     <g id="line2d_15">
      <g>
       <use xlink:href="#m0076bd8420" x="103.104" y="141.264" style="stroke: #000000; stroke-width: 0.8"/>
      </g>
     </g>
     <g id="text_15">
      <!-- 10 -->
      <g transform="translate(83.379 145.063219) scale(0.1 -0.1)">
       <use xlink:href="#DejaVuSans-31"/>
       <use xlink:href="#DejaVuSans-30" x="63.623047"/>
      </g>
     </g>
    </g>
    <g id="ytick_7">
     <g id="line2d_16">
      <g>
       <use xlink:href="#m0076bd8420" x="103.104" y="108" style="stroke: #000000; stroke-width: 0.8"/>
      </g>
     </g>
     <g id="text_16">
      <!-- 20 -->
      <g transform="translate(83.379 111.799219) scale(0.1 -0.1)">
       <use xlink:href="#DejaVuSans-32"/>
       <use xlink:href="#DejaVuSans-30" x="63.623047"/>
      </g>
     </g>
    </g>
    <g id="ytick_8">
     <g id="line2d_17">
      <g>
       <use xlink:href="#m0076bd8420" x="103.104" y="74.736" style="stroke: #000000; stroke-width: 0.8"/>
      </g>
     </g>
     <g id="text_17">
      <!-- 30 -->
      <g transform="translate(83.379 78.535219) scale(0.1 -0.1)">
       <use xlink:href="#DejaVuSans-33"/>
       <use xlink:href="#DejaVuSans-30" x="63.623047"/>
      </g>
     </g>
    </g>
    <g id="ytick_9">
     <g id="line2d_18">
      <g>
       <use xlink:href="#m0076bd8420" x="103.104" y="41.472" style="stroke: #000000; stroke-width: 0.8"/>
      </g>
     </g>
     <g id="text_18">
      <!-- 40 -->
      <g transform="translate(83.379 45.271219) scale(0.1 -0.1)">
       <use xlink:href="#DejaVuSans-34"/>
       <use xlink:href="#DejaVuSans-30" x="63.623047"/>
      </g>
     </g>
    </g>
   </g>
   <g id="line2d_19">
    <path d="M 251.1288 346.6 
L 251.1288 189.4968 
" clip-path="url(#p8f19723235)" style="fill: none; stroke: #000000; stroke-width: 0.25; stroke-linecap: square"/>
   </g>
   <g id="line2d_20">
    <path d="M 251.1288 189.4968 
L 417.4488 189.4968 
" clip-path="url(#p8f19723235)" style="fill: none; stroke: #000000; stroke-width: 0.25; stroke-linecap: square"/>
   </g>
   <g id="line2d_21">
    <path d="M 417.4488 159.5592 
L 251.1288 159.5592 
" clip-path="url(#p8f19723235)" style="fill: none; stroke: #000000; stroke-width: 0.25; stroke-linecap: square"/>
   </g>
   <g id="line2d_22">
    <path d="M 251.1288 159.5592 
L 251.1288 -1 
" clip-path="url(#p8f19723235)" style="fill: none; stroke: #000000; stroke-width: 0.25; stroke-linecap: square"/>
   </g>
   <g id="line2d_23">
    <path d="M 221.1912 -1 
L 221.1912 159.5592 
" clip-path="url(#p8f19723235)" style="fill: none; stroke: #000000; stroke-width: 0.25; stroke-linecap: square"/>
   </g>
   <g id="line2d_24">
    <path d="M 221.1912 159.5592 
L 54.8712 159.5592 
" clip-path="url(#p8f19723235)" style="fill: none; stroke: #000000; stroke-width: 0.25; stroke-linecap: square"/>
   </g>
   <g id="line2d_25">
    <path d="M 54.8712 189.4968 
L 221.1912 189.4968 
" clip-path="url(#p8f19723235)" style="fill: none; stroke: #000000; stroke-width: 0.25; stroke-linecap: square"/>
   </g>
   <g id="line2d_26">
    <path d="M 221.1912 189.4968 
L 221.1912 346.6 
" clip-path="url(#p8f19723235)" style="fill: none; stroke: #000000; stroke-width: 0.25; stroke-linecap: square"/>
   </g>
   <g id="line2d_27">
    <path d="M 251.1288 174.528 
L 417.4488 174.528 
" clip-path="url(#p8f19723235)" style="fill: none; stroke-dasharray: 0.925,0.4; stroke-dashoffset: 0; stroke: #000000; stroke-width: 0.25"/>
   </g>
   <g id="line2d_28">
    <path d="M 236.16 159.5592 
L 236.16 -1 
" clip-path="url(#p8f19723235)" style="fill: none; stroke-dasharray: 0.925,0.4; stroke-dashoffset: 0; stroke: #000000; stroke-width: 0.25"/>
   </g>
   <g id="line2d_29">
    <path d="M 221.1912 174.528 
L 54.8712 174.528 
" clip-path="url(#p8f19723235)" style="fill: none; stroke-dasharray: 0.925,0.4; stroke-dashoffset: 0; stroke: #000000; stroke-width: 0.25"/>
   </g>
   <g id="line2d_30">
    <path d="M 236.16 189.4968 
L 236.16 346.6 
" clip-path="url(#p8f19723235)" style="fill: none; stroke-dasharray: 0.925,0.4; stroke-dashoffset: 0; stroke: #000000; stroke-width: 0.25"/>
   </g>
   <g id="line2d_31">
    <path d="M 242.36375 124.59688 
L 242.365213 122.64569 
L 242.366 120.695297 
L 242.36619 118.745592 
L 242.365975 116.796474 
L 242.365505 114.84785 
L 242.364893 112.899637 
L 242.364223 110.951758 
L 242.363552 109.004145 
L 242.362919 107.056737 
L 242.362348 105.10948 
L 242.36185 103.162328 
L 242.36143 101.215238 
L 242.361084 99.268175 
L 242.360808 97.321111 
L 242.360594 95.374022 
L 242.360434 93.426886 
L 242.360318 91.479691 
L 242.360239 89.532423 
L 242.360188 87.585078 
L 242.360159 85.63765 
L 242.360147 83.690139 
L 242.360146 81.742546 
L 242.360153 79.794877 
L 242.360165 77.847136 
L 242.36018 75.899332 
L 242.360197 73.951474 
L 242.360214 72.003571 
L 242.360231 70.055634 
L 242.360247 68.107673 
L 242.360263 66.159699 
" clip-path="url(#p8f19723235)" style="fill: none; stroke: #ff0000; stroke-opacity: 0.2; stroke-width: 0.25; stroke-linecap: square"/>
   </g>
   <g id="line2d_32">
    <path d="M 242.36375 124.59688 
L 242.365071 122.64569 
L 242.365863 120.695311 
L 242.366065 118.745634 
L 242.365865 116.796558 
L 242.365413 114.84799 
L 242.364819 112.899848 
L 242.364167 110.952054 
L 242.363514 109.004542 
L 242.362898 107.057248 
L 242.362341 105.110121 
L 242.361856 103.163113 
L 242.361446 101.216182 
L 242.361108 99.269294 
L 242.360838 97.322419 
L 242.360628 95.375532 
L 242.360469 93.428615 
L 242.360354 91.481652 
L 242.360273 89.534632 
L 242.36022 87.587548 
L 242.360188 85.640395 
L 242.360172 83.693172 
L 242.360167 81.745881 
L 242.360171 79.798526 
L 242.36018 77.851111 
L 242.360192 75.903643 
L 242.360207 73.956132 
L 242.360223 72.008585 
L 242.360239 70.061013 
L 242.360256 68.113424 
L 242.360272 66.165828 
" clip-path="url(#p8f19723235)" style="fill: none; stroke: #ff0000; stroke-opacity: 0.4; stroke-width: 0.25; stroke-linecap: square"/>
   </g>
   <g id="line2d_33">
    <path d="M 242.36375 124.59688 
L 242.36495 122.64569 
L 242.36575 120.695302 
L 242.365964 118.745608 
L 242.36578 116.796507 
L 242.365343 114.847906 
L 242.364765 112.899722 
L 242.364127 110.951878 
L 242.363486 109.004306 
L 242.36288 107.056945 
L 242.362331 105.109742 
L 242.361851 103.162649 
L 242.361445 101.215626 
L 242.361109 99.268637 
L 242.360839 97.321653 
L 242.360629 95.37465 
L 242.360468 93.427608 
L 242.360351 91.480512 
L 242.360268 89.533351 
L 242.360213 87.586119 
L 242.36018 85.638811 
L 242.360163 83.691427 
L 242.360158 81.743967 
L 242.360161 79.796436 
L 242.360171 77.848841 
L 242.360184 75.901187 
L 242.3602 73.953485 
L 242.360216 72.005742 
L 242.360233 70.05797 
L 242.36025 68.110178 
L 242.360266 66.162376 
" clip-path="url(#p8f19723235)" style="fill: none; stroke: #ff0000; stroke-opacity: 0.6; stroke-width: 0.25; stroke-linecap: square"/>
   </g>
   <g id="line2d_34">
    <path d="M 242.36375 124.59688 
L 242.364847 122.64569 
L 242.365656 120.695307 
L 242.365884 118.745623 
L 242.365714 116.796537 
L 242.365292 114.847956 
L 242.364728 112.899796 
L 242.364102 110.951981 
L 242.363472 109.004444 
L 242.362874 107.057123 
L 242.362331 105.109964 
L 242.361856 103.16292 
L 242.361451 101.21595 
L 242.361117 99.269019 
L 242.360848 97.322097 
L 242.360637 95.375161 
L 242.360477 93.428191 
L 242.360359 91.481171 
L 242.360275 89.53409 
L 242.36022 87.586941 
L 242.360186 85.639721 
L 242.360169 83.692427 
L 242.360164 81.745062 
L 242.360167 79.797629 
L 242.360177 77.850134 
L 242.36019 75.902584 
L 242.360205 73.954988 
L 242.360221 72.007353 
L 242.360237 70.059691 
L 242.360253 68.11201 
L 242.36027 66.164321 
" clip-path="url(#p8f19723235)" style="fill: none; stroke: #ff0000; stroke-opacity: 0.8; stroke-width: 0.25; stroke-linecap: square"/>
   </g>
   <g id="line2d_35">
    <path d="M 242.36375 124.59688 
L 242.364758 122.645689 
L 242.365578 120.695304 
L 242.365818 118.745614 
L 242.365662 116.796519 
L 242.365253 114.847927 
L 242.3647 112.899752 
L 242.364084 110.951921 
L 242.363461 109.004363 
L 242.362868 107.057019 
L 242.362329 105.109835 
L 242.361856 103.162763 
L 242.361453 101.215762 
L 242.36112 99.268798 
L 242.36085 97.321841 
L 242.360639 95.374866 
L 242.360477 93.427855 
L 242.360359 91.480792 
L 242.360275 89.533666 
L 242.360219 87.58647 
L 242.360185 85.6392 
L 242.360167 83.691855 
L 242.360162 81.744437 
L 242.360165 79.79695 
L 242.360174 77.849398 
L 242.360187 75.901791 
L 242.360202 73.954135 
L 242.360218 72.006441 
L 242.360234 70.058718 
L 242.360251 68.110976 
L 242.360267 66.163224 
" clip-path="url(#p8f19723235)" style="fill: none; stroke: #ff0000; stroke-width: 0.25; stroke-linecap: square"/>
   </g>
   <g id="line2d_36">
    <path d="M 186.524125 168.340321 
L 184.555937 168.336884 
L 182.588765 168.334064 
L 180.622553 168.331825 
L 178.65725 168.330099 
L 176.692801 168.328815 
L 174.729156 168.327896 
L 172.766262 168.327274 
L 170.80407 168.326885 
L 168.84253 168.326672 
L 166.881596 168.32659 
L 164.921221 168.326598 
L 162.96136 168.326667 
L 161.001972 168.326773 
L 159.043015 168.326896 
L 157.084451 168.327025 
L 155.126241 168.327149 
L 153.168351 168.327264 
L 151.210747 168.327366 
L 149.253397 168.327453 
L 147.296272 168.327526 
L 145.339343 168.327585 
L 143.382585 168.327631 
L 141.425972 168.327666 
L 139.469482 168.327692 
L 137.513093 168.32771 
L 135.556786 168.327722 
L 133.600543 168.327729 
L 131.644348 168.327733 
L 129.688184 168.327735 
L 127.732038 168.327738 
" clip-path="url(#p8f19723235)" style="fill: none; stroke: #ff0000; stroke-opacity: 0.2; stroke-width: 0.25; stroke-linecap: square"/>
   </g>
   <g id="line2d_37">
    <path d="M 186.524125 168.340321 
L 184.555937 168.336899 
L 182.588763 168.334081 
L 180.622547 168.331841 
L 178.657237 168.330115 
L 176.69278 168.328828 
L 174.729122 168.327908 
L 172.766213 168.327283 
L 170.804002 168.32689 
L 168.842439 168.326675 
L 166.881478 168.32659 
L 164.921071 168.326597 
L 162.961174 168.326664 
L 161.001745 168.326767 
L 159.042741 168.326889 
L 157.084124 168.327017 
L 155.125856 168.327141 
L 153.167901 168.327256 
L 151.210226 168.327358 
L 149.252798 168.327446 
L 147.295588 168.327519 
L 145.338567 168.327579 
L 143.381709 168.327626 
L 141.424989 168.327662 
L 139.468383 168.327689 
L 137.511872 168.327708 
L 135.555434 168.327721 
L 133.599052 168.32773 
L 131.64271 168.327736 
L 129.686391 168.327741 
L 127.730082 168.327744 
" clip-path="url(#p8f19723235)" style="fill: none; stroke: #ff0000; stroke-opacity: 0.4; stroke-width: 0.25; stroke-linecap: square"/>
   </g>
   <g id="line2d_38">
    <path d="M 186.524125 168.340321 
L 184.555937 168.336912 
L 182.588764 168.334094 
L 180.622552 168.331854 
L 178.657247 168.330127 
L 176.692796 168.328839 
L 174.729147 168.327916 
L 172.766249 168.327289 
L 170.80405 168.326895 
L 168.842503 168.326679 
L 166.881559 168.326592 
L 164.921173 168.326598 
L 162.961299 168.326664 
L 161.001895 168.326768 
L 159.042919 168.32689 
L 157.084334 168.327018 
L 155.1261 168.327142 
L 153.168183 168.327257 
L 151.210549 168.32736 
L 149.253165 168.327448 
L 147.296003 168.327521 
L 145.339034 168.327581 
L 143.38223 168.327628 
L 141.425569 168.327664 
L 139.469026 168.32769 
L 137.51258 168.327709 
L 135.556212 168.327722 
L 133.599904 168.32773 
L 131.643638 168.327735 
L 129.6874 168.327738 
L 127.731176 168.327741 
" clip-path="url(#p8f19723235)" style="fill: none; stroke: #ff0000; stroke-opacity: 0.6; stroke-width: 0.25; stroke-linecap: square"/>
   </g>
   <g id="line2d_39">
    <path d="M 186.524125 168.340321 
L 184.555937 168.336923 
L 182.588763 168.334105 
L 180.622549 168.331864 
L 178.65724 168.330136 
L 176.692785 168.328846 
L 174.72913 168.327921 
L 172.766225 168.327293 
L 170.804018 168.326897 
L 168.842462 168.326679 
L 166.881507 168.326592 
L 164.921108 168.326597 
L 162.96122 168.326663 
L 161.0018 168.326766 
L 159.042808 168.326888 
L 157.084204 168.327016 
L 155.12595 168.32714 
L 153.168011 168.327256 
L 151.210353 168.327358 
L 149.252945 168.327447 
L 147.295756 168.32752 
L 145.338757 168.32758 
L 143.381924 168.327627 
L 141.42523 168.327663 
L 139.468653 168.32769 
L 137.512172 168.327709 
L 135.555766 168.327722 
L 133.599419 168.32773 
L 131.643112 168.327736 
L 129.686831 168.327739 
L 127.730563 168.327743 
" clip-path="url(#p8f19723235)" style="fill: none; stroke: #ff0000; stroke-opacity: 0.8; stroke-width: 0.25; stroke-linecap: square"/>
   </g>
   <g id="line2d_40">
    <path d="M 186.524125 168.340321 
L 184.555937 168.336932 
L 182.588764 168.334114 
L 180.622551 168.331872 
L 178.657244 168.330142 
L 176.692792 168.328851 
L 174.729141 168.327925 
L 172.76624 168.327296 
L 170.804038 168.326899 
L 168.842488 168.32668 
L 166.881539 168.326592 
L 164.921148 168.326597 
L 162.961268 168.326662 
L 161.001858 168.326766 
L 159.042876 168.326888 
L 157.084282 168.327016 
L 155.12604 168.32714 
L 153.168114 168.327256 
L 151.21047 168.327359 
L 149.253075 168.327447 
L 147.295901 168.327521 
L 145.338919 168.32758 
L 143.382102 168.327627 
L 141.425426 168.327663 
L 139.468868 168.32769 
L 137.512406 168.327709 
L 135.556021 168.327721 
L 133.599695 168.32773 
L 131.64341 168.327735 
L 129.687152 168.327739 
L 127.730907 168.327742 
" clip-path="url(#p8f19723235)" style="fill: none; stroke: #ff0000; stroke-width: 0.25; stroke-linecap: square"/>
   </g>
   <g id="line2d_41">
    <path d="M 283.221674 180.739471 
L 285.196793 180.737844 
L 287.171055 180.736254 
L 289.144589 180.734728 
L 291.117509 180.733336 
L 293.089921 180.732117 
L 295.061922 180.731083 
L 297.033598 180.730234 
L 299.005026 180.729557 
L 300.976273 180.729033 
L 302.947401 180.728642 
L 304.918461 180.72836 
L 306.889498 180.728168 
L 308.86055 180.728046 
L 310.831649 180.727978 
L 312.802818 180.727949 
L 314.774079 180.727949 
L 316.745445 180.727967 
L 318.716927 180.727996 
L 320.688529 180.728031 
L 322.660253 180.728068 
L 324.632097 180.728105 
L 326.604056 180.728138 
L 328.576123 180.728168 
L 330.548288 180.728194 
L 332.52054 180.728216 
L 334.492866 180.728234 
L 336.465252 180.728249 
L 338.437684 180.728262 
L 340.410148 180.728273 
L 342.382629 180.728283 
" clip-path="url(#p8f19723235)" style="fill: none; stroke: #ff0000; stroke-opacity: 0.2; stroke-width: 0.25; stroke-linecap: square"/>
   </g>
   <g id="line2d_42">
    <path d="M 283.221674 180.739471 
L 285.196793 180.737765 
L 287.171038 180.73618 
L 289.144538 180.734661 
L 291.117406 180.733278 
L 293.08975 180.732068 
L 295.061664 180.731045 
L 297.033236 180.730206 
L 299.004541 180.729538 
L 300.975648 180.729022 
L 302.946618 180.728637 
L 304.917501 180.728362 
L 306.888343 180.728175 
L 308.859181 180.728057 
L 310.830048 180.727992 
L 312.800967 180.727965 
L 314.771959 180.727965 
L 316.743038 180.727983 
L 318.714215 180.728012 
L 320.685494 180.728046 
L 322.656879 180.728081 
L 324.628366 180.728115 
L 326.599953 180.728147 
L 328.571631 180.728176 
L 330.543393 180.7282 
L 332.515227 180.728222 
L 334.487122 180.72824 
L 336.459065 180.728255 
L 338.431043 180.728269 
L 340.403044 180.728281 
L 342.375054 180.728293 
" clip-path="url(#p8f19723235)" style="fill: none; stroke: #ff0000; stroke-opacity: 0.4; stroke-width: 0.25; stroke-linecap: square"/>
   </g>
   <g id="line2d_43">
    <path d="M 283.221674 180.739471 
L 285.196793 180.737697 
L 287.171049 180.736118 
L 289.144568 180.734607 
L 291.117468 180.733233 
L 293.089853 180.732032 
L 295.061819 180.731017 
L 297.033452 180.730185 
L 299.00483 180.729523 
L 300.97602 180.729013 
L 302.947082 180.728633 
L 304.918069 180.72836 
L 306.889024 180.728175 
L 308.859987 180.728058 
L 310.830987 180.727993 
L 312.80205 180.727966 
L 314.773196 180.727965 
L 316.74444 180.727982 
L 318.715789 180.72801 
L 320.687251 180.728043 
L 322.658827 180.728078 
L 324.630515 180.728112 
L 326.60231 180.728143 
L 328.574205 180.728171 
L 330.54619 180.728196 
L 332.518255 180.728217 
L 334.490388 180.728235 
L 336.462574 180.728251 
L 338.4348 180.728264 
L 340.407053 180.728276 
L 342.379319 180.728287 
" clip-path="url(#p8f19723235)" style="fill: none; stroke: #ff0000; stroke-opacity: 0.6; stroke-width: 0.25; stroke-linecap: square"/>
   </g>
   <g id="line2d_44">
    <path d="M 283.221674 180.739471 
L 285.196793 180.737639 
L 287.171042 180.736066 
L 289.14455 180.734563 
L 291.117431 180.733197 
L 293.089792 180.732004 
L 295.061728 180.730997 
L 297.033325 180.730172 
L 299.00466 180.729516 
L 300.975802 180.72901 
L 302.94681 180.728632 
L 304.917737 180.728362 
L 306.888627 180.728178 
L 308.859517 180.728062 
L 310.830441 180.727997 
L 312.801421 180.72797 
L 314.772479 180.727969 
L 316.743629 180.727986 
L 318.714881 180.728013 
L 320.686239 180.728046 
L 322.657707 180.728081 
L 324.629282 180.728115 
L 326.60096 180.728146 
L 328.572735 180.728174 
L 330.544595 180.728199 
L 332.516532 180.72822 
L 334.488533 180.728238 
L 336.460585 180.728254 
L 338.432675 180.728267 
L 340.40479 180.728279 
L 342.376916 180.728291 
" clip-path="url(#p8f19723235)" style="fill: none; stroke: #ff0000; stroke-opacity: 0.8; stroke-width: 0.25; stroke-linecap: square"/>
   </g>
   <g id="line2d_45">
    <path d="M 283.221674 180.739471 
L 285.196793 180.737589 
L 287.171046 180.736022 
L 289.144561 180.734526 
L 291.117453 180.733168 
L 293.089827 180.731983 
L 295.061781 180.730982 
L 297.033399 180.730162 
L 299.004759 180.72951 
L 300.975929 180.729007 
L 302.946968 180.728632 
L 304.917929 180.728363 
L 306.888857 180.72818 
L 308.859789 180.728064 
L 310.830756 180.727999 
L 312.801784 180.727971 
L 314.772893 180.72797 
L 316.744095 180.727986 
L 318.715403 180.728013 
L 320.68682 180.728046 
L 322.658349 180.72808 
L 324.629987 180.728114 
L 326.601731 180.728145 
L 328.573573 180.728173 
L 330.545503 180.728198 
L 332.517511 180.728219 
L 334.489585 180.728237 
L 336.461711 180.728252 
L 338.433877 180.728265 
L 340.406068 180.728277 
L 342.378271 180.728288 
" clip-path="url(#p8f19723235)" style="fill: none; stroke: #ff0000; stroke-width: 0.25; stroke-linecap: square"/>
   </g>
   <g id="line2d_46">
    <path d="M 229.956368 231.62921 
L 229.954288 233.436855 
L 229.952966 235.246561 
L 229.952393 237.058226 
L 229.952359 238.871746 
L 229.952693 240.687018 
L 229.953263 242.503941 
L 229.953966 244.322413 
L 229.954726 246.142336 
L 229.955489 247.963612 
L 229.956216 249.786147 
L 229.956883 251.609848 
L 229.957477 253.434626 
L 229.957992 255.260394 
L 229.958428 257.08707 
L 229.958789 258.914573 
L 229.95908 260.742827 
L 229.959309 262.571759 
L 229.959485 264.4013 
L 229.959616 266.231382 
L 229.95971 268.061945 
L 229.959774 269.892929 
L 229.959813 271.724279 
L 229.959835 273.555942 
L 229.959842 275.38787 
L 229.95984 277.220018 
L 229.959831 279.052343 
L 229.959816 280.884806 
L 229.959799 282.717372 
L 229.959781 284.550007 
L 229.959765 286.382682 
" clip-path="url(#p8f19723235)" style="fill: none; stroke: #ff0000; stroke-opacity: 0.2; stroke-width: 0.25; stroke-linecap: square"/>
   </g>
   <g id="line2d_47">
    <path d="M 229.956368 231.62921 
L 229.954497 233.436855 
L 229.953165 235.246556 
L 229.952574 237.058209 
L 229.952517 238.871712 
L 229.952825 240.68696 
L 229.953367 242.50385 
L 229.954043 244.322282 
L 229.954777 246.142156 
L 229.955514 247.963373 
L 229.956219 249.785838 
L 229.956868 251.609459 
L 229.957446 253.434146 
L 229.957949 255.259811 
L 229.958377 257.08637 
L 229.958732 258.913743 
L 229.959022 260.741854 
L 229.959252 262.570628 
L 229.959431 264.399995 
L 229.959566 266.229889 
L 229.959665 268.060247 
L 229.959735 269.891009 
L 229.959781 271.722121 
L 229.959808 273.553528 
L 229.959821 275.385184 
L 229.959823 277.217041 
L 229.959817 279.049057 
L 229.959807 280.881195 
L 229.959793 282.713417 
L 229.959778 284.54569 
L 229.959762 286.377986 
" clip-path="url(#p8f19723235)" style="fill: none; stroke: #ff0000; stroke-opacity: 0.4; stroke-width: 0.25; stroke-linecap: square"/>
   </g>
   <g id="line2d_48">
    <path d="M 229.956368 231.62921 
L 229.954664 233.436855 
L 229.953318 235.24656 
L 229.952709 237.058222 
L 229.952632 238.871737 
L 229.952919 240.687002 
L 229.953441 242.503915 
L 229.954099 244.322374 
L 229.954817 246.142281 
L 229.955542 247.963536 
L 229.956237 249.786046 
L 229.956879 251.609717 
L 229.957454 253.43446 
L 229.957956 255.260188 
L 229.958383 257.086818 
L 229.95874 258.914268 
L 229.959031 260.742463 
L 229.959264 262.571329 
L 229.959445 264.400795 
L 229.959582 266.230797 
L 229.959682 268.06127 
L 229.959752 269.892156 
L 229.959797 271.723399 
L 229.959823 273.554947 
L 229.959834 275.38675 
L 229.959834 277.218764 
L 229.959827 279.050945 
L 229.959814 280.883256 
L 229.959798 282.715659 
L 229.959781 284.548122 
L 229.959765 286.380615 
" clip-path="url(#p8f19723235)" style="fill: none; stroke: #ff0000; stroke-opacity: 0.6; stroke-width: 0.25; stroke-linecap: square"/>
   </g>
   <g id="line2d_49">
    <path d="M 229.956368 231.62921 
L 229.954797 233.436855 
L 229.953436 235.246557 
L 229.952808 237.058214 
L 229.952711 238.87172 
L 229.95298 240.686974 
L 229.953485 242.503873 
L 229.954128 244.322315 
L 229.954834 246.1422 
L 229.955549 247.963432 
L 229.956238 249.785914 
L 229.956875 251.609555 
L 229.957446 253.434264 
L 229.957946 255.259954 
L 229.958373 257.086542 
L 229.958729 258.913947 
L 229.95902 260.742092 
L 229.959253 262.570905 
L 229.959434 264.400315 
L 229.959571 266.230255 
L 229.959671 268.060663 
L 229.959741 269.89148 
L 229.959786 271.72265 
L 229.959813 273.554121 
L 229.959825 275.385843 
L 229.959826 277.217772 
L 229.95982 279.049864 
L 229.959809 280.882082 
L 229.959794 282.714389 
L 229.959779 284.546751 
L 229.959763 286.37914 
" clip-path="url(#p8f19723235)" style="fill: none; stroke: #ff0000; stroke-opacity: 0.8; stroke-width: 0.25; stroke-linecap: square"/>
   </g>
   <g id="line2d_50">
    <path d="M 229.956368 231.62921 
L 229.954904 233.436855 
L 229.953528 235.246559 
L 229.952884 237.058219 
L 229.952771 238.871731 
L 229.953025 240.686992 
L 229.953518 242.503899 
L 229.95415 244.322352 
L 229.954848 246.14225 
L 229.955558 247.963496 
L 229.956242 249.785995 
L 229.956877 251.609654 
L 229.957447 253.434383 
L 229.957947 255.260096 
L 229.958374 257.086708 
L 229.958731 258.91414 
L 229.959022 260.742314 
L 229.959255 262.571157 
L 229.959437 264.400599 
L 229.959574 266.230574 
L 229.959675 268.061019 
L 229.959745 269.891875 
L 229.95979 271.723085 
L 229.959817 273.554599 
L 229.959829 275.386366 
L 229.95983 277.218341 
L 229.959823 279.050482 
L 229.959812 280.882749 
L 229.959797 282.715108 
L 229.95978 284.547525 
L 229.959764 286.379969 
" clip-path="url(#p8f19723235)" style="fill: none; stroke: #ff0000; stroke-width: 0.25; stroke-linecap: square"/>
   </g>
   <g id="line2d_51">
    <path d="M 241.495161 158.413365 
L 241.466517 156.384924 
L 241.525815 154.363183 
L 241.630197 152.349154 
L 241.744626 150.341271 
L 241.859446 148.338719 
L 241.967654 146.340813 
L 242.064723 144.347054 
L 242.148222 142.357107 
L 242.217357 140.370746 
L 242.272524 138.3878 
L 242.314891 136.408115 
L 242.346068 134.431525 
L 242.36785 132.457848 
L 242.382032 130.486886 
L 242.39029 128.518427 
L 242.394113 126.552253 
L 242.394767 124.588145 
L 242.393286 122.625889 
L 242.390486 120.665276 
L 242.386985 118.706106 
L 242.383229 116.748191 
L 242.379517 114.79135 
L 242.376036 112.835416 
L 242.372879 110.88023 
L 242.37007 108.925644 
L 242.367574 106.971521 
L 242.365328 105.017732 
L 242.363258 103.064163 
L 242.361296 101.110708 
L 242.359434 99.157284 
" clip-path="url(#p8f19723235)" style="fill: none; stroke: #ff0000; stroke-opacity: 0.2; stroke-width: 0.25; stroke-linecap: square"/>
   </g>
   <g id="line2d_52">
    <path d="M 241.495161 158.413365 
L 241.470218 156.384875 
L 241.529528 154.363121 
L 241.63376 152.349062 
L 241.747903 150.341131 
L 241.862338 148.338518 
L 241.970096 146.340544 
L 242.066679 144.346714 
L 242.14968 142.356696 
L 242.218327 140.370269 
L 242.273027 138.387263 
L 242.31496 136.407523 
L 242.345741 134.430887 
L 242.367168 132.457174 
L 242.381038 130.486185 
L 242.389025 128.51771 
L 242.392617 126.551533 
L 242.393077 124.587435 
L 242.391439 122.625203 
L 242.388516 120.664631 
L 242.384923 118.70552 
L 242.381106 116.747683 
L 242.377362 114.79094 
L 242.373878 112.835125 
L 242.370747 110.88008 
L 242.367992 108.925658 
L 242.365581 106.971724 
L 242.363452 105.018149 
L 242.36153 103.064817 
L 242.359741 101.111624 
L 242.358057 99.15848 
" clip-path="url(#p8f19723235)" style="fill: none; stroke: #ff0000; stroke-opacity: 0.4; stroke-width: 0.25; stroke-linecap: square"/>
   </g>
   <g id="line2d_53">
    <path d="M 241.495161 158.413365 
L 241.473514 156.384837 
L 241.532778 154.363073 
L 241.636828 152.348986 
L 241.750685 150.341015 
L 241.864762 148.338353 
L 241.972125 146.340323 
L 242.068304 144.346436 
L 242.150913 142.356362 
L 242.219197 140.369882 
L 242.273575 138.386826 
L 242.315232 136.407042 
L 242.345788 134.430366 
L 242.36704 132.456617 
L 242.380782 130.485598 
L 242.388687 128.517099 
L 242.392235 126.550905 
L 242.392687 124.586798 
L 242.391071 122.624567 
L 242.388196 120.664004 
L 242.384673 118.704914 
L 242.380944 116.747109 
L 242.377306 114.790411 
L 242.37394 112.834655 
L 242.37094 110.879684 
L 242.36833 108.92535 
L 242.366076 106.971519 
L 242.364119 105.018064 
L 242.362383 103.064869 
L 242.360792 101.111828 
L 242.359302 99.158849 
" clip-path="url(#p8f19723235)" style="fill: none; stroke: #ff0000; stroke-opacity: 0.6; stroke-width: 0.25; stroke-linecap: square"/>
   </g>
   <g id="line2d_54">
    <path d="M 241.495161 158.413365 
L 241.476424 156.384808 
L 241.535554 154.363034 
L 241.639358 152.348923 
L 241.752881 150.340919 
L 241.866571 148.338216 
L 241.973523 146.340143 
L 242.069293 144.346213 
L 242.151516 142.3561 
L 242.219451 140.369582 
L 242.273527 138.386493 
L 242.314931 136.406679 
L 242.345286 134.429977 
L 242.366384 132.456206 
L 242.380016 130.485169 
L 242.387849 128.516656 
L 242.39136 126.550452 
L 242.391799 124.58634 
L 242.39019 122.62411 
L 242.387338 120.663555 
L 242.383848 118.704479 
L 242.380157 116.746696 
L 242.376561 114.790029 
L 242.373239 112.834312 
L 242.370282 110.879389 
L 242.367715 108.925114 
L 242.365505 106.971352 
L 242.363595 105.017976 
L 242.361909 103.064871 
L 242.36037 101.11193 
L 242.358923 99.159061 
" clip-path="url(#p8f19723235)" style="fill: none; stroke: #ff0000; stroke-opacity: 0.8; stroke-width: 0.25; stroke-linecap: square"/>
   </g>
   <g id="line2d_55">
    <path d="M 241.495161 158.413365 
L 241.479107 156.384785 
L 241.538084 154.363002 
L 241.641637 152.348873 
L 241.754839 150.340841 
L 241.868169 148.338107 
L 241.97475 146.340002 
L 242.070163 144.346041 
L 242.152062 142.3559 
L 242.219716 140.369358 
L 242.27356 138.386248 
L 242.314786 136.406417 
L 242.345013 134.429699 
L 242.366031 132.455916 
L 242.379625 130.484869 
L 242.387455 128.516348 
L 242.39099 126.55014 
L 242.391474 124.586027 
L 242.389925 122.623799 
L 242.387141 120.66325 
L 242.383723 118.704185 
L 242.380104 116.746418 
L 242.376577 114.789772 
L 242.373319 112.834082 
L 242.37042 110.879193 
L 242.367905 108.924958 
L 242.365743 106.971242 
L 242.363877 105.01792 
L 242.362235 103.064876 
L 242.360738 101.112003 
L 242.359324 99.159206 
" clip-path="url(#p8f19723235)" style="fill: none; stroke: #ff0000; stroke-width: 0.25; stroke-linecap: square"/>
   </g>
   <g id="line2d_56">
    <path d="M 229.725045 189.61445 
L 229.770759 191.658399 
L 229.778421 193.695907 
L 229.793946 195.726672 
L 229.81636 197.751093 
L 229.841469 199.76961 
L 229.866372 201.782657 
L 229.889226 203.790643 
L 229.909007 205.793951 
L 229.925299 207.792941 
L 229.93811 209.787954 
L 229.947718 211.779316 
L 229.954553 213.767337 
L 229.959112 215.752315 
L 229.961892 217.734533 
L 229.963348 219.714263 
L 229.963885 221.69176 
L 229.963838 223.667265 
L 229.963465 225.641005 
L 229.962952 227.613193 
L 229.962425 229.584025 
L 229.961956 231.553687 
L 229.961576 233.52235 
L 229.961292 235.490171 
L 229.96109 237.457297 
L 229.96095 239.423861 
L 229.960845 241.389986 
L 229.960752 243.355784 
L 229.960652 245.321356 
L 229.960532 247.286796 
L 229.96042 249.252186 
" clip-path="url(#p8f19723235)" style="fill: none; stroke: #ff0000; stroke-opacity: 0.2; stroke-width: 0.25; stroke-linecap: square"/>
   </g>
   <g id="line2d_57">
    <path d="M 229.725045 189.61445 
L 229.775353 191.658291 
L 229.782389 193.695823 
L 229.796958 195.726635 
L 229.81835 197.751123 
L 229.842473 199.769725 
L 229.8665 201.782869 
L 229.888633 203.790963 
L 229.907877 205.794387 
L 229.923823 207.7935 
L 229.936472 209.788643 
L 229.946087 211.780139 
L 229.95307 213.7683 
L 229.957887 215.753422 
L 229.960996 217.735788 
L 229.962813 219.715666 
L 229.963708 221.693311 
L 229.963988 223.668962 
L 229.963889 225.642845 
L 229.963582 227.615172 
L 229.963182 229.586137 
L 229.96276 231.555925 
L 229.962353 233.524706 
L 229.961973 235.492636 
L 229.96162 237.459859 
L 229.961284 239.426509 
L 229.960954 241.392706 
L 229.96062 243.358563 
L 229.960275 245.324179 
L 229.959914 247.289647 
L 229.959556 249.255049 
" clip-path="url(#p8f19723235)" style="fill: none; stroke: #ff0000; stroke-opacity: 0.4; stroke-width: 0.25; stroke-linecap: square"/>
   </g>
   <g id="line2d_58">
    <path d="M 229.725045 189.61445 
L 229.77954 191.658183 
L 229.786023 193.695717 
L 229.799744 195.726534 
L 229.820246 197.75103 
L 229.843524 199.769639 
L 229.866812 201.782788 
L 229.888351 203.790884 
L 229.907161 205.794305 
L 229.922837 207.793413 
L 229.935368 209.788546 
L 229.944996 211.780032 
L 229.952099 213.768178 
L 229.957112 215.753283 
L 229.960461 217.73563 
L 229.962532 219.715486 
L 229.963674 221.693106 
L 229.964171 223.66873 
L 229.964248 225.642582 
L 229.964068 227.614874 
L 229.963745 229.585801 
L 229.963355 231.555547 
L 229.962939 233.524281 
L 229.962521 235.49216 
L 229.962111 237.459327 
L 229.96171 239.425916 
L 229.961316 241.392048 
L 229.960926 243.357834 
L 229.960539 245.323374 
L 229.960153 247.28876 
L 229.959774 249.254074 
" clip-path="url(#p8f19723235)" style="fill: none; stroke: #ff0000; stroke-opacity: 0.6; stroke-width: 0.25; stroke-linecap: square"/>
   </g>
   <g id="line2d_59">
    <path d="M 229.725045 189.61445 
L 229.783352 191.658078 
L 229.789333 193.695615 
L 229.802288 195.726441 
L 229.821996 197.75095 
L 229.844532 199.769574 
L 229.867181 201.78274 
L 229.888214 203.79085 
L 229.906662 205.794286 
L 229.922116 207.793407 
L 229.934551 209.788554 
L 229.944187 211.780052 
L 229.951377 213.768213 
L 229.95653 215.753332 
L 229.960044 217.735692 
L 229.962284 219.715563 
L 229.963578 221.693198 
L 229.964201 223.668836 
L 229.964367 225.642703 
L 229.964239 227.615008 
L 229.963931 229.585949 
L 229.963524 231.555707 
L 229.963069 233.524452 
L 229.962596 235.492341 
L 229.962124 237.459518 
L 229.961661 239.426115 
L 229.961214 241.392254 
L 229.960781 243.358044 
L 229.960364 245.323588 
L 229.959958 247.288975 
L 229.959564 249.254289 
" clip-path="url(#p8f19723235)" style="fill: none; stroke: #ff0000; stroke-opacity: 0.8; stroke-width: 0.25; stroke-linecap: square"/>
   </g>
   <g id="line2d_60">
    <path d="M 229.725045 189.61445 
L 229.786819 191.657976 
L 229.79234 193.695515 
L 229.804597 195.726345 
L 229.823594 197.750862 
L 229.845476 199.769495 
L 229.867571 201.782667 
L 229.888174 203.790783 
L 229.906323 205.794223 
L 229.921601 207.793347 
L 229.933968 209.788496 
L 229.943621 211.779996 
L 229.950891 213.768157 
L 229.95616 215.753278 
L 229.959808 217.735639 
L 229.962178 219.715511 
L 229.963589 221.693147 
L 229.964304 223.668785 
L 229.964534 225.642652 
L 229.964441 227.614958 
L 229.964143 229.585898 
L 229.963726 231.555656 
L 229.963246 233.524401 
L 229.962742 235.492288 
L 229.962239 237.459464 
L 229.96175 239.426058 
L 229.961284 241.392194 
L 229.960843 243.357981 
L 229.960426 245.32352 
L 229.960028 247.288903 
L 229.959644 249.254211 
" clip-path="url(#p8f19723235)" style="fill: none; stroke: #ff0000; stroke-width: 0.25; stroke-linecap: square"/>
   </g>
   <g id="line2d_61">
    <path d="M 211.22948 169.489363 
L 209.471283 169.331575 
L 207.707738 169.20746 
L 205.941547 169.082946 
L 204.172413 168.96226 
L 202.400109 168.849264 
L 200.624537 168.746724 
L 198.845725 168.65623 
L 197.06379 168.578359 
L 195.278903 168.51291 
L 193.491256 168.459135 
L 191.701046 168.415948 
L 189.90846 168.382083 
L 188.113674 168.356217 
L 186.316852 168.337053 
L 184.518148 168.323379 
L 182.717706 168.314099 
L 180.915666 168.30825 
L 179.112164 168.305009 
L 177.307333 168.303687 
L 175.501302 168.303724 
L 173.6942 168.304674 
L 171.886155 168.306195 
L 170.077289 168.308031 
L 168.267723 168.31 
L 166.457574 168.311982 
L 164.646954 168.313907 
L 162.835972 168.31574 
L 161.024729 168.317481 
L 159.213319 168.319148 
L 157.401833 168.32079 
" clip-path="url(#p8f19723235)" style="fill: none; stroke: #ff0000; stroke-opacity: 0.2; stroke-width: 0.25; stroke-linecap: square"/>
   </g>
   <g id="line2d_62">
    <path d="M 211.22948 169.489363 
L 209.471773 169.326206 
L 207.708189 169.202604 
L 205.941947 169.078762 
L 204.172752 168.958879 
L 202.400381 168.846779 
L 200.624744 168.745188 
L 198.84587 168.65566 
L 197.063879 168.578739 
L 195.278942 168.5142 
L 193.491251 168.461279 
L 191.701001 168.418878 
L 189.90838 168.385725 
L 188.113562 168.360497 
L 186.316709 168.341898 
L 184.517974 168.328723 
L 182.717502 168.319882 
L 180.915431 168.314421 
L 179.111897 168.311525 
L 177.307033 168.310516 
L 175.500967 168.310841 
L 173.69383 168.312063 
L 171.885747 168.313847 
L 170.076842 168.315942 
L 168.267236 168.318172 
L 166.457045 168.320419 
L 164.646381 168.322614 
L 162.835354 168.324727 
L 161.024063 168.326753 
L 159.212605 168.32871 
L 157.401068 168.330638 
" clip-path="url(#p8f19723235)" style="fill: none; stroke: #ff0000; stroke-opacity: 0.4; stroke-width: 0.25; stroke-linecap: square"/>
   </g>
   <g id="line2d_63">
    <path d="M 211.22948 169.489363 
L 209.472266 169.32098 
L 207.70866 169.197691 
L 205.942387 169.074257 
L 204.173158 168.954852 
L 202.400753 168.843268 
L 200.625084 168.742193 
L 198.846182 168.653148 
L 197.06417 168.576655 
L 195.279216 168.51247 
L 193.491513 168.459817 
L 191.701255 168.417592 
L 189.908628 168.384526 
L 188.113805 168.359296 
L 186.316948 168.340618 
L 184.518209 168.327292 
L 182.717732 168.318241 
L 180.915656 168.31252 
L 179.112117 168.309327 
L 177.307245 168.307992 
L 175.501172 168.307975 
L 173.694027 168.308845 
L 171.885935 168.310274 
L 170.07702 168.312017 
L 168.267403 168.313903 
L 166.457201 168.315815 
L 164.646526 168.317688 
L 162.835485 168.319488 
L 161.02418 168.32121 
L 159.212707 168.322871 
L 157.401155 168.324502 
" clip-path="url(#p8f19723235)" style="fill: none; stroke: #ff0000; stroke-opacity: 0.6; stroke-width: 0.25; stroke-linecap: square"/>
   </g>
   <g id="line2d_64">
    <path d="M 211.22948 169.489363 
L 209.472735 169.316158 
L 207.709097 169.193306 
L 205.942786 169.070399 
L 204.173514 168.951593 
L 202.401066 168.840647 
L 200.625356 168.740216 
L 198.84642 168.651794 
L 197.064377 168.57588 
L 195.279399 168.512215 
L 193.491678 168.460015 
L 191.701405 168.418176 
L 189.908765 168.385427 
L 188.113931 168.360453 
L 186.317065 168.341976 
L 184.518318 168.328807 
L 182.717832 168.319877 
L 180.915748 168.314254 
L 179.1122 168.311143 
L 177.307319 168.309885 
L 175.501237 168.309944 
L 173.694083 168.3109 
L 171.885981 168.312426 
L 170.077056 168.314283 
L 168.267428 168.3163 
L 166.457214 168.318361 
L 164.646527 168.3204 
L 162.835474 168.322381 
L 161.024157 168.324298 
L 159.212671 168.326162 
L 157.401104 168.327995 
" clip-path="url(#p8f19723235)" style="fill: none; stroke: #ff0000; stroke-opacity: 0.8; stroke-width: 0.25; stroke-linecap: square"/>
   </g>
   <g id="line2d_65">
    <path d="M 211.22948 169.489363 
L 209.473191 169.311588 
L 207.709525 169.189139 
L 205.943179 169.066698 
L 204.17387 168.948403 
L 202.401386 168.837983 
L 200.625643 168.738064 
L 198.846678 168.650115 
L 197.064613 168.574616 
L 195.279617 168.511296 
L 193.491881 168.459367 
L 191.701597 168.417722 
L 189.908948 168.385095 
L 188.114107 168.360178 
L 186.317233 168.341702 
L 184.518478 168.328486 
L 182.717985 168.319473 
L 180.915893 168.313739 
L 179.112336 168.310499 
L 177.307447 168.309102 
L 175.501356 168.309019 
L 173.694192 168.309834 
L 171.886081 168.311226 
L 170.077146 168.312956 
L 168.267508 168.314856 
L 166.457284 168.31681 
L 164.646587 168.31875 
L 162.835523 168.320641 
L 161.024194 168.322472 
L 159.212696 168.324253 
L 157.401118 168.326003 
" clip-path="url(#p8f19723235)" style="fill: none; stroke: #ff0000; stroke-width: 0.25; stroke-linecap: square"/>
   </g>
   <g id="line2d_66">
    <path d="M 252.361129 181.448185 
L 254.326983 181.19272 
L 256.297957 180.995235 
L 258.271893 180.849024 
L 260.247053 180.745157 
L 262.222303 180.675273 
L 264.196965 180.631906 
L 266.170674 180.608613 
L 268.143271 180.599987 
L 270.114718 180.601605 
L 272.085044 180.609944 
L 274.054309 180.622273 
L 276.022588 180.636549 
L 277.989954 180.6513 
L 279.956482 180.665516 
L 281.922241 180.678559 
L 283.887296 180.690068 
L 285.85171 180.699892 
L 287.815545 180.708026 
L 289.778858 180.714564 
L 291.741708 180.719659 
L 293.704149 180.723496 
L 295.666236 180.726272 
L 297.62802 180.728181 
L 299.589551 180.729406 
L 301.550877 180.730111 
L 303.512042 180.730442 
L 305.473089 180.730521 
L 307.434057 180.730441 
L 309.394983 180.730248 
L 311.355896 180.729837 
" clip-path="url(#p8f19723235)" style="fill: none; stroke: #ff0000; stroke-opacity: 0.2; stroke-width: 0.25; stroke-linecap: square"/>
   </g>
   <g id="line2d_67">
    <path d="M 252.361129 181.448185 
L 254.327275 181.194977 
L 256.29826 180.997561 
L 258.2722 180.851296 
L 260.247363 180.747287 
L 262.22262 180.677202 
L 264.197291 180.633598 
L 266.171014 180.610052 
L 268.143627 180.60117 
L 270.115092 180.60254 
L 272.085436 180.610644 
L 274.054719 180.62276 
L 276.023014 180.636846 
L 277.990395 180.651431 
L 279.956934 180.665507 
L 281.9227 180.678434 
L 283.887758 180.68985 
L 285.852172 180.699604 
L 287.816001 180.707687 
L 289.779303 180.714192 
L 291.742135 180.719269 
L 293.704553 180.723101 
L 295.666609 180.725883 
L 297.628355 180.727805 
L 299.589841 180.729048 
L 301.551115 180.729774 
L 303.512219 180.730126 
L 305.473198 180.730222 
L 307.43409 180.730157 
L 309.394931 180.729985 
L 311.355754 180.72965 
" clip-path="url(#p8f19723235)" style="fill: none; stroke: #ff0000; stroke-opacity: 0.4; stroke-width: 0.25; stroke-linecap: square"/>
   </g>
   <g id="line2d_68">
    <path d="M 252.361129 181.448185 
L 254.327543 181.197065 
L 256.298532 180.999664 
L 258.272467 180.853301 
L 260.247627 180.749117 
L 262.222881 180.678809 
L 264.197554 180.634958 
L 266.171281 180.611159 
L 268.143901 180.602031 
L 270.115374 180.60317 
L 272.085726 180.611068 
L 274.055017 180.623004 
L 276.023318 180.636939 
L 277.990704 180.651402 
L 279.957246 180.665385 
L 281.923013 180.678244 
L 283.888069 180.689617 
L 285.852478 180.699349 
L 287.816299 180.707428 
L 289.77959 180.713945 
L 291.742408 180.719046 
L 293.704806 180.722912 
L 295.66684 180.725734 
L 297.628559 180.7277 
L 299.590013 180.728989 
L 301.55125 180.72976 
L 303.512313 180.730153 
L 305.473246 180.730285 
L 307.434086 180.730251 
L 309.394871 180.730112 
L 311.355633 180.72985 
" clip-path="url(#p8f19723235)" style="fill: none; stroke: #ff0000; stroke-opacity: 0.6; stroke-width: 0.25; stroke-linecap: square"/>
   </g>
   <g id="line2d_69">
    <path d="M 252.361129 181.448185 
L 254.32779 181.199005 
L 256.298777 181.001582 
L 258.272705 180.855092 
L 260.247856 180.750713 
L 262.223104 180.680173 
L 264.197774 180.636073 
L 266.171501 180.612026 
L 268.144123 180.602664 
L 270.115598 180.603591 
L 272.085953 180.611303 
L 274.055246 180.623083 
L 276.023549 180.636892 
L 277.990935 180.651258 
L 279.957477 180.66517 
L 281.923242 180.677983 
L 283.888295 180.689331 
L 285.852698 180.699055 
L 287.816512 180.707142 
L 289.779793 180.713676 
L 291.742599 180.718802 
L 293.704984 180.722698 
L 295.667001 180.725553 
L 297.628701 180.727551 
L 299.590133 180.728869 
L 301.551345 180.729665 
L 303.51238 180.730076 
L 305.473281 180.730219 
L 307.434087 180.730191 
L 309.394835 180.730057 
L 311.355556 180.729826 
" clip-path="url(#p8f19723235)" style="fill: none; stroke: #ff0000; stroke-opacity: 0.8; stroke-width: 0.25; stroke-linecap: square"/>
   </g>
   <g id="line2d_70">
    <path d="M 252.361129 181.448185 
L 254.328018 181.200814 
L 256.299 181.003342 
L 258.272918 180.85671 
L 260.248058 180.752131 
L 262.223299 180.681359 
L 264.197964 180.637021 
L 266.171688 180.612742 
L 268.144308 180.603166 
L 270.115783 180.603905 
L 272.086138 180.611458 
L 274.055431 180.623109 
L 276.023733 180.63682 
L 277.991117 180.651116 
L 279.957656 180.664983 
L 281.923417 180.677774 
L 283.888465 180.689118 
L 285.852863 180.698852 
L 287.81667 180.70696 
L 289.779943 180.713523 
L 291.742739 180.718683 
L 293.705113 180.722614 
L 295.667117 180.725502 
L 297.628803 180.727533 
L 299.59022 180.728877 
L 301.551413 180.729694 
L 303.512429 180.730119 
L 305.473309 180.730269 
L 307.434091 180.730241 
L 309.394813 180.730107 
L 311.355507 180.729894 
" clip-path="url(#p8f19723235)" style="fill: none; stroke: #ff0000; stroke-width: 0.25; stroke-linecap: square"/>
   </g>
   <g id="line2d_71">
    <path d="M 241.37578 198.988862 
L 241.476185 197.261225 
L 241.683081 195.546604 
L 242.045681 193.86149 
L 242.639413 192.246715 
L 243.448556 190.731818 
L 244.394711 189.301849 
L 245.469974 187.969525 
L 246.664041 186.745737 
L 247.803141 185.473287 
L 248.93162 184.193577 
L 250.1856 183.038428 
L 251.632834 182.138812 
L 253.156742 181.377491 
L 254.744934 180.762066 
L 256.383936 180.298492 
L 258.059535 179.991137 
L 259.756945 179.841695 
L 261.461439 179.849565 
L 263.166085 179.889608 
L 264.870923 179.945758 
L 266.575931 180.01516 
L 268.281219 180.09307 
L 269.986932 180.174989 
L 271.693178 180.257401 
L 273.400002 180.337952 
L 275.107375 180.415446 
L 276.815202 180.489842 
L 278.523331 180.562392 
L 280.231582 180.635154 
L 281.939771 180.710441 
" clip-path="url(#p8f19723235)" style="fill: none; stroke: #ff0000; stroke-opacity: 0.2; stroke-width: 0.25; stroke-linecap: square"/>
   </g>
   <g id="line2d_72">
    <path d="M 241.37578 198.988862 
L 241.476792 197.26126 
L 241.683885 195.546665 
L 242.046711 193.861601 
L 242.640695 192.246922 
L 243.45027 190.73226 
L 244.396902 189.302609 
L 245.472545 187.970592 
L 246.666924 186.747107 
L 247.806428 185.475015 
L 248.935262 184.19561 
L 250.189483 183.040708 
L 251.636812 182.141217 
L 253.160832 181.380079 
L 254.749101 180.764782 
L 256.38814 180.30122 
L 258.063753 179.993725 
L 259.761195 179.844117 
L 261.465741 179.852495 
L 263.170451 179.892548 
L 264.875362 179.948695 
L 266.580453 180.018072 
L 268.285835 180.095928 
L 269.991653 180.177757 
L 271.698016 180.260039 
L 273.404969 180.340415 
L 275.112481 180.417677 
L 276.82046 180.491753 
L 278.528755 180.563818 
L 280.237189 180.635857 
L 281.94558 180.71012 
" clip-path="url(#p8f19723235)" style="fill: none; stroke: #ff0000; stroke-opacity: 0.4; stroke-width: 0.25; stroke-linecap: square"/>
   </g>
   <g id="line2d_73">
    <path d="M 241.37578 198.988862 
L 241.47696 197.26127 
L 241.683708 195.546636 
L 242.046108 193.861485 
L 242.639584 192.246625 
L 243.448587 190.731665 
L 244.395312 189.302084 
L 245.470289 187.969539 
L 246.663925 186.745338 
L 247.803028 185.472893 
L 248.931448 184.193128 
L 250.185261 183.037784 
L 251.632767 182.138572 
L 253.157782 181.379413 
L 254.746777 180.765963 
L 256.38601 180.303023 
L 258.06144 179.994406 
L 259.758799 179.843518 
L 261.463379 179.85231 
L 263.168133 179.892306 
L 264.873096 179.948405 
L 266.578249 180.017736 
L 268.2837 180.095539 
L 269.989596 180.177305 
L 271.696047 180.259509 
L 273.403096 180.339786 
L 275.110713 180.416917 
L 276.818807 180.490801 
L 278.52723 180.562538 
L 280.235806 180.634037 
L 281.944357 180.707481 
" clip-path="url(#p8f19723235)" style="fill: none; stroke: #ff0000; stroke-opacity: 0.6; stroke-width: 0.25; stroke-linecap: square"/>
   </g>
   <g id="line2d_74">
    <path d="M 241.37578 198.988862 
L 241.477375 197.261294 
L 241.684095 195.546662 
L 242.046446 193.86151 
L 242.639848 192.246637 
L 243.449086 190.73182 
L 244.396314 189.302596 
L 245.471531 187.970274 
L 246.665346 186.74628 
L 247.804688 185.474083 
L 248.93327 184.194494 
L 250.187064 183.039166 
L 251.634793 182.140359 
L 253.160281 181.382204 
L 254.749615 180.769686 
L 256.388957 180.3072 
L 258.064336 179.998376 
L 259.761656 179.847167 
L 261.466229 179.856529 
L 263.170982 179.896619 
L 264.875949 179.952799 
L 266.581112 180.022197 
L 268.286581 180.100044 
L 269.992503 180.181829 
L 271.698988 180.264025 
L 273.406079 180.344264 
L 275.113747 180.421318 
L 276.821901 180.495061 
L 278.530395 180.566529 
L 280.239055 180.63756 
L 281.947705 180.710279 
" clip-path="url(#p8f19723235)" style="fill: none; stroke: #ff0000; stroke-opacity: 0.8; stroke-width: 0.25; stroke-linecap: square"/>
   </g>
   <g id="line2d_75">
    <path d="M 241.37578 198.988862 
L 241.477596 197.261307 
L 241.684056 195.546646 
L 242.046083 193.86143 
L 242.639095 192.246421 
L 243.448191 190.731539 
L 244.394725 189.301867 
L 245.469936 187.969553 
L 246.663884 186.745704 
L 247.803202 185.473499 
L 248.931731 184.193877 
L 250.185373 183.038396 
L 251.632851 182.139198 
L 253.157461 181.379286 
L 254.746185 180.76519 
L 256.385393 180.302216 
L 258.060968 179.994425 
L 259.758408 179.84443 
L 261.462997 179.853793 
L 263.167772 179.893882 
L 264.872766 179.95007 
L 266.577961 180.019479 
L 268.283469 180.097336 
L 269.989436 180.179125 
L 271.695973 180.261318 
L 273.403123 180.341543 
L 275.110858 180.418564 
L 276.819085 180.49223 
L 278.527663 180.563513 
L 280.236419 180.634183 
L 281.945178 180.706303 
" clip-path="url(#p8f19723235)" style="fill: none; stroke: #ff0000; stroke-width: 0.25; stroke-linecap: square"/>
   </g>
   <g id="line2d_76">
    <path d="M 250.507461 168.8965 
L 248.454498 168.447549 
L 246.43828 167.814948 
L 244.374653 167.310419 
L 242.244737 167.16066 
L 240.139958 167.575776 
L 238.089418 168.237679 
L 236.123468 169.140505 
L 234.27176 170.274053 
L 232.563919 171.625521 
L 231.025978 173.175365 
L 229.68069 174.900605 
L 228.549713 176.777239 
L 227.650211 178.778081 
L 226.996965 180.874396 
L 226.600271 183.035447 
L 226.466528 185.229429 
L 226.598062 187.423995 
L 226.993117 189.586795 
L 227.467289 191.73342 
L 227.908863 193.886554 
L 228.313575 196.046348 
L 228.6737 198.213378 
L 228.984453 200.387372 
L 229.245617 202.567238 
L 229.461199 204.751501 
L 229.638039 206.938744 
L 229.784266 209.127852 
L 229.907684 211.318085 
L 230.013838 213.50906 
L 230.101265 215.700806 
" clip-path="url(#p8f19723235)" style="fill: none; stroke: #ff0000; stroke-opacity: 0.2; stroke-width: 0.25; stroke-linecap: square"/>
   </g>
   <g id="line2d_77">
    <path d="M 250.507461 168.8965 
L 248.454721 168.446531 
L 246.438275 167.814696 
L 244.374503 167.31087 
L 242.244575 167.161833 
L 240.139977 167.577593 
L 238.089705 168.240108 
L 236.124084 169.143454 
L 234.272675 170.277308 
L 232.56493 171.62872 
L 231.026967 173.178369 
L 229.681702 174.903451 
L 228.55073 176.77991 
L 227.651228 178.780567 
L 226.997947 180.876679 
L 226.60118 183.037512 
L 226.467315 185.23127 
L 226.598669 187.425613 
L 226.993475 189.588205 
L 227.468492 191.734369 
L 227.910808 193.88706 
L 228.316259 196.046408 
L 228.677069 198.213002 
L 228.988373 200.386579 
L 229.249859 202.566054 
L 229.465444 204.749949 
L 229.641898 206.936843 
L 229.78732 209.125613 
L 229.90956 211.31551 
L 230.014363 213.506139 
L 230.100935 215.697502 
" clip-path="url(#p8f19723235)" style="fill: none; stroke: #ff0000; stroke-opacity: 0.4; stroke-width: 0.25; stroke-linecap: square"/>
   </g>
   <g id="line2d_78">
    <path d="M 250.507461 168.8965 
L 248.455038 168.445085 
L 246.438526 167.813466 
L 244.374738 167.309729 
L 242.244823 167.160686 
L 240.140119 167.575811 
L 238.089925 168.238481 
L 236.124433 169.142026 
L 234.273188 170.276065 
L 232.563869 171.625405 
L 231.023587 173.172667 
L 229.677351 174.896906 
L 228.545877 176.772974 
L 227.647056 178.773844 
L 226.994503 180.870084 
L 226.598435 183.030939 
L 226.465058 185.224611 
L 226.596539 187.418818 
L 226.991014 189.581329 
L 227.466998 191.727123 
L 227.910178 193.879467 
L 228.316483 196.038474 
L 228.678089 198.20474 
L 228.990053 200.378016 
L 229.251976 202.557219 
L 229.467691 204.740871 
L 229.643901 206.927543 
L 229.788681 209.116103 
L 229.909926 211.305794 
L 230.013576 213.496209 
L 230.099474 215.687324 
" clip-path="url(#p8f19723235)" style="fill: none; stroke: #ff0000; stroke-opacity: 0.6; stroke-width: 0.25; stroke-linecap: square"/>
   </g>
   <g id="line2d_79">
    <path d="M 250.507461 168.8965 
L 248.455288 168.443953 
L 246.438605 167.812899 
L 244.374716 167.309627 
L 242.244791 167.161029 
L 240.14021 167.576621 
L 238.090341 168.240171 
L 236.12533 169.144651 
L 234.27474 170.279652 
L 232.565577 171.629089 
L 231.025159 173.176116 
L 229.679191 174.900467 
L 228.548108 176.776672 
L 227.650088 178.777801 
L 226.998253 180.874159 
L 226.602786 183.035014 
L 226.469824 185.228593 
L 226.601488 187.422661 
L 226.99589 189.585045 
L 227.47274 191.730494 
L 227.916641 193.882527 
L 228.323608 196.041236 
L 228.685772 198.207223 
L 228.99812 200.380249 
L 229.260176 202.55923 
L 229.475695 204.742685 
L 229.651325 206.929177 
L 229.795123 209.117566 
L 229.915037 211.307086 
L 230.017197 213.497321 
L 230.102056 215.688221 
" clip-path="url(#p8f19723235)" style="fill: none; stroke: #ff0000; stroke-opacity: 0.8; stroke-width: 0.25; stroke-linecap: square"/>
   </g>
   <g id="line2d_80">
    <path d="M 250.507461 168.8965 
L 248.455612 168.442482 
L 246.438893 167.811541 
L 244.375018 167.308216 
L 242.245111 167.159428 
L 240.140496 167.574792 
L 238.090328 168.23737 
L 236.124863 169.140813 
L 234.273692 170.27482 
L 232.565364 171.625265 
L 231.026423 173.173713 
L 229.680894 174.898358 
L 228.549903 176.774568 
L 227.651027 178.77526 
L 226.998361 180.871304 
L 226.602152 183.031962 
L 226.468694 185.225445 
L 226.600227 187.419447 
L 226.994934 189.581692 
L 227.472337 191.726926 
L 227.916666 193.878769 
L 228.324023 196.037293 
L 228.686499 198.203108 
L 228.999013 200.37598 
L 229.261014 202.554829 
L 229.476186 204.73817 
L 229.651123 206.924561 
L 229.793867 209.112854 
L 229.912412 211.302277 
L 230.013074 213.492402 
L 230.096879 215.683159 
" clip-path="url(#p8f19723235)" style="fill: none; stroke: #ff0000; stroke-width: 0.25; stroke-linecap: square"/>
   </g>
   <g id="line2d_81">
    <path d="M 230.706891 150.018023 
L 230.604778 151.739789 
L 230.413418 153.450303 
L 230.06551 155.132407 
L 229.482368 156.744579 
L 228.674714 158.253285 
L 227.729804 159.676593 
L 226.658787 161.004228 
L 225.4696 162.223858 
L 224.348466 163.503618 
L 223.23912 164.791416 
L 222.006221 165.959619 
L 220.57169 166.867273 
L 219.058883 167.636232 
L 217.481712 168.262107 
L 215.853245 168.739123 
L 214.187269 169.063187 
L 212.497913 169.231096 
L 210.799663 169.240766 
L 209.101313 169.195677 
L 207.4027 169.136161 
L 205.703853 169.064073 
L 204.004676 168.98363 
L 202.305027 168.899196 
L 200.604795 168.81427 
L 198.903939 168.731225 
L 197.202492 168.651272 
L 195.500545 168.574633 
L 193.798252 168.500282 
L 192.095796 168.426348 
L 190.393389 168.350122 
" clip-path="url(#p8f19723235)" style="fill: none; stroke: #ff0000; stroke-opacity: 0.2; stroke-width: 0.25; stroke-linecap: square"/>
   </g>
   <g id="line2d_82">
    <path d="M 230.706891 150.018023 
L 230.604672 151.739783 
L 230.413336 153.450293 
L 230.06547 155.132394 
L 229.482395 156.744573 
L 228.674212 158.252974 
L 227.728803 159.675921 
L 226.657133 161.002994 
L 225.467418 162.222068 
L 224.345993 163.501533 
L 223.236462 164.789129 
L 222.00355 165.957273 
L 220.568956 166.864769 
L 219.05615 167.633665 
L 217.47893 168.259341 
L 215.850399 168.736062 
L 214.184367 169.059735 
L 212.494981 169.2272 
L 210.796736 169.236424 
L 209.098392 169.191215 
L 207.399775 169.131613 
L 205.700918 169.059462 
L 204.001722 168.978987 
L 202.302044 168.894557 
L 200.601772 168.809674 
L 198.900866 168.726715 
L 197.199358 168.6469 
L 195.497339 168.570474 
L 193.794962 168.496472 
L 192.092406 168.423083 
L 190.38988 168.347698 
" clip-path="url(#p8f19723235)" style="fill: none; stroke: #ff0000; stroke-opacity: 0.4; stroke-width: 0.25; stroke-linecap: square"/>
   </g>
   <g id="line2d_83">
    <path d="M 230.706891 150.018023 
L 230.604648 151.739782 
L 230.413376 153.450296 
L 230.065585 155.132409 
L 229.482602 156.744616 
L 228.674835 158.253233 
L 227.731193 159.677345 
L 226.659083 161.004053 
L 225.469454 162.223204 
L 224.348236 163.502843 
L 223.238965 164.790658 
L 222.006373 165.959139 
L 220.572316 166.867486 
L 219.060724 167.638778 
L 217.483842 168.265331 
L 215.855322 168.742135 
L 214.189126 169.065066 
L 212.499609 169.231457 
L 210.801329 169.24003 
L 209.10295 169.194711 
L 207.404292 169.135009 
L 205.705387 169.062757 
L 204.006135 168.982188 
L 202.306393 168.897674 
L 200.606049 168.812722 
L 198.905061 168.729714 
L 197.203462 168.649881 
L 195.501344 168.573487 
L 193.798855 168.499626 
L 192.096175 168.426554 
L 190.393507 168.35176 
" clip-path="url(#p8f19723235)" style="fill: none; stroke: #ff0000; stroke-opacity: 0.6; stroke-width: 0.25; stroke-linecap: square"/>
   </g>
   <g id="line2d_84">
    <path d="M 230.706891 150.018023 
L 230.6043 151.739761 
L 230.412624 153.450228 
L 230.06433 155.132234 
L 229.480736 156.744216 
L 228.672936 158.25281 
L 227.729774 159.677234 
L 226.657401 161.003725 
L 225.467663 162.222763 
L 224.346148 163.502137 
L 223.236636 164.789743 
L 222.003953 165.958126 
L 220.569942 166.866551 
L 219.058674 167.638489 
L 217.481842 168.265196 
L 215.853286 168.741924 
L 214.187011 169.064541 
L 212.497433 169.230548 
L 210.799124 169.238934 
L 209.100713 169.193502 
L 207.402019 169.133691 
L 205.703071 169.061319 
L 204.003772 168.980627 
L 202.303975 168.895993 
L 200.603569 168.810928 
L 198.902512 168.727815 
L 197.200836 168.647899 
L 195.498632 168.571461 
L 193.796048 168.497651 
L 192.093259 168.424789 
L 190.390469 168.350457 
" clip-path="url(#p8f19723235)" style="fill: none; stroke: #ff0000; stroke-opacity: 0.8; stroke-width: 0.25; stroke-linecap: square"/>
   </g>
   <g id="line2d_85">
    <path d="M 230.706891 150.018023 
L 230.604294 151.739761 
L 230.412588 153.450222 
L 230.064226 155.13221 
L 229.480515 156.744143 
L 228.673058 158.252914 
L 227.729175 159.676852 
L 226.657941 161.004253 
L 225.468831 162.223893 
L 224.347414 163.503343 
L 223.238001 164.791026 
L 222.005462 165.959553 
L 220.571215 166.867601 
L 219.059086 167.637849 
L 217.482083 168.264132 
L 215.853586 168.741087 
L 214.187474 169.064597 
L 212.497993 169.231737 
L 210.799668 169.240863 
L 209.101226 169.195709 
L 207.402494 169.13615 
L 205.703503 169.063986 
L 204.004155 168.983467 
L 202.304305 168.898976 
L 200.603842 168.814027 
L 198.902723 168.731012 
L 197.200979 168.651187 
L 195.498701 168.574853 
L 193.796035 168.501214 
L 192.093155 168.428664 
L 190.390258 168.354874 
" clip-path="url(#p8f19723235)" style="fill: none; stroke: #ff0000; stroke-width: 0.25; stroke-linecap: square"/>
   </g>
   <g id="line2d_86">
    <path d="M 221.719225 179.652049 
L 223.795388 179.965891 
L 225.832517 180.519406 
L 227.855703 181.15889 
L 229.973793 181.403822 
L 232.089099 181.067017 
L 234.145983 180.43791 
L 236.121904 179.567545 
L 237.987443 178.466098 
L 239.712757 177.14548 
L 241.271856 175.624954 
L 242.642107 173.927208 
L 243.801705 172.075637 
L 244.733461 170.096968 
L 245.422147 168.01929 
L 245.857102 165.872848 
L 246.031454 163.688989 
L 245.942325 161.499676 
L 245.590858 159.336948 
L 245.068782 157.20927 
L 244.589463 155.072073 
L 244.150608 152.926849 
L 243.759099 150.773193 
L 243.420455 148.611315 
L 243.135512 146.442394 
L 242.900383 144.268133 
L 242.707941 142.090211 
L 242.549398 139.909981 
L 242.416002 137.72837 
L 242.301041 135.545889 
L 242.205167 133.362554 
" clip-path="url(#p8f19723235)" style="fill: none; stroke: #ff0000; stroke-opacity: 0.2; stroke-width: 0.25; stroke-linecap: square"/>
   </g>
   <g id="line2d_87">
    <path d="M 221.719225 179.652049 
L 223.795496 179.965178 
L 225.832842 180.517847 
L 227.856274 181.156475 
L 229.974419 181.400617 
L 232.089561 181.0631 
L 234.146081 180.433025 
L 236.121542 179.561807 
L 237.986649 178.459808 
L 239.711766 177.139106 
L 241.270813 175.618696 
L 242.640965 173.92104 
L 243.800478 172.069587 
L 244.732141 170.09105 
L 245.42074 168.013526 
L 245.855607 165.867256 
L 246.029872 163.683592 
L 245.940667 161.494497 
L 245.589149 159.332011 
L 245.066072 157.20483 
L 244.586027 155.068061 
L 244.14652 152.92325 
L 243.754473 150.769984 
L 243.415482 148.608465 
L 243.130475 146.439871 
L 242.895658 144.265907 
L 242.703972 142.088259 
L 242.546661 139.908292 
L 242.414921 137.726943 
L 242.30183 135.544734 
L 242.207291 133.361716 
" clip-path="url(#p8f19723235)" style="fill: none; stroke: #ff0000; stroke-opacity: 0.4; stroke-width: 0.25; stroke-linecap: square"/>
   </g>
   <g id="line2d_88">
    <path d="M 221.719225 179.652049 
L 223.795526 179.964974 
L 225.832893 180.517566 
L 227.856405 181.155926 
L 229.974557 181.399909 
L 232.089681 181.062395 
L 234.146397 180.433046 
L 236.122119 179.562505 
L 237.987243 178.460614 
L 239.714259 177.142477 
L 241.27603 175.624946 
L 242.647411 173.928365 
L 243.807582 172.07741 
L 244.738362 170.098545 
L 245.425946 168.020777 
L 245.859745 165.87439 
L 246.033118 163.69076 
L 245.943391 161.501802 
L 245.591863 159.339443 
L 245.067533 157.21271 
L 244.586488 155.076315 
L 244.146041 152.931856 
L 243.753151 150.778914 
L 243.413488 148.617681 
L 243.128065 146.449333 
L 242.893175 144.275577 
L 242.701828 142.098111 
L 242.54529 139.918308 
L 242.41471 137.737117 
L 242.302963 135.555074 
L 242.209249 133.372261 
" clip-path="url(#p8f19723235)" style="fill: none; stroke: #ff0000; stroke-opacity: 0.6; stroke-width: 0.25; stroke-linecap: square"/>
   </g>
   <g id="line2d_89">
    <path d="M 221.719225 179.652049 
L 223.795555 179.964783 
L 225.832967 180.517183 
L 227.856675 181.154878 
L 229.974878 181.398223 
L 232.089859 181.060003 
L 234.146407 180.430238 
L 236.121859 179.5592 
L 237.986423 178.45647 
L 239.713392 177.138373 
L 241.275406 175.62119 
L 242.646534 173.9245 
L 243.806264 172.073364 
L 244.736024 170.094116 
L 245.422663 168.016134 
L 245.855643 165.869684 
L 246.028418 163.686114 
L 245.938385 161.497284 
L 245.586879 159.335046 
L 245.061566 157.208691 
L 244.579812 155.0726 
L 244.138748 152.92842 
L 243.745372 150.775728 
L 243.405415 148.614712 
L 243.119969 146.446546 
L 242.885407 144.272942 
L 242.694793 142.095608 
L 242.539413 139.915926 
L 242.410363 137.734855 
L 242.30032 135.552944 
L 242.207815 133.370301 
" clip-path="url(#p8f19723235)" style="fill: none; stroke: #ff0000; stroke-opacity: 0.8; stroke-width: 0.25; stroke-linecap: square"/>
   </g>
   <g id="line2d_90">
    <path d="M 221.719225 179.652049 
L 223.79541 179.965748 
L 225.83254 180.5192 
L 227.856153 181.157204 
L 229.974307 181.400986 
L 232.089373 181.06332 
L 234.146055 180.434016 
L 236.121748 179.563553 
L 237.986891 178.461832 
L 239.712912 177.142525 
L 241.273239 175.623639 
L 242.643778 173.926506 
L 243.803319 172.075285 
L 244.734106 170.096554 
L 245.421792 168.018955 
L 245.855768 165.872745 
L 246.029298 163.689279 
L 245.939623 161.500483 
L 245.587971 159.338325 
L 245.062132 157.212163 
L 244.58008 155.07621 
L 244.138761 152.932161 
L 243.745203 150.779587 
L 243.405199 148.618672 
L 243.119917 146.450585 
L 242.885803 144.277042 
L 242.695982 142.099754 
L 242.541757 139.920114 
L 242.414178 137.739087 
L 242.305734 135.557231 
L 242.214336 133.374681 
" clip-path="url(#p8f19723235)" style="fill: none; stroke: #ff0000; stroke-width: 0.25; stroke-linecap: square"/>
   </g>
   <g id="patch_15">
    <path d="M 103.104 307.584 
L 103.104 41.472 
" style="fill: none; stroke: #000000; stroke-width: 0.8; stroke-linejoin: miter; stroke-linecap: square"/>
   </g>
   <g id="patch_16">
    <path d="M 369.216 307.584 
L 369.216 41.472 
" style="fill: none; stroke: #000000; stroke-width: 0.8; stroke-linejoin: miter; stroke-linecap: square"/>
   </g>
   <g id="patch_17">
    <path d="M 103.104 307.584 
L 369.216 307.584 
" style="fill: none; stroke: #000000; stroke-width: 0.8; stroke-linejoin: miter; stroke-linecap: square"/>
   </g>
   <g id="patch_18">
    <path d="M 103.104 41.472 
L 369.216 41.472 
" style="fill: none; stroke: #000000; stroke-width: 0.8; stroke-linejoin: miter; stroke-linecap: square"/>
   </g>
   <g id="text_19">
    <!-- Time:  59 ms -->
    <g transform="translate(264.253887 54.7776) scale(0.1 -0.1)">
     <defs>
      <path id="DejaVuSans-54" d="M -19 4666 
L 3928 4666 
L 3928 4134 
L 2272 4134 
L 2272 0 
L 1638 0 
L 1638 4134 
L -19 4134 
L -19 4666 
z
" transform="scale(0.015625)"/>
      <path id="DejaVuSans-69" d="M 603 3500 
L 1178 3500 
L 1178 0 
L 603 0 
L 603 3500 
z
M 603 4863 
L 1178 4863 
L 1178 4134 
L 603 4134 
L 603 4863 
z
" transform="scale(0.015625)"/>
      <path id="DejaVuSans-6d" d="M 3328 2828 
Q 3544 3216 3844 3400 
Q 4144 3584 4550 3584 
Q 5097 3584 5394 3201 
Q 5691 2819 5691 2113 
L 5691 0 
L 5113 0 
L 5113 2094 
Q 5113 2597 4934 2840 
Q 4756 3084 4391 3084 
Q 3944 3084 3684 2787 
Q 3425 2491 3425 1978 
L 3425 0 
L 2847 0 
L 2847 2094 
Q 2847 2600 2669 2842 
Q 2491 3084 2119 3084 
Q 1678 3084 1418 2786 
Q 1159 2488 1159 1978 
L 1159 0 
L 581 0 
L 581 3500 
L 1159 3500 
L 1159 2956 
Q 1356 3278 1631 3431 
Q 1906 3584 2284 3584 
Q 2666 3584 2933 3390 
Q 3200 3197 3328 2828 
z
" transform="scale(0.015625)"/>
      <path id="DejaVuSans-65" d="M 3597 1894 
L 3597 1613 
L 953 1613 
Q 991 1019 1311 708 
Q 1631 397 2203 397 
Q 2534 397 2845 478 
Q 3156 559 3463 722 
L 3463 178 
Q 3153 47 2828 -22 
Q 2503 -91 2169 -91 
Q 1331 -91 842 396 
Q 353 884 353 1716 
Q 353 2575 817 3079 
Q 1281 3584 2069 3584 
Q 2775 3584 3186 3129 
Q 3597 2675 3597 1894 
z
M 3022 2063 
Q 3016 2534 2758 2815 
Q 2500 3097 2075 3097 
Q 1594 3097 1305 2825 
Q 1016 2553 972 2059 
L 3022 2063 
z
" transform="scale(0.015625)"/>
      <path id="DejaVuSans-3a" d="M 750 794 
L 1409 794 
L 1409 0 
L 750 0 
L 750 794 
z
M 750 3309 
L 1409 3309 
L 1409 2516 
L 750 2516 
L 750 3309 
z
" transform="scale(0.015625)"/>
      <path id="DejaVuSans-20" transform="scale(0.015625)"/>
      <path id="DejaVuSans-35" d="M 691 4666 
L 3169 4666 
L 3169 4134 
L 1269 4134 
L 1269 2991 
Q 1406 3038 1543 3061 
Q 1681 3084 1819 3084 
Q 2600 3084 3056 2656 
Q 3513 2228 3513 1497 
Q 3513 744 3044 326 
Q 2575 -91 1722 -91 
Q 1428 -91 1123 -41 
Q 819 9 494 109 
L 494 744 
Q 775 591 1075 516 
Q 1375 441 1709 441 
Q 2250 441 2565 725 
Q 2881 1009 2881 1497 
Q 2881 1984 2565 2268 
Q 2250 2553 1709 2553 
Q 1456 2553 1204 2497 
Q 953 2441 691 2322 
L 691 4666 
z
" transform="scale(0.015625)"/>
      <path id="DejaVuSans-39" d="M 703 97 
L 703 672 
Q 941 559 1184 500 
Q 1428 441 1663 441 
Q 2288 441 2617 861 
Q 2947 1281 2994 2138 
Q 2813 1869 2534 1725 
Q 2256 1581 1919 1581 
Q 1219 1581 811 2004 
Q 403 2428 403 3163 
Q 403 3881 828 4315 
Q 1253 4750 1959 4750 
Q 2769 4750 3195 4129 
Q 3622 3509 3622 2328 
Q 3622 1225 3098 567 
Q 2575 -91 1691 -91 
Q 1453 -91 1209 -44 
Q 966 3 703 97 
z
M 1959 2075 
Q 2384 2075 2632 2365 
Q 2881 2656 2881 3163 
Q 2881 3666 2632 3958 
Q 2384 4250 1959 4250 
Q 1534 4250 1286 3958 
Q 1038 3666 1038 3163 
Q 1038 2656 1286 2365 
Q 1534 2075 1959 2075 
z
" transform="scale(0.015625)"/>
      <path id="DejaVuSans-73" d="M 2834 3397 
L 2834 2853 
Q 2591 2978 2328 3040 
Q 2066 3103 1784 3103 
Q 1356 3103 1142 2972 
Q 928 2841 928 2578 
Q 928 2378 1081 2264 
Q 1234 2150 1697 2047 
L 1894 2003 
Q 2506 1872 2764 1633 
Q 3022 1394 3022 966 
Q 3022 478 2636 193 
Q 2250 -91 1575 -91 
Q 1294 -91 989 -36 
Q 684 19 347 128 
L 347 722 
Q 666 556 975 473 
Q 1284 391 1588 391 
Q 1994 391 2212 530 
Q 2431 669 2431 922 
Q 2431 1156 2273 1281 
Q 2116 1406 1581 1522 
L 1381 1569 
Q 847 1681 609 1914 
Q 372 2147 372 2553 
Q 372 3047 722 3315 
Q 1072 3584 1716 3584 
Q 2034 3584 2315 3537 
Q 2597 3491 2834 3397 
z
" transform="scale(0.015625)"/>
     </defs>
     <use xlink:href="#DejaVuSans-54"/>
     <use xlink:href="#DejaVuSans-69" x="57.958984"/>
     <use xlink:href="#DejaVuSans-6d" x="85.742188"/>
     <use xlink:href="#DejaVuSans-65" x="183.154297"/>
     <use xlink:href="#DejaVuSans-3a" x="244.677734"/>
     <use xlink:href="#DejaVuSans-20" x="278.369141"/>
     <use xlink:href="#DejaVuSans-20" x="310.15625"/>
     <use xlink:href="#DejaVuSans-35" x="341.943359"/>
     <use xlink:href="#DejaVuSans-39" x="405.566406"/>
     <use xlink:href="#DejaVuSans-20" x="469.189453"/>
     <use xlink:href="#DejaVuSans-6d" x="500.976562"/>
     <use xlink:href="#DejaVuSans-73" x="598.388672"/>
    </g>
   </g>
  </g>
 </g>
 <defs>
  <clipPath id="p8f19723235">
   <rect x="103.104" y="41.472" width="266.112" height="266.112"/>
  </clipPath>
 </defs>
</svg>
