<?xml version="1.0" encoding="utf-8" standalone="no"?>
<!DOCTYPE svg PUBLIC "-//W3C//DTD SVG 1.1//EN"
  "http://www.w3.org/Graphics/SVG/1.1/DTD/svg11.dtd">
<svg xmlns:xlink="http://www.w3.org/1999/xlink" width="460.8pt" height="345.6pt" viewBox="0 0 460.8 345.6" xmlns="http://www.w3.org/2000/svg" version="1.1">
 <metadata>
  <rdf:RDF xmlns:dc="http://purl.org/dc/elements/1.1/" xmlns:cc="http://creativecommons.org/ns#" xmlns:rdf="http://www.w3.org/1999/02/22-rdf-syntax-ns#">
   <cc:Work>
    <dc:type rdf:resource="http://purl.org/dc/dcmitype/StillImage"/>
    <dc:date>2024-01-22T16:49:12.752559</dc:date>
    <dc:format>image/svg+xml</dc:format>
    <dc:creator>
     <cc:Agent>
      <dc:title>Matplotlib v3.8.2, https://matplotlib.org/</dc:title>
     </cc:Agent>
    </dc:creator>
   </cc:Work>
  </rdf:RDF>
 </metadata>
 <defs>
  <style type="text/css">*{stroke-linejoin: round; stroke-linecap: butt}</style>
 </defs>
 <g id="figure_1">
  <g id="patch_1">
   <path d="M 0 345.6 
L 460.8 345.6 
L 460.8 0 
L 0 0 
z
" style="fill: #ffffff"/>
  </g>
  <g id="axes_1">
   <g id="patch_2">
    <path d="M 103.104 307.584 
L 369.216 307.584 
L 369.216 41.472 
L 103.104 41.472 
z
" style="fill: #ffffff"/>
   </g>
   <g id="patch_3">
    <path d="M 246.603165 166.913212 
L 243.567406 155.673566 
L 238.108149 157.148078 
L 241.143909 168.387724 
z
" clip-path="url(#p7ba9d12922)" style="fill: #00008b"/>
   </g>
   <g id="patch_4">
    <path d="M 229.155591 163.117045 
L 217.80257 165.696655 
L 219.055523 171.21098 
L 230.408544 168.63137 
z
" clip-path="url(#p7ba9d12922)" style="fill: #800000"/>
   </g>
   <g id="patch_5">
    <path d="M 238.865571 181.463258 
L 249.906814 185.15601 
L 251.700437 179.79312 
L 240.659193 176.100368 
z
" clip-path="url(#p7ba9d12922)" style="fill: #006400"/>
   </g>
   <g id="patch_6">
    <path d="M 226.953355 192.796112 
L 229.642933 204.123585 
L 235.144849 202.817219 
L 232.455271 191.489745 
z
" clip-path="url(#p7ba9d12922)" style="fill: #4b0082"/>
   </g>
   <g id="patch_7">
    <path d="M 245.235401 200.683514 
L 244.078509 189.098736 
L 238.451617 189.660655 
L 239.608509 201.245433 
z
" clip-path="url(#p7ba9d12922)" style="fill: #0000ff"/>
   </g>
   <g id="patch_8">
    <path d="M 260.327692 165.460414 
L 248.759525 166.773046 
L 249.39709 172.39187 
L 260.965256 171.079238 
z
" clip-path="url(#p7ba9d12922)" style="fill: #ff0000"/>
   </g>
   <g id="patch_9">
    <path d="M 227.977161 143.106493 
L 228.555225 154.734533 
L 234.20313 154.453759 
L 233.625066 142.825719 
z
" clip-path="url(#p7ba9d12922)" style="fill: #dbdc56"/>
   </g>
   <g id="patch_10">
    <path d="M 209.839253 183.425688 
L 221.477442 183.738795 
L 221.629522 178.08596 
L 209.991333 177.772853 
z
" clip-path="url(#p7ba9d12922)" style="fill: #9400d3"/>
   </g>
   <g id="patch_11">
    <path d="M 245.188278 238.575862 
L 245.181924 226.933463 
L 239.527045 226.93655 
L 239.533399 238.578948 
z
" clip-path="url(#p7ba9d12922)" style="fill: #1e90ff"/>
   </g>
   <g id="patch_12">
    <path d="M 294.178872 165.475539 
L 282.536541 165.435361 
L 282.517026 171.090207 
L 294.159357 171.130385 
z
" clip-path="url(#p7ba9d12922)" style="fill: #ff4500"/>
   </g>
   <g id="patch_13">
    <path d="M 227.131663 110.48015 
L 227.138285 122.122548 
L 232.793164 122.119332 
L 232.786542 110.476934 
z
" clip-path="url(#p7ba9d12922)" style="fill: #7cfc00"/>
   </g>
   <g id="patch_14">
    <path d="M 178.145211 183.566905 
L 189.787491 183.619765 
L 189.813165 177.964943 
L 178.170885 177.912083 
z
" clip-path="url(#p7ba9d12922)" style="fill: #ff00ff"/>
   </g>
   <g id="matplotlib.axis_1">
    <g id="xtick_1">
     <g id="line2d_1">
      <defs>
       <path id="m8f4a127097" d="M 0 0 
L 0 3.5 
" style="stroke: #000000; stroke-width: 0.8"/>
      </defs>
      <g>
       <use xlink:href="#m8f4a127097" x="103.104" y="307.584" style="stroke: #000000; stroke-width: 0.8"/>
      </g>
     </g>
     <g id="text_1">
      <!-- −40 -->
      <g transform="translate(92.551656 322.182437) scale(0.1 -0.1)">
       <defs>
        <path id="DejaVuSans-2212" d="M 678 2272 
L 4684 2272 
L 4684 1741 
L 678 1741 
L 678 2272 
z
" transform="scale(0.015625)"/>
        <path id="DejaVuSans-34" d="M 2419 4116 
L 825 1625 
L 2419 1625 
L 2419 4116 
z
M 2253 4666 
L 3047 4666 
L 3047 1625 
L 3713 1625 
L 3713 1100 
L 3047 1100 
L 3047 0 
L 2419 0 
L 2419 1100 
L 313 1100 
L 313 1709 
L 2253 4666 
z
" transform="scale(0.015625)"/>
        <path id="DejaVuSans-30" d="M 2034 4250 
Q 1547 4250 1301 3770 
Q 1056 3291 1056 2328 
Q 1056 1369 1301 889 
Q 1547 409 2034 409 
Q 2525 409 2770 889 
Q 3016 1369 3016 2328 
Q 3016 3291 2770 3770 
Q 2525 4250 2034 4250 
z
M 2034 4750 
Q 2819 4750 3233 4129 
Q 3647 3509 3647 2328 
Q 3647 1150 3233 529 
Q 2819 -91 2034 -91 
Q 1250 -91 836 529 
Q 422 1150 422 2328 
Q 422 3509 836 4129 
Q 1250 4750 2034 4750 
z
" transform="scale(0.015625)"/>
       </defs>
       <use xlink:href="#DejaVuSans-2212"/>
       <use xlink:href="#DejaVuSans-34" x="83.789062"/>
       <use xlink:href="#DejaVuSans-30" x="147.412109"/>
      </g>
     </g>
    </g>
    <g id="xtick_2">
     <g id="line2d_2">
      <g>
       <use xlink:href="#m8f4a127097" x="136.368" y="307.584" style="stroke: #000000; stroke-width: 0.8"/>
      </g>
     </g>
     <g id="text_2">
      <!-- −30 -->
      <g transform="translate(125.815656 322.182437) scale(0.1 -0.1)">
       <defs>
        <path id="DejaVuSans-33" d="M 2597 2516 
Q 3050 2419 3304 2112 
Q 3559 1806 3559 1356 
Q 3559 666 3084 287 
Q 2609 -91 1734 -91 
Q 1441 -91 1130 -33 
Q 819 25 488 141 
L 488 750 
Q 750 597 1062 519 
Q 1375 441 1716 441 
Q 2309 441 2620 675 
Q 2931 909 2931 1356 
Q 2931 1769 2642 2001 
Q 2353 2234 1838 2234 
L 1294 2234 
L 1294 2753 
L 1863 2753 
Q 2328 2753 2575 2939 
Q 2822 3125 2822 3475 
Q 2822 3834 2567 4026 
Q 2313 4219 1838 4219 
Q 1578 4219 1281 4162 
Q 984 4106 628 3988 
L 628 4550 
Q 988 4650 1302 4700 
Q 1616 4750 1894 4750 
Q 2613 4750 3031 4423 
Q 3450 4097 3450 3541 
Q 3450 3153 3228 2886 
Q 3006 2619 2597 2516 
z
" transform="scale(0.015625)"/>
       </defs>
       <use xlink:href="#DejaVuSans-2212"/>
       <use xlink:href="#DejaVuSans-33" x="83.789062"/>
       <use xlink:href="#DejaVuSans-30" x="147.412109"/>
      </g>
     </g>
    </g>
    <g id="xtick_3">
     <g id="line2d_3">
      <g>
       <use xlink:href="#m8f4a127097" x="169.632" y="307.584" style="stroke: #000000; stroke-width: 0.8"/>
      </g>
     </g>
     <g id="text_3">
      <!-- −20 -->
      <g transform="translate(159.079656 322.182437) scale(0.1 -0.1)">
       <defs>
        <path id="DejaVuSans-32" d="M 1228 531 
L 3431 531 
L 3431 0 
L 469 0 
L 469 531 
Q 828 903 1448 1529 
Q 2069 2156 2228 2338 
Q 2531 2678 2651 2914 
Q 2772 3150 2772 3378 
Q 2772 3750 2511 3984 
Q 2250 4219 1831 4219 
Q 1534 4219 1204 4116 
Q 875 4013 500 3803 
L 500 4441 
Q 881 4594 1212 4672 
Q 1544 4750 1819 4750 
Q 2544 4750 2975 4387 
Q 3406 4025 3406 3419 
Q 3406 3131 3298 2873 
Q 3191 2616 2906 2266 
Q 2828 2175 2409 1742 
Q 1991 1309 1228 531 
z
" transform="scale(0.015625)"/>
       </defs>
       <use xlink:href="#DejaVuSans-2212"/>
       <use xlink:href="#DejaVuSans-32" x="83.789062"/>
       <use xlink:href="#DejaVuSans-30" x="147.412109"/>
      </g>
     </g>
    </g>
    <g id="xtick_4">
     <g id="line2d_4">
      <g>
       <use xlink:href="#m8f4a127097" x="202.896" y="307.584" style="stroke: #000000; stroke-width: 0.8"/>
      </g>
     </g>
     <g id="text_4">
      <!-- −10 -->
      <g transform="translate(192.343656 322.182437) scale(0.1 -0.1)">
       <defs>
        <path id="DejaVuSans-31" d="M 794 531 
L 1825 531 
L 1825 4091 
L 703 3866 
L 703 4441 
L 1819 4666 
L 2450 4666 
L 2450 531 
L 3481 531 
L 3481 0 
L 794 0 
L 794 531 
z
" transform="scale(0.015625)"/>
       </defs>
       <use xlink:href="#DejaVuSans-2212"/>
       <use xlink:href="#DejaVuSans-31" x="83.789062"/>
       <use xlink:href="#DejaVuSans-30" x="147.412109"/>
      </g>
     </g>
    </g>
    <g id="xtick_5">
     <g id="line2d_5">
      <g>
       <use xlink:href="#m8f4a127097" x="236.16" y="307.584" style="stroke: #000000; stroke-width: 0.8"/>
      </g>
     </g>
     <g id="text_5">
      <!-- 0 -->
      <g transform="translate(232.97875 322.182437) scale(0.1 -0.1)">
       <use xlink:href="#DejaVuSans-30"/>
      </g>
     </g>
    </g>
    <g id="xtick_6">
     <g id="line2d_6">
      <g>
       <use xlink:href="#m8f4a127097" x="269.424" y="307.584" style="stroke: #000000; stroke-width: 0.8"/>
      </g>
     </g>
     <g id="text_6">
      <!-- 10 -->
      <g transform="translate(263.0615 322.182437) scale(0.1 -0.1)">
       <use xlink:href="#DejaVuSans-31"/>
       <use xlink:href="#DejaVuSans-30" x="63.623047"/>
      </g>
     </g>
    </g>
    <g id="xtick_7">
     <g id="line2d_7">
      <g>
       <use xlink:href="#m8f4a127097" x="302.688" y="307.584" style="stroke: #000000; stroke-width: 0.8"/>
      </g>
     </g>
     <g id="text_7">
      <!-- 20 -->
      <g transform="translate(296.3255 322.182437) scale(0.1 -0.1)">
       <use xlink:href="#DejaVuSans-32"/>
       <use xlink:href="#DejaVuSans-30" x="63.623047"/>
      </g>
     </g>
    </g>
    <g id="xtick_8">
     <g id="line2d_8">
      <g>
       <use xlink:href="#m8f4a127097" x="335.952" y="307.584" style="stroke: #000000; stroke-width: 0.8"/>
      </g>
     </g>
     <g id="text_8">
      <!-- 30 -->
      <g transform="translate(329.5895 322.182437) scale(0.1 -0.1)">
       <use xlink:href="#DejaVuSans-33"/>
       <use xlink:href="#DejaVuSans-30" x="63.623047"/>
      </g>
     </g>
    </g>
    <g id="xtick_9">
     <g id="line2d_9">
      <g>
       <use xlink:href="#m8f4a127097" x="369.216" y="307.584" style="stroke: #000000; stroke-width: 0.8"/>
      </g>
     </g>
     <g id="text_9">
      <!-- 40 -->
      <g transform="translate(362.8535 322.182437) scale(0.1 -0.1)">
       <use xlink:href="#DejaVuSans-34"/>
       <use xlink:href="#DejaVuSans-30" x="63.623047"/>
      </g>
     </g>
    </g>
   </g>
   <g id="matplotlib.axis_2">
    <g id="ytick_1">
     <g id="line2d_10">
      <defs>
       <path id="mb9f97b8ca2" d="M 0 0 
L -3.5 0 
" style="stroke: #000000; stroke-width: 0.8"/>
      </defs>
      <g>
       <use xlink:href="#mb9f97b8ca2" x="103.104" y="307.584" style="stroke: #000000; stroke-width: 0.8"/>
      </g>
     </g>
     <g id="text_10">
      <!-- −40 -->
      <g transform="translate(74.999313 311.383219) scale(0.1 -0.1)">
       <use xlink:href="#DejaVuSans-2212"/>
       <use xlink:href="#DejaVuSans-34" x="83.789062"/>
       <use xlink:href="#DejaVuSans-30" x="147.412109"/>
      </g>
     </g>
    </g>
    <g id="ytick_2">
     <g id="line2d_11">
      <g>
       <use xlink:href="#mb9f97b8ca2" x="103.104" y="274.32" style="stroke: #000000; stroke-width: 0.8"/>
      </g>
     </g>
     <g id="text_11">
      <!-- −30 -->
      <g transform="translate(74.999313 278.119219) scale(0.1 -0.1)">
       <use xlink:href="#DejaVuSans-2212"/>
       <use xlink:href="#DejaVuSans-33" x="83.789062"/>
       <use xlink:href="#DejaVuSans-30" x="147.412109"/>
      </g>
     </g>
    </g>
    <g id="ytick_3">
     <g id="line2d_12">
      <g>
       <use xlink:href="#mb9f97b8ca2" x="103.104" y="241.056" style="stroke: #000000; stroke-width: 0.8"/>
      </g>
     </g>
     <g id="text_12">
      <!-- −20 -->
      <g transform="translate(74.999313 244.855219) scale(0.1 -0.1)">
       <use xlink:href="#DejaVuSans-2212"/>
       <use xlink:href="#DejaVuSans-32" x="83.789062"/>
       <use xlink:href="#DejaVuSans-30" x="147.412109"/>
      </g>
     </g>
    </g>
    <g id="ytick_4">
     <g id="line2d_13">
      <g>
       <use xlink:href="#mb9f97b8ca2" x="103.104" y="207.792" style="stroke: #000000; stroke-width: 0.8"/>
      </g>
     </g>
     <g id="text_13">
      <!-- −10 -->
      <g transform="translate(74.999313 211.591219) scale(0.1 -0.1)">
       <use xlink:href="#DejaVuSans-2212"/>
       <use xlink:href="#DejaVuSans-31" x="83.789062"/>
       <use xlink:href="#DejaVuSans-30" x="147.412109"/>
      </g>
     </g>
    </g>
    <g id="ytick_5">
     <g id="line2d_14">
      <g>
       <use xlink:href="#mb9f97b8ca2" x="103.104" y="174.528" style="stroke: #000000; stroke-width: 0.8"/>
      </g>
     </g>
     <g id="text_14">
      <!-- 0 -->
      <g transform="translate(89.7415 178.327219) scale(0.1 -0.1)">
       <use xlink:href="#DejaVuSans-30"/>
      </g>
     </g>
    </g>
    <g id="ytick_6">
     <g id="line2d_15">
      <g>
       <use xlink:href="#mb9f97b8ca2" x="103.104" y="141.264" style="stroke: #000000; stroke-width: 0.8"/>
      </g>
     </g>
     <g id="text_15">
      <!-- 10 -->
      <g transform="translate(83.379 145.063219) scale(0.1 -0.1)">
       <use xlink:href="#DejaVuSans-31"/>
       <use xlink:href="#DejaVuSans-30" x="63.623047"/>
      </g>
     </g>
    </g>
    <g id="ytick_7">
     <g id="line2d_16">
      <g>
       <use xlink:href="#mb9f97b8ca2" x="103.104" y="108" style="stroke: #000000; stroke-width: 0.8"/>
      </g>
     </g>
     <g id="text_16">
      <!-- 20 -->
      <g transform="translate(83.379 111.799219) scale(0.1 -0.1)">
       <use xlink:href="#DejaVuSans-32"/>
       <use xlink:href="#DejaVuSans-30" x="63.623047"/>
      </g>
     </g>
    </g>
    <g id="ytick_8">
     <g id="line2d_17">
      <g>
       <use xlink:href="#mb9f97b8ca2" x="103.104" y="74.736" style="stroke: #000000; stroke-width: 0.8"/>
      </g>
     </g>
     <g id="text_17">
      <!-- 30 -->
      <g transform="translate(83.379 78.535219) scale(0.1 -0.1)">
       <use xlink:href="#DejaVuSans-33"/>
       <use xlink:href="#DejaVuSans-30" x="63.623047"/>
      </g>
     </g>
    </g>
    <g id="ytick_9">
     <g id="line2d_18">
      <g>
       <use xlink:href="#mb9f97b8ca2" x="103.104" y="41.472" style="stroke: #000000; stroke-width: 0.8"/>
      </g>
     </g>
     <g id="text_18">
      <!-- 40 -->
      <g transform="translate(83.379 45.271219) scale(0.1 -0.1)">
       <use xlink:href="#DejaVuSans-34"/>
       <use xlink:href="#DejaVuSans-30" x="63.623047"/>
      </g>
     </g>
    </g>
   </g>
   <g id="line2d_19">
    <path d="M 251.1288 346.6 
L 251.1288 189.4968 
" clip-path="url(#p7ba9d12922)" style="fill: none; stroke: #000000; stroke-width: 0.25; stroke-linecap: square"/>
   </g>
   <g id="line2d_20">
    <path d="M 251.1288 189.4968 
L 417.4488 189.4968 
" clip-path="url(#p7ba9d12922)" style="fill: none; stroke: #000000; stroke-width: 0.25; stroke-linecap: square"/>
   </g>
   <g id="line2d_21">
    <path d="M 417.4488 159.5592 
L 251.1288 159.5592 
" clip-path="url(#p7ba9d12922)" style="fill: none; stroke: #000000; stroke-width: 0.25; stroke-linecap: square"/>
   </g>
   <g id="line2d_22">
    <path d="M 251.1288 159.5592 
L 251.1288 -1 
" clip-path="url(#p7ba9d12922)" style="fill: none; stroke: #000000; stroke-width: 0.25; stroke-linecap: square"/>
   </g>
   <g id="line2d_23">
    <path d="M 221.1912 -1 
L 221.1912 159.5592 
" clip-path="url(#p7ba9d12922)" style="fill: none; stroke: #000000; stroke-width: 0.25; stroke-linecap: square"/>
   </g>
   <g id="line2d_24">
    <path d="M 221.1912 159.5592 
L 54.8712 159.5592 
" clip-path="url(#p7ba9d12922)" style="fill: none; stroke: #000000; stroke-width: 0.25; stroke-linecap: square"/>
   </g>
   <g id="line2d_25">
    <path d="M 54.8712 189.4968 
L 221.1912 189.4968 
" clip-path="url(#p7ba9d12922)" style="fill: none; stroke: #000000; stroke-width: 0.25; stroke-linecap: square"/>
   </g>
   <g id="line2d_26">
    <path d="M 221.1912 189.4968 
L 221.1912 346.6 
" clip-path="url(#p7ba9d12922)" style="fill: none; stroke: #000000; stroke-width: 0.25; stroke-linecap: square"/>
   </g>
   <g id="line2d_27">
    <path d="M 251.1288 174.528 
L 417.4488 174.528 
" clip-path="url(#p7ba9d12922)" style="fill: none; stroke-dasharray: 0.925,0.4; stroke-dashoffset: 0; stroke: #000000; stroke-width: 0.25"/>
   </g>
   <g id="line2d_28">
    <path d="M 236.16 159.5592 
L 236.16 -1 
" clip-path="url(#p7ba9d12922)" style="fill: none; stroke-dasharray: 0.925,0.4; stroke-dashoffset: 0; stroke: #000000; stroke-width: 0.25"/>
   </g>
   <g id="line2d_29">
    <path d="M 221.1912 174.528 
L 54.8712 174.528 
" clip-path="url(#p7ba9d12922)" style="fill: none; stroke-dasharray: 0.925,0.4; stroke-dashoffset: 0; stroke: #000000; stroke-width: 0.25"/>
   </g>
   <g id="line2d_30">
    <path d="M 236.16 189.4968 
L 236.16 346.6 
" clip-path="url(#p7ba9d12922)" style="fill: none; stroke-dasharray: 0.925,0.4; stroke-dashoffset: 0; stroke: #000000; stroke-width: 0.25"/>
   </g>
   <g id="line2d_31">
    <path d="M 242.848676 163.975457 
L 242.354119 162.031036 
L 242.055958 160.051175 
L 241.975398 158.055088 
L 241.905157 156.063159 
L 241.900536 154.074362 
L 241.925161 152.089804 
L 241.967869 150.109374 
L 242.020121 148.132731 
L 242.075606 146.159478 
L 242.129893 144.189243 
L 242.180084 142.22171 
L 242.224491 140.256615 
L 242.262348 138.293738 
L 242.29355 136.332885 
L 242.318439 134.373878 
L 242.337631 132.41655 
L 242.35188 130.460739 
L 242.361987 128.506286 
L 242.368729 126.55304 
L 242.372819 124.600852 
L 242.374887 122.649583 
L 242.375463 120.699097 
L 242.374982 118.749272 
L 242.37379 116.799988 
L 242.37215 114.851138 
L 242.370258 112.902622 
L 242.368252 110.954347 
L 242.366227 109.006229 
L 242.364133 107.058191 
L 242.361798 105.110172 
" clip-path="url(#p7ba9d12922)" style="fill: none; stroke: #ff0000; stroke-opacity: 0.2; stroke-width: 0.25; stroke-linecap: square"/>
   </g>
   <g id="line2d_32">
    <path d="M 242.848676 163.975457 
L 242.354585 162.030917 
L 242.056284 160.051072 
L 241.975462 158.054987 
L 241.905171 156.063048 
L 241.900467 154.074238 
L 241.924982 152.089665 
L 241.967559 150.10922 
L 242.019665 148.132562 
L 242.074996 146.159295 
L 242.129126 144.189049 
L 242.17916 142.221508 
L 242.223416 140.256412 
L 242.261129 138.293539 
L 242.292199 136.332696 
L 242.31697 134.373707 
L 242.336059 132.416405 
L 242.350222 130.460628 
L 242.360261 128.50622 
L 242.366952 126.553027 
L 242.371012 124.600903 
L 242.373067 122.649709 
L 242.373649 120.699311 
L 242.373192 118.749584 
L 242.372041 116.800412 
L 242.370457 114.851687 
L 242.368634 112.903309 
L 242.366709 110.955186 
L 242.364771 109.007234 
L 242.362787 107.059377 
L 242.360624 105.11155 
" clip-path="url(#p7ba9d12922)" style="fill: none; stroke: #ff0000; stroke-opacity: 0.4; stroke-width: 0.25; stroke-linecap: square"/>
   </g>
   <g id="line2d_33">
    <path d="M 242.848676 163.975457 
L 242.354941 162.030827 
L 242.056409 160.051009 
L 241.975249 158.054923 
L 241.90492 156.062967 
L 241.900183 154.074137 
L 241.92466 152.08954 
L 241.967197 150.10907 
L 242.019266 148.132385 
L 242.074566 146.159092 
L 242.128671 144.18882 
L 242.17869 142.221256 
L 242.222942 140.256137 
L 242.260663 138.293245 
L 242.291753 136.332386 
L 242.316557 134.373385 
L 242.335691 132.416075 
L 242.349911 130.460295 
L 242.360018 128.505889 
L 242.366787 126.552705 
L 242.370933 124.600596 
L 242.373083 122.649423 
L 242.373767 120.699054 
L 242.373418 118.749365 
L 242.372379 116.800239 
L 242.370911 114.851569 
L 242.369206 112.903255 
L 242.367398 110.955206 
L 242.365575 109.007339 
L 242.363718 107.059575 
L 242.361725 105.111852 
" clip-path="url(#p7ba9d12922)" style="fill: none; stroke: #ff0000; stroke-opacity: 0.6; stroke-width: 0.25; stroke-linecap: square"/>
   </g>
   <g id="line2d_34">
    <path d="M 242.848676 163.975457 
L 242.355288 162.030739 
L 242.056552 160.050945 
L 241.975096 158.05486 
L 241.904743 156.06289 
L 241.899994 154.074044 
L 241.924453 152.08943 
L 241.966968 150.10894 
L 242.019015 148.132236 
L 242.074293 146.158922 
L 242.128379 144.188631 
L 242.178384 142.221047 
L 242.222624 140.255911 
L 242.260338 138.293003 
L 242.291426 136.33213 
L 242.316231 134.373118 
L 242.335369 132.4158 
L 242.349595 130.460015 
L 242.359709 128.505608 
L 242.366486 126.552427 
L 242.370639 124.600326 
L 242.372794 122.649166 
L 242.37348 120.698815 
L 242.373131 118.749149 
L 242.372087 116.800053 
L 242.37061 114.851419 
L 242.368891 112.903148 
L 242.367063 110.955149 
L 242.365213 109.007338 
L 242.363333 107.059639 
L 242.361351 105.111986 
" clip-path="url(#p7ba9d12922)" style="fill: none; stroke: #ff0000; stroke-opacity: 0.8; stroke-width: 0.25; stroke-linecap: square"/>
   </g>
   <g id="line2d_35">
    <path d="M 242.848676 163.975457 
L 242.355657 162.030645 
L 242.056783 160.050869 
L 241.975107 158.054787 
L 241.904783 156.06281 
L 241.900058 154.073955 
L 241.924533 152.089332 
L 241.967058 150.108831 
L 242.019112 148.132117 
L 242.074396 146.158792 
L 242.128489 144.18849 
L 242.178501 142.220897 
L 242.22275 140.255752 
L 242.260476 138.292835 
L 242.291576 136.331956 
L 242.316396 134.372938 
L 242.335551 132.415617 
L 242.349794 130.459831 
L 242.359924 128.505426 
L 242.366716 126.552249 
L 242.370883 124.600156 
L 242.37305 122.649007 
L 242.373745 120.698671 
L 242.373401 118.749024 
L 242.372359 116.799951 
L 242.37088 114.851345 
L 242.369153 112.903106 
L 242.367313 110.955145 
L 242.365445 109.007376 
L 242.363551 107.059725 
L 242.361581 105.112124 
" clip-path="url(#p7ba9d12922)" style="fill: none; stroke: #ff0000; stroke-width: 0.25; stroke-linecap: square"/>
   </g>
   <g id="line2d_36">
    <path d="M 226.059945 166.758941 
L 224.106255 167.167364 
L 222.140659 167.506244 
L 220.166147 167.778689 
L 218.185695 167.991181 
L 216.201769 168.151636 
L 214.216206 168.26838 
L 212.230271 168.349439 
L 210.244762 168.402157 
L 208.260144 168.433004 
L 206.276651 168.447517 
L 204.294373 168.450311 
L 202.313316 168.44513 
L 200.333436 168.434932 
L 198.354668 168.421982 
L 196.37694 168.407954 
L 194.400173 168.39403 
L 192.424293 168.380995 
L 190.449223 168.369321 
L 188.47489 168.359245 
L 186.501222 168.35083 
L 184.528144 168.344018 
L 182.555585 168.338673 
L 180.583475 168.33461 
L 178.611742 168.331622 
L 176.64032 168.329491 
L 174.669142 168.328008 
L 172.698145 168.326974 
L 170.72727 168.326217 
L 168.756461 168.325648 
L 166.78567 168.325416 
" clip-path="url(#p7ba9d12922)" style="fill: none; stroke: #ff0000; stroke-opacity: 0.2; stroke-width: 0.25; stroke-linecap: square"/>
   </g>
   <g id="line2d_37">
    <path d="M 226.059945 166.758941 
L 224.106052 167.166395 
L 222.140411 167.505049 
L 220.165864 167.777337 
L 218.185384 167.989738 
L 216.201433 168.150164 
L 214.215847 168.26693 
L 212.229887 168.348054 
L 210.244353 168.400868 
L 208.259708 168.431835 
L 206.27619 168.446482 
L 204.293888 168.449415 
L 202.312809 168.444371 
L 200.332911 168.434303 
L 198.354131 168.421471 
L 196.376395 168.407545 
L 194.399629 168.393706 
L 192.423756 168.380736 
L 190.448704 168.369109 
L 188.474397 168.359062 
L 186.500765 168.35066 
L 184.527734 168.343847 
L 182.555234 168.338491 
L 180.583193 168.33441 
L 178.611542 168.331401 
L 176.640214 168.329253 
L 174.669143 168.327759 
L 172.698265 168.326727 
L 170.727522 168.325989 
L 168.756857 168.325443 
L 166.78622 168.325163 
" clip-path="url(#p7ba9d12922)" style="fill: none; stroke: #ff0000; stroke-opacity: 0.4; stroke-width: 0.25; stroke-linecap: square"/>
   </g>
   <g id="line2d_38">
    <path d="M 226.059945 166.758941 
L 224.105872 167.165532 
L 222.1402 167.504036 
L 220.165633 167.776241 
L 218.18514 167.988624 
L 216.201177 168.149087 
L 214.215578 168.265935 
L 212.229605 168.347175 
L 210.244055 168.40013 
L 208.259394 168.43125 
L 206.275857 168.446056 
L 204.293538 168.449145 
L 202.312442 168.444248 
L 200.332529 168.434313 
L 198.353737 168.421596 
L 196.375993 168.407766 
L 194.399222 168.394001 
L 192.42335 168.381085 
L 190.448303 168.369491 
L 188.474008 168.359458 
L 186.500393 168.351055 
L 184.527387 168.344227 
L 182.554918 168.338846 
L 180.582915 168.334733 
L 178.611311 168.331689 
L 176.640036 168.329508 
L 174.669026 168.327988 
L 172.698218 168.32694 
L 170.727552 168.326198 
L 168.756972 168.325652 
L 166.786427 168.325319 
" clip-path="url(#p7ba9d12922)" style="fill: none; stroke: #ff0000; stroke-opacity: 0.6; stroke-width: 0.25; stroke-linecap: square"/>
   </g>
   <g id="line2d_39">
    <path d="M 226.059945 166.758941 
L 224.105708 167.16474 
L 222.140013 167.503128 
L 220.165434 167.775281 
L 218.184934 167.987668 
L 216.200967 168.148182 
L 214.215364 168.265117 
L 212.229385 168.346469 
L 210.243828 168.399551 
L 208.259158 168.430805 
L 206.275612 168.445743 
L 204.293283 168.448956 
L 202.312178 168.44417 
L 200.332257 168.434329 
L 198.353459 168.421688 
L 196.375711 168.407914 
L 194.398939 168.394185 
L 192.423069 168.381286 
L 190.448027 168.369692 
L 188.47374 168.359645 
L 186.500138 168.351213 
L 184.527148 168.344349 
L 182.5547 168.338925 
L 180.582723 168.334766 
L 178.611149 168.331678 
L 176.639909 168.329456 
L 174.66894 168.327903 
L 172.698177 168.326832 
L 170.727561 168.326081 
L 168.757036 168.325528 
L 166.786551 168.32515 
" clip-path="url(#p7ba9d12922)" style="fill: none; stroke: #ff0000; stroke-opacity: 0.8; stroke-width: 0.25; stroke-linecap: square"/>
   </g>
   <g id="line2d_40">
    <path d="M 226.059945 166.758941 
L 224.105557 167.164013 
L 222.139846 167.502316 
L 220.165261 167.774442 
L 218.18476 167.986852 
L 216.200793 168.14743 
L 214.215191 168.264459 
L 212.229211 168.345924 
L 210.243652 168.399128 
L 208.258979 168.430507 
L 206.275429 168.445563 
L 204.293095 168.448885 
L 202.311986 168.444194 
L 200.332062 168.434431 
L 198.353261 168.42185 
L 196.375512 168.408119 
L 194.398741 168.394415 
L 192.422873 168.381525 
L 190.447836 168.369927 
L 188.473557 168.359863 
L 186.499964 168.351408 
L 184.526986 168.344514 
L 182.554552 168.339058 
L 180.582593 168.334869 
L 178.611039 168.331752 
L 176.639824 168.329508 
L 174.668881 168.327942 
L 172.698148 168.326868 
L 170.727566 168.326124 
L 168.757077 168.325583 
L 166.786632 168.325189 
" clip-path="url(#p7ba9d12922)" style="fill: none; stroke: #ff0000; stroke-width: 0.25; stroke-linecap: square"/>
   </g>
   <g id="line2d_41">
    <path d="M 243.262343 180.406751 
L 245.283082 180.62747 
L 247.312826 180.622799 
L 249.332432 180.459409 
L 251.353821 180.404441 
L 253.371391 180.425121 
L 255.383305 180.492875 
L 257.390473 180.567555 
L 259.393939 180.627823 
L 261.393896 180.674457 
L 263.390525 180.708971 
L 265.384023 180.733166 
L 267.374598 180.748943 
L 269.362474 180.758133 
L 271.347879 180.762371 
L 273.331039 180.763086 
L 275.312178 180.761448 
L 277.29151 180.75838 
L 279.269239 180.754575 
L 281.245556 180.750532 
L 283.22064 180.746587 
L 285.194658 180.742953 
L 287.167767 180.739745 
L 289.140111 180.737006 
L 291.111824 180.734725 
L 293.083029 180.732862 
L 295.053839 180.731356 
L 297.024358 180.730133 
L 298.994681 180.729116 
L 300.964891 180.728233 
L 302.935063 180.72748 
" clip-path="url(#p7ba9d12922)" style="fill: none; stroke: #ff0000; stroke-opacity: 0.2; stroke-width: 0.25; stroke-linecap: square"/>
   </g>
   <g id="line2d_42">
    <path d="M 243.262343 180.406751 
L 245.283108 180.627232 
L 247.312853 180.622008 
L 249.332441 180.458362 
L 251.353832 180.403257 
L 253.37141 180.423797 
L 255.383336 180.491438 
L 257.390516 180.566036 
L 259.393994 180.626233 
L 261.393962 180.67281 
L 263.390602 180.707282 
L 265.384108 180.731454 
L 267.374692 180.747225 
L 269.362575 180.756426 
L 271.347985 180.760689 
L 273.331148 180.761441 
L 275.312289 180.759849 
L 277.291619 180.756834 
L 279.269344 180.753087 
L 281.245653 180.749105 
L 283.220726 180.745225 
L 285.19473 180.741657 
L 287.16782 180.738515 
L 289.140141 180.735844 
L 291.111826 180.733631 
L 293.082998 180.731838 
L 295.05377 180.730402 
L 297.024246 180.729249 
L 298.99452 180.728304 
L 300.964676 180.727491 
L 302.93479 180.726799 
" clip-path="url(#p7ba9d12922)" style="fill: none; stroke: #ff0000; stroke-opacity: 0.4; stroke-width: 0.25; stroke-linecap: square"/>
   </g>
   <g id="line2d_43">
    <path d="M 243.262343 180.406751 
L 245.283025 180.627994 
L 247.312773 180.622127 
L 249.33236 180.458351 
L 251.353763 180.403229 
L 253.371357 180.423747 
L 255.383301 180.491387 
L 257.390499 180.56601 
L 259.393995 180.626236 
L 261.393981 180.672846 
L 263.39064 180.707357 
L 265.384165 180.731576 
L 267.374766 180.747403 
L 269.362666 180.756665 
L 271.348091 180.760994 
L 273.331269 180.761815 
L 275.312421 180.76029 
L 277.291763 180.757341 
L 279.269495 180.753655 
L 281.24581 180.749729 
L 283.220885 180.745898 
L 285.194888 180.742373 
L 287.167974 180.739269 
L 289.140287 180.736628 
L 291.11196 180.73444 
L 293.083116 180.732666 
L 295.053868 180.731245 
L 297.024319 180.730102 
L 298.994563 180.729163 
L 300.964686 180.728353 
L 302.934761 180.727655 
" clip-path="url(#p7ba9d12922)" style="fill: none; stroke: #ff0000; stroke-opacity: 0.6; stroke-width: 0.25; stroke-linecap: square"/>
   </g>
   <g id="line2d_44">
    <path d="M 243.262343 180.406751 
L 245.282961 180.62858 
L 247.312713 180.62299 
L 249.33231 180.459229 
L 251.353728 180.404213 
L 253.371334 180.424805 
L 255.383291 180.492513 
L 257.390502 180.567205 
L 259.394013 180.627479 
L 261.394015 180.67412 
L 263.390689 180.70865 
L 265.38423 180.732876 
L 267.374846 180.748703 
L 269.36276 180.757955 
L 271.348198 180.762266 
L 273.331387 180.763059 
L 275.31255 180.761496 
L 277.2919 180.758495 
L 279.269638 180.754746 
L 281.245956 180.750746 
L 283.221033 180.746829 
L 285.195034 180.743206 
L 287.168116 180.739994 
L 289.140421 180.737236 
L 291.112083 180.734923 
L 293.083225 180.733016 
L 295.053958 180.731457 
L 297.024387 180.730171 
L 298.994606 180.729085 
L 300.9647 180.728123 
L 302.934742 180.727265 
" clip-path="url(#p7ba9d12922)" style="fill: none; stroke: #ff0000; stroke-opacity: 0.8; stroke-width: 0.25; stroke-linecap: square"/>
   </g>
   <g id="line2d_45">
    <path d="M 243.262343 180.406751 
L 245.283004 180.628189 
L 247.312761 180.623502 
L 249.332362 180.459737 
L 251.353788 180.404802 
L 253.371402 180.425441 
L 255.383366 180.493185 
L 257.390585 180.56791 
L 259.394105 180.628197 
L 261.394116 180.674836 
L 263.390799 180.709352 
L 265.384348 180.733558 
L 267.374973 180.749358 
L 269.362894 180.758581 
L 271.348338 180.76286 
L 273.331533 180.763616 
L 275.312699 180.762012 
L 277.292051 180.758967 
L 279.269789 180.755168 
L 281.246106 180.751114 
L 283.221178 180.74714 
L 285.195174 180.743457 
L 287.168247 180.740182 
L 289.14054 180.737361 
L 291.112188 180.734984 
L 293.083313 180.733013 
L 295.054026 180.731391 
L 297.024432 180.730043 
L 298.994624 180.728896 
L 300.964688 180.727874 
L 302.934697 180.726951 
" clip-path="url(#p7ba9d12922)" style="fill: none; stroke: #ff0000; stroke-width: 0.25; stroke-linecap: square"/>
   </g>
   <g id="line2d_46">
    <path d="M 231.041977 196.052494 
L 231.050816 197.806657 
L 230.968805 199.561398 
L 230.8769 201.318199 
L 230.77659 203.077146 
L 230.67202 204.838488 
L 230.568121 206.602523 
L 230.469023 208.369481 
L 230.377681 210.139474 
L 230.2959 211.912508 
L 230.224521 213.688499 
L 230.163641 215.467315 
L 230.112825 217.248789 
L 230.071297 219.032744 
L 230.038081 220.819003 
L 230.012115 222.607391 
L 229.992333 224.39774 
L 229.977715 226.189889 
L 229.967322 227.983678 
L 229.960314 229.778956 
L 229.955959 231.575572 
L 229.953633 233.373377 
L 229.952818 235.172228 
L 229.953087 236.971981 
L 229.954103 238.772498 
L 229.955607 240.573643 
L 229.957405 242.375286 
L 229.95936 244.177302 
L 229.961396 245.979574 
L 229.963506 247.781993 
L 229.965857 249.584463 
" clip-path="url(#p7ba9d12922)" style="fill: none; stroke: #ff0000; stroke-opacity: 0.2; stroke-width: 0.25; stroke-linecap: square"/>
   </g>
   <g id="line2d_47">
    <path d="M 231.041977 196.052494 
L 231.050732 197.806658 
L 230.968082 199.561348 
L 230.875847 201.318094 
L 230.775184 203.076969 
L 230.670251 204.838224 
L 230.565985 206.602164 
L 230.466524 208.369019 
L 230.374827 210.138908 
L 230.292703 211.911838 
L 230.220996 213.687729 
L 230.1598 215.466449 
L 230.108685 217.247835 
L 230.06687 219.031713 
L 230.033379 220.817906 
L 230.007151 222.606243 
L 229.987118 224.396557 
L 229.972257 226.188687 
L 229.961631 227.982479 
L 229.954397 229.777781 
L 229.949826 231.574443 
L 229.947292 233.37232 
L 229.946279 235.171268 
L 229.946362 236.971147 
L 229.947203 238.771817 
L 229.948544 240.573144 
L 229.950191 242.374999 
L 229.952003 244.177257 
L 229.953897 245.9798 
L 229.955838 247.782517 
L 229.957902 249.585309 
" clip-path="url(#p7ba9d12922)" style="fill: none; stroke: #ff0000; stroke-opacity: 0.4; stroke-width: 0.25; stroke-linecap: square"/>
   </g>
   <g id="line2d_48">
    <path d="M 231.041977 196.052494 
L 231.050682 197.806658 
L 230.967667 199.561322 
L 230.875371 201.318047 
L 230.77465 203.076894 
L 230.669669 204.838116 
L 230.565371 206.602018 
L 230.465897 208.368834 
L 230.374206 210.138682 
L 230.292107 211.911569 
L 230.220439 213.687419 
L 230.159299 215.466099 
L 230.108249 217.247447 
L 230.066508 219.03129 
L 230.033096 220.817452 
L 230.006949 222.605762 
L 229.986996 224.396055 
L 229.972214 226.188172 
L 229.961662 227.981958 
L 229.954498 229.777263 
L 229.949991 231.573938 
L 229.947518 233.371839 
L 229.946562 235.170823 
L 229.946699 236.970749 
L 229.947594 238.771479 
L 229.948988 240.57288 
L 229.950688 242.374822 
L 229.952555 244.17718 
L 229.954497 245.979837 
L 229.956469 247.782682 
L 229.958496 249.585611 
" clip-path="url(#p7ba9d12922)" style="fill: none; stroke: #ff0000; stroke-opacity: 0.6; stroke-width: 0.25; stroke-linecap: square"/>
   </g>
   <g id="line2d_49">
    <path d="M 231.041977 196.052494 
L 231.050926 197.806657 
L 230.967679 199.561308 
L 230.875233 201.318022 
L 230.774342 203.076855 
L 230.669176 204.83806 
L 230.564681 206.601944 
L 230.465001 208.368741 
L 230.373097 210.13857 
L 230.290783 211.91144 
L 230.218902 213.687272 
L 230.157549 215.465937 
L 230.106292 217.247271 
L 230.06435 219.031101 
L 230.030746 220.817252 
L 230.004416 222.605553 
L 229.984293 224.39584 
L 229.969353 226.187952 
L 229.958656 227.981735 
L 229.951364 229.777038 
L 229.946746 231.573715 
L 229.944179 233.371619 
L 229.943146 235.170608 
L 229.943225 236.970542 
L 229.944081 238.771282 
L 229.945456 240.572696 
L 229.947153 242.374653 
L 229.949032 244.177029 
L 229.951001 245.979707 
L 229.953006 247.782574 
L 229.955057 249.585529 
" clip-path="url(#p7ba9d12922)" style="fill: none; stroke: #ff0000; stroke-opacity: 0.8; stroke-width: 0.25; stroke-linecap: square"/>
   </g>
   <g id="line2d_50">
    <path d="M 231.041977 196.052494 
L 231.049102 197.806665 
L 230.965455 199.561296 
L 230.872736 201.317992 
L 230.771613 203.076807 
L 230.666257 204.837996 
L 230.561618 206.601865 
L 230.461838 208.36865 
L 230.369879 210.13847 
L 230.287552 211.911332 
L 230.215698 213.687159 
L 230.154412 215.465819 
L 230.103256 217.24715 
L 230.061448 219.030978 
L 230.02801 220.817128 
L 230.001873 222.605428 
L 229.981968 224.395714 
L 229.96727 226.187826 
L 229.956836 227.98161 
L 229.949827 229.776915 
L 229.945508 231.573595 
L 229.943257 233.371503 
L 229.942555 235.170498 
L 229.942979 236.970439 
L 229.944191 238.771189 
L 229.945932 240.572613 
L 229.948006 242.374583 
L 229.950269 244.176975 
L 229.952628 245.979669 
L 229.955025 247.782556 
L 229.957456 249.585531 
" clip-path="url(#p7ba9d12922)" style="fill: none; stroke: #ff0000; stroke-width: 0.25; stroke-linecap: square"/>
   </g>
   <g id="line2d_51">
    <path d="M 242.20257 197.116457 
L 241.860698 195.168989 
L 241.513013 193.218812 
L 241.16234 191.264948 
L 241.129055 189.275489 
L 241.5758 187.331438 
L 242.234541 185.443294 
L 243.098077 183.634229 
L 244.156961 181.926826 
L 245.272249 180.250745 
L 245.977017 178.360953 
L 246.130389 176.346747 
L 246.058551 174.325588 
L 245.764072 172.322944 
L 245.249876 170.363896 
L 244.576287 168.45293 
L 243.9755 166.517402 
L 243.439358 164.562899 
L 242.982453 162.588609 
L 242.649377 160.590222 
L 242.441292 158.575688 
L 242.311534 156.555333 
L 242.229438 154.533169 
L 242.184313 152.510474 
L 242.167024 150.487912 
L 242.16996 148.465766 
L 242.186922 146.444096 
L 242.212983 144.422845 
L 242.244313 142.401908 
L 242.277999 140.381164 
L 242.312733 138.360511 
" clip-path="url(#p7ba9d12922)" style="fill: none; stroke: #ff0000; stroke-opacity: 0.2; stroke-width: 0.25; stroke-linecap: square"/>
   </g>
   <g id="line2d_52">
    <path d="M 242.20257 197.116457 
L 241.856176 195.169788 
L 241.510872 193.218987 
L 241.162447 191.264321 
L 241.130205 189.274258 
L 241.577663 187.329575 
L 242.237234 185.440702 
L 243.101613 183.630773 
L 244.161343 181.92234 
L 245.273116 180.242134 
L 245.97112 178.348066 
L 246.121417 176.33181 
L 246.045784 174.308837 
L 245.746577 172.304806 
L 245.228207 170.344628 
L 244.537019 168.437598 
L 243.920402 166.504693 
L 243.368829 164.552149 
L 242.897715 162.578911 
L 242.552651 160.580355 
L 242.340057 158.564202 
L 242.216954 156.541469 
L 242.143711 154.517114 
L 242.108848 152.492457 
L 242.102619 150.46815 
L 242.116955 148.444438 
L 242.145341 146.421333 
L 242.182657 144.398738 
L 242.224993 142.376509 
L 242.269446 140.3545 
L 242.314127 138.33258 
" clip-path="url(#p7ba9d12922)" style="fill: none; stroke: #ff0000; stroke-opacity: 0.4; stroke-width: 0.25; stroke-linecap: square"/>
   </g>
   <g id="line2d_53">
    <path d="M 242.20257 197.116457 
L 241.851011 195.170714 
L 241.5068 193.219694 
L 241.159657 191.264745 
L 241.128309 189.274582 
L 241.576205 187.329877 
L 242.236417 185.441061 
L 243.101575 183.631284 
L 244.162238 181.923147 
L 245.274677 180.243042 
L 245.971537 178.3482 
L 246.122057 176.331583 
L 246.046491 174.308188 
L 245.746987 172.303737 
L 245.228541 170.343072 
L 244.531079 168.43778 
L 243.909882 166.505791 
L 243.354306 164.553834 
L 242.880064 162.580814 
L 242.534308 160.581876 
L 242.323895 158.56502 
L 242.206423 156.541501 
L 242.13831 154.516532 
L 242.107748 152.491388 
L 242.104826 150.466669 
L 242.121439 148.442581 
L 242.151134 146.419111 
L 242.188932 144.396147 
L 242.231118 142.373544 
L 242.275022 140.351154 
L 242.318827 138.328848 
" clip-path="url(#p7ba9d12922)" style="fill: none; stroke: #ff0000; stroke-opacity: 0.6; stroke-width: 0.25; stroke-linecap: square"/>
   </g>
   <g id="line2d_54">
    <path d="M 242.20257 197.116457 
L 241.845891 195.171646 
L 241.503026 193.220312 
L 241.157215 191.264975 
L 241.126337 189.274579 
L 241.574764 187.329688 
L 242.234395 185.440269 
L 243.09962 183.630021 
L 244.161544 181.922041 
L 245.272455 180.240191 
L 245.965279 178.343133 
L 246.113095 176.325541 
L 246.037416 174.301299 
L 245.737253 172.296015 
L 245.213947 170.335628 
L 244.506437 168.432954 
L 243.876733 166.502619 
L 243.31333 164.551809 
L 242.832479 162.579314 
L 242.483326 160.579936 
L 242.274255 158.561963 
L 242.164065 156.537114 
L 242.10327 154.511039 
L 242.079634 152.484969 
L 242.08301 150.459454 
L 242.105191 148.434649 
L 242.139734 146.41051 
L 242.181746 144.3869 
L 242.227656 142.363662 
L 242.274968 140.340641 
L 242.32201 138.317704 
" clip-path="url(#p7ba9d12922)" style="fill: none; stroke: #ff0000; stroke-opacity: 0.8; stroke-width: 0.25; stroke-linecap: square"/>
   </g>
   <g id="line2d_55">
    <path d="M 242.20257 197.116457 
L 241.843509 195.172084 
L 241.501243 193.220611 
L 241.156071 191.265091 
L 241.125602 189.274583 
L 241.574553 187.329666 
L 242.234305 185.440096 
L 243.099981 183.629817 
L 244.162867 181.922123 
L 245.273584 180.239778 
L 245.964853 178.341783 
L 246.112167 176.323768 
L 246.036949 174.299091 
L 245.737542 172.293246 
L 245.213989 170.332443 
L 244.502541 168.430727 
L 243.86958 166.500949 
L 243.30316 164.55051 
L 242.819726 162.578159 
L 242.469544 160.578496 
L 242.261013 158.560025 
L 242.152981 156.534637 
L 242.094121 154.508098 
L 242.072108 152.481617 
L 242.076766 150.455722 
L 242.099909 148.430557 
L 242.135139 146.406066 
L 242.177629 144.382109 
L 242.223879 142.358525 
L 242.271466 140.335161 
L 242.318774 138.31188 
" clip-path="url(#p7ba9d12922)" style="fill: none; stroke: #ff0000; stroke-width: 0.25; stroke-linecap: square"/>
   </g>
   <g id="line2d_56">
    <path d="M 256.866967 168.579423 
L 254.862845 168.92876 
L 252.832685 169.128264 
L 250.788009 169.069536 
L 248.757251 168.783314 
L 246.720504 168.504859 
L 244.662632 168.41027 
L 242.605933 168.581858 
L 240.620136 169.155681 
L 238.731818 170.00267 
L 236.949903 171.058847 
L 235.29848 172.311286 
L 233.79926 173.743631 
L 232.470858 175.336677 
L 231.331004 177.070374 
L 230.39623 178.923066 
L 229.679517 180.870511 
L 229.189264 182.886583 
L 228.931463 184.944717 
L 228.909095 187.017945 
L 229.027264 189.086822 
L 229.105624 191.156378 
L 229.202409 193.224018 
L 229.310321 195.290099 
L 229.420837 197.355169 
L 229.528417 199.419665 
L 229.630172 201.483872 
L 229.725883 203.547929 
L 229.817909 205.611856 
L 229.908861 207.675662 
L 230.000831 209.739363 
" clip-path="url(#p7ba9d12922)" style="fill: none; stroke: #ff0000; stroke-opacity: 0.2; stroke-width: 0.25; stroke-linecap: square"/>
   </g>
   <g id="line2d_57">
    <path d="M 256.866967 168.579423 
L 254.862718 168.928029 
L 252.832248 169.125515 
L 250.787388 169.065621 
L 248.75628 168.77961 
L 246.718887 168.50296 
L 244.660431 168.411155 
L 242.603578 168.586958 
L 240.619054 169.167134 
L 238.731882 170.018103 
L 236.951502 171.07807 
L 235.302152 172.334292 
L 233.805515 173.770282 
L 232.479909 175.36652 
L 231.343088 177.103008 
L 230.411965 178.958278 
L 229.699422 180.907934 
L 229.213188 182.925595 
L 228.958864 184.984706 
L 228.939095 187.058427 
L 229.06632 189.12714 
L 229.14791 191.196828 
L 229.244317 193.264613 
L 229.350696 195.330781 
L 229.458599 197.395892 
L 229.56253 199.460381 
L 229.65963 201.524534 
L 229.749603 203.588498 
L 229.834506 205.652318 
L 229.916753 207.716028 
L 229.998715 209.779659 
" clip-path="url(#p7ba9d12922)" style="fill: none; stroke: #ff0000; stroke-opacity: 0.4; stroke-width: 0.25; stroke-linecap: square"/>
   </g>
   <g id="line2d_58">
    <path d="M 256.866967 168.579423 
L 254.862669 168.927747 
L 252.832123 169.124667 
L 250.787236 169.064319 
L 248.756106 168.778049 
L 246.718645 168.501366 
L 244.660102 168.409658 
L 242.603186 168.585764 
L 240.618748 169.166571 
L 238.731583 170.017793 
L 236.95124 171.078017 
L 235.30186 172.334366 
L 233.805233 173.770509 
L 232.479889 175.367088 
L 231.343446 177.103932 
L 230.412528 178.959399 
L 229.699885 180.9091 
L 229.213425 182.926774 
L 228.9588 184.985901 
L 228.938685 187.059655 
L 229.066761 189.128333 
L 229.148336 191.19802 
L 229.244292 193.265802 
L 229.350126 195.331955 
L 229.4574 197.397038 
L 229.560619 199.461487 
L 229.656923 201.525588 
L 229.745997 203.589491 
L 229.829835 205.653243 
L 229.910811 207.716885 
L 229.99132 209.78045 
" clip-path="url(#p7ba9d12922)" style="fill: none; stroke: #ff0000; stroke-opacity: 0.6; stroke-width: 0.25; stroke-linecap: square"/>
   </g>
   <g id="line2d_59">
    <path d="M 256.866967 168.579423 
L 254.862753 168.928232 
L 252.832232 169.125591 
L 250.787286 169.066096 
L 248.755916 168.781175 
L 246.718155 168.506258 
L 244.65945 168.416635 
L 242.602672 168.595263 
L 240.619055 169.179166 
L 238.732492 170.031935 
L 236.95349 171.094579 
L 235.305583 172.353001 
L 233.810714 173.791093 
L 232.489309 175.391034 
L 231.358504 177.131635 
L 230.43205 178.989403 
L 229.721606 180.939956 
L 229.237303 182.958183 
L 228.985564 185.01768 
L 228.969519 187.091463 
L 229.100559 189.159927 
L 229.183854 191.22949 
L 229.280665 193.297149 
L 229.386928 195.363174 
L 229.494241 197.428126 
L 229.597145 199.492445 
L 229.69281 201.556414 
L 229.780934 203.620182 
L 229.863491 205.6838 
L 229.942854 207.747311 
L 230.021515 209.810748 
" clip-path="url(#p7ba9d12922)" style="fill: none; stroke: #ff0000; stroke-opacity: 0.8; stroke-width: 0.25; stroke-linecap: square"/>
   </g>
   <g id="line2d_60">
    <path d="M 256.866967 168.579423 
L 254.862391 168.926142 
L 252.831381 169.119793 
L 250.786276 169.057246 
L 248.75482 168.770385 
L 246.716713 168.494756 
L 244.657506 168.4052 
L 242.600297 168.585157 
L 240.617082 169.172458 
L 238.730592 170.026831 
L 236.951325 171.090205 
L 235.303481 172.349685 
L 233.808838 173.788837 
L 232.48592 175.38823 
L 231.352386 177.127657 
L 230.424686 178.98531 
L 229.71577 180.936836 
L 229.233607 182.955901 
L 228.983911 185.015877 
L 228.969417 187.089799 
L 229.105374 189.157954 
L 229.188588 191.227402 
L 229.282804 193.294935 
L 229.386054 195.360751 
L 229.490065 197.42541 
L 229.589465 199.489351 
L 229.681471 201.552862 
L 229.765715 203.616106 
L 229.843903 205.679157 
L 229.918236 207.742081 
L 229.991222 209.804929 
" clip-path="url(#p7ba9d12922)" style="fill: none; stroke: #ff0000; stroke-width: 0.25; stroke-linecap: square"/>
   </g>
   <g id="line2d_61">
    <path d="M 231.032303 147.023336 
L 231.092122 148.78006 
L 231.106144 150.535031 
L 231.049551 152.286457 
L 231.008169 154.035677 
L 230.837533 155.774502 
L 230.468817 157.479866 
L 229.785145 159.082662 
L 228.948108 160.608605 
L 227.970168 162.046036 
L 226.860671 163.382352 
L 225.630283 164.606185 
L 224.289688 165.706247 
L 222.851342 166.673219 
L 221.328411 167.499002 
L 219.734511 168.176409 
L 218.083943 168.699817 
L 216.391463 169.065056 
L 214.67198 169.268221 
L 212.940853 169.305805 
L 211.209879 169.255732 
L 209.479164 169.191437 
L 207.748791 169.113018 
L 206.018643 169.024705 
L 204.288517 168.931244 
L 202.558232 168.836499 
L 200.827675 168.743098 
L 199.09685 168.651701 
L 197.365875 168.560937 
L 195.63494 168.468093 
L 193.904272 168.369926 
" clip-path="url(#p7ba9d12922)" style="fill: none; stroke: #ff0000; stroke-opacity: 0.2; stroke-width: 0.25; stroke-linecap: square"/>
   </g>
   <g id="line2d_62">
    <path d="M 231.032303 147.023336 
L 231.090583 148.780112 
L 231.104248 150.535162 
L 231.047944 152.286749 
L 231.007077 154.036205 
L 230.837985 155.775475 
L 230.472327 157.481866 
L 229.792782 159.08688 
L 228.957283 160.614224 
L 227.981018 162.053461 
L 226.873109 163.391889 
L 225.643522 164.617476 
L 224.304101 165.720112 
L 222.866749 166.689959 
L 221.344254 167.518291 
L 219.750329 168.197897 
L 218.099185 168.722574 
L 216.40566 169.087611 
L 214.685091 169.290311 
L 212.952952 169.33034 
L 211.220971 169.276906 
L 209.489241 169.20913 
L 207.757854 169.127001 
L 206.026685 169.034834 
L 204.295521 168.937439 
L 202.56417 168.838733 
L 200.832513 168.741403 
L 199.100538 168.646422 
L 197.368331 168.553148 
L 195.636045 168.459697 
L 193.903863 168.363602 
" clip-path="url(#p7ba9d12922)" style="fill: none; stroke: #ff0000; stroke-opacity: 0.4; stroke-width: 0.25; stroke-linecap: square"/>
   </g>
   <g id="line2d_63">
    <path d="M 231.032303 147.023336 
L 231.090516 148.780114 
L 231.104312 150.535165 
L 231.048243 152.286764 
L 231.00763 154.036232 
L 230.838931 155.775549 
L 230.47387 157.48208 
L 229.795048 159.087415 
L 228.960053 160.615054 
L 227.984228 162.054614 
L 226.876582 163.393291 
L 225.647057 164.618978 
L 224.307613 165.721634 
L 222.870188 166.691433 
L 221.347595 167.519664 
L 219.753561 168.199119 
L 218.102314 168.723617 
L 216.408718 169.088554 
L 214.688116 169.291403 
L 212.955921 169.331387 
L 211.223894 169.277546 
L 209.492116 169.209414 
L 207.760681 169.126959 
L 206.02946 169.034503 
L 204.298239 168.936856 
L 202.566827 168.837939 
L 200.835103 168.740435 
L 199.103055 168.645351 
L 197.370764 168.552123 
L 195.63838 168.458953 
L 193.90608 168.363468 
" clip-path="url(#p7ba9d12922)" style="fill: none; stroke: #ff0000; stroke-opacity: 0.6; stroke-width: 0.25; stroke-linecap: square"/>
   </g>
   <g id="line2d_64">
    <path d="M 231.032303 147.023336 
L 231.090271 148.780122 
L 231.103996 150.535188 
L 231.047947 152.286814 
L 231.00737 154.036323 
L 230.838855 155.775711 
L 230.474202 157.482395 
L 229.795965 159.08806 
L 228.961501 160.61609 
L 227.985993 162.055983 
L 226.878676 163.395073 
L 225.650002 164.621781 
L 224.310904 165.725059 
L 222.873696 166.695423 
L 221.351439 167.524573 
L 219.75776 168.205249 
L 218.10694 168.731615 
L 216.413659 169.098797 
L 214.69309 169.303388 
L 212.96069 169.34219 
L 211.228486 169.288152 
L 209.49653 169.219803 
L 207.764915 169.137084 
L 206.033515 169.044321 
L 204.302114 168.946331 
L 202.570519 168.847041 
L 200.838612 168.749144 
L 199.106376 168.653679 
L 197.37389 168.560166 
L 195.641297 168.466918 
L 193.908771 168.371656 
" clip-path="url(#p7ba9d12922)" style="fill: none; stroke: #ff0000; stroke-opacity: 0.8; stroke-width: 0.25; stroke-linecap: square"/>
   </g>
   <g id="line2d_65">
    <path d="M 231.032303 147.023336 
L 231.090145 148.780126 
L 231.103922 150.5352 
L 231.048013 152.286848 
L 231.007584 154.036386 
L 230.83934 155.775834 
L 230.475144 157.48266 
L 229.797479 159.088621 
L 228.963096 160.616762 
L 227.987492 162.05667 
L 226.879978 163.395694 
L 225.651228 164.622442 
L 224.311823 165.725486 
L 222.874244 166.695474 
L 221.351681 167.524276 
L 219.757747 168.204631 
L 218.106765 168.730866 
L 216.41341 169.098271 
L 214.692733 169.303014 
L 212.960196 169.341481 
L 211.227886 169.286562 
L 209.495825 169.217356 
L 207.764109 169.133774 
L 206.032609 169.040148 
L 204.301108 168.941301 
L 202.569411 168.841162 
L 200.837396 168.742426 
L 199.105047 168.646164 
L 197.372439 168.551966 
L 195.639711 168.458232 
L 193.907034 168.362767 
" clip-path="url(#p7ba9d12922)" style="fill: none; stroke: #ff0000; stroke-width: 0.25; stroke-linecap: square"/>
   </g>
   <g id="line2d_66">
    <path d="M 213.765362 180.645577 
L 215.735039 180.743499 
L 217.702727 180.880748 
L 219.665894 181.077602 
L 221.621204 181.346798 
L 223.565086 181.694396 
L 225.492947 182.127358 
L 227.400249 182.648525 
L 229.283916 183.254466 
L 231.144271 183.933371 
L 233.026074 184.555872 
L 234.964468 184.97761 
L 236.946256 185.0919 
L 238.914971 184.831263 
L 240.844084 184.35859 
L 242.713952 183.688942 
L 244.614135 183.111331 
L 246.533083 182.600248 
L 248.468107 182.154899 
L 250.417292 181.777626 
L 252.378077 181.467868 
L 254.347586 181.221581 
L 256.323131 181.03218 
L 258.302532 180.89173 
L 260.284194 180.791916 
L 262.267049 180.724661 
L 264.250446 180.682455 
L 266.234026 180.658486 
L 268.217628 180.646661 
L 270.2012 180.641552 
L 272.184748 180.638551 
" clip-path="url(#p7ba9d12922)" style="fill: none; stroke: #ff0000; stroke-opacity: 0.2; stroke-width: 0.25; stroke-linecap: square"/>
   </g>
   <g id="line2d_67">
    <path d="M 213.765362 180.645577 
L 215.734954 180.745189 
L 217.702638 180.882667 
L 219.665804 181.07973 
L 221.621117 181.349137 
L 223.565 181.696967 
L 225.492852 182.130192 
L 227.400134 182.65166 
L 229.283764 183.257937 
L 231.144067 183.937208 
L 233.025819 184.560128 
L 234.96422 184.982261 
L 236.946085 185.096899 
L 238.914898 184.836235 
L 240.843901 184.362679 
L 242.713781 183.692754 
L 244.613816 183.114292 
L 246.532656 182.60239 
L 248.467607 182.156252 
L 250.416758 181.77825 
L 252.377549 181.467851 
L 254.347098 181.221038 
L 256.322711 181.031238 
L 258.302198 180.890525 
L 260.283959 180.790585 
L 262.266919 180.723339 
L 264.250423 180.681271 
L 266.234112 180.657561 
L 268.217821 180.646099 
L 270.201499 180.641437 
L 272.185153 180.638705 
" clip-path="url(#p7ba9d12922)" style="fill: none; stroke: #ff0000; stroke-opacity: 0.4; stroke-width: 0.25; stroke-linecap: square"/>
   </g>
   <g id="line2d_68">
    <path d="M 213.765362 180.645577 
L 215.73469 180.750273 
L 217.702312 180.89133 
L 219.665463 181.092107 
L 221.620789 181.365099 
L 223.564738 181.716116 
L 225.492778 182.151832 
L 227.40049 182.674797 
L 229.284956 183.281301 
L 231.146678 183.959302 
L 233.030023 184.580294 
L 234.969718 185.000685 
L 236.95249 185.114555 
L 238.921915 184.852353 
L 240.851303 184.37725 
L 242.721411 183.705964 
L 244.621098 183.12428 
L 246.539767 182.609627 
L 248.474689 182.161179 
L 250.423934 181.781338 
L 252.384911 181.469567 
L 254.354703 181.221804 
L 256.330587 181.031409 
L 258.31035 180.890375 
L 260.292377 180.790307 
L 262.275591 180.723055 
L 264.259333 180.681044 
L 266.243248 180.65741 
L 268.227173 180.646016 
L 270.211061 180.641397 
L 272.194922 180.638678 
" clip-path="url(#p7ba9d12922)" style="fill: none; stroke: #ff0000; stroke-opacity: 0.6; stroke-width: 0.25; stroke-linecap: square"/>
   </g>
   <g id="line2d_69">
    <path d="M 213.765362 180.645577 
L 215.73464 180.75122 
L 217.702234 180.89263 
L 219.665351 181.093694 
L 221.620644 181.36687 
L 223.564574 181.717927 
L 225.49263 182.153506 
L 227.400414 182.676126 
L 229.285035 183.282065 
L 231.147007 183.959287 
L 233.030567 184.579505 
L 234.970361 184.999227 
L 236.953103 185.112715 
L 238.922391 184.849929 
L 240.85163 184.37449 
L 242.721663 183.703198 
L 244.621197 183.121273 
L 246.539753 182.606504 
L 248.474577 182.158008 
L 250.423732 181.778171 
L 252.384624 181.466451 
L 254.354331 181.218783 
L 256.330129 181.028522 
L 258.309802 180.887658 
L 260.291737 180.787795 
L 262.274853 180.720781 
L 264.258494 180.679044 
L 266.242304 180.655719 
L 268.226122 180.64467 
L 270.209902 180.640428 
L 272.193655 180.638107 
" clip-path="url(#p7ba9d12922)" style="fill: none; stroke: #ff0000; stroke-opacity: 0.8; stroke-width: 0.25; stroke-linecap: square"/>
   </g>
   <g id="line2d_70">
    <path d="M 213.765362 180.645577 
L 215.734387 180.755824 
L 217.701883 180.900563 
L 219.664924 181.105006 
L 221.620155 181.381364 
L 223.564076 181.735162 
L 225.492239 182.172798 
L 227.400352 182.696578 
L 229.28565 183.302609 
L 231.14876 183.978763 
L 233.033546 184.597559 
L 234.974301 185.016245 
L 236.957742 185.129808 
L 238.927636 184.866494 
L 240.857302 184.390171 
L 242.72754 183.717748 
L 244.626679 183.132744 
L 246.545015 182.615305 
L 248.479753 182.164491 
L 250.428944 181.782732 
L 252.389972 181.469501 
L 254.359884 181.220717 
L 256.335927 181.029686 
L 258.315863 180.88833 
L 260.298061 180.788187 
L 262.281436 180.721041 
L 264.265328 180.679264 
L 266.24938 180.655949 
L 268.233433 180.644923 
L 270.217444 180.640696 
L 272.201426 180.63837 
" clip-path="url(#p7ba9d12922)" style="fill: none; stroke: #ff0000; stroke-width: 0.25; stroke-linecap: square"/>
   </g>
   <g id="line2d_71">
    <path d="M 242.360528 234.579994 
L 242.358049 232.756205 
L 242.353956 230.934285 
L 242.347589 229.114254 
L 242.338456 227.296135 
L 242.326039 225.479951 
L 242.309819 223.665726 
L 242.289305 221.853486 
L 242.264085 220.043257 
L 242.233883 218.235063 
L 242.198644 216.42892 
L 242.158655 214.624837 
L 242.114663 212.8228 
L 242.068021 211.022773 
L 242.020874 209.22468 
L 241.97638 207.428417 
L 241.938946 205.633853 
L 241.914502 203.84088 
L 241.910785 202.049504 
L 241.937653 200.260017 
L 242.007404 198.473298 
L 242.135122 196.691303 
L 242.339023 194.91782 
L 242.64081 193.159639 
L 243.065982 191.428312 
L 243.643935 189.742841 
L 244.397261 188.12898 
L 245.343569 186.620884 
L 246.465982 185.239443 
L 247.590181 183.859894 
L 248.608295 182.400517 
" clip-path="url(#p7ba9d12922)" style="fill: none; stroke: #ff0000; stroke-opacity: 0.2; stroke-width: 0.25; stroke-linecap: square"/>
   </g>
   <g id="line2d_72">
    <path d="M 242.360528 234.579994 
L 242.358536 232.756205 
L 242.35511 230.934379 
L 242.349573 229.114537 
L 242.341436 227.296694 
L 242.330185 225.480871 
L 242.315303 223.667089 
L 242.296299 221.855369 
L 242.272752 220.045732 
L 242.244371 218.238198 
L 242.211074 216.432781 
L 242.173096 214.629486 
L 242.131118 212.828299 
L 242.08641 211.029182 
L 242.041022 209.232063 
L 241.997993 207.436837 
L 241.961595 205.643375 
L 241.937597 203.851567 
L 241.933562 202.061404 
L 241.959147 200.273147 
L 242.026437 198.487617 
L 242.150287 196.706661 
L 242.348688 194.933893 
L 242.64315 193.175834 
L 243.05907 191.443653 
L 243.625957 189.755857 
L 244.366456 188.137553 
L 245.29855 186.622198 
L 246.406734 185.231 
L 247.540346 183.860852 
L 248.534314 182.386477 
" clip-path="url(#p7ba9d12922)" style="fill: none; stroke: #ff0000; stroke-opacity: 0.4; stroke-width: 0.25; stroke-linecap: square"/>
   </g>
   <g id="line2d_73">
    <path d="M 242.360528 234.579994 
L 242.357743 232.756206 
L 242.353416 230.934392 
L 242.34679 229.114572 
L 242.337382 227.296765 
L 242.324686 225.480993 
L 242.308196 223.667276 
L 242.287434 221.855639 
L 242.261995 220.046103 
L 242.231612 218.238689 
L 242.196236 216.433413 
L 242.15615 214.630278 
L 242.112082 212.829269 
L 242.065372 211.030345 
L 242.01815 209.233429 
L 241.97356 207.438411 
L 241.936006 205.645158 
L 241.91142 203.853556 
L 241.907564 202.063605 
L 241.934345 200.275592 
L 242.004156 198.490398 
L 242.132234 196.709993 
L 242.337056 194.93822 
L 242.640754 193.182012 
L 243.069555 191.453268 
L 243.654097 189.771817 
L 244.418125 188.164824 
L 245.380668 186.668996 
L 246.507782 185.293503 
L 247.684767 183.960868 
L 248.689408 182.494155 
" clip-path="url(#p7ba9d12922)" style="fill: none; stroke: #ff0000; stroke-opacity: 0.6; stroke-width: 0.25; stroke-linecap: square"/>
   </g>
   <g id="line2d_74">
    <path d="M 242.360528 234.579994 
L 242.357616 232.756206 
L 242.353158 230.934375 
L 242.346377 229.11452 
L 242.336792 227.296662 
L 242.323901 225.48082 
L 242.307199 223.667018 
L 242.286212 221.855279 
L 242.260539 220.045625 
L 242.229918 218.238078 
L 242.194305 216.432652 
L 242.153987 214.629351 
L 242.109704 212.82816 
L 242.062802 211.029038 
L 242.015429 209.231907 
L 241.970747 207.436658 
L 241.933185 205.643156 
L 241.908711 203.851289 
L 241.905135 202.06106 
L 241.932424 200.272763 
L 242.003051 198.487298 
L 242.132362 196.706665 
L 242.338977 194.934772 
L 242.645233 193.178666 
L 243.077649 191.450466 
L 243.667312 189.77043 
L 244.43842 188.166424 
L 245.410554 186.676381 
L 246.544046 185.305673 
L 247.721595 183.973065 
L 248.720005 182.501679 
" clip-path="url(#p7ba9d12922)" style="fill: none; stroke: #ff0000; stroke-opacity: 0.8; stroke-width: 0.25; stroke-linecap: square"/>
   </g>
   <g id="line2d_75">
    <path d="M 242.360528 234.579994 
L 242.357662 232.756206 
L 242.353272 230.934341 
L 242.346496 229.114419 
L 242.336821 227.296462 
L 242.323713 225.48049 
L 242.306633 223.666528 
L 242.285072 221.854601 
L 242.258595 220.044733 
L 242.226906 218.236948 
L 242.189941 216.431264 
L 242.147971 214.627686 
L 242.101727 212.826201 
L 242.052561 211.026768 
L 242.002645 209.229309 
L 241.955188 207.433707 
L 241.914698 205.639819 
L 241.887256 203.847523 
L 241.880831 202.056806 
L 241.90561 200.267957 
L 241.974356 198.481881 
L 242.102801 196.70063 
L 242.310081 194.928239 
L 242.619228 193.172045 
L 243.057724 191.44476 
L 243.658022 189.767849 
L 244.445799 188.171277 
L 245.442313 186.696678 
L 246.588261 185.335556 
L 247.775656 184.010888 
L 248.775175 182.539519 
" clip-path="url(#p7ba9d12922)" style="fill: none; stroke: #ff0000; stroke-width: 0.25; stroke-linecap: square"/>
   </g>
   <g id="line2d_76">
    <path d="M 290.29992 168.290977 
L 288.347948 168.283104 
L 286.402006 168.273825 
L 284.462073 168.262941 
L 282.528121 168.250594 
L 280.600112 168.237174 
L 278.677994 168.223384 
L 276.761698 168.210324 
L 274.851141 168.199617 
L 272.946228 168.193452 
L 271.04686 168.194696 
L 269.152956 168.206979 
L 267.264485 168.234746 
L 265.381523 168.283307 
L 263.504325 168.35875 
L 261.633413 168.467774 
L 259.769662 168.617342 
L 257.914338 168.814055 
L 256.069 169.063144 
L 254.218751 169.241656 
L 252.362811 169.24119 
L 250.513842 169.115082 
L 248.666168 169.008326 
L 246.819306 168.931445 
L 244.973325 168.890615 
L 243.128609 168.886965 
L 241.285525 168.919808 
L 239.444671 168.996593 
L 237.629196 169.308084 
L 235.922848 170.001964 
L 234.295506 170.865637 
" clip-path="url(#p7ba9d12922)" style="fill: none; stroke: #ff0000; stroke-opacity: 0.2; stroke-width: 0.25; stroke-linecap: square"/>
   </g>
   <g id="line2d_77">
    <path d="M 290.29992 168.290977 
L 288.34795 168.282625 
L 286.401198 168.27292 
L 284.459645 168.261705 
L 282.523264 168.249206 
L 280.592015 168.235904 
L 278.665847 168.222601 
L 276.744694 168.210499 
L 274.828476 168.201319 
L 272.917103 168.197364 
L 271.010486 168.20162 
L 269.108565 168.217851 
L 267.211337 168.250664 
L 265.318926 168.305548 
L 263.431655 168.388814 
L 261.550146 168.507439 
L 259.675419 168.668735 
L 257.808939 168.879745 
L 255.952536 169.146264 
L 254.089809 169.341193 
L 252.219201 169.353197 
L 250.355009 169.225588 
L 248.491353 169.12168 
L 246.627951 169.05258 
L 244.765147 169.026167 
L 242.90374 169.047039 
L 241.044804 169.118933 
L 239.190054 169.250894 
L 237.353292 169.536954 
L 235.596605 170.144411 
L 233.944842 170.997238 
" clip-path="url(#p7ba9d12922)" style="fill: none; stroke: #ff0000; stroke-opacity: 0.4; stroke-width: 0.25; stroke-linecap: square"/>
   </g>
   <g id="line2d_78">
    <path d="M 290.29992 168.290977 
L 288.347948 168.283202 
L 286.401011 168.274169 
L 284.459085 168.26362 
L 282.522132 168.25172 
L 280.590109 168.238879 
L 278.662954 168.225826 
L 276.740596 168.213693 
L 274.822946 168.20412 
L 272.909904 168.199333 
L 271.001372 168.202241 
L 269.097271 168.21654 
L 267.19758 168.246772 
L 265.302391 168.298374 
L 263.411991 168.377628 
L 261.526955 168.491503 
L 259.648248 168.647341 
L 257.777276 168.852258 
L 255.915821 169.112169 
L 254.047707 169.29726 
L 252.172408 169.292797 
L 250.305575 169.13471 
L 248.438587 169.000315 
L 246.57093 168.901713 
L 244.702795 168.849076 
L 242.835078 168.850247 
L 240.969319 168.913263 
L 239.108191 169.051258 
L 237.268813 169.365325 
L 235.546731 170.084269 
L 233.907248 170.976299 
" clip-path="url(#p7ba9d12922)" style="fill: none; stroke: #ff0000; stroke-opacity: 0.6; stroke-width: 0.25; stroke-linecap: square"/>
   </g>
   <g id="line2d_79">
    <path d="M 290.29992 168.290977 
L 288.347949 168.28281 
L 286.400633 168.273347 
L 284.45794 168.262346 
L 282.519833 168.250011 
L 280.586263 168.236798 
L 278.657166 168.223485 
L 276.732465 168.211256 
L 274.81207 168.201807 
L 272.89588 168.197421 
L 270.983795 168.20108 
L 269.075741 168.216556 
L 267.171705 168.248485 
L 265.271797 168.302411 
L 263.37633 168.384736 
L 261.485924 168.502578 
L 259.601609 168.663443 
L 257.724881 168.874638 
L 255.857641 169.14229 
L 253.982892 169.333401 
L 252.10001 169.33262 
L 250.225346 169.173045 
L 248.35003 169.039414 
L 246.473661 168.943824 
L 244.596567 168.896918 
L 242.719857 168.907838 
L 240.845476 168.986427 
L 238.976823 169.147397 
L 237.126995 169.456126 
L 235.390521 170.164967 
L 233.742097 171.060315 
" clip-path="url(#p7ba9d12922)" style="fill: none; stroke: #ff0000; stroke-opacity: 0.8; stroke-width: 0.25; stroke-linecap: square"/>
   </g>
   <g id="line2d_80">
    <path d="M 290.29992 168.290977 
L 288.347949 168.282873 
L 286.400415 168.273478 
L 284.457282 168.2625 
L 282.518507 168.25012 
L 280.584033 168.236777 
L 278.653793 168.223228 
L 276.727704 168.210637 
L 274.805669 168.200684 
L 272.887581 168.195642 
L 270.973333 168.198485 
L 269.062842 168.212991 
L 267.156087 168.243809 
L 265.253168 168.296512 
L 263.354389 168.37755 
L 261.460362 168.494105 
L 259.572114 168.653769 
L 257.691146 168.863956 
L 255.819377 169.130914 
L 253.939555 169.318251 
L 252.051746 169.308959 
L 250.173386 169.132117 
L 248.293802 168.982201 
L 246.412504 168.871827 
L 244.529781 168.813066 
L 242.64687 168.817222 
L 240.76617 168.897041 
L 238.892081 169.070606 
L 237.040289 169.406991 
L 235.308262 170.144172 
L 233.662601 171.058776 
" clip-path="url(#p7ba9d12922)" style="fill: none; stroke: #ff0000; stroke-width: 0.25; stroke-linecap: square"/>
   </g>
   <g id="line2d_81">
    <path d="M 229.959386 114.475953 
L 229.961923 116.299742 
L 229.966092 118.121668 
L 229.972557 119.941709 
L 229.981814 121.759845 
L 229.994383 123.576051 
L 230.010787 125.390302 
L 230.031518 127.202574 
L 230.05699 129.012839 
L 230.087482 130.821074 
L 230.123048 132.62726 
L 230.163395 134.431392 
L 230.207771 136.23348 
L 230.254816 138.033565 
L 230.302368 139.831719 
L 230.347246 141.62805 
L 230.38501 143.42269 
L 230.409688 145.215747 
L 230.413485 147.007215 
L 230.386469 148.796797 
L 230.316245 150.583599 
L 230.187607 152.365634 
L 229.98218 154.139051 
L 229.678054 155.896944 
L 229.249451 157.627545 
L 228.666593 159.311452 
L 227.906509 160.922275 
L 226.951182 162.424819 
L 225.823569 163.802176 
L 224.703166 165.18496 
L 223.692218 166.649452 
" clip-path="url(#p7ba9d12922)" style="fill: none; stroke: #ff0000; stroke-opacity: 0.2; stroke-width: 0.25; stroke-linecap: square"/>
   </g>
   <g id="line2d_82">
    <path d="M 229.959386 114.475953 
L 229.961418 116.299742 
L 229.964898 118.12158 
L 229.970512 119.941447 
L 229.978753 121.759325 
L 229.99014 123.575194 
L 230.005195 125.389034 
L 230.024412 127.200823 
L 230.048219 129.010537 
L 230.07691 130.818157 
L 230.110568 132.623669 
L 230.148955 134.427066 
L 230.191385 136.228363 
L 230.236577 138.027598 
L 230.282465 139.824843 
L 230.325984 141.620204 
L 230.362826 143.413812 
L 230.387173 145.205778 
L 230.391397 146.99611 
L 230.365756 148.784541 
L 230.298058 150.570237 
L 230.173309 152.351318 
L 229.973339 154.124102 
L 229.676406 155.881943 
L 229.256804 157.613439 
L 228.684597 159.299648 
L 227.93671 160.91477 
L 226.994687 162.424207 
L 225.87867 163.809379 
L 224.749561 165.183485 
L 223.763639 166.663477 
" clip-path="url(#p7ba9d12922)" style="fill: none; stroke: #ff0000; stroke-opacity: 0.4; stroke-width: 0.25; stroke-linecap: square"/>
   </g>
   <g id="line2d_83">
    <path d="M 229.959386 114.475953 
L 229.962186 116.299741 
L 229.966534 118.121557 
L 229.973193 119.94138 
L 229.982652 121.759192 
L 229.995417 123.574971 
L 230.012001 125.388696 
L 230.032886 127.200343 
L 230.058479 129.009889 
L 230.08905 130.817314 
L 230.124651 132.622602 
L 230.164997 134.425749 
L 230.209355 136.22677 
L 230.25638 138.025707 
L 230.303926 139.822637 
L 230.348826 141.617671 
L 230.386649 143.410944 
L 230.411417 145.20257 
L 230.415313 146.99255 
L 230.388354 148.78059 
L 230.318052 150.565795 
L 230.189044 152.346165 
L 229.982696 154.117793 
L 229.67666 155.873629 
L 229.244423 157.601552 
L 228.65494 159.281313 
L 227.884065 160.885071 
L 226.912324 162.374979 
L 225.780654 163.746765 
L 224.608481 165.083669 
L 223.612026 166.555986 
" clip-path="url(#p7ba9d12922)" style="fill: none; stroke: #ff0000; stroke-opacity: 0.6; stroke-width: 0.25; stroke-linecap: square"/>
   </g>
   <g id="line2d_84">
    <path d="M 229.959386 114.475953 
L 229.962328 116.299741 
L 229.96682 118.121571 
L 229.973645 119.941423 
L 229.983285 121.759278 
L 229.996242 123.575115 
L 230.013023 125.388911 
L 230.034104 127.200643 
L 230.059885 129.010287 
L 230.090629 130.817824 
L 230.126377 132.623238 
L 230.166838 134.426525 
L 230.211268 136.2277 
L 230.258309 138.026806 
L 230.305797 139.823919 
L 230.350546 141.619152 
L 230.388095 143.412638 
L 230.412432 145.204489 
L 230.415694 146.9947 
L 230.387838 148.782967 
L 230.316301 150.568376 
L 230.185617 152.348885 
L 229.977016 154.120522 
L 229.667961 155.876112 
L 229.231664 157.603309 
L 228.636661 159.281431 
L 227.858387 160.881938 
L 226.876869 162.365777 
L 225.73882 163.732655 
L 224.567158 165.070386 
L 223.578327 166.548173 
" clip-path="url(#p7ba9d12922)" style="fill: none; stroke: #ff0000; stroke-opacity: 0.8; stroke-width: 0.25; stroke-linecap: square"/>
   </g>
   <g id="line2d_85">
    <path d="M 229.959386 114.475953 
L 229.962414 116.299741 
L 229.966999 118.121597 
L 229.974 119.941501 
L 229.983923 121.759432 
L 229.997298 123.575369 
L 230.014656 125.389287 
L 230.036499 127.201162 
L 230.063254 129.010968 
L 230.095206 130.818683 
L 230.132405 132.62429 
L 230.174567 134.427782 
L 230.220946 136.229175 
L 230.270166 138.028511 
L 230.320033 139.825869 
L 230.367307 141.621366 
L 230.407445 143.415143 
L 230.434325 145.207325 
L 230.439927 146.997913 
L 230.414009 148.78661 
L 230.34374 150.572484 
L 230.21331 152.353443 
L 230.003491 154.125381 
L 229.691136 155.880847 
L 229.248619 157.606939 
L 228.643291 159.281865 
L 227.849331 160.875183 
L 226.84536 162.344505 
L 225.697329 163.703638 
L 224.517039 165.034396 
L 223.527499 166.512276 
" clip-path="url(#p7ba9d12922)" style="fill: none; stroke: #ff0000; stroke-width: 0.25; stroke-linecap: square"/>
   </g>
   <g id="line2d_86">
    <path d="M 182.026586 180.752404 
L 183.979203 180.763576 
L 185.925771 180.777773 
L 187.866303 180.795722 
L 189.800821 180.817844 
L 191.729352 180.844371 
L 193.651938 180.875243 
L 195.56864 180.909982 
L 197.479546 180.947528 
L 199.384783 180.986052 
L 201.284518 181.02273 
L 203.17895 181.053485 
L 205.068282 181.072697 
L 206.952642 181.072898 
L 208.83193 181.044474 
L 210.705545 180.975366 
L 212.571952 180.850816 
L 214.419064 180.582133 
L 216.24535 180.214608 
L 218.030647 179.693975 
L 219.862151 179.388045 
L 221.716485 179.407445 
L 223.561046 179.575337 
L 225.405316 179.722223 
L 227.249855 179.839498 
L 229.094785 179.920348 
L 230.939874 179.958158 
L 232.784397 179.936964 
L 234.607151 179.656193 
L 236.330072 178.998152 
L 237.977396 178.16816 
" clip-path="url(#p7ba9d12922)" style="fill: none; stroke: #ff0000; stroke-opacity: 0.2; stroke-width: 0.25; stroke-linecap: square"/>
   </g>
   <g id="line2d_87">
    <path d="M 182.026586 180.752404 
L 183.979189 180.76572 
L 185.926626 180.782291 
L 187.868904 180.802951 
L 189.80604 180.828028 
L 191.738059 180.857648 
L 193.665001 180.891638 
L 195.586927 180.929386 
L 197.503928 180.969681 
L 199.416131 181.010515 
L 201.323705 181.048849 
L 203.226849 181.080348 
L 205.125754 181.099077 
L 207.020518 181.097186 
L 208.910969 181.064588 
L 210.796371 180.988647 
L 212.674942 180.853901 
L 214.533595 180.57029 
L 216.370192 180.181623 
L 218.163349 179.634542 
L 220.006408 179.302894 
L 221.87725 179.300378 
L 223.739284 179.463234 
L 225.602003 179.597137 
L 227.465482 179.694974 
L 229.329481 179.747939 
L 231.193171 179.745998 
L 233.054641 179.672786 
L 234.900668 179.426043 
L 236.669198 178.842475 
L 238.340461 178.020397 
" clip-path="url(#p7ba9d12922)" style="fill: none; stroke: #ff0000; stroke-opacity: 0.4; stroke-width: 0.25; stroke-linecap: square"/>
   </g>
   <g id="line2d_88">
    <path d="M 182.026586 180.752404 
L 183.979191 180.765478 
L 185.92679 180.78166 
L 187.869399 180.801987 
L 189.807046 180.826848 
L 191.739764 180.856436 
L 193.667601 180.890637 
L 195.590628 180.928896 
L 197.508943 180.970049 
L 199.422684 181.012126 
L 201.332032 181.05211 
L 203.237202 181.085663 
L 205.138405 181.106819 
L 207.035764 181.107658 
L 208.929139 181.077978 
L 210.817824 181.004967 
L 212.700056 180.872919 
L 214.563093 180.593127 
L 216.404399 180.207057 
L 218.202771 179.662051 
L 220.052332 179.340152 
L 221.928095 179.360072 
L 223.791208 179.566348 
L 225.656494 179.738451 
L 227.524021 179.868577 
L 229.393561 179.944534 
L 231.26389 179.951032 
L 233.131836 179.866281 
L 234.979202 179.578123 
L 236.718812 178.892423 
L 238.38032 178.033934 
" clip-path="url(#p7ba9d12922)" style="fill: none; stroke: #ff0000; stroke-opacity: 0.6; stroke-width: 0.25; stroke-linecap: square"/>
   </g>
   <g id="line2d_89">
    <path d="M 182.026586 180.752404 
L 183.979187 180.766098 
L 185.927216 180.782921 
L 187.870692 180.804028 
L 189.809639 180.829798 
L 191.744095 180.860408 
L 193.674108 180.895721 
L 195.599749 180.935151 
L 197.52112 180.977491 
L 199.438362 181.020706 
L 201.351658 181.061686 
L 203.261227 181.095968 
L 205.167282 181.117417 
L 207.069936 181.117887 
L 208.969023 181.086882 
L 210.863775 181.011218 
L 212.752301 180.874715 
L 214.621324 180.587605 
L 216.467865 180.190423 
L 218.270188 179.631584 
L 220.126624 179.301329 
L 222.011006 179.317535 
L 223.882837 179.526088 
L 225.757617 179.695557 
L 227.63506 179.81957 
L 229.514703 179.885136 
L 231.394901 179.875331 
L 233.271646 179.766779 
L 235.129909 179.483083 
L 236.882797 178.803577 
L 238.551543 177.937106 
" clip-path="url(#p7ba9d12922)" style="fill: none; stroke: #ff0000; stroke-opacity: 0.8; stroke-width: 0.25; stroke-linecap: square"/>
   </g>
   <g id="line2d_90">
    <path d="M 182.026586 180.752404 
L 183.979188 180.765924 
L 185.927462 180.782468 
L 187.871426 180.80334 
L 189.81111 180.828967 
L 191.746549 180.859572 
L 193.677795 180.895066 
L 195.60492 180.934905 
L 197.528025 180.977913 
L 199.447253 181.022073 
L 201.362794 181.064279 
L 203.274869 181.100046 
L 205.183702 181.123184 
L 207.089416 181.125456 
L 208.991858 181.096221 
L 210.890264 181.022092 
L 212.782727 180.886615 
L 214.656124 180.600891 
L 216.507068 180.203391 
L 218.313918 179.643533 
L 220.176331 179.319108 
L 222.065682 179.347919 
L 223.940508 179.576998 
L 225.819353 179.762761 
L 227.701746 179.899187 
L 229.587134 179.971691 
L 231.473502 179.960617 
L 233.35581 179.839149 
L 235.215806 179.525362 
L 236.965308 178.819352 
L 238.63142 177.933561 
" clip-path="url(#p7ba9d12922)" style="fill: none; stroke: #ff0000; stroke-width: 0.25; stroke-linecap: square"/>
   </g>
   <g id="patch_15">
    <path d="M 103.104 307.584 
L 103.104 41.472 
" style="fill: none; stroke: #000000; stroke-width: 0.8; stroke-linejoin: miter; stroke-linecap: square"/>
   </g>
   <g id="patch_16">
    <path d="M 369.216 307.584 
L 369.216 41.472 
" style="fill: none; stroke: #000000; stroke-width: 0.8; stroke-linejoin: miter; stroke-linecap: square"/>
   </g>
   <g id="patch_17">
    <path d="M 103.104 307.584 
L 369.216 307.584 
" style="fill: none; stroke: #000000; stroke-width: 0.8; stroke-linejoin: miter; stroke-linecap: square"/>
   </g>
   <g id="patch_18">
    <path d="M 103.104 41.472 
L 369.216 41.472 
" style="fill: none; stroke: #000000; stroke-width: 0.8; stroke-linejoin: miter; stroke-linecap: square"/>
   </g>
   <g id="text_19">
    <!-- Time:  39 ms -->
    <g transform="translate(264.253887 54.7776) scale(0.1 -0.1)">
     <defs>
      <path id="DejaVuSans-54" d="M -19 4666 
L 3928 4666 
L 3928 4134 
L 2272 4134 
L 2272 0 
L 1638 0 
L 1638 4134 
L -19 4134 
L -19 4666 
z
" transform="scale(0.015625)"/>
      <path id="DejaVuSans-69" d="M 603 3500 
L 1178 3500 
L 1178 0 
L 603 0 
L 603 3500 
z
M 603 4863 
L 1178 4863 
L 1178 4134 
L 603 4134 
L 603 4863 
z
" transform="scale(0.015625)"/>
      <path id="DejaVuSans-6d" d="M 3328 2828 
Q 3544 3216 3844 3400 
Q 4144 3584 4550 3584 
Q 5097 3584 5394 3201 
Q 5691 2819 5691 2113 
L 5691 0 
L 5113 0 
L 5113 2094 
Q 5113 2597 4934 2840 
Q 4756 3084 4391 3084 
Q 3944 3084 3684 2787 
Q 3425 2491 3425 1978 
L 3425 0 
L 2847 0 
L 2847 2094 
Q 2847 2600 2669 2842 
Q 2491 3084 2119 3084 
Q 1678 3084 1418 2786 
Q 1159 2488 1159 1978 
L 1159 0 
L 581 0 
L 581 3500 
L 1159 3500 
L 1159 2956 
Q 1356 3278 1631 3431 
Q 1906 3584 2284 3584 
Q 2666 3584 2933 3390 
Q 3200 3197 3328 2828 
z
" transform="scale(0.015625)"/>
      <path id="DejaVuSans-65" d="M 3597 1894 
L 3597 1613 
L 953 1613 
Q 991 1019 1311 708 
Q 1631 397 2203 397 
Q 2534 397 2845 478 
Q 3156 559 3463 722 
L 3463 178 
Q 3153 47 2828 -22 
Q 2503 -91 2169 -91 
Q 1331 -91 842 396 
Q 353 884 353 1716 
Q 353 2575 817 3079 
Q 1281 3584 2069 3584 
Q 2775 3584 3186 3129 
Q 3597 2675 3597 1894 
z
M 3022 2063 
Q 3016 2534 2758 2815 
Q 2500 3097 2075 3097 
Q 1594 3097 1305 2825 
Q 1016 2553 972 2059 
L 3022 2063 
z
" transform="scale(0.015625)"/>
      <path id="DejaVuSans-3a" d="M 750 794 
L 1409 794 
L 1409 0 
L 750 0 
L 750 794 
z
M 750 3309 
L 1409 3309 
L 1409 2516 
L 750 2516 
L 750 3309 
z
" transform="scale(0.015625)"/>
      <path id="DejaVuSans-20" transform="scale(0.015625)"/>
      <path id="DejaVuSans-39" d="M 703 97 
L 703 672 
Q 941 559 1184 500 
Q 1428 441 1663 441 
Q 2288 441 2617 861 
Q 2947 1281 2994 2138 
Q 2813 1869 2534 1725 
Q 2256 1581 1919 1581 
Q 1219 1581 811 2004 
Q 403 2428 403 3163 
Q 403 3881 828 4315 
Q 1253 4750 1959 4750 
Q 2769 4750 3195 4129 
Q 3622 3509 3622 2328 
Q 3622 1225 3098 567 
Q 2575 -91 1691 -91 
Q 1453 -91 1209 -44 
Q 966 3 703 97 
z
M 1959 2075 
Q 2384 2075 2632 2365 
Q 2881 2656 2881 3163 
Q 2881 3666 2632 3958 
Q 2384 4250 1959 4250 
Q 1534 4250 1286 3958 
Q 1038 3666 1038 3163 
Q 1038 2656 1286 2365 
Q 1534 2075 1959 2075 
z
" transform="scale(0.015625)"/>
      <path id="DejaVuSans-73" d="M 2834 3397 
L 2834 2853 
Q 2591 2978 2328 3040 
Q 2066 3103 1784 3103 
Q 1356 3103 1142 2972 
Q 928 2841 928 2578 
Q 928 2378 1081 2264 
Q 1234 2150 1697 2047 
L 1894 2003 
Q 2506 1872 2764 1633 
Q 3022 1394 3022 966 
Q 3022 478 2636 193 
Q 2250 -91 1575 -91 
Q 1294 -91 989 -36 
Q 684 19 347 128 
L 347 722 
Q 666 556 975 473 
Q 1284 391 1588 391 
Q 1994 391 2212 530 
Q 2431 669 2431 922 
Q 2431 1156 2273 1281 
Q 2116 1406 1581 1522 
L 1381 1569 
Q 847 1681 609 1914 
Q 372 2147 372 2553 
Q 372 3047 722 3315 
Q 1072 3584 1716 3584 
Q 2034 3584 2315 3537 
Q 2597 3491 2834 3397 
z
" transform="scale(0.015625)"/>
     </defs>
     <use xlink:href="#DejaVuSans-54"/>
     <use xlink:href="#DejaVuSans-69" x="57.958984"/>
     <use xlink:href="#DejaVuSans-6d" x="85.742188"/>
     <use xlink:href="#DejaVuSans-65" x="183.154297"/>
     <use xlink:href="#DejaVuSans-3a" x="244.677734"/>
     <use xlink:href="#DejaVuSans-20" x="278.369141"/>
     <use xlink:href="#DejaVuSans-20" x="310.15625"/>
     <use xlink:href="#DejaVuSans-33" x="341.943359"/>
     <use xlink:href="#DejaVuSans-39" x="405.566406"/>
     <use xlink:href="#DejaVuSans-20" x="469.189453"/>
     <use xlink:href="#DejaVuSans-6d" x="500.976562"/>
     <use xlink:href="#DejaVuSans-73" x="598.388672"/>
    </g>
   </g>
  </g>
 </g>
 <defs>
  <clipPath id="p7ba9d12922">
   <rect x="103.104" y="41.472" width="266.112" height="266.112"/>
  </clipPath>
 </defs>
</svg>
