<?xml version="1.0" encoding="utf-8" standalone="no"?>
<!DOCTYPE svg PUBLIC "-//W3C//DTD SVG 1.1//EN"
  "http://www.w3.org/Graphics/SVG/1.1/DTD/svg11.dtd">
<svg xmlns:xlink="http://www.w3.org/1999/xlink" width="460.8pt" height="345.6pt" viewBox="0 0 460.8 345.6" xmlns="http://www.w3.org/2000/svg" version="1.1">
 <metadata>
  <rdf:RDF xmlns:dc="http://purl.org/dc/elements/1.1/" xmlns:cc="http://creativecommons.org/ns#" xmlns:rdf="http://www.w3.org/1999/02/22-rdf-syntax-ns#">
   <cc:Work>
    <dc:type rdf:resource="http://purl.org/dc/dcmitype/StillImage"/>
    <dc:date>2024-01-22T16:49:07.079521</dc:date>
    <dc:format>image/svg+xml</dc:format>
    <dc:creator>
     <cc:Agent>
      <dc:title>Matplotlib v3.8.2, https://matplotlib.org/</dc:title>
     </cc:Agent>
    </dc:creator>
   </cc:Work>
  </rdf:RDF>
 </metadata>
 <defs>
  <style type="text/css">*{stroke-linejoin: round; stroke-linecap: butt}</style>
 </defs>
 <g id="figure_1">
  <g id="patch_1">
   <path d="M 0 345.6 
L 460.8 345.6 
L 460.8 0 
L 0 0 
z
" style="fill: #ffffff"/>
  </g>
  <g id="axes_1">
   <g id="patch_2">
    <path d="M 103.104 307.584 
L 369.216 307.584 
L 369.216 41.472 
L 103.104 41.472 
z
" style="fill: #ffffff"/>
   </g>
   <g id="patch_3">
    <path d="M 245.244917 199.286583 
L 245.751377 187.655204 
L 240.10185 187.409208 
L 239.59539 199.040587 
z
" clip-path="url(#p282afdeada)" style="fill: #00008b"/>
   </g>
   <g id="patch_4">
    <path d="M 260.953655 165.443699 
L 249.330202 164.77975 
L 249.007713 170.425427 
L 260.631165 171.089376 
z
" clip-path="url(#p282afdeada)" style="fill: #800000"/>
   </g>
   <g id="patch_5">
    <path d="M 226.322714 151.401778 
L 225.410997 163.008425 
L 231.048511 163.451259 
L 231.960228 151.844612 
z
" clip-path="url(#p282afdeada)" style="fill: #006400"/>
   </g>
   <g id="patch_6">
    <path d="M 208.559034 182.38277 
L 220.187089 181.804986 
L 219.906451 176.157074 
L 208.278396 176.734858 
z
" clip-path="url(#p282afdeada)" style="fill: #4b0082"/>
   </g>
   <g id="patch_7">
    <path d="M 245.193573 232.335632 
L 245.219065 220.69326 
L 239.564198 220.680878 
L 239.538706 232.32325 
z
" clip-path="url(#p282afdeada)" style="fill: #0000ff"/>
   </g>
   <g id="patch_8">
    <path d="M 292.610153 165.476141 
L 280.967875 165.422938 
L 280.942033 171.077759 
L 292.584312 171.130962 
z
" clip-path="url(#p282afdeada)" style="fill: #ff0000"/>
   </g>
   <g id="patch_9">
    <path d="M 227.133921 114.448832 
L 227.152018 126.091218 
L 232.806891 126.082428 
L 232.788794 114.440042 
z
" clip-path="url(#p282afdeada)" style="fill: #dbdc56"/>
   </g>
   <g id="patch_10">
    <path d="M 178.438255 183.554563 
L 190.080648 183.54164 
L 190.074371 177.886764 
L 178.431978 177.899686 
z
" clip-path="url(#p282afdeada)" style="fill: #9400d3"/>
   </g>
   <g id="patch_11">
    <path d="M 245.18772 267.83352 
L 245.18772 256.19112 
L 239.53284 256.19112 
L 239.53284 267.83352 
z
" clip-path="url(#p282afdeada)" style="fill: #1e90ff"/>
   </g>
   <g id="patch_12">
    <path d="M 325.746732 165.50028 
L 314.104332 165.50028 
L 314.104332 171.15516 
L 325.746732 171.15516 
z
" clip-path="url(#p282afdeada)" style="fill: #ff4500"/>
   </g>
   <g id="patch_13">
    <path d="M 227.13228 81.22248 
L 227.13228 92.86488 
L 232.78716 92.86488 
L 232.78716 81.22248 
z
" clip-path="url(#p282afdeada)" style="fill: #7cfc00"/>
   </g>
   <g id="patch_14">
    <path d="M 146.573268 183.55572 
L 158.215668 183.55572 
L 158.215668 177.90084 
L 146.573268 177.90084 
z
" clip-path="url(#p282afdeada)" style="fill: #ff00ff"/>
   </g>
   <g id="matplotlib.axis_1">
    <g id="xtick_1">
     <g id="line2d_1">
      <defs>
       <path id="m4f8e1c7cfd" d="M 0 0 
L 0 3.5 
" style="stroke: #000000; stroke-width: 0.8"/>
      </defs>
      <g>
       <use xlink:href="#m4f8e1c7cfd" x="103.104" y="307.584" style="stroke: #000000; stroke-width: 0.8"/>
      </g>
     </g>
     <g id="text_1">
      <!-- −40 -->
      <g transform="translate(92.551656 322.182437) scale(0.1 -0.1)">
       <defs>
        <path id="DejaVuSans-2212" d="M 678 2272 
L 4684 2272 
L 4684 1741 
L 678 1741 
L 678 2272 
z
" transform="scale(0.015625)"/>
        <path id="DejaVuSans-34" d="M 2419 4116 
L 825 1625 
L 2419 1625 
L 2419 4116 
z
M 2253 4666 
L 3047 4666 
L 3047 1625 
L 3713 1625 
L 3713 1100 
L 3047 1100 
L 3047 0 
L 2419 0 
L 2419 1100 
L 313 1100 
L 313 1709 
L 2253 4666 
z
" transform="scale(0.015625)"/>
        <path id="DejaVuSans-30" d="M 2034 4250 
Q 1547 4250 1301 3770 
Q 1056 3291 1056 2328 
Q 1056 1369 1301 889 
Q 1547 409 2034 409 
Q 2525 409 2770 889 
Q 3016 1369 3016 2328 
Q 3016 3291 2770 3770 
Q 2525 4250 2034 4250 
z
M 2034 4750 
Q 2819 4750 3233 4129 
Q 3647 3509 3647 2328 
Q 3647 1150 3233 529 
Q 2819 -91 2034 -91 
Q 1250 -91 836 529 
Q 422 1150 422 2328 
Q 422 3509 836 4129 
Q 1250 4750 2034 4750 
z
" transform="scale(0.015625)"/>
       </defs>
       <use xlink:href="#DejaVuSans-2212"/>
       <use xlink:href="#DejaVuSans-34" x="83.789062"/>
       <use xlink:href="#DejaVuSans-30" x="147.412109"/>
      </g>
     </g>
    </g>
    <g id="xtick_2">
     <g id="line2d_2">
      <g>
       <use xlink:href="#m4f8e1c7cfd" x="136.368" y="307.584" style="stroke: #000000; stroke-width: 0.8"/>
      </g>
     </g>
     <g id="text_2">
      <!-- −30 -->
      <g transform="translate(125.815656 322.182437) scale(0.1 -0.1)">
       <defs>
        <path id="DejaVuSans-33" d="M 2597 2516 
Q 3050 2419 3304 2112 
Q 3559 1806 3559 1356 
Q 3559 666 3084 287 
Q 2609 -91 1734 -91 
Q 1441 -91 1130 -33 
Q 819 25 488 141 
L 488 750 
Q 750 597 1062 519 
Q 1375 441 1716 441 
Q 2309 441 2620 675 
Q 2931 909 2931 1356 
Q 2931 1769 2642 2001 
Q 2353 2234 1838 2234 
L 1294 2234 
L 1294 2753 
L 1863 2753 
Q 2328 2753 2575 2939 
Q 2822 3125 2822 3475 
Q 2822 3834 2567 4026 
Q 2313 4219 1838 4219 
Q 1578 4219 1281 4162 
Q 984 4106 628 3988 
L 628 4550 
Q 988 4650 1302 4700 
Q 1616 4750 1894 4750 
Q 2613 4750 3031 4423 
Q 3450 4097 3450 3541 
Q 3450 3153 3228 2886 
Q 3006 2619 2597 2516 
z
" transform="scale(0.015625)"/>
       </defs>
       <use xlink:href="#DejaVuSans-2212"/>
       <use xlink:href="#DejaVuSans-33" x="83.789062"/>
       <use xlink:href="#DejaVuSans-30" x="147.412109"/>
      </g>
     </g>
    </g>
    <g id="xtick_3">
     <g id="line2d_3">
      <g>
       <use xlink:href="#m4f8e1c7cfd" x="169.632" y="307.584" style="stroke: #000000; stroke-width: 0.8"/>
      </g>
     </g>
     <g id="text_3">
      <!-- −20 -->
      <g transform="translate(159.079656 322.182437) scale(0.1 -0.1)">
       <defs>
        <path id="DejaVuSans-32" d="M 1228 531 
L 3431 531 
L 3431 0 
L 469 0 
L 469 531 
Q 828 903 1448 1529 
Q 2069 2156 2228 2338 
Q 2531 2678 2651 2914 
Q 2772 3150 2772 3378 
Q 2772 3750 2511 3984 
Q 2250 4219 1831 4219 
Q 1534 4219 1204 4116 
Q 875 4013 500 3803 
L 500 4441 
Q 881 4594 1212 4672 
Q 1544 4750 1819 4750 
Q 2544 4750 2975 4387 
Q 3406 4025 3406 3419 
Q 3406 3131 3298 2873 
Q 3191 2616 2906 2266 
Q 2828 2175 2409 1742 
Q 1991 1309 1228 531 
z
" transform="scale(0.015625)"/>
       </defs>
       <use xlink:href="#DejaVuSans-2212"/>
       <use xlink:href="#DejaVuSans-32" x="83.789062"/>
       <use xlink:href="#DejaVuSans-30" x="147.412109"/>
      </g>
     </g>
    </g>
    <g id="xtick_4">
     <g id="line2d_4">
      <g>
       <use xlink:href="#m4f8e1c7cfd" x="202.896" y="307.584" style="stroke: #000000; stroke-width: 0.8"/>
      </g>
     </g>
     <g id="text_4">
      <!-- −10 -->
      <g transform="translate(192.343656 322.182437) scale(0.1 -0.1)">
       <defs>
        <path id="DejaVuSans-31" d="M 794 531 
L 1825 531 
L 1825 4091 
L 703 3866 
L 703 4441 
L 1819 4666 
L 2450 4666 
L 2450 531 
L 3481 531 
L 3481 0 
L 794 0 
L 794 531 
z
" transform="scale(0.015625)"/>
       </defs>
       <use xlink:href="#DejaVuSans-2212"/>
       <use xlink:href="#DejaVuSans-31" x="83.789062"/>
       <use xlink:href="#DejaVuSans-30" x="147.412109"/>
      </g>
     </g>
    </g>
    <g id="xtick_5">
     <g id="line2d_5">
      <g>
       <use xlink:href="#m4f8e1c7cfd" x="236.16" y="307.584" style="stroke: #000000; stroke-width: 0.8"/>
      </g>
     </g>
     <g id="text_5">
      <!-- 0 -->
      <g transform="translate(232.97875 322.182437) scale(0.1 -0.1)">
       <use xlink:href="#DejaVuSans-30"/>
      </g>
     </g>
    </g>
    <g id="xtick_6">
     <g id="line2d_6">
      <g>
       <use xlink:href="#m4f8e1c7cfd" x="269.424" y="307.584" style="stroke: #000000; stroke-width: 0.8"/>
      </g>
     </g>
     <g id="text_6">
      <!-- 10 -->
      <g transform="translate(263.0615 322.182437) scale(0.1 -0.1)">
       <use xlink:href="#DejaVuSans-31"/>
       <use xlink:href="#DejaVuSans-30" x="63.623047"/>
      </g>
     </g>
    </g>
    <g id="xtick_7">
     <g id="line2d_7">
      <g>
       <use xlink:href="#m4f8e1c7cfd" x="302.688" y="307.584" style="stroke: #000000; stroke-width: 0.8"/>
      </g>
     </g>
     <g id="text_7">
      <!-- 20 -->
      <g transform="translate(296.3255 322.182437) scale(0.1 -0.1)">
       <use xlink:href="#DejaVuSans-32"/>
       <use xlink:href="#DejaVuSans-30" x="63.623047"/>
      </g>
     </g>
    </g>
    <g id="xtick_8">
     <g id="line2d_8">
      <g>
       <use xlink:href="#m4f8e1c7cfd" x="335.952" y="307.584" style="stroke: #000000; stroke-width: 0.8"/>
      </g>
     </g>
     <g id="text_8">
      <!-- 30 -->
      <g transform="translate(329.5895 322.182437) scale(0.1 -0.1)">
       <use xlink:href="#DejaVuSans-33"/>
       <use xlink:href="#DejaVuSans-30" x="63.623047"/>
      </g>
     </g>
    </g>
    <g id="xtick_9">
     <g id="line2d_9">
      <g>
       <use xlink:href="#m4f8e1c7cfd" x="369.216" y="307.584" style="stroke: #000000; stroke-width: 0.8"/>
      </g>
     </g>
     <g id="text_9">
      <!-- 40 -->
      <g transform="translate(362.8535 322.182437) scale(0.1 -0.1)">
       <use xlink:href="#DejaVuSans-34"/>
       <use xlink:href="#DejaVuSans-30" x="63.623047"/>
      </g>
     </g>
    </g>
   </g>
   <g id="matplotlib.axis_2">
    <g id="ytick_1">
     <g id="line2d_10">
      <defs>
       <path id="m11ce7685e9" d="M 0 0 
L -3.5 0 
" style="stroke: #000000; stroke-width: 0.8"/>
      </defs>
      <g>
       <use xlink:href="#m11ce7685e9" x="103.104" y="307.584" style="stroke: #000000; stroke-width: 0.8"/>
      </g>
     </g>
     <g id="text_10">
      <!-- −40 -->
      <g transform="translate(74.999313 311.383219) scale(0.1 -0.1)">
       <use xlink:href="#DejaVuSans-2212"/>
       <use xlink:href="#DejaVuSans-34" x="83.789062"/>
       <use xlink:href="#DejaVuSans-30" x="147.412109"/>
      </g>
     </g>
    </g>
    <g id="ytick_2">
     <g id="line2d_11">
      <g>
       <use xlink:href="#m11ce7685e9" x="103.104" y="274.32" style="stroke: #000000; stroke-width: 0.8"/>
      </g>
     </g>
     <g id="text_11">
      <!-- −30 -->
      <g transform="translate(74.999313 278.119219) scale(0.1 -0.1)">
       <use xlink:href="#DejaVuSans-2212"/>
       <use xlink:href="#DejaVuSans-33" x="83.789062"/>
       <use xlink:href="#DejaVuSans-30" x="147.412109"/>
      </g>
     </g>
    </g>
    <g id="ytick_3">
     <g id="line2d_12">
      <g>
       <use xlink:href="#m11ce7685e9" x="103.104" y="241.056" style="stroke: #000000; stroke-width: 0.8"/>
      </g>
     </g>
     <g id="text_12">
      <!-- −20 -->
      <g transform="translate(74.999313 244.855219) scale(0.1 -0.1)">
       <use xlink:href="#DejaVuSans-2212"/>
       <use xlink:href="#DejaVuSans-32" x="83.789062"/>
       <use xlink:href="#DejaVuSans-30" x="147.412109"/>
      </g>
     </g>
    </g>
    <g id="ytick_4">
     <g id="line2d_13">
      <g>
       <use xlink:href="#m11ce7685e9" x="103.104" y="207.792" style="stroke: #000000; stroke-width: 0.8"/>
      </g>
     </g>
     <g id="text_13">
      <!-- −10 -->
      <g transform="translate(74.999313 211.591219) scale(0.1 -0.1)">
       <use xlink:href="#DejaVuSans-2212"/>
       <use xlink:href="#DejaVuSans-31" x="83.789062"/>
       <use xlink:href="#DejaVuSans-30" x="147.412109"/>
      </g>
     </g>
    </g>
    <g id="ytick_5">
     <g id="line2d_14">
      <g>
       <use xlink:href="#m11ce7685e9" x="103.104" y="174.528" style="stroke: #000000; stroke-width: 0.8"/>
      </g>
     </g>
     <g id="text_14">
      <!-- 0 -->
      <g transform="translate(89.7415 178.327219) scale(0.1 -0.1)">
       <use xlink:href="#DejaVuSans-30"/>
      </g>
     </g>
    </g>
    <g id="ytick_6">
     <g id="line2d_15">
      <g>
       <use xlink:href="#m11ce7685e9" x="103.104" y="141.264" style="stroke: #000000; stroke-width: 0.8"/>
      </g>
     </g>
     <g id="text_15">
      <!-- 10 -->
      <g transform="translate(83.379 145.063219) scale(0.1 -0.1)">
       <use xlink:href="#DejaVuSans-31"/>
       <use xlink:href="#DejaVuSans-30" x="63.623047"/>
      </g>
     </g>
    </g>
    <g id="ytick_7">
     <g id="line2d_16">
      <g>
       <use xlink:href="#m11ce7685e9" x="103.104" y="108" style="stroke: #000000; stroke-width: 0.8"/>
      </g>
     </g>
     <g id="text_16">
      <!-- 20 -->
      <g transform="translate(83.379 111.799219) scale(0.1 -0.1)">
       <use xlink:href="#DejaVuSans-32"/>
       <use xlink:href="#DejaVuSans-30" x="63.623047"/>
      </g>
     </g>
    </g>
    <g id="ytick_8">
     <g id="line2d_17">
      <g>
       <use xlink:href="#m11ce7685e9" x="103.104" y="74.736" style="stroke: #000000; stroke-width: 0.8"/>
      </g>
     </g>
     <g id="text_17">
      <!-- 30 -->
      <g transform="translate(83.379 78.535219) scale(0.1 -0.1)">
       <use xlink:href="#DejaVuSans-33"/>
       <use xlink:href="#DejaVuSans-30" x="63.623047"/>
      </g>
     </g>
    </g>
    <g id="ytick_9">
     <g id="line2d_18">
      <g>
       <use xlink:href="#m11ce7685e9" x="103.104" y="41.472" style="stroke: #000000; stroke-width: 0.8"/>
      </g>
     </g>
     <g id="text_18">
      <!-- 40 -->
      <g transform="translate(83.379 45.271219) scale(0.1 -0.1)">
       <use xlink:href="#DejaVuSans-34"/>
       <use xlink:href="#DejaVuSans-30" x="63.623047"/>
      </g>
     </g>
    </g>
   </g>
   <g id="line2d_19">
    <path d="M 251.1288 346.6 
L 251.1288 189.4968 
" clip-path="url(#p282afdeada)" style="fill: none; stroke: #000000; stroke-width: 0.25; stroke-linecap: square"/>
   </g>
   <g id="line2d_20">
    <path d="M 251.1288 189.4968 
L 417.4488 189.4968 
" clip-path="url(#p282afdeada)" style="fill: none; stroke: #000000; stroke-width: 0.25; stroke-linecap: square"/>
   </g>
   <g id="line2d_21">
    <path d="M 417.4488 159.5592 
L 251.1288 159.5592 
" clip-path="url(#p282afdeada)" style="fill: none; stroke: #000000; stroke-width: 0.25; stroke-linecap: square"/>
   </g>
   <g id="line2d_22">
    <path d="M 251.1288 159.5592 
L 251.1288 -1 
" clip-path="url(#p282afdeada)" style="fill: none; stroke: #000000; stroke-width: 0.25; stroke-linecap: square"/>
   </g>
   <g id="line2d_23">
    <path d="M 221.1912 -1 
L 221.1912 159.5592 
" clip-path="url(#p282afdeada)" style="fill: none; stroke: #000000; stroke-width: 0.25; stroke-linecap: square"/>
   </g>
   <g id="line2d_24">
    <path d="M 221.1912 159.5592 
L 54.8712 159.5592 
" clip-path="url(#p282afdeada)" style="fill: none; stroke: #000000; stroke-width: 0.25; stroke-linecap: square"/>
   </g>
   <g id="line2d_25">
    <path d="M 54.8712 189.4968 
L 221.1912 189.4968 
" clip-path="url(#p282afdeada)" style="fill: none; stroke: #000000; stroke-width: 0.25; stroke-linecap: square"/>
   </g>
   <g id="line2d_26">
    <path d="M 221.1912 189.4968 
L 221.1912 346.6 
" clip-path="url(#p282afdeada)" style="fill: none; stroke: #000000; stroke-width: 0.25; stroke-linecap: square"/>
   </g>
   <g id="line2d_27">
    <path d="M 251.1288 174.528 
L 417.4488 174.528 
" clip-path="url(#p282afdeada)" style="fill: none; stroke-dasharray: 0.925,0.4; stroke-dashoffset: 0; stroke: #000000; stroke-width: 0.25"/>
   </g>
   <g id="line2d_28">
    <path d="M 236.16 159.5592 
L 236.16 -1 
" clip-path="url(#p282afdeada)" style="fill: none; stroke-dasharray: 0.925,0.4; stroke-dashoffset: 0; stroke: #000000; stroke-width: 0.25"/>
   </g>
   <g id="line2d_29">
    <path d="M 221.1912 174.528 
L 54.8712 174.528 
" clip-path="url(#p282afdeada)" style="fill: none; stroke-dasharray: 0.925,0.4; stroke-dashoffset: 0; stroke: #000000; stroke-width: 0.25"/>
   </g>
   <g id="line2d_30">
    <path d="M 236.16 189.4968 
L 236.16 346.6 
" clip-path="url(#p282afdeada)" style="fill: none; stroke-dasharray: 0.925,0.4; stroke-dashoffset: 0; stroke: #000000; stroke-width: 0.25"/>
   </g>
   <g id="line2d_31">
    <path d="M 242.532792 195.326394 
L 242.663422 193.347213 
L 242.823324 191.366197 
L 243.025708 189.385349 
L 243.27353 187.406184 
L 243.570628 185.430566 
L 243.918704 183.460287 
L 244.316113 181.49662 
L 244.756408 179.539653 
L 245.226714 177.587514 
L 245.633377 175.619309 
L 245.823835 173.617231 
L 245.618352 171.615937 
L 245.117897 169.667403 
L 244.403958 167.787275 
L 243.674086 165.914425 
L 243.03571 164.00995 
L 242.507703 162.073806 
L 242.146729 160.101808 
L 241.958563 158.108149 
L 241.89607 156.108789 
L 241.881193 154.110461 
L 241.899374 152.113885 
L 241.939291 150.119127 
L 241.992341 148.125958 
L 242.052264 146.134053 
L 242.114801 144.143095 
L 242.177352 142.152806 
L 242.238638 140.162961 
L 242.298357 138.173379 
L 242.357262 136.18392 
" clip-path="url(#p282afdeada)" style="fill: none; stroke: #ff0000; stroke-opacity: 0.2; stroke-width: 0.25; stroke-linecap: square"/>
   </g>
   <g id="line2d_32">
    <path d="M 242.532792 195.326394 
L 242.666647 193.347428 
L 242.827673 191.366342 
L 243.031079 189.38529 
L 243.279768 187.405791 
L 243.577521 185.429705 
L 243.925978 183.458816 
L 244.323421 181.49438 
L 244.76333 179.536466 
L 245.23275 177.583183 
L 245.638374 175.613786 
L 245.827576 173.610589 
L 245.620211 171.608464 
L 245.11525 169.66003 
L 244.400389 167.779158 
L 243.66265 165.908313 
L 243.017141 164.005217 
L 242.483649 162.06961 
L 242.119117 160.097372 
L 241.930493 158.102933 
L 241.871704 156.102705 
L 241.860825 154.103651 
L 241.882907 152.106466 
L 241.926438 150.111177 
L 241.982695 148.117526 
L 242.045358 146.125167 
L 242.110161 144.133765 
L 242.174545 142.143038 
L 242.237306 140.152757 
L 242.298252 138.162738 
L 242.357889 136.17283 
" clip-path="url(#p282afdeada)" style="fill: none; stroke: #ff0000; stroke-opacity: 0.4; stroke-width: 0.25; stroke-linecap: square"/>
   </g>
   <g id="line2d_33">
    <path d="M 242.532792 195.326394 
L 242.669649 193.347634 
L 242.832064 191.36653 
L 243.036744 189.38536 
L 243.286491 187.405639 
L 243.584982 185.429217 
L 243.93375 183.457855 
L 244.330969 181.492778 
L 244.770009 179.53402 
L 245.237809 177.579658 
L 245.641689 175.609194 
L 245.829276 173.605138 
L 245.619758 171.602532 
L 245.11457 169.653447 
L 244.396932 167.772927 
L 243.652096 165.904225 
L 243.00177 164.002152 
L 242.467439 162.066222 
L 242.104065 160.093278 
L 241.917648 158.098191 
L 241.861438 156.097488 
L 241.852791 154.098059 
L 241.876814 152.10056 
L 241.921984 150.104998 
L 241.979585 148.111097 
L 242.043317 146.118502 
L 242.108947 144.126873 
L 242.173962 142.135923 
L 242.237211 140.145421 
L 242.298556 138.155184 
L 242.358535 136.165059 
" clip-path="url(#p282afdeada)" style="fill: none; stroke: #ff0000; stroke-opacity: 0.6; stroke-width: 0.25; stroke-linecap: square"/>
   </g>
   <g id="line2d_34">
    <path d="M 242.532792 195.326394 
L 242.671391 193.347755 
L 242.834205 191.366644 
L 243.039136 189.385421 
L 243.288969 187.405597 
L 243.587371 185.429015 
L 243.935867 183.457428 
L 244.332625 181.492053 
L 244.771016 179.532919 
L 245.23798 177.578105 
L 245.641207 175.60724 
L 245.828235 173.602852 
L 245.617354 171.600098 
L 245.110587 169.651115 
L 244.392432 167.770467 
L 243.644686 165.902601 
L 242.992492 164.000854 
L 242.457567 162.064794 
L 242.094359 160.091547 
L 241.908971 158.096115 
L 241.85445 156.095135 
L 241.847278 154.095485 
L 241.872581 152.097802 
L 241.918838 150.102077 
L 241.977338 148.108025 
L 242.041794 146.115285 
L 242.107998 144.123513 
L 242.173463 142.132422 
L 242.237072 140.14178 
L 242.298724 138.151403 
L 242.358988 136.161138 
" clip-path="url(#p282afdeada)" style="fill: none; stroke: #ff0000; stroke-opacity: 0.8; stroke-width: 0.25; stroke-linecap: square"/>
   </g>
   <g id="line2d_35">
    <path d="M 242.532792 195.326394 
L 242.673384 193.347895 
L 242.837567 191.366767 
L 243.043875 189.385439 
L 243.294994 187.405422 
L 243.594487 185.428555 
L 243.94377 183.456574 
L 244.340898 181.490668 
L 244.779114 179.530831 
L 245.245224 177.575102 
L 245.647194 175.603243 
L 245.832693 173.59797 
L 245.619278 171.594735 
L 245.111198 169.645331 
L 244.391361 167.764553 
L 243.637922 165.898222 
L 242.980994 163.997396 
L 242.44299 162.061529 
L 242.078185 160.087968 
L 241.892918 158.091962 
L 241.840137 156.090413 
L 241.834763 154.090267 
L 241.861881 152.092147 
L 241.909884 150.096028 
L 241.970006 148.101609 
L 242.035928 146.108519 
L 242.103435 144.116408 
L 242.170054 142.124983 
L 242.234701 140.13401 
L 242.297314 138.143302 
L 242.358513 136.152709 
" clip-path="url(#p282afdeada)" style="fill: none; stroke: #ff0000; stroke-width: 0.25; stroke-linecap: square"/>
   </g>
   <g id="line2d_36">
    <path d="M 256.95281 168.116225 
L 254.980247 167.939367 
L 253.009955 167.712973 
L 251.04655 167.414865 
L 249.09412 167.038063 
L 247.157974 166.574379 
L 245.243616 166.019285 
L 243.355423 165.374063 
L 241.494616 164.648089 
L 239.598154 164.015338 
L 237.609845 163.792794 
L 235.615926 163.969289 
L 233.652879 164.363144 
L 231.745515 164.972118 
L 229.844707 165.600739 
L 227.921708 166.156787 
L 225.981493 166.647955 
L 224.025805 167.07143 
L 222.056853 167.425714 
L 220.077456 167.712913 
L 218.090518 167.938297 
L 216.09858 168.109117 
L 214.103608 168.233474 
L 212.106989 168.319488 
L 210.109617 168.374793 
L 208.112019 168.406289 
L 206.114462 168.420039 
L 204.117052 168.421279 
L 202.119795 168.414472 
L 200.122651 168.403414 
L 198.125559 168.391045 
" clip-path="url(#p282afdeada)" style="fill: none; stroke: #ff0000; stroke-opacity: 0.2; stroke-width: 0.25; stroke-linecap: square"/>
   </g>
   <g id="line2d_37">
    <path d="M 256.95281 168.116225 
L 254.980375 167.937952 
L 253.010106 167.711206 
L 251.046726 167.412701 
L 249.094336 167.03544 
L 247.158254 166.571221 
L 245.243998 166.015502 
L 243.35596 165.369559 
L 241.495369 164.642761 
L 239.599107 164.009075 
L 237.610791 163.785548 
L 235.616709 163.961586 
L 233.653591 164.355732 
L 231.746117 164.964789 
L 229.845411 165.594139 
L 227.922397 166.150614 
L 225.982167 166.64227 
L 224.026459 167.066283 
L 222.057474 167.421146 
L 220.078028 167.708949 
L 218.091025 167.934942 
L 216.099003 168.106361 
L 214.103932 168.231288 
L 212.1072 168.317828 
L 210.109707 168.373601 
L 208.11198 168.405495 
L 206.114291 168.419566 
L 204.116746 168.421043 
L 202.119355 168.414391 
L 200.122076 168.403413 
L 198.124849 168.39126 
" clip-path="url(#p282afdeada)" style="fill: none; stroke: #ff0000; stroke-opacity: 0.4; stroke-width: 0.25; stroke-linecap: square"/>
   </g>
   <g id="line2d_38">
    <path d="M 256.95281 168.116225 
L 254.980477 167.936827 
L 253.010201 167.709981 
L 251.0468 167.411393 
L 249.094377 167.034044 
L 247.158257 166.569716 
L 245.243967 166.013851 
L 243.355909 165.367709 
L 241.495326 164.640644 
L 239.599018 164.00679 
L 237.610606 163.783227 
L 235.616516 163.960333 
L 233.653506 164.355521 
L 231.745366 164.962807 
L 229.844794 165.592851 
L 227.921808 166.149733 
L 225.981597 166.641795 
L 224.025897 167.066201 
L 222.056905 167.42143 
L 220.077438 167.709557 
L 218.0904 167.935818 
L 216.098334 168.107441 
L 214.103214 168.232504 
L 212.10643 168.319107 
L 210.108883 168.374873 
L 208.111103 168.406691 
L 206.113363 168.420621 
L 204.115769 168.421901 
L 202.11833 168.415006 
L 200.121005 168.403751 
L 198.123732 168.391376 
" clip-path="url(#p282afdeada)" style="fill: none; stroke: #ff0000; stroke-opacity: 0.6; stroke-width: 0.25; stroke-linecap: square"/>
   </g>
   <g id="line2d_39">
    <path d="M 256.95281 168.116225 
L 254.980577 167.935723 
L 253.010304 167.708694 
L 251.046892 167.409939 
L 249.094449 167.032429 
L 247.158304 166.567942 
L 245.243987 166.011915 
L 243.355903 165.365602 
L 241.495302 164.63835 
L 239.598907 164.004476 
L 237.61039 163.781055 
L 235.616226 163.958295 
L 233.653078 164.353216 
L 231.744487 164.959328 
L 229.844041 165.589964 
L 227.921096 166.147205 
L 225.980923 166.639631 
L 224.025252 167.064396 
L 222.056278 167.419964 
L 220.076818 167.708397 
L 218.089778 167.934923 
L 216.097702 168.106765 
L 214.102567 168.232 
L 212.105766 168.318731 
L 210.108202 168.374587 
L 208.110406 168.406461 
L 206.11265 168.42042 
L 204.115042 168.421709 
L 202.11759 168.414811 
L 200.120251 168.40355 
L 198.122965 168.391195 
" clip-path="url(#p282afdeada)" style="fill: none; stroke: #ff0000; stroke-opacity: 0.8; stroke-width: 0.25; stroke-linecap: square"/>
   </g>
   <g id="line2d_40">
    <path d="M 256.95281 168.116225 
L 254.980684 167.934563 
L 253.010436 167.707166 
L 251.047053 167.408004 
L 249.09465 167.030045 
L 247.158561 166.565065 
L 245.244324 166.008503 
L 243.356351 165.361612 
L 241.495893 164.633741 
L 239.599487 163.999588 
L 237.610853 163.776267 
L 235.616511 163.952726 
L 233.653032 164.346546 
L 231.744571 164.953422 
L 229.844329 165.584998 
L 227.921491 166.142964 
L 225.981398 166.636097 
L 224.025779 167.061539 
L 222.056827 167.417734 
L 220.077361 167.706729 
L 218.09029 167.933741 
L 216.098166 168.10599 
L 214.102971 168.231556 
L 212.106102 168.318548 
L 210.108466 168.3746 
L 208.110595 168.406616 
L 206.112764 168.420674 
L 204.115081 168.422027 
L 202.117554 168.415169 
L 200.120142 168.403934 
L 198.122781 168.391609 
" clip-path="url(#p282afdeada)" style="fill: none; stroke: #ff0000; stroke-width: 0.25; stroke-linecap: square"/>
   </g>
   <g id="line2d_41">
    <path d="M 228.855557 155.412388 
L 228.685336 157.426495 
L 228.542058 159.445805 
L 228.452023 161.471243 
L 228.451381 163.50168 
L 228.580175 165.53091 
L 228.887186 167.543627 
L 229.435898 169.506805 
L 230.312391 171.349472 
L 231.399228 173.078431 
L 232.673676 174.67575 
L 234.119628 176.121003 
L 235.719687 177.394926 
L 237.453485 178.481218 
L 239.298247 179.366974 
L 241.230029 180.042145 
L 243.224864 180.496551 
L 245.257209 180.724494 
L 247.30105 180.723223 
L 249.33726 180.566831 
L 251.376684 180.510595 
L 253.414606 180.519487 
L 255.449788 180.562646 
L 257.482841 180.607269 
L 259.514293 180.643955 
L 261.544418 180.674033 
L 263.573492 180.698765 
L 265.601783 180.719127 
L 267.62955 180.736149 
L 269.657034 180.750589 
L 271.684447 180.761837 
" clip-path="url(#p282afdeada)" style="fill: none; stroke: #ff0000; stroke-opacity: 0.2; stroke-width: 0.25; stroke-linecap: square"/>
   </g>
   <g id="line2d_42">
    <path d="M 228.855557 155.412388 
L 228.685589 157.426517 
L 228.542725 159.44587 
L 228.453254 161.471361 
L 228.45334 163.501838 
L 228.583049 165.531059 
L 228.891195 167.543662 
L 229.441302 169.506518 
L 230.319489 171.348461 
L 231.407868 173.076542 
L 232.68383 174.672759 
L 234.131237 176.11668 
L 235.732653 177.389042 
L 237.467709 178.473499 
L 239.31363 179.357052 
L 241.246353 180.029799 
L 243.241824 180.481787 
L 245.274502 180.707449 
L 247.318406 180.704175 
L 249.354499 180.545611 
L 251.39391 180.48775 
L 253.431846 180.495526 
L 255.467027 180.538102 
L 257.500046 180.582492 
L 259.531439 180.619052 
L 261.561484 180.649072 
L 263.590457 180.673787 
L 265.61863 180.694162 
L 267.646264 180.711226 
L 269.673601 180.725752 
L 271.700858 180.737207 
" clip-path="url(#p282afdeada)" style="fill: none; stroke: #ff0000; stroke-opacity: 0.4; stroke-width: 0.25; stroke-linecap: square"/>
   </g>
   <g id="line2d_43">
    <path d="M 228.855557 155.412388 
L 228.685599 157.426518 
L 228.542837 159.445886 
L 228.453546 161.471399 
L 228.453912 163.501894 
L 228.584025 165.531114 
L 228.892735 167.543658 
L 229.443612 169.506329 
L 230.322827 171.347816 
L 231.411901 173.0755 
L 232.688086 174.671581 
L 234.135585 176.115456 
L 235.735992 177.38914 
L 237.469424 178.476247 
L 239.31431 179.362022 
L 241.247225 180.034282 
L 243.242891 180.485468 
L 245.275688 180.710074 
L 247.319579 180.705695 
L 249.355616 180.54678 
L 251.394985 180.489129 
L 253.432848 180.497609 
L 255.467909 180.541399 
L 257.500776 180.587328 
L 259.531998 180.625519 
L 261.561855 180.657219 
L 263.590627 180.683638 
L 265.618586 180.705732 
L 267.645994 180.724531 
L 269.673095 180.740823 
L 271.700107 180.754153 
" clip-path="url(#p282afdeada)" style="fill: none; stroke: #ff0000; stroke-opacity: 0.6; stroke-width: 0.25; stroke-linecap: square"/>
   </g>
   <g id="line2d_44">
    <path d="M 228.855557 155.412388 
L 228.685943 157.426547 
L 228.543726 159.445966 
L 228.455174 161.471537 
L 228.456495 163.502068 
L 228.587807 165.531256 
L 228.898002 167.543627 
L 229.450696 169.505853 
L 230.332106 171.346367 
L 231.422828 173.073099 
L 232.700464 174.668122 
L 234.149312 176.110763 
L 235.750549 177.383544 
L 237.484409 178.470139 
L 239.329739 179.355196 
L 241.263417 180.025532 
L 243.25967 180.474497 
L 245.292818 180.696585 
L 247.336765 180.689454 
L 249.372694 180.528551 
L 251.412054 180.46956 
L 253.449926 180.477293 
L 255.484971 180.52094 
L 257.517788 180.567133 
L 259.548935 180.605739 
L 261.578698 180.637958 
L 263.607356 180.664966 
L 265.635186 180.687701 
L 267.662451 180.707187 
L 269.689397 180.724221 
L 271.716247 180.738409 
" clip-path="url(#p282afdeada)" style="fill: none; stroke: #ff0000; stroke-opacity: 0.8; stroke-width: 0.25; stroke-linecap: square"/>
   </g>
   <g id="line2d_45">
    <path d="M 228.855557 155.412388 
L 228.685613 157.426519 
L 228.543065 159.445924 
L 228.454182 161.471496 
L 228.455199 163.50205 
L 228.586275 165.531281 
L 228.896349 167.543702 
L 229.449108 169.505946 
L 230.330866 171.346335 
L 231.420852 173.073578 
L 232.698029 174.669019 
L 234.14647 176.112126 
L 235.748201 177.384351 
L 237.483091 178.469375 
L 239.329029 179.353249 
L 241.262389 180.024597 
L 243.258424 180.474642 
L 245.291477 180.697735 
L 247.335426 180.691273 
L 249.37137 180.530753 
L 251.41072 180.472709 
L 253.448527 180.481845 
L 255.483448 180.52736 
L 257.516108 180.575694 
L 259.547082 180.616477 
L 261.576659 180.650871 
L 263.60512 180.680026 
L 265.632742 180.704878 
L 267.659788 180.726451 
L 269.686508 180.745569 
L 271.713124 180.761921 
" clip-path="url(#p282afdeada)" style="fill: none; stroke: #ff0000; stroke-width: 0.25; stroke-linecap: square"/>
   </g>
   <g id="line2d_46">
    <path d="M 212.47961 179.292033 
L 214.232745 179.270135 
L 215.982154 179.34371 
L 217.71714 179.562779 
L 219.407497 180.002931 
L 221.00333 180.708547 
L 222.522591 181.563376 
L 223.951983 182.558777 
L 225.278803 183.685464 
L 226.491349 184.932988 
L 227.578946 186.28991 
L 228.532039 187.743884 
L 229.342256 189.28177 
L 230.002465 190.889734 
L 230.506753 192.553383 
L 230.850647 194.257777 
L 231.031743 195.98753 
L 231.046469 197.727228 
L 230.969226 199.465868 
L 230.884789 201.204792 
L 230.792647 202.943946 
L 230.695523 204.683437 
L 230.597472 206.423454 
L 230.501888 208.164143 
L 230.410975 209.90556 
L 230.32569 211.647673 
L 230.246005 213.390388 
L 230.170955 215.133569 
L 230.098948 216.877058 
L 230.027765 218.620685 
L 229.955915 220.364324 
" clip-path="url(#p282afdeada)" style="fill: none; stroke: #ff0000; stroke-opacity: 0.2; stroke-width: 0.25; stroke-linecap: square"/>
   </g>
   <g id="line2d_47">
    <path d="M 212.47961 179.292033 
L 214.232744 179.270081 
L 215.982177 179.343273 
L 217.717232 179.561921 
L 219.40772 180.001665 
L 221.003776 180.706855 
L 222.523368 181.561177 
L 223.953182 182.556052 
L 225.280519 183.682214 
L 226.493669 184.929237 
L 227.581944 186.285704 
L 228.535773 187.739287 
L 229.346763 189.27686 
L 230.007755 190.884602 
L 230.512816 192.54812 
L 230.857435 194.252477 
L 231.038883 195.982309 
L 231.053646 197.722128 
L 230.976065 199.460883 
L 230.891224 201.199924 
L 230.798546 202.939195 
L 230.700786 204.678802 
L 230.602025 206.418939 
L 230.505681 208.159754 
L 230.413984 209.901304 
L 230.327924 211.643561 
L 230.247508 213.386432 
L 230.171814 215.12978 
L 230.099301 216.873449 
L 230.027801 218.617269 
L 229.955786 220.361111 
" clip-path="url(#p282afdeada)" style="fill: none; stroke: #ff0000; stroke-opacity: 0.4; stroke-width: 0.25; stroke-linecap: square"/>
   </g>
   <g id="line2d_48">
    <path d="M 212.47961 179.292033 
L 214.232745 179.270104 
L 215.9822 179.342998 
L 217.717319 179.561303 
L 219.407928 180.000701 
L 221.00379 180.706427 
L 222.523676 181.560325 
L 223.953959 182.554627 
L 225.281998 183.680066 
L 226.496037 184.92633 
L 227.585327 186.28209 
L 228.540196 187.735103 
L 229.352124 189.272298 
L 230.013816 190.879873 
L 230.519303 192.543387 
L 230.863887 194.247882 
L 231.043715 195.978021 
L 231.058066 197.717989 
L 230.979732 199.456864 
L 230.894114 201.196029 
L 230.800578 202.935422 
L 230.70191 204.675156 
L 230.602216 206.415426 
L 230.504936 208.156381 
L 230.412324 209.898083 
L 230.325397 211.640504 
L 230.244191 213.383553 
L 230.167822 215.127092 
L 230.094789 216.870965 
L 230.022957 218.615003 
L 229.950757 220.359071 
" clip-path="url(#p282afdeada)" style="fill: none; stroke: #ff0000; stroke-opacity: 0.6; stroke-width: 0.25; stroke-linecap: square"/>
   </g>
   <g id="line2d_49">
    <path d="M 212.47961 179.292033 
L 214.232744 179.270066 
L 215.982226 179.342573 
L 217.717424 179.560403 
L 219.408202 179.999269 
L 221.004078 180.705061 
L 222.524146 181.558732 
L 223.954663 182.552797 
L 225.283004 183.677982 
L 226.497394 184.924007 
L 227.587058 186.279575 
L 228.542283 187.732464 
L 229.354504 189.269618 
L 230.016375 190.877236 
L 230.521923 192.540855 
L 230.86639 194.245501 
L 231.045744 195.975823 
L 231.060379 197.71593 
L 230.981685 199.454938 
L 230.895711 201.194242 
L 230.801772 202.933778 
L 230.702685 204.67366 
L 230.602579 206.414085 
L 230.504913 208.155205 
L 230.411962 209.897083 
L 230.324769 211.639691 
L 230.24339 213.382937 
L 230.166975 215.126686 
L 230.094057 216.870782 
L 230.022523 218.615053 
L 229.950759 220.359364 
" clip-path="url(#p282afdeada)" style="fill: none; stroke: #ff0000; stroke-opacity: 0.8; stroke-width: 0.25; stroke-linecap: square"/>
   </g>
   <g id="line2d_50">
    <path d="M 212.47961 179.292033 
L 214.232743 179.269922 
L 215.982256 179.3419 
L 217.717556 179.559071 
L 219.408564 179.997162 
L 221.004922 180.701954 
L 222.525109 181.555503 
L 223.955634 182.54965 
L 225.283808 183.675126 
L 226.497878 184.921561 
L 227.587103 186.277579 
L 228.541842 187.730888 
L 229.353618 189.268381 
L 230.015188 190.876231 
L 230.520593 192.540004 
L 230.865223 194.244734 
L 231.046039 195.975025 
L 231.061127 197.715256 
L 230.982325 199.454394 
L 230.896245 201.193834 
L 230.802147 202.93351 
L 230.702882 204.673536 
L 230.602597 206.414111 
L 230.504772 208.15539 
L 230.411699 209.897434 
L 230.324445 211.640218 
L 230.243089 213.383649 
L 230.166808 215.127594 
L 230.094169 216.871896 
L 230.023081 218.616384 
L 229.95189 220.360919 
" clip-path="url(#p282afdeada)" style="fill: none; stroke: #ff0000; stroke-width: 0.25; stroke-linecap: square"/>
   </g>
   <g id="line2d_51">
    <path d="M 242.37239 228.461742 
L 242.378677 226.508254 
L 242.386799 224.55516 
L 242.39729 222.602427 
L 242.410441 220.649998 
L 242.426421 218.697785 
L 242.44521 216.745671 
L 242.466495 214.793506 
L 242.489555 212.841105 
L 242.513112 210.888246 
L 242.535161 208.934668 
L 242.552787 206.980076 
L 242.561973 205.02416 
L 242.55742 203.066633 
L 242.532412 201.107309 
L 242.478767 199.146222 
L 242.22228 197.198461 
L 241.892546 195.258511 
L 241.541198 193.318644 
L 241.19043 191.374462 
L 241.164087 189.394407 
L 241.613094 187.460622 
L 242.272234 185.582652 
L 243.134109 183.783254 
L 244.188938 182.084371 
L 245.287994 180.408693 
L 245.972709 178.521327 
L 246.116642 176.515686 
L 246.036718 174.504334 
L 245.736159 172.512731 
L 245.219188 170.56555 
" clip-path="url(#p282afdeada)" style="fill: none; stroke: #ff0000; stroke-opacity: 0.2; stroke-width: 0.25; stroke-linecap: square"/>
   </g>
   <g id="line2d_52">
    <path d="M 242.37239 228.461742 
L 242.378952 226.508255 
L 242.387342 224.554988 
L 242.398189 222.601925 
L 242.411791 220.649021 
L 242.428329 218.696203 
L 242.447786 216.743367 
L 242.469852 214.790379 
L 242.493798 212.837067 
L 242.518328 210.883224 
L 242.541405 208.928599 
L 242.560061 206.97291 
L 242.570194 205.01586 
L 242.566388 203.057177 
L 242.541768 201.096691 
L 242.487945 199.134463 
L 242.233872 197.185261 
L 241.905927 195.243922 
L 241.554597 193.303025 
L 241.201075 191.358392 
L 241.169519 189.377572 
L 241.616904 187.442659 
L 242.273467 185.56314 
L 243.133366 183.762277 
L 244.188335 182.063119 
L 245.27248 180.377608 
L 245.946513 178.486468 
L 246.081214 176.480419 
L 245.994245 174.469725 
L 245.685843 172.479776 
L 245.158924 170.535765 
" clip-path="url(#p282afdeada)" style="fill: none; stroke: #ff0000; stroke-opacity: 0.4; stroke-width: 0.25; stroke-linecap: square"/>
   </g>
   <g id="line2d_53">
    <path d="M 242.37239 228.461742 
L 242.378769 226.508254 
L 242.386887 224.554886 
L 242.397475 222.601617 
L 242.410866 220.648397 
L 242.427273 218.695151 
L 242.446712 216.741771 
L 242.468907 214.788119 
L 242.493156 212.83402 
L 242.518186 210.879261 
L 242.541972 208.92359 
L 242.561539 206.966718 
L 242.572761 205.00834 
L 242.57017 203.048175 
L 242.546808 201.086046 
L 242.494161 199.122008 
L 242.244271 197.170318 
L 241.92046 195.226169 
L 241.572281 193.282423 
L 241.220222 191.335082 
L 241.19056 189.351668 
L 241.640564 187.41457 
L 242.301075 185.533391 
L 243.165526 183.731368 
L 244.224577 182.031056 
L 245.292425 180.331341 
L 245.939836 178.427419 
L 246.06283 176.417258 
L 245.962399 174.403833 
L 245.638264 172.413003 
L 245.096597 170.469597 
" clip-path="url(#p282afdeada)" style="fill: none; stroke: #ff0000; stroke-opacity: 0.6; stroke-width: 0.25; stroke-linecap: square"/>
   </g>
   <g id="line2d_54">
    <path d="M 242.37239 228.461742 
L 242.378944 226.508255 
L 242.387249 224.554824 
L 242.398078 222.60143 
L 242.411766 220.648029 
L 242.428526 218.694545 
L 242.448378 216.740875 
L 242.47104 214.786883 
L 242.495808 212.832397 
L 242.521397 210.877206 
L 242.545762 208.92106 
L 242.565898 206.963672 
L 242.577634 205.004737 
L 242.575438 203.043979 
L 242.552264 201.081224 
L 242.499484 199.116538 
L 242.249794 197.164141 
L 241.925587 195.219352 
L 241.57617 193.275104 
L 241.221775 191.327447 
L 241.190068 189.34333 
L 241.640139 187.405487 
L 242.300157 185.523355 
L 243.164271 183.720363 
L 244.223573 182.019367 
L 245.284362 180.314424 
L 245.923847 178.407125 
L 246.041521 176.396012 
L 245.936261 174.382227 
L 245.608189 172.391448 
L 245.061327 170.448899 
" clip-path="url(#p282afdeada)" style="fill: none; stroke: #ff0000; stroke-opacity: 0.8; stroke-width: 0.25; stroke-linecap: square"/>
   </g>
   <g id="line2d_55">
    <path d="M 242.37239 228.461742 
L 242.378886 226.508255 
L 242.387098 224.554723 
L 242.397851 222.601133 
L 242.411492 220.647442 
L 242.428252 218.69358 
L 242.448164 216.739447 
L 242.470964 214.784911 
L 242.495961 212.829804 
L 242.52188 210.87392 
L 242.546681 208.917011 
L 242.567359 206.958794 
L 242.579728 204.998967 
L 242.578228 203.037253 
L 242.555767 201.073481 
L 242.50365 199.10772 
L 242.255811 197.153977 
L 241.933323 195.207748 
L 241.585042 193.262104 
L 241.230851 191.31319 
L 241.198819 189.327854 
L 241.648523 187.388653 
L 242.309959 185.50569 
L 243.176159 183.702297 
L 244.237449 182.00104 
L 245.290834 180.290012 
L 245.921286 178.378362 
L 246.034132 176.365698 
L 245.923575 174.350934 
L 245.58955 172.359882 
L 245.037965 170.417379 
" clip-path="url(#p282afdeada)" style="fill: none; stroke: #ff0000; stroke-width: 0.25; stroke-linecap: square"/>
   </g>
   <g id="line2d_56">
    <path d="M 288.746216 168.290367 
L 286.776086 168.277976 
L 284.80487 168.26318 
L 282.832451 168.245941 
L 280.858707 168.226608 
L 278.883503 168.205873 
L 276.906694 168.184887 
L 274.928123 168.165388 
L 272.947624 168.149852 
L 270.965035 168.141653 
L 268.980228 168.145226 
L 266.993159 168.166213 
L 265.003955 168.211587 
L 263.013045 168.2897 
L 261.021344 168.410236 
L 259.030474 168.583993 
L 257.042994 168.822387 
L 255.059689 169.11798 
L 253.058199 169.289714 
L 251.046396 169.24007 
L 249.04237 169.023369 
L 247.028914 168.879606 
L 245.008306 168.837928 
L 242.987653 168.936782 
L 240.983531 169.224444 
L 239.038207 169.789726 
L 237.218659 170.681742 
L 235.509368 171.770672 
L 233.92439 173.033814 
L 232.493753 174.469628 
L 231.23051 176.054901 
" clip-path="url(#p282afdeada)" style="fill: none; stroke: #ff0000; stroke-opacity: 0.2; stroke-width: 0.25; stroke-linecap: square"/>
   </g>
   <g id="line2d_57">
    <path d="M 288.746216 168.290367 
L 286.776087 168.277811 
L 284.804421 168.262941 
L 282.8311 168.245679 
L 280.855999 168.226398 
L 278.878983 168.205821 
L 276.899902 168.185137 
L 274.9186 168.16613 
L 272.934908 168.151332 
L 270.948666 168.144188 
L 268.959752 168.149217 
L 266.968131 168.172167 
L 264.973951 168.22013 
L 262.977676 168.301605 
L 260.980273 168.426422 
L 258.983444 168.60552 
L 256.989857 168.850477 
L 255.000059 169.151923 
L 252.991195 169.327881 
L 250.971214 169.281019 
L 248.958516 169.065682 
L 246.936058 168.924358 
L 244.906277 168.886449 
L 242.876558 168.991067 
L 240.864053 169.287411 
L 238.912638 169.866374 
L 237.088731 170.771703 
L 235.375826 171.873265 
L 233.791527 173.153016 
L 232.364402 174.606164 
L 231.107087 176.208673 
" clip-path="url(#p282afdeada)" style="fill: none; stroke: #ff0000; stroke-opacity: 0.4; stroke-width: 0.25; stroke-linecap: square"/>
   </g>
   <g id="line2d_58">
    <path d="M 288.746216 168.290367 
L 286.776089 168.277594 
L 284.804224 168.262564 
L 282.830502 168.24513 
L 280.854799 168.225677 
L 278.876976 168.204943 
L 276.896885 168.184136 
L 274.914367 168.165068 
L 272.929256 168.150311 
L 270.941391 168.143354 
L 268.950652 168.148776 
L 266.957014 168.172396 
L 264.960635 168.221391 
L 262.962001 168.304353 
L 260.962112 168.431198 
L 258.962715 168.612948 
L 256.966543 168.861258 
L 254.973814 169.164412 
L 252.961546 169.339524 
L 250.938168 169.289792 
L 248.922329 169.07006 
L 246.896404 168.925125 
L 244.862855 168.88462 
L 242.829173 168.988217 
L 240.812863 169.286009 
L 238.859077 169.871115 
L 237.0316 170.778375 
L 235.315597 171.882641 
L 233.734681 173.173018 
L 232.308664 174.632939 
L 231.054841 176.243322 
" clip-path="url(#p282afdeada)" style="fill: none; stroke: #ff0000; stroke-opacity: 0.6; stroke-width: 0.25; stroke-linecap: square"/>
   </g>
   <g id="line2d_59">
    <path d="M 288.746216 168.290367 
L 286.776092 168.277077 
L 284.804058 168.261494 
L 282.829996 168.243403 
L 280.853781 168.2232 
L 278.875274 168.201639 
L 276.894329 168.179953 
L 274.910784 168.159984 
L 272.924472 168.144344 
L 270.935235 168.136579 
L 268.942952 168.141337 
L 266.9476 168.164522 
L 264.949347 168.213413 
L 262.948694 168.296724 
L 260.946671 168.424495 
L 258.945071 168.607877 
L 256.946697 168.85866 
L 254.95147 169.162927 
L 252.936335 169.337081 
L 250.910117 169.284986 
L 248.891606 169.062001 
L 246.862696 168.915216 
L 244.82595 168.874646 
L 242.789124 168.980727 
L 240.770383 169.284718 
L 238.81692 169.882454 
L 236.989023 170.796411 
L 235.273881 171.908195 
L 233.695052 173.206387 
L 232.272071 174.673898 
L 231.022262 176.291584 
" clip-path="url(#p282afdeada)" style="fill: none; stroke: #ff0000; stroke-opacity: 0.8; stroke-width: 0.25; stroke-linecap: square"/>
   </g>
   <g id="line2d_60">
    <path d="M 288.746216 168.290367 
L 286.776093 168.27695 
L 284.803954 168.261284 
L 282.829682 168.243091 
L 280.853151 168.22277 
L 278.874225 168.201078 
L 276.892757 168.179254 
L 274.908585 168.159155 
L 272.921545 168.143413 
L 270.931478 168.1356 
L 268.938265 168.140401 
L 266.941887 168.163769 
L 264.942519 168.213042 
L 262.940673 168.297002 
L 260.9374 168.42577 
L 258.934524 168.610567 
L 256.934891 168.863258 
L 254.938191 169.168281 
L 252.921328 169.341599 
L 250.893438 169.287535 
L 248.873446 169.06167 
L 246.842903 168.911827 
L 244.804301 168.869035 
L 242.765484 168.974245 
L 240.744946 169.279562 
L 238.791078 169.882771 
L 236.962256 170.799354 
L 235.248285 171.91661 
L 233.668628 173.216937 
L 232.243732 174.68536 
L 230.992485 176.304439 
" clip-path="url(#p282afdeada)" style="fill: none; stroke: #ff0000; stroke-width: 0.25; stroke-linecap: square"/>
   </g>
   <g id="line2d_61">
    <path d="M 229.964502 118.447805 
L 229.969418 120.265633 
L 229.976856 122.080346 
L 229.987637 123.891903 
L 230.002424 125.700262 
L 230.021874 127.505379 
L 230.046605 129.307208 
L 230.077143 131.105703 
L 230.113848 132.900822 
L 230.156818 134.69253 
L 230.205766 136.48081 
L 230.259863 138.265671 
L 230.31755 140.047162 
L 230.376312 141.825387 
L 230.432413 143.600503 
L 230.480602 145.37271 
L 230.51377 147.142187 
L 230.522583 148.908964 
L 230.495064 150.672663 
L 230.416114 152.432048 
L 230.266934 154.184255 
L 230.024267 155.92352 
L 229.659299 157.639008 
L 229.135908 159.310879 
L 228.424702 160.909997 
L 227.493098 162.389823 
L 226.421229 163.769851 
L 225.249475 165.064748 
L 224.106875 166.384387 
L 223.032247 167.759266 
L 221.974379 169.146763 
" clip-path="url(#p282afdeada)" style="fill: none; stroke: #ff0000; stroke-opacity: 0.2; stroke-width: 0.25; stroke-linecap: square"/>
   </g>
   <g id="line2d_62">
    <path d="M 229.964502 118.447805 
L 229.969782 120.265632 
L 229.977526 122.080352 
L 229.988637 123.891923 
L 230.003757 125.700299 
L 230.023525 127.505436 
L 230.048546 129.307286 
L 230.079331 131.105802 
L 230.11623 132.900939 
L 230.159335 134.692663 
L 230.208355 136.480953 
L 230.26246 138.265819 
L 230.320092 140.047309 
L 230.378742 141.825523 
L 230.434679 143.600619 
L 230.482653 145.372792 
L 230.515552 147.14222 
L 230.524031 148.908929 
L 230.496078 150.672536 
L 230.416534 152.43179 
L 230.266488 154.1838 
L 230.022479 155.922736 
L 229.65532 157.637593 
L 229.128153 159.30809 
L 228.410513 160.904114 
L 227.469646 162.377811 
L 226.391349 163.752521 
L 225.215852 165.043677 
L 224.072816 166.362583 
L 222.981024 167.723512 
L 221.90264 169.094748 
" clip-path="url(#p282afdeada)" style="fill: none; stroke: #ff0000; stroke-opacity: 0.4; stroke-width: 0.25; stroke-linecap: square"/>
   </g>
   <g id="line2d_63">
    <path d="M 229.964502 118.447805 
L 229.970197 120.26563 
L 229.978328 122.080317 
L 229.989871 123.89182 
L 230.005453 125.700097 
L 230.025697 127.505103 
L 230.05119 129.306791 
L 230.082428 131.105114 
L 230.119749 132.90003 
L 230.163229 134.691504 
L 230.212564 136.479519 
L 230.266912 138.264084 
L 230.324702 140.045251 
L 230.383409 141.823121 
L 230.439287 143.597854 
L 230.487063 145.369645 
L 230.519601 147.138672 
L 230.527513 148.904956 
L 230.498737 150.668102 
L 230.418032 152.42684 
L 230.266365 154.17823 
L 230.02008 155.916347 
L 229.649653 157.629984 
L 229.117577 159.298383 
L 228.392456 160.890446 
L 227.448088 162.361269 
L 226.366734 163.732889 
L 225.192601 165.024551 
L 224.056745 166.348925 
L 222.967534 167.711219 
L 221.889668 169.082167 
" clip-path="url(#p282afdeada)" style="fill: none; stroke: #ff0000; stroke-opacity: 0.6; stroke-width: 0.25; stroke-linecap: square"/>
   </g>
   <g id="line2d_64">
    <path d="M 229.964502 118.447805 
L 229.970451 120.26563 
L 229.978789 122.0803 
L 229.990571 123.891774 
L 230.006419 125.700005 
L 230.026953 127.504951 
L 230.052753 129.306563 
L 230.084313 131.104795 
L 230.121962 132.899605 
L 230.165772 134.690958 
L 230.215429 136.478838 
L 230.27008 138.263255 
L 230.328141 140.04426 
L 230.387067 141.821958 
L 230.443088 143.596508 
L 230.490902 145.368108 
L 230.523328 147.136934 
L 230.530925 148.903005 
L 230.501555 150.665917 
L 230.419879 152.424374 
L 230.266722 154.175388 
L 230.018216 155.912931 
L 229.644496 157.625585 
L 229.107425 159.292098 
L 228.374724 160.88038 
L 227.426769 162.348557 
L 226.342205 163.717271 
L 225.168084 165.008545 
L 224.03704 166.33664 
L 222.951139 167.701192 
L 221.877004 169.074684 
" clip-path="url(#p282afdeada)" style="fill: none; stroke: #ff0000; stroke-opacity: 0.8; stroke-width: 0.25; stroke-linecap: square"/>
   </g>
   <g id="line2d_65">
    <path d="M 229.964502 118.447805 
L 229.970406 120.26563 
L 229.978666 122.080291 
L 229.990353 123.891745 
L 230.006093 125.699948 
L 230.026504 127.504856 
L 230.052171 129.306423 
L 230.083588 131.104601 
L 230.121087 132.89935 
L 230.16474 134.690635 
L 230.214234 136.478439 
L 230.268718 138.262774 
L 230.326606 140.04369 
L 230.385355 141.821292 
L 230.441193 143.59574 
L 230.488813 145.367231 
L 230.521032 147.135941 
L 230.528403 148.901888 
L 230.498776 150.664665 
L 230.416799 152.422972 
L 230.263276 154.173814 
L 230.014305 155.911145 
L 229.639961 157.623511 
L 229.101991 159.289575 
L 228.367936 160.877063 
L 227.419222 162.344562 
L 226.334225 163.712728 
L 225.160769 165.00439 
L 224.031409 166.333703 
L 222.947091 167.699305 
L 221.874215 169.073574 
" clip-path="url(#p282afdeada)" style="fill: none; stroke: #ff0000; stroke-width: 0.25; stroke-linecap: square"/>
   </g>
   <g id="line2d_66">
    <path d="M 182.295777 180.725203 
L 184.256313 180.720749 
L 186.216375 180.714966 
L 188.175749 180.707492 
L 190.134248 180.698114 
L 192.091706 180.686627 
L 194.047988 180.672875 
L 196.002978 180.656786 
L 197.956593 180.638438 
L 199.908774 180.61814 
L 201.859495 180.596527 
L 203.80876 180.574694 
L 205.756609 180.554341 
L 207.70311 180.537951 
L 209.648346 180.528978 
L 211.592389 180.532056 
L 213.535236 180.553191 
L 215.476708 180.599934 
L 217.416288 180.681486 
L 219.35288 180.808693 
L 221.284508 180.993857 
L 223.208463 181.246501 
L 225.120771 181.577425 
L 227.016394 181.99585 
L 228.889751 182.50774 
L 230.736123 183.113057 
L 232.570087 183.758819 
L 234.45191 184.253425 
L 236.3897 184.442957 
L 238.324319 184.215292 
L 240.223625 183.780664 
" clip-path="url(#p282afdeada)" style="fill: none; stroke: #ff0000; stroke-opacity: 0.2; stroke-width: 0.25; stroke-linecap: square"/>
   </g>
   <g id="line2d_67">
    <path d="M 182.295777 180.725203 
L 184.256313 180.720731 
L 186.216594 180.715029 
L 188.176401 180.707635 
L 190.135539 180.698319 
L 192.093839 180.686864 
L 194.051157 180.673099 
L 196.007374 180.65695 
L 197.9624 180.638498 
L 199.916169 180.618066 
L 201.86865 180.596317 
L 203.819842 180.574392 
L 205.769777 180.554051 
L 207.718516 180.537858 
L 209.666136 180.529368 
L 211.612695 180.533326 
L 213.558171 180.555864 
L 215.502357 180.604649 
L 217.444692 180.688979 
L 219.384024 180.819745 
L 221.318305 181.009201 
L 223.244807 181.266441 
L 225.159573 181.601839 
L 227.057693 182.023937 
L 228.93392 182.53769 
L 230.784144 183.141748 
L 232.624707 183.778488 
L 234.514157 184.256468 
L 236.457654 184.418512 
L 238.39345 184.174248 
L 240.292486 183.724519 
" clip-path="url(#p282afdeada)" style="fill: none; stroke: #ff0000; stroke-opacity: 0.4; stroke-width: 0.25; stroke-linecap: square"/>
   </g>
   <g id="line2d_68">
    <path d="M 182.295777 180.725203 
L 184.256313 180.720625 
L 186.216681 180.714887 
L 188.176663 180.70746 
L 190.136065 180.698112 
L 192.094719 180.68663 
L 194.052482 180.672849 
L 196.009235 180.656706 
L 197.964889 180.6383 
L 199.919381 180.61798 
L 201.872678 180.596451 
L 203.824782 180.574902 
L 205.775725 180.555162 
L 207.725568 180.539876 
L 209.674383 180.532696 
L 211.622221 180.538476 
L 213.569045 180.563463 
L 215.514619 180.615439 
L 217.458337 180.703796 
L 219.398984 180.839483 
L 221.334435 181.034735 
L 223.261912 181.298355 
L 225.177432 181.640403 
L 227.076147 182.068893 
L 228.95302 182.58802 
L 230.804365 183.195449 
L 232.648209 183.829341 
L 234.541899 184.299522 
L 236.488743 184.447841 
L 238.426078 184.197834 
L 240.326046 183.742302 
" clip-path="url(#p282afdeada)" style="fill: none; stroke: #ff0000; stroke-opacity: 0.6; stroke-width: 0.25; stroke-linecap: square"/>
   </g>
   <g id="line2d_69">
    <path d="M 182.295777 180.725203 
L 184.256313 180.720679 
L 186.216756 180.715066 
L 188.176885 180.707786 
L 190.136504 180.698599 
L 192.095442 180.687284 
L 194.053556 180.673671 
L 196.010723 180.657694 
L 197.966852 180.639452 
L 199.921878 180.619301 
L 201.875766 180.597957 
L 203.828514 180.576625 
L 205.780153 180.557162 
L 207.730741 180.542243 
L 209.680346 180.53556 
L 211.629012 180.542011 
L 213.576694 180.567885 
L 215.523143 180.620998 
L 217.467735 180.710762 
L 219.409233 180.848108 
L 221.345492 181.045198 
L 223.273746 181.310568 
L 225.190056 181.654007 
L 227.089673 182.083179 
L 228.967763 182.601776 
L 230.820957 183.206857 
L 232.667761 183.835228 
L 234.564475 184.297293 
L 236.513184 184.433551 
L 238.450938 184.1793 
L 240.350417 183.717671 
" clip-path="url(#p282afdeada)" style="fill: none; stroke: #ff0000; stroke-opacity: 0.8; stroke-width: 0.25; stroke-linecap: square"/>
   </g>
   <g id="line2d_70">
    <path d="M 182.295777 180.725203 
L 184.256313 180.720663 
L 186.216795 180.715083 
L 188.177002 180.707855 
L 190.13674 180.698745 
L 192.095836 180.687535 
L 194.054147 180.674062 
L 196.011553 180.658267 
L 197.96796 180.640261 
L 199.923304 180.620415 
L 201.877552 180.599463 
L 203.830701 180.578636 
L 205.782781 180.559817 
L 207.733849 180.545717 
L 209.683971 180.540063 
L 211.633184 180.547795 
L 213.581435 180.575237 
L 215.52846 180.630237 
L 217.473615 180.722221 
L 219.415636 180.862107 
L 221.352348 181.062001 
L 223.280984 181.330245 
L 225.197618 181.676419 
L 227.097569 182.107893 
L 228.976148 182.627958 
L 230.830228 183.233194 
L 232.678821 183.859134 
L 234.577613 184.316574 
L 236.52784 184.444366 
L 238.465704 184.183743 
L 240.364634 183.715886 
" clip-path="url(#p282afdeada)" style="fill: none; stroke: #ff0000; stroke-width: 0.25; stroke-linecap: square"/>
   </g>
   <g id="line2d_71">
    <path d="M 242.36028 263.84184 
L 242.36028 262.01232 
L 242.36028 260.1828 
L 242.36028 258.35328 
L 242.36028 256.52376 
L 242.36028 254.69424 
L 242.36028 252.86472 
L 242.36028 251.0352 
L 242.36028 249.20568 
L 242.36028 247.37616 
L 242.36028 245.54664 
L 242.36028 243.71712 
L 242.36028 241.8876 
L 242.36028 240.05808 
L 242.36028 238.22856 
L 242.36028 236.39904 
L 242.36028 234.56952 
L 242.36028 232.74 
L 242.36028 230.91048 
L 242.36028 229.08096 
L 242.36028 227.25144 
L 242.36028 225.42192 
L 242.36028 223.5924 
L 242.36028 221.76288 
L 242.36028 219.93336 
L 242.36028 218.10384 
L 242.36028 216.27432 
L 242.36028 214.4448 
L 242.36028 212.61528 
L 242.36028 210.78576 
L 242.36028 208.95624 
" clip-path="url(#p282afdeada)" style="fill: none; stroke: #ff0000; stroke-opacity: 0.2; stroke-width: 0.25; stroke-linecap: square"/>
   </g>
   <g id="line2d_72">
    <path d="M 242.36028 263.84184 
L 242.36028 262.01232 
L 242.36028 260.1828 
L 242.36028 258.35328 
L 242.36028 256.52376 
L 242.36028 254.69424 
L 242.36028 252.86472 
L 242.36028 251.0352 
L 242.36028 249.20568 
L 242.36028 247.37616 
L 242.36028 245.54664 
L 242.36028 243.71712 
L 242.36028 241.8876 
L 242.36028 240.05808 
L 242.36028 238.22856 
L 242.36028 236.39904 
L 242.36028 234.56952 
L 242.36028 232.74 
L 242.36028 230.91048 
L 242.36028 229.08096 
L 242.36028 227.25144 
L 242.36028 225.42192 
L 242.36028 223.5924 
L 242.36028 221.76288 
L 242.36028 219.93336 
L 242.36028 218.10384 
L 242.36028 216.27432 
L 242.36028 214.4448 
L 242.36028 212.61528 
L 242.36028 210.78576 
L 242.36028 208.95624 
" clip-path="url(#p282afdeada)" style="fill: none; stroke: #ff0000; stroke-opacity: 0.4; stroke-width: 0.25; stroke-linecap: square"/>
   </g>
   <g id="line2d_73">
    <path d="M 242.36028 263.84184 
L 242.36028 262.01232 
L 242.36028 260.1828 
L 242.36028 258.35328 
L 242.36028 256.52376 
L 242.36028 254.69424 
L 242.36028 252.86472 
L 242.36028 251.0352 
L 242.36028 249.20568 
L 242.36028 247.37616 
L 242.36028 245.54664 
L 242.36028 243.71712 
L 242.36028 241.8876 
L 242.36028 240.05808 
L 242.36028 238.22856 
L 242.36028 236.39904 
L 242.36028 234.56952 
L 242.36028 232.74 
L 242.36028 230.91048 
L 242.36028 229.08096 
L 242.36028 227.25144 
L 242.36028 225.42192 
L 242.36028 223.5924 
L 242.36028 221.76288 
L 242.36028 219.93336 
L 242.36028 218.10384 
L 242.36028 216.27432 
L 242.36028 214.4448 
L 242.36028 212.61528 
L 242.36028 210.78576 
L 242.36028 208.95624 
" clip-path="url(#p282afdeada)" style="fill: none; stroke: #ff0000; stroke-opacity: 0.6; stroke-width: 0.25; stroke-linecap: square"/>
   </g>
   <g id="line2d_74">
    <path d="M 242.36028 263.84184 
L 242.36028 262.01232 
L 242.36028 260.1828 
L 242.36028 258.35328 
L 242.36028 256.52376 
L 242.36028 254.69424 
L 242.36028 252.86472 
L 242.36028 251.0352 
L 242.36028 249.20568 
L 242.36028 247.37616 
L 242.36028 245.54664 
L 242.36028 243.71712 
L 242.36028 241.8876 
L 242.36028 240.05808 
L 242.36028 238.22856 
L 242.36028 236.39904 
L 242.36028 234.56952 
L 242.36028 232.74 
L 242.36028 230.91048 
L 242.36028 229.08096 
L 242.36028 227.25144 
L 242.36028 225.42192 
L 242.36028 223.5924 
L 242.36028 221.76288 
L 242.36028 219.93336 
L 242.36028 218.10384 
L 242.36028 216.27432 
L 242.36028 214.4448 
L 242.36028 212.61528 
L 242.36028 210.78576 
L 242.36028 208.95624 
" clip-path="url(#p282afdeada)" style="fill: none; stroke: #ff0000; stroke-opacity: 0.8; stroke-width: 0.25; stroke-linecap: square"/>
   </g>
   <g id="line2d_75">
    <path d="M 242.36028 263.84184 
L 242.36028 262.01232 
L 242.36028 260.1828 
L 242.36028 258.35328 
L 242.36028 256.52376 
L 242.36028 254.69424 
L 242.36028 252.86472 
L 242.36028 251.0352 
L 242.36028 249.20568 
L 242.36028 247.37616 
L 242.36028 245.54664 
L 242.36028 243.71712 
L 242.36028 241.8876 
L 242.36028 240.05808 
L 242.36028 238.22856 
L 242.36028 236.39904 
L 242.36028 234.56952 
L 242.36028 232.74 
L 242.36028 230.91048 
L 242.36028 229.08096 
L 242.36028 227.25144 
L 242.36028 225.42192 
L 242.36028 223.5924 
L 242.36028 221.76288 
L 242.36028 219.93336 
L 242.36028 218.10384 
L 242.36028 216.27432 
L 242.36028 214.4448 
L 242.36028 212.61528 
L 242.36028 210.78576 
L 242.36028 208.95624 
" clip-path="url(#p282afdeada)" style="fill: none; stroke: #ff0000; stroke-width: 0.25; stroke-linecap: square"/>
   </g>
   <g id="line2d_76">
    <path d="M 321.910001 168.32772 
L 319.925532 168.32772 
L 317.941062 168.32772 
L 315.956593 168.32772 
L 313.972123 168.32772 
L 311.987654 168.32772 
L 310.003184 168.32772 
L 308.018715 168.32772 
L 306.034245 168.32772 
L 304.049776 168.32772 
L 302.065306 168.32772 
L 300.080837 168.32772 
L 298.096367 168.32772 
L 296.111898 168.32772 
L 294.127428 168.32772 
L 292.142959 168.32772 
L 290.158489 168.32772 
L 288.17402 168.32772 
L 286.18955 168.32772 
L 284.20508 168.32772 
L 282.220611 168.32772 
L 280.236141 168.32772 
L 278.251672 168.32772 
L 276.267202 168.32772 
L 274.282733 168.32772 
L 272.298263 168.32772 
L 270.313794 168.32772 
L 268.329324 168.32772 
L 266.344855 168.32772 
L 264.360385 168.32772 
L 262.375916 168.32772 
" clip-path="url(#p282afdeada)" style="fill: none; stroke: #ff0000; stroke-opacity: 0.2; stroke-width: 0.25; stroke-linecap: square"/>
   </g>
   <g id="line2d_77">
    <path d="M 321.910001 168.32772 
L 319.925532 168.32772 
L 317.941062 168.32772 
L 315.956593 168.32772 
L 313.972123 168.32772 
L 311.987654 168.32772 
L 310.003184 168.32772 
L 308.018715 168.32772 
L 306.034245 168.32772 
L 304.049776 168.32772 
L 302.065306 168.32772 
L 300.080837 168.32772 
L 298.096367 168.32772 
L 296.111898 168.32772 
L 294.127428 168.32772 
L 292.142959 168.32772 
L 290.158489 168.32772 
L 288.17402 168.32772 
L 286.18955 168.32772 
L 284.20508 168.32772 
L 282.220611 168.32772 
L 280.236141 168.32772 
L 278.251672 168.32772 
L 276.267202 168.32772 
L 274.282733 168.32772 
L 272.298263 168.32772 
L 270.313794 168.32772 
L 268.329324 168.32772 
L 266.344855 168.32772 
L 264.360385 168.32772 
L 262.375916 168.32772 
" clip-path="url(#p282afdeada)" style="fill: none; stroke: #ff0000; stroke-opacity: 0.4; stroke-width: 0.25; stroke-linecap: square"/>
   </g>
   <g id="line2d_78">
    <path d="M 321.910001 168.32772 
L 319.925532 168.32772 
L 317.941062 168.32772 
L 315.956593 168.32772 
L 313.972123 168.32772 
L 311.987654 168.32772 
L 310.003184 168.32772 
L 308.018715 168.32772 
L 306.034245 168.32772 
L 304.049776 168.32772 
L 302.065306 168.32772 
L 300.080837 168.32772 
L 298.096367 168.32772 
L 296.111898 168.32772 
L 294.127428 168.32772 
L 292.142959 168.32772 
L 290.158489 168.32772 
L 288.17402 168.32772 
L 286.18955 168.32772 
L 284.20508 168.32772 
L 282.220611 168.32772 
L 280.236141 168.32772 
L 278.251672 168.32772 
L 276.267202 168.32772 
L 274.282733 168.32772 
L 272.298263 168.32772 
L 270.313794 168.32772 
L 268.329324 168.32772 
L 266.344855 168.32772 
L 264.360385 168.32772 
L 262.375916 168.32772 
" clip-path="url(#p282afdeada)" style="fill: none; stroke: #ff0000; stroke-opacity: 0.6; stroke-width: 0.25; stroke-linecap: square"/>
   </g>
   <g id="line2d_79">
    <path d="M 321.910001 168.32772 
L 319.925532 168.32772 
L 317.941062 168.32772 
L 315.956593 168.32772 
L 313.972123 168.32772 
L 311.987654 168.32772 
L 310.003184 168.32772 
L 308.018715 168.32772 
L 306.034245 168.32772 
L 304.049776 168.32772 
L 302.065306 168.32772 
L 300.080837 168.32772 
L 298.096367 168.32772 
L 296.111898 168.32772 
L 294.127428 168.32772 
L 292.142959 168.32772 
L 290.158489 168.32772 
L 288.17402 168.32772 
L 286.18955 168.32772 
L 284.20508 168.32772 
L 282.220611 168.32772 
L 280.236141 168.32772 
L 278.251672 168.32772 
L 276.267202 168.32772 
L 274.282733 168.32772 
L 272.298263 168.32772 
L 270.313794 168.32772 
L 268.329324 168.32772 
L 266.344855 168.32772 
L 264.360385 168.32772 
L 262.375916 168.32772 
" clip-path="url(#p282afdeada)" style="fill: none; stroke: #ff0000; stroke-opacity: 0.8; stroke-width: 0.25; stroke-linecap: square"/>
   </g>
   <g id="line2d_80">
    <path d="M 321.910001 168.32772 
L 319.925532 168.32772 
L 317.941062 168.32772 
L 315.956593 168.32772 
L 313.972123 168.32772 
L 311.987654 168.32772 
L 310.003184 168.32772 
L 308.018715 168.32772 
L 306.034245 168.32772 
L 304.049776 168.32772 
L 302.065306 168.32772 
L 300.080837 168.32772 
L 298.096367 168.32772 
L 296.111898 168.32772 
L 294.127428 168.32772 
L 292.142959 168.32772 
L 290.158489 168.32772 
L 288.17402 168.32772 
L 286.18955 168.32772 
L 284.20508 168.32772 
L 282.220611 168.32772 
L 280.236141 168.32772 
L 278.251672 168.32772 
L 276.267202 168.32772 
L 274.282733 168.32772 
L 272.298263 168.32772 
L 270.313794 168.32772 
L 268.329324 168.32772 
L 266.344855 168.32772 
L 264.360385 168.32772 
L 262.375916 168.32772 
" clip-path="url(#p282afdeada)" style="fill: none; stroke: #ff0000; stroke-width: 0.25; stroke-linecap: square"/>
   </g>
   <g id="line2d_81">
    <path d="M 229.95972 85.21416 
L 229.95972 87.04368 
L 229.95972 88.8732 
L 229.95972 90.70272 
L 229.95972 92.53224 
L 229.95972 94.36176 
L 229.95972 96.19128 
L 229.95972 98.0208 
L 229.95972 99.85032 
L 229.95972 101.67984 
L 229.95972 103.50936 
L 229.95972 105.33888 
L 229.95972 107.1684 
L 229.95972 108.99792 
L 229.95972 110.82744 
L 229.95972 112.65696 
L 229.95972 114.48648 
L 229.95972 116.316 
L 229.95972 118.14552 
L 229.95972 119.97504 
L 229.95972 121.80456 
L 229.95972 123.63408 
L 229.95972 125.4636 
L 229.95972 127.29312 
L 229.95972 129.12264 
L 229.95972 130.95216 
L 229.95972 132.78168 
L 229.95972 134.6112 
L 229.95972 136.44072 
L 229.95972 138.27024 
L 229.95972 140.09976 
" clip-path="url(#p282afdeada)" style="fill: none; stroke: #ff0000; stroke-opacity: 0.2; stroke-width: 0.25; stroke-linecap: square"/>
   </g>
   <g id="line2d_82">
    <path d="M 229.95972 85.21416 
L 229.95972 87.04368 
L 229.95972 88.8732 
L 229.95972 90.70272 
L 229.95972 92.53224 
L 229.95972 94.36176 
L 229.95972 96.19128 
L 229.95972 98.0208 
L 229.95972 99.85032 
L 229.95972 101.67984 
L 229.95972 103.50936 
L 229.95972 105.33888 
L 229.95972 107.1684 
L 229.95972 108.99792 
L 229.95972 110.82744 
L 229.95972 112.65696 
L 229.95972 114.48648 
L 229.95972 116.316 
L 229.95972 118.14552 
L 229.95972 119.97504 
L 229.95972 121.80456 
L 229.95972 123.63408 
L 229.95972 125.4636 
L 229.95972 127.29312 
L 229.95972 129.12264 
L 229.95972 130.95216 
L 229.95972 132.78168 
L 229.95972 134.6112 
L 229.95972 136.44072 
L 229.95972 138.27024 
L 229.95972 140.09976 
" clip-path="url(#p282afdeada)" style="fill: none; stroke: #ff0000; stroke-opacity: 0.4; stroke-width: 0.25; stroke-linecap: square"/>
   </g>
   <g id="line2d_83">
    <path d="M 229.95972 85.21416 
L 229.95972 87.04368 
L 229.95972 88.8732 
L 229.95972 90.70272 
L 229.95972 92.53224 
L 229.95972 94.36176 
L 229.95972 96.19128 
L 229.95972 98.0208 
L 229.95972 99.85032 
L 229.95972 101.67984 
L 229.95972 103.50936 
L 229.95972 105.33888 
L 229.95972 107.1684 
L 229.95972 108.99792 
L 229.95972 110.82744 
L 229.95972 112.65696 
L 229.95972 114.48648 
L 229.95972 116.316 
L 229.95972 118.14552 
L 229.95972 119.97504 
L 229.95972 121.80456 
L 229.95972 123.63408 
L 229.95972 125.4636 
L 229.95972 127.29312 
L 229.95972 129.12264 
L 229.95972 130.95216 
L 229.95972 132.78168 
L 229.95972 134.6112 
L 229.95972 136.44072 
L 229.95972 138.27024 
L 229.95972 140.09976 
" clip-path="url(#p282afdeada)" style="fill: none; stroke: #ff0000; stroke-opacity: 0.6; stroke-width: 0.25; stroke-linecap: square"/>
   </g>
   <g id="line2d_84">
    <path d="M 229.95972 85.21416 
L 229.95972 87.04368 
L 229.95972 88.8732 
L 229.95972 90.70272 
L 229.95972 92.53224 
L 229.95972 94.36176 
L 229.95972 96.19128 
L 229.95972 98.0208 
L 229.95972 99.85032 
L 229.95972 101.67984 
L 229.95972 103.50936 
L 229.95972 105.33888 
L 229.95972 107.1684 
L 229.95972 108.99792 
L 229.95972 110.82744 
L 229.95972 112.65696 
L 229.95972 114.48648 
L 229.95972 116.316 
L 229.95972 118.14552 
L 229.95972 119.97504 
L 229.95972 121.80456 
L 229.95972 123.63408 
L 229.95972 125.4636 
L 229.95972 127.29312 
L 229.95972 129.12264 
L 229.95972 130.95216 
L 229.95972 132.78168 
L 229.95972 134.6112 
L 229.95972 136.44072 
L 229.95972 138.27024 
L 229.95972 140.09976 
" clip-path="url(#p282afdeada)" style="fill: none; stroke: #ff0000; stroke-opacity: 0.8; stroke-width: 0.25; stroke-linecap: square"/>
   </g>
   <g id="line2d_85">
    <path d="M 229.95972 85.21416 
L 229.95972 87.04368 
L 229.95972 88.8732 
L 229.95972 90.70272 
L 229.95972 92.53224 
L 229.95972 94.36176 
L 229.95972 96.19128 
L 229.95972 98.0208 
L 229.95972 99.85032 
L 229.95972 101.67984 
L 229.95972 103.50936 
L 229.95972 105.33888 
L 229.95972 107.1684 
L 229.95972 108.99792 
L 229.95972 110.82744 
L 229.95972 112.65696 
L 229.95972 114.48648 
L 229.95972 116.316 
L 229.95972 118.14552 
L 229.95972 119.97504 
L 229.95972 121.80456 
L 229.95972 123.63408 
L 229.95972 125.4636 
L 229.95972 127.29312 
L 229.95972 129.12264 
L 229.95972 130.95216 
L 229.95972 132.78168 
L 229.95972 134.6112 
L 229.95972 136.44072 
L 229.95972 138.27024 
L 229.95972 140.09976 
" clip-path="url(#p282afdeada)" style="fill: none; stroke: #ff0000; stroke-width: 0.25; stroke-linecap: square"/>
   </g>
   <g id="line2d_86">
    <path d="M 150.409999 180.72828 
L 152.394468 180.72828 
L 154.378938 180.72828 
L 156.363407 180.72828 
L 158.347877 180.72828 
L 160.332346 180.72828 
L 162.316816 180.72828 
L 164.301285 180.72828 
L 166.285755 180.72828 
L 168.270224 180.72828 
L 170.254694 180.72828 
L 172.239163 180.72828 
L 174.223633 180.72828 
L 176.208102 180.72828 
L 178.192572 180.72828 
L 180.177041 180.72828 
L 182.161511 180.72828 
L 184.14598 180.72828 
L 186.13045 180.72828 
L 188.11492 180.72828 
L 190.099389 180.72828 
L 192.083859 180.72828 
L 194.068328 180.72828 
L 196.052798 180.72828 
L 198.037267 180.72828 
L 200.021737 180.72828 
L 202.006206 180.72828 
L 203.990676 180.72828 
L 205.975145 180.72828 
L 207.959615 180.72828 
L 209.944084 180.72828 
" clip-path="url(#p282afdeada)" style="fill: none; stroke: #ff0000; stroke-opacity: 0.2; stroke-width: 0.25; stroke-linecap: square"/>
   </g>
   <g id="line2d_87">
    <path d="M 150.409999 180.72828 
L 152.394468 180.72828 
L 154.378938 180.72828 
L 156.363407 180.72828 
L 158.347877 180.72828 
L 160.332346 180.72828 
L 162.316816 180.72828 
L 164.301285 180.72828 
L 166.285755 180.72828 
L 168.270224 180.72828 
L 170.254694 180.72828 
L 172.239163 180.72828 
L 174.223633 180.72828 
L 176.208102 180.72828 
L 178.192572 180.72828 
L 180.177041 180.72828 
L 182.161511 180.72828 
L 184.14598 180.72828 
L 186.13045 180.72828 
L 188.11492 180.72828 
L 190.099389 180.72828 
L 192.083859 180.72828 
L 194.068328 180.72828 
L 196.052798 180.72828 
L 198.037267 180.72828 
L 200.021737 180.72828 
L 202.006206 180.72828 
L 203.990676 180.72828 
L 205.975145 180.72828 
L 207.959615 180.72828 
L 209.944084 180.72828 
" clip-path="url(#p282afdeada)" style="fill: none; stroke: #ff0000; stroke-opacity: 0.4; stroke-width: 0.25; stroke-linecap: square"/>
   </g>
   <g id="line2d_88">
    <path d="M 150.409999 180.72828 
L 152.394468 180.72828 
L 154.378938 180.72828 
L 156.363407 180.72828 
L 158.347877 180.72828 
L 160.332346 180.72828 
L 162.316816 180.72828 
L 164.301285 180.72828 
L 166.285755 180.72828 
L 168.270224 180.72828 
L 170.254694 180.72828 
L 172.239163 180.72828 
L 174.223633 180.72828 
L 176.208102 180.72828 
L 178.192572 180.72828 
L 180.177041 180.72828 
L 182.161511 180.72828 
L 184.14598 180.72828 
L 186.13045 180.72828 
L 188.11492 180.72828 
L 190.099389 180.72828 
L 192.083859 180.72828 
L 194.068328 180.72828 
L 196.052798 180.72828 
L 198.037267 180.72828 
L 200.021737 180.72828 
L 202.006206 180.72828 
L 203.990676 180.72828 
L 205.975145 180.72828 
L 207.959615 180.72828 
L 209.944084 180.72828 
" clip-path="url(#p282afdeada)" style="fill: none; stroke: #ff0000; stroke-opacity: 0.6; stroke-width: 0.25; stroke-linecap: square"/>
   </g>
   <g id="line2d_89">
    <path d="M 150.409999 180.72828 
L 152.394468 180.72828 
L 154.378938 180.72828 
L 156.363407 180.72828 
L 158.347877 180.72828 
L 160.332346 180.72828 
L 162.316816 180.72828 
L 164.301285 180.72828 
L 166.285755 180.72828 
L 168.270224 180.72828 
L 170.254694 180.72828 
L 172.239163 180.72828 
L 174.223633 180.72828 
L 176.208102 180.72828 
L 178.192572 180.72828 
L 180.177041 180.72828 
L 182.161511 180.72828 
L 184.14598 180.72828 
L 186.13045 180.72828 
L 188.11492 180.72828 
L 190.099389 180.72828 
L 192.083859 180.72828 
L 194.068328 180.72828 
L 196.052798 180.72828 
L 198.037267 180.72828 
L 200.021737 180.72828 
L 202.006206 180.72828 
L 203.990676 180.72828 
L 205.975145 180.72828 
L 207.959615 180.72828 
L 209.944084 180.72828 
" clip-path="url(#p282afdeada)" style="fill: none; stroke: #ff0000; stroke-opacity: 0.8; stroke-width: 0.25; stroke-linecap: square"/>
   </g>
   <g id="line2d_90">
    <path d="M 150.409999 180.72828 
L 152.394468 180.72828 
L 154.378938 180.72828 
L 156.363407 180.72828 
L 158.347877 180.72828 
L 160.332346 180.72828 
L 162.316816 180.72828 
L 164.301285 180.72828 
L 166.285755 180.72828 
L 168.270224 180.72828 
L 170.254694 180.72828 
L 172.239163 180.72828 
L 174.223633 180.72828 
L 176.208102 180.72828 
L 178.192572 180.72828 
L 180.177041 180.72828 
L 182.161511 180.72828 
L 184.14598 180.72828 
L 186.13045 180.72828 
L 188.11492 180.72828 
L 190.099389 180.72828 
L 192.083859 180.72828 
L 194.068328 180.72828 
L 196.052798 180.72828 
L 198.037267 180.72828 
L 200.021737 180.72828 
L 202.006206 180.72828 
L 203.990676 180.72828 
L 205.975145 180.72828 
L 207.959615 180.72828 
L 209.944084 180.72828 
" clip-path="url(#p282afdeada)" style="fill: none; stroke: #ff0000; stroke-width: 0.25; stroke-linecap: square"/>
   </g>
   <g id="patch_15">
    <path d="M 103.104 307.584 
L 103.104 41.472 
" style="fill: none; stroke: #000000; stroke-width: 0.8; stroke-linejoin: miter; stroke-linecap: square"/>
   </g>
   <g id="patch_16">
    <path d="M 369.216 307.584 
L 369.216 41.472 
" style="fill: none; stroke: #000000; stroke-width: 0.8; stroke-linejoin: miter; stroke-linecap: square"/>
   </g>
   <g id="patch_17">
    <path d="M 103.104 307.584 
L 369.216 307.584 
" style="fill: none; stroke: #000000; stroke-width: 0.8; stroke-linejoin: miter; stroke-linecap: square"/>
   </g>
   <g id="patch_18">
    <path d="M 103.104 41.472 
L 369.216 41.472 
" style="fill: none; stroke: #000000; stroke-width: 0.8; stroke-linejoin: miter; stroke-linecap: square"/>
   </g>
   <g id="text_19">
    <!-- Time:  23 ms -->
    <g transform="translate(264.253887 54.7776) scale(0.1 -0.1)">
     <defs>
      <path id="DejaVuSans-54" d="M -19 4666 
L 3928 4666 
L 3928 4134 
L 2272 4134 
L 2272 0 
L 1638 0 
L 1638 4134 
L -19 4134 
L -19 4666 
z
" transform="scale(0.015625)"/>
      <path id="DejaVuSans-69" d="M 603 3500 
L 1178 3500 
L 1178 0 
L 603 0 
L 603 3500 
z
M 603 4863 
L 1178 4863 
L 1178 4134 
L 603 4134 
L 603 4863 
z
" transform="scale(0.015625)"/>
      <path id="DejaVuSans-6d" d="M 3328 2828 
Q 3544 3216 3844 3400 
Q 4144 3584 4550 3584 
Q 5097 3584 5394 3201 
Q 5691 2819 5691 2113 
L 5691 0 
L 5113 0 
L 5113 2094 
Q 5113 2597 4934 2840 
Q 4756 3084 4391 3084 
Q 3944 3084 3684 2787 
Q 3425 2491 3425 1978 
L 3425 0 
L 2847 0 
L 2847 2094 
Q 2847 2600 2669 2842 
Q 2491 3084 2119 3084 
Q 1678 3084 1418 2786 
Q 1159 2488 1159 1978 
L 1159 0 
L 581 0 
L 581 3500 
L 1159 3500 
L 1159 2956 
Q 1356 3278 1631 3431 
Q 1906 3584 2284 3584 
Q 2666 3584 2933 3390 
Q 3200 3197 3328 2828 
z
" transform="scale(0.015625)"/>
      <path id="DejaVuSans-65" d="M 3597 1894 
L 3597 1613 
L 953 1613 
Q 991 1019 1311 708 
Q 1631 397 2203 397 
Q 2534 397 2845 478 
Q 3156 559 3463 722 
L 3463 178 
Q 3153 47 2828 -22 
Q 2503 -91 2169 -91 
Q 1331 -91 842 396 
Q 353 884 353 1716 
Q 353 2575 817 3079 
Q 1281 3584 2069 3584 
Q 2775 3584 3186 3129 
Q 3597 2675 3597 1894 
z
M 3022 2063 
Q 3016 2534 2758 2815 
Q 2500 3097 2075 3097 
Q 1594 3097 1305 2825 
Q 1016 2553 972 2059 
L 3022 2063 
z
" transform="scale(0.015625)"/>
      <path id="DejaVuSans-3a" d="M 750 794 
L 1409 794 
L 1409 0 
L 750 0 
L 750 794 
z
M 750 3309 
L 1409 3309 
L 1409 2516 
L 750 2516 
L 750 3309 
z
" transform="scale(0.015625)"/>
      <path id="DejaVuSans-20" transform="scale(0.015625)"/>
      <path id="DejaVuSans-73" d="M 2834 3397 
L 2834 2853 
Q 2591 2978 2328 3040 
Q 2066 3103 1784 3103 
Q 1356 3103 1142 2972 
Q 928 2841 928 2578 
Q 928 2378 1081 2264 
Q 1234 2150 1697 2047 
L 1894 2003 
Q 2506 1872 2764 1633 
Q 3022 1394 3022 966 
Q 3022 478 2636 193 
Q 2250 -91 1575 -91 
Q 1294 -91 989 -36 
Q 684 19 347 128 
L 347 722 
Q 666 556 975 473 
Q 1284 391 1588 391 
Q 1994 391 2212 530 
Q 2431 669 2431 922 
Q 2431 1156 2273 1281 
Q 2116 1406 1581 1522 
L 1381 1569 
Q 847 1681 609 1914 
Q 372 2147 372 2553 
Q 372 3047 722 3315 
Q 1072 3584 1716 3584 
Q 2034 3584 2315 3537 
Q 2597 3491 2834 3397 
z
" transform="scale(0.015625)"/>
     </defs>
     <use xlink:href="#DejaVuSans-54"/>
     <use xlink:href="#DejaVuSans-69" x="57.958984"/>
     <use xlink:href="#DejaVuSans-6d" x="85.742188"/>
     <use xlink:href="#DejaVuSans-65" x="183.154297"/>
     <use xlink:href="#DejaVuSans-3a" x="244.677734"/>
     <use xlink:href="#DejaVuSans-20" x="278.369141"/>
     <use xlink:href="#DejaVuSans-20" x="310.15625"/>
     <use xlink:href="#DejaVuSans-32" x="341.943359"/>
     <use xlink:href="#DejaVuSans-33" x="405.566406"/>
     <use xlink:href="#DejaVuSans-20" x="469.189453"/>
     <use xlink:href="#DejaVuSans-6d" x="500.976562"/>
     <use xlink:href="#DejaVuSans-73" x="598.388672"/>
    </g>
   </g>
  </g>
 </g>
 <defs>
  <clipPath id="p282afdeada">
   <rect x="103.104" y="41.472" width="266.112" height="266.112"/>
  </clipPath>
 </defs>
</svg>
