<?xml version="1.0" encoding="utf-8" standalone="no"?>
<!DOCTYPE svg PUBLIC "-//W3C//DTD SVG 1.1//EN"
  "http://www.w3.org/Graphics/SVG/1.1/DTD/svg11.dtd">
<svg xmlns:xlink="http://www.w3.org/1999/xlink" width="460.8pt" height="345.6pt" viewBox="0 0 460.8 345.6" xmlns="http://www.w3.org/2000/svg" version="1.1">
 <metadata>
  <rdf:RDF xmlns:dc="http://purl.org/dc/elements/1.1/" xmlns:cc="http://creativecommons.org/ns#" xmlns:rdf="http://www.w3.org/1999/02/22-rdf-syntax-ns#">
   <cc:Work>
    <dc:type rdf:resource="http://purl.org/dc/dcmitype/StillImage"/>
    <dc:date>2024-01-22T16:49:10.280189</dc:date>
    <dc:format>image/svg+xml</dc:format>
    <dc:creator>
     <cc:Agent>
      <dc:title>Matplotlib v3.8.2, https://matplotlib.org/</dc:title>
     </cc:Agent>
    </dc:creator>
   </cc:Work>
  </rdf:RDF>
 </metadata>
 <defs>
  <style type="text/css">*{stroke-linejoin: round; stroke-linecap: butt}</style>
 </defs>
 <g id="figure_1">
  <g id="patch_1">
   <path d="M 0 345.6 
L 460.8 345.6 
L 460.8 0 
L 0 0 
z
" style="fill: #ffffff"/>
  </g>
  <g id="axes_1">
   <g id="patch_2">
    <path d="M 103.104 307.584 
L 369.216 307.584 
L 369.216 41.472 
L 103.104 41.472 
z
" style="fill: #ffffff"/>
   </g>
   <g id="patch_3">
    <path d="M 247.292127 181.816971 
L 249.476965 170.381414 
L 243.922551 169.320207 
L 241.737713 180.755764 
z
" clip-path="url(#pbd066afa10)" style="fill: #00008b"/>
   </g>
   <g id="patch_4">
    <path d="M 243.930491 162.322513 
L 232.59925 159.648855 
L 231.300616 165.152601 
L 242.631857 167.826259 
z
" clip-path="url(#pbd066afa10)" style="fill: #800000"/>
   </g>
   <g id="patch_5">
    <path d="M 227.59024 170.708185 
L 232.810671 181.114557 
L 237.865194 178.578919 
L 232.644763 168.172547 
z
" clip-path="url(#pbd066afa10)" style="fill: #006400"/>
   </g>
   <g id="patch_6">
    <path d="M 221.268523 184.928058 
L 230.426024 192.117331 
L 233.917957 187.669402 
L 224.760456 180.480129 
z
" clip-path="url(#pbd066afa10)" style="fill: #4b0082"/>
   </g>
   <g id="patch_7">
    <path d="M 245.315411 214.758821 
L 245.463232 203.11736 
L 239.808807 203.045561 
L 239.660986 214.687023 
z
" clip-path="url(#pbd066afa10)" style="fill: #0000ff"/>
   </g>
   <g id="patch_8">
    <path d="M 274.808993 165.223104 
L 263.169456 164.964903 
L 263.044044 170.618392 
L 274.683581 170.876593 
z
" clip-path="url(#pbd066afa10)" style="fill: #ff0000"/>
   </g>
   <g id="patch_9">
    <path d="M 227.340034 130.719936 
L 227.777453 142.354115 
L 233.428341 142.141654 
L 232.990921 130.507475 
z
" clip-path="url(#pbd066afa10)" style="fill: #dbdc56"/>
   </g>
   <g id="patch_10">
    <path d="M 196.141026 183.464389 
L 207.782964 183.360661 
L 207.732582 177.706005 
L 196.090644 177.809733 
z
" clip-path="url(#pbd066afa10)" style="fill: #9400d3"/>
   </g>
   <g id="patch_11">
    <path d="M 245.18772 251.36784 
L 245.18772 239.72544 
L 239.53284 239.72544 
L 239.53284 251.36784 
z
" clip-path="url(#pbd066afa10)" style="fill: #1e90ff"/>
   </g>
   <g id="patch_12">
    <path d="M 307.919407 165.501121 
L 296.277008 165.494948 
L 296.27401 171.149828 
L 307.916408 171.156 
z
" clip-path="url(#pbd066afa10)" style="fill: #ff4500"/>
   </g>
   <g id="patch_13">
    <path d="M 227.13228 97.68816 
L 227.13228 109.33056 
L 232.78716 109.33056 
L 232.78716 97.68816 
z
" clip-path="url(#pbd066afa10)" style="fill: #7cfc00"/>
   </g>
   <g id="patch_14">
    <path d="M 164.405997 183.551179 
L 176.048397 183.546706 
L 176.046224 177.891827 
L 164.403825 177.896299 
z
" clip-path="url(#pbd066afa10)" style="fill: #ff00ff"/>
   </g>
   <g id="matplotlib.axis_1">
    <g id="xtick_1">
     <g id="line2d_1">
      <defs>
       <path id="mcf3a49faed" d="M 0 0 
L 0 3.5 
" style="stroke: #000000; stroke-width: 0.8"/>
      </defs>
      <g>
       <use xlink:href="#mcf3a49faed" x="103.104" y="307.584" style="stroke: #000000; stroke-width: 0.8"/>
      </g>
     </g>
     <g id="text_1">
      <!-- −40 -->
      <g transform="translate(92.551656 322.182437) scale(0.1 -0.1)">
       <defs>
        <path id="DejaVuSans-2212" d="M 678 2272 
L 4684 2272 
L 4684 1741 
L 678 1741 
L 678 2272 
z
" transform="scale(0.015625)"/>
        <path id="DejaVuSans-34" d="M 2419 4116 
L 825 1625 
L 2419 1625 
L 2419 4116 
z
M 2253 4666 
L 3047 4666 
L 3047 1625 
L 3713 1625 
L 3713 1100 
L 3047 1100 
L 3047 0 
L 2419 0 
L 2419 1100 
L 313 1100 
L 313 1709 
L 2253 4666 
z
" transform="scale(0.015625)"/>
        <path id="DejaVuSans-30" d="M 2034 4250 
Q 1547 4250 1301 3770 
Q 1056 3291 1056 2328 
Q 1056 1369 1301 889 
Q 1547 409 2034 409 
Q 2525 409 2770 889 
Q 3016 1369 3016 2328 
Q 3016 3291 2770 3770 
Q 2525 4250 2034 4250 
z
M 2034 4750 
Q 2819 4750 3233 4129 
Q 3647 3509 3647 2328 
Q 3647 1150 3233 529 
Q 2819 -91 2034 -91 
Q 1250 -91 836 529 
Q 422 1150 422 2328 
Q 422 3509 836 4129 
Q 1250 4750 2034 4750 
z
" transform="scale(0.015625)"/>
       </defs>
       <use xlink:href="#DejaVuSans-2212"/>
       <use xlink:href="#DejaVuSans-34" x="83.789062"/>
       <use xlink:href="#DejaVuSans-30" x="147.412109"/>
      </g>
     </g>
    </g>
    <g id="xtick_2">
     <g id="line2d_2">
      <g>
       <use xlink:href="#mcf3a49faed" x="136.368" y="307.584" style="stroke: #000000; stroke-width: 0.8"/>
      </g>
     </g>
     <g id="text_2">
      <!-- −30 -->
      <g transform="translate(125.815656 322.182437) scale(0.1 -0.1)">
       <defs>
        <path id="DejaVuSans-33" d="M 2597 2516 
Q 3050 2419 3304 2112 
Q 3559 1806 3559 1356 
Q 3559 666 3084 287 
Q 2609 -91 1734 -91 
Q 1441 -91 1130 -33 
Q 819 25 488 141 
L 488 750 
Q 750 597 1062 519 
Q 1375 441 1716 441 
Q 2309 441 2620 675 
Q 2931 909 2931 1356 
Q 2931 1769 2642 2001 
Q 2353 2234 1838 2234 
L 1294 2234 
L 1294 2753 
L 1863 2753 
Q 2328 2753 2575 2939 
Q 2822 3125 2822 3475 
Q 2822 3834 2567 4026 
Q 2313 4219 1838 4219 
Q 1578 4219 1281 4162 
Q 984 4106 628 3988 
L 628 4550 
Q 988 4650 1302 4700 
Q 1616 4750 1894 4750 
Q 2613 4750 3031 4423 
Q 3450 4097 3450 3541 
Q 3450 3153 3228 2886 
Q 3006 2619 2597 2516 
z
" transform="scale(0.015625)"/>
       </defs>
       <use xlink:href="#DejaVuSans-2212"/>
       <use xlink:href="#DejaVuSans-33" x="83.789062"/>
       <use xlink:href="#DejaVuSans-30" x="147.412109"/>
      </g>
     </g>
    </g>
    <g id="xtick_3">
     <g id="line2d_3">
      <g>
       <use xlink:href="#mcf3a49faed" x="169.632" y="307.584" style="stroke: #000000; stroke-width: 0.8"/>
      </g>
     </g>
     <g id="text_3">
      <!-- −20 -->
      <g transform="translate(159.079656 322.182437) scale(0.1 -0.1)">
       <defs>
        <path id="DejaVuSans-32" d="M 1228 531 
L 3431 531 
L 3431 0 
L 469 0 
L 469 531 
Q 828 903 1448 1529 
Q 2069 2156 2228 2338 
Q 2531 2678 2651 2914 
Q 2772 3150 2772 3378 
Q 2772 3750 2511 3984 
Q 2250 4219 1831 4219 
Q 1534 4219 1204 4116 
Q 875 4013 500 3803 
L 500 4441 
Q 881 4594 1212 4672 
Q 1544 4750 1819 4750 
Q 2544 4750 2975 4387 
Q 3406 4025 3406 3419 
Q 3406 3131 3298 2873 
Q 3191 2616 2906 2266 
Q 2828 2175 2409 1742 
Q 1991 1309 1228 531 
z
" transform="scale(0.015625)"/>
       </defs>
       <use xlink:href="#DejaVuSans-2212"/>
       <use xlink:href="#DejaVuSans-32" x="83.789062"/>
       <use xlink:href="#DejaVuSans-30" x="147.412109"/>
      </g>
     </g>
    </g>
    <g id="xtick_4">
     <g id="line2d_4">
      <g>
       <use xlink:href="#mcf3a49faed" x="202.896" y="307.584" style="stroke: #000000; stroke-width: 0.8"/>
      </g>
     </g>
     <g id="text_4">
      <!-- −10 -->
      <g transform="translate(192.343656 322.182437) scale(0.1 -0.1)">
       <defs>
        <path id="DejaVuSans-31" d="M 794 531 
L 1825 531 
L 1825 4091 
L 703 3866 
L 703 4441 
L 1819 4666 
L 2450 4666 
L 2450 531 
L 3481 531 
L 3481 0 
L 794 0 
L 794 531 
z
" transform="scale(0.015625)"/>
       </defs>
       <use xlink:href="#DejaVuSans-2212"/>
       <use xlink:href="#DejaVuSans-31" x="83.789062"/>
       <use xlink:href="#DejaVuSans-30" x="147.412109"/>
      </g>
     </g>
    </g>
    <g id="xtick_5">
     <g id="line2d_5">
      <g>
       <use xlink:href="#mcf3a49faed" x="236.16" y="307.584" style="stroke: #000000; stroke-width: 0.8"/>
      </g>
     </g>
     <g id="text_5">
      <!-- 0 -->
      <g transform="translate(232.97875 322.182437) scale(0.1 -0.1)">
       <use xlink:href="#DejaVuSans-30"/>
      </g>
     </g>
    </g>
    <g id="xtick_6">
     <g id="line2d_6">
      <g>
       <use xlink:href="#mcf3a49faed" x="269.424" y="307.584" style="stroke: #000000; stroke-width: 0.8"/>
      </g>
     </g>
     <g id="text_6">
      <!-- 10 -->
      <g transform="translate(263.0615 322.182437) scale(0.1 -0.1)">
       <use xlink:href="#DejaVuSans-31"/>
       <use xlink:href="#DejaVuSans-30" x="63.623047"/>
      </g>
     </g>
    </g>
    <g id="xtick_7">
     <g id="line2d_7">
      <g>
       <use xlink:href="#mcf3a49faed" x="302.688" y="307.584" style="stroke: #000000; stroke-width: 0.8"/>
      </g>
     </g>
     <g id="text_7">
      <!-- 20 -->
      <g transform="translate(296.3255 322.182437) scale(0.1 -0.1)">
       <use xlink:href="#DejaVuSans-32"/>
       <use xlink:href="#DejaVuSans-30" x="63.623047"/>
      </g>
     </g>
    </g>
    <g id="xtick_8">
     <g id="line2d_8">
      <g>
       <use xlink:href="#mcf3a49faed" x="335.952" y="307.584" style="stroke: #000000; stroke-width: 0.8"/>
      </g>
     </g>
     <g id="text_8">
      <!-- 30 -->
      <g transform="translate(329.5895 322.182437) scale(0.1 -0.1)">
       <use xlink:href="#DejaVuSans-33"/>
       <use xlink:href="#DejaVuSans-30" x="63.623047"/>
      </g>
     </g>
    </g>
    <g id="xtick_9">
     <g id="line2d_9">
      <g>
       <use xlink:href="#mcf3a49faed" x="369.216" y="307.584" style="stroke: #000000; stroke-width: 0.8"/>
      </g>
     </g>
     <g id="text_9">
      <!-- 40 -->
      <g transform="translate(362.8535 322.182437) scale(0.1 -0.1)">
       <use xlink:href="#DejaVuSans-34"/>
       <use xlink:href="#DejaVuSans-30" x="63.623047"/>
      </g>
     </g>
    </g>
   </g>
   <g id="matplotlib.axis_2">
    <g id="ytick_1">
     <g id="line2d_10">
      <defs>
       <path id="m0fc9ae495e" d="M 0 0 
L -3.5 0 
" style="stroke: #000000; stroke-width: 0.8"/>
      </defs>
      <g>
       <use xlink:href="#m0fc9ae495e" x="103.104" y="307.584" style="stroke: #000000; stroke-width: 0.8"/>
      </g>
     </g>
     <g id="text_10">
      <!-- −40 -->
      <g transform="translate(74.999313 311.383219) scale(0.1 -0.1)">
       <use xlink:href="#DejaVuSans-2212"/>
       <use xlink:href="#DejaVuSans-34" x="83.789062"/>
       <use xlink:href="#DejaVuSans-30" x="147.412109"/>
      </g>
     </g>
    </g>
    <g id="ytick_2">
     <g id="line2d_11">
      <g>
       <use xlink:href="#m0fc9ae495e" x="103.104" y="274.32" style="stroke: #000000; stroke-width: 0.8"/>
      </g>
     </g>
     <g id="text_11">
      <!-- −30 -->
      <g transform="translate(74.999313 278.119219) scale(0.1 -0.1)">
       <use xlink:href="#DejaVuSans-2212"/>
       <use xlink:href="#DejaVuSans-33" x="83.789062"/>
       <use xlink:href="#DejaVuSans-30" x="147.412109"/>
      </g>
     </g>
    </g>
    <g id="ytick_3">
     <g id="line2d_12">
      <g>
       <use xlink:href="#m0fc9ae495e" x="103.104" y="241.056" style="stroke: #000000; stroke-width: 0.8"/>
      </g>
     </g>
     <g id="text_12">
      <!-- −20 -->
      <g transform="translate(74.999313 244.855219) scale(0.1 -0.1)">
       <use xlink:href="#DejaVuSans-2212"/>
       <use xlink:href="#DejaVuSans-32" x="83.789062"/>
       <use xlink:href="#DejaVuSans-30" x="147.412109"/>
      </g>
     </g>
    </g>
    <g id="ytick_4">
     <g id="line2d_13">
      <g>
       <use xlink:href="#m0fc9ae495e" x="103.104" y="207.792" style="stroke: #000000; stroke-width: 0.8"/>
      </g>
     </g>
     <g id="text_13">
      <!-- −10 -->
      <g transform="translate(74.999313 211.591219) scale(0.1 -0.1)">
       <use xlink:href="#DejaVuSans-2212"/>
       <use xlink:href="#DejaVuSans-31" x="83.789062"/>
       <use xlink:href="#DejaVuSans-30" x="147.412109"/>
      </g>
     </g>
    </g>
    <g id="ytick_5">
     <g id="line2d_14">
      <g>
       <use xlink:href="#m0fc9ae495e" x="103.104" y="174.528" style="stroke: #000000; stroke-width: 0.8"/>
      </g>
     </g>
     <g id="text_14">
      <!-- 0 -->
      <g transform="translate(89.7415 178.327219) scale(0.1 -0.1)">
       <use xlink:href="#DejaVuSans-30"/>
      </g>
     </g>
    </g>
    <g id="ytick_6">
     <g id="line2d_15">
      <g>
       <use xlink:href="#m0fc9ae495e" x="103.104" y="141.264" style="stroke: #000000; stroke-width: 0.8"/>
      </g>
     </g>
     <g id="text_15">
      <!-- 10 -->
      <g transform="translate(83.379 145.063219) scale(0.1 -0.1)">
       <use xlink:href="#DejaVuSans-31"/>
       <use xlink:href="#DejaVuSans-30" x="63.623047"/>
      </g>
     </g>
    </g>
    <g id="ytick_7">
     <g id="line2d_16">
      <g>
       <use xlink:href="#m0fc9ae495e" x="103.104" y="108" style="stroke: #000000; stroke-width: 0.8"/>
      </g>
     </g>
     <g id="text_16">
      <!-- 20 -->
      <g transform="translate(83.379 111.799219) scale(0.1 -0.1)">
       <use xlink:href="#DejaVuSans-32"/>
       <use xlink:href="#DejaVuSans-30" x="63.623047"/>
      </g>
     </g>
    </g>
    <g id="ytick_8">
     <g id="line2d_17">
      <g>
       <use xlink:href="#m0fc9ae495e" x="103.104" y="74.736" style="stroke: #000000; stroke-width: 0.8"/>
      </g>
     </g>
     <g id="text_17">
      <!-- 30 -->
      <g transform="translate(83.379 78.535219) scale(0.1 -0.1)">
       <use xlink:href="#DejaVuSans-33"/>
       <use xlink:href="#DejaVuSans-30" x="63.623047"/>
      </g>
     </g>
    </g>
    <g id="ytick_9">
     <g id="line2d_18">
      <g>
       <use xlink:href="#m0fc9ae495e" x="103.104" y="41.472" style="stroke: #000000; stroke-width: 0.8"/>
      </g>
     </g>
     <g id="text_18">
      <!-- 40 -->
      <g transform="translate(83.379 45.271219) scale(0.1 -0.1)">
       <use xlink:href="#DejaVuSans-34"/>
       <use xlink:href="#DejaVuSans-30" x="63.623047"/>
      </g>
     </g>
    </g>
   </g>
   <g id="line2d_19">
    <path d="M 251.1288 346.6 
L 251.1288 189.4968 
" clip-path="url(#pbd066afa10)" style="fill: none; stroke: #000000; stroke-width: 0.25; stroke-linecap: square"/>
   </g>
   <g id="line2d_20">
    <path d="M 251.1288 189.4968 
L 417.4488 189.4968 
" clip-path="url(#pbd066afa10)" style="fill: none; stroke: #000000; stroke-width: 0.25; stroke-linecap: square"/>
   </g>
   <g id="line2d_21">
    <path d="M 417.4488 159.5592 
L 251.1288 159.5592 
" clip-path="url(#pbd066afa10)" style="fill: none; stroke: #000000; stroke-width: 0.25; stroke-linecap: square"/>
   </g>
   <g id="line2d_22">
    <path d="M 251.1288 159.5592 
L 251.1288 -1 
" clip-path="url(#pbd066afa10)" style="fill: none; stroke: #000000; stroke-width: 0.25; stroke-linecap: square"/>
   </g>
   <g id="line2d_23">
    <path d="M 221.1912 -1 
L 221.1912 159.5592 
" clip-path="url(#pbd066afa10)" style="fill: none; stroke: #000000; stroke-width: 0.25; stroke-linecap: square"/>
   </g>
   <g id="line2d_24">
    <path d="M 221.1912 159.5592 
L 54.8712 159.5592 
" clip-path="url(#pbd066afa10)" style="fill: none; stroke: #000000; stroke-width: 0.25; stroke-linecap: square"/>
   </g>
   <g id="line2d_25">
    <path d="M 54.8712 189.4968 
L 221.1912 189.4968 
" clip-path="url(#pbd066afa10)" style="fill: none; stroke: #000000; stroke-width: 0.25; stroke-linecap: square"/>
   </g>
   <g id="line2d_26">
    <path d="M 221.1912 189.4968 
L 221.1912 346.6 
" clip-path="url(#pbd066afa10)" style="fill: none; stroke: #000000; stroke-width: 0.25; stroke-linecap: square"/>
   </g>
   <g id="line2d_27">
    <path d="M 251.1288 174.528 
L 417.4488 174.528 
" clip-path="url(#pbd066afa10)" style="fill: none; stroke-dasharray: 0.925,0.4; stroke-dashoffset: 0; stroke: #000000; stroke-width: 0.25"/>
   </g>
   <g id="line2d_28">
    <path d="M 236.16 159.5592 
L 236.16 -1 
" clip-path="url(#pbd066afa10)" style="fill: none; stroke-dasharray: 0.925,0.4; stroke-dashoffset: 0; stroke: #000000; stroke-width: 0.25"/>
   </g>
   <g id="line2d_29">
    <path d="M 221.1912 174.528 
L 54.8712 174.528 
" clip-path="url(#pbd066afa10)" style="fill: none; stroke-dasharray: 0.925,0.4; stroke-dashoffset: 0; stroke: #000000; stroke-width: 0.25"/>
   </g>
   <g id="line2d_30">
    <path d="M 236.16 189.4968 
L 236.16 346.6 
" clip-path="url(#pbd066afa10)" style="fill: none; stroke-dasharray: 0.925,0.4; stroke-dashoffset: 0; stroke: #000000; stroke-width: 0.25"/>
   </g>
   <g id="line2d_31">
    <path d="M 245.230025 177.549735 
L 245.606286 175.568388 
L 245.779537 173.557783 
L 245.569929 171.550242 
L 245.05219 169.59995 
L 244.320072 167.721221 
L 243.558938 165.856426 
L 242.901986 163.955403 
L 242.382225 162.01592 
L 242.062849 160.037596 
L 241.969155 158.040209 
L 241.89049 156.046622 
L 241.886781 154.055749 
L 241.913063 152.068997 
L 241.95774 150.086221 
L 242.011954 148.107031 
L 242.069166 146.130984 
L 242.124795 144.157666 
L 242.17587 142.186727 
L 242.220696 140.217874 
L 242.258551 138.250859 
L 242.289406 136.285466 
L 242.313702 134.321492 
L 242.332171 132.358747 
L 242.345697 130.397046 
L 242.355219 128.436212 
L 242.361669 126.476071 
L 242.365921 124.516458 
L 242.36877 122.557217 
L 242.370788 120.598204 
L 242.371869 118.639286 
" clip-path="url(#pbd066afa10)" style="fill: none; stroke: #ff0000; stroke-opacity: 0.2; stroke-width: 0.25; stroke-linecap: square"/>
   </g>
   <g id="line2d_32">
    <path d="M 245.230025 177.549735 
L 245.606808 175.568487 
L 245.780709 173.557945 
L 245.571824 171.550339 
L 245.054316 169.600001 
L 244.322596 167.721137 
L 243.561789 165.856233 
L 242.905248 163.955092 
L 242.385879 162.015531 
L 242.066834 160.03718 
L 241.973375 158.039807 
L 241.89464 156.046249 
L 241.890768 154.055401 
L 241.916864 152.068672 
L 241.961343 150.085916 
L 242.015357 148.106746 
L 242.072371 146.13072 
L 242.127808 144.157426 
L 242.178698 142.186514 
L 242.223348 140.217691 
L 242.261032 138.25071 
L 242.291717 136.285355 
L 242.315842 134.321424 
L 242.334133 132.358727 
L 242.347469 130.39708 
L 242.356785 128.436304 
L 242.363007 126.476227 
L 242.367003 124.516685 
L 242.369562 122.557521 
L 242.371274 120.59859 
L 242.372142 118.639761 
" clip-path="url(#pbd066afa10)" style="fill: none; stroke: #ff0000; stroke-opacity: 0.4; stroke-width: 0.25; stroke-linecap: square"/>
   </g>
   <g id="line2d_33">
    <path d="M 245.230025 177.549735 
L 245.607146 175.568552 
L 245.781459 173.558048 
L 245.573011 171.550403 
L 245.053139 169.600702 
L 244.322912 167.721267 
L 243.562124 165.856367 
L 242.905683 163.955205 
L 242.386399 162.015632 
L 242.06739 160.037286 
L 241.973893 158.039926 
L 241.89491 156.046386 
L 241.890735 154.055545 
L 241.916541 152.068818 
L 241.960755 150.086061 
L 242.014534 148.10689 
L 242.071349 146.130864 
L 242.126626 144.157572 
L 242.177394 142.186663 
L 242.221959 140.217847 
L 242.25959 138.250877 
L 242.290253 136.285535 
L 242.314379 134.32162 
L 242.332689 132.358943 
L 242.346056 130.397319 
L 242.355409 128.436571 
L 242.361663 126.476525 
L 242.365684 124.517017 
L 242.368255 122.557893 
L 242.369972 120.599007 
L 242.370935 118.640227 
" clip-path="url(#pbd066afa10)" style="fill: none; stroke: #ff0000; stroke-opacity: 0.6; stroke-width: 0.25; stroke-linecap: square"/>
   </g>
   <g id="line2d_34">
    <path d="M 245.230025 177.549735 
L 245.607243 175.56857 
L 245.781672 173.558074 
L 245.573325 171.550415 
L 245.052716 169.600903 
L 244.323174 167.721193 
L 243.562429 165.856263 
L 242.906116 163.955042 
L 242.386961 162.015418 
L 242.068056 160.037039 
L 241.974624 158.039656 
L 241.895475 156.046103 
L 241.891101 154.055242 
L 241.916729 152.068492 
L 241.960793 150.085711 
L 242.014456 148.106516 
L 242.071193 146.130467 
L 242.126427 144.157154 
L 242.17719 142.186227 
L 242.221783 140.217395 
L 242.259472 138.250411 
L 242.290216 136.285057 
L 242.314443 134.321133 
L 242.332867 132.358449 
L 242.346354 130.39682 
L 242.355827 128.43607 
L 242.362196 126.476025 
L 242.36632 124.516523 
L 242.368978 122.557406 
L 242.370775 120.598532 
L 242.371891 118.639767 
" clip-path="url(#pbd066afa10)" style="fill: none; stroke: #ff0000; stroke-opacity: 0.8; stroke-width: 0.25; stroke-linecap: square"/>
   </g>
   <g id="line2d_35">
    <path d="M 245.230025 177.549735 
L 245.607339 175.568589 
L 245.781853 173.558106 
L 245.573539 171.550454 
L 245.055172 169.600361 
L 244.324672 167.721043 
L 243.56397 165.856119 
L 242.90777 163.954884 
L 242.388705 162.015262 
L 242.069833 160.036903 
L 241.976349 158.039549 
L 241.896977 156.04603 
L 241.892329 154.055194 
L 241.917695 152.068464 
L 241.961521 150.085701 
L 242.014972 148.106525 
L 242.071528 146.130494 
L 242.126614 144.157202 
L 242.177259 142.186297 
L 242.221761 140.217489 
L 242.259384 138.250531 
L 242.290082 136.285205 
L 242.314278 134.321311 
L 242.332679 132.358659 
L 242.346146 130.397066 
L 242.355597 128.436352 
L 242.361937 126.476347 
L 242.366018 124.516886 
L 242.368618 122.557814 
L 242.370351 120.598988 
L 242.371463 118.640272 
" clip-path="url(#pbd066afa10)" style="fill: none; stroke: #ff0000; stroke-width: 0.25; stroke-linecap: square"/>
   </g>
   <g id="line2d_36">
    <path d="M 239.605928 163.939148 
L 237.61594 163.733782 
L 235.623647 163.920811 
L 233.663896 164.324641 
L 231.760181 164.938799 
L 229.864968 165.576038 
L 227.947674 166.13992 
L 226.0133 166.637822 
L 224.06373 167.067215 
L 222.101268 167.426785 
L 220.128817 167.718804 
L 218.149354 167.948698 
L 216.165475 168.123865 
L 214.179187 168.252516 
L 212.191901 168.342834 
L 210.204529 168.402459 
L 208.217604 168.438216 
L 206.2314 168.456007 
L 204.246022 168.460789 
L 202.261477 168.456608 
L 200.277714 168.446677 
L 198.29466 168.433455 
L 196.312229 168.418752 
L 194.330337 168.403826 
L 192.348899 168.389482 
L 190.367838 168.376159 
L 188.387078 168.364013 
L 186.406548 168.352977 
L 184.426179 168.342826 
L 182.445908 168.333245 
L 180.465676 168.323952 
" clip-path="url(#pbd066afa10)" style="fill: none; stroke: #ff0000; stroke-opacity: 0.2; stroke-width: 0.25; stroke-linecap: square"/>
   </g>
   <g id="line2d_37">
    <path d="M 239.605928 163.939148 
L 237.615842 163.734733 
L 235.62356 163.921887 
L 233.663855 164.325944 
L 231.760266 164.940497 
L 229.864976 165.577512 
L 227.947591 166.141092 
L 226.013129 166.638657 
L 224.063477 167.067683 
L 222.100943 167.426874 
L 220.128436 167.718516 
L 218.148932 167.94805 
L 216.165025 168.122883 
L 214.17872 168.251235 
L 212.191426 168.341292 
L 210.204052 168.400696 
L 208.217131 168.436273 
L 206.230935 168.453924 
L 204.245569 168.458604 
L 202.261038 168.45436 
L 200.277292 168.444399 
L 198.294257 168.431181 
L 196.311848 168.416511 
L 194.32998 168.401647 
L 192.34857 168.387391 
L 190.36754 168.37418 
L 188.386814 168.36217 
L 186.40632 168.351292 
L 184.425992 168.341321 
L 182.445763 168.331944 
L 180.465578 168.322866 
" clip-path="url(#pbd066afa10)" style="fill: none; stroke: #ff0000; stroke-opacity: 0.4; stroke-width: 0.25; stroke-linecap: square"/>
   </g>
   <g id="line2d_38">
    <path d="M 239.605928 163.939148 
L 237.615739 163.735733 
L 235.62331 163.921321 
L 233.66343 164.324527 
L 231.760505 164.941137 
L 229.865185 165.578064 
L 227.947753 166.141492 
L 226.013244 166.638881 
L 224.063548 167.067715 
L 222.100977 167.426709 
L 220.128442 167.718165 
L 218.148918 167.947535 
L 216.164999 168.122233 
L 214.178689 168.250483 
L 212.191394 168.340473 
L 210.204023 168.399846 
L 208.217107 168.435427 
L 206.230918 168.453115 
L 204.24556 168.457862 
L 202.261039 168.45371 
L 200.277305 168.443866 
L 198.294284 168.430785 
L 196.311891 168.416271 
L 194.330041 168.401578 
L 192.348652 168.387505 
L 190.367646 168.374491 
L 188.386945 168.362687 
L 186.406481 168.352027 
L 184.426183 168.342287 
L 182.445989 168.333152 
L 180.465839 168.324323 
" clip-path="url(#pbd066afa10)" style="fill: none; stroke: #ff0000; stroke-opacity: 0.6; stroke-width: 0.25; stroke-linecap: square"/>
   </g>
   <g id="line2d_39">
    <path d="M 239.605928 163.939148 
L 237.615641 163.736693 
L 235.623179 163.921929 
L 233.66326 164.324954 
L 231.760599 164.942379 
L 229.865226 165.579156 
L 227.947731 166.142375 
L 226.013161 166.639536 
L 224.063411 167.068129 
L 222.100794 167.426882 
L 220.128223 167.718109 
L 218.148674 167.94727 
L 216.164739 168.121786 
L 214.178419 168.249885 
L 212.19112 168.339756 
L 210.203748 168.39904 
L 208.216834 168.434561 
L 206.230649 168.452214 
L 204.245298 168.456948 
L 202.260784 168.452802 
L 200.27706 168.442978 
L 198.294049 168.429928 
L 196.311669 168.415455 
L 194.329835 168.400808 
L 192.348463 168.386787 
L 190.367475 168.373827 
L 188.386796 168.362081 
L 186.406355 168.351481 
L 184.426083 168.341806 
L 182.445917 168.332744 
L 180.465797 168.323989 
" clip-path="url(#pbd066afa10)" style="fill: none; stroke: #ff0000; stroke-opacity: 0.8; stroke-width: 0.25; stroke-linecap: square"/>
   </g>
   <g id="line2d_40">
    <path d="M 239.605928 163.939148 
L 237.615554 163.737557 
L 235.62326 163.924592 
L 233.663586 164.328804 
L 231.760518 164.944973 
L 229.865074 165.581536 
L 227.947503 166.144489 
L 226.012864 166.641371 
L 224.063053 167.069678 
L 222.100388 167.42815 
L 220.127782 167.719113 
L 218.14821 167.948035 
L 216.164262 168.122345 
L 214.177938 168.250271 
L 212.19064 168.340002 
L 210.203274 168.39918 
L 208.216369 168.434623 
L 206.230195 168.452225 
L 204.244856 168.456929 
L 202.260357 168.452772 
L 200.276648 168.442952 
L 198.293655 168.429917 
L 196.311294 168.415465 
L 194.32948 168.400846 
L 192.34813 168.386856 
L 190.367167 168.373929 
L 188.386515 168.362217 
L 186.406101 168.351653 
L 184.42586 168.342018 
L 182.445725 168.333001 
L 180.465639 168.324291 
" clip-path="url(#pbd066afa10)" style="fill: none; stroke: #ff0000; stroke-width: 0.25; stroke-linecap: square"/>
   </g>
   <g id="line2d_41">
    <path d="M 231.448105 173.054647 
L 232.728004 174.643321 
L 234.17746 176.078893 
L 235.778859 177.342444 
L 237.511861 178.417725 
L 239.353441 179.2923 
L 241.279253 179.957303 
L 243.265271 180.403652 
L 245.286326 180.625453 
L 247.316625 180.62068 
L 249.336684 180.454004 
L 251.358977 180.398465 
L 253.377704 180.419563 
L 255.39108 180.486866 
L 257.400061 180.560625 
L 259.405663 180.621653 
L 261.408157 180.670241 
L 263.407791 180.707386 
L 265.404817 180.73441 
L 267.399488 180.752881 
L 269.392065 180.764419 
L 271.38281 180.770469 
L 273.371984 180.772428 
L 275.359839 180.771429 
L 277.346617 180.768379 
L 279.332546 180.763908 
L 281.317833 180.758419 
L 283.302668 180.7521 
L 285.287217 180.744992 
L 287.271616 180.737017 
L 289.255965 180.727966 
" clip-path="url(#pbd066afa10)" style="fill: none; stroke: #ff0000; stroke-opacity: 0.2; stroke-width: 0.25; stroke-linecap: square"/>
   </g>
   <g id="line2d_42">
    <path d="M 231.448105 173.054647 
L 232.728017 174.643311 
L 234.177513 176.078841 
L 235.778921 177.342381 
L 237.511877 178.417732 
L 239.353434 179.292349 
L 241.279295 179.957201 
L 243.265364 180.403308 
L 245.286442 180.62486 
L 247.316736 180.619849 
L 249.33677 180.452951 
L 251.359051 180.397258 
L 253.377768 180.418205 
L 255.391133 180.485387 
L 257.400098 180.559037 
L 259.405679 180.619934 
L 261.408143 180.668376 
L 263.40774 180.705365 
L 265.404719 180.732233 
L 267.399333 180.750554 
L 269.391842 180.761954 
L 271.382507 180.767883 
L 273.37159 180.769741 
L 275.359342 180.768664 
L 277.346004 180.765563 
L 279.331804 180.761069 
L 281.31695 180.755591 
L 283.301633 180.749319 
L 285.286018 180.742303 
L 287.270244 180.734472 
L 289.254415 180.725631 
" clip-path="url(#pbd066afa10)" style="fill: none; stroke: #ff0000; stroke-opacity: 0.4; stroke-width: 0.25; stroke-linecap: square"/>
   </g>
   <g id="line2d_43">
    <path d="M 231.448105 173.054647 
L 232.728626 174.64282 
L 234.178574 176.077895 
L 235.77925 177.342363 
L 237.510425 178.420582 
L 239.350506 179.298304 
L 241.276305 179.963347 
L 243.262623 180.408353 
L 245.28382 180.628855 
L 247.314117 180.622926 
L 249.334131 180.455714 
L 251.356409 180.39978 
L 253.375132 180.420497 
L 255.388504 180.487485 
L 257.397474 180.560963 
L 259.403054 180.621673 
L 261.405513 180.669918 
L 263.405096 180.706711 
L 265.402054 180.733387 
L 267.396638 180.751529 
L 269.389107 180.762766 
L 271.379723 180.768556 
L 273.368745 180.770299 
L 275.356426 180.769134 
L 277.343007 180.765975 
L 279.328713 180.761454 
L 281.313755 180.755983 
L 283.298321 180.749757 
L 285.282581 180.742832 
L 287.266674 180.735142 
L 289.250705 180.726508 
" clip-path="url(#pbd066afa10)" style="fill: none; stroke: #ff0000; stroke-opacity: 0.6; stroke-width: 0.25; stroke-linecap: square"/>
   </g>
   <g id="line2d_44">
    <path d="M 231.448105 173.054647 
L 232.727785 174.643498 
L 234.177024 176.079298 
L 235.778152 177.343215 
L 237.510876 178.418981 
L 239.352303 179.29394 
L 241.278113 179.959058 
L 243.264197 180.40532 
L 245.285334 180.626881 
L 247.315699 180.621709 
L 249.335774 180.454351 
L 251.358136 180.398618 
L 253.376934 180.419494 
L 255.390372 180.486731 
L 257.399397 180.56047 
L 259.405027 180.621264 
L 261.407519 180.669453 
L 263.407115 180.706092 
L 265.404055 180.732565 
L 267.398588 180.750492 
L 269.390966 180.761534 
L 271.381449 180.76718 
L 273.370292 180.768846 
L 275.357744 180.767687 
L 277.344044 180.764629 
L 279.329417 180.76032 
L 281.314073 180.755191 
L 283.298202 180.749465 
L 285.281977 180.743226 
L 287.265546 180.736451 
L 289.249029 180.729031 
" clip-path="url(#pbd066afa10)" style="fill: none; stroke: #ff0000; stroke-opacity: 0.8; stroke-width: 0.25; stroke-linecap: square"/>
   </g>
   <g id="line2d_45">
    <path d="M 231.448105 173.054647 
L 232.727717 174.643552 
L 234.176872 176.079436 
L 235.777849 177.34354 
L 237.510374 178.419619 
L 239.351633 179.294919 
L 241.277367 179.960239 
L 243.263415 180.406627 
L 245.284532 180.62831 
L 247.314891 180.623257 
L 249.334962 180.45594 
L 251.357319 180.400293 
L 253.37611 180.421231 
L 255.389538 180.488523 
L 257.398554 180.562301 
L 259.404173 180.623086 
L 261.406655 180.671226 
L 263.406238 180.707785 
L 265.403161 180.734155 
L 267.397673 180.751961 
L 269.390025 180.762871 
L 271.380476 180.768378 
L 273.369281 180.769902 
L 275.356689 180.768601 
L 277.342938 180.765402 
L 279.328253 180.760958 
L 281.312843 180.755703 
L 283.296901 180.749864 
L 285.280597 180.743531 
L 287.264083 180.73669 
L 289.24748 180.72924 
" clip-path="url(#pbd066afa10)" style="fill: none; stroke: #ff0000; stroke-width: 0.25; stroke-linecap: square"/>
   </g>
   <g id="line2d_46">
    <path d="M 226.502793 184.938177 
L 227.592664 186.299191 
L 228.547799 187.75864 
L 229.359512 189.303442 
L 230.020364 190.919757 
L 230.524133 192.59313 
L 230.865965 194.30852 
L 231.042857 196.050388 
L 231.050989 197.803018 
L 230.966126 199.555507 
L 230.873582 201.309546 
L 230.773124 203.065112 
L 230.668699 204.822411 
L 230.56514 206.581707 
L 230.466515 208.343192 
L 230.37573 210.106947 
L 230.294558 211.872945 
L 230.223812 213.641075 
L 230.163562 215.411177 
L 230.113348 217.183059 
L 230.072346 218.956525 
L 230.039527 220.731377 
L 230.013765 222.507427 
L 229.993941 224.284495 
L 229.978969 226.062413 
L 229.967836 227.841023 
L 229.959648 229.620173 
L 229.953629 231.399724 
L 229.949214 233.179546 
L 229.946149 234.959522 
L 229.944745 236.739555 
" clip-path="url(#pbd066afa10)" style="fill: none; stroke: #ff0000; stroke-opacity: 0.2; stroke-width: 0.25; stroke-linecap: square"/>
   </g>
   <g id="line2d_47">
    <path d="M 226.502793 184.938177 
L 227.592769 186.299107 
L 228.548024 187.758472 
L 229.359863 189.303197 
L 230.020837 190.919447 
L 230.524716 192.592768 
L 230.866634 194.308118 
L 231.043518 196.049962 
L 231.051708 197.802566 
L 230.966816 199.555026 
L 230.874266 201.309037 
L 230.773786 203.064575 
L 230.669325 204.821846 
L 230.565717 206.581115 
L 230.467029 208.342576 
L 230.376167 210.106311 
L 230.294904 211.872292 
L 230.224054 213.640411 
L 230.163689 215.410507 
L 230.11335 217.182391 
L 230.072216 218.955866 
L 230.039262 220.730735 
L 230.013364 222.50681 
L 229.993407 224.283912 
L 229.978309 226.061873 
L 229.967059 227.840534 
L 229.958762 229.619744 
L 229.95264 231.399364 
L 229.94812 233.179263 
L 229.944916 234.959322 
L 229.943272 236.739444 
" clip-path="url(#pbd066afa10)" style="fill: none; stroke: #ff0000; stroke-opacity: 0.4; stroke-width: 0.25; stroke-linecap: square"/>
   </g>
   <g id="line2d_48">
    <path d="M 226.502793 184.938177 
L 227.593671 186.298385 
L 228.549881 187.75712 
L 229.362602 189.301373 
L 230.024194 190.917361 
L 230.528323 192.590594 
L 230.869958 194.305986 
L 231.04523 196.047978 
L 231.05307 197.800568 
L 230.967934 199.553001 
L 230.875181 201.306987 
L 230.774504 203.062501 
L 230.669856 204.819751 
L 230.56607 206.579003 
L 230.467214 208.340452 
L 230.376193 210.104179 
L 230.294779 211.870159 
L 230.223789 213.638284 
L 230.163293 215.408393 
L 230.112833 217.180297 
L 230.071592 218.9538 
L 230.038544 220.728705 
L 230.012569 222.504823 
L 229.992555 224.281978 
L 229.977419 226.059999 
L 229.966153 227.838728 
L 229.95786 229.618015 
L 229.95176 231.397719 
L 229.947266 233.177709 
L 229.944064 234.957866 
L 229.94233 236.73809 
" clip-path="url(#pbd066afa10)" style="fill: none; stroke: #ff0000; stroke-opacity: 0.6; stroke-width: 0.25; stroke-linecap: square"/>
   </g>
   <g id="line2d_49">
    <path d="M 226.502793 184.938177 
L 227.593962 186.298151 
L 228.550466 187.756691 
L 229.363439 189.300807 
L 230.025168 190.916732 
L 230.529283 192.589962 
L 230.870693 194.305391 
L 231.045251 196.047446 
L 231.052799 197.800029 
L 230.967514 199.552447 
L 230.874656 201.306422 
L 230.773888 203.061927 
L 230.669164 204.819172 
L 230.565319 206.578423 
L 230.466418 208.339876 
L 230.375368 210.103613 
L 230.293939 211.869608 
L 230.222947 213.637753 
L 230.162464 215.407889 
L 230.11203 217.179827 
L 230.070829 218.953369 
L 230.037839 220.728321 
L 230.011941 222.504493 
L 229.992022 224.281708 
L 229.977003 226.059797 
L 229.965875 227.838601 
L 229.957741 229.61797 
L 229.951815 231.397763 
L 229.9475 233.177848 
L 229.944455 234.958106 
L 229.942792 236.738435 
" clip-path="url(#pbd066afa10)" style="fill: none; stroke: #ff0000; stroke-opacity: 0.8; stroke-width: 0.25; stroke-linecap: square"/>
   </g>
   <g id="line2d_50">
    <path d="M 226.502793 184.938177 
L 227.59324 186.29873 
L 228.548977 187.757768 
L 229.361237 189.302253 
L 230.022462 190.918375 
L 230.526362 192.591657 
L 230.867981 194.30703 
L 231.043781 196.048945 
L 231.051433 197.801511 
L 230.966272 199.553919 
L 230.873569 201.307885 
L 230.772951 203.063383 
L 230.668375 204.820622 
L 230.564674 206.579868 
L 230.465914 208.341318 
L 230.375 210.105054 
L 230.293703 211.871051 
L 230.222838 213.639202 
L 230.162476 215.409345 
L 230.112159 217.181295 
L 230.071074 218.954854 
L 230.038198 220.729827 
L 230.012416 222.506027 
L 229.992619 224.283274 
L 229.977726 226.061402 
L 229.966732 227.840251 
L 229.95874 229.61967 
L 229.95296 231.39952 
L 229.948788 233.179667 
L 229.945857 234.959992 
L 229.944227 236.740391 
" clip-path="url(#pbd066afa10)" style="fill: none; stroke: #ff0000; stroke-width: 0.25; stroke-linecap: square"/>
   </g>
   <g id="line2d_51">
    <path d="M 242.535962 210.862926 
L 242.561971 208.902189 
L 242.583014 206.939575 
L 242.594558 204.97473 
L 242.590393 203.007342 
L 242.562629 201.037241 
L 242.501675 199.064563 
L 242.243958 197.104043 
L 241.906436 195.151375 
L 241.542301 193.198691 
L 241.173641 191.241532 
L 241.135678 189.244551 
L 241.579481 187.29086 
L 242.237668 185.39203 
L 243.103401 183.57171 
L 244.16736 181.852949 
L 245.274687 180.155363 
L 245.941423 178.236094 
L 246.076222 176.204394 
L 245.982028 174.166734 
L 245.661418 172.149222 
L 245.117507 170.177626 
L 244.405685 168.258225 
L 243.773618 166.309624 
L 243.21544 164.337596 
L 242.756239 162.339665 
L 242.447341 160.312928 
L 242.276974 158.270011 
L 242.185975 156.222215 
L 242.120513 154.173572 
L 242.065095 152.124694 
" clip-path="url(#pbd066afa10)" style="fill: none; stroke: #ff0000; stroke-opacity: 0.2; stroke-width: 0.25; stroke-linecap: square"/>
   </g>
   <g id="line2d_52">
    <path d="M 242.535962 210.862926 
L 242.561831 208.902188 
L 242.582691 206.939634 
L 242.594038 204.974915 
L 242.589677 203.007721 
L 242.561737 201.037883 
L 242.500652 199.065538 
L 242.243062 197.105403 
L 241.905803 195.153167 
L 241.542006 193.200971 
L 241.173737 191.244364 
L 241.135691 189.248074 
L 241.579559 187.295181 
L 242.235652 185.396511 
L 243.099233 183.576178 
L 244.161739 181.857673 
L 245.269498 180.161627 
L 245.938005 178.24416 
L 246.072016 176.21359 
L 245.980477 174.177038 
L 245.660368 172.160733 
L 245.114951 170.190906 
L 244.405616 168.272002 
L 243.777199 166.32364 
L 243.222932 164.351925 
L 242.768435 162.354322 
L 242.463299 160.328393 
L 242.294194 158.286719 
L 242.199818 156.240392 
L 242.130534 154.193169 
L 242.069256 152.145745 
" clip-path="url(#pbd066afa10)" style="fill: none; stroke: #ff0000; stroke-opacity: 0.4; stroke-width: 0.25; stroke-linecap: square"/>
   </g>
   <g id="line2d_53">
    <path d="M 242.535962 210.862926 
L 242.561848 208.902188 
L 242.582694 206.93965 
L 242.594014 204.974962 
L 242.589611 203.007816 
L 242.561608 201.038045 
L 242.500432 199.065787 
L 242.242866 197.105752 
L 241.905581 195.153642 
L 241.541609 193.201622 
L 241.172936 191.245256 
L 241.133534 189.249175 
L 241.577657 187.296549 
L 242.233729 185.398109 
L 243.097779 183.578265 
L 244.161329 181.860711 
L 245.269791 180.165452 
L 245.939927 178.248859 
L 246.075525 176.218698 
L 245.986099 174.182372 
L 245.668221 172.166054 
L 245.124742 170.196058 
L 244.416722 168.277063 
L 243.790182 166.328497 
L 243.237792 164.356664 
L 242.785854 162.358891 
L 242.482735 160.333068 
L 242.313817 158.291782 
L 242.216847 156.245971 
L 242.145139 154.199224 
L 242.081184 152.152272 
" clip-path="url(#pbd066afa10)" style="fill: none; stroke: #ff0000; stroke-opacity: 0.6; stroke-width: 0.25; stroke-linecap: square"/>
   </g>
   <g id="line2d_54">
    <path d="M 242.535962 210.862926 
L 242.561983 208.90219 
L 242.582956 206.939675 
L 242.594411 204.975032 
L 242.59014 203.007952 
L 242.562254 201.038267 
L 242.501165 199.066118 
L 242.243464 197.106235 
L 241.905931 195.154327 
L 241.54155 193.202565 
L 241.172263 191.246521 
L 241.131621 189.250691 
L 241.575197 187.298196 
L 242.229686 185.399502 
L 243.092328 183.579326 
L 244.154678 181.861417 
L 245.263387 180.166749 
L 245.935574 178.251282 
L 246.071192 176.221529 
L 245.98214 174.18561 
L 245.664592 172.16968 
L 245.121084 170.20015 
L 244.415317 168.280801 
L 243.791103 166.331961 
L 243.240926 164.359976 
L 242.791018 162.362205 
L 242.489139 160.336645 
L 242.320014 158.295816 
L 242.221355 156.250519 
L 242.147983 154.204259 
L 242.082368 152.157786 
" clip-path="url(#pbd066afa10)" style="fill: none; stroke: #ff0000; stroke-opacity: 0.8; stroke-width: 0.25; stroke-linecap: square"/>
   </g>
   <g id="line2d_55">
    <path d="M 242.535962 210.862926 
L 242.562109 208.902191 
L 242.58321 206.939691 
L 242.594838 204.975075 
L 242.590794 203.008031 
L 242.563197 201.038391 
L 242.502466 199.06629 
L 242.245092 197.106435 
L 241.907947 195.15454 
L 241.54388 193.202809 
L 241.174784 191.246827 
L 241.133688 189.251109 
L 241.577304 187.298736 
L 242.23219 185.400299 
L 243.095173 183.580414 
L 244.157519 181.862641 
L 245.266821 180.168499 
L 245.940084 178.253529 
L 246.076768 176.223958 
L 245.987581 174.188154 
L 245.670823 172.172211 
L 245.129024 170.202327 
L 244.423789 168.282906 
L 243.799961 166.334066 
L 243.249961 164.362154 
L 242.800121 162.364487 
L 242.497722 160.339122 
L 242.327051 158.298534 
L 242.226003 156.253462 
L 242.15036 154.207391 
L 242.082566 152.161094 
" clip-path="url(#pbd066afa10)" style="fill: none; stroke: #ff0000; stroke-width: 0.25; stroke-linecap: square"/>
   </g>
   <g id="line2d_56">
    <path d="M 270.92428 167.959798 
L 268.926526 167.920351 
L 266.92362 167.89827 
L 264.915368 167.904257 
L 262.902076 167.951614 
L 260.88501 168.056492 
L 258.867052 168.237854 
L 256.853575 168.517106 
L 254.843442 168.863514 
L 252.806162 169.063161 
L 250.75281 169.000199 
L 248.71321 168.701699 
L 246.666906 168.403929 
L 244.595344 168.30697 
L 242.525816 168.507409 
L 240.548221 169.164653 
L 238.656581 170.04858 
L 236.875717 171.144886 
L 235.230126 172.439661 
L 233.742286 173.916181 
L 232.433098 175.555945 
L 231.320787 177.337486 
L 230.419684 179.236458 
L 229.741777 181.227416 
L 229.296659 183.283912 
L 229.091253 185.378537 
L 229.128411 187.483094 
L 229.28721 189.581866 
L 229.391289 191.68379 
L 229.514863 193.784447 
L 229.684087 195.881839 
" clip-path="url(#pbd066afa10)" style="fill: none; stroke: #ff0000; stroke-opacity: 0.2; stroke-width: 0.25; stroke-linecap: square"/>
   </g>
   <g id="line2d_57">
    <path d="M 270.92428 167.959798 
L 268.926525 167.920407 
L 266.923659 167.898376 
L 264.915486 167.904418 
L 262.902314 167.951835 
L 260.885407 168.056777 
L 258.86765 168.238207 
L 256.854416 168.517532 
L 254.844561 168.863982 
L 252.807583 169.063616 
L 250.754569 169.000618 
L 248.715351 168.702077 
L 246.669465 168.404242 
L 244.598342 168.307182 
L 242.529254 168.50739 
L 240.552036 169.164226 
L 238.660676 170.047539 
L 236.879922 171.142996 
L 235.234214 172.436707 
L 233.745867 173.911874 
L 232.435693 175.550061 
L 231.321875 177.329903 
L 230.418756 179.227182 
L 229.738356 181.216565 
L 229.290528 183.271754 
L 229.082263 185.365373 
L 229.116406 187.469247 
L 229.27348 189.567402 
L 229.376056 191.668645 
L 229.497655 193.768655 
L 229.662117 195.865657 
" clip-path="url(#pbd066afa10)" style="fill: none; stroke: #ff0000; stroke-opacity: 0.4; stroke-width: 0.25; stroke-linecap: square"/>
   </g>
   <g id="line2d_58">
    <path d="M 270.92428 167.959798 
L 268.926526 167.92035 
L 266.923689 167.898205 
L 264.915571 167.904081 
L 262.902477 167.951273 
L 260.885665 168.055928 
L 258.868013 168.237002 
L 256.854884 168.515895 
L 254.845126 168.861799 
L 252.808295 169.060726 
L 250.755548 168.996849 
L 248.716754 168.697248 
L 246.671342 168.398184 
L 244.6006 168.299725 
L 242.531688 168.498238 
L 240.554164 169.153003 
L 238.662493 170.034749 
L 236.881105 171.128403 
L 235.234465 172.42024 
L 233.745095 173.893741 
L 232.432835 175.52966 
L 231.315566 177.306765 
L 230.409456 179.202059 
L 229.727548 181.190377 
L 229.279493 183.244969 
L 229.071306 185.338047 
L 229.106072 187.441354 
L 229.264157 189.538866 
L 229.368194 191.639464 
L 229.490949 193.73883 
L 229.65397 195.835363 
" clip-path="url(#pbd066afa10)" style="fill: none; stroke: #ff0000; stroke-opacity: 0.6; stroke-width: 0.25; stroke-linecap: square"/>
   </g>
   <g id="line2d_59">
    <path d="M 270.92428 167.959798 
L 268.92652 167.920683 
L 266.923707 167.89893 
L 264.915649 167.905259 
L 262.902654 167.952954 
L 260.885986 168.058147 
L 258.868528 168.239784 
L 256.85565 168.51925 
L 254.846184 168.865682 
L 252.809621 169.065054 
L 250.757114 169.001537 
L 248.718563 168.702179 
L 246.673442 168.403216 
L 244.603029 168.304709 
L 242.534434 168.502873 
L 240.557031 169.156832 
L 238.665909 170.038831 
L 236.885108 171.132655 
L 235.239048 172.424533 
L 233.750351 173.898076 
L 232.43837 175.533617 
L 231.320779 177.309946 
L 230.414492 179.2046 
L 229.732977 181.192507 
L 229.285497 183.246684 
L 229.077526 185.339242 
L 229.112271 187.442001 
L 229.271551 189.538866 
L 229.377226 191.638823 
L 229.501302 193.737548 
L 229.663205 195.833601 
" clip-path="url(#pbd066afa10)" style="fill: none; stroke: #ff0000; stroke-opacity: 0.8; stroke-width: 0.25; stroke-linecap: square"/>
   </g>
   <g id="line2d_60">
    <path d="M 270.92428 167.959798 
L 268.926518 167.920748 
L 266.923713 167.899025 
L 264.915671 167.905346 
L 262.902698 167.952981 
L 260.886057 168.058052 
L 258.868625 168.23949 
L 256.855763 168.518667 
L 254.84629 168.864673 
L 252.809746 169.063432 
L 250.757356 168.999079 
L 248.719074 168.698623 
L 246.674273 168.398302 
L 244.604074 168.298166 
L 242.535433 168.494265 
L 240.557326 169.145554 
L 238.66544 170.025482 
L 236.883826 171.117605 
L 235.236944 172.408094 
L 233.747318 173.880376 
L 232.435189 175.515491 
L 231.318541 177.292115 
L 230.412885 179.186779 
L 229.730789 181.174197 
L 229.281563 183.227703 
L 229.071467 185.319755 
L 229.103526 187.422259 
L 229.262325 189.518857 
L 229.368018 191.618507 
L 229.491861 193.716938 
L 229.651267 195.812872 
" clip-path="url(#pbd066afa10)" style="fill: none; stroke: #ff0000; stroke-width: 0.25; stroke-linecap: square"/>
   </g>
   <g id="line2d_61">
    <path d="M 230.291849 134.652377 
L 230.382964 136.430858 
L 230.483669 138.205262 
L 230.593608 139.97548 
L 230.709729 141.7416 
L 230.827131 143.50388 
L 230.938539 145.262761 
L 231.033693 147.018791 
L 231.098608 148.7724 
L 231.114624 150.523366 
L 231.05703 152.269732 
L 231.022841 154.013066 
L 230.8568 155.745267 
L 230.4896 157.442766 
L 229.805601 159.035677 
L 228.974991 160.553861 
L 228.005865 161.984217 
L 226.907377 163.314464 
L 225.689538 164.533089 
L 224.363852 165.630167 
L 222.942145 166.596357 
L 221.437092 167.42356 
L 219.862017 168.104865 
L 218.230791 168.634598 
L 216.55765 169.007909 
L 214.8574 169.22188 
L 213.145015 169.273987 
L 211.435599 169.16596 
L 209.725603 169.071944 
L 208.015769 168.977642 
L 206.307882 168.853727 
" clip-path="url(#pbd066afa10)" style="fill: none; stroke: #ff0000; stroke-opacity: 0.2; stroke-width: 0.25; stroke-linecap: square"/>
   </g>
   <g id="line2d_62">
    <path d="M 230.291849 134.652377 
L 230.383206 136.430846 
L 230.484006 138.205228 
L 230.594031 139.975408 
L 230.710223 141.741475 
L 230.827672 143.503692 
L 230.939093 145.262497 
L 231.034214 147.018443 
L 231.099033 148.771958 
L 231.114869 150.522816 
L 231.056985 152.269055 
L 231.022319 154.012253 
L 230.855608 155.744254 
L 230.487447 157.4414 
L 229.802407 159.033701 
L 228.970625 160.551066 
L 228.000228 161.980364 
L 226.900486 163.309359 
L 225.681603 164.526696 
L 224.354849 165.622204 
L 222.932159 166.586624 
L 221.426257 167.411897 
L 219.85051 168.091171 
L 218.21881 168.618822 
L 216.545479 168.990389 
L 214.845313 169.203452 
L 213.133136 169.255858 
L 211.423884 169.148438 
L 209.714131 169.053724 
L 208.004531 168.958969 
L 206.296614 168.838435 
" clip-path="url(#pbd066afa10)" style="fill: none; stroke: #ff0000; stroke-opacity: 0.4; stroke-width: 0.25; stroke-linecap: square"/>
   </g>
   <g id="line2d_63">
    <path d="M 230.291849 134.652377 
L 230.383555 136.430828 
L 230.484599 138.205195 
L 230.594902 139.975357 
L 230.711399 141.741403 
L 230.829173 143.503595 
L 230.940932 145.262376 
L 231.036392 147.018301 
L 231.101538 148.771801 
L 231.117671 150.522653 
L 231.060026 152.268896 
L 231.025429 154.012091 
L 230.858644 155.744082 
L 230.490178 157.441158 
L 229.80612 159.033877 
L 228.97513 160.551671 
L 228.005369 161.981396 
L 226.906126 163.310797 
L 225.687869 164.528754 
L 224.361499 165.624718 
L 222.939141 166.589616 
L 221.43355 167.415441 
L 219.858098 168.095377 
L 218.226667 168.62383 
L 216.553587 168.996482 
L 214.85354 169.210393 
L 213.141438 169.264786 
L 211.432163 169.157993 
L 209.722396 169.063869 
L 208.012772 168.969914 
L 206.304587 168.853595 
" clip-path="url(#pbd066afa10)" style="fill: none; stroke: #ff0000; stroke-opacity: 0.6; stroke-width: 0.25; stroke-linecap: square"/>
   </g>
   <g id="line2d_64">
    <path d="M 230.291849 134.652377 
L 230.383761 136.430817 
L 230.48485 138.205162 
L 230.595165 139.975285 
L 230.71163 141.741277 
L 230.829317 143.503403 
L 230.940917 145.262107 
L 231.036128 147.017942 
L 231.100916 148.77134 
L 231.116553 150.522069 
L 231.058243 152.268151 
L 231.022682 154.011177 
L 230.854658 155.742888 
L 230.484567 157.439438 
L 229.799739 159.031636 
L 228.967934 160.548774 
L 227.997342 161.977703 
L 226.897286 163.306176 
L 225.67827 164.523085 
L 224.351192 165.617862 
L 222.928208 166.581454 
L 221.422091 167.405862 
L 219.846225 168.084271 
L 218.214512 168.61111 
L 216.541416 168.982617 
L 214.841441 169.195214 
L 213.12954 169.248389 
L 211.420568 169.140628 
L 209.711103 169.045457 
L 208.001775 168.950639 
L 206.293692 168.836521 
" clip-path="url(#pbd066afa10)" style="fill: none; stroke: #ff0000; stroke-opacity: 0.8; stroke-width: 0.25; stroke-linecap: square"/>
   </g>
   <g id="line2d_65">
    <path d="M 230.291849 134.652377 
L 230.384187 136.430795 
L 230.485618 138.205119 
L 230.596316 139.975213 
L 230.713198 141.741172 
L 230.831323 143.503261 
L 230.94337 145.261927 
L 231.039023 147.017728 
L 231.104225 148.771098 
L 231.120228 150.52181 
L 231.0622 152.267887 
L 231.026731 154.010899 
L 230.858617 155.742585 
L 230.488144 157.439033 
L 229.803473 159.031278 
L 228.972205 160.548689 
L 228.002458 161.978168 
L 226.903327 163.307379 
L 225.684934 164.524881 
L 224.358713 165.620661 
L 222.936597 166.585491 
L 221.431288 167.41132 
L 219.856116 168.091277 
L 218.224955 168.619733 
L 216.552138 168.992369 
L 214.852283 169.205688 
L 213.140382 169.257828 
L 211.431408 169.150606 
L 209.721953 169.055895 
L 208.012628 168.961688 
L 206.304364 168.850915 
" clip-path="url(#pbd066afa10)" style="fill: none; stroke: #ff0000; stroke-width: 0.25; stroke-linecap: square"/>
   </g>
   <g id="line2d_66">
    <path d="M 199.966887 180.603799 
L 201.936818 180.58677 
L 203.90785 180.57318 
L 205.879944 180.565919 
L 207.853056 180.568916 
L 209.827093 180.587291 
L 211.801836 180.627488 
L 213.77683 180.697359 
L 215.751205 180.806153 
L 217.72347 180.964345 
L 219.691265 181.183245 
L 221.651171 181.474252 
L 223.599834 181.841633 
L 225.533102 182.290589 
L 227.447232 182.82203 
L 229.340253 183.430574 
L 231.213703 184.102694 
L 233.112721 184.705211 
L 235.067126 185.100983 
L 237.060605 185.189233 
L 239.036871 184.907949 
L 240.970446 184.41119 
L 242.853416 183.748245 
L 244.762245 183.164499 
L 246.689031 182.643806 
L 248.630693 182.182469 
L 250.584821 181.77801 
L 252.54852 181.423729 
L 254.518788 181.108714 
L 256.4929 180.819263 
L 258.46866 180.541547 
" clip-path="url(#pbd066afa10)" style="fill: none; stroke: #ff0000; stroke-opacity: 0.2; stroke-width: 0.25; stroke-linecap: square"/>
   </g>
   <g id="line2d_67">
    <path d="M 199.966887 180.603799 
L 201.93681 180.585857 
L 203.907725 180.571118 
L 205.879605 180.562474 
L 207.852417 180.563877 
L 209.826082 180.580471 
L 211.800399 180.618729 
L 213.774929 180.686536 
L 215.748823 180.79318 
L 217.720608 180.949188 
L 219.687939 181.165931 
L 221.647403 181.454886 
L 223.595633 181.820419 
L 225.528445 182.267849 
L 227.442035 182.79823 
L 229.334348 183.406336 
L 231.206833 184.078768 
L 233.104515 184.682884 
L 235.057626 185.081188 
L 237.050232 185.172685 
L 239.026331 184.895057 
L 240.96018 184.401878 
L 242.843437 183.741465 
L 244.752664 183.160808 
L 246.679742 182.643033 
L 248.621608 182.18448 
L 250.575887 181.782798 
L 252.539715 181.431434 
L 254.510109 181.119572 
L 256.484351 180.833516 
L 258.460124 180.558448 
" clip-path="url(#pbd066afa10)" style="fill: none; stroke: #ff0000; stroke-opacity: 0.4; stroke-width: 0.25; stroke-linecap: square"/>
   </g>
   <g id="line2d_68">
    <path d="M 199.966887 180.603799 
L 201.936809 180.585752 
L 203.907679 180.570897 
L 205.879472 180.562122 
L 207.852161 180.563385 
L 209.825669 180.579837 
L 211.7998 180.617956 
L 213.774117 180.685639 
L 215.747775 180.792184 
L 217.719302 180.948129 
L 219.686352 181.164865 
L 221.645509 181.453888 
L 223.593396 181.819595 
L 225.525817 182.267332 
L 227.438948 182.798189 
L 229.330713 183.406967 
L 231.202549 184.080283 
L 233.099538 184.685569 
L 235.052093 185.085126 
L 237.044371 185.177663 
L 239.020245 184.900335 
L 240.953829 184.407128 
L 242.836743 183.746447 
L 244.745708 183.165686 
L 246.672503 182.647671 
L 248.614076 182.18875 
L 250.568062 181.786602 
L 252.531607 181.434714 
L 254.501728 181.122301 
L 256.475708 180.835684 
L 258.451208 180.559951 
" clip-path="url(#pbd066afa10)" style="fill: none; stroke: #ff0000; stroke-opacity: 0.6; stroke-width: 0.25; stroke-linecap: square"/>
   </g>
   <g id="line2d_69">
    <path d="M 199.966887 180.603799 
L 201.936804 180.585166 
L 203.907606 180.569592 
L 205.879275 180.55995 
L 207.851791 180.56021 
L 209.825087 180.575536 
L 211.798978 180.612425 
L 213.773038 180.678794 
L 215.746435 180.78397 
L 217.717708 180.93853 
L 219.68452 181.153916 
L 221.643454 181.441692 
L 223.591119 181.806337 
L 225.523287 182.2533 
L 227.436084 182.783785 
L 229.327363 183.392717 
L 231.198489 184.066808 
L 233.094579 184.673638 
L 235.046374 185.075092 
L 237.038228 185.169584 
L 239.013717 184.891631 
L 240.947436 184.399989 
L 242.830533 183.740483 
L 244.739846 183.161493 
L 246.666907 182.645049 
L 248.608676 182.187511 
L 250.562801 181.786572 
L 252.526443 181.435746 
L 254.496634 181.124283 
L 256.470666 180.838537 
L 258.446199 180.563541 
" clip-path="url(#pbd066afa10)" style="fill: none; stroke: #ff0000; stroke-opacity: 0.8; stroke-width: 0.25; stroke-linecap: square"/>
   </g>
   <g id="line2d_70">
    <path d="M 199.966887 180.603799 
L 201.936804 180.585197 
L 203.907603 180.569677 
L 205.879267 180.560097 
L 207.851776 180.560423 
L 209.825064 180.575816 
L 211.798945 180.612771 
L 213.772996 180.679202 
L 215.746384 180.784439 
L 217.717648 180.939064 
L 219.684452 181.154524 
L 221.643376 181.442396 
L 223.591024 181.80718 
L 225.52316 182.254344 
L 227.435899 182.785115 
L 229.32708 183.394443 
L 231.198057 184.069058 
L 233.09401 184.676465 
L 235.045777 185.078338 
L 237.037693 185.172909 
L 239.013343 184.895577 
L 240.947187 184.404095 
L 242.830187 183.744049 
L 244.739451 183.164582 
L 246.666441 182.647506 
L 248.608131 182.189197 
L 250.56218 181.787379 
L 252.525757 181.435602 
L 254.495898 181.123146 
L 256.469892 180.836392 
L 258.445389 180.560369 
" clip-path="url(#pbd066afa10)" style="fill: none; stroke: #ff0000; stroke-width: 0.25; stroke-linecap: square"/>
   </g>
   <g id="line2d_71">
    <path d="M 242.36028 247.37616 
L 242.36028 245.54664 
L 242.36028 243.71712 
L 242.36028 241.8876 
L 242.36028 240.05808 
L 242.36028 238.22856 
L 242.36028 236.39904 
L 242.36028 234.56952 
L 242.36028 232.74 
L 242.36028 230.91048 
L 242.36028 229.08096 
L 242.36028 227.25144 
L 242.36028 225.42192 
L 242.36028 223.5924 
L 242.36028 221.76288 
L 242.36028 219.93336 
L 242.36028 218.10384 
L 242.36028 216.27432 
L 242.36028 214.4448 
L 242.36028 212.61528 
L 242.36028 210.78576 
L 242.36028 208.95624 
L 242.36028 207.12672 
L 242.36028 205.2972 
L 242.36028 203.46768 
L 242.36028 201.63816 
L 242.36028 199.80864 
L 242.36028 197.97912 
L 242.36028 196.1496 
L 242.36028 194.32008 
L 242.36028 192.49056 
" clip-path="url(#pbd066afa10)" style="fill: none; stroke: #ff0000; stroke-opacity: 0.2; stroke-width: 0.25; stroke-linecap: square"/>
   </g>
   <g id="line2d_72">
    <path d="M 242.36028 247.37616 
L 242.36028 245.54664 
L 242.36028 243.71712 
L 242.36028 241.8876 
L 242.36028 240.05808 
L 242.36028 238.22856 
L 242.36028 236.39904 
L 242.36028 234.56952 
L 242.36028 232.74 
L 242.36028 230.91048 
L 242.36028 229.08096 
L 242.36028 227.25144 
L 242.36028 225.42192 
L 242.36028 223.5924 
L 242.36028 221.76288 
L 242.36028 219.93336 
L 242.36028 218.10384 
L 242.36028 216.27432 
L 242.36028 214.4448 
L 242.36028 212.61528 
L 242.36028 210.78576 
L 242.36028 208.95624 
L 242.36028 207.12672 
L 242.36028 205.2972 
L 242.36028 203.46768 
L 242.36028 201.63816 
L 242.36028 199.80864 
L 242.36028 197.97912 
L 242.36028 196.1496 
L 242.36028 194.32008 
L 242.36028 192.49056 
" clip-path="url(#pbd066afa10)" style="fill: none; stroke: #ff0000; stroke-opacity: 0.4; stroke-width: 0.25; stroke-linecap: square"/>
   </g>
   <g id="line2d_73">
    <path d="M 242.36028 247.37616 
L 242.36028 245.54664 
L 242.36028 243.71712 
L 242.36028 241.8876 
L 242.36028 240.05808 
L 242.36028 238.22856 
L 242.36028 236.39904 
L 242.36028 234.56952 
L 242.36028 232.74 
L 242.36028 230.91048 
L 242.36028 229.08096 
L 242.36028 227.25144 
L 242.36028 225.42192 
L 242.36028 223.5924 
L 242.36028 221.76288 
L 242.36028 219.93336 
L 242.36028 218.10384 
L 242.36028 216.27432 
L 242.36028 214.4448 
L 242.36028 212.61528 
L 242.36028 210.78576 
L 242.36028 208.95624 
L 242.36028 207.12672 
L 242.36028 205.2972 
L 242.36028 203.46768 
L 242.36028 201.63816 
L 242.36028 199.80864 
L 242.36028 197.97912 
L 242.36028 196.1496 
L 242.36028 194.32008 
L 242.36028 192.49056 
" clip-path="url(#pbd066afa10)" style="fill: none; stroke: #ff0000; stroke-opacity: 0.6; stroke-width: 0.25; stroke-linecap: square"/>
   </g>
   <g id="line2d_74">
    <path d="M 242.36028 247.37616 
L 242.36028 245.54664 
L 242.36028 243.71712 
L 242.36028 241.8876 
L 242.36028 240.05808 
L 242.36028 238.22856 
L 242.36028 236.39904 
L 242.36028 234.56952 
L 242.36028 232.74 
L 242.36028 230.91048 
L 242.36028 229.08096 
L 242.36028 227.25144 
L 242.36028 225.42192 
L 242.36028 223.5924 
L 242.36028 221.76288 
L 242.36028 219.93336 
L 242.36028 218.10384 
L 242.36028 216.27432 
L 242.36028 214.4448 
L 242.36028 212.61528 
L 242.36028 210.78576 
L 242.36028 208.95624 
L 242.36028 207.12672 
L 242.36028 205.2972 
L 242.36028 203.46768 
L 242.36028 201.63816 
L 242.36028 199.80864 
L 242.36028 197.97912 
L 242.36028 196.1496 
L 242.36028 194.32008 
L 242.36028 192.49056 
" clip-path="url(#pbd066afa10)" style="fill: none; stroke: #ff0000; stroke-opacity: 0.8; stroke-width: 0.25; stroke-linecap: square"/>
   </g>
   <g id="line2d_75">
    <path d="M 242.36028 247.37616 
L 242.36028 245.54664 
L 242.36028 243.71712 
L 242.36028 241.8876 
L 242.36028 240.05808 
L 242.36028 238.22856 
L 242.36028 236.39904 
L 242.36028 234.56952 
L 242.36028 232.74 
L 242.36028 230.91048 
L 242.36028 229.08096 
L 242.36028 227.25144 
L 242.36028 225.42192 
L 242.36028 223.5924 
L 242.36028 221.76288 
L 242.36028 219.93336 
L 242.36028 218.10384 
L 242.36028 216.27432 
L 242.36028 214.4448 
L 242.36028 212.61528 
L 242.36028 210.78576 
L 242.36028 208.95624 
L 242.36028 207.12672 
L 242.36028 205.2972 
L 242.36028 203.46768 
L 242.36028 201.63816 
L 242.36028 199.80864 
L 242.36028 197.97912 
L 242.36028 196.1496 
L 242.36028 194.32008 
L 242.36028 192.49056 
" clip-path="url(#pbd066afa10)" style="fill: none; stroke: #ff0000; stroke-width: 0.25; stroke-linecap: square"/>
   </g>
   <g id="line2d_76">
    <path d="M 304.070984 168.327794 
L 302.096708 168.325576 
L 300.124258 168.322905 
L 298.153622 168.319282 
L 296.184786 168.314548 
L 294.217736 168.308551 
L 292.252454 168.301169 
L 290.288919 168.292334 
L 288.327107 168.282063 
L 286.36699 168.270502 
L 284.40853 168.257979 
L 282.451684 168.245064 
L 280.496399 168.232653 
L 278.542612 168.222043 
L 276.590254 168.215037 
L 274.639255 168.214036 
L 272.689561 168.222139 
L 270.741155 168.243225 
L 268.794104 168.28201 
L 266.848616 168.344054 
L 264.905118 168.435688 
L 262.964352 168.563827 
L 261.027455 168.735605 
L 259.095992 168.957768 
L 257.171858 169.235737 
L 255.253232 169.550352 
L 253.317063 169.731327 
L 251.372157 169.709948 
L 249.430143 169.595866 
L 247.487174 169.495238 
L 245.543434 169.408497 
" clip-path="url(#pbd066afa10)" style="fill: none; stroke: #ff0000; stroke-opacity: 0.2; stroke-width: 0.25; stroke-linecap: square"/>
   </g>
   <g id="line2d_77">
    <path d="M 304.070984 168.327794 
L 302.096708 168.325512 
L 300.124219 168.322773 
L 298.153505 168.319068 
L 296.184554 168.314238 
L 294.217354 168.308131 
L 292.251888 168.300626 
L 290.288137 168.291657 
L 288.326078 168.281244 
L 286.365685 168.269539 
L 284.406921 168.256877 
L 282.449745 168.243842 
L 280.494105 168.231346 
L 278.53994 168.220711 
L 276.587182 168.213771 
L 274.635765 168.212966 
L 272.685636 168.221446 
L 270.736787 168.243152 
L 268.789292 168.282869 
L 266.843372 168.346233 
L 264.899477 168.439653 
L 262.958378 168.570115 
L 261.021251 168.7448 
L 259.089703 168.970464 
L 257.165667 169.252459 
L 255.247253 169.571271 
L 253.310881 169.755019 
L 251.365524 169.733688 
L 249.423417 169.613854 
L 247.480443 169.505267 
L 245.53677 169.408036 
" clip-path="url(#pbd066afa10)" style="fill: none; stroke: #ff0000; stroke-opacity: 0.4; stroke-width: 0.25; stroke-linecap: square"/>
   </g>
   <g id="line2d_78">
    <path d="M 304.070984 168.327794 
L 302.096708 168.325491 
L 300.124225 168.322735 
L 298.153524 168.319005 
L 296.184591 168.314137 
L 294.217414 168.307977 
L 292.251976 168.300403 
L 290.288257 168.291344 
L 288.326235 168.28082 
L 286.36588 168.268982 
L 284.407159 168.256167 
L 282.450028 168.242966 
L 280.494435 168.230298 
L 278.540318 168.2195 
L 276.587609 168.212424 
L 274.636241 168.211541 
L 272.686161 168.220036 
L 270.737361 168.241896 
L 268.789919 168.281963 
L 266.844063 168.345941 
L 264.900256 168.440316 
L 262.959289 168.572156 
L 261.022367 168.748727 
L 259.091138 168.976855 
L 257.167581 169.26194 
L 255.249728 169.584011 
L 253.313549 169.769681 
L 251.368199 169.748081 
L 249.426284 169.625136 
L 247.483466 169.513671 
L 245.539922 169.413747 
" clip-path="url(#pbd066afa10)" style="fill: none; stroke: #ff0000; stroke-opacity: 0.6; stroke-width: 0.25; stroke-linecap: square"/>
   </g>
   <g id="line2d_79">
    <path d="M 304.070984 168.327794 
L 302.096708 168.325469 
L 300.12424 168.322693 
L 298.153568 168.318933 
L 296.184679 168.314023 
L 294.217557 168.307809 
L 292.252186 168.300165 
L 290.288546 168.29102 
L 288.326612 168.280394 
L 286.366355 168.268439 
L 284.407739 168.255496 
L 282.450721 168.242162 
L 280.495247 168.229363 
L 278.541254 168.218453 
L 276.588673 168.211302 
L 274.637435 168.210408 
L 272.687489 168.218987 
L 270.738825 168.241069 
L 268.791526 168.281546 
L 266.845825 168.346179 
L 264.902195 168.441523 
L 262.961447 168.574715 
L 261.024812 168.753093 
L 259.093974 168.983546 
L 257.170954 169.27151 
L 255.253551 169.595675 
L 253.317497 169.781723 
L 251.372241 169.758879 
L 249.430551 169.633557 
L 247.487935 169.519829 
L 245.544574 169.417692 
" clip-path="url(#pbd066afa10)" style="fill: none; stroke: #ff0000; stroke-opacity: 0.8; stroke-width: 0.25; stroke-linecap: square"/>
   </g>
   <g id="line2d_80">
    <path d="M 304.070984 168.327794 
L 302.096708 168.325474 
L 300.124245 168.322709 
L 298.153583 168.31896 
L 296.184708 168.314059 
L 294.217605 168.307852 
L 292.252256 168.30021 
L 290.288642 168.291063 
L 288.326738 168.280429 
L 286.366514 168.268461 
L 284.407935 168.255501 
L 282.450956 168.242146 
L 280.495522 168.229328 
L 278.541573 168.218403 
L 276.589036 168.211251 
L 274.637845 168.210378 
L 272.687946 168.219014 
L 270.739333 168.241205 
L 268.792086 168.281864 
L 266.846444 168.346779 
L 264.902884 168.442534 
L 262.962225 168.576302 
L 261.025711 168.755459 
L 259.095043 168.986927 
L 257.172262 169.276169 
L 255.25512 169.601592 
L 253.319172 169.78829 
L 251.37396 169.765326 
L 249.432369 169.639124 
L 247.489842 169.524567 
L 245.546564 169.421613 
" clip-path="url(#pbd066afa10)" style="fill: none; stroke: #ff0000; stroke-width: 0.25; stroke-linecap: square"/>
   </g>
   <g id="line2d_81">
    <path d="M 229.95972 101.67984 
L 229.95972 103.50936 
L 229.95972 105.33888 
L 229.95972 107.1684 
L 229.95972 108.99792 
L 229.95972 110.82744 
L 229.95972 112.65696 
L 229.95972 114.48648 
L 229.95972 116.316 
L 229.95972 118.14552 
L 229.95972 119.97504 
L 229.95972 121.80456 
L 229.95972 123.63408 
L 229.95972 125.4636 
L 229.95972 127.29312 
L 229.95972 129.12264 
L 229.95972 130.95216 
L 229.95972 132.78168 
L 229.95972 134.6112 
L 229.95972 136.44072 
L 229.95972 138.27024 
L 229.95972 140.09976 
L 229.95972 141.92928 
L 229.95972 143.7588 
L 229.95972 145.58832 
L 229.95972 147.41784 
L 229.95972 149.24736 
L 229.95972 151.07688 
L 229.95972 152.9064 
L 229.95972 154.73592 
L 229.95972 156.56544 
" clip-path="url(#pbd066afa10)" style="fill: none; stroke: #ff0000; stroke-opacity: 0.2; stroke-width: 0.25; stroke-linecap: square"/>
   </g>
   <g id="line2d_82">
    <path d="M 229.95972 101.67984 
L 229.95972 103.50936 
L 229.95972 105.33888 
L 229.95972 107.1684 
L 229.95972 108.99792 
L 229.95972 110.82744 
L 229.95972 112.65696 
L 229.95972 114.48648 
L 229.95972 116.316 
L 229.95972 118.14552 
L 229.95972 119.97504 
L 229.95972 121.80456 
L 229.95972 123.63408 
L 229.95972 125.4636 
L 229.95972 127.29312 
L 229.95972 129.12264 
L 229.95972 130.95216 
L 229.95972 132.78168 
L 229.95972 134.6112 
L 229.95972 136.44072 
L 229.95972 138.27024 
L 229.95972 140.09976 
L 229.95972 141.92928 
L 229.95972 143.7588 
L 229.95972 145.58832 
L 229.95972 147.41784 
L 229.95972 149.24736 
L 229.95972 151.07688 
L 229.95972 152.9064 
L 229.95972 154.73592 
L 229.95972 156.56544 
" clip-path="url(#pbd066afa10)" style="fill: none; stroke: #ff0000; stroke-opacity: 0.4; stroke-width: 0.25; stroke-linecap: square"/>
   </g>
   <g id="line2d_83">
    <path d="M 229.95972 101.67984 
L 229.95972 103.50936 
L 229.95972 105.33888 
L 229.95972 107.1684 
L 229.95972 108.99792 
L 229.95972 110.82744 
L 229.95972 112.65696 
L 229.95972 114.48648 
L 229.95972 116.316 
L 229.95972 118.14552 
L 229.95972 119.97504 
L 229.95972 121.80456 
L 229.95972 123.63408 
L 229.95972 125.4636 
L 229.95972 127.29312 
L 229.95972 129.12264 
L 229.95972 130.95216 
L 229.95972 132.78168 
L 229.95972 134.6112 
L 229.95972 136.44072 
L 229.95972 138.27024 
L 229.95972 140.09976 
L 229.95972 141.92928 
L 229.95972 143.7588 
L 229.95972 145.58832 
L 229.95972 147.41784 
L 229.95972 149.24736 
L 229.95972 151.07688 
L 229.95972 152.9064 
L 229.95972 154.73592 
L 229.95972 156.56544 
" clip-path="url(#pbd066afa10)" style="fill: none; stroke: #ff0000; stroke-opacity: 0.6; stroke-width: 0.25; stroke-linecap: square"/>
   </g>
   <g id="line2d_84">
    <path d="M 229.95972 101.67984 
L 229.95972 103.50936 
L 229.95972 105.33888 
L 229.95972 107.1684 
L 229.95972 108.99792 
L 229.95972 110.82744 
L 229.95972 112.65696 
L 229.95972 114.48648 
L 229.95972 116.316 
L 229.95972 118.14552 
L 229.95972 119.97504 
L 229.95972 121.80456 
L 229.95972 123.63408 
L 229.95972 125.4636 
L 229.95972 127.29312 
L 229.95972 129.12264 
L 229.95972 130.95216 
L 229.95972 132.78168 
L 229.95972 134.6112 
L 229.95972 136.44072 
L 229.95972 138.27024 
L 229.95972 140.09976 
L 229.95972 141.92928 
L 229.95972 143.7588 
L 229.95972 145.58832 
L 229.95972 147.41784 
L 229.95972 149.24736 
L 229.95972 151.07688 
L 229.95972 152.9064 
L 229.95972 154.73592 
L 229.95972 156.56544 
" clip-path="url(#pbd066afa10)" style="fill: none; stroke: #ff0000; stroke-opacity: 0.8; stroke-width: 0.25; stroke-linecap: square"/>
   </g>
   <g id="line2d_85">
    <path d="M 229.95972 101.67984 
L 229.95972 103.50936 
L 229.95972 105.33888 
L 229.95972 107.1684 
L 229.95972 108.99792 
L 229.95972 110.82744 
L 229.95972 112.65696 
L 229.95972 114.48648 
L 229.95972 116.316 
L 229.95972 118.14552 
L 229.95972 119.97504 
L 229.95972 121.80456 
L 229.95972 123.63408 
L 229.95972 125.4636 
L 229.95972 127.29312 
L 229.95972 129.12264 
L 229.95972 130.95216 
L 229.95972 132.78168 
L 229.95972 134.6112 
L 229.95972 136.44072 
L 229.95972 138.27024 
L 229.95972 140.09976 
L 229.95972 141.92928 
L 229.95972 143.7588 
L 229.95972 145.58832 
L 229.95972 147.41784 
L 229.95972 149.24736 
L 229.95972 151.07688 
L 229.95972 152.9064 
L 229.95972 154.73592 
L 229.95972 156.56544 
" clip-path="url(#pbd066afa10)" style="fill: none; stroke: #ff0000; stroke-width: 0.25; stroke-linecap: square"/>
   </g>
   <g id="line2d_86">
    <path d="M 168.251232 180.721593 
L 170.226111 180.721531 
L 172.199145 180.722001 
L 174.170344 180.723521 
L 176.139719 180.726431 
L 178.107281 180.731132 
L 180.073043 180.738077 
L 182.037018 180.747764 
L 183.999222 180.760717 
L 185.95967 180.777452 
L 187.918381 180.798431 
L 189.875379 180.823992 
L 191.830693 180.854255 
L 193.784368 180.889005 
L 195.736465 180.927531 
L 197.687076 180.968441 
L 199.636325 181.009427 
L 201.584375 181.047002 
L 203.531402 181.076195 
L 205.477549 181.090233 
L 207.422803 181.080197 
L 209.366782 181.034699 
L 211.308362 180.939578 
L 213.245097 180.777666 
L 215.160049 180.44708 
L 217.049137 179.991344 
L 218.916299 179.451932 
L 220.84217 179.187443 
L 222.785826 179.240822 
L 224.728068 179.338237 
L 226.671181 179.41983 
" clip-path="url(#pbd066afa10)" style="fill: none; stroke: #ff0000; stroke-opacity: 0.2; stroke-width: 0.25; stroke-linecap: square"/>
   </g>
   <g id="line2d_87">
    <path d="M 168.251232 180.721593 
L 170.226111 180.721506 
L 172.199155 180.721972 
L 174.170374 180.723513 
L 176.13978 180.72648 
L 178.107384 180.731287 
L 180.073199 180.7384 
L 182.037238 180.748335 
L 183.999516 180.761632 
L 185.960049 180.778826 
L 187.918855 180.800396 
L 189.875956 180.826697 
L 191.831383 180.857861 
L 193.785178 180.893677 
L 195.737404 180.933429 
L 197.688151 180.975698 
L 199.63755 181.018128 
L 201.585764 181.057145 
L 203.532978 181.087655 
L 205.479338 181.102706 
L 207.424829 181.093142 
L 209.369047 181.047262 
L 211.310807 180.950513 
L 213.247534 180.785256 
L 215.160834 180.443604 
L 217.046411 179.972322 
L 218.910219 179.420343 
L 220.835522 179.1495 
L 222.779455 179.204145 
L 224.72143 179.312419 
L 226.664268 179.406783 
" clip-path="url(#pbd066afa10)" style="fill: none; stroke: #ff0000; stroke-opacity: 0.4; stroke-width: 0.25; stroke-linecap: square"/>
   </g>
   <g id="line2d_88">
    <path d="M 168.251232 180.721593 
L 170.226111 180.721519 
L 172.199159 180.722007 
L 174.170388 180.723571 
L 176.139807 180.72656 
L 178.10743 180.731383 
L 180.073267 180.738503 
L 182.037334 180.748431 
L 183.999645 180.761701 
L 185.960216 180.77884 
L 187.919066 180.800317 
L 189.876218 180.826473 
L 191.831701 180.857426 
L 193.78556 180.892944 
L 195.737858 180.932286 
L 197.688687 180.974005 
L 199.638175 181.015711 
L 201.586488 181.053796 
L 203.533805 181.083131 
L 205.480265 181.096727 
L 207.425841 181.085394 
L 209.370108 181.037404 
L 211.311848 180.938189 
L 213.24844 180.770105 
L 215.161319 180.425475 
L 217.046162 179.950795 
L 218.909758 179.397693 
L 220.835317 179.127828 
L 222.779271 179.185844 
L 224.721085 179.299052 
L 226.663841 179.397498 
" clip-path="url(#pbd066afa10)" style="fill: none; stroke: #ff0000; stroke-opacity: 0.6; stroke-width: 0.25; stroke-linecap: square"/>
   </g>
   <g id="line2d_89">
    <path d="M 168.251232 180.721593 
L 170.226111 180.72151 
L 172.199145 180.722001 
L 174.170347 180.723586 
L 176.139727 180.72662 
L 178.107298 180.731522 
L 180.073074 180.738763 
L 182.03707 180.748864 
L 183.999299 180.76237 
L 185.959779 180.779819 
L 187.918529 180.80169 
L 189.875572 180.828335 
L 191.830939 180.859879 
L 193.784673 180.896093 
L 195.736838 180.936235 
L 197.687528 180.978846 
L 199.636875 181.021509 
L 201.585046 181.060575 
L 203.532227 181.090846 
L 205.478562 181.105238 
L 207.424023 181.094432 
L 209.368178 181.046526 
L 211.309781 180.946725 
L 213.246137 180.777104 
L 215.158225 180.428623 
L 217.041531 179.948216 
L 218.903357 179.389433 
L 220.82833 179.115835 
L 222.772258 179.173045 
L 224.71385 179.289283 
L 226.656428 179.390444 
" clip-path="url(#pbd066afa10)" style="fill: none; stroke: #ff0000; stroke-opacity: 0.8; stroke-width: 0.25; stroke-linecap: square"/>
   </g>
   <g id="line2d_90">
    <path d="M 168.251232 180.721593 
L 170.226111 180.721503 
L 172.199156 180.721982 
L 174.170379 180.723544 
L 176.139791 180.726539 
L 178.107403 180.731379 
L 180.073229 180.738531 
L 182.037282 180.748508 
L 183.999578 180.761845 
L 185.960134 180.779072 
L 187.918967 180.800657 
L 189.876101 180.826939 
L 191.831567 180.85803 
L 193.785408 180.893688 
L 195.737688 180.933154 
L 197.688501 180.974956 
L 199.637978 181.016672 
L 201.586282 181.054652 
L 203.533595 181.08371 
L 205.480053 181.096788 
L 207.425622 181.084615 
L 209.369857 181.035367 
L 211.31151 180.934369 
L 213.247898 180.763853 
L 215.160235 180.416155 
L 217.044096 179.937519 
L 218.906776 179.381257 
L 220.832133 179.109746 
L 222.776091 179.168744 
L 224.717671 179.28654 
L 226.66026 179.388998 
" clip-path="url(#pbd066afa10)" style="fill: none; stroke: #ff0000; stroke-width: 0.25; stroke-linecap: square"/>
   </g>
   <g id="patch_15">
    <path d="M 103.104 307.584 
L 103.104 41.472 
" style="fill: none; stroke: #000000; stroke-width: 0.8; stroke-linejoin: miter; stroke-linecap: square"/>
   </g>
   <g id="patch_16">
    <path d="M 369.216 307.584 
L 369.216 41.472 
" style="fill: none; stroke: #000000; stroke-width: 0.8; stroke-linejoin: miter; stroke-linecap: square"/>
   </g>
   <g id="patch_17">
    <path d="M 103.104 307.584 
L 369.216 307.584 
" style="fill: none; stroke: #000000; stroke-width: 0.8; stroke-linejoin: miter; stroke-linecap: square"/>
   </g>
   <g id="patch_18">
    <path d="M 103.104 41.472 
L 369.216 41.472 
" style="fill: none; stroke: #000000; stroke-width: 0.8; stroke-linejoin: miter; stroke-linecap: square"/>
   </g>
   <g id="text_19">
    <!-- Time:  32 ms -->
    <g transform="translate(264.253887 54.7776) scale(0.1 -0.1)">
     <defs>
      <path id="DejaVuSans-54" d="M -19 4666 
L 3928 4666 
L 3928 4134 
L 2272 4134 
L 2272 0 
L 1638 0 
L 1638 4134 
L -19 4134 
L -19 4666 
z
" transform="scale(0.015625)"/>
      <path id="DejaVuSans-69" d="M 603 3500 
L 1178 3500 
L 1178 0 
L 603 0 
L 603 3500 
z
M 603 4863 
L 1178 4863 
L 1178 4134 
L 603 4134 
L 603 4863 
z
" transform="scale(0.015625)"/>
      <path id="DejaVuSans-6d" d="M 3328 2828 
Q 3544 3216 3844 3400 
Q 4144 3584 4550 3584 
Q 5097 3584 5394 3201 
Q 5691 2819 5691 2113 
L 5691 0 
L 5113 0 
L 5113 2094 
Q 5113 2597 4934 2840 
Q 4756 3084 4391 3084 
Q 3944 3084 3684 2787 
Q 3425 2491 3425 1978 
L 3425 0 
L 2847 0 
L 2847 2094 
Q 2847 2600 2669 2842 
Q 2491 3084 2119 3084 
Q 1678 3084 1418 2786 
Q 1159 2488 1159 1978 
L 1159 0 
L 581 0 
L 581 3500 
L 1159 3500 
L 1159 2956 
Q 1356 3278 1631 3431 
Q 1906 3584 2284 3584 
Q 2666 3584 2933 3390 
Q 3200 3197 3328 2828 
z
" transform="scale(0.015625)"/>
      <path id="DejaVuSans-65" d="M 3597 1894 
L 3597 1613 
L 953 1613 
Q 991 1019 1311 708 
Q 1631 397 2203 397 
Q 2534 397 2845 478 
Q 3156 559 3463 722 
L 3463 178 
Q 3153 47 2828 -22 
Q 2503 -91 2169 -91 
Q 1331 -91 842 396 
Q 353 884 353 1716 
Q 353 2575 817 3079 
Q 1281 3584 2069 3584 
Q 2775 3584 3186 3129 
Q 3597 2675 3597 1894 
z
M 3022 2063 
Q 3016 2534 2758 2815 
Q 2500 3097 2075 3097 
Q 1594 3097 1305 2825 
Q 1016 2553 972 2059 
L 3022 2063 
z
" transform="scale(0.015625)"/>
      <path id="DejaVuSans-3a" d="M 750 794 
L 1409 794 
L 1409 0 
L 750 0 
L 750 794 
z
M 750 3309 
L 1409 3309 
L 1409 2516 
L 750 2516 
L 750 3309 
z
" transform="scale(0.015625)"/>
      <path id="DejaVuSans-20" transform="scale(0.015625)"/>
      <path id="DejaVuSans-73" d="M 2834 3397 
L 2834 2853 
Q 2591 2978 2328 3040 
Q 2066 3103 1784 3103 
Q 1356 3103 1142 2972 
Q 928 2841 928 2578 
Q 928 2378 1081 2264 
Q 1234 2150 1697 2047 
L 1894 2003 
Q 2506 1872 2764 1633 
Q 3022 1394 3022 966 
Q 3022 478 2636 193 
Q 2250 -91 1575 -91 
Q 1294 -91 989 -36 
Q 684 19 347 128 
L 347 722 
Q 666 556 975 473 
Q 1284 391 1588 391 
Q 1994 391 2212 530 
Q 2431 669 2431 922 
Q 2431 1156 2273 1281 
Q 2116 1406 1581 1522 
L 1381 1569 
Q 847 1681 609 1914 
Q 372 2147 372 2553 
Q 372 3047 722 3315 
Q 1072 3584 1716 3584 
Q 2034 3584 2315 3537 
Q 2597 3491 2834 3397 
z
" transform="scale(0.015625)"/>
     </defs>
     <use xlink:href="#DejaVuSans-54"/>
     <use xlink:href="#DejaVuSans-69" x="57.958984"/>
     <use xlink:href="#DejaVuSans-6d" x="85.742188"/>
     <use xlink:href="#DejaVuSans-65" x="183.154297"/>
     <use xlink:href="#DejaVuSans-3a" x="244.677734"/>
     <use xlink:href="#DejaVuSans-20" x="278.369141"/>
     <use xlink:href="#DejaVuSans-20" x="310.15625"/>
     <use xlink:href="#DejaVuSans-33" x="341.943359"/>
     <use xlink:href="#DejaVuSans-32" x="405.566406"/>
     <use xlink:href="#DejaVuSans-20" x="469.189453"/>
     <use xlink:href="#DejaVuSans-6d" x="500.976562"/>
     <use xlink:href="#DejaVuSans-73" x="598.388672"/>
    </g>
   </g>
  </g>
 </g>
 <defs>
  <clipPath id="pbd066afa10">
   <rect x="103.104" y="41.472" width="266.112" height="266.112"/>
  </clipPath>
 </defs>
</svg>
