<?xml version="1.0" encoding="utf-8" standalone="no"?>
<!DOCTYPE svg PUBLIC "-//W3C//DTD SVG 1.1//EN"
  "http://www.w3.org/Graphics/SVG/1.1/DTD/svg11.dtd">
<svg xmlns:xlink="http://www.w3.org/1999/xlink" width="460.8pt" height="345.6pt" viewBox="0 0 460.8 345.6" xmlns="http://www.w3.org/2000/svg" version="1.1">
 <metadata>
  <rdf:RDF xmlns:dc="http://purl.org/dc/elements/1.1/" xmlns:cc="http://creativecommons.org/ns#" xmlns:rdf="http://www.w3.org/1999/02/22-rdf-syntax-ns#">
   <cc:Work>
    <dc:type rdf:resource="http://purl.org/dc/dcmitype/StillImage"/>
    <dc:date>2024-01-23T16:31:51.217956</dc:date>
    <dc:format>image/svg+xml</dc:format>
    <dc:creator>
     <cc:Agent>
      <dc:title>Matplotlib v3.8.2, https://matplotlib.org/</dc:title>
     </cc:Agent>
    </dc:creator>
   </cc:Work>
  </rdf:RDF>
 </metadata>
 <defs>
  <style type="text/css">*{stroke-linejoin: round; stroke-linecap: butt}</style>
 </defs>
 <g id="figure_1">
  <g id="patch_1">
   <path d="M 0 345.6 
L 460.8 345.6 
L 460.8 0 
L 0 0 
z
" style="fill: #ffffff"/>
  </g>
  <g id="axes_1">
   <g id="patch_2">
    <path d="M 103.104 307.584 
L 369.216 307.584 
L 369.216 41.472 
L 103.104 41.472 
z
" style="fill: #ffffff"/>
   </g>
   <g id="patch_3">
    <path d="M 129.6929 165.844739 
L 118.0505 165.844741 
L 118.050501 171.499621 
L 129.692901 171.499619 
z
" clip-path="url(#p85bfc382af)" style="fill: #00008b"/>
   </g>
   <g id="patch_4">
    <path d="M 244.843261 60.845036 
L 244.843259 49.202636 
L 239.188379 49.202637 
L 239.188381 60.845037 
z
" clip-path="url(#p85bfc382af)" style="fill: #800000"/>
   </g>
   <g id="patch_5">
    <path d="M 227.476739 281.697402 
L 227.476741 293.339802 
L 233.131621 293.339801 
L 233.131619 281.697401 
z
" clip-path="url(#p85bfc382af)" style="fill: #006400"/>
   </g>
   <g id="patch_6">
    <path d="M 343.329415 183.21126 
L 354.971815 183.21126 
L 354.971815 177.55638 
L 343.329415 177.55638 
z
" clip-path="url(#p85bfc382af)" style="fill: #4b0082"/>
   </g>
   <g id="patch_7">
    <path d="M 244.844046 117.754711 
L 244.842627 106.112311 
L 239.187747 106.113 
L 239.189166 117.7554 
z
" clip-path="url(#p85bfc382af)" style="fill: #0000ff"/>
   </g>
   <g id="patch_8">
    <path d="M 179.356523 165.843603 
L 167.714123 165.845835 
L 167.715207 171.500715 
L 179.357607 171.498483 
z
" clip-path="url(#p85bfc382af)" style="fill: #ff0000"/>
   </g>
   <g id="patch_9">
    <path d="M 291.655397 183.211296 
L 303.297797 183.211257 
L 303.297779 177.556377 
L 291.655379 177.556416 
z
" clip-path="url(#p85bfc382af)" style="fill: #dbdc56"/>
   </g>
   <g id="patch_10">
    <path d="M 244.992059 149.207989 
L 244.70727 137.569072 
L 239.054082 137.707398 
L 239.338871 149.346315 
z
" clip-path="url(#p85bfc382af)" style="fill: #9400d3"/>
   </g>
   <g id="patch_11">
    <path d="M 251.789308 184.049015 
L 262.432866 179.330948 
L 260.141233 174.161219 
L 249.497675 178.879287 
z
" clip-path="url(#p85bfc382af)" style="fill: #1e90ff"/>
   </g>
   <g id="patch_12">
    <path d="M 227.469832 212.140408 
L 227.485538 223.782798 
L 233.140412 223.775169 
L 233.124707 212.13278 
z
" clip-path="url(#p85bfc382af)" style="fill: #ff4500"/>
   </g>
   <g id="patch_13">
    <path d="M 220.502498 165.020679 
L 209.898399 169.826776 
L 212.232789 174.977338 
L 222.836888 170.171242 
z
" clip-path="url(#p85bfc382af)" style="fill: #7cfc00"/>
   </g>
   <g id="patch_14">
    <path d="M 226.815351 190.053648 
L 231.474677 200.723051 
L 236.656958 198.45995 
L 231.997633 187.790547 
z
" clip-path="url(#p85bfc382af)" style="fill: #ff00ff"/>
   </g>
   <g id="matplotlib.axis_1">
    <g id="xtick_1">
     <g id="line2d_1">
      <defs>
       <path id="m7b96ed3507" d="M 0 0 
L 0 3.5 
" style="stroke: #000000; stroke-width: 0.8"/>
      </defs>
      <g>
       <use xlink:href="#m7b96ed3507" x="103.104" y="307.584" style="stroke: #000000; stroke-width: 0.8"/>
      </g>
     </g>
     <g id="text_1">
      <!-- −40 -->
      <g transform="translate(92.551656 322.182437) scale(0.1 -0.1)">
       <defs>
        <path id="DejaVuSans-2212" d="M 678 2272 
L 4684 2272 
L 4684 1741 
L 678 1741 
L 678 2272 
z
" transform="scale(0.015625)"/>
        <path id="DejaVuSans-34" d="M 2419 4116 
L 825 1625 
L 2419 1625 
L 2419 4116 
z
M 2253 4666 
L 3047 4666 
L 3047 1625 
L 3713 1625 
L 3713 1100 
L 3047 1100 
L 3047 0 
L 2419 0 
L 2419 1100 
L 313 1100 
L 313 1709 
L 2253 4666 
z
" transform="scale(0.015625)"/>
        <path id="DejaVuSans-30" d="M 2034 4250 
Q 1547 4250 1301 3770 
Q 1056 3291 1056 2328 
Q 1056 1369 1301 889 
Q 1547 409 2034 409 
Q 2525 409 2770 889 
Q 3016 1369 3016 2328 
Q 3016 3291 2770 3770 
Q 2525 4250 2034 4250 
z
M 2034 4750 
Q 2819 4750 3233 4129 
Q 3647 3509 3647 2328 
Q 3647 1150 3233 529 
Q 2819 -91 2034 -91 
Q 1250 -91 836 529 
Q 422 1150 422 2328 
Q 422 3509 836 4129 
Q 1250 4750 2034 4750 
z
" transform="scale(0.015625)"/>
       </defs>
       <use xlink:href="#DejaVuSans-2212"/>
       <use xlink:href="#DejaVuSans-34" x="83.789062"/>
       <use xlink:href="#DejaVuSans-30" x="147.412109"/>
      </g>
     </g>
    </g>
    <g id="xtick_2">
     <g id="line2d_2">
      <g>
       <use xlink:href="#m7b96ed3507" x="136.368" y="307.584" style="stroke: #000000; stroke-width: 0.8"/>
      </g>
     </g>
     <g id="text_2">
      <!-- −30 -->
      <g transform="translate(125.815656 322.182437) scale(0.1 -0.1)">
       <defs>
        <path id="DejaVuSans-33" d="M 2597 2516 
Q 3050 2419 3304 2112 
Q 3559 1806 3559 1356 
Q 3559 666 3084 287 
Q 2609 -91 1734 -91 
Q 1441 -91 1130 -33 
Q 819 25 488 141 
L 488 750 
Q 750 597 1062 519 
Q 1375 441 1716 441 
Q 2309 441 2620 675 
Q 2931 909 2931 1356 
Q 2931 1769 2642 2001 
Q 2353 2234 1838 2234 
L 1294 2234 
L 1294 2753 
L 1863 2753 
Q 2328 2753 2575 2939 
Q 2822 3125 2822 3475 
Q 2822 3834 2567 4026 
Q 2313 4219 1838 4219 
Q 1578 4219 1281 4162 
Q 984 4106 628 3988 
L 628 4550 
Q 988 4650 1302 4700 
Q 1616 4750 1894 4750 
Q 2613 4750 3031 4423 
Q 3450 4097 3450 3541 
Q 3450 3153 3228 2886 
Q 3006 2619 2597 2516 
z
" transform="scale(0.015625)"/>
       </defs>
       <use xlink:href="#DejaVuSans-2212"/>
       <use xlink:href="#DejaVuSans-33" x="83.789062"/>
       <use xlink:href="#DejaVuSans-30" x="147.412109"/>
      </g>
     </g>
    </g>
    <g id="xtick_3">
     <g id="line2d_3">
      <g>
       <use xlink:href="#m7b96ed3507" x="169.632" y="307.584" style="stroke: #000000; stroke-width: 0.8"/>
      </g>
     </g>
     <g id="text_3">
      <!-- −20 -->
      <g transform="translate(159.079656 322.182437) scale(0.1 -0.1)">
       <defs>
        <path id="DejaVuSans-32" d="M 1228 531 
L 3431 531 
L 3431 0 
L 469 0 
L 469 531 
Q 828 903 1448 1529 
Q 2069 2156 2228 2338 
Q 2531 2678 2651 2914 
Q 2772 3150 2772 3378 
Q 2772 3750 2511 3984 
Q 2250 4219 1831 4219 
Q 1534 4219 1204 4116 
Q 875 4013 500 3803 
L 500 4441 
Q 881 4594 1212 4672 
Q 1544 4750 1819 4750 
Q 2544 4750 2975 4387 
Q 3406 4025 3406 3419 
Q 3406 3131 3298 2873 
Q 3191 2616 2906 2266 
Q 2828 2175 2409 1742 
Q 1991 1309 1228 531 
z
" transform="scale(0.015625)"/>
       </defs>
       <use xlink:href="#DejaVuSans-2212"/>
       <use xlink:href="#DejaVuSans-32" x="83.789062"/>
       <use xlink:href="#DejaVuSans-30" x="147.412109"/>
      </g>
     </g>
    </g>
    <g id="xtick_4">
     <g id="line2d_4">
      <g>
       <use xlink:href="#m7b96ed3507" x="202.896" y="307.584" style="stroke: #000000; stroke-width: 0.8"/>
      </g>
     </g>
     <g id="text_4">
      <!-- −10 -->
      <g transform="translate(192.343656 322.182437) scale(0.1 -0.1)">
       <defs>
        <path id="DejaVuSans-31" d="M 794 531 
L 1825 531 
L 1825 4091 
L 703 3866 
L 703 4441 
L 1819 4666 
L 2450 4666 
L 2450 531 
L 3481 531 
L 3481 0 
L 794 0 
L 794 531 
z
" transform="scale(0.015625)"/>
       </defs>
       <use xlink:href="#DejaVuSans-2212"/>
       <use xlink:href="#DejaVuSans-31" x="83.789062"/>
       <use xlink:href="#DejaVuSans-30" x="147.412109"/>
      </g>
     </g>
    </g>
    <g id="xtick_5">
     <g id="line2d_5">
      <g>
       <use xlink:href="#m7b96ed3507" x="236.16" y="307.584" style="stroke: #000000; stroke-width: 0.8"/>
      </g>
     </g>
     <g id="text_5">
      <!-- 0 -->
      <g transform="translate(232.97875 322.182437) scale(0.1 -0.1)">
       <use xlink:href="#DejaVuSans-30"/>
      </g>
     </g>
    </g>
    <g id="xtick_6">
     <g id="line2d_6">
      <g>
       <use xlink:href="#m7b96ed3507" x="269.424" y="307.584" style="stroke: #000000; stroke-width: 0.8"/>
      </g>
     </g>
     <g id="text_6">
      <!-- 10 -->
      <g transform="translate(263.0615 322.182437) scale(0.1 -0.1)">
       <use xlink:href="#DejaVuSans-31"/>
       <use xlink:href="#DejaVuSans-30" x="63.623047"/>
      </g>
     </g>
    </g>
    <g id="xtick_7">
     <g id="line2d_7">
      <g>
       <use xlink:href="#m7b96ed3507" x="302.688" y="307.584" style="stroke: #000000; stroke-width: 0.8"/>
      </g>
     </g>
     <g id="text_7">
      <!-- 20 -->
      <g transform="translate(296.3255 322.182437) scale(0.1 -0.1)">
       <use xlink:href="#DejaVuSans-32"/>
       <use xlink:href="#DejaVuSans-30" x="63.623047"/>
      </g>
     </g>
    </g>
    <g id="xtick_8">
     <g id="line2d_8">
      <g>
       <use xlink:href="#m7b96ed3507" x="335.952" y="307.584" style="stroke: #000000; stroke-width: 0.8"/>
      </g>
     </g>
     <g id="text_8">
      <!-- 30 -->
      <g transform="translate(329.5895 322.182437) scale(0.1 -0.1)">
       <use xlink:href="#DejaVuSans-33"/>
       <use xlink:href="#DejaVuSans-30" x="63.623047"/>
      </g>
     </g>
    </g>
    <g id="xtick_9">
     <g id="line2d_9">
      <g>
       <use xlink:href="#m7b96ed3507" x="369.216" y="307.584" style="stroke: #000000; stroke-width: 0.8"/>
      </g>
     </g>
     <g id="text_9">
      <!-- 40 -->
      <g transform="translate(362.8535 322.182437) scale(0.1 -0.1)">
       <use xlink:href="#DejaVuSans-34"/>
       <use xlink:href="#DejaVuSans-30" x="63.623047"/>
      </g>
     </g>
    </g>
   </g>
   <g id="matplotlib.axis_2">
    <g id="ytick_1">
     <g id="line2d_10">
      <defs>
       <path id="m0d576f17a5" d="M 0 0 
L -3.5 0 
" style="stroke: #000000; stroke-width: 0.8"/>
      </defs>
      <g>
       <use xlink:href="#m0d576f17a5" x="103.104" y="307.584" style="stroke: #000000; stroke-width: 0.8"/>
      </g>
     </g>
     <g id="text_10">
      <!-- −40 -->
      <g transform="translate(74.999313 311.383219) scale(0.1 -0.1)">
       <use xlink:href="#DejaVuSans-2212"/>
       <use xlink:href="#DejaVuSans-34" x="83.789062"/>
       <use xlink:href="#DejaVuSans-30" x="147.412109"/>
      </g>
     </g>
    </g>
    <g id="ytick_2">
     <g id="line2d_11">
      <g>
       <use xlink:href="#m0d576f17a5" x="103.104" y="274.32" style="stroke: #000000; stroke-width: 0.8"/>
      </g>
     </g>
     <g id="text_11">
      <!-- −30 -->
      <g transform="translate(74.999313 278.119219) scale(0.1 -0.1)">
       <use xlink:href="#DejaVuSans-2212"/>
       <use xlink:href="#DejaVuSans-33" x="83.789062"/>
       <use xlink:href="#DejaVuSans-30" x="147.412109"/>
      </g>
     </g>
    </g>
    <g id="ytick_3">
     <g id="line2d_12">
      <g>
       <use xlink:href="#m0d576f17a5" x="103.104" y="241.056" style="stroke: #000000; stroke-width: 0.8"/>
      </g>
     </g>
     <g id="text_12">
      <!-- −20 -->
      <g transform="translate(74.999313 244.855219) scale(0.1 -0.1)">
       <use xlink:href="#DejaVuSans-2212"/>
       <use xlink:href="#DejaVuSans-32" x="83.789062"/>
       <use xlink:href="#DejaVuSans-30" x="147.412109"/>
      </g>
     </g>
    </g>
    <g id="ytick_4">
     <g id="line2d_13">
      <g>
       <use xlink:href="#m0d576f17a5" x="103.104" y="207.792" style="stroke: #000000; stroke-width: 0.8"/>
      </g>
     </g>
     <g id="text_13">
      <!-- −10 -->
      <g transform="translate(74.999313 211.591219) scale(0.1 -0.1)">
       <use xlink:href="#DejaVuSans-2212"/>
       <use xlink:href="#DejaVuSans-31" x="83.789062"/>
       <use xlink:href="#DejaVuSans-30" x="147.412109"/>
      </g>
     </g>
    </g>
    <g id="ytick_5">
     <g id="line2d_14">
      <g>
       <use xlink:href="#m0d576f17a5" x="103.104" y="174.528" style="stroke: #000000; stroke-width: 0.8"/>
      </g>
     </g>
     <g id="text_14">
      <!-- 0 -->
      <g transform="translate(89.7415 178.327219) scale(0.1 -0.1)">
       <use xlink:href="#DejaVuSans-30"/>
      </g>
     </g>
    </g>
    <g id="ytick_6">
     <g id="line2d_15">
      <g>
       <use xlink:href="#m0d576f17a5" x="103.104" y="141.264" style="stroke: #000000; stroke-width: 0.8"/>
      </g>
     </g>
     <g id="text_15">
      <!-- 10 -->
      <g transform="translate(83.379 145.063219) scale(0.1 -0.1)">
       <use xlink:href="#DejaVuSans-31"/>
       <use xlink:href="#DejaVuSans-30" x="63.623047"/>
      </g>
     </g>
    </g>
    <g id="ytick_7">
     <g id="line2d_16">
      <g>
       <use xlink:href="#m0d576f17a5" x="103.104" y="108" style="stroke: #000000; stroke-width: 0.8"/>
      </g>
     </g>
     <g id="text_16">
      <!-- 20 -->
      <g transform="translate(83.379 111.799219) scale(0.1 -0.1)">
       <use xlink:href="#DejaVuSans-32"/>
       <use xlink:href="#DejaVuSans-30" x="63.623047"/>
      </g>
     </g>
    </g>
    <g id="ytick_8">
     <g id="line2d_17">
      <g>
       <use xlink:href="#m0d576f17a5" x="103.104" y="74.736" style="stroke: #000000; stroke-width: 0.8"/>
      </g>
     </g>
     <g id="text_17">
      <!-- 30 -->
      <g transform="translate(83.379 78.535219) scale(0.1 -0.1)">
       <use xlink:href="#DejaVuSans-33"/>
       <use xlink:href="#DejaVuSans-30" x="63.623047"/>
      </g>
     </g>
    </g>
    <g id="ytick_9">
     <g id="line2d_18">
      <g>
       <use xlink:href="#m0d576f17a5" x="103.104" y="41.472" style="stroke: #000000; stroke-width: 0.8"/>
      </g>
     </g>
     <g id="text_18">
      <!-- 40 -->
      <g transform="translate(83.379 45.271219) scale(0.1 -0.1)">
       <use xlink:href="#DejaVuSans-34"/>
       <use xlink:href="#DejaVuSans-30" x="63.623047"/>
      </g>
     </g>
    </g>
   </g>
   <g id="line2d_19">
    <path d="M 250.2972 288.4572 
L 250.2972 188.6652 
" clip-path="url(#p85bfc382af)" style="fill: none; stroke: #000000; stroke-width: 0.25; stroke-linecap: square"/>
   </g>
   <g id="line2d_20">
    <path d="M 250.2972 188.6652 
L 350.0892 188.6652 
" clip-path="url(#p85bfc382af)" style="fill: none; stroke: #000000; stroke-width: 0.25; stroke-linecap: square"/>
   </g>
   <g id="line2d_21">
    <path d="M 350.0892 160.3908 
L 250.2972 160.3908 
" clip-path="url(#p85bfc382af)" style="fill: none; stroke: #000000; stroke-width: 0.25; stroke-linecap: square"/>
   </g>
   <g id="line2d_22">
    <path d="M 250.2972 160.3908 
L 250.2972 60.5988 
" clip-path="url(#p85bfc382af)" style="fill: none; stroke: #000000; stroke-width: 0.25; stroke-linecap: square"/>
   </g>
   <g id="line2d_23">
    <path d="M 222.0228 60.5988 
L 222.0228 160.3908 
" clip-path="url(#p85bfc382af)" style="fill: none; stroke: #000000; stroke-width: 0.25; stroke-linecap: square"/>
   </g>
   <g id="line2d_24">
    <path d="M 222.0228 160.3908 
L 122.2308 160.3908 
" clip-path="url(#p85bfc382af)" style="fill: none; stroke: #000000; stroke-width: 0.25; stroke-linecap: square"/>
   </g>
   <g id="line2d_25">
    <path d="M 122.2308 188.6652 
L 222.0228 188.6652 
" clip-path="url(#p85bfc382af)" style="fill: none; stroke: #000000; stroke-width: 0.25; stroke-linecap: square"/>
   </g>
   <g id="line2d_26">
    <path d="M 222.0228 188.6652 
L 222.0228 288.4572 
" clip-path="url(#p85bfc382af)" style="fill: none; stroke: #000000; stroke-width: 0.25; stroke-linecap: square"/>
   </g>
   <g id="line2d_27">
    <path d="M 250.2972 174.528 
L 350.0892 174.528 
" clip-path="url(#p85bfc382af)" style="fill: none; stroke-dasharray: 0.925,0.4; stroke-dashoffset: 0; stroke: #000000; stroke-width: 0.25"/>
   </g>
   <g id="line2d_28">
    <path d="M 236.16 160.3908 
L 236.16 60.5988 
" clip-path="url(#p85bfc382af)" style="fill: none; stroke-dasharray: 0.925,0.4; stroke-dashoffset: 0; stroke: #000000; stroke-width: 0.25"/>
   </g>
   <g id="line2d_29">
    <path d="M 222.0228 174.528 
L 122.2308 174.528 
" clip-path="url(#p85bfc382af)" style="fill: none; stroke-dasharray: 0.925,0.4; stroke-dashoffset: 0; stroke: #000000; stroke-width: 0.25"/>
   </g>
   <g id="line2d_30">
    <path d="M 236.16 188.6652 
L 236.16 288.4572 
" clip-path="url(#p85bfc382af)" style="fill: none; stroke-dasharray: 0.925,0.4; stroke-dashoffset: 0; stroke: #000000; stroke-width: 0.25"/>
   </g>
   <g id="line2d_31">
    <path d="M 125.759215 168.67218 
L 123.871701 168.67218 
L 121.984185 168.67218 
L 120.096667 168.67218 
L 118.209147 168.67218 
L 116.321627 168.67218 
L 114.434106 168.67218 
L 112.546584 168.67218 
L 110.659062 168.67218 
L 108.77154 168.67218 
L 106.884018 168.67218 
L 104.996495 168.67218 
L 103.108973 168.67218 
L 101.22145 168.67218 
L 99.333928 168.67218 
L 97.446406 168.67218 
L 95.558884 168.67218 
L 93.671362 168.67218 
L 91.783841 168.67218 
L 89.896319 168.67218 
L 88.008798 168.67218 
L 86.121276 168.67218 
L 84.233755 168.67218 
L 82.346234 168.67218 
L 80.458713 168.67218 
L 78.571191 168.67218 
L 76.68367 168.67218 
L 74.796149 168.67218 
L 72.908628 168.67218 
L 71.021107 168.67218 
L 69.133586 168.67218 
" clip-path="url(#p85bfc382af)" style="fill: none; stroke: #ff0000; stroke-opacity: 0.2; stroke-width: 0.25; stroke-linecap: square"/>
   </g>
   <g id="line2d_32">
    <path d="M 125.759215 168.67218 
L 123.871701 168.67218 
L 121.984185 168.67218 
L 120.096667 168.67218 
L 118.209147 168.67218 
L 116.321627 168.67218 
L 114.434106 168.67218 
L 112.546584 168.67218 
L 110.659062 168.67218 
L 108.77154 168.67218 
L 106.884018 168.67218 
L 104.996495 168.67218 
L 103.108973 168.67218 
L 101.22145 168.67218 
L 99.333928 168.67218 
L 97.446406 168.67218 
L 95.558884 168.67218 
L 93.671362 168.67218 
L 91.783841 168.67218 
L 89.896319 168.67218 
L 88.008798 168.67218 
L 86.121276 168.67218 
L 84.233755 168.67218 
L 82.346234 168.67218 
L 80.458713 168.67218 
L 78.571191 168.67218 
L 76.68367 168.67218 
L 74.796149 168.67218 
L 72.908628 168.67218 
L 71.021107 168.67218 
L 69.133586 168.67218 
" clip-path="url(#p85bfc382af)" style="fill: none; stroke: #ff0000; stroke-opacity: 0.4; stroke-width: 0.25; stroke-linecap: square"/>
   </g>
   <g id="line2d_33">
    <path d="M 125.759215 168.67218 
L 123.871701 168.67218 
L 121.984185 168.67218 
L 120.096667 168.67218 
L 118.209147 168.67218 
L 116.321627 168.67218 
L 114.434106 168.67218 
L 112.546584 168.67218 
L 110.659062 168.67218 
L 108.77154 168.67218 
L 106.884018 168.67218 
L 104.996495 168.67218 
L 103.108973 168.67218 
L 101.22145 168.67218 
L 99.333928 168.67218 
L 97.446406 168.67218 
L 95.558884 168.67218 
L 93.671362 168.67218 
L 91.783841 168.67218 
L 89.896319 168.67218 
L 88.008798 168.67218 
L 86.121276 168.67218 
L 84.233755 168.67218 
L 82.346234 168.67218 
L 80.458713 168.67218 
L 78.571191 168.67218 
L 76.68367 168.67218 
L 74.796149 168.67218 
L 72.908628 168.67218 
L 71.021107 168.67218 
L 69.133586 168.67218 
" clip-path="url(#p85bfc382af)" style="fill: none; stroke: #ff0000; stroke-opacity: 0.6; stroke-width: 0.25; stroke-linecap: square"/>
   </g>
   <g id="line2d_34">
    <path d="M 125.759215 168.67218 
L 123.871701 168.67218 
L 121.984185 168.67218 
L 120.096667 168.67218 
L 118.209147 168.67218 
L 116.321627 168.67218 
L 114.434106 168.67218 
L 112.546584 168.67218 
L 110.659062 168.67218 
L 108.77154 168.67218 
L 106.884018 168.67218 
L 104.996495 168.67218 
L 103.108973 168.67218 
L 101.22145 168.67218 
L 99.333928 168.67218 
L 97.446406 168.67218 
L 95.558884 168.67218 
L 93.671362 168.67218 
L 91.783841 168.67218 
L 89.896319 168.67218 
L 88.008798 168.67218 
L 86.121276 168.67218 
L 84.233755 168.67218 
L 82.346234 168.67218 
L 80.458713 168.67218 
L 78.571191 168.67218 
L 76.68367 168.67218 
L 74.796149 168.67218 
L 72.908628 168.67218 
L 71.021107 168.67218 
L 69.133586 168.67218 
" clip-path="url(#p85bfc382af)" style="fill: none; stroke: #ff0000; stroke-opacity: 0.8; stroke-width: 0.25; stroke-linecap: square"/>
   </g>
   <g id="line2d_35">
    <path d="M 125.759215 168.67218 
L 123.871701 168.67218 
L 121.984185 168.67218 
L 120.096667 168.67218 
L 118.209147 168.67218 
L 116.321627 168.67218 
L 114.434106 168.67218 
L 112.546584 168.67218 
L 110.659062 168.67218 
L 108.77154 168.67218 
L 106.884018 168.67218 
L 104.996495 168.67218 
L 103.108973 168.67218 
L 101.22145 168.67218 
L 99.333928 168.67218 
L 97.446406 168.67218 
L 95.558884 168.67218 
L 93.671362 168.67218 
L 91.783841 168.67218 
L 89.896319 168.67218 
L 88.008798 168.67218 
L 86.121276 168.67218 
L 84.233755 168.67218 
L 82.346234 168.67218 
L 80.458713 168.67218 
L 78.571191 168.67218 
L 76.68367 168.67218 
L 74.796149 168.67218 
L 72.908628 168.67218 
L 71.021107 168.67218 
L 69.133586 168.67218 
" clip-path="url(#p85bfc382af)" style="fill: none; stroke: #ff0000; stroke-width: 0.25; stroke-linecap: square"/>
   </g>
   <g id="line2d_36">
    <path d="M 242.01582 56.77996 
L 242.01582 55.023836 
L 242.01582 53.267713 
L 242.01582 51.511589 
L 242.01582 49.755466 
L 242.01582 47.999343 
L 242.01582 46.243221 
L 242.01582 44.487099 
L 242.01582 42.730978 
L 242.01582 40.974858 
L 242.01582 39.218739 
L 242.01582 37.46262 
L 242.01582 35.706502 
L 242.01582 33.950384 
L 242.01582 32.194266 
L 242.01582 30.438149 
L 242.01582 28.682032 
L 242.01582 26.925915 
L 242.01582 25.169799 
L 242.01582 23.413682 
L 242.01582 21.657565 
L 242.01582 19.901449 
L 242.01582 18.145332 
L 242.01582 16.389216 
L 242.01582 14.633099 
L 242.01582 12.876982 
L 242.01582 11.120866 
L 242.01582 9.364749 
L 242.01582 7.608632 
L 242.01582 5.852516 
L 242.01582 4.096399 
" clip-path="url(#p85bfc382af)" style="fill: none; stroke: #ff0000; stroke-opacity: 0.2; stroke-width: 0.25; stroke-linecap: square"/>
   </g>
   <g id="line2d_37">
    <path d="M 242.01582 56.77996 
L 242.01582 55.023836 
L 242.01582 53.267713 
L 242.01582 51.511589 
L 242.01582 49.755466 
L 242.01582 47.999343 
L 242.01582 46.243221 
L 242.01582 44.487099 
L 242.01582 42.730978 
L 242.01582 40.974858 
L 242.01582 39.218739 
L 242.01582 37.46262 
L 242.01582 35.706502 
L 242.01582 33.950384 
L 242.01582 32.194266 
L 242.01582 30.438149 
L 242.01582 28.682032 
L 242.01582 26.925915 
L 242.01582 25.169799 
L 242.01582 23.413682 
L 242.01582 21.657565 
L 242.01582 19.901449 
L 242.01582 18.145332 
L 242.01582 16.389216 
L 242.01582 14.633099 
L 242.01582 12.876982 
L 242.01582 11.120866 
L 242.01582 9.364749 
L 242.01582 7.608632 
L 242.01582 5.852516 
L 242.01582 4.096399 
" clip-path="url(#p85bfc382af)" style="fill: none; stroke: #ff0000; stroke-opacity: 0.4; stroke-width: 0.25; stroke-linecap: square"/>
   </g>
   <g id="line2d_38">
    <path d="M 242.01582 56.77996 
L 242.01582 55.023836 
L 242.01582 53.267713 
L 242.01582 51.511589 
L 242.01582 49.755466 
L 242.01582 47.999343 
L 242.01582 46.243221 
L 242.01582 44.487099 
L 242.01582 42.730978 
L 242.01582 40.974858 
L 242.01582 39.218739 
L 242.01582 37.46262 
L 242.01582 35.706502 
L 242.01582 33.950384 
L 242.01582 32.194266 
L 242.01582 30.438149 
L 242.01582 28.682032 
L 242.01582 26.925915 
L 242.01582 25.169799 
L 242.01582 23.413682 
L 242.01582 21.657565 
L 242.01582 19.901449 
L 242.01582 18.145332 
L 242.01582 16.389216 
L 242.01582 14.633099 
L 242.01582 12.876982 
L 242.01582 11.120866 
L 242.01582 9.364749 
L 242.01582 7.608632 
L 242.01582 5.852516 
L 242.01582 4.096399 
" clip-path="url(#p85bfc382af)" style="fill: none; stroke: #ff0000; stroke-opacity: 0.6; stroke-width: 0.25; stroke-linecap: square"/>
   </g>
   <g id="line2d_39">
    <path d="M 242.01582 56.77996 
L 242.01582 55.023836 
L 242.01582 53.267713 
L 242.01582 51.511589 
L 242.01582 49.755466 
L 242.01582 47.999343 
L 242.01582 46.243221 
L 242.01582 44.487099 
L 242.01582 42.730978 
L 242.01582 40.974858 
L 242.01582 39.218739 
L 242.01582 37.46262 
L 242.01582 35.706502 
L 242.01582 33.950384 
L 242.01582 32.194266 
L 242.01582 30.438149 
L 242.01582 28.682032 
L 242.01582 26.925915 
L 242.01582 25.169799 
L 242.01582 23.413682 
L 242.01582 21.657565 
L 242.01582 19.901449 
L 242.01582 18.145332 
L 242.01582 16.389216 
L 242.01582 14.633099 
L 242.01582 12.876982 
L 242.01582 11.120866 
L 242.01582 9.364749 
L 242.01582 7.608632 
L 242.01582 5.852516 
L 242.01582 4.096399 
" clip-path="url(#p85bfc382af)" style="fill: none; stroke: #ff0000; stroke-opacity: 0.8; stroke-width: 0.25; stroke-linecap: square"/>
   </g>
   <g id="line2d_40">
    <path d="M 242.01582 56.77996 
L 242.01582 55.023836 
L 242.01582 53.267713 
L 242.01582 51.511589 
L 242.01582 49.755466 
L 242.01582 47.999343 
L 242.01582 46.243221 
L 242.01582 44.487099 
L 242.01582 42.730978 
L 242.01582 40.974858 
L 242.01582 39.218739 
L 242.01582 37.46262 
L 242.01582 35.706502 
L 242.01582 33.950384 
L 242.01582 32.194266 
L 242.01582 30.438149 
L 242.01582 28.682032 
L 242.01582 26.925915 
L 242.01582 25.169799 
L 242.01582 23.413682 
L 242.01582 21.657565 
L 242.01582 19.901449 
L 242.01582 18.145332 
L 242.01582 16.389216 
L 242.01582 14.633099 
L 242.01582 12.876982 
L 242.01582 11.120866 
L 242.01582 9.364749 
L 242.01582 7.608632 
L 242.01582 5.852516 
L 242.01582 4.096399 
" clip-path="url(#p85bfc382af)" style="fill: none; stroke: #ff0000; stroke-width: 0.25; stroke-linecap: square"/>
   </g>
   <g id="line2d_41">
    <path d="M 230.30418 285.653455 
L 230.30418 287.518602 
L 230.30418 289.383756 
L 230.30418 291.248916 
L 230.30418 293.114079 
L 230.30418 294.979245 
L 230.30418 296.844413 
L 230.30418 298.709582 
L 230.30418 300.574751 
L 230.30418 302.43992 
L 230.30418 304.305088 
L 230.30418 306.170255 
L 230.30418 308.035421 
L 230.30418 309.900587 
L 230.30418 311.765751 
L 230.30418 313.630915 
L 230.30418 315.496078 
L 230.30418 317.36124 
L 230.30418 319.226402 
L 230.30418 321.091563 
L 230.30418 322.956723 
L 230.30418 324.821884 
L 230.30418 326.687044 
L 230.30418 328.552204 
L 230.30418 330.417363 
L 230.30418 332.282523 
L 230.30418 334.147683 
L 230.30418 336.012842 
L 230.30418 337.878001 
L 230.30418 339.743161 
L 230.30418 341.60832 
" clip-path="url(#p85bfc382af)" style="fill: none; stroke: #ff0000; stroke-opacity: 0.2; stroke-width: 0.25; stroke-linecap: square"/>
   </g>
   <g id="line2d_42">
    <path d="M 230.30418 285.653455 
L 230.30418 287.518602 
L 230.30418 289.383756 
L 230.30418 291.248916 
L 230.30418 293.114079 
L 230.30418 294.979245 
L 230.30418 296.844413 
L 230.30418 298.709582 
L 230.30418 300.574751 
L 230.30418 302.43992 
L 230.30418 304.305088 
L 230.30418 306.170255 
L 230.30418 308.035421 
L 230.30418 309.900587 
L 230.30418 311.765751 
L 230.30418 313.630915 
L 230.30418 315.496078 
L 230.30418 317.36124 
L 230.30418 319.226402 
L 230.30418 321.091563 
L 230.30418 322.956723 
L 230.30418 324.821884 
L 230.30418 326.687044 
L 230.30418 328.552204 
L 230.30418 330.417363 
L 230.30418 332.282523 
L 230.30418 334.147682 
L 230.30418 336.012842 
L 230.30418 337.878001 
L 230.30418 339.743161 
L 230.30418 341.60832 
" clip-path="url(#p85bfc382af)" style="fill: none; stroke: #ff0000; stroke-opacity: 0.4; stroke-width: 0.25; stroke-linecap: square"/>
   </g>
   <g id="line2d_43">
    <path d="M 230.30418 285.653455 
L 230.30418 287.518602 
L 230.30418 289.383756 
L 230.30418 291.248916 
L 230.30418 293.114079 
L 230.30418 294.979245 
L 230.30418 296.844413 
L 230.30418 298.709582 
L 230.30418 300.574751 
L 230.30418 302.43992 
L 230.30418 304.305088 
L 230.30418 306.170255 
L 230.30418 308.035421 
L 230.30418 309.900587 
L 230.30418 311.765751 
L 230.30418 313.630915 
L 230.30418 315.496078 
L 230.30418 317.36124 
L 230.30418 319.226402 
L 230.30418 321.091563 
L 230.30418 322.956723 
L 230.30418 324.821884 
L 230.30418 326.687044 
L 230.30418 328.552204 
L 230.30418 330.417363 
L 230.30418 332.282523 
L 230.30418 334.147682 
L 230.30418 336.012842 
L 230.30418 337.878001 
L 230.30418 339.743161 
L 230.30418 341.60832 
" clip-path="url(#p85bfc382af)" style="fill: none; stroke: #ff0000; stroke-opacity: 0.6; stroke-width: 0.25; stroke-linecap: square"/>
   </g>
   <g id="line2d_44">
    <path d="M 230.30418 285.653455 
L 230.30418 287.518602 
L 230.30418 289.383756 
L 230.30418 291.248916 
L 230.30418 293.114079 
L 230.30418 294.979245 
L 230.30418 296.844413 
L 230.30418 298.709582 
L 230.30418 300.574751 
L 230.30418 302.43992 
L 230.30418 304.305088 
L 230.30418 306.170255 
L 230.30418 308.035421 
L 230.30418 309.900587 
L 230.30418 311.765751 
L 230.30418 313.630915 
L 230.30418 315.496078 
L 230.30418 317.36124 
L 230.30418 319.226402 
L 230.30418 321.091563 
L 230.30418 322.956723 
L 230.30418 324.821884 
L 230.30418 326.687044 
L 230.30418 328.552204 
L 230.30418 330.417363 
L 230.30418 332.282523 
L 230.30418 334.147682 
L 230.30418 336.012842 
L 230.30418 337.878001 
L 230.30418 339.743161 
L 230.30418 341.60832 
" clip-path="url(#p85bfc382af)" style="fill: none; stroke: #ff0000; stroke-opacity: 0.8; stroke-width: 0.25; stroke-linecap: square"/>
   </g>
   <g id="line2d_45">
    <path d="M 230.30418 285.653455 
L 230.30418 287.518602 
L 230.30418 289.383756 
L 230.30418 291.248916 
L 230.30418 293.114079 
L 230.30418 294.979245 
L 230.30418 296.844413 
L 230.30418 298.709582 
L 230.30418 300.574751 
L 230.30418 302.43992 
L 230.30418 304.305088 
L 230.30418 306.170255 
L 230.30418 308.035421 
L 230.30418 309.900587 
L 230.30418 311.765751 
L 230.30418 313.630915 
L 230.30418 315.496078 
L 230.30418 317.36124 
L 230.30418 319.226402 
L 230.30418 321.091563 
L 230.30418 322.956723 
L 230.30418 324.821884 
L 230.30418 326.687044 
L 230.30418 328.552204 
L 230.30418 330.417363 
L 230.30418 332.282523 
L 230.30418 334.147682 
L 230.30418 336.012842 
L 230.30418 337.878001 
L 230.30418 339.743161 
L 230.30418 341.60832 
" clip-path="url(#p85bfc382af)" style="fill: none; stroke: #ff0000; stroke-width: 0.25; stroke-linecap: square"/>
   </g>
   <g id="line2d_46">
    <path d="M 347.285463 180.38382 
L 349.150615 180.38382 
L 351.015773 180.38382 
L 352.880934 180.38382 
L 354.746098 180.38382 
L 356.611263 180.38382 
L 358.47643 180.38382 
L 360.341597 180.38382 
L 362.206764 180.38382 
L 364.071931 180.38382 
L 365.937097 180.38382 
L 367.802262 180.38382 
L 369.667427 180.38382 
L 371.532591 180.38382 
L 373.397755 180.38382 
L 375.262917 180.38382 
L 377.128079 180.38382 
L 378.993241 180.38382 
L 380.858402 180.38382 
L 382.723562 180.38382 
L 384.588723 180.38382 
L 386.453883 180.38382 
L 388.319043 180.38382 
L 390.184203 180.38382 
L 392.049363 180.38382 
L 393.914522 180.38382 
L 395.779682 180.38382 
L 397.644842 180.38382 
L 399.510001 180.38382 
L 401.375161 180.38382 
L 403.24032 180.38382 
" clip-path="url(#p85bfc382af)" style="fill: none; stroke: #ff0000; stroke-opacity: 0.2; stroke-width: 0.25; stroke-linecap: square"/>
   </g>
   <g id="line2d_47">
    <path d="M 347.285463 180.38382 
L 349.150615 180.38382 
L 351.015773 180.38382 
L 352.880934 180.38382 
L 354.746098 180.38382 
L 356.611263 180.38382 
L 358.47643 180.38382 
L 360.341597 180.38382 
L 362.206764 180.38382 
L 364.071931 180.38382 
L 365.937097 180.38382 
L 367.802262 180.38382 
L 369.667427 180.38382 
L 371.532591 180.38382 
L 373.397755 180.38382 
L 375.262917 180.38382 
L 377.128079 180.38382 
L 378.993241 180.38382 
L 380.858402 180.38382 
L 382.723562 180.38382 
L 384.588723 180.38382 
L 386.453883 180.38382 
L 388.319043 180.38382 
L 390.184203 180.38382 
L 392.049362 180.38382 
L 393.914522 180.38382 
L 395.779682 180.38382 
L 397.644841 180.38382 
L 399.510001 180.38382 
L 401.37516 180.38382 
L 403.24032 180.38382 
" clip-path="url(#p85bfc382af)" style="fill: none; stroke: #ff0000; stroke-opacity: 0.4; stroke-width: 0.25; stroke-linecap: square"/>
   </g>
   <g id="line2d_48">
    <path d="M 347.285463 180.38382 
L 349.150615 180.38382 
L 351.015773 180.38382 
L 352.880934 180.38382 
L 354.746098 180.38382 
L 356.611263 180.38382 
L 358.47643 180.38382 
L 360.341597 180.38382 
L 362.206764 180.38382 
L 364.071931 180.38382 
L 365.937097 180.38382 
L 367.802262 180.38382 
L 369.667427 180.38382 
L 371.532591 180.38382 
L 373.397755 180.38382 
L 375.262917 180.38382 
L 377.128079 180.38382 
L 378.993241 180.38382 
L 380.858402 180.38382 
L 382.723562 180.38382 
L 384.588723 180.38382 
L 386.453883 180.38382 
L 388.319043 180.38382 
L 390.184203 180.38382 
L 392.049363 180.38382 
L 393.914522 180.38382 
L 395.779682 180.38382 
L 397.644841 180.38382 
L 399.510001 180.38382 
L 401.375161 180.38382 
L 403.24032 180.38382 
" clip-path="url(#p85bfc382af)" style="fill: none; stroke: #ff0000; stroke-opacity: 0.6; stroke-width: 0.25; stroke-linecap: square"/>
   </g>
   <g id="line2d_49">
    <path d="M 347.285463 180.38382 
L 349.150615 180.38382 
L 351.015773 180.38382 
L 352.880934 180.38382 
L 354.746098 180.38382 
L 356.611263 180.38382 
L 358.47643 180.38382 
L 360.341597 180.38382 
L 362.206764 180.38382 
L 364.071931 180.38382 
L 365.937097 180.38382 
L 367.802262 180.38382 
L 369.667427 180.38382 
L 371.532591 180.38382 
L 373.397755 180.38382 
L 375.262917 180.38382 
L 377.128079 180.38382 
L 378.993241 180.38382 
L 380.858402 180.38382 
L 382.723562 180.38382 
L 384.588723 180.38382 
L 386.453883 180.38382 
L 388.319043 180.38382 
L 390.184203 180.38382 
L 392.049362 180.38382 
L 393.914522 180.38382 
L 395.779682 180.38382 
L 397.644841 180.38382 
L 399.510001 180.38382 
L 401.375161 180.38382 
L 403.24032 180.38382 
" clip-path="url(#p85bfc382af)" style="fill: none; stroke: #ff0000; stroke-opacity: 0.8; stroke-width: 0.25; stroke-linecap: square"/>
   </g>
   <g id="line2d_50">
    <path d="M 347.285463 180.38382 
L 349.150615 180.38382 
L 351.015773 180.38382 
L 352.880934 180.38382 
L 354.746098 180.38382 
L 356.611263 180.38382 
L 358.47643 180.38382 
L 360.341597 180.38382 
L 362.206764 180.38382 
L 364.071931 180.38382 
L 365.937097 180.38382 
L 367.802262 180.38382 
L 369.667427 180.38382 
L 371.532591 180.38382 
L 373.397755 180.38382 
L 375.262917 180.38382 
L 377.128079 180.38382 
L 378.993241 180.38382 
L 380.858402 180.38382 
L 382.723562 180.38382 
L 384.588723 180.38382 
L 386.453883 180.38382 
L 388.319043 180.38382 
L 390.184203 180.38382 
L 392.049363 180.38382 
L 393.914522 180.38382 
L 395.779682 180.38382 
L 397.644841 180.38382 
L 399.510001 180.38382 
L 401.375161 180.38382 
L 403.24032 180.38382 
" clip-path="url(#p85bfc382af)" style="fill: none; stroke: #ff0000; stroke-width: 0.25; stroke-linecap: square"/>
   </g>
   <g id="line2d_51">
    <path d="M 242.015901 113.80752 
L 242.015888 111.933856 
L 242.015871 110.060876 
L 242.015856 108.188746 
L 242.015846 106.317545 
L 242.015835 104.447289 
L 242.015826 102.577946 
L 242.01582 100.709452 
L 242.015812 98.84172 
L 242.015811 96.974654 
L 242.015808 95.108155 
L 242.015808 93.242123 
L 242.015808 91.376469 
L 242.015809 89.511108 
L 242.01581 87.645966 
L 242.015811 85.780981 
L 242.015812 83.9161 
L 242.015814 82.05128 
L 242.015815 80.186489 
L 242.015816 78.3217 
L 242.015817 76.456896 
L 242.015817 74.592065 
L 242.015818 72.727198 
L 242.015819 70.862294 
L 242.015819 68.997352 
L 242.01582 67.132374 
L 242.015821 65.267365 
L 242.015822 63.40233 
L 242.015823 61.537275 
L 242.015822 59.672207 
L 242.015821 57.807132 
" clip-path="url(#p85bfc382af)" style="fill: none; stroke: #ff0000; stroke-opacity: 0.2; stroke-width: 0.25; stroke-linecap: square"/>
   </g>
   <g id="line2d_52">
    <path d="M 242.015901 113.80752 
L 242.01589 111.933856 
L 242.015873 110.060876 
L 242.015858 108.188746 
L 242.015847 106.317544 
L 242.015836 104.447288 
L 242.015827 102.577944 
L 242.01582 100.709448 
L 242.015812 98.841714 
L 242.015811 96.974647 
L 242.015808 95.108146 
L 242.015807 93.242113 
L 242.015807 91.376457 
L 242.015808 89.511095 
L 242.015809 87.645952 
L 242.015811 85.780966 
L 242.015812 83.916085 
L 242.015813 82.051266 
L 242.015814 80.186476 
L 242.015816 78.32169 
L 242.015817 76.45689 
L 242.015817 74.592064 
L 242.015818 72.727205 
L 242.015819 70.862309 
L 242.01582 68.997377 
L 242.01582 67.132411 
L 242.015821 65.267416 
L 242.015821 63.402396 
L 242.015822 61.537358 
L 242.015821 59.672307 
L 242.015819 57.80725 
" clip-path="url(#p85bfc382af)" style="fill: none; stroke: #ff0000; stroke-opacity: 0.4; stroke-width: 0.25; stroke-linecap: square"/>
   </g>
   <g id="line2d_53">
    <path d="M 242.015901 113.80752 
L 242.015892 111.933856 
L 242.015875 110.060877 
L 242.015859 108.188746 
L 242.015848 106.317545 
L 242.015837 104.447289 
L 242.015827 102.577946 
L 242.01582 100.70945 
L 242.015812 98.841717 
L 242.015811 96.97465 
L 242.015808 95.10815 
L 242.015807 93.242117 
L 242.015807 91.376462 
L 242.015808 89.511099 
L 242.015809 87.645956 
L 242.015811 85.78097 
L 242.015812 83.916089 
L 242.015813 82.051269 
L 242.015814 80.186478 
L 242.015816 78.32169 
L 242.015817 76.456887 
L 242.015818 74.592057 
L 242.015818 72.727194 
L 242.015819 70.862293 
L 242.01582 68.997355 
L 242.01582 67.132383 
L 242.015821 65.267381 
L 242.015821 63.402353 
L 242.015822 61.537307 
L 242.015822 59.672248 
L 242.01582 57.807184 
" clip-path="url(#p85bfc382af)" style="fill: none; stroke: #ff0000; stroke-opacity: 0.6; stroke-width: 0.25; stroke-linecap: square"/>
   </g>
   <g id="line2d_54">
    <path d="M 242.015901 113.80752 
L 242.015894 111.933856 
L 242.015877 110.060877 
L 242.015861 108.188747 
L 242.015849 106.317545 
L 242.015837 104.447289 
L 242.015827 102.577945 
L 242.01582 100.70945 
L 242.015812 98.841716 
L 242.015811 96.974649 
L 242.015808 95.108149 
L 242.015807 93.242116 
L 242.015807 91.376461 
L 242.015808 89.511098 
L 242.015809 87.645956 
L 242.015811 85.78097 
L 242.015812 83.916089 
L 242.015813 82.05127 
L 242.015815 80.18648 
L 242.015816 78.321693 
L 242.015817 76.456892 
L 242.015818 74.592064 
L 242.015818 72.727203 
L 242.015819 70.862305 
L 242.01582 68.997371 
L 242.01582 67.132402 
L 242.015821 65.267403 
L 242.015821 63.40238 
L 242.015822 61.537337 
L 242.015822 59.672283 
L 242.01582 57.807222 
" clip-path="url(#p85bfc382af)" style="fill: none; stroke: #ff0000; stroke-opacity: 0.8; stroke-width: 0.25; stroke-linecap: square"/>
   </g>
   <g id="line2d_55">
    <path d="M 242.015901 113.80752 
L 242.015896 111.933856 
L 242.015878 110.060877 
L 242.015862 108.188747 
L 242.015849 106.317546 
L 242.015837 104.447289 
L 242.015827 102.577946 
L 242.01582 100.70945 
L 242.015812 98.841717 
L 242.015811 96.97465 
L 242.015807 95.108149 
L 242.015807 93.242116 
L 242.015807 91.376461 
L 242.015808 89.511098 
L 242.015809 87.645955 
L 242.015811 85.780969 
L 242.015812 83.916088 
L 242.015813 82.051268 
L 242.015815 80.186477 
L 242.015816 78.32169 
L 242.015817 76.456888 
L 242.015818 74.592059 
L 242.015818 72.727196 
L 242.015819 70.862297 
L 242.01582 68.997361 
L 242.01582 67.13239 
L 242.015821 65.267389 
L 242.015821 63.402364 
L 242.015822 61.537319 
L 242.015822 59.672263 
L 242.01582 57.8072 
" clip-path="url(#p85bfc382af)" style="fill: none; stroke: #ff0000; stroke-width: 0.25; stroke-linecap: square"/>
   </g>
   <g id="line2d_56">
    <path d="M 175.403646 168.672158 
L 173.535865 168.672164 
L 171.668489 168.67217 
L 169.801505 168.672176 
L 167.934888 168.672181 
L 166.0686 168.672183 
L 164.202601 168.672184 
L 162.336848 168.672186 
L 160.4713 168.672185 
L 158.605916 168.672185 
L 156.740661 168.672185 
L 154.875504 168.672185 
L 153.010415 168.672184 
L 151.145374 168.672183 
L 149.28036 168.672183 
L 147.41536 168.672182 
L 145.550362 168.672182 
L 143.685358 168.672181 
L 141.820343 168.672181 
L 139.955312 168.672181 
L 138.090265 168.672181 
L 136.2252 168.67218 
L 134.360117 168.67218 
L 132.495019 168.67218 
L 130.629907 168.67218 
L 128.764782 168.67218 
L 126.899647 168.67218 
L 125.034504 168.672179 
L 123.169355 168.672179 
L 121.304202 168.672179 
L 119.439047 168.67218 
" clip-path="url(#p85bfc382af)" style="fill: none; stroke: #ff0000; stroke-opacity: 0.2; stroke-width: 0.25; stroke-linecap: square"/>
   </g>
   <g id="line2d_57">
    <path d="M 175.403646 168.672158 
L 173.535865 168.672163 
L 171.668489 168.672169 
L 169.801506 168.672175 
L 167.934888 168.672181 
L 166.0686 168.672183 
L 164.202601 168.672184 
L 162.336848 168.672186 
L 160.471299 168.672185 
L 158.605915 168.672185 
L 156.740659 168.672185 
L 154.875501 168.672185 
L 153.010412 168.672184 
L 151.14537 168.672184 
L 149.280356 168.672183 
L 147.415356 168.672182 
L 145.550358 168.672182 
L 143.685354 168.672182 
L 141.820339 168.672181 
L 139.955308 168.672181 
L 138.090261 168.672181 
L 136.225197 168.67218 
L 134.360116 168.67218 
L 132.495019 168.67218 
L 130.629909 168.67218 
L 128.764786 168.67218 
L 126.899654 168.67218 
L 125.034514 168.67218 
L 123.169368 168.67218 
L 121.304219 168.67218 
L 119.439068 168.67218 
" clip-path="url(#p85bfc382af)" style="fill: none; stroke: #ff0000; stroke-opacity: 0.4; stroke-width: 0.25; stroke-linecap: square"/>
   </g>
   <g id="line2d_58">
    <path d="M 175.403646 168.672158 
L 173.535865 168.672162 
L 171.66849 168.672168 
L 169.801506 168.672174 
L 167.934889 168.67218 
L 166.068601 168.672182 
L 164.202601 168.672183 
L 162.336848 168.672185 
L 160.4713 168.672185 
L 158.605916 168.672186 
L 156.740661 168.672186 
L 154.875502 168.672185 
L 153.010414 168.672184 
L 151.145372 168.672184 
L 149.280358 168.672183 
L 147.415358 168.672182 
L 145.550359 168.672182 
L 143.685355 168.672182 
L 141.82034 168.672181 
L 139.955309 168.672181 
L 138.090262 168.672181 
L 136.225197 168.67218 
L 134.360115 168.67218 
L 132.495018 168.67218 
L 130.629906 168.67218 
L 128.764782 168.67218 
L 126.899649 168.67218 
L 125.034507 168.67218 
L 123.16936 168.672179 
L 121.304209 168.672179 
L 119.439056 168.67218 
" clip-path="url(#p85bfc382af)" style="fill: none; stroke: #ff0000; stroke-opacity: 0.6; stroke-width: 0.25; stroke-linecap: square"/>
   </g>
   <g id="line2d_59">
    <path d="M 175.403646 168.672158 
L 173.535865 168.67216 
L 171.66849 168.672167 
L 169.801507 168.672173 
L 167.934889 168.67218 
L 166.068601 168.672182 
L 164.202601 168.672183 
L 162.336848 168.672185 
L 160.4713 168.672185 
L 158.605916 168.672186 
L 156.74066 168.672186 
L 154.875502 168.672185 
L 153.010413 168.672184 
L 151.145371 168.672184 
L 149.280357 168.672183 
L 147.415357 168.672182 
L 145.550359 168.672182 
L 143.685355 168.672182 
L 141.82034 168.672181 
L 139.955309 168.672181 
L 138.090262 168.672181 
L 136.225198 168.67218 
L 134.360116 168.67218 
L 132.495019 168.67218 
L 130.629908 168.67218 
L 128.764785 168.67218 
L 126.899652 168.67218 
L 125.034511 168.67218 
L 123.169365 168.67218 
L 121.304215 168.67218 
L 119.439063 168.67218 
" clip-path="url(#p85bfc382af)" style="fill: none; stroke: #ff0000; stroke-opacity: 0.8; stroke-width: 0.25; stroke-linecap: square"/>
   </g>
   <g id="line2d_60">
    <path d="M 175.403646 168.672158 
L 173.535865 168.672159 
L 171.66849 168.672167 
L 169.801507 168.672173 
L 167.934889 168.672179 
L 166.068601 168.672182 
L 164.202602 168.672183 
L 162.336849 168.672186 
L 160.4713 168.672185 
L 158.605916 168.672186 
L 156.74066 168.672186 
L 154.875502 168.672185 
L 153.010413 168.672185 
L 151.145371 168.672184 
L 149.280357 168.672183 
L 147.415357 168.672182 
L 145.550359 168.672182 
L 143.685355 168.672182 
L 141.820339 168.672181 
L 139.955309 168.672181 
L 138.090262 168.67218 
L 136.225197 168.67218 
L 134.360115 168.67218 
L 132.495018 168.67218 
L 130.629907 168.67218 
L 128.764783 168.67218 
L 126.89965 168.67218 
L 125.034509 168.67218 
L 123.169362 168.672179 
L 121.304211 168.672179 
L 119.439059 168.67218 
" clip-path="url(#p85bfc382af)" style="fill: none; stroke: #ff0000; stroke-width: 0.25; stroke-linecap: square"/>
   </g>
   <g id="line2d_61">
    <path d="M 295.58755 180.383827 
L 297.476588 180.383836 
L 299.365596 180.383838 
L 301.254514 180.383834 
L 303.143304 180.383827 
L 305.031943 180.383822 
L 306.920422 180.38382 
L 308.808744 180.38382 
L 310.696914 180.383821 
L 312.584947 180.38382 
L 314.472857 180.383819 
L 316.360661 180.383818 
L 318.248376 180.383818 
L 320.136018 180.383818 
L 322.023602 180.383818 
L 323.911142 180.383818 
L 325.798649 180.383818 
L 327.686134 180.383819 
L 329.573604 180.383819 
L 331.461066 180.383819 
L 333.348525 180.383819 
L 335.235984 180.383819 
L 337.123447 180.383819 
L 339.010914 180.38382 
L 340.898387 180.38382 
L 342.785866 180.38382 
L 344.67335 180.38382 
L 346.560839 180.38382 
L 348.448331 180.38382 
L 350.335826 180.38382 
L 352.223322 180.38382 
" clip-path="url(#p85bfc382af)" style="fill: none; stroke: #ff0000; stroke-opacity: 0.2; stroke-width: 0.25; stroke-linecap: square"/>
   </g>
   <g id="line2d_62">
    <path d="M 295.58755 180.383827 
L 297.476588 180.383836 
L 299.365596 180.383838 
L 301.254514 180.383834 
L 303.143304 180.383827 
L 305.031943 180.383822 
L 306.920423 180.38382 
L 308.808745 180.38382 
L 310.696916 180.383821 
L 312.584948 180.38382 
L 314.472859 180.383819 
L 316.360663 180.383818 
L 318.248378 180.383818 
L 320.136021 180.383818 
L 322.023605 180.383818 
L 323.911145 180.383818 
L 325.798652 180.383818 
L 327.686136 180.383818 
L 329.573606 180.383819 
L 331.461067 180.383819 
L 333.348525 180.383819 
L 335.235983 180.383819 
L 337.123444 180.383819 
L 339.010909 180.38382 
L 340.89838 180.38382 
L 342.785856 180.38382 
L 344.673337 180.38382 
L 346.560822 180.38382 
L 348.448311 180.38382 
L 350.335802 180.38382 
L 352.223293 180.38382 
" clip-path="url(#p85bfc382af)" style="fill: none; stroke: #ff0000; stroke-opacity: 0.4; stroke-width: 0.25; stroke-linecap: square"/>
   </g>
   <g id="line2d_63">
    <path d="M 295.58755 180.383827 
L 297.476588 180.383836 
L 299.365596 180.383838 
L 301.254514 180.383834 
L 303.143304 180.383827 
L 305.031943 180.383822 
L 306.920423 180.38382 
L 308.808744 180.38382 
L 310.696915 180.383821 
L 312.584948 180.38382 
L 314.472858 180.383819 
L 316.360662 180.383818 
L 318.248377 180.383818 
L 320.13602 180.383818 
L 322.023604 180.383818 
L 323.911144 180.383818 
L 325.798652 180.383818 
L 327.686136 180.383818 
L 329.573606 180.383819 
L 331.461068 180.383819 
L 333.348526 180.383819 
L 335.235985 180.383819 
L 337.123447 180.38382 
L 339.010914 180.38382 
L 340.898386 180.38382 
L 342.785863 180.38382 
L 344.673346 180.38382 
L 346.560833 180.38382 
L 348.448323 180.38382 
L 350.335816 180.38382 
L 352.22331 180.38382 
" clip-path="url(#p85bfc382af)" style="fill: none; stroke: #ff0000; stroke-opacity: 0.6; stroke-width: 0.25; stroke-linecap: square"/>
   </g>
   <g id="line2d_64">
    <path d="M 295.58755 180.383827 
L 297.476588 180.383836 
L 299.365596 180.383839 
L 301.254514 180.383834 
L 303.143304 180.383827 
L 305.031943 180.383822 
L 306.920423 180.38382 
L 308.808744 180.383821 
L 310.696915 180.383821 
L 312.584948 180.38382 
L 314.472858 180.383819 
L 316.360662 180.383818 
L 318.248378 180.383818 
L 320.13602 180.383818 
L 322.023604 180.383818 
L 323.911144 180.383818 
L 325.798651 180.383818 
L 327.686136 180.383818 
L 329.573605 180.383819 
L 331.461067 180.383819 
L 333.348525 180.383819 
L 335.235983 180.383819 
L 337.123445 180.38382 
L 339.010911 180.38382 
L 340.898382 180.38382 
L 342.785859 180.38382 
L 344.67334 180.38382 
L 346.560826 180.38382 
L 348.448316 180.38382 
L 350.335808 180.38382 
L 352.2233 180.38382 
" clip-path="url(#p85bfc382af)" style="fill: none; stroke: #ff0000; stroke-opacity: 0.8; stroke-width: 0.25; stroke-linecap: square"/>
   </g>
   <g id="line2d_65">
    <path d="M 295.58755 180.383827 
L 297.476588 180.383836 
L 299.365596 180.383839 
L 301.254514 180.383834 
L 303.143304 180.383827 
L 305.031943 180.383822 
L 306.920423 180.38382 
L 308.808744 180.383821 
L 310.696915 180.383821 
L 312.584948 180.38382 
L 314.472858 180.383819 
L 316.360662 180.383818 
L 318.248378 180.383818 
L 320.13602 180.383818 
L 322.023604 180.383818 
L 323.911144 180.383818 
L 325.798652 180.383818 
L 327.686136 180.383818 
L 329.573606 180.383819 
L 331.461067 180.383819 
L 333.348526 180.383819 
L 335.235985 180.383819 
L 337.123446 180.38382 
L 339.010913 180.38382 
L 340.898385 180.38382 
L 342.785862 180.38382 
L 344.673344 180.38382 
L 346.56083 180.38382 
L 348.44832 180.38382 
L 350.335812 180.38382 
L 352.223306 180.38382 
" clip-path="url(#p85bfc382af)" style="fill: none; stroke: #ff0000; stroke-width: 0.25; stroke-linecap: square"/>
   </g>
   <g id="line2d_66">
    <path d="M 242.026176 144.976282 
L 242.023151 143.457693 
L 242.018561 141.939731 
L 242.014848 140.421615 
L 242.012908 138.902799 
L 242.012625 137.382918 
L 242.013437 135.86176 
L 242.014655 134.339229 
L 242.015752 132.815319 
L 242.016401 131.290088 
L 242.016622 129.763641 
L 242.01655 128.236107 
L 242.016287 126.70763 
L 242.016041 125.178356 
L 242.015839 123.648425 
L 242.015732 122.11797 
L 242.015695 120.587109 
L 242.015705 119.055945 
L 242.015742 117.524566 
L 242.015786 115.993045 
L 242.015818 114.46144 
L 242.015826 112.929798 
L 242.015833 111.398154 
L 242.015835 109.866525 
L 242.015832 108.334919 
L 242.015829 106.803339 
L 242.015825 105.271783 
L 242.01582 103.740247 
L 242.015816 102.208725 
L 242.015815 100.677212 
L 242.015817 99.145701 
" clip-path="url(#p85bfc382af)" style="fill: none; stroke: #ff0000; stroke-opacity: 0.2; stroke-width: 0.25; stroke-linecap: square"/>
   </g>
   <g id="line2d_67">
    <path d="M 242.026176 144.976282 
L 242.023137 143.457693 
L 242.018567 141.939735 
L 242.014914 140.421621 
L 242.013035 138.902804 
L 242.012789 137.38292 
L 242.013601 135.861758 
L 242.014785 134.33922 
L 242.015828 132.815301 
L 242.016422 131.29006 
L 242.016596 129.763601 
L 242.016492 128.236055 
L 242.016216 126.707564 
L 242.015969 125.178276 
L 242.015776 123.648331 
L 242.015682 122.117862 
L 242.015657 120.586986 
L 242.015677 119.055807 
L 242.015721 117.524414 
L 242.015769 115.992879 
L 242.015804 114.461262 
L 242.015813 112.929608 
L 242.015821 111.397952 
L 242.015824 109.866313 
L 242.015823 108.334698 
L 242.015822 106.803112 
L 242.01582 105.271554 
L 242.015817 103.740018 
L 242.015816 102.208498 
L 242.015818 100.676989 
L 242.015822 99.145483 
" clip-path="url(#p85bfc382af)" style="fill: none; stroke: #ff0000; stroke-opacity: 0.4; stroke-width: 0.25; stroke-linecap: square"/>
   </g>
   <g id="line2d_68">
    <path d="M 242.026176 144.976282 
L 242.023119 143.457693 
L 242.018562 141.93974 
L 242.014963 140.421631 
L 242.013142 138.902818 
L 242.012928 137.382938 
L 242.013738 135.861778 
L 242.014891 134.339243 
L 242.015886 132.815326 
L 242.016431 131.290087 
L 242.016568 129.763631 
L 242.016442 128.236086 
L 242.016159 126.707597 
L 242.01592 125.17831 
L 242.015741 123.648367 
L 242.015662 122.117899 
L 242.015652 120.587025 
L 242.015683 119.055849 
L 242.015734 117.524458 
L 242.015785 115.992927 
L 242.015821 114.461313 
L 242.01583 112.929663 
L 242.015836 111.398012 
L 242.015837 109.866377 
L 242.015834 108.33477 
L 242.01583 106.803192 
L 242.015826 105.271644 
L 242.015821 103.740121 
L 242.015818 102.208617 
L 242.015818 100.677124 
L 242.01582 99.145636 
" clip-path="url(#p85bfc382af)" style="fill: none; stroke: #ff0000; stroke-opacity: 0.6; stroke-width: 0.25; stroke-linecap: square"/>
   </g>
   <g id="line2d_69">
    <path d="M 242.026176 144.976282 
L 242.023096 143.457693 
L 242.018548 141.939744 
L 242.014998 140.421638 
L 242.013229 138.902827 
L 242.013044 137.382947 
L 242.013851 135.861787 
L 242.014973 134.339251 
L 242.015924 132.815332 
L 242.016424 131.290091 
L 242.016528 129.763631 
L 242.016385 128.236082 
L 242.016101 126.707589 
L 242.01587 125.178298 
L 242.015707 123.64835 
L 242.015644 122.117876 
L 242.015647 120.586997 
L 242.015687 119.055815 
L 242.015742 117.524419 
L 242.015795 115.992882 
L 242.015829 114.461262 
L 242.015836 112.929607 
L 242.015839 111.397949 
L 242.015838 109.866309 
L 242.015833 108.334697 
L 242.015828 106.803116 
L 242.015824 105.271567 
L 242.015819 103.740044 
L 242.015817 102.208541 
L 242.015817 100.677051 
L 242.015819 99.145567 
" clip-path="url(#p85bfc382af)" style="fill: none; stroke: #ff0000; stroke-opacity: 0.8; stroke-width: 0.25; stroke-linecap: square"/>
   </g>
   <g id="line2d_70">
    <path d="M 242.026176 144.976282 
L 242.023071 143.457693 
L 242.018529 141.939748 
L 242.015024 140.421645 
L 242.013303 138.902836 
L 242.013146 137.382959 
L 242.013949 135.8618 
L 242.015042 134.339265 
L 242.015952 132.815347 
L 242.016413 131.290106 
L 242.016489 129.763646 
L 242.016333 128.236098 
L 242.016051 126.707606 
L 242.015832 125.178314 
L 242.015684 123.648366 
L 242.015637 122.117893 
L 242.015652 120.587013 
L 242.015699 119.055831 
L 242.015757 117.524435 
L 242.015809 115.992898 
L 242.01584 114.461279 
L 242.015844 112.929623 
L 242.015845 111.397965 
L 242.015841 109.866326 
L 242.015834 108.334714 
L 242.015828 106.803136 
L 242.015823 105.271589 
L 242.015819 103.740071 
L 242.015816 102.208575 
L 242.015817 100.677092 
L 242.015819 99.145616 
" clip-path="url(#p85bfc382af)" style="fill: none; stroke: #ff0000; stroke-width: 0.25; stroke-linecap: square"/>
   </g>
   <g id="line2d_71">
    <path d="M 254.340489 179.404508 
L 255.965095 179.104169 
L 257.629622 178.949872 
L 259.318949 178.948499 
L 261.016195 179.10458 
L 262.703579 179.420923 
L 264.382821 179.822879 
L 266.100922 180.060704 
L 267.835791 180.20098 
L 269.578768 180.287349 
L 271.326585 180.340883 
L 273.077655 180.372864 
L 274.831066 180.390188 
L 276.586215 180.397974 
L 278.342678 180.399841 
L 280.100145 180.398525 
L 281.858385 180.39596 
L 283.617219 180.393418 
L 285.376516 180.391701 
L 287.136173 180.390965 
L 288.896122 180.391027 
L 290.656319 180.391379 
L 292.416745 180.391689 
L 294.177401 180.391512 
L 295.938297 180.390766 
L 297.699454 180.389292 
L 299.460893 180.387075 
L 301.222633 180.383986 
L 302.984693 180.379952 
L 304.747084 180.375 
L 306.509814 180.369168 
" clip-path="url(#p85bfc382af)" style="fill: none; stroke: #ff0000; stroke-opacity: 0.2; stroke-width: 0.25; stroke-linecap: square"/>
   </g>
   <g id="line2d_72">
    <path d="M 254.340489 179.404508 
L 255.964916 179.103201 
L 257.629349 178.947909 
L 259.318676 178.94534 
L 261.016008 179.100525 
L 262.703531 179.416169 
L 264.382663 179.818635 
L 266.100757 180.056627 
L 267.835636 180.196984 
L 269.578629 180.283397 
L 271.326461 180.336968 
L 273.077544 180.369006 
L 274.830962 180.386424 
L 276.586113 180.394356 
L 278.342568 180.396431 
L 280.100019 180.39539 
L 281.858231 180.393173 
L 283.617026 180.391052 
L 285.376271 180.389832 
L 287.135861 180.389671 
L 288.89573 180.390388 
L 290.655835 180.391479 
L 292.416156 180.392611 
L 294.176694 180.393346 
L 295.937462 180.393601 
L 297.698482 180.393217 
L 299.459776 180.392176 
L 301.221365 180.390347 
L 302.983269 180.387648 
L 304.7455 180.384096 
L 306.508069 180.37971 
" clip-path="url(#p85bfc382af)" style="fill: none; stroke: #ff0000; stroke-opacity: 0.4; stroke-width: 0.25; stroke-linecap: square"/>
   </g>
   <g id="line2d_73">
    <path d="M 254.340489 179.404508 
L 255.964872 179.102963 
L 257.629343 178.948105 
L 259.318667 178.946297 
L 261.015908 179.102477 
L 262.703335 179.418661 
L 264.382225 179.822191 
L 266.100241 180.060887 
L 267.835106 180.201748 
L 269.578114 180.288498 
L 271.325977 180.342272 
L 273.077095 180.374405 
L 274.83055 180.391834 
L 276.585735 180.39971 
L 278.342219 180.401676 
L 280.099691 180.400483 
L 281.857916 180.398078 
L 283.616714 180.395741 
L 285.375952 180.394281 
L 287.135524 180.393864 
L 288.895364 180.394315 
L 290.655428 180.395137 
L 292.415697 180.396005 
L 294.176173 180.396489 
L 295.93687 180.396512 
L 297.697809 180.395919 
L 299.459014 180.3947 
L 301.220508 180.392723 
L 302.982311 180.389907 
L 304.744439 180.386265 
L 306.506901 180.381812 
" clip-path="url(#p85bfc382af)" style="fill: none; stroke: #ff0000; stroke-opacity: 0.6; stroke-width: 0.25; stroke-linecap: square"/>
   </g>
   <g id="line2d_74">
    <path d="M 254.340489 179.404508 
L 255.965055 179.103949 
L 257.629644 178.950425 
L 259.318964 178.950333 
L 261.016056 179.108079 
L 262.70325 179.425511 
L 264.381854 179.830269 
L 266.09977 180.069834 
L 267.834615 180.211298 
L 269.577643 180.298415 
L 271.325544 180.352356 
L 273.076711 180.384489 
L 274.830217 180.401781 
L 276.585451 180.409406 
L 278.341981 180.411025 
L 280.099493 180.409405 
L 281.857751 180.406505 
L 283.616574 180.403616 
L 285.375827 180.401556 
L 287.135406 180.400501 
L 288.895242 180.400286 
L 290.655292 180.400424 
L 292.415538 180.400602 
L 294.17598 180.400396 
L 295.936634 180.399741 
L 297.697522 180.398487 
L 299.458668 180.396629 
L 301.220097 180.39404 
L 302.98183 180.39064 
L 304.743883 180.386439 
L 306.506269 180.381444 
" clip-path="url(#p85bfc382af)" style="fill: none; stroke: #ff0000; stroke-opacity: 0.8; stroke-width: 0.25; stroke-linecap: square"/>
   </g>
   <g id="line2d_75">
    <path d="M 254.340489 179.404508 
L 255.96527 179.105117 
L 257.629928 178.952377 
L 259.319242 178.953048 
L 261.016275 179.111406 
L 262.703269 179.429912 
L 264.381689 179.835485 
L 266.099563 180.075513 
L 267.834424 180.217191 
L 269.577493 180.30431 
L 271.325447 180.358079 
L 273.076672 180.389904 
L 274.830237 180.406783 
L 276.585527 180.413918 
L 278.342108 180.41499 
L 280.099666 180.412782 
L 281.857963 180.409267 
L 283.616817 180.405747 
L 285.376093 180.403049 
L 287.135685 180.40136 
L 288.895526 180.400523 
L 290.655571 180.400061 
L 292.415801 180.399669 
L 294.176219 180.398932 
L 295.936839 180.397789 
L 297.697685 180.396096 
L 299.458783 180.393852 
L 301.220157 180.390927 
L 302.98183 180.387241 
L 304.74382 180.382796 
L 306.50614 180.37759 
" clip-path="url(#p85bfc382af)" style="fill: none; stroke: #ff0000; stroke-width: 0.25; stroke-linecap: square"/>
   </g>
   <g id="line2d_76">
    <path d="M 230.30742 215.736695 
L 230.30511 217.957789 
L 230.303824 220.179729 
L 230.303638 222.403282 
L 230.303907 224.628924 
L 230.304173 226.856905 
L 230.304297 229.087296 
L 230.304309 231.320041 
L 230.304282 233.55499 
L 230.30425 235.791934 
L 230.304226 238.030632 
L 230.304203 240.27083 
L 230.30418 242.512275 
L 230.304159 244.754729 
L 230.304144 246.997974 
L 230.304137 249.241818 
L 230.304139 251.486092 
L 230.304146 253.730658 
L 230.304153 255.975403 
L 230.304169 258.220237 
L 230.304176 260.465092 
L 230.304177 262.70992 
L 230.304177 264.954689 
L 230.304176 267.199379 
L 230.304177 269.443983 
L 230.304179 271.688502 
L 230.304181 273.932945 
L 230.304184 276.177323 
L 230.304187 278.421653 
L 230.304186 280.665953 
L 230.304184 282.91024 
" clip-path="url(#p85bfc382af)" style="fill: none; stroke: #ff0000; stroke-opacity: 0.2; stroke-width: 0.25; stroke-linecap: square"/>
   </g>
   <g id="line2d_77">
    <path d="M 230.30742 215.736695 
L 230.305114 217.957789 
L 230.303837 220.179727 
L 230.303656 222.403278 
L 230.303926 224.628918 
L 230.30419 226.856895 
L 230.304309 229.087284 
L 230.304317 231.320025 
L 230.304285 233.554971 
L 230.30425 235.791912 
L 230.304222 238.030608 
L 230.304198 240.270804 
L 230.304174 242.512249 
L 230.304154 244.754704 
L 230.30414 246.997953 
L 230.304135 249.241803 
L 230.304138 251.486086 
L 230.304146 253.730665 
L 230.304153 255.975425 
L 230.304168 258.220278 
L 230.304175 260.465155 
L 230.304176 262.710008 
L 230.304176 264.954804 
L 230.304175 267.199524 
L 230.304176 269.444159 
L 230.304178 271.688711 
L 230.30418 273.933185 
L 230.304183 276.177595 
L 230.304184 278.421955 
L 230.304182 280.666283 
L 230.304178 282.910595 
" clip-path="url(#p85bfc382af)" style="fill: none; stroke: #ff0000; stroke-opacity: 0.4; stroke-width: 0.25; stroke-linecap: square"/>
   </g>
   <g id="line2d_78">
    <path d="M 230.30742 215.736695 
L 230.305117 217.957789 
L 230.303848 220.179727 
L 230.303673 222.403277 
L 230.303944 224.628916 
L 230.304205 226.856893 
L 230.304319 229.087281 
L 230.304322 231.320023 
L 230.304287 233.554968 
L 230.304248 235.791908 
L 230.304218 238.030602 
L 230.304193 240.270797 
L 230.304169 242.512239 
L 230.30415 244.754692 
L 230.304137 246.997937 
L 230.304134 249.241781 
L 230.304138 251.486059 
L 230.304147 253.73063 
L 230.304154 255.975383 
L 230.30417 258.220226 
L 230.304176 260.465094 
L 230.304177 262.709936 
L 230.304176 264.95472 
L 230.304176 267.199428 
L 230.304177 269.444051 
L 230.304179 271.688589 
L 230.304182 273.933049 
L 230.304184 276.177444 
L 230.304186 278.421788 
L 230.304185 280.666098 
L 230.304181 282.910392 
" clip-path="url(#p85bfc382af)" style="fill: none; stroke: #ff0000; stroke-opacity: 0.6; stroke-width: 0.25; stroke-linecap: square"/>
   </g>
   <g id="line2d_79">
    <path d="M 230.30742 215.736695 
L 230.30512 217.957789 
L 230.303859 220.179726 
L 230.303689 222.403276 
L 230.30396 224.628916 
L 230.304217 226.856893 
L 230.304328 229.087282 
L 230.304326 231.320024 
L 230.304287 233.554971 
L 230.304245 235.791912 
L 230.304213 238.030608 
L 230.304187 240.270804 
L 230.304164 242.512249 
L 230.304146 244.754704 
L 230.304135 246.997952 
L 230.304133 249.2418 
L 230.304139 251.486082 
L 230.304148 253.730658 
L 230.304156 255.975415 
L 230.30417 258.220264 
L 230.304176 260.465137 
L 230.304177 262.709985 
L 230.304176 264.954776 
L 230.304176 267.199491 
L 230.304177 269.444121 
L 230.304178 271.688666 
L 230.304181 273.933134 
L 230.304183 276.177537 
L 230.304184 278.421889 
L 230.304184 280.666206 
L 230.304179 282.910507 
" clip-path="url(#p85bfc382af)" style="fill: none; stroke: #ff0000; stroke-opacity: 0.8; stroke-width: 0.25; stroke-linecap: square"/>
   </g>
   <g id="line2d_80">
    <path d="M 230.30742 215.736695 
L 230.305122 217.957789 
L 230.303869 220.179726 
L 230.303703 222.403276 
L 230.303974 224.628915 
L 230.304229 226.856892 
L 230.304335 229.08728 
L 230.304329 231.320022 
L 230.304286 233.554967 
L 230.304242 235.791908 
L 230.304209 238.030603 
L 230.304182 240.270798 
L 230.30416 242.512242 
L 230.304143 244.754695 
L 230.304134 246.997941 
L 230.304133 249.241787 
L 230.30414 251.486066 
L 230.30415 253.730639 
L 230.304158 255.975393 
L 230.304172 258.220239 
L 230.304177 260.465109 
L 230.304177 262.709954 
L 230.304176 264.954742 
L 230.304176 267.199452 
L 230.304177 269.444079 
L 230.304179 271.68862 
L 230.304181 273.933084 
L 230.304183 276.177482 
L 230.304185 278.42183 
L 230.304185 280.666143 
L 230.304181 282.91044 
" clip-path="url(#p85bfc382af)" style="fill: none; stroke: #ff0000; stroke-width: 0.25; stroke-linecap: square"/>
   </g>
   <g id="line2d_81">
    <path d="M 217.98946 169.685992 
L 216.367754 169.999579 
L 214.704084 170.167854 
L 213.013477 170.183536 
L 211.312942 170.041287 
L 209.620566 169.738028 
L 207.954432 169.274164 
L 206.236624 169.013931 
L 204.499803 168.863228 
L 202.75428 168.774394 
L 201.003983 168.721812 
L 199.250688 168.691425 
L 197.495364 168.675212 
L 195.738596 168.667919 
L 193.980777 168.665893 
L 192.222189 168.666417 
L 190.463037 168.667644 
L 188.703477 168.668451 
L 186.943622 168.668459 
L 185.183547 168.667732 
L 183.423297 168.666541 
L 181.662886 168.665216 
L 179.902311 168.66412 
L 178.141556 168.66356 
L 176.380595 168.66375 
L 174.619402 168.664721 
L 172.85795 168.666692 
L 171.096213 168.669847 
L 169.334169 168.674078 
L 167.571806 168.679414 
L 165.809116 168.685804 
" clip-path="url(#p85bfc382af)" style="fill: none; stroke: #ff0000; stroke-opacity: 0.2; stroke-width: 0.25; stroke-linecap: square"/>
   </g>
   <g id="line2d_82">
    <path d="M 217.98946 169.685992 
L 216.36782 169.999924 
L 214.704177 170.168462 
L 213.013571 170.184449 
L 211.312989 170.042703 
L 209.620424 169.740442 
L 207.95422 169.27678 
L 206.236426 169.016356 
L 204.499599 168.865548 
L 202.754065 168.776639 
L 201.00376 168.72399 
L 199.250459 168.693522 
L 197.495137 168.677202 
L 195.738377 168.669765 
L 193.980578 168.667551 
L 192.22202 168.667841 
L 190.462912 168.668784 
L 188.703409 168.669255 
L 186.943625 168.668873 
L 185.183635 168.667698 
L 183.423485 168.665998 
L 181.663188 168.664099 
L 179.90274 168.662359 
L 178.142124 168.66108 
L 176.381314 168.660475 
L 174.620281 168.66057 
L 172.858997 168.661585 
L 171.097435 168.663708 
L 169.335572 168.666837 
L 167.573392 168.671008 
L 165.810887 168.676188 
" clip-path="url(#p85bfc382af)" style="fill: none; stroke: #ff0000; stroke-opacity: 0.4; stroke-width: 0.25; stroke-linecap: square"/>
   </g>
   <g id="line2d_83">
    <path d="M 217.98946 169.685992 
L 216.367931 170.000495 
L 214.704246 170.168608 
L 213.013632 170.183602 
L 211.313143 170.040701 
L 209.620714 169.737642 
L 207.954658 169.273393 
L 206.236951 169.01225 
L 204.500143 168.860911 
L 202.754598 168.771623 
L 201.004266 168.718723 
L 199.250935 168.688108 
L 197.495582 168.671728 
L 195.738796 168.664302 
L 193.980977 168.662161 
L 192.222407 168.662578 
L 190.463296 168.663695 
L 188.703801 168.66438 
L 186.944037 168.664248 
L 185.184079 168.663349 
L 183.423972 168.661944 
L 181.66373 168.660349 
L 179.90335 168.658915 
L 178.142812 168.657934 
L 176.38209 168.65761 
L 174.621156 168.657964 
L 172.859977 168.659209 
L 171.098528 168.66153 
L 169.336782 168.664823 
L 167.574724 168.66913 
L 165.812344 168.674424 
" clip-path="url(#p85bfc382af)" style="fill: none; stroke: #ff0000; stroke-opacity: 0.6; stroke-width: 0.25; stroke-linecap: square"/>
   </g>
   <g id="line2d_84">
    <path d="M 217.98946 169.685992 
L 216.367871 170.000187 
L 214.704119 170.167602 
L 213.013496 170.181557 
L 211.313123 170.03728 
L 209.621009 169.732419 
L 207.955213 169.267175 
L 206.23761 169.00517 
L 204.50082 168.853209 
L 202.755252 168.76351 
L 201.004877 168.710379 
L 199.251495 168.679686 
L 197.496088 168.663356 
L 195.73925 168.656091 
L 193.981382 168.654206 
L 192.222771 168.654961 
L 190.463627 168.656487 
L 188.704107 168.657645 
L 186.944327 168.658036 
L 185.184364 168.657704 
L 183.424261 168.656896 
L 181.664035 168.655919 
L 179.903681 168.65511 
L 178.143179 168.654754 
L 176.382503 168.655043 
L 174.621623 168.655991 
L 172.860506 168.657804 
L 171.099126 168.660664 
L 169.337454 168.664464 
L 167.575473 168.66925 
L 165.813172 168.675001 
" clip-path="url(#p85bfc382af)" style="fill: none; stroke: #ff0000; stroke-opacity: 0.8; stroke-width: 0.25; stroke-linecap: square"/>
   </g>
   <g id="line2d_85">
    <path d="M 217.98946 169.685992 
L 216.367643 169.999009 
L 214.703845 170.16595 
L 213.013221 170.179725 
L 211.312868 170.03516 
L 209.620913 169.72936 
L 207.95533 169.263282 
L 206.237766 169.000811 
L 204.500956 168.848606 
L 202.755342 168.758849 
L 201.00491 168.705812 
L 199.251465 168.675334 
L 197.495995 168.659314 
L 195.739097 168.652432 
L 193.981175 168.650989 
L 192.222515 168.652229 
L 190.463329 168.654274 
L 188.703775 168.655974 
L 186.943971 168.65692 
L 185.183992 168.657145 
L 183.423885 168.656887 
L 181.663665 168.656443 
L 179.903325 168.656142 
L 178.142849 168.656257 
L 176.382208 168.656976 
L 174.62137 168.658305 
L 172.860304 168.660448 
L 171.098979 168.663584 
L 169.337368 168.667611 
L 167.575453 168.672577 
L 165.813219 168.678476 
" clip-path="url(#p85bfc382af)" style="fill: none; stroke: #ff0000; stroke-width: 0.25; stroke-linecap: square"/>
   </g>
   <g id="line2d_86">
    <path d="M 231.433442 192.589858 
L 231.736933 194.256657 
L 231.883811 195.955449 
L 231.8703 197.670777 
L 231.694676 199.386031 
L 231.357425 201.08428 
L 230.90779 202.76225 
L 230.650245 204.484857 
L 230.495352 206.223248 
L 230.398896 207.9686 
L 230.339308 209.717754 
L 230.304436 211.469287 
L 230.285701 213.222436 
L 230.27742 214.976756 
L 230.275467 216.731972 
L 230.276841 218.487895 
L 230.279449 220.244389 
L 230.281988 222.001352 
L 230.283822 223.758706 
L 230.284827 225.516395 
L 230.285178 227.274381 
L 230.285222 229.032645 
L 230.285352 230.791181 
L 230.285915 232.549992 
L 230.287154 234.309088 
L 230.289085 236.068483 
L 230.29193 237.828192 
L 230.295865 239.588232 
L 230.300945 241.348615 
L 230.307215 243.109352 
L 230.314636 244.870451 
" clip-path="url(#p85bfc382af)" style="fill: none; stroke: #ff0000; stroke-opacity: 0.2; stroke-width: 0.25; stroke-linecap: square"/>
   </g>
   <g id="line2d_87">
    <path d="M 231.433442 192.589858 
L 231.736817 194.256678 
L 231.883813 195.955461 
L 231.870585 197.670796 
L 231.695266 199.38609 
L 231.358158 201.084384 
L 230.90794 202.762223 
L 230.650214 204.484834 
L 230.495335 206.223264 
L 230.399036 207.968666 
L 230.339705 209.717874 
L 230.305152 211.469461 
L 230.286769 213.222661 
L 230.278847 214.97703 
L 230.277241 216.73229 
L 230.278934 218.488254 
L 230.281825 220.244784 
L 230.284598 222.001777 
L 230.286609 223.759155 
L 230.287726 225.516861 
L 230.288116 227.274857 
L 230.288117 229.033125 
L 230.288118 230.791657 
L 230.288458 232.550456 
L 230.289376 234.309534 
L 230.290887 236.068906 
L 230.293213 237.828587 
L 230.296533 239.588593 
L 230.300909 241.34894 
L 230.306401 243.109639 
L 230.312989 244.870698 
" clip-path="url(#p85bfc382af)" style="fill: none; stroke: #ff0000; stroke-opacity: 0.4; stroke-width: 0.25; stroke-linecap: square"/>
   </g>
   <g id="line2d_88">
    <path d="M 231.433442 192.589858 
L 231.734901 194.257026 
L 231.882094 195.955792 
L 231.870349 197.671142 
L 231.696436 199.386587 
L 231.359013 201.084832 
L 230.908253 202.762546 
L 230.650393 204.485163 
L 230.495562 206.223627 
L 230.399442 207.969072 
L 230.340378 209.718324 
L 230.306145 211.469954 
L 230.288106 213.223193 
L 230.280529 214.977597 
L 230.279253 216.732888 
L 230.281249 218.488876 
L 230.284403 220.245426 
L 230.287394 222.002433 
L 230.289572 223.759818 
L 230.290795 225.517523 
L 230.291226 227.275512 
L 230.291197 229.033764 
L 230.29109 230.792272 
L 230.29124 232.551042 
L 230.291884 234.310083 
L 230.293033 236.069411 
L 230.294909 237.829044 
L 230.297696 239.588997 
L 230.301463 241.349288 
L 230.306278 243.109928 
L 230.31214 244.870927 
" clip-path="url(#p85bfc382af)" style="fill: none; stroke: #ff0000; stroke-opacity: 0.6; stroke-width: 0.25; stroke-linecap: square"/>
   </g>
   <g id="line2d_89">
    <path d="M 231.433442 192.589858 
L 231.734352 194.257125 
L 231.881658 195.955882 
L 231.870414 197.671238 
L 231.696974 199.386738 
L 231.359517 201.084988 
L 230.908078 202.762538 
L 230.649943 204.485137 
L 230.495025 206.22362 
L 230.398951 207.969098 
L 230.340029 209.718387 
L 230.305998 211.470053 
L 230.288192 213.223326 
L 230.280858 214.97776 
L 230.27982 216.733077 
L 230.282037 218.489087 
L 230.285387 220.245652 
L 230.288541 222.002669 
L 230.290843 223.760056 
L 230.292147 225.517757 
L 230.292608 227.275734 
L 230.292556 229.033966 
L 230.292365 230.792447 
L 230.292366 232.551182 
L 230.292792 234.310182 
L 230.293653 236.069464 
L 230.29517 237.829044 
L 230.297528 239.58894 
L 230.300802 241.34917 
L 230.305069 243.109748 
L 230.310342 244.870682 
" clip-path="url(#p85bfc382af)" style="fill: none; stroke: #ff0000; stroke-opacity: 0.8; stroke-width: 0.25; stroke-linecap: square"/>
   </g>
   <g id="line2d_90">
    <path d="M 231.433442 192.589858 
L 231.736155 194.256799 
L 231.883432 195.955558 
L 231.871052 197.67091 
L 231.696568 199.386312 
L 231.359603 201.084673 
L 230.907353 202.762025 
L 230.648807 204.484589 
L 230.493679 206.223086 
L 230.397549 207.968597 
L 230.33868 209.717926 
L 230.30478 211.469635 
L 230.287153 213.222952 
L 230.280025 214.977426 
L 230.279204 216.73278 
L 230.281638 218.488823 
L 230.285196 220.245417 
L 230.288542 222.002456 
L 230.291015 223.75986 
L 230.292463 225.517571 
L 230.293037 227.27555 
L 230.293058 229.033778 
L 230.292897 230.792249 
L 230.292881 232.550966 
L 230.293237 234.309941 
L 230.293973 236.069192 
L 230.295308 237.828737 
L 230.297429 239.588594 
L 230.300412 241.34878 
L 230.304343 243.109312 
L 230.309246 244.870199 
" clip-path="url(#p85bfc382af)" style="fill: none; stroke: #ff0000; stroke-width: 0.25; stroke-linecap: square"/>
   </g>
   <g id="patch_15">
    <path d="M 103.104 307.584 
L 103.104 41.472 
" style="fill: none; stroke: #000000; stroke-width: 0.8; stroke-linejoin: miter; stroke-linecap: square"/>
   </g>
   <g id="patch_16">
    <path d="M 369.216 307.584 
L 369.216 41.472 
" style="fill: none; stroke: #000000; stroke-width: 0.8; stroke-linejoin: miter; stroke-linecap: square"/>
   </g>
   <g id="patch_17">
    <path d="M 103.104 307.584 
L 369.216 307.584 
" style="fill: none; stroke: #000000; stroke-width: 0.8; stroke-linejoin: miter; stroke-linecap: square"/>
   </g>
   <g id="patch_18">
    <path d="M 103.104 41.472 
L 369.216 41.472 
" style="fill: none; stroke: #000000; stroke-width: 0.8; stroke-linejoin: miter; stroke-linecap: square"/>
   </g>
   <g id="text_19">
    <!-- Time:  86 ms -->
    <g transform="translate(264.253887 54.7776) scale(0.1 -0.1)">
     <defs>
      <path id="DejaVuSans-54" d="M -19 4666 
L 3928 4666 
L 3928 4134 
L 2272 4134 
L 2272 0 
L 1638 0 
L 1638 4134 
L -19 4134 
L -19 4666 
z
" transform="scale(0.015625)"/>
      <path id="DejaVuSans-69" d="M 603 3500 
L 1178 3500 
L 1178 0 
L 603 0 
L 603 3500 
z
M 603 4863 
L 1178 4863 
L 1178 4134 
L 603 4134 
L 603 4863 
z
" transform="scale(0.015625)"/>
      <path id="DejaVuSans-6d" d="M 3328 2828 
Q 3544 3216 3844 3400 
Q 4144 3584 4550 3584 
Q 5097 3584 5394 3201 
Q 5691 2819 5691 2113 
L 5691 0 
L 5113 0 
L 5113 2094 
Q 5113 2597 4934 2840 
Q 4756 3084 4391 3084 
Q 3944 3084 3684 2787 
Q 3425 2491 3425 1978 
L 3425 0 
L 2847 0 
L 2847 2094 
Q 2847 2600 2669 2842 
Q 2491 3084 2119 3084 
Q 1678 3084 1418 2786 
Q 1159 2488 1159 1978 
L 1159 0 
L 581 0 
L 581 3500 
L 1159 3500 
L 1159 2956 
Q 1356 3278 1631 3431 
Q 1906 3584 2284 3584 
Q 2666 3584 2933 3390 
Q 3200 3197 3328 2828 
z
" transform="scale(0.015625)"/>
      <path id="DejaVuSans-65" d="M 3597 1894 
L 3597 1613 
L 953 1613 
Q 991 1019 1311 708 
Q 1631 397 2203 397 
Q 2534 397 2845 478 
Q 3156 559 3463 722 
L 3463 178 
Q 3153 47 2828 -22 
Q 2503 -91 2169 -91 
Q 1331 -91 842 396 
Q 353 884 353 1716 
Q 353 2575 817 3079 
Q 1281 3584 2069 3584 
Q 2775 3584 3186 3129 
Q 3597 2675 3597 1894 
z
M 3022 2063 
Q 3016 2534 2758 2815 
Q 2500 3097 2075 3097 
Q 1594 3097 1305 2825 
Q 1016 2553 972 2059 
L 3022 2063 
z
" transform="scale(0.015625)"/>
      <path id="DejaVuSans-3a" d="M 750 794 
L 1409 794 
L 1409 0 
L 750 0 
L 750 794 
z
M 750 3309 
L 1409 3309 
L 1409 2516 
L 750 2516 
L 750 3309 
z
" transform="scale(0.015625)"/>
      <path id="DejaVuSans-20" transform="scale(0.015625)"/>
      <path id="DejaVuSans-38" d="M 2034 2216 
Q 1584 2216 1326 1975 
Q 1069 1734 1069 1313 
Q 1069 891 1326 650 
Q 1584 409 2034 409 
Q 2484 409 2743 651 
Q 3003 894 3003 1313 
Q 3003 1734 2745 1975 
Q 2488 2216 2034 2216 
z
M 1403 2484 
Q 997 2584 770 2862 
Q 544 3141 544 3541 
Q 544 4100 942 4425 
Q 1341 4750 2034 4750 
Q 2731 4750 3128 4425 
Q 3525 4100 3525 3541 
Q 3525 3141 3298 2862 
Q 3072 2584 2669 2484 
Q 3125 2378 3379 2068 
Q 3634 1759 3634 1313 
Q 3634 634 3220 271 
Q 2806 -91 2034 -91 
Q 1263 -91 848 271 
Q 434 634 434 1313 
Q 434 1759 690 2068 
Q 947 2378 1403 2484 
z
M 1172 3481 
Q 1172 3119 1398 2916 
Q 1625 2713 2034 2713 
Q 2441 2713 2670 2916 
Q 2900 3119 2900 3481 
Q 2900 3844 2670 4047 
Q 2441 4250 2034 4250 
Q 1625 4250 1398 4047 
Q 1172 3844 1172 3481 
z
" transform="scale(0.015625)"/>
      <path id="DejaVuSans-36" d="M 2113 2584 
Q 1688 2584 1439 2293 
Q 1191 2003 1191 1497 
Q 1191 994 1439 701 
Q 1688 409 2113 409 
Q 2538 409 2786 701 
Q 3034 994 3034 1497 
Q 3034 2003 2786 2293 
Q 2538 2584 2113 2584 
z
M 3366 4563 
L 3366 3988 
Q 3128 4100 2886 4159 
Q 2644 4219 2406 4219 
Q 1781 4219 1451 3797 
Q 1122 3375 1075 2522 
Q 1259 2794 1537 2939 
Q 1816 3084 2150 3084 
Q 2853 3084 3261 2657 
Q 3669 2231 3669 1497 
Q 3669 778 3244 343 
Q 2819 -91 2113 -91 
Q 1303 -91 875 529 
Q 447 1150 447 2328 
Q 447 3434 972 4092 
Q 1497 4750 2381 4750 
Q 2619 4750 2861 4703 
Q 3103 4656 3366 4563 
z
" transform="scale(0.015625)"/>
      <path id="DejaVuSans-73" d="M 2834 3397 
L 2834 2853 
Q 2591 2978 2328 3040 
Q 2066 3103 1784 3103 
Q 1356 3103 1142 2972 
Q 928 2841 928 2578 
Q 928 2378 1081 2264 
Q 1234 2150 1697 2047 
L 1894 2003 
Q 2506 1872 2764 1633 
Q 3022 1394 3022 966 
Q 3022 478 2636 193 
Q 2250 -91 1575 -91 
Q 1294 -91 989 -36 
Q 684 19 347 128 
L 347 722 
Q 666 556 975 473 
Q 1284 391 1588 391 
Q 1994 391 2212 530 
Q 2431 669 2431 922 
Q 2431 1156 2273 1281 
Q 2116 1406 1581 1522 
L 1381 1569 
Q 847 1681 609 1914 
Q 372 2147 372 2553 
Q 372 3047 722 3315 
Q 1072 3584 1716 3584 
Q 2034 3584 2315 3537 
Q 2597 3491 2834 3397 
z
" transform="scale(0.015625)"/>
     </defs>
     <use xlink:href="#DejaVuSans-54"/>
     <use xlink:href="#DejaVuSans-69" x="57.958984"/>
     <use xlink:href="#DejaVuSans-6d" x="85.742188"/>
     <use xlink:href="#DejaVuSans-65" x="183.154297"/>
     <use xlink:href="#DejaVuSans-3a" x="244.677734"/>
     <use xlink:href="#DejaVuSans-20" x="278.369141"/>
     <use xlink:href="#DejaVuSans-20" x="310.15625"/>
     <use xlink:href="#DejaVuSans-38" x="341.943359"/>
     <use xlink:href="#DejaVuSans-36" x="405.566406"/>
     <use xlink:href="#DejaVuSans-20" x="469.189453"/>
     <use xlink:href="#DejaVuSans-6d" x="500.976562"/>
     <use xlink:href="#DejaVuSans-73" x="598.388672"/>
    </g>
   </g>
  </g>
 </g>
 <defs>
  <clipPath id="p85bfc382af">
   <rect x="103.104" y="41.472" width="266.112" height="266.112"/>
  </clipPath>
 </defs>
</svg>
