<?xml version="1.0" encoding="utf-8" standalone="no"?>
<!DOCTYPE svg PUBLIC "-//W3C//DTD SVG 1.1//EN"
  "http://www.w3.org/Graphics/SVG/1.1/DTD/svg11.dtd">
<svg xmlns:xlink="http://www.w3.org/1999/xlink" width="460.8pt" height="345.6pt" viewBox="0 0 460.8 345.6" xmlns="http://www.w3.org/2000/svg" version="1.1">
 <metadata>
  <rdf:RDF xmlns:dc="http://purl.org/dc/elements/1.1/" xmlns:cc="http://creativecommons.org/ns#" xmlns:rdf="http://www.w3.org/1999/02/22-rdf-syntax-ns#">
   <cc:Work>
    <dc:type rdf:resource="http://purl.org/dc/dcmitype/StillImage"/>
    <dc:date>2024-01-22T16:49:29.620307</dc:date>
    <dc:format>image/svg+xml</dc:format>
    <dc:creator>
     <cc:Agent>
      <dc:title>Matplotlib v3.8.2, https://matplotlib.org/</dc:title>
     </cc:Agent>
    </dc:creator>
   </cc:Work>
  </rdf:RDF>
 </metadata>
 <defs>
  <style type="text/css">*{stroke-linejoin: round; stroke-linecap: butt}</style>
 </defs>
 <g id="figure_1">
  <g id="patch_1">
   <path d="M 0 345.6 
L 460.8 345.6 
L 460.8 0 
L 0 0 
z
" style="fill: #ffffff"/>
  </g>
  <g id="axes_1">
   <g id="patch_2">
    <path d="M 103.104 307.584 
L 369.216 307.584 
L 369.216 41.472 
L 103.104 41.472 
z
" style="fill: #ffffff"/>
   </g>
   <g id="patch_3">
    <path d="M 245.187699 75.833699 
L 245.187705 64.191299 
L 239.532825 64.191296 
L 239.532819 75.833696 
z
" clip-path="url(#pc11a274e31)" style="fill: #00008b"/>
   </g>
   <g id="patch_4">
    <path d="M 137.465093 165.500255 
L 125.822693 165.500304 
L 125.822717 171.155184 
L 137.465117 171.155135 
z
" clip-path="url(#pc11a274e31)" style="fill: #800000"/>
   </g>
   <g id="patch_5">
    <path d="M 332.668343 183.555691 
L 344.310743 183.555729 
L 344.310762 177.900849 
L 332.668362 177.900811 
z
" clip-path="url(#pc11a274e31)" style="fill: #006400"/>
   </g>
   <g id="patch_6">
    <path d="M 227.132282 276.89934 
L 227.132333 288.54174 
L 232.787213 288.541716 
L 232.787162 276.899316 
z
" clip-path="url(#pc11a274e31)" style="fill: #4b0082"/>
   </g>
   <g id="patch_7">
    <path d="M 245.191012 108.919757 
L 245.186555 97.277358 
L 239.531675 97.279523 
L 239.536132 108.921922 
z
" clip-path="url(#pc11a274e31)" style="fill: #0000ff"/>
   </g>
   <g id="patch_8">
    <path d="M 227.133028 239.530795 
L 227.132108 251.173195 
L 232.786988 251.173642 
L 232.787908 239.531242 
z
" clip-path="url(#pc11a274e31)" style="fill: #ff0000"/>
   </g>
   <g id="patch_9">
    <path d="M 166.724033 165.49675 
L 155.081633 165.498771 
L 155.082615 171.153651 
L 166.725014 171.15163 
z
" clip-path="url(#pc11a274e31)" style="fill: #dbdc56"/>
   </g>
   <g id="patch_10">
    <path d="M 301.583969 183.554906 
L 313.226369 183.557608 
L 313.227681 177.902728 
L 301.585282 177.900026 
z
" clip-path="url(#pc11a274e31)" style="fill: #9400d3"/>
   </g>
   <g id="patch_11">
    <path d="M 273.169065 183.280883 
L 284.80766 183.578505 
L 284.952219 177.925473 
L 273.313624 177.627851 
z
" clip-path="url(#pc11a274e31)" style="fill: #1e90ff"/>
   </g>
   <g id="patch_12">
    <path d="M 226.675311 204.765361 
L 227.452741 216.381775 
L 233.094999 216.004166 
L 232.31757 204.387752 
z
" clip-path="url(#pc11a274e31)" style="fill: #ff4500"/>
   </g>
   <g id="patch_13">
    <path d="M 199.135465 165.789627 
L 187.497267 165.476859 
L 187.345351 171.129698 
L 198.983549 171.442466 
z
" clip-path="url(#pc11a274e31)" style="fill: #7cfc00"/>
   </g>
   <g id="patch_14">
    <path d="M 245.707641 144.21601 
L 244.829132 132.606802 
L 239.190374 133.033506 
L 240.068883 144.642714 
z
" clip-path="url(#pc11a274e31)" style="fill: #ff00ff"/>
   </g>
   <g id="matplotlib.axis_1">
    <g id="xtick_1">
     <g id="line2d_1">
      <defs>
       <path id="m25bd274044" d="M 0 0 
L 0 3.5 
" style="stroke: #000000; stroke-width: 0.8"/>
      </defs>
      <g>
       <use xlink:href="#m25bd274044" x="103.104" y="307.584" style="stroke: #000000; stroke-width: 0.8"/>
      </g>
     </g>
     <g id="text_1">
      <!-- −40 -->
      <g transform="translate(92.551656 322.182437) scale(0.1 -0.1)">
       <defs>
        <path id="DejaVuSans-2212" d="M 678 2272 
L 4684 2272 
L 4684 1741 
L 678 1741 
L 678 2272 
z
" transform="scale(0.015625)"/>
        <path id="DejaVuSans-34" d="M 2419 4116 
L 825 1625 
L 2419 1625 
L 2419 4116 
z
M 2253 4666 
L 3047 4666 
L 3047 1625 
L 3713 1625 
L 3713 1100 
L 3047 1100 
L 3047 0 
L 2419 0 
L 2419 1100 
L 313 1100 
L 313 1709 
L 2253 4666 
z
" transform="scale(0.015625)"/>
        <path id="DejaVuSans-30" d="M 2034 4250 
Q 1547 4250 1301 3770 
Q 1056 3291 1056 2328 
Q 1056 1369 1301 889 
Q 1547 409 2034 409 
Q 2525 409 2770 889 
Q 3016 1369 3016 2328 
Q 3016 3291 2770 3770 
Q 2525 4250 2034 4250 
z
M 2034 4750 
Q 2819 4750 3233 4129 
Q 3647 3509 3647 2328 
Q 3647 1150 3233 529 
Q 2819 -91 2034 -91 
Q 1250 -91 836 529 
Q 422 1150 422 2328 
Q 422 3509 836 4129 
Q 1250 4750 2034 4750 
z
" transform="scale(0.015625)"/>
       </defs>
       <use xlink:href="#DejaVuSans-2212"/>
       <use xlink:href="#DejaVuSans-34" x="83.789062"/>
       <use xlink:href="#DejaVuSans-30" x="147.412109"/>
      </g>
     </g>
    </g>
    <g id="xtick_2">
     <g id="line2d_2">
      <g>
       <use xlink:href="#m25bd274044" x="136.368" y="307.584" style="stroke: #000000; stroke-width: 0.8"/>
      </g>
     </g>
     <g id="text_2">
      <!-- −30 -->
      <g transform="translate(125.815656 322.182437) scale(0.1 -0.1)">
       <defs>
        <path id="DejaVuSans-33" d="M 2597 2516 
Q 3050 2419 3304 2112 
Q 3559 1806 3559 1356 
Q 3559 666 3084 287 
Q 2609 -91 1734 -91 
Q 1441 -91 1130 -33 
Q 819 25 488 141 
L 488 750 
Q 750 597 1062 519 
Q 1375 441 1716 441 
Q 2309 441 2620 675 
Q 2931 909 2931 1356 
Q 2931 1769 2642 2001 
Q 2353 2234 1838 2234 
L 1294 2234 
L 1294 2753 
L 1863 2753 
Q 2328 2753 2575 2939 
Q 2822 3125 2822 3475 
Q 2822 3834 2567 4026 
Q 2313 4219 1838 4219 
Q 1578 4219 1281 4162 
Q 984 4106 628 3988 
L 628 4550 
Q 988 4650 1302 4700 
Q 1616 4750 1894 4750 
Q 2613 4750 3031 4423 
Q 3450 4097 3450 3541 
Q 3450 3153 3228 2886 
Q 3006 2619 2597 2516 
z
" transform="scale(0.015625)"/>
       </defs>
       <use xlink:href="#DejaVuSans-2212"/>
       <use xlink:href="#DejaVuSans-33" x="83.789062"/>
       <use xlink:href="#DejaVuSans-30" x="147.412109"/>
      </g>
     </g>
    </g>
    <g id="xtick_3">
     <g id="line2d_3">
      <g>
       <use xlink:href="#m25bd274044" x="169.632" y="307.584" style="stroke: #000000; stroke-width: 0.8"/>
      </g>
     </g>
     <g id="text_3">
      <!-- −20 -->
      <g transform="translate(159.079656 322.182437) scale(0.1 -0.1)">
       <defs>
        <path id="DejaVuSans-32" d="M 1228 531 
L 3431 531 
L 3431 0 
L 469 0 
L 469 531 
Q 828 903 1448 1529 
Q 2069 2156 2228 2338 
Q 2531 2678 2651 2914 
Q 2772 3150 2772 3378 
Q 2772 3750 2511 3984 
Q 2250 4219 1831 4219 
Q 1534 4219 1204 4116 
Q 875 4013 500 3803 
L 500 4441 
Q 881 4594 1212 4672 
Q 1544 4750 1819 4750 
Q 2544 4750 2975 4387 
Q 3406 4025 3406 3419 
Q 3406 3131 3298 2873 
Q 3191 2616 2906 2266 
Q 2828 2175 2409 1742 
Q 1991 1309 1228 531 
z
" transform="scale(0.015625)"/>
       </defs>
       <use xlink:href="#DejaVuSans-2212"/>
       <use xlink:href="#DejaVuSans-32" x="83.789062"/>
       <use xlink:href="#DejaVuSans-30" x="147.412109"/>
      </g>
     </g>
    </g>
    <g id="xtick_4">
     <g id="line2d_4">
      <g>
       <use xlink:href="#m25bd274044" x="202.896" y="307.584" style="stroke: #000000; stroke-width: 0.8"/>
      </g>
     </g>
     <g id="text_4">
      <!-- −10 -->
      <g transform="translate(192.343656 322.182437) scale(0.1 -0.1)">
       <defs>
        <path id="DejaVuSans-31" d="M 794 531 
L 1825 531 
L 1825 4091 
L 703 3866 
L 703 4441 
L 1819 4666 
L 2450 4666 
L 2450 531 
L 3481 531 
L 3481 0 
L 794 0 
L 794 531 
z
" transform="scale(0.015625)"/>
       </defs>
       <use xlink:href="#DejaVuSans-2212"/>
       <use xlink:href="#DejaVuSans-31" x="83.789062"/>
       <use xlink:href="#DejaVuSans-30" x="147.412109"/>
      </g>
     </g>
    </g>
    <g id="xtick_5">
     <g id="line2d_5">
      <g>
       <use xlink:href="#m25bd274044" x="236.16" y="307.584" style="stroke: #000000; stroke-width: 0.8"/>
      </g>
     </g>
     <g id="text_5">
      <!-- 0 -->
      <g transform="translate(232.97875 322.182437) scale(0.1 -0.1)">
       <use xlink:href="#DejaVuSans-30"/>
      </g>
     </g>
    </g>
    <g id="xtick_6">
     <g id="line2d_6">
      <g>
       <use xlink:href="#m25bd274044" x="269.424" y="307.584" style="stroke: #000000; stroke-width: 0.8"/>
      </g>
     </g>
     <g id="text_6">
      <!-- 10 -->
      <g transform="translate(263.0615 322.182437) scale(0.1 -0.1)">
       <use xlink:href="#DejaVuSans-31"/>
       <use xlink:href="#DejaVuSans-30" x="63.623047"/>
      </g>
     </g>
    </g>
    <g id="xtick_7">
     <g id="line2d_7">
      <g>
       <use xlink:href="#m25bd274044" x="302.688" y="307.584" style="stroke: #000000; stroke-width: 0.8"/>
      </g>
     </g>
     <g id="text_7">
      <!-- 20 -->
      <g transform="translate(296.3255 322.182437) scale(0.1 -0.1)">
       <use xlink:href="#DejaVuSans-32"/>
       <use xlink:href="#DejaVuSans-30" x="63.623047"/>
      </g>
     </g>
    </g>
    <g id="xtick_8">
     <g id="line2d_8">
      <g>
       <use xlink:href="#m25bd274044" x="335.952" y="307.584" style="stroke: #000000; stroke-width: 0.8"/>
      </g>
     </g>
     <g id="text_8">
      <!-- 30 -->
      <g transform="translate(329.5895 322.182437) scale(0.1 -0.1)">
       <use xlink:href="#DejaVuSans-33"/>
       <use xlink:href="#DejaVuSans-30" x="63.623047"/>
      </g>
     </g>
    </g>
    <g id="xtick_9">
     <g id="line2d_9">
      <g>
       <use xlink:href="#m25bd274044" x="369.216" y="307.584" style="stroke: #000000; stroke-width: 0.8"/>
      </g>
     </g>
     <g id="text_9">
      <!-- 40 -->
      <g transform="translate(362.8535 322.182437) scale(0.1 -0.1)">
       <use xlink:href="#DejaVuSans-34"/>
       <use xlink:href="#DejaVuSans-30" x="63.623047"/>
      </g>
     </g>
    </g>
   </g>
   <g id="matplotlib.axis_2">
    <g id="ytick_1">
     <g id="line2d_10">
      <defs>
       <path id="m81ae619fb7" d="M 0 0 
L -3.5 0 
" style="stroke: #000000; stroke-width: 0.8"/>
      </defs>
      <g>
       <use xlink:href="#m81ae619fb7" x="103.104" y="307.584" style="stroke: #000000; stroke-width: 0.8"/>
      </g>
     </g>
     <g id="text_10">
      <!-- −40 -->
      <g transform="translate(74.999313 311.383219) scale(0.1 -0.1)">
       <use xlink:href="#DejaVuSans-2212"/>
       <use xlink:href="#DejaVuSans-34" x="83.789062"/>
       <use xlink:href="#DejaVuSans-30" x="147.412109"/>
      </g>
     </g>
    </g>
    <g id="ytick_2">
     <g id="line2d_11">
      <g>
       <use xlink:href="#m81ae619fb7" x="103.104" y="274.32" style="stroke: #000000; stroke-width: 0.8"/>
      </g>
     </g>
     <g id="text_11">
      <!-- −30 -->
      <g transform="translate(74.999313 278.119219) scale(0.1 -0.1)">
       <use xlink:href="#DejaVuSans-2212"/>
       <use xlink:href="#DejaVuSans-33" x="83.789062"/>
       <use xlink:href="#DejaVuSans-30" x="147.412109"/>
      </g>
     </g>
    </g>
    <g id="ytick_3">
     <g id="line2d_12">
      <g>
       <use xlink:href="#m81ae619fb7" x="103.104" y="241.056" style="stroke: #000000; stroke-width: 0.8"/>
      </g>
     </g>
     <g id="text_12">
      <!-- −20 -->
      <g transform="translate(74.999313 244.855219) scale(0.1 -0.1)">
       <use xlink:href="#DejaVuSans-2212"/>
       <use xlink:href="#DejaVuSans-32" x="83.789062"/>
       <use xlink:href="#DejaVuSans-30" x="147.412109"/>
      </g>
     </g>
    </g>
    <g id="ytick_4">
     <g id="line2d_13">
      <g>
       <use xlink:href="#m81ae619fb7" x="103.104" y="207.792" style="stroke: #000000; stroke-width: 0.8"/>
      </g>
     </g>
     <g id="text_13">
      <!-- −10 -->
      <g transform="translate(74.999313 211.591219) scale(0.1 -0.1)">
       <use xlink:href="#DejaVuSans-2212"/>
       <use xlink:href="#DejaVuSans-31" x="83.789062"/>
       <use xlink:href="#DejaVuSans-30" x="147.412109"/>
      </g>
     </g>
    </g>
    <g id="ytick_5">
     <g id="line2d_14">
      <g>
       <use xlink:href="#m81ae619fb7" x="103.104" y="174.528" style="stroke: #000000; stroke-width: 0.8"/>
      </g>
     </g>
     <g id="text_14">
      <!-- 0 -->
      <g transform="translate(89.7415 178.327219) scale(0.1 -0.1)">
       <use xlink:href="#DejaVuSans-30"/>
      </g>
     </g>
    </g>
    <g id="ytick_6">
     <g id="line2d_15">
      <g>
       <use xlink:href="#m81ae619fb7" x="103.104" y="141.264" style="stroke: #000000; stroke-width: 0.8"/>
      </g>
     </g>
     <g id="text_15">
      <!-- 10 -->
      <g transform="translate(83.379 145.063219) scale(0.1 -0.1)">
       <use xlink:href="#DejaVuSans-31"/>
       <use xlink:href="#DejaVuSans-30" x="63.623047"/>
      </g>
     </g>
    </g>
    <g id="ytick_7">
     <g id="line2d_16">
      <g>
       <use xlink:href="#m81ae619fb7" x="103.104" y="108" style="stroke: #000000; stroke-width: 0.8"/>
      </g>
     </g>
     <g id="text_16">
      <!-- 20 -->
      <g transform="translate(83.379 111.799219) scale(0.1 -0.1)">
       <use xlink:href="#DejaVuSans-32"/>
       <use xlink:href="#DejaVuSans-30" x="63.623047"/>
      </g>
     </g>
    </g>
    <g id="ytick_8">
     <g id="line2d_17">
      <g>
       <use xlink:href="#m81ae619fb7" x="103.104" y="74.736" style="stroke: #000000; stroke-width: 0.8"/>
      </g>
     </g>
     <g id="text_17">
      <!-- 30 -->
      <g transform="translate(83.379 78.535219) scale(0.1 -0.1)">
       <use xlink:href="#DejaVuSans-33"/>
       <use xlink:href="#DejaVuSans-30" x="63.623047"/>
      </g>
     </g>
    </g>
    <g id="ytick_9">
     <g id="line2d_18">
      <g>
       <use xlink:href="#m81ae619fb7" x="103.104" y="41.472" style="stroke: #000000; stroke-width: 0.8"/>
      </g>
     </g>
     <g id="text_18">
      <!-- 40 -->
      <g transform="translate(83.379 45.271219) scale(0.1 -0.1)">
       <use xlink:href="#DejaVuSans-34"/>
       <use xlink:href="#DejaVuSans-30" x="63.623047"/>
      </g>
     </g>
    </g>
   </g>
   <g id="line2d_19">
    <path d="M 251.1288 346.6 
L 251.1288 189.4968 
" clip-path="url(#pc11a274e31)" style="fill: none; stroke: #000000; stroke-width: 0.25; stroke-linecap: square"/>
   </g>
   <g id="line2d_20">
    <path d="M 251.1288 189.4968 
L 417.4488 189.4968 
" clip-path="url(#pc11a274e31)" style="fill: none; stroke: #000000; stroke-width: 0.25; stroke-linecap: square"/>
   </g>
   <g id="line2d_21">
    <path d="M 417.4488 159.5592 
L 251.1288 159.5592 
" clip-path="url(#pc11a274e31)" style="fill: none; stroke: #000000; stroke-width: 0.25; stroke-linecap: square"/>
   </g>
   <g id="line2d_22">
    <path d="M 251.1288 159.5592 
L 251.1288 -1 
" clip-path="url(#pc11a274e31)" style="fill: none; stroke: #000000; stroke-width: 0.25; stroke-linecap: square"/>
   </g>
   <g id="line2d_23">
    <path d="M 221.1912 -1 
L 221.1912 159.5592 
" clip-path="url(#pc11a274e31)" style="fill: none; stroke: #000000; stroke-width: 0.25; stroke-linecap: square"/>
   </g>
   <g id="line2d_24">
    <path d="M 221.1912 159.5592 
L 54.8712 159.5592 
" clip-path="url(#pc11a274e31)" style="fill: none; stroke: #000000; stroke-width: 0.25; stroke-linecap: square"/>
   </g>
   <g id="line2d_25">
    <path d="M 54.8712 189.4968 
L 221.1912 189.4968 
" clip-path="url(#pc11a274e31)" style="fill: none; stroke: #000000; stroke-width: 0.25; stroke-linecap: square"/>
   </g>
   <g id="line2d_26">
    <path d="M 221.1912 189.4968 
L 221.1912 346.6 
" clip-path="url(#pc11a274e31)" style="fill: none; stroke: #000000; stroke-width: 0.25; stroke-linecap: square"/>
   </g>
   <g id="line2d_27">
    <path d="M 251.1288 174.528 
L 417.4488 174.528 
" clip-path="url(#pc11a274e31)" style="fill: none; stroke-dasharray: 0.925,0.4; stroke-dashoffset: 0; stroke: #000000; stroke-width: 0.25"/>
   </g>
   <g id="line2d_28">
    <path d="M 236.16 159.5592 
L 236.16 -1 
" clip-path="url(#pc11a274e31)" style="fill: none; stroke-dasharray: 0.925,0.4; stroke-dashoffset: 0; stroke: #000000; stroke-width: 0.25"/>
   </g>
   <g id="line2d_29">
    <path d="M 221.1912 174.528 
L 54.8712 174.528 
" clip-path="url(#pc11a274e31)" style="fill: none; stroke-dasharray: 0.925,0.4; stroke-dashoffset: 0; stroke: #000000; stroke-width: 0.25"/>
   </g>
   <g id="line2d_30">
    <path d="M 236.16 189.4968 
L 236.16 346.6 
" clip-path="url(#pc11a274e31)" style="fill: none; stroke-dasharray: 0.925,0.4; stroke-dashoffset: 0; stroke: #000000; stroke-width: 0.25"/>
   </g>
   <g id="line2d_31">
    <path d="M 242.360258 71.965035 
L 242.360262 70.012497 
L 242.360265 68.05961 
L 242.360268 66.106383 
L 242.360271 64.152825 
L 242.360273 62.198949 
L 242.360275 60.244764 
L 242.360277 58.290285 
L 242.360278 56.335525 
L 242.360279 54.380497 
L 242.360279 52.425215 
L 242.36028 50.469693 
L 242.36028 48.513946 
L 242.36028 46.557988 
L 242.360281 44.601834 
L 242.360281 42.645497 
L 242.360281 40.688993 
L 242.360281 38.732335 
L 242.360281 36.775537 
L 242.36028 34.818612 
L 242.36028 32.861573 
L 242.36028 30.904434 
L 242.36028 28.947205 
L 242.36028 26.989899 
L 242.36028 25.032528 
L 242.36028 23.075101 
L 242.36028 21.117629 
L 242.36028 19.160122 
L 242.36028 17.202589 
L 242.36028 15.245038 
L 242.36028 13.287477 
" clip-path="url(#pc11a274e31)" style="fill: none; stroke: #ff0000; stroke-opacity: 0.2; stroke-width: 0.25; stroke-linecap: square"/>
   </g>
   <g id="line2d_32">
    <path d="M 242.360258 71.965035 
L 242.360262 70.012497 
L 242.360265 68.059613 
L 242.360268 66.106392 
L 242.360271 64.152843 
L 242.360273 62.198978 
L 242.360275 60.24481 
L 242.360277 58.29035 
L 242.360278 56.335612 
L 242.360279 54.38061 
L 242.360279 52.425359 
L 242.36028 50.469872 
L 242.36028 48.514164 
L 242.36028 46.558249 
L 242.360281 44.602143 
L 242.360281 42.645859 
L 242.360281 40.689412 
L 242.360281 38.732817 
L 242.36028 36.776086 
L 242.36028 34.819233 
L 242.36028 32.862272 
L 242.36028 30.905215 
L 242.36028 28.948074 
L 242.36028 26.990862 
L 242.36028 25.033588 
L 242.36028 23.076265 
L 242.36028 21.118902 
L 242.36028 19.161508 
L 242.36028 17.204094 
L 242.36028 15.246665 
L 242.36028 13.289232 
" clip-path="url(#pc11a274e31)" style="fill: none; stroke: #ff0000; stroke-opacity: 0.4; stroke-width: 0.25; stroke-linecap: square"/>
   </g>
   <g id="line2d_33">
    <path d="M 242.360258 71.965035 
L 242.360262 70.012497 
L 242.360265 68.059611 
L 242.360268 66.106386 
L 242.360271 64.152831 
L 242.360273 62.198959 
L 242.360275 60.24478 
L 242.360277 58.290308 
L 242.360278 56.335557 
L 242.360279 54.380538 
L 242.360279 52.425268 
L 242.36028 50.46976 
L 242.36028 48.514029 
L 242.36028 46.558088 
L 242.360281 44.601954 
L 242.360281 42.645639 
L 242.360281 40.689159 
L 242.360281 38.732527 
L 242.360281 36.775758 
L 242.36028 34.818864 
L 242.36028 32.86186 
L 242.36028 30.904756 
L 242.36028 28.947567 
L 242.36028 26.990303 
L 242.36028 25.032976 
L 242.36028 23.075596 
L 242.36028 21.118174 
L 242.36028 19.16072 
L 242.36028 17.203242 
L 242.36028 15.245748 
L 242.36028 13.288247 
" clip-path="url(#pc11a274e31)" style="fill: none; stroke: #ff0000; stroke-opacity: 0.6; stroke-width: 0.25; stroke-linecap: square"/>
   </g>
   <g id="line2d_34">
    <path d="M 242.360258 71.965035 
L 242.360262 70.012497 
L 242.360265 68.059613 
L 242.360268 66.10639 
L 242.360271 64.152839 
L 242.360273 62.198971 
L 242.360275 60.244798 
L 242.360277 58.290334 
L 242.360278 56.335591 
L 242.360279 54.380582 
L 242.360279 52.425323 
L 242.36028 50.469828 
L 242.36028 48.51411 
L 242.36028 46.558185 
L 242.360281 44.602067 
L 242.360281 42.64577 
L 242.360281 40.68931 
L 242.360281 38.732699 
L 242.36028 36.775951 
L 242.36028 34.819081 
L 242.36028 32.862101 
L 242.36028 30.905023 
L 242.36028 28.947861 
L 242.36028 26.990625 
L 242.36028 25.033328 
L 242.36028 23.075979 
L 242.36028 21.118589 
L 242.36028 19.161168 
L 242.36028 17.203724 
L 242.36028 15.246266 
L 242.36028 13.2888 
" clip-path="url(#pc11a274e31)" style="fill: none; stroke: #ff0000; stroke-opacity: 0.8; stroke-width: 0.25; stroke-linecap: square"/>
   </g>
   <g id="line2d_35">
    <path d="M 242.360258 71.965035 
L 242.360262 70.012497 
L 242.360265 68.059612 
L 242.360268 66.106387 
L 242.360271 64.152834 
L 242.360273 62.198964 
L 242.360275 60.244787 
L 242.360277 58.290319 
L 242.360278 56.33557 
L 242.360279 54.380556 
L 242.360279 52.42529 
L 242.36028 50.469787 
L 242.36028 48.514062 
L 242.36028 46.558128 
L 242.360281 44.602 
L 242.360281 42.645693 
L 242.360281 40.689221 
L 242.360281 38.732598 
L 242.36028 36.775839 
L 242.36028 34.818955 
L 242.36028 32.861961 
L 242.36028 30.904869 
L 242.36028 28.947691 
L 242.36028 26.99044 
L 242.36028 25.033126 
L 242.36028 23.07576 
L 242.36028 21.118353 
L 242.36028 19.160914 
L 242.36028 17.203451 
L 242.36028 15.245974 
L 242.36028 13.288489 
" clip-path="url(#pc11a274e31)" style="fill: none; stroke: #ff0000; stroke-width: 0.25; stroke-linecap: square"/>
   </g>
   <g id="line2d_36">
    <path d="M 133.600132 168.327716 
L 131.643905 168.32772 
L 129.687709 168.327723 
L 127.731532 168.327725 
L 125.775364 168.327725 
L 123.819195 168.327726 
L 121.863018 168.327725 
L 119.906826 168.327725 
L 117.950614 168.327725 
L 115.994375 168.327724 
L 114.038108 168.327723 
L 112.081807 168.327723 
L 110.125473 168.327722 
L 108.169101 168.327722 
L 106.212693 168.327721 
L 104.256248 168.327721 
L 102.299766 168.327721 
L 100.343247 168.32772 
L 98.386694 168.32772 
L 96.430107 168.32772 
L 94.47349 168.32772 
L 92.516843 168.32772 
L 90.56017 168.32772 
L 88.603473 168.32772 
L 86.646755 168.32772 
L 84.690019 168.32772 
L 82.733268 168.32772 
L 80.776506 168.32772 
L 78.819734 168.32772 
L 76.862956 168.32772 
L 74.906174 168.32772 
" clip-path="url(#pc11a274e31)" style="fill: none; stroke: #ff0000; stroke-opacity: 0.2; stroke-width: 0.25; stroke-linecap: square"/>
   </g>
   <g id="line2d_37">
    <path d="M 133.600132 168.327716 
L 131.643905 168.32772 
L 129.687711 168.327723 
L 127.731539 168.327724 
L 125.775377 168.327725 
L 123.819218 168.327726 
L 121.863052 168.327725 
L 119.906874 168.327725 
L 117.950678 168.327724 
L 115.994458 168.327724 
L 114.038212 168.327723 
L 112.081935 168.327723 
L 110.125627 168.327722 
L 108.169285 168.327722 
L 106.212909 168.327721 
L 104.256498 168.327721 
L 102.300052 168.327721 
L 100.343574 168.32772 
L 98.387063 168.32772 
L 96.430521 168.32772 
L 94.473951 168.32772 
L 92.517355 168.32772 
L 90.560734 168.32772 
L 88.604092 168.32772 
L 86.647432 168.32772 
L 84.690756 168.32772 
L 82.734068 168.32772 
L 80.777369 168.32772 
L 78.820663 168.32772 
L 76.863953 168.32772 
L 74.907241 168.32772 
" clip-path="url(#pc11a274e31)" style="fill: none; stroke: #ff0000; stroke-opacity: 0.4; stroke-width: 0.25; stroke-linecap: square"/>
   </g>
   <g id="line2d_38">
    <path d="M 133.600132 168.327716 
L 131.643905 168.32772 
L 129.68771 168.327723 
L 127.731535 168.327724 
L 125.775369 168.327725 
L 123.819204 168.327725 
L 121.863032 168.327725 
L 119.906845 168.327725 
L 117.950639 168.327724 
L 115.994408 168.327724 
L 114.038149 168.327723 
L 112.081859 168.327723 
L 110.125535 168.327722 
L 108.169176 168.327722 
L 106.212781 168.327721 
L 104.25635 168.327721 
L 102.299884 168.327721 
L 100.343382 168.32772 
L 98.386847 168.32772 
L 96.43028 168.32772 
L 94.473683 168.32772 
L 92.517058 168.32772 
L 90.560409 168.32772 
L 88.603736 168.32772 
L 86.647044 168.32772 
L 84.690335 168.32772 
L 82.733613 168.32772 
L 80.776879 168.32772 
L 78.820137 168.32772 
L 76.86339 168.32772 
L 74.906641 168.32772 
" clip-path="url(#pc11a274e31)" style="fill: none; stroke: #ff0000; stroke-opacity: 0.6; stroke-width: 0.25; stroke-linecap: square"/>
   </g>
   <g id="line2d_39">
    <path d="M 133.600132 168.327716 
L 131.643905 168.32772 
L 129.687711 168.327723 
L 127.731537 168.327724 
L 125.775374 168.327725 
L 123.819212 168.327725 
L 121.863044 168.327725 
L 119.906862 168.327725 
L 117.950662 168.327724 
L 115.994438 168.327724 
L 114.038186 168.327723 
L 112.081904 168.327723 
L 110.125589 168.327722 
L 108.16924 168.327722 
L 106.212856 168.327721 
L 104.256436 168.327721 
L 102.299982 168.327721 
L 100.343494 168.32772 
L 98.386972 168.32772 
L 96.43042 168.32772 
L 94.473838 168.32772 
L 92.517229 168.32772 
L 90.560596 168.32772 
L 88.60394 168.32772 
L 86.647266 168.32772 
L 84.690575 168.32772 
L 82.733871 168.32772 
L 80.777157 168.32772 
L 78.820435 168.32772 
L 76.863708 168.32772 
L 74.906979 168.32772 
" clip-path="url(#pc11a274e31)" style="fill: none; stroke: #ff0000; stroke-opacity: 0.8; stroke-width: 0.25; stroke-linecap: square"/>
   </g>
   <g id="line2d_40">
    <path d="M 133.600132 168.327716 
L 131.643905 168.32772 
L 129.68771 168.327722 
L 127.731536 168.327724 
L 125.775371 168.327725 
L 123.819207 168.327725 
L 121.863037 168.327725 
L 119.906852 168.327725 
L 117.950648 168.327724 
L 115.99442 168.327724 
L 114.038165 168.327723 
L 112.081878 168.327723 
L 110.125557 168.327722 
L 108.169203 168.327722 
L 106.212812 168.327721 
L 104.256386 168.327721 
L 102.299925 168.327721 
L 100.343429 168.32772 
L 98.3869 168.32772 
L 96.430339 168.32772 
L 94.473749 168.32772 
L 92.517131 168.32772 
L 90.560489 168.32772 
L 88.603824 168.32772 
L 86.647139 168.32772 
L 84.690439 168.32772 
L 82.733724 168.32772 
L 80.776999 168.32772 
L 78.820267 168.32772 
L 76.863529 168.32772 
L 74.906788 168.32772 
" clip-path="url(#pc11a274e31)" style="fill: none; stroke: #ff0000; stroke-width: 0.25; stroke-linecap: square"/>
   </g>
   <g id="line2d_41">
    <path d="M 336.511587 180.728266 
L 338.489552 180.72827 
L 340.467941 180.728274 
L 342.446742 180.728277 
L 344.425941 180.728279 
L 346.405524 180.72828 
L 348.385476 180.728281 
L 350.365781 180.728282 
L 352.346423 180.728282 
L 354.327385 180.728282 
L 356.308649 180.728282 
L 358.290198 180.728282 
L 360.272015 180.728282 
L 362.254082 180.728281 
L 364.236381 180.728281 
L 366.218896 180.728281 
L 368.201609 180.728281 
L 370.184503 180.728281 
L 372.167562 180.72828 
L 374.150771 180.72828 
L 376.134113 180.72828 
L 378.117574 180.72828 
L 380.101139 180.72828 
L 382.084795 180.72828 
L 384.068527 180.72828 
L 386.052325 180.72828 
L 388.036174 180.72828 
L 390.020065 180.72828 
L 392.003987 180.72828 
L 393.987929 180.72828 
L 395.971884 180.72828 
" clip-path="url(#pc11a274e31)" style="fill: none; stroke: #ff0000; stroke-opacity: 0.2; stroke-width: 0.25; stroke-linecap: square"/>
   </g>
   <g id="line2d_42">
    <path d="M 336.511587 180.728266 
L 338.489552 180.72827 
L 340.467938 180.728274 
L 342.446732 180.728277 
L 344.425921 180.728279 
L 346.405491 180.72828 
L 348.385425 180.728281 
L 350.365709 180.728282 
L 352.346325 180.728282 
L 354.327257 180.728282 
L 356.308486 180.728282 
L 358.289996 180.728282 
L 360.271769 180.728282 
L 362.253786 180.728281 
L 364.236031 180.728281 
L 366.218486 180.728281 
L 368.201133 180.728281 
L 370.183957 180.728281 
L 372.16694 180.72828 
L 374.150066 180.72828 
L 376.13332 180.72828 
L 378.116686 180.72828 
L 380.100151 180.72828 
L 382.0837 180.72828 
L 384.06732 180.72828 
L 386.050999 180.72828 
L 388.034725 180.72828 
L 390.018485 180.72828 
L 392.002271 180.72828 
L 393.986073 180.72828 
L 395.969881 180.72828 
" clip-path="url(#pc11a274e31)" style="fill: none; stroke: #ff0000; stroke-opacity: 0.4; stroke-width: 0.25; stroke-linecap: square"/>
   </g>
   <g id="line2d_43">
    <path d="M 336.511587 180.728266 
L 338.489552 180.72827 
L 340.46794 180.728274 
L 342.446739 180.728277 
L 344.425934 180.728279 
L 346.405513 180.72828 
L 348.385458 180.728281 
L 350.365756 180.728282 
L 352.346388 180.728282 
L 354.327338 180.728282 
L 356.308589 180.728282 
L 358.290123 180.728282 
L 360.271922 180.728282 
L 362.253969 180.728281 
L 364.236246 180.728281 
L 366.218736 180.728281 
L 368.201421 180.728281 
L 370.184285 180.728281 
L 372.167312 180.72828 
L 374.150485 180.72828 
L 376.133788 180.72828 
L 378.117208 180.72828 
L 380.100728 180.72828 
L 382.084336 180.72828 
L 384.068018 180.72828 
L 386.051761 180.72828 
L 388.035554 180.72828 
L 390.019384 180.72828 
L 392.003243 180.72828 
L 393.987119 180.72828 
L 395.971005 180.72828 
" clip-path="url(#pc11a274e31)" style="fill: none; stroke: #ff0000; stroke-opacity: 0.6; stroke-width: 0.25; stroke-linecap: square"/>
   </g>
   <g id="line2d_44">
    <path d="M 336.511587 180.728266 
L 338.489552 180.72827 
L 340.467939 180.728274 
L 342.446735 180.728277 
L 344.425926 180.728279 
L 346.405499 180.72828 
L 348.385438 180.728281 
L 350.365727 180.728282 
L 352.346349 180.728282 
L 354.327288 180.728282 
L 356.308526 180.728282 
L 358.290046 180.728282 
L 360.271829 180.728282 
L 362.253859 180.728281 
L 364.236117 180.728281 
L 366.218586 180.728281 
L 368.20125 180.728281 
L 370.184091 180.728281 
L 372.167092 180.72828 
L 374.150239 180.72828 
L 376.133514 180.72828 
L 378.116904 180.72828 
L 380.100393 180.72828 
L 382.083969 180.72828 
L 384.067617 180.72828 
L 386.051325 180.72828 
L 388.035081 180.72828 
L 390.018874 180.72828 
L 392.002693 180.72828 
L 393.986529 180.72828 
L 395.970373 180.72828 
" clip-path="url(#pc11a274e31)" style="fill: none; stroke: #ff0000; stroke-opacity: 0.8; stroke-width: 0.25; stroke-linecap: square"/>
   </g>
   <g id="line2d_45">
    <path d="M 336.511587 180.728266 
L 338.489552 180.72827 
L 340.46794 180.728274 
L 342.446737 180.728277 
L 344.425931 180.728279 
L 346.405507 180.72828 
L 348.38545 180.728281 
L 350.365744 180.728282 
L 352.346373 180.728282 
L 354.327318 180.728282 
L 356.308564 180.728282 
L 358.290092 180.728282 
L 360.271884 180.728282 
L 362.253924 180.728281 
L 364.236193 180.728281 
L 366.218674 180.728281 
L 368.20135 180.728281 
L 370.184205 180.728281 
L 372.167221 180.72828 
L 374.150382 180.72828 
L 376.133673 180.72828 
L 378.11708 180.72828 
L 380.100586 180.72828 
L 382.08418 180.72828 
L 384.067847 180.72828 
L 386.051574 180.72828 
L 388.03535 180.72828 
L 390.019164 180.72828 
L 392.003004 180.72828 
L 393.986862 180.72828 
L 395.970728 180.72828 
" clip-path="url(#pc11a274e31)" style="fill: none; stroke: #ff0000; stroke-width: 0.25; stroke-linecap: square"/>
   </g>
   <g id="line2d_46">
    <path d="M 229.959749 280.887591 
L 229.959748 282.720528 
L 229.959747 284.553562 
L 229.959744 286.386668 
L 229.959741 288.219824 
L 229.959738 290.05301 
L 229.959735 291.886207 
L 229.959732 293.7194 
L 229.95973 295.552576 
L 229.959727 297.385724 
L 229.959726 299.218834 
L 229.959724 301.051899 
L 229.959723 302.884912 
L 229.959722 304.717869 
L 229.959721 306.550766 
L 229.95972 308.383603 
L 229.95972 310.216377 
L 229.95972 312.049091 
L 229.95972 313.881744 
L 229.959719 315.714339 
L 229.959719 317.546879 
L 229.959719 319.379368 
L 229.959719 321.21181 
L 229.95972 323.044209 
L 229.95972 324.87657 
L 229.95972 326.708899 
L 229.95972 328.541201 
L 229.95972 330.37348 
L 229.95972 332.205743 
L 229.95972 334.037995 
L 229.95972 335.870241 
" clip-path="url(#pc11a274e31)" style="fill: none; stroke: #ff0000; stroke-opacity: 0.2; stroke-width: 0.25; stroke-linecap: square"/>
   </g>
   <g id="line2d_47">
    <path d="M 229.959749 280.887591 
L 229.959748 282.720528 
L 229.959746 284.553566 
L 229.959744 286.386682 
L 229.959741 288.219851 
L 229.959738 290.053054 
L 229.959735 291.886274 
L 229.959732 293.719494 
L 229.959729 295.552703 
L 229.959727 297.385888 
L 229.959725 299.21904 
L 229.959724 301.052151 
L 229.959723 302.885216 
L 229.959722 304.71823 
L 229.959721 306.55119 
L 229.95972 308.384094 
L 229.95972 310.216941 
L 229.95972 312.049731 
L 229.95972 313.882467 
L 229.95972 315.71515 
L 229.959719 317.547783 
L 229.959719 319.38037 
L 229.95972 321.212915 
L 229.95972 323.045421 
L 229.95972 324.877894 
L 229.95972 326.710339 
L 229.95972 328.542761 
L 229.95972 330.375165 
L 229.95972 332.207556 
L 229.95972 334.039939 
L 229.95972 335.872318 
" clip-path="url(#pc11a274e31)" style="fill: none; stroke: #ff0000; stroke-opacity: 0.4; stroke-width: 0.25; stroke-linecap: square"/>
   </g>
   <g id="line2d_48">
    <path d="M 229.959749 280.887591 
L 229.959748 282.720528 
L 229.959746 284.553564 
L 229.959743 286.386674 
L 229.95974 288.219835 
L 229.959737 290.053027 
L 229.959735 291.886233 
L 229.959732 293.719437 
L 229.959729 295.552627 
L 229.959727 297.38579 
L 229.959725 299.218917 
L 229.959724 301.052001 
L 229.959723 302.885035 
L 229.959722 304.718016 
L 229.959721 306.550939 
L 229.95972 308.383804 
L 229.95972 310.21661 
L 229.95972 312.049356 
L 229.95972 313.882045 
L 229.95972 315.714678 
L 229.959719 317.547259 
L 229.959719 319.379791 
L 229.959719 321.212278 
L 229.95972 323.044725 
L 229.95972 324.877136 
L 229.95972 326.709517 
L 229.95972 328.541873 
L 229.95972 330.374209 
L 229.95972 332.20653 
L 229.95972 334.038842 
L 229.95972 335.871149 
" clip-path="url(#pc11a274e31)" style="fill: none; stroke: #ff0000; stroke-opacity: 0.6; stroke-width: 0.25; stroke-linecap: square"/>
   </g>
   <g id="line2d_49">
    <path d="M 229.959749 280.887591 
L 229.959747 282.720528 
L 229.959746 284.553565 
L 229.959743 286.386678 
L 229.95974 288.219844 
L 229.959737 290.053043 
L 229.959734 291.886257 
L 229.959732 293.719471 
L 229.959729 295.552672 
L 229.959727 297.385848 
L 229.959725 299.21899 
L 229.959724 301.052089 
L 229.959723 302.885142 
L 229.959722 304.718142 
L 229.959721 306.551086 
L 229.959721 308.383973 
L 229.95972 310.216802 
L 229.95972 312.049574 
L 229.95972 313.88229 
L 229.95972 315.714951 
L 229.959719 317.547561 
L 229.959719 319.380124 
L 229.95972 321.212643 
L 229.95972 323.045123 
L 229.95972 324.877569 
L 229.95972 326.709985 
L 229.95972 328.542378 
L 229.95972 330.374751 
L 229.95972 332.207111 
L 229.95972 334.039461 
L 229.95972 335.871807 
" clip-path="url(#pc11a274e31)" style="fill: none; stroke: #ff0000; stroke-opacity: 0.8; stroke-width: 0.25; stroke-linecap: square"/>
   </g>
   <g id="line2d_50">
    <path d="M 229.959749 280.887591 
L 229.959747 282.720528 
L 229.959745 284.553564 
L 229.959743 286.386676 
L 229.95974 288.219839 
L 229.959737 290.053034 
L 229.959734 291.886243 
L 229.959732 293.719451 
L 229.959729 295.552645 
L 229.959727 297.385814 
L 229.959725 299.218947 
L 229.959724 301.052038 
L 229.959723 302.88508 
L 229.959722 304.718068 
L 229.959721 306.551001 
L 229.959721 308.383875 
L 229.95972 310.216691 
L 229.95972 312.049448 
L 229.95972 313.882148 
L 229.95972 315.714794 
L 229.959719 317.547388 
L 229.959719 319.379933 
L 229.959719 321.212434 
L 229.95972 323.044896 
L 229.95972 324.877322 
L 229.95972 326.709719 
L 229.95972 328.542091 
L 229.95972 330.374444 
L 229.95972 332.206782 
L 229.95972 334.039111 
L 229.95972 335.871436 
" clip-path="url(#pc11a274e31)" style="fill: none; stroke: #ff0000; stroke-width: 0.25; stroke-linecap: square"/>
   </g>
   <g id="line2d_51">
    <path d="M 242.361869 105.04908 
L 242.361315 103.09964 
L 242.360882 101.150629 
L 242.360559 99.201964 
L 242.360329 97.253572 
L 242.360172 95.305387 
L 242.360074 93.357348 
L 242.360021 91.409403 
L 242.359999 89.461506 
L 242.360001 87.513617 
L 242.360018 85.5657 
L 242.360043 83.617727 
L 242.360074 81.669674 
L 242.360106 79.721522 
L 242.360136 77.773255 
L 242.360165 75.824862 
L 242.36019 73.876337 
L 242.360212 71.927676 
L 242.36023 69.978877 
L 242.360245 68.029943 
L 242.360257 66.080879 
L 242.360266 64.131691 
L 242.360273 62.182387 
L 242.360278 60.232978 
L 242.360281 58.283475 
L 242.360283 56.333891 
L 242.360284 54.384237 
L 242.360284 52.434528 
L 242.360284 50.484777 
L 242.360284 48.534997 
L 242.360283 46.5852 
" clip-path="url(#pc11a274e31)" style="fill: none; stroke: #ff0000; stroke-opacity: 0.2; stroke-width: 0.25; stroke-linecap: square"/>
   </g>
   <g id="line2d_52">
    <path d="M 242.361869 105.04908 
L 242.361324 103.09964 
L 242.360891 101.150641 
L 242.360567 99.202002 
L 242.360336 97.253649 
L 242.360179 95.305515 
L 242.360079 93.357541 
L 242.360024 91.409675 
L 242.360002 89.46187 
L 242.360002 87.514086 
L 242.360018 85.566289 
L 242.360043 83.61845 
L 242.360073 81.670545 
L 242.360104 79.722555 
L 242.360134 77.774465 
L 242.360162 75.826263 
L 242.360188 73.877943 
L 242.360209 71.929501 
L 242.360228 69.980937 
L 242.360243 68.032251 
L 242.360255 66.083448 
L 242.360264 64.134536 
L 242.360271 62.185521 
L 242.360276 60.236413 
L 242.36028 58.287224 
L 242.360282 56.337964 
L 242.360283 54.388647 
L 242.360284 52.439285 
L 242.360284 50.48989 
L 242.360284 48.540474 
L 242.360284 46.591049 
" clip-path="url(#pc11a274e31)" style="fill: none; stroke: #ff0000; stroke-opacity: 0.4; stroke-width: 0.25; stroke-linecap: square"/>
   </g>
   <g id="line2d_53">
    <path d="M 242.361869 105.04908 
L 242.361332 103.09964 
L 242.360898 101.150634 
L 242.360574 99.201979 
L 242.360342 97.253602 
L 242.360183 95.305437 
L 242.360083 93.357425 
L 242.360027 91.409511 
L 242.360004 89.461652 
L 242.360004 87.513805 
L 242.360019 85.565938 
L 242.360043 83.61802 
L 242.360073 81.670029 
L 242.360104 79.721944 
L 242.360134 77.773751 
L 242.360162 75.82544 
L 242.360188 73.877002 
L 242.36021 71.928435 
L 242.360228 69.979737 
L 242.360243 68.030911 
L 242.360256 66.081961 
L 242.360265 64.132893 
L 242.360272 62.183717 
L 242.360277 60.234442 
L 242.36028 58.285079 
L 242.360282 56.33564 
L 242.360284 54.386138 
L 242.360284 52.436586 
L 242.360284 50.486997 
L 242.360284 48.537383 
L 242.360284 46.587757 
" clip-path="url(#pc11a274e31)" style="fill: none; stroke: #ff0000; stroke-opacity: 0.6; stroke-width: 0.25; stroke-linecap: square"/>
   </g>
   <g id="line2d_54">
    <path d="M 242.361869 105.04908 
L 242.361338 103.09964 
L 242.360904 101.150638 
L 242.360579 99.201993 
L 242.360346 97.25363 
L 242.360187 95.305483 
L 242.360085 93.357494 
L 242.360029 91.409608 
L 242.360005 89.46178 
L 242.360004 87.513971 
L 242.360019 85.566145 
L 242.360043 83.618273 
L 242.360072 81.670332 
L 242.360103 79.722301 
L 242.360133 77.774168 
L 242.360162 75.825919 
L 242.360187 73.877549 
L 242.360209 71.929053 
L 242.360228 69.980431 
L 242.360243 68.031684 
L 242.360255 66.082818 
L 242.360264 64.133837 
L 242.360271 62.184751 
L 242.360276 60.23557 
L 242.36028 58.286303 
L 242.360282 56.336964 
L 242.360283 54.387564 
L 242.360284 52.438116 
L 242.360284 50.488633 
L 242.360284 48.539128 
L 242.360284 46.589612 
" clip-path="url(#pc11a274e31)" style="fill: none; stroke: #ff0000; stroke-opacity: 0.8; stroke-width: 0.25; stroke-linecap: square"/>
   </g>
   <g id="line2d_55">
    <path d="M 242.361869 105.04908 
L 242.361344 103.09964 
L 242.360909 101.150636 
L 242.360583 99.201985 
L 242.360349 97.253614 
L 242.360189 95.305456 
L 242.360087 93.357453 
L 242.36003 91.409551 
L 242.360006 89.461705 
L 242.360004 87.513874 
L 242.360019 85.566024 
L 242.360043 83.618126 
L 242.360072 81.670156 
L 242.360103 79.722094 
L 242.360133 77.773926 
L 242.360162 75.825642 
L 242.360187 73.877233 
L 242.360209 71.928697 
L 242.360228 69.980031 
L 242.360243 68.03124 
L 242.360255 66.082326 
L 242.360265 64.133297 
L 242.360272 62.18416 
L 242.360277 60.234926 
L 242.36028 58.285606 
L 242.360282 56.336211 
L 242.360283 54.386755 
L 242.360284 52.437249 
L 242.360284 50.487708 
L 242.360284 48.538143 
L 242.360284 46.588566 
" clip-path="url(#pc11a274e31)" style="fill: none; stroke: #ff0000; stroke-width: 0.25; stroke-linecap: square"/>
   </g>
   <g id="line2d_56">
    <path d="M 229.960132 243.383723 
L 229.960004 245.352219 
L 229.959902 247.320762 
L 229.959824 249.289421 
L 229.959766 251.258255 
L 229.959725 253.227315 
L 229.959698 255.196643 
L 229.959681 257.166273 
L 229.959672 259.136235 
L 229.959669 261.106548 
L 229.959669 263.077229 
L 229.959673 265.048286 
L 229.959678 267.019724 
L 229.959683 268.991542 
L 229.959689 270.963737 
L 229.959695 272.936299 
L 229.9597 274.909217 
L 229.959704 276.882475 
L 229.959708 278.856055 
L 229.959711 280.829939 
L 229.959714 282.804103 
L 229.959716 284.778525 
L 229.959718 286.753179 
L 229.959719 288.72804 
L 229.95972 290.703082 
L 229.95972 292.678278 
L 229.95972 294.653602 
L 229.959721 296.629027 
L 229.959721 298.60453 
L 229.959721 300.580085 
L 229.959721 302.55567 
" clip-path="url(#pc11a274e31)" style="fill: none; stroke: #ff0000; stroke-opacity: 0.2; stroke-width: 0.25; stroke-linecap: square"/>
   </g>
   <g id="line2d_57">
    <path d="M 229.960132 243.383723 
L 229.960005 245.352219 
L 229.959903 247.320746 
L 229.959825 249.289372 
L 229.959767 251.258157 
L 229.959726 253.227149 
L 229.959699 255.196393 
L 229.959682 257.165921 
L 229.959672 259.135761 
L 229.959669 261.105935 
L 229.959669 263.076456 
L 229.959673 265.047335 
L 229.959677 267.018576 
L 229.959683 268.990177 
L 229.959689 270.962134 
L 229.959694 272.934437 
L 229.959699 274.907076 
L 229.959704 276.880035 
L 229.959708 278.853295 
L 229.959711 280.826838 
L 229.959714 282.800641 
L 229.959716 284.774681 
L 229.959717 286.748934 
L 229.959719 288.723374 
L 229.959719 290.697976 
L 229.95972 292.672714 
L 229.95972 294.647562 
L 229.959721 296.622495 
L 229.959721 298.597489 
L 229.959721 300.572521 
L 229.959721 302.547569 
" clip-path="url(#pc11a274e31)" style="fill: none; stroke: #ff0000; stroke-opacity: 0.4; stroke-width: 0.25; stroke-linecap: square"/>
   </g>
   <g id="line2d_58">
    <path d="M 229.960132 243.383723 
L 229.960006 245.352219 
L 229.959904 247.320756 
L 229.959826 249.289403 
L 229.959768 251.258218 
L 229.959727 253.227252 
L 229.959699 255.196546 
L 229.959682 257.166136 
L 229.959673 259.13605 
L 229.959669 261.106307 
L 229.95967 263.076923 
L 229.959673 265.047908 
L 229.959677 267.019264 
L 229.959683 268.990993 
L 229.959689 270.963088 
L 229.959694 272.935541 
L 229.959699 274.908341 
L 229.959704 276.881471 
L 229.959708 278.854914 
L 229.959711 280.82865 
L 229.959714 282.802656 
L 229.959716 284.77691 
L 229.959718 286.751387 
L 229.959719 288.72606 
L 229.95972 290.700905 
L 229.95972 292.675895 
L 229.95972 294.651003 
L 229.959721 296.626204 
L 229.959721 298.601474 
L 229.959721 300.576788 
L 229.959721 302.552125 
" clip-path="url(#pc11a274e31)" style="fill: none; stroke: #ff0000; stroke-opacity: 0.6; stroke-width: 0.25; stroke-linecap: square"/>
   </g>
   <g id="line2d_59">
    <path d="M 229.960132 243.383723 
L 229.960007 245.352219 
L 229.959905 247.32075 
L 229.959827 249.289384 
L 229.959769 251.258181 
L 229.959728 253.22719 
L 229.9597 255.196454 
L 229.959682 257.166007 
L 229.959673 259.135877 
L 229.959669 261.106085 
L 229.95967 263.076646 
L 229.959673 265.047569 
L 229.959677 267.018857 
L 229.959683 268.990512 
L 229.959689 270.962527 
L 229.959694 272.934894 
L 229.959699 274.907601 
L 229.959704 276.880633 
L 229.959708 278.853973 
L 229.959711 280.827599 
L 229.959714 282.801491 
L 229.959716 284.775625 
L 229.959717 286.749976 
L 229.959719 288.72452 
L 229.959719 290.69923 
L 229.95972 292.67408 
L 229.95972 294.649045 
L 229.959721 296.6241 
L 229.959721 298.599219 
L 229.959721 300.57438 
L 229.959721 302.54956 
" clip-path="url(#pc11a274e31)" style="fill: none; stroke: #ff0000; stroke-opacity: 0.8; stroke-width: 0.25; stroke-linecap: square"/>
   </g>
   <g id="line2d_60">
    <path d="M 229.960132 243.383723 
L 229.960008 245.352219 
L 229.959906 247.320754 
L 229.959828 249.289395 
L 229.95977 251.258203 
L 229.959728 253.227226 
L 229.9597 255.196508 
L 229.959682 257.166083 
L 229.959673 259.135979 
L 229.959669 261.106216 
L 229.95967 263.076809 
L 229.959673 265.047767 
L 229.959677 267.019095 
L 229.959683 268.990793 
L 229.959689 270.962854 
L 229.959694 272.93527 
L 229.959699 274.90803 
L 229.959704 276.881118 
L 229.959708 278.854516 
L 229.959711 280.828205 
L 229.959714 282.802161 
L 229.959716 284.776363 
L 229.959717 286.750784 
L 229.959719 288.725401 
L 229.95972 290.700186 
L 229.95972 292.675113 
L 229.95972 294.650157 
L 229.959721 296.625293 
L 229.959721 298.600495 
L 229.959721 300.575739 
L 229.959721 302.551005 
" clip-path="url(#pc11a274e31)" style="fill: none; stroke: #ff0000; stroke-width: 0.25; stroke-linecap: square"/>
   </g>
   <g id="line2d_61">
    <path d="M 162.727373 168.324604 
L 160.903324 168.325169 
L 159.078245 168.32567 
L 157.252214 168.326112 
L 155.425302 168.326493 
L 153.597581 168.326812 
L 151.769117 168.327075 
L 149.939973 168.327286 
L 148.11021 168.327452 
L 146.279884 168.327578 
L 144.449049 168.327671 
L 142.617754 168.327737 
L 140.786048 168.327782 
L 138.953973 168.327809 
L 137.12157 168.327823 
L 135.288877 168.327828 
L 133.455928 168.327826 
L 131.622755 168.327819 
L 129.789386 168.32781 
L 127.95585 168.3278 
L 126.122168 168.327788 
L 124.288364 168.327778 
L 122.454456 168.327767 
L 120.620462 168.327758 
L 118.786398 168.32775 
L 116.952276 168.327743 
L 115.118109 168.327737 
L 113.283908 168.327732 
L 111.449682 168.327727 
L 109.615439 168.327723 
L 107.781187 168.327719 
" clip-path="url(#pc11a274e31)" style="fill: none; stroke: #ff0000; stroke-opacity: 0.2; stroke-width: 0.25; stroke-linecap: square"/>
   </g>
   <g id="line2d_62">
    <path d="M 162.727373 168.324604 
L 160.903324 168.32518 
L 159.078242 168.32568 
L 157.252205 168.326121 
L 155.425285 168.3265 
L 153.597553 168.326819 
L 151.769075 168.32708 
L 149.939916 168.32729 
L 148.110135 168.327454 
L 146.279789 168.327579 
L 144.448933 168.327671 
L 142.617617 168.327737 
L 140.785887 168.32778 
L 138.953788 168.327807 
L 137.12136 168.327821 
L 135.288642 168.327826 
L 133.455667 168.327824 
L 131.622469 168.327817 
L 129.789076 168.327808 
L 127.955515 168.327797 
L 126.12181 168.327787 
L 124.287984 168.327776 
L 122.454055 168.327766 
L 120.620043 168.327757 
L 118.785961 168.327749 
L 116.951825 168.327742 
L 115.117647 168.327735 
L 113.283438 168.32773 
L 111.449207 168.327725 
L 109.614963 168.32772 
L 107.780714 168.327716 
" clip-path="url(#pc11a274e31)" style="fill: none; stroke: #ff0000; stroke-opacity: 0.4; stroke-width: 0.25; stroke-linecap: square"/>
   </g>
   <g id="line2d_63">
    <path d="M 162.727373 168.324604 
L 160.903324 168.325188 
L 159.078244 168.325688 
L 157.252209 168.326128 
L 155.425294 168.326506 
L 153.597567 168.326823 
L 151.769096 168.327084 
L 149.939945 168.327293 
L 148.110173 168.327456 
L 146.279838 168.32758 
L 144.448993 168.327672 
L 142.617688 168.327737 
L 140.78597 168.327781 
L 138.953884 168.327807 
L 137.12147 168.327821 
L 135.288765 168.327826 
L 133.455804 168.327824 
L 131.622619 168.327818 
L 129.78924 168.327808 
L 127.955693 168.327798 
L 126.122001 168.327787 
L 124.288188 168.327777 
L 122.454271 168.327767 
L 120.62027 168.327758 
L 118.786199 168.32775 
L 116.952072 168.327743 
L 115.117902 168.327736 
L 113.2837 168.327731 
L 111.449474 168.327726 
L 109.615234 168.327722 
L 107.780986 168.327718 
" clip-path="url(#pc11a274e31)" style="fill: none; stroke: #ff0000; stroke-opacity: 0.6; stroke-width: 0.25; stroke-linecap: square"/>
   </g>
   <g id="line2d_64">
    <path d="M 162.727373 168.324604 
L 160.903324 168.325195 
L 159.078243 168.325694 
L 157.252207 168.326133 
L 155.425289 168.32651 
L 153.59756 168.326826 
L 151.769085 168.327086 
L 149.93993 168.327294 
L 148.110153 168.327457 
L 146.279813 168.327581 
L 144.448962 168.327672 
L 142.617651 168.327737 
L 140.785927 168.32778 
L 138.953833 168.327807 
L 137.121412 168.327821 
L 135.2887 168.327825 
L 133.455731 168.327823 
L 131.622539 168.327817 
L 129.789152 168.327808 
L 127.955597 168.327798 
L 126.121898 168.327787 
L 124.288077 168.327776 
L 122.454154 168.327766 
L 120.620146 168.327757 
L 118.786069 168.327749 
L 116.951936 168.327742 
L 115.117761 168.327736 
L 113.283553 168.32773 
L 111.449324 168.327725 
L 109.61508 168.327721 
L 107.78083 168.327716 
" clip-path="url(#pc11a274e31)" style="fill: none; stroke: #ff0000; stroke-opacity: 0.8; stroke-width: 0.25; stroke-linecap: square"/>
   </g>
   <g id="line2d_65">
    <path d="M 162.727373 168.324604 
L 160.903324 168.325201 
L 159.078243 168.325698 
L 157.252208 168.326137 
L 155.425291 168.326513 
L 153.597563 168.326829 
L 151.769091 168.327087 
L 149.939938 168.327295 
L 148.110164 168.327458 
L 146.279826 168.327581 
L 144.448978 168.327672 
L 142.61767 168.327737 
L 140.78595 168.32778 
L 138.95386 168.327807 
L 137.121443 168.327821 
L 135.288734 168.327825 
L 133.45577 168.327823 
L 131.622582 168.327817 
L 129.7892 168.327808 
L 127.955649 168.327798 
L 126.121954 168.327787 
L 124.288138 168.327776 
L 122.454218 168.327766 
L 120.620214 168.327757 
L 118.78614 168.327749 
L 116.952012 168.327742 
L 115.11784 168.327736 
L 113.283635 168.327731 
L 111.449408 168.327726 
L 109.615167 168.327722 
L 107.78092 168.327717 
" clip-path="url(#pc11a274e31)" style="fill: none; stroke: #ff0000; stroke-width: 0.25; stroke-linecap: square"/>
   </g>
   <g id="line2d_66">
    <path d="M 305.448208 180.728747 
L 307.405825 180.728864 
L 309.363175 180.728918 
L 311.320285 180.728918 
L 313.277182 180.728882 
L 315.233892 180.728824 
L 317.190437 180.728755 
L 319.146838 180.728681 
L 321.103115 180.72861 
L 323.059284 180.728544 
L 325.015363 180.728485 
L 326.971366 180.728434 
L 328.927305 180.728391 
L 330.883193 180.728357 
L 332.839039 180.728329 
L 334.794852 180.728308 
L 336.750641 180.728292 
L 338.706411 180.728281 
L 340.662169 180.728274 
L 342.617918 180.728269 
L 344.573664 180.728266 
L 346.529407 180.728266 
L 348.485152 180.728266 
L 350.440899 180.728267 
L 352.396649 180.728268 
L 354.352402 180.72827 
L 356.308159 180.728272 
L 358.263919 180.728273 
L 360.219682 180.728275 
L 362.175447 180.728277 
L 364.131213 180.728278 
" clip-path="url(#pc11a274e31)" style="fill: none; stroke: #ff0000; stroke-opacity: 0.2; stroke-width: 0.25; stroke-linecap: square"/>
   </g>
   <g id="line2d_67">
    <path d="M 305.448208 180.728747 
L 307.405825 180.728849 
L 309.363172 180.728904 
L 311.320276 180.728906 
L 313.277166 180.728871 
L 315.233864 180.728815 
L 317.190395 180.728747 
L 319.14678 180.728676 
L 321.103037 180.728606 
L 323.059185 180.728542 
L 325.015239 180.728484 
L 326.971214 180.728435 
L 328.927123 180.728393 
L 330.882978 180.728359 
L 332.838788 180.728332 
L 334.794564 180.728312 
L 336.750312 180.728296 
L 338.706039 180.728285 
L 340.661751 180.728277 
L 342.617453 180.728272 
L 344.573148 180.728269 
L 346.52884 180.728268 
L 348.48453 180.728268 
L 350.440221 180.728268 
L 352.395913 180.72827 
L 354.351607 180.728271 
L 356.307303 180.728273 
L 358.263002 180.728274 
L 360.218702 180.728276 
L 362.174403 180.728278 
L 364.130105 180.728279 
" clip-path="url(#pc11a274e31)" style="fill: none; stroke: #ff0000; stroke-opacity: 0.4; stroke-width: 0.25; stroke-linecap: square"/>
   </g>
   <g id="line2d_68">
    <path d="M 305.448208 180.728747 
L 307.405825 180.728836 
L 309.363173 180.728893 
L 311.320281 180.728895 
L 313.277176 180.728862 
L 315.233881 180.728807 
L 317.19042 180.728741 
L 319.146814 180.728672 
L 321.103082 180.728603 
L 323.059243 180.72854 
L 325.015311 180.728483 
L 326.971302 180.728434 
L 328.927229 180.728393 
L 330.883102 180.728359 
L 332.838933 180.728332 
L 334.79473 180.728312 
L 336.750501 180.728296 
L 338.706253 180.728285 
L 340.661991 180.728277 
L 342.61772 180.728271 
L 344.573444 180.728269 
L 346.529165 180.728267 
L 348.484885 180.728267 
L 350.440607 180.728267 
L 352.396332 180.728269 
L 354.352059 180.72827 
L 356.307789 180.728272 
L 358.263521 180.728274 
L 360.219256 180.728275 
L 362.174993 180.728277 
L 364.13073 180.728279 
" clip-path="url(#pc11a274e31)" style="fill: none; stroke: #ff0000; stroke-opacity: 0.6; stroke-width: 0.25; stroke-linecap: square"/>
   </g>
   <g id="line2d_69">
    <path d="M 305.448208 180.728747 
L 307.405825 180.728826 
L 309.363173 180.728883 
L 311.320279 180.728887 
L 313.27717 180.728856 
L 315.233871 180.728802 
L 317.190406 180.728738 
L 319.146794 180.728669 
L 321.103056 180.728602 
L 323.059209 180.728539 
L 325.015269 180.728483 
L 326.971251 180.728435 
L 328.927168 180.728394 
L 330.88303 180.72836 
L 332.83885 180.728333 
L 334.794634 180.728312 
L 336.750392 180.728297 
L 338.70613 180.728285 
L 340.661854 180.728277 
L 342.617567 180.728272 
L 344.573275 180.728269 
L 346.528979 180.728268 
L 348.484683 180.728268 
L 350.440388 180.728268 
L 352.396094 180.728269 
L 354.351803 180.728271 
L 356.307514 180.728272 
L 358.263227 180.728274 
L 360.218943 180.728276 
L 362.17466 180.728277 
L 364.130377 180.728279 
" clip-path="url(#pc11a274e31)" style="fill: none; stroke: #ff0000; stroke-opacity: 0.8; stroke-width: 0.25; stroke-linecap: square"/>
   </g>
   <g id="line2d_70">
    <path d="M 305.448208 180.728747 
L 307.405825 180.728817 
L 309.363173 180.728875 
L 311.32028 180.728881 
L 313.277173 180.72885 
L 315.233877 180.728798 
L 317.190414 180.728735 
L 319.146806 180.728667 
L 321.103071 180.728601 
L 323.059228 180.728539 
L 325.015293 180.728483 
L 326.97128 180.728435 
L 328.927203 180.728394 
L 330.883072 180.72836 
L 332.838897 180.728333 
L 334.794689 180.728313 
L 336.750455 180.728297 
L 338.706201 180.728285 
L 340.661932 180.728277 
L 342.617655 180.728272 
L 344.573371 180.728269 
L 346.529085 180.728268 
L 348.484798 180.728267 
L 350.440513 180.728268 
L 352.396229 180.728269 
L 354.351948 180.72827 
L 356.30767 180.728272 
L 358.263394 180.728274 
L 360.21912 180.728275 
L 362.174848 180.728277 
L 364.130576 180.728279 
" clip-path="url(#pc11a274e31)" style="fill: none; stroke: #ff0000; stroke-width: 0.25; stroke-linecap: square"/>
   </g>
   <g id="line2d_71">
    <path d="M 277.29622 180.563478 
L 279.060628 180.603823 
L 280.829115 180.637405 
L 282.601557 180.664611 
L 284.377818 180.686185 
L 286.157752 180.702902 
L 287.941212 180.715519 
L 289.728049 180.724743 
L 291.518108 180.731218 
L 293.311233 180.735511 
L 295.107265 180.738112 
L 296.906043 180.739434 
L 298.707405 180.73982 
L 300.511188 180.739548 
L 302.317228 180.738839 
L 304.125364 180.737863 
L 305.935434 180.736752 
L 307.747279 180.7356 
L 309.560742 180.734475 
L 311.375671 180.733421 
L 313.191915 180.732465 
L 315.009329 180.731622 
L 316.827773 180.730896 
L 318.647111 180.730282 
L 320.467213 180.729772 
L 322.287955 180.729356 
L 324.109218 180.729018 
L 325.930892 180.728745 
L 327.752872 180.72852 
L 329.575059 180.728328 
L 331.397365 180.728132 
" clip-path="url(#pc11a274e31)" style="fill: none; stroke: #ff0000; stroke-opacity: 0.2; stroke-width: 0.25; stroke-linecap: square"/>
   </g>
   <g id="line2d_72">
    <path d="M 277.29622 180.563478 
L 279.060633 180.603602 
L 280.829086 180.637189 
L 282.60146 180.664411 
L 284.377615 180.686009 
L 286.157405 180.702756 
L 287.940682 180.715403 
L 289.727293 180.72466 
L 291.517084 180.731167 
L 293.309895 180.735489 
L 295.105566 180.738117 
L 296.903934 180.739462 
L 298.704836 180.739867 
L 300.508108 180.73961 
L 302.313583 180.738911 
L 304.121099 180.737942 
L 305.930492 180.736833 
L 307.741603 180.735681 
L 309.554274 180.734553 
L 311.36835 180.733493 
L 313.183682 180.73253 
L 315.000123 180.731677 
L 316.817533 180.730937 
L 318.635776 180.730308 
L 320.454723 180.72978 
L 322.274249 180.72934 
L 324.094238 180.728973 
L 325.914579 180.728663 
L 327.735169 180.728392 
L 329.555912 180.728142 
L 331.37672 180.727906 
" clip-path="url(#pc11a274e31)" style="fill: none; stroke: #ff0000; stroke-opacity: 0.4; stroke-width: 0.25; stroke-linecap: square"/>
   </g>
   <g id="line2d_73">
    <path d="M 277.29622 180.563478 
L 279.060637 180.603425 
L 280.829112 180.637021 
L 282.601531 180.664261 
L 284.377754 180.68588 
L 286.157636 180.702649 
L 287.94103 180.715319 
L 289.727783 180.724596 
L 291.517741 180.731119 
L 293.310745 180.735455 
L 295.106637 180.738091 
L 296.905253 180.739442 
L 298.706431 180.73985 
L 300.510007 180.739592 
L 302.315816 180.738891 
L 304.123694 180.737919 
L 305.93348 180.736808 
L 307.745014 180.735653 
L 309.558137 180.734522 
L 311.372697 180.733462 
L 313.188543 180.7325 
L 315.005528 180.731651 
L 316.823512 180.730917 
L 318.642359 180.730296 
L 320.461939 180.729778 
L 322.282127 180.729352 
L 324.102806 180.729002 
L 325.923864 180.728713 
L 327.745197 180.728469 
L 329.566709 180.728252 
L 331.388309 180.728042 
" clip-path="url(#pc11a274e31)" style="fill: none; stroke: #ff0000; stroke-opacity: 0.6; stroke-width: 0.25; stroke-linecap: square"/>
   </g>
   <g id="line2d_74">
    <path d="M 277.29622 180.563478 
L 279.06064 180.603288 
L 280.829101 180.636897 
L 282.601491 180.664155 
L 284.377671 180.685795 
L 286.157496 180.702583 
L 287.940818 180.715272 
L 289.727484 180.724565 
L 291.51734 180.731102 
L 293.310228 180.735449 
L 295.105987 180.738094 
L 296.904456 180.73945 
L 298.70547 180.739862 
L 300.508866 180.739607 
L 302.31448 180.738908 
L 304.122148 180.737938 
L 305.931707 180.736827 
L 307.742998 180.735672 
L 309.555863 180.734542 
L 311.370148 180.733482 
L 313.185704 180.732518 
L 315.002384 180.731667 
L 316.820048 180.73093 
L 318.63856 180.730304 
L 320.457791 180.72978 
L 322.277616 180.729345 
L 324.097918 180.728985 
L 325.918587 180.728683 
L 327.739519 180.728423 
L 329.560618 180.728186 
L 331.381794 180.72796 
" clip-path="url(#pc11a274e31)" style="fill: none; stroke: #ff0000; stroke-opacity: 0.8; stroke-width: 0.25; stroke-linecap: square"/>
   </g>
   <g id="line2d_75">
    <path d="M 277.29622 180.563478 
L 279.060642 180.603178 
L 280.829112 180.636801 
L 282.601519 180.664074 
L 284.377725 180.68573 
L 286.157584 180.702535 
L 287.940948 180.715237 
L 289.727666 180.72454 
L 291.517583 180.731085 
L 293.31054 180.735438 
L 295.106377 180.738086 
L 296.904933 180.739445 
L 298.706043 180.739857 
L 300.509544 180.739602 
L 302.315271 180.738902 
L 304.12306 180.737931 
L 305.932749 180.736819 
L 307.744179 180.735664 
L 309.557191 180.734534 
L 311.371632 180.733473 
L 313.187351 180.732511 
L 315.004203 180.73166 
L 316.822046 180.730924 
L 318.640744 180.730301 
L 320.460168 180.729781 
L 322.280193 180.729351 
L 324.100702 180.728996 
L 325.921583 180.728702 
L 327.742734 180.728451 
L 329.564056 180.728226 
L 331.385461 180.728009 
" clip-path="url(#pc11a274e31)" style="fill: none; stroke: #ff0000; stroke-width: 0.25; stroke-linecap: square"/>
   </g>
   <g id="line2d_76">
    <path d="M 229.807689 208.28694 
L 229.89246 210.384481 
L 229.954021 212.47622 
L 229.995023 214.561982 
L 230.019865 216.641673 
L 230.032447 218.715331 
L 230.036111 220.783082 
L 230.033631 222.845113 
L 230.027235 224.901649 
L 230.018649 226.95294 
L 230.00916 228.999248 
L 229.99968 231.040845 
L 229.990813 233.078007 
L 229.982921 235.111013 
L 229.976184 237.140143 
L 229.970645 239.165676 
L 229.966254 241.187894 
L 229.962906 243.207071 
L 229.960463 245.223483 
L 229.958777 247.237399 
L 229.957701 249.249081 
L 229.957101 251.258787 
L 229.956857 253.266767 
L 229.956871 255.273261 
L 229.957061 257.278501 
L 229.957366 259.282707 
L 229.957737 261.28609 
L 229.958143 263.288848 
L 229.95856 265.291167 
L 229.958976 267.29322 
L 229.959418 269.295165 
" clip-path="url(#pc11a274e31)" style="fill: none; stroke: #ff0000; stroke-opacity: 0.2; stroke-width: 0.25; stroke-linecap: square"/>
   </g>
   <g id="line2d_77">
    <path d="M 229.807689 208.28694 
L 229.890308 210.384567 
L 229.951863 212.476391 
L 229.99299 214.562314 
L 230.018042 216.642242 
L 230.03088 218.716208 
L 230.034823 220.784333 
L 230.032624 222.846799 
L 230.026497 224.903827 
L 230.018161 226.95566 
L 230.008895 229.002558 
L 229.99961 231.044785 
L 229.990909 233.082613 
L 229.983154 235.116317 
L 229.976526 237.146172 
L 229.971069 239.172454 
L 229.966737 241.195438 
L 229.963429 243.215395 
L 229.96101 245.232596 
L 229.959334 247.247306 
L 229.958256 249.259784 
L 229.957644 251.270283 
L 229.957381 253.279049 
L 229.957369 255.286319 
L 229.957528 257.292322 
L 229.957797 259.297274 
L 229.958131 261.301384 
L 229.958496 263.304847 
L 229.958872 265.307848 
L 229.959248 267.310557 
L 229.959631 269.313132 
" clip-path="url(#pc11a274e31)" style="fill: none; stroke: #ff0000; stroke-opacity: 0.4; stroke-width: 0.25; stroke-linecap: square"/>
   </g>
   <g id="line2d_78">
    <path d="M 229.807689 208.28694 
L 229.8884 210.384641 
L 229.950005 212.476446 
L 229.991289 214.56233 
L 230.016562 216.642202 
L 230.029652 218.716097 
L 230.033852 220.784135 
L 230.0319 222.8465 
L 230.025996 224.903411 
L 230.017853 226.955113 
L 230.008747 229.001864 
L 229.999586 231.04393 
L 229.990976 233.081585 
L 229.983281 235.115101 
L 229.976685 237.144755 
L 229.971239 239.170823 
L 229.966898 241.19358 
L 229.963567 243.213299 
L 229.961117 245.230251 
L 229.959403 247.244699 
L 229.958286 249.256905 
L 229.957634 251.267121 
L 229.957333 253.275593 
L 229.957285 255.282559 
L 229.957413 257.288247 
L 229.957655 259.292876 
L 229.957965 261.296653 
L 229.958313 263.299774 
L 229.958677 265.302424 
L 229.959043 267.304773 
L 229.959412 269.306981 
" clip-path="url(#pc11a274e31)" style="fill: none; stroke: #ff0000; stroke-opacity: 0.6; stroke-width: 0.25; stroke-linecap: square"/>
   </g>
   <g id="line2d_79">
    <path d="M 229.807689 208.28694 
L 229.88669 210.384706 
L 229.948376 212.476516 
L 229.989836 214.562411 
L 230.015337 216.642303 
L 230.028675 218.716224 
L 230.033121 220.784297 
L 230.031396 222.846702 
L 230.025693 224.90366 
L 230.017717 226.955413 
L 230.008743 229.002221 
L 229.999681 231.044348 
L 229.991138 233.082067 
L 229.983485 235.115651 
L 229.976908 237.145376 
L 229.971461 239.171518 
L 229.967108 241.194352 
L 229.963758 243.21415 
L 229.961283 245.231182 
L 229.959545 247.245712 
L 229.958404 249.258001 
L 229.957731 251.2683 
L 229.957414 253.276856 
L 229.957354 255.283906 
L 229.957476 257.289678 
L 229.957716 259.29439 
L 229.95803 261.298248 
L 229.958386 263.30145 
L 229.95876 265.304179 
L 229.959139 267.306606 
L 229.959519 269.30889 
" clip-path="url(#pc11a274e31)" style="fill: none; stroke: #ff0000; stroke-opacity: 0.8; stroke-width: 0.25; stroke-linecap: square"/>
   </g>
   <g id="line2d_80">
    <path d="M 229.807689 208.28694 
L 229.885155 210.384764 
L 229.946942 212.476568 
L 229.988582 214.562455 
L 230.014303 216.642337 
L 230.027872 218.716248 
L 230.032539 220.784309 
L 230.031014 222.846702 
L 230.02548 224.903646 
L 230.017639 226.955384 
L 230.008766 229.002174 
L 229.999773 231.044282 
L 229.991272 233.08198 
L 229.983635 235.115542 
L 229.977057 237.145244 
L 229.971596 239.171362 
L 229.967219 241.19417 
L 229.96384 243.213941 
L 229.961335 245.230944 
L 229.959568 247.245446 
L 229.958401 249.257704 
L 229.957706 251.267973 
L 229.95737 253.276498 
L 229.957297 255.283515 
L 229.957409 257.289254 
L 229.957644 259.293931 
L 229.957956 261.297755 
L 229.958312 263.300921 
L 229.958688 265.303614 
L 229.959071 267.306005 
L 229.959453 269.308251 
" clip-path="url(#pc11a274e31)" style="fill: none; stroke: #ff0000; stroke-width: 0.25; stroke-linecap: square"/>
   </g>
   <g id="line2d_81">
    <path d="M 195.001781 168.501329 
L 193.240424 168.458991 
L 191.474769 168.423734 
L 189.704951 168.395153 
L 187.931116 168.37247 
L 186.153419 168.354874 
L 184.372016 168.341576 
L 182.587067 168.331835 
L 180.798735 168.324978 
L 179.007185 168.320413 
L 177.212584 168.317628 
L 175.415103 168.31619 
L 173.614913 168.31574 
L 171.812184 168.315987 
L 170.007088 168.316699 
L 168.199796 168.317696 
L 166.390478 168.318842 
L 164.5793 168.320035 
L 162.766427 168.321204 
L 160.952019 168.322303 
L 159.136233 168.323301 
L 157.319222 168.324183 
L 155.501133 168.324945 
L 153.682109 168.325591 
L 151.862285 168.326128 
L 150.041791 168.326568 
L 148.220751 168.326925 
L 146.399281 168.327216 
L 144.577492 168.327455 
L 142.755486 168.32766 
L 140.933356 168.327869 
" clip-path="url(#pc11a274e31)" style="fill: none; stroke: #ff0000; stroke-opacity: 0.2; stroke-width: 0.25; stroke-linecap: square"/>
   </g>
   <g id="line2d_82">
    <path d="M 195.001781 168.501329 
L 193.240418 168.459222 
L 191.474799 168.423959 
L 189.705052 168.395361 
L 187.931327 168.372652 
L 186.15378 168.355026 
L 184.372568 168.341695 
L 182.587854 168.33192 
L 180.799802 168.325031 
L 179.008579 168.320435 
L 177.214355 168.317623 
L 175.417301 168.316161 
L 173.61759 168.315691 
L 171.815395 168.315923 
L 170.010888 168.316625 
L 168.204243 168.317615 
L 166.395631 168.318758 
L 164.585218 168.319951 
L 162.773172 168.321124 
L 160.959653 168.322228 
L 159.14482 168.323234 
L 157.328824 168.324127 
L 155.511814 168.324903 
L 153.693932 168.325564 
L 151.875313 168.32612 
L 150.056087 168.326585 
L 148.236378 168.326973 
L 146.416299 168.327303 
L 144.59596 168.327591 
L 142.775461 168.327858 
L 140.954895 168.328109 
" clip-path="url(#pc11a274e31)" style="fill: none; stroke: #ff0000; stroke-opacity: 0.4; stroke-width: 0.25; stroke-linecap: square"/>
   </g>
   <g id="line2d_83">
    <path d="M 195.001781 168.501329 
L 193.240414 168.459406 
L 191.474771 168.424133 
L 189.704978 168.395517 
L 187.931182 168.372786 
L 186.153539 168.355136 
L 184.372206 168.341782 
L 182.587344 168.331987 
L 180.799117 168.32508 
L 179.007692 168.320471 
L 177.213238 168.317649 
L 175.415926 168.316182 
L 173.615926 168.31571 
L 171.813414 168.315942 
L 170.00856 168.316646 
L 168.201536 168.317639 
L 166.392514 168.318785 
L 164.581661 168.319982 
L 162.769141 168.321156 
L 160.955118 168.322261 
L 159.139748 168.323265 
L 157.323185 168.324155 
L 155.505576 168.324924 
L 153.687063 168.325577 
L 151.867784 168.326122 
L 150.047868 168.326572 
L 148.227438 168.326942 
L 146.406612 168.327249 
L 144.585497 168.327509 
L 142.764197 168.32774 
L 140.942803 168.327964 
" clip-path="url(#pc11a274e31)" style="fill: none; stroke: #ff0000; stroke-opacity: 0.6; stroke-width: 0.25; stroke-linecap: square"/>
   </g>
   <g id="line2d_84">
    <path d="M 195.001781 168.501329 
L 193.240411 168.459549 
L 191.474783 168.424262 
L 189.705019 168.395627 
L 187.931268 168.372875 
L 186.153685 168.355204 
L 184.372427 168.341831 
L 182.587655 168.332018 
L 180.799535 168.325097 
L 179.008232 168.320477 
L 177.213916 168.317647 
L 175.416758 168.316173 
L 173.616929 168.315697 
L 171.814603 168.315926 
L 170.009953 168.316628 
L 168.20315 168.31762 
L 166.394364 168.318765 
L 164.583764 168.319961 
L 162.771515 168.321135 
L 160.957778 168.32224 
L 159.142711 168.323246 
L 157.326466 168.324138 
L 155.509191 168.324911 
L 153.691028 168.325569 
L 151.872113 168.326121 
L 150.052576 168.32658 
L 148.232539 168.326961 
L 146.412118 168.327281 
L 144.591422 168.327558 
L 142.770552 168.32781 
L 140.949601 168.328052 
" clip-path="url(#pc11a274e31)" style="fill: none; stroke: #ff0000; stroke-opacity: 0.8; stroke-width: 0.25; stroke-linecap: square"/>
   </g>
   <g id="line2d_85">
    <path d="M 195.001781 168.501329 
L 193.240408 168.459663 
L 191.474772 168.424362 
L 189.70499 168.39571 
L 187.931213 168.372941 
L 186.153593 168.355255 
L 184.37229 168.341867 
L 182.587465 168.332044 
L 180.799281 168.325115 
L 179.007906 168.320489 
L 177.213509 168.317655 
L 175.41626 168.316179 
L 173.616331 168.315703 
L 171.813896 168.315932 
L 170.009128 168.316634 
L 168.202198 168.317628 
L 166.393276 168.318773 
L 164.582531 168.31997 
L 162.770128 168.321144 
L 160.956229 168.322249 
L 159.140991 168.323255 
L 157.324567 168.324145 
L 155.507106 168.324916 
L 153.688748 168.325571 
L 151.869632 168.32612 
L 150.049886 168.326574 
L 148.229633 168.326949 
L 146.408991 168.327261 
L 144.588068 168.327528 
L 142.766965 168.327768 
L 140.945775 168.327999 
" clip-path="url(#pc11a274e31)" style="fill: none; stroke: #ff0000; stroke-width: 0.25; stroke-linecap: square"/>
   </g>
   <g id="line2d_86">
    <path d="M 242.537867 140.717747 
L 242.44127 138.625101 
L 242.370999 136.53782 
L 242.323945 134.45617 
L 242.295175 132.380314 
L 242.280307 130.31026 
L 242.275585 128.245906 
L 242.277883 126.18708 
L 242.284688 124.133565 
L 242.294049 122.085119 
L 242.304507 120.041483 
L 242.315025 118.002392 
L 242.324908 115.967577 
L 242.333736 113.936767 
L 242.341301 111.909688 
L 242.347546 109.886069 
L 242.352516 107.86564 
L 242.356326 105.848133 
L 242.359123 103.833282 
L 242.361072 101.820828 
L 242.362333 99.810516 
L 242.363055 97.802097 
L 242.363371 95.795332 
L 242.363391 93.789986 
L 242.363206 91.785839 
L 242.362888 89.782676 
L 242.362489 87.780295 
L 242.362048 85.778505 
L 242.36159 83.777128 
L 242.36113 81.775998 
L 242.360635 79.774961 
" clip-path="url(#pc11a274e31)" style="fill: none; stroke: #ff0000; stroke-opacity: 0.2; stroke-width: 0.25; stroke-linecap: square"/>
   </g>
   <g id="line2d_87">
    <path d="M 242.537867 140.717747 
L 242.443529 138.624998 
L 242.373269 136.537642 
L 242.326095 134.455851 
L 242.297118 132.379789 
L 242.281991 130.309467 
L 242.276984 128.244788 
L 242.278991 126.185584 
L 242.285515 124.131645 
L 242.294613 122.082731 
L 242.304833 120.038591 
L 242.315142 117.998963 
L 242.324847 115.963582 
L 242.333528 113.932182 
L 242.340975 111.904494 
L 242.347127 109.880251 
L 242.352029 107.859187 
L 242.35579 105.841038 
L 242.358556 103.825543 
L 242.360488 101.812446 
L 242.361745 99.801495 
L 242.362474 97.792447 
L 242.362806 95.785064 
L 242.362849 93.779117 
L 242.362695 91.774386 
L 242.362411 89.770661 
L 242.362051 87.767741 
L 242.361652 85.765438 
L 242.361237 83.763575 
L 242.360822 81.761988 
L 242.360393 79.760523 
" clip-path="url(#pc11a274e31)" style="fill: none; stroke: #ff0000; stroke-opacity: 0.4; stroke-width: 0.25; stroke-linecap: square"/>
   </g>
   <g id="line2d_88">
    <path d="M 242.537867 140.717747 
L 242.445545 138.624908 
L 242.375238 136.537564 
L 242.327907 134.455796 
L 242.298706 132.379768 
L 242.28332 130.309488 
L 242.278043 128.24486 
L 242.27979 126.185717 
L 242.286075 124.131848 
L 242.294965 122.083014 
L 242.305011 120.038965 
L 242.315182 117.999438 
L 242.324783 115.964169 
L 242.333394 113.932891 
L 242.340801 111.905336 
L 242.346938 109.881237 
L 242.351844 107.860328 
L 242.355624 105.842345 
L 242.358419 103.827027 
L 242.360388 101.814117 
L 242.361685 99.803366 
L 242.362457 97.794528 
L 242.36283 95.787367 
L 242.362914 93.781653 
L 242.362796 91.777167 
L 242.362546 89.773698 
L 242.362215 87.771046 
L 242.36184 85.769022 
L 242.361446 83.767449 
L 242.361048 81.766162 
L 242.360643 79.765008 
" clip-path="url(#pc11a274e31)" style="fill: none; stroke: #ff0000; stroke-opacity: 0.6; stroke-width: 0.25; stroke-linecap: square"/>
   </g>
   <g id="line2d_89">
    <path d="M 242.537867 140.717747 
L 242.447364 138.624829 
L 242.376975 136.537481 
L 242.329467 134.455707 
L 242.300032 132.379665 
L 242.284388 130.309366 
L 242.278852 128.244714 
L 242.280356 126.185542 
L 242.286425 124.131639 
L 242.295132 122.082768 
L 242.305031 120.038678 
L 242.31509 117.999109 
L 242.324614 115.963795 
L 242.333176 113.932471 
L 242.340559 111.904869 
L 242.346693 109.880721 
L 242.351608 107.859762 
L 242.355407 105.841729 
L 242.358226 103.82636 
L 242.360221 101.813401 
L 242.361544 99.802601 
L 242.362339 97.793715 
L 242.362731 95.786507 
L 242.36283 93.780748 
L 242.362721 91.776219 
L 242.362475 89.772709 
L 242.362142 87.770018 
L 242.361761 85.767959 
L 242.361357 83.766354 
L 242.360945 81.765038 
L 242.360531 79.763859 
" clip-path="url(#pc11a274e31)" style="fill: none; stroke: #ff0000; stroke-opacity: 0.8; stroke-width: 0.25; stroke-linecap: square"/>
   </g>
   <g id="line2d_90">
    <path d="M 242.537867 140.717747 
L 242.449007 138.624758 
L 242.378517 136.537415 
L 242.330825 134.455647 
L 242.301162 132.379612 
L 242.285274 130.309319 
L 242.279501 128.244673 
L 242.28079 126.185506 
L 242.286674 124.13161 
L 242.295231 122.082747 
L 242.305016 120.038665 
L 242.314995 117.999105 
L 242.324469 115.963802 
L 242.333009 113.932489 
L 242.340391 111.904899 
L 242.346538 109.880765 
L 242.351478 107.85982 
L 242.355306 105.841802 
L 242.358159 103.82645 
L 242.360186 101.813508 
L 242.361539 99.802725 
L 242.36236 97.793859 
L 242.362774 95.786671 
L 242.362889 93.780933 
L 242.362792 91.776426 
L 242.362553 89.772939 
L 242.362224 87.770274 
L 242.361843 85.76824 
L 242.361436 83.766662 
L 242.36102 81.765374 
L 242.360604 79.764224 
" clip-path="url(#pc11a274e31)" style="fill: none; stroke: #ff0000; stroke-width: 0.25; stroke-linecap: square"/>
   </g>
   <g id="patch_15">
    <path d="M 103.104 307.584 
L 103.104 41.472 
" style="fill: none; stroke: #000000; stroke-width: 0.8; stroke-linejoin: miter; stroke-linecap: square"/>
   </g>
   <g id="patch_16">
    <path d="M 369.216 307.584 
L 369.216 41.472 
" style="fill: none; stroke: #000000; stroke-width: 0.8; stroke-linejoin: miter; stroke-linecap: square"/>
   </g>
   <g id="patch_17">
    <path d="M 103.104 307.584 
L 369.216 307.584 
" style="fill: none; stroke: #000000; stroke-width: 0.8; stroke-linejoin: miter; stroke-linecap: square"/>
   </g>
   <g id="patch_18">
    <path d="M 103.104 41.472 
L 369.216 41.472 
" style="fill: none; stroke: #000000; stroke-width: 0.8; stroke-linejoin: miter; stroke-linecap: square"/>
   </g>
   <g id="text_19">
    <!-- Time:  86 ms -->
    <g transform="translate(264.253887 54.7776) scale(0.1 -0.1)">
     <defs>
      <path id="DejaVuSans-54" d="M -19 4666 
L 3928 4666 
L 3928 4134 
L 2272 4134 
L 2272 0 
L 1638 0 
L 1638 4134 
L -19 4134 
L -19 4666 
z
" transform="scale(0.015625)"/>
      <path id="DejaVuSans-69" d="M 603 3500 
L 1178 3500 
L 1178 0 
L 603 0 
L 603 3500 
z
M 603 4863 
L 1178 4863 
L 1178 4134 
L 603 4134 
L 603 4863 
z
" transform="scale(0.015625)"/>
      <path id="DejaVuSans-6d" d="M 3328 2828 
Q 3544 3216 3844 3400 
Q 4144 3584 4550 3584 
Q 5097 3584 5394 3201 
Q 5691 2819 5691 2113 
L 5691 0 
L 5113 0 
L 5113 2094 
Q 5113 2597 4934 2840 
Q 4756 3084 4391 3084 
Q 3944 3084 3684 2787 
Q 3425 2491 3425 1978 
L 3425 0 
L 2847 0 
L 2847 2094 
Q 2847 2600 2669 2842 
Q 2491 3084 2119 3084 
Q 1678 3084 1418 2786 
Q 1159 2488 1159 1978 
L 1159 0 
L 581 0 
L 581 3500 
L 1159 3500 
L 1159 2956 
Q 1356 3278 1631 3431 
Q 1906 3584 2284 3584 
Q 2666 3584 2933 3390 
Q 3200 3197 3328 2828 
z
" transform="scale(0.015625)"/>
      <path id="DejaVuSans-65" d="M 3597 1894 
L 3597 1613 
L 953 1613 
Q 991 1019 1311 708 
Q 1631 397 2203 397 
Q 2534 397 2845 478 
Q 3156 559 3463 722 
L 3463 178 
Q 3153 47 2828 -22 
Q 2503 -91 2169 -91 
Q 1331 -91 842 396 
Q 353 884 353 1716 
Q 353 2575 817 3079 
Q 1281 3584 2069 3584 
Q 2775 3584 3186 3129 
Q 3597 2675 3597 1894 
z
M 3022 2063 
Q 3016 2534 2758 2815 
Q 2500 3097 2075 3097 
Q 1594 3097 1305 2825 
Q 1016 2553 972 2059 
L 3022 2063 
z
" transform="scale(0.015625)"/>
      <path id="DejaVuSans-3a" d="M 750 794 
L 1409 794 
L 1409 0 
L 750 0 
L 750 794 
z
M 750 3309 
L 1409 3309 
L 1409 2516 
L 750 2516 
L 750 3309 
z
" transform="scale(0.015625)"/>
      <path id="DejaVuSans-20" transform="scale(0.015625)"/>
      <path id="DejaVuSans-38" d="M 2034 2216 
Q 1584 2216 1326 1975 
Q 1069 1734 1069 1313 
Q 1069 891 1326 650 
Q 1584 409 2034 409 
Q 2484 409 2743 651 
Q 3003 894 3003 1313 
Q 3003 1734 2745 1975 
Q 2488 2216 2034 2216 
z
M 1403 2484 
Q 997 2584 770 2862 
Q 544 3141 544 3541 
Q 544 4100 942 4425 
Q 1341 4750 2034 4750 
Q 2731 4750 3128 4425 
Q 3525 4100 3525 3541 
Q 3525 3141 3298 2862 
Q 3072 2584 2669 2484 
Q 3125 2378 3379 2068 
Q 3634 1759 3634 1313 
Q 3634 634 3220 271 
Q 2806 -91 2034 -91 
Q 1263 -91 848 271 
Q 434 634 434 1313 
Q 434 1759 690 2068 
Q 947 2378 1403 2484 
z
M 1172 3481 
Q 1172 3119 1398 2916 
Q 1625 2713 2034 2713 
Q 2441 2713 2670 2916 
Q 2900 3119 2900 3481 
Q 2900 3844 2670 4047 
Q 2441 4250 2034 4250 
Q 1625 4250 1398 4047 
Q 1172 3844 1172 3481 
z
" transform="scale(0.015625)"/>
      <path id="DejaVuSans-36" d="M 2113 2584 
Q 1688 2584 1439 2293 
Q 1191 2003 1191 1497 
Q 1191 994 1439 701 
Q 1688 409 2113 409 
Q 2538 409 2786 701 
Q 3034 994 3034 1497 
Q 3034 2003 2786 2293 
Q 2538 2584 2113 2584 
z
M 3366 4563 
L 3366 3988 
Q 3128 4100 2886 4159 
Q 2644 4219 2406 4219 
Q 1781 4219 1451 3797 
Q 1122 3375 1075 2522 
Q 1259 2794 1537 2939 
Q 1816 3084 2150 3084 
Q 2853 3084 3261 2657 
Q 3669 2231 3669 1497 
Q 3669 778 3244 343 
Q 2819 -91 2113 -91 
Q 1303 -91 875 529 
Q 447 1150 447 2328 
Q 447 3434 972 4092 
Q 1497 4750 2381 4750 
Q 2619 4750 2861 4703 
Q 3103 4656 3366 4563 
z
" transform="scale(0.015625)"/>
      <path id="DejaVuSans-73" d="M 2834 3397 
L 2834 2853 
Q 2591 2978 2328 3040 
Q 2066 3103 1784 3103 
Q 1356 3103 1142 2972 
Q 928 2841 928 2578 
Q 928 2378 1081 2264 
Q 1234 2150 1697 2047 
L 1894 2003 
Q 2506 1872 2764 1633 
Q 3022 1394 3022 966 
Q 3022 478 2636 193 
Q 2250 -91 1575 -91 
Q 1294 -91 989 -36 
Q 684 19 347 128 
L 347 722 
Q 666 556 975 473 
Q 1284 391 1588 391 
Q 1994 391 2212 530 
Q 2431 669 2431 922 
Q 2431 1156 2273 1281 
Q 2116 1406 1581 1522 
L 1381 1569 
Q 847 1681 609 1914 
Q 372 2147 372 2553 
Q 372 3047 722 3315 
Q 1072 3584 1716 3584 
Q 2034 3584 2315 3537 
Q 2597 3491 2834 3397 
z
" transform="scale(0.015625)"/>
     </defs>
     <use xlink:href="#DejaVuSans-54"/>
     <use xlink:href="#DejaVuSans-69" x="57.958984"/>
     <use xlink:href="#DejaVuSans-6d" x="85.742188"/>
     <use xlink:href="#DejaVuSans-65" x="183.154297"/>
     <use xlink:href="#DejaVuSans-3a" x="244.677734"/>
     <use xlink:href="#DejaVuSans-20" x="278.369141"/>
     <use xlink:href="#DejaVuSans-20" x="310.15625"/>
     <use xlink:href="#DejaVuSans-38" x="341.943359"/>
     <use xlink:href="#DejaVuSans-36" x="405.566406"/>
     <use xlink:href="#DejaVuSans-20" x="469.189453"/>
     <use xlink:href="#DejaVuSans-6d" x="500.976562"/>
     <use xlink:href="#DejaVuSans-73" x="598.388672"/>
    </g>
   </g>
  </g>
 </g>
 <defs>
  <clipPath id="pc11a274e31">
   <rect x="103.104" y="41.472" width="266.112" height="266.112"/>
  </clipPath>
 </defs>
</svg>
