<?xml version="1.0" encoding="utf-8" standalone="no"?>
<!DOCTYPE svg PUBLIC "-//W3C//DTD SVG 1.1//EN"
  "http://www.w3.org/Graphics/SVG/1.1/DTD/svg11.dtd">
<svg xmlns:xlink="http://www.w3.org/1999/xlink" width="460.8pt" height="345.6pt" viewBox="0 0 460.8 345.6" xmlns="http://www.w3.org/2000/svg" version="1.1">
 <metadata>
  <rdf:RDF xmlns:dc="http://purl.org/dc/elements/1.1/" xmlns:cc="http://creativecommons.org/ns#" xmlns:rdf="http://www.w3.org/1999/02/22-rdf-syntax-ns#">
   <cc:Work>
    <dc:type rdf:resource="http://purl.org/dc/dcmitype/StillImage"/>
    <dc:date>2024-01-23T15:32:45.939367</dc:date>
    <dc:format>image/svg+xml</dc:format>
    <dc:creator>
     <cc:Agent>
      <dc:title>Matplotlib v3.8.2, https://matplotlib.org/</dc:title>
     </cc:Agent>
    </dc:creator>
   </cc:Work>
  </rdf:RDF>
 </metadata>
 <defs>
  <style type="text/css">*{stroke-linejoin: round; stroke-linecap: butt}</style>
 </defs>
 <g id="figure_1">
  <g id="patch_1">
   <path d="M 0 345.6 
L 460.8 345.6 
L 460.8 0 
L 0 0 
z
" style="fill: #ffffff"/>
  </g>
  <g id="axes_1">
   <g id="patch_2">
    <path d="M 103.104 307.584 
L 369.216 307.584 
L 369.216 41.472 
L 103.104 41.472 
z
" style="fill: #ffffff"/>
   </g>
   <g id="patch_3">
    <path d="M 138.291842 166.189205 
L 126.649442 166.189207 
L 126.649443 171.844087 
L 138.291843 171.844085 
z
" clip-path="url(#p20adb48e5e)" style="fill: #00008b"/>
   </g>
   <g id="patch_4">
    <path d="M 244.4988 70.544603 
L 244.498802 58.902203 
L 238.843922 58.902201 
L 238.84392 70.544601 
z
" clip-path="url(#p20adb48e5e)" style="fill: #800000"/>
   </g>
   <g id="patch_5">
    <path d="M 227.821205 273.7471 
L 227.821201 285.3895 
L 233.476081 285.389502 
L 233.476085 273.747102 
z
" clip-path="url(#p20adb48e5e)" style="fill: #006400"/>
   </g>
   <g id="patch_6">
    <path d="M 335.379102 182.866795 
L 347.021502 182.866799 
L 347.021503 177.211919 
L 335.379103 177.211915 
z
" clip-path="url(#p20adb48e5e)" style="fill: #4b0082"/>
   </g>
   <g id="patch_7">
    <path d="M 244.499083 107.980552 
L 244.498862 96.338152 
L 238.843982 96.338259 
L 238.844203 107.980659 
z
" clip-path="url(#p20adb48e5e)" style="fill: #0000ff"/>
   </g>
   <g id="patch_8">
    <path d="M 169.611654 166.188948 
L 157.969254 166.189237 
L 157.969394 171.844117 
L 169.611794 171.843828 
z
" clip-path="url(#p20adb48e5e)" style="fill: #ff0000"/>
   </g>
   <g id="patch_9">
    <path d="M 300.929085 182.867164 
L 312.571485 182.866919 
L 312.571365 177.212039 
L 300.928965 177.212284 
z
" clip-path="url(#p20adb48e5e)" style="fill: #dbdc56"/>
   </g>
   <g id="patch_10">
    <path d="M 244.498585 132.235142 
L 244.499625 120.592742 
L 238.844745 120.592237 
L 238.843705 132.234637 
z
" clip-path="url(#p20adb48e5e)" style="fill: #9400d3"/>
   </g>
   <g id="patch_11">
    <path d="M 274.186664 182.820219 
L 285.828655 182.917721 
L 285.876014 177.26304 
L 274.234022 177.165538 
z
" clip-path="url(#p20adb48e5e)" style="fill: #1e90ff"/>
   </g>
   <g id="patch_12">
    <path d="M 227.818891 228.985226 
L 227.841436 240.627604 
L 233.496305 240.616654 
L 233.47376 228.974275 
z
" clip-path="url(#p20adb48e5e)" style="fill: #ff4500"/>
   </g>
   <g id="patch_13">
    <path d="M 198.131332 166.240935 
L 186.489437 166.132525 
L 186.436781 171.78716 
L 198.078676 171.89557 
z
" clip-path="url(#p20adb48e5e)" style="fill: #7cfc00"/>
   </g>
   <g id="patch_14">
    <path d="M 227.950311 212.219044 
L 227.646695 223.857485 
L 233.299652 224.004955 
L 233.603268 212.366515 
z
" clip-path="url(#p20adb48e5e)" style="fill: #ff00ff"/>
   </g>
   <g id="matplotlib.axis_1">
    <g id="xtick_1">
     <g id="line2d_1">
      <defs>
       <path id="m1976d35f88" d="M 0 0 
L 0 3.5 
" style="stroke: #000000; stroke-width: 0.8"/>
      </defs>
      <g>
       <use xlink:href="#m1976d35f88" x="103.104" y="307.584" style="stroke: #000000; stroke-width: 0.8"/>
      </g>
     </g>
     <g id="text_1">
      <!-- −40 -->
      <g transform="translate(92.551656 322.182437) scale(0.1 -0.1)">
       <defs>
        <path id="DejaVuSans-2212" d="M 678 2272 
L 4684 2272 
L 4684 1741 
L 678 1741 
L 678 2272 
z
" transform="scale(0.015625)"/>
        <path id="DejaVuSans-34" d="M 2419 4116 
L 825 1625 
L 2419 1625 
L 2419 4116 
z
M 2253 4666 
L 3047 4666 
L 3047 1625 
L 3713 1625 
L 3713 1100 
L 3047 1100 
L 3047 0 
L 2419 0 
L 2419 1100 
L 313 1100 
L 313 1709 
L 2253 4666 
z
" transform="scale(0.015625)"/>
        <path id="DejaVuSans-30" d="M 2034 4250 
Q 1547 4250 1301 3770 
Q 1056 3291 1056 2328 
Q 1056 1369 1301 889 
Q 1547 409 2034 409 
Q 2525 409 2770 889 
Q 3016 1369 3016 2328 
Q 3016 3291 2770 3770 
Q 2525 4250 2034 4250 
z
M 2034 4750 
Q 2819 4750 3233 4129 
Q 3647 3509 3647 2328 
Q 3647 1150 3233 529 
Q 2819 -91 2034 -91 
Q 1250 -91 836 529 
Q 422 1150 422 2328 
Q 422 3509 836 4129 
Q 1250 4750 2034 4750 
z
" transform="scale(0.015625)"/>
       </defs>
       <use xlink:href="#DejaVuSans-2212"/>
       <use xlink:href="#DejaVuSans-34" x="83.789062"/>
       <use xlink:href="#DejaVuSans-30" x="147.412109"/>
      </g>
     </g>
    </g>
    <g id="xtick_2">
     <g id="line2d_2">
      <g>
       <use xlink:href="#m1976d35f88" x="136.368" y="307.584" style="stroke: #000000; stroke-width: 0.8"/>
      </g>
     </g>
     <g id="text_2">
      <!-- −30 -->
      <g transform="translate(125.815656 322.182437) scale(0.1 -0.1)">
       <defs>
        <path id="DejaVuSans-33" d="M 2597 2516 
Q 3050 2419 3304 2112 
Q 3559 1806 3559 1356 
Q 3559 666 3084 287 
Q 2609 -91 1734 -91 
Q 1441 -91 1130 -33 
Q 819 25 488 141 
L 488 750 
Q 750 597 1062 519 
Q 1375 441 1716 441 
Q 2309 441 2620 675 
Q 2931 909 2931 1356 
Q 2931 1769 2642 2001 
Q 2353 2234 1838 2234 
L 1294 2234 
L 1294 2753 
L 1863 2753 
Q 2328 2753 2575 2939 
Q 2822 3125 2822 3475 
Q 2822 3834 2567 4026 
Q 2313 4219 1838 4219 
Q 1578 4219 1281 4162 
Q 984 4106 628 3988 
L 628 4550 
Q 988 4650 1302 4700 
Q 1616 4750 1894 4750 
Q 2613 4750 3031 4423 
Q 3450 4097 3450 3541 
Q 3450 3153 3228 2886 
Q 3006 2619 2597 2516 
z
" transform="scale(0.015625)"/>
       </defs>
       <use xlink:href="#DejaVuSans-2212"/>
       <use xlink:href="#DejaVuSans-33" x="83.789062"/>
       <use xlink:href="#DejaVuSans-30" x="147.412109"/>
      </g>
     </g>
    </g>
    <g id="xtick_3">
     <g id="line2d_3">
      <g>
       <use xlink:href="#m1976d35f88" x="169.632" y="307.584" style="stroke: #000000; stroke-width: 0.8"/>
      </g>
     </g>
     <g id="text_3">
      <!-- −20 -->
      <g transform="translate(159.079656 322.182437) scale(0.1 -0.1)">
       <defs>
        <path id="DejaVuSans-32" d="M 1228 531 
L 3431 531 
L 3431 0 
L 469 0 
L 469 531 
Q 828 903 1448 1529 
Q 2069 2156 2228 2338 
Q 2531 2678 2651 2914 
Q 2772 3150 2772 3378 
Q 2772 3750 2511 3984 
Q 2250 4219 1831 4219 
Q 1534 4219 1204 4116 
Q 875 4013 500 3803 
L 500 4441 
Q 881 4594 1212 4672 
Q 1544 4750 1819 4750 
Q 2544 4750 2975 4387 
Q 3406 4025 3406 3419 
Q 3406 3131 3298 2873 
Q 3191 2616 2906 2266 
Q 2828 2175 2409 1742 
Q 1991 1309 1228 531 
z
" transform="scale(0.015625)"/>
       </defs>
       <use xlink:href="#DejaVuSans-2212"/>
       <use xlink:href="#DejaVuSans-32" x="83.789062"/>
       <use xlink:href="#DejaVuSans-30" x="147.412109"/>
      </g>
     </g>
    </g>
    <g id="xtick_4">
     <g id="line2d_4">
      <g>
       <use xlink:href="#m1976d35f88" x="202.896" y="307.584" style="stroke: #000000; stroke-width: 0.8"/>
      </g>
     </g>
     <g id="text_4">
      <!-- −10 -->
      <g transform="translate(192.343656 322.182437) scale(0.1 -0.1)">
       <defs>
        <path id="DejaVuSans-31" d="M 794 531 
L 1825 531 
L 1825 4091 
L 703 3866 
L 703 4441 
L 1819 4666 
L 2450 4666 
L 2450 531 
L 3481 531 
L 3481 0 
L 794 0 
L 794 531 
z
" transform="scale(0.015625)"/>
       </defs>
       <use xlink:href="#DejaVuSans-2212"/>
       <use xlink:href="#DejaVuSans-31" x="83.789062"/>
       <use xlink:href="#DejaVuSans-30" x="147.412109"/>
      </g>
     </g>
    </g>
    <g id="xtick_5">
     <g id="line2d_5">
      <g>
       <use xlink:href="#m1976d35f88" x="236.16" y="307.584" style="stroke: #000000; stroke-width: 0.8"/>
      </g>
     </g>
     <g id="text_5">
      <!-- 0 -->
      <g transform="translate(232.97875 322.182437) scale(0.1 -0.1)">
       <use xlink:href="#DejaVuSans-30"/>
      </g>
     </g>
    </g>
    <g id="xtick_6">
     <g id="line2d_6">
      <g>
       <use xlink:href="#m1976d35f88" x="269.424" y="307.584" style="stroke: #000000; stroke-width: 0.8"/>
      </g>
     </g>
     <g id="text_6">
      <!-- 10 -->
      <g transform="translate(263.0615 322.182437) scale(0.1 -0.1)">
       <use xlink:href="#DejaVuSans-31"/>
       <use xlink:href="#DejaVuSans-30" x="63.623047"/>
      </g>
     </g>
    </g>
    <g id="xtick_7">
     <g id="line2d_7">
      <g>
       <use xlink:href="#m1976d35f88" x="302.688" y="307.584" style="stroke: #000000; stroke-width: 0.8"/>
      </g>
     </g>
     <g id="text_7">
      <!-- 20 -->
      <g transform="translate(296.3255 322.182437) scale(0.1 -0.1)">
       <use xlink:href="#DejaVuSans-32"/>
       <use xlink:href="#DejaVuSans-30" x="63.623047"/>
      </g>
     </g>
    </g>
    <g id="xtick_8">
     <g id="line2d_8">
      <g>
       <use xlink:href="#m1976d35f88" x="335.952" y="307.584" style="stroke: #000000; stroke-width: 0.8"/>
      </g>
     </g>
     <g id="text_8">
      <!-- 30 -->
      <g transform="translate(329.5895 322.182437) scale(0.1 -0.1)">
       <use xlink:href="#DejaVuSans-33"/>
       <use xlink:href="#DejaVuSans-30" x="63.623047"/>
      </g>
     </g>
    </g>
    <g id="xtick_9">
     <g id="line2d_9">
      <g>
       <use xlink:href="#m1976d35f88" x="369.216" y="307.584" style="stroke: #000000; stroke-width: 0.8"/>
      </g>
     </g>
     <g id="text_9">
      <!-- 40 -->
      <g transform="translate(362.8535 322.182437) scale(0.1 -0.1)">
       <use xlink:href="#DejaVuSans-34"/>
       <use xlink:href="#DejaVuSans-30" x="63.623047"/>
      </g>
     </g>
    </g>
   </g>
   <g id="matplotlib.axis_2">
    <g id="ytick_1">
     <g id="line2d_10">
      <defs>
       <path id="m295142f939" d="M 0 0 
L -3.5 0 
" style="stroke: #000000; stroke-width: 0.8"/>
      </defs>
      <g>
       <use xlink:href="#m295142f939" x="103.104" y="307.584" style="stroke: #000000; stroke-width: 0.8"/>
      </g>
     </g>
     <g id="text_10">
      <!-- −40 -->
      <g transform="translate(74.999313 311.383219) scale(0.1 -0.1)">
       <use xlink:href="#DejaVuSans-2212"/>
       <use xlink:href="#DejaVuSans-34" x="83.789062"/>
       <use xlink:href="#DejaVuSans-30" x="147.412109"/>
      </g>
     </g>
    </g>
    <g id="ytick_2">
     <g id="line2d_11">
      <g>
       <use xlink:href="#m295142f939" x="103.104" y="274.32" style="stroke: #000000; stroke-width: 0.8"/>
      </g>
     </g>
     <g id="text_11">
      <!-- −30 -->
      <g transform="translate(74.999313 278.119219) scale(0.1 -0.1)">
       <use xlink:href="#DejaVuSans-2212"/>
       <use xlink:href="#DejaVuSans-33" x="83.789062"/>
       <use xlink:href="#DejaVuSans-30" x="147.412109"/>
      </g>
     </g>
    </g>
    <g id="ytick_3">
     <g id="line2d_12">
      <g>
       <use xlink:href="#m295142f939" x="103.104" y="241.056" style="stroke: #000000; stroke-width: 0.8"/>
      </g>
     </g>
     <g id="text_12">
      <!-- −20 -->
      <g transform="translate(74.999313 244.855219) scale(0.1 -0.1)">
       <use xlink:href="#DejaVuSans-2212"/>
       <use xlink:href="#DejaVuSans-32" x="83.789062"/>
       <use xlink:href="#DejaVuSans-30" x="147.412109"/>
      </g>
     </g>
    </g>
    <g id="ytick_4">
     <g id="line2d_13">
      <g>
       <use xlink:href="#m295142f939" x="103.104" y="207.792" style="stroke: #000000; stroke-width: 0.8"/>
      </g>
     </g>
     <g id="text_13">
      <!-- −10 -->
      <g transform="translate(74.999313 211.591219) scale(0.1 -0.1)">
       <use xlink:href="#DejaVuSans-2212"/>
       <use xlink:href="#DejaVuSans-31" x="83.789062"/>
       <use xlink:href="#DejaVuSans-30" x="147.412109"/>
      </g>
     </g>
    </g>
    <g id="ytick_5">
     <g id="line2d_14">
      <g>
       <use xlink:href="#m295142f939" x="103.104" y="174.528" style="stroke: #000000; stroke-width: 0.8"/>
      </g>
     </g>
     <g id="text_14">
      <!-- 0 -->
      <g transform="translate(89.7415 178.327219) scale(0.1 -0.1)">
       <use xlink:href="#DejaVuSans-30"/>
      </g>
     </g>
    </g>
    <g id="ytick_6">
     <g id="line2d_15">
      <g>
       <use xlink:href="#m295142f939" x="103.104" y="141.264" style="stroke: #000000; stroke-width: 0.8"/>
      </g>
     </g>
     <g id="text_15">
      <!-- 10 -->
      <g transform="translate(83.379 145.063219) scale(0.1 -0.1)">
       <use xlink:href="#DejaVuSans-31"/>
       <use xlink:href="#DejaVuSans-30" x="63.623047"/>
      </g>
     </g>
    </g>
    <g id="ytick_7">
     <g id="line2d_16">
      <g>
       <use xlink:href="#m295142f939" x="103.104" y="108" style="stroke: #000000; stroke-width: 0.8"/>
      </g>
     </g>
     <g id="text_16">
      <!-- 20 -->
      <g transform="translate(83.379 111.799219) scale(0.1 -0.1)">
       <use xlink:href="#DejaVuSans-32"/>
       <use xlink:href="#DejaVuSans-30" x="63.623047"/>
      </g>
     </g>
    </g>
    <g id="ytick_8">
     <g id="line2d_17">
      <g>
       <use xlink:href="#m295142f939" x="103.104" y="74.736" style="stroke: #000000; stroke-width: 0.8"/>
      </g>
     </g>
     <g id="text_17">
      <!-- 30 -->
      <g transform="translate(83.379 78.535219) scale(0.1 -0.1)">
       <use xlink:href="#DejaVuSans-33"/>
       <use xlink:href="#DejaVuSans-30" x="63.623047"/>
      </g>
     </g>
    </g>
    <g id="ytick_9">
     <g id="line2d_18">
      <g>
       <use xlink:href="#m295142f939" x="103.104" y="41.472" style="stroke: #000000; stroke-width: 0.8"/>
      </g>
     </g>
     <g id="text_18">
      <!-- 40 -->
      <g transform="translate(83.379 45.271219) scale(0.1 -0.1)">
       <use xlink:href="#DejaVuSans-34"/>
       <use xlink:href="#DejaVuSans-30" x="63.623047"/>
      </g>
     </g>
    </g>
   </g>
   <g id="line2d_19">
    <path d="M 249.4656 287.6256 
L 249.4656 187.8336 
" clip-path="url(#p20adb48e5e)" style="fill: none; stroke: #000000; stroke-width: 0.25; stroke-linecap: square"/>
   </g>
   <g id="line2d_20">
    <path d="M 249.4656 187.8336 
L 349.2576 187.8336 
" clip-path="url(#p20adb48e5e)" style="fill: none; stroke: #000000; stroke-width: 0.25; stroke-linecap: square"/>
   </g>
   <g id="line2d_21">
    <path d="M 349.2576 161.2224 
L 249.4656 161.2224 
" clip-path="url(#p20adb48e5e)" style="fill: none; stroke: #000000; stroke-width: 0.25; stroke-linecap: square"/>
   </g>
   <g id="line2d_22">
    <path d="M 249.4656 161.2224 
L 249.4656 61.4304 
" clip-path="url(#p20adb48e5e)" style="fill: none; stroke: #000000; stroke-width: 0.25; stroke-linecap: square"/>
   </g>
   <g id="line2d_23">
    <path d="M 222.8544 61.4304 
L 222.8544 161.2224 
" clip-path="url(#p20adb48e5e)" style="fill: none; stroke: #000000; stroke-width: 0.25; stroke-linecap: square"/>
   </g>
   <g id="line2d_24">
    <path d="M 222.8544 161.2224 
L 123.0624 161.2224 
" clip-path="url(#p20adb48e5e)" style="fill: none; stroke: #000000; stroke-width: 0.25; stroke-linecap: square"/>
   </g>
   <g id="line2d_25">
    <path d="M 123.0624 187.8336 
L 222.8544 187.8336 
" clip-path="url(#p20adb48e5e)" style="fill: none; stroke: #000000; stroke-width: 0.25; stroke-linecap: square"/>
   </g>
   <g id="line2d_26">
    <path d="M 222.8544 187.8336 
L 222.8544 287.6256 
" clip-path="url(#p20adb48e5e)" style="fill: none; stroke: #000000; stroke-width: 0.25; stroke-linecap: square"/>
   </g>
   <g id="line2d_27">
    <path d="M 249.4656 174.528 
L 349.2576 174.528 
" clip-path="url(#p20adb48e5e)" style="fill: none; stroke-dasharray: 0.925,0.4; stroke-dashoffset: 0; stroke: #000000; stroke-width: 0.25"/>
   </g>
   <g id="line2d_28">
    <path d="M 236.16 161.2224 
L 236.16 61.4304 
" clip-path="url(#p20adb48e5e)" style="fill: none; stroke-dasharray: 0.925,0.4; stroke-dashoffset: 0; stroke: #000000; stroke-width: 0.25"/>
   </g>
   <g id="line2d_29">
    <path d="M 222.8544 174.528 
L 123.0624 174.528 
" clip-path="url(#p20adb48e5e)" style="fill: none; stroke-dasharray: 0.925,0.4; stroke-dashoffset: 0; stroke: #000000; stroke-width: 0.25"/>
   </g>
   <g id="line2d_30">
    <path d="M 236.16 187.8336 
L 236.16 287.6256 
" clip-path="url(#p20adb48e5e)" style="fill: none; stroke-dasharray: 0.925,0.4; stroke-dashoffset: 0; stroke: #000000; stroke-width: 0.25"/>
   </g>
   <g id="line2d_31">
    <path d="M 133.74361 169.016647 
L 132.470642 169.016645 
L 131.197669 169.016644 
L 129.92469 169.016643 
L 128.651706 169.016642 
L 127.378718 169.016641 
L 126.105726 169.01664 
L 124.83273 169.01664 
L 123.559731 169.016639 
L 122.28673 169.016639 
L 121.013726 169.016639 
L 119.74072 169.016639 
L 118.467713 169.016639 
L 117.194704 169.016639 
L 115.921694 169.016639 
L 114.648683 169.016639 
L 113.375672 169.016639 
L 112.10266 169.016639 
L 110.829648 169.016639 
L 109.556636 169.01664 
L 108.283623 169.01664 
L 107.010611 169.01664 
L 105.737599 169.01664 
L 104.464586 169.01664 
L 103.191574 169.01664 
L 101.918562 169.01664 
L 100.64555 169.01664 
L 99.372538 169.01664 
L 98.099526 169.01664 
L 96.826514 169.01664 
L 95.553503 169.01664 
" clip-path="url(#p20adb48e5e)" style="fill: none; stroke: #ff0000; stroke-opacity: 0.333333; stroke-width: 0.25; stroke-linecap: square"/>
   </g>
   <g id="line2d_32">
    <path d="M 133.74361 169.016647 
L 132.470642 169.016646 
L 131.197669 169.016644 
L 129.92469 169.016643 
L 128.651706 169.016642 
L 127.378718 169.016641 
L 126.105726 169.01664 
L 124.83273 169.01664 
L 123.559731 169.016639 
L 122.28673 169.016639 
L 121.013726 169.016639 
L 119.74072 169.016639 
L 118.467713 169.016639 
L 117.194704 169.016639 
L 115.921694 169.016639 
L 114.648683 169.016639 
L 113.375672 169.016639 
L 112.10266 169.016639 
L 110.829648 169.016639 
L 109.556636 169.01664 
L 108.283623 169.01664 
L 107.010611 169.01664 
L 105.737598 169.01664 
L 104.464586 169.01664 
L 103.191573 169.01664 
L 101.918561 169.01664 
L 100.645549 169.01664 
L 99.372537 169.01664 
L 98.099525 169.01664 
L 96.826513 169.01664 
L 95.553501 169.01664 
" clip-path="url(#p20adb48e5e)" style="fill: none; stroke: #ff0000; stroke-opacity: 0.666667; stroke-width: 0.25; stroke-linecap: square"/>
   </g>
   <g id="line2d_33">
    <path d="M 133.74361 169.016647 
L 132.470642 169.016646 
L 131.197669 169.016645 
L 129.92469 169.016643 
L 128.651706 169.016642 
L 127.378718 169.016641 
L 126.105726 169.01664 
L 124.83273 169.01664 
L 123.559731 169.016639 
L 122.28673 169.016639 
L 121.013726 169.016639 
L 119.74072 169.016639 
L 118.467713 169.016639 
L 117.194704 169.016639 
L 115.921694 169.016639 
L 114.648683 169.016639 
L 113.375672 169.016639 
L 112.10266 169.016639 
L 110.829648 169.016639 
L 109.556636 169.01664 
L 108.283623 169.01664 
L 107.010611 169.01664 
L 105.737598 169.01664 
L 104.464586 169.01664 
L 103.191574 169.01664 
L 101.918562 169.01664 
L 100.64555 169.01664 
L 99.372538 169.01664 
L 98.099526 169.01664 
L 96.826514 169.01664 
L 95.553502 169.01664 
" clip-path="url(#p20adb48e5e)" style="fill: none; stroke: #ff0000; stroke-width: 0.25; stroke-linecap: square"/>
   </g>
   <g id="line2d_34">
    <path d="M 241.671361 65.90023 
L 241.671361 64.723402 
L 241.671361 63.546576 
L 241.671361 62.36975 
L 241.67136 61.192926 
L 241.67136 60.016102 
L 241.67136 58.839279 
L 241.67136 57.662458 
L 241.67136 56.485637 
L 241.67136 55.308816 
L 241.67136 54.131996 
L 241.67136 52.955177 
L 241.67136 51.778359 
L 241.67136 50.60154 
L 241.67136 49.424722 
L 241.67136 48.247904 
L 241.67136 47.071087 
L 241.67136 45.894269 
L 241.67136 44.717452 
L 241.67136 43.540635 
L 241.67136 42.363818 
L 241.67136 41.187001 
L 241.67136 40.010184 
L 241.67136 38.833367 
L 241.67136 37.65655 
L 241.67136 36.479734 
L 241.67136 35.302917 
L 241.67136 34.1261 
L 241.67136 32.949283 
L 241.67136 31.772466 
L 241.67136 30.595649 
" clip-path="url(#p20adb48e5e)" style="fill: none; stroke: #ff0000; stroke-opacity: 0.333333; stroke-width: 0.25; stroke-linecap: square"/>
   </g>
   <g id="line2d_35">
    <path d="M 241.671361 65.90023 
L 241.671361 64.723402 
L 241.671361 63.546576 
L 241.671361 62.36975 
L 241.67136 61.192926 
L 241.67136 60.016102 
L 241.67136 58.839279 
L 241.67136 57.662458 
L 241.67136 56.485637 
L 241.67136 55.308816 
L 241.67136 54.131996 
L 241.67136 52.955177 
L 241.67136 51.778358 
L 241.67136 50.60154 
L 241.67136 49.424722 
L 241.67136 48.247904 
L 241.67136 47.071087 
L 241.67136 45.894269 
L 241.67136 44.717452 
L 241.67136 43.540635 
L 241.67136 42.363818 
L 241.67136 41.187001 
L 241.67136 40.010184 
L 241.67136 38.833367 
L 241.67136 37.656551 
L 241.67136 36.479734 
L 241.67136 35.302917 
L 241.67136 34.1261 
L 241.67136 32.949283 
L 241.67136 31.772466 
L 241.67136 30.595649 
" clip-path="url(#p20adb48e5e)" style="fill: none; stroke: #ff0000; stroke-opacity: 0.666667; stroke-width: 0.25; stroke-linecap: square"/>
   </g>
   <g id="line2d_36">
    <path d="M 241.671361 65.90023 
L 241.671361 64.723402 
L 241.671361 63.546576 
L 241.671361 62.36975 
L 241.671361 61.192926 
L 241.67136 60.016102 
L 241.67136 58.839279 
L 241.67136 57.662458 
L 241.67136 56.485637 
L 241.67136 55.308816 
L 241.67136 54.131996 
L 241.67136 52.955177 
L 241.67136 51.778358 
L 241.67136 50.60154 
L 241.67136 49.424722 
L 241.67136 48.247904 
L 241.67136 47.071087 
L 241.67136 45.894269 
L 241.67136 44.717452 
L 241.67136 43.540635 
L 241.67136 42.363818 
L 241.67136 41.187001 
L 241.67136 40.010184 
L 241.67136 38.833367 
L 241.67136 37.656551 
L 241.67136 36.479734 
L 241.67136 35.302917 
L 241.67136 34.1261 
L 241.67136 32.949283 
L 241.67136 31.772466 
L 241.67136 30.595649 
" clip-path="url(#p20adb48e5e)" style="fill: none; stroke: #ff0000; stroke-width: 0.25; stroke-linecap: square"/>
   </g>
   <g id="line2d_37">
    <path d="M 230.648644 278.311675 
L 230.648643 279.568301 
L 230.648642 280.824929 
L 230.648641 282.081561 
L 230.64864 283.338196 
L 230.64864 284.594832 
L 230.64864 285.85147 
L 230.648639 287.10811 
L 230.648639 288.364751 
L 230.648639 289.621393 
L 230.648639 290.878036 
L 230.648639 292.134679 
L 230.648639 293.391322 
L 230.648639 294.647966 
L 230.64864 295.904609 
L 230.64864 297.161253 
L 230.64864 298.417896 
L 230.64864 299.674539 
L 230.64864 300.931182 
L 230.64864 302.187825 
L 230.64864 303.444468 
L 230.64864 304.70111 
L 230.64864 305.957752 
L 230.64864 307.214394 
L 230.64864 308.471036 
L 230.64864 309.727677 
L 230.64864 310.984319 
L 230.64864 312.24096 
L 230.64864 313.497601 
L 230.64864 314.754242 
L 230.64864 316.010883 
" clip-path="url(#p20adb48e5e)" style="fill: none; stroke: #ff0000; stroke-opacity: 0.333333; stroke-width: 0.25; stroke-linecap: square"/>
   </g>
   <g id="line2d_38">
    <path d="M 230.648644 278.311675 
L 230.648643 279.568301 
L 230.648642 280.824929 
L 230.648641 282.081561 
L 230.64864 283.338196 
L 230.64864 284.594832 
L 230.64864 285.85147 
L 230.648639 287.10811 
L 230.648639 288.364751 
L 230.648639 289.621393 
L 230.648639 290.878036 
L 230.648639 292.134679 
L 230.648639 293.391322 
L 230.648639 294.647966 
L 230.648639 295.904609 
L 230.64864 297.161253 
L 230.64864 298.417896 
L 230.64864 299.674539 
L 230.64864 300.931182 
L 230.64864 302.187825 
L 230.64864 303.444468 
L 230.64864 304.70111 
L 230.64864 305.957752 
L 230.64864 307.214394 
L 230.64864 308.471036 
L 230.64864 309.727678 
L 230.64864 310.984319 
L 230.64864 312.240961 
L 230.64864 313.497602 
L 230.64864 314.754243 
L 230.64864 316.010884 
" clip-path="url(#p20adb48e5e)" style="fill: none; stroke: #ff0000; stroke-opacity: 0.666667; stroke-width: 0.25; stroke-linecap: square"/>
   </g>
   <g id="line2d_39">
    <path d="M 230.648644 278.311675 
L 230.648643 279.568301 
L 230.648642 280.824929 
L 230.648641 282.081561 
L 230.64864 283.338196 
L 230.64864 284.594832 
L 230.64864 285.85147 
L 230.648639 287.10811 
L 230.648639 288.364751 
L 230.648639 289.621393 
L 230.648639 290.878036 
L 230.648639 292.134679 
L 230.648639 293.391322 
L 230.648639 294.647966 
L 230.648639 295.904609 
L 230.64864 297.161253 
L 230.64864 298.417896 
L 230.64864 299.674539 
L 230.64864 300.931182 
L 230.64864 302.187825 
L 230.64864 303.444468 
L 230.64864 304.70111 
L 230.64864 305.957752 
L 230.64864 307.214394 
L 230.64864 308.471036 
L 230.64864 309.727677 
L 230.64864 310.984319 
L 230.64864 312.24096 
L 230.64864 313.497601 
L 230.64864 314.754242 
L 230.64864 316.010884 
" clip-path="url(#p20adb48e5e)" style="fill: none; stroke: #ff0000; stroke-width: 0.25; stroke-linecap: square"/>
   </g>
   <g id="line2d_40">
    <path d="M 339.943676 180.039357 
L 341.200303 180.039358 
L 342.456933 180.039359 
L 343.713565 180.039359 
L 344.9702 180.03936 
L 346.226837 180.03936 
L 347.483476 180.03936 
L 348.740116 180.039361 
L 349.996757 180.039361 
L 351.253398 180.039361 
L 352.510041 180.039361 
L 353.766684 180.039361 
L 355.023327 180.039361 
L 356.27997 180.03936 
L 357.536613 180.03936 
L 358.793256 180.03936 
L 360.049899 180.03936 
L 361.306542 180.03936 
L 362.563185 180.03936 
L 363.819827 180.03936 
L 365.076469 180.03936 
L 366.333111 180.03936 
L 367.589753 180.03936 
L 368.846395 180.03936 
L 370.103036 180.03936 
L 371.359678 180.03936 
L 372.616319 180.03936 
L 373.87296 180.03936 
L 375.129601 180.03936 
L 376.386242 180.03936 
L 377.642883 180.03936 
" clip-path="url(#p20adb48e5e)" style="fill: none; stroke: #ff0000; stroke-opacity: 0.333333; stroke-width: 0.25; stroke-linecap: square"/>
   </g>
   <g id="line2d_41">
    <path d="M 339.943676 180.039357 
L 341.200303 180.039357 
L 342.456933 180.039358 
L 343.713565 180.039359 
L 344.9702 180.03936 
L 346.226837 180.03936 
L 347.483476 180.03936 
L 348.740116 180.039361 
L 349.996757 180.039361 
L 351.253398 180.039361 
L 352.510041 180.039361 
L 353.766683 180.039361 
L 355.023326 180.039361 
L 356.27997 180.039361 
L 357.536613 180.03936 
L 358.793256 180.03936 
L 360.049899 180.03936 
L 361.306542 180.03936 
L 362.563184 180.03936 
L 363.819827 180.03936 
L 365.076469 180.03936 
L 366.333111 180.03936 
L 367.589753 180.03936 
L 368.846395 180.03936 
L 370.103037 180.03936 
L 371.359678 180.03936 
L 372.616319 180.03936 
L 373.87296 180.03936 
L 375.129602 180.03936 
L 376.386243 180.03936 
L 377.642884 180.03936 
" clip-path="url(#p20adb48e5e)" style="fill: none; stroke: #ff0000; stroke-opacity: 0.666667; stroke-width: 0.25; stroke-linecap: square"/>
   </g>
   <g id="line2d_42">
    <path d="M 339.943676 180.039357 
L 341.200303 180.039357 
L 342.456933 180.039358 
L 343.713565 180.039359 
L 344.9702 180.03936 
L 346.226837 180.03936 
L 347.483476 180.03936 
L 348.740116 180.039361 
L 349.996757 180.039361 
L 351.253398 180.039361 
L 352.510041 180.039361 
L 353.766683 180.039361 
L 355.023326 180.039361 
L 356.27997 180.039361 
L 357.536613 180.03936 
L 358.793256 180.03936 
L 360.049899 180.03936 
L 361.306542 180.03936 
L 362.563184 180.03936 
L 363.819827 180.03936 
L 365.076469 180.03936 
L 366.333111 180.03936 
L 367.589753 180.03936 
L 368.846395 180.03936 
L 370.103036 180.03936 
L 371.359678 180.03936 
L 372.616319 180.03936 
L 373.87296 180.03936 
L 375.129601 180.03936 
L 376.386242 180.03936 
L 377.642883 180.03936 
" clip-path="url(#p20adb48e5e)" style="fill: none; stroke: #ff0000; stroke-width: 0.25; stroke-linecap: square"/>
   </g>
   <g id="line2d_43">
    <path d="M 241.671563 103.416845 
L 241.671505 102.159406 
L 241.671446 100.902154 
L 241.671402 99.645063 
L 241.67137 98.38811 
L 241.671348 97.131273 
L 241.671333 95.874534 
L 241.671325 94.617874 
L 241.67132 93.361278 
L 241.671319 92.104732 
L 241.67132 90.848223 
L 241.671322 89.591739 
L 241.671326 88.335273 
L 241.671329 87.078817 
L 241.671333 85.822364 
L 241.671337 84.565909 
L 241.671341 83.309449 
L 241.671344 82.05298 
L 241.671348 80.7965 
L 241.671351 79.540009 
L 241.671353 78.283505 
L 241.671356 77.026989 
L 241.671358 75.77046 
L 241.67136 74.51392 
L 241.671362 73.25737 
L 241.671364 72.00081 
L 241.671365 70.744242 
L 241.671366 69.487668 
L 241.671366 68.231089 
L 241.671365 66.974506 
L 241.671363 65.717922 
" clip-path="url(#p20adb48e5e)" style="fill: none; stroke: #ff0000; stroke-opacity: 0.333333; stroke-width: 0.25; stroke-linecap: square"/>
   </g>
   <g id="line2d_44">
    <path d="M 241.671563 103.416845 
L 241.671519 102.159406 
L 241.671457 100.902155 
L 241.67141 99.645063 
L 241.671376 98.38811 
L 241.671352 97.131273 
L 241.671336 95.874533 
L 241.671326 94.617873 
L 241.671321 93.361277 
L 241.671319 92.104729 
L 241.671319 90.848219 
L 241.671321 89.591735 
L 241.671324 88.335269 
L 241.671328 87.078812 
L 241.671332 85.822359 
L 241.671336 84.565904 
L 241.67134 83.309444 
L 241.671343 82.052976 
L 241.671347 80.796498 
L 241.67135 79.540008 
L 241.671353 78.283506 
L 241.671356 77.026993 
L 241.671358 75.770468 
L 241.67136 74.513932 
L 241.671362 73.257386 
L 241.671364 72.000832 
L 241.671365 70.74427 
L 241.671365 69.487703 
L 241.671365 68.231132 
L 241.671364 66.974558 
L 241.67136 65.717983 
" clip-path="url(#p20adb48e5e)" style="fill: none; stroke: #ff0000; stroke-opacity: 0.666667; stroke-width: 0.25; stroke-linecap: square"/>
   </g>
   <g id="line2d_45">
    <path d="M 241.671563 103.416845 
L 241.671532 102.159406 
L 241.671466 100.902155 
L 241.671416 99.645064 
L 241.67138 98.38811 
L 241.671354 97.131274 
L 241.671337 95.874534 
L 241.671326 94.617874 
L 241.67132 93.361277 
L 241.671318 92.10473 
L 241.671318 90.84822 
L 241.671321 89.591737 
L 241.671324 88.33527 
L 241.671327 87.078813 
L 241.671331 85.82236 
L 241.671336 84.565905 
L 241.67134 83.309444 
L 241.671344 82.052976 
L 241.671347 80.796496 
L 241.67135 79.540006 
L 241.671353 78.283503 
L 241.671356 77.026988 
L 241.671359 75.770461 
L 241.671361 74.513922 
L 241.671363 73.257374 
L 241.671364 72.000817 
L 241.671365 70.744252 
L 241.671366 69.487681 
L 241.671366 68.231106 
L 241.671364 66.974528 
L 241.671362 65.717949 
" clip-path="url(#p20adb48e5e)" style="fill: none; stroke: #ff0000; stroke-width: 0.25; stroke-linecap: square"/>
   </g>
   <g id="line2d_46">
    <path d="M 165.047581 169.016509 
L 163.790524 169.016552 
L 162.533596 169.016594 
L 161.276776 169.016624 
L 160.020045 169.016645 
L 158.763387 169.016659 
L 157.506788 169.016667 
L 156.250234 169.016671 
L 154.993714 169.016673 
L 153.737218 169.016672 
L 152.480738 169.01667 
L 151.224267 169.016668 
L 149.967799 169.016664 
L 148.711329 169.016661 
L 147.454854 169.016658 
L 146.19837 169.016655 
L 144.941877 169.016652 
L 143.685372 169.016649 
L 142.428855 169.016647 
L 141.172326 169.016645 
L 139.915784 169.016643 
L 138.659231 169.016641 
L 137.402667 169.01664 
L 136.146093 169.016638 
L 134.88951 169.016637 
L 133.63292 169.016636 
L 132.376322 169.016635 
L 131.11972 169.016635 
L 129.863114 169.016635 
L 128.606505 169.016636 
L 127.349894 169.016638 
" clip-path="url(#p20adb48e5e)" style="fill: none; stroke: #ff0000; stroke-opacity: 0.333333; stroke-width: 0.25; stroke-linecap: square"/>
   </g>
   <g id="line2d_47">
    <path d="M 165.047581 169.016509 
L 163.790524 169.016542 
L 162.533597 169.016586 
L 161.276776 169.016618 
L 160.020045 169.016641 
L 158.763387 169.016656 
L 157.506787 169.016665 
L 156.250233 169.01667 
L 154.993712 169.016673 
L 153.737216 169.016672 
L 152.480735 169.016671 
L 151.224264 169.016668 
L 149.967795 169.016665 
L 148.711325 169.016662 
L 147.454849 169.016659 
L 146.198366 169.016656 
L 144.941873 169.016653 
L 143.685368 169.01665 
L 142.428852 169.016648 
L 141.172324 169.016645 
L 139.915784 169.016643 
L 138.659232 169.016641 
L 137.402671 169.01664 
L 136.146099 169.016638 
L 134.88952 169.016637 
L 133.632933 169.016636 
L 132.37634 169.016636 
L 131.119742 169.016635 
L 129.863142 169.016636 
L 128.606539 169.016637 
L 127.349935 169.01664 
" clip-path="url(#p20adb48e5e)" style="fill: none; stroke: #ff0000; stroke-opacity: 0.666667; stroke-width: 0.25; stroke-linecap: square"/>
   </g>
   <g id="line2d_48">
    <path d="M 165.047581 169.016509 
L 163.790524 169.016532 
L 162.533597 169.016579 
L 161.276776 169.016614 
L 160.020045 169.016638 
L 158.763387 169.016654 
L 157.506788 169.016664 
L 156.250233 169.01667 
L 154.993713 169.016673 
L 153.737217 169.016673 
L 152.480736 169.016671 
L 151.224265 169.016669 
L 149.967796 169.016666 
L 148.711326 169.016662 
L 147.45485 169.016659 
L 146.198367 169.016656 
L 144.941873 169.016653 
L 143.685369 169.01665 
L 142.428852 169.016647 
L 141.172323 169.016645 
L 139.915782 169.016643 
L 138.65923 169.016641 
L 137.402667 169.016639 
L 136.146094 169.016638 
L 134.889512 169.016637 
L 133.632923 169.016636 
L 132.376328 169.016635 
L 131.119728 169.016635 
L 129.863125 169.016635 
L 128.606519 169.016636 
L 127.349912 169.016639 
" clip-path="url(#p20adb48e5e)" style="fill: none; stroke: #ff0000; stroke-width: 0.25; stroke-linecap: square"/>
   </g>
   <g id="line2d_49">
    <path d="M 305.47592 180.039637 
L 306.750225 180.039565 
L 308.02428 180.039489 
L 309.298115 180.039431 
L 310.571756 180.039388 
L 311.845229 180.039357 
L 313.118557 180.039336 
L 314.391763 180.039322 
L 315.664866 180.039314 
L 316.937887 180.039311 
L 318.210842 180.03931 
L 319.483746 180.039312 
L 320.756612 180.039315 
L 322.02945 180.039319 
L 323.302271 180.039323 
L 324.575083 180.039328 
L 325.847891 180.039332 
L 327.120701 180.039337 
L 328.393517 180.039341 
L 329.666342 180.039345 
L 330.939177 180.039348 
L 332.212024 180.039352 
L 333.484883 180.039355 
L 334.757753 180.039358 
L 336.030635 180.039361 
L 337.303527 180.039363 
L 338.576427 180.039365 
L 339.849335 180.039366 
L 341.122248 180.039366 
L 342.395166 180.039366 
L 343.668085 180.039363 
" clip-path="url(#p20adb48e5e)" style="fill: none; stroke: #ff0000; stroke-opacity: 0.333333; stroke-width: 0.25; stroke-linecap: square"/>
   </g>
   <g id="line2d_50">
    <path d="M 305.47592 180.039637 
L 306.750225 180.039584 
L 308.024279 180.039504 
L 309.298114 180.039442 
L 310.571756 180.039396 
L 311.845229 180.039362 
L 313.118558 180.039339 
L 314.391764 180.039324 
L 315.664869 180.039315 
L 316.937891 180.03931 
L 318.210846 180.039309 
L 319.483751 180.03931 
L 320.756617 180.039313 
L 322.029456 180.039317 
L 323.302277 180.039321 
L 324.575088 180.039326 
L 325.847896 180.03933 
L 327.120705 180.039335 
L 328.393519 180.03934 
L 329.666341 180.039344 
L 330.939173 180.039348 
L 332.212016 180.039351 
L 333.48487 180.039355 
L 334.757734 180.039358 
L 336.030609 180.03936 
L 337.303494 180.039363 
L 338.576386 180.039364 
L 339.849284 180.039365 
L 341.122187 180.039365 
L 342.395093 180.039364 
L 343.668 180.039361 
" clip-path="url(#p20adb48e5e)" style="fill: none; stroke: #ff0000; stroke-opacity: 0.666667; stroke-width: 0.25; stroke-linecap: square"/>
   </g>
   <g id="line2d_51">
    <path d="M 305.47592 180.039637 
L 306.750225 180.039602 
L 308.024279 180.039517 
L 309.298114 180.039451 
L 310.571755 180.039402 
L 311.845228 180.039366 
L 313.118557 180.039341 
L 314.391763 180.039324 
L 315.664868 180.039315 
L 316.937889 180.03931 
L 318.210845 180.039308 
L 319.483749 180.039309 
L 320.756616 180.039312 
L 322.029455 180.039316 
L 323.302276 180.039321 
L 324.575088 180.039326 
L 325.847896 180.039331 
L 327.120706 180.039335 
L 328.393521 180.03934 
L 329.666345 180.039344 
L 330.939179 180.039348 
L 332.212024 180.039352 
L 333.484881 180.039355 
L 334.757749 180.039358 
L 336.030628 180.039361 
L 337.303516 180.039363 
L 338.576412 180.039365 
L 339.849315 180.039366 
L 341.122224 180.039366 
L 342.395135 180.039365 
L 343.668049 180.039362 
" clip-path="url(#p20adb48e5e)" style="fill: none; stroke: #ff0000; stroke-width: 0.25; stroke-linecap: square"/>
   </g>
   <g id="line2d_52">
    <path d="M 241.671654 127.504358 
L 241.671636 126.413689 
L 241.671593 125.323199 
L 241.671549 124.232902 
L 241.671507 123.142808 
L 241.67147 122.052917 
L 241.671437 120.963229 
L 241.671409 119.873735 
L 241.671385 118.784425 
L 241.671366 117.695289 
L 241.671352 116.60631 
L 241.671341 115.517476 
L 241.671333 114.428772 
L 241.671327 113.340182 
L 241.671324 112.251691 
L 241.671323 111.163288 
L 241.671323 110.074958 
L 241.671324 108.986691 
L 241.671325 107.898475 
L 241.671328 106.810301 
L 241.671331 105.722161 
L 241.671334 104.634047 
L 241.671337 103.545954 
L 241.671341 102.457877 
L 241.671344 101.369811 
L 241.671347 100.281753 
L 241.671349 99.193701 
L 241.671352 98.105653 
L 241.671354 97.017606 
L 241.671356 95.929562 
L 241.671358 94.841518 
" clip-path="url(#p20adb48e5e)" style="fill: none; stroke: #ff0000; stroke-opacity: 0.333333; stroke-width: 0.25; stroke-linecap: square"/>
   </g>
   <g id="line2d_53">
    <path d="M 241.671654 127.504358 
L 241.671651 126.413689 
L 241.671605 125.3232 
L 241.671558 124.232903 
L 241.671514 123.142808 
L 241.671474 122.052918 
L 241.671439 120.963229 
L 241.67141 119.873736 
L 241.671385 118.784426 
L 241.671366 117.69529 
L 241.67135 116.606312 
L 241.671339 115.517478 
L 241.671331 114.428774 
L 241.671325 113.340185 
L 241.671322 112.251696 
L 241.671321 111.163294 
L 241.671321 110.074967 
L 241.671322 108.986701 
L 241.671324 107.898488 
L 241.671327 106.810318 
L 241.67133 105.722181 
L 241.671334 104.634072 
L 241.671337 103.545984 
L 241.671341 102.457912 
L 241.671344 101.369852 
L 241.671347 100.281801 
L 241.67135 99.193755 
L 241.671353 98.105713 
L 241.671355 97.017674 
L 241.671358 95.929636 
L 241.671361 94.841598 
" clip-path="url(#p20adb48e5e)" style="fill: none; stroke: #ff0000; stroke-opacity: 0.666667; stroke-width: 0.25; stroke-linecap: square"/>
   </g>
   <g id="line2d_54">
    <path d="M 241.671654 127.504358 
L 241.671665 126.413689 
L 241.671615 125.3232 
L 241.671565 124.232903 
L 241.671518 123.142808 
L 241.671477 122.052918 
L 241.671441 120.963229 
L 241.67141 119.873735 
L 241.671385 118.784426 
L 241.671365 117.695289 
L 241.67135 116.60631 
L 241.671338 115.517476 
L 241.67133 114.428772 
L 241.671325 113.340182 
L 241.671322 112.251692 
L 241.671321 111.163289 
L 241.671321 110.07496 
L 241.671323 108.986693 
L 241.671325 107.898479 
L 241.671328 106.810306 
L 241.671331 105.722168 
L 241.671334 104.634056 
L 241.671337 103.545965 
L 241.671341 102.45789 
L 241.671344 101.369827 
L 241.671347 100.281772 
L 241.67135 99.193723 
L 241.671352 98.105677 
L 241.671354 97.017634 
L 241.671357 95.929592 
L 241.671359 94.841551 
" clip-path="url(#p20adb48e5e)" style="fill: none; stroke: #ff0000; stroke-width: 0.25; stroke-linecap: square"/>
   </g>
   <g id="line2d_55">
    <path d="M 278.847854 180.041762 
L 280.031339 180.041974 
L 281.21421 180.042071 
L 282.396424 180.041945 
L 283.577992 180.0417 
L 284.758938 180.0414 
L 285.939296 180.041089 
L 287.119106 180.04079 
L 288.298412 180.040519 
L 289.477261 180.04028 
L 290.6557 180.040077 
L 291.833776 180.039907 
L 293.011535 180.039768 
L 294.18902 180.039657 
L 295.366271 180.03957 
L 296.543326 180.039503 
L 297.720218 180.039452 
L 298.896978 180.039415 
L 300.073632 180.039389 
L 301.250203 180.039371 
L 302.426711 180.039361 
L 303.603173 180.039354 
L 304.779602 180.039352 
L 305.956009 180.039352 
L 307.132401 180.039353 
L 308.308785 180.039356 
L 309.485166 180.039358 
L 310.661545 180.03936 
L 311.837925 180.039362 
L 313.014305 180.039363 
L 314.190685 180.039363 
" clip-path="url(#p20adb48e5e)" style="fill: none; stroke: #ff0000; stroke-opacity: 0.333333; stroke-width: 0.25; stroke-linecap: square"/>
   </g>
   <g id="line2d_56">
    <path d="M 278.847854 180.041762 
L 280.031339 180.041794 
L 281.214216 180.041941 
L 282.396432 180.041854 
L 283.578001 180.041639 
L 284.758946 180.041362 
L 285.939302 180.041068 
L 287.119109 180.040783 
L 288.298411 180.04052 
L 289.477256 180.040289 
L 290.655691 180.04009 
L 291.833762 180.039923 
L 293.011517 180.039786 
L 294.188997 180.039675 
L 295.366243 180.039588 
L 296.543292 180.03952 
L 297.720178 180.039468 
L 298.896932 180.039429 
L 300.073578 180.039401 
L 301.250141 180.039381 
L 302.426639 180.039368 
L 303.60309 180.03936 
L 304.779506 180.039355 
L 305.955898 180.039353 
L 307.132274 180.039354 
L 308.308641 180.039355 
L 309.485002 180.039357 
L 310.661362 180.039359 
L 311.83772 180.039361 
L 313.014079 180.039363 
L 314.190437 180.039364 
" clip-path="url(#p20adb48e5e)" style="fill: none; stroke: #ff0000; stroke-opacity: 0.666667; stroke-width: 0.25; stroke-linecap: square"/>
   </g>
   <g id="line2d_57">
    <path d="M 278.847854 180.041762 
L 280.031339 180.041629 
L 281.214217 180.041828 
L 282.396434 180.04178 
L 283.578004 180.041592 
L 284.75895 180.041336 
L 285.939307 180.041056 
L 287.119116 180.040779 
L 288.29842 180.040522 
L 289.477266 180.040293 
L 290.655703 180.040095 
L 291.833777 180.039928 
L 293.011533 180.03979 
L 294.189016 180.039678 
L 295.366265 180.039588 
L 296.543317 180.039518 
L 297.720207 180.039465 
L 298.896964 180.039425 
L 300.073615 180.039396 
L 301.250183 180.039376 
L 302.426687 180.039363 
L 303.603144 180.039355 
L 304.779568 180.039351 
L 305.955968 180.03935 
L 307.132353 180.039351 
L 308.30873 180.039353 
L 309.485101 180.039356 
L 310.661472 180.039358 
L 311.837841 180.039361 
L 313.014211 180.039362 
L 314.190582 180.039364 
" clip-path="url(#p20adb48e5e)" style="fill: none; stroke: #ff0000; stroke-width: 0.25; stroke-linecap: square"/>
   </g>
   <g id="line2d_58">
    <path d="M 230.659533 233.405193 
L 230.65714 234.800939 
L 230.655075 236.202015 
L 230.653434 237.608598 
L 230.652112 239.020747 
L 230.651044 240.438378 
L 230.650187 241.8613 
L 230.649504 243.289236 
L 230.64897 244.721852 
L 230.648561 246.158774 
L 230.648257 247.599603 
L 230.64804 249.043935 
L 230.647895 250.491368 
L 230.647808 251.941511 
L 230.647767 253.393993 
L 230.647763 254.848469 
L 230.647786 256.30462 
L 230.647831 257.762158 
L 230.64789 259.220827 
L 230.647959 260.6804 
L 230.648034 262.140684 
L 230.648111 263.601514 
L 230.648188 265.062751 
L 230.648261 266.524284 
L 230.648328 267.986024 
L 230.648387 269.447903 
L 230.64844 270.90987 
L 230.648487 272.371889 
L 230.648533 273.833935 
L 230.64858 275.295992 
L 230.648622 276.758052 
" clip-path="url(#p20adb48e5e)" style="fill: none; stroke: #ff0000; stroke-opacity: 0.333333; stroke-width: 0.25; stroke-linecap: square"/>
   </g>
   <g id="line2d_59">
    <path d="M 230.659533 233.405193 
L 230.657375 234.800939 
L 230.655279 236.202037 
L 230.653602 237.608642 
L 230.652245 239.020814 
L 230.651144 240.438471 
L 230.650256 241.86142 
L 230.649547 243.289388 
L 230.64899 244.72204 
L 230.648562 246.159001 
L 230.648243 247.599875 
L 230.648015 249.044257 
L 230.647861 250.491744 
L 230.647769 251.941946 
L 230.647724 253.394494 
L 230.647719 254.84904 
L 230.647743 256.305265 
L 230.647789 257.762882 
L 230.647852 259.221633 
L 230.647926 260.681293 
L 230.648006 262.141665 
L 230.64809 263.602585 
L 230.648174 265.063914 
L 230.648256 266.52554 
L 230.648332 267.987373 
L 230.648402 269.449345 
L 230.648463 270.911405 
L 230.648518 272.373516 
L 230.648568 273.835655 
L 230.648616 275.297806 
L 230.64866 276.759961 
" clip-path="url(#p20adb48e5e)" style="fill: none; stroke: #ff0000; stroke-opacity: 0.666667; stroke-width: 0.25; stroke-linecap: square"/>
   </g>
   <g id="line2d_60">
    <path d="M 230.659533 233.405193 
L 230.657598 234.80094 
L 230.655465 236.20204 
L 230.653749 237.608642 
L 230.652356 239.020805 
L 230.651223 240.438448 
L 230.650307 241.861379 
L 230.649576 243.289325 
L 230.649003 244.721951 
L 230.648564 246.158883 
L 230.648238 247.599725 
L 230.648006 249.044072 
L 230.647851 250.491523 
L 230.64776 251.941687 
L 230.647718 253.394195 
L 230.647716 254.848699 
L 230.647743 256.304882 
L 230.647792 257.762454 
L 230.647857 259.22116 
L 230.647932 260.680773 
L 230.648013 262.141098 
L 230.648097 263.601969 
L 230.64818 265.063248 
L 230.64826 266.524823 
L 230.648334 267.986604 
L 230.648402 269.448522 
L 230.648461 270.910528 
L 230.648513 272.372584 
L 230.648558 273.834668 
L 230.648599 275.296764 
L 230.648637 276.758865 
" clip-path="url(#p20adb48e5e)" style="fill: none; stroke: #ff0000; stroke-width: 0.25; stroke-linecap: square"/>
   </g>
   <g id="line2d_61">
    <path d="M 193.467199 169.013878 
L 192.284057 169.013691 
L 191.101565 169.013628 
L 189.919754 169.01379 
L 188.738597 169.014073 
L 187.558059 169.014407 
L 186.378097 169.01475 
L 185.198663 169.015076 
L 184.019709 169.015371 
L 182.841184 169.015629 
L 181.663039 169.015849 
L 180.485227 169.016032 
L 179.307701 169.016182 
L 178.130419 169.016302 
L 176.953342 169.016397 
L 175.776435 169.016469 
L 174.599666 169.016525 
L 173.423005 169.016565 
L 172.24643 169.016594 
L 171.06992 169.016614 
L 169.893456 169.016627 
L 168.717024 169.016634 
L 167.540613 169.016638 
L 166.364215 169.016639 
L 165.187822 169.016638 
L 164.01143 169.016637 
L 162.835037 169.016635 
L 161.658641 169.016634 
L 160.482241 169.016633 
L 159.305839 169.016633 
L 158.129436 169.016634 
" clip-path="url(#p20adb48e5e)" style="fill: none; stroke: #ff0000; stroke-opacity: 0.333333; stroke-width: 0.25; stroke-linecap: square"/>
   </g>
   <g id="line2d_62">
    <path d="M 193.467199 169.013878 
L 192.284057 169.013877 
L 191.101557 169.013763 
L 189.919742 169.013886 
L 188.738584 169.014139 
L 187.558046 169.01445 
L 186.378085 169.014775 
L 185.198654 169.015087 
L 184.019704 169.015372 
L 182.841183 169.015623 
L 181.663043 169.015838 
L 180.485236 169.016017 
L 179.307715 169.016164 
L 178.130439 169.016283 
L 176.953368 169.016378 
L 175.776466 169.016451 
L 174.599703 169.016507 
L 173.42305 169.016549 
L 172.246482 169.01658 
L 171.06998 169.016602 
L 169.893526 169.016618 
L 168.717106 169.016627 
L 167.540709 169.016633 
L 166.364325 169.016636 
L 165.187948 169.016637 
L 164.011574 169.016637 
L 162.8352 169.016636 
L 161.658825 169.016635 
L 160.482447 169.016634 
L 159.306068 169.016634 
L 158.129687 169.016636 
" clip-path="url(#p20adb48e5e)" style="fill: none; stroke: #ff0000; stroke-opacity: 0.666667; stroke-width: 0.25; stroke-linecap: square"/>
   </g>
   <g id="line2d_63">
    <path d="M 193.467199 169.013878 
L 192.284057 169.014048 
L 191.101556 169.013882 
L 189.919739 169.013967 
L 188.738579 169.01419 
L 187.55804 169.01448 
L 186.378078 169.01479 
L 185.198646 169.015093 
L 184.019694 169.015371 
L 182.841172 169.015619 
L 181.663031 169.015832 
L 180.485221 169.016011 
L 179.307698 169.01616 
L 178.130419 169.01628 
L 176.953346 169.016376 
L 175.776441 169.016451 
L 174.599674 169.016509 
L 173.423017 169.016553 
L 172.246445 169.016585 
L 171.069938 169.016608 
L 169.893478 169.016623 
L 168.717051 169.016633 
L 167.540646 169.016638 
L 166.364254 169.01664 
L 165.187869 169.01664 
L 164.011485 169.016639 
L 162.835101 169.016637 
L 161.658714 169.016635 
L 160.482325 169.016634 
L 159.305934 169.016634 
L 158.129542 169.016635 
" clip-path="url(#p20adb48e5e)" style="fill: none; stroke: #ff0000; stroke-width: 0.25; stroke-linecap: square"/>
   </g>
   <g id="line2d_64">
    <path d="M 230.618739 216.860356 
L 230.624632 218.112002 
L 230.629554 219.355742 
L 230.633757 220.591632 
L 230.637257 221.819927 
L 230.640115 223.041004 
L 230.642415 224.255327 
L 230.644242 225.463419 
L 230.645676 226.66584 
L 230.646787 227.863164 
L 230.647634 229.055965 
L 230.648267 230.244801 
L 230.648727 231.430205 
L 230.649048 232.612681 
L 230.64926 233.792691 
L 230.649386 234.970657 
L 230.649447 236.146957 
L 230.649457 237.321926 
L 230.649425 238.495854 
L 230.64935 239.668989 
L 230.649259 240.84154 
L 230.649167 242.013677 
L 230.649076 243.185537 
L 230.648986 244.357226 
L 230.648903 245.528821 
L 230.648827 246.700377 
L 230.648761 247.871928 
L 230.648708 249.043492 
L 230.648667 250.215076 
L 230.648639 251.386675 
L 230.648622 252.558283 
" clip-path="url(#p20adb48e5e)" style="fill: none; stroke: #ff0000; stroke-opacity: 0.333333; stroke-width: 0.25; stroke-linecap: square"/>
   </g>
   <g id="line2d_65">
    <path d="M 230.618739 216.860356 
L 230.624812 218.112001 
L 230.629643 219.355748 
L 230.633785 220.591633 
L 230.63725 221.819911 
L 230.640092 223.040959 
L 230.642388 224.255241 
L 230.64422 225.463283 
L 230.645662 226.665643 
L 230.646783 227.862896 
L 230.647638 229.055617 
L 230.648277 230.244365 
L 230.648741 231.429674 
L 230.649064 232.612048 
L 230.649275 233.79195 
L 230.649399 234.969802 
L 230.649457 236.145985 
L 230.649464 237.320833 
L 230.649429 238.494637 
L 230.649356 239.667648 
L 230.649267 240.840075 
L 230.649174 242.012089 
L 230.649079 243.183828 
L 230.648986 244.355398 
L 230.648898 245.526879 
L 230.648818 246.698325 
L 230.648748 247.869771 
L 230.64869 249.041236 
L 230.648648 250.212724 
L 230.64862 251.384232 
L 230.648606 252.55575 
" clip-path="url(#p20adb48e5e)" style="fill: none; stroke: #ff0000; stroke-opacity: 0.666667; stroke-width: 0.25; stroke-linecap: square"/>
   </g>
   <g id="line2d_66">
    <path d="M 230.618739 216.860356 
L 230.624981 218.112 
L 230.629725 219.35576 
L 230.633811 220.591662 
L 230.637244 221.81996 
L 230.640071 223.041032 
L 230.642364 224.255342 
L 230.6442 225.463414 
L 230.645649 226.665807 
L 230.646777 227.863097 
L 230.647638 229.055856 
L 230.648281 230.244645 
L 230.648747 231.429998 
L 230.64907 232.612418 
L 230.649281 233.792367 
L 230.649403 234.97027 
L 230.649459 236.146505 
L 230.649464 237.321406 
L 230.649429 238.495267 
L 230.649358 239.668336 
L 230.649272 240.840823 
L 230.64918 242.0129 
L 230.649086 243.184704 
L 230.648992 244.356342 
L 230.648903 245.527893 
L 230.648822 246.699413 
L 230.648751 247.870935 
L 230.648693 249.042478 
L 230.648651 250.214047 
L 230.648625 251.385638 
L 230.648614 252.557241 
" clip-path="url(#p20adb48e5e)" style="fill: none; stroke: #ff0000; stroke-width: 0.25; stroke-linecap: square"/>
   </g>
   <g id="patch_15">
    <path d="M 103.104 307.584 
L 103.104 41.472 
" style="fill: none; stroke: #000000; stroke-width: 0.8; stroke-linejoin: miter; stroke-linecap: square"/>
   </g>
   <g id="patch_16">
    <path d="M 369.216 307.584 
L 369.216 41.472 
" style="fill: none; stroke: #000000; stroke-width: 0.8; stroke-linejoin: miter; stroke-linecap: square"/>
   </g>
   <g id="patch_17">
    <path d="M 103.104 307.584 
L 369.216 307.584 
" style="fill: none; stroke: #000000; stroke-width: 0.8; stroke-linejoin: miter; stroke-linecap: square"/>
   </g>
   <g id="patch_18">
    <path d="M 103.104 41.472 
L 369.216 41.472 
" style="fill: none; stroke: #000000; stroke-width: 0.8; stroke-linejoin: miter; stroke-linecap: square"/>
   </g>
   <g id="text_19">
    <!-- Time: 121 ms -->
    <g transform="translate(261.069512 54.7776) scale(0.1 -0.1)">
     <defs>
      <path id="DejaVuSans-54" d="M -19 4666 
L 3928 4666 
L 3928 4134 
L 2272 4134 
L 2272 0 
L 1638 0 
L 1638 4134 
L -19 4134 
L -19 4666 
z
" transform="scale(0.015625)"/>
      <path id="DejaVuSans-69" d="M 603 3500 
L 1178 3500 
L 1178 0 
L 603 0 
L 603 3500 
z
M 603 4863 
L 1178 4863 
L 1178 4134 
L 603 4134 
L 603 4863 
z
" transform="scale(0.015625)"/>
      <path id="DejaVuSans-6d" d="M 3328 2828 
Q 3544 3216 3844 3400 
Q 4144 3584 4550 3584 
Q 5097 3584 5394 3201 
Q 5691 2819 5691 2113 
L 5691 0 
L 5113 0 
L 5113 2094 
Q 5113 2597 4934 2840 
Q 4756 3084 4391 3084 
Q 3944 3084 3684 2787 
Q 3425 2491 3425 1978 
L 3425 0 
L 2847 0 
L 2847 2094 
Q 2847 2600 2669 2842 
Q 2491 3084 2119 3084 
Q 1678 3084 1418 2786 
Q 1159 2488 1159 1978 
L 1159 0 
L 581 0 
L 581 3500 
L 1159 3500 
L 1159 2956 
Q 1356 3278 1631 3431 
Q 1906 3584 2284 3584 
Q 2666 3584 2933 3390 
Q 3200 3197 3328 2828 
z
" transform="scale(0.015625)"/>
      <path id="DejaVuSans-65" d="M 3597 1894 
L 3597 1613 
L 953 1613 
Q 991 1019 1311 708 
Q 1631 397 2203 397 
Q 2534 397 2845 478 
Q 3156 559 3463 722 
L 3463 178 
Q 3153 47 2828 -22 
Q 2503 -91 2169 -91 
Q 1331 -91 842 396 
Q 353 884 353 1716 
Q 353 2575 817 3079 
Q 1281 3584 2069 3584 
Q 2775 3584 3186 3129 
Q 3597 2675 3597 1894 
z
M 3022 2063 
Q 3016 2534 2758 2815 
Q 2500 3097 2075 3097 
Q 1594 3097 1305 2825 
Q 1016 2553 972 2059 
L 3022 2063 
z
" transform="scale(0.015625)"/>
      <path id="DejaVuSans-3a" d="M 750 794 
L 1409 794 
L 1409 0 
L 750 0 
L 750 794 
z
M 750 3309 
L 1409 3309 
L 1409 2516 
L 750 2516 
L 750 3309 
z
" transform="scale(0.015625)"/>
      <path id="DejaVuSans-20" transform="scale(0.015625)"/>
      <path id="DejaVuSans-73" d="M 2834 3397 
L 2834 2853 
Q 2591 2978 2328 3040 
Q 2066 3103 1784 3103 
Q 1356 3103 1142 2972 
Q 928 2841 928 2578 
Q 928 2378 1081 2264 
Q 1234 2150 1697 2047 
L 1894 2003 
Q 2506 1872 2764 1633 
Q 3022 1394 3022 966 
Q 3022 478 2636 193 
Q 2250 -91 1575 -91 
Q 1294 -91 989 -36 
Q 684 19 347 128 
L 347 722 
Q 666 556 975 473 
Q 1284 391 1588 391 
Q 1994 391 2212 530 
Q 2431 669 2431 922 
Q 2431 1156 2273 1281 
Q 2116 1406 1581 1522 
L 1381 1569 
Q 847 1681 609 1914 
Q 372 2147 372 2553 
Q 372 3047 722 3315 
Q 1072 3584 1716 3584 
Q 2034 3584 2315 3537 
Q 2597 3491 2834 3397 
z
" transform="scale(0.015625)"/>
     </defs>
     <use xlink:href="#DejaVuSans-54"/>
     <use xlink:href="#DejaVuSans-69" x="57.958984"/>
     <use xlink:href="#DejaVuSans-6d" x="85.742188"/>
     <use xlink:href="#DejaVuSans-65" x="183.154297"/>
     <use xlink:href="#DejaVuSans-3a" x="244.677734"/>
     <use xlink:href="#DejaVuSans-20" x="278.369141"/>
     <use xlink:href="#DejaVuSans-31" x="310.15625"/>
     <use xlink:href="#DejaVuSans-32" x="373.779297"/>
     <use xlink:href="#DejaVuSans-31" x="437.402344"/>
     <use xlink:href="#DejaVuSans-20" x="501.025391"/>
     <use xlink:href="#DejaVuSans-6d" x="532.8125"/>
     <use xlink:href="#DejaVuSans-73" x="630.224609"/>
    </g>
   </g>
  </g>
 </g>
 <defs>
  <clipPath id="p20adb48e5e">
   <rect x="103.104" y="41.472" width="266.112" height="266.112"/>
  </clipPath>
 </defs>
</svg>
