<?xml version="1.0" encoding="utf-8" standalone="no"?>
<!DOCTYPE svg PUBLIC "-//W3C//DTD SVG 1.1//EN"
  "http://www.w3.org/Graphics/SVG/1.1/DTD/svg11.dtd">
<svg xmlns:xlink="http://www.w3.org/1999/xlink" width="460.8pt" height="345.6pt" viewBox="0 0 460.8 345.6" xmlns="http://www.w3.org/2000/svg" version="1.1">
 <metadata>
  <rdf:RDF xmlns:dc="http://purl.org/dc/elements/1.1/" xmlns:cc="http://creativecommons.org/ns#" xmlns:rdf="http://www.w3.org/1999/02/22-rdf-syntax-ns#">
   <cc:Work>
    <dc:type rdf:resource="http://purl.org/dc/dcmitype/StillImage"/>
    <dc:date>2024-01-23T15:32:47.460462</dc:date>
    <dc:format>image/svg+xml</dc:format>
    <dc:creator>
     <cc:Agent>
      <dc:title>Matplotlib v3.8.2, https://matplotlib.org/</dc:title>
     </cc:Agent>
    </dc:creator>
   </cc:Work>
  </rdf:RDF>
 </metadata>
 <defs>
  <style type="text/css">*{stroke-linejoin: round; stroke-linecap: butt}</style>
 </defs>
 <g id="figure_1">
  <g id="patch_1">
   <path d="M 0 345.6 
L 460.8 345.6 
L 460.8 0 
L 0 0 
z
" style="fill: #ffffff"/>
  </g>
  <g id="axes_1">
   <g id="patch_2">
    <path d="M 103.104 307.584 
L 369.216 307.584 
L 369.216 41.472 
L 103.104 41.472 
z
" style="fill: #ffffff"/>
   </g>
   <g id="patch_3">
    <path d="M 131.926926 166.189205 
L 120.284526 166.189202 
L 120.284524 171.844082 
L 131.926924 171.844085 
z
" clip-path="url(#p51ec4f7c4b)" style="fill: #00008b"/>
   </g>
   <g id="patch_4">
    <path d="M 244.498801 64.66048 
L 244.498801 53.01808 
L 238.843921 53.01808 
L 238.843921 64.66048 
z
" clip-path="url(#p51ec4f7c4b)" style="fill: #800000"/>
   </g>
   <g id="patch_5">
    <path d="M 227.821203 280.03027 
L 227.821199 291.67267 
L 233.476079 291.672672 
L 233.476083 280.030272 
z
" clip-path="url(#p51ec4f7c4b)" style="fill: #006400"/>
   </g>
   <g id="patch_6">
    <path d="M 341.662276 182.866797 
L 353.304676 182.866801 
L 353.304677 177.211921 
L 341.662277 177.211917 
z
" clip-path="url(#p51ec4f7c4b)" style="fill: #4b0082"/>
   </g>
   <g id="patch_7">
    <path d="M 244.498961 101.695707 
L 244.498752 90.053307 
L 238.843872 90.053408 
L 238.844081 101.695808 
z
" clip-path="url(#p51ec4f7c4b)" style="fill: #0000ff"/>
   </g>
   <g id="patch_8">
    <path d="M 163.327958 166.189082 
L 151.685558 166.189269 
L 151.685649 171.844149 
L 163.328049 171.843962 
z
" clip-path="url(#p51ec4f7c4b)" style="fill: #ff0000"/>
   </g>
   <g id="patch_9">
    <path d="M 307.297385 182.867022 
L 318.939785 182.86677 
L 318.939663 177.21189 
L 307.297263 177.212142 
z
" clip-path="url(#p51ec4f7c4b)" style="fill: #dbdc56"/>
   </g>
   <g id="patch_10">
    <path d="M 244.498912 126.784528 
L 244.499196 115.142128 
L 238.844316 115.14199 
L 238.844032 126.78439 
z
" clip-path="url(#p51ec4f7c4b)" style="fill: #9400d3"/>
   </g>
   <g id="patch_11">
    <path d="M 280.111022 182.853015 
L 291.753384 182.882946 
L 291.767922 177.228085 
L 280.12556 177.198154 
z
" clip-path="url(#p51ec4f7c4b)" style="fill: #1e90ff"/>
   </g>
   <g id="patch_12">
    <path d="M 227.82541 236.041175 
L 227.826203 247.683575 
L 233.481083 247.68319 
L 233.48029 236.04079 
z
" clip-path="url(#p51ec4f7c4b)" style="fill: #ff4500"/>
   </g>
   <g id="patch_13">
    <path d="M 192.207104 166.204546 
L 180.564752 166.171425 
L 180.548664 171.826282 
L 192.191017 171.859403 
z
" clip-path="url(#p51ec4f7c4b)" style="fill: #7cfc00"/>
   </g>
   <g id="patch_14">
    <path d="M 227.850199 218.415713 
L 227.775046 230.05787 
L 233.429808 230.094373 
L 233.504961 218.452216 
z
" clip-path="url(#p51ec4f7c4b)" style="fill: #ff00ff"/>
   </g>
   <g id="matplotlib.axis_1">
    <g id="xtick_1">
     <g id="line2d_1">
      <defs>
       <path id="mc21b7f0f43" d="M 0 0 
L 0 3.5 
" style="stroke: #000000; stroke-width: 0.8"/>
      </defs>
      <g>
       <use xlink:href="#mc21b7f0f43" x="103.104" y="307.584" style="stroke: #000000; stroke-width: 0.8"/>
      </g>
     </g>
     <g id="text_1">
      <!-- −40 -->
      <g transform="translate(92.551656 322.182437) scale(0.1 -0.1)">
       <defs>
        <path id="DejaVuSans-2212" d="M 678 2272 
L 4684 2272 
L 4684 1741 
L 678 1741 
L 678 2272 
z
" transform="scale(0.015625)"/>
        <path id="DejaVuSans-34" d="M 2419 4116 
L 825 1625 
L 2419 1625 
L 2419 4116 
z
M 2253 4666 
L 3047 4666 
L 3047 1625 
L 3713 1625 
L 3713 1100 
L 3047 1100 
L 3047 0 
L 2419 0 
L 2419 1100 
L 313 1100 
L 313 1709 
L 2253 4666 
z
" transform="scale(0.015625)"/>
        <path id="DejaVuSans-30" d="M 2034 4250 
Q 1547 4250 1301 3770 
Q 1056 3291 1056 2328 
Q 1056 1369 1301 889 
Q 1547 409 2034 409 
Q 2525 409 2770 889 
Q 3016 1369 3016 2328 
Q 3016 3291 2770 3770 
Q 2525 4250 2034 4250 
z
M 2034 4750 
Q 2819 4750 3233 4129 
Q 3647 3509 3647 2328 
Q 3647 1150 3233 529 
Q 2819 -91 2034 -91 
Q 1250 -91 836 529 
Q 422 1150 422 2328 
Q 422 3509 836 4129 
Q 1250 4750 2034 4750 
z
" transform="scale(0.015625)"/>
       </defs>
       <use xlink:href="#DejaVuSans-2212"/>
       <use xlink:href="#DejaVuSans-34" x="83.789062"/>
       <use xlink:href="#DejaVuSans-30" x="147.412109"/>
      </g>
     </g>
    </g>
    <g id="xtick_2">
     <g id="line2d_2">
      <g>
       <use xlink:href="#mc21b7f0f43" x="136.368" y="307.584" style="stroke: #000000; stroke-width: 0.8"/>
      </g>
     </g>
     <g id="text_2">
      <!-- −30 -->
      <g transform="translate(125.815656 322.182437) scale(0.1 -0.1)">
       <defs>
        <path id="DejaVuSans-33" d="M 2597 2516 
Q 3050 2419 3304 2112 
Q 3559 1806 3559 1356 
Q 3559 666 3084 287 
Q 2609 -91 1734 -91 
Q 1441 -91 1130 -33 
Q 819 25 488 141 
L 488 750 
Q 750 597 1062 519 
Q 1375 441 1716 441 
Q 2309 441 2620 675 
Q 2931 909 2931 1356 
Q 2931 1769 2642 2001 
Q 2353 2234 1838 2234 
L 1294 2234 
L 1294 2753 
L 1863 2753 
Q 2328 2753 2575 2939 
Q 2822 3125 2822 3475 
Q 2822 3834 2567 4026 
Q 2313 4219 1838 4219 
Q 1578 4219 1281 4162 
Q 984 4106 628 3988 
L 628 4550 
Q 988 4650 1302 4700 
Q 1616 4750 1894 4750 
Q 2613 4750 3031 4423 
Q 3450 4097 3450 3541 
Q 3450 3153 3228 2886 
Q 3006 2619 2597 2516 
z
" transform="scale(0.015625)"/>
       </defs>
       <use xlink:href="#DejaVuSans-2212"/>
       <use xlink:href="#DejaVuSans-33" x="83.789062"/>
       <use xlink:href="#DejaVuSans-30" x="147.412109"/>
      </g>
     </g>
    </g>
    <g id="xtick_3">
     <g id="line2d_3">
      <g>
       <use xlink:href="#mc21b7f0f43" x="169.632" y="307.584" style="stroke: #000000; stroke-width: 0.8"/>
      </g>
     </g>
     <g id="text_3">
      <!-- −20 -->
      <g transform="translate(159.079656 322.182437) scale(0.1 -0.1)">
       <defs>
        <path id="DejaVuSans-32" d="M 1228 531 
L 3431 531 
L 3431 0 
L 469 0 
L 469 531 
Q 828 903 1448 1529 
Q 2069 2156 2228 2338 
Q 2531 2678 2651 2914 
Q 2772 3150 2772 3378 
Q 2772 3750 2511 3984 
Q 2250 4219 1831 4219 
Q 1534 4219 1204 4116 
Q 875 4013 500 3803 
L 500 4441 
Q 881 4594 1212 4672 
Q 1544 4750 1819 4750 
Q 2544 4750 2975 4387 
Q 3406 4025 3406 3419 
Q 3406 3131 3298 2873 
Q 3191 2616 2906 2266 
Q 2828 2175 2409 1742 
Q 1991 1309 1228 531 
z
" transform="scale(0.015625)"/>
       </defs>
       <use xlink:href="#DejaVuSans-2212"/>
       <use xlink:href="#DejaVuSans-32" x="83.789062"/>
       <use xlink:href="#DejaVuSans-30" x="147.412109"/>
      </g>
     </g>
    </g>
    <g id="xtick_4">
     <g id="line2d_4">
      <g>
       <use xlink:href="#mc21b7f0f43" x="202.896" y="307.584" style="stroke: #000000; stroke-width: 0.8"/>
      </g>
     </g>
     <g id="text_4">
      <!-- −10 -->
      <g transform="translate(192.343656 322.182437) scale(0.1 -0.1)">
       <defs>
        <path id="DejaVuSans-31" d="M 794 531 
L 1825 531 
L 1825 4091 
L 703 3866 
L 703 4441 
L 1819 4666 
L 2450 4666 
L 2450 531 
L 3481 531 
L 3481 0 
L 794 0 
L 794 531 
z
" transform="scale(0.015625)"/>
       </defs>
       <use xlink:href="#DejaVuSans-2212"/>
       <use xlink:href="#DejaVuSans-31" x="83.789062"/>
       <use xlink:href="#DejaVuSans-30" x="147.412109"/>
      </g>
     </g>
    </g>
    <g id="xtick_5">
     <g id="line2d_5">
      <g>
       <use xlink:href="#mc21b7f0f43" x="236.16" y="307.584" style="stroke: #000000; stroke-width: 0.8"/>
      </g>
     </g>
     <g id="text_5">
      <!-- 0 -->
      <g transform="translate(232.97875 322.182437) scale(0.1 -0.1)">
       <use xlink:href="#DejaVuSans-30"/>
      </g>
     </g>
    </g>
    <g id="xtick_6">
     <g id="line2d_6">
      <g>
       <use xlink:href="#mc21b7f0f43" x="269.424" y="307.584" style="stroke: #000000; stroke-width: 0.8"/>
      </g>
     </g>
     <g id="text_6">
      <!-- 10 -->
      <g transform="translate(263.0615 322.182437) scale(0.1 -0.1)">
       <use xlink:href="#DejaVuSans-31"/>
       <use xlink:href="#DejaVuSans-30" x="63.623047"/>
      </g>
     </g>
    </g>
    <g id="xtick_7">
     <g id="line2d_7">
      <g>
       <use xlink:href="#mc21b7f0f43" x="302.688" y="307.584" style="stroke: #000000; stroke-width: 0.8"/>
      </g>
     </g>
     <g id="text_7">
      <!-- 20 -->
      <g transform="translate(296.3255 322.182437) scale(0.1 -0.1)">
       <use xlink:href="#DejaVuSans-32"/>
       <use xlink:href="#DejaVuSans-30" x="63.623047"/>
      </g>
     </g>
    </g>
    <g id="xtick_8">
     <g id="line2d_8">
      <g>
       <use xlink:href="#mc21b7f0f43" x="335.952" y="307.584" style="stroke: #000000; stroke-width: 0.8"/>
      </g>
     </g>
     <g id="text_8">
      <!-- 30 -->
      <g transform="translate(329.5895 322.182437) scale(0.1 -0.1)">
       <use xlink:href="#DejaVuSans-33"/>
       <use xlink:href="#DejaVuSans-30" x="63.623047"/>
      </g>
     </g>
    </g>
    <g id="xtick_9">
     <g id="line2d_9">
      <g>
       <use xlink:href="#mc21b7f0f43" x="369.216" y="307.584" style="stroke: #000000; stroke-width: 0.8"/>
      </g>
     </g>
     <g id="text_9">
      <!-- 40 -->
      <g transform="translate(362.8535 322.182437) scale(0.1 -0.1)">
       <use xlink:href="#DejaVuSans-34"/>
       <use xlink:href="#DejaVuSans-30" x="63.623047"/>
      </g>
     </g>
    </g>
   </g>
   <g id="matplotlib.axis_2">
    <g id="ytick_1">
     <g id="line2d_10">
      <defs>
       <path id="ma96ee98453" d="M 0 0 
L -3.5 0 
" style="stroke: #000000; stroke-width: 0.8"/>
      </defs>
      <g>
       <use xlink:href="#ma96ee98453" x="103.104" y="307.584" style="stroke: #000000; stroke-width: 0.8"/>
      </g>
     </g>
     <g id="text_10">
      <!-- −40 -->
      <g transform="translate(74.999313 311.383219) scale(0.1 -0.1)">
       <use xlink:href="#DejaVuSans-2212"/>
       <use xlink:href="#DejaVuSans-34" x="83.789062"/>
       <use xlink:href="#DejaVuSans-30" x="147.412109"/>
      </g>
     </g>
    </g>
    <g id="ytick_2">
     <g id="line2d_11">
      <g>
       <use xlink:href="#ma96ee98453" x="103.104" y="274.32" style="stroke: #000000; stroke-width: 0.8"/>
      </g>
     </g>
     <g id="text_11">
      <!-- −30 -->
      <g transform="translate(74.999313 278.119219) scale(0.1 -0.1)">
       <use xlink:href="#DejaVuSans-2212"/>
       <use xlink:href="#DejaVuSans-33" x="83.789062"/>
       <use xlink:href="#DejaVuSans-30" x="147.412109"/>
      </g>
     </g>
    </g>
    <g id="ytick_3">
     <g id="line2d_12">
      <g>
       <use xlink:href="#ma96ee98453" x="103.104" y="241.056" style="stroke: #000000; stroke-width: 0.8"/>
      </g>
     </g>
     <g id="text_12">
      <!-- −20 -->
      <g transform="translate(74.999313 244.855219) scale(0.1 -0.1)">
       <use xlink:href="#DejaVuSans-2212"/>
       <use xlink:href="#DejaVuSans-32" x="83.789062"/>
       <use xlink:href="#DejaVuSans-30" x="147.412109"/>
      </g>
     </g>
    </g>
    <g id="ytick_4">
     <g id="line2d_13">
      <g>
       <use xlink:href="#ma96ee98453" x="103.104" y="207.792" style="stroke: #000000; stroke-width: 0.8"/>
      </g>
     </g>
     <g id="text_13">
      <!-- −10 -->
      <g transform="translate(74.999313 211.591219) scale(0.1 -0.1)">
       <use xlink:href="#DejaVuSans-2212"/>
       <use xlink:href="#DejaVuSans-31" x="83.789062"/>
       <use xlink:href="#DejaVuSans-30" x="147.412109"/>
      </g>
     </g>
    </g>
    <g id="ytick_5">
     <g id="line2d_14">
      <g>
       <use xlink:href="#ma96ee98453" x="103.104" y="174.528" style="stroke: #000000; stroke-width: 0.8"/>
      </g>
     </g>
     <g id="text_14">
      <!-- 0 -->
      <g transform="translate(89.7415 178.327219) scale(0.1 -0.1)">
       <use xlink:href="#DejaVuSans-30"/>
      </g>
     </g>
    </g>
    <g id="ytick_6">
     <g id="line2d_15">
      <g>
       <use xlink:href="#ma96ee98453" x="103.104" y="141.264" style="stroke: #000000; stroke-width: 0.8"/>
      </g>
     </g>
     <g id="text_15">
      <!-- 10 -->
      <g transform="translate(83.379 145.063219) scale(0.1 -0.1)">
       <use xlink:href="#DejaVuSans-31"/>
       <use xlink:href="#DejaVuSans-30" x="63.623047"/>
      </g>
     </g>
    </g>
    <g id="ytick_7">
     <g id="line2d_16">
      <g>
       <use xlink:href="#ma96ee98453" x="103.104" y="108" style="stroke: #000000; stroke-width: 0.8"/>
      </g>
     </g>
     <g id="text_16">
      <!-- 20 -->
      <g transform="translate(83.379 111.799219) scale(0.1 -0.1)">
       <use xlink:href="#DejaVuSans-32"/>
       <use xlink:href="#DejaVuSans-30" x="63.623047"/>
      </g>
     </g>
    </g>
    <g id="ytick_8">
     <g id="line2d_17">
      <g>
       <use xlink:href="#ma96ee98453" x="103.104" y="74.736" style="stroke: #000000; stroke-width: 0.8"/>
      </g>
     </g>
     <g id="text_17">
      <!-- 30 -->
      <g transform="translate(83.379 78.535219) scale(0.1 -0.1)">
       <use xlink:href="#DejaVuSans-33"/>
       <use xlink:href="#DejaVuSans-30" x="63.623047"/>
      </g>
     </g>
    </g>
    <g id="ytick_9">
     <g id="line2d_18">
      <g>
       <use xlink:href="#ma96ee98453" x="103.104" y="41.472" style="stroke: #000000; stroke-width: 0.8"/>
      </g>
     </g>
     <g id="text_18">
      <!-- 40 -->
      <g transform="translate(83.379 45.271219) scale(0.1 -0.1)">
       <use xlink:href="#DejaVuSans-34"/>
       <use xlink:href="#DejaVuSans-30" x="63.623047"/>
      </g>
     </g>
    </g>
   </g>
   <g id="line2d_19">
    <path d="M 249.4656 287.6256 
L 249.4656 187.8336 
" clip-path="url(#p51ec4f7c4b)" style="fill: none; stroke: #000000; stroke-width: 0.25; stroke-linecap: square"/>
   </g>
   <g id="line2d_20">
    <path d="M 249.4656 187.8336 
L 349.2576 187.8336 
" clip-path="url(#p51ec4f7c4b)" style="fill: none; stroke: #000000; stroke-width: 0.25; stroke-linecap: square"/>
   </g>
   <g id="line2d_21">
    <path d="M 349.2576 161.2224 
L 249.4656 161.2224 
" clip-path="url(#p51ec4f7c4b)" style="fill: none; stroke: #000000; stroke-width: 0.25; stroke-linecap: square"/>
   </g>
   <g id="line2d_22">
    <path d="M 249.4656 161.2224 
L 249.4656 61.4304 
" clip-path="url(#p51ec4f7c4b)" style="fill: none; stroke: #000000; stroke-width: 0.25; stroke-linecap: square"/>
   </g>
   <g id="line2d_23">
    <path d="M 222.8544 61.4304 
L 222.8544 161.2224 
" clip-path="url(#p51ec4f7c4b)" style="fill: none; stroke: #000000; stroke-width: 0.25; stroke-linecap: square"/>
   </g>
   <g id="line2d_24">
    <path d="M 222.8544 161.2224 
L 123.0624 161.2224 
" clip-path="url(#p51ec4f7c4b)" style="fill: none; stroke: #000000; stroke-width: 0.25; stroke-linecap: square"/>
   </g>
   <g id="line2d_25">
    <path d="M 123.0624 187.8336 
L 222.8544 187.8336 
" clip-path="url(#p51ec4f7c4b)" style="fill: none; stroke: #000000; stroke-width: 0.25; stroke-linecap: square"/>
   </g>
   <g id="line2d_26">
    <path d="M 222.8544 187.8336 
L 222.8544 287.6256 
" clip-path="url(#p51ec4f7c4b)" style="fill: none; stroke: #000000; stroke-width: 0.25; stroke-linecap: square"/>
   </g>
   <g id="line2d_27">
    <path d="M 249.4656 174.528 
L 349.2576 174.528 
" clip-path="url(#p51ec4f7c4b)" style="fill: none; stroke-dasharray: 0.925,0.4; stroke-dashoffset: 0; stroke: #000000; stroke-width: 0.25"/>
   </g>
   <g id="line2d_28">
    <path d="M 236.16 161.2224 
L 236.16 61.4304 
" clip-path="url(#p51ec4f7c4b)" style="fill: none; stroke-dasharray: 0.925,0.4; stroke-dashoffset: 0; stroke: #000000; stroke-width: 0.25"/>
   </g>
   <g id="line2d_29">
    <path d="M 222.8544 174.528 
L 123.0624 174.528 
" clip-path="url(#p51ec4f7c4b)" style="fill: none; stroke-dasharray: 0.925,0.4; stroke-dashoffset: 0; stroke: #000000; stroke-width: 0.25"/>
   </g>
   <g id="line2d_30">
    <path d="M 236.16 187.8336 
L 236.16 287.6256 
" clip-path="url(#p51ec4f7c4b)" style="fill: none; stroke-dasharray: 0.925,0.4; stroke-dashoffset: 0; stroke: #000000; stroke-width: 0.25"/>
   </g>
   <g id="line2d_31">
    <path d="M 127.378717 169.016644 
L 126.105725 169.016643 
L 124.832729 169.016642 
L 123.55973 169.016641 
L 122.286728 169.01664 
L 121.013724 169.01664 
L 119.740719 169.01664 
L 118.467711 169.016639 
L 117.194702 169.016639 
L 115.921692 169.016639 
L 114.648681 169.016639 
L 113.37567 169.016639 
L 112.102658 169.016639 
L 110.829646 169.016639 
L 109.556634 169.01664 
L 108.283622 169.01664 
L 107.01061 169.01664 
L 105.737598 169.01664 
L 104.464586 169.01664 
L 103.191574 169.01664 
L 101.918563 169.01664 
L 100.645551 169.01664 
L 99.37254 169.01664 
L 98.099529 169.01664 
L 96.826519 169.01664 
L 95.553508 169.01664 
L 94.280498 169.01664 
L 93.007487 169.01664 
L 91.734477 169.01664 
L 90.461467 169.01664 
L 89.188457 169.01664 
" clip-path="url(#p51ec4f7c4b)" style="fill: none; stroke: #ff0000; stroke-opacity: 0.333333; stroke-width: 0.25; stroke-linecap: square"/>
   </g>
   <g id="line2d_32">
    <path d="M 127.378717 169.016644 
L 126.105725 169.016643 
L 124.832729 169.016642 
L 123.55973 169.016641 
L 122.286728 169.01664 
L 121.013724 169.01664 
L 119.740719 169.01664 
L 118.467711 169.016639 
L 117.194702 169.016639 
L 115.921692 169.016639 
L 114.648681 169.016639 
L 113.37567 169.016639 
L 112.102658 169.016639 
L 110.829646 169.016639 
L 109.556634 169.016639 
L 108.283622 169.01664 
L 107.01061 169.01664 
L 105.737598 169.01664 
L 104.464586 169.01664 
L 103.191574 169.01664 
L 101.918563 169.01664 
L 100.645551 169.01664 
L 99.37254 169.01664 
L 98.099529 169.01664 
L 96.826518 169.01664 
L 95.553508 169.01664 
L 94.280497 169.01664 
L 93.007487 169.01664 
L 91.734476 169.01664 
L 90.461466 169.01664 
L 89.188456 169.01664 
" clip-path="url(#p51ec4f7c4b)" style="fill: none; stroke: #ff0000; stroke-opacity: 0.666667; stroke-width: 0.25; stroke-linecap: square"/>
   </g>
   <g id="line2d_33">
    <path d="M 127.378717 169.016644 
L 126.105725 169.016643 
L 124.832729 169.016642 
L 123.55973 169.016641 
L 122.286728 169.016641 
L 121.013724 169.01664 
L 119.740719 169.01664 
L 118.467711 169.016639 
L 117.194702 169.016639 
L 115.921692 169.016639 
L 114.648681 169.016639 
L 113.37567 169.016639 
L 112.102658 169.016639 
L 110.829646 169.016639 
L 109.556634 169.016639 
L 108.283622 169.01664 
L 107.01061 169.01664 
L 105.737598 169.01664 
L 104.464586 169.01664 
L 103.191574 169.01664 
L 101.918563 169.01664 
L 100.645551 169.01664 
L 99.37254 169.01664 
L 98.099529 169.01664 
L 96.826519 169.01664 
L 95.553508 169.01664 
L 94.280498 169.01664 
L 93.007487 169.01664 
L 91.734477 169.01664 
L 90.461467 169.01664 
L 89.188457 169.01664 
" clip-path="url(#p51ec4f7c4b)" style="fill: none; stroke: #ff0000; stroke-width: 0.25; stroke-linecap: square"/>
   </g>
   <g id="line2d_34">
    <path d="M 241.671361 60.016102 
L 241.671361 58.83928 
L 241.671361 57.662458 
L 241.67136 56.485637 
L 241.67136 55.308817 
L 241.67136 54.131997 
L 241.67136 52.955178 
L 241.67136 51.778359 
L 241.67136 50.601541 
L 241.67136 49.424722 
L 241.67136 48.247905 
L 241.67136 47.071087 
L 241.67136 45.89427 
L 241.67136 44.717453 
L 241.67136 43.540635 
L 241.67136 42.363818 
L 241.67136 41.187001 
L 241.67136 40.010184 
L 241.67136 38.833367 
L 241.67136 37.65655 
L 241.67136 36.479733 
L 241.67136 35.302916 
L 241.67136 34.126099 
L 241.67136 32.949282 
L 241.67136 31.772465 
L 241.67136 30.595648 
L 241.67136 29.418831 
L 241.67136 28.242013 
L 241.67136 27.065196 
L 241.67136 25.888379 
L 241.67136 24.711562 
" clip-path="url(#p51ec4f7c4b)" style="fill: none; stroke: #ff0000; stroke-opacity: 0.333333; stroke-width: 0.25; stroke-linecap: square"/>
   </g>
   <g id="line2d_35">
    <path d="M 241.671361 60.016102 
L 241.671361 58.83928 
L 241.671361 57.662458 
L 241.67136 56.485637 
L 241.67136 55.308817 
L 241.67136 54.131997 
L 241.67136 52.955178 
L 241.67136 51.778359 
L 241.67136 50.601541 
L 241.67136 49.424722 
L 241.67136 48.247905 
L 241.67136 47.071087 
L 241.67136 45.89427 
L 241.67136 44.717453 
L 241.67136 43.540635 
L 241.67136 42.363818 
L 241.67136 41.187001 
L 241.67136 40.010184 
L 241.67136 38.833367 
L 241.67136 37.65655 
L 241.67136 36.479733 
L 241.67136 35.302916 
L 241.67136 34.126099 
L 241.67136 32.949282 
L 241.67136 31.772465 
L 241.67136 30.595648 
L 241.67136 29.418831 
L 241.67136 28.242014 
L 241.67136 27.065196 
L 241.67136 25.888379 
L 241.67136 24.711562 
" clip-path="url(#p51ec4f7c4b)" style="fill: none; stroke: #ff0000; stroke-opacity: 0.666667; stroke-width: 0.25; stroke-linecap: square"/>
   </g>
   <g id="line2d_36">
    <path d="M 241.671361 60.016102 
L 241.671361 58.83928 
L 241.671361 57.662458 
L 241.67136 56.485637 
L 241.67136 55.308817 
L 241.67136 54.131997 
L 241.67136 52.955178 
L 241.67136 51.778359 
L 241.67136 50.601541 
L 241.67136 49.424722 
L 241.67136 48.247905 
L 241.67136 47.071087 
L 241.67136 45.89427 
L 241.67136 44.717453 
L 241.67136 43.540635 
L 241.67136 42.363818 
L 241.67136 41.187001 
L 241.67136 40.010184 
L 241.67136 38.833367 
L 241.67136 37.65655 
L 241.67136 36.479733 
L 241.67136 35.302916 
L 241.67136 34.126099 
L 241.67136 32.949282 
L 241.67136 31.772465 
L 241.67136 30.595648 
L 241.67136 29.418831 
L 241.67136 28.242013 
L 241.67136 27.065196 
L 241.67136 25.888379 
L 241.67136 24.711562 
" clip-path="url(#p51ec4f7c4b)" style="fill: none; stroke: #ff0000; stroke-width: 0.25; stroke-linecap: square"/>
   </g>
   <g id="line2d_37">
    <path d="M 230.648641 284.594832 
L 230.648641 285.851471 
L 230.64864 287.108111 
L 230.64864 288.364752 
L 230.64864 289.621394 
L 230.64864 290.878037 
L 230.64864 292.13468 
L 230.64864 293.391323 
L 230.64864 294.647967 
L 230.64864 295.90461 
L 230.64864 297.161254 
L 230.64864 298.417897 
L 230.64864 299.674541 
L 230.64864 300.931184 
L 230.64864 302.187826 
L 230.64864 303.444469 
L 230.64864 304.701111 
L 230.64864 305.957753 
L 230.64864 307.214395 
L 230.64864 308.471036 
L 230.64864 309.727678 
L 230.64864 310.984319 
L 230.64864 312.240959 
L 230.64864 313.4976 
L 230.64864 314.754241 
L 230.64864 316.010881 
L 230.64864 317.267521 
L 230.64864 318.524162 
L 230.64864 319.780802 
L 230.64864 321.037442 
L 230.64864 322.294082 
" clip-path="url(#p51ec4f7c4b)" style="fill: none; stroke: #ff0000; stroke-opacity: 0.333333; stroke-width: 0.25; stroke-linecap: square"/>
   </g>
   <g id="line2d_38">
    <path d="M 230.648641 284.594832 
L 230.648641 285.851471 
L 230.64864 287.108111 
L 230.64864 288.364752 
L 230.64864 289.621394 
L 230.64864 290.878037 
L 230.64864 292.13468 
L 230.64864 293.391323 
L 230.64864 294.647967 
L 230.64864 295.90461 
L 230.64864 297.161254 
L 230.64864 298.417897 
L 230.64864 299.674541 
L 230.64864 300.931184 
L 230.64864 302.187826 
L 230.64864 303.444469 
L 230.64864 304.701111 
L 230.64864 305.957753 
L 230.64864 307.214395 
L 230.64864 308.471036 
L 230.64864 309.727677 
L 230.64864 310.984319 
L 230.64864 312.240959 
L 230.64864 313.4976 
L 230.64864 314.754241 
L 230.64864 316.010881 
L 230.64864 317.267522 
L 230.64864 318.524162 
L 230.64864 319.780802 
L 230.64864 321.037442 
L 230.64864 322.294083 
" clip-path="url(#p51ec4f7c4b)" style="fill: none; stroke: #ff0000; stroke-opacity: 0.666667; stroke-width: 0.25; stroke-linecap: square"/>
   </g>
   <g id="line2d_39">
    <path d="M 230.648641 284.594832 
L 230.648641 285.851471 
L 230.64864 287.108111 
L 230.64864 288.364752 
L 230.64864 289.621394 
L 230.64864 290.878037 
L 230.64864 292.13468 
L 230.64864 293.391323 
L 230.64864 294.647967 
L 230.64864 295.90461 
L 230.64864 297.161254 
L 230.64864 298.417897 
L 230.64864 299.674541 
L 230.64864 300.931184 
L 230.64864 302.187826 
L 230.64864 303.444469 
L 230.64864 304.701111 
L 230.64864 305.957753 
L 230.64864 307.214395 
L 230.64864 308.471036 
L 230.64864 309.727677 
L 230.64864 310.984319 
L 230.64864 312.240959 
L 230.64864 313.4976 
L 230.64864 314.754241 
L 230.64864 316.010881 
L 230.64864 317.267521 
L 230.64864 318.524162 
L 230.64864 319.780802 
L 230.64864 321.037442 
L 230.64864 322.294082 
" clip-path="url(#p51ec4f7c4b)" style="fill: none; stroke: #ff0000; stroke-width: 0.25; stroke-linecap: square"/>
   </g>
   <g id="line2d_40">
    <path d="M 346.226838 180.039359 
L 347.483476 180.039359 
L 348.740116 180.03936 
L 349.996757 180.03936 
L 351.253399 180.03936 
L 352.510042 180.03936 
L 353.766684 180.03936 
L 355.023327 180.03936 
L 356.279971 180.03936 
L 357.536614 180.03936 
L 358.793257 180.03936 
L 360.0499 180.03936 
L 361.306543 180.03936 
L 362.563185 180.03936 
L 363.819828 180.03936 
L 365.07647 180.03936 
L 366.333112 180.03936 
L 367.589754 180.03936 
L 368.846395 180.03936 
L 370.103037 180.03936 
L 371.359678 180.03936 
L 372.616319 180.03936 
L 373.872959 180.03936 
L 375.1296 180.03936 
L 376.386241 180.03936 
L 377.642881 180.03936 
L 378.899521 180.03936 
L 380.156161 180.03936 
L 381.412802 180.03936 
L 382.669442 180.03936 
L 383.926082 180.03936 
" clip-path="url(#p51ec4f7c4b)" style="fill: none; stroke: #ff0000; stroke-opacity: 0.333333; stroke-width: 0.25; stroke-linecap: square"/>
   </g>
   <g id="line2d_41">
    <path d="M 346.226838 180.039359 
L 347.483476 180.039359 
L 348.740116 180.03936 
L 349.996757 180.03936 
L 351.253399 180.03936 
L 352.510042 180.03936 
L 353.766684 180.03936 
L 355.023327 180.03936 
L 356.279971 180.03936 
L 357.536614 180.03936 
L 358.793257 180.03936 
L 360.0499 180.03936 
L 361.306543 180.03936 
L 362.563185 180.03936 
L 363.819828 180.03936 
L 365.07647 180.03936 
L 366.333112 180.03936 
L 367.589754 180.03936 
L 368.846395 180.03936 
L 370.103037 180.03936 
L 371.359678 180.03936 
L 372.616319 180.03936 
L 373.87296 180.03936 
L 375.1296 180.03936 
L 376.386241 180.03936 
L 377.642881 180.03936 
L 378.899521 180.03936 
L 380.156162 180.03936 
L 381.412802 180.03936 
L 382.669442 180.03936 
L 383.926082 180.03936 
" clip-path="url(#p51ec4f7c4b)" style="fill: none; stroke: #ff0000; stroke-opacity: 0.666667; stroke-width: 0.25; stroke-linecap: square"/>
   </g>
   <g id="line2d_42">
    <path d="M 346.226838 180.039359 
L 347.483476 180.039359 
L 348.740116 180.03936 
L 349.996757 180.03936 
L 351.253399 180.03936 
L 352.510042 180.03936 
L 353.766684 180.03936 
L 355.023327 180.03936 
L 356.279971 180.03936 
L 357.536614 180.03936 
L 358.793257 180.03936 
L 360.0499 180.03936 
L 361.306543 180.03936 
L 362.563185 180.03936 
L 363.819828 180.03936 
L 365.07647 180.03936 
L 366.333112 180.03936 
L 367.589754 180.03936 
L 368.846395 180.03936 
L 370.103037 180.03936 
L 371.359678 180.03936 
L 372.616319 180.03936 
L 373.872959 180.03936 
L 375.1296 180.03936 
L 376.386241 180.03936 
L 377.642881 180.03936 
L 378.899521 180.03936 
L 380.156162 180.03936 
L 381.412802 180.03936 
L 382.669442 180.03936 
L 383.926082 180.03936 
" clip-path="url(#p51ec4f7c4b)" style="fill: none; stroke: #ff0000; stroke-width: 0.25; stroke-linecap: square"/>
   </g>
   <g id="line2d_43">
    <path d="M 241.671434 97.131289 
L 241.671404 95.874557 
L 241.671377 94.617906 
L 241.671358 93.361316 
L 241.671346 92.104775 
L 241.671339 90.84827 
L 241.671335 89.59179 
L 241.671334 88.335327 
L 241.671335 87.078873 
L 241.671337 85.822422 
L 241.671339 84.565969 
L 241.671342 83.309509 
L 241.671345 82.05304 
L 241.671347 80.796559 
L 241.67135 79.540066 
L 241.671352 78.283559 
L 241.671354 77.027039 
L 241.671356 75.770504 
L 241.671358 74.513956 
L 241.671359 73.257395 
L 241.67136 72.000822 
L 241.671361 70.744237 
L 241.671362 69.487643 
L 241.671363 68.231041 
L 241.671363 66.97443 
L 241.671364 65.717814 
L 241.671364 64.461191 
L 241.671364 63.204565 
L 241.671364 61.947936 
L 241.671363 60.691304 
L 241.671362 59.434672 
" clip-path="url(#p51ec4f7c4b)" style="fill: none; stroke: #ff0000; stroke-opacity: 0.333333; stroke-width: 0.25; stroke-linecap: square"/>
   </g>
   <g id="line2d_44">
    <path d="M 241.671434 97.131289 
L 241.671411 95.874557 
L 241.671382 94.617906 
L 241.671361 93.361316 
L 241.671348 92.104775 
L 241.67134 90.84827 
L 241.671336 89.59179 
L 241.671334 88.335327 
L 241.671335 87.078872 
L 241.671336 85.82242 
L 241.671339 84.565966 
L 241.671341 83.309506 
L 241.671344 82.053037 
L 241.671347 80.796556 
L 241.671349 79.540063 
L 241.671352 78.283556 
L 241.671354 77.027035 
L 241.671356 75.7705 
L 241.671357 74.513952 
L 241.671359 73.257392 
L 241.67136 72.000819 
L 241.671361 70.744236 
L 241.671362 69.487643 
L 241.671363 68.231042 
L 241.671363 66.974434 
L 241.671364 65.717819 
L 241.671364 64.4612 
L 241.671364 63.204576 
L 241.671363 61.94795 
L 241.671362 60.691323 
L 241.67136 59.434694 
" clip-path="url(#p51ec4f7c4b)" style="fill: none; stroke: #ff0000; stroke-opacity: 0.666667; stroke-width: 0.25; stroke-linecap: square"/>
   </g>
   <g id="line2d_45">
    <path d="M 241.671434 97.131289 
L 241.671416 95.874557 
L 241.671386 94.617906 
L 241.671364 93.361316 
L 241.67135 92.104775 
L 241.671341 90.84827 
L 241.671337 89.59179 
L 241.671335 88.335327 
L 241.671335 87.078873 
L 241.671336 85.822421 
L 241.671338 84.565967 
L 241.671341 83.309507 
L 241.671344 82.053038 
L 241.671347 80.796557 
L 241.671349 79.540064 
L 241.671352 78.283557 
L 241.671354 77.027036 
L 241.671356 75.770501 
L 241.671358 74.513953 
L 241.671359 73.257392 
L 241.67136 72.000819 
L 241.671361 70.744236 
L 241.671362 69.487642 
L 241.671363 68.23104 
L 241.671364 66.97443 
L 241.671364 65.717815 
L 241.671364 64.461194 
L 241.671364 63.204569 
L 241.671364 61.947941 
L 241.671363 60.691312 
L 241.671361 59.434682 
" clip-path="url(#p51ec4f7c4b)" style="fill: none; stroke: #ff0000; stroke-width: 0.25; stroke-linecap: square"/>
   </g>
   <g id="line2d_46">
    <path d="M 158.763398 169.016603 
L 157.506803 169.016622 
L 156.250254 169.016639 
L 154.993738 169.016649 
L 153.737246 169.016656 
L 152.480769 169.016659 
L 151.224301 169.01666 
L 149.967834 169.016659 
L 148.711366 169.016658 
L 147.454893 169.016656 
L 146.19841 169.016654 
L 144.941918 169.016651 
L 143.685413 169.016649 
L 142.428896 169.016647 
L 141.172367 169.016645 
L 139.915824 169.016644 
L 138.659269 169.016642 
L 137.402702 169.016641 
L 136.146123 169.01664 
L 134.889534 169.016639 
L 133.632936 169.016639 
L 132.376329 169.016638 
L 131.119715 169.016638 
L 129.863094 169.016637 
L 128.606468 169.016637 
L 127.349837 169.016637 
L 126.093202 169.016637 
L 124.836564 169.016637 
L 123.579924 169.016637 
L 122.323283 169.016638 
L 121.06664 169.016639 
" clip-path="url(#p51ec4f7c4b)" style="fill: none; stroke: #ff0000; stroke-opacity: 0.333333; stroke-width: 0.25; stroke-linecap: square"/>
   </g>
   <g id="line2d_47">
    <path d="M 158.763398 169.016603 
L 157.506803 169.016619 
L 156.250254 169.016636 
L 154.993738 169.016647 
L 153.737246 169.016654 
L 152.480769 169.016658 
L 151.2243 169.016659 
L 149.967834 169.016659 
L 148.711365 169.016658 
L 147.454891 169.016656 
L 146.198409 169.016654 
L 144.941916 169.016652 
L 143.685411 169.016649 
L 142.428894 169.016647 
L 141.172364 169.016646 
L 139.915821 169.016644 
L 138.659266 169.016642 
L 137.402699 169.016641 
L 136.14612 169.01664 
L 134.889532 169.016639 
L 133.632934 169.016639 
L 132.376327 169.016638 
L 131.119714 169.016638 
L 129.863094 169.016637 
L 128.606468 169.016637 
L 127.349838 169.016637 
L 126.093205 169.016637 
L 124.836569 169.016637 
L 123.579931 169.016637 
L 122.323292 169.016638 
L 121.066652 169.01664 
" clip-path="url(#p51ec4f7c4b)" style="fill: none; stroke: #ff0000; stroke-opacity: 0.666667; stroke-width: 0.25; stroke-linecap: square"/>
   </g>
   <g id="line2d_48">
    <path d="M 158.763398 169.016603 
L 157.506803 169.016615 
L 156.250254 169.016634 
L 154.993739 169.016646 
L 153.737246 169.016653 
L 152.480769 169.016658 
L 151.2243 169.016659 
L 149.967834 169.016659 
L 148.711366 169.016658 
L 147.454892 169.016656 
L 146.19841 169.016654 
L 144.941917 169.016652 
L 143.685412 169.01665 
L 142.428895 169.016648 
L 141.172365 169.016646 
L 139.915822 169.016644 
L 138.659267 169.016642 
L 137.4027 169.016641 
L 136.146121 169.01664 
L 134.889533 169.016639 
L 133.632934 169.016639 
L 132.376328 169.016638 
L 131.119714 169.016638 
L 129.863093 169.016637 
L 128.606467 169.016637 
L 127.349837 169.016637 
L 126.093203 169.016637 
L 124.836566 169.016637 
L 123.579927 169.016637 
L 122.323287 169.016638 
L 121.066646 169.016639 
" clip-path="url(#p51ec4f7c4b)" style="fill: none; stroke: #ff0000; stroke-width: 0.25; stroke-linecap: square"/>
   </g>
   <g id="line2d_49">
    <path d="M 311.845207 180.03948 
L 313.118524 180.039438 
L 314.391719 180.039398 
L 315.664814 180.03937 
L 316.937827 180.03935 
L 318.210776 180.039338 
L 319.483674 180.039331 
L 320.756536 180.039327 
L 322.029372 180.039327 
L 323.302191 180.039328 
L 324.575001 180.03933 
L 325.847809 180.039334 
L 327.120621 180.039337 
L 328.393439 180.03934 
L 329.666268 180.039344 
L 330.939108 180.039347 
L 332.211963 180.03935 
L 333.484832 180.039352 
L 334.757715 180.039355 
L 336.030613 180.039357 
L 337.303525 180.039358 
L 338.57645 180.03936 
L 339.849388 180.039361 
L 341.122336 180.039362 
L 342.395293 180.039364 
L 343.668259 180.039364 
L 344.941232 180.039365 
L 346.21421 180.039365 
L 347.487193 180.039365 
L 348.760178 180.039364 
L 350.033164 180.039362 
" clip-path="url(#p51ec4f7c4b)" style="fill: none; stroke: #ff0000; stroke-opacity: 0.333333; stroke-width: 0.25; stroke-linecap: square"/>
   </g>
   <g id="line2d_50">
    <path d="M 311.845207 180.03948 
L 313.118524 180.039447 
L 314.391719 180.039405 
L 315.664813 180.039375 
L 316.937827 180.039354 
L 318.210776 180.03934 
L 319.483675 180.039332 
L 320.756537 180.039328 
L 322.029373 180.039327 
L 323.302193 180.039328 
L 324.575004 180.03933 
L 325.847813 180.039333 
L 327.120625 180.039336 
L 328.393443 180.03934 
L 329.666272 180.039343 
L 330.939113 180.039346 
L 332.211967 180.039349 
L 333.484836 180.039352 
L 334.757719 180.039354 
L 336.030616 180.039356 
L 337.303527 180.039358 
L 338.57645 180.03936 
L 339.849386 180.039361 
L 341.122331 180.039362 
L 342.395286 180.039363 
L 343.668248 180.039364 
L 344.941217 180.039365 
L 346.21419 180.039365 
L 347.487168 180.039364 
L 348.760147 180.039363 
L 350.033127 180.03936 
" clip-path="url(#p51ec4f7c4b)" style="fill: none; stroke: #ff0000; stroke-opacity: 0.666667; stroke-width: 0.25; stroke-linecap: square"/>
   </g>
   <g id="line2d_51">
    <path d="M 311.845207 180.03948 
L 313.118524 180.039456 
L 314.391719 180.039411 
L 315.664813 180.039379 
L 316.937827 180.039357 
L 318.210775 180.039342 
L 319.483674 180.039333 
L 320.756536 180.039328 
L 322.029372 180.039327 
L 323.302192 180.039328 
L 324.575003 180.03933 
L 325.847812 180.039332 
L 327.120623 180.039336 
L 328.393442 180.039339 
L 329.666271 180.039343 
L 330.939112 180.039346 
L 332.211966 180.039349 
L 333.484835 180.039352 
L 334.757719 180.039354 
L 336.030616 180.039356 
L 337.303528 180.039358 
L 338.576452 180.03936 
L 339.849389 180.039362 
L 341.122336 180.039363 
L 342.395292 180.039364 
L 343.668256 180.039365 
L 344.941227 180.039365 
L 346.214203 180.039365 
L 347.487183 180.039365 
L 348.760165 180.039364 
L 350.033148 180.039361 
" clip-path="url(#p51ec4f7c4b)" style="fill: none; stroke: #ff0000; stroke-width: 0.25; stroke-linecap: square"/>
   </g>
   <g id="line2d_52">
    <path d="M 241.671633 122.052936 
L 241.671581 120.963259 
L 241.671518 119.873777 
L 241.671467 118.784477 
L 241.671427 117.695348 
L 241.671395 116.606376 
L 241.671371 115.517546 
L 241.671354 114.428844 
L 241.671342 113.340255 
L 241.671333 112.251764 
L 241.671328 111.163357 
L 241.671326 110.075023 
L 241.671325 108.986749 
L 241.671325 107.898524 
L 241.671327 106.810339 
L 241.671329 105.722184 
L 241.671332 104.634054 
L 241.671335 103.545941 
L 241.671338 102.45784 
L 241.671341 101.369746 
L 241.671344 100.281657 
L 241.671347 99.193569 
L 241.67135 98.10548 
L 241.671353 97.017389 
L 241.671355 95.929295 
L 241.671358 94.841197 
L 241.67136 93.753097 
L 241.671361 92.664993 
L 241.671362 91.576887 
L 241.671362 90.488779 
L 241.671361 89.40067 
" clip-path="url(#p51ec4f7c4b)" style="fill: none; stroke: #ff0000; stroke-opacity: 0.333333; stroke-width: 0.25; stroke-linecap: square"/>
   </g>
   <g id="line2d_53">
    <path d="M 241.671633 122.052936 
L 241.671598 120.963259 
L 241.671531 119.873777 
L 241.671476 118.784478 
L 241.671433 117.695349 
L 241.6714 116.606376 
L 241.671374 115.517546 
L 241.671355 114.428844 
L 241.671342 113.340254 
L 241.671332 112.251762 
L 241.671327 111.163356 
L 241.671324 110.075021 
L 241.671323 108.986747 
L 241.671323 107.898522 
L 241.671325 106.810337 
L 241.671327 105.722183 
L 241.67133 104.634054 
L 241.671333 103.545942 
L 241.671337 102.457843 
L 241.67134 101.369752 
L 241.671344 100.281666 
L 241.671347 99.193581 
L 241.67135 98.105496 
L 241.671353 97.01741 
L 241.671355 95.929322 
L 241.671358 94.84123 
L 241.67136 93.753136 
L 241.671361 92.66504 
L 241.671362 91.576942 
L 241.671362 90.488842 
L 241.671361 89.400742 
" clip-path="url(#p51ec4f7c4b)" style="fill: none; stroke: #ff0000; stroke-opacity: 0.666667; stroke-width: 0.25; stroke-linecap: square"/>
   </g>
   <g id="line2d_54">
    <path d="M 241.671633 122.052936 
L 241.671614 120.963259 
L 241.671542 119.873777 
L 241.671484 118.784478 
L 241.671438 117.695349 
L 241.671402 116.606377 
L 241.671375 115.517547 
L 241.671355 114.428844 
L 241.671341 113.340254 
L 241.671332 112.251763 
L 241.671326 111.163356 
L 241.671323 110.075021 
L 241.671322 108.986747 
L 241.671323 107.898521 
L 241.671325 106.810336 
L 241.671327 105.722182 
L 241.67133 104.634052 
L 241.671334 103.545939 
L 241.671337 102.457839 
L 241.671341 101.369746 
L 241.671344 100.281658 
L 241.671347 99.193571 
L 241.671351 98.105484 
L 241.671353 97.017395 
L 241.671356 95.929304 
L 241.671358 94.841209 
L 241.67136 93.753112 
L 241.671361 92.665011 
L 241.671362 91.576909 
L 241.671362 90.488805 
L 241.671361 89.4007 
" clip-path="url(#p51ec4f7c4b)" style="fill: none; stroke: #ff0000; stroke-width: 0.25; stroke-linecap: square"/>
   </g>
   <g id="line2d_55">
    <path d="M 284.759072 180.040746 
L 285.939472 180.040604 
L 287.119314 180.040459 
L 288.298637 180.040296 
L 289.477491 180.040135 
L 290.655925 180.039984 
L 291.833988 180.039851 
L 293.011729 180.039736 
L 294.189193 180.03964 
L 295.366422 180.039562 
L 296.543455 180.0395 
L 297.720328 180.039452 
L 298.897073 180.039416 
L 300.073717 180.039389 
L 301.250286 180.03937 
L 302.4268 180.039357 
L 303.603278 180.039349 
L 304.779733 180.039345 
L 305.956179 180.039344 
L 307.132624 180.039345 
L 308.309075 180.039347 
L 309.485538 180.039351 
L 310.662016 180.039355 
L 311.838511 180.039359 
L 313.015022 180.039363 
L 314.19155 180.039367 
L 315.368093 180.03937 
L 316.544649 180.039372 
L 317.721214 180.039373 
L 318.897786 180.039371 
L 320.074362 180.039367 
" clip-path="url(#p51ec4f7c4b)" style="fill: none; stroke: #ff0000; stroke-opacity: 0.333333; stroke-width: 0.25; stroke-linecap: square"/>
   </g>
   <g id="line2d_56">
    <path d="M 284.759072 180.040746 
L 285.939472 180.040576 
L 287.119315 180.04044 
L 288.298639 180.040284 
L 289.477493 180.040127 
L 290.655927 180.03998 
L 291.833991 180.039849 
L 293.011732 180.039736 
L 294.189196 180.039641 
L 295.366426 180.039564 
L 296.543459 180.039503 
L 297.720332 180.039455 
L 298.897076 180.039419 
L 300.073719 180.039392 
L 301.250287 180.039373 
L 302.426799 180.03936 
L 303.603274 180.039352 
L 304.779726 180.039348 
L 305.956167 180.039346 
L 307.132606 180.039347 
L 308.30905 180.039349 
L 309.485505 180.039352 
L 310.661972 180.039355 
L 311.838454 180.039359 
L 313.014951 180.039363 
L 314.191463 180.039366 
L 315.367987 180.039369 
L 316.544523 180.03937 
L 317.721066 180.03937 
L 318.897615 180.039368 
L 320.074166 180.039362 
" clip-path="url(#p51ec4f7c4b)" style="fill: none; stroke: #ff0000; stroke-opacity: 0.666667; stroke-width: 0.25; stroke-linecap: square"/>
   </g>
   <g id="line2d_57">
    <path d="M 284.759072 180.040746 
L 285.939472 180.04055 
L 287.119315 180.040423 
L 288.298639 180.040273 
L 289.477493 180.04012 
L 290.655928 180.039976 
L 291.833992 180.039847 
L 293.011733 180.039735 
L 294.189197 180.039641 
L 295.366427 180.039564 
L 296.54346 180.039503 
L 297.720334 180.039455 
L 298.897078 180.039419 
L 300.073723 180.039392 
L 301.250292 180.039373 
L 302.426805 180.03936 
L 303.603282 180.039351 
L 304.779737 180.039347 
L 305.956181 180.039346 
L 307.132623 180.039346 
L 308.309072 180.039348 
L 309.485532 180.039351 
L 310.662005 180.039355 
L 311.838494 180.039359 
L 313.014999 180.039363 
L 314.19152 180.039367 
L 315.368054 180.03937 
L 316.5446 180.039371 
L 317.721154 180.039372 
L 318.897715 180.03937 
L 320.074279 180.039365 
" clip-path="url(#p51ec4f7c4b)" style="fill: none; stroke: #ff0000; stroke-width: 0.25; stroke-linecap: square"/>
   </g>
   <g id="line2d_58">
    <path d="M 230.653849 240.43895 
L 230.652737 241.862183 
L 230.651538 243.290454 
L 230.650555 244.723352 
L 230.649769 246.160505 
L 230.649155 247.60152 
L 230.64869 249.045992 
L 230.648351 250.493521 
L 230.648115 251.943716 
L 230.647963 253.396205 
L 230.647876 254.850639 
L 230.64784 256.306696 
L 230.647842 257.764084 
L 230.647871 259.222538 
L 230.647918 260.681826 
L 230.647978 262.141747 
L 230.648046 263.602125 
L 230.648117 265.062816 
L 230.64819 266.523699 
L 230.648262 267.984676 
L 230.648332 269.445673 
L 230.6484 270.906635 
L 230.648466 272.367521 
L 230.648527 273.82831 
L 230.648584 275.288989 
L 230.648635 276.749559 
L 230.648677 278.210028 
L 230.648707 279.670411 
L 230.648718 281.130728 
L 230.648705 282.591001 
L 230.648678 284.051254 
" clip-path="url(#p51ec4f7c4b)" style="fill: none; stroke: #ff0000; stroke-opacity: 0.333333; stroke-width: 0.25; stroke-linecap: square"/>
   </g>
   <g id="line2d_59">
    <path d="M 230.653849 240.43895 
L 230.652999 241.862183 
L 230.651752 243.290469 
L 230.650725 244.723377 
L 230.649898 246.160537 
L 230.649249 247.601555 
L 230.648755 249.04603 
L 230.648391 250.493561 
L 230.648135 251.94376 
L 230.647966 253.396257 
L 230.647868 254.850703 
L 230.647822 256.306777 
L 230.647817 257.764186 
L 230.647842 259.22267 
L 230.647888 260.681994 
L 230.647947 262.141959 
L 230.648015 263.602389 
L 230.648087 265.06314 
L 230.648162 266.52409 
L 230.648237 267.985142 
L 230.648309 269.446222 
L 230.64838 270.907272 
L 230.648447 272.368254 
L 230.64851 273.829142 
L 230.648568 275.289925 
L 230.648618 276.750602 
L 230.64866 278.21118 
L 230.64869 279.671673 
L 230.648702 281.132099 
L 230.648691 282.592481 
L 230.648653 284.052841 
" clip-path="url(#p51ec4f7c4b)" style="fill: none; stroke: #ff0000; stroke-opacity: 0.666667; stroke-width: 0.25; stroke-linecap: square"/>
   </g>
   <g id="line2d_60">
    <path d="M 230.653849 240.43895 
L 230.653246 241.862183 
L 230.651946 243.290472 
L 230.650871 244.723379 
L 230.650003 246.160535 
L 230.64932 247.601547 
L 230.648798 249.046012 
L 230.648413 250.493532 
L 230.648142 251.943717 
L 230.647964 253.396197 
L 230.647859 254.850623 
L 230.647811 256.306675 
L 230.647806 257.76406 
L 230.647833 259.222517 
L 230.647881 260.681813 
L 230.647944 262.141746 
L 230.648016 263.602142 
L 230.648092 265.062857 
L 230.64817 266.52377 
L 230.648247 267.984782 
L 230.648322 269.445821 
L 230.648394 270.906828 
L 230.648461 272.367765 
L 230.648523 273.828607 
L 230.64858 275.289342 
L 230.64863 276.749971 
L 230.648672 278.210499 
L 230.648702 279.670941 
L 230.648715 281.131316 
L 230.648706 282.591646 
L 230.648667 284.051953 
" clip-path="url(#p51ec4f7c4b)" style="fill: none; stroke: #ff0000; stroke-width: 0.25; stroke-linecap: square"/>
   </g>
   <g id="line2d_61">
    <path d="M 187.557899 169.015191 
L 186.377884 169.015342 
L 185.198411 169.015486 
L 184.019434 169.01565 
L 182.840902 169.015815 
L 181.662762 169.015969 
L 180.484963 169.016107 
L 179.307457 169.016226 
L 178.1302 169.016326 
L 176.95315 169.016408 
L 175.776269 169.016474 
L 174.599525 169.016525 
L 173.422886 169.016564 
L 172.246327 169.016594 
L 171.069825 169.016615 
L 169.893362 169.016629 
L 168.716922 169.016639 
L 167.540491 169.016644 
L 166.36406 169.016647 
L 165.18762 169.016647 
L 164.011167 169.016646 
L 162.834696 169.016643 
L 161.658205 169.01664 
L 160.481694 169.016637 
L 159.305163 169.016633 
L 158.128614 169.01663 
L 156.952047 169.016627 
L 155.775468 169.016626 
L 154.598877 169.016626 
L 153.422279 169.016628 
L 152.245676 169.016632 
" clip-path="url(#p51ec4f7c4b)" style="fill: none; stroke: #ff0000; stroke-opacity: 0.333333; stroke-width: 0.25; stroke-linecap: square"/>
   </g>
   <g id="line2d_62">
    <path d="M 187.557899 169.015191 
L 186.377884 169.01538 
L 185.198409 169.015512 
L 184.019432 169.015668 
L 182.840899 169.015826 
L 181.662758 169.015976 
L 180.484959 169.016111 
L 179.307453 169.016228 
L 178.130196 169.016326 
L 176.953146 169.016406 
L 175.776266 169.016471 
L 174.599521 169.016522 
L 173.422883 169.01656 
L 172.246325 169.01659 
L 171.069824 169.016611 
L 169.893363 169.016625 
L 168.716924 169.016635 
L 167.540496 169.016641 
L 166.364069 169.016644 
L 165.187635 169.016644 
L 164.011189 169.016643 
L 162.834726 169.016642 
L 161.658245 169.016639 
L 160.481746 169.016636 
L 159.305229 169.016633 
L 158.128695 169.016631 
L 156.952146 169.016629 
L 155.775585 169.016628 
L 154.599016 169.016628 
L 153.422441 169.016631 
L 152.245863 169.016638 
" clip-path="url(#p51ec4f7c4b)" style="fill: none; stroke: #ff0000; stroke-opacity: 0.666667; stroke-width: 0.25; stroke-linecap: square"/>
   </g>
   <g id="line2d_63">
    <path d="M 187.557899 169.015191 
L 186.377884 169.015414 
L 185.198409 169.015535 
L 184.019432 169.015683 
L 182.840899 169.015835 
L 181.662758 169.015981 
L 180.484959 169.016113 
L 179.307453 169.016228 
L 178.130195 169.016326 
L 176.953145 169.016406 
L 175.776264 169.01647 
L 174.599519 169.016521 
L 173.42288 169.01656 
L 172.246321 169.016589 
L 171.06982 169.016611 
L 169.893357 169.016626 
L 168.716917 169.016636 
L 167.540487 169.016642 
L 166.364057 169.016645 
L 165.187619 169.016645 
L 164.011169 169.016645 
L 162.834701 169.016643 
L 161.658215 169.01664 
L 160.481709 169.016637 
L 159.305184 169.016633 
L 158.128641 169.01663 
L 156.952083 169.016628 
L 155.775513 169.016626 
L 154.598933 169.016627 
L 153.422346 169.016629 
L 152.245756 169.016635 
" clip-path="url(#p51ec4f7c4b)" style="fill: none; stroke: #ff0000; stroke-width: 0.25; stroke-linecap: square"/>
   </g>
   <g id="line2d_64">
    <path d="M 230.638229 223.040902 
L 230.640519 224.255042 
L 230.642698 225.462886 
L 230.644468 226.665056 
L 230.645874 227.862133 
L 230.646965 229.054696 
L 230.64779 230.243309 
L 230.648397 231.428513 
L 230.648828 232.610818 
L 230.649119 233.790695 
L 230.649302 234.968575 
L 230.649403 236.144847 
L 230.649442 237.319856 
L 230.649437 238.493904 
L 230.6494 239.667254 
L 230.649341 240.840126 
L 230.649268 242.012706 
L 230.649187 243.185145 
L 230.649102 244.357562 
L 230.649015 245.530049 
L 230.648929 246.702671 
L 230.648845 247.875474 
L 230.648766 249.048482 
L 230.648692 250.221703 
L 230.648626 251.395134 
L 230.64857 252.568757 
L 230.648527 253.742549 
L 230.648502 254.916478 
L 230.648502 256.090509 
L 230.648533 257.264604 
L 230.648579 258.438727 
" clip-path="url(#p51ec4f7c4b)" style="fill: none; stroke: #ff0000; stroke-opacity: 0.333333; stroke-width: 0.25; stroke-linecap: square"/>
   </g>
   <g id="line2d_65">
    <path d="M 230.638229 223.040902 
L 230.640251 224.255043 
L 230.642484 225.462874 
L 230.644303 226.665036 
L 230.645751 227.862105 
L 230.646878 229.054661 
L 230.647734 230.243266 
L 230.648365 231.42846 
L 230.648815 232.610752 
L 230.64912 233.790611 
L 230.649314 234.968468 
L 230.649423 236.144711 
L 230.649468 237.319683 
L 230.649466 238.493688 
L 230.64943 239.666986 
L 230.649372 240.839798 
L 230.649299 242.01231 
L 230.649217 243.184673 
L 230.64913 244.357006 
L 230.649042 245.529402 
L 230.648956 246.701927 
L 230.648872 247.874626 
L 230.648793 249.047527 
L 230.64872 250.220638 
L 230.648654 251.393956 
L 230.648599 252.567466 
L 230.648556 253.741146 
L 230.648531 254.914964 
L 230.648529 256.088888 
L 230.648557 257.262882 
L 230.648613 258.436907 
" clip-path="url(#p51ec4f7c4b)" style="fill: none; stroke: #ff0000; stroke-opacity: 0.666667; stroke-width: 0.25; stroke-linecap: square"/>
   </g>
   <g id="line2d_66">
    <path d="M 230.638229 223.040902 
L 230.640003 224.255043 
L 230.642295 225.462874 
L 230.644165 226.665039 
L 230.645656 227.862116 
L 230.646817 229.054683 
L 230.647699 230.243302 
L 230.648349 231.428514 
L 230.648811 232.610826 
L 230.649125 233.790709 
L 230.649323 234.968592 
L 230.649433 236.144863 
L 230.649477 237.319867 
L 230.649472 238.493905 
L 230.649433 239.667238 
L 230.649371 240.840088 
L 230.649294 242.012639 
L 230.649209 243.185042 
L 230.64912 244.357418 
L 230.64903 245.529857 
L 230.648942 246.702427 
L 230.648858 247.875174 
L 230.648778 249.048122 
L 230.648705 250.221282 
L 230.64864 251.394651 
L 230.648585 252.568214 
L 230.648541 253.741946 
L 230.648515 254.91582 
L 230.648509 256.0898 
L 230.648534 257.263851 
L 230.648592 258.437936 
" clip-path="url(#p51ec4f7c4b)" style="fill: none; stroke: #ff0000; stroke-width: 0.25; stroke-linecap: square"/>
   </g>
   <g id="patch_15">
    <path d="M 103.104 307.584 
L 103.104 41.472 
" style="fill: none; stroke: #000000; stroke-width: 0.8; stroke-linejoin: miter; stroke-linecap: square"/>
   </g>
   <g id="patch_16">
    <path d="M 369.216 307.584 
L 369.216 41.472 
" style="fill: none; stroke: #000000; stroke-width: 0.8; stroke-linejoin: miter; stroke-linecap: square"/>
   </g>
   <g id="patch_17">
    <path d="M 103.104 307.584 
L 369.216 307.584 
" style="fill: none; stroke: #000000; stroke-width: 0.8; stroke-linejoin: miter; stroke-linecap: square"/>
   </g>
   <g id="patch_18">
    <path d="M 103.104 41.472 
L 369.216 41.472 
" style="fill: none; stroke: #000000; stroke-width: 0.8; stroke-linejoin: miter; stroke-linecap: square"/>
   </g>
   <g id="text_19">
    <!-- Time: 126 ms -->
    <g transform="translate(261.069512 54.7776) scale(0.1 -0.1)">
     <defs>
      <path id="DejaVuSans-54" d="M -19 4666 
L 3928 4666 
L 3928 4134 
L 2272 4134 
L 2272 0 
L 1638 0 
L 1638 4134 
L -19 4134 
L -19 4666 
z
" transform="scale(0.015625)"/>
      <path id="DejaVuSans-69" d="M 603 3500 
L 1178 3500 
L 1178 0 
L 603 0 
L 603 3500 
z
M 603 4863 
L 1178 4863 
L 1178 4134 
L 603 4134 
L 603 4863 
z
" transform="scale(0.015625)"/>
      <path id="DejaVuSans-6d" d="M 3328 2828 
Q 3544 3216 3844 3400 
Q 4144 3584 4550 3584 
Q 5097 3584 5394 3201 
Q 5691 2819 5691 2113 
L 5691 0 
L 5113 0 
L 5113 2094 
Q 5113 2597 4934 2840 
Q 4756 3084 4391 3084 
Q 3944 3084 3684 2787 
Q 3425 2491 3425 1978 
L 3425 0 
L 2847 0 
L 2847 2094 
Q 2847 2600 2669 2842 
Q 2491 3084 2119 3084 
Q 1678 3084 1418 2786 
Q 1159 2488 1159 1978 
L 1159 0 
L 581 0 
L 581 3500 
L 1159 3500 
L 1159 2956 
Q 1356 3278 1631 3431 
Q 1906 3584 2284 3584 
Q 2666 3584 2933 3390 
Q 3200 3197 3328 2828 
z
" transform="scale(0.015625)"/>
      <path id="DejaVuSans-65" d="M 3597 1894 
L 3597 1613 
L 953 1613 
Q 991 1019 1311 708 
Q 1631 397 2203 397 
Q 2534 397 2845 478 
Q 3156 559 3463 722 
L 3463 178 
Q 3153 47 2828 -22 
Q 2503 -91 2169 -91 
Q 1331 -91 842 396 
Q 353 884 353 1716 
Q 353 2575 817 3079 
Q 1281 3584 2069 3584 
Q 2775 3584 3186 3129 
Q 3597 2675 3597 1894 
z
M 3022 2063 
Q 3016 2534 2758 2815 
Q 2500 3097 2075 3097 
Q 1594 3097 1305 2825 
Q 1016 2553 972 2059 
L 3022 2063 
z
" transform="scale(0.015625)"/>
      <path id="DejaVuSans-3a" d="M 750 794 
L 1409 794 
L 1409 0 
L 750 0 
L 750 794 
z
M 750 3309 
L 1409 3309 
L 1409 2516 
L 750 2516 
L 750 3309 
z
" transform="scale(0.015625)"/>
      <path id="DejaVuSans-20" transform="scale(0.015625)"/>
      <path id="DejaVuSans-36" d="M 2113 2584 
Q 1688 2584 1439 2293 
Q 1191 2003 1191 1497 
Q 1191 994 1439 701 
Q 1688 409 2113 409 
Q 2538 409 2786 701 
Q 3034 994 3034 1497 
Q 3034 2003 2786 2293 
Q 2538 2584 2113 2584 
z
M 3366 4563 
L 3366 3988 
Q 3128 4100 2886 4159 
Q 2644 4219 2406 4219 
Q 1781 4219 1451 3797 
Q 1122 3375 1075 2522 
Q 1259 2794 1537 2939 
Q 1816 3084 2150 3084 
Q 2853 3084 3261 2657 
Q 3669 2231 3669 1497 
Q 3669 778 3244 343 
Q 2819 -91 2113 -91 
Q 1303 -91 875 529 
Q 447 1150 447 2328 
Q 447 3434 972 4092 
Q 1497 4750 2381 4750 
Q 2619 4750 2861 4703 
Q 3103 4656 3366 4563 
z
" transform="scale(0.015625)"/>
      <path id="DejaVuSans-73" d="M 2834 3397 
L 2834 2853 
Q 2591 2978 2328 3040 
Q 2066 3103 1784 3103 
Q 1356 3103 1142 2972 
Q 928 2841 928 2578 
Q 928 2378 1081 2264 
Q 1234 2150 1697 2047 
L 1894 2003 
Q 2506 1872 2764 1633 
Q 3022 1394 3022 966 
Q 3022 478 2636 193 
Q 2250 -91 1575 -91 
Q 1294 -91 989 -36 
Q 684 19 347 128 
L 347 722 
Q 666 556 975 473 
Q 1284 391 1588 391 
Q 1994 391 2212 530 
Q 2431 669 2431 922 
Q 2431 1156 2273 1281 
Q 2116 1406 1581 1522 
L 1381 1569 
Q 847 1681 609 1914 
Q 372 2147 372 2553 
Q 372 3047 722 3315 
Q 1072 3584 1716 3584 
Q 2034 3584 2315 3537 
Q 2597 3491 2834 3397 
z
" transform="scale(0.015625)"/>
     </defs>
     <use xlink:href="#DejaVuSans-54"/>
     <use xlink:href="#DejaVuSans-69" x="57.958984"/>
     <use xlink:href="#DejaVuSans-6d" x="85.742188"/>
     <use xlink:href="#DejaVuSans-65" x="183.154297"/>
     <use xlink:href="#DejaVuSans-3a" x="244.677734"/>
     <use xlink:href="#DejaVuSans-20" x="278.369141"/>
     <use xlink:href="#DejaVuSans-31" x="310.15625"/>
     <use xlink:href="#DejaVuSans-32" x="373.779297"/>
     <use xlink:href="#DejaVuSans-36" x="437.402344"/>
     <use xlink:href="#DejaVuSans-20" x="501.025391"/>
     <use xlink:href="#DejaVuSans-6d" x="532.8125"/>
     <use xlink:href="#DejaVuSans-73" x="630.224609"/>
    </g>
   </g>
  </g>
 </g>
 <defs>
  <clipPath id="p51ec4f7c4b">
   <rect x="103.104" y="41.472" width="266.112" height="266.112"/>
  </clipPath>
 </defs>
</svg>
