<?xml version="1.0" encoding="utf-8" standalone="no"?>
<!DOCTYPE svg PUBLIC "-//W3C//DTD SVG 1.1//EN"
  "http://www.w3.org/Graphics/SVG/1.1/DTD/svg11.dtd">
<svg xmlns:xlink="http://www.w3.org/1999/xlink" width="460.8pt" height="345.6pt" viewBox="0 0 460.8 345.6" xmlns="http://www.w3.org/2000/svg" version="1.1">
 <metadata>
  <rdf:RDF xmlns:dc="http://purl.org/dc/elements/1.1/" xmlns:cc="http://creativecommons.org/ns#" xmlns:rdf="http://www.w3.org/1999/02/22-rdf-syntax-ns#">
   <cc:Work>
    <dc:type rdf:resource="http://purl.org/dc/dcmitype/StillImage"/>
    <dc:date>2024-01-22T16:49:15.982631</dc:date>
    <dc:format>image/svg+xml</dc:format>
    <dc:creator>
     <cc:Agent>
      <dc:title>Matplotlib v3.8.2, https://matplotlib.org/</dc:title>
     </cc:Agent>
    </dc:creator>
   </cc:Work>
  </rdf:RDF>
 </metadata>
 <defs>
  <style type="text/css">*{stroke-linejoin: round; stroke-linecap: butt}</style>
 </defs>
 <g id="figure_1">
  <g id="patch_1">
   <path d="M 0 345.6 
L 460.8 345.6 
L 460.8 0 
L 0 0 
z
" style="fill: #ffffff"/>
  </g>
  <g id="axes_1">
   <g id="patch_2">
    <path d="M 103.104 307.584 
L 369.216 307.584 
L 369.216 41.472 
L 103.104 41.472 
z
" style="fill: #ffffff"/>
   </g>
   <g id="patch_3">
    <path d="M 244.958813 150.041747 
L 245.101692 138.400224 
L 239.447238 138.330826 
L 239.304359 149.972349 
z
" clip-path="url(#pf17e43f755)" style="fill: #00008b"/>
   </g>
   <g id="patch_4">
    <path d="M 212.000483 165.365239 
L 200.364086 165.739063 
L 200.545657 171.391027 
L 212.182054 171.017204 
z
" clip-path="url(#pf17e43f755)" style="fill: #800000"/>
   </g>
   <g id="patch_5">
    <path d="M 257.477917 183.30453 
L 269.114809 183.662619 
L 269.288738 178.010414 
L 257.651846 177.652325 
z
" clip-path="url(#pf17e43f755)" style="fill: #006400"/>
   </g>
   <g id="patch_6">
    <path d="M 227.510704 207.77456 
L 227.117332 219.410313 
L 232.768983 219.601379 
L 233.162355 207.965626 
z
" clip-path="url(#pf17e43f755)" style="fill: #4b0082"/>
   </g>
   <g id="patch_7">
    <path d="M 246.367229 184.648571 
L 250.553506 173.784844 
L 245.276839 171.751509 
L 241.090562 182.615236 
z
" clip-path="url(#pf17e43f755)" style="fill: #0000ff"/>
   </g>
   <g id="patch_8">
    <path d="M 241.487238 166.687294 
L 230.577561 170.752319 
L 232.552002 176.051305 
L 243.461678 171.98628 
z
" clip-path="url(#pf17e43f755)" style="fill: #ff0000"/>
   </g>
   <g id="patch_9">
    <path d="M 226.981653 157.019149 
L 221.92829 167.507667 
L 227.022713 169.962157 
L 232.076076 159.47364 
z
" clip-path="url(#pf17e43f755)" style="fill: #dbdc56"/>
   </g>
   <g id="patch_10">
    <path d="M 226.657462 185.927582 
L 237.832694 189.192495 
L 239.418509 183.764524 
L 228.243276 180.499612 
z
" clip-path="url(#pf17e43f755)" style="fill: #9400d3"/>
   </g>
   <g id="patch_11">
    <path d="M 245.062293 222.265093 
L 244.770331 210.626354 
L 239.117229 210.768165 
L 239.409192 222.406903 
z
" clip-path="url(#pf17e43f755)" style="fill: #1e90ff"/>
   </g>
   <g id="patch_12">
    <path d="M 276.687547 165.141073 
L 265.060236 164.548514 
L 264.772422 170.196065 
L 276.399732 170.788624 
z
" clip-path="url(#pf17e43f755)" style="fill: #ff4500"/>
   </g>
   <g id="patch_13">
    <path d="M 227.266823 126.784994 
L 227.565331 138.423567 
L 233.218351 138.278577 
L 232.919844 126.640005 
z
" clip-path="url(#pf17e43f755)" style="fill: #7cfc00"/>
   </g>
   <g id="patch_14">
    <path d="M 195.635811 183.952263 
L 207.258333 184.632293 
L 207.588633 178.987067 
L 195.966111 178.307038 
z
" clip-path="url(#pf17e43f755)" style="fill: #ff00ff"/>
   </g>
   <g id="matplotlib.axis_1">
    <g id="xtick_1">
     <g id="line2d_1">
      <defs>
       <path id="m9f40312954" d="M 0 0 
L 0 3.5 
" style="stroke: #000000; stroke-width: 0.8"/>
      </defs>
      <g>
       <use xlink:href="#m9f40312954" x="103.104" y="307.584" style="stroke: #000000; stroke-width: 0.8"/>
      </g>
     </g>
     <g id="text_1">
      <!-- −40 -->
      <g transform="translate(92.551656 322.182437) scale(0.1 -0.1)">
       <defs>
        <path id="DejaVuSans-2212" d="M 678 2272 
L 4684 2272 
L 4684 1741 
L 678 1741 
L 678 2272 
z
" transform="scale(0.015625)"/>
        <path id="DejaVuSans-34" d="M 2419 4116 
L 825 1625 
L 2419 1625 
L 2419 4116 
z
M 2253 4666 
L 3047 4666 
L 3047 1625 
L 3713 1625 
L 3713 1100 
L 3047 1100 
L 3047 0 
L 2419 0 
L 2419 1100 
L 313 1100 
L 313 1709 
L 2253 4666 
z
" transform="scale(0.015625)"/>
        <path id="DejaVuSans-30" d="M 2034 4250 
Q 1547 4250 1301 3770 
Q 1056 3291 1056 2328 
Q 1056 1369 1301 889 
Q 1547 409 2034 409 
Q 2525 409 2770 889 
Q 3016 1369 3016 2328 
Q 3016 3291 2770 3770 
Q 2525 4250 2034 4250 
z
M 2034 4750 
Q 2819 4750 3233 4129 
Q 3647 3509 3647 2328 
Q 3647 1150 3233 529 
Q 2819 -91 2034 -91 
Q 1250 -91 836 529 
Q 422 1150 422 2328 
Q 422 3509 836 4129 
Q 1250 4750 2034 4750 
z
" transform="scale(0.015625)"/>
       </defs>
       <use xlink:href="#DejaVuSans-2212"/>
       <use xlink:href="#DejaVuSans-34" x="83.789062"/>
       <use xlink:href="#DejaVuSans-30" x="147.412109"/>
      </g>
     </g>
    </g>
    <g id="xtick_2">
     <g id="line2d_2">
      <g>
       <use xlink:href="#m9f40312954" x="136.368" y="307.584" style="stroke: #000000; stroke-width: 0.8"/>
      </g>
     </g>
     <g id="text_2">
      <!-- −30 -->
      <g transform="translate(125.815656 322.182437) scale(0.1 -0.1)">
       <defs>
        <path id="DejaVuSans-33" d="M 2597 2516 
Q 3050 2419 3304 2112 
Q 3559 1806 3559 1356 
Q 3559 666 3084 287 
Q 2609 -91 1734 -91 
Q 1441 -91 1130 -33 
Q 819 25 488 141 
L 488 750 
Q 750 597 1062 519 
Q 1375 441 1716 441 
Q 2309 441 2620 675 
Q 2931 909 2931 1356 
Q 2931 1769 2642 2001 
Q 2353 2234 1838 2234 
L 1294 2234 
L 1294 2753 
L 1863 2753 
Q 2328 2753 2575 2939 
Q 2822 3125 2822 3475 
Q 2822 3834 2567 4026 
Q 2313 4219 1838 4219 
Q 1578 4219 1281 4162 
Q 984 4106 628 3988 
L 628 4550 
Q 988 4650 1302 4700 
Q 1616 4750 1894 4750 
Q 2613 4750 3031 4423 
Q 3450 4097 3450 3541 
Q 3450 3153 3228 2886 
Q 3006 2619 2597 2516 
z
" transform="scale(0.015625)"/>
       </defs>
       <use xlink:href="#DejaVuSans-2212"/>
       <use xlink:href="#DejaVuSans-33" x="83.789062"/>
       <use xlink:href="#DejaVuSans-30" x="147.412109"/>
      </g>
     </g>
    </g>
    <g id="xtick_3">
     <g id="line2d_3">
      <g>
       <use xlink:href="#m9f40312954" x="169.632" y="307.584" style="stroke: #000000; stroke-width: 0.8"/>
      </g>
     </g>
     <g id="text_3">
      <!-- −20 -->
      <g transform="translate(159.079656 322.182437) scale(0.1 -0.1)">
       <defs>
        <path id="DejaVuSans-32" d="M 1228 531 
L 3431 531 
L 3431 0 
L 469 0 
L 469 531 
Q 828 903 1448 1529 
Q 2069 2156 2228 2338 
Q 2531 2678 2651 2914 
Q 2772 3150 2772 3378 
Q 2772 3750 2511 3984 
Q 2250 4219 1831 4219 
Q 1534 4219 1204 4116 
Q 875 4013 500 3803 
L 500 4441 
Q 881 4594 1212 4672 
Q 1544 4750 1819 4750 
Q 2544 4750 2975 4387 
Q 3406 4025 3406 3419 
Q 3406 3131 3298 2873 
Q 3191 2616 2906 2266 
Q 2828 2175 2409 1742 
Q 1991 1309 1228 531 
z
" transform="scale(0.015625)"/>
       </defs>
       <use xlink:href="#DejaVuSans-2212"/>
       <use xlink:href="#DejaVuSans-32" x="83.789062"/>
       <use xlink:href="#DejaVuSans-30" x="147.412109"/>
      </g>
     </g>
    </g>
    <g id="xtick_4">
     <g id="line2d_4">
      <g>
       <use xlink:href="#m9f40312954" x="202.896" y="307.584" style="stroke: #000000; stroke-width: 0.8"/>
      </g>
     </g>
     <g id="text_4">
      <!-- −10 -->
      <g transform="translate(192.343656 322.182437) scale(0.1 -0.1)">
       <defs>
        <path id="DejaVuSans-31" d="M 794 531 
L 1825 531 
L 1825 4091 
L 703 3866 
L 703 4441 
L 1819 4666 
L 2450 4666 
L 2450 531 
L 3481 531 
L 3481 0 
L 794 0 
L 794 531 
z
" transform="scale(0.015625)"/>
       </defs>
       <use xlink:href="#DejaVuSans-2212"/>
       <use xlink:href="#DejaVuSans-31" x="83.789062"/>
       <use xlink:href="#DejaVuSans-30" x="147.412109"/>
      </g>
     </g>
    </g>
    <g id="xtick_5">
     <g id="line2d_5">
      <g>
       <use xlink:href="#m9f40312954" x="236.16" y="307.584" style="stroke: #000000; stroke-width: 0.8"/>
      </g>
     </g>
     <g id="text_5">
      <!-- 0 -->
      <g transform="translate(232.97875 322.182437) scale(0.1 -0.1)">
       <use xlink:href="#DejaVuSans-30"/>
      </g>
     </g>
    </g>
    <g id="xtick_6">
     <g id="line2d_6">
      <g>
       <use xlink:href="#m9f40312954" x="269.424" y="307.584" style="stroke: #000000; stroke-width: 0.8"/>
      </g>
     </g>
     <g id="text_6">
      <!-- 10 -->
      <g transform="translate(263.0615 322.182437) scale(0.1 -0.1)">
       <use xlink:href="#DejaVuSans-31"/>
       <use xlink:href="#DejaVuSans-30" x="63.623047"/>
      </g>
     </g>
    </g>
    <g id="xtick_7">
     <g id="line2d_7">
      <g>
       <use xlink:href="#m9f40312954" x="302.688" y="307.584" style="stroke: #000000; stroke-width: 0.8"/>
      </g>
     </g>
     <g id="text_7">
      <!-- 20 -->
      <g transform="translate(296.3255 322.182437) scale(0.1 -0.1)">
       <use xlink:href="#DejaVuSans-32"/>
       <use xlink:href="#DejaVuSans-30" x="63.623047"/>
      </g>
     </g>
    </g>
    <g id="xtick_8">
     <g id="line2d_8">
      <g>
       <use xlink:href="#m9f40312954" x="335.952" y="307.584" style="stroke: #000000; stroke-width: 0.8"/>
      </g>
     </g>
     <g id="text_8">
      <!-- 30 -->
      <g transform="translate(329.5895 322.182437) scale(0.1 -0.1)">
       <use xlink:href="#DejaVuSans-33"/>
       <use xlink:href="#DejaVuSans-30" x="63.623047"/>
      </g>
     </g>
    </g>
    <g id="xtick_9">
     <g id="line2d_9">
      <g>
       <use xlink:href="#m9f40312954" x="369.216" y="307.584" style="stroke: #000000; stroke-width: 0.8"/>
      </g>
     </g>
     <g id="text_9">
      <!-- 40 -->
      <g transform="translate(362.8535 322.182437) scale(0.1 -0.1)">
       <use xlink:href="#DejaVuSans-34"/>
       <use xlink:href="#DejaVuSans-30" x="63.623047"/>
      </g>
     </g>
    </g>
   </g>
   <g id="matplotlib.axis_2">
    <g id="ytick_1">
     <g id="line2d_10">
      <defs>
       <path id="ma677fd4d4e" d="M 0 0 
L -3.5 0 
" style="stroke: #000000; stroke-width: 0.8"/>
      </defs>
      <g>
       <use xlink:href="#ma677fd4d4e" x="103.104" y="307.584" style="stroke: #000000; stroke-width: 0.8"/>
      </g>
     </g>
     <g id="text_10">
      <!-- −40 -->
      <g transform="translate(74.999313 311.383219) scale(0.1 -0.1)">
       <use xlink:href="#DejaVuSans-2212"/>
       <use xlink:href="#DejaVuSans-34" x="83.789062"/>
       <use xlink:href="#DejaVuSans-30" x="147.412109"/>
      </g>
     </g>
    </g>
    <g id="ytick_2">
     <g id="line2d_11">
      <g>
       <use xlink:href="#ma677fd4d4e" x="103.104" y="274.32" style="stroke: #000000; stroke-width: 0.8"/>
      </g>
     </g>
     <g id="text_11">
      <!-- −30 -->
      <g transform="translate(74.999313 278.119219) scale(0.1 -0.1)">
       <use xlink:href="#DejaVuSans-2212"/>
       <use xlink:href="#DejaVuSans-33" x="83.789062"/>
       <use xlink:href="#DejaVuSans-30" x="147.412109"/>
      </g>
     </g>
    </g>
    <g id="ytick_3">
     <g id="line2d_12">
      <g>
       <use xlink:href="#ma677fd4d4e" x="103.104" y="241.056" style="stroke: #000000; stroke-width: 0.8"/>
      </g>
     </g>
     <g id="text_12">
      <!-- −20 -->
      <g transform="translate(74.999313 244.855219) scale(0.1 -0.1)">
       <use xlink:href="#DejaVuSans-2212"/>
       <use xlink:href="#DejaVuSans-32" x="83.789062"/>
       <use xlink:href="#DejaVuSans-30" x="147.412109"/>
      </g>
     </g>
    </g>
    <g id="ytick_4">
     <g id="line2d_13">
      <g>
       <use xlink:href="#ma677fd4d4e" x="103.104" y="207.792" style="stroke: #000000; stroke-width: 0.8"/>
      </g>
     </g>
     <g id="text_13">
      <!-- −10 -->
      <g transform="translate(74.999313 211.591219) scale(0.1 -0.1)">
       <use xlink:href="#DejaVuSans-2212"/>
       <use xlink:href="#DejaVuSans-31" x="83.789062"/>
       <use xlink:href="#DejaVuSans-30" x="147.412109"/>
      </g>
     </g>
    </g>
    <g id="ytick_5">
     <g id="line2d_14">
      <g>
       <use xlink:href="#ma677fd4d4e" x="103.104" y="174.528" style="stroke: #000000; stroke-width: 0.8"/>
      </g>
     </g>
     <g id="text_14">
      <!-- 0 -->
      <g transform="translate(89.7415 178.327219) scale(0.1 -0.1)">
       <use xlink:href="#DejaVuSans-30"/>
      </g>
     </g>
    </g>
    <g id="ytick_6">
     <g id="line2d_15">
      <g>
       <use xlink:href="#ma677fd4d4e" x="103.104" y="141.264" style="stroke: #000000; stroke-width: 0.8"/>
      </g>
     </g>
     <g id="text_15">
      <!-- 10 -->
      <g transform="translate(83.379 145.063219) scale(0.1 -0.1)">
       <use xlink:href="#DejaVuSans-31"/>
       <use xlink:href="#DejaVuSans-30" x="63.623047"/>
      </g>
     </g>
    </g>
    <g id="ytick_7">
     <g id="line2d_16">
      <g>
       <use xlink:href="#ma677fd4d4e" x="103.104" y="108" style="stroke: #000000; stroke-width: 0.8"/>
      </g>
     </g>
     <g id="text_16">
      <!-- 20 -->
      <g transform="translate(83.379 111.799219) scale(0.1 -0.1)">
       <use xlink:href="#DejaVuSans-32"/>
       <use xlink:href="#DejaVuSans-30" x="63.623047"/>
      </g>
     </g>
    </g>
    <g id="ytick_8">
     <g id="line2d_17">
      <g>
       <use xlink:href="#ma677fd4d4e" x="103.104" y="74.736" style="stroke: #000000; stroke-width: 0.8"/>
      </g>
     </g>
     <g id="text_17">
      <!-- 30 -->
      <g transform="translate(83.379 78.535219) scale(0.1 -0.1)">
       <use xlink:href="#DejaVuSans-33"/>
       <use xlink:href="#DejaVuSans-30" x="63.623047"/>
      </g>
     </g>
    </g>
    <g id="ytick_9">
     <g id="line2d_18">
      <g>
       <use xlink:href="#ma677fd4d4e" x="103.104" y="41.472" style="stroke: #000000; stroke-width: 0.8"/>
      </g>
     </g>
     <g id="text_18">
      <!-- 40 -->
      <g transform="translate(83.379 45.271219) scale(0.1 -0.1)">
       <use xlink:href="#DejaVuSans-34"/>
       <use xlink:href="#DejaVuSans-30" x="63.623047"/>
      </g>
     </g>
    </g>
   </g>
   <g id="line2d_19">
    <path d="M 251.1288 346.6 
L 251.1288 189.4968 
" clip-path="url(#pf17e43f755)" style="fill: none; stroke: #000000; stroke-width: 0.25; stroke-linecap: square"/>
   </g>
   <g id="line2d_20">
    <path d="M 251.1288 189.4968 
L 417.4488 189.4968 
" clip-path="url(#pf17e43f755)" style="fill: none; stroke: #000000; stroke-width: 0.25; stroke-linecap: square"/>
   </g>
   <g id="line2d_21">
    <path d="M 417.4488 159.5592 
L 251.1288 159.5592 
" clip-path="url(#pf17e43f755)" style="fill: none; stroke: #000000; stroke-width: 0.25; stroke-linecap: square"/>
   </g>
   <g id="line2d_22">
    <path d="M 251.1288 159.5592 
L 251.1288 -1 
" clip-path="url(#pf17e43f755)" style="fill: none; stroke: #000000; stroke-width: 0.25; stroke-linecap: square"/>
   </g>
   <g id="line2d_23">
    <path d="M 221.1912 -1 
L 221.1912 159.5592 
" clip-path="url(#pf17e43f755)" style="fill: none; stroke: #000000; stroke-width: 0.25; stroke-linecap: square"/>
   </g>
   <g id="line2d_24">
    <path d="M 221.1912 159.5592 
L 54.8712 159.5592 
" clip-path="url(#pf17e43f755)" style="fill: none; stroke: #000000; stroke-width: 0.25; stroke-linecap: square"/>
   </g>
   <g id="line2d_25">
    <path d="M 54.8712 189.4968 
L 221.1912 189.4968 
" clip-path="url(#pf17e43f755)" style="fill: none; stroke: #000000; stroke-width: 0.25; stroke-linecap: square"/>
   </g>
   <g id="line2d_26">
    <path d="M 221.1912 189.4968 
L 221.1912 346.6 
" clip-path="url(#pf17e43f755)" style="fill: none; stroke: #000000; stroke-width: 0.25; stroke-linecap: square"/>
   </g>
   <g id="line2d_27">
    <path d="M 251.1288 174.528 
L 417.4488 174.528 
" clip-path="url(#pf17e43f755)" style="fill: none; stroke-dasharray: 0.925,0.4; stroke-dashoffset: 0; stroke: #000000; stroke-width: 0.25"/>
   </g>
   <g id="line2d_28">
    <path d="M 236.16 159.5592 
L 236.16 -1 
" clip-path="url(#pf17e43f755)" style="fill: none; stroke-dasharray: 0.925,0.4; stroke-dashoffset: 0; stroke: #000000; stroke-width: 0.25"/>
   </g>
   <g id="line2d_29">
    <path d="M 221.1912 174.528 
L 54.8712 174.528 
" clip-path="url(#pf17e43f755)" style="fill: none; stroke-dasharray: 0.925,0.4; stroke-dashoffset: 0; stroke: #000000; stroke-width: 0.25"/>
   </g>
   <g id="line2d_30">
    <path d="M 236.16 189.4968 
L 236.16 346.6 
" clip-path="url(#pf17e43f755)" style="fill: none; stroke-dasharray: 0.925,0.4; stroke-dashoffset: 0; stroke: #000000; stroke-width: 0.25"/>
   </g>
   <g id="line2d_31">
    <path d="M 242.158067 146.156794 
L 242.200525 144.186231 
L 242.237868 142.218374 
L 242.270104 140.253018 
L 242.296971 138.289965 
L 242.318639 136.329035 
L 242.335544 134.370056 
L 242.34827 132.412865 
L 242.357461 130.457307 
L 242.363758 128.503231 
L 242.367762 126.550496 
L 242.370006 124.598965 
L 242.370951 122.648512 
L 242.370976 120.699018 
L 242.370388 118.750372 
L 242.369426 116.802474 
L 242.368272 114.855231 
L 242.367055 112.908556 
L 242.365867 110.962374 
L 242.364767 109.016614 
L 242.363788 107.071214 
L 242.362946 105.126117 
L 242.362244 103.181273 
L 242.361675 101.236639 
L 242.361226 99.292175 
L 242.360881 97.347847 
L 242.360623 95.403626 
L 242.360433 93.459485 
L 242.360294 91.515403 
L 242.360188 89.57136 
L 242.360078 87.62734 
" clip-path="url(#pf17e43f755)" style="fill: none; stroke: #ff0000; stroke-opacity: 0.2; stroke-width: 0.25; stroke-linecap: square"/>
   </g>
   <g id="line2d_32">
    <path d="M 242.158067 146.156794 
L 242.20129 144.186248 
L 242.238569 142.218399 
L 242.270718 140.253062 
L 242.29749 138.290038 
L 242.319061 136.329145 
L 242.335872 134.370213 
L 242.348511 132.413077 
L 242.357625 130.457582 
L 242.363854 128.503577 
L 242.3678 126.550918 
L 242.369997 124.59947 
L 242.370903 122.649106 
L 242.370899 120.699705 
L 242.370291 118.751158 
L 242.369316 116.803361 
L 242.368156 114.856222 
L 242.36694 112.909655 
L 242.365758 110.963581 
L 242.364667 109.017931 
L 242.3637 107.07264 
L 242.362871 105.127652 
L 242.36218 103.182916 
L 242.361621 101.238386 
L 242.361178 99.294023 
L 242.360835 97.349793 
L 242.360571 95.405663 
L 242.360368 93.461608 
L 242.360206 91.517603 
L 242.360067 89.57363 
L 242.35994 87.629668 
" clip-path="url(#pf17e43f755)" style="fill: none; stroke: #ff0000; stroke-opacity: 0.4; stroke-width: 0.25; stroke-linecap: square"/>
   </g>
   <g id="line2d_33">
    <path d="M 242.158067 146.156794 
L 242.201952 144.186262 
L 242.239161 142.218407 
L 242.271224 140.253058 
L 242.297905 138.290017 
L 242.319388 136.329102 
L 242.336118 134.370143 
L 242.348687 132.412977 
L 242.357741 130.457447 
L 242.363923 128.503404 
L 242.367833 126.550703 
L 242.370004 124.599209 
L 242.370892 122.648796 
L 242.370879 120.699343 
L 242.370267 118.750742 
L 242.369295 116.802889 
L 242.36814 114.855691 
L 242.366932 112.909064 
L 242.365758 110.962929 
L 242.364675 109.017216 
L 242.363715 107.071863 
L 242.362892 105.126812 
L 242.362207 103.182014 
L 242.361651 101.237423 
L 242.361211 99.293001 
L 242.360871 97.348712 
L 242.360612 95.404526 
L 242.360416 93.460418 
L 242.360264 91.516364 
L 242.36014 89.572344 
L 242.360022 87.628342 
" clip-path="url(#pf17e43f755)" style="fill: none; stroke: #ff0000; stroke-opacity: 0.6; stroke-width: 0.25; stroke-linecap: square"/>
   </g>
   <g id="line2d_34">
    <path d="M 242.158067 146.156794 
L 242.202526 144.186275 
L 242.239662 142.218422 
L 242.271641 140.253076 
L 242.298237 138.290042 
L 242.319638 136.329138 
L 242.336296 134.370192 
L 242.348804 132.413042 
L 242.357809 130.45753 
L 242.363953 128.503506 
L 242.367835 126.550828 
L 242.369986 124.599359 
L 242.370863 122.648972 
L 242.370844 120.699548 
L 242.37023 118.750976 
L 242.369259 116.803154 
L 242.368107 114.855988 
L 242.366901 112.909394 
L 242.36573 110.963293 
L 242.36465 109.017615 
L 242.363691 107.072296 
L 242.362869 105.127281 
L 242.362183 103.182517 
L 242.361627 101.237961 
L 242.361186 99.293573 
L 242.360845 97.349318 
L 242.360584 95.405165 
L 242.360385 93.461088 
L 242.360229 91.517064 
L 242.360097 89.573073 
L 242.359975 87.629096 
" clip-path="url(#pf17e43f755)" style="fill: none; stroke: #ff0000; stroke-opacity: 0.8; stroke-width: 0.25; stroke-linecap: square"/>
   </g>
   <g id="line2d_35">
    <path d="M 242.158067 146.156794 
L 242.203026 144.186287 
L 242.240092 142.21843 
L 242.271992 140.25308 
L 242.29851 138.290041 
L 242.319841 136.329129 
L 242.336438 134.370175 
L 242.348896 132.413016 
L 242.357862 130.457493 
L 242.363977 128.503458 
L 242.367839 126.550767 
L 242.369978 124.599284 
L 242.370849 122.648883 
L 242.370827 120.699442 
L 242.370214 118.750854 
L 242.369245 116.803014 
L 242.368096 114.85583 
L 242.366894 112.909217 
L 242.365727 110.963097 
L 242.364649 109.017399 
L 242.363694 107.07206 
L 242.362874 105.127024 
L 242.362191 103.18224 
L 242.361637 101.237664 
L 242.361198 99.293256 
L 242.360859 97.34898 
L 242.3606 95.404808 
L 242.360403 93.460712 
L 242.36025 91.51667 
L 242.360123 89.572661 
L 242.360004 87.628667 
" clip-path="url(#pf17e43f755)" style="fill: none; stroke: #ff0000; stroke-width: 0.25; stroke-linecap: square"/>
   </g>
   <g id="line2d_36">
    <path d="M 208.255606 168.362967 
L 206.273123 168.383955 
L 204.292083 168.39592 
L 202.312492 168.399906 
L 200.334336 168.398376 
L 198.357577 168.393275 
L 196.382165 168.386099 
L 194.408041 168.377957 
L 192.435146 168.369641 
L 190.463419 168.361688 
L 188.492797 168.354431 
L 186.523217 168.348056 
L 184.554618 168.342633 
L 182.586937 168.338157 
L 180.620109 168.334567 
L 178.654075 168.331774 
L 176.68877 168.329674 
L 174.724134 168.328155 
L 172.760107 168.327111 
L 170.79663 168.326446 
L 168.833645 168.326071 
L 166.871097 168.325912 
L 164.908932 168.325907 
L 162.947097 168.326009 
L 160.985542 168.326178 
L 159.024222 168.326386 
L 157.063089 168.326614 
L 155.102103 168.326849 
L 153.141223 168.327081 
L 151.180412 168.327309 
L 149.219635 168.327531 
" clip-path="url(#pf17e43f755)" style="fill: none; stroke: #ff0000; stroke-opacity: 0.2; stroke-width: 0.25; stroke-linecap: square"/>
   </g>
   <g id="line2d_37">
    <path d="M 208.255606 168.362967 
L 206.273104 168.382148 
L 204.292046 168.394179 
L 202.312418 168.398312 
L 200.334206 168.39698 
L 198.357373 168.392107 
L 196.381869 168.385168 
L 194.407636 168.377262 
L 192.434616 168.36917 
L 190.462748 168.361421 
L 188.491969 168.354345 
L 186.522218 168.348125 
L 184.553433 168.342829 
L 182.585551 168.338452 
L 180.61851 168.334935 
L 178.652248 168.33219 
L 176.686703 168.330116 
L 174.721815 168.328605 
L 172.757524 168.327554 
L 170.793771 168.326869 
L 168.8305 168.326466 
L 166.867655 168.326273 
L 164.905183 168.326232 
L 162.943032 168.326296 
L 160.981154 168.326429 
L 159.019501 168.326604 
L 157.05803 168.326803 
L 155.096697 168.327011 
L 153.135465 168.327223 
L 151.174296 168.327432 
L 149.213158 168.327639 
" clip-path="url(#pf17e43f755)" style="fill: none; stroke: #ff0000; stroke-opacity: 0.4; stroke-width: 0.25; stroke-linecap: square"/>
   </g>
   <g id="line2d_38">
    <path d="M 208.255606 168.362967 
L 206.27309 168.380601 
L 204.292043 168.392729 
L 202.312437 168.397021 
L 200.334256 168.395882 
L 198.357463 168.391211 
L 196.382008 168.384471 
L 194.407834 168.376746 
L 192.43488 168.368812 
L 190.463087 168.361194 
L 188.492391 168.35422 
L 186.522731 168.348073 
L 184.554043 168.342824 
L 182.586265 168.338471 
L 180.619334 168.33496 
L 178.653188 168.332208 
L 176.687765 168.330116 
L 174.723003 168.328581 
L 172.758844 168.327505 
L 170.795227 168.326795 
L 168.832095 168.326369 
L 166.869394 168.326158 
L 164.907068 168.326105 
L 162.945067 168.326162 
L 160.983342 168.326293 
L 159.021843 168.32647 
L 157.060528 168.326675 
L 155.099354 168.326892 
L 153.138281 168.327114 
L 151.177273 168.327336 
L 149.216296 168.327555 
" clip-path="url(#pf17e43f755)" style="fill: none; stroke: #ff0000; stroke-opacity: 0.6; stroke-width: 0.25; stroke-linecap: square"/>
   </g>
   <g id="line2d_39">
    <path d="M 208.255606 168.362967 
L 206.273079 168.379275 
L 204.292027 168.391527 
L 202.312411 168.395988 
L 200.334214 168.395039 
L 198.357401 168.390561 
L 196.38192 168.384 
L 194.407716 168.376434 
L 192.434729 168.368633 
L 190.462898 168.361121 
L 188.492161 168.354226 
L 186.522456 168.348134 
L 184.55372 168.342921 
L 182.585891 168.338586 
L 180.618906 168.335082 
L 178.652704 168.332328 
L 176.687221 168.330229 
L 174.722399 168.328686 
L 172.758175 168.327601 
L 170.794493 168.326882 
L 168.831294 168.32645 
L 166.868524 168.326234 
L 164.906128 168.326177 
L 162.944056 168.326232 
L 160.982257 168.326361 
L 159.020686 168.326538 
L 157.059297 168.326741 
L 155.098048 168.326956 
L 153.1369 168.327176 
L 151.175816 168.327395 
L 149.214763 168.327611 
" clip-path="url(#pf17e43f755)" style="fill: none; stroke: #ff0000; stroke-opacity: 0.8; stroke-width: 0.25; stroke-linecap: square"/>
   </g>
   <g id="line2d_40">
    <path d="M 208.255606 168.362967 
L 206.27307 168.378133 
L 204.292022 168.390512 
L 202.312411 168.395135 
L 200.334222 168.394357 
L 198.357419 168.390045 
L 196.38195 168.383633 
L 194.407761 168.376193 
L 192.43479 168.368492 
L 190.462978 168.361054 
L 188.492261 168.354211 
L 186.522579 168.348151 
L 184.553867 168.342953 
L 182.586064 168.338623 
L 180.619106 168.335115 
L 178.652932 168.332353 
L 176.68748 168.330245 
L 174.722688 168.328691 
L 172.758496 168.327596 
L 170.794846 168.326869 
L 168.831681 168.32643 
L 166.868945 168.326209 
L 164.906585 168.326148 
L 162.944548 168.3262 
L 160.982786 168.326327 
L 159.021251 168.326502 
L 157.059898 168.326704 
L 155.098686 168.326919 
L 153.137576 168.327139 
L 151.176529 168.327358 
L 149.215514 168.327573 
" clip-path="url(#pf17e43f755)" style="fill: none; stroke: #ff0000; stroke-width: 0.25; stroke-linecap: square"/>
   </g>
   <g id="line2d_41">
    <path d="M 261.386308 180.613321 
L 263.383275 180.659786 
L 265.377243 180.695276 
L 267.368397 180.720813 
L 269.356918 180.73818 
L 271.342996 180.749074 
L 273.326828 180.755025 
L 275.308609 180.757348 
L 277.288529 180.757135 
L 279.26677 180.755263 
L 281.243503 180.75241 
L 283.21889 180.749082 
L 285.193079 180.745642 
L 287.166208 180.742335 
L 289.138405 180.739315 
L 291.109783 180.736665 
L 293.080451 180.734417 
L 295.050503 180.732569 
L 297.020025 180.731096 
L 298.989097 180.729958 
L 300.957788 180.729109 
L 302.926159 180.728501 
L 304.894265 180.72809 
L 306.862155 180.727834 
L 308.82987 180.727698 
L 310.797447 180.727651 
L 312.764917 180.727667 
L 314.732307 180.727727 
L 316.69964 180.727814 
L 318.666935 180.727916 
L 320.63421 180.72801 
" clip-path="url(#pf17e43f755)" style="fill: none; stroke: #ff0000; stroke-opacity: 0.2; stroke-width: 0.25; stroke-linecap: square"/>
   </g>
   <g id="line2d_42">
    <path d="M 261.386308 180.613321 
L 263.383291 180.659085 
L 265.377246 180.694565 
L 267.368373 180.720135 
L 269.356854 180.737566 
L 271.34288 180.748546 
L 273.326649 180.754593 
L 275.308357 180.757017 
L 277.288193 180.756905 
L 279.266341 180.755127 
L 281.242972 180.75236 
L 283.218249 180.749108 
L 285.192319 180.745732 
L 287.165323 180.742476 
L 289.137387 180.739494 
L 291.108628 180.73687 
L 293.079152 180.734636 
L 295.049056 180.732793 
L 297.018427 180.731314 
L 298.987344 180.730163 
L 300.955877 180.729297 
L 302.924088 180.728669 
L 304.892034 180.728236 
L 306.859763 180.727959 
L 308.827319 180.727803 
L 310.794737 180.727738 
L 312.762051 180.727739 
L 314.729287 180.727784 
L 316.696472 180.727856 
L 318.663624 180.727942 
L 320.630762 180.728033 
" clip-path="url(#pf17e43f755)" style="fill: none; stroke: #ff0000; stroke-opacity: 0.4; stroke-width: 0.25; stroke-linecap: square"/>
   </g>
   <g id="line2d_43">
    <path d="M 261.386308 180.613321 
L 263.383305 180.658473 
L 265.377267 180.693962 
L 267.368407 180.719577 
L 269.356908 180.737076 
L 271.342961 180.748136 
L 273.326762 180.754267 
L 275.308508 180.756772 
L 277.288388 180.756733 
L 279.266584 180.755017 
L 281.243269 180.7523 
L 283.218603 180.749085 
L 285.192736 180.745733 
L 287.165806 180.74249 
L 289.137939 180.739512 
L 291.109253 180.736883 
L 293.079852 180.73464 
L 295.049834 180.732784 
L 297.019285 180.731291 
L 298.988284 180.730128 
L 300.956901 180.72925 
L 302.925198 180.728615 
L 304.89323 180.728178 
L 306.861046 180.7279 
L 308.828688 180.727746 
L 310.796194 180.727685 
L 312.763594 180.727691 
L 314.730917 180.727742 
L 316.698185 180.727822 
L 318.66542 180.727916 
L 320.63264 180.728012 
" clip-path="url(#pf17e43f755)" style="fill: none; stroke: #ff0000; stroke-opacity: 0.6; stroke-width: 0.25; stroke-linecap: square"/>
   </g>
   <g id="line2d_44">
    <path d="M 261.386308 180.613321 
L 263.383317 180.65794 
L 265.377275 180.693453 
L 267.368407 180.719123 
L 269.356895 180.736694 
L 271.342933 180.747834 
L 273.326717 180.754044 
L 275.308442 180.756622 
L 277.288298 180.756645 
L 279.266468 180.754982 
L 281.243124 180.752304 
L 283.218426 180.749117 
L 285.192526 180.745783 
L 287.16556 180.74255 
L 289.137655 180.739575 
L 291.108929 180.736945 
L 293.079488 180.734698 
L 295.049427 180.732836 
L 297.018834 180.731339 
L 298.987788 180.730171 
L 300.956359 180.72929 
L 302.924609 180.728652 
L 304.892594 180.728214 
L 306.860362 180.727934 
L 308.827956 180.727778 
L 310.795413 180.727715 
L 312.762765 180.727718 
L 314.730039 180.727766 
L 316.69726 180.727842 
L 318.664447 180.727932 
L 320.631619 180.728025 
" clip-path="url(#pf17e43f755)" style="fill: none; stroke: #ff0000; stroke-opacity: 0.8; stroke-width: 0.25; stroke-linecap: square"/>
   </g>
   <g id="line2d_45">
    <path d="M 261.386308 180.613321 
L 263.383328 180.657472 
L 265.377287 180.693016 
L 267.368422 180.718741 
L 269.356916 180.73638 
L 271.342961 180.747591 
L 273.326753 180.753869 
L 275.308489 180.756506 
L 277.288357 180.756579 
L 279.266541 180.754952 
L 281.243212 180.752301 
L 283.218531 180.74913 
L 285.192648 180.745804 
L 287.165701 180.742573 
L 289.137816 180.739596 
L 291.109111 180.736961 
L 293.079691 180.734708 
L 295.049653 180.732841 
L 297.019083 180.731339 
L 298.988061 180.730166 
L 300.956656 180.729282 
L 302.924931 180.728642 
L 304.892941 180.728201 
L 306.860734 180.727921 
L 308.828354 180.727764 
L 310.795837 180.7277 
L 312.763214 180.727703 
L 314.730515 180.727752 
L 316.697761 180.727829 
L 318.664975 180.727921 
L 320.632173 180.728015 
" clip-path="url(#pf17e43f755)" style="fill: none; stroke: #ff0000; stroke-width: 0.25; stroke-linecap: square"/>
   </g>
   <g id="line2d_46">
    <path d="M 230.19614 211.909642 
L 230.139353 213.687954 
L 230.091884 215.469464 
L 230.053171 217.254053 
L 230.022285 219.041593 
L 229.998214 220.831954 
L 229.979941 222.625012 
L 229.966496 224.420644 
L 229.956986 226.218729 
L 229.950614 228.019147 
L 229.946689 229.821777 
L 229.944621 231.6265 
L 229.94392 233.433193 
L 229.944186 235.241737 
L 229.9451 237.052008 
L 229.946413 238.863884 
L 229.947936 240.677245 
L 229.949528 242.49197 
L 229.951093 244.307941 
L 229.952563 246.125039 
L 229.953898 247.943152 
L 229.955077 249.762168 
L 229.956093 251.581978 
L 229.95695 253.40248 
L 229.95766 255.223571 
L 229.95824 257.045156 
L 229.958708 258.867144 
L 229.959087 260.689448 
L 229.959398 262.511986 
L 229.959665 264.334683 
L 229.959935 266.157469 
" clip-path="url(#pf17e43f755)" style="fill: none; stroke: #ff0000; stroke-opacity: 0.2; stroke-width: 0.25; stroke-linecap: square"/>
   </g>
   <g id="line2d_47">
    <path d="M 230.19614 211.909642 
L 230.139518 213.687959 
L 230.092054 215.469439 
L 230.053334 217.253965 
L 230.022431 219.041409 
L 229.998338 220.831641 
L 229.980039 222.624536 
L 229.966565 224.419969 
L 229.957027 226.21782 
L 229.950628 228.017967 
L 229.946678 229.820289 
L 229.944589 231.624665 
L 229.94387 233.430973 
L 229.944122 235.239092 
L 229.945025 237.048897 
L 229.946332 238.860268 
L 229.947851 240.673081 
L 229.949444 242.487217 
L 229.951012 244.302555 
L 229.952488 246.11898 
L 229.953832 247.936376 
L 229.955022 249.754633 
L 229.956054 251.573642 
L 229.95693 253.393299 
L 229.957665 255.213504 
L 229.958277 257.034163 
L 229.958785 258.855183 
L 229.959213 260.676481 
L 229.959586 262.497974 
L 229.959927 264.31959 
L 229.96025 266.141259 
" clip-path="url(#pf17e43f755)" style="fill: none; stroke: #ff0000; stroke-opacity: 0.4; stroke-width: 0.25; stroke-linecap: square"/>
   </g>
   <g id="line2d_48">
    <path d="M 230.19614 211.909642 
L 230.139653 213.687963 
L 230.092189 215.469464 
L 230.053459 217.254032 
L 230.022542 219.041538 
L 229.998431 220.831854 
L 229.980114 222.624854 
L 229.966624 224.420413 
L 229.957071 226.218411 
L 229.950661 228.018726 
L 229.946703 229.821237 
L 229.944609 231.625824 
L 229.943888 233.432364 
L 229.94414 235.240735 
L 229.945046 237.050814 
L 229.946355 238.862479 
L 229.947878 240.675607 
L 229.949473 242.490079 
L 229.951042 244.305773 
L 229.952518 246.122574 
L 229.953859 247.940367 
L 229.955045 249.759039 
L 229.956068 251.578483 
L 229.956934 253.398594 
L 229.957655 255.219272 
L 229.958248 257.04042 
L 229.958733 258.861948 
L 229.959133 260.683769 
L 229.959472 262.505802 
L 229.959773 264.327972 
L 229.960064 266.15021 
" clip-path="url(#pf17e43f755)" style="fill: none; stroke: #ff0000; stroke-opacity: 0.6; stroke-width: 0.25; stroke-linecap: square"/>
   </g>
   <g id="line2d_49">
    <path d="M 230.19614 211.909642 
L 230.139758 213.687967 
L 230.092288 215.469454 
L 230.053547 217.253995 
L 230.022615 219.041462 
L 229.998488 220.831726 
L 229.980155 222.624661 
L 229.96665 224.420144 
L 229.957084 226.218052 
L 229.950664 228.018266 
L 229.946699 229.820664 
L 229.944599 231.625126 
L 229.943874 233.43153 
L 229.944124 235.239753 
L 229.945028 237.049674 
L 229.946336 238.861169 
L 229.947859 240.674118 
L 229.949454 242.488398 
L 229.951024 244.303893 
L 229.952501 246.120483 
L 229.953844 247.938056 
L 229.955033 249.756499 
L 229.956062 251.575705 
L 229.956934 253.395569 
L 229.957664 255.215992 
L 229.958267 257.036878 
L 229.958766 258.858135 
L 229.959183 260.679679 
L 229.959541 262.501428 
L 229.959864 264.323308 
L 229.960175 266.14525 
" clip-path="url(#pf17e43f755)" style="fill: none; stroke: #ff0000; stroke-opacity: 0.8; stroke-width: 0.25; stroke-linecap: square"/>
   </g>
   <g id="line2d_50">
    <path d="M 230.19614 211.909642 
L 230.139843 213.687969 
L 230.092367 215.469464 
L 230.053615 217.254021 
L 230.02267 219.041512 
L 229.99853 220.831806 
L 229.980186 222.624779 
L 229.966671 224.420307 
L 229.957099 226.218268 
L 229.950674 228.018541 
L 229.946705 229.821006 
L 229.944603 231.62554 
L 229.943878 233.432023 
L 229.944128 235.240331 
L 229.945033 237.050342 
L 229.946342 238.861934 
L 229.947865 240.674985 
L 229.949461 242.489373 
L 229.951031 244.30498 
L 229.952507 246.121688 
L 229.953849 247.939382 
L 229.955036 249.757952 
L 229.956062 251.577289 
L 229.956931 253.397288 
L 229.957656 255.21785 
L 229.958253 257.038877 
L 229.958744 258.86028 
L 229.959151 260.681973 
L 229.959499 262.503873 
L 229.95981 264.325907 
L 229.960109 266.148005 
" clip-path="url(#pf17e43f755)" style="fill: none; stroke: #ff0000; stroke-width: 0.25; stroke-linecap: square"/>
   </g>
   <g id="line2d_51">
    <path d="M 245.258157 180.159319 
L 245.8196 178.199341 
L 245.905208 176.156511 
L 245.760411 174.112362 
L 245.387466 172.093854 
L 244.790364 170.127708 
L 243.974435 168.240861 
L 243.176557 166.346674 
L 242.464664 164.420154 
L 241.881461 162.453674 
L 241.497054 160.442784 
L 241.343397 158.406016 
L 241.319199 156.368916 
L 241.387609 154.338325 
L 241.515557 152.315948 
L 241.653447 150.299185 
L 241.790394 148.286941 
L 241.918329 146.278305 
L 242.031989 144.272634 
L 242.128572 142.269516 
L 242.207267 140.268695 
L 242.268722 138.269992 
L 242.314565 136.273242 
L 242.346991 134.278261 
L 242.368442 132.284841 
L 242.381379 130.292744 
L 242.388128 128.301717 
L 242.390782 126.311502 
L 242.390627 124.321844 
L 242.388335 122.332505 
L 242.382968 120.343279 
" clip-path="url(#pf17e43f755)" style="fill: none; stroke: #ff0000; stroke-opacity: 0.2; stroke-width: 0.25; stroke-linecap: square"/>
   </g>
   <g id="line2d_52">
    <path d="M 245.258157 180.159319 
L 245.820184 178.199509 
L 245.90706 176.156771 
L 245.76368 174.1126 
L 245.392058 172.093967 
L 244.796081 170.127635 
L 243.981257 168.240505 
L 243.184814 166.345933 
L 242.4744 164.419106 
L 241.892657 162.452445 
L 241.50962 160.441551 
L 241.357128 158.40496 
L 241.333693 156.368119 
L 241.402497 154.337813 
L 241.530653 152.315726 
L 241.668578 150.299246 
L 241.805406 148.28728 
L 241.933085 146.278919 
L 242.046368 144.273525 
L 242.14247 142.270689 
L 242.220588 140.27016 
L 242.281383 138.27176 
L 242.326489 136.275325 
L 242.358104 134.280675 
L 242.378673 132.287599 
L 242.390658 130.295862 
L 242.396381 128.30521 
L 242.397932 126.315384 
L 242.396618 124.326128 
L 242.39316 122.337205 
L 242.386779 120.348407 
" clip-path="url(#pf17e43f755)" style="fill: none; stroke: #ff0000; stroke-opacity: 0.4; stroke-width: 0.25; stroke-linecap: square"/>
   </g>
   <g id="line2d_53">
    <path d="M 245.258157 180.159319 
L 245.820663 178.199646 
L 245.907671 176.15695 
L 245.765529 174.112765 
L 245.393625 172.094289 
L 244.795832 170.128647 
L 243.980828 168.241763 
L 243.184474 166.347346 
L 242.474193 164.420673 
L 241.892574 162.454185 
L 241.509594 160.443493 
L 241.357002 158.407121 
L 241.333249 156.370495 
L 241.401601 154.340382 
L 241.52923 152.318466 
L 241.666573 150.302151 
L 241.802782 148.290346 
L 241.929821 146.28215 
L 242.042457 144.276925 
L 242.137914 142.274269 
L 242.215401 140.273929 
L 242.275582 138.27573 
L 242.320095 136.279507 
L 242.351136 134.285081 
L 242.371147 132.292241 
L 242.382581 130.300751 
L 242.387754 128.310356 
L 242.388744 126.320799 
L 242.386869 124.331823 
L 242.382886 122.343191 
L 242.376154 120.354693 
" clip-path="url(#pf17e43f755)" style="fill: none; stroke: #ff0000; stroke-opacity: 0.6; stroke-width: 0.25; stroke-linecap: square"/>
   </g>
   <g id="line2d_54">
    <path d="M 245.258157 180.159319 
L 245.821376 178.199851 
L 245.908098 176.157168 
L 245.766125 174.11302 
L 245.393996 172.094657 
L 244.795709 170.129255 
L 243.981009 168.24235 
L 243.185357 166.347757 
L 242.47587 164.420915 
L 241.895099 162.454302 
L 241.512972 160.44357 
L 241.361145 158.407258 
L 241.33788 156.370738 
L 241.406487 154.34074 
L 241.53429 152.318936 
L 241.671742 150.302723 
L 241.808013 148.291014 
L 241.935086 146.28291 
L 242.04774 144.277776 
L 242.143213 142.275209 
L 242.220721 140.274962 
L 242.280935 138.276858 
L 242.325496 136.280736 
L 242.356601 134.286414 
L 242.376688 132.293685 
L 242.388205 130.302312 
L 242.393459 128.312042 
L 242.394517 126.322617 
L 242.39271 124.333783 
L 242.388828 122.3453 
L 242.382359 120.35696 
" clip-path="url(#pf17e43f755)" style="fill: none; stroke: #ff0000; stroke-opacity: 0.8; stroke-width: 0.25; stroke-linecap: square"/>
   </g>
   <g id="line2d_55">
    <path d="M 245.258157 180.159319 
L 245.822034 178.20004 
L 245.908317 176.157362 
L 245.764761 174.113371 
L 245.392146 172.095161 
L 244.79459 170.12962 
L 243.979196 168.243114 
L 243.183772 166.348532 
L 242.474558 164.421702 
L 241.894062 162.455118 
L 241.51216 160.444451 
L 241.36042 158.408234 
L 241.337035 156.37181 
L 241.405401 154.34189 
L 241.532905 152.320146 
L 241.67002 150.303983 
L 241.805934 148.292318 
L 241.932644 146.284255 
L 242.044943 144.279163 
L 242.140081 142.276642 
L 242.21728 140.276445 
L 242.277218 138.278396 
L 242.321535 136.282334 
L 242.352429 134.288078 
L 242.372331 132.295421 
L 242.383684 130.304127 
L 242.388784 128.313943 
L 242.389689 126.324611 
L 242.387737 124.335878 
L 242.383749 122.347504 
L 242.37733 120.35928 
" clip-path="url(#pf17e43f755)" style="fill: none; stroke: #ff0000; stroke-width: 0.25; stroke-linecap: square"/>
   </g>
   <g id="line2d_56">
    <path d="M 238.773245 170.250946 
L 237.019769 171.369534 
L 235.404395 172.681168 
L 233.949321 174.168641 
L 232.674675 175.812652 
L 231.596207 177.590258 
L 230.727258 179.477176 
L 230.078186 181.447823 
L 229.658116 183.476138 
L 229.471103 185.534754 
L 229.518032 187.596239 
L 229.665528 189.64709 
L 229.71312 191.696257 
L 229.734077 193.739294 
L 229.761623 195.775959 
L 229.792427 197.806807 
L 229.822641 199.832409 
L 229.850002 201.853298 
L 229.873478 203.869969 
L 229.892908 205.88289 
L 229.908609 207.892508 
L 229.921168 209.899248 
L 229.931232 211.903524 
L 229.939298 213.90573 
L 229.945745 215.906242 
L 229.950812 217.905414 
L 229.95469 219.903577 
L 229.957496 221.901029 
L 229.95939 223.898033 
L 229.960468 225.894813 
L 229.960668 227.891523 
" clip-path="url(#pf17e43f755)" style="fill: none; stroke: #ff0000; stroke-opacity: 0.2; stroke-width: 0.25; stroke-linecap: square"/>
   </g>
   <g id="line2d_57">
    <path d="M 238.773245 170.250946 
L 237.019246 171.368713 
L 235.403141 172.679457 
L 233.947127 174.166022 
L 232.671308 175.809135 
L 231.591542 177.585961 
L 230.721244 179.472262 
L 230.070898 181.442489 
L 229.6496 183.470542 
L 229.461496 185.529044 
L 229.507541 187.590526 
L 229.654841 189.641356 
L 229.702011 191.690486 
L 229.722538 193.733466 
L 229.749813 195.770057 
L 229.780528 197.800815 
L 229.810826 199.826307 
L 229.838427 201.847066 
L 229.862286 203.863591 
L 229.882218 205.876346 
L 229.898521 207.88578 
L 229.911762 209.892318 
L 229.922573 211.896374 
L 229.931435 213.89834 
L 229.938718 215.898593 
L 229.944656 217.897488 
L 229.949435 219.895353 
L 229.953172 221.89249 
L 229.956026 223.889163 
L 229.958094 225.885598 
L 229.959326 227.881955 
" clip-path="url(#pf17e43f755)" style="fill: none; stroke: #ff0000; stroke-opacity: 0.4; stroke-width: 0.25; stroke-linecap: square"/>
   </g>
   <g id="line2d_58">
    <path d="M 238.773245 170.250946 
L 237.019395 171.368947 
L 235.403519 172.679981 
L 233.947324 174.16638 
L 232.669601 175.808024 
L 231.587707 177.583565 
L 230.716096 179.469266 
L 230.066253 181.43966 
L 229.645105 183.467742 
L 229.457251 185.52626 
L 229.503716 187.58772 
L 229.651638 189.638484 
L 229.699173 191.687577 
L 229.719993 193.730514 
L 229.747649 195.767051 
L 229.778853 197.797741 
L 229.809741 199.823151 
L 229.838021 201.843815 
L 229.862629 203.86023 
L 229.883365 205.872864 
L 229.900507 207.88216 
L 229.914607 209.888548 
L 229.926282 211.892436 
L 229.936003 213.89422 
L 229.944134 215.894274 
L 229.950905 217.892952 
L 229.956506 219.890585 
L 229.961054 221.887472 
L 229.964715 223.883881 
L 229.967594 225.880038 
L 229.969659 227.87611 
" clip-path="url(#pf17e43f755)" style="fill: none; stroke: #ff0000; stroke-opacity: 0.6; stroke-width: 0.25; stroke-linecap: square"/>
   </g>
   <g id="line2d_59">
    <path d="M 238.773245 170.250946 
L 237.019834 171.369636 
L 235.40456 172.681418 
L 233.948941 174.16839 
L 232.671244 175.810063 
L 231.589366 177.58562 
L 230.718154 179.471508 
L 230.069333 181.442239 
L 229.648927 183.470471 
L 229.461624 185.529031 
L 229.508402 187.590471 
L 229.656953 189.641171 
L 229.704797 191.69023 
L 229.72575 193.733132 
L 229.753516 195.769624 
L 229.784838 197.800258 
L 229.815845 199.825601 
L 229.84424 201.846188 
L 229.868947 203.862514 
L 229.889753 205.875045 
L 229.906926 207.884226 
L 229.921004 209.890484 
L 229.932596 211.894228 
L 229.942168 213.895852 
L 229.950083 215.895731 
L 229.956577 217.894217 
L 229.961842 219.891641 
L 229.966007 221.888305 
L 229.969248 223.884475 
L 229.971685 225.880381 
L 229.973309 227.876194 
" clip-path="url(#pf17e43f755)" style="fill: none; stroke: #ff0000; stroke-opacity: 0.8; stroke-width: 0.25; stroke-linecap: square"/>
   </g>
   <g id="line2d_60">
    <path d="M 238.773245 170.250946 
L 237.01962 171.369299 
L 235.40403 172.680694 
L 233.948426 174.167678 
L 232.672217 175.8105 
L 231.592062 177.587094 
L 230.721976 179.473485 
L 230.072805 181.444078 
L 229.652425 183.472287 
L 229.465142 185.530816 
L 229.511883 187.592217 
L 229.660663 189.642855 
L 229.708424 191.691862 
L 229.729123 193.734705 
L 229.756615 195.771131 
L 229.787671 197.801689 
L 229.818419 199.826947 
L 229.846556 201.847437 
L 229.870995 203.863655 
L 229.891514 205.876065 
L 229.908367 207.885112 
L 229.922084 209.891221 
L 229.933264 211.894803 
L 229.94237 213.89625 
L 229.949763 215.895936 
L 229.955681 217.894215 
L 229.960324 219.891416 
L 229.96383 221.887841 
L 229.966382 223.883759 
L 229.968116 225.879401 
L 229.969043 227.874943 
" clip-path="url(#pf17e43f755)" style="fill: none; stroke: #ff0000; stroke-width: 0.25; stroke-linecap: square"/>
   </g>
   <g id="line2d_61">
    <path d="M 228.098463 162.130429 
L 227.001713 163.490274 
L 225.779249 164.738876 
L 224.441945 165.864547 
L 223.002514 166.857713 
L 221.473637 167.708838 
L 219.869287 168.410401 
L 218.203815 168.955612 
L 216.492302 169.339298 
L 214.750251 169.557379 
L 212.993591 169.607333 
L 211.237959 169.496638 
L 209.48081 169.382253 
L 207.722326 169.261819 
L 205.962319 169.138699 
L 204.20049 169.01786 
L 202.436618 168.903665 
L 200.670616 168.799269 
L 198.902529 168.706562 
L 197.132501 168.626331 
L 195.360736 168.558491 
L 193.587461 168.502306 
L 191.812909 168.456593 
L 190.0373 168.419901 
L 188.260833 168.390684 
L 186.483692 168.367391 
L 184.706036 168.34871 
L 182.928011 168.333486 
L 181.149742 168.32101 
L 179.371338 168.310877 
L 177.59288 168.30366 
" clip-path="url(#pf17e43f755)" style="fill: none; stroke: #ff0000; stroke-opacity: 0.2; stroke-width: 0.25; stroke-linecap: square"/>
   </g>
   <g id="line2d_62">
    <path d="M 228.098463 162.130429 
L 227.001864 163.490396 
L 225.779576 164.739165 
L 224.442481 165.865075 
L 223.003214 166.85846 
L 221.474478 167.709812 
L 219.870221 168.411551 
L 218.204808 168.956888 
L 216.493324 169.340622 
L 214.751287 169.558677 
L 212.994641 169.608534 
L 211.239048 169.497446 
L 209.481923 169.382858 
L 207.723456 169.262273 
L 205.963459 169.139028 
L 204.201634 169.018074 
L 202.437759 168.903765 
L 200.671746 168.799252 
L 198.903639 168.70642 
L 197.133582 168.626054 
L 195.361778 168.558071 
L 193.588453 168.50174 
L 191.81384 168.455882 
L 190.038158 168.419058 
L 188.261607 168.389732 
L 186.48437 168.366363 
L 184.706607 168.347641 
L 182.928463 168.332408 
L 181.150066 168.31993 
L 179.371526 168.309753 
L 177.592928 168.302338 
" clip-path="url(#pf17e43f755)" style="fill: none; stroke: #ff0000; stroke-opacity: 0.4; stroke-width: 0.25; stroke-linecap: square"/>
   </g>
   <g id="line2d_63">
    <path d="M 228.098463 162.130429 
L 227.002509 163.490916 
L 225.781226 164.740667 
L 224.445676 165.868408 
L 223.007424 166.863262 
L 221.479559 167.716178 
L 219.875697 168.418822 
L 218.210391 168.964493 
L 216.498777 169.347666 
L 214.756572 169.564441 
L 212.999861 169.612353 
L 211.244301 169.500474 
L 209.487193 169.385303 
L 207.728734 169.264216 
L 205.968734 169.140521 
L 204.206896 169.019158 
L 202.442996 168.904473 
L 200.676946 168.799608 
L 198.90879 168.706446 
L 197.138671 168.62577 
L 195.366792 168.557494 
L 193.59338 168.500891 
L 191.818667 168.454788 
L 190.042872 168.417753 
L 188.266197 168.388257 
L 186.488823 168.364768 
L 184.710913 168.345977 
L 182.932611 168.330719 
L 181.154048 168.318234 
L 179.375334 168.308019 
L 177.596556 168.300424 
" clip-path="url(#pf17e43f755)" style="fill: none; stroke: #ff0000; stroke-opacity: 0.6; stroke-width: 0.25; stroke-linecap: square"/>
   </g>
   <g id="line2d_64">
    <path d="M 228.098463 162.130429 
L 227.002653 163.491032 
L 225.781621 164.74103 
L 224.446507 165.869291 
L 223.008511 166.864523 
L 221.480859 167.717835 
L 219.877054 168.42063 
L 218.211715 168.966239 
L 216.5 169.349032 
L 214.757697 169.565175 
L 213.000938 169.612227 
L 211.245383 169.499811 
L 209.488261 169.384318 
L 207.729775 169.262998 
L 205.969738 169.139135 
L 204.207851 169.017656 
L 202.44389 168.902897 
L 200.677769 168.797996 
L 198.909531 168.704828 
L 197.13932 168.624173 
L 195.367339 168.555946 
L 193.593814 168.499419 
L 191.818979 168.453424 
L 190.043051 168.416534 
L 188.266233 168.387229 
L 186.488706 168.363982 
L 184.710634 168.345484 
L 182.932161 168.330562 
L 181.153419 168.318432 
L 179.37452 168.308545 
L 177.595554 168.301145 
" clip-path="url(#pf17e43f755)" style="fill: none; stroke: #ff0000; stroke-opacity: 0.8; stroke-width: 0.25; stroke-linecap: square"/>
   </g>
   <g id="line2d_65">
    <path d="M 228.098463 162.130429 
L 227.002183 163.490653 
L 225.780349 164.739863 
L 224.443953 165.866598 
L 223.005109 166.860589 
L 221.476711 167.712543 
L 219.872551 168.414499 
L 218.207092 168.959701 
L 216.495457 169.342787 
L 214.753272 169.559767 
L 212.996562 169.60815 
L 211.241019 169.495719 
L 209.483894 169.380408 
L 207.725397 169.259337 
L 205.965342 169.135764 
L 204.203432 169.014602 
L 202.439443 168.900176 
L 200.67329 168.795618 
L 198.905016 168.702796 
L 197.134765 168.622488 
L 195.362739 168.554606 
L 193.589165 168.498425 
L 191.814274 168.452782 
L 190.038285 168.416257 
L 188.261398 168.387336 
L 186.483796 168.364501 
L 184.70564 168.346443 
L 182.927078 168.331987 
L 181.148239 168.320323 
L 179.369238 168.310865 
L 177.590167 168.303765 
" clip-path="url(#pf17e43f755)" style="fill: none; stroke: #ff0000; stroke-width: 0.25; stroke-linecap: square"/>
   </g>
   <g id="line2d_66">
    <path d="M 231.133978 184.261324 
L 233.038053 184.845831 
L 234.990959 185.245155 
L 236.981266 185.368836 
L 238.961558 185.134566 
L 240.898603 184.664476 
L 242.770791 183.984064 
L 244.655466 183.343397 
L 246.562626 182.778159 
L 248.487927 182.283907 
L 250.429204 181.863281 
L 252.383613 181.516389 
L 254.347813 181.239388 
L 256.318599 181.025361 
L 258.293333 180.86573 
L 260.270078 180.751471 
L 262.247544 180.673919 
L 264.224948 180.625215 
L 266.201865 180.598497 
L 268.178109 180.587963 
L 270.153635 180.588847 
L 272.128476 180.597343 
L 274.102705 180.610518 
L 276.076409 180.626195 
L 278.049674 180.64285 
L 280.022585 180.659489 
L 281.995218 180.675559 
L 283.967645 180.690848 
L 285.939929 180.705418 
L 287.912132 180.719561 
L 289.884303 180.733784 
" clip-path="url(#pf17e43f755)" style="fill: none; stroke: #ff0000; stroke-opacity: 0.2; stroke-width: 0.25; stroke-linecap: square"/>
   </g>
   <g id="line2d_67">
    <path d="M 231.133978 184.261324 
L 233.038002 184.845998 
L 234.990908 185.245342 
L 236.981218 185.369074 
L 238.961531 185.134907 
L 240.898665 184.66514 
L 242.770763 183.984448 
L 244.65538 183.343573 
L 246.5625 182.778161 
L 248.487766 182.283727 
L 250.42901 181.862908 
L 252.383391 181.51581 
L 254.347566 181.238589 
L 256.318331 181.024329 
L 258.293045 180.864451 
L 260.269774 180.749933 
L 262.247225 180.672112 
L 264.224614 180.623127 
L 266.201516 180.59612 
L 268.177742 180.58529 
L 270.153248 180.58587 
L 272.128066 180.594056 
L 274.102268 180.606914 
L 276.075941 180.622266 
L 278.04917 180.638587 
L 280.02204 180.654883 
L 281.994628 180.670595 
L 283.967004 180.68551 
L 285.939233 180.699683 
L 287.911375 180.713392 
L 289.883482 180.727112 
" clip-path="url(#pf17e43f755)" style="fill: none; stroke: #ff0000; stroke-opacity: 0.4; stroke-width: 0.25; stroke-linecap: square"/>
   </g>
   <g id="line2d_68">
    <path d="M 231.133978 184.261324 
L 233.038006 184.845985 
L 234.990945 185.245161 
L 236.981263 185.368768 
L 238.961575 185.134592 
L 240.898183 184.662659 
L 242.770647 183.982967 
L 244.655221 183.341958 
L 246.562328 182.776485 
L 248.487595 182.282036 
L 250.42885 181.861242 
L 252.383247 181.514206 
L 254.34744 181.237083 
L 256.318223 181.022952 
L 258.292954 180.86323 
L 260.269695 180.748893 
L 262.247153 180.671275 
L 264.224546 180.622514 
L 266.201446 180.595751 
L 268.177667 180.585182 
L 270.153163 180.58604 
L 272.127966 180.594519 
L 274.10215 180.60768 
L 276.0758 180.623348 
L 278.049003 180.639991 
L 280.021843 180.656612 
L 281.994397 180.67265 
L 283.966735 180.687886 
L 285.938923 180.702369 
L 287.911021 180.716363 
L 289.88308 180.730312 
" clip-path="url(#pf17e43f755)" style="fill: none; stroke: #ff0000; stroke-opacity: 0.6; stroke-width: 0.25; stroke-linecap: square"/>
   </g>
   <g id="line2d_69">
    <path d="M 231.133978 184.261324 
L 233.038008 184.845978 
L 234.990977 185.245002 
L 236.981299 185.368502 
L 238.961611 185.134343 
L 240.897725 184.66039 
L 242.770304 183.98101 
L 244.654804 183.339774 
L 246.561872 182.77415 
L 248.487119 182.2796 
L 250.42837 181.85875 
L 252.382773 181.511698 
L 254.346979 181.234591 
L 256.317776 181.020502 
L 258.292521 180.860843 
L 260.269275 180.746584 
L 262.246746 180.669055 
L 264.224147 180.620391 
L 266.201055 180.59373 
L 268.177281 180.583267 
L 270.152778 180.584232 
L 272.127582 180.592817 
L 274.101763 180.606082 
L 276.075407 180.621848 
L 278.048602 180.638582 
L 280.021431 180.655285 
L 281.993971 180.671393 
L 283.966293 180.686684 
L 285.938461 180.701203 
L 287.910536 180.715203 
L 289.882571 180.729106 
" clip-path="url(#pf17e43f755)" style="fill: none; stroke: #ff0000; stroke-opacity: 0.8; stroke-width: 0.25; stroke-linecap: square"/>
   </g>
   <g id="line2d_70">
    <path d="M 231.133978 184.261324 
L 233.037985 184.846053 
L 234.990967 185.24502 
L 236.981293 185.368492 
L 238.961614 185.13438 
L 240.897982 184.661441 
L 242.770441 183.981712 
L 244.654977 183.340554 
L 246.562093 182.775058 
L 248.487388 182.28065 
L 250.428683 181.85995 
L 252.383124 181.51305 
L 254.347362 181.236091 
L 256.318186 181.022141 
L 258.292952 180.862609 
L 260.269724 180.748462 
L 262.247208 180.671027 
L 264.22462 180.622439 
L 266.201536 180.595836 
L 268.177768 180.585411 
L 270.15327 180.586396 
L 272.128075 180.594981 
L 274.102257 180.608229 
L 276.0759 180.623958 
L 278.049092 180.640635 
L 280.021915 180.657263 
L 281.994447 180.673275 
L 283.966759 180.688451 
L 285.938915 180.70283 
L 287.910975 180.716661 
L 289.882993 180.730347 
" clip-path="url(#pf17e43f755)" style="fill: none; stroke: #ff0000; stroke-width: 0.25; stroke-linecap: square"/>
   </g>
   <g id="line2d_71">
    <path d="M 242.155146 218.298159 
L 242.091124 216.516579 
L 242.017956 214.740967 
L 241.934468 212.971499 
L 241.841631 211.20825 
L 241.741477 209.451209 
L 241.637445 207.700238 
L 241.534788 205.955055 
L 241.441049 204.215243 
L 241.366618 202.480351 
L 241.325419 200.750165 
L 241.335805 199.025266 
L 241.4219 197.308144 
L 241.615956 195.605413 
L 241.963441 193.932733 
L 242.538129 192.329384 
L 243.325883 190.824828 
L 244.247282 189.403739 
L 245.294723 188.078361 
L 246.453708 186.85487 
L 247.537356 185.568967 
L 248.631106 184.295935 
L 249.917279 183.222092 
L 251.337552 182.337738 
L 252.830972 181.587958 
L 254.38536 180.978947 
L 255.987878 180.515596 
L 257.625148 180.201075 
L 259.28364 180.037578 
L 260.944263 179.902482 
L 262.606956 179.798735 
" clip-path="url(#pf17e43f755)" style="fill: none; stroke: #ff0000; stroke-opacity: 0.2; stroke-width: 0.25; stroke-linecap: square"/>
   </g>
   <g id="line2d_72">
    <path d="M 242.155146 218.298159 
L 242.090428 216.516604 
L 242.01732 214.741023 
L 241.933975 212.971611 
L 241.841367 211.208443 
L 241.741535 209.451501 
L 241.63793 207.700646 
L 241.53582 205.955593 
L 241.442766 204.215925 
L 241.369188 202.481194 
L 241.329045 200.751194 
L 241.340737 199.026526 
L 241.428454 197.309719 
L 241.624544 195.607463 
L 241.974646 193.935581 
L 242.552947 192.333797 
L 243.343186 190.830831 
L 244.266936 189.411571 
L 245.3165 188.088199 
L 246.476474 186.865995 
L 247.559034 185.579504 
L 248.650047 184.304453 
L 249.934547 183.228997 
L 251.354245 182.344195 
L 252.847206 181.594061 
L 254.401193 180.984717 
L 256.003332 180.520961 
L 257.640244 180.205914 
L 259.298547 180.043092 
L 260.960555 179.93006 
L 262.622683 179.821834 
" clip-path="url(#pf17e43f755)" style="fill: none; stroke: #ff0000; stroke-opacity: 0.4; stroke-width: 0.25; stroke-linecap: square"/>
   </g>
   <g id="line2d_73">
    <path d="M 242.155146 218.298159 
L 242.090017 216.516619 
L 242.016542 214.741019 
L 241.932748 212.971564 
L 241.839607 211.208328 
L 241.739156 209.451296 
L 241.634846 207.70033 
L 241.531943 205.955145 
L 241.438011 204.215321 
L 241.363472 202.480405 
L 241.32229 200.750181 
L 241.332875 199.025237 
L 241.419431 197.308084 
L 241.614332 195.605384 
L 241.963261 193.932928 
L 242.540517 192.330409 
L 243.329434 190.826352 
L 244.251976 189.405874 
L 245.300481 188.081183 
L 246.459808 186.857832 
L 247.541665 185.57023 
L 248.63212 184.294168 
L 249.916821 183.218304 
L 251.337117 182.333662 
L 252.830771 181.583953 
L 254.385449 180.975179 
L 255.988226 180.512043 
L 257.625724 180.197695 
L 259.284538 180.035507 
L 260.947315 179.927281 
L 262.609909 179.819341 
" clip-path="url(#pf17e43f755)" style="fill: none; stroke: #ff0000; stroke-opacity: 0.6; stroke-width: 0.25; stroke-linecap: square"/>
   </g>
   <g id="line2d_74">
    <path d="M 242.155146 218.298159 
L 242.089975 216.516621 
L 242.016775 214.74104 
L 241.933338 212.971626 
L 241.840634 211.208453 
L 241.740702 209.451504 
L 241.636995 207.700639 
L 241.534783 205.955573 
L 241.441637 204.215886 
L 241.367987 202.481133 
L 241.327809 200.751105 
L 241.339528 199.026405 
L 241.427368 197.30957 
L 241.623737 195.607307 
L 241.974375 193.935496 
L 242.553739 192.334049 
L 243.343016 190.830526 
L 244.266183 189.410829 
L 245.314254 188.086209 
L 246.474176 186.863882 
L 247.55588 185.576597 
L 248.64535 184.300152 
L 249.928383 183.222852 
L 251.348481 182.338574 
L 252.841915 181.589237 
L 254.396199 180.980465 
L 255.99845 180.516841 
L 257.63545 180.201872 
L 259.293681 180.037565 
L 260.956405 179.934417 
L 262.618471 179.824173 
" clip-path="url(#pf17e43f755)" style="fill: none; stroke: #ff0000; stroke-opacity: 0.8; stroke-width: 0.25; stroke-linecap: square"/>
   </g>
   <g id="line2d_75">
    <path d="M 242.155146 218.298159 
L 242.089761 216.516629 
L 242.016432 214.741032 
L 241.932835 212.971585 
L 241.839938 211.208361 
L 241.739779 209.451345 
L 241.635806 207.700399 
L 241.533291 205.955237 
L 241.439804 204.215441 
L 241.365777 202.48056 
L 241.32519 200.750384 
L 241.336473 199.025511 
L 241.423865 197.30847 
L 241.619789 195.605962 
L 241.970024 193.933858 
L 242.549119 192.332088 
L 243.33831 190.828268 
L 244.261321 189.408196 
L 245.309583 188.083423 
L 246.469772 186.861013 
L 247.5517 185.57359 
L 248.641331 184.296944 
L 249.924451 183.219339 
L 251.34507 182.335394 
L 252.83902 181.586482 
L 254.393802 180.978229 
L 255.996508 180.515183 
L 257.633903 180.200792 
L 259.292491 180.037247 
L 260.9557 179.937402 
L 262.618055 179.827269 
" clip-path="url(#pf17e43f755)" style="fill: none; stroke: #ff0000; stroke-width: 0.25; stroke-linecap: square"/>
   </g>
   <g id="line2d_76">
    <path d="M 272.707084 167.793032 
L 270.730019 167.668018 
L 268.744732 167.541503 
L 266.749717 167.425616 
L 264.743392 167.338476 
L 262.72484 167.304303 
L 260.695195 167.354212 
L 258.660036 167.526989 
L 256.633346 167.869968 
L 254.623095 168.360992 
L 252.563454 168.678124 
L 250.464723 168.650803 
L 248.392287 168.23364 
L 246.355637 167.613871 
L 244.268519 167.12677 
L 242.11207 167.083198 
L 239.993434 167.551638 
L 237.934203 168.272733 
L 235.965825 169.239439 
L 234.119152 170.440838 
L 232.425186 171.863351 
L 230.911441 173.486579 
L 229.602293 175.286503 
L 228.518946 177.236437 
L 227.679119 179.307496 
L 227.098113 181.469049 
L 226.785981 183.688164 
L 226.748484 185.930813 
L 226.986908 188.162453 
L 227.498022 190.348661 
L 228.274201 192.45572 
" clip-path="url(#pf17e43f755)" style="fill: none; stroke: #ff0000; stroke-opacity: 0.2; stroke-width: 0.25; stroke-linecap: square"/>
   </g>
   <g id="line2d_77">
    <path d="M 272.707084 167.793032 
L 270.729981 167.668617 
L 268.744622 167.543184 
L 266.749554 167.428334 
L 264.743215 167.342167 
L 262.724714 167.308918 
L 260.695209 167.359767 
L 258.660322 167.533635 
L 256.634137 167.878101 
L 254.624729 168.371184 
L 252.565688 168.689508 
L 250.467448 168.662827 
L 248.39555 168.245959 
L 246.359376 167.626898 
L 244.272778 167.140741 
L 242.117105 167.096824 
L 239.999372 167.56564 
L 237.941094 168.286969 
L 235.973548 169.253483 
L 234.127688 170.454607 
L 232.434402 171.876647 
L 230.920955 173.499048 
L 229.612019 175.298172 
L 228.528564 177.247216 
L 227.688625 179.317504 
L 227.107548 181.478402 
L 226.795428 183.696963 
L 226.758066 185.93913 
L 226.996739 188.170329 
L 227.508173 190.356118 
L 228.284622 192.462802 
" clip-path="url(#pf17e43f755)" style="fill: none; stroke: #ff0000; stroke-opacity: 0.4; stroke-width: 0.25; stroke-linecap: square"/>
   </g>
   <g id="line2d_78">
    <path d="M 272.707084 167.793032 
L 270.729971 167.668779 
L 268.744518 167.543789 
L 266.749302 167.429265 
L 264.742765 167.343297 
L 262.724014 167.310145 
L 260.694205 167.361054 
L 258.658973 167.53507 
L 256.632456 167.880004 
L 254.622795 168.373943 
L 252.563249 168.692213 
L 250.464492 168.664617 
L 248.39237 168.245997 
L 246.356151 167.625026 
L 244.269373 167.136847 
L 242.113088 167.090009 
L 239.994491 167.558199 
L 237.935089 168.278574 
L 235.966835 169.245416 
L 234.120563 170.447401 
L 232.424363 171.867286 
L 230.907164 173.487389 
L 229.594324 175.284804 
L 228.509246 177.234038 
L 227.670184 179.305753 
L 227.089816 181.467905 
L 226.778272 183.687619 
L 226.741233 185.930888 
L 226.980006 188.163213 
L 227.491503 190.35018 
L 228.268215 192.458038 
" clip-path="url(#pf17e43f755)" style="fill: none; stroke: #ff0000; stroke-opacity: 0.6; stroke-width: 0.25; stroke-linecap: square"/>
   </g>
   <g id="line2d_79">
    <path d="M 272.707084 167.793032 
L 270.729975 167.668709 
L 268.744548 167.543976 
L 266.749412 167.429598 
L 264.743013 167.343681 
L 262.724457 167.310544 
L 260.694905 167.361533 
L 258.660014 167.535868 
L 256.634018 167.881648 
L 254.625161 168.377058 
L 252.566205 168.695972 
L 250.467987 168.668602 
L 248.396432 168.250183 
L 246.360565 167.63026 
L 244.274058 167.143925 
L 242.118455 167.098801 
L 240.000819 167.567877 
L 237.942403 168.288724 
L 235.97515 169.255798 
L 234.129889 170.457842 
L 232.434581 171.877499 
L 230.918264 173.49728 
L 229.605724 175.293882 
L 228.520986 177.242363 
L 227.682284 179.313347 
L 227.101856 181.474654 
L 226.789903 183.693514 
L 226.752175 185.935997 
L 226.990053 188.167653 
L 227.500503 190.354099 
L 228.276046 192.461613 
" clip-path="url(#pf17e43f755)" style="fill: none; stroke: #ff0000; stroke-opacity: 0.8; stroke-width: 0.25; stroke-linecap: square"/>
   </g>
   <g id="line2d_80">
    <path d="M 272.707084 167.793032 
L 270.729984 167.668569 
L 268.744506 167.544024 
L 266.749291 167.429651 
L 264.742784 167.343568 
L 262.724079 167.310152 
L 260.694328 167.360864 
L 258.659202 167.535125 
L 256.63302 167.881384 
L 254.624133 168.377918 
L 252.564847 168.696865 
L 250.466277 168.668697 
L 248.394614 168.24883 
L 246.358699 167.62761 
L 244.272008 167.140074 
L 242.11596 167.093201 
L 239.997353 167.560242 
L 237.938059 168.280203 
L 235.969252 169.245383 
L 234.121813 170.445148 
L 232.426662 171.865938 
L 230.910768 173.48698 
L 229.599985 175.285676 
L 228.514552 177.234551 
L 227.672604 179.30498 
L 227.089961 181.466443 
L 226.776641 183.685862 
L 226.738372 185.929094 
L 226.976359 188.161515 
L 227.487306 190.348651 
L 228.263553 192.456752 
" clip-path="url(#pf17e43f755)" style="fill: none; stroke: #ff0000; stroke-width: 0.25; stroke-linecap: square"/>
   </g>
   <g id="line2d_81">
    <path d="M 230.177764 130.752744 
L 230.240332 132.531866 
L 230.309497 134.30453 
L 230.385037 136.070658 
L 230.464943 137.830264 
L 230.546039 139.583448 
L 230.623654 141.330397 
L 230.691246 143.071362 
L 230.739959 144.806569 
L 230.758112 146.53601 
L 230.730558 148.259028 
L 230.637811 149.973548 
L 230.537014 151.681507 
L 230.37158 153.378442 
L 230.054737 155.047865 
L 229.509592 156.651435 
L 228.729411 158.148817 
L 227.816999 159.563602 
L 226.780314 160.884136 
L 225.635663 162.106401 
L 224.571174 163.39403 
L 223.500639 164.672133 
L 222.246644 165.766244 
L 220.846909 166.661682 
L 219.373455 167.425162 
L 217.838211 168.050699 
L 216.253704 168.533587 
L 214.632835 168.870237 
L 212.988647 169.057035 
L 211.3405 169.200042 
L 209.689459 169.301668 
" clip-path="url(#pf17e43f755)" style="fill: none; stroke: #ff0000; stroke-opacity: 0.2; stroke-width: 0.25; stroke-linecap: square"/>
   </g>
   <g id="line2d_82">
    <path d="M 230.177764 130.752744 
L 230.241508 132.531825 
L 230.311067 134.304444 
L 230.386948 136.070502 
L 230.467121 137.830016 
L 230.548375 139.583092 
L 230.625999 141.329918 
L 230.693394 143.070751 
L 230.741637 144.805816 
L 230.758959 146.535098 
L 230.730101 148.257915 
L 230.635434 149.972141 
L 230.532695 151.679788 
L 230.364753 153.376274 
L 230.044368 155.044813 
L 229.494017 156.646384 
L 228.711554 158.142339 
L 227.796494 159.555162 
L 226.75815 160.874122 
L 225.612149 162.094826 
L 224.549294 163.383524 
L 223.482752 164.664674 
L 222.231184 165.761214 
L 220.831813 166.656774 
L 219.358531 167.420041 
L 217.823566 168.045569 
L 216.239436 168.52876 
L 214.618991 168.866042 
L 212.975462 169.055945 
L 211.325368 169.169738 
L 209.675174 169.278964 
" clip-path="url(#pf17e43f755)" style="fill: none; stroke: #ff0000; stroke-opacity: 0.4; stroke-width: 0.25; stroke-linecap: square"/>
   </g>
   <g id="line2d_83">
    <path d="M 230.177764 130.752744 
L 230.242083 132.531804 
L 230.312211 134.30443 
L 230.388767 136.070515 
L 230.469711 137.830078 
L 230.551829 139.583222 
L 230.630397 141.330139 
L 230.698807 143.07109 
L 230.74812 144.806303 
L 230.76655 146.535773 
L 230.738813 148.258829 
L 230.645246 149.973355 
L 230.543547 151.681321 
L 230.376454 153.378167 
L 230.056755 155.047133 
L 229.506785 156.649157 
L 228.724851 158.145749 
L 227.810273 159.559278 
L 226.772192 160.878883 
L 225.626207 162.100088 
L 224.563545 163.389417 
L 223.497198 164.671214 
L 222.24531 165.767967 
L 220.845383 166.663377 
L 219.371498 167.426338 
L 217.835932 168.051448 
L 216.251231 168.534146 
L 214.630259 168.870887 
L 212.986255 169.060231 
L 211.335385 169.168579 
L 209.684782 169.277792 
" clip-path="url(#pf17e43f755)" style="fill: none; stroke: #ff0000; stroke-opacity: 0.6; stroke-width: 0.25; stroke-linecap: square"/>
   </g>
   <g id="line2d_84">
    <path d="M 230.177764 130.752744 
L 230.24205 132.531805 
L 230.311975 134.304433 
L 230.38827 136.070515 
L 230.468898 137.830074 
L 230.550641 139.583211 
L 230.628776 141.33012 
L 230.696688 143.071057 
L 230.745431 144.806251 
L 230.763208 146.535688 
L 230.73472 148.25869 
L 230.640284 149.973124 
L 230.537572 151.680984 
L 230.369219 153.377659 
L 230.048051 155.046294 
L 229.496297 156.647654 
L 228.712245 158.143082 
L 227.79588 159.555395 
L 226.755862 160.87341 
L 225.60834 162.093103 
L 224.544353 163.381273 
L 223.477 164.662168 
L 222.224539 165.758189 
L 220.825237 166.654483 
L 219.352102 167.418781 
L 217.817178 168.045331 
L 216.232972 168.529478 
L 214.612339 168.867596 
L 212.968362 169.056728 
L 211.317318 169.161587 
L 209.66686 169.272173 
" clip-path="url(#pf17e43f755)" style="fill: none; stroke: #ff0000; stroke-opacity: 0.8; stroke-width: 0.25; stroke-linecap: square"/>
   </g>
   <g id="line2d_85">
    <path d="M 230.177764 130.752744 
L 230.242587 132.531786 
L 230.313052 134.304416 
L 230.390001 136.070517 
L 230.471394 137.830109 
L 230.554012 139.583294 
L 230.633127 141.330267 
L 230.702117 143.071288 
L 230.75203 144.806592 
L 230.771054 146.536176 
L 230.743874 148.259373 
L 230.650781 149.974069 
L 230.54943 151.682213 
L 230.382358 153.379228 
L 230.062392 155.048322 
L 229.511628 156.650271 
L 228.729235 158.146842 
L 227.814637 159.5606 
L 226.775978 160.880016 
L 225.629354 162.100918 
L 224.566315 163.390224 
L 223.499835 164.672207 
L 222.247778 165.769119 
L 220.848551 166.666064 
L 219.375399 167.43096 
L 217.840291 168.057843 
L 216.255778 168.542004 
L 214.634784 168.879864 
L 212.990364 169.067773 
L 211.338758 169.168475 
L 209.688012 169.279275 
" clip-path="url(#pf17e43f755)" style="fill: none; stroke: #ff0000; stroke-width: 0.25; stroke-linecap: square"/>
   </g>
   <g id="line2d_86">
    <path d="M 199.633354 181.322993 
L 201.612205 181.46989 
L 203.59888 181.622127 
L 205.594987 181.76717 
L 207.602406 181.885706 
L 209.622489 181.951313 
L 211.654436 181.929042 
L 213.692192 181.773463 
L 215.718079 181.422814 
L 217.690698 180.798546 
L 219.663816 180.131599 
L 221.746664 179.887734 
L 223.835407 180.197491 
L 225.888007 180.751025 
L 227.92943 181.392286 
L 230.076041 181.557573 
L 232.196022 181.11642 
L 234.259683 180.423408 
L 236.235621 179.484896 
L 238.093166 178.311586 
L 239.801515 176.916731 
L 241.333167 175.3202 
L 242.663746 173.545505 
L 243.772045 171.61883 
L 244.640235 169.568506 
L 245.252898 167.424615 
L 245.599676 165.219523 
L 245.674396 162.986731 
L 245.475266 160.760305 
L 245.004916 158.574269 
L 244.270297 156.462026 
" clip-path="url(#pf17e43f755)" style="fill: none; stroke: #ff0000; stroke-opacity: 0.2; stroke-width: 0.25; stroke-linecap: square"/>
   </g>
   <g id="line2d_87">
    <path d="M 199.633354 181.322993 
L 201.612231 181.469547 
L 203.598925 181.620869 
L 205.594985 181.765026 
L 207.602277 181.88272 
L 209.622137 181.947504 
L 211.65375 181.924364 
L 213.691026 181.767734 
L 215.716186 181.41568 
L 217.687428 180.788901 
L 219.659398 180.120531 
L 221.741575 179.876954 
L 223.829749 180.185275 
L 225.881878 180.737348 
L 227.922219 181.37911 
L 230.067931 181.544196 
L 232.18688 181.102633 
L 234.249516 180.409496 
L 236.224565 179.471268 
L 238.081274 178.298333 
L 239.788877 176.903958 
L 241.320136 175.30822 
L 242.650523 173.534368 
L 243.758988 171.608628 
L 244.627406 169.559118 
L 245.240275 167.415901 
L 245.587186 165.211356 
L 245.66192 162.97901 
L 245.462676 160.752965 
L 244.992121 158.567271 
L 244.25733 156.455314 
" clip-path="url(#pf17e43f755)" style="fill: none; stroke: #ff0000; stroke-opacity: 0.4; stroke-width: 0.25; stroke-linecap: square"/>
   </g>
   <g id="line2d_88">
    <path d="M 199.633354 181.322993 
L 201.61223 181.469559 
L 203.598957 181.620826 
L 205.595077 181.764987 
L 207.602456 181.882753 
L 209.622433 181.947681 
L 211.654199 181.924747 
L 213.691673 181.768363 
L 215.717084 181.41656 
L 217.688599 180.789881 
L 219.660973 180.121915 
L 221.743538 179.879292 
L 223.831813 180.188957 
L 225.883816 180.742706 
L 227.923793 181.386729 
L 230.069675 181.554149 
L 232.189596 181.115474 
L 234.253628 180.425306 
L 236.230373 179.489732 
L 238.088898 178.31891 
L 239.798395 176.926185 
L 241.33132 175.331441 
L 242.662754 173.557811 
L 243.771751 171.631838 
L 244.640138 169.581794 
L 245.25262 167.437953 
L 245.598851 165.232788 
L 245.6727 162.999894 
L 245.472454 160.773408 
L 245.000856 158.587385 
L 244.265027 156.475206 
" clip-path="url(#pf17e43f755)" style="fill: none; stroke: #ff0000; stroke-opacity: 0.6; stroke-width: 0.25; stroke-linecap: square"/>
   </g>
   <g id="line2d_89">
    <path d="M 199.633354 181.322993 
L 201.612233 181.469513 
L 203.598937 181.62052 
L 205.594986 181.764433 
L 207.602244 181.881959 
L 209.622049 181.946633 
L 211.653592 181.923399 
L 213.690774 181.766607 
L 215.715784 181.414209 
L 217.686609 180.786435 
L 219.658424 180.117917 
L 221.740646 179.875599 
L 223.828632 180.184499 
L 225.880798 180.736048 
L 227.920315 181.380101 
L 230.065787 181.547134 
L 232.18493 181.106886 
L 234.247871 180.41486 
L 236.223273 179.477484 
L 238.080525 178.30546 
L 239.790245 176.91369 
L 241.324372 175.320682 
L 242.657284 173.548667 
L 243.767162 171.62365 
L 244.63594 169.574176 
L 245.249177 167.43092 
L 245.596437 165.226262 
L 245.671561 162.993734 
L 245.472759 160.767427 
L 245.002647 158.581383 
L 244.268233 156.469005 
" clip-path="url(#pf17e43f755)" style="fill: none; stroke: #ff0000; stroke-opacity: 0.8; stroke-width: 0.25; stroke-linecap: square"/>
   </g>
   <g id="line2d_90">
    <path d="M 199.633354 181.322993 
L 201.612222 181.469665 
L 203.598936 181.62078 
L 205.595011 181.764867 
L 207.602313 181.882632 
L 209.622188 181.947601 
L 211.653832 181.924696 
L 213.691156 181.768231 
L 215.716349 181.416103 
L 217.687342 180.788362 
L 219.659422 180.120103 
L 221.741907 179.878475 
L 223.830068 180.187538 
L 225.882325 180.739566 
L 227.921779 181.384572 
L 230.067431 181.552404 
L 232.187021 181.113049 
L 234.250555 180.421945 
L 236.226601 179.485266 
L 238.08444 178.31362 
L 239.794404 176.921661 
L 241.328576 175.328254 
L 242.661153 173.555571 
L 243.770359 171.629769 
L 244.63824 169.579528 
L 245.250419 167.435589 
L 245.596506 165.230365 
L 245.670388 162.997411 
L 245.470328 160.770821 
L 244.998985 158.584633 
L 244.263372 156.47224 
" clip-path="url(#pf17e43f755)" style="fill: none; stroke: #ff0000; stroke-width: 0.25; stroke-linecap: square"/>
   </g>
   <g id="patch_15">
    <path d="M 103.104 307.584 
L 103.104 41.472 
" style="fill: none; stroke: #000000; stroke-width: 0.8; stroke-linejoin: miter; stroke-linecap: square"/>
   </g>
   <g id="patch_16">
    <path d="M 369.216 307.584 
L 369.216 41.472 
" style="fill: none; stroke: #000000; stroke-width: 0.8; stroke-linejoin: miter; stroke-linecap: square"/>
   </g>
   <g id="patch_17">
    <path d="M 103.104 307.584 
L 369.216 307.584 
" style="fill: none; stroke: #000000; stroke-width: 0.8; stroke-linejoin: miter; stroke-linecap: square"/>
   </g>
   <g id="patch_18">
    <path d="M 103.104 41.472 
L 369.216 41.472 
" style="fill: none; stroke: #000000; stroke-width: 0.8; stroke-linejoin: miter; stroke-linecap: square"/>
   </g>
   <g id="text_19">
    <!-- Time:  48 ms -->
    <g transform="translate(264.253887 54.7776) scale(0.1 -0.1)">
     <defs>
      <path id="DejaVuSans-54" d="M -19 4666 
L 3928 4666 
L 3928 4134 
L 2272 4134 
L 2272 0 
L 1638 0 
L 1638 4134 
L -19 4134 
L -19 4666 
z
" transform="scale(0.015625)"/>
      <path id="DejaVuSans-69" d="M 603 3500 
L 1178 3500 
L 1178 0 
L 603 0 
L 603 3500 
z
M 603 4863 
L 1178 4863 
L 1178 4134 
L 603 4134 
L 603 4863 
z
" transform="scale(0.015625)"/>
      <path id="DejaVuSans-6d" d="M 3328 2828 
Q 3544 3216 3844 3400 
Q 4144 3584 4550 3584 
Q 5097 3584 5394 3201 
Q 5691 2819 5691 2113 
L 5691 0 
L 5113 0 
L 5113 2094 
Q 5113 2597 4934 2840 
Q 4756 3084 4391 3084 
Q 3944 3084 3684 2787 
Q 3425 2491 3425 1978 
L 3425 0 
L 2847 0 
L 2847 2094 
Q 2847 2600 2669 2842 
Q 2491 3084 2119 3084 
Q 1678 3084 1418 2786 
Q 1159 2488 1159 1978 
L 1159 0 
L 581 0 
L 581 3500 
L 1159 3500 
L 1159 2956 
Q 1356 3278 1631 3431 
Q 1906 3584 2284 3584 
Q 2666 3584 2933 3390 
Q 3200 3197 3328 2828 
z
" transform="scale(0.015625)"/>
      <path id="DejaVuSans-65" d="M 3597 1894 
L 3597 1613 
L 953 1613 
Q 991 1019 1311 708 
Q 1631 397 2203 397 
Q 2534 397 2845 478 
Q 3156 559 3463 722 
L 3463 178 
Q 3153 47 2828 -22 
Q 2503 -91 2169 -91 
Q 1331 -91 842 396 
Q 353 884 353 1716 
Q 353 2575 817 3079 
Q 1281 3584 2069 3584 
Q 2775 3584 3186 3129 
Q 3597 2675 3597 1894 
z
M 3022 2063 
Q 3016 2534 2758 2815 
Q 2500 3097 2075 3097 
Q 1594 3097 1305 2825 
Q 1016 2553 972 2059 
L 3022 2063 
z
" transform="scale(0.015625)"/>
      <path id="DejaVuSans-3a" d="M 750 794 
L 1409 794 
L 1409 0 
L 750 0 
L 750 794 
z
M 750 3309 
L 1409 3309 
L 1409 2516 
L 750 2516 
L 750 3309 
z
" transform="scale(0.015625)"/>
      <path id="DejaVuSans-20" transform="scale(0.015625)"/>
      <path id="DejaVuSans-38" d="M 2034 2216 
Q 1584 2216 1326 1975 
Q 1069 1734 1069 1313 
Q 1069 891 1326 650 
Q 1584 409 2034 409 
Q 2484 409 2743 651 
Q 3003 894 3003 1313 
Q 3003 1734 2745 1975 
Q 2488 2216 2034 2216 
z
M 1403 2484 
Q 997 2584 770 2862 
Q 544 3141 544 3541 
Q 544 4100 942 4425 
Q 1341 4750 2034 4750 
Q 2731 4750 3128 4425 
Q 3525 4100 3525 3541 
Q 3525 3141 3298 2862 
Q 3072 2584 2669 2484 
Q 3125 2378 3379 2068 
Q 3634 1759 3634 1313 
Q 3634 634 3220 271 
Q 2806 -91 2034 -91 
Q 1263 -91 848 271 
Q 434 634 434 1313 
Q 434 1759 690 2068 
Q 947 2378 1403 2484 
z
M 1172 3481 
Q 1172 3119 1398 2916 
Q 1625 2713 2034 2713 
Q 2441 2713 2670 2916 
Q 2900 3119 2900 3481 
Q 2900 3844 2670 4047 
Q 2441 4250 2034 4250 
Q 1625 4250 1398 4047 
Q 1172 3844 1172 3481 
z
" transform="scale(0.015625)"/>
      <path id="DejaVuSans-73" d="M 2834 3397 
L 2834 2853 
Q 2591 2978 2328 3040 
Q 2066 3103 1784 3103 
Q 1356 3103 1142 2972 
Q 928 2841 928 2578 
Q 928 2378 1081 2264 
Q 1234 2150 1697 2047 
L 1894 2003 
Q 2506 1872 2764 1633 
Q 3022 1394 3022 966 
Q 3022 478 2636 193 
Q 2250 -91 1575 -91 
Q 1294 -91 989 -36 
Q 684 19 347 128 
L 347 722 
Q 666 556 975 473 
Q 1284 391 1588 391 
Q 1994 391 2212 530 
Q 2431 669 2431 922 
Q 2431 1156 2273 1281 
Q 2116 1406 1581 1522 
L 1381 1569 
Q 847 1681 609 1914 
Q 372 2147 372 2553 
Q 372 3047 722 3315 
Q 1072 3584 1716 3584 
Q 2034 3584 2315 3537 
Q 2597 3491 2834 3397 
z
" transform="scale(0.015625)"/>
     </defs>
     <use xlink:href="#DejaVuSans-54"/>
     <use xlink:href="#DejaVuSans-69" x="57.958984"/>
     <use xlink:href="#DejaVuSans-6d" x="85.742188"/>
     <use xlink:href="#DejaVuSans-65" x="183.154297"/>
     <use xlink:href="#DejaVuSans-3a" x="244.677734"/>
     <use xlink:href="#DejaVuSans-20" x="278.369141"/>
     <use xlink:href="#DejaVuSans-20" x="310.15625"/>
     <use xlink:href="#DejaVuSans-34" x="341.943359"/>
     <use xlink:href="#DejaVuSans-38" x="405.566406"/>
     <use xlink:href="#DejaVuSans-20" x="469.189453"/>
     <use xlink:href="#DejaVuSans-6d" x="500.976562"/>
     <use xlink:href="#DejaVuSans-73" x="598.388672"/>
    </g>
   </g>
  </g>
 </g>
 <defs>
  <clipPath id="pf17e43f755">
   <rect x="103.104" y="41.472" width="266.112" height="266.112"/>
  </clipPath>
 </defs>
</svg>
