<?xml version="1.0" encoding="utf-8" standalone="no"?>
<!DOCTYPE svg PUBLIC "-//W3C//DTD SVG 1.1//EN"
  "http://www.w3.org/Graphics/SVG/1.1/DTD/svg11.dtd">
<svg xmlns:xlink="http://www.w3.org/1999/xlink" width="460.8pt" height="345.6pt" viewBox="0 0 460.8 345.6" xmlns="http://www.w3.org/2000/svg" version="1.1">
 <metadata>
  <rdf:RDF xmlns:dc="http://purl.org/dc/elements/1.1/" xmlns:cc="http://creativecommons.org/ns#" xmlns:rdf="http://www.w3.org/1999/02/22-rdf-syntax-ns#">
   <cc:Work>
    <dc:type rdf:resource="http://purl.org/dc/dcmitype/StillImage"/>
    <dc:date>2024-01-22T16:49:01.579336</dc:date>
    <dc:format>image/svg+xml</dc:format>
    <dc:creator>
     <cc:Agent>
      <dc:title>Matplotlib v3.8.2, https://matplotlib.org/</dc:title>
     </cc:Agent>
    </dc:creator>
   </cc:Work>
  </rdf:RDF>
 </metadata>
 <defs>
  <style type="text/css">*{stroke-linejoin: round; stroke-linecap: butt}</style>
 </defs>
 <g id="figure_1">
  <g id="patch_1">
   <path d="M 0 345.6 
L 460.8 345.6 
L 460.8 0 
L 0 0 
z
" style="fill: #ffffff"/>
  </g>
  <g id="axes_1">
   <g id="patch_2">
    <path d="M 103.104 307.584 
L 369.216 307.584 
L 369.216 41.472 
L 103.104 41.472 
z
" style="fill: #ffffff"/>
   </g>
   <g id="patch_3">
    <path d="M 245.181192 228.410675 
L 245.157928 216.768298 
L 239.503059 216.779598 
L 239.526323 228.421974 
z
" clip-path="url(#p86eebd655c)" style="fill: #00008b"/>
   </g>
   <g id="patch_4">
    <path d="M 290.044326 165.516721 
L 278.401993 165.556178 
L 278.421157 171.211025 
L 290.063491 171.171569 
z
" clip-path="url(#p86eebd655c)" style="fill: #800000"/>
   </g>
   <g id="patch_5">
    <path d="M 227.143662 121.638039 
L 227.14752 133.280439 
L 232.802399 133.278565 
L 232.798542 121.636166 
z
" clip-path="url(#p86eebd655c)" style="fill: #006400"/>
   </g>
   <g id="patch_6">
    <path d="M 181.854772 183.539653 
L 193.496993 183.475022 
L 193.465601 177.820229 
L 181.82338 177.88486 
z
" clip-path="url(#p86eebd655c)" style="fill: #4b0082"/>
   </g>
   <g id="patch_7">
    <path d="M 245.187765 261.579087 
L 245.187964 249.936687 
L 239.533084 249.936591 
L 239.532885 261.578991 
z
" clip-path="url(#p86eebd655c)" style="fill: #0000ff"/>
   </g>
   <g id="patch_8">
    <path d="M 322.249774 165.50028 
L 310.607374 165.50028 
L 310.607374 171.15516 
L 322.249774 171.15516 
z
" clip-path="url(#p86eebd655c)" style="fill: #ff0000"/>
   </g>
   <g id="patch_9">
    <path d="M 227.13228 87.04368 
L 227.13228 98.68608 
L 232.78716 98.68608 
L 232.78716 87.04368 
z
" clip-path="url(#p86eebd655c)" style="fill: #dbdc56"/>
   </g>
   <g id="patch_10">
    <path d="M 149.109063 183.55572 
L 160.751463 183.55572 
L 160.751463 177.90084 
L 149.109063 177.90084 
z
" clip-path="url(#p86eebd655c)" style="fill: #9400d3"/>
   </g>
   <g id="patch_11">
    <path d="M 245.18772 295.27632 
L 245.18772 283.63392 
L 239.53284 283.63392 
L 239.53284 295.27632 
z
" clip-path="url(#p86eebd655c)" style="fill: #1e90ff"/>
   </g>
   <g id="patch_12">
    <path d="M 355.513774 165.50028 
L 343.871374 165.50028 
L 343.871374 171.15516 
L 355.513774 171.15516 
z
" clip-path="url(#p86eebd655c)" style="fill: #ff4500"/>
   </g>
   <g id="patch_13">
    <path d="M 227.13228 53.77968 
L 227.13228 65.42208 
L 232.78716 65.42208 
L 232.78716 53.77968 
z
" clip-path="url(#p86eebd655c)" style="fill: #7cfc00"/>
   </g>
   <g id="patch_14">
    <path d="M 116.806226 183.55572 
L 128.448626 183.55572 
L 128.448626 177.90084 
L 116.806226 177.90084 
z
" clip-path="url(#p86eebd655c)" style="fill: #ff00ff"/>
   </g>
   <g id="matplotlib.axis_1">
    <g id="xtick_1">
     <g id="line2d_1">
      <defs>
       <path id="mfba9fa481e" d="M 0 0 
L 0 3.5 
" style="stroke: #000000; stroke-width: 0.8"/>
      </defs>
      <g>
       <use xlink:href="#mfba9fa481e" x="103.104" y="307.584" style="stroke: #000000; stroke-width: 0.8"/>
      </g>
     </g>
     <g id="text_1">
      <!-- −40 -->
      <g transform="translate(92.551656 322.182437) scale(0.1 -0.1)">
       <defs>
        <path id="DejaVuSans-2212" d="M 678 2272 
L 4684 2272 
L 4684 1741 
L 678 1741 
L 678 2272 
z
" transform="scale(0.015625)"/>
        <path id="DejaVuSans-34" d="M 2419 4116 
L 825 1625 
L 2419 1625 
L 2419 4116 
z
M 2253 4666 
L 3047 4666 
L 3047 1625 
L 3713 1625 
L 3713 1100 
L 3047 1100 
L 3047 0 
L 2419 0 
L 2419 1100 
L 313 1100 
L 313 1709 
L 2253 4666 
z
" transform="scale(0.015625)"/>
        <path id="DejaVuSans-30" d="M 2034 4250 
Q 1547 4250 1301 3770 
Q 1056 3291 1056 2328 
Q 1056 1369 1301 889 
Q 1547 409 2034 409 
Q 2525 409 2770 889 
Q 3016 1369 3016 2328 
Q 3016 3291 2770 3770 
Q 2525 4250 2034 4250 
z
M 2034 4750 
Q 2819 4750 3233 4129 
Q 3647 3509 3647 2328 
Q 3647 1150 3233 529 
Q 2819 -91 2034 -91 
Q 1250 -91 836 529 
Q 422 1150 422 2328 
Q 422 3509 836 4129 
Q 1250 4750 2034 4750 
z
" transform="scale(0.015625)"/>
       </defs>
       <use xlink:href="#DejaVuSans-2212"/>
       <use xlink:href="#DejaVuSans-34" x="83.789062"/>
       <use xlink:href="#DejaVuSans-30" x="147.412109"/>
      </g>
     </g>
    </g>
    <g id="xtick_2">
     <g id="line2d_2">
      <g>
       <use xlink:href="#mfba9fa481e" x="136.368" y="307.584" style="stroke: #000000; stroke-width: 0.8"/>
      </g>
     </g>
     <g id="text_2">
      <!-- −30 -->
      <g transform="translate(125.815656 322.182437) scale(0.1 -0.1)">
       <defs>
        <path id="DejaVuSans-33" d="M 2597 2516 
Q 3050 2419 3304 2112 
Q 3559 1806 3559 1356 
Q 3559 666 3084 287 
Q 2609 -91 1734 -91 
Q 1441 -91 1130 -33 
Q 819 25 488 141 
L 488 750 
Q 750 597 1062 519 
Q 1375 441 1716 441 
Q 2309 441 2620 675 
Q 2931 909 2931 1356 
Q 2931 1769 2642 2001 
Q 2353 2234 1838 2234 
L 1294 2234 
L 1294 2753 
L 1863 2753 
Q 2328 2753 2575 2939 
Q 2822 3125 2822 3475 
Q 2822 3834 2567 4026 
Q 2313 4219 1838 4219 
Q 1578 4219 1281 4162 
Q 984 4106 628 3988 
L 628 4550 
Q 988 4650 1302 4700 
Q 1616 4750 1894 4750 
Q 2613 4750 3031 4423 
Q 3450 4097 3450 3541 
Q 3450 3153 3228 2886 
Q 3006 2619 2597 2516 
z
" transform="scale(0.015625)"/>
       </defs>
       <use xlink:href="#DejaVuSans-2212"/>
       <use xlink:href="#DejaVuSans-33" x="83.789062"/>
       <use xlink:href="#DejaVuSans-30" x="147.412109"/>
      </g>
     </g>
    </g>
    <g id="xtick_3">
     <g id="line2d_3">
      <g>
       <use xlink:href="#mfba9fa481e" x="169.632" y="307.584" style="stroke: #000000; stroke-width: 0.8"/>
      </g>
     </g>
     <g id="text_3">
      <!-- −20 -->
      <g transform="translate(159.079656 322.182437) scale(0.1 -0.1)">
       <defs>
        <path id="DejaVuSans-32" d="M 1228 531 
L 3431 531 
L 3431 0 
L 469 0 
L 469 531 
Q 828 903 1448 1529 
Q 2069 2156 2228 2338 
Q 2531 2678 2651 2914 
Q 2772 3150 2772 3378 
Q 2772 3750 2511 3984 
Q 2250 4219 1831 4219 
Q 1534 4219 1204 4116 
Q 875 4013 500 3803 
L 500 4441 
Q 881 4594 1212 4672 
Q 1544 4750 1819 4750 
Q 2544 4750 2975 4387 
Q 3406 4025 3406 3419 
Q 3406 3131 3298 2873 
Q 3191 2616 2906 2266 
Q 2828 2175 2409 1742 
Q 1991 1309 1228 531 
z
" transform="scale(0.015625)"/>
       </defs>
       <use xlink:href="#DejaVuSans-2212"/>
       <use xlink:href="#DejaVuSans-32" x="83.789062"/>
       <use xlink:href="#DejaVuSans-30" x="147.412109"/>
      </g>
     </g>
    </g>
    <g id="xtick_4">
     <g id="line2d_4">
      <g>
       <use xlink:href="#mfba9fa481e" x="202.896" y="307.584" style="stroke: #000000; stroke-width: 0.8"/>
      </g>
     </g>
     <g id="text_4">
      <!-- −10 -->
      <g transform="translate(192.343656 322.182437) scale(0.1 -0.1)">
       <defs>
        <path id="DejaVuSans-31" d="M 794 531 
L 1825 531 
L 1825 4091 
L 703 3866 
L 703 4441 
L 1819 4666 
L 2450 4666 
L 2450 531 
L 3481 531 
L 3481 0 
L 794 0 
L 794 531 
z
" transform="scale(0.015625)"/>
       </defs>
       <use xlink:href="#DejaVuSans-2212"/>
       <use xlink:href="#DejaVuSans-31" x="83.789062"/>
       <use xlink:href="#DejaVuSans-30" x="147.412109"/>
      </g>
     </g>
    </g>
    <g id="xtick_5">
     <g id="line2d_5">
      <g>
       <use xlink:href="#mfba9fa481e" x="236.16" y="307.584" style="stroke: #000000; stroke-width: 0.8"/>
      </g>
     </g>
     <g id="text_5">
      <!-- 0 -->
      <g transform="translate(232.97875 322.182437) scale(0.1 -0.1)">
       <use xlink:href="#DejaVuSans-30"/>
      </g>
     </g>
    </g>
    <g id="xtick_6">
     <g id="line2d_6">
      <g>
       <use xlink:href="#mfba9fa481e" x="269.424" y="307.584" style="stroke: #000000; stroke-width: 0.8"/>
      </g>
     </g>
     <g id="text_6">
      <!-- 10 -->
      <g transform="translate(263.0615 322.182437) scale(0.1 -0.1)">
       <use xlink:href="#DejaVuSans-31"/>
       <use xlink:href="#DejaVuSans-30" x="63.623047"/>
      </g>
     </g>
    </g>
    <g id="xtick_7">
     <g id="line2d_7">
      <g>
       <use xlink:href="#mfba9fa481e" x="302.688" y="307.584" style="stroke: #000000; stroke-width: 0.8"/>
      </g>
     </g>
     <g id="text_7">
      <!-- 20 -->
      <g transform="translate(296.3255 322.182437) scale(0.1 -0.1)">
       <use xlink:href="#DejaVuSans-32"/>
       <use xlink:href="#DejaVuSans-30" x="63.623047"/>
      </g>
     </g>
    </g>
    <g id="xtick_8">
     <g id="line2d_8">
      <g>
       <use xlink:href="#mfba9fa481e" x="335.952" y="307.584" style="stroke: #000000; stroke-width: 0.8"/>
      </g>
     </g>
     <g id="text_8">
      <!-- 30 -->
      <g transform="translate(329.5895 322.182437) scale(0.1 -0.1)">
       <use xlink:href="#DejaVuSans-33"/>
       <use xlink:href="#DejaVuSans-30" x="63.623047"/>
      </g>
     </g>
    </g>
    <g id="xtick_9">
     <g id="line2d_9">
      <g>
       <use xlink:href="#mfba9fa481e" x="369.216" y="307.584" style="stroke: #000000; stroke-width: 0.8"/>
      </g>
     </g>
     <g id="text_9">
      <!-- 40 -->
      <g transform="translate(362.8535 322.182437) scale(0.1 -0.1)">
       <use xlink:href="#DejaVuSans-34"/>
       <use xlink:href="#DejaVuSans-30" x="63.623047"/>
      </g>
     </g>
    </g>
   </g>
   <g id="matplotlib.axis_2">
    <g id="ytick_1">
     <g id="line2d_10">
      <defs>
       <path id="m5c4a842d3b" d="M 0 0 
L -3.5 0 
" style="stroke: #000000; stroke-width: 0.8"/>
      </defs>
      <g>
       <use xlink:href="#m5c4a842d3b" x="103.104" y="307.584" style="stroke: #000000; stroke-width: 0.8"/>
      </g>
     </g>
     <g id="text_10">
      <!-- −40 -->
      <g transform="translate(74.999313 311.383219) scale(0.1 -0.1)">
       <use xlink:href="#DejaVuSans-2212"/>
       <use xlink:href="#DejaVuSans-34" x="83.789062"/>
       <use xlink:href="#DejaVuSans-30" x="147.412109"/>
      </g>
     </g>
    </g>
    <g id="ytick_2">
     <g id="line2d_11">
      <g>
       <use xlink:href="#m5c4a842d3b" x="103.104" y="274.32" style="stroke: #000000; stroke-width: 0.8"/>
      </g>
     </g>
     <g id="text_11">
      <!-- −30 -->
      <g transform="translate(74.999313 278.119219) scale(0.1 -0.1)">
       <use xlink:href="#DejaVuSans-2212"/>
       <use xlink:href="#DejaVuSans-33" x="83.789062"/>
       <use xlink:href="#DejaVuSans-30" x="147.412109"/>
      </g>
     </g>
    </g>
    <g id="ytick_3">
     <g id="line2d_12">
      <g>
       <use xlink:href="#m5c4a842d3b" x="103.104" y="241.056" style="stroke: #000000; stroke-width: 0.8"/>
      </g>
     </g>
     <g id="text_12">
      <!-- −20 -->
      <g transform="translate(74.999313 244.855219) scale(0.1 -0.1)">
       <use xlink:href="#DejaVuSans-2212"/>
       <use xlink:href="#DejaVuSans-32" x="83.789062"/>
       <use xlink:href="#DejaVuSans-30" x="147.412109"/>
      </g>
     </g>
    </g>
    <g id="ytick_4">
     <g id="line2d_13">
      <g>
       <use xlink:href="#m5c4a842d3b" x="103.104" y="207.792" style="stroke: #000000; stroke-width: 0.8"/>
      </g>
     </g>
     <g id="text_13">
      <!-- −10 -->
      <g transform="translate(74.999313 211.591219) scale(0.1 -0.1)">
       <use xlink:href="#DejaVuSans-2212"/>
       <use xlink:href="#DejaVuSans-31" x="83.789062"/>
       <use xlink:href="#DejaVuSans-30" x="147.412109"/>
      </g>
     </g>
    </g>
    <g id="ytick_5">
     <g id="line2d_14">
      <g>
       <use xlink:href="#m5c4a842d3b" x="103.104" y="174.528" style="stroke: #000000; stroke-width: 0.8"/>
      </g>
     </g>
     <g id="text_14">
      <!-- 0 -->
      <g transform="translate(89.7415 178.327219) scale(0.1 -0.1)">
       <use xlink:href="#DejaVuSans-30"/>
      </g>
     </g>
    </g>
    <g id="ytick_6">
     <g id="line2d_15">
      <g>
       <use xlink:href="#m5c4a842d3b" x="103.104" y="141.264" style="stroke: #000000; stroke-width: 0.8"/>
      </g>
     </g>
     <g id="text_15">
      <!-- 10 -->
      <g transform="translate(83.379 145.063219) scale(0.1 -0.1)">
       <use xlink:href="#DejaVuSans-31"/>
       <use xlink:href="#DejaVuSans-30" x="63.623047"/>
      </g>
     </g>
    </g>
    <g id="ytick_7">
     <g id="line2d_16">
      <g>
       <use xlink:href="#m5c4a842d3b" x="103.104" y="108" style="stroke: #000000; stroke-width: 0.8"/>
      </g>
     </g>
     <g id="text_16">
      <!-- 20 -->
      <g transform="translate(83.379 111.799219) scale(0.1 -0.1)">
       <use xlink:href="#DejaVuSans-32"/>
       <use xlink:href="#DejaVuSans-30" x="63.623047"/>
      </g>
     </g>
    </g>
    <g id="ytick_8">
     <g id="line2d_17">
      <g>
       <use xlink:href="#m5c4a842d3b" x="103.104" y="74.736" style="stroke: #000000; stroke-width: 0.8"/>
      </g>
     </g>
     <g id="text_17">
      <!-- 30 -->
      <g transform="translate(83.379 78.535219) scale(0.1 -0.1)">
       <use xlink:href="#DejaVuSans-33"/>
       <use xlink:href="#DejaVuSans-30" x="63.623047"/>
      </g>
     </g>
    </g>
    <g id="ytick_9">
     <g id="line2d_18">
      <g>
       <use xlink:href="#m5c4a842d3b" x="103.104" y="41.472" style="stroke: #000000; stroke-width: 0.8"/>
      </g>
     </g>
     <g id="text_18">
      <!-- 40 -->
      <g transform="translate(83.379 45.271219) scale(0.1 -0.1)">
       <use xlink:href="#DejaVuSans-34"/>
       <use xlink:href="#DejaVuSans-30" x="63.623047"/>
      </g>
     </g>
    </g>
   </g>
   <g id="line2d_19">
    <path d="M 251.1288 346.6 
L 251.1288 189.4968 
" clip-path="url(#p86eebd655c)" style="fill: none; stroke: #000000; stroke-width: 0.25; stroke-linecap: square"/>
   </g>
   <g id="line2d_20">
    <path d="M 251.1288 189.4968 
L 417.4488 189.4968 
" clip-path="url(#p86eebd655c)" style="fill: none; stroke: #000000; stroke-width: 0.25; stroke-linecap: square"/>
   </g>
   <g id="line2d_21">
    <path d="M 417.4488 159.5592 
L 251.1288 159.5592 
" clip-path="url(#p86eebd655c)" style="fill: none; stroke: #000000; stroke-width: 0.25; stroke-linecap: square"/>
   </g>
   <g id="line2d_22">
    <path d="M 251.1288 159.5592 
L 251.1288 -1 
" clip-path="url(#p86eebd655c)" style="fill: none; stroke: #000000; stroke-width: 0.25; stroke-linecap: square"/>
   </g>
   <g id="line2d_23">
    <path d="M 221.1912 -1 
L 221.1912 159.5592 
" clip-path="url(#p86eebd655c)" style="fill: none; stroke: #000000; stroke-width: 0.25; stroke-linecap: square"/>
   </g>
   <g id="line2d_24">
    <path d="M 221.1912 159.5592 
L 54.8712 159.5592 
" clip-path="url(#p86eebd655c)" style="fill: none; stroke: #000000; stroke-width: 0.25; stroke-linecap: square"/>
   </g>
   <g id="line2d_25">
    <path d="M 54.8712 189.4968 
L 221.1912 189.4968 
" clip-path="url(#p86eebd655c)" style="fill: none; stroke: #000000; stroke-width: 0.25; stroke-linecap: square"/>
   </g>
   <g id="line2d_26">
    <path d="M 221.1912 189.4968 
L 221.1912 346.6 
" clip-path="url(#p86eebd655c)" style="fill: none; stroke: #000000; stroke-width: 0.25; stroke-linecap: square"/>
   </g>
   <g id="line2d_27">
    <path d="M 251.1288 174.528 
L 417.4488 174.528 
" clip-path="url(#p86eebd655c)" style="fill: none; stroke-dasharray: 0.925,0.4; stroke-dashoffset: 0; stroke: #000000; stroke-width: 0.25"/>
   </g>
   <g id="line2d_28">
    <path d="M 236.16 159.5592 
L 236.16 -1 
" clip-path="url(#p86eebd655c)" style="fill: none; stroke-dasharray: 0.925,0.4; stroke-dashoffset: 0; stroke: #000000; stroke-width: 0.25"/>
   </g>
   <g id="line2d_29">
    <path d="M 221.1912 174.528 
L 54.8712 174.528 
" clip-path="url(#p86eebd655c)" style="fill: none; stroke-dasharray: 0.925,0.4; stroke-dashoffset: 0; stroke: #000000; stroke-width: 0.25"/>
   </g>
   <g id="line2d_30">
    <path d="M 236.16 189.4968 
L 236.16 346.6 
" clip-path="url(#p86eebd655c)" style="fill: none; stroke-dasharray: 0.925,0.4; stroke-dashoffset: 0; stroke: #000000; stroke-width: 0.25"/>
   </g>
   <g id="line2d_31">
    <path d="M 242.347805 224.494166 
L 242.342345 222.595136 
L 242.336341 220.688538 
L 242.329666 218.774972 
L 242.322406 216.855002 
L 242.314735 214.929166 
L 242.306964 212.997968 
L 242.299589 211.061875 
L 242.293364 209.121324 
L 242.289373 207.176715 
L 242.289113 205.228418 
L 242.294605 203.276777 
L 242.308498 201.322121 
L 242.334168 199.364787 
L 242.375803 197.405154 
L 242.438458 195.443692 
L 242.528032 193.481036 
L 242.65115 191.518074 
L 242.81488 189.556031 
L 243.023414 187.596234 
L 243.281705 185.6404 
L 243.592979 183.690362 
L 243.957531 181.747682 
L 244.371318 179.813036 
L 244.824237 177.885373 
L 245.264966 175.953158 
L 245.507204 173.984603 
L 245.357086 172.005625 
L 244.891622 170.075445 
L 244.220513 168.206272 
L 243.514696 166.349674 
" clip-path="url(#p86eebd655c)" style="fill: none; stroke: #ff0000; stroke-opacity: 0.2; stroke-width: 0.25; stroke-linecap: square"/>
   </g>
   <g id="line2d_32">
    <path d="M 242.347805 224.494166 
L 242.342465 222.595135 
L 242.336708 220.688331 
L 242.330393 218.774355 
L 242.323626 216.853778 
L 242.316605 214.927142 
L 242.309669 212.994953 
L 242.303348 211.057687 
L 242.298429 209.115784 
L 242.296039 207.169651 
L 242.29772 205.219664 
L 242.305539 203.266177 
L 242.322178 201.30953 
L 242.351051 199.350077 
L 242.396374 197.388214 
L 242.463208 195.42444 
L 242.557434 193.459418 
L 242.685611 191.494068 
L 242.854672 189.529646 
L 243.068534 187.567478 
L 243.331799 185.609256 
L 243.647201 183.656732 
L 244.014371 181.711306 
L 244.428426 179.773404 
L 244.878319 177.84166 
L 245.308423 175.90366 
L 245.536773 173.930111 
L 245.37255 171.948952 
L 244.896131 170.018098 
L 244.212621 168.150009 
L 243.499698 166.29273 
" clip-path="url(#p86eebd655c)" style="fill: none; stroke: #ff0000; stroke-opacity: 0.4; stroke-width: 0.25; stroke-linecap: square"/>
   </g>
   <g id="line2d_33">
    <path d="M 242.347805 224.494166 
L 242.342093 222.595136 
L 242.335933 220.688277 
L 242.329146 218.77419 
L 242.321848 216.853447 
L 242.314255 214.926587 
L 242.306726 212.994118 
L 242.29982 211.056514 
L 242.29436 209.114214 
L 242.291518 207.167625 
L 242.292894 205.217124 
L 242.300623 203.263064 
L 242.317467 201.30579 
L 242.346925 199.345657 
L 242.393303 197.383075 
L 242.461753 195.418554 
L 242.558231 193.452783 
L 242.689346 191.486713 
L 242.862042 189.521639 
L 243.080101 187.558911 
L 243.347982 185.600241 
L 243.668184 183.647373 
L 244.039996 181.701656 
L 244.458022 179.763388 
L 244.910553 177.831003 
L 245.337884 175.891107 
L 245.560974 173.915676 
L 245.38958 171.93384 
L 244.912193 170.001907 
L 244.226441 168.133285 
L 243.506258 166.277448 
" clip-path="url(#p86eebd655c)" style="fill: none; stroke: #ff0000; stroke-opacity: 0.6; stroke-width: 0.25; stroke-linecap: square"/>
   </g>
   <g id="line2d_34">
    <path d="M 242.347805 224.494166 
L 242.342218 222.595136 
L 242.336255 220.6882 
L 242.329716 218.773961 
L 242.322717 216.852993 
L 242.315476 214.925838 
L 242.308351 212.993004 
L 242.301905 211.054967 
L 242.296966 209.11217 
L 242.294711 207.165022 
L 242.296751 205.213901 
L 242.30523 203.259165 
L 242.322926 201.301162 
L 242.35335 199.340254 
L 242.400826 197.376856 
L 242.470514 195.411487 
L 242.568373 193.444847 
L 242.700999 191.477898 
L 242.8753 189.511944 
L 243.094949 187.548334 
L 243.364289 185.588772 
L 243.685655 183.634973 
L 244.058118 181.688233 
L 244.476032 179.748775 
L 244.927392 177.814938 
L 245.35219 175.873313 
L 245.572406 173.896415 
L 245.396967 171.913803 
L 244.916651 169.981453 
L 244.228452 168.112562 
L 243.502847 166.257669 
" clip-path="url(#p86eebd655c)" style="fill: none; stroke: #ff0000; stroke-opacity: 0.8; stroke-width: 0.25; stroke-linecap: square"/>
   </g>
   <g id="line2d_35">
    <path d="M 242.347805 224.494166 
L 242.342126 222.595136 
L 242.336084 220.688161 
L 242.329454 218.773845 
L 242.322352 216.852761 
L 242.315 214.925452 
L 242.307762 212.992429 
L 242.301209 211.054168 
L 242.296181 209.111112 
L 242.293871 207.16367 
L 242.295914 205.212223 
L 242.304482 203.257128 
L 242.322385 201.298737 
L 242.353178 199.337414 
L 242.401222 197.373579 
L 242.471722 195.407761 
L 242.570673 193.44067 
L 242.704698 191.473282 
L 242.880709 189.506922 
L 243.102309 187.542948 
L 243.373774 185.583072 
L 243.697335 183.629005 
L 244.071921 181.68202 
L 244.491677 179.742287 
L 244.944331 177.808063 
L 245.368848 175.865677 
L 245.587976 173.887963 
L 245.409883 171.904889 
L 244.927691 169.972289 
L 244.237573 168.103363 
L 243.508877 166.248935 
" clip-path="url(#p86eebd655c)" style="fill: none; stroke: #ff0000; stroke-width: 0.25; stroke-linecap: square"/>
   </g>
   <g id="line2d_36">
    <path d="M 286.13393 168.355169 
L 284.232742 168.363989 
L 282.323159 168.373796 
L 280.405725 168.38488 
L 278.480953 168.397123 
L 276.549325 168.410219 
L 274.611286 168.423593 
L 272.66725 168.436296 
L 270.717591 168.446877 
L 268.762656 168.45324 
L 266.80277 168.452467 
L 264.83826 168.44064 
L 262.869504 168.412645 
L 260.897004 168.362 
L 258.921511 168.280725 
L 256.944206 168.159288 
L 254.966944 167.986706 
L 252.992535 167.750868 
L 251.025012 167.439219 
L 249.068555 167.045748 
L 247.12844 166.563406 
L 245.209784 165.989445 
L 243.315967 165.327737 
L 241.446459 164.591039 
L 239.516667 164.019546 
L 237.502586 163.943187 
L 235.499174 164.184087 
L 233.533137 164.64552 
L 231.628437 165.319636 
L 229.809406 166.200455 
L 227.998651 167.09881 
" clip-path="url(#p86eebd655c)" style="fill: none; stroke: #ff0000; stroke-opacity: 0.2; stroke-width: 0.25; stroke-linecap: square"/>
   </g>
   <g id="line2d_37">
    <path d="M 286.13393 168.355169 
L 284.23274 168.363488 
L 282.323092 168.372584 
L 280.405538 168.382787 
L 278.4806 168.393981 
L 276.548769 168.405865 
L 274.6105 168.417871 
L 272.666214 168.429063 
L 270.716298 168.438013 
L 268.761108 168.442653 
L 266.800982 168.44011 
L 264.836259 168.426522 
L 262.86733 168.396851 
L 260.894705 168.344717 
L 258.919142 168.262266 
L 256.941816 168.140128 
L 254.964555 167.967516 
L 252.990112 167.732563 
L 251.022422 167.422949 
L 249.065526 167.032916 
L 247.124499 166.555705 
L 245.204205 165.988864 
L 243.307744 165.336553 
L 241.434327 164.611822 
L 239.504388 164.043856 
L 237.491343 163.966512 
L 235.489378 164.210096 
L 233.524851 164.672711 
L 231.623264 165.351845 
L 229.808251 166.237996 
L 227.995659 167.129685 
" clip-path="url(#p86eebd655c)" style="fill: none; stroke: #ff0000; stroke-opacity: 0.4; stroke-width: 0.25; stroke-linecap: square"/>
   </g>
   <g id="line2d_38">
    <path d="M 286.13393 168.355169 
L 284.232741 168.363736 
L 282.323065 168.37308 
L 280.405453 168.383532 
L 278.480428 168.394951 
L 276.548478 168.407005 
L 274.61006 168.419097 
L 272.665592 168.430257 
L 270.715463 168.439025 
L 268.760029 168.443299 
L 266.799627 168.440174 
L 264.834602 168.425761 
L 262.865348 168.394998 
L 260.892388 168.341488 
L 258.916488 168.257376 
L 256.938843 168.133301 
L 254.961301 167.958511 
L 252.986633 167.721197 
L 251.018785 167.409162 
L 249.061778 167.016787 
L 247.120649 166.537496 
L 245.200173 165.969055 
L 243.303315 165.31588 
L 241.429106 164.591301 
L 239.498624 164.022661 
L 237.484739 163.948085 
L 235.482106 164.192377 
L 233.51692 164.655502 
L 231.614923 165.335749 
L 229.799725 166.223253 
L 227.988936 167.120307 
" clip-path="url(#p86eebd655c)" style="fill: none; stroke: #ff0000; stroke-opacity: 0.6; stroke-width: 0.25; stroke-linecap: square"/>
   </g>
   <g id="line2d_39">
    <path d="M 286.13393 168.355169 
L 284.232742 168.363963 
L 282.323059 168.373561 
L 280.405435 168.384315 
L 278.480392 168.396078 
L 276.548419 168.408513 
L 274.609974 168.421012 
L 272.665478 168.432598 
L 270.715317 168.441799 
L 268.759849 168.446506 
L 266.799413 168.443801 
L 264.834353 168.429784 
L 262.865064 168.399387 
L 260.892067 168.346206 
L 258.916133 168.262381 
L 256.938455 168.138558 
L 254.960882 167.963994 
L 252.986185 167.7269 
L 251.018301 167.415122 
L 249.06124 167.023098 
L 247.12001 166.544324 
L 245.199349 165.976644 
L 243.30217 165.324558 
L 241.427457 164.601467 
L 239.497102 164.032683 
L 237.483304 163.958361 
L 235.480844 164.203181 
L 233.515812 164.666446 
L 231.613881 165.346514 
L 229.798411 166.23318 
L 227.987037 167.12877 
" clip-path="url(#p86eebd655c)" style="fill: none; stroke: #ff0000; stroke-opacity: 0.8; stroke-width: 0.25; stroke-linecap: square"/>
   </g>
   <g id="line2d_40">
    <path d="M 286.13393 168.355169 
L 284.232742 168.363873 
L 282.323042 168.373337 
L 280.405384 168.383922 
L 278.480291 168.395479 
L 276.548254 168.407669 
L 274.60973 168.419885 
L 272.66514 168.431147 
L 270.714873 168.439983 
L 268.759286 168.444281 
L 266.79872 168.441124 
L 264.833521 168.426611 
L 262.864086 168.395672 
L 260.890941 168.341906 
L 258.914858 168.257454 
L 256.937037 168.132969 
L 254.95933 167.957715 
L 252.984514 167.719918 
L 251.016527 167.407444 
L 249.059376 167.014759 
L 247.118062 166.535393 
L 245.197304 165.967231 
L 243.299991 165.314812 
L 241.425076 164.591581 
L 239.494481 164.022752 
L 237.480411 163.949185 
L 235.477864 164.195304 
L 233.512982 164.660262 
L 231.611172 165.341388 
L 229.79598 166.229174 
L 227.984908 167.125922 
" clip-path="url(#p86eebd655c)" style="fill: none; stroke: #ff0000; stroke-width: 0.25; stroke-linecap: square"/>
   </g>
   <g id="line2d_41">
    <path d="M 229.973989 125.479295 
L 229.972331 127.458302 
L 229.967617 129.439793 
L 229.958538 131.423729 
L 229.943794 133.410061 
L 229.921924 135.398733 
L 229.891332 137.389671 
L 229.850352 139.382784 
L 229.797338 141.377955 
L 229.730812 143.375047 
L 229.649677 145.37391 
L 229.553497 147.3744 
L 229.442945 149.37643 
L 229.320185 151.380012 
L 229.189435 153.385336 
L 229.05764 155.392816 
L 228.935257 157.403092 
L 228.837164 159.416867 
L 228.783749 161.434454 
L 228.801599 163.454757 
L 228.919756 165.473668 
L 229.171325 167.482149 
L 229.596748 169.462723 
L 230.248267 171.382181 
L 231.230098 173.156565 
L 232.403777 174.810938 
L 233.7543 176.324695 
L 235.264021 177.68006 
L 236.914852 178.860023 
L 238.686903 179.849153 
L 240.558857 180.633261 
" clip-path="url(#p86eebd655c)" style="fill: none; stroke: #ff0000; stroke-opacity: 0.2; stroke-width: 0.25; stroke-linecap: square"/>
   </g>
   <g id="line2d_42">
    <path d="M 229.973989 125.479295 
L 229.973194 127.458302 
L 229.969626 129.439747 
L 229.961888 131.423592 
L 229.948645 133.409792 
L 229.928393 135.398294 
L 229.89949 137.389028 
L 229.860209 139.381903 
L 229.80884 141.376804 
L 229.743832 143.373592 
L 229.664003 145.372112 
L 229.568845 147.372217 
L 229.458944 149.373808 
L 229.336391 151.376891 
L 229.205362 153.381648 
L 229.072804 155.388494 
L 228.949233 157.398081 
L 228.849673 159.411137 
L 228.794763 161.428006 
L 228.811578 163.447612 
L 228.929665 165.465791 
L 229.182867 167.4733 
L 229.612749 169.452106 
L 230.273278 171.367625 
L 231.259198 173.138789 
L 232.434703 174.790825 
L 233.786008 176.30277 
L 235.298132 177.654268 
L 236.951603 178.829217 
L 238.725883 179.812806 
L 240.598485 180.593449 
" clip-path="url(#p86eebd655c)" style="fill: none; stroke: #ff0000; stroke-opacity: 0.4; stroke-width: 0.25; stroke-linecap: square"/>
   </g>
   <g id="line2d_43">
    <path d="M 229.973989 125.479295 
L 229.972895 127.458302 
L 229.968978 129.439847 
L 229.960796 131.423889 
L 229.947012 133.410381 
L 229.926119 135.399265 
L 229.896466 137.390468 
L 229.85632 139.383894 
L 229.803956 141.379424 
L 229.737808 143.376912 
L 229.656684 145.376197 
L 229.560073 147.377124 
L 229.448548 149.379588 
L 229.32421 151.383591 
L 229.191266 153.389313 
L 229.056736 155.397177 
L 228.931262 157.407845 
L 228.830063 159.422064 
L 228.77407 161.440189 
L 228.790835 163.461114 
L 228.910436 165.480554 
L 229.167458 167.488959 
L 229.604526 169.467607 
L 230.277142 171.380388 
L 231.270201 173.149148 
L 232.452956 174.797695 
L 233.811619 176.304863 
L 235.330346 177.65096 
L 236.989331 178.820409 
L 238.767934 179.798884 
L 240.644184 180.574142 
" clip-path="url(#p86eebd655c)" style="fill: none; stroke: #ff0000; stroke-opacity: 0.6; stroke-width: 0.25; stroke-linecap: square"/>
   </g>
   <g id="line2d_44">
    <path d="M 229.973989 125.479295 
L 229.973101 127.458302 
L 229.969478 129.43987 
L 229.961653 131.423958 
L 229.948287 133.410517 
L 229.927867 135.399488 
L 229.898736 137.390797 
L 229.859148 139.384348 
L 229.807363 141.380019 
L 229.741796 143.377664 
L 229.66123 145.37712 
L 229.565124 147.378228 
L 229.45402 149.380879 
L 229.329984 151.385071 
L 229.197201 153.390979 
L 229.062683 155.399021 
L 228.937085 157.409861 
L 228.835667 159.424248 
L 228.779444 161.442543 
L 228.796145 163.463642 
L 228.916012 165.483233 
L 229.173892 167.491687 
L 229.612818 169.470074 
L 230.288937 171.381762 
L 231.2813 173.151048 
L 232.465022 174.799026 
L 233.824955 176.305168 
L 235.343549 177.651536 
L 237.003175 178.820202 
L 238.7831 179.796408 
L 240.660898 180.568075 
" clip-path="url(#p86eebd655c)" style="fill: none; stroke: #ff0000; stroke-opacity: 0.8; stroke-width: 0.25; stroke-linecap: square"/>
   </g>
   <g id="line2d_45">
    <path d="M 229.973989 125.479295 
L 229.973031 127.458302 
L 229.969331 129.439899 
L 229.961422 131.424043 
L 229.94797 133.410685 
L 229.927467 135.399766 
L 229.898262 137.391212 
L 229.858612 139.384925 
L 229.806784 141.380784 
L 229.741195 143.378643 
L 229.660632 145.378337 
L 229.564558 147.379709 
L 229.453512 149.382647 
L 229.329567 151.387147 
L 229.196911 153.393385 
L 229.062565 155.401778 
L 228.937198 157.412986 
L 228.836096 159.427758 
L 228.780309 161.446445 
L 228.797624 163.46793 
L 228.918347 165.487871 
L 229.177412 167.496583 
L 229.617978 169.475029 
L 230.296376 171.386351 
L 231.291473 173.15458 
L 232.478057 174.801011 
L 233.841103 176.304896 
L 235.362658 177.648538 
L 237.024607 178.814608 
L 238.805816 179.789318 
L 240.684475 180.559956 
" clip-path="url(#p86eebd655c)" style="fill: none; stroke: #ff0000; stroke-width: 0.25; stroke-linecap: square"/>
   </g>
   <g id="line2d_46">
    <path d="M 185.856766 180.698956 
L 187.660169 180.678356 
L 189.45904 180.651835 
L 191.253256 180.617071 
L 193.042695 180.573027 
L 194.82723 180.518769 
L 196.606728 180.453581 
L 198.381068 180.3771 
L 200.150159 180.289507 
L 201.913966 180.191756 
L 203.672547 180.085863 
L 205.426095 179.975251 
L 207.174964 179.865166 
L 208.919663 179.763154 
L 210.660761 179.679627 
L 212.398629 179.628537 
L 214.132894 179.628229 
L 215.861358 179.702649 
L 217.577936 179.883288 
L 219.268373 180.212926 
L 220.899519 180.754686 
L 222.428121 181.53346 
L 223.874508 182.450558 
L 225.22624 183.497906 
L 226.47207 184.66585 
L 227.601847 185.943713 
L 228.605834 187.320534 
L 229.47586 188.784136 
L 230.204979 190.321692 
L 230.789246 191.919223 
L 231.220568 193.564326 
" clip-path="url(#p86eebd655c)" style="fill: none; stroke: #ff0000; stroke-opacity: 0.2; stroke-width: 0.25; stroke-linecap: square"/>
   </g>
   <g id="line2d_47">
    <path d="M 185.856766 180.698956 
L 187.660207 180.682025 
L 189.45928 180.660296 
L 191.253864 180.630967 
L 193.043841 180.592828 
L 194.829081 180.544767 
L 196.609451 180.48587 
L 198.38482 180.415561 
L 200.15508 180.333789 
L 201.920172 180.241263 
L 203.680123 180.13974 
L 205.43509 180.032381 
L 207.185394 179.924177 
L 208.931521 179.822437 
L 210.674045 179.737368 
L 212.413389 179.682772 
L 214.149299 179.676937 
L 215.879793 179.743923 
L 217.599074 179.91571 
L 219.293086 180.236466 
L 220.927829 180.773323 
L 222.461448 181.546423 
L 223.912597 182.459616 
L 225.269374 183.50366 
L 226.520348 184.669041 
L 227.655502 185.944863 
L 228.663917 187.321018 
L 229.538189 188.784549 
L 230.270948 190.322759 
L 230.857566 191.921767 
L 231.290865 193.568644 
" clip-path="url(#p86eebd655c)" style="fill: none; stroke: #ff0000; stroke-opacity: 0.4; stroke-width: 0.25; stroke-linecap: square"/>
   </g>
   <g id="line2d_48">
    <path d="M 185.856766 180.698956 
L 187.660183 180.679582 
L 189.459156 180.655189 
L 191.253558 180.622681 
L 193.043268 180.580876 
L 194.828154 180.528692 
L 196.60808 180.465247 
L 198.382914 180.39001 
L 200.152548 180.30298 
L 201.916929 180.204936 
L 203.676098 180.097731 
L 205.430232 179.984664 
L 207.179685 179.870909 
L 208.924987 179.764034 
L 210.666758 179.674596 
L 212.405457 179.616865 
L 214.140813 179.609768 
L 215.870697 179.678264 
L 217.588856 179.855683 
L 219.279983 180.188535 
L 220.90618 180.74913 
L 222.434582 181.531367 
L 223.879964 182.452734 
L 225.230311 183.504298 
L 226.474318 184.676442 
L 227.601871 185.958408 
L 228.603102 187.339285 
L 229.470029 188.806711 
L 230.195409 190.347977 
L 230.773501 191.949671 
L 231.198438 193.598321 
" clip-path="url(#p86eebd655c)" style="fill: none; stroke: #ff0000; stroke-opacity: 0.6; stroke-width: 0.25; stroke-linecap: square"/>
   </g>
   <g id="line2d_49">
    <path d="M 185.856766 180.698956 
L 187.660189 180.680213 
L 189.459183 180.656694 
L 191.253618 180.625115 
L 193.043373 180.584244 
L 194.828314 180.532941 
L 196.608301 180.470268 
L 198.383198 180.395629 
L 200.152891 180.308959 
L 201.917319 180.210972 
L 203.676514 180.103459 
L 205.430645 179.989667 
L 207.180065 179.874732 
L 208.925305 179.766206 
L 210.667004 179.674666 
L 212.405649 179.614449 
L 214.141017 179.604618 
L 215.871023 179.67039 
L 217.589413 179.84561 
L 219.280635 180.177944 
L 220.905234 180.743093 
L 222.43344 181.525637 
L 223.878603 182.447257 
L 225.228705 183.499039 
L 226.472465 184.671343 
L 227.599827 185.953373 
L 228.601109 187.33411 
L 229.468235 188.801318 
L 230.194032 190.342291 
L 230.772608 191.94372 
L 231.200424 193.59154 
" clip-path="url(#p86eebd655c)" style="fill: none; stroke: #ff0000; stroke-opacity: 0.8; stroke-width: 0.25; stroke-linecap: square"/>
   </g>
   <g id="line2d_50">
    <path d="M 185.856766 180.698956 
L 187.660186 180.679941 
L 189.459156 180.656133 
L 191.253547 180.624215 
L 193.043236 180.582962 
L 194.828092 180.531241 
L 196.607974 180.468118 
L 198.382746 180.393002 
L 200.152296 180.305833 
L 201.916562 180.207327 
L 203.675579 180.099282 
L 205.42952 179.98495 
L 207.178737 179.869481 
L 208.92377 179.760445 
L 210.665259 179.668448 
L 212.4037 179.607873 
L 214.138868 179.597853 
L 215.868664 179.663718 
L 217.586782 179.839516 
L 219.277485 180.173365 
L 220.900506 180.74236 
L 222.427478 181.526812 
L 223.871752 182.449394 
L 225.221044 183.50183 
L 226.464193 184.674431 
L 227.590485 185.957078 
L 228.591338 187.337822 
L 229.458393 188.804783 
L 230.184699 190.345241 
L 230.764336 191.946018 
L 231.190497 193.594007 
" clip-path="url(#p86eebd655c)" style="fill: none; stroke: #ff0000; stroke-width: 0.25; stroke-linecap: square"/>
   </g>
   <g id="line2d_51">
    <path d="M 242.360416 257.676636 
L 242.360667 255.757839 
L 242.3608 253.831009 
L 242.360809 251.89675 
L 242.360635 249.955638 
L 242.36021 248.008228 
L 242.359448 246.055043 
L 242.35825 244.096584 
L 242.356496 242.133323 
L 242.354053 240.165704 
L 242.350774 238.194146 
L 242.346508 236.219041 
L 242.341108 234.240754 
L 242.334448 232.259628 
L 242.326448 230.275977 
L 242.317106 228.290093 
L 242.306538 226.302244 
L 242.295031 224.312675 
L 242.28311 222.321605 
L 242.271615 220.329235 
L 242.261788 218.335742 
L 242.255376 216.341286 
L 242.254736 214.346023 
L 242.262939 212.350112 
L 242.283869 210.353748 
L 242.322298 208.357206 
L 242.383921 206.360901 
L 242.475328 204.365477 
L 242.603885 202.371916 
L 242.777477 200.381651 
L 242.987933 198.394888 
" clip-path="url(#p86eebd655c)" style="fill: none; stroke: #ff0000; stroke-opacity: 0.2; stroke-width: 0.25; stroke-linecap: square"/>
   </g>
   <g id="line2d_52">
    <path d="M 242.360416 257.676636 
L 242.360221 255.757839 
L 242.360007 253.831023 
L 242.35971 251.896792 
L 242.359308 249.955723 
L 242.358778 248.008368 
L 242.358085 246.055254 
L 242.357188 244.09688 
L 242.356036 242.133717 
L 242.354569 240.16621 
L 242.352718 238.194777 
L 242.350408 236.21981 
L 242.347566 234.241674 
L 242.344121 232.260709 
L 242.340023 230.277229 
L 242.335257 228.291526 
L 242.329864 226.303868 
L 242.323975 224.314498 
L 242.317846 222.32364 
L 242.311906 220.331496 
L 242.306815 218.338247 
L 242.303523 216.344059 
L 242.303344 214.349081 
L 242.308023 212.353455 
L 242.319807 210.357324 
L 242.341498 208.360846 
L 242.376492 206.36422 
L 242.428775 204.36772 
L 242.502872 202.37173 
L 242.603719 200.376799 
L 242.73665 198.383694 
" clip-path="url(#p86eebd655c)" style="fill: none; stroke: #ff0000; stroke-opacity: 0.4; stroke-width: 0.25; stroke-linecap: square"/>
   </g>
   <g id="line2d_53">
    <path d="M 242.360416 257.676636 
L 242.360511 255.757839 
L 242.36055 253.83101 
L 242.360512 251.896751 
L 242.360358 249.955641 
L 242.360044 248.008233 
L 242.359514 246.055051 
L 242.358706 244.096596 
L 242.357544 242.13334 
L 242.355944 240.165726 
L 242.353816 238.194174 
L 242.351065 236.219074 
L 242.347597 234.240794 
L 242.343335 232.259672 
L 242.338226 230.276025 
L 242.332265 228.290143 
L 242.325518 226.302294 
L 242.318158 224.312723 
L 242.310508 222.321654 
L 242.303085 220.329287 
L 242.296665 218.335804 
L 242.292347 216.34137 
L 242.291622 214.346135 
L 242.296448 212.350244 
L 242.309318 210.353846 
L 242.333316 208.357114 
L 242.372146 206.360274 
L 242.430124 204.363641 
L 242.51211 202.367666 
L 242.62336 200.372991 
L 242.768739 198.380458 
" clip-path="url(#p86eebd655c)" style="fill: none; stroke: #ff0000; stroke-opacity: 0.6; stroke-width: 0.25; stroke-linecap: square"/>
   </g>
   <g id="line2d_54">
    <path d="M 242.360416 257.676636 
L 242.360412 255.757839 
L 242.360357 253.831016 
L 242.360223 251.89677 
L 242.359985 249.955679 
L 242.359611 248.008296 
L 242.359059 246.055147 
L 242.358281 244.09673 
L 242.357218 242.133517 
L 242.355802 240.165954 
L 242.353957 238.194459 
L 242.351605 236.219423 
L 242.348664 234.241211 
L 242.345065 232.260164 
L 242.34076 230.276597 
L 242.335739 228.290801 
L 242.330053 226.303043 
L 242.323845 224.313569 
L 242.317386 222.322602 
L 242.311118 220.330342 
L 242.305711 218.336974 
L 242.302118 216.342661 
L 242.301643 214.347554 
L 242.306002 212.351794 
L 242.317388 210.355523 
L 242.338522 208.358899 
L 242.372678 206.362117 
L 242.423677 204.36544 
L 242.495834 202.369234 
L 242.593821 200.374015 
L 242.72245 198.380481 
" clip-path="url(#p86eebd655c)" style="fill: none; stroke: #ff0000; stroke-opacity: 0.8; stroke-width: 0.25; stroke-linecap: square"/>
   </g>
   <g id="line2d_55">
    <path d="M 242.360416 257.676636 
L 242.360424 255.757839 
L 242.360382 253.831015 
L 242.360261 251.896768 
L 242.360033 249.955675 
L 242.359664 248.008289 
L 242.359111 246.055136 
L 242.358322 244.096715 
L 242.357235 242.133498 
L 242.35578 240.165929 
L 242.353878 238.194428 
L 242.351447 236.219385 
L 242.348406 234.241167 
L 242.344683 232.260112 
L 242.340229 230.276538 
L 242.335034 228.290734 
L 242.329153 226.302968 
L 242.322732 224.313485 
L 242.316049 222.322508 
L 242.309555 220.33024 
L 242.303932 218.336862 
L 242.300151 216.342539 
L 242.299534 214.347421 
L 242.303825 212.35165 
L 242.315244 210.355369 
L 242.336546 208.358736 
L 242.371039 206.361949 
L 242.422583 204.365275 
L 242.495524 202.369087 
L 242.59456 200.373909 
L 242.724498 198.38045 
" clip-path="url(#p86eebd655c)" style="fill: none; stroke: #ff0000; stroke-width: 0.25; stroke-linecap: square"/>
   </g>
   <g id="line2d_56">
    <path d="M 318.413044 168.32772 
L 316.428574 168.32772 
L 314.444105 168.32772 
L 312.459635 168.32772 
L 310.475166 168.32772 
L 308.490696 168.32772 
L 306.506227 168.32772 
L 304.521757 168.32772 
L 302.537288 168.32772 
L 300.552818 168.32772 
L 298.568349 168.32772 
L 296.583879 168.32772 
L 294.59941 168.32772 
L 292.61494 168.32772 
L 290.630471 168.32772 
L 288.646001 168.32772 
L 286.661532 168.32772 
L 284.677062 168.32772 
L 282.692593 168.32772 
L 280.708123 168.32772 
L 278.723654 168.32772 
L 276.739184 168.32772 
L 274.754715 168.32772 
L 272.770245 168.32772 
L 270.785776 168.32772 
L 268.801306 168.32772 
L 266.816837 168.32772 
L 264.832367 168.32772 
L 262.847898 168.32772 
L 260.863428 168.32772 
L 258.878959 168.32772 
" clip-path="url(#p86eebd655c)" style="fill: none; stroke: #ff0000; stroke-opacity: 0.2; stroke-width: 0.25; stroke-linecap: square"/>
   </g>
   <g id="line2d_57">
    <path d="M 318.413044 168.32772 
L 316.428574 168.32772 
L 314.444105 168.32772 
L 312.459635 168.32772 
L 310.475166 168.32772 
L 308.490696 168.32772 
L 306.506227 168.32772 
L 304.521757 168.32772 
L 302.537288 168.32772 
L 300.552818 168.32772 
L 298.568349 168.32772 
L 296.583879 168.32772 
L 294.59941 168.32772 
L 292.61494 168.32772 
L 290.630471 168.32772 
L 288.646001 168.32772 
L 286.661532 168.32772 
L 284.677062 168.32772 
L 282.692593 168.32772 
L 280.708123 168.32772 
L 278.723654 168.32772 
L 276.739184 168.32772 
L 274.754715 168.32772 
L 272.770245 168.32772 
L 270.785776 168.32772 
L 268.801306 168.32772 
L 266.816837 168.32772 
L 264.832367 168.32772 
L 262.847898 168.32772 
L 260.863428 168.32772 
L 258.878959 168.32772 
" clip-path="url(#p86eebd655c)" style="fill: none; stroke: #ff0000; stroke-opacity: 0.4; stroke-width: 0.25; stroke-linecap: square"/>
   </g>
   <g id="line2d_58">
    <path d="M 318.413044 168.32772 
L 316.428574 168.32772 
L 314.444105 168.32772 
L 312.459635 168.32772 
L 310.475166 168.32772 
L 308.490696 168.32772 
L 306.506227 168.32772 
L 304.521757 168.32772 
L 302.537288 168.32772 
L 300.552818 168.32772 
L 298.568349 168.32772 
L 296.583879 168.32772 
L 294.59941 168.32772 
L 292.61494 168.32772 
L 290.630471 168.32772 
L 288.646001 168.32772 
L 286.661532 168.32772 
L 284.677062 168.32772 
L 282.692593 168.32772 
L 280.708123 168.32772 
L 278.723654 168.32772 
L 276.739184 168.32772 
L 274.754715 168.32772 
L 272.770245 168.32772 
L 270.785776 168.32772 
L 268.801306 168.32772 
L 266.816837 168.32772 
L 264.832367 168.32772 
L 262.847898 168.32772 
L 260.863428 168.32772 
L 258.878959 168.32772 
" clip-path="url(#p86eebd655c)" style="fill: none; stroke: #ff0000; stroke-opacity: 0.6; stroke-width: 0.25; stroke-linecap: square"/>
   </g>
   <g id="line2d_59">
    <path d="M 318.413044 168.32772 
L 316.428574 168.32772 
L 314.444105 168.32772 
L 312.459635 168.32772 
L 310.475166 168.32772 
L 308.490696 168.32772 
L 306.506227 168.32772 
L 304.521757 168.32772 
L 302.537288 168.32772 
L 300.552818 168.32772 
L 298.568349 168.32772 
L 296.583879 168.32772 
L 294.59941 168.32772 
L 292.61494 168.32772 
L 290.630471 168.32772 
L 288.646001 168.32772 
L 286.661532 168.32772 
L 284.677062 168.32772 
L 282.692593 168.32772 
L 280.708123 168.32772 
L 278.723654 168.32772 
L 276.739184 168.32772 
L 274.754715 168.32772 
L 272.770245 168.32772 
L 270.785776 168.32772 
L 268.801306 168.32772 
L 266.816837 168.32772 
L 264.832367 168.32772 
L 262.847898 168.32772 
L 260.863428 168.32772 
L 258.878959 168.32772 
" clip-path="url(#p86eebd655c)" style="fill: none; stroke: #ff0000; stroke-opacity: 0.8; stroke-width: 0.25; stroke-linecap: square"/>
   </g>
   <g id="line2d_60">
    <path d="M 318.413044 168.32772 
L 316.428574 168.32772 
L 314.444105 168.32772 
L 312.459635 168.32772 
L 310.475166 168.32772 
L 308.490696 168.32772 
L 306.506227 168.32772 
L 304.521757 168.32772 
L 302.537288 168.32772 
L 300.552818 168.32772 
L 298.568349 168.32772 
L 296.583879 168.32772 
L 294.59941 168.32772 
L 292.61494 168.32772 
L 290.630471 168.32772 
L 288.646001 168.32772 
L 286.661532 168.32772 
L 284.677062 168.32772 
L 282.692593 168.32772 
L 280.708123 168.32772 
L 278.723654 168.32772 
L 276.739184 168.32772 
L 274.754715 168.32772 
L 272.770245 168.32772 
L 270.785776 168.32772 
L 268.801306 168.32772 
L 266.816837 168.32772 
L 264.832367 168.32772 
L 262.847898 168.32772 
L 260.863428 168.32772 
L 258.878959 168.32772 
" clip-path="url(#p86eebd655c)" style="fill: none; stroke: #ff0000; stroke-width: 0.25; stroke-linecap: square"/>
   </g>
   <g id="line2d_61">
    <path d="M 229.95972 91.03536 
L 229.95972 92.86488 
L 229.95972 94.6944 
L 229.95972 96.52392 
L 229.95972 98.35344 
L 229.95972 100.18296 
L 229.95972 102.01248 
L 229.95972 103.842 
L 229.95972 105.67152 
L 229.95972 107.50104 
L 229.95972 109.33056 
L 229.95972 111.16008 
L 229.95972 112.9896 
L 229.95972 114.81912 
L 229.95972 116.64864 
L 229.95972 118.47816 
L 229.95972 120.30768 
L 229.95972 122.1372 
L 229.95972 123.96672 
L 229.95972 125.79624 
L 229.95972 127.62576 
L 229.95972 129.45528 
L 229.95972 131.2848 
L 229.95972 133.11432 
L 229.95972 134.94384 
L 229.95972 136.77336 
L 229.95972 138.60288 
L 229.95972 140.4324 
L 229.95972 142.26192 
L 229.95972 144.09144 
L 229.95972 145.92096 
" clip-path="url(#p86eebd655c)" style="fill: none; stroke: #ff0000; stroke-opacity: 0.2; stroke-width: 0.25; stroke-linecap: square"/>
   </g>
   <g id="line2d_62">
    <path d="M 229.95972 91.03536 
L 229.95972 92.86488 
L 229.95972 94.6944 
L 229.95972 96.52392 
L 229.95972 98.35344 
L 229.95972 100.18296 
L 229.95972 102.01248 
L 229.95972 103.842 
L 229.95972 105.67152 
L 229.95972 107.50104 
L 229.95972 109.33056 
L 229.95972 111.16008 
L 229.95972 112.9896 
L 229.95972 114.81912 
L 229.95972 116.64864 
L 229.95972 118.47816 
L 229.95972 120.30768 
L 229.95972 122.1372 
L 229.95972 123.96672 
L 229.95972 125.79624 
L 229.95972 127.62576 
L 229.95972 129.45528 
L 229.95972 131.2848 
L 229.95972 133.11432 
L 229.95972 134.94384 
L 229.95972 136.77336 
L 229.95972 138.60288 
L 229.95972 140.4324 
L 229.95972 142.26192 
L 229.95972 144.09144 
L 229.95972 145.92096 
" clip-path="url(#p86eebd655c)" style="fill: none; stroke: #ff0000; stroke-opacity: 0.4; stroke-width: 0.25; stroke-linecap: square"/>
   </g>
   <g id="line2d_63">
    <path d="M 229.95972 91.03536 
L 229.95972 92.86488 
L 229.95972 94.6944 
L 229.95972 96.52392 
L 229.95972 98.35344 
L 229.95972 100.18296 
L 229.95972 102.01248 
L 229.95972 103.842 
L 229.95972 105.67152 
L 229.95972 107.50104 
L 229.95972 109.33056 
L 229.95972 111.16008 
L 229.95972 112.9896 
L 229.95972 114.81912 
L 229.95972 116.64864 
L 229.95972 118.47816 
L 229.95972 120.30768 
L 229.95972 122.1372 
L 229.95972 123.96672 
L 229.95972 125.79624 
L 229.95972 127.62576 
L 229.95972 129.45528 
L 229.95972 131.2848 
L 229.95972 133.11432 
L 229.95972 134.94384 
L 229.95972 136.77336 
L 229.95972 138.60288 
L 229.95972 140.4324 
L 229.95972 142.26192 
L 229.95972 144.09144 
L 229.95972 145.92096 
" clip-path="url(#p86eebd655c)" style="fill: none; stroke: #ff0000; stroke-opacity: 0.6; stroke-width: 0.25; stroke-linecap: square"/>
   </g>
   <g id="line2d_64">
    <path d="M 229.95972 91.03536 
L 229.95972 92.86488 
L 229.95972 94.6944 
L 229.95972 96.52392 
L 229.95972 98.35344 
L 229.95972 100.18296 
L 229.95972 102.01248 
L 229.95972 103.842 
L 229.95972 105.67152 
L 229.95972 107.50104 
L 229.95972 109.33056 
L 229.95972 111.16008 
L 229.95972 112.9896 
L 229.95972 114.81912 
L 229.95972 116.64864 
L 229.95972 118.47816 
L 229.95972 120.30768 
L 229.95972 122.1372 
L 229.95972 123.96672 
L 229.95972 125.79624 
L 229.95972 127.62576 
L 229.95972 129.45528 
L 229.95972 131.2848 
L 229.95972 133.11432 
L 229.95972 134.94384 
L 229.95972 136.77336 
L 229.95972 138.60288 
L 229.95972 140.4324 
L 229.95972 142.26192 
L 229.95972 144.09144 
L 229.95972 145.92096 
" clip-path="url(#p86eebd655c)" style="fill: none; stroke: #ff0000; stroke-opacity: 0.8; stroke-width: 0.25; stroke-linecap: square"/>
   </g>
   <g id="line2d_65">
    <path d="M 229.95972 91.03536 
L 229.95972 92.86488 
L 229.95972 94.6944 
L 229.95972 96.52392 
L 229.95972 98.35344 
L 229.95972 100.18296 
L 229.95972 102.01248 
L 229.95972 103.842 
L 229.95972 105.67152 
L 229.95972 107.50104 
L 229.95972 109.33056 
L 229.95972 111.16008 
L 229.95972 112.9896 
L 229.95972 114.81912 
L 229.95972 116.64864 
L 229.95972 118.47816 
L 229.95972 120.30768 
L 229.95972 122.1372 
L 229.95972 123.96672 
L 229.95972 125.79624 
L 229.95972 127.62576 
L 229.95972 129.45528 
L 229.95972 131.2848 
L 229.95972 133.11432 
L 229.95972 134.94384 
L 229.95972 136.77336 
L 229.95972 138.60288 
L 229.95972 140.4324 
L 229.95972 142.26192 
L 229.95972 144.09144 
L 229.95972 145.92096 
" clip-path="url(#p86eebd655c)" style="fill: none; stroke: #ff0000; stroke-width: 0.25; stroke-linecap: square"/>
   </g>
   <g id="line2d_66">
    <path d="M 153.011364 180.72828 
L 154.930263 180.72828 
L 156.857112 180.72828 
L 158.791308 180.72828 
L 160.732275 180.72828 
L 162.679461 180.72828 
L 164.632343 180.72828 
L 166.590422 180.72828 
L 168.553228 180.72828 
L 170.520318 180.72828 
L 172.491276 180.72828 
L 174.465711 180.72828 
L 176.44326 180.72828 
L 178.423585 180.72828 
L 180.406373 180.72828 
L 182.391336 180.72828 
L 184.378208 180.72828 
L 186.366747 180.72828 
L 188.356731 180.72828 
L 190.34796 180.72828 
L 192.340253 180.72828 
L 194.333447 180.72828 
L 196.327396 180.72828 
L 198.321972 180.72828 
L 200.31706 180.72828 
L 202.312559 180.72828 
L 204.308381 180.72828 
L 206.304448 180.72828 
L 208.300693 180.72828 
L 210.297058 180.72828 
L 212.293491 180.72828 
" clip-path="url(#p86eebd655c)" style="fill: none; stroke: #ff0000; stroke-opacity: 0.2; stroke-width: 0.25; stroke-linecap: square"/>
   </g>
   <g id="line2d_67">
    <path d="M 153.011364 180.72828 
L 154.930263 180.72828 
L 156.857138 180.72828 
L 158.791386 180.72828 
L 160.732429 180.72828 
L 162.679714 180.72828 
L 164.632717 180.72828 
L 166.590936 180.72828 
L 168.553902 180.72828 
L 170.521169 180.72828 
L 172.492318 180.72828 
L 174.46696 180.72828 
L 176.444728 180.72828 
L 178.425282 180.72828 
L 180.408309 180.72828 
L 182.393517 180.72828 
L 184.380639 180.72828 
L 186.369431 180.72828 
L 188.35967 180.72828 
L 190.351153 180.72828 
L 192.343696 180.72828 
L 194.337135 180.72828 
L 196.331322 180.72828 
L 198.326125 180.72828 
L 200.321428 180.72828 
L 202.317126 180.72828 
L 204.313128 180.72828 
L 206.309355 180.72828 
L 208.305736 180.72828 
L 210.30221 180.72828 
L 212.298722 180.72828 
" clip-path="url(#p86eebd655c)" style="fill: none; stroke: #ff0000; stroke-opacity: 0.4; stroke-width: 0.25; stroke-linecap: square"/>
   </g>
   <g id="line2d_68">
    <path d="M 153.011364 180.72828 
L 154.930263 180.72828 
L 156.857124 180.72828 
L 158.791346 180.72828 
L 160.732349 180.72828 
L 162.679583 180.72828 
L 164.632522 180.72828 
L 166.590668 180.72828 
L 168.553549 180.72828 
L 170.520722 180.72828 
L 172.491769 180.72828 
L 174.4663 180.72828 
L 176.44395 180.72828 
L 178.42438 180.72828 
L 180.407277 180.72828 
L 182.392351 180.72828 
L 184.379335 180.72828 
L 186.367987 180.72828 
L 188.358084 180.72828 
L 190.349425 180.72828 
L 192.341826 180.72828 
L 194.335125 180.72828 
L 196.329175 180.72828 
L 198.323845 180.72828 
L 200.31902 180.72828 
L 202.314596 180.72828 
L 204.310486 180.72828 
L 206.306608 180.72828 
L 208.302896 180.72828 
L 210.299288 180.72828 
L 212.295732 180.72828 
" clip-path="url(#p86eebd655c)" style="fill: none; stroke: #ff0000; stroke-opacity: 0.6; stroke-width: 0.25; stroke-linecap: square"/>
   </g>
   <g id="line2d_69">
    <path d="M 153.011364 180.72828 
L 154.930263 180.72828 
L 156.857132 180.72828 
L 158.791367 180.72828 
L 160.732391 180.72828 
L 162.679652 180.72828 
L 164.632625 180.72828 
L 166.59081 180.72828 
L 168.553736 180.72828 
L 170.52096 180.72828 
L 172.492062 180.72828 
L 174.466653 180.72828 
L 176.444366 180.72828 
L 178.424864 180.72828 
L 180.407832 180.72828 
L 182.39298 180.72828 
L 184.380041 180.72828 
L 186.368771 180.72828 
L 188.358947 180.72828 
L 190.350367 180.72828 
L 192.342849 180.72828 
L 194.336228 180.72828 
L 196.330356 180.72828 
L 198.325104 180.72828 
L 200.320354 180.72828 
L 202.316003 180.72828 
L 204.311961 180.72828 
L 206.308149 180.72828 
L 208.304497 180.72828 
L 210.300944 180.72828 
L 212.297437 180.72828 
" clip-path="url(#p86eebd655c)" style="fill: none; stroke: #ff0000; stroke-opacity: 0.8; stroke-width: 0.25; stroke-linecap: square"/>
   </g>
   <g id="line2d_70">
    <path d="M 153.011364 180.72828 
L 154.930263 180.72828 
L 156.857128 180.72828 
L 158.791356 180.72828 
L 160.732369 180.72828 
L 162.679615 180.72828 
L 164.63257 180.72828 
L 166.590734 180.72828 
L 168.553636 180.72828 
L 170.520832 180.72828 
L 172.491904 180.72828 
L 174.466462 180.72828 
L 176.444141 180.72828 
L 178.424602 180.72828 
L 180.407531 180.72828 
L 182.392638 180.72828 
L 184.379656 180.72828 
L 186.368343 180.72828 
L 188.358474 180.72828 
L 190.34985 180.72828 
L 192.342286 180.72828 
L 194.33562 180.72828 
L 196.329703 180.72828 
L 198.324406 180.72828 
L 200.319612 180.72828 
L 202.315218 180.72828 
L 204.311135 180.72828 
L 206.307283 180.72828 
L 208.303594 180.72828 
L 210.300006 180.72828 
L 212.296466 180.72828 
" clip-path="url(#p86eebd655c)" style="fill: none; stroke: #ff0000; stroke-width: 0.25; stroke-linecap: square"/>
   </g>
   <g id="line2d_71">
    <path d="M 242.36028 291.28464 
L 242.36028 289.45512 
L 242.36028 287.6256 
L 242.36028 285.79608 
L 242.36028 283.96656 
L 242.36028 282.13704 
L 242.36028 280.30752 
L 242.36028 278.478 
L 242.36028 276.64848 
L 242.36028 274.81896 
L 242.36028 272.98944 
L 242.36028 271.15992 
L 242.36028 269.3304 
L 242.36028 267.50088 
L 242.36028 265.67136 
L 242.36028 263.84184 
L 242.36028 262.01232 
L 242.36028 260.1828 
L 242.36028 258.35328 
L 242.36028 256.52376 
L 242.36028 254.69424 
L 242.36028 252.86472 
L 242.36028 251.0352 
L 242.36028 249.20568 
L 242.36028 247.37616 
L 242.36028 245.54664 
L 242.36028 243.71712 
L 242.36028 241.8876 
L 242.36028 240.05808 
L 242.36028 238.22856 
L 242.36028 236.39904 
" clip-path="url(#p86eebd655c)" style="fill: none; stroke: #ff0000; stroke-opacity: 0.2; stroke-width: 0.25; stroke-linecap: square"/>
   </g>
   <g id="line2d_72">
    <path d="M 242.36028 291.28464 
L 242.36028 289.45512 
L 242.36028 287.6256 
L 242.36028 285.79608 
L 242.36028 283.96656 
L 242.36028 282.13704 
L 242.36028 280.30752 
L 242.36028 278.478 
L 242.36028 276.64848 
L 242.36028 274.81896 
L 242.36028 272.98944 
L 242.36028 271.15992 
L 242.36028 269.3304 
L 242.36028 267.50088 
L 242.36028 265.67136 
L 242.36028 263.84184 
L 242.36028 262.01232 
L 242.36028 260.1828 
L 242.36028 258.35328 
L 242.36028 256.52376 
L 242.36028 254.69424 
L 242.36028 252.86472 
L 242.36028 251.0352 
L 242.36028 249.20568 
L 242.36028 247.37616 
L 242.36028 245.54664 
L 242.36028 243.71712 
L 242.36028 241.8876 
L 242.36028 240.05808 
L 242.36028 238.22856 
L 242.36028 236.39904 
" clip-path="url(#p86eebd655c)" style="fill: none; stroke: #ff0000; stroke-opacity: 0.4; stroke-width: 0.25; stroke-linecap: square"/>
   </g>
   <g id="line2d_73">
    <path d="M 242.36028 291.28464 
L 242.36028 289.45512 
L 242.36028 287.6256 
L 242.36028 285.79608 
L 242.36028 283.96656 
L 242.36028 282.13704 
L 242.36028 280.30752 
L 242.36028 278.478 
L 242.36028 276.64848 
L 242.36028 274.81896 
L 242.36028 272.98944 
L 242.36028 271.15992 
L 242.36028 269.3304 
L 242.36028 267.50088 
L 242.36028 265.67136 
L 242.36028 263.84184 
L 242.36028 262.01232 
L 242.36028 260.1828 
L 242.36028 258.35328 
L 242.36028 256.52376 
L 242.36028 254.69424 
L 242.36028 252.86472 
L 242.36028 251.0352 
L 242.36028 249.20568 
L 242.36028 247.37616 
L 242.36028 245.54664 
L 242.36028 243.71712 
L 242.36028 241.8876 
L 242.36028 240.05808 
L 242.36028 238.22856 
L 242.36028 236.39904 
" clip-path="url(#p86eebd655c)" style="fill: none; stroke: #ff0000; stroke-opacity: 0.6; stroke-width: 0.25; stroke-linecap: square"/>
   </g>
   <g id="line2d_74">
    <path d="M 242.36028 291.28464 
L 242.36028 289.45512 
L 242.36028 287.6256 
L 242.36028 285.79608 
L 242.36028 283.96656 
L 242.36028 282.13704 
L 242.36028 280.30752 
L 242.36028 278.478 
L 242.36028 276.64848 
L 242.36028 274.81896 
L 242.36028 272.98944 
L 242.36028 271.15992 
L 242.36028 269.3304 
L 242.36028 267.50088 
L 242.36028 265.67136 
L 242.36028 263.84184 
L 242.36028 262.01232 
L 242.36028 260.1828 
L 242.36028 258.35328 
L 242.36028 256.52376 
L 242.36028 254.69424 
L 242.36028 252.86472 
L 242.36028 251.0352 
L 242.36028 249.20568 
L 242.36028 247.37616 
L 242.36028 245.54664 
L 242.36028 243.71712 
L 242.36028 241.8876 
L 242.36028 240.05808 
L 242.36028 238.22856 
L 242.36028 236.39904 
" clip-path="url(#p86eebd655c)" style="fill: none; stroke: #ff0000; stroke-opacity: 0.8; stroke-width: 0.25; stroke-linecap: square"/>
   </g>
   <g id="line2d_75">
    <path d="M 242.36028 291.28464 
L 242.36028 289.45512 
L 242.36028 287.6256 
L 242.36028 285.79608 
L 242.36028 283.96656 
L 242.36028 282.13704 
L 242.36028 280.30752 
L 242.36028 278.478 
L 242.36028 276.64848 
L 242.36028 274.81896 
L 242.36028 272.98944 
L 242.36028 271.15992 
L 242.36028 269.3304 
L 242.36028 267.50088 
L 242.36028 265.67136 
L 242.36028 263.84184 
L 242.36028 262.01232 
L 242.36028 260.1828 
L 242.36028 258.35328 
L 242.36028 256.52376 
L 242.36028 254.69424 
L 242.36028 252.86472 
L 242.36028 251.0352 
L 242.36028 249.20568 
L 242.36028 247.37616 
L 242.36028 245.54664 
L 242.36028 243.71712 
L 242.36028 241.8876 
L 242.36028 240.05808 
L 242.36028 238.22856 
L 242.36028 236.39904 
" clip-path="url(#p86eebd655c)" style="fill: none; stroke: #ff0000; stroke-width: 0.25; stroke-linecap: square"/>
   </g>
   <g id="line2d_76">
    <path d="M 351.677044 168.32772 
L 349.692574 168.32772 
L 347.708105 168.32772 
L 345.723635 168.32772 
L 343.739166 168.32772 
L 341.754696 168.32772 
L 339.770227 168.32772 
L 337.785757 168.32772 
L 335.801288 168.32772 
L 333.816818 168.32772 
L 331.832349 168.32772 
L 329.847879 168.32772 
L 327.86341 168.32772 
L 325.87894 168.32772 
L 323.894471 168.32772 
L 321.910001 168.32772 
L 319.925532 168.32772 
L 317.941062 168.32772 
L 315.956593 168.32772 
L 313.972123 168.32772 
L 311.987654 168.32772 
L 310.003184 168.32772 
L 308.018715 168.32772 
L 306.034245 168.32772 
L 304.049776 168.32772 
L 302.065306 168.32772 
L 300.080837 168.32772 
L 298.096367 168.32772 
L 296.111898 168.32772 
L 294.127428 168.32772 
L 292.142959 168.32772 
" clip-path="url(#p86eebd655c)" style="fill: none; stroke: #ff0000; stroke-opacity: 0.2; stroke-width: 0.25; stroke-linecap: square"/>
   </g>
   <g id="line2d_77">
    <path d="M 351.677044 168.32772 
L 349.692574 168.32772 
L 347.708105 168.32772 
L 345.723635 168.32772 
L 343.739166 168.32772 
L 341.754696 168.32772 
L 339.770227 168.32772 
L 337.785757 168.32772 
L 335.801288 168.32772 
L 333.816818 168.32772 
L 331.832349 168.32772 
L 329.847879 168.32772 
L 327.86341 168.32772 
L 325.87894 168.32772 
L 323.894471 168.32772 
L 321.910001 168.32772 
L 319.925532 168.32772 
L 317.941062 168.32772 
L 315.956593 168.32772 
L 313.972123 168.32772 
L 311.987654 168.32772 
L 310.003184 168.32772 
L 308.018715 168.32772 
L 306.034245 168.32772 
L 304.049776 168.32772 
L 302.065306 168.32772 
L 300.080837 168.32772 
L 298.096367 168.32772 
L 296.111898 168.32772 
L 294.127428 168.32772 
L 292.142959 168.32772 
" clip-path="url(#p86eebd655c)" style="fill: none; stroke: #ff0000; stroke-opacity: 0.4; stroke-width: 0.25; stroke-linecap: square"/>
   </g>
   <g id="line2d_78">
    <path d="M 351.677044 168.32772 
L 349.692574 168.32772 
L 347.708105 168.32772 
L 345.723635 168.32772 
L 343.739166 168.32772 
L 341.754696 168.32772 
L 339.770227 168.32772 
L 337.785757 168.32772 
L 335.801288 168.32772 
L 333.816818 168.32772 
L 331.832349 168.32772 
L 329.847879 168.32772 
L 327.86341 168.32772 
L 325.87894 168.32772 
L 323.894471 168.32772 
L 321.910001 168.32772 
L 319.925532 168.32772 
L 317.941062 168.32772 
L 315.956593 168.32772 
L 313.972123 168.32772 
L 311.987654 168.32772 
L 310.003184 168.32772 
L 308.018715 168.32772 
L 306.034245 168.32772 
L 304.049776 168.32772 
L 302.065306 168.32772 
L 300.080837 168.32772 
L 298.096367 168.32772 
L 296.111898 168.32772 
L 294.127428 168.32772 
L 292.142959 168.32772 
" clip-path="url(#p86eebd655c)" style="fill: none; stroke: #ff0000; stroke-opacity: 0.6; stroke-width: 0.25; stroke-linecap: square"/>
   </g>
   <g id="line2d_79">
    <path d="M 351.677044 168.32772 
L 349.692574 168.32772 
L 347.708105 168.32772 
L 345.723635 168.32772 
L 343.739166 168.32772 
L 341.754696 168.32772 
L 339.770227 168.32772 
L 337.785757 168.32772 
L 335.801288 168.32772 
L 333.816818 168.32772 
L 331.832349 168.32772 
L 329.847879 168.32772 
L 327.86341 168.32772 
L 325.87894 168.32772 
L 323.894471 168.32772 
L 321.910001 168.32772 
L 319.925532 168.32772 
L 317.941062 168.32772 
L 315.956593 168.32772 
L 313.972123 168.32772 
L 311.987654 168.32772 
L 310.003184 168.32772 
L 308.018715 168.32772 
L 306.034245 168.32772 
L 304.049776 168.32772 
L 302.065306 168.32772 
L 300.080837 168.32772 
L 298.096367 168.32772 
L 296.111898 168.32772 
L 294.127428 168.32772 
L 292.142959 168.32772 
" clip-path="url(#p86eebd655c)" style="fill: none; stroke: #ff0000; stroke-opacity: 0.8; stroke-width: 0.25; stroke-linecap: square"/>
   </g>
   <g id="line2d_80">
    <path d="M 351.677044 168.32772 
L 349.692574 168.32772 
L 347.708105 168.32772 
L 345.723635 168.32772 
L 343.739166 168.32772 
L 341.754696 168.32772 
L 339.770227 168.32772 
L 337.785757 168.32772 
L 335.801288 168.32772 
L 333.816818 168.32772 
L 331.832349 168.32772 
L 329.847879 168.32772 
L 327.86341 168.32772 
L 325.87894 168.32772 
L 323.894471 168.32772 
L 321.910001 168.32772 
L 319.925532 168.32772 
L 317.941062 168.32772 
L 315.956593 168.32772 
L 313.972123 168.32772 
L 311.987654 168.32772 
L 310.003184 168.32772 
L 308.018715 168.32772 
L 306.034245 168.32772 
L 304.049776 168.32772 
L 302.065306 168.32772 
L 300.080837 168.32772 
L 298.096367 168.32772 
L 296.111898 168.32772 
L 294.127428 168.32772 
L 292.142959 168.32772 
" clip-path="url(#p86eebd655c)" style="fill: none; stroke: #ff0000; stroke-width: 0.25; stroke-linecap: square"/>
   </g>
   <g id="line2d_81">
    <path d="M 229.95972 57.77136 
L 229.95972 59.60088 
L 229.95972 61.4304 
L 229.95972 63.25992 
L 229.95972 65.08944 
L 229.95972 66.91896 
L 229.95972 68.74848 
L 229.95972 70.578 
L 229.95972 72.40752 
L 229.95972 74.23704 
L 229.95972 76.06656 
L 229.95972 77.89608 
L 229.95972 79.7256 
L 229.95972 81.55512 
L 229.95972 83.38464 
L 229.95972 85.21416 
L 229.95972 87.04368 
L 229.95972 88.8732 
L 229.95972 90.70272 
L 229.95972 92.53224 
L 229.95972 94.36176 
L 229.95972 96.19128 
L 229.95972 98.0208 
L 229.95972 99.85032 
L 229.95972 101.67984 
L 229.95972 103.50936 
L 229.95972 105.33888 
L 229.95972 107.1684 
L 229.95972 108.99792 
L 229.95972 110.82744 
L 229.95972 112.65696 
" clip-path="url(#p86eebd655c)" style="fill: none; stroke: #ff0000; stroke-opacity: 0.2; stroke-width: 0.25; stroke-linecap: square"/>
   </g>
   <g id="line2d_82">
    <path d="M 229.95972 57.77136 
L 229.95972 59.60088 
L 229.95972 61.4304 
L 229.95972 63.25992 
L 229.95972 65.08944 
L 229.95972 66.91896 
L 229.95972 68.74848 
L 229.95972 70.578 
L 229.95972 72.40752 
L 229.95972 74.23704 
L 229.95972 76.06656 
L 229.95972 77.89608 
L 229.95972 79.7256 
L 229.95972 81.55512 
L 229.95972 83.38464 
L 229.95972 85.21416 
L 229.95972 87.04368 
L 229.95972 88.8732 
L 229.95972 90.70272 
L 229.95972 92.53224 
L 229.95972 94.36176 
L 229.95972 96.19128 
L 229.95972 98.0208 
L 229.95972 99.85032 
L 229.95972 101.67984 
L 229.95972 103.50936 
L 229.95972 105.33888 
L 229.95972 107.1684 
L 229.95972 108.99792 
L 229.95972 110.82744 
L 229.95972 112.65696 
" clip-path="url(#p86eebd655c)" style="fill: none; stroke: #ff0000; stroke-opacity: 0.4; stroke-width: 0.25; stroke-linecap: square"/>
   </g>
   <g id="line2d_83">
    <path d="M 229.95972 57.77136 
L 229.95972 59.60088 
L 229.95972 61.4304 
L 229.95972 63.25992 
L 229.95972 65.08944 
L 229.95972 66.91896 
L 229.95972 68.74848 
L 229.95972 70.578 
L 229.95972 72.40752 
L 229.95972 74.23704 
L 229.95972 76.06656 
L 229.95972 77.89608 
L 229.95972 79.7256 
L 229.95972 81.55512 
L 229.95972 83.38464 
L 229.95972 85.21416 
L 229.95972 87.04368 
L 229.95972 88.8732 
L 229.95972 90.70272 
L 229.95972 92.53224 
L 229.95972 94.36176 
L 229.95972 96.19128 
L 229.95972 98.0208 
L 229.95972 99.85032 
L 229.95972 101.67984 
L 229.95972 103.50936 
L 229.95972 105.33888 
L 229.95972 107.1684 
L 229.95972 108.99792 
L 229.95972 110.82744 
L 229.95972 112.65696 
" clip-path="url(#p86eebd655c)" style="fill: none; stroke: #ff0000; stroke-opacity: 0.6; stroke-width: 0.25; stroke-linecap: square"/>
   </g>
   <g id="line2d_84">
    <path d="M 229.95972 57.77136 
L 229.95972 59.60088 
L 229.95972 61.4304 
L 229.95972 63.25992 
L 229.95972 65.08944 
L 229.95972 66.91896 
L 229.95972 68.74848 
L 229.95972 70.578 
L 229.95972 72.40752 
L 229.95972 74.23704 
L 229.95972 76.06656 
L 229.95972 77.89608 
L 229.95972 79.7256 
L 229.95972 81.55512 
L 229.95972 83.38464 
L 229.95972 85.21416 
L 229.95972 87.04368 
L 229.95972 88.8732 
L 229.95972 90.70272 
L 229.95972 92.53224 
L 229.95972 94.36176 
L 229.95972 96.19128 
L 229.95972 98.0208 
L 229.95972 99.85032 
L 229.95972 101.67984 
L 229.95972 103.50936 
L 229.95972 105.33888 
L 229.95972 107.1684 
L 229.95972 108.99792 
L 229.95972 110.82744 
L 229.95972 112.65696 
" clip-path="url(#p86eebd655c)" style="fill: none; stroke: #ff0000; stroke-opacity: 0.8; stroke-width: 0.25; stroke-linecap: square"/>
   </g>
   <g id="line2d_85">
    <path d="M 229.95972 57.77136 
L 229.95972 59.60088 
L 229.95972 61.4304 
L 229.95972 63.25992 
L 229.95972 65.08944 
L 229.95972 66.91896 
L 229.95972 68.74848 
L 229.95972 70.578 
L 229.95972 72.40752 
L 229.95972 74.23704 
L 229.95972 76.06656 
L 229.95972 77.89608 
L 229.95972 79.7256 
L 229.95972 81.55512 
L 229.95972 83.38464 
L 229.95972 85.21416 
L 229.95972 87.04368 
L 229.95972 88.8732 
L 229.95972 90.70272 
L 229.95972 92.53224 
L 229.95972 94.36176 
L 229.95972 96.19128 
L 229.95972 98.0208 
L 229.95972 99.85032 
L 229.95972 101.67984 
L 229.95972 103.50936 
L 229.95972 105.33888 
L 229.95972 107.1684 
L 229.95972 108.99792 
L 229.95972 110.82744 
L 229.95972 112.65696 
" clip-path="url(#p86eebd655c)" style="fill: none; stroke: #ff0000; stroke-width: 0.25; stroke-linecap: square"/>
   </g>
   <g id="line2d_86">
    <path d="M 120.642956 180.72828 
L 122.627426 180.72828 
L 124.611895 180.72828 
L 126.596365 180.72828 
L 128.580834 180.72828 
L 130.565304 180.72828 
L 132.549773 180.72828 
L 134.534243 180.72828 
L 136.518712 180.72828 
L 138.503182 180.72828 
L 140.487651 180.72828 
L 142.472121 180.72828 
L 144.45659 180.72828 
L 146.44106 180.72828 
L 148.425529 180.72828 
L 150.409999 180.72828 
L 152.394468 180.72828 
L 154.378938 180.72828 
L 156.363407 180.72828 
L 158.347877 180.72828 
L 160.332346 180.72828 
L 162.316816 180.72828 
L 164.301285 180.72828 
L 166.285755 180.72828 
L 168.270224 180.72828 
L 170.254694 180.72828 
L 172.239163 180.72828 
L 174.223633 180.72828 
L 176.208102 180.72828 
L 178.192572 180.72828 
L 180.177041 180.72828 
" clip-path="url(#p86eebd655c)" style="fill: none; stroke: #ff0000; stroke-opacity: 0.2; stroke-width: 0.25; stroke-linecap: square"/>
   </g>
   <g id="line2d_87">
    <path d="M 120.642956 180.72828 
L 122.627426 180.72828 
L 124.611895 180.72828 
L 126.596365 180.72828 
L 128.580834 180.72828 
L 130.565304 180.72828 
L 132.549773 180.72828 
L 134.534243 180.72828 
L 136.518712 180.72828 
L 138.503182 180.72828 
L 140.487651 180.72828 
L 142.472121 180.72828 
L 144.45659 180.72828 
L 146.44106 180.72828 
L 148.425529 180.72828 
L 150.409999 180.72828 
L 152.394468 180.72828 
L 154.378938 180.72828 
L 156.363407 180.72828 
L 158.347877 180.72828 
L 160.332346 180.72828 
L 162.316816 180.72828 
L 164.301285 180.72828 
L 166.285755 180.72828 
L 168.270224 180.72828 
L 170.254694 180.72828 
L 172.239163 180.72828 
L 174.223633 180.72828 
L 176.208102 180.72828 
L 178.192572 180.72828 
L 180.177041 180.72828 
" clip-path="url(#p86eebd655c)" style="fill: none; stroke: #ff0000; stroke-opacity: 0.4; stroke-width: 0.25; stroke-linecap: square"/>
   </g>
   <g id="line2d_88">
    <path d="M 120.642956 180.72828 
L 122.627426 180.72828 
L 124.611895 180.72828 
L 126.596365 180.72828 
L 128.580834 180.72828 
L 130.565304 180.72828 
L 132.549773 180.72828 
L 134.534243 180.72828 
L 136.518712 180.72828 
L 138.503182 180.72828 
L 140.487651 180.72828 
L 142.472121 180.72828 
L 144.45659 180.72828 
L 146.44106 180.72828 
L 148.425529 180.72828 
L 150.409999 180.72828 
L 152.394468 180.72828 
L 154.378938 180.72828 
L 156.363407 180.72828 
L 158.347877 180.72828 
L 160.332346 180.72828 
L 162.316816 180.72828 
L 164.301285 180.72828 
L 166.285755 180.72828 
L 168.270224 180.72828 
L 170.254694 180.72828 
L 172.239163 180.72828 
L 174.223633 180.72828 
L 176.208102 180.72828 
L 178.192572 180.72828 
L 180.177041 180.72828 
" clip-path="url(#p86eebd655c)" style="fill: none; stroke: #ff0000; stroke-opacity: 0.6; stroke-width: 0.25; stroke-linecap: square"/>
   </g>
   <g id="line2d_89">
    <path d="M 120.642956 180.72828 
L 122.627426 180.72828 
L 124.611895 180.72828 
L 126.596365 180.72828 
L 128.580834 180.72828 
L 130.565304 180.72828 
L 132.549773 180.72828 
L 134.534243 180.72828 
L 136.518712 180.72828 
L 138.503182 180.72828 
L 140.487651 180.72828 
L 142.472121 180.72828 
L 144.45659 180.72828 
L 146.44106 180.72828 
L 148.425529 180.72828 
L 150.409999 180.72828 
L 152.394468 180.72828 
L 154.378938 180.72828 
L 156.363407 180.72828 
L 158.347877 180.72828 
L 160.332346 180.72828 
L 162.316816 180.72828 
L 164.301285 180.72828 
L 166.285755 180.72828 
L 168.270224 180.72828 
L 170.254694 180.72828 
L 172.239163 180.72828 
L 174.223633 180.72828 
L 176.208102 180.72828 
L 178.192572 180.72828 
L 180.177041 180.72828 
" clip-path="url(#p86eebd655c)" style="fill: none; stroke: #ff0000; stroke-opacity: 0.8; stroke-width: 0.25; stroke-linecap: square"/>
   </g>
   <g id="line2d_90">
    <path d="M 120.642956 180.72828 
L 122.627426 180.72828 
L 124.611895 180.72828 
L 126.596365 180.72828 
L 128.580834 180.72828 
L 130.565304 180.72828 
L 132.549773 180.72828 
L 134.534243 180.72828 
L 136.518712 180.72828 
L 138.503182 180.72828 
L 140.487651 180.72828 
L 142.472121 180.72828 
L 144.45659 180.72828 
L 146.44106 180.72828 
L 148.425529 180.72828 
L 150.409999 180.72828 
L 152.394468 180.72828 
L 154.378938 180.72828 
L 156.363407 180.72828 
L 158.347877 180.72828 
L 160.332346 180.72828 
L 162.316816 180.72828 
L 164.301285 180.72828 
L 166.285755 180.72828 
L 168.270224 180.72828 
L 170.254694 180.72828 
L 172.239163 180.72828 
L 174.223633 180.72828 
L 176.208102 180.72828 
L 178.192572 180.72828 
L 180.177041 180.72828 
" clip-path="url(#p86eebd655c)" style="fill: none; stroke: #ff0000; stroke-width: 0.25; stroke-linecap: square"/>
   </g>
   <g id="patch_15">
    <path d="M 103.104 307.584 
L 103.104 41.472 
" style="fill: none; stroke: #000000; stroke-width: 0.8; stroke-linejoin: miter; stroke-linecap: square"/>
   </g>
   <g id="patch_16">
    <path d="M 369.216 307.584 
L 369.216 41.472 
" style="fill: none; stroke: #000000; stroke-width: 0.8; stroke-linejoin: miter; stroke-linecap: square"/>
   </g>
   <g id="patch_17">
    <path d="M 103.104 307.584 
L 369.216 307.584 
" style="fill: none; stroke: #000000; stroke-width: 0.8; stroke-linejoin: miter; stroke-linecap: square"/>
   </g>
   <g id="patch_18">
    <path d="M 103.104 41.472 
L 369.216 41.472 
" style="fill: none; stroke: #000000; stroke-width: 0.8; stroke-linejoin: miter; stroke-linecap: square"/>
   </g>
   <g id="text_19">
    <!-- Time:   8 ms -->
    <g transform="translate(267.438262 54.7776) scale(0.1 -0.1)">
     <defs>
      <path id="DejaVuSans-54" d="M -19 4666 
L 3928 4666 
L 3928 4134 
L 2272 4134 
L 2272 0 
L 1638 0 
L 1638 4134 
L -19 4134 
L -19 4666 
z
" transform="scale(0.015625)"/>
      <path id="DejaVuSans-69" d="M 603 3500 
L 1178 3500 
L 1178 0 
L 603 0 
L 603 3500 
z
M 603 4863 
L 1178 4863 
L 1178 4134 
L 603 4134 
L 603 4863 
z
" transform="scale(0.015625)"/>
      <path id="DejaVuSans-6d" d="M 3328 2828 
Q 3544 3216 3844 3400 
Q 4144 3584 4550 3584 
Q 5097 3584 5394 3201 
Q 5691 2819 5691 2113 
L 5691 0 
L 5113 0 
L 5113 2094 
Q 5113 2597 4934 2840 
Q 4756 3084 4391 3084 
Q 3944 3084 3684 2787 
Q 3425 2491 3425 1978 
L 3425 0 
L 2847 0 
L 2847 2094 
Q 2847 2600 2669 2842 
Q 2491 3084 2119 3084 
Q 1678 3084 1418 2786 
Q 1159 2488 1159 1978 
L 1159 0 
L 581 0 
L 581 3500 
L 1159 3500 
L 1159 2956 
Q 1356 3278 1631 3431 
Q 1906 3584 2284 3584 
Q 2666 3584 2933 3390 
Q 3200 3197 3328 2828 
z
" transform="scale(0.015625)"/>
      <path id="DejaVuSans-65" d="M 3597 1894 
L 3597 1613 
L 953 1613 
Q 991 1019 1311 708 
Q 1631 397 2203 397 
Q 2534 397 2845 478 
Q 3156 559 3463 722 
L 3463 178 
Q 3153 47 2828 -22 
Q 2503 -91 2169 -91 
Q 1331 -91 842 396 
Q 353 884 353 1716 
Q 353 2575 817 3079 
Q 1281 3584 2069 3584 
Q 2775 3584 3186 3129 
Q 3597 2675 3597 1894 
z
M 3022 2063 
Q 3016 2534 2758 2815 
Q 2500 3097 2075 3097 
Q 1594 3097 1305 2825 
Q 1016 2553 972 2059 
L 3022 2063 
z
" transform="scale(0.015625)"/>
      <path id="DejaVuSans-3a" d="M 750 794 
L 1409 794 
L 1409 0 
L 750 0 
L 750 794 
z
M 750 3309 
L 1409 3309 
L 1409 2516 
L 750 2516 
L 750 3309 
z
" transform="scale(0.015625)"/>
      <path id="DejaVuSans-20" transform="scale(0.015625)"/>
      <path id="DejaVuSans-38" d="M 2034 2216 
Q 1584 2216 1326 1975 
Q 1069 1734 1069 1313 
Q 1069 891 1326 650 
Q 1584 409 2034 409 
Q 2484 409 2743 651 
Q 3003 894 3003 1313 
Q 3003 1734 2745 1975 
Q 2488 2216 2034 2216 
z
M 1403 2484 
Q 997 2584 770 2862 
Q 544 3141 544 3541 
Q 544 4100 942 4425 
Q 1341 4750 2034 4750 
Q 2731 4750 3128 4425 
Q 3525 4100 3525 3541 
Q 3525 3141 3298 2862 
Q 3072 2584 2669 2484 
Q 3125 2378 3379 2068 
Q 3634 1759 3634 1313 
Q 3634 634 3220 271 
Q 2806 -91 2034 -91 
Q 1263 -91 848 271 
Q 434 634 434 1313 
Q 434 1759 690 2068 
Q 947 2378 1403 2484 
z
M 1172 3481 
Q 1172 3119 1398 2916 
Q 1625 2713 2034 2713 
Q 2441 2713 2670 2916 
Q 2900 3119 2900 3481 
Q 2900 3844 2670 4047 
Q 2441 4250 2034 4250 
Q 1625 4250 1398 4047 
Q 1172 3844 1172 3481 
z
" transform="scale(0.015625)"/>
      <path id="DejaVuSans-73" d="M 2834 3397 
L 2834 2853 
Q 2591 2978 2328 3040 
Q 2066 3103 1784 3103 
Q 1356 3103 1142 2972 
Q 928 2841 928 2578 
Q 928 2378 1081 2264 
Q 1234 2150 1697 2047 
L 1894 2003 
Q 2506 1872 2764 1633 
Q 3022 1394 3022 966 
Q 3022 478 2636 193 
Q 2250 -91 1575 -91 
Q 1294 -91 989 -36 
Q 684 19 347 128 
L 347 722 
Q 666 556 975 473 
Q 1284 391 1588 391 
Q 1994 391 2212 530 
Q 2431 669 2431 922 
Q 2431 1156 2273 1281 
Q 2116 1406 1581 1522 
L 1381 1569 
Q 847 1681 609 1914 
Q 372 2147 372 2553 
Q 372 3047 722 3315 
Q 1072 3584 1716 3584 
Q 2034 3584 2315 3537 
Q 2597 3491 2834 3397 
z
" transform="scale(0.015625)"/>
     </defs>
     <use xlink:href="#DejaVuSans-54"/>
     <use xlink:href="#DejaVuSans-69" x="57.958984"/>
     <use xlink:href="#DejaVuSans-6d" x="85.742188"/>
     <use xlink:href="#DejaVuSans-65" x="183.154297"/>
     <use xlink:href="#DejaVuSans-3a" x="244.677734"/>
     <use xlink:href="#DejaVuSans-20" x="278.369141"/>
     <use xlink:href="#DejaVuSans-20" x="310.15625"/>
     <use xlink:href="#DejaVuSans-20" x="341.943359"/>
     <use xlink:href="#DejaVuSans-38" x="373.730469"/>
     <use xlink:href="#DejaVuSans-20" x="437.353516"/>
     <use xlink:href="#DejaVuSans-6d" x="469.140625"/>
     <use xlink:href="#DejaVuSans-73" x="566.552734"/>
    </g>
   </g>
  </g>
 </g>
 <defs>
  <clipPath id="p86eebd655c">
   <rect x="103.104" y="41.472" width="266.112" height="266.112"/>
  </clipPath>
 </defs>
</svg>
