<?xml version="1.0" encoding="utf-8" standalone="no"?>
<!DOCTYPE svg PUBLIC "-//W3C//DTD SVG 1.1//EN"
  "http://www.w3.org/Graphics/SVG/1.1/DTD/svg11.dtd">
<svg xmlns:xlink="http://www.w3.org/1999/xlink" width="460.8pt" height="345.6pt" viewBox="0 0 460.8 345.6" xmlns="http://www.w3.org/2000/svg" version="1.1">
 <metadata>
  <rdf:RDF xmlns:dc="http://purl.org/dc/elements/1.1/" xmlns:cc="http://creativecommons.org/ns#" xmlns:rdf="http://www.w3.org/1999/02/22-rdf-syntax-ns#">
   <cc:Work>
    <dc:type rdf:resource="http://purl.org/dc/dcmitype/StillImage"/>
    <dc:date>2024-01-22T16:49:11.339831</dc:date>
    <dc:format>image/svg+xml</dc:format>
    <dc:creator>
     <cc:Agent>
      <dc:title>Matplotlib v3.8.2, https://matplotlib.org/</dc:title>
     </cc:Agent>
    </dc:creator>
   </cc:Work>
  </rdf:RDF>
 </metadata>
 <defs>
  <style type="text/css">*{stroke-linejoin: round; stroke-linecap: butt}</style>
 </defs>
 <g id="figure_1">
  <g id="patch_1">
   <path d="M 0 345.6 
L 460.8 345.6 
L 460.8 0 
L 0 0 
z
" style="fill: #ffffff"/>
  </g>
  <g id="axes_1">
   <g id="patch_2">
    <path d="M 103.104 307.584 
L 369.216 307.584 
L 369.216 41.472 
L 103.104 41.472 
z
" style="fill: #ffffff"/>
   </g>
   <g id="patch_3">
    <path d="M 248.133683 175.280046 
L 247.566956 163.651447 
L 241.91878 163.926715 
L 242.485507 175.555313 
z
" clip-path="url(#pbc3c09608a)" style="fill: #00008b"/>
   </g>
   <g id="patch_4">
    <path d="M 237.277931 161.563413 
L 225.691268 162.701267 
L 226.24394 168.329075 
L 237.830603 167.191221 
z
" clip-path="url(#pbc3c09608a)" style="fill: #800000"/>
   </g>
   <g id="patch_5">
    <path d="M 231.362069 176.398991 
L 239.721411 184.502501 
L 243.657401 180.442249 
L 235.29806 172.338739 
z
" clip-path="url(#pbc3c09608a)" style="fill: #006400"/>
   </g>
   <g id="patch_6">
    <path d="M 224.345056 187.810969 
L 231.087018 197.302619 
L 235.697249 194.027952 
L 228.955287 184.536301 
z
" clip-path="url(#pbc3c09608a)" style="fill: #4b0082"/>
   </g>
   <g id="patch_7">
    <path d="M 245.382228 208.84278 
L 245.435491 197.200502 
L 239.78067 197.174631 
L 239.727407 208.816909 
z
" clip-path="url(#pbc3c09608a)" style="fill: #0000ff"/>
   </g>
   <g id="patch_8">
    <path d="M 268.713954 165.123086 
L 257.07164 165.167736 
L 257.093327 170.822575 
L 268.735642 170.777924 
z
" clip-path="url(#pbc3c09608a)" style="fill: #ff0000"/>
   </g>
   <g id="patch_9">
    <path d="M 227.574568 136.08388 
L 228.21187 147.708824 
L 233.858271 147.399278 
L 233.22097 135.774334 
z
" clip-path="url(#pbc3c09608a)" style="fill: #dbdc56"/>
   </g>
   <g id="patch_10">
    <path d="M 202.046377 183.414177 
L 213.688573 183.345288 
L 213.655113 177.690507 
L 202.012916 177.759396 
z
" clip-path="url(#pbc3c09608a)" style="fill: #9400d3"/>
   </g>
   <g id="patch_11">
    <path d="M 245.18772 245.880268 
L 245.188392 234.237868 
L 239.533512 234.237542 
L 239.53284 245.879942 
z
" clip-path="url(#pbc3c09608a)" style="fill: #1e90ff"/>
   </g>
   <g id="patch_12">
    <path d="M 302.011496 165.495592 
L 290.369117 165.473409 
L 290.358342 171.128278 
L 302.000721 171.150462 
z
" clip-path="url(#pbc3c09608a)" style="fill: #ff4500"/>
   </g>
   <g id="patch_13">
    <path d="M 227.13228 103.175714 
L 227.131538 114.818114 
L 232.786418 114.818475 
L 232.78716 103.176075 
z
" clip-path="url(#pbc3c09608a)" style="fill: #7cfc00"/>
   </g>
   <g id="patch_14">
    <path d="M 170.315989 183.550774 
L 181.958385 183.560898 
L 181.963302 177.90602 
L 170.320906 177.895897 
z
" clip-path="url(#pbc3c09608a)" style="fill: #ff00ff"/>
   </g>
   <g id="matplotlib.axis_1">
    <g id="xtick_1">
     <g id="line2d_1">
      <defs>
       <path id="m89daa17597" d="M 0 0 
L 0 3.5 
" style="stroke: #000000; stroke-width: 0.8"/>
      </defs>
      <g>
       <use xlink:href="#m89daa17597" x="103.104" y="307.584" style="stroke: #000000; stroke-width: 0.8"/>
      </g>
     </g>
     <g id="text_1">
      <!-- −40 -->
      <g transform="translate(92.551656 322.182437) scale(0.1 -0.1)">
       <defs>
        <path id="DejaVuSans-2212" d="M 678 2272 
L 4684 2272 
L 4684 1741 
L 678 1741 
L 678 2272 
z
" transform="scale(0.015625)"/>
        <path id="DejaVuSans-34" d="M 2419 4116 
L 825 1625 
L 2419 1625 
L 2419 4116 
z
M 2253 4666 
L 3047 4666 
L 3047 1625 
L 3713 1625 
L 3713 1100 
L 3047 1100 
L 3047 0 
L 2419 0 
L 2419 1100 
L 313 1100 
L 313 1709 
L 2253 4666 
z
" transform="scale(0.015625)"/>
        <path id="DejaVuSans-30" d="M 2034 4250 
Q 1547 4250 1301 3770 
Q 1056 3291 1056 2328 
Q 1056 1369 1301 889 
Q 1547 409 2034 409 
Q 2525 409 2770 889 
Q 3016 1369 3016 2328 
Q 3016 3291 2770 3770 
Q 2525 4250 2034 4250 
z
M 2034 4750 
Q 2819 4750 3233 4129 
Q 3647 3509 3647 2328 
Q 3647 1150 3233 529 
Q 2819 -91 2034 -91 
Q 1250 -91 836 529 
Q 422 1150 422 2328 
Q 422 3509 836 4129 
Q 1250 4750 2034 4750 
z
" transform="scale(0.015625)"/>
       </defs>
       <use xlink:href="#DejaVuSans-2212"/>
       <use xlink:href="#DejaVuSans-34" x="83.789062"/>
       <use xlink:href="#DejaVuSans-30" x="147.412109"/>
      </g>
     </g>
    </g>
    <g id="xtick_2">
     <g id="line2d_2">
      <g>
       <use xlink:href="#m89daa17597" x="136.368" y="307.584" style="stroke: #000000; stroke-width: 0.8"/>
      </g>
     </g>
     <g id="text_2">
      <!-- −30 -->
      <g transform="translate(125.815656 322.182437) scale(0.1 -0.1)">
       <defs>
        <path id="DejaVuSans-33" d="M 2597 2516 
Q 3050 2419 3304 2112 
Q 3559 1806 3559 1356 
Q 3559 666 3084 287 
Q 2609 -91 1734 -91 
Q 1441 -91 1130 -33 
Q 819 25 488 141 
L 488 750 
Q 750 597 1062 519 
Q 1375 441 1716 441 
Q 2309 441 2620 675 
Q 2931 909 2931 1356 
Q 2931 1769 2642 2001 
Q 2353 2234 1838 2234 
L 1294 2234 
L 1294 2753 
L 1863 2753 
Q 2328 2753 2575 2939 
Q 2822 3125 2822 3475 
Q 2822 3834 2567 4026 
Q 2313 4219 1838 4219 
Q 1578 4219 1281 4162 
Q 984 4106 628 3988 
L 628 4550 
Q 988 4650 1302 4700 
Q 1616 4750 1894 4750 
Q 2613 4750 3031 4423 
Q 3450 4097 3450 3541 
Q 3450 3153 3228 2886 
Q 3006 2619 2597 2516 
z
" transform="scale(0.015625)"/>
       </defs>
       <use xlink:href="#DejaVuSans-2212"/>
       <use xlink:href="#DejaVuSans-33" x="83.789062"/>
       <use xlink:href="#DejaVuSans-30" x="147.412109"/>
      </g>
     </g>
    </g>
    <g id="xtick_3">
     <g id="line2d_3">
      <g>
       <use xlink:href="#m89daa17597" x="169.632" y="307.584" style="stroke: #000000; stroke-width: 0.8"/>
      </g>
     </g>
     <g id="text_3">
      <!-- −20 -->
      <g transform="translate(159.079656 322.182437) scale(0.1 -0.1)">
       <defs>
        <path id="DejaVuSans-32" d="M 1228 531 
L 3431 531 
L 3431 0 
L 469 0 
L 469 531 
Q 828 903 1448 1529 
Q 2069 2156 2228 2338 
Q 2531 2678 2651 2914 
Q 2772 3150 2772 3378 
Q 2772 3750 2511 3984 
Q 2250 4219 1831 4219 
Q 1534 4219 1204 4116 
Q 875 4013 500 3803 
L 500 4441 
Q 881 4594 1212 4672 
Q 1544 4750 1819 4750 
Q 2544 4750 2975 4387 
Q 3406 4025 3406 3419 
Q 3406 3131 3298 2873 
Q 3191 2616 2906 2266 
Q 2828 2175 2409 1742 
Q 1991 1309 1228 531 
z
" transform="scale(0.015625)"/>
       </defs>
       <use xlink:href="#DejaVuSans-2212"/>
       <use xlink:href="#DejaVuSans-32" x="83.789062"/>
       <use xlink:href="#DejaVuSans-30" x="147.412109"/>
      </g>
     </g>
    </g>
    <g id="xtick_4">
     <g id="line2d_4">
      <g>
       <use xlink:href="#m89daa17597" x="202.896" y="307.584" style="stroke: #000000; stroke-width: 0.8"/>
      </g>
     </g>
     <g id="text_4">
      <!-- −10 -->
      <g transform="translate(192.343656 322.182437) scale(0.1 -0.1)">
       <defs>
        <path id="DejaVuSans-31" d="M 794 531 
L 1825 531 
L 1825 4091 
L 703 3866 
L 703 4441 
L 1819 4666 
L 2450 4666 
L 2450 531 
L 3481 531 
L 3481 0 
L 794 0 
L 794 531 
z
" transform="scale(0.015625)"/>
       </defs>
       <use xlink:href="#DejaVuSans-2212"/>
       <use xlink:href="#DejaVuSans-31" x="83.789062"/>
       <use xlink:href="#DejaVuSans-30" x="147.412109"/>
      </g>
     </g>
    </g>
    <g id="xtick_5">
     <g id="line2d_5">
      <g>
       <use xlink:href="#m89daa17597" x="236.16" y="307.584" style="stroke: #000000; stroke-width: 0.8"/>
      </g>
     </g>
     <g id="text_5">
      <!-- 0 -->
      <g transform="translate(232.97875 322.182437) scale(0.1 -0.1)">
       <use xlink:href="#DejaVuSans-30"/>
      </g>
     </g>
    </g>
    <g id="xtick_6">
     <g id="line2d_6">
      <g>
       <use xlink:href="#m89daa17597" x="269.424" y="307.584" style="stroke: #000000; stroke-width: 0.8"/>
      </g>
     </g>
     <g id="text_6">
      <!-- 10 -->
      <g transform="translate(263.0615 322.182437) scale(0.1 -0.1)">
       <use xlink:href="#DejaVuSans-31"/>
       <use xlink:href="#DejaVuSans-30" x="63.623047"/>
      </g>
     </g>
    </g>
    <g id="xtick_7">
     <g id="line2d_7">
      <g>
       <use xlink:href="#m89daa17597" x="302.688" y="307.584" style="stroke: #000000; stroke-width: 0.8"/>
      </g>
     </g>
     <g id="text_7">
      <!-- 20 -->
      <g transform="translate(296.3255 322.182437) scale(0.1 -0.1)">
       <use xlink:href="#DejaVuSans-32"/>
       <use xlink:href="#DejaVuSans-30" x="63.623047"/>
      </g>
     </g>
    </g>
    <g id="xtick_8">
     <g id="line2d_8">
      <g>
       <use xlink:href="#m89daa17597" x="335.952" y="307.584" style="stroke: #000000; stroke-width: 0.8"/>
      </g>
     </g>
     <g id="text_8">
      <!-- 30 -->
      <g transform="translate(329.5895 322.182437) scale(0.1 -0.1)">
       <use xlink:href="#DejaVuSans-33"/>
       <use xlink:href="#DejaVuSans-30" x="63.623047"/>
      </g>
     </g>
    </g>
    <g id="xtick_9">
     <g id="line2d_9">
      <g>
       <use xlink:href="#m89daa17597" x="369.216" y="307.584" style="stroke: #000000; stroke-width: 0.8"/>
      </g>
     </g>
     <g id="text_9">
      <!-- 40 -->
      <g transform="translate(362.8535 322.182437) scale(0.1 -0.1)">
       <use xlink:href="#DejaVuSans-34"/>
       <use xlink:href="#DejaVuSans-30" x="63.623047"/>
      </g>
     </g>
    </g>
   </g>
   <g id="matplotlib.axis_2">
    <g id="ytick_1">
     <g id="line2d_10">
      <defs>
       <path id="mbc3f06af29" d="M 0 0 
L -3.5 0 
" style="stroke: #000000; stroke-width: 0.8"/>
      </defs>
      <g>
       <use xlink:href="#mbc3f06af29" x="103.104" y="307.584" style="stroke: #000000; stroke-width: 0.8"/>
      </g>
     </g>
     <g id="text_10">
      <!-- −40 -->
      <g transform="translate(74.999313 311.383219) scale(0.1 -0.1)">
       <use xlink:href="#DejaVuSans-2212"/>
       <use xlink:href="#DejaVuSans-34" x="83.789062"/>
       <use xlink:href="#DejaVuSans-30" x="147.412109"/>
      </g>
     </g>
    </g>
    <g id="ytick_2">
     <g id="line2d_11">
      <g>
       <use xlink:href="#mbc3f06af29" x="103.104" y="274.32" style="stroke: #000000; stroke-width: 0.8"/>
      </g>
     </g>
     <g id="text_11">
      <!-- −30 -->
      <g transform="translate(74.999313 278.119219) scale(0.1 -0.1)">
       <use xlink:href="#DejaVuSans-2212"/>
       <use xlink:href="#DejaVuSans-33" x="83.789062"/>
       <use xlink:href="#DejaVuSans-30" x="147.412109"/>
      </g>
     </g>
    </g>
    <g id="ytick_3">
     <g id="line2d_12">
      <g>
       <use xlink:href="#mbc3f06af29" x="103.104" y="241.056" style="stroke: #000000; stroke-width: 0.8"/>
      </g>
     </g>
     <g id="text_12">
      <!-- −20 -->
      <g transform="translate(74.999313 244.855219) scale(0.1 -0.1)">
       <use xlink:href="#DejaVuSans-2212"/>
       <use xlink:href="#DejaVuSans-32" x="83.789062"/>
       <use xlink:href="#DejaVuSans-30" x="147.412109"/>
      </g>
     </g>
    </g>
    <g id="ytick_4">
     <g id="line2d_13">
      <g>
       <use xlink:href="#mbc3f06af29" x="103.104" y="207.792" style="stroke: #000000; stroke-width: 0.8"/>
      </g>
     </g>
     <g id="text_13">
      <!-- −10 -->
      <g transform="translate(74.999313 211.591219) scale(0.1 -0.1)">
       <use xlink:href="#DejaVuSans-2212"/>
       <use xlink:href="#DejaVuSans-31" x="83.789062"/>
       <use xlink:href="#DejaVuSans-30" x="147.412109"/>
      </g>
     </g>
    </g>
    <g id="ytick_5">
     <g id="line2d_14">
      <g>
       <use xlink:href="#mbc3f06af29" x="103.104" y="174.528" style="stroke: #000000; stroke-width: 0.8"/>
      </g>
     </g>
     <g id="text_14">
      <!-- 0 -->
      <g transform="translate(89.7415 178.327219) scale(0.1 -0.1)">
       <use xlink:href="#DejaVuSans-30"/>
      </g>
     </g>
    </g>
    <g id="ytick_6">
     <g id="line2d_15">
      <g>
       <use xlink:href="#mbc3f06af29" x="103.104" y="141.264" style="stroke: #000000; stroke-width: 0.8"/>
      </g>
     </g>
     <g id="text_15">
      <!-- 10 -->
      <g transform="translate(83.379 145.063219) scale(0.1 -0.1)">
       <use xlink:href="#DejaVuSans-31"/>
       <use xlink:href="#DejaVuSans-30" x="63.623047"/>
      </g>
     </g>
    </g>
    <g id="ytick_7">
     <g id="line2d_16">
      <g>
       <use xlink:href="#mbc3f06af29" x="103.104" y="108" style="stroke: #000000; stroke-width: 0.8"/>
      </g>
     </g>
     <g id="text_16">
      <!-- 20 -->
      <g transform="translate(83.379 111.799219) scale(0.1 -0.1)">
       <use xlink:href="#DejaVuSans-32"/>
       <use xlink:href="#DejaVuSans-30" x="63.623047"/>
      </g>
     </g>
    </g>
    <g id="ytick_8">
     <g id="line2d_17">
      <g>
       <use xlink:href="#mbc3f06af29" x="103.104" y="74.736" style="stroke: #000000; stroke-width: 0.8"/>
      </g>
     </g>
     <g id="text_17">
      <!-- 30 -->
      <g transform="translate(83.379 78.535219) scale(0.1 -0.1)">
       <use xlink:href="#DejaVuSans-33"/>
       <use xlink:href="#DejaVuSans-30" x="63.623047"/>
      </g>
     </g>
    </g>
    <g id="ytick_9">
     <g id="line2d_18">
      <g>
       <use xlink:href="#mbc3f06af29" x="103.104" y="41.472" style="stroke: #000000; stroke-width: 0.8"/>
      </g>
     </g>
     <g id="text_18">
      <!-- 40 -->
      <g transform="translate(83.379 45.271219) scale(0.1 -0.1)">
       <use xlink:href="#DejaVuSans-34"/>
       <use xlink:href="#DejaVuSans-30" x="63.623047"/>
      </g>
     </g>
    </g>
   </g>
   <g id="line2d_19">
    <path d="M 251.1288 346.6 
L 251.1288 189.4968 
" clip-path="url(#pbc3c09608a)" style="fill: none; stroke: #000000; stroke-width: 0.25; stroke-linecap: square"/>
   </g>
   <g id="line2d_20">
    <path d="M 251.1288 189.4968 
L 417.4488 189.4968 
" clip-path="url(#pbc3c09608a)" style="fill: none; stroke: #000000; stroke-width: 0.25; stroke-linecap: square"/>
   </g>
   <g id="line2d_21">
    <path d="M 417.4488 159.5592 
L 251.1288 159.5592 
" clip-path="url(#pbc3c09608a)" style="fill: none; stroke: #000000; stroke-width: 0.25; stroke-linecap: square"/>
   </g>
   <g id="line2d_22">
    <path d="M 251.1288 159.5592 
L 251.1288 -1 
" clip-path="url(#pbc3c09608a)" style="fill: none; stroke: #000000; stroke-width: 0.25; stroke-linecap: square"/>
   </g>
   <g id="line2d_23">
    <path d="M 221.1912 -1 
L 221.1912 159.5592 
" clip-path="url(#pbc3c09608a)" style="fill: none; stroke: #000000; stroke-width: 0.25; stroke-linecap: square"/>
   </g>
   <g id="line2d_24">
    <path d="M 221.1912 159.5592 
L 54.8712 159.5592 
" clip-path="url(#pbc3c09608a)" style="fill: none; stroke: #000000; stroke-width: 0.25; stroke-linecap: square"/>
   </g>
   <g id="line2d_25">
    <path d="M 54.8712 189.4968 
L 221.1912 189.4968 
" clip-path="url(#pbc3c09608a)" style="fill: none; stroke: #000000; stroke-width: 0.25; stroke-linecap: square"/>
   </g>
   <g id="line2d_26">
    <path d="M 221.1912 189.4968 
L 221.1912 346.6 
" clip-path="url(#pbc3c09608a)" style="fill: none; stroke: #000000; stroke-width: 0.25; stroke-linecap: square"/>
   </g>
   <g id="line2d_27">
    <path d="M 251.1288 174.528 
L 417.4488 174.528 
" clip-path="url(#pbc3c09608a)" style="fill: none; stroke-dasharray: 0.925,0.4; stroke-dashoffset: 0; stroke: #000000; stroke-width: 0.25"/>
   </g>
   <g id="line2d_28">
    <path d="M 236.16 159.5592 
L 236.16 -1 
" clip-path="url(#pbc3c09608a)" style="fill: none; stroke-dasharray: 0.925,0.4; stroke-dashoffset: 0; stroke: #000000; stroke-width: 0.25"/>
   </g>
   <g id="line2d_29">
    <path d="M 221.1912 174.528 
L 54.8712 174.528 
" clip-path="url(#pbc3c09608a)" style="fill: none; stroke-dasharray: 0.925,0.4; stroke-dashoffset: 0; stroke: #000000; stroke-width: 0.25"/>
   </g>
   <g id="line2d_30">
    <path d="M 236.16 189.4968 
L 236.16 346.6 
" clip-path="url(#pbc3c09608a)" style="fill: none; stroke-dasharray: 0.925,0.4; stroke-dashoffset: 0; stroke: #000000; stroke-width: 0.25"/>
   </g>
   <g id="line2d_31">
    <path d="M 245.551229 171.551324 
L 245.024399 169.603875 
L 244.287938 167.727527 
L 243.54273 165.857229 
L 242.898135 163.95308 
L 242.388688 162.012107 
L 242.077128 160.033896 
L 241.987284 158.037798 
L 241.908681 156.04579 
L 241.902001 154.056623 
L 241.925148 152.071664 
L 241.966799 150.090806 
L 242.018291 148.113694 
L 242.073221 146.139914 
L 242.127081 144.169079 
L 242.176921 142.200853 
L 242.221024 140.234956 
L 242.258607 138.271152 
L 242.289556 136.309231 
L 242.314209 134.349002 
L 242.333176 132.390283 
L 242.347214 130.4329 
L 242.35712 128.476682 
L 242.363678 126.521467 
L 242.367609 124.567096 
L 242.369555 122.613419 
L 242.370067 120.660296 
L 242.3696 118.707594 
L 242.368525 116.755191 
L 242.367118 114.802973 
L 242.365357 112.850838 
" clip-path="url(#pbc3c09608a)" style="fill: none; stroke: #ff0000; stroke-opacity: 0.2; stroke-width: 0.25; stroke-linecap: square"/>
   </g>
   <g id="line2d_32">
    <path d="M 245.551229 171.551324 
L 245.025012 169.603709 
L 244.288804 167.727284 
L 243.543967 165.856879 
L 242.899881 163.95261 
L 242.390813 162.011598 
L 242.079489 160.033415 
L 241.989639 158.037382 
L 241.911193 156.04543 
L 241.904495 154.056323 
L 241.927618 152.071422 
L 241.969244 150.090618 
L 242.020716 148.113558 
L 242.075631 146.13983 
L 242.129483 144.169044 
L 242.179318 142.200867 
L 242.223417 140.235019 
L 242.260994 138.271263 
L 242.291932 136.30939 
L 242.316564 134.34921 
L 242.335499 132.390541 
L 242.349489 130.43321 
L 242.359331 128.477045 
L 242.365805 126.521885 
L 242.369634 124.567572 
L 242.371457 122.613956 
L 242.371824 120.660897 
L 242.371194 118.708262 
L 242.369938 116.755929 
L 242.368344 114.803785 
L 242.366459 112.851728 
" clip-path="url(#pbc3c09608a)" style="fill: none; stroke: #ff0000; stroke-opacity: 0.4; stroke-width: 0.25; stroke-linecap: square"/>
   </g>
   <g id="line2d_33">
    <path d="M 245.551229 171.551324 
L 245.027881 169.602936 
L 244.291922 167.726458 
L 243.547964 165.855782 
L 242.904872 163.951282 
L 242.396639 162.010174 
L 242.085931 160.032023 
L 241.996312 158.036113 
L 241.91805 156.044285 
L 241.911189 154.055304 
L 241.934064 152.070521 
L 241.975378 150.089826 
L 242.026492 148.11287 
L 242.081016 146.139239 
L 242.134453 144.168547 
L 242.183861 142.200462 
L 242.227525 140.234704 
L 242.264664 138.271037 
L 242.295165 136.309253 
L 242.319363 134.349162 
L 242.33787 132.390583 
L 242.351438 130.433341 
L 242.360866 128.477267 
L 242.366934 126.522199 
L 242.370363 124.567979 
L 242.371793 122.614457 
L 242.371774 120.661494 
L 242.370764 118.708956 
L 242.369133 116.756723 
L 242.367175 114.804681 
L 242.364984 112.852728 
" clip-path="url(#pbc3c09608a)" style="fill: none; stroke: #ff0000; stroke-opacity: 0.6; stroke-width: 0.25; stroke-linecap: square"/>
   </g>
   <g id="line2d_34">
    <path d="M 245.551229 171.551324 
L 245.028226 169.602844 
L 244.291961 167.726519 
L 243.54814 165.855849 
L 242.905303 163.951343 
L 242.397196 162.010291 
L 242.086439 160.032241 
L 241.996441 158.036439 
L 241.918011 156.044704 
L 241.910708 154.055802 
L 241.933149 152.071085 
L 241.974053 150.090445 
L 242.024793 148.113535 
L 242.07899 146.139946 
L 242.132154 144.169292 
L 242.181347 142.201241 
L 242.224856 140.235515 
L 242.261899 138.271877 
L 242.292362 136.310121 
L 242.31658 134.350055 
L 242.335159 132.391498 
L 242.348849 130.434277 
L 242.358444 128.478223 
L 242.364721 126.523173 
L 242.368397 124.56897 
L 242.370107 122.615465 
L 242.370395 120.662519 
L 242.369714 118.709998 
L 242.368435 116.757783 
L 242.366845 114.80576 
L 242.365077 112.853827 
" clip-path="url(#pbc3c09608a)" style="fill: none; stroke: #ff0000; stroke-opacity: 0.8; stroke-width: 0.25; stroke-linecap: square"/>
   </g>
   <g id="line2d_35">
    <path d="M 245.551229 171.551324 
L 245.026232 169.60338 
L 244.290329 167.726924 
L 243.546756 165.856175 
L 242.904316 163.951557 
L 242.396555 162.010438 
L 242.086066 160.032368 
L 241.996127 158.036581 
L 241.91778 156.044855 
L 241.910337 154.055961 
L 241.932644 152.071242 
L 241.973432 150.090595 
L 242.024082 148.113673 
L 242.07822 146.140068 
L 242.131358 144.169394 
L 242.180557 142.20132 
L 242.224103 140.235569 
L 242.261211 138.271904 
L 242.291762 136.310117 
L 242.316087 134.350018 
L 242.334788 132.391427 
L 242.348611 130.43417 
L 242.358346 128.478077 
L 242.364765 126.522988 
L 242.368582 124.568745 
L 242.37043 122.6152 
L 242.37085 120.662212 
L 242.370295 118.709652 
L 242.369133 116.757397 
L 242.367659 114.805334 
L 242.366031 112.853363 
" clip-path="url(#pbc3c09608a)" style="fill: none; stroke: #ff0000; stroke-width: 0.25; stroke-linecap: square"/>
   </g>
   <g id="line2d_36">
    <path d="M 233.663948 164.330304 
L 231.761831 164.949005 
L 229.865028 165.580718 
L 227.946874 166.140328 
L 226.012075 166.6345 
L 224.062484 167.060717 
L 222.100386 167.417778 
L 220.128652 167.708022 
L 218.150208 167.936872 
L 216.167603 168.111651 
L 214.182808 168.240457 
L 212.197213 168.33134 
L 210.211719 168.391804 
L 208.226862 168.428556 
L 206.242917 168.447392 
L 204.259999 168.453189 
L 202.27812 168.449945 
L 200.297237 168.440843 
L 198.317281 168.428349 
L 196.338171 168.414304 
L 194.359823 168.400022 
L 192.382156 168.386388 
L 190.405089 168.373944 
L 188.428545 168.362963 
L 186.452449 168.353518 
L 184.47673 168.345536 
L 182.501316 168.338843 
L 180.526138 168.333198 
L 178.551132 168.328324 
L 176.576236 168.323924 
L 174.601392 168.319767 
" clip-path="url(#pbc3c09608a)" style="fill: none; stroke: #ff0000; stroke-opacity: 0.2; stroke-width: 0.25; stroke-linecap: square"/>
   </g>
   <g id="line2d_37">
    <path d="M 233.663948 164.330304 
L 231.761882 164.949162 
L 229.865049 165.580784 
L 227.946822 166.140142 
L 226.011962 166.634071 
L 224.062323 167.06006 
L 222.10019 167.416918 
L 220.128434 167.706995 
L 218.14998 167.935721 
L 216.167372 168.110424 
L 214.18258 168.239202 
L 212.196992 168.330104 
L 210.211507 168.390631 
L 208.226658 168.427488 
L 206.242724 168.44647 
L 204.259815 168.452452 
L 202.277946 168.449428 
L 200.297073 168.440581 
L 198.317127 168.428374 
L 196.338028 168.414646 
L 194.359691 168.40071 
L 192.382036 168.38745 
L 190.404982 168.375405 
L 188.428452 168.364848 
L 186.452373 168.355852 
L 184.47667 168.348342 
L 182.501273 168.342143 
L 180.526114 168.337015 
L 178.551128 168.332676 
L 176.576253 168.328829 
L 174.60143 168.325211 
" clip-path="url(#pbc3c09608a)" style="fill: none; stroke: #ff0000; stroke-opacity: 0.4; stroke-width: 0.25; stroke-linecap: square"/>
   </g>
   <g id="line2d_38">
    <path d="M 233.663948 164.330304 
L 231.761146 164.946896 
L 229.864192 165.578146 
L 227.945842 166.137059 
L 226.010901 166.630639 
L 224.061217 167.056372 
L 222.09907 167.413065 
L 220.127319 167.703064 
L 218.148885 167.931791 
L 216.166305 168.106563 
L 214.181545 168.235464 
L 212.195991 168.326525 
L 210.21054 168.387238 
L 208.225725 168.424295 
L 206.241824 168.443482 
L 204.258949 168.449666 
L 202.277114 168.446833 
L 200.296276 168.438162 
L 198.316366 168.426109 
L 196.337304 168.41251 
L 194.359005 168.398677 
L 192.381389 168.385491 
L 190.404376 168.37349 
L 188.427888 168.362949 
L 186.45185 168.353941 
L 184.47619 168.346395 
L 182.500837 168.340137 
L 180.525723 168.33493 
L 178.550782 168.330498 
L 176.575951 168.326545 
L 174.601174 168.322798 
" clip-path="url(#pbc3c09608a)" style="fill: none; stroke: #ff0000; stroke-opacity: 0.6; stroke-width: 0.25; stroke-linecap: square"/>
   </g>
   <g id="line2d_39">
    <path d="M 233.663948 164.330304 
L 231.760659 164.945391 
L 229.863703 165.576627 
L 227.945334 166.135462 
L 226.010404 166.629054 
L 224.060749 167.05488 
L 222.098643 167.411739 
L 220.126939 167.701966 
L 218.148551 167.930966 
L 216.166014 168.106043 
L 214.181292 168.235264 
L 212.195771 168.326647 
L 210.210349 168.387672 
L 208.22556 168.425024 
L 206.241683 168.444481 
L 204.258832 168.450905 
L 202.277019 168.44828 
L 200.296204 168.439781 
L 198.316317 168.427866 
L 196.337278 168.414369 
L 194.359004 168.400604 
L 192.381413 168.387453 
L 190.404426 168.37546 
L 188.427964 168.3649 
L 186.451952 168.35585 
L 184.476319 168.348243 
L 182.500993 168.34191 
L 180.525905 168.336618 
L 178.550991 168.332093 
L 176.576188 168.328043 
L 174.601439 168.324186 
" clip-path="url(#pbc3c09608a)" style="fill: none; stroke: #ff0000; stroke-opacity: 0.8; stroke-width: 0.25; stroke-linecap: square"/>
   </g>
   <g id="line2d_40">
    <path d="M 233.663948 164.330304 
L 231.760935 164.946244 
L 229.864087 165.577809 
L 227.945773 166.136836 
L 226.010886 166.630612 
L 224.061264 167.056607 
L 222.099179 167.413615 
L 220.127487 167.703964 
L 218.149101 167.933057 
L 216.16656 168.108191 
L 214.18183 168.237431 
L 212.196297 168.328796 
L 210.210861 168.389767 
L 208.226058 168.427028 
L 206.242166 168.446361 
L 204.259299 168.452633 
L 202.277472 168.449829 
L 200.296641 168.441131 
L 198.31674 168.429 
L 196.337686 168.415276 
L 194.359396 168.401276 
L 192.381789 168.387889 
L 190.404784 168.375661 
L 188.428305 168.364872 
L 186.452276 168.355602 
L 184.476625 168.347786 
L 182.50128 168.341258 
L 180.526174 168.335784 
L 178.551241 168.331091 
L 176.57642 168.326884 
L 174.601651 168.322874 
" clip-path="url(#pbc3c09608a)" style="fill: none; stroke: #ff0000; stroke-width: 0.25; stroke-linecap: square"/>
   </g>
   <g id="line2d_41">
    <path d="M 235.778117 177.34327 
L 237.508833 178.422069 
L 239.348494 179.300276 
L 241.273948 179.965507 
L 243.259836 180.41077 
L 245.280516 180.631652 
L 247.310223 180.626219 
L 249.329612 180.460247 
L 251.351022 180.404541 
L 253.368705 180.425107 
L 255.380845 180.492258 
L 257.388374 180.565918 
L 259.392315 180.62589 
L 261.392893 180.672725 
L 263.390322 180.707696 
L 265.384822 180.732399 
L 267.376623 180.748616 
L 269.365966 180.758128 
L 271.353096 180.762534 
L 273.33826 180.763297 
L 275.321697 180.761613 
L 277.303637 180.758435 
L 279.284302 180.754456 
L 281.263895 180.750156 
L 283.242612 180.745824 
L 285.220629 180.741618 
L 287.198113 180.737592 
L 289.175214 180.733728 
L 291.152067 180.729925 
L 293.128785 180.726103 
L 295.105455 180.7222 
" clip-path="url(#pbc3c09608a)" style="fill: none; stroke: #ff0000; stroke-opacity: 0.2; stroke-width: 0.25; stroke-linecap: square"/>
   </g>
   <g id="line2d_42">
    <path d="M 235.778117 177.34327 
L 237.509003 178.421796 
L 239.348834 179.299656 
L 241.274402 179.964581 
L 243.260375 180.40952 
L 245.281113 180.630018 
L 247.310839 180.624146 
L 249.330233 180.457954 
L 251.351666 180.402135 
L 253.369377 180.422628 
L 255.381546 180.489772 
L 257.389102 180.563482 
L 259.393067 180.623535 
L 261.393669 180.670484 
L 263.391119 180.705604 
L 265.385637 180.730495 
L 267.377453 180.74694 
L 269.366807 180.756717 
L 271.353944 180.761426 
L 273.339109 180.762527 
L 275.322541 180.761213 
L 277.304471 180.758435 
L 279.285116 180.754883 
L 281.264684 180.751036 
L 283.243366 180.747183 
L 285.221341 180.74348 
L 287.198773 180.739982 
L 289.175814 180.736668 
L 291.152599 180.733441 
L 293.129242 180.730218 
L 295.105831 180.726935 
" clip-path="url(#pbc3c09608a)" style="fill: none; stroke: #ff0000; stroke-opacity: 0.4; stroke-width: 0.25; stroke-linecap: square"/>
   </g>
   <g id="line2d_43">
    <path d="M 235.778117 177.34327 
L 237.510318 178.419682 
L 239.35115 179.295442 
L 241.276642 179.96059 
L 243.262397 180.406499 
L 245.283048 180.627807 
L 247.312778 180.622565 
L 249.332191 180.456585 
L 251.353633 180.401045 
L 253.371343 180.421798 
L 255.383504 180.489202 
L 257.39105 180.563169 
L 259.395007 180.623448 
L 261.3956 180.670599 
L 263.39304 180.705899 
L 265.387545 180.730953 
L 267.379345 180.747548 
L 269.368679 180.757462 
L 271.355792 180.762295 
L 273.340926 180.763509 
L 275.324322 180.762295 
L 277.306209 180.759604 
L 279.286804 180.756126 
L 281.266314 180.752341 
L 283.244931 180.74854 
L 285.222832 180.744882 
L 287.200183 180.741423 
L 289.177135 180.738147 
L 291.153822 180.734959 
L 293.130361 180.731781 
L 295.106843 180.72855 
" clip-path="url(#pbc3c09608a)" style="fill: none; stroke: #ff0000; stroke-opacity: 0.6; stroke-width: 0.25; stroke-linecap: square"/>
   </g>
   <g id="line2d_44">
    <path d="M 235.778117 177.34327 
L 237.510808 178.418894 
L 239.351979 179.29394 
L 241.277393 179.959312 
L 243.263022 180.405786 
L 245.283607 180.627685 
L 247.313338 180.623072 
L 249.332764 180.457266 
L 251.354211 180.401958 
L 253.371917 180.422908 
L 255.384068 180.490493 
L 257.391604 180.564618 
L 259.395551 180.62501 
L 261.396134 180.672232 
L 263.393561 180.707569 
L 265.388051 180.73263 
L 267.379832 180.749206 
L 269.369143 180.759078 
L 271.356227 180.763849 
L 273.341327 180.764978 
L 275.324683 180.76366 
L 277.306524 180.760845 
L 279.287066 180.757225 
L 281.266517 180.753281 
L 283.245066 180.749306 
L 285.222893 180.745462 
L 287.200162 180.74181 
L 289.177024 180.738335 
L 291.153615 180.734949 
L 293.130051 180.731575 
L 295.106427 180.728154 
" clip-path="url(#pbc3c09608a)" style="fill: none; stroke: #ff0000; stroke-opacity: 0.8; stroke-width: 0.25; stroke-linecap: square"/>
   </g>
   <g id="line2d_45">
    <path d="M 235.778117 177.34327 
L 237.509735 178.42062 
L 239.350067 179.297438 
L 241.275536 179.962674 
L 243.26133 180.408459 
L 245.28198 180.629903 
L 247.311727 180.62509 
L 249.331156 180.459084 
L 251.352621 180.403646 
L 253.370351 180.424457 
L 255.382531 180.491911 
L 257.390094 180.565909 
L 259.394069 180.626153 
L 261.394676 180.673212 
L 263.392126 180.708375 
L 265.386636 180.733257 
L 267.378432 180.74965 
L 269.367755 180.75934 
L 271.354846 180.763928 
L 273.339949 180.764876 
L 275.323303 180.763377 
L 277.305135 180.760381 
L 279.285664 180.756581 
L 281.265095 180.752457 
L 283.243618 180.748306 
L 285.221412 180.74429 
L 287.198642 180.740471 
L 289.175458 180.736836 
L 291.151997 180.733301 
L 293.128376 180.729788 
L 295.10469 180.726241 
" clip-path="url(#pbc3c09608a)" style="fill: none; stroke: #ff0000; stroke-width: 0.25; stroke-linecap: square"/>
   </g>
   <g id="line2d_46">
    <path d="M 229.36008 189.303049 
L 230.022606 190.918865 
L 230.527635 192.592285 
L 230.86998 194.308246 
L 231.044784 196.051259 
L 231.05124 197.805109 
L 230.96641 199.559113 
L 230.873712 201.314974 
L 230.772886 203.072679 
L 230.667975 204.832456 
L 230.563847 206.594584 
L 230.464588 208.359273 
L 230.373117 210.126618 
L 230.291217 211.896604 
L 230.219715 213.669135 
L 230.1587 215.444059 
L 230.107738 217.221196 
L 230.066053 219.000357 
L 230.032669 220.78135 
L 230.006527 222.563989 
L 229.986563 224.348097 
L 229.971756 226.133502 
L 229.961157 227.92004 
L 229.953912 229.707554 
L 229.949268 231.49589 
L 229.946578 233.284903 
L 229.945302 235.074452 
L 229.945002 236.8644 
L 229.945357 238.654622 
L 229.946301 240.445 
L 229.948083 242.235434 
" clip-path="url(#pbc3c09608a)" style="fill: none; stroke: #ff0000; stroke-opacity: 0.2; stroke-width: 0.25; stroke-linecap: square"/>
   </g>
   <g id="line2d_47">
    <path d="M 229.36008 189.303049 
L 230.022394 190.918952 
L 230.527192 192.592438 
L 230.869313 194.308437 
L 231.04405 196.051447 
L 231.050466 197.805287 
L 230.965585 199.559277 
L 230.872884 201.315126 
L 230.772066 203.072821 
L 230.667178 204.83259 
L 230.56309 206.594713 
L 230.463888 208.3594 
L 230.37249 210.126746 
L 230.290679 211.896738 
L 230.219282 213.66928 
L 230.158389 215.444219 
L 230.107564 217.221378 
L 230.06603 219.000565 
L 230.032814 220.781591 
L 230.006854 222.56427 
L 229.987088 224.348424 
L 229.972493 226.133883 
L 229.962123 227.920483 
L 229.955123 229.708066 
L 229.950741 231.496481 
L 229.94833 233.285581 
L 229.947348 235.075224 
L 229.947357 236.865277 
L 229.948029 238.65561 
L 229.949275 240.446107 
L 229.951291 242.236666 
" clip-path="url(#pbc3c09608a)" style="fill: none; stroke: #ff0000; stroke-opacity: 0.4; stroke-width: 0.25; stroke-linecap: square"/>
   </g>
   <g id="line2d_48">
    <path d="M 229.36008 189.303049 
L 230.020282 190.919816 
L 230.523305 192.59383 
L 230.864204 194.310061 
L 231.04005 196.052943 
L 231.047816 197.806757 
L 230.963006 199.560728 
L 230.870412 201.316556 
L 230.7697 203.07423 
L 230.664917 204.833976 
L 230.560935 206.596076 
L 230.461838 208.36074 
L 230.370546 210.128064 
L 230.288838 211.898035 
L 230.217542 213.670556 
L 230.156746 215.445478 
L 230.106015 217.222623 
L 230.064571 219.001799 
L 230.03144 220.782818 
L 230.005562 222.565495 
L 229.985875 224.349653 
L 229.971356 226.135121 
L 229.96106 227.921737 
L 229.954134 229.709343 
L 229.949826 231.497788 
L 229.947491 233.286924 
L 229.946589 235.076612 
L 229.946678 236.866715 
L 229.947429 238.657107 
L 229.948731 240.447668 
L 229.950738 242.238297 
" clip-path="url(#pbc3c09608a)" style="fill: none; stroke: #ff0000; stroke-opacity: 0.6; stroke-width: 0.25; stroke-linecap: square"/>
   </g>
   <g id="line2d_49">
    <path d="M 229.36008 189.303049 
L 230.019639 190.920079 
L 230.522193 192.594227 
L 230.862868 194.310489 
L 231.039286 196.053296 
L 231.047681 197.807085 
L 230.962993 199.561034 
L 230.870548 201.316841 
L 230.769974 203.07449 
L 230.665321 204.834209 
L 230.561458 206.59628 
L 230.462471 208.360914 
L 230.371278 210.128206 
L 230.289659 211.898146 
L 230.218439 213.670636 
L 230.157707 215.445528 
L 230.107029 217.222643 
L 230.065624 219.001794 
L 230.032522 220.782791 
L 230.006662 222.565449 
L 229.986982 224.349593 
L 229.972462 226.135052 
L 229.962156 227.921664 
L 229.955215 229.709272 
L 229.950887 231.497725 
L 229.948531 233.286875 
L 229.947605 235.076583 
L 229.947669 236.866714 
L 229.94839 238.657139 
L 229.949641 240.447739 
L 229.951536 242.238411 
" clip-path="url(#pbc3c09608a)" style="fill: none; stroke: #ff0000; stroke-opacity: 0.8; stroke-width: 0.25; stroke-linecap: square"/>
   </g>
   <g id="line2d_50">
    <path d="M 229.36008 189.303049 
L 230.021152 190.91946 
L 230.524883 192.59325 
L 230.866243 194.309368 
L 231.041531 196.052276 
L 231.048725 197.806055 
L 230.963851 199.559979 
L 230.871257 201.315758 
L 230.770539 203.073378 
L 230.665747 204.833068 
L 230.561752 206.59511 
L 230.462638 208.359716 
L 230.371324 210.126983 
L 230.289588 211.896899 
L 230.218256 213.669368 
L 230.157415 215.444243 
L 230.10663 217.221344 
L 230.065123 219.000485 
L 230.03192 220.781476 
L 230.005962 222.564134 
L 229.986189 224.348281 
L 229.971579 226.133749 
L 229.961188 227.920376 
L 229.954167 229.708004 
L 229.949767 231.496482 
L 229.947344 233.285664 
L 229.946359 235.075409 
L 229.94637 236.865582 
L 229.94704 238.656055 
L 229.948225 240.446709 
L 229.950001 242.237438 
" clip-path="url(#pbc3c09608a)" style="fill: none; stroke: #ff0000; stroke-width: 0.25; stroke-linecap: square"/>
   </g>
   <g id="line2d_51">
    <path d="M 242.590968 204.975228 
L 242.584471 203.008693 
L 242.557161 201.039935 
L 242.497438 199.069092 
L 242.243459 197.110516 
L 241.9106 195.160064 
L 241.550118 193.210314 
L 241.183012 191.257085 
L 241.137867 189.26502 
L 241.57903 187.316265 
L 242.23367 185.422604 
L 243.094159 183.607219 
L 244.15136 181.89296 
L 245.259865 180.20579 
L 245.946792 178.302964 
L 246.089048 176.28124 
L 246.004295 174.253289 
L 245.695395 172.244846 
L 245.165378 170.281263 
L 244.462421 168.37133 
L 243.841662 166.432177 
L 243.294606 164.470428 
L 242.845607 162.483793 
L 242.543618 160.469751 
L 242.373852 158.440649 
L 242.275773 156.407196 
L 242.22127 154.37243 
L 242.198036 152.337326 
L 242.195332 150.302287 
L 242.203792 148.267392 
L 242.216186 146.232579 
" clip-path="url(#pbc3c09608a)" style="fill: none; stroke: #ff0000; stroke-opacity: 0.2; stroke-width: 0.25; stroke-linecap: square"/>
   </g>
   <g id="line2d_52">
    <path d="M 242.590968 204.975228 
L 242.583425 203.008697 
L 242.556152 201.040065 
L 242.496618 199.069466 
L 242.241927 197.11136 
L 241.908368 195.161528 
L 241.547573 193.212461 
L 241.180764 191.259922 
L 241.136689 189.268683 
L 241.578558 187.321077 
L 242.232046 185.428158 
L 243.091652 183.613672 
L 244.148238 181.900561 
L 245.265297 180.220734 
L 245.965276 178.324287 
L 246.114885 176.304719 
L 246.039829 174.278103 
L 245.739381 172.270196 
L 245.218107 170.306194 
L 244.537085 168.390329 
L 243.935033 166.447258 
L 243.400703 164.483921 
L 242.950039 162.499492 
L 242.638126 160.48868 
L 242.454881 158.462366 
L 242.341468 156.43124 
L 242.271919 154.398395 
L 242.234371 152.364918 
L 242.218237 150.331317 
L 242.214073 148.297761 
L 242.213439 146.264253 
" clip-path="url(#pbc3c09608a)" style="fill: none; stroke: #ff0000; stroke-opacity: 0.4; stroke-width: 0.25; stroke-linecap: square"/>
   </g>
   <g id="line2d_53">
    <path d="M 242.590968 204.975228 
L 242.583545 203.008697 
L 242.557001 201.040064 
L 242.498266 199.06946 
L 242.244163 197.111303 
L 241.911047 195.161427 
L 241.550479 193.212355 
L 241.183575 191.259874 
L 241.138553 189.268696 
L 241.579245 187.320866 
L 242.233205 185.428152 
L 243.093115 183.613848 
L 244.150281 181.901129 
L 245.263307 180.218651 
L 245.956731 178.319808 
L 246.103439 176.300026 
L 246.024691 174.27354 
L 245.721455 172.266031 
L 245.194595 170.303493 
L 244.509949 168.388892 
L 243.904865 166.446739 
L 243.3694 164.4837 
L 242.921813 162.498582 
L 242.615641 160.486918 
L 242.437793 158.460172 
L 242.328385 156.428888 
L 242.26277 154.395983 
L 242.228947 152.362519 
L 242.21627 150.328977 
L 242.215305 148.295505 
L 242.217674 146.262086 
" clip-path="url(#pbc3c09608a)" style="fill: none; stroke: #ff0000; stroke-opacity: 0.6; stroke-width: 0.25; stroke-linecap: square"/>
   </g>
   <g id="line2d_54">
    <path d="M 242.590968 204.975228 
L 242.581875 203.008704 
L 242.554217 201.040128 
L 242.494484 199.069635 
L 242.240092 197.111637 
L 241.90726 195.161874 
L 241.547548 193.212841 
L 241.182203 191.260302 
L 241.139376 189.269341 
L 241.58109 187.322047 
L 242.235783 185.429935 
L 243.096188 183.616266 
L 244.153709 181.904228 
L 245.271511 180.225433 
L 245.971518 178.3295 
L 246.121623 176.310472 
L 246.046579 174.284388 
L 245.747311 172.276873 
L 245.224312 170.31394 
L 244.549197 168.396636 
L 243.952024 166.452718 
L 243.422549 164.48873 
L 242.976777 162.503859 
L 242.669155 160.49304 
L 242.486084 158.467348 
L 242.368713 156.437066 
L 242.294897 154.404975 
L 242.252945 152.372176 
L 242.23237 150.339199 
L 242.223779 148.306236 
L 242.218725 146.27331 
" clip-path="url(#pbc3c09608a)" style="fill: none; stroke: #ff0000; stroke-opacity: 0.8; stroke-width: 0.25; stroke-linecap: square"/>
   </g>
   <g id="line2d_55">
    <path d="M 242.590968 204.975228 
L 242.581449 203.008706 
L 242.553759 201.040132 
L 242.493991 199.069645 
L 242.239757 197.111635 
L 241.907078 195.16186 
L 241.54739 193.212845 
L 241.181851 191.260372 
L 241.137975 189.269472 
L 241.580735 187.322465 
L 242.234672 185.430153 
L 243.094934 183.61649 
L 244.151976 181.904243 
L 245.266931 180.223648 
L 245.963414 178.3265 
L 246.111418 176.307388 
L 246.034571 174.281431 
L 245.732175 172.274429 
L 245.209001 170.311574 
L 244.53073 168.395405 
L 243.930957 166.452302 
L 243.400113 164.488696 
L 242.955992 162.50347 
L 242.650875 160.492288 
L 242.470333 158.466395 
L 242.355504 156.435996 
L 242.284377 154.403843 
L 242.245143 152.371026 
L 242.227234 150.338062 
L 242.221221 148.305129 
L 242.21867 146.272239 
" clip-path="url(#pbc3c09608a)" style="fill: none; stroke: #ff0000; stroke-width: 0.25; stroke-linecap: square"/>
   </g>
   <g id="line2d_56">
    <path d="M 264.915822 167.91385 
L 262.9035 167.96781 
L 260.888152 168.078055 
L 258.872741 168.264228 
L 256.862659 168.547457 
L 254.856566 168.8963 
L 252.823787 169.09722 
L 250.775548 169.036233 
L 248.741543 168.740976 
L 246.701796 168.44563 
L 244.638114 168.344222 
L 242.575458 168.52704 
L 240.594789 169.144468 
L 238.704961 170.008288 
L 236.923325 171.082419 
L 235.274335 172.353832 
L 233.77998 173.805916 
L 232.459228 175.419267 
L 231.330063 177.173495 
L 230.409041 179.046422 
L 229.709431 181.013425 
L 229.239702 183.047868 
L 229.006032 185.122662 
L 229.011368 187.210225 
L 229.13021 189.293802 
L 229.213204 191.378412 
L 229.319289 193.461382 
L 229.442839 195.542934 
L 229.576873 197.623522 
L 229.721372 199.703226 
L 229.885236 201.781428 
" clip-path="url(#pbc3c09608a)" style="fill: none; stroke: #ff0000; stroke-opacity: 0.2; stroke-width: 0.25; stroke-linecap: square"/>
   </g>
   <g id="line2d_57">
    <path d="M 264.915822 167.91385 
L 262.903607 167.971659 
L 260.88836 168.084844 
L 258.873101 168.273816 
L 256.863219 168.559456 
L 254.857304 168.91023 
L 252.824531 169.11284 
L 250.776093 169.053509 
L 248.741747 168.759689 
L 246.701807 168.464998 
L 244.638204 168.361077 
L 242.574896 168.536203 
L 240.589242 169.137135 
L 238.696302 169.993781 
L 236.910912 171.061282 
L 235.257468 172.32649 
L 233.758074 173.77294 
L 232.432045 175.38151 
L 231.297193 177.131599 
L 230.369341 179.000674 
L 229.661924 180.964393 
L 229.184054 182.996446 
L 228.942234 185.069813 
L 228.940002 187.156893 
L 229.064606 189.239662 
L 229.154233 191.323546 
L 229.269748 193.405579 
L 229.403787 195.48605 
L 229.548509 197.565479 
L 229.701117 199.644142 
L 229.864834 201.721873 
" clip-path="url(#pbc3c09608a)" style="fill: none; stroke: #ff0000; stroke-opacity: 0.4; stroke-width: 0.25; stroke-linecap: square"/>
   </g>
   <g id="line2d_58">
    <path d="M 264.915822 167.91385 
L 262.903624 167.972237 
L 260.888483 168.085992 
L 258.873432 168.275645 
L 256.863874 168.562064 
L 254.85839 168.91371 
L 252.826052 169.117318 
L 250.777968 169.059234 
L 248.743838 168.767008 
L 246.70411 168.474257 
L 244.640932 168.372293 
L 242.578337 168.549275 
L 240.593751 169.151735 
L 238.702471 170.010587 
L 236.919121 171.080284 
L 235.268035 172.34752 
L 233.771285 173.795768 
L 232.44825 175.40594 
L 231.316913 177.157499 
L 230.393038 179.027777 
L 229.689524 180.99216 
L 229.215104 183.024301 
L 228.97583 185.097253 
L 228.974176 187.183624 
L 229.099761 189.26562 
L 229.190122 191.348759 
L 229.30616 193.430048 
L 229.440389 195.50979 
L 229.584954 197.588511 
L 229.736872 199.666504 
L 229.899056 201.743632 
" clip-path="url(#pbc3c09608a)" style="fill: none; stroke: #ff0000; stroke-opacity: 0.6; stroke-width: 0.25; stroke-linecap: square"/>
   </g>
   <g id="line2d_59">
    <path d="M 264.915822 167.91385 
L 262.903627 167.972369 
L 260.888498 168.085818 
L 258.873456 168.274976 
L 256.863876 168.560685 
L 254.858331 168.911404 
L 252.826003 169.113899 
L 250.77809 169.054595 
L 248.744286 168.761165 
L 246.704876 168.467349 
L 244.641951 168.363825 
L 242.579335 168.538418 
L 240.593815 169.137143 
L 238.701751 169.993812 
L 236.917566 171.061761 
L 235.265466 172.327391 
L 233.767406 173.774056 
L 232.44309 175.382991 
L 231.309825 177.133154 
L 230.382663 179.001681 
L 229.674576 180.964318 
L 229.195299 182.995235 
L 228.951398 185.067578 
L 228.946713 187.153891 
L 229.071568 189.235892 
L 229.16174 191.319014 
L 229.278229 193.400263 
L 229.413182 195.47995 
L 229.558581 197.558608 
L 229.710934 199.636565 
L 229.872056 201.71377 
" clip-path="url(#pbc3c09608a)" style="fill: none; stroke: #ff0000; stroke-opacity: 0.8; stroke-width: 0.25; stroke-linecap: square"/>
   </g>
   <g id="line2d_60">
    <path d="M 264.915822 167.91385 
L 262.903641 167.97283 
L 260.888582 168.086669 
L 258.873675 168.276268 
L 256.864301 168.562459 
L 254.859023 168.913687 
L 252.826964 169.116736 
L 250.779278 169.058118 
L 248.745624 168.76559 
L 246.706354 168.472928 
L 244.643701 168.370482 
L 242.581504 168.545943 
L 240.596485 169.145089 
L 238.705016 170.002175 
L 236.921383 171.070308 
L 235.26979 172.33597 
L 233.772041 173.782401 
L 232.447639 175.390766 
L 231.31409 177.140285 
L 230.38657 179.008203 
L 229.678045 180.970273 
L 229.198002 183.000614 
L 228.952836 185.072424 
L 228.945905 187.158351 
L 229.069869 189.240028 
L 229.159192 191.322812 
L 229.274926 193.403732 
L 229.409069 195.483101 
L 229.553555 197.561453 
L 229.704696 199.639128 
L 229.863908 201.716107 
" clip-path="url(#pbc3c09608a)" style="fill: none; stroke: #ff0000; stroke-width: 0.25; stroke-linecap: square"/>
   </g>
   <g id="line2d_61">
    <path d="M 230.598916 139.975209 
L 230.715252 141.741657 
L 230.832027 143.504712 
L 230.942982 145.264737 
L 231.037948 147.02227 
L 231.102961 148.777734 
L 231.119293 150.530914 
L 231.062038 152.279864 
L 231.023407 154.02602 
L 230.851639 155.76093 
L 230.476214 157.460293 
L 229.787169 159.05527 
L 228.950485 160.574913 
L 227.974704 162.006185 
L 226.869001 163.33667 
L 225.643365 164.554644 
L 224.309767 165.650493 
L 222.879686 166.614254 
L 221.365986 167.437745 
L 219.782172 168.113967 
L 218.142328 168.637218 
L 216.460928 169.002748 
L 214.753029 169.208097 
L 213.033724 169.250643 
L 211.315807 169.175396 
L 209.598371 169.093891 
L 207.881653 169.000897 
L 206.16555 168.8986 
L 204.449896 168.789807 
L 202.734714 168.674161 
L 201.020678 168.542679 
" clip-path="url(#pbc3c09608a)" style="fill: none; stroke: #ff0000; stroke-opacity: 0.2; stroke-width: 0.25; stroke-linecap: square"/>
   </g>
   <g id="line2d_62">
    <path d="M 230.598916 139.975209 
L 230.715671 141.741629 
L 230.832575 143.504728 
L 230.943797 145.264841 
L 231.039202 147.022502 
L 231.104861 148.778141 
L 231.122074 150.531556 
L 231.065962 152.280828 
L 231.028239 154.027331 
L 230.857614 155.76272 
L 230.483584 157.4628 
L 229.795212 159.058543 
L 228.959332 160.579162 
L 227.983624 162.01109 
L 226.877679 163.342064 
L 225.652316 164.561105 
L 224.317489 165.656382 
L 222.88637 166.619693 
L 221.371793 167.4429 
L 219.787261 168.119107 
L 218.146783 168.642592 
L 216.464927 169.009272 
L 214.756501 169.216136 
L 213.036553 169.261542 
L 211.317875 169.187087 
L 209.599737 169.10492 
L 207.882383 169.010015 
L 206.165705 168.904933 
L 204.449485 168.793346 
L 202.73364 168.676472 
L 201.018537 168.549279 
" clip-path="url(#pbc3c09608a)" style="fill: none; stroke: #ff0000; stroke-opacity: 0.4; stroke-width: 0.25; stroke-linecap: square"/>
   </g>
   <g id="line2d_63">
    <path d="M 230.598916 139.975209 
L 230.715616 141.741633 
L 230.832043 143.50472 
L 230.942745 145.264781 
L 231.037607 147.022347 
L 231.102719 148.777846 
L 231.119402 150.531069 
L 231.062795 152.280095 
L 231.02391 154.02631 
L 230.852099 155.761288 
L 230.476898 157.460783 
L 229.78773 159.055803 
L 228.950943 160.575498 
L 227.975462 162.0071 
L 226.869822 163.337781 
L 225.643464 164.555194 
L 224.310109 165.651536 
L 222.880123 166.615673 
L 221.366416 167.439446 
L 219.782517 168.115844 
L 218.142557 168.639244 
L 216.461036 169.004978 
L 214.752859 169.20941 
L 213.033371 169.251549 
L 211.315195 169.178236 
L 209.597599 169.09631 
L 207.880825 169.001025 
L 206.164751 168.895238 
L 204.449135 168.78305 
L 202.733821 168.666717 
L 201.018969 168.543898 
" clip-path="url(#pbc3c09608a)" style="fill: none; stroke: #ff0000; stroke-opacity: 0.6; stroke-width: 0.25; stroke-linecap: square"/>
   </g>
   <g id="line2d_64">
    <path d="M 230.598916 139.975209 
L 230.716482 141.741575 
L 230.833474 143.50464 
L 230.944836 145.264687 
L 231.040442 147.022256 
L 231.106367 148.777781 
L 231.123912 150.531068 
L 231.06819 152.280207 
L 231.029224 154.02652 
L 230.857157 155.761587 
L 230.481457 157.461102 
L 229.792191 159.056234 
L 228.955227 160.576009 
L 227.979697 162.007779 
L 226.87384 163.338514 
L 225.646881 164.555592 
L 224.313303 165.651978 
L 222.883044 166.616087 
L 221.369049 167.439788 
L 219.784862 168.116089 
L 218.144635 168.639424 
L 216.462912 169.005355 
L 214.754521 169.210058 
L 213.034809 169.25318 
L 211.31633 169.181117 
L 209.598477 169.09929 
L 207.881487 169.00331 
L 206.165231 168.896357 
L 204.449438 168.782979 
L 202.733891 168.666329 
L 201.018584 168.546358 
" clip-path="url(#pbc3c09608a)" style="fill: none; stroke: #ff0000; stroke-opacity: 0.8; stroke-width: 0.25; stroke-linecap: square"/>
   </g>
   <g id="line2d_65">
    <path d="M 230.598916 139.975209 
L 230.71642 141.741579 
L 230.833232 143.504648 
L 230.944374 145.264694 
L 231.039723 147.022255 
L 231.105352 148.777763 
L 231.122562 150.531018 
L 231.066466 152.280105 
L 231.026917 154.02636 
L 230.854197 155.761312 
L 230.477766 157.460609 
L 229.787874 159.055406 
L 228.950332 160.57479 
L 227.974149 162.006034 
L 226.867862 163.336319 
L 225.6409 164.553288 
L 224.307115 165.6493 
L 222.876749 166.613105 
L 221.362721 167.436573 
L 219.778563 168.112724 
L 218.138402 168.635977 
L 216.456778 169.001949 
L 214.748531 169.207088 
L 213.02892 169.250528 
L 211.310511 169.179008 
L 209.592735 169.097547 
L 207.875825 169.001839 
L 206.159649 168.895119 
L 204.443936 168.781988 
L 202.728459 168.665726 
L 201.013188 168.546623 
" clip-path="url(#pbc3c09608a)" style="fill: none; stroke: #ff0000; stroke-width: 0.25; stroke-linecap: square"/>
   </g>
   <g id="line2d_66">
    <path d="M 205.878966 180.556664 
L 207.850748 180.554114 
L 209.82285 180.564701 
L 211.795147 180.595833 
L 213.767287 180.655464 
L 215.738524 180.753011 
L 217.707489 180.899221 
L 219.671928 181.105817 
L 221.628466 181.384802 
L 223.573634 181.741314 
L 225.503034 182.181514 
L 227.412467 182.707434 
L 229.299305 183.314914 
L 231.164336 183.99159 
L 233.052407 184.606976 
L 234.996726 185.019239 
L 236.982866 185.124233 
L 238.954363 184.855537 
L 240.885118 184.373626 
L 242.762035 183.71247 
L 244.666958 183.137372 
L 246.59083 182.629896 
L 248.530853 182.189001 
L 250.484893 181.816102 
L 252.450177 181.509078 
L 254.423701 181.261797 
L 256.40277 181.065169 
L 258.385281 180.908443 
L 260.369751 180.780212 
L 262.355192 180.669057 
L 264.340972 180.564655 
" clip-path="url(#pbc3c09608a)" style="fill: none; stroke: #ff0000; stroke-opacity: 0.2; stroke-width: 0.25; stroke-linecap: square"/>
   </g>
   <g id="line2d_67">
    <path d="M 205.878966 180.556664 
L 207.850748 180.554243 
L 209.822838 180.564861 
L 211.795113 180.59604 
L 213.767221 180.655741 
L 215.738418 180.753388 
L 217.707332 180.899737 
L 219.671708 181.106523 
L 221.628165 181.385762 
L 223.573228 181.742611 
L 225.502488 182.183245 
L 227.411732 182.709715 
L 229.29832 183.317874 
L 231.163031 183.995367 
L 233.05077 184.611734 
L 234.994864 185.025052 
L 236.98096 185.131099 
L 238.952589 184.863189 
L 240.883379 184.381264 
L 242.76003 183.719205 
L 244.664845 183.143548 
L 246.588611 182.635407 
L 248.528531 182.193721 
L 250.482483 181.819927 
L 252.447707 181.511953 
L 254.421206 181.263722 
L 256.400284 181.066197 
L 258.382834 180.908664 
L 260.367363 180.779737 
L 262.352877 180.667988 
L 264.338718 180.562714 
" clip-path="url(#pbc3c09608a)" style="fill: none; stroke: #ff0000; stroke-opacity: 0.4; stroke-width: 0.25; stroke-linecap: square"/>
   </g>
   <g id="line2d_68">
    <path d="M 205.878966 180.556664 
L 207.850743 180.551472 
L 209.822626 180.558289 
L 211.794538 180.585074 
L 213.766176 180.639956 
L 215.736842 180.732521 
L 217.705213 180.873708 
L 219.669064 181.075462 
L 221.625023 181.35005 
L 223.569566 181.702902 
L 225.498192 182.140503 
L 227.406531 182.665241 
L 229.291725 183.273316 
L 231.154307 183.952712 
L 233.03945 184.572749 
L 234.98126 184.990645 
L 236.965853 185.102101 
L 238.93687 184.837989 
L 240.867784 184.360755 
L 242.744381 183.701271 
L 244.649969 183.130984 
L 246.574208 182.627478 
L 248.514333 182.189608 
L 250.46826 181.818767 
L 252.433289 181.51293 
L 254.406491 181.266147 
L 256.385221 181.069548 
L 258.367406 180.912589 
L 260.35157 180.784026 
L 262.336724 180.672548 
L 264.32219 180.567154 
" clip-path="url(#pbc3c09608a)" style="fill: none; stroke: #ff0000; stroke-opacity: 0.6; stroke-width: 0.25; stroke-linecap: square"/>
   </g>
   <g id="line2d_69">
    <path d="M 205.878966 180.556664 
L 207.850746 180.55319 
L 209.822745 180.561906 
L 211.79486 180.590879 
L 213.766766 180.648157 
L 215.737741 180.743244 
L 217.706438 180.886994 
L 219.670616 181.091265 
L 221.626889 181.368238 
L 223.571742 181.723272 
L 225.500696 182.162754 
L 227.409426 182.688961 
L 229.295147 183.297966 
L 231.15849 183.977596 
L 233.044583 184.597283 
L 234.987412 185.014142 
L 236.972902 185.123 
L 238.944424 184.857277 
L 240.875625 184.378421 
L 242.751642 183.715418 
L 244.656804 183.141707 
L 246.580754 182.634978 
L 248.520738 182.194205 
L 250.474675 181.820883 
L 252.439849 181.513061 
L 254.4133 181.264818 
L 256.39235 181.067269 
L 258.374896 180.90981 
L 260.359442 180.781108 
L 262.344988 180.669733 
L 264.330845 180.564526 
" clip-path="url(#pbc3c09608a)" style="fill: none; stroke: #ff0000; stroke-opacity: 0.8; stroke-width: 0.25; stroke-linecap: square"/>
   </g>
   <g id="line2d_70">
    <path d="M 205.878966 180.556664 
L 207.850745 180.552342 
L 209.822662 180.559821 
L 211.794633 180.58734 
L 213.766349 180.642976 
L 215.737105 180.736269 
L 217.705576 180.878114 
L 219.669538 181.080422 
L 221.625621 181.355435 
L 223.570307 181.708591 
L 225.499104 182.146358 
L 227.407657 182.671102 
L 229.293135 183.278982 
L 231.156109 183.957906 
L 233.041609 184.577501 
L 234.983739 184.994822 
L 236.968606 185.104578 
L 238.939769 184.840315 
L 240.87092 184.363413 
L 242.746977 183.701985 
L 244.652365 183.13061 
L 246.576454 182.6261 
L 248.516485 182.187372 
L 250.470372 181.815852 
L 252.435409 181.509539 
L 254.408651 181.262487 
L 256.387443 181.065811 
L 258.369697 180.908926 
L 260.353935 180.780538 
L 262.339161 180.669277 
L 264.324695 180.564069 
" clip-path="url(#pbc3c09608a)" style="fill: none; stroke: #ff0000; stroke-width: 0.25; stroke-linecap: square"/>
   </g>
   <g id="line2d_71">
    <path d="M 242.36028 241.8876 
L 242.360518 240.058905 
L 242.360512 238.231629 
L 242.360222 236.405777 
L 242.359557 234.581356 
L 242.358418 232.758371 
L 242.356696 230.936829 
L 242.354276 229.116734 
L 242.351037 227.298091 
L 242.346862 225.480903 
L 242.341641 223.665173 
L 242.335287 221.8509 
L 242.327752 220.038082 
L 242.319047 218.226714 
L 242.309269 216.416786 
L 242.298631 214.608285 
L 242.287508 212.801189 
L 242.276475 210.995472 
L 242.266364 209.191097 
L 242.258322 207.388025 
L 242.253873 205.586206 
L 242.254982 203.785596 
L 242.26412 201.986158 
L 242.28432 200.187887 
L 242.319221 198.390833 
L 242.373086 196.59514 
L 242.45079 194.801102 
L 242.557752 193.009226 
L 242.699795 191.220304 
L 242.882915 189.435473 
L 243.112921 187.656253 
" clip-path="url(#pbc3c09608a)" style="fill: none; stroke: #ff0000; stroke-opacity: 0.2; stroke-width: 0.25; stroke-linecap: square"/>
   </g>
   <g id="line2d_72">
    <path d="M 242.36028 241.8876 
L 242.360564 240.058905 
L 242.360643 238.231359 
L 242.3605 236.404967 
L 242.36006 234.579735 
L 242.35924 232.755667 
L 242.357947 230.932769 
L 242.356082 229.111045 
L 242.353538 227.2905 
L 242.350207 225.471136 
L 242.345985 223.652955 
L 242.340782 221.835958 
L 242.334533 220.020143 
L 242.327216 218.205505 
L 242.318875 216.392038 
L 242.309644 214.579729 
L 242.299786 212.768565 
L 242.289728 210.958521 
L 242.280109 209.149571 
L 242.271836 207.34168 
L 242.266141 205.534808 
L 242.264639 203.728912 
L 242.269394 201.923954 
L 242.282974 200.119914 
L 242.308495 198.316806 
L 242.349645 196.514709 
L 242.410673 194.713807 
L 242.496326 192.914436 
L 242.611709 191.117138 
L 242.762038 189.322706 
L 242.950111 187.531974 
" clip-path="url(#pbc3c09608a)" style="fill: none; stroke: #ff0000; stroke-opacity: 0.4; stroke-width: 0.25; stroke-linecap: square"/>
   </g>
   <g id="line2d_73">
    <path d="M 242.36028 241.8876 
L 242.360601 240.058905 
L 242.360685 238.231434 
L 242.360507 236.405192 
L 242.35998 234.580185 
L 242.359006 232.756418 
L 242.357475 230.933897 
L 242.355272 229.112625 
L 242.352272 227.292609 
L 242.348347 225.473849 
L 242.343379 223.656349 
L 242.337261 221.840109 
L 242.329922 220.025128 
L 242.321337 218.2114 
L 242.311562 216.398919 
L 242.30076 214.587672 
L 242.289241 212.777642 
L 242.277513 210.968805 
L 242.26633 209.161131 
L 242.256757 207.35458 
L 242.250239 205.54911 
L 242.24867 203.744677 
L 242.254464 201.941245 
L 242.270624 200.138804 
L 242.300791 198.337398 
L 242.349279 196.537161 
L 242.421056 194.738375 
L 242.521685 192.941535 
L 242.657159 191.147424 
L 242.833634 189.357184 
L 243.055059 187.572094 
" clip-path="url(#pbc3c09608a)" style="fill: none; stroke: #ff0000; stroke-opacity: 0.6; stroke-width: 0.25; stroke-linecap: square"/>
   </g>
   <g id="line2d_74">
    <path d="M 242.36028 241.8876 
L 242.360602 240.058905 
L 242.360692 238.231403 
L 242.360534 236.405098 
L 242.360042 234.579997 
L 242.35912 232.756105 
L 242.357665 230.933427 
L 242.355562 229.111967 
L 242.352691 227.29173 
L 242.348929 225.472719 
L 242.344158 223.654935 
L 242.338272 221.838379 
L 242.331198 220.02305 
L 242.322908 218.208944 
L 242.313449 216.396052 
L 242.30297 214.584364 
L 242.291763 212.773863 
L 242.280306 210.964525 
L 242.269316 209.15632 
L 242.259811 207.349212 
L 242.253175 205.543159 
L 242.251225 203.738115 
L 242.256289 201.934046 
L 242.271261 200.130936 
L 242.299665 198.328821 
L 242.345674 196.527819 
L 242.414109 194.728184 
L 242.510369 192.930371 
L 242.640284 191.135105 
L 242.809838 189.34344 
L 243.022509 187.556524 
" clip-path="url(#pbc3c09608a)" style="fill: none; stroke: #ff0000; stroke-opacity: 0.8; stroke-width: 0.25; stroke-linecap: square"/>
   </g>
   <g id="line2d_75">
    <path d="M 242.36028 241.8876 
L 242.360616 240.058905 
L 242.360711 238.231418 
L 242.360548 236.405144 
L 242.360039 234.580089 
L 242.359087 232.756259 
L 242.357584 230.933657 
L 242.355413 229.11229 
L 242.35245 227.292161 
L 242.348569 225.473273 
L 242.343647 223.655629 
L 242.337579 221.839228 
L 242.330287 220.02407 
L 242.321746 218.210149 
L 242.312003 216.39746 
L 242.301215 214.585988 
L 242.289683 212.775719 
L 242.277899 210.966627 
L 242.266606 209.158683 
L 242.256851 207.35185 
L 242.25006 205.546082 
L 242.248107 203.741337 
L 242.253385 201.937579 
L 242.268877 200.134797 
L 242.298206 198.333029 
L 242.345667 196.532407 
L 242.416221 194.733205 
L 242.515426 192.935911 
L 242.64928 191.141298 
L 242.823949 189.350493 
L 243.043152 187.564739 
" clip-path="url(#pbc3c09608a)" style="fill: none; stroke: #ff0000; stroke-width: 0.25; stroke-linecap: square"/>
   </g>
   <g id="line2d_76">
    <path d="M 298.153559 168.317744 
L 296.184917 168.312821 
L 294.219359 168.307245 
L 292.256927 168.300383 
L 290.297657 168.292135 
L 288.341581 168.282479 
L 286.388726 168.271515 
L 284.439113 168.259507 
L 282.492752 168.246939 
L 280.549647 168.234591 
L 278.609788 168.223618 
L 276.673154 168.215645 
L 274.739723 168.212872 
L 272.809474 168.218172 
L 270.882418 168.235191 
L 268.958627 168.26843 
L 267.038296 168.323271 
L 265.121817 168.405946 
L 263.209879 168.523383 
L 261.303557 168.682845 
L 259.404368 168.89138 
L 257.514198 169.15484 
L 255.637528 169.490919 
L 253.747355 169.727454 
L 251.845307 169.802287 
L 249.943898 169.859206 
L 248.044089 169.930608 
L 246.145453 170.00799 
L 244.247077 170.072659 
L 242.348245 170.095985 
L 240.450115 170.143863 
" clip-path="url(#pbc3c09608a)" style="fill: none; stroke: #ff0000; stroke-opacity: 0.2; stroke-width: 0.25; stroke-linecap: square"/>
   </g>
   <g id="line2d_77">
    <path d="M 298.153559 168.317744 
L 296.184918 168.312372 
L 294.218993 168.306345 
L 292.255803 168.299024 
L 290.295363 168.290344 
L 288.337683 168.280332 
L 286.382769 168.269148 
L 284.430619 168.257131 
L 282.481222 168.244862 
L 280.534559 168.233234 
L 278.590601 168.223535 
L 276.64931 168.217538 
L 274.710647 168.217597 
L 272.774588 168.226743 
L 270.841142 168.248762 
L 268.910399 168.288258 
L 266.98258 168.350668 
L 265.058123 168.442208 
L 263.137769 168.569701 
L 261.222648 168.740242 
L 259.314324 168.96063 
L 257.41471 169.236454 
L 255.526157 169.573006 
L 253.623478 169.80976 
L 251.708496 169.887383 
L 249.793518 169.944341 
L 247.879554 170.012047 
L 245.966217 170.081274 
L 244.052767 170.132063 
L 242.138974 170.134083 
L 240.226948 170.056034 
" clip-path="url(#pbc3c09608a)" style="fill: none; stroke: #ff0000; stroke-opacity: 0.4; stroke-width: 0.25; stroke-linecap: square"/>
   </g>
   <g id="line2d_78">
    <path d="M 298.153559 168.317744 
L 296.184918 168.312204 
L 294.219187 168.306044 
L 292.256381 168.298518 
L 290.296511 168.28954 
L 288.339587 168.279119 
L 286.385608 168.267401 
L 284.434572 168.254727 
L 282.486463 168.241689 
L 280.541257 168.229213 
L 278.598922 168.218643 
L 276.659413 168.211832 
L 274.722688 168.211251 
L 272.788717 168.220079 
L 270.857511 168.242292 
L 268.929167 168.282723 
L 267.003929 168.347068 
L 265.082275 168.441819 
L 263.165014 168.574074 
L 261.25338 168.751181 
L 259.349066 168.980119 
L 257.454125 169.266502 
L 255.570375 169.611881 
L 253.670925 169.84844 
L 251.758943 169.918409 
L 249.847042 169.965348 
L 247.936157 170.023423 
L 246.025944 170.083569 
L 244.115735 170.125838 
L 242.205403 170.119776 
L 240.295456 170.089921 
" clip-path="url(#pbc3c09608a)" style="fill: none; stroke: #ff0000; stroke-opacity: 0.6; stroke-width: 0.25; stroke-linecap: square"/>
   </g>
   <g id="line2d_79">
    <path d="M 298.153559 168.317744 
L 296.184918 168.312162 
L 294.219068 168.305943 
L 292.256026 168.298358 
L 290.295805 168.289327 
L 288.338414 168.278867 
L 286.383858 168.267134 
L 284.432133 168.254472 
L 282.483226 168.241481 
L 280.537116 168.229089 
L 278.593771 168.21864 
L 276.65315 168.211988 
L 274.715214 168.211596 
L 272.779934 168.220636 
L 270.847327 168.243074 
L 268.917491 168.283731 
L 266.990674 168.348289 
L 265.067359 168.443233 
L 263.148356 168.575656 
L 261.234902 168.752902 
L 259.328692 168.981941 
L 257.431778 169.268377 
L 255.546148 169.614675 
L 253.644695 169.851874 
L 251.730619 169.922475 
L 249.816569 169.96969 
L 247.903477 170.027303 
L 245.990999 170.086054 
L 244.078497 170.125867 
L 242.165928 170.116174 
L 240.254111 170.06762 
" clip-path="url(#pbc3c09608a)" style="fill: none; stroke: #ff0000; stroke-opacity: 0.8; stroke-width: 0.25; stroke-linecap: square"/>
   </g>
   <g id="line2d_80">
    <path d="M 298.153559 168.317744 
L 296.184919 168.311935 
L 294.219158 168.305446 
L 292.256288 168.297552 
L 290.296317 168.288187 
L 288.339249 168.277381 
L 286.385081 168.265306 
L 284.433804 168.252327 
L 282.485401 168.239068 
L 280.539843 168.226489 
L 278.597092 168.215971 
L 276.657102 168.209418 
L 274.719827 168.209354 
L 272.785239 168.219026 
L 270.853351 168.242486 
L 268.924267 168.284655 
L 266.998249 168.351338 
L 265.075803 168.449146 
L 263.157782 168.585309 
L 261.245479 168.767285 
L 259.34066 169.002118 
L 257.445457 169.295437 
L 255.561216 169.645873 
L 253.66034 169.883046 
L 251.746692 169.950406 
L 249.833066 169.993705 
L 247.920364 170.047707 
L 246.008271 170.10336 
L 244.096185 170.140764 
L 242.184081 170.129494 
L 240.272626 170.084589 
" clip-path="url(#pbc3c09608a)" style="fill: none; stroke: #ff0000; stroke-width: 0.25; stroke-linecap: square"/>
   </g>
   <g id="line2d_81">
    <path d="M 229.95972 107.1684 
L 229.959454 108.997095 
L 229.95945 110.824321 
L 229.95975 112.650073 
L 229.960451 114.474343 
L 229.961662 116.297127 
L 229.9635 118.118417 
L 229.96609 119.93821 
L 229.969563 121.7565 
L 229.974047 123.573284 
L 229.979661 125.388559 
L 229.9865 127.202327 
L 229.994619 129.014588 
L 230.00401 130.825349 
L 230.014573 132.63462 
L 230.02608 134.442414 
L 230.038135 136.248754 
L 230.050124 138.053669 
L 230.061157 139.857194 
L 230.070006 141.659375 
L 230.075037 143.460261 
L 230.07414 145.259898 
L 230.064661 147.058322 
L 230.043336 148.855531 
L 230.006247 150.651459 
L 229.9488 152.445927 
L 229.865735 154.238583 
L 229.751199 156.028825 
L 229.59889 157.815717 
L 229.402313 159.597916 
L 229.15516 161.373624 
" clip-path="url(#pbc3c09608a)" style="fill: none; stroke: #ff0000; stroke-opacity: 0.2; stroke-width: 0.25; stroke-linecap: square"/>
   </g>
   <g id="line2d_82">
    <path d="M 229.95972 107.1684 
L 229.959409 108.997095 
L 229.959317 110.824621 
L 229.959462 112.650974 
L 229.959925 114.476148 
L 229.960796 116.300138 
L 229.962174 118.122938 
L 229.964169 119.944544 
L 229.966894 121.764953 
L 229.970469 123.58416 
L 229.975007 125.402164 
L 229.980608 127.218965 
L 229.987345 129.034564 
L 229.995247 130.848965 
L 230.004271 132.662176 
L 230.014279 134.474208 
L 230.024996 136.285078 
L 230.035973 138.094806 
L 230.04653 139.903424 
L 230.055703 141.710966 
L 230.06218 143.517474 
L 230.064235 145.322992 
L 230.059659 147.127557 
L 230.045699 148.931186 
L 230.019009 150.733857 
L 229.975621 152.535468 
L 229.910955 154.3358 
L 229.819881 156.134453 
L 229.696866 157.930786 
L 229.536235 159.72386 
L 229.334892 161.51268 
" clip-path="url(#pbc3c09608a)" style="fill: none; stroke: #ff0000; stroke-opacity: 0.4; stroke-width: 0.25; stroke-linecap: square"/>
   </g>
   <g id="line2d_83">
    <path d="M 229.95972 107.1684 
L 229.959364 108.997095 
L 229.959264 110.824542 
L 229.95944 112.650735 
L 229.959988 114.47567 
L 229.961014 116.29934 
L 229.962632 118.12174 
L 229.964969 119.942866 
L 229.968159 121.762713 
L 229.972338 123.581278 
L 229.977637 125.398559 
L 229.984169 127.214556 
L 229.992017 129.02927 
L 230.001209 130.842706 
L 230.011689 132.654871 
L 230.023291 134.465777 
L 230.035687 136.275443 
L 230.048345 138.083893 
L 230.060465 139.89116 
L 230.070917 141.697282 
L 230.078167 143.502306 
L 230.080199 145.306276 
L 230.074437 147.109227 
L 230.057677 148.911163 
L 230.026025 150.712029 
L 229.974864 152.511664 
L 229.898863 154.309736 
L 229.792047 156.105667 
L 229.647958 157.898545 
L 229.459948 159.687043 
L 229.223721 161.469662 
" clip-path="url(#pbc3c09608a)" style="fill: none; stroke: #ff0000; stroke-opacity: 0.6; stroke-width: 0.25; stroke-linecap: square"/>
   </g>
   <g id="line2d_84">
    <path d="M 229.95972 107.1684 
L 229.959363 108.997095 
L 229.959254 110.824573 
L 229.95941 112.650831 
L 229.959923 114.475861 
L 229.960895 116.299658 
L 229.962437 118.122218 
L 229.964673 119.943536 
L 229.967732 121.763607 
L 229.971748 123.582429 
L 229.97685 125.4 
L 229.983151 127.216318 
L 229.990735 129.031386 
L 229.999634 130.845207 
L 230.009802 132.65779 
L 230.021086 134.469146 
L 230.03318 136.279292 
L 230.045579 138.088253 
L 230.057521 139.896059 
L 230.067926 141.702749 
L 230.075321 143.508367 
L 230.077765 145.312958 
L 230.072772 147.116559 
L 230.057245 148.919178 
L 230.02741 150.720768 
L 229.978785 152.521186 
L 229.906188 154.32013 
L 229.803801 156.117067 
L 229.665328 157.911148 
L 229.484281 159.701135 
L 229.256837 161.485673 
" clip-path="url(#pbc3c09608a)" style="fill: none; stroke: #ff0000; stroke-opacity: 0.8; stroke-width: 0.25; stroke-linecap: square"/>
   </g>
   <g id="line2d_85">
    <path d="M 229.95972 107.1684 
L 229.959349 108.997095 
L 229.959235 110.824558 
L 229.959396 112.650785 
L 229.959925 114.475769 
L 229.960927 116.299506 
L 229.962517 118.121989 
L 229.964821 119.943215 
L 229.967972 121.763179 
L 229.972107 123.581878 
L 229.977358 125.39931 
L 229.983842 127.215475 
L 229.991642 129.030373 
L 230.000791 130.84401 
L 230.011242 132.656392 
L 230.022834 134.467532 
L 230.035252 136.277448 
L 230.047976 138.086164 
L 230.06022 139.893711 
L 230.070874 141.700129 
L 230.078422 143.505462 
L 230.080868 145.309757 
L 230.07566 147.113048 
L 230.059612 148.915342 
L 230.028851 150.716586 
L 229.978773 152.516625 
L 229.904056 154.315133 
L 229.798725 156.111544 
L 229.656311 157.904954 
L 229.470148 159.694049 
L 229.236174 161.477373 
" clip-path="url(#pbc3c09608a)" style="fill: none; stroke: #ff0000; stroke-width: 0.25; stroke-linecap: square"/>
   </g>
   <g id="line2d_86">
    <path d="M 174.170422 180.724482 
L 176.139645 180.72883 
L 178.105738 180.733934 
L 180.068678 180.741153 
L 182.028441 180.750953 
L 183.985007 180.763819 
L 185.938359 180.780225 
L 187.888481 180.800594 
L 189.835364 180.825232 
L 191.779005 180.854248 
L 193.719419 180.887431 
L 195.656636 180.924108 
L 197.590718 180.962955 
L 199.521761 181.00178 
L 201.449896 181.037253 
L 203.375276 181.064608 
L 205.298024 181.077309 
L 207.218122 181.066704 
L 209.135206 181.021693 
L 211.048198 180.928435 
L 212.954743 180.770028 
L 214.835942 180.432796 
L 216.688915 179.971594 
L 218.500428 179.372223 
L 220.376539 179.030438 
L 222.281959 178.980833 
L 224.186098 178.916692 
L 226.089743 178.860149 
L 227.993342 178.826432 
L 229.896783 178.840019 
L 231.80007 178.836347 
" clip-path="url(#pbc3c09608a)" style="fill: none; stroke: #ff0000; stroke-opacity: 0.2; stroke-width: 0.25; stroke-linecap: square"/>
   </g>
   <g id="line2d_87">
    <path d="M 174.170422 180.724482 
L 176.139645 180.728613 
L 178.106197 180.733741 
L 180.070063 180.741059 
L 182.031233 180.75105 
L 183.989698 180.764209 
L 185.945449 180.781017 
L 187.898484 180.801889 
L 189.848801 180.827113 
L 191.796412 180.856757 
L 193.741339 180.890551 
L 195.683626 180.927741 
L 197.623346 180.966905 
L 199.560603 181.005732 
L 201.495541 181.040772 
L 203.428312 181.067143 
L 205.359036 181.078225 
L 207.287677 181.06533 
L 209.21384 181.017392 
L 211.136411 180.920672 
L 213.052999 180.758515 
L 214.943677 180.412454 
L 216.805944 179.941178 
L 218.623878 179.323172 
L 220.510215 178.967772 
L 222.428041 178.898672 
L 224.34562 178.835303 
L 226.263201 178.785837 
L 228.180975 178.766102 
L 230.098253 178.802339 
L 232.01193 178.92306 
" clip-path="url(#pbc3c09608a)" style="fill: none; stroke: #ff0000; stroke-opacity: 0.4; stroke-width: 0.25; stroke-linecap: square"/>
   </g>
   <g id="line2d_88">
    <path d="M 174.170422 180.724482 
L 176.139646 180.728201 
L 178.105968 180.733119 
L 180.069383 180.740335 
L 182.029887 180.750373 
L 183.987479 180.763773 
L 185.942158 180.781057 
L 187.893927 180.802683 
L 189.842794 180.828969 
L 191.788774 180.860007 
L 193.731898 180.895531 
L 195.672219 180.934765 
L 197.60982 180.976228 
L 199.544822 181.017507 
L 201.477384 181.054979 
L 203.407683 181.083516 
L 205.335853 181.09616 
L 207.261864 181.083788 
L 209.185289 181.034785 
L 211.104912 180.934727 
L 213.018117 180.766182 
L 214.903235 180.405913 
L 216.757611 179.915585 
L 218.571061 179.293303 
L 220.455012 178.940709 
L 222.370421 178.885477 
L 224.28541 178.831167 
L 226.200324 178.790156 
L 228.115304 178.778371 
L 230.029577 178.822191 
L 231.942889 178.893954 
" clip-path="url(#pbc3c09608a)" style="fill: none; stroke: #ff0000; stroke-opacity: 0.6; stroke-width: 0.25; stroke-linecap: square"/>
   </g>
   <g id="line2d_89">
    <path d="M 174.170422 180.724482 
L 176.139646 180.728269 
L 178.106083 180.733249 
L 180.069727 180.740514 
L 182.030571 180.750573 
L 183.988613 180.763955 
L 185.94385 180.781169 
L 187.896282 180.802658 
L 189.845917 180.828731 
L 191.792768 180.859468 
L 193.736864 180.8946 
L 195.678255 180.933354 
L 197.617022 180.97426 
L 199.553282 181.014925 
L 201.487189 181.051763 
L 203.418913 181.079698 
L 205.348583 181.091841 
L 207.276165 181.079155 
L 209.201234 181.030127 
L 211.12259 180.930456 
L 213.037654 180.76282 
L 214.924899 180.403953 
L 216.781617 179.915158 
L 218.59853 179.297097 
L 220.484578 178.945144 
L 222.401794 178.884443 
L 224.318779 178.830092 
L 226.235729 178.790006 
L 228.15275 178.780358 
L 230.068975 178.827718 
L 231.983558 178.917619 
" clip-path="url(#pbc3c09608a)" style="fill: none; stroke: #ff0000; stroke-opacity: 0.8; stroke-width: 0.25; stroke-linecap: square"/>
   </g>
   <g id="line2d_90">
    <path d="M 174.170422 180.724482 
L 176.139645 180.728397 
L 178.106032 180.733526 
L 180.069577 180.740969 
L 182.030277 180.751239 
L 183.988131 180.764861 
L 185.94314 180.782345 
L 187.895306 180.804135 
L 189.844638 180.830538 
L 191.791153 180.861631 
L 193.734883 180.897138 
L 195.675881 180.936275 
L 197.61423 180.977554 
L 199.550052 181.018554 
L 201.483505 181.055651 
L 203.414763 181.083713 
L 205.343957 181.095775 
L 207.271052 181.082699 
L 209.19561 181.032833 
L 211.116398 180.931706 
L 213.030769 180.761789 
L 214.916626 180.398249 
L 216.771199 179.903216 
L 218.58595 179.280254 
L 220.471078 178.925808 
L 222.387919 178.866942 
L 224.304548 178.814905 
L 226.221129 178.77687 
L 228.137753 178.768859 
L 230.053554 178.817306 
L 231.967971 178.902193 
" clip-path="url(#pbc3c09608a)" style="fill: none; stroke: #ff0000; stroke-width: 0.25; stroke-linecap: square"/>
   </g>
   <g id="patch_15">
    <path d="M 103.104 307.584 
L 103.104 41.472 
" style="fill: none; stroke: #000000; stroke-width: 0.8; stroke-linejoin: miter; stroke-linecap: square"/>
   </g>
   <g id="patch_16">
    <path d="M 369.216 307.584 
L 369.216 41.472 
" style="fill: none; stroke: #000000; stroke-width: 0.8; stroke-linejoin: miter; stroke-linecap: square"/>
   </g>
   <g id="patch_17">
    <path d="M 103.104 307.584 
L 369.216 307.584 
" style="fill: none; stroke: #000000; stroke-width: 0.8; stroke-linejoin: miter; stroke-linecap: square"/>
   </g>
   <g id="patch_18">
    <path d="M 103.104 41.472 
L 369.216 41.472 
" style="fill: none; stroke: #000000; stroke-width: 0.8; stroke-linejoin: miter; stroke-linecap: square"/>
   </g>
   <g id="text_19">
    <!-- Time:  35 ms -->
    <g transform="translate(264.253887 54.7776) scale(0.1 -0.1)">
     <defs>
      <path id="DejaVuSans-54" d="M -19 4666 
L 3928 4666 
L 3928 4134 
L 2272 4134 
L 2272 0 
L 1638 0 
L 1638 4134 
L -19 4134 
L -19 4666 
z
" transform="scale(0.015625)"/>
      <path id="DejaVuSans-69" d="M 603 3500 
L 1178 3500 
L 1178 0 
L 603 0 
L 603 3500 
z
M 603 4863 
L 1178 4863 
L 1178 4134 
L 603 4134 
L 603 4863 
z
" transform="scale(0.015625)"/>
      <path id="DejaVuSans-6d" d="M 3328 2828 
Q 3544 3216 3844 3400 
Q 4144 3584 4550 3584 
Q 5097 3584 5394 3201 
Q 5691 2819 5691 2113 
L 5691 0 
L 5113 0 
L 5113 2094 
Q 5113 2597 4934 2840 
Q 4756 3084 4391 3084 
Q 3944 3084 3684 2787 
Q 3425 2491 3425 1978 
L 3425 0 
L 2847 0 
L 2847 2094 
Q 2847 2600 2669 2842 
Q 2491 3084 2119 3084 
Q 1678 3084 1418 2786 
Q 1159 2488 1159 1978 
L 1159 0 
L 581 0 
L 581 3500 
L 1159 3500 
L 1159 2956 
Q 1356 3278 1631 3431 
Q 1906 3584 2284 3584 
Q 2666 3584 2933 3390 
Q 3200 3197 3328 2828 
z
" transform="scale(0.015625)"/>
      <path id="DejaVuSans-65" d="M 3597 1894 
L 3597 1613 
L 953 1613 
Q 991 1019 1311 708 
Q 1631 397 2203 397 
Q 2534 397 2845 478 
Q 3156 559 3463 722 
L 3463 178 
Q 3153 47 2828 -22 
Q 2503 -91 2169 -91 
Q 1331 -91 842 396 
Q 353 884 353 1716 
Q 353 2575 817 3079 
Q 1281 3584 2069 3584 
Q 2775 3584 3186 3129 
Q 3597 2675 3597 1894 
z
M 3022 2063 
Q 3016 2534 2758 2815 
Q 2500 3097 2075 3097 
Q 1594 3097 1305 2825 
Q 1016 2553 972 2059 
L 3022 2063 
z
" transform="scale(0.015625)"/>
      <path id="DejaVuSans-3a" d="M 750 794 
L 1409 794 
L 1409 0 
L 750 0 
L 750 794 
z
M 750 3309 
L 1409 3309 
L 1409 2516 
L 750 2516 
L 750 3309 
z
" transform="scale(0.015625)"/>
      <path id="DejaVuSans-20" transform="scale(0.015625)"/>
      <path id="DejaVuSans-35" d="M 691 4666 
L 3169 4666 
L 3169 4134 
L 1269 4134 
L 1269 2991 
Q 1406 3038 1543 3061 
Q 1681 3084 1819 3084 
Q 2600 3084 3056 2656 
Q 3513 2228 3513 1497 
Q 3513 744 3044 326 
Q 2575 -91 1722 -91 
Q 1428 -91 1123 -41 
Q 819 9 494 109 
L 494 744 
Q 775 591 1075 516 
Q 1375 441 1709 441 
Q 2250 441 2565 725 
Q 2881 1009 2881 1497 
Q 2881 1984 2565 2268 
Q 2250 2553 1709 2553 
Q 1456 2553 1204 2497 
Q 953 2441 691 2322 
L 691 4666 
z
" transform="scale(0.015625)"/>
      <path id="DejaVuSans-73" d="M 2834 3397 
L 2834 2853 
Q 2591 2978 2328 3040 
Q 2066 3103 1784 3103 
Q 1356 3103 1142 2972 
Q 928 2841 928 2578 
Q 928 2378 1081 2264 
Q 1234 2150 1697 2047 
L 1894 2003 
Q 2506 1872 2764 1633 
Q 3022 1394 3022 966 
Q 3022 478 2636 193 
Q 2250 -91 1575 -91 
Q 1294 -91 989 -36 
Q 684 19 347 128 
L 347 722 
Q 666 556 975 473 
Q 1284 391 1588 391 
Q 1994 391 2212 530 
Q 2431 669 2431 922 
Q 2431 1156 2273 1281 
Q 2116 1406 1581 1522 
L 1381 1569 
Q 847 1681 609 1914 
Q 372 2147 372 2553 
Q 372 3047 722 3315 
Q 1072 3584 1716 3584 
Q 2034 3584 2315 3537 
Q 2597 3491 2834 3397 
z
" transform="scale(0.015625)"/>
     </defs>
     <use xlink:href="#DejaVuSans-54"/>
     <use xlink:href="#DejaVuSans-69" x="57.958984"/>
     <use xlink:href="#DejaVuSans-6d" x="85.742188"/>
     <use xlink:href="#DejaVuSans-65" x="183.154297"/>
     <use xlink:href="#DejaVuSans-3a" x="244.677734"/>
     <use xlink:href="#DejaVuSans-20" x="278.369141"/>
     <use xlink:href="#DejaVuSans-20" x="310.15625"/>
     <use xlink:href="#DejaVuSans-33" x="341.943359"/>
     <use xlink:href="#DejaVuSans-35" x="405.566406"/>
     <use xlink:href="#DejaVuSans-20" x="469.189453"/>
     <use xlink:href="#DejaVuSans-6d" x="500.976562"/>
     <use xlink:href="#DejaVuSans-73" x="598.388672"/>
    </g>
   </g>
  </g>
 </g>
 <defs>
  <clipPath id="pbc3c09608a">
   <rect x="103.104" y="41.472" width="266.112" height="266.112"/>
  </clipPath>
 </defs>
</svg>
