<?xml version="1.0" encoding="utf-8" standalone="no"?>
<!DOCTYPE svg PUBLIC "-//W3C//DTD SVG 1.1//EN"
  "http://www.w3.org/Graphics/SVG/1.1/DTD/svg11.dtd">
<svg xmlns:xlink="http://www.w3.org/1999/xlink" width="460.8pt" height="345.6pt" viewBox="0 0 460.8 345.6" xmlns="http://www.w3.org/2000/svg" version="1.1">
 <metadata>
  <rdf:RDF xmlns:dc="http://purl.org/dc/elements/1.1/" xmlns:cc="http://creativecommons.org/ns#" xmlns:rdf="http://www.w3.org/1999/02/22-rdf-syntax-ns#">
   <cc:Work>
    <dc:type rdf:resource="http://purl.org/dc/dcmitype/StillImage"/>
    <dc:date>2024-01-22T16:49:10.988190</dc:date>
    <dc:format>image/svg+xml</dc:format>
    <dc:creator>
     <cc:Agent>
      <dc:title>Matplotlib v3.8.2, https://matplotlib.org/</dc:title>
     </cc:Agent>
    </dc:creator>
   </cc:Work>
  </rdf:RDF>
 </metadata>
 <defs>
  <style type="text/css">*{stroke-linejoin: round; stroke-linecap: butt}</style>
 </defs>
 <g id="figure_1">
  <g id="patch_1">
   <path d="M 0 345.6 
L 460.8 345.6 
L 460.8 0 
L 0 0 
z
" style="fill: #ffffff"/>
  </g>
  <g id="axes_1">
   <g id="patch_2">
    <path d="M 103.104 307.584 
L 369.216 307.584 
L 369.216 41.472 
L 103.104 41.472 
z
" style="fill: #ffffff"/>
   </g>
   <g id="patch_3">
    <path d="M 248.012103 177.536713 
L 248.734344 165.916737 
L 243.090355 165.565934 
L 242.368115 177.185911 
z
" clip-path="url(#p44a9fd9475)" style="fill: #00008b"/>
   </g>
   <g id="patch_4">
    <path d="M 239.517983 161.571489 
L 227.876387 161.43463 
L 227.809913 167.089119 
L 239.451508 167.225978 
z
" clip-path="url(#p44a9fd9475)" style="fill: #800000"/>
   </g>
   <g id="patch_5">
    <path d="M 229.894787 174.647493 
L 237.296493 183.634162 
L 241.661447 180.039047 
L 234.25974 171.052378 
z
" clip-path="url(#p44a9fd9475)" style="fill: #006400"/>
   </g>
   <g id="patch_6">
    <path d="M 223.412506 186.752137 
L 231.032038 195.554876 
L 235.307654 191.85396 
L 227.688122 183.051221 
z
" clip-path="url(#p44a9fd9475)" style="fill: #4b0082"/>
   </g>
   <g id="patch_7">
    <path d="M 245.363692 210.822688 
L 245.472874 199.1808 
L 239.818243 199.127769 
L 239.709061 210.769657 
z
" clip-path="url(#p44a9fd9475)" style="fill: #0000ff"/>
   </g>
   <g id="patch_8">
    <path d="M 270.763959 165.142554 
L 259.122098 165.030527 
L 259.067685 170.685146 
L 270.709546 170.797172 
z
" clip-path="url(#p44a9fd9475)" style="fill: #ff0000"/>
   </g>
   <g id="patch_9">
    <path d="M 227.485927 134.301578 
L 228.064 145.929618 
L 233.711905 145.64884 
L 233.133832 134.0208 
z
" clip-path="url(#p44a9fd9475)" style="fill: #dbdc56"/>
   </g>
   <g id="patch_10">
    <path d="M 200.080069 183.42957 
L 211.722113 183.338464 
L 211.677862 177.683758 
L 200.035818 177.774863 
z
" clip-path="url(#p44a9fd9475)" style="fill: #9400d3"/>
   </g>
   <g id="patch_11">
    <path d="M 245.18772 247.7088 
L 245.18772 236.0664 
L 239.53284 236.0664 
L 239.53284 247.7088 
z
" clip-path="url(#p44a9fd9475)" style="fill: #1e90ff"/>
   </g>
   <g id="patch_12">
    <path d="M 303.978631 165.49829 
L 292.336242 165.482324 
L 292.328487 171.137198 
L 303.970876 171.153164 
z
" clip-path="url(#p44a9fd9475)" style="fill: #ff4500"/>
   </g>
   <g id="patch_13">
    <path d="M 227.13228 101.3472 
L 227.13228 112.9896 
L 232.78716 112.9896 
L 232.78716 101.3472 
z
" clip-path="url(#p44a9fd9475)" style="fill: #7cfc00"/>
   </g>
   <g id="patch_14">
    <path d="M 168.34838 183.550189 
L 179.990779 183.553655 
L 179.992463 177.898776 
L 168.350064 177.895309 
z
" clip-path="url(#p44a9fd9475)" style="fill: #ff00ff"/>
   </g>
   <g id="matplotlib.axis_1">
    <g id="xtick_1">
     <g id="line2d_1">
      <defs>
       <path id="me96bee3b2a" d="M 0 0 
L 0 3.5 
" style="stroke: #000000; stroke-width: 0.8"/>
      </defs>
      <g>
       <use xlink:href="#me96bee3b2a" x="103.104" y="307.584" style="stroke: #000000; stroke-width: 0.8"/>
      </g>
     </g>
     <g id="text_1">
      <!-- −40 -->
      <g transform="translate(92.551656 322.182437) scale(0.1 -0.1)">
       <defs>
        <path id="DejaVuSans-2212" d="M 678 2272 
L 4684 2272 
L 4684 1741 
L 678 1741 
L 678 2272 
z
" transform="scale(0.015625)"/>
        <path id="DejaVuSans-34" d="M 2419 4116 
L 825 1625 
L 2419 1625 
L 2419 4116 
z
M 2253 4666 
L 3047 4666 
L 3047 1625 
L 3713 1625 
L 3713 1100 
L 3047 1100 
L 3047 0 
L 2419 0 
L 2419 1100 
L 313 1100 
L 313 1709 
L 2253 4666 
z
" transform="scale(0.015625)"/>
        <path id="DejaVuSans-30" d="M 2034 4250 
Q 1547 4250 1301 3770 
Q 1056 3291 1056 2328 
Q 1056 1369 1301 889 
Q 1547 409 2034 409 
Q 2525 409 2770 889 
Q 3016 1369 3016 2328 
Q 3016 3291 2770 3770 
Q 2525 4250 2034 4250 
z
M 2034 4750 
Q 2819 4750 3233 4129 
Q 3647 3509 3647 2328 
Q 3647 1150 3233 529 
Q 2819 -91 2034 -91 
Q 1250 -91 836 529 
Q 422 1150 422 2328 
Q 422 3509 836 4129 
Q 1250 4750 2034 4750 
z
" transform="scale(0.015625)"/>
       </defs>
       <use xlink:href="#DejaVuSans-2212"/>
       <use xlink:href="#DejaVuSans-34" x="83.789062"/>
       <use xlink:href="#DejaVuSans-30" x="147.412109"/>
      </g>
     </g>
    </g>
    <g id="xtick_2">
     <g id="line2d_2">
      <g>
       <use xlink:href="#me96bee3b2a" x="136.368" y="307.584" style="stroke: #000000; stroke-width: 0.8"/>
      </g>
     </g>
     <g id="text_2">
      <!-- −30 -->
      <g transform="translate(125.815656 322.182437) scale(0.1 -0.1)">
       <defs>
        <path id="DejaVuSans-33" d="M 2597 2516 
Q 3050 2419 3304 2112 
Q 3559 1806 3559 1356 
Q 3559 666 3084 287 
Q 2609 -91 1734 -91 
Q 1441 -91 1130 -33 
Q 819 25 488 141 
L 488 750 
Q 750 597 1062 519 
Q 1375 441 1716 441 
Q 2309 441 2620 675 
Q 2931 909 2931 1356 
Q 2931 1769 2642 2001 
Q 2353 2234 1838 2234 
L 1294 2234 
L 1294 2753 
L 1863 2753 
Q 2328 2753 2575 2939 
Q 2822 3125 2822 3475 
Q 2822 3834 2567 4026 
Q 2313 4219 1838 4219 
Q 1578 4219 1281 4162 
Q 984 4106 628 3988 
L 628 4550 
Q 988 4650 1302 4700 
Q 1616 4750 1894 4750 
Q 2613 4750 3031 4423 
Q 3450 4097 3450 3541 
Q 3450 3153 3228 2886 
Q 3006 2619 2597 2516 
z
" transform="scale(0.015625)"/>
       </defs>
       <use xlink:href="#DejaVuSans-2212"/>
       <use xlink:href="#DejaVuSans-33" x="83.789062"/>
       <use xlink:href="#DejaVuSans-30" x="147.412109"/>
      </g>
     </g>
    </g>
    <g id="xtick_3">
     <g id="line2d_3">
      <g>
       <use xlink:href="#me96bee3b2a" x="169.632" y="307.584" style="stroke: #000000; stroke-width: 0.8"/>
      </g>
     </g>
     <g id="text_3">
      <!-- −20 -->
      <g transform="translate(159.079656 322.182437) scale(0.1 -0.1)">
       <defs>
        <path id="DejaVuSans-32" d="M 1228 531 
L 3431 531 
L 3431 0 
L 469 0 
L 469 531 
Q 828 903 1448 1529 
Q 2069 2156 2228 2338 
Q 2531 2678 2651 2914 
Q 2772 3150 2772 3378 
Q 2772 3750 2511 3984 
Q 2250 4219 1831 4219 
Q 1534 4219 1204 4116 
Q 875 4013 500 3803 
L 500 4441 
Q 881 4594 1212 4672 
Q 1544 4750 1819 4750 
Q 2544 4750 2975 4387 
Q 3406 4025 3406 3419 
Q 3406 3131 3298 2873 
Q 3191 2616 2906 2266 
Q 2828 2175 2409 1742 
Q 1991 1309 1228 531 
z
" transform="scale(0.015625)"/>
       </defs>
       <use xlink:href="#DejaVuSans-2212"/>
       <use xlink:href="#DejaVuSans-32" x="83.789062"/>
       <use xlink:href="#DejaVuSans-30" x="147.412109"/>
      </g>
     </g>
    </g>
    <g id="xtick_4">
     <g id="line2d_4">
      <g>
       <use xlink:href="#me96bee3b2a" x="202.896" y="307.584" style="stroke: #000000; stroke-width: 0.8"/>
      </g>
     </g>
     <g id="text_4">
      <!-- −10 -->
      <g transform="translate(192.343656 322.182437) scale(0.1 -0.1)">
       <defs>
        <path id="DejaVuSans-31" d="M 794 531 
L 1825 531 
L 1825 4091 
L 703 3866 
L 703 4441 
L 1819 4666 
L 2450 4666 
L 2450 531 
L 3481 531 
L 3481 0 
L 794 0 
L 794 531 
z
" transform="scale(0.015625)"/>
       </defs>
       <use xlink:href="#DejaVuSans-2212"/>
       <use xlink:href="#DejaVuSans-31" x="83.789062"/>
       <use xlink:href="#DejaVuSans-30" x="147.412109"/>
      </g>
     </g>
    </g>
    <g id="xtick_5">
     <g id="line2d_5">
      <g>
       <use xlink:href="#me96bee3b2a" x="236.16" y="307.584" style="stroke: #000000; stroke-width: 0.8"/>
      </g>
     </g>
     <g id="text_5">
      <!-- 0 -->
      <g transform="translate(232.97875 322.182437) scale(0.1 -0.1)">
       <use xlink:href="#DejaVuSans-30"/>
      </g>
     </g>
    </g>
    <g id="xtick_6">
     <g id="line2d_6">
      <g>
       <use xlink:href="#me96bee3b2a" x="269.424" y="307.584" style="stroke: #000000; stroke-width: 0.8"/>
      </g>
     </g>
     <g id="text_6">
      <!-- 10 -->
      <g transform="translate(263.0615 322.182437) scale(0.1 -0.1)">
       <use xlink:href="#DejaVuSans-31"/>
       <use xlink:href="#DejaVuSans-30" x="63.623047"/>
      </g>
     </g>
    </g>
    <g id="xtick_7">
     <g id="line2d_7">
      <g>
       <use xlink:href="#me96bee3b2a" x="302.688" y="307.584" style="stroke: #000000; stroke-width: 0.8"/>
      </g>
     </g>
     <g id="text_7">
      <!-- 20 -->
      <g transform="translate(296.3255 322.182437) scale(0.1 -0.1)">
       <use xlink:href="#DejaVuSans-32"/>
       <use xlink:href="#DejaVuSans-30" x="63.623047"/>
      </g>
     </g>
    </g>
    <g id="xtick_8">
     <g id="line2d_8">
      <g>
       <use xlink:href="#me96bee3b2a" x="335.952" y="307.584" style="stroke: #000000; stroke-width: 0.8"/>
      </g>
     </g>
     <g id="text_8">
      <!-- 30 -->
      <g transform="translate(329.5895 322.182437) scale(0.1 -0.1)">
       <use xlink:href="#DejaVuSans-33"/>
       <use xlink:href="#DejaVuSans-30" x="63.623047"/>
      </g>
     </g>
    </g>
    <g id="xtick_9">
     <g id="line2d_9">
      <g>
       <use xlink:href="#me96bee3b2a" x="369.216" y="307.584" style="stroke: #000000; stroke-width: 0.8"/>
      </g>
     </g>
     <g id="text_9">
      <!-- 40 -->
      <g transform="translate(362.8535 322.182437) scale(0.1 -0.1)">
       <use xlink:href="#DejaVuSans-34"/>
       <use xlink:href="#DejaVuSans-30" x="63.623047"/>
      </g>
     </g>
    </g>
   </g>
   <g id="matplotlib.axis_2">
    <g id="ytick_1">
     <g id="line2d_10">
      <defs>
       <path id="m2a972d6e03" d="M 0 0 
L -3.5 0 
" style="stroke: #000000; stroke-width: 0.8"/>
      </defs>
      <g>
       <use xlink:href="#m2a972d6e03" x="103.104" y="307.584" style="stroke: #000000; stroke-width: 0.8"/>
      </g>
     </g>
     <g id="text_10">
      <!-- −40 -->
      <g transform="translate(74.999313 311.383219) scale(0.1 -0.1)">
       <use xlink:href="#DejaVuSans-2212"/>
       <use xlink:href="#DejaVuSans-34" x="83.789062"/>
       <use xlink:href="#DejaVuSans-30" x="147.412109"/>
      </g>
     </g>
    </g>
    <g id="ytick_2">
     <g id="line2d_11">
      <g>
       <use xlink:href="#m2a972d6e03" x="103.104" y="274.32" style="stroke: #000000; stroke-width: 0.8"/>
      </g>
     </g>
     <g id="text_11">
      <!-- −30 -->
      <g transform="translate(74.999313 278.119219) scale(0.1 -0.1)">
       <use xlink:href="#DejaVuSans-2212"/>
       <use xlink:href="#DejaVuSans-33" x="83.789062"/>
       <use xlink:href="#DejaVuSans-30" x="147.412109"/>
      </g>
     </g>
    </g>
    <g id="ytick_3">
     <g id="line2d_12">
      <g>
       <use xlink:href="#m2a972d6e03" x="103.104" y="241.056" style="stroke: #000000; stroke-width: 0.8"/>
      </g>
     </g>
     <g id="text_12">
      <!-- −20 -->
      <g transform="translate(74.999313 244.855219) scale(0.1 -0.1)">
       <use xlink:href="#DejaVuSans-2212"/>
       <use xlink:href="#DejaVuSans-32" x="83.789062"/>
       <use xlink:href="#DejaVuSans-30" x="147.412109"/>
      </g>
     </g>
    </g>
    <g id="ytick_4">
     <g id="line2d_13">
      <g>
       <use xlink:href="#m2a972d6e03" x="103.104" y="207.792" style="stroke: #000000; stroke-width: 0.8"/>
      </g>
     </g>
     <g id="text_13">
      <!-- −10 -->
      <g transform="translate(74.999313 211.591219) scale(0.1 -0.1)">
       <use xlink:href="#DejaVuSans-2212"/>
       <use xlink:href="#DejaVuSans-31" x="83.789062"/>
       <use xlink:href="#DejaVuSans-30" x="147.412109"/>
      </g>
     </g>
    </g>
    <g id="ytick_5">
     <g id="line2d_14">
      <g>
       <use xlink:href="#m2a972d6e03" x="103.104" y="174.528" style="stroke: #000000; stroke-width: 0.8"/>
      </g>
     </g>
     <g id="text_14">
      <!-- 0 -->
      <g transform="translate(89.7415 178.327219) scale(0.1 -0.1)">
       <use xlink:href="#DejaVuSans-30"/>
      </g>
     </g>
    </g>
    <g id="ytick_6">
     <g id="line2d_15">
      <g>
       <use xlink:href="#m2a972d6e03" x="103.104" y="141.264" style="stroke: #000000; stroke-width: 0.8"/>
      </g>
     </g>
     <g id="text_15">
      <!-- 10 -->
      <g transform="translate(83.379 145.063219) scale(0.1 -0.1)">
       <use xlink:href="#DejaVuSans-31"/>
       <use xlink:href="#DejaVuSans-30" x="63.623047"/>
      </g>
     </g>
    </g>
    <g id="ytick_7">
     <g id="line2d_16">
      <g>
       <use xlink:href="#m2a972d6e03" x="103.104" y="108" style="stroke: #000000; stroke-width: 0.8"/>
      </g>
     </g>
     <g id="text_16">
      <!-- 20 -->
      <g transform="translate(83.379 111.799219) scale(0.1 -0.1)">
       <use xlink:href="#DejaVuSans-32"/>
       <use xlink:href="#DejaVuSans-30" x="63.623047"/>
      </g>
     </g>
    </g>
    <g id="ytick_8">
     <g id="line2d_17">
      <g>
       <use xlink:href="#m2a972d6e03" x="103.104" y="74.736" style="stroke: #000000; stroke-width: 0.8"/>
      </g>
     </g>
     <g id="text_17">
      <!-- 30 -->
      <g transform="translate(83.379 78.535219) scale(0.1 -0.1)">
       <use xlink:href="#DejaVuSans-33"/>
       <use xlink:href="#DejaVuSans-30" x="63.623047"/>
      </g>
     </g>
    </g>
    <g id="ytick_9">
     <g id="line2d_18">
      <g>
       <use xlink:href="#m2a972d6e03" x="103.104" y="41.472" style="stroke: #000000; stroke-width: 0.8"/>
      </g>
     </g>
     <g id="text_18">
      <!-- 40 -->
      <g transform="translate(83.379 45.271219) scale(0.1 -0.1)">
       <use xlink:href="#DejaVuSans-34"/>
       <use xlink:href="#DejaVuSans-30" x="63.623047"/>
      </g>
     </g>
    </g>
   </g>
   <g id="line2d_19">
    <path d="M 251.1288 346.6 
L 251.1288 189.4968 
" clip-path="url(#p44a9fd9475)" style="fill: none; stroke: #000000; stroke-width: 0.25; stroke-linecap: square"/>
   </g>
   <g id="line2d_20">
    <path d="M 251.1288 189.4968 
L 417.4488 189.4968 
" clip-path="url(#p44a9fd9475)" style="fill: none; stroke: #000000; stroke-width: 0.25; stroke-linecap: square"/>
   </g>
   <g id="line2d_21">
    <path d="M 417.4488 159.5592 
L 251.1288 159.5592 
" clip-path="url(#p44a9fd9475)" style="fill: none; stroke: #000000; stroke-width: 0.25; stroke-linecap: square"/>
   </g>
   <g id="line2d_22">
    <path d="M 251.1288 159.5592 
L 251.1288 -1 
" clip-path="url(#p44a9fd9475)" style="fill: none; stroke: #000000; stroke-width: 0.25; stroke-linecap: square"/>
   </g>
   <g id="line2d_23">
    <path d="M 221.1912 -1 
L 221.1912 159.5592 
" clip-path="url(#p44a9fd9475)" style="fill: none; stroke: #000000; stroke-width: 0.25; stroke-linecap: square"/>
   </g>
   <g id="line2d_24">
    <path d="M 221.1912 159.5592 
L 54.8712 159.5592 
" clip-path="url(#p44a9fd9475)" style="fill: none; stroke: #000000; stroke-width: 0.25; stroke-linecap: square"/>
   </g>
   <g id="line2d_25">
    <path d="M 54.8712 189.4968 
L 221.1912 189.4968 
" clip-path="url(#p44a9fd9475)" style="fill: none; stroke: #000000; stroke-width: 0.25; stroke-linecap: square"/>
   </g>
   <g id="line2d_26">
    <path d="M 221.1912 189.4968 
L 221.1912 346.6 
" clip-path="url(#p44a9fd9475)" style="fill: none; stroke: #000000; stroke-width: 0.25; stroke-linecap: square"/>
   </g>
   <g id="line2d_27">
    <path d="M 251.1288 174.528 
L 417.4488 174.528 
" clip-path="url(#p44a9fd9475)" style="fill: none; stroke-dasharray: 0.925,0.4; stroke-dashoffset: 0; stroke: #000000; stroke-width: 0.25"/>
   </g>
   <g id="line2d_28">
    <path d="M 236.16 159.5592 
L 236.16 -1 
" clip-path="url(#p44a9fd9475)" style="fill: none; stroke-dasharray: 0.925,0.4; stroke-dashoffset: 0; stroke: #000000; stroke-width: 0.25"/>
   </g>
   <g id="line2d_29">
    <path d="M 221.1912 174.528 
L 54.8712 174.528 
" clip-path="url(#p44a9fd9475)" style="fill: none; stroke-dasharray: 0.925,0.4; stroke-dashoffset: 0; stroke: #000000; stroke-width: 0.25"/>
   </g>
   <g id="line2d_30">
    <path d="M 236.16 189.4968 
L 236.16 346.6 
" clip-path="url(#p44a9fd9475)" style="fill: none; stroke-dasharray: 0.925,0.4; stroke-dashoffset: 0; stroke: #000000; stroke-width: 0.25"/>
   </g>
   <g id="line2d_31">
    <path d="M 245.773331 173.557385 
L 245.557144 171.550678 
L 245.032169 169.602682 
L 244.298819 167.72501 
L 243.545015 165.857995 
L 242.89457 163.955623 
L 242.381073 162.015463 
L 242.067144 160.037338 
L 241.977224 158.040922 
L 241.898844 156.048548 
L 241.89395 154.058981 
L 241.918989 152.073608 
L 241.962504 150.092304 
L 242.015733 148.1147 
L 242.072197 146.140368 
L 242.127342 144.168909 
L 242.178192 142.199982 
L 242.223024 140.233301 
L 242.261065 138.268627 
L 242.292223 136.305748 
L 242.316866 134.34447 
L 242.335643 132.384608 
L 242.349351 130.425986 
L 242.358837 128.468431 
L 242.364933 126.511775 
L 242.368417 124.555858 
L 242.369986 122.600527 
L 242.370237 120.645639 
L 242.369641 118.69106 
L 242.368502 116.736667 
L 242.366677 114.782349 
" clip-path="url(#p44a9fd9475)" style="fill: none; stroke: #ff0000; stroke-opacity: 0.2; stroke-width: 0.25; stroke-linecap: square"/>
   </g>
   <g id="line2d_32">
    <path d="M 245.773331 173.557385 
L 245.556321 171.550767 
L 245.031818 169.602659 
L 244.29836 167.725057 
L 243.545461 165.857716 
L 242.895958 163.955067 
L 242.383306 162.014731 
L 242.070109 160.036538 
L 241.980725 158.040145 
L 241.902638 156.047803 
L 241.897841 154.058278 
L 241.92291 152.072946 
L 241.966399 150.091681 
L 242.01956 148.114113 
L 242.075923 146.139816 
L 242.130942 144.168392 
L 242.181649 142.1995 
L 242.226325 140.232857 
L 242.264202 138.268223 
L 242.295192 136.305387 
L 242.319664 134.344157 
L 242.338271 132.384348 
L 242.351808 130.425782 
L 242.361123 128.468289 
L 242.367049 126.511701 
L 242.370359 124.555857 
L 242.37175 122.600606 
L 242.371815 120.645804 
L 242.37103 118.691318 
L 242.369712 116.737025 
L 242.367799 114.782813 
" clip-path="url(#p44a9fd9475)" style="fill: none; stroke: #ff0000; stroke-opacity: 0.4; stroke-width: 0.25; stroke-linecap: square"/>
   </g>
   <g id="line2d_33">
    <path d="M 245.773331 173.557385 
L 245.555364 171.55087 
L 245.033061 169.602181 
L 244.297249 167.725519 
L 243.544759 165.858038 
L 242.895694 163.955267 
L 242.383381 162.01487 
L 242.070423 160.036667 
L 241.981114 158.040295 
L 241.902971 156.047978 
L 241.897965 154.058472 
L 241.922799 152.073153 
L 241.966042 150.091896 
L 242.018955 148.114334 
L 242.075078 146.140042 
L 242.12987 144.168622 
L 242.180369 142.199735 
L 242.224862 140.233099 
L 242.262581 138.268474 
L 242.293441 136.30565 
L 242.317812 134.344434 
L 242.336344 132.384642 
L 242.349834 130.426098 
L 242.359127 128.468628 
L 242.365052 126.512068 
L 242.36838 124.556257 
L 242.369801 122.601042 
L 242.369907 120.646282 
L 242.36917 118.691842 
L 242.36792 116.737599 
L 242.366159 114.783443 
" clip-path="url(#p44a9fd9475)" style="fill: none; stroke: #ff0000; stroke-opacity: 0.6; stroke-width: 0.25; stroke-linecap: square"/>
   </g>
   <g id="line2d_34">
    <path d="M 245.773331 173.557385 
L 245.55171 171.551271 
L 245.0287 169.602788 
L 244.291259 167.726794 
L 243.541045 165.858436 
L 242.89429 163.954921 
L 242.383759 162.014097 
L 242.072094 160.035729 
L 241.983368 158.039364 
L 241.905394 156.047068 
L 241.899982 154.057584 
L 241.92434 152.072276 
L 241.967084 150.09102 
L 242.019509 148.113454 
L 242.075184 146.139156 
L 242.12959 144.167733 
L 242.179775 142.198846 
L 242.224033 140.232215 
L 242.2616 138.2676 
L 242.292385 136.304792 
L 242.316753 134.343598 
L 242.335347 132.383835 
L 242.348952 130.425327 
L 242.358402 128.467903 
L 242.36451 126.511396 
L 242.368034 124.555648 
L 242.369647 122.600507 
L 242.369928 120.645832 
L 242.369355 118.691489 
L 242.368296 116.737356 
L 242.366955 114.78332 
" clip-path="url(#p44a9fd9475)" style="fill: none; stroke: #ff0000; stroke-opacity: 0.8; stroke-width: 0.25; stroke-linecap: square"/>
   </g>
   <g id="line2d_35">
    <path d="M 245.773331 173.557385 
L 245.551229 171.551324 
L 245.02779 169.602961 
L 244.29037 167.726968 
L 243.540541 165.858468 
L 242.894154 163.954842 
L 242.383885 162.013966 
L 242.072388 160.035587 
L 241.983695 158.039237 
L 241.905742 156.046955 
L 241.900246 154.057486 
L 241.924517 152.072191 
L 241.967178 150.090946 
L 242.019531 148.113391 
L 242.075148 146.139105 
L 242.129512 144.167692 
L 242.179674 142.198817 
L 242.223927 140.232198 
L 242.261505 138.267595 
L 242.292317 136.3048 
L 242.316725 134.343619 
L 242.33537 132.383869 
L 242.349035 130.425375 
L 242.358549 128.467965 
L 242.364724 126.511472 
L 242.368315 124.55574 
L 242.369992 122.600615 
L 242.370334 120.645957 
L 242.369817 118.691632 
L 242.368817 116.737518 
L 242.367562 114.783502 
" clip-path="url(#p44a9fd9475)" style="fill: none; stroke: #ff0000; stroke-width: 0.25; stroke-linecap: square"/>
   </g>
   <g id="line2d_36">
    <path d="M 235.623254 163.924532 
L 233.663252 164.326929 
L 231.760757 164.944429 
L 229.864084 165.576587 
L 227.946077 166.136875 
L 226.011328 166.631572 
L 224.061705 167.058195 
L 222.099499 167.415535 
L 220.127588 167.705937 
L 218.148907 167.934846 
L 216.166011 168.109625 
L 214.180875 168.238413 
L 212.194888 168.3293 
L 210.208949 168.389825 
L 208.223589 168.426714 
L 206.239082 168.445777 
L 204.255538 168.451894 
L 202.272966 168.449054 
L 200.291322 168.440427 
L 198.310535 168.428455 
L 196.330523 168.414952 
L 194.351201 168.401202 
L 192.372487 168.388052 
L 190.394301 168.376006 
L 188.416565 168.365299 
L 186.439205 168.355962 
L 184.462148 168.34788 
L 182.485324 168.340845 
L 180.508668 168.334593 
L 178.532116 168.328865 
L 176.55561 168.323476 
" clip-path="url(#p44a9fd9475)" style="fill: none; stroke: #ff0000; stroke-opacity: 0.2; stroke-width: 0.25; stroke-linecap: square"/>
   </g>
   <g id="line2d_37">
    <path d="M 235.623254 163.924532 
L 233.663224 164.326794 
L 231.760631 164.944004 
L 229.863943 165.576134 
L 227.945897 166.136308 
L 226.01112 166.630922 
L 224.061476 167.057492 
L 222.099258 167.414807 
L 220.127338 167.70521 
L 218.148651 167.934141 
L 216.16575 168.108958 
L 214.180609 168.237795 
L 212.194617 168.328735 
L 210.208673 168.389312 
L 208.223307 168.426249 
L 206.238796 168.445351 
L 204.255247 168.451498 
L 202.272673 168.448677 
L 200.291028 168.440059 
L 198.310242 168.428087 
L 196.330232 168.414576 
L 194.350915 168.400811 
L 192.372209 168.387647 
L 190.394032 168.375588 
L 188.416307 168.364872 
L 186.438961 168.355536 
L 184.461921 168.347468 
L 182.485116 168.340463 
L 180.508481 168.334257 
L 178.531953 168.328585 
L 176.555473 168.323237 
" clip-path="url(#p44a9fd9475)" style="fill: none; stroke: #ff0000; stroke-opacity: 0.4; stroke-width: 0.25; stroke-linecap: square"/>
   </g>
   <g id="line2d_38">
    <path d="M 235.623254 163.924532 
L 233.6638 164.32959 
L 231.760654 164.9451 
L 229.863981 165.577284 
L 227.94592 166.137418 
L 226.011131 166.632006 
L 224.061481 167.058561 
L 222.099257 167.415873 
L 220.127334 167.706282 
L 218.148644 167.935228 
L 216.16574 168.110062 
L 214.180596 168.238916 
L 212.194601 168.329868 
L 210.208654 168.390448 
L 208.223286 168.427376 
L 206.238772 168.446459 
L 204.255223 168.452572 
L 202.272649 168.449703 
L 200.291006 168.441025 
L 198.310223 168.428983 
L 196.330218 168.415393 
L 194.350908 168.401545 
L 192.372209 168.388294 
L 190.394042 168.37615 
L 188.416329 168.365354 
L 186.438995 168.355945 
L 184.46197 168.347817 
L 182.485182 168.340763 
L 180.508566 168.334524 
L 178.532058 168.328826 
L 176.555599 168.323439 
" clip-path="url(#p44a9fd9475)" style="fill: none; stroke: #ff0000; stroke-opacity: 0.6; stroke-width: 0.25; stroke-linecap: square"/>
   </g>
   <g id="line2d_39">
    <path d="M 235.623254 163.924532 
L 233.664022 164.33066 
L 231.760733 164.945745 
L 229.86409 165.578039 
L 227.945935 166.137881 
L 226.01108 166.632248 
L 224.061384 167.05864 
L 222.09913 167.41585 
L 220.127188 167.706216 
L 218.148487 167.935168 
L 216.165575 168.110042 
L 214.180423 168.238954 
L 212.194419 168.329966 
L 210.208463 168.390596 
L 208.223086 168.427554 
L 206.238565 168.44664 
L 204.255009 168.452727 
L 202.272431 168.449805 
L 200.290787 168.441049 
L 198.310005 168.428908 
L 196.330004 168.415209 
L 194.350701 168.401248 
L 192.372012 168.387891 
L 190.393859 168.375656 
L 188.416163 168.364794 
L 186.438851 168.355354 
L 184.46185 168.347235 
L 182.48509 168.340236 
L 180.508507 168.334092 
L 178.532035 168.328511 
L 176.555617 168.323195 
" clip-path="url(#p44a9fd9475)" style="fill: none; stroke: #ff0000; stroke-opacity: 0.8; stroke-width: 0.25; stroke-linecap: square"/>
   </g>
   <g id="line2d_40">
    <path d="M 235.623254 163.924532 
L 233.663948 164.330304 
L 231.760701 164.945518 
L 229.864055 165.577806 
L 227.94588 166.137576 
L 226.011012 166.631888 
L 224.061308 167.058241 
L 222.099051 167.415426 
L 220.127109 167.705783 
L 218.14841 167.934736 
L 216.165501 168.109623 
L 214.180352 168.238553 
L 212.194352 168.329588 
L 210.2084 168.390242 
L 208.223027 168.427224 
L 206.238509 168.446334 
L 204.254957 168.452443 
L 202.272383 168.449541 
L 200.290743 168.440803 
L 198.309965 168.428682 
L 196.329969 168.415002 
L 194.350671 168.401063 
L 192.371987 168.38773 
L 190.393839 168.375523 
L 188.416149 168.364694 
L 186.438843 168.355292 
L 184.461848 168.347218 
L 182.485095 168.34027 
L 180.508518 168.334183 
L 178.532054 168.32866 
L 176.555643 168.323398 
" clip-path="url(#p44a9fd9475)" style="fill: none; stroke: #ff0000; stroke-width: 0.25; stroke-linecap: square"/>
   </g>
   <g id="line2d_41">
    <path d="M 234.177338 176.078965 
L 235.778796 177.342409 
L 237.511314 178.418292 
L 239.352173 179.29399 
L 241.277493 179.959659 
L 243.263249 180.405659 
L 245.283889 180.627407 
L 247.31368 180.622918 
L 249.333181 180.456905 
L 251.354757 180.401605 
L 253.372636 180.422711 
L 255.385019 180.49031 
L 257.392854 180.56438 
L 259.397166 180.625006 
L 261.398194 180.672663 
L 263.396162 180.708544 
L 265.391297 180.734173 
L 267.383837 180.751279 
L 269.374027 180.761606 
L 271.362119 180.766723 
L 273.348362 180.768084 
L 275.333001 180.766878 
L 277.316272 180.764057 
L 279.298396 180.760302 
L 281.279584 180.756083 
L 283.260029 180.751671 
L 285.239911 180.747202 
L 287.219393 180.742711 
L 289.198621 180.738158 
L 291.177719 180.733407 
L 293.156778 180.728357 
" clip-path="url(#p44a9fd9475)" style="fill: none; stroke: #ff0000; stroke-opacity: 0.2; stroke-width: 0.25; stroke-linecap: square"/>
   </g>
   <g id="line2d_42">
    <path d="M 234.177338 176.078965 
L 235.778583 177.34268 
L 237.510919 178.418857 
L 239.351706 179.294709 
L 241.277037 179.960352 
L 243.262799 180.40634 
L 245.283447 180.628052 
L 247.313242 180.623512 
L 249.332733 180.457362 
L 251.354309 180.401989 
L 253.372189 180.423006 
L 255.384571 180.490519 
L 257.392402 180.564501 
L 259.396706 180.625008 
L 261.397721 180.672523 
L 263.395669 180.708243 
L 265.390777 180.733701 
L 267.383282 180.750631 
L 269.373429 180.76078 
L 271.361468 180.765719 
L 273.34765 180.766905 
L 275.332219 180.765529 
L 277.315408 180.76254 
L 279.297441 180.758624 
L 281.278527 180.754252 
L 283.25886 180.749695 
L 285.23862 180.745094 
L 287.217969 180.740486 
L 289.197054 180.735833 
L 291.176001 180.731006 
L 293.154902 180.725906 
" clip-path="url(#p44a9fd9475)" style="fill: none; stroke: #ff0000; stroke-opacity: 0.4; stroke-width: 0.25; stroke-linecap: square"/>
   </g>
   <g id="line2d_43">
    <path d="M 234.177338 176.078965 
L 235.777619 177.343899 
L 237.50869 178.422117 
L 239.348758 179.299493 
L 241.274315 179.964507 
L 243.260153 180.410212 
L 245.280877 180.631355 
L 247.310687 180.626028 
L 249.330172 180.459571 
L 251.351761 180.403968 
L 253.369663 180.424758 
L 255.382072 180.49207 
L 257.389927 180.56587 
L 259.394253 180.626185 
L 261.395286 180.673504 
L 263.393246 180.709032 
L 265.388361 180.734305 
L 267.380867 180.751063 
L 269.371007 180.761056 
L 271.359034 180.765856 
L 273.345195 180.76692 
L 275.329735 180.76544 
L 277.312888 180.762366 
L 279.294875 180.758383 
L 281.275906 180.753962 
L 283.256175 180.749376 
L 285.23586 180.744767 
L 287.215126 180.740174 
L 289.19412 180.73556 
L 291.172967 180.730798 
L 293.151764 180.725792 
" clip-path="url(#p44a9fd9475)" style="fill: none; stroke: #ff0000; stroke-opacity: 0.6; stroke-width: 0.25; stroke-linecap: square"/>
   </g>
   <g id="line2d_44">
    <path d="M 234.177338 176.078965 
L 235.777449 177.344115 
L 237.508197 178.422859 
L 239.348066 179.300674 
L 241.273739 179.965398 
L 243.259635 180.410928 
L 245.280415 180.631788 
L 247.310252 180.626084 
L 249.32975 180.459401 
L 251.35137 180.403651 
L 253.36931 180.424301 
L 255.381759 180.491505 
L 257.389655 180.565218 
L 259.394019 180.625444 
L 261.395088 180.672675 
L 263.393081 180.708122 
L 265.388225 180.733326 
L 267.380755 180.750031 
L 269.370915 180.759989 
L 271.358954 180.764774 
L 273.345123 180.765844 
L 275.329663 180.764388 
L 277.312809 180.761358 
L 279.294782 180.757437 
L 281.27579 180.753097 
L 283.256027 180.748612 
L 285.235673 180.744125 
L 287.214891 180.739675 
L 289.193828 180.735228 
L 291.172613 180.730658 
L 293.151342 180.725872 
" clip-path="url(#p44a9fd9475)" style="fill: none; stroke: #ff0000; stroke-opacity: 0.8; stroke-width: 0.25; stroke-linecap: square"/>
   </g>
   <g id="line2d_45">
    <path d="M 234.177338 176.078965 
L 235.778117 177.34327 
L 237.509809 178.420502 
L 239.350192 179.297245 
L 241.275607 179.96273 
L 243.261415 180.408686 
L 245.282137 180.630158 
L 247.311987 180.625178 
L 249.331513 180.458683 
L 251.353152 180.40318 
L 253.371103 180.424056 
L 255.383557 180.491482 
L 257.391457 180.565409 
L 259.395827 180.625816 
L 261.3969 180.673201 
L 263.394896 180.708782 
L 265.39004 180.734106 
L 267.382566 180.750921 
L 269.372718 180.760983 
L 271.360745 180.76587 
L 273.346894 180.767038 
L 275.331409 180.76568 
L 277.314522 180.762745 
L 279.296456 180.758921 
L 281.277417 180.754678 
L 283.257599 180.750295 
L 285.237181 180.745916 
L 287.216328 180.741582 
L 289.195186 180.737262 
L 291.173885 180.732836 
L 293.152525 180.728214 
" clip-path="url(#p44a9fd9475)" style="fill: none; stroke: #ff0000; stroke-width: 0.25; stroke-linecap: square"/>
   </g>
   <g id="line2d_46">
    <path d="M 228.548101 187.758342 
L 229.35945 189.303379 
L 230.019926 190.920051 
L 230.523224 192.593928 
L 230.864508 194.309954 
L 231.041224 196.052544 
L 231.048569 197.806074 
L 230.96368 199.559664 
L 230.871039 201.315019 
L 230.770357 203.072123 
L 230.665651 204.831196 
L 230.561778 206.592515 
L 230.462816 208.356283 
L 230.371679 210.122591 
L 230.290143 211.89142 
L 230.219033 213.662669 
L 230.158432 215.436184 
L 230.107902 217.211782 
L 230.066655 218.989271 
L 230.033708 220.768456 
L 230.007988 222.549152 
L 229.98842 224.331179 
L 229.973968 226.114367 
L 229.963669 227.898551 
L 229.956653 229.683577 
L 229.952149 231.469293 
L 229.949503 233.255556 
L 229.948177 235.042231 
L 229.947766 236.829187 
L 229.948046 238.616306 
L 229.949339 240.403485 
" clip-path="url(#p44a9fd9475)" style="fill: none; stroke: #ff0000; stroke-opacity: 0.2; stroke-width: 0.25; stroke-linecap: square"/>
   </g>
   <g id="line2d_47">
    <path d="M 228.548101 187.758342 
L 229.359519 189.303343 
L 230.020044 190.919989 
L 230.523365 192.593848 
L 230.86463 194.309863 
L 231.041174 196.052451 
L 231.048456 197.805958 
L 230.96353 199.559522 
L 230.870884 201.31485 
L 230.770195 203.071926 
L 230.66548 204.830971 
L 230.561597 206.592262 
L 230.462622 208.356003 
L 230.371468 210.122285 
L 230.289911 211.891091 
L 230.218775 213.66232 
L 230.158143 215.435819 
L 230.107576 217.211406 
L 230.066288 218.988887 
L 230.033294 220.768072 
L 230.007525 222.548772 
L 229.987906 224.33081 
L 229.973403 226.114015 
L 229.963054 227.898224 
L 229.955991 229.683281 
L 229.951445 231.469037 
L 229.948761 233.255347 
L 229.947403 235.042075 
L 229.946957 236.829092 
L 229.947185 238.616278 
L 229.948352 240.40353 
" clip-path="url(#p44a9fd9475)" style="fill: none; stroke: #ff0000; stroke-opacity: 0.4; stroke-width: 0.25; stroke-linecap: square"/>
   </g>
   <g id="line2d_48">
    <path d="M 228.548101 187.758342 
L 229.360541 189.302806 
L 230.021879 190.919115 
L 230.525779 192.592791 
L 230.867134 194.308777 
L 231.041737 196.051547 
L 231.049038 197.805038 
L 230.963988 199.558579 
L 230.871256 201.313884 
L 230.770488 203.070937 
L 230.665703 204.82996 
L 230.561757 206.591231 
L 230.462728 208.354954 
L 230.371527 210.121221 
L 230.289929 211.890015 
L 230.218756 213.661236 
L 230.158092 215.434731 
L 230.107495 217.210318 
L 230.066181 218.987804 
L 230.033167 220.766999 
L 230.00738 222.547715 
L 229.98775 224.329775 
L 229.973242 226.113008 
L 229.962895 227.897252 
L 229.955843 229.68235 
L 229.951317 231.468153 
L 229.948664 233.254517 
L 229.947343 235.041306 
L 229.946937 236.828389 
L 229.947192 238.615648 
L 229.948317 240.402976 
" clip-path="url(#p44a9fd9475)" style="fill: none; stroke: #ff0000; stroke-opacity: 0.6; stroke-width: 0.25; stroke-linecap: square"/>
   </g>
   <g id="line2d_49">
    <path d="M 228.548101 187.758342 
L 229.360911 189.302611 
L 230.022544 190.918797 
L 230.526655 192.592405 
L 230.868045 194.308376 
L 231.041943 196.051207 
L 231.049207 197.804689 
L 230.964113 199.558217 
L 230.871372 201.313511 
L 230.770597 203.070554 
L 230.665808 204.829567 
L 230.561864 206.590829 
L 230.462839 208.354546 
L 230.371643 210.12081 
L 230.290052 211.889603 
L 230.218887 213.660826 
L 230.158229 215.434326 
L 230.10764 217.209922 
L 230.066332 218.987423 
L 230.033324 220.766636 
L 230.007545 222.547375 
L 229.987924 224.329463 
L 229.973428 226.112731 
L 229.963097 227.897014 
L 229.956065 229.682157 
L 229.951567 231.468011 
L 229.948948 233.254433 
L 229.947667 235.041284 
L 229.9473 236.828436 
L 229.947579 238.615769 
L 229.948666 240.403175 
" clip-path="url(#p44a9fd9475)" style="fill: none; stroke: #ff0000; stroke-opacity: 0.8; stroke-width: 0.25; stroke-linecap: square"/>
   </g>
   <g id="line2d_50">
    <path d="M 228.548101 187.758342 
L 229.36008 189.303049 
L 230.021062 190.919497 
L 230.52472 192.593235 
L 230.866067 194.309207 
L 231.041583 196.051866 
L 231.048775 197.805336 
L 230.963793 199.558856 
L 230.871188 201.314143 
L 230.770537 203.071179 
L 230.665864 204.830185 
L 230.562024 206.591439 
L 230.463094 208.355149 
L 230.371982 210.121405 
L 230.290464 211.890191 
L 230.21936 213.66141 
L 230.158752 215.434907 
L 230.1082 217.210502 
L 230.06692 218.988005 
L 230.033929 220.767223 
L 230.00816 222.547972 
L 229.988541 224.330074 
L 229.974042 226.113359 
L 229.963704 227.897666 
L 229.956665 229.682837 
L 229.952159 231.468725 
L 229.949533 233.255184 
L 229.948245 235.042079 
L 229.947868 236.82928 
L 229.948121 238.616665 
L 229.949123 240.404127 
" clip-path="url(#p44a9fd9475)" style="fill: none; stroke: #ff0000; stroke-width: 0.25; stroke-linecap: square"/>
   </g>
   <g id="line2d_51">
    <path d="M 242.582041 206.939679 
L 242.591977 204.975233 
L 242.587516 203.008598 
L 242.559774 201.039603 
L 242.499229 199.068384 
L 242.243948 197.109405 
L 241.909454 195.158476 
L 241.547623 193.208029 
L 241.179806 191.253788 
L 241.136964 189.260342 
L 241.578769 187.31015 
L 242.234391 185.414961 
L 243.096361 183.598074 
L 244.155501 181.882394 
L 245.263566 180.191982 
L 245.942012 178.283236 
L 246.081049 176.258325 
L 245.992451 174.227345 
L 245.678959 172.216155 
L 245.143727 170.250229 
L 244.430864 168.3399 
L 243.80182 166.399235 
L 243.248594 164.434939 
L 242.798333 162.444254 
L 242.499269 160.425409 
L 242.336694 158.391316 
L 242.249075 156.352932 
L 242.202037 154.313463 
L 242.1819 152.273744 
L 242.176592 150.23406 
L 242.176693 148.194431 
" clip-path="url(#p44a9fd9475)" style="fill: none; stroke: #ff0000; stroke-opacity: 0.2; stroke-width: 0.25; stroke-linecap: square"/>
   </g>
   <g id="line2d_52">
    <path d="M 242.582041 206.939679 
L 242.591218 204.97523 
L 242.586306 203.008665 
L 242.558138 201.039814 
L 242.497245 199.068814 
L 242.24193 197.110119 
L 241.907651 195.159507 
L 241.546238 193.209408 
L 241.179074 191.255543 
L 241.136624 189.262649 
L 241.579103 187.313256 
L 242.232958 185.418198 
L 243.093511 183.601487 
L 244.151762 181.886236 
L 245.26254 180.198676 
L 245.945711 178.29263 
L 246.086216 176.26883 
L 246.001614 174.238733 
L 245.690396 172.228295 
L 245.156731 170.263101 
L 244.45014 168.351652 
L 243.827719 166.41005 
L 243.27999 164.445388 
L 242.832293 162.455263 
L 242.533363 160.43749 
L 242.368308 158.404641 
L 242.274745 156.367521 
L 242.221462 154.329172 
L 242.19511 152.290467 
L 242.183799 150.251735 
L 242.176954 148.213039 
" clip-path="url(#p44a9fd9475)" style="fill: none; stroke: #ff0000; stroke-opacity: 0.4; stroke-width: 0.25; stroke-linecap: square"/>
   </g>
   <g id="line2d_53">
    <path d="M 242.582041 206.939679 
L 242.591076 204.975229 
L 242.586188 203.008662 
L 242.558057 201.039807 
L 242.497208 199.068802 
L 242.241974 197.110093 
L 241.907768 195.159466 
L 241.546366 193.209367 
L 241.179116 191.255522 
L 241.136214 189.262646 
L 241.577066 187.312899 
L 242.232757 185.418496 
L 243.094276 183.602274 
L 244.152776 181.887217 
L 245.263804 180.199873 
L 245.947446 178.294051 
L 246.089639 176.270434 
L 246.004413 174.24044 
L 245.694816 172.229845 
L 245.162979 170.264265 
L 244.457272 168.352614 
L 243.835603 166.410902 
L 243.288327 164.446251 
L 242.840523 162.456286 
L 242.541133 160.438717 
L 242.375048 158.406084 
L 242.279852 156.36917 
L 242.225064 154.33099 
L 242.197342 152.292431 
L 242.184774 150.253834 
L 242.176676 148.215268 
" clip-path="url(#p44a9fd9475)" style="fill: none; stroke: #ff0000; stroke-opacity: 0.6; stroke-width: 0.25; stroke-linecap: square"/>
   </g>
   <g id="line2d_54">
    <path d="M 242.582041 206.939679 
L 242.590941 204.975228 
L 242.586163 203.008682 
L 242.558169 201.039868 
L 242.497476 199.068923 
L 242.242164 197.110314 
L 241.907841 195.159822 
L 241.546242 193.2099 
L 241.178696 191.256279 
L 241.13518 189.263608 
L 241.574938 187.31384 
L 242.230556 185.419678 
L 243.091549 183.603519 
L 244.14924 181.888338 
L 245.260886 180.201827 
L 245.946774 178.297228 
L 246.089675 176.274088 
L 246.004874 174.244534 
L 245.695636 172.234369 
L 245.163548 170.269375 
L 244.461725 168.356843 
L 243.843747 166.414502 
L 243.299939 164.449434 
L 242.854969 162.459372 
L 242.557293 160.442075 
L 242.391221 158.409954 
L 242.294503 156.373612 
L 242.238019 154.33597 
L 242.20851 152.297921 
L 242.194113 150.259818 
L 242.18416 148.22174 
" clip-path="url(#p44a9fd9475)" style="fill: none; stroke: #ff0000; stroke-opacity: 0.8; stroke-width: 0.25; stroke-linecap: square"/>
   </g>
   <g id="line2d_55">
    <path d="M 242.582041 206.939679 
L 242.590968 204.975228 
L 242.586315 203.008688 
L 242.558478 201.039884 
L 242.497971 199.068951 
L 242.242781 197.110349 
L 241.908591 195.15986 
L 241.547119 193.209943 
L 241.17969 191.256329 
L 241.13627 189.263687 
L 241.576812 187.314128 
L 242.232378 185.419981 
L 243.0937 183.604012 
L 244.152075 181.889287 
L 245.26443 180.203278 
L 245.951284 178.299058 
L 246.094842 176.275993 
L 246.0112 174.24642 
L 245.702494 172.236206 
L 245.17065 170.271182 
L 244.46934 168.358501 
L 243.851649 166.416109 
L 243.307892 164.451068 
L 242.862644 162.461109 
L 242.564254 160.443956 
L 242.39691 158.411975 
L 242.298517 156.375747 
L 242.24028 154.338187 
L 242.20897 152.300196 
L 242.192743 150.262137 
L 242.180944 148.224099 
" clip-path="url(#p44a9fd9475)" style="fill: none; stroke: #ff0000; stroke-width: 0.25; stroke-linecap: square"/>
   </g>
   <g id="line2d_56">
    <path d="M 266.92368 167.902294 
L 264.915817 167.912962 
L 262.903373 167.964715 
L 260.887678 168.073982 
L 258.871667 168.259535 
L 256.860751 168.542601 
L 254.853585 168.89159 
L 252.819416 169.092396 
L 250.769549 169.030066 
L 248.733987 168.731874 
L 246.692477 168.432981 
L 244.626289 168.330749 
L 242.561185 168.517917 
L 240.58152 169.148858 
L 238.690666 170.018542 
L 236.908872 171.099446 
L 235.260451 172.377967 
L 233.767665 173.83761 
L 232.449689 175.45891 
L 231.324392 177.221141 
L 230.408448 179.101996 
L 229.715123 181.076643 
L 229.253321 183.11836 
L 229.028946 185.199736 
L 229.045019 187.292946 
L 229.176401 189.381644 
L 229.267614 191.471925 
L 229.379383 193.560751 
L 229.509935 195.648172 
L 229.656441 197.734356 
L 229.833017 199.818149 
" clip-path="url(#p44a9fd9475)" style="fill: none; stroke: #ff0000; stroke-opacity: 0.2; stroke-width: 0.25; stroke-linecap: square"/>
   </g>
   <g id="line2d_57">
    <path d="M 266.92368 167.902294 
L 264.91582 167.913609 
L 262.903396 167.965464 
L 260.887744 168.074707 
L 258.871799 168.260102 
L 256.86097 168.542872 
L 254.853926 168.891497 
L 252.819983 169.092083 
L 250.770421 169.030062 
L 248.735102 168.732871 
L 246.693866 168.435263 
L 244.628188 168.33353 
L 242.563603 168.519648 
L 240.583443 169.146748 
L 238.692405 170.014187 
L 236.910322 171.092978 
L 235.261381 172.369314 
L 233.767912 173.826819 
L 232.45075 175.447383 
L 231.32768 177.209662 
L 230.412949 179.08974 
L 229.71821 181.062517 
L 229.253418 183.102167 
L 229.025193 185.181708 
L 229.036514 187.273495 
L 229.167653 189.360714 
L 229.259626 191.449436 
L 229.37382 193.536576 
L 229.506543 195.622274 
L 229.652599 197.70687 
L 229.81899 199.789855 
" clip-path="url(#p44a9fd9475)" style="fill: none; stroke: #ff0000; stroke-opacity: 0.4; stroke-width: 0.25; stroke-linecap: square"/>
   </g>
   <g id="line2d_58">
    <path d="M 266.92368 167.902294 
L 264.91582 167.913583 
L 262.903407 167.96527 
L 260.88777 168.07427 
L 258.871841 168.25934 
L 256.861014 168.541699 
L 254.85396 168.889829 
L 252.820052 169.089858 
L 250.770613 169.027249 
L 248.735501 168.729457 
L 246.694492 168.431213 
L 244.629001 168.328637 
L 242.564468 168.513557 
L 240.583931 169.138898 
L 238.692378 170.00478 
L 236.909481 171.081853 
L 235.25937 172.356352 
L 233.764381 173.812002 
L 232.445273 175.430709 
L 231.319975 177.191306 
L 230.402841 179.069964 
L 229.705652 181.041633 
L 229.238497 183.080504 
L 229.008154 185.159573 
L 229.01786 187.25113 
L 229.148121 189.338163 
L 229.23955 191.426667 
L 229.353621 193.513571 
L 229.486324 195.599026 
L 229.632114 197.683394 
L 229.796959 199.766253 
" clip-path="url(#p44a9fd9475)" style="fill: none; stroke: #ff0000; stroke-opacity: 0.6; stroke-width: 0.25; stroke-linecap: square"/>
   </g>
   <g id="line2d_59">
    <path d="M 266.92368 167.902294 
L 264.915822 167.913843 
L 262.903433 167.965744 
L 260.887848 168.074976 
L 258.871998 168.260287 
L 256.861283 168.542889 
L 254.854367 168.891263 
L 252.820597 169.091555 
L 250.771277 169.029278 
L 248.736251 168.731894 
L 246.69534 168.434088 
L 244.630007 168.331813 
L 242.565662 168.516763 
L 240.585188 169.14165 
L 238.694305 170.008495 
L 236.912167 171.086408 
L 235.263001 172.361765 
L 233.76904 173.818141 
L 232.449744 175.436393 
L 231.32292 177.19573 
L 230.404481 179.073479 
L 229.70747 181.044949 
L 229.241121 183.083748 
L 229.011591 185.162652 
L 229.022012 187.253952 
L 229.153701 189.34064 
L 229.246885 191.428813 
L 229.363096 193.515346 
L 229.498002 195.600406 
L 229.64574 197.684381 
L 229.811329 199.766922 
" clip-path="url(#p44a9fd9475)" style="fill: none; stroke: #ff0000; stroke-opacity: 0.8; stroke-width: 0.25; stroke-linecap: square"/>
   </g>
   <g id="line2d_60">
    <path d="M 266.92368 167.902294 
L 264.915822 167.91385 
L 262.903442 167.96562 
L 260.887871 168.074647 
L 258.872033 168.259667 
L 256.861313 168.541884 
L 254.854379 168.889783 
L 252.82063 169.089523 
L 250.771415 169.026629 
L 248.736588 168.728567 
L 246.695896 168.430003 
L 244.630733 168.326727 
L 242.566393 168.510272 
L 240.585424 169.133125 
L 238.694166 169.998799 
L 236.911539 171.075608 
L 235.261857 172.350038 
L 233.767341 173.805614 
L 232.44701 175.422812 
L 231.318528 177.18089 
L 230.398462 179.057658 
L 229.700318 181.02855 
L 229.23286 183.066923 
L 229.001909 185.145502 
L 229.010442 187.236643 
L 229.141664 189.323197 
L 229.234761 191.411211 
L 229.351287 193.497567 
L 229.486587 195.582441 
L 229.634493 197.666243 
L 229.799125 199.748697 
" clip-path="url(#p44a9fd9475)" style="fill: none; stroke: #ff0000; stroke-width: 0.25; stroke-linecap: square"/>
   </g>
   <g id="line2d_61">
    <path d="M 230.487079 138.205034 
L 230.598262 139.97525 
L 230.714546 141.741714 
L 230.832197 143.504605 
L 230.94399 145.264355 
L 231.039672 147.021511 
L 231.105212 148.776504 
L 231.121832 150.529118 
L 231.064595 152.277393 
L 231.027376 154.022796 
L 230.856965 155.756944 
L 230.482957 157.455598 
L 229.795377 159.050008 
L 228.960228 160.569121 
L 227.986192 162.000003 
L 226.882488 163.330326 
L 225.659015 164.548349 
L 224.327646 165.644402 
L 222.90009 166.608894 
L 221.388961 167.433401 
L 219.80769 168.110847 
L 218.170317 168.635474 
L 216.4913 169.002498 
L 214.785687 169.20944 
L 213.068628 169.256165 
L 211.353555 169.167276 
L 209.638775 169.077356 
L 207.924615 168.979179 
L 206.211041 168.872962 
L 204.498137 168.757278 
L 202.786741 168.621349 
" clip-path="url(#p44a9fd9475)" style="fill: none; stroke: #ff0000; stroke-opacity: 0.2; stroke-width: 0.25; stroke-linecap: square"/>
   </g>
   <g id="line2d_62">
    <path d="M 230.487079 138.205034 
L 230.598358 139.975244 
L 230.714596 141.741704 
L 230.832183 143.504587 
L 230.943891 145.264325 
L 231.039465 147.021464 
L 231.104871 148.776436 
L 231.121322 150.52902 
L 231.063873 152.277254 
L 231.026347 154.022613 
L 230.855547 155.756683 
L 230.481024 157.45518 
L 229.793056 159.049374 
L 228.957567 160.568249 
L 227.983169 161.998828 
L 226.879075 163.328766 
L 225.655276 164.546392 
L 224.323577 165.641967 
L 222.895714 166.605917 
L 221.384323 167.429839 
L 219.802845 168.106675 
L 218.16533 168.630695 
L 216.486297 168.997407 
L 214.780697 169.204045 
L 213.06369 169.250805 
L 211.348639 169.162509 
L 209.633904 169.072743 
L 207.91981 168.974343 
L 206.206309 168.867854 
L 204.49344 168.752508 
L 202.781908 168.619042 
" clip-path="url(#p44a9fd9475)" style="fill: none; stroke: #ff0000; stroke-opacity: 0.4; stroke-width: 0.25; stroke-linecap: square"/>
   </g>
   <g id="line2d_63">
    <path d="M 230.487079 138.205034 
L 230.598561 139.975231 
L 230.714898 141.741684 
L 230.832599 143.504559 
L 230.944435 145.264287 
L 231.04015 147.021417 
L 231.105703 148.776381 
L 231.122305 150.528962 
L 231.065 152.277199 
L 231.027509 154.022557 
L 230.856695 155.756623 
L 230.482069 157.455096 
L 229.793924 159.049213 
L 228.95876 160.568265 
L 227.984399 161.998869 
L 226.880179 163.328701 
L 225.656695 164.546644 
L 224.324714 165.641877 
L 222.896511 166.605324 
L 221.385005 167.42904 
L 219.803663 168.106198 
L 218.166453 168.631173 
L 216.4878 168.999634 
L 214.782404 169.207956 
L 213.065379 169.254091 
L 211.35028 169.166724 
L 209.635521 169.077425 
L 207.921426 168.979099 
L 206.207927 168.872615 
L 204.495026 168.757811 
L 202.78331 168.626814 
" clip-path="url(#p44a9fd9475)" style="fill: none; stroke: #ff0000; stroke-opacity: 0.6; stroke-width: 0.25; stroke-linecap: square"/>
   </g>
   <g id="line2d_64">
    <path d="M 230.487079 138.205034 
L 230.598651 139.975226 
L 230.714944 141.741675 
L 230.832583 143.504541 
L 230.944341 145.264256 
L 231.039958 147.021368 
L 231.105391 148.776308 
L 231.121844 150.528858 
L 231.064354 152.27705 
L 231.026535 154.02236 
L 230.855316 155.75634 
L 230.48017 157.454648 
L 229.791469 159.048468 
L 228.955888 160.567229 
L 227.98101 161.99741 
L 226.876288 163.326745 
L 225.652514 164.544307 
L 224.320046 165.638843 
L 222.891385 166.601488 
L 221.379578 167.424503 
L 219.798105 168.101172 
L 218.160898 168.625917 
L 216.482346 168.99448 
L 214.777088 169.2033 
L 213.060124 169.248762 
L 211.345095 169.161618 
L 209.630428 169.072115 
L 207.916448 168.973231 
L 206.203072 168.866128 
L 204.490267 168.751196 
L 202.778516 168.621816 
" clip-path="url(#p44a9fd9475)" style="fill: none; stroke: #ff0000; stroke-opacity: 0.8; stroke-width: 0.25; stroke-linecap: square"/>
   </g>
   <g id="line2d_65">
    <path d="M 230.487079 138.205034 
L 230.598916 139.975209 
L 230.715393 141.741647 
L 230.833252 143.5045 
L 230.945263 145.264202 
L 231.041164 147.021301 
L 231.106908 148.776234 
L 231.123694 150.528784 
L 231.066549 152.276993 
L 231.028951 154.022313 
L 230.857921 155.756317 
L 230.482895 157.454658 
L 229.794808 159.048749 
L 228.959454 160.567641 
L 227.985065 161.998163 
L 226.880874 163.327947 
L 225.657082 164.545501 
L 224.32507 165.640601 
L 222.8969 166.603985 
L 221.385384 167.427547 
L 219.803979 168.104388 
L 218.166675 168.628847 
L 216.487917 168.996498 
L 214.782559 169.204529 
L 213.065615 169.250862 
L 211.350559 169.164187 
L 209.635887 169.074739 
L 207.921922 168.975577 
L 206.208568 168.868136 
L 204.495756 168.753305 
L 202.783882 168.625604 
" clip-path="url(#p44a9fd9475)" style="fill: none; stroke: #ff0000; stroke-width: 0.25; stroke-linecap: square"/>
   </g>
   <g id="line2d_66">
    <path d="M 203.907593 180.568462 
L 205.878975 180.558361 
L 207.850944 180.557385 
L 209.823455 180.571031 
L 211.796344 180.605737 
L 213.76922 180.669378 
L 215.74129 180.771277 
L 217.71114 180.922056 
L 219.676479 181.133278 
L 221.633915 181.416728 
L 223.580018 181.777263 
L 225.510467 182.220734 
L 227.421209 182.748829 
L 229.309824 183.357015 
L 231.17735 184.032545 
L 233.068764 184.644066 
L 235.016222 185.051085 
L 237.004625 185.150559 
L 238.977644 184.878674 
L 240.909534 184.393489 
L 242.787914 183.730913 
L 244.694127 183.153808 
L 246.619228 182.643984 
L 248.560358 182.199971 
L 250.515288 181.822351 
L 252.48118 181.507877 
L 254.455016 181.249095 
L 256.434121 181.035501 
L 258.416411 180.854906 
L 260.400372 180.694494 
L 262.384986 180.542792 
" clip-path="url(#p44a9fd9475)" style="fill: none; stroke: #ff0000; stroke-opacity: 0.2; stroke-width: 0.25; stroke-linecap: square"/>
   </g>
   <g id="line2d_67">
    <path d="M 203.907593 180.568462 
L 205.878971 180.557681 
L 207.850853 180.555774 
L 209.823203 180.568319 
L 211.795872 180.601783 
L 213.76848 180.664073 
L 215.74025 180.764545 
L 217.709782 180.913861 
L 219.674796 181.123625 
L 221.631908 181.405674 
L 223.577681 181.764922 
L 225.507781 182.207282 
L 227.418126 182.734512 
L 229.306255 183.342151 
L 231.173154 184.017535 
L 233.063774 184.629414 
L 235.010402 185.037267 
L 236.998105 185.138106 
L 238.970689 184.867544 
L 240.902143 184.383037 
L 242.780429 183.721885 
L 244.686638 183.146632 
L 246.611716 182.638745 
L 248.552786 182.19671 
L 250.507612 181.821107 
L 252.47336 181.508709 
L 254.447018 181.252096 
L 256.425919 181.040797 
L 258.407986 180.862639 
L 260.391715 180.704801 
L 262.376053 180.555207 
" clip-path="url(#p44a9fd9475)" style="fill: none; stroke: #ff0000; stroke-opacity: 0.4; stroke-width: 0.25; stroke-linecap: square"/>
   </g>
   <g id="line2d_68">
    <path d="M 203.907593 180.568462 
L 205.878969 180.55731 
L 207.850815 180.554887 
L 209.823102 180.566838 
L 211.795687 180.599649 
L 213.768198 180.661255 
L 215.739865 180.761038 
L 217.709293 180.909693 
L 219.674204 181.118865 
L 221.631209 181.400436 
L 223.576859 181.759372 
L 225.506795 182.20165 
L 227.416903 182.729088 
L 229.304674 183.337299 
L 231.171046 184.013689 
L 233.061032 184.627085 
L 235.007135 185.036885 
L 236.994631 185.140041 
L 238.967255 184.870197 
L 240.8986 184.38537 
L 242.776982 183.72449 
L 244.683319 183.149571 
L 246.608478 182.641799 
L 248.549585 182.199623 
L 250.504422 181.823627 
L 252.470172 181.510619 
L 254.443839 181.253229 
L 256.422763 181.041038 
L 258.40487 180.86192 
L 260.388648 180.703085 
L 262.373016 180.552158 
" clip-path="url(#p44a9fd9475)" style="fill: none; stroke: #ff0000; stroke-opacity: 0.6; stroke-width: 0.25; stroke-linecap: square"/>
   </g>
   <g id="line2d_69">
    <path d="M 203.907593 180.568462 
L 205.878965 180.556566 
L 207.850741 180.553121 
L 209.822904 180.563869 
L 211.795324 180.595326 
L 213.767643 180.655461 
L 215.739107 180.753697 
L 217.708333 180.900777 
L 219.673055 181.108404 
L 221.629887 181.388538 
L 223.575364 181.746235 
L 225.505099 182.187573 
L 227.414924 182.714487 
L 229.30226 183.32271 
L 231.167957 183.999781 
L 233.057066 184.614628 
L 235.002411 185.026266 
L 236.989473 185.131411 
L 238.961906 184.862328 
L 240.89374 184.380487 
L 242.772455 183.721185 
L 244.679238 183.14834 
L 246.60471 182.6423 
L 248.546011 182.201469 
L 250.500943 181.826424 
L 252.466722 181.51401 
L 254.44038 181.256927 
L 256.419279 181.044837 
L 258.401355 180.865687 
L 260.385103 180.706744 
L 262.369422 180.555408 
" clip-path="url(#p44a9fd9475)" style="fill: none; stroke: #ff0000; stroke-opacity: 0.8; stroke-width: 0.25; stroke-linecap: square"/>
   </g>
   <g id="line2d_70">
    <path d="M 203.907593 180.568462 
L 205.878966 180.556664 
L 207.850747 180.553305 
L 209.822919 180.564153 
L 211.795353 180.595723 
L 213.767689 180.65598 
L 215.739172 180.754346 
L 217.70842 180.901563 
L 219.673163 181.10934 
L 221.630013 181.389642 
L 223.575502 181.747538 
L 225.505235 182.189118 
L 227.415039 182.716328 
L 229.302325 183.324914 
L 231.167938 184.002423 
L 233.056963 184.617773 
L 235.002308 185.029811 
L 236.989452 185.135049 
L 238.962044 184.866455 
L 240.894007 184.384737 
L 242.772612 183.724825 
L 244.679367 183.151535 
L 246.604795 182.644926 
L 248.546049 182.203415 
L 250.500944 181.827606 
L 252.466703 181.514384 
L 254.440365 181.256491 
L 256.41929 181.043623 
L 258.401412 180.863747 
L 260.385218 180.704137 
L 262.369595 180.552125 
" clip-path="url(#p44a9fd9475)" style="fill: none; stroke: #ff0000; stroke-width: 0.25; stroke-linecap: square"/>
   </g>
   <g id="line2d_71">
    <path d="M 242.36028 243.71712 
L 242.36028 241.8876 
L 242.36028 240.058895 
L 242.36028 238.231005 
L 242.36028 236.403933 
L 242.36028 234.577679 
L 242.36028 232.752245 
L 242.36028 230.92763 
L 242.36028 229.103836 
L 242.36028 227.280863 
L 242.36028 225.458709 
L 242.36028 223.637373 
L 242.36028 221.816851 
L 242.36028 219.997139 
L 242.36028 218.178231 
L 242.36028 216.360118 
L 242.36028 214.542789 
L 242.36028 212.72623 
L 242.36028 210.910424 
L 242.36028 209.09535 
L 242.36028 207.280983 
L 242.36028 205.467294 
L 242.36028 203.654247 
L 242.36028 201.841802 
L 242.36028 200.029912 
L 242.36028 198.218524 
L 242.36028 196.407575 
L 242.36028 194.596996 
L 242.36028 192.786711 
L 242.36028 190.97663 
L 242.36028 189.166658 
" clip-path="url(#p44a9fd9475)" style="fill: none; stroke: #ff0000; stroke-opacity: 0.2; stroke-width: 0.25; stroke-linecap: square"/>
   </g>
   <g id="line2d_72">
    <path d="M 242.36028 243.71712 
L 242.36028 241.8876 
L 242.36028 240.058913 
L 242.36028 238.231061 
L 242.36028 236.404044 
L 242.36028 234.577863 
L 242.36028 232.75252 
L 242.36028 230.928014 
L 242.36028 229.104347 
L 242.36028 227.281517 
L 242.36028 225.459522 
L 242.36028 223.638362 
L 242.36028 221.818032 
L 242.36028 219.998528 
L 242.36028 218.179841 
L 242.36028 216.361964 
L 242.36028 214.544885 
L 242.36028 212.728588 
L 242.36028 210.913057 
L 242.36028 209.098269 
L 242.36028 207.284199 
L 242.36028 205.470816 
L 242.36028 203.658085 
L 242.36028 201.845963 
L 242.36028 200.034403 
L 242.36028 198.22335 
L 242.36028 196.412742 
L 242.36028 194.602509 
L 242.36028 192.792572 
L 242.36028 190.982842 
L 242.36028 189.173221 
" clip-path="url(#p44a9fd9475)" style="fill: none; stroke: #ff0000; stroke-opacity: 0.4; stroke-width: 0.25; stroke-linecap: square"/>
   </g>
   <g id="line2d_73">
    <path d="M 242.36028 243.71712 
L 242.36028 241.8876 
L 242.36028 240.058903 
L 242.36028 238.231029 
L 242.36028 236.403981 
L 242.36028 234.577758 
L 242.36028 232.752363 
L 242.36028 230.927795 
L 242.36028 229.104056 
L 242.36028 227.281144 
L 242.36028 225.459059 
L 242.36028 223.637798 
L 242.36028 221.817359 
L 242.36028 219.997737 
L 242.36028 218.178925 
L 242.36028 216.360913 
L 242.36028 214.543692 
L 242.36028 212.727247 
L 242.36028 210.91156 
L 242.36028 209.096611 
L 242.36028 207.282373 
L 242.36028 205.468817 
L 242.36028 203.655908 
L 242.36028 201.843604 
L 242.36028 200.031859 
L 242.36028 198.220617 
L 242.36028 196.409818 
L 242.36028 194.599391 
L 242.36028 192.789258 
L 242.36028 190.979332 
L 242.36028 189.169514 
" clip-path="url(#p44a9fd9475)" style="fill: none; stroke: #ff0000; stroke-opacity: 0.6; stroke-width: 0.25; stroke-linecap: square"/>
   </g>
   <g id="line2d_74">
    <path d="M 242.36028 243.71712 
L 242.36028 241.8876 
L 242.36028 240.058909 
L 242.36028 238.231047 
L 242.36028 236.404017 
L 242.36028 234.577818 
L 242.36028 232.752452 
L 242.36028 230.92792 
L 242.36028 229.104221 
L 242.36028 227.281356 
L 242.36028 225.459323 
L 242.36028 223.638119 
L 242.36028 221.817742 
L 242.36028 219.998187 
L 242.36028 218.179446 
L 242.36028 216.361511 
L 242.36028 214.54437 
L 242.36028 212.728009 
L 242.36028 210.91241 
L 242.36028 209.097552 
L 242.36028 207.283409 
L 242.36028 205.469951 
L 242.36028 203.657142 
L 242.36028 201.84494 
L 242.36028 200.033299 
L 242.36028 198.222164 
L 242.36028 196.411473 
L 242.36028 194.601155 
L 242.36028 192.791132 
L 242.36028 190.981316 
L 242.36028 189.171608 
" clip-path="url(#p44a9fd9475)" style="fill: none; stroke: #ff0000; stroke-opacity: 0.8; stroke-width: 0.25; stroke-linecap: square"/>
   </g>
   <g id="line2d_75">
    <path d="M 242.36028 243.71712 
L 242.36028 241.8876 
L 242.36028 240.058905 
L 242.36028 238.231037 
L 242.36028 236.403996 
L 242.36028 234.577784 
L 242.36028 232.752401 
L 242.36028 230.927849 
L 242.36028 229.104127 
L 242.36028 227.281235 
L 242.36028 225.459173 
L 242.36028 223.637937 
L 242.36028 221.817525 
L 242.36028 219.997931 
L 242.36028 218.17915 
L 242.36028 216.361172 
L 242.36028 214.543985 
L 242.36028 212.727577 
L 242.36028 210.911928 
L 242.36028 209.097018 
L 242.36028 207.282822 
L 242.36028 205.469308 
L 242.36028 203.656443 
L 242.36028 201.844184 
L 242.36028 200.032484 
L 242.36028 198.221289 
L 242.36028 196.410536 
L 242.36028 194.600157 
L 242.36028 192.790073 
L 242.36028 190.980194 
L 242.36028 189.170425 
" clip-path="url(#p44a9fd9475)" style="fill: none; stroke: #ff0000; stroke-width: 0.25; stroke-linecap: square"/>
   </g>
   <g id="line2d_76">
    <path d="M 300.124246 168.322233 
L 298.153558 168.317989 
L 296.184802 168.313019 
L 294.217973 168.306676 
L 292.253066 168.298797 
L 290.290072 168.289276 
L 288.32898 168.2781 
L 286.36977 168.265391 
L 284.412419 168.251467 
L 282.456893 168.236907 
L 280.503149 168.222637 
L 278.551132 168.210025 
L 276.600783 168.200988 
L 274.652037 168.198108 
L 272.70485 168.204739 
L 270.75922 168.225116 
L 268.815243 168.264423 
L 266.873184 168.328824 
L 264.933577 168.425403 
L 262.997345 168.561978 
L 261.06592 168.746729 
L 259.141299 168.987539 
L 257.225963 169.290956 
L 255.318702 169.640579 
L 253.392629 169.864838 
L 251.453938 169.909587 
L 249.514664 169.920262 
L 247.575596 169.953384 
L 245.636926 170.005479 
L 243.698463 170.064776 
L 241.759658 170.111369 
" clip-path="url(#p44a9fd9475)" style="fill: none; stroke: #ff0000; stroke-opacity: 0.2; stroke-width: 0.25; stroke-linecap: square"/>
   </g>
   <g id="line2d_77">
    <path d="M 300.124246 168.322233 
L 298.153559 168.317947 
L 296.184861 168.312993 
L 294.218153 168.306694 
L 292.25343 168.298897 
L 290.290686 168.289506 
L 288.32991 168.278516 
L 286.371085 168.26606 
L 284.414189 168.252462 
L 282.459191 168.23831 
L 280.506049 168.224531 
L 278.554711 168.212488 
L 276.605118 168.204087 
L 274.657212 168.20188 
L 272.710947 168.209183 
L 270.766326 168.230164 
L 268.823444 168.269922 
L 266.882561 168.334504 
L 264.944196 168.430845 
L 263.009245 168.566582 
L 261.079089 168.749683 
L 259.155648 168.987799 
L 257.24129 169.287236 
L 255.335424 169.635237 
L 253.411224 169.860555 
L 251.47436 169.906444 
L 249.536919 169.912096 
L 247.599615 169.936274 
L 245.662569 169.975373 
L 243.725596 170.016967 
L 241.788334 170.040267 
" clip-path="url(#p44a9fd9475)" style="fill: none; stroke: #ff0000; stroke-opacity: 0.4; stroke-width: 0.25; stroke-linecap: square"/>
   </g>
   <g id="line2d_78">
    <path d="M 300.124246 168.322233 
L 298.153559 168.317809 
L 296.184893 168.312693 
L 294.218245 168.306192 
L 292.253605 168.298151 
L 290.290962 168.288473 
L 288.330302 168.277154 
L 286.371603 168.264329 
L 284.41484 168.250329 
L 282.459975 168.23575 
L 280.506963 168.221537 
L 278.555747 168.20908 
L 276.606263 168.200317 
L 274.658447 168.197851 
L 272.712251 168.205058 
L 270.767675 168.226186 
L 268.824815 168.26643 
L 266.883941 168.331951 
L 264.94559 168.429815 
L 263.010693 168.567806 
L 261.080682 168.754048 
L 259.157552 168.996346 
L 257.243772 169.301159 
L 255.338321 169.653255 
L 253.413958 169.880541 
L 251.476652 169.926712 
L 249.538714 169.932229 
L 247.600897 169.958104 
L 245.663374 170.001282 
L 243.725984 170.049928 
L 241.788288 170.083858 
" clip-path="url(#p44a9fd9475)" style="fill: none; stroke: #ff0000; stroke-opacity: 0.6; stroke-width: 0.25; stroke-linecap: square"/>
   </g>
   <g id="line2d_79">
    <path d="M 300.124246 168.322233 
L 298.153559 168.317801 
L 296.184915 168.312682 
L 294.218309 168.306181 
L 292.253733 168.298142 
L 290.291176 168.288469 
L 288.330622 168.27716 
L 286.372051 168.264352 
L 284.415435 168.25038 
L 282.460738 168.235844 
L 280.507913 168.221695 
L 278.556905 168.209329 
L 276.607649 168.200696 
L 274.66008 168.198407 
L 272.714152 168.205853 
L 270.769866 168.227297 
L 268.82732 168.267951 
L 266.886786 168.333993 
L 264.948809 168.432504 
L 263.014326 168.571283 
L 261.084781 168.758459 
L 259.16218 169.001831 
L 257.248996 169.307817 
L 255.344056 169.660368 
L 253.420028 169.8868 
L 251.483122 169.931033 
L 249.545636 169.93384 
L 247.608241 169.956146 
L 245.671094 169.994654 
L 243.734043 170.037315 
L 241.796711 170.063728 
" clip-path="url(#p44a9fd9475)" style="fill: none; stroke: #ff0000; stroke-opacity: 0.8; stroke-width: 0.25; stroke-linecap: square"/>
   </g>
   <g id="line2d_80">
    <path d="M 300.124246 168.322233 
L 298.153559 168.317744 
L 296.184917 168.312561 
L 294.218315 168.305979 
L 292.253743 168.297841 
L 290.29119 168.28805 
L 288.330639 168.276604 
L 286.372068 168.263642 
L 284.415451 168.2495 
L 282.460749 168.234784 
L 280.507915 168.220451 
L 278.556892 168.207911 
L 276.607614 168.199126 
L 274.660016 168.196731 
L 272.714051 168.204142 
L 270.769719 168.225657 
L 268.827122 168.26653 
L 266.886537 168.332986 
L 264.948516 168.432165 
L 263.014014 168.571925 
L 261.084498 168.76046 
L 259.162007 169.005625 
L 257.249053 169.313884 
L 255.344286 169.668178 
L 253.420176 169.895327 
L 251.483089 169.939417 
L 249.545412 169.9417 
L 247.607816 169.96384 
L 245.670468 170.002639 
L 243.733225 170.046164 
L 241.795702 170.074123 
" clip-path="url(#p44a9fd9475)" style="fill: none; stroke: #ff0000; stroke-width: 0.25; stroke-linecap: square"/>
   </g>
   <g id="line2d_81">
    <path d="M 229.95972 105.33888 
L 229.95972 107.1684 
L 229.95972 108.997105 
L 229.95972 110.824995 
L 229.95972 112.652067 
L 229.95972 114.478321 
L 229.95972 116.303755 
L 229.95972 118.12837 
L 229.95972 119.952164 
L 229.95972 121.775137 
L 229.95972 123.597291 
L 229.95972 125.418627 
L 229.95972 127.239149 
L 229.95972 129.058861 
L 229.95972 130.877769 
L 229.95972 132.695882 
L 229.95972 134.513211 
L 229.95972 136.32977 
L 229.95972 138.145576 
L 229.95972 139.96065 
L 229.95972 141.775017 
L 229.95972 143.588706 
L 229.95972 145.401753 
L 229.95972 147.214198 
L 229.95972 149.026088 
L 229.95972 150.837476 
L 229.95972 152.648425 
L 229.95972 154.459004 
L 229.95972 156.269289 
L 229.95972 158.07937 
L 229.95972 159.889342 
" clip-path="url(#p44a9fd9475)" style="fill: none; stroke: #ff0000; stroke-opacity: 0.2; stroke-width: 0.25; stroke-linecap: square"/>
   </g>
   <g id="line2d_82">
    <path d="M 229.95972 105.33888 
L 229.95972 107.1684 
L 229.95972 108.997087 
L 229.95972 110.824939 
L 229.95972 112.651956 
L 229.95972 114.478137 
L 229.95972 116.30348 
L 229.95972 118.127986 
L 229.95972 119.951653 
L 229.95972 121.774483 
L 229.95972 123.596478 
L 229.95972 125.417638 
L 229.95972 127.237968 
L 229.95972 129.057472 
L 229.95972 130.876159 
L 229.95972 132.694036 
L 229.95972 134.511115 
L 229.95972 136.327412 
L 229.95972 138.142943 
L 229.95972 139.957731 
L 229.95972 141.771801 
L 229.95972 143.585184 
L 229.95972 145.397915 
L 229.95972 147.210037 
L 229.95972 149.021597 
L 229.95972 150.83265 
L 229.95972 152.643258 
L 229.95972 154.453491 
L 229.95972 156.263428 
L 229.95972 158.073158 
L 229.95972 159.882779 
" clip-path="url(#p44a9fd9475)" style="fill: none; stroke: #ff0000; stroke-opacity: 0.4; stroke-width: 0.25; stroke-linecap: square"/>
   </g>
   <g id="line2d_83">
    <path d="M 229.95972 105.33888 
L 229.95972 107.1684 
L 229.95972 108.997097 
L 229.95972 110.824971 
L 229.95972 112.652019 
L 229.95972 114.478242 
L 229.95972 116.303637 
L 229.95972 118.128205 
L 229.95972 119.951944 
L 229.95972 121.774856 
L 229.95972 123.596941 
L 229.95972 125.418202 
L 229.95972 127.238641 
L 229.95972 129.058263 
L 229.95972 130.877075 
L 229.95972 132.695087 
L 229.95972 134.512308 
L 229.95972 136.328753 
L 229.95972 138.14444 
L 229.95972 139.959389 
L 229.95972 141.773627 
L 229.95972 143.587183 
L 229.95972 145.400092 
L 229.95972 147.212396 
L 229.95972 149.024141 
L 229.95972 150.835383 
L 229.95972 152.646182 
L 229.95972 154.456609 
L 229.95972 156.266742 
L 229.95972 158.076668 
L 229.95972 159.886486 
" clip-path="url(#p44a9fd9475)" style="fill: none; stroke: #ff0000; stroke-opacity: 0.6; stroke-width: 0.25; stroke-linecap: square"/>
   </g>
   <g id="line2d_84">
    <path d="M 229.95972 105.33888 
L 229.95972 107.1684 
L 229.95972 108.997091 
L 229.95972 110.824953 
L 229.95972 112.651983 
L 229.95972 114.478182 
L 229.95972 116.303548 
L 229.95972 118.12808 
L 229.95972 119.951779 
L 229.95972 121.774644 
L 229.95972 123.596677 
L 229.95972 125.417881 
L 229.95972 127.238258 
L 229.95972 129.057813 
L 229.95972 130.876554 
L 229.95972 132.694489 
L 229.95972 134.51163 
L 229.95972 136.327991 
L 229.95972 138.14359 
L 229.95972 139.958448 
L 229.95972 141.772591 
L 229.95972 143.586049 
L 229.95972 145.398858 
L 229.95972 147.21106 
L 229.95972 149.022701 
L 229.95972 150.833836 
L 229.95972 152.644527 
L 229.95972 154.454845 
L 229.95972 156.264868 
L 229.95972 158.074684 
L 229.95972 159.884392 
" clip-path="url(#p44a9fd9475)" style="fill: none; stroke: #ff0000; stroke-opacity: 0.8; stroke-width: 0.25; stroke-linecap: square"/>
   </g>
   <g id="line2d_85">
    <path d="M 229.95972 105.33888 
L 229.95972 107.1684 
L 229.95972 108.997095 
L 229.95972 110.824963 
L 229.95972 112.652004 
L 229.95972 114.478216 
L 229.95972 116.303599 
L 229.95972 118.128151 
L 229.95972 119.951873 
L 229.95972 121.774765 
L 229.95972 123.596827 
L 229.95972 125.418063 
L 229.95972 127.238475 
L 229.95972 129.058069 
L 229.95972 130.87685 
L 229.95972 132.694828 
L 229.95972 134.512015 
L 229.95972 136.328423 
L 229.95972 138.144072 
L 229.95972 139.958982 
L 229.95972 141.773178 
L 229.95972 143.586692 
L 229.95972 145.399557 
L 229.95972 147.211816 
L 229.95972 149.023516 
L 229.95972 150.834711 
L 229.95972 152.645464 
L 229.95972 154.455843 
L 229.95972 156.265927 
L 229.95972 158.075806 
L 229.95972 159.885575 
" clip-path="url(#p44a9fd9475)" style="fill: none; stroke: #ff0000; stroke-width: 0.25; stroke-linecap: square"/>
   </g>
   <g id="line2d_86">
    <path d="M 172.199156 180.722297 
L 174.170422 180.724341 
L 176.139747 180.727429 
L 178.107141 180.732417 
L 180.072611 180.739799 
L 182.036167 180.750112 
L 183.997819 180.763915 
L 185.957579 180.781757 
L 187.915461 180.80412 
L 189.871483 180.831353 
L 191.825671 180.863565 
L 193.778064 180.900499 
L 195.728725 180.941359 
L 197.677745 180.984613 
L 199.625256 181.027734 
L 201.571425 181.066926 
L 203.516437 181.096793 
L 205.460426 181.109993 
L 207.403339 181.096882 
L 209.344678 181.045155 
L 211.283068 180.939517 
L 213.215566 180.76141 
L 215.12069 180.393527 
L 216.993745 179.887654 
L 218.841119 179.294569 
L 220.75582 178.979088 
L 222.696584 178.963197 
L 224.637373 178.931864 
L 226.578125 178.891368 
L 228.518932 178.850012 
L 230.460016 178.822594 
" clip-path="url(#p44a9fd9475)" style="fill: none; stroke: #ff0000; stroke-opacity: 0.2; stroke-width: 0.25; stroke-linecap: square"/>
   </g>
   <g id="line2d_87">
    <path d="M 172.199156 180.722297 
L 174.170422 180.724365 
L 176.139639 180.727474 
L 178.106815 180.732491 
L 180.071962 180.739915 
L 182.035089 180.750285 
L 183.996207 180.764162 
L 185.95533 180.782098 
L 187.912472 180.804579 
L 189.867652 180.831955 
L 191.820898 180.864339 
L 193.77225 180.901476 
L 195.721772 180.942575 
L 197.669557 180.986106 
L 199.615738 181.029552 
L 201.560488 181.069122 
L 203.503993 181.099434 
L 205.446394 181.113163 
L 207.387644 181.100686 
L 209.327259 181.049727 
L 211.263879 180.945027 
L 213.194589 180.768074 
L 215.097286 180.397919 
L 216.967562 179.889468 
L 218.810381 179.28899 
L 220.721774 178.966456 
L 222.660379 178.948388 
L 224.599162 178.929728 
L 226.538016 178.907352 
L 228.476971 178.889145 
L 230.416032 178.890505 
" clip-path="url(#p44a9fd9475)" style="fill: none; stroke: #ff0000; stroke-opacity: 0.4; stroke-width: 0.25; stroke-linecap: square"/>
   </g>
   <g id="line2d_88">
    <path d="M 172.199156 180.722297 
L 174.170422 180.724449 
L 176.139657 180.727588 
L 178.106871 180.732659 
L 180.072075 180.740161 
L 182.035282 180.750638 
L 183.996502 180.764654 
L 185.95575 180.78276 
L 187.913042 180.805442 
L 189.868398 180.833043 
L 191.821847 180.86567 
L 193.77343 180.903055 
L 195.723213 180.944393 
L 197.67129 180.988131 
L 199.617798 181.031726 
L 201.562909 181.071351 
L 203.506813 181.101582 
L 205.449647 181.115042 
L 207.391362 181.102049 
L 209.33146 181.050254 
L 211.268555 180.944314 
L 213.199688 180.765626 
L 215.102577 180.393222 
L 216.9727 179.881711 
L 218.814962 179.277294 
L 220.726569 178.951641 
L 222.66591 178.930727 
L 224.605458 178.909439 
L 226.54506 178.882039 
L 228.484755 178.85613 
L 230.424627 178.846701 
" clip-path="url(#p44a9fd9475)" style="fill: none; stroke: #ff0000; stroke-opacity: 0.6; stroke-width: 0.25; stroke-linecap: square"/>
   </g>
   <g id="line2d_89">
    <path d="M 172.199156 180.722297 
L 174.170421 180.724551 
L 176.139648 180.727831 
L 178.106846 180.733081 
L 180.072025 180.740802 
L 182.035198 180.751539 
L 183.996377 180.765859 
L 185.955576 180.784312 
L 187.91281 180.807384 
L 189.8681 180.83542 
L 191.821474 180.868519 
L 193.772976 180.906409 
L 195.722669 180.948275 
L 197.67065 180.992547 
L 199.617058 181.036658 
L 201.562067 181.076747 
L 203.505867 181.107341 
L 205.4486 181.120999 
L 207.390213 181.107945 
L 209.330195 181.05571 
L 211.267132 180.948793 
L 213.198002 180.768403 
L 215.10009 180.392453 
L 216.968718 179.875877 
L 218.809097 179.266046 
L 220.720098 178.937389 
L 222.659355 178.91675 
L 224.598861 178.899808 
L 226.538449 178.877843 
L 228.478137 178.858533 
L 230.417948 178.856894 
" clip-path="url(#p44a9fd9475)" style="fill: none; stroke: #ff0000; stroke-opacity: 0.8; stroke-width: 0.25; stroke-linecap: square"/>
   </g>
   <g id="line2d_90">
    <path d="M 172.199156 180.722297 
L 174.170422 180.724482 
L 176.139647 180.727673 
L 178.106842 180.732812 
L 180.072019 180.740403 
L 182.035189 180.750992 
L 183.996365 180.765145 
L 185.955562 180.783417 
L 187.912795 180.806293 
L 189.868087 180.83412 
L 191.821464 180.867001 
L 193.772971 180.904663 
L 195.722672 180.94629 
L 197.670665 180.990312 
L 199.617087 181.034155 
L 201.562112 181.073954 
L 203.505931 181.104224 
L 205.448683 181.11751 
L 207.390312 181.104022 
L 209.330301 181.051271 
L 211.267229 180.943739 
L 213.198057 180.762614 
L 215.100204 180.386816 
L 216.968896 179.870355 
L 218.809541 179.261232 
L 220.720774 178.933736 
L 222.66007 178.913765 
L 224.599601 178.895955 
L 226.539203 178.872296 
L 228.478899 178.850514 
L 230.41874 178.845603 
" clip-path="url(#p44a9fd9475)" style="fill: none; stroke: #ff0000; stroke-width: 0.25; stroke-linecap: square"/>
   </g>
   <g id="patch_15">
    <path d="M 103.104 307.584 
L 103.104 41.472 
" style="fill: none; stroke: #000000; stroke-width: 0.8; stroke-linejoin: miter; stroke-linecap: square"/>
   </g>
   <g id="patch_16">
    <path d="M 369.216 307.584 
L 369.216 41.472 
" style="fill: none; stroke: #000000; stroke-width: 0.8; stroke-linejoin: miter; stroke-linecap: square"/>
   </g>
   <g id="patch_17">
    <path d="M 103.104 307.584 
L 369.216 307.584 
" style="fill: none; stroke: #000000; stroke-width: 0.8; stroke-linejoin: miter; stroke-linecap: square"/>
   </g>
   <g id="patch_18">
    <path d="M 103.104 41.472 
L 369.216 41.472 
" style="fill: none; stroke: #000000; stroke-width: 0.8; stroke-linejoin: miter; stroke-linecap: square"/>
   </g>
   <g id="text_19">
    <!-- Time:  34 ms -->
    <g transform="translate(264.253887 54.7776) scale(0.1 -0.1)">
     <defs>
      <path id="DejaVuSans-54" d="M -19 4666 
L 3928 4666 
L 3928 4134 
L 2272 4134 
L 2272 0 
L 1638 0 
L 1638 4134 
L -19 4134 
L -19 4666 
z
" transform="scale(0.015625)"/>
      <path id="DejaVuSans-69" d="M 603 3500 
L 1178 3500 
L 1178 0 
L 603 0 
L 603 3500 
z
M 603 4863 
L 1178 4863 
L 1178 4134 
L 603 4134 
L 603 4863 
z
" transform="scale(0.015625)"/>
      <path id="DejaVuSans-6d" d="M 3328 2828 
Q 3544 3216 3844 3400 
Q 4144 3584 4550 3584 
Q 5097 3584 5394 3201 
Q 5691 2819 5691 2113 
L 5691 0 
L 5113 0 
L 5113 2094 
Q 5113 2597 4934 2840 
Q 4756 3084 4391 3084 
Q 3944 3084 3684 2787 
Q 3425 2491 3425 1978 
L 3425 0 
L 2847 0 
L 2847 2094 
Q 2847 2600 2669 2842 
Q 2491 3084 2119 3084 
Q 1678 3084 1418 2786 
Q 1159 2488 1159 1978 
L 1159 0 
L 581 0 
L 581 3500 
L 1159 3500 
L 1159 2956 
Q 1356 3278 1631 3431 
Q 1906 3584 2284 3584 
Q 2666 3584 2933 3390 
Q 3200 3197 3328 2828 
z
" transform="scale(0.015625)"/>
      <path id="DejaVuSans-65" d="M 3597 1894 
L 3597 1613 
L 953 1613 
Q 991 1019 1311 708 
Q 1631 397 2203 397 
Q 2534 397 2845 478 
Q 3156 559 3463 722 
L 3463 178 
Q 3153 47 2828 -22 
Q 2503 -91 2169 -91 
Q 1331 -91 842 396 
Q 353 884 353 1716 
Q 353 2575 817 3079 
Q 1281 3584 2069 3584 
Q 2775 3584 3186 3129 
Q 3597 2675 3597 1894 
z
M 3022 2063 
Q 3016 2534 2758 2815 
Q 2500 3097 2075 3097 
Q 1594 3097 1305 2825 
Q 1016 2553 972 2059 
L 3022 2063 
z
" transform="scale(0.015625)"/>
      <path id="DejaVuSans-3a" d="M 750 794 
L 1409 794 
L 1409 0 
L 750 0 
L 750 794 
z
M 750 3309 
L 1409 3309 
L 1409 2516 
L 750 2516 
L 750 3309 
z
" transform="scale(0.015625)"/>
      <path id="DejaVuSans-20" transform="scale(0.015625)"/>
      <path id="DejaVuSans-73" d="M 2834 3397 
L 2834 2853 
Q 2591 2978 2328 3040 
Q 2066 3103 1784 3103 
Q 1356 3103 1142 2972 
Q 928 2841 928 2578 
Q 928 2378 1081 2264 
Q 1234 2150 1697 2047 
L 1894 2003 
Q 2506 1872 2764 1633 
Q 3022 1394 3022 966 
Q 3022 478 2636 193 
Q 2250 -91 1575 -91 
Q 1294 -91 989 -36 
Q 684 19 347 128 
L 347 722 
Q 666 556 975 473 
Q 1284 391 1588 391 
Q 1994 391 2212 530 
Q 2431 669 2431 922 
Q 2431 1156 2273 1281 
Q 2116 1406 1581 1522 
L 1381 1569 
Q 847 1681 609 1914 
Q 372 2147 372 2553 
Q 372 3047 722 3315 
Q 1072 3584 1716 3584 
Q 2034 3584 2315 3537 
Q 2597 3491 2834 3397 
z
" transform="scale(0.015625)"/>
     </defs>
     <use xlink:href="#DejaVuSans-54"/>
     <use xlink:href="#DejaVuSans-69" x="57.958984"/>
     <use xlink:href="#DejaVuSans-6d" x="85.742188"/>
     <use xlink:href="#DejaVuSans-65" x="183.154297"/>
     <use xlink:href="#DejaVuSans-3a" x="244.677734"/>
     <use xlink:href="#DejaVuSans-20" x="278.369141"/>
     <use xlink:href="#DejaVuSans-20" x="310.15625"/>
     <use xlink:href="#DejaVuSans-33" x="341.943359"/>
     <use xlink:href="#DejaVuSans-34" x="405.566406"/>
     <use xlink:href="#DejaVuSans-20" x="469.189453"/>
     <use xlink:href="#DejaVuSans-6d" x="500.976562"/>
     <use xlink:href="#DejaVuSans-73" x="598.388672"/>
    </g>
   </g>
  </g>
 </g>
 <defs>
  <clipPath id="p44a9fd9475">
   <rect x="103.104" y="41.472" width="266.112" height="266.112"/>
  </clipPath>
 </defs>
</svg>
