<?xml version="1.0" encoding="utf-8" standalone="no"?>
<!DOCTYPE svg PUBLIC "-//W3C//DTD SVG 1.1//EN"
  "http://www.w3.org/Graphics/SVG/1.1/DTD/svg11.dtd">
<svg xmlns:xlink="http://www.w3.org/1999/xlink" width="460.8pt" height="345.6pt" viewBox="0 0 460.8 345.6" xmlns="http://www.w3.org/2000/svg" version="1.1">
 <metadata>
  <rdf:RDF xmlns:dc="http://purl.org/dc/elements/1.1/" xmlns:cc="http://creativecommons.org/ns#" xmlns:rdf="http://www.w3.org/1999/02/22-rdf-syntax-ns#">
   <cc:Work>
    <dc:type rdf:resource="http://purl.org/dc/dcmitype/StillImage"/>
    <dc:date>2024-01-23T16:31:36.379417</dc:date>
    <dc:format>image/svg+xml</dc:format>
    <dc:creator>
     <cc:Agent>
      <dc:title>Matplotlib v3.8.2, https://matplotlib.org/</dc:title>
     </cc:Agent>
    </dc:creator>
   </cc:Work>
  </rdf:RDF>
 </metadata>
 <defs>
  <style type="text/css">*{stroke-linejoin: round; stroke-linecap: butt}</style>
 </defs>
 <g id="figure_1">
  <g id="patch_1">
   <path d="M 0 345.6 
L 460.8 345.6 
L 460.8 0 
L 0 0 
z
" style="fill: #ffffff"/>
  </g>
  <g id="axes_1">
   <g id="patch_2">
    <path d="M 103.104 307.584 
L 369.216 307.584 
L 369.216 41.472 
L 103.104 41.472 
z
" style="fill: #ffffff"/>
   </g>
   <g id="patch_3">
    <path d="M 212.743133 165.74077 
L 201.102006 165.568654 
L 201.018407 171.222916 
L 212.659534 171.395032 
z
" clip-path="url(#pa0a63009f2)" style="fill: #00008b"/>
   </g>
   <g id="patch_4">
    <path d="M 244.849953 138.143415 
L 244.822816 126.501047 
L 239.167952 126.514228 
L 239.195088 138.156596 
z
" clip-path="url(#pa0a63009f2)" style="fill: #800000"/>
   </g>
   <g id="patch_5">
    <path d="M 227.328769 199.779917 
L 227.615676 211.418781 
L 233.268839 211.279426 
L 232.981931 199.640562 
z
" clip-path="url(#pa0a63009f2)" style="fill: #006400"/>
   </g>
   <g id="patch_6">
    <path d="M 261.395358 183.347668 
L 273.034881 183.088872 
L 272.90918 177.435389 
L 261.269657 177.694185 
z
" clip-path="url(#pa0a63009f2)" style="fill: #4b0082"/>
   </g>
   <g id="patch_7">
    <path d="M 244.927866 197.939925 
L 244.886421 186.297599 
L 239.231577 186.317729 
L 239.273022 197.960055 
z
" clip-path="url(#pa0a63009f2)" style="fill: #0000ff"/>
   </g>
   <g id="patch_8">
    <path d="M 259.328578 165.751639 
L 247.698015 166.276509 
L 247.952952 171.925639 
L 259.583515 171.400769 
z
" clip-path="url(#pa0a63009f2)" style="fill: #ff0000"/>
   </g>
   <g id="patch_9">
    <path d="M 227.415699 151.848358 
L 226.092144 163.41528 
L 231.710363 164.058149 
L 233.033918 152.491227 
z
" clip-path="url(#pa0a63009f2)" style="fill: #dbdc56"/>
   </g>
   <g id="patch_10">
    <path d="M 198.837384 183.278163 
L 210.477613 183.50301 
L 210.586824 177.849185 
L 198.946595 177.624338 
z
" clip-path="url(#pa0a63009f2)" style="fill: #9400d3"/>
   </g>
   <g id="patch_11">
    <path d="M 244.843113 252.029804 
L 244.842646 240.387404 
L 239.187766 240.387631 
L 239.188233 252.030031 
z
" clip-path="url(#pa0a63009f2)" style="fill: #1e90ff"/>
   </g>
   <g id="patch_12">
    <path d="M 292.648704 165.84888 
L 281.006317 165.866595 
L 281.014921 171.521468 
L 292.657308 171.503753 
z
" clip-path="url(#pa0a63009f2)" style="fill: #ff4500"/>
   </g>
   <g id="patch_13">
    <path d="M 227.477226 97.026484 
L 227.478822 108.668883 
L 233.133702 108.668108 
L 233.132106 97.025708 
z
" clip-path="url(#pa0a63009f2)" style="fill: #7cfc00"/>
   </g>
   <g id="patch_14">
    <path d="M 158.658148 183.21125 
L 170.300548 183.211275 
L 170.30056 177.556395 
L 158.65816 177.55637 
z
" clip-path="url(#pa0a63009f2)" style="fill: #ff00ff"/>
   </g>
   <g id="matplotlib.axis_1">
    <g id="xtick_1">
     <g id="line2d_1">
      <defs>
       <path id="me566dbf8a7" d="M 0 0 
L 0 3.5 
" style="stroke: #000000; stroke-width: 0.8"/>
      </defs>
      <g>
       <use xlink:href="#me566dbf8a7" x="103.104" y="307.584" style="stroke: #000000; stroke-width: 0.8"/>
      </g>
     </g>
     <g id="text_1">
      <!-- −40 -->
      <g transform="translate(92.551656 322.182437) scale(0.1 -0.1)">
       <defs>
        <path id="DejaVuSans-2212" d="M 678 2272 
L 4684 2272 
L 4684 1741 
L 678 1741 
L 678 2272 
z
" transform="scale(0.015625)"/>
        <path id="DejaVuSans-34" d="M 2419 4116 
L 825 1625 
L 2419 1625 
L 2419 4116 
z
M 2253 4666 
L 3047 4666 
L 3047 1625 
L 3713 1625 
L 3713 1100 
L 3047 1100 
L 3047 0 
L 2419 0 
L 2419 1100 
L 313 1100 
L 313 1709 
L 2253 4666 
z
" transform="scale(0.015625)"/>
        <path id="DejaVuSans-30" d="M 2034 4250 
Q 1547 4250 1301 3770 
Q 1056 3291 1056 2328 
Q 1056 1369 1301 889 
Q 1547 409 2034 409 
Q 2525 409 2770 889 
Q 3016 1369 3016 2328 
Q 3016 3291 2770 3770 
Q 2525 4250 2034 4250 
z
M 2034 4750 
Q 2819 4750 3233 4129 
Q 3647 3509 3647 2328 
Q 3647 1150 3233 529 
Q 2819 -91 2034 -91 
Q 1250 -91 836 529 
Q 422 1150 422 2328 
Q 422 3509 836 4129 
Q 1250 4750 2034 4750 
z
" transform="scale(0.015625)"/>
       </defs>
       <use xlink:href="#DejaVuSans-2212"/>
       <use xlink:href="#DejaVuSans-34" x="83.789062"/>
       <use xlink:href="#DejaVuSans-30" x="147.412109"/>
      </g>
     </g>
    </g>
    <g id="xtick_2">
     <g id="line2d_2">
      <g>
       <use xlink:href="#me566dbf8a7" x="136.368" y="307.584" style="stroke: #000000; stroke-width: 0.8"/>
      </g>
     </g>
     <g id="text_2">
      <!-- −30 -->
      <g transform="translate(125.815656 322.182437) scale(0.1 -0.1)">
       <defs>
        <path id="DejaVuSans-33" d="M 2597 2516 
Q 3050 2419 3304 2112 
Q 3559 1806 3559 1356 
Q 3559 666 3084 287 
Q 2609 -91 1734 -91 
Q 1441 -91 1130 -33 
Q 819 25 488 141 
L 488 750 
Q 750 597 1062 519 
Q 1375 441 1716 441 
Q 2309 441 2620 675 
Q 2931 909 2931 1356 
Q 2931 1769 2642 2001 
Q 2353 2234 1838 2234 
L 1294 2234 
L 1294 2753 
L 1863 2753 
Q 2328 2753 2575 2939 
Q 2822 3125 2822 3475 
Q 2822 3834 2567 4026 
Q 2313 4219 1838 4219 
Q 1578 4219 1281 4162 
Q 984 4106 628 3988 
L 628 4550 
Q 988 4650 1302 4700 
Q 1616 4750 1894 4750 
Q 2613 4750 3031 4423 
Q 3450 4097 3450 3541 
Q 3450 3153 3228 2886 
Q 3006 2619 2597 2516 
z
" transform="scale(0.015625)"/>
       </defs>
       <use xlink:href="#DejaVuSans-2212"/>
       <use xlink:href="#DejaVuSans-33" x="83.789062"/>
       <use xlink:href="#DejaVuSans-30" x="147.412109"/>
      </g>
     </g>
    </g>
    <g id="xtick_3">
     <g id="line2d_3">
      <g>
       <use xlink:href="#me566dbf8a7" x="169.632" y="307.584" style="stroke: #000000; stroke-width: 0.8"/>
      </g>
     </g>
     <g id="text_3">
      <!-- −20 -->
      <g transform="translate(159.079656 322.182437) scale(0.1 -0.1)">
       <defs>
        <path id="DejaVuSans-32" d="M 1228 531 
L 3431 531 
L 3431 0 
L 469 0 
L 469 531 
Q 828 903 1448 1529 
Q 2069 2156 2228 2338 
Q 2531 2678 2651 2914 
Q 2772 3150 2772 3378 
Q 2772 3750 2511 3984 
Q 2250 4219 1831 4219 
Q 1534 4219 1204 4116 
Q 875 4013 500 3803 
L 500 4441 
Q 881 4594 1212 4672 
Q 1544 4750 1819 4750 
Q 2544 4750 2975 4387 
Q 3406 4025 3406 3419 
Q 3406 3131 3298 2873 
Q 3191 2616 2906 2266 
Q 2828 2175 2409 1742 
Q 1991 1309 1228 531 
z
" transform="scale(0.015625)"/>
       </defs>
       <use xlink:href="#DejaVuSans-2212"/>
       <use xlink:href="#DejaVuSans-32" x="83.789062"/>
       <use xlink:href="#DejaVuSans-30" x="147.412109"/>
      </g>
     </g>
    </g>
    <g id="xtick_4">
     <g id="line2d_4">
      <g>
       <use xlink:href="#me566dbf8a7" x="202.896" y="307.584" style="stroke: #000000; stroke-width: 0.8"/>
      </g>
     </g>
     <g id="text_4">
      <!-- −10 -->
      <g transform="translate(192.343656 322.182437) scale(0.1 -0.1)">
       <defs>
        <path id="DejaVuSans-31" d="M 794 531 
L 1825 531 
L 1825 4091 
L 703 3866 
L 703 4441 
L 1819 4666 
L 2450 4666 
L 2450 531 
L 3481 531 
L 3481 0 
L 794 0 
L 794 531 
z
" transform="scale(0.015625)"/>
       </defs>
       <use xlink:href="#DejaVuSans-2212"/>
       <use xlink:href="#DejaVuSans-31" x="83.789062"/>
       <use xlink:href="#DejaVuSans-30" x="147.412109"/>
      </g>
     </g>
    </g>
    <g id="xtick_5">
     <g id="line2d_5">
      <g>
       <use xlink:href="#me566dbf8a7" x="236.16" y="307.584" style="stroke: #000000; stroke-width: 0.8"/>
      </g>
     </g>
     <g id="text_5">
      <!-- 0 -->
      <g transform="translate(232.97875 322.182437) scale(0.1 -0.1)">
       <use xlink:href="#DejaVuSans-30"/>
      </g>
     </g>
    </g>
    <g id="xtick_6">
     <g id="line2d_6">
      <g>
       <use xlink:href="#me566dbf8a7" x="269.424" y="307.584" style="stroke: #000000; stroke-width: 0.8"/>
      </g>
     </g>
     <g id="text_6">
      <!-- 10 -->
      <g transform="translate(263.0615 322.182437) scale(0.1 -0.1)">
       <use xlink:href="#DejaVuSans-31"/>
       <use xlink:href="#DejaVuSans-30" x="63.623047"/>
      </g>
     </g>
    </g>
    <g id="xtick_7">
     <g id="line2d_7">
      <g>
       <use xlink:href="#me566dbf8a7" x="302.688" y="307.584" style="stroke: #000000; stroke-width: 0.8"/>
      </g>
     </g>
     <g id="text_7">
      <!-- 20 -->
      <g transform="translate(296.3255 322.182437) scale(0.1 -0.1)">
       <use xlink:href="#DejaVuSans-32"/>
       <use xlink:href="#DejaVuSans-30" x="63.623047"/>
      </g>
     </g>
    </g>
    <g id="xtick_8">
     <g id="line2d_8">
      <g>
       <use xlink:href="#me566dbf8a7" x="335.952" y="307.584" style="stroke: #000000; stroke-width: 0.8"/>
      </g>
     </g>
     <g id="text_8">
      <!-- 30 -->
      <g transform="translate(329.5895 322.182437) scale(0.1 -0.1)">
       <use xlink:href="#DejaVuSans-33"/>
       <use xlink:href="#DejaVuSans-30" x="63.623047"/>
      </g>
     </g>
    </g>
    <g id="xtick_9">
     <g id="line2d_9">
      <g>
       <use xlink:href="#me566dbf8a7" x="369.216" y="307.584" style="stroke: #000000; stroke-width: 0.8"/>
      </g>
     </g>
     <g id="text_9">
      <!-- 40 -->
      <g transform="translate(362.8535 322.182437) scale(0.1 -0.1)">
       <use xlink:href="#DejaVuSans-34"/>
       <use xlink:href="#DejaVuSans-30" x="63.623047"/>
      </g>
     </g>
    </g>
   </g>
   <g id="matplotlib.axis_2">
    <g id="ytick_1">
     <g id="line2d_10">
      <defs>
       <path id="m6f2a245364" d="M 0 0 
L -3.5 0 
" style="stroke: #000000; stroke-width: 0.8"/>
      </defs>
      <g>
       <use xlink:href="#m6f2a245364" x="103.104" y="307.584" style="stroke: #000000; stroke-width: 0.8"/>
      </g>
     </g>
     <g id="text_10">
      <!-- −40 -->
      <g transform="translate(74.999313 311.383219) scale(0.1 -0.1)">
       <use xlink:href="#DejaVuSans-2212"/>
       <use xlink:href="#DejaVuSans-34" x="83.789062"/>
       <use xlink:href="#DejaVuSans-30" x="147.412109"/>
      </g>
     </g>
    </g>
    <g id="ytick_2">
     <g id="line2d_11">
      <g>
       <use xlink:href="#m6f2a245364" x="103.104" y="274.32" style="stroke: #000000; stroke-width: 0.8"/>
      </g>
     </g>
     <g id="text_11">
      <!-- −30 -->
      <g transform="translate(74.999313 278.119219) scale(0.1 -0.1)">
       <use xlink:href="#DejaVuSans-2212"/>
       <use xlink:href="#DejaVuSans-33" x="83.789062"/>
       <use xlink:href="#DejaVuSans-30" x="147.412109"/>
      </g>
     </g>
    </g>
    <g id="ytick_3">
     <g id="line2d_12">
      <g>
       <use xlink:href="#m6f2a245364" x="103.104" y="241.056" style="stroke: #000000; stroke-width: 0.8"/>
      </g>
     </g>
     <g id="text_12">
      <!-- −20 -->
      <g transform="translate(74.999313 244.855219) scale(0.1 -0.1)">
       <use xlink:href="#DejaVuSans-2212"/>
       <use xlink:href="#DejaVuSans-32" x="83.789062"/>
       <use xlink:href="#DejaVuSans-30" x="147.412109"/>
      </g>
     </g>
    </g>
    <g id="ytick_4">
     <g id="line2d_13">
      <g>
       <use xlink:href="#m6f2a245364" x="103.104" y="207.792" style="stroke: #000000; stroke-width: 0.8"/>
      </g>
     </g>
     <g id="text_13">
      <!-- −10 -->
      <g transform="translate(74.999313 211.591219) scale(0.1 -0.1)">
       <use xlink:href="#DejaVuSans-2212"/>
       <use xlink:href="#DejaVuSans-31" x="83.789062"/>
       <use xlink:href="#DejaVuSans-30" x="147.412109"/>
      </g>
     </g>
    </g>
    <g id="ytick_5">
     <g id="line2d_14">
      <g>
       <use xlink:href="#m6f2a245364" x="103.104" y="174.528" style="stroke: #000000; stroke-width: 0.8"/>
      </g>
     </g>
     <g id="text_14">
      <!-- 0 -->
      <g transform="translate(89.7415 178.327219) scale(0.1 -0.1)">
       <use xlink:href="#DejaVuSans-30"/>
      </g>
     </g>
    </g>
    <g id="ytick_6">
     <g id="line2d_15">
      <g>
       <use xlink:href="#m6f2a245364" x="103.104" y="141.264" style="stroke: #000000; stroke-width: 0.8"/>
      </g>
     </g>
     <g id="text_15">
      <!-- 10 -->
      <g transform="translate(83.379 145.063219) scale(0.1 -0.1)">
       <use xlink:href="#DejaVuSans-31"/>
       <use xlink:href="#DejaVuSans-30" x="63.623047"/>
      </g>
     </g>
    </g>
    <g id="ytick_7">
     <g id="line2d_16">
      <g>
       <use xlink:href="#m6f2a245364" x="103.104" y="108" style="stroke: #000000; stroke-width: 0.8"/>
      </g>
     </g>
     <g id="text_16">
      <!-- 20 -->
      <g transform="translate(83.379 111.799219) scale(0.1 -0.1)">
       <use xlink:href="#DejaVuSans-32"/>
       <use xlink:href="#DejaVuSans-30" x="63.623047"/>
      </g>
     </g>
    </g>
    <g id="ytick_8">
     <g id="line2d_17">
      <g>
       <use xlink:href="#m6f2a245364" x="103.104" y="74.736" style="stroke: #000000; stroke-width: 0.8"/>
      </g>
     </g>
     <g id="text_17">
      <!-- 30 -->
      <g transform="translate(83.379 78.535219) scale(0.1 -0.1)">
       <use xlink:href="#DejaVuSans-33"/>
       <use xlink:href="#DejaVuSans-30" x="63.623047"/>
      </g>
     </g>
    </g>
    <g id="ytick_9">
     <g id="line2d_18">
      <g>
       <use xlink:href="#m6f2a245364" x="103.104" y="41.472" style="stroke: #000000; stroke-width: 0.8"/>
      </g>
     </g>
     <g id="text_18">
      <!-- 40 -->
      <g transform="translate(83.379 45.271219) scale(0.1 -0.1)">
       <use xlink:href="#DejaVuSans-34"/>
       <use xlink:href="#DejaVuSans-30" x="63.623047"/>
      </g>
     </g>
    </g>
   </g>
   <g id="line2d_19">
    <path d="M 250.2972 288.4572 
L 250.2972 188.6652 
" clip-path="url(#pa0a63009f2)" style="fill: none; stroke: #000000; stroke-width: 0.25; stroke-linecap: square"/>
   </g>
   <g id="line2d_20">
    <path d="M 250.2972 188.6652 
L 350.0892 188.6652 
" clip-path="url(#pa0a63009f2)" style="fill: none; stroke: #000000; stroke-width: 0.25; stroke-linecap: square"/>
   </g>
   <g id="line2d_21">
    <path d="M 350.0892 160.3908 
L 250.2972 160.3908 
" clip-path="url(#pa0a63009f2)" style="fill: none; stroke: #000000; stroke-width: 0.25; stroke-linecap: square"/>
   </g>
   <g id="line2d_22">
    <path d="M 250.2972 160.3908 
L 250.2972 60.5988 
" clip-path="url(#pa0a63009f2)" style="fill: none; stroke: #000000; stroke-width: 0.25; stroke-linecap: square"/>
   </g>
   <g id="line2d_23">
    <path d="M 222.0228 60.5988 
L 222.0228 160.3908 
" clip-path="url(#pa0a63009f2)" style="fill: none; stroke: #000000; stroke-width: 0.25; stroke-linecap: square"/>
   </g>
   <g id="line2d_24">
    <path d="M 222.0228 160.3908 
L 122.2308 160.3908 
" clip-path="url(#pa0a63009f2)" style="fill: none; stroke: #000000; stroke-width: 0.25; stroke-linecap: square"/>
   </g>
   <g id="line2d_25">
    <path d="M 122.2308 188.6652 
L 222.0228 188.6652 
" clip-path="url(#pa0a63009f2)" style="fill: none; stroke: #000000; stroke-width: 0.25; stroke-linecap: square"/>
   </g>
   <g id="line2d_26">
    <path d="M 222.0228 188.6652 
L 222.0228 288.4572 
" clip-path="url(#pa0a63009f2)" style="fill: none; stroke: #000000; stroke-width: 0.25; stroke-linecap: square"/>
   </g>
   <g id="line2d_27">
    <path d="M 250.2972 174.528 
L 350.0892 174.528 
" clip-path="url(#pa0a63009f2)" style="fill: none; stroke-dasharray: 0.925,0.4; stroke-dashoffset: 0; stroke: #000000; stroke-width: 0.25"/>
   </g>
   <g id="line2d_28">
    <path d="M 236.16 160.3908 
L 236.16 60.5988 
" clip-path="url(#pa0a63009f2)" style="fill: none; stroke-dasharray: 0.925,0.4; stroke-dashoffset: 0; stroke: #000000; stroke-width: 0.25"/>
   </g>
   <g id="line2d_29">
    <path d="M 222.0228 174.528 
L 122.2308 174.528 
" clip-path="url(#pa0a63009f2)" style="fill: none; stroke-dasharray: 0.925,0.4; stroke-dashoffset: 0; stroke: #000000; stroke-width: 0.25"/>
   </g>
   <g id="line2d_30">
    <path d="M 236.16 188.6652 
L 236.16 288.4572 
" clip-path="url(#pa0a63009f2)" style="fill: none; stroke-dasharray: 0.925,0.4; stroke-dashoffset: 0; stroke: #000000; stroke-width: 0.25"/>
   </g>
   <g id="line2d_31">
    <path d="M 208.762533 168.496019 
L 206.880785 168.479998 
L 204.999652 168.426003 
L 203.118562 168.493368 
L 201.237115 168.562815 
L 199.356363 168.659396 
L 197.472624 168.674963 
L 195.588091 168.674148 
L 193.702839 168.66677 
L 191.816914 168.655188 
L 189.930319 168.656586 
L 188.049328 168.504447 
L 186.161562 168.499884 
L 184.274671 168.432598 
L 182.387741 168.506249 
L 180.501646 168.599307 
L 178.614315 168.659484 
L 176.726121 168.670335 
L 174.837924 168.672676 
L 172.949771 168.673256 
L 171.061683 168.673222 
L 169.173671 168.672853 
L 167.285737 168.672507 
L 165.397879 168.672314 
L 163.510091 168.672275 
L 161.622362 168.672304 
L 159.734683 168.672308 
L 157.847041 168.672313 
L 155.959423 168.672321 
L 154.071818 168.672328 
L 152.184215 168.672227 
" clip-path="url(#pa0a63009f2)" style="fill: none; stroke: #ff0000; stroke-opacity: 0.2; stroke-width: 0.25; stroke-linecap: square"/>
   </g>
   <g id="line2d_32">
    <path d="M 208.762533 168.496019 
L 206.880779 168.480734 
L 204.999637 168.427293 
L 203.118569 168.494974 
L 201.237141 168.56454 
L 199.356401 168.661054 
L 197.472673 168.676515 
L 195.588151 168.675577 
L 193.702908 168.66805 
L 191.816992 168.656232 
L 189.930403 168.657143 
L 188.049431 168.504804 
L 186.161666 168.500318 
L 184.274775 168.433001 
L 182.387825 168.506246 
L 180.501722 168.599247 
L 178.614382 168.659383 
L 176.726179 168.670177 
L 174.83797 168.672444 
L 172.949806 168.672957 
L 171.061706 168.672883 
L 169.173681 168.67251 
L 167.285735 168.672182 
L 165.397864 168.672019 
L 163.510064 168.672009 
L 161.622324 168.672064 
L 159.734634 168.672093 
L 157.846982 168.672124 
L 155.959356 168.672159 
L 154.071744 168.672198 
L 152.184135 168.672143 
" clip-path="url(#pa0a63009f2)" style="fill: none; stroke: #ff0000; stroke-opacity: 0.4; stroke-width: 0.25; stroke-linecap: square"/>
   </g>
   <g id="line2d_33">
    <path d="M 208.762533 168.496019 
L 206.880775 168.481172 
L 204.999627 168.428003 
L 203.118567 168.495802 
L 201.237142 168.565341 
L 199.356397 168.661702 
L 197.47267 168.677009 
L 195.588148 168.67594 
L 193.702906 168.668298 
L 191.81699 168.656314 
L 189.9304 168.656847 
L 188.049432 168.504441 
L 186.161664 168.500168 
L 184.274768 168.43292 
L 182.387805 168.50588 
L 180.501702 168.598938 
L 178.614362 168.659158 
L 176.726158 168.670014 
L 174.837948 168.67232 
L 172.949783 168.672867 
L 171.061683 168.672838 
L 169.173659 168.672524 
L 167.285714 168.672259 
L 165.397845 168.672148 
L 163.510048 168.67217 
L 161.622312 168.672237 
L 159.734628 168.672261 
L 157.846983 168.672275 
L 155.959364 168.672285 
L 154.071762 168.672296 
L 152.184163 168.67222 
" clip-path="url(#pa0a63009f2)" style="fill: none; stroke: #ff0000; stroke-opacity: 0.6; stroke-width: 0.25; stroke-linecap: square"/>
   </g>
   <g id="line2d_34">
    <path d="M 208.762533 168.496019 
L 206.880772 168.48154 
L 204.99962 168.42858 
L 203.118565 168.496466 
L 201.237141 168.565964 
L 199.356391 168.662184 
L 197.472665 168.677363 
L 195.588145 168.676206 
L 193.702904 168.668505 
L 191.81699 168.656426 
L 189.930399 168.656659 
L 188.04943 168.504264 
L 186.161661 168.500261 
L 184.27476 168.433121 
L 182.387787 168.505824 
L 180.501687 168.598944 
L 178.614349 168.659238 
L 176.726143 168.670132 
L 174.837933 168.672439 
L 172.949767 168.672971 
L 171.061666 168.672931 
L 169.173641 168.672616 
L 167.285696 168.672351 
L 165.397828 168.672233 
L 163.510031 168.672236 
L 161.622297 168.672274 
L 159.734614 168.672267 
L 157.846971 168.672251 
L 155.959356 168.672236 
L 154.071758 168.67223 
L 152.184164 168.672151 
" clip-path="url(#pa0a63009f2)" style="fill: none; stroke: #ff0000; stroke-opacity: 0.8; stroke-width: 0.25; stroke-linecap: square"/>
   </g>
   <g id="line2d_35">
    <path d="M 208.762533 168.496019 
L 206.88077 168.481843 
L 204.999614 168.42903 
L 203.118563 168.496959 
L 201.237139 168.56638 
L 199.356384 168.662433 
L 197.472659 168.677469 
L 195.58814 168.676214 
L 193.702902 168.66845 
L 191.816989 168.656277 
L 189.930399 168.656215 
L 188.04943 168.503834 
L 186.161661 168.500095 
L 184.274758 168.43306 
L 182.387776 168.50552 
L 180.50168 168.598715 
L 178.614344 168.659094 
L 176.726139 168.670037 
L 174.837929 168.672359 
L 172.949763 168.672893 
L 171.061662 168.672858 
L 169.173637 168.672559 
L 167.285691 168.672314 
L 165.397823 168.672211 
L 163.510027 168.672221 
L 161.622293 168.67226 
L 159.734611 168.672254 
L 157.84697 168.672242 
L 155.959357 168.672237 
L 154.071762 168.672246 
L 152.184172 168.672192 
" clip-path="url(#pa0a63009f2)" style="fill: none; stroke: #ff0000; stroke-width: 0.25; stroke-linecap: square"/>
   </g>
   <g id="line2d_36">
    <path d="M 242.016261 134.08309 
L 242.00849 132.328824 
L 242.005311 130.572382 
L 242.005318 128.814375 
L 242.009322 127.055303 
L 242.02153 125.295594 
L 242.051516 123.535727 
L 242.11766 121.776688 
L 242.18357 120.017616 
L 242.236386 118.258241 
L 242.203534 116.498626 
L 242.16454 114.739591 
L 242.065267 112.983382 
L 242.023541 111.225392 
L 242.011544 109.467368 
L 242.011568 107.709663 
L 242.014262 105.952283 
L 242.016052 104.195191 
L 242.016428 102.438354 
L 242.016074 100.681738 
L 242.015716 98.925308 
L 242.015594 97.169027 
L 242.015648 95.412863 
L 242.015773 93.656789 
L 242.015817 91.900782 
L 242.015813 90.144823 
L 242.015807 88.388896 
L 242.015807 86.632991 
L 242.015805 84.8771 
L 242.015796 83.121217 
L 242.015794 81.365336 
" clip-path="url(#pa0a63009f2)" style="fill: none; stroke: #ff0000; stroke-opacity: 0.2; stroke-width: 0.25; stroke-linecap: square"/>
   </g>
   <g id="line2d_37">
    <path d="M 242.016261 134.08309 
L 242.008604 132.328823 
L 242.005481 130.572378 
L 242.005434 128.814368 
L 242.009268 127.055292 
L 242.021231 125.295579 
L 242.051048 123.535706 
L 242.117502 121.776676 
L 242.183616 120.017608 
L 242.236581 118.258235 
L 242.203499 116.49862 
L 242.164771 114.739577 
L 242.064799 112.983405 
L 242.023275 111.225409 
L 242.01158 109.467382 
L 242.011728 107.709677 
L 242.014383 105.952297 
L 242.016075 104.195206 
L 242.016381 102.438373 
L 242.016015 100.681761 
L 242.015678 98.925337 
L 242.01558 97.169062 
L 242.015645 95.412907 
L 242.015766 93.656843 
L 242.015805 91.900846 
L 242.015804 90.144898 
L 242.015803 88.388984 
L 242.01581 86.633092 
L 242.015818 84.877214 
L 242.015823 83.121344 
L 242.015832 81.365476 
" clip-path="url(#pa0a63009f2)" style="fill: none; stroke: #ff0000; stroke-opacity: 0.4; stroke-width: 0.25; stroke-linecap: square"/>
   </g>
   <g id="line2d_38">
    <path d="M 242.016261 134.08309 
L 242.008722 132.328823 
L 242.005659 130.572375 
L 242.005566 128.814362 
L 242.009239 127.055284 
L 242.020966 125.295566 
L 242.050619 123.535687 
L 242.117378 121.776666 
L 242.183683 120.017601 
L 242.236787 118.258227 
L 242.203484 116.498612 
L 242.165022 114.739559 
L 242.064367 112.983422 
L 242.023043 111.225418 
L 242.011637 109.467385 
L 242.011898 107.709676 
L 242.014509 105.952292 
L 242.016107 104.195197 
L 242.016351 102.438359 
L 242.015976 100.681744 
L 242.015662 98.925315 
L 242.015587 97.169036 
L 242.01566 95.412875 
L 242.015775 93.656805 
L 242.015808 91.900803 
L 242.015804 90.144849 
L 242.015802 88.388929 
L 242.015807 86.63303 
L 242.015811 84.877145 
L 242.01581 83.121268 
L 242.01581 81.365394 
" clip-path="url(#pa0a63009f2)" style="fill: none; stroke: #ff0000; stroke-opacity: 0.6; stroke-width: 0.25; stroke-linecap: square"/>
   </g>
   <g id="line2d_39">
    <path d="M 242.016261 134.08309 
L 242.008841 132.328822 
L 242.005844 130.572373 
L 242.005713 128.814358 
L 242.009235 127.055277 
L 242.020736 125.295555 
L 242.050232 123.535671 
L 242.11729 121.776659 
L 242.183782 120.017597 
L 242.237014 118.258224 
L 242.203494 116.498609 
L 242.165297 114.739547 
L 242.063969 112.983445 
L 242.022838 111.225435 
L 242.011704 109.467399 
L 242.012064 107.709688 
L 242.014625 105.952303 
L 242.016129 104.195207 
L 242.016314 102.43837 
L 242.015933 100.681756 
L 242.01564 98.925328 
L 242.015586 97.169051 
L 242.015667 95.412893 
L 242.015776 93.656826 
L 242.015805 91.900827 
L 242.015802 90.144877 
L 242.015802 88.38896 
L 242.015809 86.633066 
L 242.015815 84.877185 
L 242.015819 83.121312 
L 242.015823 81.365442 
" clip-path="url(#pa0a63009f2)" style="fill: none; stroke: #ff0000; stroke-opacity: 0.8; stroke-width: 0.25; stroke-linecap: square"/>
   </g>
   <g id="line2d_40">
    <path d="M 242.016261 134.08309 
L 242.008952 132.328822 
L 242.006011 130.572371 
L 242.005832 128.814354 
L 242.009195 127.055271 
L 242.020459 125.295545 
L 242.04978 123.535656 
L 242.117113 121.776651 
L 242.183761 120.017592 
L 242.2371 118.258218 
L 242.203367 116.498603 
L 242.165442 114.739532 
L 242.063466 112.983463 
L 242.022537 111.225445 
L 242.011679 109.467405 
L 242.012143 107.709691 
L 242.014667 105.952303 
L 242.016095 104.195205 
L 242.016242 102.438365 
L 242.01587 100.681749 
L 242.015609 98.925319 
L 242.015583 97.16904 
L 242.015674 95.412881 
L 242.015781 93.656812 
L 242.015808 91.90081 
L 242.015806 90.144858 
L 242.015806 88.388939 
L 242.015812 86.633043 
L 242.015815 84.87716 
L 242.015815 83.121285 
L 242.015815 81.365413 
" clip-path="url(#pa0a63009f2)" style="fill: none; stroke: #ff0000; stroke-width: 0.25; stroke-linecap: square"/>
   </g>
   <g id="line2d_41">
    <path d="M 230.272669 203.710705 
L 230.298859 205.529671 
L 230.304649 207.358162 
L 230.306049 209.195098 
L 230.306922 211.039419 
L 230.308282 212.890036 
L 230.310001 214.745881 
L 230.310175 216.605958 
L 230.303188 218.46935 
L 230.275704 220.335094 
L 230.196161 222.201224 
L 230.138021 224.069499 
L 230.06767 225.938148 
L 230.151543 227.806647 
L 230.153513 229.676881 
L 230.26617 231.543465 
L 230.299417 233.412616 
L 230.304785 235.281564 
L 230.305189 237.150014 
L 230.304598 239.017946 
L 230.304209 240.885371 
L 230.304117 242.75232 
L 230.304153 244.61884 
L 230.304197 246.484987 
L 230.304191 248.350821 
L 230.304186 250.216405 
L 230.30422 252.081799 
L 230.304287 253.94706 
L 230.304349 255.812243 
L 230.304358 257.67739 
L 230.304258 259.542533 
" clip-path="url(#pa0a63009f2)" style="fill: none; stroke: #ff0000; stroke-opacity: 0.2; stroke-width: 0.25; stroke-linecap: square"/>
   </g>
   <g id="line2d_42">
    <path d="M 230.272669 203.710705 
L 230.298864 205.529671 
L 230.304659 207.358162 
L 230.306071 209.195099 
L 230.306963 211.039422 
L 230.308355 212.890041 
L 230.310125 214.745888 
L 230.310386 216.605969 
L 230.303526 218.469366 
L 230.276172 220.335117 
L 230.196577 222.201251 
L 230.138519 224.069535 
L 230.068158 225.938191 
L 230.15219 227.806692 
L 230.15394 229.676935 
L 230.266799 231.543516 
L 230.299984 233.412679 
L 230.3053 235.281637 
L 230.305662 237.150097 
L 230.305039 239.018039 
L 230.304613 240.885474 
L 230.304477 242.752432 
L 230.304459 244.61896 
L 230.304444 246.485112 
L 230.304376 248.350949 
L 230.304308 250.216533 
L 230.30428 252.081923 
L 230.304284 253.947178 
L 230.304289 255.812348 
L 230.30425 257.677478 
L 230.304114 259.542601 
" clip-path="url(#pa0a63009f2)" style="fill: none; stroke: #ff0000; stroke-opacity: 0.4; stroke-width: 0.25; stroke-linecap: square"/>
   </g>
   <g id="line2d_43">
    <path d="M 230.272669 203.710705 
L 230.298827 205.529671 
L 230.304572 207.358163 
L 230.305927 209.195099 
L 230.306759 211.039422 
L 230.308091 212.89004 
L 230.309811 214.745888 
L 230.310046 216.605968 
L 230.303195 218.469365 
L 230.275849 220.335117 
L 230.196082 222.201245 
L 230.138003 224.069531 
L 230.067551 225.938186 
L 230.151694 227.806685 
L 230.153219 229.676931 
L 230.266294 231.543502 
L 230.299452 233.412669 
L 230.304767 235.28163 
L 230.305151 237.150094 
L 230.30457 239.01804 
L 230.304195 240.885477 
L 230.304108 242.752438 
L 230.304137 244.618967 
L 230.304169 246.485119 
L 230.30415 248.350954 
L 230.304131 250.216534 
L 230.304151 252.081917 
L 230.304203 253.94716 
L 230.304258 255.812315 
L 230.304275 257.677427 
L 230.304205 259.542529 
" clip-path="url(#pa0a63009f2)" style="fill: none; stroke: #ff0000; stroke-opacity: 0.6; stroke-width: 0.25; stroke-linecap: square"/>
   </g>
   <g id="line2d_44">
    <path d="M 230.272669 203.710705 
L 230.298839 205.529671 
L 230.304597 207.358162 
L 230.305972 209.195098 
L 230.306832 211.03942 
L 230.308203 212.890037 
L 230.309981 214.745884 
L 230.310305 216.605964 
L 230.303582 218.469362 
L 230.276367 220.335116 
L 230.196551 222.201243 
L 230.138553 224.069532 
L 230.068091 225.938189 
L 230.152385 227.806683 
L 230.153693 229.676933 
L 230.266964 231.543497 
L 230.300058 233.412669 
L 230.305322 235.281635 
L 230.305665 237.150105 
L 230.305053 239.018057 
L 230.304643 240.8855 
L 230.304514 242.752467 
L 230.304495 244.619001 
L 230.304473 246.485159 
L 230.304401 248.350997 
L 230.304328 250.216578 
L 230.304292 252.08196 
L 230.304289 253.9472 
L 230.304291 255.812348 
L 230.304262 257.677449 
L 230.304154 259.542538 
" clip-path="url(#pa0a63009f2)" style="fill: none; stroke: #ff0000; stroke-opacity: 0.8; stroke-width: 0.25; stroke-linecap: square"/>
   </g>
   <g id="line2d_45">
    <path d="M 230.272669 203.710705 
L 230.298804 205.529672 
L 230.304514 207.358163 
L 230.305835 209.195099 
L 230.306635 211.039421 
L 230.307944 212.890038 
L 230.309668 214.745885 
L 230.309961 216.605965 
L 230.303239 218.469363 
L 230.276022 220.335118 
L 230.196028 222.201239 
L 230.138 224.06953 
L 230.067442 225.938186 
L 230.151835 227.806678 
L 230.152919 229.676931 
L 230.266401 231.543486 
L 230.299467 233.412662 
L 230.30473 235.281632 
L 230.305097 237.150106 
L 230.304529 239.018061 
L 230.304171 240.885509 
L 230.304092 242.75248 
L 230.304122 244.619018 
L 230.304151 246.485178 
L 230.30413 248.351018 
L 230.304108 250.216599 
L 230.304122 252.081979 
L 230.304166 253.947214 
L 230.304216 255.812355 
L 230.304239 257.677445 
L 230.30419 259.542521 
" clip-path="url(#pa0a63009f2)" style="fill: none; stroke: #ff0000; stroke-width: 0.25; stroke-linecap: square"/>
   </g>
   <g id="line2d_46">
    <path d="M 265.326017 180.411285 
L 267.152256 180.390422 
L 268.986696 180.394848 
L 270.828205 180.425191 
L 272.672606 180.543409 
L 274.526351 180.540145 
L 276.381501 180.645576 
L 278.241175 180.55696 
L 280.103107 180.461621 
L 281.968582 180.408857 
L 283.836042 180.390069 
L 285.704475 180.385167 
L 287.573411 180.384207 
L 289.44253 180.383883 
L 291.311596 180.383337 
L 293.180438 180.38266 
L 295.048947 180.382465 
L 296.91706 180.382863 
L 298.784747 180.383343 
L 300.65201 180.383709 
L 302.518866 180.383926 
L 304.385349 180.384024 
L 306.251498 180.384051 
L 308.117361 180.384046 
L 309.982986 180.384019 
L 311.848418 180.383977 
L 313.713705 180.38393 
L 315.578888 180.383888 
L 317.444008 180.38385 
L 319.309097 180.383822 
L 321.174183 180.383802 
" clip-path="url(#pa0a63009f2)" style="fill: none; stroke: #ff0000; stroke-opacity: 0.2; stroke-width: 0.25; stroke-linecap: square"/>
   </g>
   <g id="line2d_47">
    <path d="M 265.326017 180.411285 
L 267.152253 180.390098 
L 268.98669 180.394165 
L 270.828199 180.424157 
L 272.672611 180.542091 
L 274.526347 180.53845 
L 276.381508 180.643565 
L 278.241148 180.554394 
L 280.103058 180.458747 
L 281.968525 180.405825 
L 283.835983 180.387091 
L 285.704416 180.382348 
L 287.573354 180.381619 
L 289.442477 180.381583 
L 291.311547 180.381365 
L 293.180396 180.381029 
L 295.048913 180.381153 
L 296.917034 180.381826 
L 298.784731 180.382534 
L 300.652003 180.383085 
L 302.518869 180.38345 
L 304.385361 180.383668 
L 306.25152 180.383788 
L 308.117392 180.383857 
L 309.983022 180.383886 
L 311.84846 180.383888 
L 313.71375 180.383878 
L 315.578933 180.383867 
L 317.444049 180.383857 
L 319.309132 180.383853 
L 321.174209 180.383854 
" clip-path="url(#pa0a63009f2)" style="fill: none; stroke: #ff0000; stroke-opacity: 0.4; stroke-width: 0.25; stroke-linecap: square"/>
   </g>
   <g id="line2d_48">
    <path d="M 265.326017 180.411285 
L 267.152262 180.390902 
L 268.986706 180.395973 
L 270.828213 180.42716 
L 272.672561 180.546461 
L 274.526328 180.543954 
L 276.38147 180.649906 
L 278.241144 180.560831 
L 280.103081 180.46519 
L 281.968566 180.412086 
L 283.836041 180.393187 
L 285.70449 180.388215 
L 287.57344 180.387195 
L 289.442573 180.386817 
L 291.311651 180.386215 
L 293.180506 180.385455 
L 295.049028 180.385108 
L 296.917151 180.38527 
L 298.784849 180.385447 
L 300.652122 180.38547 
L 302.518986 180.38533 
L 304.385475 180.385083 
L 306.25163 180.384791 
L 308.117495 180.38451 
L 309.983118 180.384256 
L 311.848546 180.384047 
L 313.713823 180.383884 
L 315.578992 180.38377 
L 317.44409 180.383698 
L 319.309153 180.383664 
L 321.174206 180.383657 
" clip-path="url(#pa0a63009f2)" style="fill: none; stroke: #ff0000; stroke-opacity: 0.6; stroke-width: 0.25; stroke-linecap: square"/>
   </g>
   <g id="line2d_49">
    <path d="M 265.326017 180.411285 
L 267.152264 180.391067 
L 268.986712 180.396354 
L 270.828224 180.427826 
L 272.67256 180.547501 
L 274.526342 180.545177 
L 276.3815 180.651121 
L 278.241162 180.561461 
L 280.103083 180.465252 
L 281.96856 180.411501 
L 283.836038 180.392093 
L 285.704491 180.386676 
L 287.573445 180.385275 
L 289.44258 180.384595 
L 291.31166 180.383775 
L 293.180515 180.382877 
L 295.049037 180.382459 
L 296.91716 180.382604 
L 298.784858 180.382819 
L 300.652129 180.382938 
L 302.518993 180.382953 
L 304.385481 180.382915 
L 306.251634 180.382877 
L 308.117497 180.382883 
L 309.983118 180.382938 
L 311.848542 180.383043 
L 313.713814 180.383184 
L 315.578975 180.383354 
L 317.444065 180.383543 
L 319.309116 180.383747 
L 321.174156 180.383962 
" clip-path="url(#pa0a63009f2)" style="fill: none; stroke: #ff0000; stroke-opacity: 0.8; stroke-width: 0.25; stroke-linecap: square"/>
   </g>
   <g id="line2d_50">
    <path d="M 265.326017 180.411285 
L 267.152269 180.391529 
L 268.986724 180.397396 
L 270.82824 180.429575 
L 272.672543 180.550088 
L 274.526351 180.548434 
L 276.38151 180.654811 
L 278.241186 180.564925 
L 280.103116 180.46844 
L 281.968597 180.414251 
L 283.836085 180.39452 
L 285.704547 180.38882 
L 287.573508 180.387178 
L 289.442648 180.386305 
L 291.31173 180.385347 
L 293.180587 180.384354 
L 295.049109 180.383865 
L 296.917231 180.383949 
L 298.784928 180.384111 
L 300.652198 180.384185 
L 302.519061 180.384162 
L 304.385547 180.384087 
L 306.251698 180.384006 
L 308.117559 180.383954 
L 309.983176 180.383927 
L 311.848597 180.383919 
L 313.713864 180.383913 
L 315.57902 180.383904 
L 317.444101 180.383885 
L 319.309143 180.383857 
L 321.174171 180.383822 
" clip-path="url(#pa0a63009f2)" style="fill: none; stroke: #ff0000; stroke-width: 0.25; stroke-linecap: square"/>
   </g>
   <g id="line2d_51">
    <path d="M 241.963969 193.923819 
L 242.072284 192.128363 
L 242.162812 190.325364 
L 241.753318 188.553233 
L 242.232727 186.776196 
L 241.70468 184.980676 
L 242.199059 183.13622 
L 242.900593 181.309221 
L 243.819456 179.518498 
L 244.963119 177.789458 
L 245.429247 175.710523 
L 245.41219 173.534638 
L 245.131681 171.350559 
L 244.58828 169.212988 
L 243.796986 167.172896 
L 242.783637 165.271594 
L 241.582385 163.541708 
L 240.851664 161.633512 
L 240.728687 159.667043 
L 240.815933 157.778365 
L 241.086313 155.987056 
L 241.515139 154.301154 
L 242.083004 152.717555 
L 241.732502 151.109233 
L 242.286355 149.581013 
L 241.940982 148.001255 
L 242.322993 146.432429 
L 242.190485 144.820809 
L 242.171784 143.200882 
L 242.085001 141.580494 
L 242.021207 139.95782 
" clip-path="url(#pa0a63009f2)" style="fill: none; stroke: #ff0000; stroke-opacity: 0.2; stroke-width: 0.25; stroke-linecap: square"/>
   </g>
   <g id="line2d_52">
    <path d="M 241.963969 193.923819 
L 242.07414 192.128476 
L 242.169204 190.325657 
L 241.753345 188.554816 
L 242.231681 186.777156 
L 241.701963 184.981541 
L 242.194885 183.135864 
L 242.895626 181.307299 
L 243.813983 179.514619 
L 244.958388 177.78385 
L 245.421474 175.70196 
L 245.401573 173.523459 
L 245.118986 171.336508 
L 244.573645 169.195687 
L 243.779113 167.152387 
L 242.759631 165.249046 
L 241.547795 163.520376 
L 240.822655 161.604523 
L 240.703279 159.632925 
L 240.792529 157.740254 
L 241.064996 155.946554 
L 241.495023 154.26008 
L 242.063367 152.677609 
L 241.717069 151.070737 
L 242.267186 149.544501 
L 241.926082 147.967528 
L 242.328843 146.407789 
L 242.190246 144.800357 
L 242.168881 143.183911 
L 242.075525 141.567075 
L 242.018048 139.947116 
" clip-path="url(#pa0a63009f2)" style="fill: none; stroke: #ff0000; stroke-opacity: 0.4; stroke-width: 0.25; stroke-linecap: square"/>
   </g>
   <g id="line2d_53">
    <path d="M 241.963969 193.923819 
L 242.075817 192.128579 
L 242.174978 190.326132 
L 241.753964 188.556778 
L 242.231909 186.779348 
L 241.702101 184.984145 
L 242.194659 183.138738 
L 242.895085 181.310383 
L 243.81312 179.517771 
L 244.957468 177.787025 
L 245.417977 175.704404 
L 245.397277 173.525504 
L 245.114199 171.337911 
L 244.568517 169.196126 
L 243.773616 167.151513 
L 242.753548 165.246577 
L 241.54047 163.516406 
L 240.813036 161.599202 
L 240.693497 159.625602 
L 240.782567 157.731238 
L 241.055362 155.936478 
L 241.486025 154.249816 
L 242.055062 152.667967 
L 241.710281 151.061634 
L 242.260869 149.536679 
L 241.921722 147.960381 
L 242.339965 146.405702 
L 242.194445 144.7996 
L 242.170333 143.183669 
L 242.071956 141.567385 
L 242.017843 139.947398 
" clip-path="url(#pa0a63009f2)" style="fill: none; stroke: #ff0000; stroke-opacity: 0.6; stroke-width: 0.25; stroke-linecap: square"/>
   </g>
   <g id="line2d_54">
    <path d="M 241.963969 193.923819 
L 242.077796 192.128704 
L 242.181637 190.326485 
L 241.75613 188.558112 
L 242.234105 186.780553 
L 241.704472 184.9851 
L 242.196959 183.139401 
L 242.897369 181.310667 
L 243.815306 179.517501 
L 244.959768 177.786136 
L 245.419722 175.702627 
L 245.398511 173.522786 
L 245.114858 171.33409 
L 244.568243 169.191103 
L 243.771948 167.145312 
L 242.750026 165.239365 
L 241.534213 163.508795 
L 240.806253 161.589693 
L 240.685632 159.6143 
L 240.773152 157.718348 
L 241.044796 155.922451 
L 241.474808 154.235384 
L 242.043348 152.653814 
L 241.698001 151.048552 
L 242.247471 149.52444 
L 241.907722 147.949576 
L 242.344403 146.401265 
L 242.19317 144.79681 
L 242.168631 143.18187 
L 242.068158 141.566563 
L 242.01863 139.947173 
" clip-path="url(#pa0a63009f2)" style="fill: none; stroke: #ff0000; stroke-opacity: 0.8; stroke-width: 0.25; stroke-linecap: square"/>
   </g>
   <g id="line2d_55">
    <path d="M 241.963969 193.923819 
L 242.079721 192.128827 
L 242.188861 190.326967 
L 241.757493 188.560093 
L 242.235065 186.782538 
L 241.705105 184.98733 
L 242.197884 183.141853 
L 242.898009 181.31317 
L 243.816194 179.520257 
L 244.95969 177.788282 
L 245.419617 175.704643 
L 245.399575 173.524481 
L 245.114874 171.33538 
L 244.565962 169.192165 
L 243.767236 167.146194 
L 242.743951 165.239503 
L 241.531285 163.504865 
L 240.805293 161.583233 
L 240.678692 159.606561 
L 240.766662 157.709204 
L 241.039474 155.912461 
L 241.471036 154.225303 
L 242.04087 152.644204 
L 241.693621 151.039699 
L 242.247775 149.51777 
L 241.904602 147.944119 
L 242.360544 146.401746 
L 242.198585 144.798527 
L 242.170823 143.183683 
L 242.065761 141.568578 
L 242.017776 139.948958 
" clip-path="url(#pa0a63009f2)" style="fill: none; stroke: #ff0000; stroke-width: 0.25; stroke-linecap: square"/>
   </g>
   <g id="line2d_56">
    <path d="M 255.477825 168.746653 
L 253.640759 168.838517 
L 251.816954 168.513924 
L 249.998034 168.953388 
L 248.150427 168.531133 
L 246.346484 167.856819 
L 244.592162 166.980376 
L 242.909699 165.900157 
L 241.325716 164.617178 
L 239.277442 164.316233 
L 237.19205 164.253234 
L 235.116361 164.427631 
L 233.098857 164.832765 
L 231.181715 165.450652 
L 229.3942 166.256471 
L 227.750339 167.221869 
L 226.238027 168.301045 
L 224.426007 168.449915 
L 222.638234 168.416777 
L 221.101324 169.289077 
L 219.345303 169.247554 
L 217.603534 169.034906 
L 215.872897 168.725565 
L 214.109532 168.658861 
L 212.341731 168.52963 
L 210.560873 168.534053 
L 208.774719 168.445148 
L 206.982079 168.529798 
L 205.183274 168.534169 
L 203.383492 168.601424 
L 201.583374 168.673246 
" clip-path="url(#pa0a63009f2)" style="fill: none; stroke: #ff0000; stroke-opacity: 0.2; stroke-width: 0.25; stroke-linecap: square"/>
   </g>
   <g id="line2d_57">
    <path d="M 255.477825 168.746653 
L 253.640767 168.838679 
L 251.816954 168.514009 
L 249.998318 168.954806 
L 248.150685 168.532456 
L 246.34658 167.858427 
L 244.592077 166.982227 
L 242.909434 165.902192 
L 241.325305 164.619316 
L 239.276996 164.318312 
L 237.191564 164.255406 
L 235.115855 164.429927 
L 233.098347 164.835151 
L 231.181204 165.453074 
L 229.393696 166.258903 
L 227.74986 167.224308 
L 226.238297 168.304483 
L 224.426348 168.453814 
L 222.638597 168.421203 
L 221.101469 169.293069 
L 219.345449 169.251877 
L 217.603619 169.039626 
L 215.873101 168.729367 
L 214.10962 168.66349 
L 212.341618 168.535214 
L 210.560579 168.540595 
L 208.774134 168.452652 
L 206.981218 168.537942 
L 205.18204 168.542281 
L 203.381801 168.609038 
L 201.581114 168.678792 
" clip-path="url(#pa0a63009f2)" style="fill: none; stroke: #ff0000; stroke-opacity: 0.4; stroke-width: 0.25; stroke-linecap: square"/>
   </g>
   <g id="line2d_58">
    <path d="M 255.477825 168.746653 
L 253.640764 168.838611 
L 251.816943 168.513634 
L 249.998415 168.955403 
L 248.150697 168.532709 
L 246.346441 167.858528 
L 244.591925 166.981871 
L 242.909642 165.900865 
L 241.325405 164.617775 
L 239.27702 164.315839 
L 237.191366 164.253694 
L 235.115679 164.430613 
L 233.098496 164.838228 
L 231.181372 165.456602 
L 229.392522 166.259622 
L 227.747412 167.22289 
L 226.236121 168.303386 
L 224.424173 168.451942 
L 222.636494 168.420487 
L 221.099023 169.291512 
L 219.343194 169.247583 
L 217.60135 169.036485 
L 215.871247 168.724581 
L 214.107856 168.658851 
L 212.339901 168.530867 
L 210.558893 168.536569 
L 208.772415 168.448974 
L 206.979445 168.534606 
L 205.180137 168.538751 
L 203.379694 168.605074 
L 201.578703 168.672954 
" clip-path="url(#pa0a63009f2)" style="fill: none; stroke: #ff0000; stroke-opacity: 0.6; stroke-width: 0.25; stroke-linecap: square"/>
   </g>
   <g id="line2d_59">
    <path d="M 255.477825 168.746653 
L 253.640761 168.838562 
L 251.816921 168.513319 
L 249.998502 168.956087 
L 248.150675 168.533109 
L 246.346238 167.85882 
L 244.591618 166.981864 
L 242.909418 165.900296 
L 241.325092 164.616949 
L 239.276611 164.314151 
L 237.190739 164.252328 
L 235.114957 164.430316 
L 233.097855 164.839121 
L 231.180759 165.457954 
L 229.391445 166.260088 
L 227.74597 167.222719 
L 226.235532 168.304296 
L 224.423709 168.453117 
L 222.636148 168.422751 
L 221.098722 169.293514 
L 219.343092 169.248856 
L 217.601328 169.038666 
L 215.871592 168.725776 
L 214.108342 168.660858 
L 212.340467 168.533811 
L 210.559576 168.540384 
L 208.773131 168.453554 
L 206.980215 168.539862 
L 205.180875 168.544145 
L 203.380339 168.610387 
L 201.57916 168.676784 
" clip-path="url(#pa0a63009f2)" style="fill: none; stroke: #ff0000; stroke-opacity: 0.8; stroke-width: 0.25; stroke-linecap: square"/>
   </g>
   <g id="line2d_60">
    <path d="M 255.477825 168.746653 
L 253.640765 168.838639 
L 251.816882 168.513301 
L 249.998637 168.957274 
L 248.150666 168.534256 
L 246.345919 167.860284 
L 244.590846 166.983801 
L 242.90789 165.903046 
L 241.323244 164.61979 
L 239.274599 164.31686 
L 237.188582 164.254389 
L 235.112486 164.430389 
L 233.094845 164.837102 
L 231.177426 165.455177 
L 229.388876 166.259067 
L 227.744039 167.222714 
L 226.234537 168.305447 
L 224.42287 168.454681 
L 222.635481 168.423046 
L 221.097712 169.292851 
L 219.342228 169.249652 
L 217.600866 169.037681 
L 215.871632 168.723015 
L 214.108541 168.658114 
L 212.340791 168.531193 
L 210.56 168.537888 
L 208.773604 168.451219 
L 206.980709 168.537802 
L 205.181321 168.54192 
L 203.380672 168.607888 
L 201.579291 168.672703 
" clip-path="url(#pa0a63009f2)" style="fill: none; stroke: #ff0000; stroke-width: 0.25; stroke-linecap: square"/>
   </g>
   <g id="line2d_61">
    <path d="M 230.183855 156.174689 
L 229.562569 157.953092 
L 229.795225 159.838816 
L 229.113707 161.635591 
L 229.073135 163.587093 
L 228.792242 165.552203 
L 229.067677 167.552444 
L 229.648968 169.516724 
L 230.466334 171.418318 
L 231.499253 173.22375 
L 232.730073 174.898749 
L 234.136088 176.416864 
L 235.693256 177.757555 
L 237.378171 178.90561 
L 239.16625 179.849152 
L 241.029915 180.579386 
L 242.940515 181.093906 
L 244.87226 181.394855 
L 246.803297 181.48655 
L 248.714446 181.375014 
L 250.588318 181.068971 
L 252.455368 180.797748 
L 254.323541 180.610639 
L 256.191814 180.510839 
L 258.057491 180.458387 
L 259.920661 180.427467 
L 261.782019 180.403063 
L 263.642213 180.382702 
L 265.50158 180.36653 
L 267.360273 180.35543 
L 269.218343 180.35007 
" clip-path="url(#pa0a63009f2)" style="fill: none; stroke: #ff0000; stroke-opacity: 0.2; stroke-width: 0.25; stroke-linecap: square"/>
   </g>
   <g id="line2d_62">
    <path d="M 230.183855 156.174689 
L 229.562403 157.953034 
L 229.794347 159.838863 
L 229.11217 161.635428 
L 229.070886 163.586967 
L 228.789479 165.552073 
L 229.064576 167.552444 
L 229.64619 169.516728 
L 230.46318 171.418602 
L 231.495736 173.224377 
L 232.726276 174.899739 
L 234.132192 176.418133 
L 235.689416 177.758977 
L 237.37447 178.907091 
L 239.162692 179.850685 
L 241.026463 180.581054 
L 242.937169 181.09573 
L 244.869033 181.396774 
L 246.800184 181.488492 
L 248.711421 181.376884 
L 250.585126 181.069407 
L 252.452111 180.797449 
L 254.320271 180.610063 
L 256.188541 180.510343 
L 258.054201 180.458282 
L 259.917337 180.42803 
L 261.778649 180.404544 
L 263.638787 180.38532 
L 265.49809 180.370472 
L 267.356713 180.36084 
L 269.214707 180.35705 
" clip-path="url(#pa0a63009f2)" style="fill: none; stroke: #ff0000; stroke-opacity: 0.4; stroke-width: 0.25; stroke-linecap: square"/>
   </g>
   <g id="line2d_63">
    <path d="M 230.183855 156.174689 
L 229.563339 157.953361 
L 229.794844 159.839261 
L 229.112328 161.635733 
L 229.070606 163.587313 
L 228.788951 165.552449 
L 229.063941 167.552913 
L 229.646075 169.517137 
L 230.462977 171.419157 
L 231.495253 173.225218 
L 232.725916 174.900638 
L 234.133709 176.417462 
L 235.694097 177.754825 
L 237.382028 178.898946 
L 239.171706 179.840064 
L 241.035368 180.571077 
L 242.945636 181.087853 
L 244.877345 181.390623 
L 246.808543 181.483337 
L 248.719839 181.371529 
L 250.593375 181.062758 
L 252.460286 180.790193 
L 254.328418 180.602645 
L 256.196661 180.503099 
L 258.062276 180.451499 
L 259.925346 180.421964 
L 261.786579 180.39942 
L 263.646627 180.381338 
L 265.505831 180.3678 
L 267.364348 180.359607 
L 269.22223 180.357345 
" clip-path="url(#pa0a63009f2)" style="fill: none; stroke: #ff0000; stroke-opacity: 0.6; stroke-width: 0.25; stroke-linecap: square"/>
   </g>
   <g id="line2d_64">
    <path d="M 230.183855 156.174689 
L 229.562933 157.953219 
L 229.790409 159.839712 
L 229.107587 161.636293 
L 229.06309 163.588117 
L 228.779947 165.553439 
L 229.054674 167.554421 
L 229.640677 169.518071 
L 230.459078 171.420123 
L 231.493266 173.225875 
L 232.725573 174.900997 
L 234.133287 176.418961 
L 235.692273 177.759212 
L 237.379006 178.906594 
L 239.168795 179.849317 
L 241.034 180.578661 
L 242.945961 181.092183 
L 244.878853 181.392002 
L 246.810763 181.482461 
L 248.722461 181.369628 
L 250.596116 181.05976 
L 252.462409 180.78213 
L 254.330234 180.591903 
L 256.198239 180.491338 
L 258.063546 180.440065 
L 259.92621 180.412004 
L 261.786955 180.391935 
L 263.646451 180.377189 
L 265.505055 180.367691 
L 267.362938 180.364071 
L 269.220163 180.366742 
" clip-path="url(#pa0a63009f2)" style="fill: none; stroke: #ff0000; stroke-opacity: 0.8; stroke-width: 0.25; stroke-linecap: square"/>
   </g>
   <g id="line2d_65">
    <path d="M 230.183855 156.174689 
L 229.563031 157.953254 
L 229.789921 159.839833 
L 229.106932 161.636384 
L 229.061995 163.588244 
L 228.778624 165.553594 
L 229.053331 167.554652 
L 229.639996 169.518192 
L 230.458541 171.420284 
L 231.492878 173.226069 
L 232.725375 174.90119 
L 234.133395 176.41903 
L 235.692761 177.759027 
L 237.379852 178.906104 
L 239.169912 179.848584 
L 241.035282 180.577843 
L 242.947366 181.09135 
L 244.880368 181.391117 
L 246.812367 181.481461 
L 248.724111 181.368425 
L 250.597761 181.058329 
L 252.46394 180.779927 
L 254.331702 180.58932 
L 256.199651 180.488645 
L 258.064888 180.437473 
L 259.927465 180.409691 
L 261.788108 180.390053 
L 263.647492 180.375865 
L 265.505975 180.367026 
L 267.363731 180.364142 
L 269.220825 180.367598 
" clip-path="url(#pa0a63009f2)" style="fill: none; stroke: #ff0000; stroke-width: 0.25; stroke-linecap: square"/>
   </g>
   <g id="line2d_66">
    <path d="M 203.199776 180.573562 
L 204.712123 180.567137 
L 206.215288 180.625519 
L 207.70957 180.581911 
L 209.192982 180.537352 
L 210.663518 180.471098 
L 212.122663 180.467097 
L 213.568465 180.494502 
L 215.000806 180.550456 
L 216.406603 180.766103 
L 217.781711 180.437016 
L 219.128022 180.853734 
L 220.440067 181.375594 
L 221.717272 182.003333 
L 223.147613 182.203058 
L 224.616379 182.341942 
L 226.130764 182.409217 
L 227.694274 182.448174 
L 229.311999 182.468207 
L 230.937577 182.058668 
L 232.577907 181.482816 
L 234.217536 180.726467 
L 235.837819 179.774715 
L 237.414595 178.614567 
L 238.915445 177.23578 
L 240.293967 175.646469 
L 241.498747 173.880531 
L 242.492812 171.982107 
L 243.259986 169.985729 
L 243.78883 167.916865 
L 244.071946 165.801818 
" clip-path="url(#pa0a63009f2)" style="fill: none; stroke: #ff0000; stroke-opacity: 0.2; stroke-width: 0.25; stroke-linecap: square"/>
   </g>
   <g id="line2d_67">
    <path d="M 203.199776 180.573562 
L 204.71211 180.564615 
L 206.215563 180.620457 
L 207.710168 180.575043 
L 209.194085 180.528825 
L 210.665281 180.461135 
L 212.125308 180.455838 
L 213.572169 180.48216 
L 215.005715 180.537443 
L 216.412732 180.753743 
L 217.789354 180.424918 
L 219.136475 180.844028 
L 220.449882 181.366572 
L 221.728445 181.994974 
L 223.158666 182.205982 
L 224.627691 182.356625 
L 226.14298 182.432001 
L 227.70761 182.470564 
L 229.32634 182.473055 
L 230.952121 182.061926 
L 232.591788 181.483928 
L 234.229628 180.725265 
L 235.846914 179.771685 
L 237.419856 178.610996 
L 238.917243 177.234169 
L 240.293384 175.649182 
L 241.495934 173.888537 
L 242.487467 171.995988 
L 243.252352 170.006353 
L 243.77899 167.94491 
L 244.060685 165.837827 
" clip-path="url(#pa0a63009f2)" style="fill: none; stroke: #ff0000; stroke-opacity: 0.4; stroke-width: 0.25; stroke-linecap: square"/>
   </g>
   <g id="line2d_68">
    <path d="M 203.199776 180.573562 
L 204.712108 180.564256 
L 206.215576 180.61972 
L 207.710174 180.573988 
L 209.194087 180.527447 
L 210.665278 180.459438 
L 212.125319 180.453822 
L 213.572205 180.479832 
L 215.005789 180.534837 
L 216.412857 180.751025 
L 217.789462 180.421952 
L 219.136727 180.840749 
L 220.450292 181.363027 
L 221.729086 181.991068 
L 223.159193 182.203181 
L 224.628148 182.354942 
L 226.143444 182.430861 
L 227.708107 182.468712 
L 229.326832 182.467996 
L 230.952323 182.055893 
L 232.591471 181.476732 
L 234.228519 180.716831 
L 235.844767 179.762139 
L 237.416698 178.60088 
L 238.913954 177.224824 
L 240.291764 175.642269 
L 241.497209 173.884624 
L 242.491737 171.994703 
L 243.259468 170.007267 
L 243.788575 167.947603 
L 244.072536 165.841989 
" clip-path="url(#pa0a63009f2)" style="fill: none; stroke: #ff0000; stroke-opacity: 0.6; stroke-width: 0.25; stroke-linecap: square"/>
   </g>
   <g id="line2d_69">
    <path d="M 203.199776 180.573562 
L 204.712106 180.564024 
L 206.215603 180.619252 
L 207.710238 180.57336 
L 209.194206 180.526669 
L 210.665472 180.458522 
L 212.125613 180.452774 
L 213.572624 180.478665 
L 215.006352 180.533588 
L 216.41357 180.749865 
L 217.79035 180.420755 
L 219.137925 180.83921 
L 220.451494 181.362032 
L 221.730785 181.989543 
L 223.16091 182.203002 
L 224.629934 182.356147 
L 226.145389 182.432904 
L 227.710245 182.470364 
L 229.329124 182.466786 
L 230.955442 182.057462 
L 232.59491 181.479039 
L 234.231613 180.718493 
L 235.847126 179.762904 
L 237.417738 178.600408 
L 238.913846 177.223806 
L 240.291466 175.641882 
L 241.498432 173.886135 
L 242.494082 171.997708 
L 243.258008 170.009763 
L 243.78319 167.950099 
L 244.06491 165.845213 
" clip-path="url(#pa0a63009f2)" style="fill: none; stroke: #ff0000; stroke-opacity: 0.8; stroke-width: 0.25; stroke-linecap: square"/>
   </g>
   <g id="line2d_70">
    <path d="M 203.199776 180.573562 
L 204.712104 180.563674 
L 206.215635 180.618521 
L 207.710301 180.572294 
L 209.19432 180.52525 
L 210.665654 180.45674 
L 212.1259 180.450618 
L 213.573045 180.47613 
L 215.006938 180.530699 
L 216.414361 180.746781 
L 217.791257 180.41731 
L 219.139158 180.835442 
L 220.45296 181.35831 
L 221.732652 181.985557 
L 223.162859 182.200169 
L 224.632016 182.354486 
L 226.147687 182.431862 
L 227.712792 182.46872 
L 229.331874 182.462094 
L 230.958558 182.053485 
L 232.598224 181.475262 
L 234.234929 180.714663 
L 235.850364 179.75915 
L 237.420627 178.596607 
L 238.915885 177.219672 
L 240.291921 175.637065 
L 241.497967 173.881446 
L 242.493057 171.993534 
L 243.253069 170.004952 
L 243.775809 167.945579 
L 244.057723 165.841654 
" clip-path="url(#pa0a63009f2)" style="fill: none; stroke: #ff0000; stroke-width: 0.25; stroke-linecap: square"/>
   </g>
   <g id="line2d_71">
    <path d="M 242.01555 247.96487 
L 242.015436 246.208718 
L 242.015275 244.452518 
L 242.015039 242.696259 
L 242.014691 240.939925 
L 242.014187 239.183502 
L 242.013515 237.426975 
L 242.012959 235.670327 
L 242.014641 233.913547 
L 242.031283 232.156699 
L 242.135988 230.402726 
L 242.180341 228.645928 
L 242.254543 226.890032 
L 242.154298 225.135322 
L 242.184323 223.378211 
L 242.044627 221.626461 
L 242.019982 219.869617 
L 242.015908 218.112721 
L 242.015438 216.355923 
L 242.015518 214.599229 
L 242.015628 212.842641 
L 242.015701 211.086153 
L 242.015744 209.329757 
L 242.015767 207.573442 
L 242.015778 205.817197 
L 242.015781 204.061009 
L 242.01578 202.304867 
L 242.015777 200.548759 
L 242.015766 198.792678 
L 242.015738 197.036612 
L 242.015741 195.280553 
" clip-path="url(#pa0a63009f2)" style="fill: none; stroke: #ff0000; stroke-opacity: 0.2; stroke-width: 0.25; stroke-linecap: square"/>
   </g>
   <g id="line2d_72">
    <path d="M 242.01555 247.96487 
L 242.015413 246.208718 
L 242.015221 244.452518 
L 242.014949 242.69626 
L 242.014558 240.939928 
L 242.014004 239.183507 
L 242.013276 237.426982 
L 242.012659 235.670337 
L 242.014274 233.913561 
L 242.030842 232.156716 
L 242.135458 230.402743 
L 242.179751 228.645949 
L 242.253911 226.890056 
L 242.153696 225.135349 
L 242.183688 223.378244 
L 242.044021 221.626496 
L 242.019417 219.869654 
L 242.01539 218.112761 
L 242.014973 216.355963 
L 242.015111 214.59927 
L 242.015281 212.84268 
L 242.015418 211.08619 
L 242.015524 209.32979 
L 242.015608 207.573471 
L 242.015675 205.81722 
L 242.015729 204.061025 
L 242.015773 202.304874 
L 242.015809 200.548758 
L 242.015833 198.792665 
L 242.015843 197.036587 
L 242.015861 195.280517 
" clip-path="url(#pa0a63009f2)" style="fill: none; stroke: #ff0000; stroke-opacity: 0.4; stroke-width: 0.25; stroke-linecap: square"/>
   </g>
   <g id="line2d_73">
    <path d="M 242.01555 247.96487 
L 242.015438 246.208718 
L 242.015279 244.452518 
L 242.015047 242.696258 
L 242.014703 240.939925 
L 242.014204 239.183502 
L 242.013536 237.426974 
L 242.012984 235.670327 
L 242.014666 233.913547 
L 242.031299 232.156698 
L 242.13597 230.402724 
L 242.180325 228.645927 
L 242.254527 226.890032 
L 242.154381 225.135318 
L 242.184327 223.378208 
L 242.044639 221.626459 
L 242.020005 219.869616 
L 242.015938 218.112723 
L 242.015468 216.355927 
L 242.015547 214.599235 
L 242.015655 212.842648 
L 242.015727 211.086161 
L 242.015769 209.329765 
L 242.015791 207.57345 
L 242.015799 205.817203 
L 242.015799 204.061014 
L 242.015795 202.304869 
L 242.01579 200.548758 
L 242.015786 198.792672 
L 242.01578 197.036601 
L 242.015785 195.280536 
" clip-path="url(#pa0a63009f2)" style="fill: none; stroke: #ff0000; stroke-opacity: 0.6; stroke-width: 0.25; stroke-linecap: square"/>
   </g>
   <g id="line2d_74">
    <path d="M 242.01555 247.96487 
L 242.015413 246.208718 
L 242.015222 244.452518 
L 242.014949 242.696259 
L 242.01456 240.939927 
L 242.014007 239.183505 
L 242.01328 237.42698 
L 242.012663 235.670335 
L 242.014274 233.913557 
L 242.030829 232.156712 
L 242.135406 230.402736 
L 242.179698 228.645942 
L 242.253852 226.890049 
L 242.153731 225.135338 
L 242.183641 223.378231 
L 242.043982 221.626484 
L 242.019388 219.869642 
L 242.015369 218.11275 
L 242.014953 216.355954 
L 242.015091 214.599262 
L 242.015262 212.842673 
L 242.015399 211.086184 
L 242.015507 209.329786 
L 242.015592 207.573468 
L 242.01566 205.817218 
L 242.015715 204.061024 
L 242.015757 202.304876 
L 242.01579 200.548761 
L 242.015814 198.79267 
L 242.015827 197.036595 
L 242.015835 195.280526 
" clip-path="url(#pa0a63009f2)" style="fill: none; stroke: #ff0000; stroke-opacity: 0.8; stroke-width: 0.25; stroke-linecap: square"/>
   </g>
   <g id="line2d_75">
    <path d="M 242.01555 247.96487 
L 242.015439 246.208718 
L 242.015284 244.452518 
L 242.015055 242.696258 
L 242.014716 240.939924 
L 242.014222 239.183501 
L 242.01356 237.426973 
L 242.013014 235.670325 
L 242.014699 233.913544 
L 242.031326 232.156696 
L 242.135966 230.40272 
L 242.180328 228.645923 
L 242.254528 226.890028 
L 242.154475 225.135309 
L 242.184337 223.378199 
L 242.044655 221.626451 
L 242.020029 219.869609 
L 242.015965 218.112717 
L 242.015494 216.355922 
L 242.015569 214.599231 
L 242.015673 212.842645 
L 242.015743 211.086159 
L 242.015784 209.329763 
L 242.015804 207.573448 
L 242.015811 205.817202 
L 242.01581 204.061012 
L 242.015805 202.304867 
L 242.015799 200.548756 
L 242.015796 198.792669 
L 242.015794 197.036597 
L 242.0158 195.280532 
" clip-path="url(#pa0a63009f2)" style="fill: none; stroke: #ff0000; stroke-width: 0.25; stroke-linecap: square"/>
   </g>
   <g id="line2d_76">
    <path d="M 289.05862 168.680354 
L 286.831811 168.684637 
L 284.615022 168.683204 
L 282.410138 168.658654 
L 280.22161 168.545341 
L 278.045568 168.571559 
L 275.889608 168.454407 
L 273.748942 168.495172 
L 271.626917 168.522428 
L 269.524549 168.448183 
L 267.44399 168.286435 
L 265.380564 168.085272 
L 263.439253 167.382048 
L 261.399037 167.692615 
L 259.471553 166.930637 
L 257.401954 167.264983 
L 255.344673 167.846577 
L 253.31606 168.687446 
L 251.071116 168.388461 
L 248.771516 167.881634 
L 246.344281 167.526095 
L 243.813171 167.205717 
L 241.231734 167.788748 
L 238.682909 168.766929 
L 236.248382 170.144925 
L 234.018245 171.901535 
L 232.08076 173.989074 
L 230.500592 176.345138 
L 229.315007 178.91059 
L 228.544051 181.624206 
L 228.203154 184.422608 
" clip-path="url(#pa0a63009f2)" style="fill: none; stroke: #ff0000; stroke-opacity: 0.2; stroke-width: 0.25; stroke-linecap: square"/>
   </g>
   <g id="line2d_77">
    <path d="M 289.05862 168.680354 
L 286.831815 168.686192 
L 284.615046 168.686944 
L 282.410185 168.665193 
L 280.221571 168.555311 
L 278.04572 168.585543 
L 275.889698 168.473205 
L 273.749403 168.51951 
L 271.627784 168.552217 
L 269.525659 168.482724 
L 267.445355 168.323966 
L 265.382466 168.123121 
L 263.444907 167.411499 
L 261.404345 167.715068 
L 259.478241 166.951651 
L 257.40906 167.283788 
L 255.351726 167.862379 
L 253.322377 168.699769 
L 251.079627 168.387056 
L 248.783059 167.866454 
L 246.3571 167.500196 
L 243.82381 167.193513 
L 241.239589 167.766339 
L 238.688484 168.739336 
L 236.25475 170.118559 
L 234.031607 171.883068 
L 232.104781 173.978778 
L 230.532195 176.337428 
L 229.343264 178.897985 
L 228.56397 181.605231 
L 228.207605 184.397403 
" clip-path="url(#pa0a63009f2)" style="fill: none; stroke: #ff0000; stroke-opacity: 0.4; stroke-width: 0.25; stroke-linecap: square"/>
   </g>
   <g id="line2d_78">
    <path d="M 289.05862 168.680354 
L 286.831813 168.685446 
L 284.615 168.685544 
L 282.410063 168.663369 
L 280.221345 168.553451 
L 278.045377 168.584197 
L 275.889147 168.473331 
L 273.748776 168.522197 
L 271.627076 168.557748 
L 269.524751 168.490834 
L 267.44425 168.333347 
L 265.381364 168.131558 
L 263.447072 167.410877 
L 261.405417 167.707625 
L 259.481632 166.93809 
L 257.411474 167.26503 
L 255.352567 167.838743 
L 253.321063 168.671888 
L 251.078262 168.354111 
L 248.782693 167.823838 
L 246.356026 167.452249 
L 243.818632 167.165898 
L 241.236286 167.755105 
L 238.68804 168.740027 
L 236.256027 170.124914 
L 234.029857 171.886976 
L 232.096962 173.977425 
L 230.522014 176.333813 
L 229.343155 178.897337 
L 228.576218 181.6057 
L 228.238281 184.397392 
" clip-path="url(#pa0a63009f2)" style="fill: none; stroke: #ff0000; stroke-opacity: 0.6; stroke-width: 0.25; stroke-linecap: square"/>
   </g>
   <g id="line2d_79">
    <path d="M 289.05862 168.680354 
L 286.831813 168.685327 
L 284.614936 168.685645 
L 282.409875 168.664162 
L 280.220932 168.555574 
L 278.044802 168.588407 
L 275.888192 168.480855 
L 273.74771 168.534468 
L 271.625877 168.575223 
L 269.523178 168.513319 
L 267.442198 168.359358 
L 265.379016 168.15847 
L 263.447887 167.428777 
L 261.405066 167.718955 
L 259.482108 166.946683 
L 257.411177 167.270602 
L 255.351073 167.841345 
L 253.317797 168.671653 
L 251.074481 168.350371 
L 248.780502 167.806807 
L 246.353612 167.42475 
L 243.812547 167.153093 
L 241.228176 167.742696 
L 238.678635 168.729394 
L 236.246822 170.117604 
L 234.022947 171.884095 
L 232.093872 173.978462 
L 230.523116 176.33695 
L 229.347774 178.900339 
L 228.583257 181.606853 
L 228.245583 184.395654 
" clip-path="url(#pa0a63009f2)" style="fill: none; stroke: #ff0000; stroke-opacity: 0.8; stroke-width: 0.25; stroke-linecap: square"/>
   </g>
   <g id="line2d_80">
    <path d="M 289.05862 168.680354 
L 286.831812 168.685174 
L 284.614917 168.685351 
L 282.409821 168.663769 
L 280.220827 168.555152 
L 278.044633 168.588052 
L 275.887932 168.48074 
L 273.747371 168.534814 
L 271.625448 168.576112 
L 269.522623 168.514745 
L 267.441499 168.36113 
L 265.378191 168.160232 
L 263.447454 167.429109 
L 261.404335 167.718255 
L 259.481426 166.945417 
L 257.410212 167.26869 
L 255.349728 167.838803 
L 253.31596 168.668534 
L 251.072429 168.346572 
L 248.778573 167.800821 
L 246.351523 167.416965 
L 243.809803 167.146975 
L 241.224959 167.736666 
L 238.675167 168.723966 
L 236.243572 170.113369 
L 234.020767 171.881741 
L 232.093497 173.978095 
L 230.524494 176.337896 
L 229.349944 178.901626 
L 228.585738 181.608087 
L 228.247586 184.396626 
" clip-path="url(#pa0a63009f2)" style="fill: none; stroke: #ff0000; stroke-width: 0.25; stroke-linecap: square"/>
   </g>
   <g id="line2d_81">
    <path d="M 230.305047 101.09112 
L 230.30544 102.847296 
L 230.305935 104.603531 
L 230.306615 106.359832 
L 230.307202 108.116206 
L 230.305797 109.872663 
L 230.291069 111.629152 
L 230.198073 113.383357 
L 230.13091 115.13895 
L 230.078183 116.895151 
L 230.122133 118.651668 
L 230.132937 120.408584 
L 230.27509 122.15971 
L 230.300348 123.916167 
L 230.304615 125.67272 
L 230.305239 127.429211 
L 230.305345 129.185632 
L 230.305493 130.941993 
L 230.305793 132.698316 
L 230.306241 134.454635 
L 230.306555 136.210996 
L 230.304764 137.967454 
L 230.288913 139.72401 
L 230.188081 141.477999 
L 230.237853 143.234612 
L 230.103976 144.987053 
L 230.005886 146.74236 
L 230.122122 148.496857 
L 230.123881 150.25513 
L 230.273714 152.006994 
L 230.307855 153.764721 
" clip-path="url(#pa0a63009f2)" style="fill: none; stroke: #ff0000; stroke-opacity: 0.2; stroke-width: 0.25; stroke-linecap: square"/>
   </g>
   <g id="line2d_82">
    <path d="M 230.305047 101.09112 
L 230.305446 102.847296 
L 230.305944 104.603526 
L 230.306628 106.359816 
L 230.307221 108.116173 
L 230.305823 109.872605 
L 230.291096 111.629062 
L 230.198047 113.383223 
L 230.130984 115.13877 
L 230.078258 116.894912 
L 230.12214 118.651365 
L 230.132978 120.408208 
L 230.275201 122.159252 
L 230.300473 123.915631 
L 230.304772 125.672111 
L 230.305439 127.42854 
L 230.305591 129.184918 
L 230.305774 130.941264 
L 230.306076 132.697613 
L 230.306452 134.454013 
L 230.306536 136.210526 
L 230.30414 137.967225 
L 230.286428 139.724112 
L 230.177526 141.478099 
L 230.230896 143.235241 
L 230.090963 144.987995 
L 230.004581 146.744875 
L 230.118423 148.500627 
L 230.13311 150.260083 
L 230.275054 152.013946 
L 230.304529 153.773173 
" clip-path="url(#pa0a63009f2)" style="fill: none; stroke: #ff0000; stroke-opacity: 0.4; stroke-width: 0.25; stroke-linecap: square"/>
   </g>
   <g id="line2d_83">
    <path d="M 230.305047 101.09112 
L 230.305463 102.847296 
L 230.305971 104.603524 
L 230.306669 106.35981 
L 230.307281 108.116161 
L 230.305906 109.872585 
L 230.291184 111.629032 
L 230.197983 113.383175 
L 230.131193 115.138722 
L 230.078446 116.894852 
L 230.12216 118.651298 
L 230.133051 120.408131 
L 230.275273 122.159168 
L 230.300472 123.915544 
L 230.304692 125.672027 
L 230.305266 127.428465 
L 230.30531 129.184863 
L 230.305392 130.941241 
L 230.305652 132.697637 
L 230.306158 134.454102 
L 230.306733 136.210701 
L 230.305317 137.967511 
L 230.287728 139.724535 
L 230.165253 141.47779 
L 230.229741 143.234769 
L 230.075712 144.986561 
L 229.999329 146.744167 
L 230.113908 148.500136 
L 230.131892 150.259835 
L 230.274616 152.013912 
L 230.304405 153.773411 
" clip-path="url(#pa0a63009f2)" style="fill: none; stroke: #ff0000; stroke-opacity: 0.6; stroke-width: 0.25; stroke-linecap: square"/>
   </g>
   <g id="line2d_84">
    <path d="M 230.305047 101.09112 
L 230.305455 102.847296 
L 230.305952 104.603524 
L 230.306639 106.35981 
L 230.307238 108.11616 
L 230.305849 109.872584 
L 230.291114 111.629029 
L 230.1979 113.383168 
L 230.131102 115.138711 
L 230.078349 116.894835 
L 230.122066 118.651273 
L 230.132981 120.408096 
L 230.27524 122.159117 
L 230.300492 123.915479 
L 230.304778 125.671945 
L 230.305427 127.428365 
L 230.305542 129.184743 
L 230.305669 130.941102 
L 230.305908 132.697478 
L 230.306267 134.453925 
L 230.30648 136.21051 
L 230.304382 137.96731 
L 230.285728 139.724321 
L 230.161974 141.477496 
L 230.225718 143.234524 
L 230.071626 144.986344 
L 229.998582 146.744135 
L 230.114303 148.500075 
L 230.132113 150.259826 
L 230.274469 152.013985 
L 230.304372 153.773538 
" clip-path="url(#pa0a63009f2)" style="fill: none; stroke: #ff0000; stroke-opacity: 0.8; stroke-width: 0.25; stroke-linecap: square"/>
   </g>
   <g id="line2d_85">
    <path d="M 230.305047 101.09112 
L 230.305464 102.847296 
L 230.305971 104.603525 
L 230.306668 106.359811 
L 230.307278 108.116162 
L 230.305899 109.872585 
L 230.29117 111.62903 
L 230.197962 113.383166 
L 230.131178 115.138704 
L 230.078404 116.894819 
L 230.122072 118.651247 
L 230.132955 120.408056 
L 230.275187 122.159062 
L 230.300434 123.915402 
L 230.30475 125.671844 
L 230.30547 127.428236 
L 230.305706 129.184584 
L 230.305993 130.940911 
L 230.306399 132.697255 
L 230.306837 134.453673 
L 230.306848 136.210233 
L 230.303883 137.967017 
L 230.283004 139.724002 
L 230.154462 141.476851 
L 230.218803 143.233906 
L 230.061951 144.985551 
L 229.994816 146.743676 
L 230.112637 148.499585 
L 230.131197 150.259448 
L 230.274183 152.013684 
L 230.304332 153.773365 
" clip-path="url(#pa0a63009f2)" style="fill: none; stroke: #ff0000; stroke-width: 0.25; stroke-linecap: square"/>
   </g>
   <g id="line2d_86">
    <path d="M 162.723118 180.383804 
L 164.479354 180.383857 
L 166.235853 180.383906 
L 167.992622 180.383962 
L 169.749672 180.384028 
L 171.50701 180.384107 
L 173.26464 180.384214 
L 175.022558 180.384446 
L 176.780747 180.385377 
L 178.539167 180.390256 
L 180.297574 180.417032 
L 182.050124 180.564358 
L 183.808891 180.546346 
L 185.566393 180.607956 
L 187.323856 180.557984 
L 189.078529 180.460353 
L 190.833695 180.399529 
L 192.588496 180.389887 
L 194.34166 180.390117 
L 196.092788 180.392929 
L 197.841474 180.397388 
L 199.587303 180.403965 
L 201.329865 180.414751 
L 203.068669 180.440866 
L 204.800313 180.551108 
L 206.531519 180.563948 
L 208.255562 180.668839 
L 209.977626 180.595138 
L 211.697131 180.65227 
L 213.33423 180.129271 
L 215.051847 180.154641 
" clip-path="url(#pa0a63009f2)" style="fill: none; stroke: #ff0000; stroke-opacity: 0.2; stroke-width: 0.25; stroke-linecap: square"/>
   </g>
   <g id="line2d_87">
    <path d="M 162.723118 180.383804 
L 164.479354 180.383825 
L 166.235778 180.383844 
L 167.992397 180.383871 
L 169.749221 180.383915 
L 171.506258 180.383985 
L 173.263511 180.384104 
L 175.02098 180.384375 
L 176.778655 180.385379 
L 178.536507 180.390358 
L 180.294309 180.417222 
L 182.046254 180.56441 
L 183.80443 180.546668 
L 185.561403 180.608393 
L 187.318467 180.558311 
L 189.072933 180.460453 
L 190.828188 180.399252 
L 192.583491 180.38889 
L 194.337691 180.388229 
L 196.090526 180.389933 
L 197.841741 180.393033 
L 199.591078 180.398176 
L 201.338283 180.408157 
L 203.082984 180.435677 
L 204.821598 180.551559 
L 206.561635 180.560726 
L 208.295999 180.665509 
L 210.029213 180.579263 
L 211.761625 180.637328 
L 213.411082 180.107639 
L 215.137243 180.248995 
" clip-path="url(#pa0a63009f2)" style="fill: none; stroke: #ff0000; stroke-opacity: 0.4; stroke-width: 0.25; stroke-linecap: square"/>
   </g>
   <g id="line2d_88">
    <path d="M 162.723118 180.383804 
L 164.479354 180.38382 
L 166.235774 180.383835 
L 167.992385 180.383859 
L 169.749196 180.383901 
L 171.506217 180.383972 
L 173.263452 180.384097 
L 175.0209 180.384383 
L 176.778553 180.385412 
L 178.536382 180.390428 
L 180.294161 180.41733 
L 182.046088 180.564477 
L 183.80425 180.546872 
L 185.561212 180.608626 
L 187.318274 180.558441 
L 189.072746 180.460468 
L 190.828025 180.399159 
L 192.583373 180.388636 
L 194.337642 180.387839 
L 196.090574 180.38941 
L 197.841918 180.392345 
L 199.591422 180.397306 
L 201.338833 180.407271 
L 203.083772 180.43552 
L 204.822495 180.55418 
L 206.56287 180.564266 
L 208.297599 180.669346 
L 210.030978 180.578204 
L 211.76384 180.635802 
L 213.413548 180.105426 
L 215.139917 180.249728 
" clip-path="url(#pa0a63009f2)" style="fill: none; stroke: #ff0000; stroke-opacity: 0.6; stroke-width: 0.25; stroke-linecap: square"/>
   </g>
   <g id="line2d_89">
    <path d="M 162.723118 180.383804 
L 164.479354 180.383816 
L 166.235769 180.383826 
L 167.992372 180.383842 
L 169.749171 180.383873 
L 171.506176 180.383929 
L 173.263391 180.384035 
L 175.020817 180.3843 
L 176.778444 180.385307 
L 178.536247 180.390301 
L 180.294 180.417172 
L 182.045911 180.564216 
L 183.804052 180.546707 
L 185.560998 180.608513 
L 187.318054 180.558308 
L 189.072537 180.460337 
L 190.827846 180.399061 
L 192.583249 180.388541 
L 194.337606 180.387756 
L 196.090664 180.389296 
L 197.842181 180.392078 
L 199.591911 180.396673 
L 201.339612 180.405986 
L 203.084916 180.433381 
L 204.824099 180.551493 
L 206.564971 180.560784 
L 208.300258 180.665952 
L 210.034246 180.57453 
L 211.767631 180.63643 
L 213.418476 180.107308 
L 215.145297 180.254579 
" clip-path="url(#pa0a63009f2)" style="fill: none; stroke: #ff0000; stroke-opacity: 0.8; stroke-width: 0.25; stroke-linecap: square"/>
   </g>
   <g id="line2d_90">
    <path d="M 162.723118 180.383804 
L 164.479354 180.383822 
L 166.235767 180.383842 
L 167.992366 180.383867 
L 169.74916 180.383906 
L 171.506157 180.383969 
L 173.263364 180.384081 
L 175.02078 180.38435 
L 176.778396 180.38536 
L 178.536188 180.390355 
L 180.293929 180.41721 
L 182.045838 180.564148 
L 183.803971 180.546769 
L 185.560907 180.608627 
L 187.317957 180.558352 
L 189.072436 180.460324 
L 190.827751 180.39902 
L 192.583167 180.388453 
L 194.337546 180.387664 
L 196.090638 180.389227 
L 197.842202 180.392035 
L 199.591994 180.396651 
L 201.339772 180.406031 
L 203.085167 180.433777 
L 204.824365 180.553333 
L 206.565365 180.563436 
L 208.300804 180.668509 
L 210.034818 180.574611 
L 211.768263 180.639239 
L 213.419239 180.109999 
L 215.146377 180.2553 
" clip-path="url(#pa0a63009f2)" style="fill: none; stroke: #ff0000; stroke-width: 0.25; stroke-linecap: square"/>
   </g>
   <g id="patch_15">
    <path d="M 103.104 307.584 
L 103.104 41.472 
" style="fill: none; stroke: #000000; stroke-width: 0.8; stroke-linejoin: miter; stroke-linecap: square"/>
   </g>
   <g id="patch_16">
    <path d="M 369.216 307.584 
L 369.216 41.472 
" style="fill: none; stroke: #000000; stroke-width: 0.8; stroke-linejoin: miter; stroke-linecap: square"/>
   </g>
   <g id="patch_17">
    <path d="M 103.104 307.584 
L 369.216 307.584 
" style="fill: none; stroke: #000000; stroke-width: 0.8; stroke-linejoin: miter; stroke-linecap: square"/>
   </g>
   <g id="patch_18">
    <path d="M 103.104 41.472 
L 369.216 41.472 
" style="fill: none; stroke: #000000; stroke-width: 0.8; stroke-linejoin: miter; stroke-linecap: square"/>
   </g>
   <g id="text_19">
    <!-- Time:  42 ms -->
    <g transform="translate(264.253887 54.7776) scale(0.1 -0.1)">
     <defs>
      <path id="DejaVuSans-54" d="M -19 4666 
L 3928 4666 
L 3928 4134 
L 2272 4134 
L 2272 0 
L 1638 0 
L 1638 4134 
L -19 4134 
L -19 4666 
z
" transform="scale(0.015625)"/>
      <path id="DejaVuSans-69" d="M 603 3500 
L 1178 3500 
L 1178 0 
L 603 0 
L 603 3500 
z
M 603 4863 
L 1178 4863 
L 1178 4134 
L 603 4134 
L 603 4863 
z
" transform="scale(0.015625)"/>
      <path id="DejaVuSans-6d" d="M 3328 2828 
Q 3544 3216 3844 3400 
Q 4144 3584 4550 3584 
Q 5097 3584 5394 3201 
Q 5691 2819 5691 2113 
L 5691 0 
L 5113 0 
L 5113 2094 
Q 5113 2597 4934 2840 
Q 4756 3084 4391 3084 
Q 3944 3084 3684 2787 
Q 3425 2491 3425 1978 
L 3425 0 
L 2847 0 
L 2847 2094 
Q 2847 2600 2669 2842 
Q 2491 3084 2119 3084 
Q 1678 3084 1418 2786 
Q 1159 2488 1159 1978 
L 1159 0 
L 581 0 
L 581 3500 
L 1159 3500 
L 1159 2956 
Q 1356 3278 1631 3431 
Q 1906 3584 2284 3584 
Q 2666 3584 2933 3390 
Q 3200 3197 3328 2828 
z
" transform="scale(0.015625)"/>
      <path id="DejaVuSans-65" d="M 3597 1894 
L 3597 1613 
L 953 1613 
Q 991 1019 1311 708 
Q 1631 397 2203 397 
Q 2534 397 2845 478 
Q 3156 559 3463 722 
L 3463 178 
Q 3153 47 2828 -22 
Q 2503 -91 2169 -91 
Q 1331 -91 842 396 
Q 353 884 353 1716 
Q 353 2575 817 3079 
Q 1281 3584 2069 3584 
Q 2775 3584 3186 3129 
Q 3597 2675 3597 1894 
z
M 3022 2063 
Q 3016 2534 2758 2815 
Q 2500 3097 2075 3097 
Q 1594 3097 1305 2825 
Q 1016 2553 972 2059 
L 3022 2063 
z
" transform="scale(0.015625)"/>
      <path id="DejaVuSans-3a" d="M 750 794 
L 1409 794 
L 1409 0 
L 750 0 
L 750 794 
z
M 750 3309 
L 1409 3309 
L 1409 2516 
L 750 2516 
L 750 3309 
z
" transform="scale(0.015625)"/>
      <path id="DejaVuSans-20" transform="scale(0.015625)"/>
      <path id="DejaVuSans-73" d="M 2834 3397 
L 2834 2853 
Q 2591 2978 2328 3040 
Q 2066 3103 1784 3103 
Q 1356 3103 1142 2972 
Q 928 2841 928 2578 
Q 928 2378 1081 2264 
Q 1234 2150 1697 2047 
L 1894 2003 
Q 2506 1872 2764 1633 
Q 3022 1394 3022 966 
Q 3022 478 2636 193 
Q 2250 -91 1575 -91 
Q 1294 -91 989 -36 
Q 684 19 347 128 
L 347 722 
Q 666 556 975 473 
Q 1284 391 1588 391 
Q 1994 391 2212 530 
Q 2431 669 2431 922 
Q 2431 1156 2273 1281 
Q 2116 1406 1581 1522 
L 1381 1569 
Q 847 1681 609 1914 
Q 372 2147 372 2553 
Q 372 3047 722 3315 
Q 1072 3584 1716 3584 
Q 2034 3584 2315 3537 
Q 2597 3491 2834 3397 
z
" transform="scale(0.015625)"/>
     </defs>
     <use xlink:href="#DejaVuSans-54"/>
     <use xlink:href="#DejaVuSans-69" x="57.958984"/>
     <use xlink:href="#DejaVuSans-6d" x="85.742188"/>
     <use xlink:href="#DejaVuSans-65" x="183.154297"/>
     <use xlink:href="#DejaVuSans-3a" x="244.677734"/>
     <use xlink:href="#DejaVuSans-20" x="278.369141"/>
     <use xlink:href="#DejaVuSans-20" x="310.15625"/>
     <use xlink:href="#DejaVuSans-34" x="341.943359"/>
     <use xlink:href="#DejaVuSans-32" x="405.566406"/>
     <use xlink:href="#DejaVuSans-20" x="469.189453"/>
     <use xlink:href="#DejaVuSans-6d" x="500.976562"/>
     <use xlink:href="#DejaVuSans-73" x="598.388672"/>
    </g>
   </g>
  </g>
 </g>
 <defs>
  <clipPath id="pa0a63009f2">
   <rect x="103.104" y="41.472" width="266.112" height="266.112"/>
  </clipPath>
 </defs>
</svg>
