<?xml version="1.0" encoding="utf-8" standalone="no"?>
<!DOCTYPE svg PUBLIC "-//W3C//DTD SVG 1.1//EN"
  "http://www.w3.org/Graphics/SVG/1.1/DTD/svg11.dtd">
<svg xmlns:xlink="http://www.w3.org/1999/xlink" width="460.8pt" height="345.6pt" viewBox="0 0 460.8 345.6" xmlns="http://www.w3.org/2000/svg" version="1.1">
 <metadata>
  <rdf:RDF xmlns:dc="http://purl.org/dc/elements/1.1/" xmlns:cc="http://creativecommons.org/ns#" xmlns:rdf="http://www.w3.org/1999/02/22-rdf-syntax-ns#">
   <cc:Work>
    <dc:type rdf:resource="http://purl.org/dc/dcmitype/StillImage"/>
    <dc:date>2024-01-22T15:58:42.070965</dc:date>
    <dc:format>image/svg+xml</dc:format>
    <dc:creator>
     <cc:Agent>
      <dc:title>Matplotlib v3.8.2, https://matplotlib.org/</dc:title>
     </cc:Agent>
    </dc:creator>
   </cc:Work>
  </rdf:RDF>
 </metadata>
 <defs>
  <style type="text/css">*{stroke-linejoin: round; stroke-linecap: butt}</style>
 </defs>
 <g id="figure_1">
  <g id="patch_1">
   <path d="M 0 345.6 
L 460.8 345.6 
L 460.8 0 
L 0 0 
z
" style="fill: #ffffff"/>
  </g>
  <g id="axes_1">
   <g id="patch_2">
    <path d="M 103.104 307.584 
L 369.216 307.584 
L 369.216 41.472 
L 103.104 41.472 
z
" style="fill: #ffffff"/>
   </g>
   <g id="patch_3">
    <path d="M 243.382172 80.846012 
L 243.382172 71.532092 
L 238.858268 71.532093 
L 238.858268 80.846013 
z
" clip-path="url(#p13f5813ec6)" style="fill: #00008b"/>
   </g>
   <g id="patch_4">
    <path d="M 142.467222 167.305831 
L 133.153302 167.305825 
L 133.153299 171.829729 
L 142.467219 171.829735 
z
" clip-path="url(#p13f5813ec6)" style="fill: #800000"/>
   </g>
   <g id="patch_5">
    <path d="M 328.400575 181.750179 
L 337.714495 181.75017 
L 337.714491 177.226266 
L 328.400571 177.226275 
z
" clip-path="url(#p13f5813ec6)" style="fill: #006400"/>
   </g>
   <g id="patch_6">
    <path d="M 228.937834 271.078509 
L 228.937822 280.392429 
L 233.461726 280.392436 
L 233.461738 271.078516 
z
" clip-path="url(#p13f5813ec6)" style="fill: #4b0082"/>
   </g>
   <g id="patch_7">
    <path d="M 243.382537 113.461622 
L 243.382481 104.147702 
L 238.858577 104.147729 
L 238.858633 113.461649 
z
" clip-path="url(#p13f5813ec6)" style="fill: #0000ff"/>
   </g>
   <g id="patch_8">
    <path d="M 228.937799 235.397318 
L 228.937643 244.711238 
L 233.461547 244.711314 
L 233.461703 235.397394 
z
" clip-path="url(#p13f5813ec6)" style="fill: #ff0000"/>
   </g>
   <g id="patch_9">
    <path d="M 171.888032 167.304505 
L 162.574112 167.306023 
L 162.574849 171.829927 
L 171.888769 171.828409 
z
" clip-path="url(#p13f5813ec6)" style="fill: #dbdc56"/>
   </g>
   <g id="patch_10">
    <path d="M 297.220435 181.750766 
L 306.534355 181.75048 
L 306.534216 177.226576 
L 297.220296 177.226862 
z
" clip-path="url(#p13f5813ec6)" style="fill: #9400d3"/>
   </g>
   <g id="patch_11">
    <path d="M 270.108154 181.594979 
L 279.419807 181.800455 
L 279.519609 177.277652 
L 270.207956 177.072176 
z
" clip-path="url(#p13f5813ec6)" style="fill: #1e90ff"/>
   </g>
   <g id="patch_12">
    <path d="M 228.844009 201.858228 
L 229.081417 211.169122 
L 233.603851 211.053809 
L 233.366443 201.742915 
z
" clip-path="url(#p13f5813ec6)" style="fill: #ff4500"/>
   </g>
   <g id="patch_13">
    <path d="M 202.207164 167.470646 
L 192.8958 167.252475 
L 192.789831 171.775138 
L 202.101196 171.993309 
z
" clip-path="url(#p13f5813ec6)" style="fill: #7cfc00"/>
   </g>
   <g id="patch_14">
    <path d="M 243.483173 147.19084 
L 243.231012 137.880334 
L 238.708766 138.002812 
L 238.960928 147.313318 
z
" clip-path="url(#p13f5813ec6)" style="fill: #ff00ff"/>
   </g>
   <g id="matplotlib.axis_1">
    <g id="xtick_1">
     <g id="line2d_1">
      <defs>
       <path id="m0f90618992" d="M 0 0 
L 0 3.5 
" style="stroke: #000000; stroke-width: 0.8"/>
      </defs>
      <g>
       <use xlink:href="#m0f90618992" x="129.7152" y="307.584" style="stroke: #000000; stroke-width: 0.8"/>
      </g>
     </g>
     <g id="text_1">
      <!-- −40 -->
      <g transform="translate(119.162856 322.182437) scale(0.1 -0.1)">
       <defs>
        <path id="DejaVuSans-2212" d="M 678 2272 
L 4684 2272 
L 4684 1741 
L 678 1741 
L 678 2272 
z
" transform="scale(0.015625)"/>
        <path id="DejaVuSans-34" d="M 2419 4116 
L 825 1625 
L 2419 1625 
L 2419 4116 
z
M 2253 4666 
L 3047 4666 
L 3047 1625 
L 3713 1625 
L 3713 1100 
L 3047 1100 
L 3047 0 
L 2419 0 
L 2419 1100 
L 313 1100 
L 313 1709 
L 2253 4666 
z
" transform="scale(0.015625)"/>
        <path id="DejaVuSans-30" d="M 2034 4250 
Q 1547 4250 1301 3770 
Q 1056 3291 1056 2328 
Q 1056 1369 1301 889 
Q 1547 409 2034 409 
Q 2525 409 2770 889 
Q 3016 1369 3016 2328 
Q 3016 3291 2770 3770 
Q 2525 4250 2034 4250 
z
M 2034 4750 
Q 2819 4750 3233 4129 
Q 3647 3509 3647 2328 
Q 3647 1150 3233 529 
Q 2819 -91 2034 -91 
Q 1250 -91 836 529 
Q 422 1150 422 2328 
Q 422 3509 836 4129 
Q 1250 4750 2034 4750 
z
" transform="scale(0.015625)"/>
       </defs>
       <use xlink:href="#DejaVuSans-2212"/>
       <use xlink:href="#DejaVuSans-34" x="83.789062"/>
       <use xlink:href="#DejaVuSans-30" x="147.412109"/>
      </g>
     </g>
    </g>
    <g id="xtick_2">
     <g id="line2d_2">
      <g>
       <use xlink:href="#m0f90618992" x="182.9376" y="307.584" style="stroke: #000000; stroke-width: 0.8"/>
      </g>
     </g>
     <g id="text_2">
      <!-- −20 -->
      <g transform="translate(172.385256 322.182437) scale(0.1 -0.1)">
       <defs>
        <path id="DejaVuSans-32" d="M 1228 531 
L 3431 531 
L 3431 0 
L 469 0 
L 469 531 
Q 828 903 1448 1529 
Q 2069 2156 2228 2338 
Q 2531 2678 2651 2914 
Q 2772 3150 2772 3378 
Q 2772 3750 2511 3984 
Q 2250 4219 1831 4219 
Q 1534 4219 1204 4116 
Q 875 4013 500 3803 
L 500 4441 
Q 881 4594 1212 4672 
Q 1544 4750 1819 4750 
Q 2544 4750 2975 4387 
Q 3406 4025 3406 3419 
Q 3406 3131 3298 2873 
Q 3191 2616 2906 2266 
Q 2828 2175 2409 1742 
Q 1991 1309 1228 531 
z
" transform="scale(0.015625)"/>
       </defs>
       <use xlink:href="#DejaVuSans-2212"/>
       <use xlink:href="#DejaVuSans-32" x="83.789062"/>
       <use xlink:href="#DejaVuSans-30" x="147.412109"/>
      </g>
     </g>
    </g>
    <g id="xtick_3">
     <g id="line2d_3">
      <g>
       <use xlink:href="#m0f90618992" x="236.16" y="307.584" style="stroke: #000000; stroke-width: 0.8"/>
      </g>
     </g>
     <g id="text_3">
      <!-- 0 -->
      <g transform="translate(232.97875 322.182437) scale(0.1 -0.1)">
       <use xlink:href="#DejaVuSans-30"/>
      </g>
     </g>
    </g>
    <g id="xtick_4">
     <g id="line2d_4">
      <g>
       <use xlink:href="#m0f90618992" x="289.3824" y="307.584" style="stroke: #000000; stroke-width: 0.8"/>
      </g>
     </g>
     <g id="text_4">
      <!-- 20 -->
      <g transform="translate(283.0199 322.182437) scale(0.1 -0.1)">
       <use xlink:href="#DejaVuSans-32"/>
       <use xlink:href="#DejaVuSans-30" x="63.623047"/>
      </g>
     </g>
    </g>
    <g id="xtick_5">
     <g id="line2d_5">
      <g>
       <use xlink:href="#m0f90618992" x="342.6048" y="307.584" style="stroke: #000000; stroke-width: 0.8"/>
      </g>
     </g>
     <g id="text_5">
      <!-- 40 -->
      <g transform="translate(336.2423 322.182437) scale(0.1 -0.1)">
       <use xlink:href="#DejaVuSans-34"/>
       <use xlink:href="#DejaVuSans-30" x="63.623047"/>
      </g>
     </g>
    </g>
   </g>
   <g id="matplotlib.axis_2">
    <g id="ytick_1">
     <g id="line2d_6">
      <defs>
       <path id="m044bcae984" d="M 0 0 
L -3.5 0 
" style="stroke: #000000; stroke-width: 0.8"/>
      </defs>
      <g>
       <use xlink:href="#m044bcae984" x="103.104" y="280.9728" style="stroke: #000000; stroke-width: 0.8"/>
      </g>
     </g>
     <g id="text_6">
      <!-- −40 -->
      <g transform="translate(74.999313 284.772019) scale(0.1 -0.1)">
       <use xlink:href="#DejaVuSans-2212"/>
       <use xlink:href="#DejaVuSans-34" x="83.789062"/>
       <use xlink:href="#DejaVuSans-30" x="147.412109"/>
      </g>
     </g>
    </g>
    <g id="ytick_2">
     <g id="line2d_7">
      <g>
       <use xlink:href="#m044bcae984" x="103.104" y="227.7504" style="stroke: #000000; stroke-width: 0.8"/>
      </g>
     </g>
     <g id="text_7">
      <!-- −20 -->
      <g transform="translate(74.999313 231.549619) scale(0.1 -0.1)">
       <use xlink:href="#DejaVuSans-2212"/>
       <use xlink:href="#DejaVuSans-32" x="83.789062"/>
       <use xlink:href="#DejaVuSans-30" x="147.412109"/>
      </g>
     </g>
    </g>
    <g id="ytick_3">
     <g id="line2d_8">
      <g>
       <use xlink:href="#m044bcae984" x="103.104" y="174.528" style="stroke: #000000; stroke-width: 0.8"/>
      </g>
     </g>
     <g id="text_8">
      <!-- 0 -->
      <g transform="translate(89.7415 178.327219) scale(0.1 -0.1)">
       <use xlink:href="#DejaVuSans-30"/>
      </g>
     </g>
    </g>
    <g id="ytick_4">
     <g id="line2d_9">
      <g>
       <use xlink:href="#m044bcae984" x="103.104" y="121.3056" style="stroke: #000000; stroke-width: 0.8"/>
      </g>
     </g>
     <g id="text_9">
      <!-- 20 -->
      <g transform="translate(83.379 125.104819) scale(0.1 -0.1)">
       <use xlink:href="#DejaVuSans-32"/>
       <use xlink:href="#DejaVuSans-30" x="63.623047"/>
      </g>
     </g>
    </g>
    <g id="ytick_5">
     <g id="line2d_10">
      <g>
       <use xlink:href="#m044bcae984" x="103.104" y="68.0832" style="stroke: #000000; stroke-width: 0.8"/>
      </g>
     </g>
     <g id="text_10">
      <!-- 40 -->
      <g transform="translate(83.379 71.882419) scale(0.1 -0.1)">
       <use xlink:href="#DejaVuSans-34"/>
       <use xlink:href="#DejaVuSans-30" x="63.623047"/>
      </g>
     </g>
    </g>
   </g>
   <g id="line2d_11">
    <path d="M 248.13504 346.17024 
L 248.13504 186.50304 
" clip-path="url(#p13f5813ec6)" style="fill: none; stroke: #000000; stroke-width: 0.25; stroke-linecap: square"/>
   </g>
   <g id="line2d_12">
    <path d="M 248.13504 186.50304 
L 407.80224 186.50304 
" clip-path="url(#p13f5813ec6)" style="fill: none; stroke: #000000; stroke-width: 0.25; stroke-linecap: square"/>
   </g>
   <g id="line2d_13">
    <path d="M 407.80224 162.55296 
L 248.13504 162.55296 
" clip-path="url(#p13f5813ec6)" style="fill: none; stroke: #000000; stroke-width: 0.25; stroke-linecap: square"/>
   </g>
   <g id="line2d_14">
    <path d="M 248.13504 162.55296 
L 248.13504 2.88576 
" clip-path="url(#p13f5813ec6)" style="fill: none; stroke: #000000; stroke-width: 0.25; stroke-linecap: square"/>
   </g>
   <g id="line2d_15">
    <path d="M 224.18496 2.88576 
L 224.18496 162.55296 
" clip-path="url(#p13f5813ec6)" style="fill: none; stroke: #000000; stroke-width: 0.25; stroke-linecap: square"/>
   </g>
   <g id="line2d_16">
    <path d="M 224.18496 162.55296 
L 64.51776 162.55296 
" clip-path="url(#p13f5813ec6)" style="fill: none; stroke: #000000; stroke-width: 0.25; stroke-linecap: square"/>
   </g>
   <g id="line2d_17">
    <path d="M 64.51776 186.50304 
L 224.18496 186.50304 
" clip-path="url(#p13f5813ec6)" style="fill: none; stroke: #000000; stroke-width: 0.25; stroke-linecap: square"/>
   </g>
   <g id="line2d_18">
    <path d="M 224.18496 186.50304 
L 224.18496 346.17024 
" clip-path="url(#p13f5813ec6)" style="fill: none; stroke: #000000; stroke-width: 0.25; stroke-linecap: square"/>
   </g>
   <g id="line2d_19">
    <path d="M 248.13504 174.528 
L 407.80224 174.528 
" clip-path="url(#p13f5813ec6)" style="fill: none; stroke-dasharray: 0.925,0.4; stroke-dashoffset: 0; stroke: #000000; stroke-width: 0.25"/>
   </g>
   <g id="line2d_20">
    <path d="M 236.16 162.55296 
L 236.16 2.88576 
" clip-path="url(#p13f5813ec6)" style="fill: none; stroke-dasharray: 0.925,0.4; stroke-dashoffset: 0; stroke: #000000; stroke-width: 0.25"/>
   </g>
   <g id="line2d_21">
    <path d="M 224.18496 174.528 
L 64.51776 174.528 
" clip-path="url(#p13f5813ec6)" style="fill: none; stroke-dasharray: 0.925,0.4; stroke-dashoffset: 0; stroke: #000000; stroke-width: 0.25"/>
   </g>
   <g id="line2d_22">
    <path d="M 236.16 186.50304 
L 236.16 346.17024 
" clip-path="url(#p13f5813ec6)" style="fill: none; stroke-dasharray: 0.925,0.4; stroke-dashoffset: 0; stroke: #000000; stroke-width: 0.25"/>
   </g>
   <g id="line2d_23">
    <path d="M 241.120219 77.741213 
L 241.12022 76.189053 
L 241.120221 74.636847 
L 241.120221 73.084595 
L 241.120222 71.532295 
L 241.120222 69.979948 
L 241.120223 68.427551 
L 241.120223 66.875106 
L 241.120223 65.322612 
L 241.120224 63.770072 
L 241.120224 62.217485 
L 241.120224 60.664854 
L 241.120224 59.112179 
L 241.120224 57.559463 
L 241.120224 56.006707 
L 241.120224 54.453913 
L 241.120224 52.901085 
L 241.120224 51.348223 
L 241.120224 49.795331 
L 241.120224 48.242411 
L 241.120224 46.689465 
L 241.120224 45.136496 
L 241.120224 43.583507 
L 241.120224 42.030499 
L 241.120224 40.477476 
L 241.120224 38.924439 
L 241.120224 37.371392 
L 241.120224 35.818335 
L 241.120224 34.265273 
L 241.120224 32.712205 
L 241.120224 31.159136 
" clip-path="url(#p13f5813ec6)" style="fill: none; stroke: #ff0000; stroke-opacity: 0.5; stroke-width: 0.25; stroke-linecap: square"/>
   </g>
   <g id="line2d_24">
    <path d="M 241.120219 77.741213 
L 241.12022 76.189053 
L 241.120221 74.636849 
L 241.120221 73.084601 
L 241.120222 71.532307 
L 241.120222 69.979967 
L 241.120223 68.42758 
L 241.120223 66.875147 
L 241.120223 65.322667 
L 241.120224 63.770143 
L 241.120224 62.217574 
L 241.120224 60.664963 
L 241.120224 59.11231 
L 241.120224 57.559619 
L 241.120224 56.006889 
L 241.120224 54.454125 
L 241.120224 52.901327 
L 241.120224 51.348499 
L 241.120224 49.795642 
L 241.120224 48.24276 
L 241.120224 46.689853 
L 241.120224 45.136926 
L 241.120224 43.583981 
L 241.120224 42.031019 
L 241.120224 40.478043 
L 241.120224 38.925056 
L 241.120224 37.37206 
L 241.120224 35.819057 
L 241.120224 34.266049 
L 241.120224 32.713037 
L 241.120224 31.160025 
" clip-path="url(#p13f5813ec6)" style="fill: none; stroke: #ff0000; stroke-width: 0.25; stroke-linecap: square"/>
   </g>
   <g id="line2d_25">
    <path d="M 139.361836 169.567781 
L 137.81026 169.56778 
L 136.258638 169.567779 
L 134.706966 169.567778 
L 133.155241 169.567778 
L 131.603459 169.567777 
L 130.051618 169.567777 
L 128.499719 169.567776 
L 126.947759 169.567776 
L 125.39574 169.567776 
L 123.84366 169.567776 
L 122.291523 169.567776 
L 120.739328 169.567776 
L 119.187077 169.567776 
L 117.634773 169.567776 
L 116.082418 169.567776 
L 114.530014 169.567776 
L 112.977565 169.567776 
L 111.425074 169.567776 
L 109.872543 169.567776 
L 108.319976 169.567776 
L 106.767376 169.567776 
L 105.214747 169.567776 
L 103.662092 169.567776 
L 102.109415 169.567776 
L 100.556719 169.567776 
L 99.004006 169.567776 
L 97.451282 169.567776 
L 95.898547 169.567776 
L 94.345807 169.567776 
L 92.793063 169.567776 
" clip-path="url(#p13f5813ec6)" style="fill: none; stroke: #ff0000; stroke-opacity: 0.5; stroke-width: 0.25; stroke-linecap: square"/>
   </g>
   <g id="line2d_26">
    <path d="M 139.361836 169.567781 
L 137.81026 169.56778 
L 136.258641 169.567779 
L 134.706975 169.567778 
L 133.155259 169.567778 
L 131.603489 169.567777 
L 130.051664 169.567777 
L 128.499783 169.567776 
L 126.947845 169.567776 
L 125.395851 169.567776 
L 123.8438 169.567776 
L 122.291693 169.567776 
L 120.739533 169.567776 
L 119.187321 169.567776 
L 117.635058 169.567776 
L 116.082748 169.567776 
L 114.530393 169.567776 
L 112.977995 169.567776 
L 111.425559 169.567776 
L 109.873086 169.567776 
L 108.32058 169.567776 
L 106.768045 169.567776 
L 105.215483 169.567776 
L 103.662899 169.567776 
L 102.110295 169.567776 
L 100.557675 169.567776 
L 99.005042 169.567776 
L 97.452398 169.567776 
L 95.899748 169.567776 
L 94.347093 169.567776 
L 92.794436 169.567776 
" clip-path="url(#p13f5813ec6)" style="fill: none; stroke: #ff0000; stroke-width: 0.25; stroke-linecap: square"/>
   </g>
   <g id="line2d_27">
    <path d="M 331.488187 179.488223 
L 333.057533 179.488222 
L 334.626929 179.488222 
L 336.196381 179.488222 
L 337.765895 179.488222 
L 339.335475 179.488222 
L 340.905126 179.488222 
L 342.47485 179.488223 
L 344.044648 179.488223 
L 345.614521 179.488223 
L 347.18447 179.488223 
L 348.754494 179.488223 
L 350.324591 179.488224 
L 351.89476 179.488224 
L 353.464999 179.488224 
L 355.035304 179.488224 
L 356.605673 179.488224 
L 358.176101 179.488224 
L 359.746586 179.488224 
L 361.317123 179.488224 
L 362.887708 179.488224 
L 364.458336 179.488224 
L 366.029004 179.488224 
L 367.599706 179.488224 
L 369.170438 179.488224 
L 370.741196 179.488224 
L 372.311975 179.488224 
L 373.882771 179.488224 
L 375.45358 179.488224 
L 377.024398 179.488224 
L 378.59522 179.488224 
" clip-path="url(#p13f5813ec6)" style="fill: none; stroke: #ff0000; stroke-opacity: 0.5; stroke-width: 0.25; stroke-linecap: square"/>
   </g>
   <g id="line2d_28">
    <path d="M 331.488187 179.488223 
L 333.057533 179.488222 
L 334.626925 179.488222 
L 336.196368 179.488222 
L 337.765869 179.488222 
L 339.335433 179.488222 
L 340.905062 179.488222 
L 342.47476 179.488223 
L 344.044528 179.488223 
L 345.614366 179.488223 
L 347.184276 179.488223 
L 348.754255 179.488223 
L 350.324304 179.488224 
L 351.89442 179.488224 
L 353.4646 179.488224 
L 355.034843 179.488224 
L 356.605144 179.488224 
L 358.175501 179.488224 
L 359.74591 179.488224 
L 361.316366 179.488224 
L 362.886865 179.488224 
L 364.457404 179.488224 
L 366.027978 179.488224 
L 367.598582 179.488224 
L 369.169213 179.488224 
L 370.739865 179.488224 
L 372.310535 179.488224 
L 373.881218 179.488224 
L 375.451911 179.488224 
L 377.02261 179.488224 
L 378.593311 179.488224 
" clip-path="url(#p13f5813ec6)" style="fill: none; stroke: #ff0000; stroke-width: 0.25; stroke-linecap: square"/>
   </g>
   <g id="line2d_29">
    <path d="M 231.199782 274.268409 
L 231.19978 275.735472 
L 231.199779 277.202445 
L 231.199778 278.669319 
L 231.199777 280.136091 
L 231.199776 281.602754 
L 231.199776 283.069308 
L 231.199776 284.53575 
L 231.199776 286.002079 
L 231.199775 287.468296 
L 231.199775 288.934403 
L 231.199775 290.400401 
L 231.199775 291.866293 
L 231.199775 293.332083 
L 231.199776 294.797775 
L 231.199776 296.263374 
L 231.199776 297.728884 
L 231.199776 299.194311 
L 231.199776 300.65966 
L 231.199776 302.124938 
L 231.199776 303.59015 
L 231.199776 305.055303 
L 231.199776 306.520403 
L 231.199776 307.985456 
L 231.199776 309.450468 
L 231.199776 310.915446 
L 231.199776 312.380395 
L 231.199776 313.845321 
L 231.199776 315.310231 
L 231.199776 316.775129 
L 231.199776 318.24002 
" clip-path="url(#p13f5813ec6)" style="fill: none; stroke: #ff0000; stroke-opacity: 0.5; stroke-width: 0.25; stroke-linecap: square"/>
   </g>
   <g id="line2d_30">
    <path d="M 231.199782 274.268409 
L 231.19978 275.735472 
L 231.199779 277.20245 
L 231.199778 278.669335 
L 231.199777 280.136123 
L 231.199776 281.602808 
L 231.199776 283.069389 
L 231.199776 284.535863 
L 231.199776 286.002231 
L 231.199775 287.468493 
L 231.199775 288.934649 
L 231.199775 290.400703 
L 231.199775 291.866658 
L 231.199775 293.332516 
L 231.199776 294.798282 
L 231.199776 296.26396 
L 231.199776 297.729556 
L 231.199776 299.195074 
L 231.199776 300.660521 
L 231.199776 302.125902 
L 231.199776 303.591224 
L 231.199776 305.056491 
L 231.199776 306.521711 
L 231.199776 307.98689 
L 231.199776 309.452033 
L 231.199776 310.917146 
L 231.199776 312.382236 
L 231.199776 313.847307 
L 231.199776 315.312366 
L 231.199776 316.777417 
L 231.199776 318.242464 
" clip-path="url(#p13f5813ec6)" style="fill: none; stroke: #ff0000; stroke-width: 0.25; stroke-linecap: square"/>
   </g>
   <g id="line2d_31">
    <path d="M 241.120623 110.358707 
L 241.120559 108.804676 
L 241.120499 107.250833 
L 241.120444 105.697161 
L 241.120395 104.143646 
L 241.120352 102.590272 
L 241.120317 101.037028 
L 241.120288 99.483899 
L 241.120265 97.930875 
L 241.120248 96.377943 
L 241.120235 94.825094 
L 241.120225 93.272319 
L 241.120219 91.719608 
L 241.120215 90.166954 
L 241.120213 88.614349 
L 241.120212 87.061787 
L 241.120212 85.509262 
L 241.120213 83.956767 
L 241.120214 82.4043 
L 241.120215 80.851854 
L 241.120216 79.299427 
L 241.120218 77.747015 
L 241.120219 76.194615 
L 241.12022 74.642226 
L 241.120221 73.089844 
L 241.120221 71.537468 
L 241.120222 69.985096 
L 241.120223 68.432729 
L 241.120223 66.880363 
L 241.120223 65.328 
L 241.120224 63.775637 
" clip-path="url(#p13f5813ec6)" style="fill: none; stroke: #ff0000; stroke-opacity: 0.5; stroke-width: 0.25; stroke-linecap: square"/>
   </g>
   <g id="line2d_32">
    <path d="M 241.120623 110.358707 
L 241.120557 108.804676 
L 241.120497 107.250834 
L 241.120442 105.697165 
L 241.120393 104.143655 
L 241.120351 102.590287 
L 241.120316 101.03705 
L 241.120287 99.48393 
L 241.120265 97.930915 
L 241.120248 96.377995 
L 241.120235 94.825158 
L 241.120226 93.272396 
L 241.120219 91.7197 
L 241.120215 90.167062 
L 241.120213 88.614473 
L 241.120212 87.061929 
L 241.120213 85.509422 
L 241.120213 83.956947 
L 241.120214 82.404499 
L 241.120215 80.852074 
L 241.120217 79.299668 
L 241.120218 77.747277 
L 241.120219 76.1949 
L 241.12022 74.642532 
L 241.120221 73.090172 
L 241.120222 71.537819 
L 241.120223 69.98547 
L 241.120223 68.433124 
L 241.120224 66.880781 
L 241.120224 65.328438 
L 241.120225 63.776097 
" clip-path="url(#p13f5813ec6)" style="fill: none; stroke: #ff0000; stroke-width: 0.25; stroke-linecap: square"/>
   </g>
   <g id="line2d_33">
    <path d="M 231.199665 238.482827 
L 231.199672 240.054316 
L 231.199681 241.62527 
L 231.199692 243.195745 
L 231.199705 244.765791 
L 231.199717 246.335457 
L 231.199729 247.904785 
L 231.199739 249.473818 
L 231.199748 251.042593 
L 231.199756 252.611144 
L 231.199762 254.179503 
L 231.199767 255.747698 
L 231.199771 257.315756 
L 231.199774 258.883698 
L 231.199776 260.451547 
L 231.199777 262.019319 
L 231.199778 263.587031 
L 231.199778 265.154696 
L 231.199779 266.722326 
L 231.199779 268.28993 
L 231.199778 269.857518 
L 231.199778 271.425094 
L 231.199778 272.992665 
L 231.199778 274.560234 
L 231.199777 276.127803 
L 231.199777 277.695375 
L 231.199777 279.26295 
L 231.199777 280.830528 
L 231.199777 282.398109 
L 231.199776 283.965692 
L 231.199776 285.533277 
" clip-path="url(#p13f5813ec6)" style="fill: none; stroke: #ff0000; stroke-opacity: 0.5; stroke-width: 0.25; stroke-linecap: square"/>
   </g>
   <g id="line2d_34">
    <path d="M 231.199665 238.482827 
L 231.199673 240.054316 
L 231.199682 241.625262 
L 231.199694 243.195721 
L 231.199706 244.765743 
L 231.199718 246.335377 
L 231.19973 247.904666 
L 231.19974 249.473651 
L 231.199749 251.04237 
L 231.199756 252.610859 
L 231.199762 254.179148 
L 231.199767 255.747266 
L 231.199771 257.315239 
L 231.199773 258.88309 
L 231.199775 260.45084 
L 231.199777 262.018507 
L 231.199778 263.586107 
L 231.199778 265.153655 
L 231.199778 266.721161 
L 231.199778 268.288637 
L 231.199778 269.85609 
L 231.199778 271.423527 
L 231.199778 272.990954 
L 231.199777 274.558374 
L 231.199777 276.125792 
L 231.199777 277.693209 
L 231.199777 279.260626 
L 231.199776 280.828044 
L 231.199776 282.395463 
L 231.199776 283.962884 
L 231.199776 285.530305 
" clip-path="url(#p13f5813ec6)" style="fill: none; stroke: #ff0000; stroke-width: 0.25; stroke-linecap: square"/>
   </g>
   <g id="line2d_35">
    <path d="M 168.692917 169.567022 
L 167.23144 169.567218 
L 165.769052 169.56738 
L 164.305832 169.56751 
L 162.841855 169.567612 
L 161.377193 169.567689 
L 159.911914 169.567746 
L 158.44608 169.567786 
L 156.979749 169.567813 
L 155.512976 169.567829 
L 154.045812 169.567838 
L 152.578304 169.567841 
L 151.110493 169.56784 
L 149.642418 169.567836 
L 148.174117 169.56783 
L 146.705619 169.567824 
L 145.236955 169.567817 
L 143.76815 169.56781 
L 142.299227 169.567804 
L 140.830205 169.567799 
L 139.361103 169.567794 
L 137.891937 169.56779 
L 136.422717 169.567786 
L 134.953457 169.567783 
L 133.484165 169.567781 
L 132.014848 169.56778 
L 130.545513 169.567778 
L 129.076164 169.567777 
L 127.606807 169.567777 
L 126.137443 169.567776 
L 124.668075 169.567776 
" clip-path="url(#p13f5813ec6)" style="fill: none; stroke: #ff0000; stroke-opacity: 0.5; stroke-width: 0.25; stroke-linecap: square"/>
   </g>
   <g id="line2d_36">
    <path d="M 168.692917 169.567022 
L 167.23144 169.567216 
L 165.769044 169.567378 
L 164.305807 169.567508 
L 162.841806 169.56761 
L 161.377111 169.567687 
L 159.911792 169.567745 
L 158.44591 169.567785 
L 156.979524 169.567812 
L 155.512689 169.567829 
L 154.045456 169.567838 
L 152.577871 169.567841 
L 151.109978 169.56784 
L 149.641815 169.567836 
L 148.173419 169.567831 
L 146.704822 169.567824 
L 145.236053 169.567817 
L 143.767138 169.567811 
L 142.2981 169.567805 
L 140.82896 169.567799 
L 139.359736 169.567794 
L 137.890444 169.56779 
L 136.421097 169.567786 
L 134.951706 169.567783 
L 133.482282 169.567781 
L 132.012832 169.567779 
L 130.543364 169.567778 
L 129.073882 169.567776 
L 127.604392 169.567775 
L 126.134897 169.567774 
L 124.6654 169.567774 
" clip-path="url(#p13f5813ec6)" style="fill: none; stroke: #ff0000; stroke-width: 0.25; stroke-linecap: square"/>
   </g>
   <g id="line2d_37">
    <path d="M 300.325159 179.488775 
L 301.877325 179.488673 
L 303.429528 179.488582 
L 304.981769 179.488501 
L 306.53405 179.488432 
L 308.086373 179.488374 
L 309.638738 179.488327 
L 311.191148 179.48829 
L 312.7436 179.488262 
L 314.296096 179.488241 
L 315.848635 179.488226 
L 317.401215 179.488216 
L 318.953836 179.488209 
L 320.506497 179.488206 
L 322.059195 179.488204 
L 323.611929 179.488205 
L 325.164697 179.488206 
L 326.717497 179.488208 
L 328.270326 179.48821 
L 329.823183 179.488212 
L 331.376066 179.488214 
L 332.92897 179.488216 
L 334.481896 179.488217 
L 336.034839 179.488219 
L 337.587797 179.48822 
L 339.140769 179.488221 
L 340.693752 179.488222 
L 342.246743 179.488222 
L 343.799741 179.488223 
L 345.352743 179.488223 
L 346.905748 179.488224 
" clip-path="url(#p13f5813ec6)" style="fill: none; stroke: #ff0000; stroke-opacity: 0.5; stroke-width: 0.25; stroke-linecap: square"/>
   </g>
   <g id="line2d_38">
    <path d="M 300.325159 179.488775 
L 301.877325 179.488671 
L 303.429526 179.48858 
L 304.981762 179.488499 
L 306.534037 179.48843 
L 308.086352 179.488373 
L 309.638708 179.488326 
L 311.191104 179.48829 
L 312.743542 179.488261 
L 314.296022 179.488241 
L 315.848541 179.488226 
L 317.4011 179.488216 
L 318.953698 179.488209 
L 320.506333 179.488206 
L 322.059003 179.488205 
L 323.611707 179.488205 
L 325.164442 179.488206 
L 326.717207 179.488208 
L 328.27 179.48821 
L 329.822818 179.488212 
L 331.375658 179.488214 
L 332.92852 179.488216 
L 334.481399 179.488218 
L 336.034294 179.488219 
L 337.587203 179.48822 
L 339.140124 179.488222 
L 340.693053 179.488222 
L 342.245989 179.488223 
L 343.79893 179.488224 
L 345.351874 179.488224 
L 346.90482 179.488225 
" clip-path="url(#p13f5813ec6)" style="fill: none; stroke: #ff0000; stroke-width: 0.25; stroke-linecap: square"/>
   </g>
   <g id="line2d_39">
    <path d="M 273.400404 179.415232 
L 274.813877 179.436634 
L 276.230653 179.454281 
L 277.65063 179.467922 
L 279.073686 179.478195 
L 280.499697 179.485691 
L 281.928536 179.490942 
L 283.360073 179.494414 
L 284.794174 179.496509 
L 286.230705 179.497565 
L 287.669531 179.49786 
L 289.110513 179.49762 
L 290.553514 179.497024 
L 291.998398 179.496212 
L 293.445027 179.495289 
L 294.893267 179.494332 
L 296.342986 179.493397 
L 297.794052 179.492519 
L 299.246339 179.491721 
L 300.699722 179.491015 
L 302.154083 179.490404 
L 303.609306 179.489887 
L 305.065278 179.489457 
L 306.521893 179.489107 
L 307.97905 179.488824 
L 309.436653 179.4886 
L 310.894609 179.488421 
L 312.352833 179.488277 
L 313.811246 179.488157 
L 315.269775 179.488049 
L 316.728352 179.487949 
" clip-path="url(#p13f5813ec6)" style="fill: none; stroke: #ff0000; stroke-opacity: 0.5; stroke-width: 0.25; stroke-linecap: square"/>
   </g>
   <g id="line2d_40">
    <path d="M 273.400404 179.415232 
L 274.813882 179.436316 
L 276.230686 179.453992 
L 277.65072 179.467673 
L 279.073862 179.477988 
L 280.499989 179.485526 
L 281.928974 179.490814 
L 283.360686 179.494319 
L 284.794995 179.49644 
L 286.231765 179.497515 
L 287.67086 179.497823 
L 289.112145 179.497591 
L 290.555481 179.496998 
L 292.000731 179.496185 
L 293.44776 179.495259 
L 294.896433 179.494298 
L 296.346617 179.493357 
L 297.798182 179.492476 
L 299.251001 179.491676 
L 300.70495 179.490969 
L 302.159908 179.490361 
L 303.615759 179.489849 
L 305.072392 179.489427 
L 306.529699 179.489086 
L 307.987577 179.488817 
L 309.44593 179.488607 
L 310.904666 179.488445 
L 312.363696 179.488321 
L 313.822942 179.488224 
L 315.282326 179.488141 
L 316.741779 179.488062 
" clip-path="url(#p13f5813ec6)" style="fill: none; stroke: #ff0000; stroke-width: 0.25; stroke-linecap: square"/>
   </g>
   <g id="line2d_41">
    <path d="M 231.208239 204.814516 
L 231.224979 206.456008 
L 231.235179 208.093046 
L 231.239695 209.725726 
L 231.240176 211.354165 
L 231.237963 212.978506 
L 231.234105 214.598906 
L 231.229402 216.215535 
L 231.224432 217.828568 
L 231.219597 219.438186 
L 231.215152 221.044572 
L 231.211243 222.647914 
L 231.207931 224.248397 
L 231.205222 225.846209 
L 231.203079 227.441536 
L 231.201445 229.034562 
L 231.200248 230.625471 
L 231.199416 232.214441 
L 231.198876 233.801649 
L 231.198564 235.387264 
L 231.19842 236.971455 
L 231.198399 238.554381 
L 231.198461 240.136199 
L 231.198575 241.717057 
L 231.198718 243.297099 
L 231.198876 244.87646 
L 231.199037 246.455269 
L 231.199195 248.033647 
L 231.199348 249.611708 
L 231.199494 251.189559 
L 231.199635 252.767296 
" clip-path="url(#p13f5813ec6)" style="fill: none; stroke: #ff0000; stroke-opacity: 0.5; stroke-width: 0.25; stroke-linecap: square"/>
   </g>
   <g id="line2d_42">
    <path d="M 231.208239 204.814516 
L 231.22393 206.456018 
L 231.234171 208.09313 
L 231.238784 209.725956 
L 231.239395 211.354614 
L 231.237328 212.979246 
L 231.233619 214.600007 
L 231.229057 216.217065 
L 231.224216 217.830596 
L 231.219494 219.44078 
L 231.215144 221.047798 
L 231.211311 222.651836 
L 231.208059 224.25308 
L 231.205394 225.851717 
L 231.203282 227.44793 
L 231.201667 229.041904 
L 231.20048 230.633821 
L 231.19965 232.223857 
L 231.199107 233.812187 
L 231.198787 235.398982 
L 231.198635 236.984406 
L 231.198604 238.568619 
L 231.198657 240.151774 
L 231.198763 241.73402 
L 231.198901 243.315496 
L 231.199055 244.896338 
L 231.199214 246.47667 
L 231.199373 248.056614 
L 231.199528 249.63628 
L 231.199679 251.21577 
L 231.199827 252.795181 
" clip-path="url(#p13f5813ec6)" style="fill: none; stroke: #ff0000; stroke-width: 0.25; stroke-linecap: square"/>
   </g>
   <g id="line2d_43">
    <path d="M 198.910415 169.645206 
L 197.498503 169.622553 
L 196.083166 169.603864 
L 194.664512 169.589413 
L 193.242669 169.578524 
L 191.817768 169.570574 
L 190.389942 169.564999 
L 188.959326 169.561306 
L 187.526059 169.559071 
L 186.09028 169.557937 
L 184.65213 169.557611 
L 183.211752 169.557852 
L 181.769289 169.558472 
L 180.324882 169.559323 
L 178.878672 169.560293 
L 177.430799 169.561301 
L 175.9814 169.562288 
L 174.530609 169.563215 
L 173.078559 169.564059 
L 171.625376 169.564806 
L 170.171186 169.565453 
L 168.716106 169.566001 
L 167.260252 169.566457 
L 165.803735 169.56683 
L 164.346659 169.56713 
L 162.889123 169.56737 
L 161.431222 169.56756 
L 159.973044 169.567715 
L 158.514672 169.567844 
L 157.056181 169.567959 
L 155.597638 169.568067 
" clip-path="url(#p13f5813ec6)" style="fill: none; stroke: #ff0000; stroke-opacity: 0.5; stroke-width: 0.25; stroke-linecap: square"/>
   </g>
   <g id="line2d_44">
    <path d="M 198.910415 169.645206 
L 197.498498 169.622892 
L 196.083131 169.60417 
L 194.664419 169.589677 
L 193.242488 169.578743 
L 191.817468 169.570749 
L 190.389491 169.565133 
L 188.958694 169.561406 
L 187.525213 169.559144 
L 186.089188 169.55799 
L 184.65076 169.55765 
L 183.210071 169.557883 
L 181.767263 169.558501 
L 180.322478 169.559352 
L 178.875857 169.560326 
L 177.42754 169.561339 
L 175.977662 169.56233 
L 174.52636 169.563262 
L 173.073764 169.564107 
L 171.620002 169.564855 
L 170.165199 169.565499 
L 168.709475 169.566042 
L 167.252946 169.56649 
L 165.795721 169.566852 
L 164.337908 169.567139 
L 162.879605 169.567362 
L 161.420908 169.567534 
L 159.961907 169.567667 
L 158.502685 169.567772 
L 157.04332 169.567861 
L 155.583884 169.567946 
" clip-path="url(#p13f5813ec6)" style="fill: none; stroke: #ff0000; stroke-width: 0.25; stroke-linecap: square"/>
   </g>
   <g id="line2d_45">
    <path d="M 241.112811 144.236993 
L 241.094867 142.596838 
L 241.083838 140.961011 
L 241.07883 139.329427 
L 241.078106 137.701973 
L 241.080259 136.078515 
L 241.08418 134.458902 
L 241.089026 132.842969 
L 241.094183 131.230546 
L 241.099223 129.621459 
L 241.103875 128.015527 
L 241.107979 126.412571 
L 241.111466 124.812408 
L 241.114328 123.214856 
L 241.116599 121.619733 
L 241.118338 120.026859 
L 241.119618 118.436057 
L 241.120514 116.84715 
L 241.121101 115.259968 
L 241.121447 113.674343 
L 241.121613 112.090111 
L 241.121647 110.507116 
L 241.121592 108.925205 
L 241.121479 107.344232 
L 241.121333 105.764057 
L 241.12117 104.184547 
L 241.121003 102.605575 
L 241.120838 101.027023 
L 241.120678 99.448779 
L 241.120524 97.870739 
L 241.120375 96.292807 
" clip-path="url(#p13f5813ec6)" style="fill: none; stroke: #ff0000; stroke-opacity: 0.5; stroke-width: 0.25; stroke-linecap: square"/>
   </g>
   <g id="line2d_46">
    <path d="M 241.112811 144.236993 
L 241.09597 142.596826 
L 241.084899 140.960928 
L 241.079789 139.329199 
L 241.078928 137.701532 
L 241.080928 136.077792 
L 241.084692 134.457827 
L 241.089389 132.841477 
L 241.094409 131.228571 
L 241.099331 129.618936 
L 241.103883 128.012394 
L 241.107906 126.408766 
L 241.11133 124.807869 
L 241.114146 123.209525 
L 241.116385 121.613551 
L 241.118104 120.01977 
L 241.119374 118.428004 
L 241.120268 116.83808 
L 241.120858 115.249828 
L 241.121212 113.663082 
L 241.121386 112.07768 
L 241.12143 110.493467 
L 241.121384 108.910291 
L 241.121279 107.328009 
L 241.121139 105.746483 
L 241.120981 104.165581 
L 241.120816 102.585179 
L 241.120651 101.00516 
L 241.120489 99.425416 
L 241.120331 97.845845 
L 241.120176 96.266354 
" clip-path="url(#p13f5813ec6)" style="fill: none; stroke: #ff0000; stroke-width: 0.25; stroke-linecap: square"/>
   </g>
   <g id="patch_15">
    <path d="M 103.104 307.584 
L 103.104 41.472 
" style="fill: none; stroke: #000000; stroke-width: 0.8; stroke-linejoin: miter; stroke-linecap: square"/>
   </g>
   <g id="patch_16">
    <path d="M 369.216 307.584 
L 369.216 41.472 
" style="fill: none; stroke: #000000; stroke-width: 0.8; stroke-linejoin: miter; stroke-linecap: square"/>
   </g>
   <g id="patch_17">
    <path d="M 103.104 307.584 
L 369.216 307.584 
" style="fill: none; stroke: #000000; stroke-width: 0.8; stroke-linejoin: miter; stroke-linecap: square"/>
   </g>
   <g id="patch_18">
    <path d="M 103.104 41.472 
L 369.216 41.472 
" style="fill: none; stroke: #000000; stroke-width: 0.8; stroke-linejoin: miter; stroke-linecap: square"/>
   </g>
   <g id="text_11">
    <!-- Time:  96 ms -->
    <g transform="translate(264.253887 54.7776) scale(0.1 -0.1)">
     <defs>
      <path id="DejaVuSans-54" d="M -19 4666 
L 3928 4666 
L 3928 4134 
L 2272 4134 
L 2272 0 
L 1638 0 
L 1638 4134 
L -19 4134 
L -19 4666 
z
" transform="scale(0.015625)"/>
      <path id="DejaVuSans-69" d="M 603 3500 
L 1178 3500 
L 1178 0 
L 603 0 
L 603 3500 
z
M 603 4863 
L 1178 4863 
L 1178 4134 
L 603 4134 
L 603 4863 
z
" transform="scale(0.015625)"/>
      <path id="DejaVuSans-6d" d="M 3328 2828 
Q 3544 3216 3844 3400 
Q 4144 3584 4550 3584 
Q 5097 3584 5394 3201 
Q 5691 2819 5691 2113 
L 5691 0 
L 5113 0 
L 5113 2094 
Q 5113 2597 4934 2840 
Q 4756 3084 4391 3084 
Q 3944 3084 3684 2787 
Q 3425 2491 3425 1978 
L 3425 0 
L 2847 0 
L 2847 2094 
Q 2847 2600 2669 2842 
Q 2491 3084 2119 3084 
Q 1678 3084 1418 2786 
Q 1159 2488 1159 1978 
L 1159 0 
L 581 0 
L 581 3500 
L 1159 3500 
L 1159 2956 
Q 1356 3278 1631 3431 
Q 1906 3584 2284 3584 
Q 2666 3584 2933 3390 
Q 3200 3197 3328 2828 
z
" transform="scale(0.015625)"/>
      <path id="DejaVuSans-65" d="M 3597 1894 
L 3597 1613 
L 953 1613 
Q 991 1019 1311 708 
Q 1631 397 2203 397 
Q 2534 397 2845 478 
Q 3156 559 3463 722 
L 3463 178 
Q 3153 47 2828 -22 
Q 2503 -91 2169 -91 
Q 1331 -91 842 396 
Q 353 884 353 1716 
Q 353 2575 817 3079 
Q 1281 3584 2069 3584 
Q 2775 3584 3186 3129 
Q 3597 2675 3597 1894 
z
M 3022 2063 
Q 3016 2534 2758 2815 
Q 2500 3097 2075 3097 
Q 1594 3097 1305 2825 
Q 1016 2553 972 2059 
L 3022 2063 
z
" transform="scale(0.015625)"/>
      <path id="DejaVuSans-3a" d="M 750 794 
L 1409 794 
L 1409 0 
L 750 0 
L 750 794 
z
M 750 3309 
L 1409 3309 
L 1409 2516 
L 750 2516 
L 750 3309 
z
" transform="scale(0.015625)"/>
      <path id="DejaVuSans-20" transform="scale(0.015625)"/>
      <path id="DejaVuSans-39" d="M 703 97 
L 703 672 
Q 941 559 1184 500 
Q 1428 441 1663 441 
Q 2288 441 2617 861 
Q 2947 1281 2994 2138 
Q 2813 1869 2534 1725 
Q 2256 1581 1919 1581 
Q 1219 1581 811 2004 
Q 403 2428 403 3163 
Q 403 3881 828 4315 
Q 1253 4750 1959 4750 
Q 2769 4750 3195 4129 
Q 3622 3509 3622 2328 
Q 3622 1225 3098 567 
Q 2575 -91 1691 -91 
Q 1453 -91 1209 -44 
Q 966 3 703 97 
z
M 1959 2075 
Q 2384 2075 2632 2365 
Q 2881 2656 2881 3163 
Q 2881 3666 2632 3958 
Q 2384 4250 1959 4250 
Q 1534 4250 1286 3958 
Q 1038 3666 1038 3163 
Q 1038 2656 1286 2365 
Q 1534 2075 1959 2075 
z
" transform="scale(0.015625)"/>
      <path id="DejaVuSans-36" d="M 2113 2584 
Q 1688 2584 1439 2293 
Q 1191 2003 1191 1497 
Q 1191 994 1439 701 
Q 1688 409 2113 409 
Q 2538 409 2786 701 
Q 3034 994 3034 1497 
Q 3034 2003 2786 2293 
Q 2538 2584 2113 2584 
z
M 3366 4563 
L 3366 3988 
Q 3128 4100 2886 4159 
Q 2644 4219 2406 4219 
Q 1781 4219 1451 3797 
Q 1122 3375 1075 2522 
Q 1259 2794 1537 2939 
Q 1816 3084 2150 3084 
Q 2853 3084 3261 2657 
Q 3669 2231 3669 1497 
Q 3669 778 3244 343 
Q 2819 -91 2113 -91 
Q 1303 -91 875 529 
Q 447 1150 447 2328 
Q 447 3434 972 4092 
Q 1497 4750 2381 4750 
Q 2619 4750 2861 4703 
Q 3103 4656 3366 4563 
z
" transform="scale(0.015625)"/>
      <path id="DejaVuSans-73" d="M 2834 3397 
L 2834 2853 
Q 2591 2978 2328 3040 
Q 2066 3103 1784 3103 
Q 1356 3103 1142 2972 
Q 928 2841 928 2578 
Q 928 2378 1081 2264 
Q 1234 2150 1697 2047 
L 1894 2003 
Q 2506 1872 2764 1633 
Q 3022 1394 3022 966 
Q 3022 478 2636 193 
Q 2250 -91 1575 -91 
Q 1294 -91 989 -36 
Q 684 19 347 128 
L 347 722 
Q 666 556 975 473 
Q 1284 391 1588 391 
Q 1994 391 2212 530 
Q 2431 669 2431 922 
Q 2431 1156 2273 1281 
Q 2116 1406 1581 1522 
L 1381 1569 
Q 847 1681 609 1914 
Q 372 2147 372 2553 
Q 372 3047 722 3315 
Q 1072 3584 1716 3584 
Q 2034 3584 2315 3537 
Q 2597 3491 2834 3397 
z
" transform="scale(0.015625)"/>
     </defs>
     <use xlink:href="#DejaVuSans-54"/>
     <use xlink:href="#DejaVuSans-69" x="57.958984"/>
     <use xlink:href="#DejaVuSans-6d" x="85.742188"/>
     <use xlink:href="#DejaVuSans-65" x="183.154297"/>
     <use xlink:href="#DejaVuSans-3a" x="244.677734"/>
     <use xlink:href="#DejaVuSans-20" x="278.369141"/>
     <use xlink:href="#DejaVuSans-20" x="310.15625"/>
     <use xlink:href="#DejaVuSans-39" x="341.943359"/>
     <use xlink:href="#DejaVuSans-36" x="405.566406"/>
     <use xlink:href="#DejaVuSans-20" x="469.189453"/>
     <use xlink:href="#DejaVuSans-6d" x="500.976562"/>
     <use xlink:href="#DejaVuSans-73" x="598.388672"/>
    </g>
   </g>
  </g>
 </g>
 <defs>
  <clipPath id="p13f5813ec6">
   <rect x="103.104" y="41.472" width="266.112" height="266.112"/>
  </clipPath>
 </defs>
</svg>
