<?xml version="1.0" encoding="utf-8" standalone="no"?>
<!DOCTYPE svg PUBLIC "-//W3C//DTD SVG 1.1//EN"
  "http://www.w3.org/Graphics/SVG/1.1/DTD/svg11.dtd">
<svg xmlns:xlink="http://www.w3.org/1999/xlink" width="460.8pt" height="345.6pt" viewBox="0 0 460.8 345.6" xmlns="http://www.w3.org/2000/svg" version="1.1">
 <metadata>
  <rdf:RDF xmlns:dc="http://purl.org/dc/elements/1.1/" xmlns:cc="http://creativecommons.org/ns#" xmlns:rdf="http://www.w3.org/1999/02/22-rdf-syntax-ns#">
   <cc:Work>
    <dc:type rdf:resource="http://purl.org/dc/dcmitype/StillImage"/>
    <dc:date>2024-01-23T16:31:24.268457</dc:date>
    <dc:format>image/svg+xml</dc:format>
    <dc:creator>
     <cc:Agent>
      <dc:title>Matplotlib v3.8.2, https://matplotlib.org/</dc:title>
     </cc:Agent>
    </dc:creator>
   </cc:Work>
  </rdf:RDF>
 </metadata>
 <defs>
  <style type="text/css">*{stroke-linejoin: round; stroke-linecap: butt}</style>
 </defs>
 <g id="figure_1">
  <g id="patch_1">
   <path d="M 0 345.6 
L 460.8 345.6 
L 460.8 0 
L 0 0 
z
" style="fill: #ffffff"/>
  </g>
  <g id="axes_1">
   <g id="patch_2">
    <path d="M 103.104 307.584 
L 369.216 307.584 
L 369.216 41.472 
L 103.104 41.472 
z
" style="fill: #ffffff"/>
   </g>
   <g id="patch_3">
    <path d="M 244.870433 214.63289 
L 244.867894 202.99049 
L 239.213014 202.991723 
L 239.215553 214.634123 
z
" clip-path="url(#pd515361d1d)" style="fill: #00008b"/>
   </g>
   <g id="patch_4">
    <path d="M 277.02119 165.878377 
L 265.378916 165.93252 
L 265.405214 171.587339 
L 277.047488 171.533196 
z
" clip-path="url(#pd515361d1d)" style="fill: #800000"/>
   </g>
   <g id="patch_5">
    <path d="M 227.477033 134.326244 
L 227.47428 145.968644 
L 233.12916 145.969981 
L 233.131913 134.327581 
z
" clip-path="url(#pd515361d1d)" style="fill: #006400"/>
   </g>
   <g id="patch_6">
    <path d="M 195.949545 183.208838 
L 207.591945 183.208201 
L 207.591636 177.553321 
L 195.949236 177.553958 
z
" clip-path="url(#pd515361d1d)" style="fill: #4b0082"/>
   </g>
   <g id="patch_7">
    <path d="M 244.84326 264.59028 
L 244.84326 252.94788 
L 239.18838 252.94788 
L 239.18838 264.59028 
z
" clip-path="url(#pd515361d1d)" style="fill: #0000ff"/>
   </g>
   <g id="patch_8">
    <path d="M 326.22228 165.84474 
L 314.57988 165.84474 
L 314.57988 171.49962 
L 326.22228 171.49962 
z
" clip-path="url(#pd515361d1d)" style="fill: #ff0000"/>
   </g>
   <g id="patch_9">
    <path d="M 227.476739 84.622172 
L 227.476719 96.264572 
L 233.131599 96.264582 
L 233.131619 84.622182 
z
" clip-path="url(#pd515361d1d)" style="fill: #dbdc56"/>
   </g>
   <g id="patch_10">
    <path d="M 143.759448 183.21126 
L 155.401848 183.21126 
L 155.401848 177.55638 
L 143.759448 177.55638 
z
" clip-path="url(#pd515361d1d)" style="fill: #9400d3"/>
   </g>
   <g id="patch_11">
    <path d="M 244.84326 315.249582 
L 244.84326 303.607182 
L 239.18838 303.607182 
L 239.18838 315.249582 
z
" clip-path="url(#pd515361d1d)" style="fill: #1e90ff"/>
   </g>
   <g id="patch_12">
    <path d="M 373.466952 165.84474 
L 361.824552 165.84474 
L 361.824552 171.49962 
L 373.466952 171.49962 
z
" clip-path="url(#pd515361d1d)" style="fill: #ff4500"/>
   </g>
   <g id="patch_13">
    <path d="M 227.47674 33.806418 
L 227.47674 45.448818 
L 233.13162 45.448818 
L 233.13162 33.806418 
z
" clip-path="url(#pd515361d1d)" style="fill: #7cfc00"/>
   </g>
   <g id="patch_14">
    <path d="M 95.438418 183.21126 
L 107.080818 183.21126 
L 107.080818 177.55638 
L 95.438418 177.55638 
z
" clip-path="url(#pd515361d1d)" style="fill: #ff00ff"/>
   </g>
   <g id="matplotlib.axis_1">
    <g id="xtick_1">
     <g id="line2d_1">
      <defs>
       <path id="m4fa3f76391" d="M 0 0 
L 0 3.5 
" style="stroke: #000000; stroke-width: 0.8"/>
      </defs>
      <g>
       <use xlink:href="#m4fa3f76391" x="103.104" y="307.584" style="stroke: #000000; stroke-width: 0.8"/>
      </g>
     </g>
     <g id="text_1">
      <!-- −40 -->
      <g transform="translate(92.551656 322.182437) scale(0.1 -0.1)">
       <defs>
        <path id="DejaVuSans-2212" d="M 678 2272 
L 4684 2272 
L 4684 1741 
L 678 1741 
L 678 2272 
z
" transform="scale(0.015625)"/>
        <path id="DejaVuSans-34" d="M 2419 4116 
L 825 1625 
L 2419 1625 
L 2419 4116 
z
M 2253 4666 
L 3047 4666 
L 3047 1625 
L 3713 1625 
L 3713 1100 
L 3047 1100 
L 3047 0 
L 2419 0 
L 2419 1100 
L 313 1100 
L 313 1709 
L 2253 4666 
z
" transform="scale(0.015625)"/>
        <path id="DejaVuSans-30" d="M 2034 4250 
Q 1547 4250 1301 3770 
Q 1056 3291 1056 2328 
Q 1056 1369 1301 889 
Q 1547 409 2034 409 
Q 2525 409 2770 889 
Q 3016 1369 3016 2328 
Q 3016 3291 2770 3770 
Q 2525 4250 2034 4250 
z
M 2034 4750 
Q 2819 4750 3233 4129 
Q 3647 3509 3647 2328 
Q 3647 1150 3233 529 
Q 2819 -91 2034 -91 
Q 1250 -91 836 529 
Q 422 1150 422 2328 
Q 422 3509 836 4129 
Q 1250 4750 2034 4750 
z
" transform="scale(0.015625)"/>
       </defs>
       <use xlink:href="#DejaVuSans-2212"/>
       <use xlink:href="#DejaVuSans-34" x="83.789062"/>
       <use xlink:href="#DejaVuSans-30" x="147.412109"/>
      </g>
     </g>
    </g>
    <g id="xtick_2">
     <g id="line2d_2">
      <g>
       <use xlink:href="#m4fa3f76391" x="136.368" y="307.584" style="stroke: #000000; stroke-width: 0.8"/>
      </g>
     </g>
     <g id="text_2">
      <!-- −30 -->
      <g transform="translate(125.815656 322.182437) scale(0.1 -0.1)">
       <defs>
        <path id="DejaVuSans-33" d="M 2597 2516 
Q 3050 2419 3304 2112 
Q 3559 1806 3559 1356 
Q 3559 666 3084 287 
Q 2609 -91 1734 -91 
Q 1441 -91 1130 -33 
Q 819 25 488 141 
L 488 750 
Q 750 597 1062 519 
Q 1375 441 1716 441 
Q 2309 441 2620 675 
Q 2931 909 2931 1356 
Q 2931 1769 2642 2001 
Q 2353 2234 1838 2234 
L 1294 2234 
L 1294 2753 
L 1863 2753 
Q 2328 2753 2575 2939 
Q 2822 3125 2822 3475 
Q 2822 3834 2567 4026 
Q 2313 4219 1838 4219 
Q 1578 4219 1281 4162 
Q 984 4106 628 3988 
L 628 4550 
Q 988 4650 1302 4700 
Q 1616 4750 1894 4750 
Q 2613 4750 3031 4423 
Q 3450 4097 3450 3541 
Q 3450 3153 3228 2886 
Q 3006 2619 2597 2516 
z
" transform="scale(0.015625)"/>
       </defs>
       <use xlink:href="#DejaVuSans-2212"/>
       <use xlink:href="#DejaVuSans-33" x="83.789062"/>
       <use xlink:href="#DejaVuSans-30" x="147.412109"/>
      </g>
     </g>
    </g>
    <g id="xtick_3">
     <g id="line2d_3">
      <g>
       <use xlink:href="#m4fa3f76391" x="169.632" y="307.584" style="stroke: #000000; stroke-width: 0.8"/>
      </g>
     </g>
     <g id="text_3">
      <!-- −20 -->
      <g transform="translate(159.079656 322.182437) scale(0.1 -0.1)">
       <defs>
        <path id="DejaVuSans-32" d="M 1228 531 
L 3431 531 
L 3431 0 
L 469 0 
L 469 531 
Q 828 903 1448 1529 
Q 2069 2156 2228 2338 
Q 2531 2678 2651 2914 
Q 2772 3150 2772 3378 
Q 2772 3750 2511 3984 
Q 2250 4219 1831 4219 
Q 1534 4219 1204 4116 
Q 875 4013 500 3803 
L 500 4441 
Q 881 4594 1212 4672 
Q 1544 4750 1819 4750 
Q 2544 4750 2975 4387 
Q 3406 4025 3406 3419 
Q 3406 3131 3298 2873 
Q 3191 2616 2906 2266 
Q 2828 2175 2409 1742 
Q 1991 1309 1228 531 
z
" transform="scale(0.015625)"/>
       </defs>
       <use xlink:href="#DejaVuSans-2212"/>
       <use xlink:href="#DejaVuSans-32" x="83.789062"/>
       <use xlink:href="#DejaVuSans-30" x="147.412109"/>
      </g>
     </g>
    </g>
    <g id="xtick_4">
     <g id="line2d_4">
      <g>
       <use xlink:href="#m4fa3f76391" x="202.896" y="307.584" style="stroke: #000000; stroke-width: 0.8"/>
      </g>
     </g>
     <g id="text_4">
      <!-- −10 -->
      <g transform="translate(192.343656 322.182437) scale(0.1 -0.1)">
       <defs>
        <path id="DejaVuSans-31" d="M 794 531 
L 1825 531 
L 1825 4091 
L 703 3866 
L 703 4441 
L 1819 4666 
L 2450 4666 
L 2450 531 
L 3481 531 
L 3481 0 
L 794 0 
L 794 531 
z
" transform="scale(0.015625)"/>
       </defs>
       <use xlink:href="#DejaVuSans-2212"/>
       <use xlink:href="#DejaVuSans-31" x="83.789062"/>
       <use xlink:href="#DejaVuSans-30" x="147.412109"/>
      </g>
     </g>
    </g>
    <g id="xtick_5">
     <g id="line2d_5">
      <g>
       <use xlink:href="#m4fa3f76391" x="236.16" y="307.584" style="stroke: #000000; stroke-width: 0.8"/>
      </g>
     </g>
     <g id="text_5">
      <!-- 0 -->
      <g transform="translate(232.97875 322.182437) scale(0.1 -0.1)">
       <use xlink:href="#DejaVuSans-30"/>
      </g>
     </g>
    </g>
    <g id="xtick_6">
     <g id="line2d_6">
      <g>
       <use xlink:href="#m4fa3f76391" x="269.424" y="307.584" style="stroke: #000000; stroke-width: 0.8"/>
      </g>
     </g>
     <g id="text_6">
      <!-- 10 -->
      <g transform="translate(263.0615 322.182437) scale(0.1 -0.1)">
       <use xlink:href="#DejaVuSans-31"/>
       <use xlink:href="#DejaVuSans-30" x="63.623047"/>
      </g>
     </g>
    </g>
    <g id="xtick_7">
     <g id="line2d_7">
      <g>
       <use xlink:href="#m4fa3f76391" x="302.688" y="307.584" style="stroke: #000000; stroke-width: 0.8"/>
      </g>
     </g>
     <g id="text_7">
      <!-- 20 -->
      <g transform="translate(296.3255 322.182437) scale(0.1 -0.1)">
       <use xlink:href="#DejaVuSans-32"/>
       <use xlink:href="#DejaVuSans-30" x="63.623047"/>
      </g>
     </g>
    </g>
    <g id="xtick_8">
     <g id="line2d_8">
      <g>
       <use xlink:href="#m4fa3f76391" x="335.952" y="307.584" style="stroke: #000000; stroke-width: 0.8"/>
      </g>
     </g>
     <g id="text_8">
      <!-- 30 -->
      <g transform="translate(329.5895 322.182437) scale(0.1 -0.1)">
       <use xlink:href="#DejaVuSans-33"/>
       <use xlink:href="#DejaVuSans-30" x="63.623047"/>
      </g>
     </g>
    </g>
    <g id="xtick_9">
     <g id="line2d_9">
      <g>
       <use xlink:href="#m4fa3f76391" x="369.216" y="307.584" style="stroke: #000000; stroke-width: 0.8"/>
      </g>
     </g>
     <g id="text_9">
      <!-- 40 -->
      <g transform="translate(362.8535 322.182437) scale(0.1 -0.1)">
       <use xlink:href="#DejaVuSans-34"/>
       <use xlink:href="#DejaVuSans-30" x="63.623047"/>
      </g>
     </g>
    </g>
   </g>
   <g id="matplotlib.axis_2">
    <g id="ytick_1">
     <g id="line2d_10">
      <defs>
       <path id="m5ff16affc3" d="M 0 0 
L -3.5 0 
" style="stroke: #000000; stroke-width: 0.8"/>
      </defs>
      <g>
       <use xlink:href="#m5ff16affc3" x="103.104" y="307.584" style="stroke: #000000; stroke-width: 0.8"/>
      </g>
     </g>
     <g id="text_10">
      <!-- −40 -->
      <g transform="translate(74.999313 311.383219) scale(0.1 -0.1)">
       <use xlink:href="#DejaVuSans-2212"/>
       <use xlink:href="#DejaVuSans-34" x="83.789062"/>
       <use xlink:href="#DejaVuSans-30" x="147.412109"/>
      </g>
     </g>
    </g>
    <g id="ytick_2">
     <g id="line2d_11">
      <g>
       <use xlink:href="#m5ff16affc3" x="103.104" y="274.32" style="stroke: #000000; stroke-width: 0.8"/>
      </g>
     </g>
     <g id="text_11">
      <!-- −30 -->
      <g transform="translate(74.999313 278.119219) scale(0.1 -0.1)">
       <use xlink:href="#DejaVuSans-2212"/>
       <use xlink:href="#DejaVuSans-33" x="83.789062"/>
       <use xlink:href="#DejaVuSans-30" x="147.412109"/>
      </g>
     </g>
    </g>
    <g id="ytick_3">
     <g id="line2d_12">
      <g>
       <use xlink:href="#m5ff16affc3" x="103.104" y="241.056" style="stroke: #000000; stroke-width: 0.8"/>
      </g>
     </g>
     <g id="text_12">
      <!-- −20 -->
      <g transform="translate(74.999313 244.855219) scale(0.1 -0.1)">
       <use xlink:href="#DejaVuSans-2212"/>
       <use xlink:href="#DejaVuSans-32" x="83.789062"/>
       <use xlink:href="#DejaVuSans-30" x="147.412109"/>
      </g>
     </g>
    </g>
    <g id="ytick_4">
     <g id="line2d_13">
      <g>
       <use xlink:href="#m5ff16affc3" x="103.104" y="207.792" style="stroke: #000000; stroke-width: 0.8"/>
      </g>
     </g>
     <g id="text_13">
      <!-- −10 -->
      <g transform="translate(74.999313 211.591219) scale(0.1 -0.1)">
       <use xlink:href="#DejaVuSans-2212"/>
       <use xlink:href="#DejaVuSans-31" x="83.789062"/>
       <use xlink:href="#DejaVuSans-30" x="147.412109"/>
      </g>
     </g>
    </g>
    <g id="ytick_5">
     <g id="line2d_14">
      <g>
       <use xlink:href="#m5ff16affc3" x="103.104" y="174.528" style="stroke: #000000; stroke-width: 0.8"/>
      </g>
     </g>
     <g id="text_14">
      <!-- 0 -->
      <g transform="translate(89.7415 178.327219) scale(0.1 -0.1)">
       <use xlink:href="#DejaVuSans-30"/>
      </g>
     </g>
    </g>
    <g id="ytick_6">
     <g id="line2d_15">
      <g>
       <use xlink:href="#m5ff16affc3" x="103.104" y="141.264" style="stroke: #000000; stroke-width: 0.8"/>
      </g>
     </g>
     <g id="text_15">
      <!-- 10 -->
      <g transform="translate(83.379 145.063219) scale(0.1 -0.1)">
       <use xlink:href="#DejaVuSans-31"/>
       <use xlink:href="#DejaVuSans-30" x="63.623047"/>
      </g>
     </g>
    </g>
    <g id="ytick_7">
     <g id="line2d_16">
      <g>
       <use xlink:href="#m5ff16affc3" x="103.104" y="108" style="stroke: #000000; stroke-width: 0.8"/>
      </g>
     </g>
     <g id="text_16">
      <!-- 20 -->
      <g transform="translate(83.379 111.799219) scale(0.1 -0.1)">
       <use xlink:href="#DejaVuSans-32"/>
       <use xlink:href="#DejaVuSans-30" x="63.623047"/>
      </g>
     </g>
    </g>
    <g id="ytick_8">
     <g id="line2d_17">
      <g>
       <use xlink:href="#m5ff16affc3" x="103.104" y="74.736" style="stroke: #000000; stroke-width: 0.8"/>
      </g>
     </g>
     <g id="text_17">
      <!-- 30 -->
      <g transform="translate(83.379 78.535219) scale(0.1 -0.1)">
       <use xlink:href="#DejaVuSans-33"/>
       <use xlink:href="#DejaVuSans-30" x="63.623047"/>
      </g>
     </g>
    </g>
    <g id="ytick_9">
     <g id="line2d_18">
      <g>
       <use xlink:href="#m5ff16affc3" x="103.104" y="41.472" style="stroke: #000000; stroke-width: 0.8"/>
      </g>
     </g>
     <g id="text_18">
      <!-- 40 -->
      <g transform="translate(83.379 45.271219) scale(0.1 -0.1)">
       <use xlink:href="#DejaVuSans-34"/>
       <use xlink:href="#DejaVuSans-30" x="63.623047"/>
      </g>
     </g>
    </g>
   </g>
   <g id="line2d_19">
    <path d="M 250.2972 288.4572 
L 250.2972 188.6652 
" clip-path="url(#pd515361d1d)" style="fill: none; stroke: #000000; stroke-width: 0.25; stroke-linecap: square"/>
   </g>
   <g id="line2d_20">
    <path d="M 250.2972 188.6652 
L 350.0892 188.6652 
" clip-path="url(#pd515361d1d)" style="fill: none; stroke: #000000; stroke-width: 0.25; stroke-linecap: square"/>
   </g>
   <g id="line2d_21">
    <path d="M 350.0892 160.3908 
L 250.2972 160.3908 
" clip-path="url(#pd515361d1d)" style="fill: none; stroke: #000000; stroke-width: 0.25; stroke-linecap: square"/>
   </g>
   <g id="line2d_22">
    <path d="M 250.2972 160.3908 
L 250.2972 60.5988 
" clip-path="url(#pd515361d1d)" style="fill: none; stroke: #000000; stroke-width: 0.25; stroke-linecap: square"/>
   </g>
   <g id="line2d_23">
    <path d="M 222.0228 60.5988 
L 222.0228 160.3908 
" clip-path="url(#pd515361d1d)" style="fill: none; stroke: #000000; stroke-width: 0.25; stroke-linecap: square"/>
   </g>
   <g id="line2d_24">
    <path d="M 222.0228 160.3908 
L 122.2308 160.3908 
" clip-path="url(#pd515361d1d)" style="fill: none; stroke: #000000; stroke-width: 0.25; stroke-linecap: square"/>
   </g>
   <g id="line2d_25">
    <path d="M 122.2308 188.6652 
L 222.0228 188.6652 
" clip-path="url(#pd515361d1d)" style="fill: none; stroke: #000000; stroke-width: 0.25; stroke-linecap: square"/>
   </g>
   <g id="line2d_26">
    <path d="M 222.0228 188.6652 
L 222.0228 288.4572 
" clip-path="url(#pd515361d1d)" style="fill: none; stroke: #000000; stroke-width: 0.25; stroke-linecap: square"/>
   </g>
   <g id="line2d_27">
    <path d="M 250.2972 174.528 
L 350.0892 174.528 
" clip-path="url(#pd515361d1d)" style="fill: none; stroke-dasharray: 0.925,0.4; stroke-dashoffset: 0; stroke: #000000; stroke-width: 0.25"/>
   </g>
   <g id="line2d_28">
    <path d="M 236.16 160.3908 
L 236.16 60.5988 
" clip-path="url(#pd515361d1d)" style="fill: none; stroke-dasharray: 0.925,0.4; stroke-dashoffset: 0; stroke: #000000; stroke-width: 0.25"/>
   </g>
   <g id="line2d_29">
    <path d="M 222.0228 174.528 
L 122.2308 174.528 
" clip-path="url(#pd515361d1d)" style="fill: none; stroke-dasharray: 0.925,0.4; stroke-dashoffset: 0; stroke: #000000; stroke-width: 0.25"/>
   </g>
   <g id="line2d_30">
    <path d="M 236.16 188.6652 
L 236.16 288.4572 
" clip-path="url(#pd515361d1d)" style="fill: none; stroke-dasharray: 0.925,0.4; stroke-dashoffset: 0; stroke: #000000; stroke-width: 0.25"/>
   </g>
   <g id="line2d_31">
    <path d="M 242.04922 210.680188 
L 242.040504 208.812312 
L 242.026445 206.942572 
L 242.007268 205.070182 
L 241.984793 203.194245 
L 241.963479 201.313693 
L 241.951691 199.427278 
L 241.962962 197.533715 
L 242.016735 195.63208 
L 242.137604 193.722643 
L 242.350883 191.807668 
L 242.66385 189.889707 
L 243.046828 187.964705 
L 243.38572 186.009105 
L 243.551099 184.008245 
L 243.353846 181.988001 
L 242.837883 180.004647 
L 242.0639 178.090057 
L 241.072081 176.266805 
L 239.879929 174.563871 
L 238.504846 173.012297 
L 236.971491 171.635597 
L 235.303949 170.449466 
L 233.524628 169.463727 
L 231.655841 168.685856 
L 229.719716 168.121679 
L 227.739742 167.775719 
L 225.739196 167.650172 
L 223.741065 167.74491 
L 221.76793 168.057689 
L 219.841962 168.584308 
" clip-path="url(#pd515361d1d)" style="fill: none; stroke: #ff0000; stroke-opacity: 0.2; stroke-width: 0.25; stroke-linecap: square"/>
   </g>
   <g id="line2d_32">
    <path d="M 242.04922 210.680188 
L 242.040741 208.812311 
L 242.026934 206.942501 
L 242.007978 205.069978 
L 241.985645 203.193849 
L 241.964336 201.313053 
L 241.952364 199.426343 
L 241.963217 197.532431 
L 242.01632 195.630385 
L 242.13629 193.720463 
L 242.348523 191.804917 
L 242.660451 189.886314 
L 243.042587 187.96066 
L 243.380818 186.004459 
L 243.545877 184.003092 
L 243.349089 181.982333 
L 242.83377 179.998353 
L 242.058614 178.083801 
L 241.066661 176.260229 
L 239.874073 174.557277 
L 238.498556 173.00585 
L 236.964748 171.629525 
L 235.296815 170.443943 
L 233.51738 169.458598 
L 231.648826 168.680664 
L 229.713123 168.116134 
L 227.733666 167.769712 
L 225.733699 167.6436 
L 223.736175 167.737637 
L 221.763622 168.049557 
L 219.838164 168.575209 
" clip-path="url(#pd515361d1d)" style="fill: none; stroke: #ff0000; stroke-opacity: 0.4; stroke-width: 0.25; stroke-linecap: square"/>
   </g>
   <g id="line2d_33">
    <path d="M 242.04922 210.680188 
L 242.041027 208.812309 
L 242.027531 206.942462 
L 242.008866 205.069869 
L 241.986753 203.193643 
L 241.965537 201.312729 
L 241.953472 199.425883 
L 241.964002 197.531815 
L 242.016527 195.629585 
L 242.135679 193.719433 
L 242.346923 191.803595 
L 242.657834 189.884643 
L 243.0391 187.958634 
L 243.37659 186.002127 
L 243.54119 184.000555 
L 243.344643 181.979621 
L 242.829652 179.995428 
L 242.055631 178.08033 
L 241.066053 176.255445 
L 239.872197 174.553455 
L 238.496341 173.002528 
L 236.962804 171.626254 
L 235.295663 170.440118 
L 233.51695 169.454322 
L 231.648781 168.676794 
L 229.713357 168.113538 
L 227.734359 167.768824 
L 225.735146 167.644404 
L 223.738644 167.739911 
L 221.767314 168.053012 
L 219.843177 168.579482 
" clip-path="url(#pd515361d1d)" style="fill: none; stroke: #ff0000; stroke-opacity: 0.6; stroke-width: 0.25; stroke-linecap: square"/>
   </g>
   <g id="line2d_34">
    <path d="M 242.04922 210.680188 
L 242.041313 208.812308 
L 242.028125 206.942429 
L 242.009745 205.06978 
L 241.987842 203.193478 
L 241.966702 201.312472 
L 241.954523 199.425522 
L 241.9647 197.531335 
L 242.016605 195.628962 
L 242.134881 193.718623 
L 242.345062 191.802534 
L 242.654853 189.883266 
L 243.035116 187.956925 
L 243.371694 186.000133 
L 243.535615 183.998387 
L 243.339013 181.977354 
L 242.823975 179.993093 
L 242.051241 178.077433 
L 241.06238 176.252186 
L 239.868027 174.550665 
L 238.492112 173.000036 
L 236.958936 171.623763 
L 235.292516 170.437223 
L 233.514481 169.451109 
L 231.646739 168.673943 
L 229.711738 168.111539 
L 227.733357 167.767727 
L 225.734973 167.643999 
L 223.739454 167.739896 
L 221.76918 168.053068 
L 219.846063 168.57922 
" clip-path="url(#pd515361d1d)" style="fill: none; stroke: #ff0000; stroke-opacity: 0.8; stroke-width: 0.25; stroke-linecap: square"/>
   </g>
   <g id="line2d_35">
    <path d="M 242.04922 210.680188 
L 242.041723 208.812307 
L 242.029003 206.942396 
L 242.011102 205.06969 
L 241.989634 203.19331 
L 241.968827 201.31221 
L 241.956819 199.425154 
L 241.966953 197.530849 
L 242.018573 195.62834 
L 242.136328 193.717831 
L 242.345816 191.801524 
L 242.65487 189.881995 
L 243.034515 187.95539 
L 243.370562 185.998366 
L 243.534178 183.996463 
L 243.33786 181.975283 
L 242.823051 179.990863 
L 242.049692 178.075394 
L 241.058746 176.251278 
L 239.865458 174.549102 
L 238.489895 172.998372 
L 236.956713 171.622463 
L 235.290006 170.43688 
L 233.511871 169.45178 
L 231.644434 168.67517 
L 229.71008 168.112698 
L 227.732514 167.768388 
L 225.734996 167.644004 
L 223.740359 167.739182 
L 221.770953 168.051561 
L 219.848655 168.576844 
" clip-path="url(#pd515361d1d)" style="fill: none; stroke: #ff0000; stroke-width: 0.25; stroke-linecap: square"/>
   </g>
   <g id="line2d_36">
    <path d="M 272.978299 168.725248 
L 271.21322 168.736265 
L 269.450764 168.764686 
L 267.691941 168.819105 
L 265.9384 168.908887 
L 264.192529 169.042611 
L 262.457163 169.224722 
L 260.734364 169.449265 
L 259.022892 169.689333 
L 257.31627 169.880645 
L 255.611767 169.890754 
L 253.969038 169.494229 
L 252.391157 168.936364 
L 250.887304 168.243064 
L 249.468077 167.425169 
L 248.142272 166.493106 
L 246.91684 165.4573 
L 245.797256 164.327735 
L 244.787826 163.113707 
L 243.892 161.823608 
L 243.112529 160.46446 
L 242.452196 159.042209 
L 241.914289 157.562001 
L 241.503583 156.030932 
L 241.225516 154.458566 
L 241.085235 152.856831 
L 241.086741 151.240223 
L 241.232233 149.624064 
L 241.520503 148.023384 
L 241.857157 146.430265 
L 242.177822 144.832943 
" clip-path="url(#pd515361d1d)" style="fill: none; stroke: #ff0000; stroke-opacity: 0.2; stroke-width: 0.25; stroke-linecap: square"/>
   </g>
   <g id="line2d_37">
    <path d="M 272.978299 168.725248 
L 271.213208 168.734187 
L 269.450731 168.760342 
L 267.691857 168.812447 
L 265.938226 168.900066 
L 264.192232 169.032041 
L 262.456756 169.213155 
L 260.733951 169.437838 
L 259.022658 169.679514 
L 257.316326 169.874051 
L 255.611754 169.888951 
L 253.967454 169.498396 
L 252.388417 168.943248 
L 250.88333 168.252024 
L 249.462613 167.43602 
L 248.135099 166.505569 
L 246.907746 165.471062 
L 245.786044 164.342438 
L 244.774316 163.128947 
L 243.875993 161.838964 
L 243.093922 160.479419 
L 242.43096 159.0562 
L 241.890502 157.574391 
L 241.477481 156.041036 
L 241.197483 154.46569 
L 241.055827 152.860303 
L 241.056702 151.239462 
L 241.20256 149.618667 
L 241.491689 148.013077 
L 241.825032 146.413937 
L 242.125521 144.807274 
" clip-path="url(#pd515361d1d)" style="fill: none; stroke: #ff0000; stroke-opacity: 0.4; stroke-width: 0.25; stroke-linecap: square"/>
   </g>
   <g id="line2d_38">
    <path d="M 272.978299 168.725248 
L 271.213206 168.733743 
L 269.450744 168.759398 
L 267.691898 168.81097 
L 265.938299 168.898056 
L 264.192341 169.029547 
L 262.45691 169.210287 
L 260.734172 169.434777 
L 259.022986 169.676505 
L 257.316796 169.871372 
L 255.612338 169.886871 
L 253.967966 169.497092 
L 252.388905 168.942343 
L 250.883668 168.251699 
L 249.462721 167.436291 
L 248.134871 166.506462 
L 246.907065 165.472586 
L 245.784788 164.344578 
L 244.772359 163.131666 
L 243.873193 161.842213 
L 243.090114 160.483134 
L 242.426017 159.060269 
L 241.884309 157.578675 
L 241.469938 156.045373 
L 241.188508 154.469891 
L 241.045364 152.864162 
L 241.044725 151.242762 
L 241.189048 149.621193 
L 241.476896 148.014664 
L 241.808243 146.414354 
L 242.104153 144.806067 
" clip-path="url(#pd515361d1d)" style="fill: none; stroke: #ff0000; stroke-opacity: 0.6; stroke-width: 0.25; stroke-linecap: square"/>
   </g>
   <g id="line2d_39">
    <path d="M 272.978299 168.725248 
L 271.213204 168.733258 
L 269.450762 168.758353 
L 267.691949 168.809312 
L 265.938392 168.895763 
L 264.192477 169.026641 
L 262.457095 169.20685 
L 260.734423 169.430961 
L 259.023339 169.672526 
L 257.31729 169.867475 
L 255.612971 169.883286 
L 253.968642 169.493936 
L 252.389864 168.938809 
L 250.88438 168.249038 
L 249.463256 167.434202 
L 248.135163 166.504926 
L 246.907063 165.471554 
L 245.784456 164.343974 
L 244.771699 163.131387 
L 243.872304 161.842088 
L 243.089058 160.483044 
L 242.424859 159.060105 
L 241.883087 157.578347 
L 241.46864 156.044807 
L 241.187136 154.469002 
L 241.043899 152.862862 
L 241.04311 151.24096 
L 241.186869 149.618761 
L 241.476661 148.011934 
L 241.807899 146.410905 
L 242.101427 144.801469 
" clip-path="url(#pd515361d1d)" style="fill: none; stroke: #ff0000; stroke-opacity: 0.8; stroke-width: 0.25; stroke-linecap: square"/>
   </g>
   <g id="line2d_40">
    <path d="M 272.978299 168.725248 
L 271.213202 168.732858 
L 269.450783 168.757501 
L 267.692011 168.807976 
L 265.938505 168.893942 
L 264.192652 169.024375 
L 262.457344 169.204239 
L 260.734773 169.428174 
L 259.023831 169.669792 
L 257.31796 169.865055 
L 255.613794 169.881434 
L 253.969453 169.492806 
L 252.390726 168.938004 
L 250.885088 168.248944 
L 249.463783 167.434726 
L 248.135439 166.50605 
L 246.907026 165.473236 
L 245.784056 164.346154 
L 244.770904 163.133978 
L 243.871154 161.844956 
L 243.087609 160.486056 
L 242.423142 159.063154 
L 241.881129 157.581332 
L 241.466459 156.047628 
L 241.184774 154.471556 
L 241.041411 152.865047 
L 241.040562 151.242683 
L 241.184228 149.619937 
L 241.474807 148.012645 
L 241.805688 146.410892 
L 242.096767 144.80034 
" clip-path="url(#pd515361d1d)" style="fill: none; stroke: #ff0000; stroke-width: 0.25; stroke-linecap: square"/>
   </g>
   <g id="line2d_41">
    <path d="M 230.303417 138.295122 
L 230.30357 140.148113 
L 230.304693 141.997614 
L 230.306793 143.843335 
L 230.309763 145.68513 
L 230.313312 147.523054 
L 230.316446 149.357428 
L 230.317685 151.188918 
L 230.315331 153.018614 
L 230.308963 154.848129 
L 230.303372 156.67972 
L 230.315986 158.516319 
L 230.382077 160.360595 
L 230.524174 162.214082 
L 230.658613 164.086376 
L 230.132866 165.912442 
L 229.409464 167.700938 
L 228.484633 169.432865 
L 227.359335 171.085352 
L 226.589481 172.962859 
L 226.43577 175.002091 
L 226.532936 177.039829 
L 226.853579 179.027165 
L 227.379479 180.9235 
L 228.086018 182.701846 
L 228.948951 184.349386 
L 229.949914 185.860272 
L 230.589532 187.514791 
L 230.652512 189.261347 
L 230.552433 190.9941 
L 230.286603 192.706195 
" clip-path="url(#pd515361d1d)" style="fill: none; stroke: #ff0000; stroke-opacity: 0.2; stroke-width: 0.25; stroke-linecap: square"/>
   </g>
   <g id="line2d_42">
    <path d="M 230.303417 138.295122 
L 230.303348 140.148113 
L 230.304227 141.997633 
L 230.306073 143.843379 
L 230.308836 145.685183 
L 230.312301 147.523082 
L 230.315555 149.357381 
L 230.317167 151.18873 
L 230.315393 153.018208 
L 230.309606 154.847418 
L 230.304235 156.67861 
L 230.316497 158.514714 
L 230.382549 160.3584 
L 230.527035 162.211027 
L 230.668367 164.082068 
L 230.146577 165.908431 
L 229.426269 167.697236 
L 228.505487 169.430296 
L 227.383 171.083626 
L 226.609299 172.958691 
L 226.449863 174.996832 
L 226.544956 177.034268 
L 226.862556 179.022062 
L 227.385807 180.919578 
L 228.091929 182.699007 
L 228.95738 184.346384 
L 229.958844 185.857953 
L 230.600129 187.512131 
L 230.666944 189.257769 
L 230.563459 190.988078 
L 230.298793 192.696851 
" clip-path="url(#pd515361d1d)" style="fill: none; stroke: #ff0000; stroke-opacity: 0.4; stroke-width: 0.25; stroke-linecap: square"/>
   </g>
   <g id="line2d_43">
    <path d="M 230.303417 138.295122 
L 230.303222 140.148113 
L 230.303948 141.997653 
L 230.305616 143.843435 
L 230.308191 145.685289 
L 230.31147 147.523246 
L 230.314558 149.357607 
L 230.316038 151.189019 
L 230.314165 153.018556 
L 230.308282 154.84782 
L 230.302769 156.679055 
L 230.314818 158.515193 
L 230.380748 160.358903 
L 230.525582 162.211511 
L 230.668124 164.082453 
L 230.146947 165.908969 
L 229.427435 167.698055 
L 228.507486 169.4315 
L 227.385776 171.085289 
L 226.612138 172.960326 
L 226.45308 174.99846 
L 226.54868 177.035864 
L 226.86684 179.023605 
L 227.390392 180.921129 
L 228.09639 182.700759 
L 228.961672 184.348408 
L 229.962923 185.860278 
L 230.603601 187.51475 
L 230.669858 189.260317 
L 230.565515 190.990277 
L 230.300171 192.698469 
" clip-path="url(#pd515361d1d)" style="fill: none; stroke: #ff0000; stroke-opacity: 0.6; stroke-width: 0.25; stroke-linecap: square"/>
   </g>
   <g id="line2d_44">
    <path d="M 230.303417 138.295122 
L 230.303129 140.148112 
L 230.30374 141.997669 
L 230.305274 143.84348 
L 230.307704 145.685371 
L 230.310841 147.52337 
L 230.313806 149.357774 
L 230.315191 151.189226 
L 230.313247 153.018797 
L 230.307293 154.848084 
L 230.301655 156.67933 
L 230.3135 158.515468 
L 230.379308 160.359164 
L 230.52449 162.211709 
L 230.668247 164.082507 
L 230.146618 165.908822 
L 229.427337 167.697903 
L 228.506837 169.430932 
L 227.385552 171.084866 
L 226.611462 172.959589 
L 226.452287 174.997608 
L 226.548305 177.034907 
L 226.867572 179.02242 
L 227.39218 180.919652 
L 228.097863 182.699457 
L 228.960849 184.348379 
L 229.961966 185.860379 
L 230.601886 187.515098 
L 230.66528 189.260585 
L 230.564076 190.990347 
L 230.298567 192.697959 
" clip-path="url(#pd515361d1d)" style="fill: none; stroke: #ff0000; stroke-opacity: 0.8; stroke-width: 0.25; stroke-linecap: square"/>
   </g>
   <g id="line2d_45">
    <path d="M 230.303417 138.295122 
L 230.303097 140.148112 
L 230.30363 141.997724 
L 230.305007 143.843633 
L 230.307215 145.685653 
L 230.310092 147.523798 
L 230.312798 149.358353 
L 230.313938 151.189946 
L 230.311698 153.019639 
L 230.305179 154.849017 
L 230.298341 156.680315 
L 230.30814 158.516477 
L 230.37196 160.360209 
L 230.517458 162.212648 
L 230.666241 164.082924 
L 230.1462 165.909505 
L 229.42768 167.698639 
L 228.508676 169.432149 
L 227.388015 171.086161 
L 226.611927 172.959799 
L 226.453262 174.997695 
L 226.549044 177.034983 
L 226.867399 179.022831 
L 227.391151 180.920769 
L 228.097264 182.701167 
L 228.962565 184.349797 
L 229.963877 185.862497 
L 230.602456 187.518071 
L 230.667986 189.263075 
L 230.563773 190.991251 
L 230.298974 192.696699 
" clip-path="url(#pd515361d1d)" style="fill: none; stroke: #ff0000; stroke-width: 0.25; stroke-linecap: square"/>
   </g>
   <g id="line2d_46">
    <path d="M 199.918533 180.3811 
L 201.770591 180.381128 
L 203.619566 180.380324 
L 205.465439 180.379037 
L 207.308365 180.377971 
L 209.148731 180.378029 
L 210.987213 180.380119 
L 212.824843 180.384418 
L 214.663089 180.388848 
L 216.503921 180.386755 
L 218.349753 180.365647 
L 220.203339 180.316057 
L 222.069478 180.284509 
L 223.944358 180.461779 
L 225.735628 181.109873 
L 227.473292 181.952835 
L 229.137648 182.990626 
L 230.705652 184.221386 
L 232.675469 184.675061 
L 234.711937 184.771681 
L 236.74909 184.641203 
L 238.743715 184.287002 
L 240.65594 183.72271 
L 242.45484 182.966915 
L 244.122649 182.045847 
L 245.649358 180.982737 
L 247.275425 180.165741 
L 249.055974 180.014814 
L 250.820171 180.024053 
L 252.568248 180.161076 
L 254.296118 180.442225 
" clip-path="url(#pd515361d1d)" style="fill: none; stroke: #ff0000; stroke-opacity: 0.2; stroke-width: 0.25; stroke-linecap: square"/>
   </g>
   <g id="line2d_47">
    <path d="M 199.918533 180.3811 
L 201.770591 180.381088 
L 203.61951 180.380154 
L 205.465279 180.378656 
L 207.30806 180.377283 
L 209.148249 180.376945 
L 210.98653 180.378596 
L 212.823948 180.382538 
L 214.661986 180.386886 
L 216.502634 180.385184 
L 218.348342 180.364885 
L 220.201893 180.315892 
L 222.068096 180.284252 
L 223.942934 180.464286 
L 225.734067 181.113966 
L 227.471598 181.958667 
L 229.135857 182.998329 
L 230.704339 184.230424 
L 232.676214 184.681408 
L 234.714311 184.77624 
L 236.752945 184.643494 
L 238.748917 184.287417 
L 240.662704 183.722618 
L 242.462702 182.965399 
L 244.131326 182.042934 
L 245.658609 180.978758 
L 247.284468 180.159964 
L 249.064786 180.007453 
L 250.827835 180.028198 
L 252.574091 180.159644 
L 254.301483 180.423367 
" clip-path="url(#pd515361d1d)" style="fill: none; stroke: #ff0000; stroke-opacity: 0.4; stroke-width: 0.25; stroke-linecap: square"/>
   </g>
   <g id="line2d_48">
    <path d="M 199.918533 180.3811 
L 201.770591 180.381072 
L 203.619522 180.380102 
L 205.465314 180.378551 
L 207.308129 180.377106 
L 209.14836 180.376675 
L 210.986691 180.378227 
L 212.824166 180.382085 
L 214.662268 180.386411 
L 216.502987 180.384791 
L 218.348778 180.364681 
L 220.202426 180.315869 
L 222.068739 180.284324 
L 223.94363 180.465117 
L 225.734844 181.115013 
L 227.472454 181.959949 
L 229.136778 182.999892 
L 230.705398 184.232195 
L 232.677466 184.683488 
L 234.715827 184.778275 
L 236.75468 184.644966 
L 238.750759 184.288127 
L 240.664616 183.722806 
L 242.464764 182.965468 
L 244.133424 182.042773 
L 245.660485 180.978137 
L 247.286837 180.16032 
L 249.067054 180.008078 
L 250.829802 180.029873 
L 252.575549 180.16147 
L 254.302655 180.422688 
" clip-path="url(#pd515361d1d)" style="fill: none; stroke: #ff0000; stroke-opacity: 0.6; stroke-width: 0.25; stroke-linecap: square"/>
   </g>
   <g id="line2d_49">
    <path d="M 199.918533 180.3811 
L 201.770591 180.381068 
L 203.619527 180.380075 
L 205.465329 180.378477 
L 207.308156 180.37696 
L 209.148402 180.376428 
L 210.98675 180.377856 
L 212.824242 180.381591 
L 214.662362 180.385832 
L 216.503101 180.384209 
L 218.348916 180.364172 
L 220.202593 180.315396 
L 222.068943 180.283762 
L 223.943837 180.46508 
L 225.7354 181.114214 
L 227.473414 181.958524 
L 229.137971 182.998306 
L 230.706445 184.231026 
L 232.678758 184.681959 
L 234.717171 184.779035 
L 236.756236 184.64671 
L 238.752315 184.289161 
L 240.665361 183.720767 
L 242.466358 182.965301 
L 244.13549 182.043435 
L 245.661321 180.977122 
L 247.288189 180.160622 
L 249.068081 180.007497 
L 250.830407 180.030532 
L 252.575514 180.162582 
L 254.302185 180.421571 
" clip-path="url(#pd515361d1d)" style="fill: none; stroke: #ff0000; stroke-opacity: 0.8; stroke-width: 0.25; stroke-linecap: square"/>
   </g>
   <g id="line2d_50">
    <path d="M 199.918533 180.3811 
L 201.770591 180.38108 
L 203.619523 180.380076 
L 205.465316 180.378444 
L 207.30813 180.37686 
L 209.148358 180.376223 
L 210.986683 180.377512 
L 212.824149 180.381092 
L 214.662238 180.385196 
L 216.502944 180.383492 
L 218.348727 180.363423 
L 220.202374 180.314543 
L 222.068701 180.282645 
L 223.94356 180.464268 
L 225.735219 181.113176 
L 227.473343 181.95734 
L 229.137935 182.997186 
L 230.706181 184.230353 
L 232.67874 184.680738 
L 234.717227 184.778858 
L 236.756468 184.647429 
L 238.752679 184.290043 
L 240.665386 183.720239 
L 242.466717 182.965453 
L 244.13601 182.043868 
L 245.661417 180.977034 
L 247.289068 180.162369 
L 249.0687 180.008919 
L 250.83065 180.031671 
L 252.575142 180.164334 
L 254.301405 180.421199 
" clip-path="url(#pd515361d1d)" style="fill: none; stroke: #ff0000; stroke-width: 0.25; stroke-linecap: square"/>
   </g>
   <g id="line2d_51">
    <path d="M 242.01582 260.63424 
L 242.01582 258.76908 
L 242.01582 256.90392 
L 242.01582 255.03876 
L 242.01582 253.1736 
L 242.01582 251.30844 
L 242.01582 249.44328 
L 242.01582 247.57812 
L 242.01582 245.71296 
L 242.01582 243.8478 
L 242.01582 241.98264 
L 242.01582 240.11748 
L 242.01582 238.25232 
L 242.01582 236.38716 
L 242.01582 234.522 
L 242.01582 232.65684 
L 242.01582 230.79168 
L 242.01582 228.92652 
L 242.01582 227.06136 
L 242.01582 225.1962 
L 242.01582 223.33104 
L 242.01582 221.46588 
L 242.01582 219.60072 
L 242.01582 217.73556 
L 242.01582 215.8704 
L 242.01582 214.00524 
L 242.01582 212.14008 
L 242.01582 210.27492 
L 242.01582 208.40976 
L 242.01582 206.5446 
L 242.01582 204.67944 
" clip-path="url(#pd515361d1d)" style="fill: none; stroke: #ff0000; stroke-opacity: 0.2; stroke-width: 0.25; stroke-linecap: square"/>
   </g>
   <g id="line2d_52">
    <path d="M 242.01582 260.63424 
L 242.01582 258.76908 
L 242.01582 256.90392 
L 242.01582 255.03876 
L 242.01582 253.1736 
L 242.01582 251.30844 
L 242.01582 249.44328 
L 242.01582 247.57812 
L 242.01582 245.71296 
L 242.01582 243.8478 
L 242.01582 241.98264 
L 242.01582 240.11748 
L 242.01582 238.25232 
L 242.01582 236.38716 
L 242.01582 234.522 
L 242.01582 232.65684 
L 242.01582 230.79168 
L 242.01582 228.92652 
L 242.01582 227.06136 
L 242.01582 225.1962 
L 242.01582 223.33104 
L 242.01582 221.46588 
L 242.01582 219.60072 
L 242.01582 217.73556 
L 242.01582 215.8704 
L 242.01582 214.00524 
L 242.01582 212.14008 
L 242.01582 210.27492 
L 242.01582 208.40976 
L 242.01582 206.5446 
L 242.01582 204.67944 
" clip-path="url(#pd515361d1d)" style="fill: none; stroke: #ff0000; stroke-opacity: 0.4; stroke-width: 0.25; stroke-linecap: square"/>
   </g>
   <g id="line2d_53">
    <path d="M 242.01582 260.63424 
L 242.01582 258.76908 
L 242.01582 256.90392 
L 242.01582 255.03876 
L 242.01582 253.1736 
L 242.01582 251.30844 
L 242.01582 249.44328 
L 242.01582 247.57812 
L 242.01582 245.71296 
L 242.01582 243.8478 
L 242.01582 241.98264 
L 242.01582 240.11748 
L 242.01582 238.25232 
L 242.01582 236.38716 
L 242.01582 234.522 
L 242.01582 232.65684 
L 242.01582 230.79168 
L 242.01582 228.92652 
L 242.01582 227.06136 
L 242.01582 225.1962 
L 242.01582 223.33104 
L 242.01582 221.46588 
L 242.01582 219.60072 
L 242.01582 217.73556 
L 242.01582 215.8704 
L 242.01582 214.00524 
L 242.01582 212.14008 
L 242.01582 210.27492 
L 242.01582 208.40976 
L 242.01582 206.5446 
L 242.01582 204.67944 
" clip-path="url(#pd515361d1d)" style="fill: none; stroke: #ff0000; stroke-opacity: 0.6; stroke-width: 0.25; stroke-linecap: square"/>
   </g>
   <g id="line2d_54">
    <path d="M 242.01582 260.63424 
L 242.01582 258.76908 
L 242.01582 256.90392 
L 242.01582 255.03876 
L 242.01582 253.1736 
L 242.01582 251.30844 
L 242.01582 249.44328 
L 242.01582 247.57812 
L 242.01582 245.71296 
L 242.01582 243.8478 
L 242.01582 241.98264 
L 242.01582 240.11748 
L 242.01582 238.25232 
L 242.01582 236.38716 
L 242.01582 234.522 
L 242.01582 232.65684 
L 242.01582 230.79168 
L 242.01582 228.92652 
L 242.01582 227.06136 
L 242.01582 225.1962 
L 242.01582 223.33104 
L 242.01582 221.46588 
L 242.01582 219.60072 
L 242.01582 217.73556 
L 242.01582 215.8704 
L 242.01582 214.00524 
L 242.01582 212.14008 
L 242.01582 210.27492 
L 242.01582 208.40976 
L 242.01582 206.5446 
L 242.01582 204.67944 
" clip-path="url(#pd515361d1d)" style="fill: none; stroke: #ff0000; stroke-opacity: 0.8; stroke-width: 0.25; stroke-linecap: square"/>
   </g>
   <g id="line2d_55">
    <path d="M 242.01582 260.63424 
L 242.01582 258.76908 
L 242.01582 256.90392 
L 242.01582 255.03876 
L 242.01582 253.1736 
L 242.01582 251.30844 
L 242.01582 249.44328 
L 242.01582 247.57812 
L 242.01582 245.71296 
L 242.01582 243.8478 
L 242.01582 241.98264 
L 242.01582 240.11748 
L 242.01582 238.25232 
L 242.01582 236.38716 
L 242.01582 234.522 
L 242.01582 232.65684 
L 242.01582 230.79168 
L 242.01582 228.92652 
L 242.01582 227.06136 
L 242.01582 225.1962 
L 242.01582 223.33104 
L 242.01582 221.46588 
L 242.01582 219.60072 
L 242.01582 217.73556 
L 242.01582 215.8704 
L 242.01582 214.00524 
L 242.01582 212.14008 
L 242.01582 210.27492 
L 242.01582 208.40976 
L 242.01582 206.5446 
L 242.01582 204.67944 
" clip-path="url(#pd515361d1d)" style="fill: none; stroke: #ff0000; stroke-width: 0.25; stroke-linecap: square"/>
   </g>
   <g id="line2d_56">
    <path d="M 322.26624 168.67218 
L 320.40108 168.67218 
L 318.53592 168.67218 
L 316.67076 168.67218 
L 314.8056 168.67218 
L 312.94044 168.67218 
L 311.07528 168.67218 
L 309.21012 168.67218 
L 307.34496 168.67218 
L 305.4798 168.67218 
L 303.61464 168.67218 
L 301.74948 168.67218 
L 299.88432 168.67218 
L 298.01916 168.67218 
L 296.154 168.67218 
L 294.28884 168.67218 
L 292.42368 168.67218 
L 290.55852 168.67218 
L 288.69336 168.67218 
L 286.8282 168.67218 
L 284.96304 168.67218 
L 283.09788 168.67218 
L 281.23272 168.67218 
L 279.36756 168.67218 
L 277.5024 168.67218 
L 275.63724 168.67218 
L 273.77208 168.67218 
L 271.90692 168.67218 
L 270.04176 168.67218 
L 268.1766 168.67218 
L 266.31144 168.67218 
" clip-path="url(#pd515361d1d)" style="fill: none; stroke: #ff0000; stroke-opacity: 0.2; stroke-width: 0.25; stroke-linecap: square"/>
   </g>
   <g id="line2d_57">
    <path d="M 322.26624 168.67218 
L 320.40108 168.67218 
L 318.53592 168.67218 
L 316.67076 168.67218 
L 314.8056 168.67218 
L 312.94044 168.67218 
L 311.07528 168.67218 
L 309.21012 168.67218 
L 307.34496 168.67218 
L 305.4798 168.67218 
L 303.61464 168.67218 
L 301.74948 168.67218 
L 299.88432 168.67218 
L 298.01916 168.67218 
L 296.154 168.67218 
L 294.28884 168.67218 
L 292.42368 168.67218 
L 290.55852 168.67218 
L 288.69336 168.67218 
L 286.8282 168.67218 
L 284.96304 168.67218 
L 283.09788 168.67218 
L 281.23272 168.67218 
L 279.36756 168.67218 
L 277.5024 168.67218 
L 275.63724 168.67218 
L 273.77208 168.67218 
L 271.90692 168.67218 
L 270.04176 168.67218 
L 268.1766 168.67218 
L 266.31144 168.67218 
" clip-path="url(#pd515361d1d)" style="fill: none; stroke: #ff0000; stroke-opacity: 0.4; stroke-width: 0.25; stroke-linecap: square"/>
   </g>
   <g id="line2d_58">
    <path d="M 322.26624 168.67218 
L 320.40108 168.67218 
L 318.53592 168.67218 
L 316.67076 168.67218 
L 314.8056 168.67218 
L 312.94044 168.67218 
L 311.07528 168.67218 
L 309.21012 168.67218 
L 307.34496 168.67218 
L 305.4798 168.67218 
L 303.61464 168.67218 
L 301.74948 168.67218 
L 299.88432 168.67218 
L 298.01916 168.67218 
L 296.154 168.67218 
L 294.28884 168.67218 
L 292.42368 168.67218 
L 290.55852 168.67218 
L 288.69336 168.67218 
L 286.8282 168.67218 
L 284.96304 168.67218 
L 283.09788 168.67218 
L 281.23272 168.67218 
L 279.36756 168.67218 
L 277.5024 168.67218 
L 275.63724 168.67218 
L 273.77208 168.67218 
L 271.90692 168.67218 
L 270.04176 168.67218 
L 268.1766 168.67218 
L 266.31144 168.67218 
" clip-path="url(#pd515361d1d)" style="fill: none; stroke: #ff0000; stroke-opacity: 0.6; stroke-width: 0.25; stroke-linecap: square"/>
   </g>
   <g id="line2d_59">
    <path d="M 322.26624 168.67218 
L 320.40108 168.67218 
L 318.53592 168.67218 
L 316.67076 168.67218 
L 314.8056 168.67218 
L 312.94044 168.67218 
L 311.07528 168.67218 
L 309.21012 168.67218 
L 307.34496 168.67218 
L 305.4798 168.67218 
L 303.61464 168.67218 
L 301.74948 168.67218 
L 299.88432 168.67218 
L 298.01916 168.67218 
L 296.154 168.67218 
L 294.28884 168.67218 
L 292.42368 168.67218 
L 290.55852 168.67218 
L 288.69336 168.67218 
L 286.8282 168.67218 
L 284.96304 168.67218 
L 283.09788 168.67218 
L 281.23272 168.67218 
L 279.36756 168.67218 
L 277.5024 168.67218 
L 275.63724 168.67218 
L 273.77208 168.67218 
L 271.90692 168.67218 
L 270.04176 168.67218 
L 268.1766 168.67218 
L 266.31144 168.67218 
" clip-path="url(#pd515361d1d)" style="fill: none; stroke: #ff0000; stroke-opacity: 0.8; stroke-width: 0.25; stroke-linecap: square"/>
   </g>
   <g id="line2d_60">
    <path d="M 322.26624 168.67218 
L 320.40108 168.67218 
L 318.53592 168.67218 
L 316.67076 168.67218 
L 314.8056 168.67218 
L 312.94044 168.67218 
L 311.07528 168.67218 
L 309.21012 168.67218 
L 307.34496 168.67218 
L 305.4798 168.67218 
L 303.61464 168.67218 
L 301.74948 168.67218 
L 299.88432 168.67218 
L 298.01916 168.67218 
L 296.154 168.67218 
L 294.28884 168.67218 
L 292.42368 168.67218 
L 290.55852 168.67218 
L 288.69336 168.67218 
L 286.8282 168.67218 
L 284.96304 168.67218 
L 283.09788 168.67218 
L 281.23272 168.67218 
L 279.36756 168.67218 
L 277.5024 168.67218 
L 275.63724 168.67218 
L 273.77208 168.67218 
L 271.90692 168.67218 
L 270.04176 168.67218 
L 268.1766 168.67218 
L 266.31144 168.67218 
" clip-path="url(#pd515361d1d)" style="fill: none; stroke: #ff0000; stroke-width: 0.25; stroke-linecap: square"/>
   </g>
   <g id="line2d_61">
    <path d="M 230.304177 88.555931 
L 230.304186 90.443377 
L 230.304192 92.330822 
L 230.304198 94.218259 
L 230.304208 96.105682 
L 230.304222 97.993086 
L 230.304243 99.880468 
L 230.304276 101.767825 
L 230.304324 103.655155 
L 230.304397 105.54246 
L 230.304506 107.429743 
L 230.304669 109.317012 
L 230.304913 111.204279 
L 230.305277 113.091558 
L 230.305821 114.978871 
L 230.306633 116.866247 
L 230.307847 118.75372 
L 230.309659 120.64133 
L 230.312368 122.529126 
L 230.31642 124.417164 
L 230.322481 126.3055 
L 230.331546 128.194196 
L 230.345062 130.083304 
L 230.3649 131.97286 
L 230.392113 133.862886 
L 230.418301 135.753533 
L 230.376502 137.644539 
L 229.868089 139.467142 
L 229.705075 141.353497 
L 230.074122 143.210926 
L 230.259038 145.095105 
" clip-path="url(#pd515361d1d)" style="fill: none; stroke: #ff0000; stroke-opacity: 0.2; stroke-width: 0.25; stroke-linecap: square"/>
   </g>
   <g id="line2d_62">
    <path d="M 230.304177 88.555931 
L 230.304173 90.443377 
L 230.304189 92.330779 
L 230.304197 94.218128 
L 230.304207 96.105417 
L 230.304222 97.99264 
L 230.304244 99.879792 
L 230.304278 101.766871 
L 230.304329 103.65388 
L 230.304407 105.540823 
L 230.304524 107.427715 
L 230.304701 109.314577 
L 230.304965 111.20144 
L 230.305361 113.088346 
L 230.305953 114.975354 
L 230.306838 116.862534 
L 230.308159 118.749977 
L 230.310131 120.63779 
L 230.313074 122.526097 
L 230.317469 124.41504 
L 230.324031 126.304773 
L 230.333827 128.195458 
L 230.348404 130.087248 
L 230.369753 131.980278 
L 230.398907 133.874654 
L 230.426354 135.770619 
L 230.379226 137.667829 
L 229.85581 139.493788 
L 229.708503 141.389676 
L 230.02077 143.266523 
L 230.175002 145.162918 
" clip-path="url(#pd515361d1d)" style="fill: none; stroke: #ff0000; stroke-opacity: 0.4; stroke-width: 0.25; stroke-linecap: square"/>
   </g>
   <g id="line2d_63">
    <path d="M 230.304177 88.555931 
L 230.304173 90.443377 
L 230.304192 92.330775 
L 230.304202 94.218115 
L 230.304214 96.105392 
L 230.30423 97.992598 
L 230.304254 99.879729 
L 230.30429 101.766783 
L 230.304342 103.653763 
L 230.30442 105.540675 
L 230.304536 107.427534 
L 230.30471 109.314362 
L 230.30497 111.201192 
L 230.305361 113.08807 
L 230.305946 114.975056 
L 230.306821 116.862225 
L 230.30813 118.749672 
L 230.310089 120.63751 
L 230.313017 122.525869 
L 230.317396 124.414898 
L 230.323945 126.304758 
L 230.333732 128.195619 
L 230.348306 130.087643 
L 230.369643 131.98097 
L 230.39868 133.875714 
L 230.425415 135.772129 
L 230.375151 137.669771 
L 229.840524 139.493087 
L 229.690607 141.389421 
L 229.997415 143.267862 
L 230.164262 145.163904 
" clip-path="url(#pd515361d1d)" style="fill: none; stroke: #ff0000; stroke-opacity: 0.6; stroke-width: 0.25; stroke-linecap: square"/>
   </g>
   <g id="line2d_64">
    <path d="M 230.304177 88.555931 
L 230.30417 90.443377 
L 230.304188 92.330772 
L 230.304198 94.218109 
L 230.304209 96.105379 
L 230.304226 97.992577 
L 230.304251 99.879698 
L 230.304289 101.766741 
L 230.304346 103.653708 
L 230.304431 105.540606 
L 230.304557 107.42745 
L 230.304742 109.314264 
L 230.305017 111.201082 
L 230.305422 113.08795 
L 230.306022 114.974929 
L 230.306909 116.862099 
L 230.308224 118.749555 
L 230.310177 120.637412 
L 230.313083 122.525806 
L 230.317415 124.414887 
L 230.323888 126.304821 
L 230.333575 128.19578 
L 230.348053 130.087931 
L 230.36938 131.981416 
L 230.39863 133.876348 
L 230.425793 135.772981 
L 230.37502 137.670868 
L 229.833058 139.492317 
L 229.681046 141.388808 
L 229.985857 143.267919 
L 230.159711 145.163683 
" clip-path="url(#pd515361d1d)" style="fill: none; stroke: #ff0000; stroke-opacity: 0.8; stroke-width: 0.25; stroke-linecap: square"/>
   </g>
   <g id="line2d_65">
    <path d="M 230.304177 88.555931 
L 230.304169 90.443377 
L 230.304185 92.330773 
L 230.304192 94.218109 
L 230.304201 96.10538 
L 230.304215 97.992578 
L 230.304238 99.879699 
L 230.304273 101.766742 
L 230.304328 103.653709 
L 230.304411 105.540608 
L 230.304536 107.427452 
L 230.304722 109.314266 
L 230.304998 111.201084 
L 230.305408 113.087951 
L 230.306015 114.974931 
L 230.306912 116.8621 
L 230.308242 118.749555 
L 230.310213 120.637412 
L 230.313139 122.525804 
L 230.317493 124.414884 
L 230.323984 126.304817 
L 230.333678 128.195775 
L 230.348136 130.087926 
L 230.369391 131.98141 
L 230.398482 133.876345 
L 230.42536 135.772983 
L 230.374173 137.67086 
L 229.831899 139.492221 
L 229.680679 141.388779 
L 229.985567 143.267882 
L 230.159157 145.163678 
" clip-path="url(#pd515361d1d)" style="fill: none; stroke: #ff0000; stroke-width: 0.25; stroke-linecap: square"/>
   </g>
   <g id="line2d_66">
    <path d="M 148.049527 180.38382 
L 149.580648 180.38382 
L 151.111769 180.38382 
L 152.64289 180.38382 
L 154.174012 180.38382 
L 155.705133 180.38382 
L 157.236254 180.38382 
L 158.767375 180.38382 
L 160.298496 180.38382 
L 161.829617 180.38382 
L 163.360739 180.38382 
L 164.89186 180.38382 
L 166.422981 180.38382 
L 167.954102 180.38382 
L 169.485223 180.38382 
L 171.016344 180.38382 
L 172.547466 180.38382 
L 174.078587 180.38382 
L 175.609708 180.38382 
L 177.140829 180.38382 
L 178.67195 180.38382 
L 180.203071 180.38382 
L 181.734192 180.38382 
L 183.265314 180.38382 
L 184.796435 180.38382 
L 186.327556 180.38382 
L 187.858677 180.38382 
L 189.389798 180.38382 
L 190.920919 180.38382 
L 192.452041 180.38382 
L 193.983162 180.38382 
" clip-path="url(#pd515361d1d)" style="fill: none; stroke: #ff0000; stroke-opacity: 0.2; stroke-width: 0.25; stroke-linecap: square"/>
   </g>
   <g id="line2d_67">
    <path d="M 148.049527 180.38382 
L 149.580648 180.38382 
L 151.111769 180.38382 
L 152.64289 180.38382 
L 154.174012 180.38382 
L 155.705133 180.38382 
L 157.236254 180.38382 
L 158.767375 180.38382 
L 160.298496 180.38382 
L 161.829617 180.38382 
L 163.360739 180.38382 
L 164.89186 180.38382 
L 166.422981 180.38382 
L 167.954102 180.38382 
L 169.485223 180.38382 
L 171.016344 180.38382 
L 172.547466 180.38382 
L 174.078587 180.38382 
L 175.609708 180.38382 
L 177.140829 180.38382 
L 178.67195 180.38382 
L 180.203071 180.38382 
L 181.734192 180.38382 
L 183.265314 180.38382 
L 184.796435 180.38382 
L 186.327556 180.38382 
L 187.858677 180.38382 
L 189.389798 180.38382 
L 190.920919 180.38382 
L 192.452041 180.38382 
L 193.983162 180.38382 
" clip-path="url(#pd515361d1d)" style="fill: none; stroke: #ff0000; stroke-opacity: 0.4; stroke-width: 0.25; stroke-linecap: square"/>
   </g>
   <g id="line2d_68">
    <path d="M 148.049527 180.38382 
L 149.580648 180.38382 
L 151.111769 180.38382 
L 152.64289 180.38382 
L 154.174012 180.38382 
L 155.705133 180.38382 
L 157.236254 180.38382 
L 158.767375 180.38382 
L 160.298496 180.38382 
L 161.829617 180.38382 
L 163.360739 180.38382 
L 164.89186 180.38382 
L 166.422981 180.38382 
L 167.954102 180.38382 
L 169.485223 180.38382 
L 171.016344 180.38382 
L 172.547466 180.38382 
L 174.078587 180.38382 
L 175.609708 180.38382 
L 177.140829 180.38382 
L 178.67195 180.38382 
L 180.203071 180.38382 
L 181.734192 180.38382 
L 183.265314 180.38382 
L 184.796435 180.38382 
L 186.327556 180.38382 
L 187.858677 180.38382 
L 189.389798 180.38382 
L 190.920919 180.38382 
L 192.452041 180.38382 
L 193.983162 180.38382 
" clip-path="url(#pd515361d1d)" style="fill: none; stroke: #ff0000; stroke-opacity: 0.6; stroke-width: 0.25; stroke-linecap: square"/>
   </g>
   <g id="line2d_69">
    <path d="M 148.049527 180.38382 
L 149.580648 180.38382 
L 151.111769 180.38382 
L 152.64289 180.38382 
L 154.174012 180.38382 
L 155.705133 180.38382 
L 157.236254 180.38382 
L 158.767375 180.38382 
L 160.298496 180.38382 
L 161.829617 180.38382 
L 163.360739 180.38382 
L 164.89186 180.38382 
L 166.422981 180.38382 
L 167.954102 180.38382 
L 169.485223 180.38382 
L 171.016344 180.38382 
L 172.547466 180.38382 
L 174.078587 180.38382 
L 175.609708 180.38382 
L 177.140829 180.38382 
L 178.67195 180.38382 
L 180.203071 180.38382 
L 181.734192 180.38382 
L 183.265314 180.38382 
L 184.796435 180.38382 
L 186.327556 180.38382 
L 187.858677 180.38382 
L 189.389798 180.38382 
L 190.920919 180.38382 
L 192.452041 180.38382 
L 193.983162 180.38382 
" clip-path="url(#pd515361d1d)" style="fill: none; stroke: #ff0000; stroke-opacity: 0.8; stroke-width: 0.25; stroke-linecap: square"/>
   </g>
   <g id="line2d_70">
    <path d="M 148.049527 180.38382 
L 149.580648 180.38382 
L 151.111769 180.38382 
L 152.64289 180.38382 
L 154.174012 180.38382 
L 155.705133 180.38382 
L 157.236254 180.38382 
L 158.767375 180.38382 
L 160.298496 180.38382 
L 161.829617 180.38382 
L 163.360739 180.38382 
L 164.89186 180.38382 
L 166.422981 180.38382 
L 167.954102 180.38382 
L 169.485223 180.38382 
L 171.016344 180.38382 
L 172.547466 180.38382 
L 174.078587 180.38382 
L 175.609708 180.38382 
L 177.140829 180.38382 
L 178.67195 180.38382 
L 180.203071 180.38382 
L 181.734192 180.38382 
L 183.265314 180.38382 
L 184.796435 180.38382 
L 186.327556 180.38382 
L 187.858677 180.38382 
L 189.389798 180.38382 
L 190.920919 180.38382 
L 192.452041 180.38382 
L 193.983162 180.38382 
" clip-path="url(#pd515361d1d)" style="fill: none; stroke: #ff0000; stroke-width: 0.25; stroke-linecap: square"/>
   </g>
   <g id="line2d_71">
    <path d="M 242.01582 311.184499 
L 242.01582 309.428382 
L 242.01582 307.672265 
L 242.01582 305.916148 
L 242.01582 304.160031 
L 242.01582 302.403914 
L 242.01582 300.647798 
L 242.01582 298.891681 
L 242.01582 297.135564 
L 242.01582 295.379447 
L 242.01582 293.62333 
L 242.01582 291.867213 
L 242.01582 290.111096 
L 242.01582 288.35498 
L 242.01582 286.598863 
L 242.01582 284.842746 
L 242.01582 283.086629 
L 242.01582 281.330512 
L 242.01582 279.574395 
L 242.01582 277.818278 
L 242.01582 276.062161 
L 242.01582 274.306045 
L 242.01582 272.549928 
L 242.01582 270.793811 
L 242.01582 269.037694 
L 242.01582 267.281577 
L 242.01582 265.52546 
L 242.01582 263.769343 
L 242.01582 262.013227 
L 242.01582 260.25711 
L 242.01582 258.500993 
" clip-path="url(#pd515361d1d)" style="fill: none; stroke: #ff0000; stroke-opacity: 0.2; stroke-width: 0.25; stroke-linecap: square"/>
   </g>
   <g id="line2d_72">
    <path d="M 242.01582 311.184499 
L 242.01582 309.428382 
L 242.01582 307.672265 
L 242.01582 305.916148 
L 242.01582 304.160031 
L 242.01582 302.403914 
L 242.01582 300.647798 
L 242.01582 298.891681 
L 242.01582 297.135564 
L 242.01582 295.379447 
L 242.01582 293.62333 
L 242.01582 291.867213 
L 242.01582 290.111096 
L 242.01582 288.35498 
L 242.01582 286.598863 
L 242.01582 284.842746 
L 242.01582 283.086629 
L 242.01582 281.330512 
L 242.01582 279.574395 
L 242.01582 277.818278 
L 242.01582 276.062161 
L 242.01582 274.306045 
L 242.01582 272.549928 
L 242.01582 270.793811 
L 242.01582 269.037694 
L 242.01582 267.281577 
L 242.01582 265.52546 
L 242.01582 263.769343 
L 242.01582 262.013227 
L 242.01582 260.25711 
L 242.01582 258.500993 
" clip-path="url(#pd515361d1d)" style="fill: none; stroke: #ff0000; stroke-opacity: 0.4; stroke-width: 0.25; stroke-linecap: square"/>
   </g>
   <g id="line2d_73">
    <path d="M 242.01582 311.184499 
L 242.01582 309.428382 
L 242.01582 307.672265 
L 242.01582 305.916148 
L 242.01582 304.160031 
L 242.01582 302.403914 
L 242.01582 300.647798 
L 242.01582 298.891681 
L 242.01582 297.135564 
L 242.01582 295.379447 
L 242.01582 293.62333 
L 242.01582 291.867213 
L 242.01582 290.111096 
L 242.01582 288.35498 
L 242.01582 286.598863 
L 242.01582 284.842746 
L 242.01582 283.086629 
L 242.01582 281.330512 
L 242.01582 279.574395 
L 242.01582 277.818278 
L 242.01582 276.062161 
L 242.01582 274.306045 
L 242.01582 272.549928 
L 242.01582 270.793811 
L 242.01582 269.037694 
L 242.01582 267.281577 
L 242.01582 265.52546 
L 242.01582 263.769343 
L 242.01582 262.013227 
L 242.01582 260.25711 
L 242.01582 258.500993 
" clip-path="url(#pd515361d1d)" style="fill: none; stroke: #ff0000; stroke-opacity: 0.6; stroke-width: 0.25; stroke-linecap: square"/>
   </g>
   <g id="line2d_74">
    <path d="M 242.01582 311.184499 
L 242.01582 309.428382 
L 242.01582 307.672265 
L 242.01582 305.916148 
L 242.01582 304.160031 
L 242.01582 302.403914 
L 242.01582 300.647798 
L 242.01582 298.891681 
L 242.01582 297.135564 
L 242.01582 295.379447 
L 242.01582 293.62333 
L 242.01582 291.867213 
L 242.01582 290.111096 
L 242.01582 288.35498 
L 242.01582 286.598863 
L 242.01582 284.842746 
L 242.01582 283.086629 
L 242.01582 281.330512 
L 242.01582 279.574395 
L 242.01582 277.818278 
L 242.01582 276.062161 
L 242.01582 274.306045 
L 242.01582 272.549928 
L 242.01582 270.793811 
L 242.01582 269.037694 
L 242.01582 267.281577 
L 242.01582 265.52546 
L 242.01582 263.769343 
L 242.01582 262.013227 
L 242.01582 260.25711 
L 242.01582 258.500993 
" clip-path="url(#pd515361d1d)" style="fill: none; stroke: #ff0000; stroke-opacity: 0.8; stroke-width: 0.25; stroke-linecap: square"/>
   </g>
   <g id="line2d_75">
    <path d="M 242.01582 311.184499 
L 242.01582 309.428382 
L 242.01582 307.672265 
L 242.01582 305.916148 
L 242.01582 304.160031 
L 242.01582 302.403914 
L 242.01582 300.647798 
L 242.01582 298.891681 
L 242.01582 297.135564 
L 242.01582 295.379447 
L 242.01582 293.62333 
L 242.01582 291.867213 
L 242.01582 290.111096 
L 242.01582 288.35498 
L 242.01582 286.598863 
L 242.01582 284.842746 
L 242.01582 283.086629 
L 242.01582 281.330512 
L 242.01582 279.574395 
L 242.01582 277.818278 
L 242.01582 276.062161 
L 242.01582 274.306045 
L 242.01582 272.549928 
L 242.01582 270.793811 
L 242.01582 269.037694 
L 242.01582 267.281577 
L 242.01582 265.52546 
L 242.01582 263.769343 
L 242.01582 262.013227 
L 242.01582 260.25711 
L 242.01582 258.500993 
" clip-path="url(#pd515361d1d)" style="fill: none; stroke: #ff0000; stroke-width: 0.25; stroke-linecap: square"/>
   </g>
   <g id="line2d_76">
    <path d="M 369.889673 168.67218 
L 367.645752 168.67218 
L 365.401831 168.67218 
L 363.15791 168.67218 
L 360.913988 168.67218 
L 358.670067 168.67218 
L 356.426146 168.67218 
L 354.182225 168.67218 
L 351.938304 168.67218 
L 349.694383 168.67218 
L 347.450461 168.67218 
L 345.20654 168.67218 
L 342.962619 168.67218 
L 340.718698 168.67218 
L 338.474777 168.67218 
L 336.230856 168.67218 
L 333.986934 168.67218 
L 331.743013 168.67218 
L 329.499092 168.67218 
L 327.255171 168.67218 
L 325.01125 168.67218 
L 322.767329 168.67218 
L 320.523408 168.67218 
L 318.279486 168.67218 
L 316.035565 168.67218 
L 313.791644 168.67218 
L 311.547723 168.67218 
L 309.303802 168.67218 
L 307.059881 168.67218 
L 304.815959 168.67218 
L 302.572038 168.67218 
" clip-path="url(#pd515361d1d)" style="fill: none; stroke: #ff0000; stroke-opacity: 0.2; stroke-width: 0.25; stroke-linecap: square"/>
   </g>
   <g id="line2d_77">
    <path d="M 369.889673 168.67218 
L 367.645752 168.67218 
L 365.401831 168.67218 
L 363.15791 168.67218 
L 360.913988 168.67218 
L 358.670067 168.67218 
L 356.426146 168.67218 
L 354.182225 168.67218 
L 351.938304 168.67218 
L 349.694383 168.67218 
L 347.450461 168.67218 
L 345.20654 168.67218 
L 342.962619 168.67218 
L 340.718698 168.67218 
L 338.474777 168.67218 
L 336.230856 168.67218 
L 333.986934 168.67218 
L 331.743013 168.67218 
L 329.499092 168.67218 
L 327.255171 168.67218 
L 325.01125 168.67218 
L 322.767329 168.67218 
L 320.523408 168.67218 
L 318.279486 168.67218 
L 316.035565 168.67218 
L 313.791644 168.67218 
L 311.547723 168.67218 
L 309.303802 168.67218 
L 307.059881 168.67218 
L 304.815959 168.67218 
L 302.572038 168.67218 
" clip-path="url(#pd515361d1d)" style="fill: none; stroke: #ff0000; stroke-opacity: 0.4; stroke-width: 0.25; stroke-linecap: square"/>
   </g>
   <g id="line2d_78">
    <path d="M 369.889673 168.67218 
L 367.645752 168.67218 
L 365.401831 168.67218 
L 363.15791 168.67218 
L 360.913988 168.67218 
L 358.670067 168.67218 
L 356.426146 168.67218 
L 354.182225 168.67218 
L 351.938304 168.67218 
L 349.694383 168.67218 
L 347.450461 168.67218 
L 345.20654 168.67218 
L 342.962619 168.67218 
L 340.718698 168.67218 
L 338.474777 168.67218 
L 336.230856 168.67218 
L 333.986934 168.67218 
L 331.743013 168.67218 
L 329.499092 168.67218 
L 327.255171 168.67218 
L 325.01125 168.67218 
L 322.767329 168.67218 
L 320.523408 168.67218 
L 318.279486 168.67218 
L 316.035565 168.67218 
L 313.791644 168.67218 
L 311.547723 168.67218 
L 309.303802 168.67218 
L 307.059881 168.67218 
L 304.815959 168.67218 
L 302.572038 168.67218 
" clip-path="url(#pd515361d1d)" style="fill: none; stroke: #ff0000; stroke-opacity: 0.6; stroke-width: 0.25; stroke-linecap: square"/>
   </g>
   <g id="line2d_79">
    <path d="M 369.889673 168.67218 
L 367.645752 168.67218 
L 365.401831 168.67218 
L 363.15791 168.67218 
L 360.913988 168.67218 
L 358.670067 168.67218 
L 356.426146 168.67218 
L 354.182225 168.67218 
L 351.938304 168.67218 
L 349.694383 168.67218 
L 347.450461 168.67218 
L 345.20654 168.67218 
L 342.962619 168.67218 
L 340.718698 168.67218 
L 338.474777 168.67218 
L 336.230856 168.67218 
L 333.986934 168.67218 
L 331.743013 168.67218 
L 329.499092 168.67218 
L 327.255171 168.67218 
L 325.01125 168.67218 
L 322.767329 168.67218 
L 320.523408 168.67218 
L 318.279486 168.67218 
L 316.035565 168.67218 
L 313.791644 168.67218 
L 311.547723 168.67218 
L 309.303802 168.67218 
L 307.059881 168.67218 
L 304.815959 168.67218 
L 302.572038 168.67218 
" clip-path="url(#pd515361d1d)" style="fill: none; stroke: #ff0000; stroke-opacity: 0.8; stroke-width: 0.25; stroke-linecap: square"/>
   </g>
   <g id="line2d_80">
    <path d="M 369.889673 168.67218 
L 367.645752 168.67218 
L 365.401831 168.67218 
L 363.15791 168.67218 
L 360.913988 168.67218 
L 358.670067 168.67218 
L 356.426146 168.67218 
L 354.182225 168.67218 
L 351.938304 168.67218 
L 349.694383 168.67218 
L 347.450461 168.67218 
L 345.20654 168.67218 
L 342.962619 168.67218 
L 340.718698 168.67218 
L 338.474777 168.67218 
L 336.230856 168.67218 
L 333.986934 168.67218 
L 331.743013 168.67218 
L 329.499092 168.67218 
L 327.255171 168.67218 
L 325.01125 168.67218 
L 322.767329 168.67218 
L 320.523408 168.67218 
L 318.279486 168.67218 
L 316.035565 168.67218 
L 313.791644 168.67218 
L 311.547723 168.67218 
L 309.303802 168.67218 
L 307.059881 168.67218 
L 304.815959 168.67218 
L 302.572038 168.67218 
" clip-path="url(#pd515361d1d)" style="fill: none; stroke: #ff0000; stroke-width: 0.25; stroke-linecap: square"/>
   </g>
   <g id="line2d_81">
    <path d="M 230.30418 37.871501 
L 230.30418 39.627618 
L 230.30418 41.383735 
L 230.30418 43.139852 
L 230.30418 44.895969 
L 230.30418 46.652086 
L 230.30418 48.408202 
L 230.30418 50.164319 
L 230.30418 51.920436 
L 230.30418 53.676553 
L 230.30418 55.43267 
L 230.30418 57.188787 
L 230.30418 58.944904 
L 230.30418 60.70102 
L 230.30418 62.457137 
L 230.30418 64.213254 
L 230.30418 65.969371 
L 230.30418 67.725488 
L 230.30418 69.481605 
L 230.30418 71.237722 
L 230.30418 72.993839 
L 230.30418 74.749955 
L 230.30418 76.506072 
L 230.30418 78.262189 
L 230.30418 80.018306 
L 230.30418 81.774423 
L 230.30418 83.53054 
L 230.30418 85.286657 
L 230.30418 87.042773 
L 230.30418 88.79889 
L 230.30418 90.555007 
" clip-path="url(#pd515361d1d)" style="fill: none; stroke: #ff0000; stroke-opacity: 0.2; stroke-width: 0.25; stroke-linecap: square"/>
   </g>
   <g id="line2d_82">
    <path d="M 230.30418 37.871501 
L 230.30418 39.627618 
L 230.30418 41.383735 
L 230.30418 43.139852 
L 230.30418 44.895969 
L 230.30418 46.652086 
L 230.30418 48.408202 
L 230.30418 50.164319 
L 230.30418 51.920436 
L 230.30418 53.676553 
L 230.30418 55.43267 
L 230.30418 57.188787 
L 230.30418 58.944904 
L 230.30418 60.70102 
L 230.30418 62.457137 
L 230.30418 64.213254 
L 230.30418 65.969371 
L 230.30418 67.725488 
L 230.30418 69.481605 
L 230.30418 71.237722 
L 230.30418 72.993839 
L 230.30418 74.749955 
L 230.30418 76.506072 
L 230.30418 78.262189 
L 230.30418 80.018306 
L 230.30418 81.774423 
L 230.30418 83.53054 
L 230.30418 85.286657 
L 230.30418 87.042773 
L 230.30418 88.79889 
L 230.30418 90.555007 
" clip-path="url(#pd515361d1d)" style="fill: none; stroke: #ff0000; stroke-opacity: 0.4; stroke-width: 0.25; stroke-linecap: square"/>
   </g>
   <g id="line2d_83">
    <path d="M 230.30418 37.871501 
L 230.30418 39.627618 
L 230.30418 41.383735 
L 230.30418 43.139852 
L 230.30418 44.895969 
L 230.30418 46.652086 
L 230.30418 48.408202 
L 230.30418 50.164319 
L 230.30418 51.920436 
L 230.30418 53.676553 
L 230.30418 55.43267 
L 230.30418 57.188787 
L 230.30418 58.944904 
L 230.30418 60.70102 
L 230.30418 62.457137 
L 230.30418 64.213254 
L 230.30418 65.969371 
L 230.30418 67.725488 
L 230.30418 69.481605 
L 230.30418 71.237722 
L 230.30418 72.993839 
L 230.30418 74.749955 
L 230.30418 76.506072 
L 230.30418 78.262189 
L 230.30418 80.018306 
L 230.30418 81.774423 
L 230.30418 83.53054 
L 230.30418 85.286657 
L 230.30418 87.042773 
L 230.30418 88.79889 
L 230.30418 90.555007 
" clip-path="url(#pd515361d1d)" style="fill: none; stroke: #ff0000; stroke-opacity: 0.6; stroke-width: 0.25; stroke-linecap: square"/>
   </g>
   <g id="line2d_84">
    <path d="M 230.30418 37.871501 
L 230.30418 39.627618 
L 230.30418 41.383735 
L 230.30418 43.139852 
L 230.30418 44.895969 
L 230.30418 46.652086 
L 230.30418 48.408202 
L 230.30418 50.164319 
L 230.30418 51.920436 
L 230.30418 53.676553 
L 230.30418 55.43267 
L 230.30418 57.188787 
L 230.30418 58.944904 
L 230.30418 60.70102 
L 230.30418 62.457137 
L 230.30418 64.213254 
L 230.30418 65.969371 
L 230.30418 67.725488 
L 230.30418 69.481605 
L 230.30418 71.237722 
L 230.30418 72.993839 
L 230.30418 74.749955 
L 230.30418 76.506072 
L 230.30418 78.262189 
L 230.30418 80.018306 
L 230.30418 81.774423 
L 230.30418 83.53054 
L 230.30418 85.286657 
L 230.30418 87.042773 
L 230.30418 88.79889 
L 230.30418 90.555007 
" clip-path="url(#pd515361d1d)" style="fill: none; stroke: #ff0000; stroke-opacity: 0.8; stroke-width: 0.25; stroke-linecap: square"/>
   </g>
   <g id="line2d_85">
    <path d="M 230.30418 37.871501 
L 230.30418 39.627618 
L 230.30418 41.383735 
L 230.30418 43.139852 
L 230.30418 44.895969 
L 230.30418 46.652086 
L 230.30418 48.408202 
L 230.30418 50.164319 
L 230.30418 51.920436 
L 230.30418 53.676553 
L 230.30418 55.43267 
L 230.30418 57.188787 
L 230.30418 58.944904 
L 230.30418 60.70102 
L 230.30418 62.457137 
L 230.30418 64.213254 
L 230.30418 65.969371 
L 230.30418 67.725488 
L 230.30418 69.481605 
L 230.30418 71.237722 
L 230.30418 72.993839 
L 230.30418 74.749955 
L 230.30418 76.506072 
L 230.30418 78.262189 
L 230.30418 80.018306 
L 230.30418 81.774423 
L 230.30418 83.53054 
L 230.30418 85.286657 
L 230.30418 87.042773 
L 230.30418 88.79889 
L 230.30418 90.555007 
" clip-path="url(#pd515361d1d)" style="fill: none; stroke: #ff0000; stroke-width: 0.25; stroke-linecap: square"/>
   </g>
   <g id="line2d_86">
    <path d="M 99.503501 180.38382 
L 101.259618 180.38382 
L 103.015735 180.38382 
L 104.771852 180.38382 
L 106.527969 180.38382 
L 108.284086 180.38382 
L 110.040202 180.38382 
L 111.796319 180.38382 
L 113.552436 180.38382 
L 115.308553 180.38382 
L 117.06467 180.38382 
L 118.820787 180.38382 
L 120.576904 180.38382 
L 122.33302 180.38382 
L 124.089137 180.38382 
L 125.845254 180.38382 
L 127.601371 180.38382 
L 129.357488 180.38382 
L 131.113605 180.38382 
L 132.869722 180.38382 
L 134.625839 180.38382 
L 136.381955 180.38382 
L 138.138072 180.38382 
L 139.894189 180.38382 
L 141.650306 180.38382 
L 143.406423 180.38382 
L 145.16254 180.38382 
L 146.918657 180.38382 
L 148.674773 180.38382 
L 150.43089 180.38382 
L 152.187007 180.38382 
" clip-path="url(#pd515361d1d)" style="fill: none; stroke: #ff0000; stroke-opacity: 0.2; stroke-width: 0.25; stroke-linecap: square"/>
   </g>
   <g id="line2d_87">
    <path d="M 99.503501 180.38382 
L 101.259618 180.38382 
L 103.015735 180.38382 
L 104.771852 180.38382 
L 106.527969 180.38382 
L 108.284086 180.38382 
L 110.040202 180.38382 
L 111.796319 180.38382 
L 113.552436 180.38382 
L 115.308553 180.38382 
L 117.06467 180.38382 
L 118.820787 180.38382 
L 120.576904 180.38382 
L 122.33302 180.38382 
L 124.089137 180.38382 
L 125.845254 180.38382 
L 127.601371 180.38382 
L 129.357488 180.38382 
L 131.113605 180.38382 
L 132.869722 180.38382 
L 134.625839 180.38382 
L 136.381955 180.38382 
L 138.138072 180.38382 
L 139.894189 180.38382 
L 141.650306 180.38382 
L 143.406423 180.38382 
L 145.16254 180.38382 
L 146.918657 180.38382 
L 148.674773 180.38382 
L 150.43089 180.38382 
L 152.187007 180.38382 
" clip-path="url(#pd515361d1d)" style="fill: none; stroke: #ff0000; stroke-opacity: 0.4; stroke-width: 0.25; stroke-linecap: square"/>
   </g>
   <g id="line2d_88">
    <path d="M 99.503501 180.38382 
L 101.259618 180.38382 
L 103.015735 180.38382 
L 104.771852 180.38382 
L 106.527969 180.38382 
L 108.284086 180.38382 
L 110.040202 180.38382 
L 111.796319 180.38382 
L 113.552436 180.38382 
L 115.308553 180.38382 
L 117.06467 180.38382 
L 118.820787 180.38382 
L 120.576904 180.38382 
L 122.33302 180.38382 
L 124.089137 180.38382 
L 125.845254 180.38382 
L 127.601371 180.38382 
L 129.357488 180.38382 
L 131.113605 180.38382 
L 132.869722 180.38382 
L 134.625839 180.38382 
L 136.381955 180.38382 
L 138.138072 180.38382 
L 139.894189 180.38382 
L 141.650306 180.38382 
L 143.406423 180.38382 
L 145.16254 180.38382 
L 146.918657 180.38382 
L 148.674773 180.38382 
L 150.43089 180.38382 
L 152.187007 180.38382 
" clip-path="url(#pd515361d1d)" style="fill: none; stroke: #ff0000; stroke-opacity: 0.6; stroke-width: 0.25; stroke-linecap: square"/>
   </g>
   <g id="line2d_89">
    <path d="M 99.503501 180.38382 
L 101.259618 180.38382 
L 103.015735 180.38382 
L 104.771852 180.38382 
L 106.527969 180.38382 
L 108.284086 180.38382 
L 110.040202 180.38382 
L 111.796319 180.38382 
L 113.552436 180.38382 
L 115.308553 180.38382 
L 117.06467 180.38382 
L 118.820787 180.38382 
L 120.576904 180.38382 
L 122.33302 180.38382 
L 124.089137 180.38382 
L 125.845254 180.38382 
L 127.601371 180.38382 
L 129.357488 180.38382 
L 131.113605 180.38382 
L 132.869722 180.38382 
L 134.625839 180.38382 
L 136.381955 180.38382 
L 138.138072 180.38382 
L 139.894189 180.38382 
L 141.650306 180.38382 
L 143.406423 180.38382 
L 145.16254 180.38382 
L 146.918657 180.38382 
L 148.674773 180.38382 
L 150.43089 180.38382 
L 152.187007 180.38382 
" clip-path="url(#pd515361d1d)" style="fill: none; stroke: #ff0000; stroke-opacity: 0.8; stroke-width: 0.25; stroke-linecap: square"/>
   </g>
   <g id="line2d_90">
    <path d="M 99.503501 180.38382 
L 101.259618 180.38382 
L 103.015735 180.38382 
L 104.771852 180.38382 
L 106.527969 180.38382 
L 108.284086 180.38382 
L 110.040202 180.38382 
L 111.796319 180.38382 
L 113.552436 180.38382 
L 115.308553 180.38382 
L 117.06467 180.38382 
L 118.820787 180.38382 
L 120.576904 180.38382 
L 122.33302 180.38382 
L 124.089137 180.38382 
L 125.845254 180.38382 
L 127.601371 180.38382 
L 129.357488 180.38382 
L 131.113605 180.38382 
L 132.869722 180.38382 
L 134.625839 180.38382 
L 136.381955 180.38382 
L 138.138072 180.38382 
L 139.894189 180.38382 
L 141.650306 180.38382 
L 143.406423 180.38382 
L 145.16254 180.38382 
L 146.918657 180.38382 
L 148.674773 180.38382 
L 150.43089 180.38382 
L 152.187007 180.38382 
" clip-path="url(#pd515361d1d)" style="fill: none; stroke: #ff0000; stroke-width: 0.25; stroke-linecap: square"/>
   </g>
   <g id="patch_15">
    <path d="M 103.104 307.584 
L 103.104 41.472 
" style="fill: none; stroke: #000000; stroke-width: 0.8; stroke-linejoin: miter; stroke-linecap: square"/>
   </g>
   <g id="patch_16">
    <path d="M 369.216 307.584 
L 369.216 41.472 
" style="fill: none; stroke: #000000; stroke-width: 0.8; stroke-linejoin: miter; stroke-linecap: square"/>
   </g>
   <g id="patch_17">
    <path d="M 103.104 307.584 
L 369.216 307.584 
" style="fill: none; stroke: #000000; stroke-width: 0.8; stroke-linejoin: miter; stroke-linecap: square"/>
   </g>
   <g id="patch_18">
    <path d="M 103.104 41.472 
L 369.216 41.472 
" style="fill: none; stroke: #000000; stroke-width: 0.8; stroke-linejoin: miter; stroke-linecap: square"/>
   </g>
   <g id="text_19">
    <!-- Time:   6 ms -->
    <g transform="translate(267.438262 54.7776) scale(0.1 -0.1)">
     <defs>
      <path id="DejaVuSans-54" d="M -19 4666 
L 3928 4666 
L 3928 4134 
L 2272 4134 
L 2272 0 
L 1638 0 
L 1638 4134 
L -19 4134 
L -19 4666 
z
" transform="scale(0.015625)"/>
      <path id="DejaVuSans-69" d="M 603 3500 
L 1178 3500 
L 1178 0 
L 603 0 
L 603 3500 
z
M 603 4863 
L 1178 4863 
L 1178 4134 
L 603 4134 
L 603 4863 
z
" transform="scale(0.015625)"/>
      <path id="DejaVuSans-6d" d="M 3328 2828 
Q 3544 3216 3844 3400 
Q 4144 3584 4550 3584 
Q 5097 3584 5394 3201 
Q 5691 2819 5691 2113 
L 5691 0 
L 5113 0 
L 5113 2094 
Q 5113 2597 4934 2840 
Q 4756 3084 4391 3084 
Q 3944 3084 3684 2787 
Q 3425 2491 3425 1978 
L 3425 0 
L 2847 0 
L 2847 2094 
Q 2847 2600 2669 2842 
Q 2491 3084 2119 3084 
Q 1678 3084 1418 2786 
Q 1159 2488 1159 1978 
L 1159 0 
L 581 0 
L 581 3500 
L 1159 3500 
L 1159 2956 
Q 1356 3278 1631 3431 
Q 1906 3584 2284 3584 
Q 2666 3584 2933 3390 
Q 3200 3197 3328 2828 
z
" transform="scale(0.015625)"/>
      <path id="DejaVuSans-65" d="M 3597 1894 
L 3597 1613 
L 953 1613 
Q 991 1019 1311 708 
Q 1631 397 2203 397 
Q 2534 397 2845 478 
Q 3156 559 3463 722 
L 3463 178 
Q 3153 47 2828 -22 
Q 2503 -91 2169 -91 
Q 1331 -91 842 396 
Q 353 884 353 1716 
Q 353 2575 817 3079 
Q 1281 3584 2069 3584 
Q 2775 3584 3186 3129 
Q 3597 2675 3597 1894 
z
M 3022 2063 
Q 3016 2534 2758 2815 
Q 2500 3097 2075 3097 
Q 1594 3097 1305 2825 
Q 1016 2553 972 2059 
L 3022 2063 
z
" transform="scale(0.015625)"/>
      <path id="DejaVuSans-3a" d="M 750 794 
L 1409 794 
L 1409 0 
L 750 0 
L 750 794 
z
M 750 3309 
L 1409 3309 
L 1409 2516 
L 750 2516 
L 750 3309 
z
" transform="scale(0.015625)"/>
      <path id="DejaVuSans-20" transform="scale(0.015625)"/>
      <path id="DejaVuSans-36" d="M 2113 2584 
Q 1688 2584 1439 2293 
Q 1191 2003 1191 1497 
Q 1191 994 1439 701 
Q 1688 409 2113 409 
Q 2538 409 2786 701 
Q 3034 994 3034 1497 
Q 3034 2003 2786 2293 
Q 2538 2584 2113 2584 
z
M 3366 4563 
L 3366 3988 
Q 3128 4100 2886 4159 
Q 2644 4219 2406 4219 
Q 1781 4219 1451 3797 
Q 1122 3375 1075 2522 
Q 1259 2794 1537 2939 
Q 1816 3084 2150 3084 
Q 2853 3084 3261 2657 
Q 3669 2231 3669 1497 
Q 3669 778 3244 343 
Q 2819 -91 2113 -91 
Q 1303 -91 875 529 
Q 447 1150 447 2328 
Q 447 3434 972 4092 
Q 1497 4750 2381 4750 
Q 2619 4750 2861 4703 
Q 3103 4656 3366 4563 
z
" transform="scale(0.015625)"/>
      <path id="DejaVuSans-73" d="M 2834 3397 
L 2834 2853 
Q 2591 2978 2328 3040 
Q 2066 3103 1784 3103 
Q 1356 3103 1142 2972 
Q 928 2841 928 2578 
Q 928 2378 1081 2264 
Q 1234 2150 1697 2047 
L 1894 2003 
Q 2506 1872 2764 1633 
Q 3022 1394 3022 966 
Q 3022 478 2636 193 
Q 2250 -91 1575 -91 
Q 1294 -91 989 -36 
Q 684 19 347 128 
L 347 722 
Q 666 556 975 473 
Q 1284 391 1588 391 
Q 1994 391 2212 530 
Q 2431 669 2431 922 
Q 2431 1156 2273 1281 
Q 2116 1406 1581 1522 
L 1381 1569 
Q 847 1681 609 1914 
Q 372 2147 372 2553 
Q 372 3047 722 3315 
Q 1072 3584 1716 3584 
Q 2034 3584 2315 3537 
Q 2597 3491 2834 3397 
z
" transform="scale(0.015625)"/>
     </defs>
     <use xlink:href="#DejaVuSans-54"/>
     <use xlink:href="#DejaVuSans-69" x="57.958984"/>
     <use xlink:href="#DejaVuSans-6d" x="85.742188"/>
     <use xlink:href="#DejaVuSans-65" x="183.154297"/>
     <use xlink:href="#DejaVuSans-3a" x="244.677734"/>
     <use xlink:href="#DejaVuSans-20" x="278.369141"/>
     <use xlink:href="#DejaVuSans-20" x="310.15625"/>
     <use xlink:href="#DejaVuSans-20" x="341.943359"/>
     <use xlink:href="#DejaVuSans-36" x="373.730469"/>
     <use xlink:href="#DejaVuSans-20" x="437.353516"/>
     <use xlink:href="#DejaVuSans-6d" x="469.140625"/>
     <use xlink:href="#DejaVuSans-73" x="566.552734"/>
    </g>
   </g>
  </g>
 </g>
 <defs>
  <clipPath id="pd515361d1d">
   <rect x="103.104" y="41.472" width="266.112" height="266.112"/>
  </clipPath>
 </defs>
</svg>
