<?xml version="1.0" encoding="utf-8" standalone="no"?>
<!DOCTYPE svg PUBLIC "-//W3C//DTD SVG 1.1//EN"
  "http://www.w3.org/Graphics/SVG/1.1/DTD/svg11.dtd">
<svg xmlns:xlink="http://www.w3.org/1999/xlink" width="460.8pt" height="345.6pt" viewBox="0 0 460.8 345.6" xmlns="http://www.w3.org/2000/svg" version="1.1">
 <metadata>
  <rdf:RDF xmlns:dc="http://purl.org/dc/elements/1.1/" xmlns:cc="http://creativecommons.org/ns#" xmlns:rdf="http://www.w3.org/1999/02/22-rdf-syntax-ns#">
   <cc:Work>
    <dc:type rdf:resource="http://purl.org/dc/dcmitype/StillImage"/>
    <dc:date>2024-01-23T16:31:48.514763</dc:date>
    <dc:format>image/svg+xml</dc:format>
    <dc:creator>
     <cc:Agent>
      <dc:title>Matplotlib v3.8.2, https://matplotlib.org/</dc:title>
     </cc:Agent>
    </dc:creator>
   </cc:Work>
  </rdf:RDF>
 </metadata>
 <defs>
  <style type="text/css">*{stroke-linejoin: round; stroke-linecap: butt}</style>
 </defs>
 <g id="figure_1">
  <g id="patch_1">
   <path d="M 0 345.6 
L 460.8 345.6 
L 460.8 0 
L 0 0 
z
" style="fill: #ffffff"/>
  </g>
  <g id="axes_1">
   <g id="patch_2">
    <path d="M 103.104 307.584 
L 369.216 307.584 
L 369.216 41.472 
L 103.104 41.472 
z
" style="fill: #ffffff"/>
   </g>
   <g id="patch_3">
    <path d="M 144.792921 165.844706 
L 133.150521 165.844775 
L 133.150554 171.499655 
L 144.792954 171.499586 
z
" clip-path="url(#p41ce67b628)" style="fill: #00008b"/>
   </g>
   <g id="patch_4">
    <path d="M 244.843279 74.893933 
L 244.84324 63.251533 
L 239.18836 63.251551 
L 239.188399 74.893951 
z
" clip-path="url(#p41ce67b628)" style="fill: #800000"/>
   </g>
   <g id="patch_5">
    <path d="M 227.476711 266.776629 
L 227.476773 278.419029 
L 233.131653 278.418999 
L 233.131591 266.776599 
z
" clip-path="url(#p41ce67b628)" style="fill: #006400"/>
   </g>
   <g id="patch_6">
    <path d="M 328.408488 183.211262 
L 340.050888 183.211255 
L 340.050884 177.556375 
L 328.408484 177.556382 
z
" clip-path="url(#p41ce67b628)" style="fill: #4b0082"/>
   </g>
   <g id="patch_7">
    <path d="M 244.859828 132.712364 
L 244.826599 121.070011 
L 239.171742 121.086151 
L 239.204971 132.728504 
z
" clip-path="url(#p41ce67b628)" style="fill: #0000ff"/>
   </g>
   <g id="patch_8">
    <path d="M 194.29288 165.819715 
L 182.65059 165.870256 
L 182.675138 171.525083 
L 194.317429 171.474541 
z
" clip-path="url(#p41ce67b628)" style="fill: #ff0000"/>
   </g>
   <g id="patch_9">
    <path d="M 276.554011 183.212051 
L 288.196411 183.210284 
L 288.195552 177.555404 
L 276.553152 177.557171 
z
" clip-path="url(#p41ce67b628)" style="fill: #dbdc56"/>
   </g>
   <g id="patch_10">
    <path d="M 246.459049 160.744 
L 243.836884 149.400732 
L 238.327297 150.674355 
L 240.949462 162.017623 
z
" clip-path="url(#p41ce67b628)" style="fill: #9400d3"/>
   </g>
   <g id="patch_11">
    <path d="M 244.87617 191.494463 
L 249.914341 180.99864 
L 244.81637 178.551528 
L 239.778199 189.047352 
z
" clip-path="url(#p41ce67b628)" style="fill: #1e90ff"/>
   </g>
   <g id="patch_12">
    <path d="M 227.09372 194.504184 
L 228.098868 206.103113 
L 233.732633 205.614898 
L 232.727485 194.015969 
z
" clip-path="url(#p41ce67b628)" style="fill: #ff4500"/>
   </g>
   <g id="patch_13">
    <path d="M 227.350427 157.531839 
L 222.389511 168.064398 
L 227.505326 170.473986 
L 232.466241 159.941427 
z
" clip-path="url(#p41ce67b628)" style="fill: #7cfc00"/>
   </g>
   <g id="patch_14">
    <path d="M 218.909533 182.920558 
L 229.54808 187.649912 
L 231.845195 182.482617 
L 221.206647 177.753263 
z
" clip-path="url(#p41ce67b628)" style="fill: #ff00ff"/>
   </g>
   <g id="matplotlib.axis_1">
    <g id="xtick_1">
     <g id="line2d_1">
      <defs>
       <path id="m35191aacb8" d="M 0 0 
L 0 3.5 
" style="stroke: #000000; stroke-width: 0.8"/>
      </defs>
      <g>
       <use xlink:href="#m35191aacb8" x="103.104" y="307.584" style="stroke: #000000; stroke-width: 0.8"/>
      </g>
     </g>
     <g id="text_1">
      <!-- −40 -->
      <g transform="translate(92.551656 322.182437) scale(0.1 -0.1)">
       <defs>
        <path id="DejaVuSans-2212" d="M 678 2272 
L 4684 2272 
L 4684 1741 
L 678 1741 
L 678 2272 
z
" transform="scale(0.015625)"/>
        <path id="DejaVuSans-34" d="M 2419 4116 
L 825 1625 
L 2419 1625 
L 2419 4116 
z
M 2253 4666 
L 3047 4666 
L 3047 1625 
L 3713 1625 
L 3713 1100 
L 3047 1100 
L 3047 0 
L 2419 0 
L 2419 1100 
L 313 1100 
L 313 1709 
L 2253 4666 
z
" transform="scale(0.015625)"/>
        <path id="DejaVuSans-30" d="M 2034 4250 
Q 1547 4250 1301 3770 
Q 1056 3291 1056 2328 
Q 1056 1369 1301 889 
Q 1547 409 2034 409 
Q 2525 409 2770 889 
Q 3016 1369 3016 2328 
Q 3016 3291 2770 3770 
Q 2525 4250 2034 4250 
z
M 2034 4750 
Q 2819 4750 3233 4129 
Q 3647 3509 3647 2328 
Q 3647 1150 3233 529 
Q 2819 -91 2034 -91 
Q 1250 -91 836 529 
Q 422 1150 422 2328 
Q 422 3509 836 4129 
Q 1250 4750 2034 4750 
z
" transform="scale(0.015625)"/>
       </defs>
       <use xlink:href="#DejaVuSans-2212"/>
       <use xlink:href="#DejaVuSans-34" x="83.789062"/>
       <use xlink:href="#DejaVuSans-30" x="147.412109"/>
      </g>
     </g>
    </g>
    <g id="xtick_2">
     <g id="line2d_2">
      <g>
       <use xlink:href="#m35191aacb8" x="136.368" y="307.584" style="stroke: #000000; stroke-width: 0.8"/>
      </g>
     </g>
     <g id="text_2">
      <!-- −30 -->
      <g transform="translate(125.815656 322.182437) scale(0.1 -0.1)">
       <defs>
        <path id="DejaVuSans-33" d="M 2597 2516 
Q 3050 2419 3304 2112 
Q 3559 1806 3559 1356 
Q 3559 666 3084 287 
Q 2609 -91 1734 -91 
Q 1441 -91 1130 -33 
Q 819 25 488 141 
L 488 750 
Q 750 597 1062 519 
Q 1375 441 1716 441 
Q 2309 441 2620 675 
Q 2931 909 2931 1356 
Q 2931 1769 2642 2001 
Q 2353 2234 1838 2234 
L 1294 2234 
L 1294 2753 
L 1863 2753 
Q 2328 2753 2575 2939 
Q 2822 3125 2822 3475 
Q 2822 3834 2567 4026 
Q 2313 4219 1838 4219 
Q 1578 4219 1281 4162 
Q 984 4106 628 3988 
L 628 4550 
Q 988 4650 1302 4700 
Q 1616 4750 1894 4750 
Q 2613 4750 3031 4423 
Q 3450 4097 3450 3541 
Q 3450 3153 3228 2886 
Q 3006 2619 2597 2516 
z
" transform="scale(0.015625)"/>
       </defs>
       <use xlink:href="#DejaVuSans-2212"/>
       <use xlink:href="#DejaVuSans-33" x="83.789062"/>
       <use xlink:href="#DejaVuSans-30" x="147.412109"/>
      </g>
     </g>
    </g>
    <g id="xtick_3">
     <g id="line2d_3">
      <g>
       <use xlink:href="#m35191aacb8" x="169.632" y="307.584" style="stroke: #000000; stroke-width: 0.8"/>
      </g>
     </g>
     <g id="text_3">
      <!-- −20 -->
      <g transform="translate(159.079656 322.182437) scale(0.1 -0.1)">
       <defs>
        <path id="DejaVuSans-32" d="M 1228 531 
L 3431 531 
L 3431 0 
L 469 0 
L 469 531 
Q 828 903 1448 1529 
Q 2069 2156 2228 2338 
Q 2531 2678 2651 2914 
Q 2772 3150 2772 3378 
Q 2772 3750 2511 3984 
Q 2250 4219 1831 4219 
Q 1534 4219 1204 4116 
Q 875 4013 500 3803 
L 500 4441 
Q 881 4594 1212 4672 
Q 1544 4750 1819 4750 
Q 2544 4750 2975 4387 
Q 3406 4025 3406 3419 
Q 3406 3131 3298 2873 
Q 3191 2616 2906 2266 
Q 2828 2175 2409 1742 
Q 1991 1309 1228 531 
z
" transform="scale(0.015625)"/>
       </defs>
       <use xlink:href="#DejaVuSans-2212"/>
       <use xlink:href="#DejaVuSans-32" x="83.789062"/>
       <use xlink:href="#DejaVuSans-30" x="147.412109"/>
      </g>
     </g>
    </g>
    <g id="xtick_4">
     <g id="line2d_4">
      <g>
       <use xlink:href="#m35191aacb8" x="202.896" y="307.584" style="stroke: #000000; stroke-width: 0.8"/>
      </g>
     </g>
     <g id="text_4">
      <!-- −10 -->
      <g transform="translate(192.343656 322.182437) scale(0.1 -0.1)">
       <defs>
        <path id="DejaVuSans-31" d="M 794 531 
L 1825 531 
L 1825 4091 
L 703 3866 
L 703 4441 
L 1819 4666 
L 2450 4666 
L 2450 531 
L 3481 531 
L 3481 0 
L 794 0 
L 794 531 
z
" transform="scale(0.015625)"/>
       </defs>
       <use xlink:href="#DejaVuSans-2212"/>
       <use xlink:href="#DejaVuSans-31" x="83.789062"/>
       <use xlink:href="#DejaVuSans-30" x="147.412109"/>
      </g>
     </g>
    </g>
    <g id="xtick_5">
     <g id="line2d_5">
      <g>
       <use xlink:href="#m35191aacb8" x="236.16" y="307.584" style="stroke: #000000; stroke-width: 0.8"/>
      </g>
     </g>
     <g id="text_5">
      <!-- 0 -->
      <g transform="translate(232.97875 322.182437) scale(0.1 -0.1)">
       <use xlink:href="#DejaVuSans-30"/>
      </g>
     </g>
    </g>
    <g id="xtick_6">
     <g id="line2d_6">
      <g>
       <use xlink:href="#m35191aacb8" x="269.424" y="307.584" style="stroke: #000000; stroke-width: 0.8"/>
      </g>
     </g>
     <g id="text_6">
      <!-- 10 -->
      <g transform="translate(263.0615 322.182437) scale(0.1 -0.1)">
       <use xlink:href="#DejaVuSans-31"/>
       <use xlink:href="#DejaVuSans-30" x="63.623047"/>
      </g>
     </g>
    </g>
    <g id="xtick_7">
     <g id="line2d_7">
      <g>
       <use xlink:href="#m35191aacb8" x="302.688" y="307.584" style="stroke: #000000; stroke-width: 0.8"/>
      </g>
     </g>
     <g id="text_7">
      <!-- 20 -->
      <g transform="translate(296.3255 322.182437) scale(0.1 -0.1)">
       <use xlink:href="#DejaVuSans-32"/>
       <use xlink:href="#DejaVuSans-30" x="63.623047"/>
      </g>
     </g>
    </g>
    <g id="xtick_8">
     <g id="line2d_8">
      <g>
       <use xlink:href="#m35191aacb8" x="335.952" y="307.584" style="stroke: #000000; stroke-width: 0.8"/>
      </g>
     </g>
     <g id="text_8">
      <!-- 30 -->
      <g transform="translate(329.5895 322.182437) scale(0.1 -0.1)">
       <use xlink:href="#DejaVuSans-33"/>
       <use xlink:href="#DejaVuSans-30" x="63.623047"/>
      </g>
     </g>
    </g>
    <g id="xtick_9">
     <g id="line2d_9">
      <g>
       <use xlink:href="#m35191aacb8" x="369.216" y="307.584" style="stroke: #000000; stroke-width: 0.8"/>
      </g>
     </g>
     <g id="text_9">
      <!-- 40 -->
      <g transform="translate(362.8535 322.182437) scale(0.1 -0.1)">
       <use xlink:href="#DejaVuSans-34"/>
       <use xlink:href="#DejaVuSans-30" x="63.623047"/>
      </g>
     </g>
    </g>
   </g>
   <g id="matplotlib.axis_2">
    <g id="ytick_1">
     <g id="line2d_10">
      <defs>
       <path id="m1d20b0684b" d="M 0 0 
L -3.5 0 
" style="stroke: #000000; stroke-width: 0.8"/>
      </defs>
      <g>
       <use xlink:href="#m1d20b0684b" x="103.104" y="307.584" style="stroke: #000000; stroke-width: 0.8"/>
      </g>
     </g>
     <g id="text_10">
      <!-- −40 -->
      <g transform="translate(74.999313 311.383219) scale(0.1 -0.1)">
       <use xlink:href="#DejaVuSans-2212"/>
       <use xlink:href="#DejaVuSans-34" x="83.789062"/>
       <use xlink:href="#DejaVuSans-30" x="147.412109"/>
      </g>
     </g>
    </g>
    <g id="ytick_2">
     <g id="line2d_11">
      <g>
       <use xlink:href="#m1d20b0684b" x="103.104" y="274.32" style="stroke: #000000; stroke-width: 0.8"/>
      </g>
     </g>
     <g id="text_11">
      <!-- −30 -->
      <g transform="translate(74.999313 278.119219) scale(0.1 -0.1)">
       <use xlink:href="#DejaVuSans-2212"/>
       <use xlink:href="#DejaVuSans-33" x="83.789062"/>
       <use xlink:href="#DejaVuSans-30" x="147.412109"/>
      </g>
     </g>
    </g>
    <g id="ytick_3">
     <g id="line2d_12">
      <g>
       <use xlink:href="#m1d20b0684b" x="103.104" y="241.056" style="stroke: #000000; stroke-width: 0.8"/>
      </g>
     </g>
     <g id="text_12">
      <!-- −20 -->
      <g transform="translate(74.999313 244.855219) scale(0.1 -0.1)">
       <use xlink:href="#DejaVuSans-2212"/>
       <use xlink:href="#DejaVuSans-32" x="83.789062"/>
       <use xlink:href="#DejaVuSans-30" x="147.412109"/>
      </g>
     </g>
    </g>
    <g id="ytick_4">
     <g id="line2d_13">
      <g>
       <use xlink:href="#m1d20b0684b" x="103.104" y="207.792" style="stroke: #000000; stroke-width: 0.8"/>
      </g>
     </g>
     <g id="text_13">
      <!-- −10 -->
      <g transform="translate(74.999313 211.591219) scale(0.1 -0.1)">
       <use xlink:href="#DejaVuSans-2212"/>
       <use xlink:href="#DejaVuSans-31" x="83.789062"/>
       <use xlink:href="#DejaVuSans-30" x="147.412109"/>
      </g>
     </g>
    </g>
    <g id="ytick_5">
     <g id="line2d_14">
      <g>
       <use xlink:href="#m1d20b0684b" x="103.104" y="174.528" style="stroke: #000000; stroke-width: 0.8"/>
      </g>
     </g>
     <g id="text_14">
      <!-- 0 -->
      <g transform="translate(89.7415 178.327219) scale(0.1 -0.1)">
       <use xlink:href="#DejaVuSans-30"/>
      </g>
     </g>
    </g>
    <g id="ytick_6">
     <g id="line2d_15">
      <g>
       <use xlink:href="#m1d20b0684b" x="103.104" y="141.264" style="stroke: #000000; stroke-width: 0.8"/>
      </g>
     </g>
     <g id="text_15">
      <!-- 10 -->
      <g transform="translate(83.379 145.063219) scale(0.1 -0.1)">
       <use xlink:href="#DejaVuSans-31"/>
       <use xlink:href="#DejaVuSans-30" x="63.623047"/>
      </g>
     </g>
    </g>
    <g id="ytick_7">
     <g id="line2d_16">
      <g>
       <use xlink:href="#m1d20b0684b" x="103.104" y="108" style="stroke: #000000; stroke-width: 0.8"/>
      </g>
     </g>
     <g id="text_16">
      <!-- 20 -->
      <g transform="translate(83.379 111.799219) scale(0.1 -0.1)">
       <use xlink:href="#DejaVuSans-32"/>
       <use xlink:href="#DejaVuSans-30" x="63.623047"/>
      </g>
     </g>
    </g>
    <g id="ytick_8">
     <g id="line2d_17">
      <g>
       <use xlink:href="#m1d20b0684b" x="103.104" y="74.736" style="stroke: #000000; stroke-width: 0.8"/>
      </g>
     </g>
     <g id="text_17">
      <!-- 30 -->
      <g transform="translate(83.379 78.535219) scale(0.1 -0.1)">
       <use xlink:href="#DejaVuSans-33"/>
       <use xlink:href="#DejaVuSans-30" x="63.623047"/>
      </g>
     </g>
    </g>
    <g id="ytick_9">
     <g id="line2d_18">
      <g>
       <use xlink:href="#m1d20b0684b" x="103.104" y="41.472" style="stroke: #000000; stroke-width: 0.8"/>
      </g>
     </g>
     <g id="text_18">
      <!-- 40 -->
      <g transform="translate(83.379 45.271219) scale(0.1 -0.1)">
       <use xlink:href="#DejaVuSans-34"/>
       <use xlink:href="#DejaVuSans-30" x="63.623047"/>
      </g>
     </g>
    </g>
   </g>
   <g id="line2d_19">
    <path d="M 250.2972 288.4572 
L 250.2972 188.6652 
" clip-path="url(#p41ce67b628)" style="fill: none; stroke: #000000; stroke-width: 0.25; stroke-linecap: square"/>
   </g>
   <g id="line2d_20">
    <path d="M 250.2972 188.6652 
L 350.0892 188.6652 
" clip-path="url(#p41ce67b628)" style="fill: none; stroke: #000000; stroke-width: 0.25; stroke-linecap: square"/>
   </g>
   <g id="line2d_21">
    <path d="M 350.0892 160.3908 
L 250.2972 160.3908 
" clip-path="url(#p41ce67b628)" style="fill: none; stroke: #000000; stroke-width: 0.25; stroke-linecap: square"/>
   </g>
   <g id="line2d_22">
    <path d="M 250.2972 160.3908 
L 250.2972 60.5988 
" clip-path="url(#p41ce67b628)" style="fill: none; stroke: #000000; stroke-width: 0.25; stroke-linecap: square"/>
   </g>
   <g id="line2d_23">
    <path d="M 222.0228 60.5988 
L 222.0228 160.3908 
" clip-path="url(#p41ce67b628)" style="fill: none; stroke: #000000; stroke-width: 0.25; stroke-linecap: square"/>
   </g>
   <g id="line2d_24">
    <path d="M 222.0228 160.3908 
L 122.2308 160.3908 
" clip-path="url(#p41ce67b628)" style="fill: none; stroke: #000000; stroke-width: 0.25; stroke-linecap: square"/>
   </g>
   <g id="line2d_25">
    <path d="M 122.2308 188.6652 
L 222.0228 188.6652 
" clip-path="url(#p41ce67b628)" style="fill: none; stroke: #000000; stroke-width: 0.25; stroke-linecap: square"/>
   </g>
   <g id="line2d_26">
    <path d="M 222.0228 188.6652 
L 222.0228 288.4572 
" clip-path="url(#p41ce67b628)" style="fill: none; stroke: #000000; stroke-width: 0.25; stroke-linecap: square"/>
   </g>
   <g id="line2d_27">
    <path d="M 250.2972 174.528 
L 350.0892 174.528 
" clip-path="url(#p41ce67b628)" style="fill: none; stroke-dasharray: 0.925,0.4; stroke-dashoffset: 0; stroke: #000000; stroke-width: 0.25"/>
   </g>
   <g id="line2d_28">
    <path d="M 236.16 160.3908 
L 236.16 60.5988 
" clip-path="url(#p41ce67b628)" style="fill: none; stroke-dasharray: 0.925,0.4; stroke-dashoffset: 0; stroke: #000000; stroke-width: 0.25"/>
   </g>
   <g id="line2d_29">
    <path d="M 222.0228 174.528 
L 122.2308 174.528 
" clip-path="url(#p41ce67b628)" style="fill: none; stroke-dasharray: 0.925,0.4; stroke-dashoffset: 0; stroke: #000000; stroke-width: 0.25"/>
   </g>
   <g id="line2d_30">
    <path d="M 236.16 188.6652 
L 236.16 288.4572 
" clip-path="url(#p41ce67b628)" style="fill: none; stroke-dasharray: 0.925,0.4; stroke-dashoffset: 0; stroke: #000000; stroke-width: 0.25"/>
   </g>
   <g id="line2d_31">
    <path d="M 140.85923 168.672181 
L 138.971738 168.672181 
L 137.084244 168.67218 
L 135.196746 168.67218 
L 133.309246 168.67218 
L 131.421743 168.67218 
L 129.534236 168.67218 
L 127.646727 168.67218 
L 125.759215 168.67218 
L 123.871701 168.67218 
L 121.984185 168.67218 
L 120.096667 168.67218 
L 118.209147 168.67218 
L 116.321627 168.67218 
L 114.434106 168.67218 
L 112.546584 168.67218 
L 110.659062 168.67218 
L 108.77154 168.67218 
L 106.884018 168.67218 
L 104.996495 168.67218 
L 103.108973 168.67218 
L 101.221451 168.67218 
L 99.333928 168.67218 
L 97.446406 168.67218 
L 95.558885 168.67218 
L 93.671363 168.67218 
L 91.783841 168.67218 
L 89.896319 168.67218 
L 88.008798 168.67218 
L 86.121276 168.67218 
L 84.233755 168.67218 
" clip-path="url(#p41ce67b628)" style="fill: none; stroke: #ff0000; stroke-opacity: 0.2; stroke-width: 0.25; stroke-linecap: square"/>
   </g>
   <g id="line2d_32">
    <path d="M 140.85923 168.672181 
L 138.971738 168.67218 
L 137.084244 168.67218 
L 135.196746 168.67218 
L 133.309246 168.67218 
L 131.421743 168.67218 
L 129.534236 168.67218 
L 127.646727 168.67218 
L 125.759215 168.67218 
L 123.871701 168.67218 
L 121.984185 168.67218 
L 120.096667 168.67218 
L 118.209147 168.67218 
L 116.321627 168.67218 
L 114.434106 168.67218 
L 112.546584 168.67218 
L 110.659062 168.67218 
L 108.77154 168.67218 
L 106.884018 168.67218 
L 104.996495 168.67218 
L 103.108973 168.67218 
L 101.221451 168.67218 
L 99.333928 168.67218 
L 97.446406 168.67218 
L 95.558884 168.67218 
L 93.671363 168.67218 
L 91.783841 168.67218 
L 89.896319 168.67218 
L 88.008798 168.67218 
L 86.121276 168.67218 
L 84.233754 168.67218 
" clip-path="url(#p41ce67b628)" style="fill: none; stroke: #ff0000; stroke-opacity: 0.4; stroke-width: 0.25; stroke-linecap: square"/>
   </g>
   <g id="line2d_33">
    <path d="M 140.85923 168.672181 
L 138.971738 168.67218 
L 137.084244 168.67218 
L 135.196746 168.67218 
L 133.309246 168.67218 
L 131.421743 168.67218 
L 129.534236 168.67218 
L 127.646727 168.67218 
L 125.759215 168.67218 
L 123.871701 168.67218 
L 121.984185 168.67218 
L 120.096667 168.67218 
L 118.209147 168.67218 
L 116.321627 168.67218 
L 114.434106 168.67218 
L 112.546584 168.67218 
L 110.659062 168.67218 
L 108.77154 168.67218 
L 106.884018 168.67218 
L 104.996495 168.67218 
L 103.108973 168.67218 
L 101.221451 168.67218 
L 99.333929 168.67218 
L 97.446406 168.67218 
L 95.558885 168.67218 
L 93.671363 168.67218 
L 91.783841 168.67218 
L 89.896319 168.67218 
L 88.008798 168.67218 
L 86.121276 168.67218 
L 84.233755 168.67218 
" clip-path="url(#p41ce67b628)" style="fill: none; stroke: #ff0000; stroke-opacity: 0.6; stroke-width: 0.25; stroke-linecap: square"/>
   </g>
   <g id="line2d_34">
    <path d="M 140.85923 168.672181 
L 138.971738 168.67218 
L 137.084244 168.67218 
L 135.196746 168.67218 
L 133.309246 168.67218 
L 131.421743 168.67218 
L 129.534236 168.67218 
L 127.646727 168.67218 
L 125.759215 168.67218 
L 123.871701 168.67218 
L 121.984185 168.67218 
L 120.096667 168.67218 
L 118.209147 168.67218 
L 116.321627 168.67218 
L 114.434106 168.67218 
L 112.546584 168.67218 
L 110.659062 168.67218 
L 108.77154 168.67218 
L 106.884018 168.67218 
L 104.996495 168.67218 
L 103.108973 168.67218 
L 101.221451 168.67218 
L 99.333928 168.67218 
L 97.446406 168.67218 
L 95.558884 168.67218 
L 93.671363 168.67218 
L 91.783841 168.67218 
L 89.896319 168.67218 
L 88.008798 168.67218 
L 86.121276 168.67218 
L 84.233755 168.67218 
" clip-path="url(#p41ce67b628)" style="fill: none; stroke: #ff0000; stroke-opacity: 0.8; stroke-width: 0.25; stroke-linecap: square"/>
   </g>
   <g id="line2d_35">
    <path d="M 140.85923 168.672181 
L 138.971738 168.67218 
L 137.084244 168.67218 
L 135.196746 168.67218 
L 133.309246 168.67218 
L 131.421743 168.67218 
L 129.534236 168.67218 
L 127.646727 168.67218 
L 125.759215 168.67218 
L 123.871701 168.67218 
L 121.984185 168.67218 
L 120.096667 168.67218 
L 118.209147 168.67218 
L 116.321627 168.67218 
L 114.434106 168.67218 
L 112.546584 168.67218 
L 110.659062 168.67218 
L 108.77154 168.67218 
L 106.884018 168.67218 
L 104.996495 168.67218 
L 103.108973 168.67218 
L 101.221451 168.67218 
L 99.333928 168.67218 
L 97.446406 168.67218 
L 95.558884 168.67218 
L 93.671363 168.67218 
L 91.783841 168.67218 
L 89.896319 168.67218 
L 88.008798 168.67218 
L 86.121276 168.67218 
L 84.233755 168.67218 
" clip-path="url(#p41ce67b628)" style="fill: none; stroke: #ff0000; stroke-width: 0.25; stroke-linecap: square"/>
   </g>
   <g id="line2d_36">
    <path d="M 242.015819 70.828827 
L 242.01582 69.072742 
L 242.01582 67.316647 
L 242.01582 65.560545 
L 242.01582 63.804435 
L 242.01582 62.048321 
L 242.01582 60.292203 
L 242.01582 58.536082 
L 242.01582 56.77996 
L 242.01582 55.023837 
L 242.01582 53.267713 
L 242.01582 51.511589 
L 242.01582 49.755466 
L 242.01582 47.999343 
L 242.01582 46.243221 
L 242.01582 44.487099 
L 242.01582 42.730978 
L 242.01582 40.974858 
L 242.01582 39.218739 
L 242.01582 37.46262 
L 242.01582 35.706502 
L 242.01582 33.950384 
L 242.01582 32.194266 
L 242.01582 30.438149 
L 242.01582 28.682032 
L 242.01582 26.925915 
L 242.01582 25.169799 
L 242.01582 23.413682 
L 242.01582 21.657566 
L 242.01582 19.901449 
L 242.01582 18.145333 
" clip-path="url(#p41ce67b628)" style="fill: none; stroke: #ff0000; stroke-opacity: 0.2; stroke-width: 0.25; stroke-linecap: square"/>
   </g>
   <g id="line2d_37">
    <path d="M 242.015819 70.828827 
L 242.01582 69.072742 
L 242.01582 67.316647 
L 242.01582 65.560545 
L 242.01582 63.804435 
L 242.01582 62.048321 
L 242.01582 60.292203 
L 242.01582 58.536082 
L 242.01582 56.77996 
L 242.01582 55.023837 
L 242.01582 53.267713 
L 242.01582 51.511589 
L 242.01582 49.755466 
L 242.01582 47.999343 
L 242.01582 46.243221 
L 242.01582 44.487099 
L 242.01582 42.730978 
L 242.01582 40.974858 
L 242.01582 39.218739 
L 242.01582 37.46262 
L 242.01582 35.706502 
L 242.01582 33.950384 
L 242.01582 32.194267 
L 242.01582 30.438149 
L 242.01582 28.682032 
L 242.01582 26.925916 
L 242.01582 25.169799 
L 242.01582 23.413682 
L 242.01582 21.657566 
L 242.01582 19.90145 
L 242.01582 18.145333 
" clip-path="url(#p41ce67b628)" style="fill: none; stroke: #ff0000; stroke-opacity: 0.4; stroke-width: 0.25; stroke-linecap: square"/>
   </g>
   <g id="line2d_38">
    <path d="M 242.015819 70.828827 
L 242.01582 69.072742 
L 242.01582 67.316647 
L 242.01582 65.560545 
L 242.01582 63.804435 
L 242.01582 62.048321 
L 242.01582 60.292203 
L 242.01582 58.536082 
L 242.01582 56.77996 
L 242.01582 55.023837 
L 242.01582 53.267713 
L 242.01582 51.511589 
L 242.01582 49.755466 
L 242.01582 47.999343 
L 242.01582 46.243221 
L 242.01582 44.487099 
L 242.01582 42.730978 
L 242.01582 40.974858 
L 242.01582 39.218739 
L 242.01582 37.46262 
L 242.01582 35.706502 
L 242.01582 33.950384 
L 242.01582 32.194266 
L 242.01582 30.438149 
L 242.01582 28.682032 
L 242.01582 26.925916 
L 242.01582 25.169799 
L 242.01582 23.413682 
L 242.01582 21.657566 
L 242.01582 19.90145 
L 242.01582 18.145333 
" clip-path="url(#p41ce67b628)" style="fill: none; stroke: #ff0000; stroke-opacity: 0.6; stroke-width: 0.25; stroke-linecap: square"/>
   </g>
   <g id="line2d_39">
    <path d="M 242.015819 70.828827 
L 242.01582 69.072742 
L 242.01582 67.316647 
L 242.01582 65.560545 
L 242.01582 63.804435 
L 242.01582 62.048321 
L 242.01582 60.292203 
L 242.01582 58.536082 
L 242.01582 56.77996 
L 242.01582 55.023837 
L 242.01582 53.267713 
L 242.01582 51.511589 
L 242.01582 49.755466 
L 242.01582 47.999343 
L 242.01582 46.243221 
L 242.01582 44.487099 
L 242.01582 42.730978 
L 242.01582 40.974858 
L 242.01582 39.218739 
L 242.01582 37.46262 
L 242.01582 35.706502 
L 242.01582 33.950384 
L 242.01582 32.194266 
L 242.01582 30.438149 
L 242.01582 28.682032 
L 242.01582 26.925916 
L 242.01582 25.169799 
L 242.01582 23.413682 
L 242.01582 21.657566 
L 242.01582 19.90145 
L 242.01582 18.145333 
" clip-path="url(#p41ce67b628)" style="fill: none; stroke: #ff0000; stroke-opacity: 0.8; stroke-width: 0.25; stroke-linecap: square"/>
   </g>
   <g id="line2d_40">
    <path d="M 242.015819 70.828827 
L 242.01582 69.072742 
L 242.01582 67.316647 
L 242.01582 65.560545 
L 242.01582 63.804435 
L 242.01582 62.048321 
L 242.01582 60.292203 
L 242.01582 58.536082 
L 242.01582 56.77996 
L 242.01582 55.023837 
L 242.01582 53.267713 
L 242.01582 51.511589 
L 242.01582 49.755466 
L 242.01582 47.999343 
L 242.01582 46.243221 
L 242.01582 44.487099 
L 242.01582 42.730978 
L 242.01582 40.974858 
L 242.01582 39.218739 
L 242.01582 37.46262 
L 242.01582 35.706502 
L 242.01582 33.950384 
L 242.01582 32.194266 
L 242.01582 30.438149 
L 242.01582 28.682032 
L 242.01582 26.925916 
L 242.01582 25.169799 
L 242.01582 23.413682 
L 242.01582 21.657566 
L 242.01582 19.90145 
L 242.01582 18.145333 
" clip-path="url(#p41ce67b628)" style="fill: none; stroke: #ff0000; stroke-width: 0.25; stroke-linecap: square"/>
   </g>
   <g id="line2d_41">
    <path d="M 230.304182 270.732801 
L 230.304181 272.597814 
L 230.304181 274.462849 
L 230.304181 276.327906 
L 230.30418 278.192983 
L 230.30418 280.058079 
L 230.30418 281.923191 
L 230.30418 283.788317 
L 230.30418 285.653455 
L 230.30418 287.518601 
L 230.30418 289.383755 
L 230.30418 291.248915 
L 230.30418 293.114079 
L 230.30418 294.979245 
L 230.30418 296.844413 
L 230.30418 298.709582 
L 230.30418 300.574751 
L 230.30418 302.439919 
L 230.30418 304.305087 
L 230.30418 306.170255 
L 230.30418 308.035421 
L 230.30418 309.900586 
L 230.30418 311.765751 
L 230.30418 313.630914 
L 230.30418 315.496077 
L 230.30418 317.361239 
L 230.30418 319.2264 
L 230.30418 321.091561 
L 230.30418 322.956722 
L 230.30418 324.821882 
L 230.30418 326.687043 
" clip-path="url(#p41ce67b628)" style="fill: none; stroke: #ff0000; stroke-opacity: 0.2; stroke-width: 0.25; stroke-linecap: square"/>
   </g>
   <g id="line2d_42">
    <path d="M 230.304182 270.732801 
L 230.304181 272.597814 
L 230.304181 274.462849 
L 230.304181 276.327906 
L 230.30418 278.192984 
L 230.30418 280.058079 
L 230.30418 281.923191 
L 230.30418 283.788317 
L 230.30418 285.653455 
L 230.30418 287.518601 
L 230.30418 289.383755 
L 230.30418 291.248915 
L 230.30418 293.114078 
L 230.30418 294.979245 
L 230.30418 296.844413 
L 230.30418 298.709581 
L 230.30418 300.57475 
L 230.30418 302.439919 
L 230.30418 304.305087 
L 230.30418 306.170254 
L 230.30418 308.035421 
L 230.30418 309.900586 
L 230.30418 311.76575 
L 230.30418 313.630914 
L 230.30418 315.496077 
L 230.30418 317.361239 
L 230.30418 319.226401 
L 230.30418 321.091562 
L 230.30418 322.956723 
L 230.30418 324.821883 
L 230.30418 326.687044 
" clip-path="url(#p41ce67b628)" style="fill: none; stroke: #ff0000; stroke-opacity: 0.4; stroke-width: 0.25; stroke-linecap: square"/>
   </g>
   <g id="line2d_43">
    <path d="M 230.304182 270.732801 
L 230.304182 272.597814 
L 230.304181 274.462849 
L 230.304181 276.327906 
L 230.30418 278.192984 
L 230.30418 280.058079 
L 230.30418 281.923191 
L 230.30418 283.788317 
L 230.30418 285.653455 
L 230.30418 287.518601 
L 230.30418 289.383755 
L 230.30418 291.248915 
L 230.30418 293.114079 
L 230.30418 294.979245 
L 230.30418 296.844413 
L 230.30418 298.709581 
L 230.30418 300.57475 
L 230.30418 302.439919 
L 230.30418 304.305087 
L 230.30418 306.170254 
L 230.30418 308.035421 
L 230.30418 309.900586 
L 230.30418 311.76575 
L 230.30418 313.630914 
L 230.30418 315.496077 
L 230.30418 317.361239 
L 230.30418 319.2264 
L 230.30418 321.091561 
L 230.30418 322.956722 
L 230.30418 324.821883 
L 230.30418 326.687043 
" clip-path="url(#p41ce67b628)" style="fill: none; stroke: #ff0000; stroke-opacity: 0.6; stroke-width: 0.25; stroke-linecap: square"/>
   </g>
   <g id="line2d_44">
    <path d="M 230.304182 270.732801 
L 230.304182 272.597814 
L 230.304181 274.462849 
L 230.304181 276.327906 
L 230.30418 278.192984 
L 230.30418 280.058079 
L 230.30418 281.923191 
L 230.30418 283.788317 
L 230.30418 285.653455 
L 230.30418 287.518601 
L 230.30418 289.383755 
L 230.30418 291.248915 
L 230.30418 293.114079 
L 230.30418 294.979245 
L 230.30418 296.844413 
L 230.30418 298.709581 
L 230.30418 300.57475 
L 230.30418 302.439919 
L 230.30418 304.305087 
L 230.30418 306.170254 
L 230.30418 308.035421 
L 230.30418 309.900586 
L 230.30418 311.76575 
L 230.30418 313.630914 
L 230.30418 315.496077 
L 230.30418 317.361239 
L 230.30418 319.226401 
L 230.30418 321.091562 
L 230.30418 322.956722 
L 230.30418 324.821883 
L 230.30418 326.687044 
" clip-path="url(#p41ce67b628)" style="fill: none; stroke: #ff0000; stroke-opacity: 0.8; stroke-width: 0.25; stroke-linecap: square"/>
   </g>
   <g id="line2d_45">
    <path d="M 230.304182 270.732801 
L 230.304182 272.597814 
L 230.304181 274.462849 
L 230.304181 276.327906 
L 230.30418 278.192984 
L 230.30418 280.058079 
L 230.30418 281.923191 
L 230.30418 283.788317 
L 230.30418 285.653455 
L 230.30418 287.518601 
L 230.30418 289.383755 
L 230.30418 291.248915 
L 230.30418 293.114079 
L 230.30418 294.979245 
L 230.30418 296.844413 
L 230.30418 298.709581 
L 230.30418 300.57475 
L 230.30418 302.439919 
L 230.30418 304.305087 
L 230.30418 306.170254 
L 230.30418 308.035421 
L 230.30418 309.900586 
L 230.30418 311.76575 
L 230.30418 313.630914 
L 230.30418 315.496077 
L 230.30418 317.361239 
L 230.30418 319.2264 
L 230.30418 321.091561 
L 230.30418 322.956722 
L 230.30418 324.821883 
L 230.30418 326.687043 
" clip-path="url(#p41ce67b628)" style="fill: none; stroke: #ff0000; stroke-width: 0.25; stroke-linecap: square"/>
   </g>
   <g id="line2d_46">
    <path d="M 332.364635 180.383819 
L 334.229686 180.383819 
L 336.094754 180.383819 
L 337.959839 180.38382 
L 339.82494 180.38382 
L 341.690054 180.38382 
L 343.555181 180.38382 
L 345.420318 180.38382 
L 347.285463 180.38382 
L 349.150615 180.38382 
L 351.015772 180.38382 
L 352.880933 180.38382 
L 354.746097 180.38382 
L 356.611263 180.38382 
L 358.476429 180.38382 
L 360.341597 180.38382 
L 362.206764 180.38382 
L 364.07193 180.38382 
L 365.937097 180.38382 
L 367.802262 180.38382 
L 369.667427 180.38382 
L 371.532591 180.38382 
L 373.397754 180.38382 
L 375.262916 180.38382 
L 377.128078 180.38382 
L 378.99324 180.38382 
L 380.858401 180.38382 
L 382.723561 180.38382 
L 384.588722 180.38382 
L 386.453882 180.38382 
L 388.319042 180.38382 
" clip-path="url(#p41ce67b628)" style="fill: none; stroke: #ff0000; stroke-opacity: 0.2; stroke-width: 0.25; stroke-linecap: square"/>
   </g>
   <g id="line2d_47">
    <path d="M 332.364635 180.383819 
L 334.229686 180.383819 
L 336.094754 180.383819 
L 337.959839 180.38382 
L 339.82494 180.38382 
L 341.690054 180.38382 
L 343.555181 180.38382 
L 345.420318 180.38382 
L 347.285463 180.38382 
L 349.150615 180.38382 
L 351.015772 180.38382 
L 352.880933 180.38382 
L 354.746097 180.38382 
L 356.611263 180.38382 
L 358.476429 180.38382 
L 360.341596 180.38382 
L 362.206763 180.38382 
L 364.07193 180.38382 
L 365.937096 180.38382 
L 367.802262 180.38382 
L 369.667427 180.38382 
L 371.532591 180.38382 
L 373.397754 180.38382 
L 375.262916 180.38382 
L 377.128078 180.38382 
L 378.99324 180.38382 
L 380.858401 180.38382 
L 382.723562 180.38382 
L 384.588722 180.38382 
L 386.453883 180.38382 
L 388.319043 180.38382 
" clip-path="url(#p41ce67b628)" style="fill: none; stroke: #ff0000; stroke-opacity: 0.4; stroke-width: 0.25; stroke-linecap: square"/>
   </g>
   <g id="line2d_48">
    <path d="M 332.364635 180.383819 
L 334.229686 180.383819 
L 336.094754 180.383819 
L 337.959839 180.38382 
L 339.82494 180.38382 
L 341.690054 180.38382 
L 343.555181 180.38382 
L 345.420318 180.38382 
L 347.285463 180.38382 
L 349.150615 180.38382 
L 351.015772 180.38382 
L 352.880933 180.38382 
L 354.746097 180.38382 
L 356.611263 180.38382 
L 358.476429 180.38382 
L 360.341596 180.38382 
L 362.206764 180.38382 
L 364.07193 180.38382 
L 365.937096 180.38382 
L 367.802262 180.38382 
L 369.667427 180.38382 
L 371.532591 180.38382 
L 373.397754 180.38382 
L 375.262916 180.38382 
L 377.128078 180.38382 
L 378.99324 180.38382 
L 380.858401 180.38382 
L 382.723561 180.38382 
L 384.588722 180.38382 
L 386.453882 180.38382 
L 388.319042 180.38382 
" clip-path="url(#p41ce67b628)" style="fill: none; stroke: #ff0000; stroke-opacity: 0.6; stroke-width: 0.25; stroke-linecap: square"/>
   </g>
   <g id="line2d_49">
    <path d="M 332.364635 180.383819 
L 334.229686 180.383819 
L 336.094754 180.383819 
L 337.959839 180.38382 
L 339.82494 180.38382 
L 341.690054 180.38382 
L 343.555181 180.38382 
L 345.420318 180.38382 
L 347.285463 180.38382 
L 349.150615 180.38382 
L 351.015772 180.38382 
L 352.880933 180.38382 
L 354.746097 180.38382 
L 356.611263 180.38382 
L 358.476429 180.38382 
L 360.341596 180.38382 
L 362.206764 180.38382 
L 364.07193 180.38382 
L 365.937096 180.38382 
L 367.802262 180.38382 
L 369.667427 180.38382 
L 371.532591 180.38382 
L 373.397754 180.38382 
L 375.262916 180.38382 
L 377.128078 180.38382 
L 378.99324 180.38382 
L 380.858401 180.38382 
L 382.723562 180.38382 
L 384.588722 180.38382 
L 386.453882 180.38382 
L 388.319043 180.38382 
" clip-path="url(#p41ce67b628)" style="fill: none; stroke: #ff0000; stroke-opacity: 0.8; stroke-width: 0.25; stroke-linecap: square"/>
   </g>
   <g id="line2d_50">
    <path d="M 332.364635 180.383819 
L 334.229686 180.383819 
L 336.094754 180.383819 
L 337.959839 180.38382 
L 339.82494 180.38382 
L 341.690054 180.38382 
L 343.555181 180.38382 
L 345.420318 180.38382 
L 347.285463 180.38382 
L 349.150615 180.38382 
L 351.015772 180.38382 
L 352.880933 180.38382 
L 354.746097 180.38382 
L 356.611263 180.38382 
L 358.476429 180.38382 
L 360.341596 180.38382 
L 362.206764 180.38382 
L 364.07193 180.38382 
L 365.937096 180.38382 
L 367.802262 180.38382 
L 369.667427 180.38382 
L 371.532591 180.38382 
L 373.397754 180.38382 
L 375.262916 180.38382 
L 377.128078 180.38382 
L 378.99324 180.38382 
L 380.858401 180.38382 
L 382.723561 180.38382 
L 384.588722 180.38382 
L 386.453882 180.38382 
L 388.319042 180.38382 
" clip-path="url(#p41ce67b628)" style="fill: none; stroke: #ff0000; stroke-width: 0.25; stroke-linecap: square"/>
   </g>
   <g id="line2d_51">
    <path d="M 242.015879 128.754174 
L 242.015812 126.899258 
L 242.015725 125.037742 
L 242.015719 123.171317 
L 242.015784 121.301416 
L 242.015866 119.429232 
L 242.015919 117.555724 
L 242.015935 115.681647 
L 242.015921 113.807567 
L 242.015899 111.933891 
L 242.015874 110.060895 
L 242.015851 108.188746 
L 242.015836 106.317524 
L 242.015824 104.447246 
L 242.015815 102.577879 
L 242.01581 100.70936 
L 242.015804 98.841604 
L 242.015808 96.974514 
L 242.015807 95.107993 
L 242.015808 93.241944 
L 242.015809 91.376276 
L 242.015809 89.51091 
L 242.01581 87.645776 
L 242.015812 85.780812 
L 242.015813 83.915971 
L 242.015815 82.051215 
L 242.015816 80.186514 
L 242.015816 78.321847 
L 242.015817 76.457199 
L 242.015818 74.592561 
L 242.015818 72.727926 
" clip-path="url(#p41ce67b628)" style="fill: none; stroke: #ff0000; stroke-opacity: 0.2; stroke-width: 0.25; stroke-linecap: square"/>
   </g>
   <g id="line2d_52">
    <path d="M 242.015879 128.754174 
L 242.015805 126.899258 
L 242.015721 125.037739 
L 242.015719 123.171312 
L 242.015785 121.30141 
L 242.015868 119.429224 
L 242.01592 117.555717 
L 242.015935 115.681639 
L 242.015921 113.807559 
L 242.015898 111.933884 
L 242.015873 110.06089 
L 242.01585 108.188742 
L 242.015836 106.317523 
L 242.015824 104.447249 
L 242.015815 102.577887 
L 242.015811 100.709373 
L 242.015805 98.841624 
L 242.015809 96.974544 
L 242.015808 95.108035 
L 242.015809 93.241999 
L 242.015809 91.376349 
L 242.015809 89.511002 
L 242.015811 87.645888 
L 242.015812 85.780947 
L 242.015813 83.916131 
L 242.015815 82.051402 
L 242.015816 80.186728 
L 242.015817 78.32209 
L 242.015818 76.457472 
L 242.015819 74.592864 
L 242.015821 72.72826 
" clip-path="url(#p41ce67b628)" style="fill: none; stroke: #ff0000; stroke-opacity: 0.4; stroke-width: 0.25; stroke-linecap: square"/>
   </g>
   <g id="line2d_53">
    <path d="M 242.015879 128.754174 
L 242.015798 126.899258 
L 242.015718 125.037738 
L 242.015719 123.171309 
L 242.015787 121.301406 
L 242.015869 119.42922 
L 242.015921 117.555712 
L 242.015935 115.681634 
L 242.01592 113.807554 
L 242.015897 111.933878 
L 242.015872 110.060883 
L 242.01585 108.188734 
L 242.015835 106.317513 
L 242.015824 104.447236 
L 242.015816 102.577871 
L 242.015812 100.709354 
L 242.015806 98.8416 
L 242.01581 96.974514 
L 242.015808 95.107997 
L 242.015809 93.241954 
L 242.015809 91.376294 
L 242.015809 89.510936 
L 242.01581 87.645811 
L 242.015811 85.780858 
L 242.015813 83.916029 
L 242.015814 82.051285 
L 242.015816 80.186597 
L 242.015817 78.321944 
L 242.015817 76.457311 
L 242.015818 74.592687 
L 242.015819 72.728068 
" clip-path="url(#p41ce67b628)" style="fill: none; stroke: #ff0000; stroke-opacity: 0.6; stroke-width: 0.25; stroke-linecap: square"/>
   </g>
   <g id="line2d_54">
    <path d="M 242.015879 128.754174 
L 242.015792 126.899258 
L 242.015716 125.037736 
L 242.015719 123.171307 
L 242.015788 121.301404 
L 242.015871 119.429218 
L 242.015922 117.555711 
L 242.015935 115.681634 
L 242.015919 113.807555 
L 242.015896 111.933881 
L 242.015871 110.060888 
L 242.015849 108.188741 
L 242.015835 106.317522 
L 242.015824 104.447247 
L 242.015816 102.577884 
L 242.015812 100.70937 
L 242.015806 98.841619 
L 242.01581 96.974537 
L 242.015809 95.108025 
L 242.015809 93.241986 
L 242.015809 91.376331 
L 242.015809 89.51098 
L 242.01581 87.645861 
L 242.015811 85.780915 
L 242.015813 83.916093 
L 242.015815 82.051357 
L 242.015816 80.186676 
L 242.015817 78.322031 
L 242.015818 76.457406 
L 242.015819 74.592791 
L 242.01582 72.72818 
" clip-path="url(#p41ce67b628)" style="fill: none; stroke: #ff0000; stroke-opacity: 0.8; stroke-width: 0.25; stroke-linecap: square"/>
   </g>
   <g id="line2d_55">
    <path d="M 242.015879 128.754174 
L 242.015785 126.899258 
L 242.015713 125.037736 
L 242.015719 123.171305 
L 242.01579 121.301402 
L 242.015872 119.429216 
L 242.015923 117.555709 
L 242.015935 115.681632 
L 242.015919 113.807552 
L 242.015895 111.933878 
L 242.01587 110.060883 
L 242.015849 108.188735 
L 242.015835 106.317515 
L 242.015824 104.447239 
L 242.015816 102.577875 
L 242.015812 100.709359 
L 242.015807 98.841606 
L 242.01581 96.974522 
L 242.015809 95.108007 
L 242.015809 93.241965 
L 242.015808 91.376307 
L 242.015809 89.510952 
L 242.01581 87.64583 
L 242.015811 85.78088 
L 242.015813 83.916054 
L 242.015814 82.051314 
L 242.015816 80.186629 
L 242.015817 78.321979 
L 242.015818 76.45735 
L 242.015818 74.59273 
L 242.01582 72.728114 
" clip-path="url(#p41ce67b628)" style="fill: none; stroke: #ff0000; stroke-width: 0.25; stroke-linecap: square"/>
   </g>
   <g id="line2d_56">
    <path d="M 190.351129 168.672477 
L 188.484009 168.672417 
L 186.615878 168.67232 
L 184.747153 168.672243 
L 182.878167 168.672206 
L 181.009167 168.672195 
L 179.140334 168.672191 
L 177.271789 168.672192 
L 175.403605 168.672186 
L 173.53582 168.672186 
L 171.668442 168.672187 
L 169.801457 168.67219 
L 167.934839 168.672194 
L 166.06855 168.672193 
L 164.20255 168.67219 
L 162.336796 168.672188 
L 160.471244 168.672184 
L 158.605857 168.672183 
L 156.740598 168.672184 
L 154.875435 168.672185 
L 153.010341 168.672185 
L 151.145296 168.672184 
L 149.28028 168.672183 
L 147.415281 168.672182 
L 145.550289 168.672181 
L 143.685297 168.672181 
L 141.820301 168.67218 
L 139.955301 168.67218 
L 138.090294 168.67218 
L 136.225284 168.67218 
L 134.360272 168.67218 
" clip-path="url(#p41ce67b628)" style="fill: none; stroke: #ff0000; stroke-opacity: 0.2; stroke-width: 0.25; stroke-linecap: square"/>
   </g>
   <g id="line2d_57">
    <path d="M 190.351129 168.672477 
L 188.484009 168.672412 
L 186.615879 168.672317 
L 184.747155 168.672241 
L 182.878169 168.672205 
L 181.009169 168.672195 
L 179.140335 168.672192 
L 177.271789 168.672192 
L 175.403604 168.672187 
L 173.535818 168.672187 
L 171.668438 168.672188 
L 169.801453 168.67219 
L 167.934833 168.672194 
L 166.068544 168.672193 
L 164.202544 168.67219 
L 162.33679 168.672188 
L 160.471241 168.672184 
L 158.605855 168.672183 
L 156.740599 168.672184 
L 154.875441 168.672185 
L 153.010353 168.672185 
L 151.145315 168.672184 
L 149.280307 168.672183 
L 147.415317 168.672182 
L 145.550335 168.672182 
L 143.685355 168.672181 
L 141.820371 168.672181 
L 139.955383 168.67218 
L 138.09039 168.67218 
L 136.225393 168.67218 
L 134.360395 168.67218 
" clip-path="url(#p41ce67b628)" style="fill: none; stroke: #ff0000; stroke-opacity: 0.4; stroke-width: 0.25; stroke-linecap: square"/>
   </g>
   <g id="line2d_58">
    <path d="M 190.351129 168.672477 
L 188.484009 168.672408 
L 186.61588 168.672314 
L 184.747157 168.67224 
L 182.878171 168.672204 
L 181.009171 168.672194 
L 179.140337 168.672192 
L 177.271791 168.672193 
L 175.403606 168.672187 
L 173.535819 168.672187 
L 171.668439 168.672188 
L 169.801453 168.67219 
L 167.934833 168.672193 
L 166.068544 168.672192 
L 164.202543 168.672189 
L 162.336788 168.672188 
L 160.471237 168.672184 
L 158.60585 168.672184 
L 156.740591 168.672184 
L 154.87543 168.672185 
L 153.010339 168.672185 
L 151.145297 168.672184 
L 149.280285 168.672183 
L 147.41529 168.672182 
L 145.550303 168.672181 
L 143.685317 168.672181 
L 141.820327 168.67218 
L 139.955333 168.67218 
L 138.090333 168.672179 
L 136.22533 168.672179 
L 134.360325 168.67218 
" clip-path="url(#p41ce67b628)" style="fill: none; stroke: #ff0000; stroke-opacity: 0.6; stroke-width: 0.25; stroke-linecap: square"/>
   </g>
   <g id="line2d_59">
    <path d="M 190.351129 168.672477 
L 188.484009 168.672403 
L 186.615881 168.672311 
L 184.747158 168.672238 
L 182.878172 168.672203 
L 181.009172 168.672194 
L 179.140338 168.672192 
L 177.271792 168.672193 
L 175.403607 168.672188 
L 173.53582 168.672188 
L 171.668441 168.672188 
L 169.801455 168.67219 
L 167.934835 168.672193 
L 166.068546 168.672192 
L 164.202546 168.672189 
L 162.336792 168.672188 
L 160.471241 168.672184 
L 158.605855 168.672184 
L 156.740598 168.672184 
L 154.875439 168.672185 
L 153.01035 168.672185 
L 151.14531 168.672184 
L 149.2803 168.672183 
L 147.415308 168.672182 
L 145.550324 168.672182 
L 143.68534 168.672181 
L 141.820354 168.672181 
L 139.955363 168.67218 
L 138.090367 168.67218 
L 136.225367 168.672179 
L 134.360365 168.67218 
" clip-path="url(#p41ce67b628)" style="fill: none; stroke: #ff0000; stroke-opacity: 0.8; stroke-width: 0.25; stroke-linecap: square"/>
   </g>
   <g id="line2d_60">
    <path d="M 190.351129 168.672477 
L 188.484009 168.672399 
L 186.615881 168.672308 
L 184.747159 168.672236 
L 182.878173 168.672203 
L 181.009173 168.672194 
L 179.140339 168.672193 
L 177.271792 168.672194 
L 175.403607 168.672188 
L 173.53582 168.672188 
L 171.66844 168.672188 
L 169.801454 168.67219 
L 167.934834 168.672193 
L 166.068544 168.672192 
L 164.202543 168.672189 
L 162.336788 168.672188 
L 160.471238 168.672184 
L 158.605851 168.672184 
L 156.740593 168.672184 
L 154.875433 168.672185 
L 153.010342 168.672185 
L 151.145301 168.672184 
L 149.28029 168.672183 
L 147.415297 168.672182 
L 145.550311 168.672182 
L 143.685326 168.672181 
L 141.820338 168.672181 
L 139.955345 168.67218 
L 138.090347 168.67218 
L 136.225345 168.672179 
L 134.360342 168.67218 
" clip-path="url(#p41ce67b628)" style="fill: none; stroke: #ff0000; stroke-width: 0.25; stroke-linecap: square"/>
   </g>
   <g id="line2d_61">
    <path d="M 280.491492 180.383566 
L 282.374782 180.383746 
L 284.25973 180.383888 
L 286.145988 180.383926 
L 288.033246 180.383881 
L 289.921236 180.383838 
L 291.80973 180.383797 
L 293.698544 180.383793 
L 295.587528 180.383811 
L 297.476568 180.383831 
L 299.36558 180.383846 
L 301.254502 180.383848 
L 303.143297 180.383839 
L 305.031941 180.383828 
L 306.920426 180.38382 
L 308.808753 180.383817 
L 310.696929 180.383817 
L 312.584966 180.383818 
L 314.47288 180.383819 
L 316.360686 180.383818 
L 318.248402 180.383818 
L 320.136044 180.383818 
L 322.023624 180.383818 
L 323.911158 180.383818 
L 325.798655 180.383819 
L 327.686125 180.383819 
L 329.573575 180.383819 
L 331.461012 180.383819 
L 333.348441 180.383819 
L 335.235864 180.383819 
L 337.123285 180.383819 
" clip-path="url(#p41ce67b628)" style="fill: none; stroke: #ff0000; stroke-opacity: 0.2; stroke-width: 0.25; stroke-linecap: square"/>
   </g>
   <g id="line2d_62">
    <path d="M 280.491492 180.383566 
L 282.374782 180.383741 
L 284.259731 180.383882 
L 286.14599 180.383921 
L 288.033248 180.383877 
L 289.921238 180.383836 
L 291.809732 180.383797 
L 293.698545 180.383795 
L 295.587529 180.383813 
L 297.476569 180.383832 
L 299.365579 180.383847 
L 301.254501 180.383848 
L 303.143295 180.383839 
L 305.031939 180.383828 
L 306.920423 180.38382 
L 308.808748 180.383817 
L 310.696923 180.383818 
L 312.584958 180.383819 
L 314.47287 180.383819 
L 316.360675 180.383819 
L 318.248388 180.383818 
L 320.136027 180.383818 
L 322.023604 180.383818 
L 323.911134 180.383818 
L 325.798627 180.383819 
L 327.686093 180.383819 
L 329.57354 180.383819 
L 331.460973 180.383819 
L 333.348397 180.383819 
L 335.235816 180.38382 
L 337.123233 180.38382 
" clip-path="url(#p41ce67b628)" style="fill: none; stroke: #ff0000; stroke-opacity: 0.4; stroke-width: 0.25; stroke-linecap: square"/>
   </g>
   <g id="line2d_63">
    <path d="M 280.491492 180.383566 
L 282.374782 180.383736 
L 284.259732 180.383877 
L 286.145991 180.383916 
L 288.033249 180.383874 
L 289.921239 180.383835 
L 291.809733 180.383798 
L 293.698547 180.383796 
L 295.58753 180.383814 
L 297.47657 180.383834 
L 299.365581 180.383847 
L 301.254503 180.383848 
L 303.143297 180.383839 
L 305.031941 180.383827 
L 306.920426 180.38382 
L 308.808752 180.383818 
L 310.696927 180.383818 
L 312.584964 180.383819 
L 314.472877 180.383819 
L 316.360682 180.383818 
L 318.248397 180.383818 
L 320.136037 180.383818 
L 322.023617 180.383818 
L 323.911149 180.383818 
L 325.798644 180.383818 
L 327.686112 180.383819 
L 329.573561 180.383819 
L 331.460996 180.383819 
L 333.348423 180.383819 
L 335.235844 180.383819 
L 337.123263 180.38382 
" clip-path="url(#p41ce67b628)" style="fill: none; stroke: #ff0000; stroke-opacity: 0.6; stroke-width: 0.25; stroke-linecap: square"/>
   </g>
   <g id="line2d_64">
    <path d="M 280.491492 180.383566 
L 282.374782 180.383732 
L 284.259732 180.383872 
L 286.145991 180.383911 
L 288.03325 180.38387 
L 289.921239 180.383834 
L 291.809734 180.383798 
L 293.698547 180.383798 
L 295.58753 180.383816 
L 297.47657 180.383835 
L 299.36558 180.383848 
L 301.254502 180.383848 
L 303.143296 180.383838 
L 305.031939 180.383827 
L 306.920424 180.38382 
L 308.808749 180.383818 
L 310.696924 180.383818 
L 312.58496 180.383819 
L 314.472872 180.383819 
L 316.360677 180.383818 
L 318.248391 180.383818 
L 320.13603 180.383818 
L 322.023609 180.383818 
L 323.91114 180.383818 
L 325.798634 180.383818 
L 327.686101 180.383819 
L 329.573548 180.383819 
L 331.460982 180.383819 
L 333.348407 180.383819 
L 335.235827 180.383819 
L 337.123245 180.38382 
" clip-path="url(#p41ce67b628)" style="fill: none; stroke: #ff0000; stroke-opacity: 0.8; stroke-width: 0.25; stroke-linecap: square"/>
   </g>
   <g id="line2d_65">
    <path d="M 280.491492 180.383566 
L 282.374782 180.383728 
L 284.259732 180.383868 
L 286.145992 180.383907 
L 288.03325 180.383868 
L 289.92124 180.383833 
L 291.809734 180.383799 
L 293.698547 180.3838 
L 295.587531 180.383818 
L 297.47657 180.383836 
L 299.365581 180.383848 
L 301.254503 180.383847 
L 303.143297 180.383838 
L 305.03194 180.383827 
L 306.920425 180.38382 
L 308.808751 180.383818 
L 310.696926 180.383818 
L 312.584962 180.383819 
L 314.472875 180.383819 
L 316.360681 180.383818 
L 318.248395 180.383818 
L 320.136035 180.383818 
L 322.023614 180.383818 
L 323.911145 180.383818 
L 325.79864 180.383818 
L 327.686108 180.383819 
L 329.573556 180.383819 
L 331.46099 180.383819 
L 333.348416 180.383819 
L 335.235837 180.383819 
L 337.123256 180.38382 
" clip-path="url(#p41ce67b628)" style="fill: none; stroke: #ff0000; stroke-width: 0.25; stroke-linecap: square"/>
   </g>
   <g id="line2d_66">
    <path d="M 243.107259 157.129917 
L 242.395531 155.707995 
L 242.056549 154.17439 
L 241.942819 152.623313 
L 241.938907 151.079966 
L 241.971681 149.545943 
L 242.004632 148.018489 
L 242.026149 146.495407 
L 242.03515 144.975146 
L 242.035102 143.456501 
L 242.030886 141.93849 
L 242.025732 140.420349 
L 242.02161 138.901525 
L 242.019298 137.381652 
L 242.018757 135.860515 
L 242.019428 134.338015 
L 242.020626 132.81414 
L 242.021733 131.288943 
L 242.022497 129.762521 
L 242.022852 128.234998 
L 242.022785 126.706512 
L 242.022494 125.177203 
L 242.02202 123.647209 
L 242.021468 122.116658 
L 242.02086 120.585667 
L 242.02021 119.054338 
L 242.01953 117.522763 
L 242.018818 115.991017 
L 242.018066 114.459167 
L 242.017273 112.927269 
L 242.016482 111.395372 
" clip-path="url(#p41ce67b628)" style="fill: none; stroke: #ff0000; stroke-opacity: 0.2; stroke-width: 0.25; stroke-linecap: square"/>
   </g>
   <g id="line2d_67">
    <path d="M 243.107259 157.129917 
L 242.395228 155.708146 
L 242.055126 154.174751 
L 241.942274 152.62357 
L 241.939127 151.080186 
L 241.9718 149.546134 
L 242.003961 148.018647 
L 242.024405 146.495545 
L 242.032384 144.975284 
L 242.031556 143.456654 
L 242.026854 141.938667 
L 242.021461 140.420553 
L 242.017255 138.901759 
L 242.01492 137.381918 
L 242.014357 135.860814 
L 242.014979 134.338346 
L 242.016105 132.814502 
L 242.017135 131.289336 
L 242.017841 129.762943 
L 242.018177 128.235447 
L 242.018147 126.706987 
L 242.017953 125.177702 
L 242.01764 123.647731 
L 242.01731 122.117201 
L 242.016981 120.586229 
L 242.016664 119.054919 
L 242.016364 117.523359 
L 242.016074 115.991626 
L 242.01578 114.459787 
L 242.015472 112.927897 
L 242.015187 111.396004 
" clip-path="url(#p41ce67b628)" style="fill: none; stroke: #ff0000; stroke-opacity: 0.4; stroke-width: 0.25; stroke-linecap: square"/>
   </g>
   <g id="line2d_68">
    <path d="M 243.107259 157.129917 
L 242.395546 155.707987 
L 242.055026 154.174675 
L 241.942392 152.623471 
L 241.939404 151.080084 
L 241.971937 149.546031 
L 242.003727 148.018544 
L 242.023706 146.495449 
L 242.031241 144.975204 
L 242.030052 143.456596 
L 242.025091 141.938634 
L 242.01953 140.420548 
L 242.015215 138.901783 
L 242.012804 137.381971 
L 242.01218 135.860895 
L 242.012749 134.338456 
L 242.013833 132.814641 
L 242.014839 131.289501 
L 242.015548 129.763135 
L 242.015921 128.235664 
L 242.015967 126.707228 
L 242.015888 125.177967 
L 242.01573 123.648018 
L 242.015593 122.117509 
L 242.015493 120.586558 
L 242.015437 119.055266 
L 242.015429 117.523725 
L 242.015455 115.99201 
L 242.015501 114.460187 
L 242.01555 112.928313 
L 242.015635 111.396434 
" clip-path="url(#p41ce67b628)" style="fill: none; stroke: #ff0000; stroke-opacity: 0.6; stroke-width: 0.25; stroke-linecap: square"/>
   </g>
   <g id="line2d_69">
    <path d="M 243.107259 157.129917 
L 242.394305 155.708609 
L 242.053279 154.175394 
L 241.940866 152.624155 
L 241.938116 151.080748 
L 241.970645 149.546674 
L 242.002243 148.019162 
L 242.021975 146.496043 
L 242.029313 144.975777 
L 242.028033 143.457148 
L 242.023098 141.939166 
L 242.017657 140.421057 
L 242.013516 138.902267 
L 242.011302 137.38243 
L 242.010871 135.861327 
L 242.011619 134.338858 
L 242.012863 132.815011 
L 242.014017 131.289838 
L 242.014864 129.763436 
L 242.01537 128.235928 
L 242.015544 126.707453 
L 242.015591 125.178151 
L 242.015554 123.64816 
L 242.015531 122.117609 
L 242.015537 120.586613 
L 242.015578 119.055276 
L 242.015656 117.523688 
L 242.015759 115.991926 
L 242.015871 114.460054 
L 242.015979 112.92813 
L 242.016116 111.396201 
" clip-path="url(#p41ce67b628)" style="fill: none; stroke: #ff0000; stroke-opacity: 0.8; stroke-width: 0.25; stroke-linecap: square"/>
   </g>
   <g id="line2d_70">
    <path d="M 243.107259 157.129917 
L 242.393173 155.709177 
L 242.051766 154.17603 
L 241.939712 152.624745 
L 241.937342 151.081313 
L 241.970004 149.547217 
L 242.001544 148.019679 
L 242.021154 146.496534 
L 242.028408 144.976243 
L 242.027135 143.457591 
L 242.022305 141.939585 
L 242.017039 140.421452 
L 242.013108 138.902639 
L 242.011103 137.382777 
L 242.010857 135.86165 
L 242.011753 134.339157 
L 242.013111 132.815286 
L 242.014345 131.290088 
L 242.015246 129.76366 
L 242.015786 128.236127 
L 242.015977 126.707626 
L 242.016025 125.178299 
L 242.015974 123.648282 
L 242.015922 122.117704 
L 242.015884 120.586682 
L 242.015865 119.055319 
L 242.015869 117.523705 
L 242.015885 115.991916 
L 242.015898 114.460017 
L 242.015898 112.928065 
L 242.01592 111.396106 
" clip-path="url(#p41ce67b628)" style="fill: none; stroke: #ff0000; stroke-width: 0.25; stroke-linecap: square"/>
   </g>
   <g id="line2d_71">
    <path d="M 243.8316 186.265818 
L 244.846087 185.022846 
L 245.959318 183.880739 
L 247.163911 182.844519 
L 248.45327 181.918693 
L 249.821494 181.10733 
L 251.263553 180.41467 
L 252.775092 179.845627 
L 254.349319 179.407479 
L 255.976399 179.10836 
L 257.643379 178.955659 
L 259.334963 178.955915 
L 261.034157 179.113771 
L 262.723163 179.431492 
L 264.408225 179.815059 
L 266.128448 180.044841 
L 267.863821 180.185825 
L 269.60654 180.2795 
L 271.353676 180.345015 
L 273.103818 180.391746 
L 274.856162 180.424792 
L 276.610173 180.447636 
L 278.365473 180.462418 
L 280.121793 180.47056 
L 281.878932 180.472843 
L 283.63674 180.469548 
L 285.395101 180.460664 
L 287.153918 180.445729 
L 288.913115 180.424183 
L 290.672622 180.395458 
L 292.432393 180.359578 
" clip-path="url(#p41ce67b628)" style="fill: none; stroke: #ff0000; stroke-opacity: 0.2; stroke-width: 0.25; stroke-linecap: square"/>
   </g>
   <g id="line2d_72">
    <path d="M 243.8316 186.265818 
L 244.84612 185.022873 
L 245.959387 183.880827 
L 247.16398 182.844657 
L 248.453273 181.918824 
L 249.821384 181.107388 
L 251.263305 180.414607 
L 252.774707 179.845432 
L 254.348803 179.40714 
L 255.97576 179.107864 
L 257.642637 178.955066 
L 259.334128 178.955311 
L 261.033224 179.11325 
L 262.722109 179.431159 
L 264.407033 179.814989 
L 266.127195 180.044744 
L 267.862533 180.185519 
L 269.605232 180.278841 
L 271.352358 180.343896 
L 273.102499 180.390104 
L 274.854848 180.422605 
L 276.608869 180.444921 
L 278.364184 180.459232 
L 280.120523 180.466994 
L 281.877685 180.469017 
L 283.635519 180.465608 
L 285.39391 180.456771 
L 287.152761 180.442053 
L 288.911996 180.420893 
L 290.671546 180.392703 
L 292.431363 180.357471 
" clip-path="url(#p41ce67b628)" style="fill: none; stroke: #ff0000; stroke-opacity: 0.4; stroke-width: 0.25; stroke-linecap: square"/>
   </g>
   <g id="line2d_73">
    <path d="M 243.8316 186.265818 
L 244.846692 185.023341 
L 245.960515 183.881857 
L 247.165228 182.84587 
L 248.454025 181.919412 
L 249.821282 181.106635 
L 251.262315 180.412142 
L 252.773064 179.841413 
L 254.346686 179.401675 
L 255.973326 179.101062 
L 257.640093 178.94781 
L 259.331518 178.948608 
L 261.030412 179.108074 
L 262.719013 179.427217 
L 264.403749 179.811696 
L 266.123836 180.041822 
L 267.859148 180.1828 
L 269.601849 180.276191 
L 271.348996 180.341218 
L 273.099172 180.387342 
L 274.851568 180.419741 
L 276.605646 180.441979 
L 278.361026 180.456271 
L 280.117436 180.464105 
L 281.874676 180.466322 
L 283.632594 180.463249 
L 285.391074 180.45491 
L 287.15002 180.440859 
L 288.909355 180.42053 
L 290.669011 180.393319 
L 292.428942 180.359176 
" clip-path="url(#p41ce67b628)" style="fill: none; stroke: #ff0000; stroke-opacity: 0.6; stroke-width: 0.25; stroke-linecap: square"/>
   </g>
   <g id="line2d_74">
    <path d="M 243.8316 186.265818 
L 244.846845 185.023465 
L 245.960786 183.882115 
L 247.165456 182.846114 
L 248.453999 181.91936 
L 249.820885 181.106041 
L 251.261543 180.41088 
L 252.772 179.839527 
L 254.345398 179.399187 
L 255.971875 179.097991 
L 257.638561 178.944414 
L 259.32994 178.945171 
L 261.028776 179.104855 
L 262.717143 179.42508 
L 264.40175 179.810056 
L 266.121811 180.0404 
L 267.857139 180.181427 
L 269.599881 180.274733 
L 271.347088 180.339577 
L 273.097337 180.385459 
L 274.849818 180.417598 
L 276.60399 180.439594 
L 278.359473 180.453698 
L 280.115994 180.461431 
L 281.873351 180.463661 
L 283.63139 180.46074 
L 285.389998 180.452706 
L 287.149076 180.43912 
L 288.908548 180.419416 
L 290.668348 180.392972 
L 292.428427 180.359703 
" clip-path="url(#p41ce67b628)" style="fill: none; stroke: #ff0000; stroke-opacity: 0.8; stroke-width: 0.25; stroke-linecap: square"/>
   </g>
   <g id="line2d_75">
    <path d="M 243.8316 186.265818 
L 244.84627 185.022996 
L 245.959622 183.881088 
L 247.164056 182.844851 
L 248.452886 181.918554 
L 249.820361 181.106308 
L 251.261633 180.412532 
L 252.772499 179.842413 
L 254.346153 179.403198 
L 255.972761 179.103017 
L 257.639414 178.94967 
L 259.330744 178.949759 
L 261.029681 179.107913 
L 262.718158 179.427382 
L 264.402724 179.812444 
L 266.122806 180.042589 
L 267.858174 180.183258 
L 269.600968 180.276083 
L 271.348237 180.340363 
L 273.098558 180.385632 
L 274.851117 180.417151 
L 276.605374 180.438555 
L 278.360947 180.452128 
L 280.117564 180.459425 
L 281.875021 180.46134 
L 283.633165 180.458246 
L 285.391881 180.450195 
L 287.151071 180.436756 
L 288.91066 180.417359 
L 290.67058 180.391364 
L 292.430782 180.358653 
" clip-path="url(#p41ce67b628)" style="fill: none; stroke: #ff0000; stroke-width: 0.25; stroke-linecap: square"/>
   </g>
   <g id="line2d_76">
    <path d="M 230.492076 197.764025 
L 230.413905 200.059566 
L 230.324203 202.332091 
L 230.28089 204.588304 
L 230.277627 206.831547 
L 230.28996 209.065095 
L 230.302894 211.292133 
L 230.307468 213.515288 
L 230.306704 215.736587 
L 230.304636 217.957585 
L 230.303334 220.179417 
L 230.303137 222.402856 
L 230.303487 224.628387 
L 230.303897 226.856267 
L 230.304171 229.086573 
L 230.304306 231.319253 
L 230.304369 233.554164 
L 230.304404 235.791102 
L 230.304431 238.02983 
L 230.304448 240.2701 
L 230.304454 242.511663 
L 230.304445 244.754286 
L 230.304423 246.997752 
L 230.304389 249.241869 
L 230.304346 251.486465 
L 230.304294 253.731397 
L 230.304238 255.976536 
L 230.30421 258.221775 
L 230.30419 260.467021 
L 230.304177 262.712267 
L 230.304172 264.957514 
" clip-path="url(#p41ce67b628)" style="fill: none; stroke: #ff0000; stroke-opacity: 0.2; stroke-width: 0.25; stroke-linecap: square"/>
   </g>
   <g id="line2d_77">
    <path d="M 230.492076 197.764025 
L 230.413725 200.05956 
L 230.324026 202.332083 
L 230.28078 204.588296 
L 230.277588 206.831541 
L 230.28997 209.065091 
L 230.302931 211.292131 
L 230.307524 213.51529 
L 230.306778 215.736593 
L 230.304727 217.957595 
L 230.303438 220.179431 
L 230.303248 222.402874 
L 230.303599 224.628409 
L 230.304005 226.856292 
L 230.30427 229.086601 
L 230.304394 231.319284 
L 230.304444 233.554197 
L 230.304463 235.791136 
L 230.304474 238.029865 
L 230.304476 240.270135 
L 230.304466 242.511699 
L 230.304443 244.754322 
L 230.304408 246.997787 
L 230.304364 249.241903 
L 230.304312 251.486499 
L 230.304253 253.731429 
L 230.304192 255.976568 
L 230.304162 258.221808 
L 230.30414 260.467054 
L 230.304127 262.712302 
L 230.304121 264.95755 
" clip-path="url(#p41ce67b628)" style="fill: none; stroke: #ff0000; stroke-opacity: 0.4; stroke-width: 0.25; stroke-linecap: square"/>
   </g>
   <g id="line2d_78">
    <path d="M 230.492076 197.764025 
L 230.413542 200.059553 
L 230.323845 202.332074 
L 230.280663 204.588289 
L 230.277538 206.831534 
L 230.289965 209.065085 
L 230.30295 211.292127 
L 230.307558 213.515288 
L 230.306826 215.736594 
L 230.304787 217.957599 
L 230.303508 220.179437 
L 230.303323 222.402883 
L 230.303674 224.628421 
L 230.304074 226.856305 
L 230.304332 229.086616 
L 230.304445 231.319299 
L 230.304483 233.554213 
L 230.304491 235.791152 
L 230.30449 238.02988 
L 230.304481 240.270149 
L 230.304462 242.511711 
L 230.304431 244.754331 
L 230.304392 246.997794 
L 230.304344 249.241907 
L 230.304292 251.4865 
L 230.304235 253.731428 
L 230.304179 255.976564 
L 230.304155 258.221802 
L 230.304141 260.467047 
L 230.304137 262.712294 
L 230.304142 264.957542 
" clip-path="url(#p41ce67b628)" style="fill: none; stroke: #ff0000; stroke-opacity: 0.6; stroke-width: 0.25; stroke-linecap: square"/>
   </g>
   <g id="line2d_79">
    <path d="M 230.492076 197.764025 
L 230.413359 200.059547 
L 230.323662 202.332066 
L 230.280542 204.588281 
L 230.277484 206.831526 
L 230.289953 209.065078 
L 230.30296 211.292123 
L 230.30758 213.515287 
L 230.306859 215.736595 
L 230.304831 217.957603 
L 230.303559 220.179444 
L 230.303377 222.402892 
L 230.303726 224.628432 
L 230.30412 226.856318 
L 230.304369 229.08663 
L 230.304472 231.319315 
L 230.304498 233.554228 
L 230.304494 235.791167 
L 230.304482 238.029895 
L 230.304463 240.270163 
L 230.304436 242.511723 
L 230.304399 244.754341 
L 230.304355 246.997802 
L 230.304305 249.241912 
L 230.304253 251.486503 
L 230.304199 253.731428 
L 230.304147 255.976562 
L 230.304129 258.221798 
L 230.304123 260.467043 
L 230.304127 262.71229 
L 230.304141 264.957537 
" clip-path="url(#p41ce67b628)" style="fill: none; stroke: #ff0000; stroke-opacity: 0.8; stroke-width: 0.25; stroke-linecap: square"/>
   </g>
   <g id="line2d_80">
    <path d="M 230.492076 197.764025 
L 230.413176 200.059541 
L 230.323479 202.332057 
L 230.280421 204.588273 
L 230.277428 206.831519 
L 230.289939 209.065072 
L 230.302966 211.292119 
L 230.307598 213.515285 
L 230.306888 215.736596 
L 230.30487 217.957607 
L 230.303606 220.17945 
L 230.303426 222.402901 
L 230.303773 224.628443 
L 230.304163 226.856331 
L 230.304403 229.086644 
L 230.304496 231.31933 
L 230.304513 233.554243 
L 230.304499 235.791182 
L 230.304478 238.029909 
L 230.304451 240.270176 
L 230.304417 242.511735 
L 230.304375 244.754351 
L 230.304328 246.997809 
L 230.304279 249.241917 
L 230.304228 251.486505 
L 230.304177 253.731428 
L 230.304131 255.97656 
L 230.304119 258.221795 
L 230.30412 260.467038 
L 230.304133 262.712285 
L 230.304155 264.957533 
" clip-path="url(#p41ce67b628)" style="fill: none; stroke: #ff0000; stroke-width: 0.25; stroke-linecap: square"/>
   </g>
   <g id="line2d_81">
    <path d="M 228.432611 162.754351 
L 227.426935 164.002154 
L 226.322944 165.14983 
L 225.127869 166.192726 
L 223.848125 167.126754 
L 222.489045 167.94775 
L 221.055266 168.651442 
L 219.550752 169.232571 
L 217.982028 169.684038 
L 216.358629 169.99762 
L 214.693127 170.165043 
L 213.000789 170.17936 
L 211.298781 170.035378 
L 209.605239 169.730496 
L 207.93626 169.272497 
L 206.217179 169.01497 
L 204.480206 168.859658 
L 202.734938 168.760687 
L 200.985033 168.694328 
L 199.232147 168.648324 
L 197.477185 168.61633 
L 195.720686 168.594611 
L 193.963011 168.580887 
L 192.204416 168.573675 
L 190.445085 168.57222 
L 188.685159 168.576363 
L 186.924751 168.586537 
L 185.163948 168.603433 
L 183.402826 168.627707 
L 181.641444 168.65976 
L 179.879844 168.699613 
" clip-path="url(#p41ce67b628)" style="fill: none; stroke: #ff0000; stroke-opacity: 0.2; stroke-width: 0.25; stroke-linecap: square"/>
   </g>
   <g id="line2d_82">
    <path d="M 228.432611 162.754351 
L 227.427079 164.00227 
L 226.323183 165.150013 
L 225.12819 166.192953 
L 223.848529 167.127012 
L 222.489548 167.948052 
L 221.05587 168.651785 
L 219.551461 169.232953 
L 217.982834 169.684431 
L 216.359529 169.997984 
L 214.694122 170.165349 
L 213.001886 170.179571 
L 211.299988 170.035477 
L 209.606569 169.73047 
L 207.937724 169.272339 
L 206.218705 169.014976 
L 204.481778 168.860021 
L 202.73655 168.761559 
L 200.986683 168.695813 
L 199.233833 168.650481 
L 197.478906 168.61917 
L 195.722441 168.598102 
L 193.964801 168.584957 
L 192.206238 168.578214 
L 190.44694 168.577086 
L 188.687046 168.581389 
L 186.926667 168.591536 
L 185.165891 168.608212 
L 183.404793 168.632075 
L 181.64343 168.663548 
L 179.881845 168.702692 
" clip-path="url(#p41ce67b628)" style="fill: none; stroke: #ff0000; stroke-opacity: 0.4; stroke-width: 0.25; stroke-linecap: square"/>
   </g>
   <g id="line2d_83">
    <path d="M 228.432611 162.754351 
L 227.428682 164.00356 
L 226.325643 165.152109 
L 225.131216 166.195659 
L 223.851983 167.130247 
L 222.493499 167.952024 
L 221.06025 168.656517 
L 219.556186 169.238421 
L 217.987736 169.690297 
L 216.364475 170.003759 
L 214.699086 170.170688 
L 213.0069 170.184064 
L 211.305138 170.039004 
L 209.611956 169.732939 
L 207.943316 169.274194 
L 206.224369 169.016494 
L 204.487465 168.861384 
L 202.742233 168.762912 
L 200.992344 168.697259 
L 199.239463 168.652076 
L 197.484495 168.620926 
L 195.727983 168.599988 
L 193.97029 168.586901 
L 192.21167 168.580109 
L 190.45231 168.578795 
L 188.692349 168.582747 
L 186.9319 168.592364 
L 185.171049 168.608319 
L 183.409869 168.631278 
L 181.648417 168.661681 
L 179.886737 168.699632 
" clip-path="url(#p41ce67b628)" style="fill: none; stroke: #ff0000; stroke-opacity: 0.6; stroke-width: 0.25; stroke-linecap: square"/>
   </g>
   <g id="line2d_84">
    <path d="M 228.432611 162.754351 
L 227.429203 164.003978 
L 226.326445 165.152784 
L 225.132208 166.196524 
L 223.853126 167.131275 
L 222.494819 167.953287 
L 221.06173 168.658026 
L 219.557801 169.240176 
L 217.989433 169.692196 
L 216.366208 170.005653 
L 214.700842 170.17248 
L 213.008683 170.185636 
L 211.306961 170.040336 
L 209.613835 169.734016 
L 207.945268 169.274993 
L 206.226301 169.0173 
L 204.489343 168.862376 
L 202.74404 168.76423 
L 200.994068 168.698999 
L 199.241094 168.654292 
L 197.486026 168.623626 
L 195.729408 168.603138 
L 193.971602 168.590431 
L 192.212865 168.583911 
L 190.453383 168.582733 
L 188.693298 168.58666 
L 186.932719 168.596073 
L 185.171735 168.611639 
L 183.410417 168.634026 
L 181.648821 168.663696 
L 179.88699 168.700793 
" clip-path="url(#p41ce67b628)" style="fill: none; stroke: #ff0000; stroke-opacity: 0.8; stroke-width: 0.25; stroke-linecap: square"/>
   </g>
   <g id="line2d_85">
    <path d="M 228.432611 162.754351 
L 227.427876 164.002912 
L 226.324455 165.151065 
L 225.129817 166.194316 
L 223.850458 167.128642 
L 222.491821 167.950039 
L 221.058462 168.654137 
L 219.554337 169.235657 
L 217.985918 169.687332 
L 216.362754 170.000858 
L 214.697469 170.168038 
L 213.005356 170.181887 
L 211.303604 170.037361 
L 209.610355 169.731873 
L 207.941788 169.272918 
L 206.222769 169.015596 
L 204.485755 168.8612 
L 202.740394 168.763695 
L 200.990363 168.699176 
L 199.237326 168.655206 
L 197.482193 168.625263 
L 195.725506 168.605443 
L 193.96763 168.593312 
L 192.208819 168.587246 
L 190.449262 168.586369 
L 188.689098 168.590424 
L 186.928439 168.599777 
L 185.16737 168.615088 
L 183.405964 168.637033 
L 181.644276 168.666093 
L 179.882348 168.702456 
" clip-path="url(#p41ce67b628)" style="fill: none; stroke: #ff0000; stroke-width: 0.25; stroke-linecap: square"/>
   </g>
   <g id="line2d_86">
    <path d="M 224.006855 181.661386 
L 225.376729 182.702423 
L 226.633663 183.860194 
L 227.767958 185.121153 
L 228.773163 186.472855 
L 229.6451 187.904543 
L 230.380781 189.407415 
L 230.977151 190.974551 
L 231.429652 192.5975 
L 231.732714 194.265524 
L 231.880768 195.965392 
L 231.869174 197.681883 
L 231.6949 199.398347 
L 231.356993 201.097422 
L 230.924224 202.780613 
L 230.671858 204.50455 
L 230.512954 206.242938 
L 230.405602 207.987828 
L 230.330435 209.736403 
L 230.277449 211.487389 
L 230.24005 213.240073 
L 230.214369 214.994026 
L 230.197927 216.748974 
L 230.189204 218.504726 
L 230.187428 220.261145 
L 230.192445 222.018126 
L 230.204588 223.775581 
L 230.224472 225.533433 
L 230.252737 227.291613 
L 230.289839 229.050054 
L 230.335821 230.808704 
" clip-path="url(#p41ce67b628)" style="fill: none; stroke: #ff0000; stroke-opacity: 0.2; stroke-width: 0.25; stroke-linecap: square"/>
   </g>
   <g id="line2d_87">
    <path d="M 224.006855 181.661386 
L 225.376835 182.702284 
L 226.633879 183.859912 
L 227.768293 185.120724 
L 228.77362 186.472283 
L 229.645666 187.903842 
L 230.381415 189.406608 
L 230.977805 190.973659 
L 231.430258 192.596539 
L 231.733202 194.264496 
L 231.881084 195.964288 
L 231.869302 197.680685 
L 231.694876 199.397039 
L 231.356899 201.096003 
L 230.923966 202.779056 
L 230.671743 204.502921 
L 230.513191 206.241253 
L 230.406359 207.986092 
L 230.331829 209.734614 
L 230.279549 211.485545 
L 230.242872 213.23817 
L 230.217885 214.992063 
L 230.202063 216.746948 
L 230.193847 218.502636 
L 230.192431 220.25899 
L 230.197632 222.015906 
L 230.209764 223.773298 
L 230.229433 225.531089 
L 230.257284 227.289212 
L 230.293793 229.047601 
L 230.339049 230.806205 
" clip-path="url(#p41ce67b628)" style="fill: none; stroke: #ff0000; stroke-opacity: 0.4; stroke-width: 0.25; stroke-linecap: square"/>
   </g>
   <g id="line2d_88">
    <path d="M 224.006855 181.661386 
L 225.377868 182.700923 
L 226.636137 183.857204 
L 227.771978 185.116704 
L 228.778876 186.46706 
L 229.652413 187.89767 
L 230.389225 189.399874 
L 230.98611 190.966691 
L 231.438264 192.589608 
L 231.740121 194.257717 
L 231.886356 195.957606 
L 231.872837 197.673948 
L 231.697219 199.390141 
L 231.359174 201.089058 
L 230.925547 202.771905 
L 230.672916 204.495693 
L 230.514161 206.233999 
L 230.40729 207.978838 
L 230.332839 209.727376 
L 230.280706 211.478331 
L 230.244198 213.230988 
L 230.219352 214.984916 
L 230.203603 216.739841 
L 230.195351 218.495573 
L 230.193756 220.251975 
L 230.19861 222.008942 
L 230.210205 223.76639 
L 230.229139 225.524244 
L 230.256061 227.282435 
L 230.291469 229.040902 
L 230.335493 230.799593 
" clip-path="url(#p41ce67b628)" style="fill: none; stroke: #ff0000; stroke-opacity: 0.6; stroke-width: 0.25; stroke-linecap: square"/>
   </g>
   <g id="line2d_89">
    <path d="M 224.006855 181.661386 
L 225.378193 182.700494 
L 226.636848 183.856344 
L 227.773141 185.115421 
L 228.780538 186.465385 
L 229.654552 187.895683 
L 230.391701 189.397698 
L 230.988742 190.964435 
L 231.440797 192.587359 
L 231.742309 194.255513 
L 231.888028 195.955434 
L 231.873978 197.671764 
L 231.698016 199.387921 
L 231.359996 201.086852 
L 230.926061 202.769639 
L 230.673413 204.493458 
L 230.514841 206.231828 
L 230.408315 207.976747 
L 230.334323 209.725376 
L 230.282714 211.47643 
L 230.246748 213.229191 
L 230.222417 214.983228 
L 230.207112 216.738265 
L 230.199197 218.494114 
L 230.197798 220.250635 
L 230.20268 222.007727 
L 230.214117 223.765302 
L 230.232699 225.523289 
L 230.259078 227.281618 
L 230.293773 229.04023 
L 230.336956 230.799072 
" clip-path="url(#p41ce67b628)" style="fill: none; stroke: #ff0000; stroke-opacity: 0.8; stroke-width: 0.25; stroke-linecap: square"/>
   </g>
   <g id="line2d_90">
    <path d="M 224.006855 181.661386 
L 225.377364 182.701588 
L 226.635017 183.858515 
L 227.770126 185.11864 
L 228.776204 186.469561 
L 229.648953 187.900602 
L 230.385195 189.403031 
L 230.981801 190.969902 
L 231.434085 192.59273 
L 231.736482 194.260692 
L 231.883539 195.960469 
L 231.870867 197.676785 
L 231.695768 199.393009 
L 231.357593 201.091894 
L 230.923745 202.774695 
L 230.671486 204.498571 
L 230.513477 206.237003 
L 230.407644 207.981985 
L 230.334428 209.730674 
L 230.283632 211.481788 
L 230.248469 213.234608 
L 230.22489 214.988704 
L 230.210245 216.743801 
L 230.202862 218.499709 
L 230.201837 220.256293 
L 230.206911 222.013447 
L 230.21834 223.771089 
L 230.236709 225.529145 
L 230.262677 227.287548 
L 230.296784 229.046239 
L 230.339247 230.805166 
" clip-path="url(#p41ce67b628)" style="fill: none; stroke: #ff0000; stroke-width: 0.25; stroke-linecap: square"/>
   </g>
   <g id="patch_15">
    <path d="M 103.104 307.584 
L 103.104 41.472 
" style="fill: none; stroke: #000000; stroke-width: 0.8; stroke-linejoin: miter; stroke-linecap: square"/>
   </g>
   <g id="patch_16">
    <path d="M 369.216 307.584 
L 369.216 41.472 
" style="fill: none; stroke: #000000; stroke-width: 0.8; stroke-linejoin: miter; stroke-linecap: square"/>
   </g>
   <g id="patch_17">
    <path d="M 103.104 307.584 
L 369.216 307.584 
" style="fill: none; stroke: #000000; stroke-width: 0.8; stroke-linejoin: miter; stroke-linecap: square"/>
   </g>
   <g id="patch_18">
    <path d="M 103.104 41.472 
L 369.216 41.472 
" style="fill: none; stroke: #000000; stroke-width: 0.8; stroke-linejoin: miter; stroke-linecap: square"/>
   </g>
   <g id="text_19">
    <!-- Time:  78 ms -->
    <g transform="translate(264.253887 54.7776) scale(0.1 -0.1)">
     <defs>
      <path id="DejaVuSans-54" d="M -19 4666 
L 3928 4666 
L 3928 4134 
L 2272 4134 
L 2272 0 
L 1638 0 
L 1638 4134 
L -19 4134 
L -19 4666 
z
" transform="scale(0.015625)"/>
      <path id="DejaVuSans-69" d="M 603 3500 
L 1178 3500 
L 1178 0 
L 603 0 
L 603 3500 
z
M 603 4863 
L 1178 4863 
L 1178 4134 
L 603 4134 
L 603 4863 
z
" transform="scale(0.015625)"/>
      <path id="DejaVuSans-6d" d="M 3328 2828 
Q 3544 3216 3844 3400 
Q 4144 3584 4550 3584 
Q 5097 3584 5394 3201 
Q 5691 2819 5691 2113 
L 5691 0 
L 5113 0 
L 5113 2094 
Q 5113 2597 4934 2840 
Q 4756 3084 4391 3084 
Q 3944 3084 3684 2787 
Q 3425 2491 3425 1978 
L 3425 0 
L 2847 0 
L 2847 2094 
Q 2847 2600 2669 2842 
Q 2491 3084 2119 3084 
Q 1678 3084 1418 2786 
Q 1159 2488 1159 1978 
L 1159 0 
L 581 0 
L 581 3500 
L 1159 3500 
L 1159 2956 
Q 1356 3278 1631 3431 
Q 1906 3584 2284 3584 
Q 2666 3584 2933 3390 
Q 3200 3197 3328 2828 
z
" transform="scale(0.015625)"/>
      <path id="DejaVuSans-65" d="M 3597 1894 
L 3597 1613 
L 953 1613 
Q 991 1019 1311 708 
Q 1631 397 2203 397 
Q 2534 397 2845 478 
Q 3156 559 3463 722 
L 3463 178 
Q 3153 47 2828 -22 
Q 2503 -91 2169 -91 
Q 1331 -91 842 396 
Q 353 884 353 1716 
Q 353 2575 817 3079 
Q 1281 3584 2069 3584 
Q 2775 3584 3186 3129 
Q 3597 2675 3597 1894 
z
M 3022 2063 
Q 3016 2534 2758 2815 
Q 2500 3097 2075 3097 
Q 1594 3097 1305 2825 
Q 1016 2553 972 2059 
L 3022 2063 
z
" transform="scale(0.015625)"/>
      <path id="DejaVuSans-3a" d="M 750 794 
L 1409 794 
L 1409 0 
L 750 0 
L 750 794 
z
M 750 3309 
L 1409 3309 
L 1409 2516 
L 750 2516 
L 750 3309 
z
" transform="scale(0.015625)"/>
      <path id="DejaVuSans-20" transform="scale(0.015625)"/>
      <path id="DejaVuSans-37" d="M 525 4666 
L 3525 4666 
L 3525 4397 
L 1831 0 
L 1172 0 
L 2766 4134 
L 525 4134 
L 525 4666 
z
" transform="scale(0.015625)"/>
      <path id="DejaVuSans-38" d="M 2034 2216 
Q 1584 2216 1326 1975 
Q 1069 1734 1069 1313 
Q 1069 891 1326 650 
Q 1584 409 2034 409 
Q 2484 409 2743 651 
Q 3003 894 3003 1313 
Q 3003 1734 2745 1975 
Q 2488 2216 2034 2216 
z
M 1403 2484 
Q 997 2584 770 2862 
Q 544 3141 544 3541 
Q 544 4100 942 4425 
Q 1341 4750 2034 4750 
Q 2731 4750 3128 4425 
Q 3525 4100 3525 3541 
Q 3525 3141 3298 2862 
Q 3072 2584 2669 2484 
Q 3125 2378 3379 2068 
Q 3634 1759 3634 1313 
Q 3634 634 3220 271 
Q 2806 -91 2034 -91 
Q 1263 -91 848 271 
Q 434 634 434 1313 
Q 434 1759 690 2068 
Q 947 2378 1403 2484 
z
M 1172 3481 
Q 1172 3119 1398 2916 
Q 1625 2713 2034 2713 
Q 2441 2713 2670 2916 
Q 2900 3119 2900 3481 
Q 2900 3844 2670 4047 
Q 2441 4250 2034 4250 
Q 1625 4250 1398 4047 
Q 1172 3844 1172 3481 
z
" transform="scale(0.015625)"/>
      <path id="DejaVuSans-73" d="M 2834 3397 
L 2834 2853 
Q 2591 2978 2328 3040 
Q 2066 3103 1784 3103 
Q 1356 3103 1142 2972 
Q 928 2841 928 2578 
Q 928 2378 1081 2264 
Q 1234 2150 1697 2047 
L 1894 2003 
Q 2506 1872 2764 1633 
Q 3022 1394 3022 966 
Q 3022 478 2636 193 
Q 2250 -91 1575 -91 
Q 1294 -91 989 -36 
Q 684 19 347 128 
L 347 722 
Q 666 556 975 473 
Q 1284 391 1588 391 
Q 1994 391 2212 530 
Q 2431 669 2431 922 
Q 2431 1156 2273 1281 
Q 2116 1406 1581 1522 
L 1381 1569 
Q 847 1681 609 1914 
Q 372 2147 372 2553 
Q 372 3047 722 3315 
Q 1072 3584 1716 3584 
Q 2034 3584 2315 3537 
Q 2597 3491 2834 3397 
z
" transform="scale(0.015625)"/>
     </defs>
     <use xlink:href="#DejaVuSans-54"/>
     <use xlink:href="#DejaVuSans-69" x="57.958984"/>
     <use xlink:href="#DejaVuSans-6d" x="85.742188"/>
     <use xlink:href="#DejaVuSans-65" x="183.154297"/>
     <use xlink:href="#DejaVuSans-3a" x="244.677734"/>
     <use xlink:href="#DejaVuSans-20" x="278.369141"/>
     <use xlink:href="#DejaVuSans-20" x="310.15625"/>
     <use xlink:href="#DejaVuSans-37" x="341.943359"/>
     <use xlink:href="#DejaVuSans-38" x="405.566406"/>
     <use xlink:href="#DejaVuSans-20" x="469.189453"/>
     <use xlink:href="#DejaVuSans-6d" x="500.976562"/>
     <use xlink:href="#DejaVuSans-73" x="598.388672"/>
    </g>
   </g>
  </g>
 </g>
 <defs>
  <clipPath id="p41ce67b628">
   <rect x="103.104" y="41.472" width="266.112" height="266.112"/>
  </clipPath>
 </defs>
</svg>
