<?xml version="1.0" encoding="utf-8" standalone="no"?>
<!DOCTYPE svg PUBLIC "-//W3C//DTD SVG 1.1//EN"
  "http://www.w3.org/Graphics/SVG/1.1/DTD/svg11.dtd">
<svg xmlns:xlink="http://www.w3.org/1999/xlink" width="460.8pt" height="345.6pt" viewBox="0 0 460.8 345.6" xmlns="http://www.w3.org/2000/svg" version="1.1">
 <metadata>
  <rdf:RDF xmlns:dc="http://purl.org/dc/elements/1.1/" xmlns:cc="http://creativecommons.org/ns#" xmlns:rdf="http://www.w3.org/1999/02/22-rdf-syntax-ns#">
   <cc:Work>
    <dc:type rdf:resource="http://purl.org/dc/dcmitype/StillImage"/>
    <dc:date>2024-01-23T15:32:50.810354</dc:date>
    <dc:format>image/svg+xml</dc:format>
    <dc:creator>
     <cc:Agent>
      <dc:title>Matplotlib v3.8.2, https://matplotlib.org/</dc:title>
     </cc:Agent>
    </dc:creator>
   </cc:Work>
  </rdf:RDF>
 </metadata>
 <defs>
  <style type="text/css">*{stroke-linejoin: round; stroke-linecap: butt}</style>
 </defs>
 <g id="figure_1">
  <g id="patch_1">
   <path d="M 0 345.6 
L 460.8 345.6 
L 460.8 0 
L 0 0 
z
" style="fill: #ffffff"/>
  </g>
  <g id="axes_1">
   <g id="patch_2">
    <path d="M 103.104 307.584 
L 369.216 307.584 
L 369.216 41.472 
L 103.104 41.472 
z
" style="fill: #ffffff"/>
   </g>
   <g id="patch_3">
    <path d="M 117.923858 166.189201 
L 106.281458 166.189199 
L 106.281457 171.844079 
L 117.923857 171.844081 
z
" clip-path="url(#pecab6359bf)" style="fill: #00008b"/>
   </g>
   <g id="patch_4">
    <path d="M 244.4988 51.71547 
L 244.4988 40.07307 
L 238.84392 40.07307 
L 238.84392 51.71547 
z
" clip-path="url(#pecab6359bf)" style="fill: #800000"/>
   </g>
   <g id="patch_5">
    <path d="M 227.8212 293.853341 
L 227.821199 305.495741 
L 233.476079 305.495741 
L 233.47608 293.853341 
z
" clip-path="url(#pecab6359bf)" style="fill: #006400"/>
   </g>
   <g id="patch_6">
    <path d="M 355.485343 182.8668 
L 367.127743 182.866801 
L 367.127743 177.211921 
L 355.485343 177.21192 
z
" clip-path="url(#pecab6359bf)" style="fill: #4b0082"/>
   </g>
   <g id="patch_7">
    <path d="M 244.498804 87.874249 
L 244.498757 76.231849 
L 238.843877 76.231872 
L 238.843924 87.874272 
z
" clip-path="url(#pecab6359bf)" style="fill: #0000ff"/>
   </g>
   <g id="patch_8">
    <path d="M 149.506616 166.189204 
L 137.864216 166.189231 
L 137.864229 171.844111 
L 149.506629 171.844084 
z
" clip-path="url(#pecab6359bf)" style="fill: #ff0000"/>
   </g>
   <g id="patch_9">
    <path d="M 321.299401 182.866817 
L 332.941801 182.866746 
L 332.941767 177.211866 
L 321.299367 177.211937 
z
" clip-path="url(#pecab6359bf)" style="fill: #dbdc56"/>
   </g>
   <g id="patch_10">
    <path d="M 244.49891 114.808001 
L 244.498775 103.165601 
L 238.843895 103.165667 
L 238.84403 114.808067 
z
" clip-path="url(#pecab6359bf)" style="fill: #9400d3"/>
   </g>
   <g id="patch_11">
    <path d="M 293.075363 182.86599 
L 304.717763 182.867828 
L 304.718655 177.212948 
L 293.076256 177.21111 
z
" clip-path="url(#pecab6359bf)" style="fill: #1e90ff"/>
   </g>
   <g id="patch_12">
    <path d="M 227.822857 251.944578 
L 227.820649 263.586977 
L 233.475529 263.58805 
L 233.477736 251.94565 
z
" clip-path="url(#pecab6359bf)" style="fill: #ff4500"/>
   </g>
   <g id="patch_13">
    <path d="M 179.244624 166.190154 
L 167.602225 166.18806 
L 167.601207 171.84294 
L 179.243607 171.845034 
z
" clip-path="url(#pecab6359bf)" style="fill: #7cfc00"/>
   </g>
   <g id="patch_14">
    <path d="M 227.82131 231.496139 
L 227.819958 243.138539 
L 233.474838 243.139196 
L 233.47619 231.496796 
z
" clip-path="url(#pecab6359bf)" style="fill: #ff00ff"/>
   </g>
   <g id="matplotlib.axis_1">
    <g id="xtick_1">
     <g id="line2d_1">
      <defs>
       <path id="m6b56cc06bf" d="M 0 0 
L 0 3.5 
" style="stroke: #000000; stroke-width: 0.8"/>
      </defs>
      <g>
       <use xlink:href="#m6b56cc06bf" x="103.104" y="307.584" style="stroke: #000000; stroke-width: 0.8"/>
      </g>
     </g>
     <g id="text_1">
      <!-- −40 -->
      <g transform="translate(92.551656 322.182437) scale(0.1 -0.1)">
       <defs>
        <path id="DejaVuSans-2212" d="M 678 2272 
L 4684 2272 
L 4684 1741 
L 678 1741 
L 678 2272 
z
" transform="scale(0.015625)"/>
        <path id="DejaVuSans-34" d="M 2419 4116 
L 825 1625 
L 2419 1625 
L 2419 4116 
z
M 2253 4666 
L 3047 4666 
L 3047 1625 
L 3713 1625 
L 3713 1100 
L 3047 1100 
L 3047 0 
L 2419 0 
L 2419 1100 
L 313 1100 
L 313 1709 
L 2253 4666 
z
" transform="scale(0.015625)"/>
        <path id="DejaVuSans-30" d="M 2034 4250 
Q 1547 4250 1301 3770 
Q 1056 3291 1056 2328 
Q 1056 1369 1301 889 
Q 1547 409 2034 409 
Q 2525 409 2770 889 
Q 3016 1369 3016 2328 
Q 3016 3291 2770 3770 
Q 2525 4250 2034 4250 
z
M 2034 4750 
Q 2819 4750 3233 4129 
Q 3647 3509 3647 2328 
Q 3647 1150 3233 529 
Q 2819 -91 2034 -91 
Q 1250 -91 836 529 
Q 422 1150 422 2328 
Q 422 3509 836 4129 
Q 1250 4750 2034 4750 
z
" transform="scale(0.015625)"/>
       </defs>
       <use xlink:href="#DejaVuSans-2212"/>
       <use xlink:href="#DejaVuSans-34" x="83.789062"/>
       <use xlink:href="#DejaVuSans-30" x="147.412109"/>
      </g>
     </g>
    </g>
    <g id="xtick_2">
     <g id="line2d_2">
      <g>
       <use xlink:href="#m6b56cc06bf" x="136.368" y="307.584" style="stroke: #000000; stroke-width: 0.8"/>
      </g>
     </g>
     <g id="text_2">
      <!-- −30 -->
      <g transform="translate(125.815656 322.182437) scale(0.1 -0.1)">
       <defs>
        <path id="DejaVuSans-33" d="M 2597 2516 
Q 3050 2419 3304 2112 
Q 3559 1806 3559 1356 
Q 3559 666 3084 287 
Q 2609 -91 1734 -91 
Q 1441 -91 1130 -33 
Q 819 25 488 141 
L 488 750 
Q 750 597 1062 519 
Q 1375 441 1716 441 
Q 2309 441 2620 675 
Q 2931 909 2931 1356 
Q 2931 1769 2642 2001 
Q 2353 2234 1838 2234 
L 1294 2234 
L 1294 2753 
L 1863 2753 
Q 2328 2753 2575 2939 
Q 2822 3125 2822 3475 
Q 2822 3834 2567 4026 
Q 2313 4219 1838 4219 
Q 1578 4219 1281 4162 
Q 984 4106 628 3988 
L 628 4550 
Q 988 4650 1302 4700 
Q 1616 4750 1894 4750 
Q 2613 4750 3031 4423 
Q 3450 4097 3450 3541 
Q 3450 3153 3228 2886 
Q 3006 2619 2597 2516 
z
" transform="scale(0.015625)"/>
       </defs>
       <use xlink:href="#DejaVuSans-2212"/>
       <use xlink:href="#DejaVuSans-33" x="83.789062"/>
       <use xlink:href="#DejaVuSans-30" x="147.412109"/>
      </g>
     </g>
    </g>
    <g id="xtick_3">
     <g id="line2d_3">
      <g>
       <use xlink:href="#m6b56cc06bf" x="169.632" y="307.584" style="stroke: #000000; stroke-width: 0.8"/>
      </g>
     </g>
     <g id="text_3">
      <!-- −20 -->
      <g transform="translate(159.079656 322.182437) scale(0.1 -0.1)">
       <defs>
        <path id="DejaVuSans-32" d="M 1228 531 
L 3431 531 
L 3431 0 
L 469 0 
L 469 531 
Q 828 903 1448 1529 
Q 2069 2156 2228 2338 
Q 2531 2678 2651 2914 
Q 2772 3150 2772 3378 
Q 2772 3750 2511 3984 
Q 2250 4219 1831 4219 
Q 1534 4219 1204 4116 
Q 875 4013 500 3803 
L 500 4441 
Q 881 4594 1212 4672 
Q 1544 4750 1819 4750 
Q 2544 4750 2975 4387 
Q 3406 4025 3406 3419 
Q 3406 3131 3298 2873 
Q 3191 2616 2906 2266 
Q 2828 2175 2409 1742 
Q 1991 1309 1228 531 
z
" transform="scale(0.015625)"/>
       </defs>
       <use xlink:href="#DejaVuSans-2212"/>
       <use xlink:href="#DejaVuSans-32" x="83.789062"/>
       <use xlink:href="#DejaVuSans-30" x="147.412109"/>
      </g>
     </g>
    </g>
    <g id="xtick_4">
     <g id="line2d_4">
      <g>
       <use xlink:href="#m6b56cc06bf" x="202.896" y="307.584" style="stroke: #000000; stroke-width: 0.8"/>
      </g>
     </g>
     <g id="text_4">
      <!-- −10 -->
      <g transform="translate(192.343656 322.182437) scale(0.1 -0.1)">
       <defs>
        <path id="DejaVuSans-31" d="M 794 531 
L 1825 531 
L 1825 4091 
L 703 3866 
L 703 4441 
L 1819 4666 
L 2450 4666 
L 2450 531 
L 3481 531 
L 3481 0 
L 794 0 
L 794 531 
z
" transform="scale(0.015625)"/>
       </defs>
       <use xlink:href="#DejaVuSans-2212"/>
       <use xlink:href="#DejaVuSans-31" x="83.789062"/>
       <use xlink:href="#DejaVuSans-30" x="147.412109"/>
      </g>
     </g>
    </g>
    <g id="xtick_5">
     <g id="line2d_5">
      <g>
       <use xlink:href="#m6b56cc06bf" x="236.16" y="307.584" style="stroke: #000000; stroke-width: 0.8"/>
      </g>
     </g>
     <g id="text_5">
      <!-- 0 -->
      <g transform="translate(232.97875 322.182437) scale(0.1 -0.1)">
       <use xlink:href="#DejaVuSans-30"/>
      </g>
     </g>
    </g>
    <g id="xtick_6">
     <g id="line2d_6">
      <g>
       <use xlink:href="#m6b56cc06bf" x="269.424" y="307.584" style="stroke: #000000; stroke-width: 0.8"/>
      </g>
     </g>
     <g id="text_6">
      <!-- 10 -->
      <g transform="translate(263.0615 322.182437) scale(0.1 -0.1)">
       <use xlink:href="#DejaVuSans-31"/>
       <use xlink:href="#DejaVuSans-30" x="63.623047"/>
      </g>
     </g>
    </g>
    <g id="xtick_7">
     <g id="line2d_7">
      <g>
       <use xlink:href="#m6b56cc06bf" x="302.688" y="307.584" style="stroke: #000000; stroke-width: 0.8"/>
      </g>
     </g>
     <g id="text_7">
      <!-- 20 -->
      <g transform="translate(296.3255 322.182437) scale(0.1 -0.1)">
       <use xlink:href="#DejaVuSans-32"/>
       <use xlink:href="#DejaVuSans-30" x="63.623047"/>
      </g>
     </g>
    </g>
    <g id="xtick_8">
     <g id="line2d_8">
      <g>
       <use xlink:href="#m6b56cc06bf" x="335.952" y="307.584" style="stroke: #000000; stroke-width: 0.8"/>
      </g>
     </g>
     <g id="text_8">
      <!-- 30 -->
      <g transform="translate(329.5895 322.182437) scale(0.1 -0.1)">
       <use xlink:href="#DejaVuSans-33"/>
       <use xlink:href="#DejaVuSans-30" x="63.623047"/>
      </g>
     </g>
    </g>
    <g id="xtick_9">
     <g id="line2d_9">
      <g>
       <use xlink:href="#m6b56cc06bf" x="369.216" y="307.584" style="stroke: #000000; stroke-width: 0.8"/>
      </g>
     </g>
     <g id="text_9">
      <!-- 40 -->
      <g transform="translate(362.8535 322.182437) scale(0.1 -0.1)">
       <use xlink:href="#DejaVuSans-34"/>
       <use xlink:href="#DejaVuSans-30" x="63.623047"/>
      </g>
     </g>
    </g>
   </g>
   <g id="matplotlib.axis_2">
    <g id="ytick_1">
     <g id="line2d_10">
      <defs>
       <path id="mf342d9b8a1" d="M 0 0 
L -3.5 0 
" style="stroke: #000000; stroke-width: 0.8"/>
      </defs>
      <g>
       <use xlink:href="#mf342d9b8a1" x="103.104" y="307.584" style="stroke: #000000; stroke-width: 0.8"/>
      </g>
     </g>
     <g id="text_10">
      <!-- −40 -->
      <g transform="translate(74.999313 311.383219) scale(0.1 -0.1)">
       <use xlink:href="#DejaVuSans-2212"/>
       <use xlink:href="#DejaVuSans-34" x="83.789062"/>
       <use xlink:href="#DejaVuSans-30" x="147.412109"/>
      </g>
     </g>
    </g>
    <g id="ytick_2">
     <g id="line2d_11">
      <g>
       <use xlink:href="#mf342d9b8a1" x="103.104" y="274.32" style="stroke: #000000; stroke-width: 0.8"/>
      </g>
     </g>
     <g id="text_11">
      <!-- −30 -->
      <g transform="translate(74.999313 278.119219) scale(0.1 -0.1)">
       <use xlink:href="#DejaVuSans-2212"/>
       <use xlink:href="#DejaVuSans-33" x="83.789062"/>
       <use xlink:href="#DejaVuSans-30" x="147.412109"/>
      </g>
     </g>
    </g>
    <g id="ytick_3">
     <g id="line2d_12">
      <g>
       <use xlink:href="#mf342d9b8a1" x="103.104" y="241.056" style="stroke: #000000; stroke-width: 0.8"/>
      </g>
     </g>
     <g id="text_12">
      <!-- −20 -->
      <g transform="translate(74.999313 244.855219) scale(0.1 -0.1)">
       <use xlink:href="#DejaVuSans-2212"/>
       <use xlink:href="#DejaVuSans-32" x="83.789062"/>
       <use xlink:href="#DejaVuSans-30" x="147.412109"/>
      </g>
     </g>
    </g>
    <g id="ytick_4">
     <g id="line2d_13">
      <g>
       <use xlink:href="#mf342d9b8a1" x="103.104" y="207.792" style="stroke: #000000; stroke-width: 0.8"/>
      </g>
     </g>
     <g id="text_13">
      <!-- −10 -->
      <g transform="translate(74.999313 211.591219) scale(0.1 -0.1)">
       <use xlink:href="#DejaVuSans-2212"/>
       <use xlink:href="#DejaVuSans-31" x="83.789062"/>
       <use xlink:href="#DejaVuSans-30" x="147.412109"/>
      </g>
     </g>
    </g>
    <g id="ytick_5">
     <g id="line2d_14">
      <g>
       <use xlink:href="#mf342d9b8a1" x="103.104" y="174.528" style="stroke: #000000; stroke-width: 0.8"/>
      </g>
     </g>
     <g id="text_14">
      <!-- 0 -->
      <g transform="translate(89.7415 178.327219) scale(0.1 -0.1)">
       <use xlink:href="#DejaVuSans-30"/>
      </g>
     </g>
    </g>
    <g id="ytick_6">
     <g id="line2d_15">
      <g>
       <use xlink:href="#mf342d9b8a1" x="103.104" y="141.264" style="stroke: #000000; stroke-width: 0.8"/>
      </g>
     </g>
     <g id="text_15">
      <!-- 10 -->
      <g transform="translate(83.379 145.063219) scale(0.1 -0.1)">
       <use xlink:href="#DejaVuSans-31"/>
       <use xlink:href="#DejaVuSans-30" x="63.623047"/>
      </g>
     </g>
    </g>
    <g id="ytick_7">
     <g id="line2d_16">
      <g>
       <use xlink:href="#mf342d9b8a1" x="103.104" y="108" style="stroke: #000000; stroke-width: 0.8"/>
      </g>
     </g>
     <g id="text_16">
      <!-- 20 -->
      <g transform="translate(83.379 111.799219) scale(0.1 -0.1)">
       <use xlink:href="#DejaVuSans-32"/>
       <use xlink:href="#DejaVuSans-30" x="63.623047"/>
      </g>
     </g>
    </g>
    <g id="ytick_8">
     <g id="line2d_17">
      <g>
       <use xlink:href="#mf342d9b8a1" x="103.104" y="74.736" style="stroke: #000000; stroke-width: 0.8"/>
      </g>
     </g>
     <g id="text_17">
      <!-- 30 -->
      <g transform="translate(83.379 78.535219) scale(0.1 -0.1)">
       <use xlink:href="#DejaVuSans-33"/>
       <use xlink:href="#DejaVuSans-30" x="63.623047"/>
      </g>
     </g>
    </g>
    <g id="ytick_9">
     <g id="line2d_18">
      <g>
       <use xlink:href="#mf342d9b8a1" x="103.104" y="41.472" style="stroke: #000000; stroke-width: 0.8"/>
      </g>
     </g>
     <g id="text_18">
      <!-- 40 -->
      <g transform="translate(83.379 45.271219) scale(0.1 -0.1)">
       <use xlink:href="#DejaVuSans-34"/>
       <use xlink:href="#DejaVuSans-30" x="63.623047"/>
      </g>
     </g>
    </g>
   </g>
   <g id="line2d_19">
    <path d="M 249.4656 287.6256 
L 249.4656 187.8336 
" clip-path="url(#pecab6359bf)" style="fill: none; stroke: #000000; stroke-width: 0.25; stroke-linecap: square"/>
   </g>
   <g id="line2d_20">
    <path d="M 249.4656 187.8336 
L 349.2576 187.8336 
" clip-path="url(#pecab6359bf)" style="fill: none; stroke: #000000; stroke-width: 0.25; stroke-linecap: square"/>
   </g>
   <g id="line2d_21">
    <path d="M 349.2576 161.2224 
L 249.4656 161.2224 
" clip-path="url(#pecab6359bf)" style="fill: none; stroke: #000000; stroke-width: 0.25; stroke-linecap: square"/>
   </g>
   <g id="line2d_22">
    <path d="M 249.4656 161.2224 
L 249.4656 61.4304 
" clip-path="url(#pecab6359bf)" style="fill: none; stroke: #000000; stroke-width: 0.25; stroke-linecap: square"/>
   </g>
   <g id="line2d_23">
    <path d="M 222.8544 61.4304 
L 222.8544 161.2224 
" clip-path="url(#pecab6359bf)" style="fill: none; stroke: #000000; stroke-width: 0.25; stroke-linecap: square"/>
   </g>
   <g id="line2d_24">
    <path d="M 222.8544 161.2224 
L 123.0624 161.2224 
" clip-path="url(#pecab6359bf)" style="fill: none; stroke: #000000; stroke-width: 0.25; stroke-linecap: square"/>
   </g>
   <g id="line2d_25">
    <path d="M 123.0624 187.8336 
L 222.8544 187.8336 
" clip-path="url(#pecab6359bf)" style="fill: none; stroke: #000000; stroke-width: 0.25; stroke-linecap: square"/>
   </g>
   <g id="line2d_26">
    <path d="M 222.8544 187.8336 
L 222.8544 287.6256 
" clip-path="url(#pecab6359bf)" style="fill: none; stroke: #000000; stroke-width: 0.25; stroke-linecap: square"/>
   </g>
   <g id="line2d_27">
    <path d="M 249.4656 174.528 
L 349.2576 174.528 
" clip-path="url(#pecab6359bf)" style="fill: none; stroke-dasharray: 0.925,0.4; stroke-dashoffset: 0; stroke: #000000; stroke-width: 0.25"/>
   </g>
   <g id="line2d_28">
    <path d="M 236.16 161.2224 
L 236.16 61.4304 
" clip-path="url(#pecab6359bf)" style="fill: none; stroke-dasharray: 0.925,0.4; stroke-dashoffset: 0; stroke: #000000; stroke-width: 0.25"/>
   </g>
   <g id="line2d_29">
    <path d="M 222.8544 174.528 
L 123.0624 174.528 
" clip-path="url(#pecab6359bf)" style="fill: none; stroke-dasharray: 0.925,0.4; stroke-dashoffset: 0; stroke: #000000; stroke-width: 0.25"/>
   </g>
   <g id="line2d_30">
    <path d="M 236.16 187.8336 
L 236.16 287.6256 
" clip-path="url(#pecab6359bf)" style="fill: none; stroke-dasharray: 0.925,0.4; stroke-dashoffset: 0; stroke: #000000; stroke-width: 0.25"/>
   </g>
   <g id="line2d_31">
    <path d="M 113.375669 169.01664 
L 112.102657 169.01664 
L 110.829645 169.01664 
L 109.556633 169.01664 
L 108.28362 169.01664 
L 107.010608 169.01664 
L 105.737596 169.01664 
L 104.464584 169.01664 
L 103.191573 169.01664 
L 101.918561 169.01664 
L 100.64555 169.01664 
L 99.372539 169.01664 
L 98.099528 169.01664 
L 96.826518 169.01664 
L 95.553507 169.01664 
L 94.280497 169.01664 
L 93.007488 169.01664 
L 91.734478 169.01664 
L 90.461468 169.01664 
L 89.188459 169.01664 
L 87.91545 169.01664 
L 86.64244 169.01664 
L 85.369431 169.01664 
L 84.096422 169.01664 
L 82.823413 169.01664 
L 81.550405 169.01664 
L 80.277396 169.01664 
L 79.004387 169.01664 
L 77.731378 169.01664 
L 76.458369 169.01664 
L 75.18536 169.01664 
" clip-path="url(#pecab6359bf)" style="fill: none; stroke: #ff0000; stroke-opacity: 0.333333; stroke-width: 0.25; stroke-linecap: square"/>
   </g>
   <g id="line2d_32">
    <path d="M 113.375669 169.01664 
L 112.102657 169.01664 
L 110.829645 169.01664 
L 109.556633 169.01664 
L 108.28362 169.01664 
L 107.010608 169.01664 
L 105.737596 169.01664 
L 104.464584 169.01664 
L 103.191573 169.01664 
L 101.918561 169.01664 
L 100.64555 169.01664 
L 99.372539 169.01664 
L 98.099528 169.01664 
L 96.826518 169.01664 
L 95.553507 169.01664 
L 94.280497 169.01664 
L 93.007488 169.01664 
L 91.734478 169.01664 
L 90.461468 169.01664 
L 89.188459 169.01664 
L 87.91545 169.01664 
L 86.64244 169.01664 
L 85.369431 169.01664 
L 84.096422 169.01664 
L 82.823413 169.01664 
L 81.550405 169.01664 
L 80.277396 169.01664 
L 79.004387 169.01664 
L 77.731378 169.01664 
L 76.458369 169.01664 
L 75.18536 169.01664 
" clip-path="url(#pecab6359bf)" style="fill: none; stroke: #ff0000; stroke-opacity: 0.666667; stroke-width: 0.25; stroke-linecap: square"/>
   </g>
   <g id="line2d_33">
    <path d="M 113.375669 169.01664 
L 112.102657 169.01664 
L 110.829645 169.01664 
L 109.556633 169.01664 
L 108.28362 169.01664 
L 107.010608 169.01664 
L 105.737596 169.01664 
L 104.464584 169.01664 
L 103.191573 169.01664 
L 101.918561 169.01664 
L 100.64555 169.01664 
L 99.372539 169.01664 
L 98.099528 169.01664 
L 96.826518 169.01664 
L 95.553507 169.01664 
L 94.280497 169.01664 
L 93.007488 169.01664 
L 91.734478 169.01664 
L 90.461468 169.01664 
L 89.188459 169.01664 
L 87.91545 169.01664 
L 86.64244 169.01664 
L 85.369431 169.01664 
L 84.096422 169.01664 
L 82.823413 169.01664 
L 81.550405 169.01664 
L 80.277396 169.01664 
L 79.004387 169.01664 
L 77.731378 169.01664 
L 76.458369 169.01664 
L 75.18536 169.01664 
" clip-path="url(#pecab6359bf)" style="fill: none; stroke: #ff0000; stroke-width: 0.25; stroke-linecap: square"/>
   </g>
   <g id="line2d_34">
    <path d="M 241.67136 47.071087 
L 241.67136 45.89427 
L 241.67136 44.717453 
L 241.67136 43.540636 
L 241.67136 42.363819 
L 241.67136 41.187002 
L 241.67136 40.010185 
L 241.67136 38.833368 
L 241.67136 37.656551 
L 241.67136 36.479734 
L 241.67136 35.302917 
L 241.67136 34.126099 
L 241.67136 32.949282 
L 241.67136 31.772465 
L 241.67136 30.595648 
L 241.67136 29.418831 
L 241.67136 28.242013 
L 241.67136 27.065196 
L 241.67136 25.888379 
L 241.67136 24.711561 
L 241.67136 23.534744 
L 241.67136 22.357926 
L 241.67136 21.181109 
L 241.67136 20.004291 
L 241.67136 18.827474 
L 241.67136 17.650656 
L 241.67136 16.473838 
L 241.67136 15.297021 
L 241.67136 14.120203 
L 241.67136 12.943386 
L 241.67136 11.766568 
" clip-path="url(#pecab6359bf)" style="fill: none; stroke: #ff0000; stroke-opacity: 0.333333; stroke-width: 0.25; stroke-linecap: square"/>
   </g>
   <g id="line2d_35">
    <path d="M 241.67136 47.071087 
L 241.67136 45.89427 
L 241.67136 44.717453 
L 241.67136 43.540636 
L 241.67136 42.363819 
L 241.67136 41.187002 
L 241.67136 40.010185 
L 241.67136 38.833368 
L 241.67136 37.656551 
L 241.67136 36.479734 
L 241.67136 35.302917 
L 241.67136 34.126099 
L 241.67136 32.949282 
L 241.67136 31.772465 
L 241.67136 30.595648 
L 241.67136 29.418831 
L 241.67136 28.242013 
L 241.67136 27.065196 
L 241.67136 25.888379 
L 241.67136 24.711561 
L 241.67136 23.534744 
L 241.67136 22.357926 
L 241.67136 21.181109 
L 241.67136 20.004291 
L 241.67136 18.827474 
L 241.67136 17.650656 
L 241.67136 16.473838 
L 241.67136 15.297021 
L 241.67136 14.120203 
L 241.67136 12.943386 
L 241.67136 11.766568 
" clip-path="url(#pecab6359bf)" style="fill: none; stroke: #ff0000; stroke-opacity: 0.666667; stroke-width: 0.25; stroke-linecap: square"/>
   </g>
   <g id="line2d_36">
    <path d="M 241.67136 47.071087 
L 241.67136 45.89427 
L 241.67136 44.717453 
L 241.67136 43.540636 
L 241.67136 42.363819 
L 241.67136 41.187002 
L 241.67136 40.010185 
L 241.67136 38.833368 
L 241.67136 37.656551 
L 241.67136 36.479734 
L 241.67136 35.302917 
L 241.67136 34.126099 
L 241.67136 32.949282 
L 241.67136 31.772465 
L 241.67136 30.595648 
L 241.67136 29.418831 
L 241.67136 28.242013 
L 241.67136 27.065196 
L 241.67136 25.888379 
L 241.67136 24.711561 
L 241.67136 23.534744 
L 241.67136 22.357926 
L 241.67136 21.181109 
L 241.67136 20.004291 
L 241.67136 18.827474 
L 241.67136 17.650656 
L 241.67136 16.473838 
L 241.67136 15.297021 
L 241.67136 14.120203 
L 241.67136 12.943386 
L 241.67136 11.766568 
" clip-path="url(#pecab6359bf)" style="fill: none; stroke: #ff0000; stroke-width: 0.25; stroke-linecap: square"/>
   </g>
   <g id="line2d_37">
    <path d="M 230.64864 298.417898 
L 230.64864 299.674541 
L 230.64864 300.931184 
L 230.64864 302.187827 
L 230.64864 303.444469 
L 230.64864 304.701112 
L 230.64864 305.957754 
L 230.64864 307.214395 
L 230.64864 308.471037 
L 230.64864 309.727678 
L 230.64864 310.984319 
L 230.64864 312.24096 
L 230.64864 313.497601 
L 230.64864 314.754241 
L 230.64864 316.010882 
L 230.64864 317.267522 
L 230.64864 318.524162 
L 230.64864 319.780802 
L 230.64864 321.037442 
L 230.64864 322.294082 
L 230.64864 323.550722 
L 230.64864 324.807362 
L 230.64864 326.064002 
L 230.64864 327.320642 
L 230.64864 328.577281 
L 230.64864 329.833921 
L 230.64864 331.090561 
L 230.64864 332.347201 
L 230.64864 333.603841 
L 230.64864 334.86048 
L 230.64864 336.11712 
" clip-path="url(#pecab6359bf)" style="fill: none; stroke: #ff0000; stroke-opacity: 0.333333; stroke-width: 0.25; stroke-linecap: square"/>
   </g>
   <g id="line2d_38">
    <path d="M 230.64864 298.417898 
L 230.64864 299.674541 
L 230.64864 300.931184 
L 230.64864 302.187827 
L 230.64864 303.444469 
L 230.64864 304.701112 
L 230.64864 305.957754 
L 230.64864 307.214395 
L 230.64864 308.471037 
L 230.64864 309.727678 
L 230.64864 310.984319 
L 230.64864 312.24096 
L 230.64864 313.497601 
L 230.64864 314.754241 
L 230.64864 316.010882 
L 230.64864 317.267522 
L 230.64864 318.524162 
L 230.64864 319.780802 
L 230.64864 321.037442 
L 230.64864 322.294082 
L 230.64864 323.550722 
L 230.64864 324.807362 
L 230.64864 326.064002 
L 230.64864 327.320642 
L 230.64864 328.577281 
L 230.64864 329.833921 
L 230.64864 331.090561 
L 230.64864 332.347201 
L 230.64864 333.603841 
L 230.64864 334.86048 
L 230.64864 336.11712 
" clip-path="url(#pecab6359bf)" style="fill: none; stroke: #ff0000; stroke-opacity: 0.666667; stroke-width: 0.25; stroke-linecap: square"/>
   </g>
   <g id="line2d_39">
    <path d="M 230.64864 298.417898 
L 230.64864 299.674541 
L 230.64864 300.931184 
L 230.64864 302.187827 
L 230.64864 303.444469 
L 230.64864 304.701112 
L 230.64864 305.957754 
L 230.64864 307.214395 
L 230.64864 308.471037 
L 230.64864 309.727678 
L 230.64864 310.984319 
L 230.64864 312.24096 
L 230.64864 313.497601 
L 230.64864 314.754241 
L 230.64864 316.010882 
L 230.64864 317.267522 
L 230.64864 318.524162 
L 230.64864 319.780802 
L 230.64864 321.037442 
L 230.64864 322.294082 
L 230.64864 323.550722 
L 230.64864 324.807362 
L 230.64864 326.064002 
L 230.64864 327.320642 
L 230.64864 328.577281 
L 230.64864 329.833921 
L 230.64864 331.090561 
L 230.64864 332.347201 
L 230.64864 333.603841 
L 230.64864 334.86048 
L 230.64864 336.11712 
" clip-path="url(#pecab6359bf)" style="fill: none; stroke: #ff0000; stroke-width: 0.25; stroke-linecap: square"/>
   </g>
   <g id="line2d_40">
    <path d="M 360.0499 180.03936 
L 361.306543 180.03936 
L 362.563186 180.03936 
L 363.819828 180.03936 
L 365.076471 180.03936 
L 366.333113 180.03936 
L 367.589754 180.03936 
L 368.846396 180.03936 
L 370.103037 180.03936 
L 371.359678 180.03936 
L 372.616319 180.03936 
L 373.87296 180.03936 
L 375.129601 180.03936 
L 376.386241 180.03936 
L 377.642881 180.03936 
L 378.899522 180.03936 
L 380.156162 180.03936 
L 381.412802 180.03936 
L 382.669442 180.03936 
L 383.926082 180.03936 
L 385.182722 180.03936 
L 386.439362 180.03936 
L 387.696002 180.03936 
L 388.952641 180.03936 
L 390.209281 180.03936 
L 391.465921 180.03936 
L 392.722561 180.03936 
L 393.979201 180.03936 
L 395.235841 180.03936 
L 396.49248 180.03936 
L 397.74912 180.03936 
" clip-path="url(#pecab6359bf)" style="fill: none; stroke: #ff0000; stroke-opacity: 0.333333; stroke-width: 0.25; stroke-linecap: square"/>
   </g>
   <g id="line2d_41">
    <path d="M 360.0499 180.03936 
L 361.306543 180.03936 
L 362.563186 180.03936 
L 363.819828 180.03936 
L 365.076471 180.03936 
L 366.333113 180.03936 
L 367.589754 180.03936 
L 368.846396 180.03936 
L 370.103037 180.03936 
L 371.359678 180.03936 
L 372.616319 180.03936 
L 373.87296 180.03936 
L 375.129601 180.03936 
L 376.386241 180.03936 
L 377.642881 180.03936 
L 378.899522 180.03936 
L 380.156162 180.03936 
L 381.412802 180.03936 
L 382.669442 180.03936 
L 383.926082 180.03936 
L 385.182722 180.03936 
L 386.439362 180.03936 
L 387.696002 180.03936 
L 388.952641 180.03936 
L 390.209281 180.03936 
L 391.465921 180.03936 
L 392.722561 180.03936 
L 393.979201 180.03936 
L 395.23584 180.03936 
L 396.49248 180.03936 
L 397.74912 180.03936 
" clip-path="url(#pecab6359bf)" style="fill: none; stroke: #ff0000; stroke-opacity: 0.666667; stroke-width: 0.25; stroke-linecap: square"/>
   </g>
   <g id="line2d_42">
    <path d="M 360.0499 180.03936 
L 361.306543 180.03936 
L 362.563186 180.03936 
L 363.819828 180.03936 
L 365.076471 180.03936 
L 366.333113 180.03936 
L 367.589754 180.03936 
L 368.846396 180.03936 
L 370.103037 180.03936 
L 371.359678 180.03936 
L 372.616319 180.03936 
L 373.87296 180.03936 
L 375.129601 180.03936 
L 376.386241 180.03936 
L 377.642881 180.03936 
L 378.899522 180.03936 
L 380.156162 180.03936 
L 381.412802 180.03936 
L 382.669442 180.03936 
L 383.926082 180.03936 
L 385.182722 180.03936 
L 386.439362 180.03936 
L 387.696002 180.03936 
L 388.952641 180.03936 
L 390.209281 180.03936 
L 391.465921 180.03936 
L 392.722561 180.03936 
L 393.979201 180.03936 
L 395.235841 180.03936 
L 396.49248 180.03936 
L 397.74912 180.03936 
" clip-path="url(#pecab6359bf)" style="fill: none; stroke: #ff0000; stroke-width: 0.25; stroke-linecap: square"/>
   </g>
   <g id="line2d_43">
    <path d="M 241.671341 83.309528 
L 241.671342 82.05306 
L 241.671345 80.796581 
L 241.671348 79.540089 
L 241.67135 78.283583 
L 241.671353 77.027064 
L 241.671355 75.77053 
L 241.671357 74.513983 
L 241.671358 73.257423 
L 241.671359 72.000851 
L 241.67136 70.744268 
L 241.671361 69.487674 
L 241.671362 68.231072 
L 241.671362 66.974461 
L 241.671362 65.717842 
L 241.671362 64.461218 
L 241.671362 63.204588 
L 241.671362 61.947953 
L 241.671362 60.691315 
L 241.671362 59.434674 
L 241.671362 58.17803 
L 241.671362 56.921384 
L 241.671361 55.664736 
L 241.671361 54.408087 
L 241.671361 53.151438 
L 241.671361 51.894787 
L 241.671361 50.638137 
L 241.671361 49.381485 
L 241.67136 48.124834 
L 241.67136 46.868183 
L 241.67136 45.611531 
" clip-path="url(#pecab6359bf)" style="fill: none; stroke: #ff0000; stroke-opacity: 0.333333; stroke-width: 0.25; stroke-linecap: square"/>
   </g>
   <g id="line2d_44">
    <path d="M 241.671341 83.309528 
L 241.671342 82.05306 
L 241.671344 80.796581 
L 241.671347 79.540089 
L 241.67135 78.283583 
L 241.671352 77.027063 
L 241.671355 75.77053 
L 241.671357 74.513983 
L 241.671358 73.257423 
L 241.671359 72.000851 
L 241.671361 70.744268 
L 241.671361 69.487674 
L 241.671362 68.231071 
L 241.671362 66.97446 
L 241.671362 65.717842 
L 241.671363 64.461217 
L 241.671363 63.204587 
L 241.671362 61.947953 
L 241.671362 60.691314 
L 241.671362 59.434673 
L 241.671362 58.178028 
L 241.671362 56.921382 
L 241.671362 55.664734 
L 241.671361 54.408085 
L 241.671361 53.151435 
L 241.671361 51.894784 
L 241.671361 50.638133 
L 241.671361 49.381481 
L 241.67136 48.12483 
L 241.67136 46.868178 
L 241.67136 45.611526 
" clip-path="url(#pecab6359bf)" style="fill: none; stroke: #ff0000; stroke-opacity: 0.666667; stroke-width: 0.25; stroke-linecap: square"/>
   </g>
   <g id="line2d_45">
    <path d="M 241.671341 83.309528 
L 241.671341 82.05306 
L 241.671344 80.796581 
L 241.671347 79.540089 
L 241.67135 78.283583 
L 241.671352 77.027063 
L 241.671355 75.77053 
L 241.671357 74.513983 
L 241.671358 73.257423 
L 241.67136 72.000851 
L 241.671361 70.744268 
L 241.671361 69.487674 
L 241.671362 68.231072 
L 241.671362 66.974461 
L 241.671362 65.717842 
L 241.671363 64.461218 
L 241.671363 63.204588 
L 241.671362 61.947953 
L 241.671362 60.691315 
L 241.671362 59.434673 
L 241.671362 58.178029 
L 241.671362 56.921383 
L 241.671361 55.664735 
L 241.671361 54.408087 
L 241.671361 53.151437 
L 241.671361 51.894786 
L 241.671361 50.638135 
L 241.671361 49.381484 
L 241.67136 48.124832 
L 241.67136 46.868181 
L 241.67136 45.611529 
" clip-path="url(#pecab6359bf)" style="fill: none; stroke: #ff0000; stroke-width: 0.25; stroke-linecap: square"/>
   </g>
   <g id="line2d_46">
    <path d="M 144.941926 169.016658 
L 143.685422 169.016656 
L 142.428906 169.016652 
L 141.172376 169.016649 
L 139.915834 169.016647 
L 138.65928 169.016645 
L 137.402714 169.016643 
L 136.146136 169.016641 
L 134.889549 169.01664 
L 133.632952 169.016639 
L 132.376346 169.016639 
L 131.119733 169.016638 
L 129.863113 169.016638 
L 128.606488 169.016638 
L 127.349858 169.016638 
L 126.093223 169.016638 
L 124.836585 169.016638 
L 123.579945 169.016638 
L 122.323301 169.016638 
L 121.066657 169.016638 
L 119.81001 169.016639 
L 118.553363 169.016639 
L 117.296715 169.016639 
L 116.040067 169.016639 
L 114.783418 169.016639 
L 113.526769 169.01664 
L 112.27012 169.01664 
L 111.013471 169.01664 
L 109.756822 169.01664 
L 108.500172 169.01664 
L 107.243523 169.01664 
" clip-path="url(#pecab6359bf)" style="fill: none; stroke: #ff0000; stroke-opacity: 0.333333; stroke-width: 0.25; stroke-linecap: square"/>
   </g>
   <g id="line2d_47">
    <path d="M 144.941926 169.016658 
L 143.685422 169.016657 
L 142.428906 169.016653 
L 141.172376 169.01665 
L 139.915834 169.016647 
L 138.65928 169.016645 
L 137.402714 169.016643 
L 136.146136 169.016641 
L 134.889549 169.01664 
L 133.632952 169.016639 
L 132.376346 169.016639 
L 131.119733 169.016638 
L 129.863113 169.016638 
L 128.606488 169.016638 
L 127.349858 169.016638 
L 126.093223 169.016638 
L 124.836585 169.016638 
L 123.579944 169.016638 
L 122.323301 169.016638 
L 121.066656 169.016638 
L 119.810009 169.016639 
L 118.553362 169.016639 
L 117.296714 169.016639 
L 116.040065 169.016639 
L 114.783416 169.016639 
L 113.526766 169.01664 
L 112.270117 169.01664 
L 111.013467 169.01664 
L 109.756817 169.01664 
L 108.500168 169.01664 
L 107.243518 169.01664 
" clip-path="url(#pecab6359bf)" style="fill: none; stroke: #ff0000; stroke-opacity: 0.666667; stroke-width: 0.25; stroke-linecap: square"/>
   </g>
   <g id="line2d_48">
    <path d="M 144.941926 169.016658 
L 143.685422 169.016657 
L 142.428906 169.016654 
L 141.172376 169.01665 
L 139.915834 169.016648 
L 138.65928 169.016645 
L 137.402714 169.016643 
L 136.146136 169.016641 
L 134.889549 169.01664 
L 133.632952 169.016639 
L 132.376346 169.016639 
L 131.119733 169.016638 
L 129.863113 169.016638 
L 128.606488 169.016638 
L 127.349858 169.016638 
L 126.093223 169.016638 
L 124.836585 169.016638 
L 123.579944 169.016638 
L 122.323301 169.016638 
L 121.066656 169.016638 
L 119.81001 169.016639 
L 118.553363 169.016639 
L 117.296715 169.016639 
L 116.040066 169.016639 
L 114.783417 169.016639 
L 113.526768 169.01664 
L 112.270119 169.01664 
L 111.013469 169.01664 
L 109.75682 169.01664 
L 108.50017 169.01664 
L 107.243521 169.01664 
" clip-path="url(#pecab6359bf)" style="fill: none; stroke: #ff0000; stroke-width: 0.25; stroke-linecap: square"/>
   </g>
   <g id="line2d_49">
    <path d="M 325.847776 180.039344 
L 327.120584 180.039342 
L 328.3934 180.039343 
L 329.666227 180.039345 
L 330.939066 180.039347 
L 332.211918 180.03935 
L 333.484786 180.039352 
L 334.757668 180.039354 
L 336.030566 180.039356 
L 337.303477 180.039357 
L 338.576403 180.039359 
L 339.849341 180.03936 
L 341.122291 180.039361 
L 342.395252 180.039361 
L 343.668223 180.039362 
L 344.941202 180.039362 
L 346.214189 180.039362 
L 347.487183 180.039363 
L 348.760182 180.039363 
L 350.033187 180.039362 
L 351.306195 180.039362 
L 352.579207 180.039362 
L 353.852221 180.039362 
L 355.125238 180.039362 
L 356.398256 180.039362 
L 357.671275 180.039361 
L 358.944296 180.039361 
L 360.217317 180.039361 
L 361.490339 180.039361 
L 362.763361 180.039361 
L 364.036383 180.03936 
" clip-path="url(#pecab6359bf)" style="fill: none; stroke: #ff0000; stroke-opacity: 0.333333; stroke-width: 0.25; stroke-linecap: square"/>
   </g>
   <g id="line2d_50">
    <path d="M 325.847776 180.039344 
L 327.120584 180.039342 
L 328.3934 180.039343 
L 329.666227 180.039345 
L 330.939066 180.039347 
L 332.211918 180.039349 
L 333.484786 180.039352 
L 334.757668 180.039354 
L 336.030566 180.039356 
L 337.303477 180.039358 
L 338.576403 180.039359 
L 339.849341 180.03936 
L 341.122291 180.039361 
L 342.395253 180.039362 
L 343.668223 180.039362 
L 344.941203 180.039362 
L 346.21419 180.039363 
L 347.487184 180.039363 
L 348.760184 180.039363 
L 350.033188 180.039363 
L 351.306197 180.039362 
L 352.579209 180.039362 
L 353.852224 180.039362 
L 355.12524 180.039362 
L 356.398259 180.039362 
L 357.671279 180.039361 
L 358.9443 180.039361 
L 360.217321 180.039361 
L 361.490343 180.039361 
L 362.763366 180.03936 
L 364.036388 180.03936 
" clip-path="url(#pecab6359bf)" style="fill: none; stroke: #ff0000; stroke-opacity: 0.666667; stroke-width: 0.25; stroke-linecap: square"/>
   </g>
   <g id="line2d_51">
    <path d="M 325.847776 180.039344 
L 327.120584 180.039341 
L 328.3934 180.039342 
L 329.666227 180.039344 
L 330.939066 180.039347 
L 332.211918 180.039349 
L 333.484786 180.039352 
L 334.757668 180.039354 
L 336.030566 180.039356 
L 337.303477 180.039358 
L 338.576403 180.039359 
L 339.849341 180.03936 
L 341.122291 180.039361 
L 342.395252 180.039362 
L 343.668223 180.039362 
L 344.941203 180.039362 
L 346.21419 180.039363 
L 347.487184 180.039363 
L 348.760183 180.039363 
L 350.033187 180.039362 
L 351.306196 180.039362 
L 352.579208 180.039362 
L 353.852222 180.039362 
L 355.125239 180.039362 
L 356.398257 180.039362 
L 357.671277 180.039361 
L 358.944298 180.039361 
L 360.217319 180.039361 
L 361.490341 180.039361 
L 362.763363 180.039361 
L 364.036385 180.03936 
" clip-path="url(#pecab6359bf)" style="fill: none; stroke: #ff0000; stroke-width: 0.25; stroke-linecap: square"/>
   </g>
   <g id="line2d_52">
    <path d="M 241.671415 110.0751 
L 241.671394 108.986834 
L 241.671375 107.898616 
L 241.671362 106.810437 
L 241.671353 105.722286 
L 241.671348 104.634157 
L 241.671345 103.546044 
L 241.671344 102.457941 
L 241.671344 101.369844 
L 241.671345 100.281748 
L 241.671347 99.193651 
L 241.671348 98.10555 
L 241.67135 97.017444 
L 241.671352 95.929331 
L 241.671353 94.841211 
L 241.671355 93.753082 
L 241.671356 92.664945 
L 241.671357 91.576799 
L 241.671358 90.488646 
L 241.671359 89.400484 
L 241.67136 88.312316 
L 241.671361 87.22414 
L 241.671361 86.135959 
L 241.671362 85.047773 
L 241.671362 83.959582 
L 241.671362 82.871387 
L 241.671363 81.783189 
L 241.671363 80.694988 
L 241.671362 79.606786 
L 241.671362 78.518582 
L 241.671361 77.430378 
" clip-path="url(#pecab6359bf)" style="fill: none; stroke: #ff0000; stroke-opacity: 0.333333; stroke-width: 0.25; stroke-linecap: square"/>
   </g>
   <g id="line2d_53">
    <path d="M 241.671415 110.0751 
L 241.671399 108.986834 
L 241.671378 107.898616 
L 241.671364 106.810437 
L 241.671355 105.722286 
L 241.671349 104.634157 
L 241.671346 103.546044 
L 241.671344 102.457941 
L 241.671344 101.369843 
L 241.671345 100.281747 
L 241.671346 99.19365 
L 241.671348 98.105549 
L 241.67135 97.017442 
L 241.671351 95.929329 
L 241.671353 94.841208 
L 241.671355 93.75308 
L 241.671356 92.664942 
L 241.671357 91.576797 
L 241.671358 90.488643 
L 241.671359 89.400482 
L 241.67136 88.312314 
L 241.671361 87.22414 
L 241.671361 86.135959 
L 241.671362 85.047774 
L 241.671362 83.959584 
L 241.671362 82.87139 
L 241.671362 81.783194 
L 241.671362 80.694995 
L 241.671362 79.606795 
L 241.671361 78.518593 
L 241.67136 77.430392 
" clip-path="url(#pecab6359bf)" style="fill: none; stroke: #ff0000; stroke-opacity: 0.666667; stroke-width: 0.25; stroke-linecap: square"/>
   </g>
   <g id="line2d_54">
    <path d="M 241.671415 110.0751 
L 241.671403 108.986834 
L 241.671381 107.898616 
L 241.671366 106.810437 
L 241.671356 105.722286 
L 241.671349 104.634157 
L 241.671346 103.546044 
L 241.671344 102.457941 
L 241.671344 101.369843 
L 241.671345 100.281748 
L 241.671346 99.19365 
L 241.671348 98.105549 
L 241.671349 97.017443 
L 241.671351 95.92933 
L 241.671353 94.841209 
L 241.671355 93.75308 
L 241.671356 92.664943 
L 241.671357 91.576798 
L 241.671358 90.488644 
L 241.671359 89.400483 
L 241.67136 88.312314 
L 241.671361 87.224139 
L 241.671361 86.135958 
L 241.671362 85.047772 
L 241.671362 83.959582 
L 241.671363 82.871388 
L 241.671363 81.78319 
L 241.671363 80.694991 
L 241.671362 79.606789 
L 241.671362 78.518587 
L 241.671361 77.430384 
" clip-path="url(#pecab6359bf)" style="fill: none; stroke: #ff0000; stroke-width: 0.25; stroke-linecap: square"/>
   </g>
   <g id="line2d_55">
    <path d="M 297.720282 180.03951 
L 298.897009 180.039463 
L 300.073635 180.039425 
L 301.250186 180.039397 
L 302.426684 180.039376 
L 303.603147 180.039363 
L 304.77959 180.039354 
L 305.956028 180.039349 
L 307.132469 180.039347 
L 308.308922 180.039346 
L 309.485393 180.039347 
L 310.661886 180.039349 
L 311.838405 180.039351 
L 313.014952 180.039353 
L 314.191527 180.039355 
L 315.36813 180.039357 
L 316.54476 180.039359 
L 317.721417 180.039361 
L 318.898098 180.039362 
L 320.074803 180.039364 
L 321.251528 180.039365 
L 322.428272 180.039366 
L 323.605033 180.039366 
L 324.781808 180.039367 
L 325.958595 180.039367 
L 327.135392 180.039368 
L 328.312198 180.039368 
L 329.489011 180.039368 
L 330.665828 180.039367 
L 331.842648 180.039366 
L 333.01947 180.039363 
" clip-path="url(#pecab6359bf)" style="fill: none; stroke: #ff0000; stroke-opacity: 0.333333; stroke-width: 0.25; stroke-linecap: square"/>
   </g>
   <g id="line2d_56">
    <path d="M 297.720282 180.03951 
L 298.897009 180.039466 
L 300.073635 180.039427 
L 301.250186 180.039398 
L 302.426684 180.039378 
L 303.603147 180.039363 
L 304.779591 180.039355 
L 305.956029 180.039349 
L 307.132471 180.039347 
L 308.308924 180.039346 
L 309.485396 180.039347 
L 310.66189 180.039349 
L 311.838409 180.039351 
L 313.014956 180.039353 
L 314.191532 180.039355 
L 315.368135 180.039357 
L 316.544766 180.039359 
L 317.721423 180.039361 
L 318.898104 180.039363 
L 320.074808 180.039364 
L 321.251533 180.039365 
L 322.428276 180.039366 
L 323.605035 180.039366 
L 324.781808 180.039367 
L 325.958593 180.039367 
L 327.135388 180.039367 
L 328.312191 180.039367 
L 329.488999 180.039367 
L 330.665812 180.039366 
L 331.842628 180.039364 
L 333.019444 180.03936 
" clip-path="url(#pecab6359bf)" style="fill: none; stroke: #ff0000; stroke-opacity: 0.666667; stroke-width: 0.25; stroke-linecap: square"/>
   </g>
   <g id="line2d_57">
    <path d="M 297.720282 180.03951 
L 298.897009 180.039469 
L 300.073635 180.039429 
L 301.250186 180.039399 
L 302.426684 180.039378 
L 303.603147 180.039364 
L 304.779591 180.039355 
L 305.956028 180.039349 
L 307.13247 180.039347 
L 308.308923 180.039346 
L 309.485394 180.039347 
L 310.661888 180.039349 
L 311.838408 180.039351 
L 313.014955 180.039353 
L 314.19153 180.039355 
L 315.368133 180.039357 
L 316.544764 180.039359 
L 317.721421 180.039361 
L 318.898102 180.039363 
L 320.074807 180.039364 
L 321.251532 180.039365 
L 322.428275 180.039366 
L 323.605035 180.039366 
L 324.78181 180.039367 
L 325.958596 180.039367 
L 327.135392 180.039368 
L 328.312196 180.039368 
L 329.489007 180.039367 
L 330.665822 180.039367 
L 331.84264 180.039365 
L 333.019459 180.039362 
" clip-path="url(#pecab6359bf)" style="fill: none; stroke: #ff0000; stroke-width: 0.25; stroke-linecap: square"/>
   </g>
   <g id="line2d_58">
    <path d="M 230.649416 256.308707 
L 230.64907 257.766314 
L 230.648759 259.22496 
L 230.648546 260.684397 
L 230.64841 262.144424 
L 230.648333 263.604868 
L 230.648298 265.065581 
L 230.648294 266.52644 
L 230.648311 267.987344 
L 230.64834 269.44821 
L 230.648377 270.908973 
L 230.648416 272.369586 
L 230.648455 273.830013 
L 230.648492 275.29023 
L 230.648526 276.750224 
L 230.648556 278.209987 
L 230.648583 279.669523 
L 230.648605 281.128835 
L 230.648624 282.587936 
L 230.64864 284.046837 
L 230.648653 285.505555 
L 230.648664 286.964107 
L 230.648674 288.42251 
L 230.648682 289.880784 
L 230.64869 291.338945 
L 230.648696 292.797013 
L 230.648701 294.255004 
L 230.648704 295.712935 
L 230.648701 297.170821 
L 230.64869 298.628677 
L 230.648667 300.086516 
" clip-path="url(#pecab6359bf)" style="fill: none; stroke: #ff0000; stroke-opacity: 0.333333; stroke-width: 0.25; stroke-linecap: square"/>
   </g>
   <g id="line2d_59">
    <path d="M 230.649416 256.308707 
L 230.649133 257.766314 
L 230.648808 259.224961 
L 230.648583 260.684398 
L 230.648436 262.144424 
L 230.64835 263.604865 
L 230.648309 265.065574 
L 230.6483 266.526428 
L 230.648313 267.987326 
L 230.648339 269.448186 
L 230.648374 270.908943 
L 230.648412 272.36955 
L 230.64845 273.829971 
L 230.648487 275.290183 
L 230.648521 276.750172 
L 230.648552 278.209932 
L 230.648579 279.669466 
L 230.648602 281.128778 
L 230.648622 282.587881 
L 230.648638 284.046787 
L 230.648652 285.505513 
L 230.648664 286.964077 
L 230.648674 288.422495 
L 230.648682 289.880788 
L 230.648689 291.338974 
L 230.648695 292.79707 
L 230.648697 294.255095 
L 230.648697 295.713066 
L 230.64869 297.170998 
L 230.648674 298.628905 
L 230.64864 300.086802 
" clip-path="url(#pecab6359bf)" style="fill: none; stroke: #ff0000; stroke-opacity: 0.666667; stroke-width: 0.25; stroke-linecap: square"/>
   </g>
   <g id="line2d_60">
    <path d="M 230.649416 256.308707 
L 230.649193 257.766314 
L 230.648852 259.224962 
L 230.648613 260.6844 
L 230.648457 262.144426 
L 230.648363 263.604869 
L 230.648315 265.065579 
L 230.648302 266.526435 
L 230.648312 267.987335 
L 230.648337 269.448197 
L 230.648371 270.908956 
L 230.648408 272.369565 
L 230.648447 273.829987 
L 230.648484 275.290201 
L 230.648519 276.750191 
L 230.64855 278.209952 
L 230.648578 279.669485 
L 230.648602 281.128796 
L 230.648622 282.587896 
L 230.64864 284.046799 
L 230.648654 285.50552 
L 230.648666 286.964076 
L 230.648677 288.422486 
L 230.648685 289.880767 
L 230.648693 291.33894 
L 230.648699 292.797021 
L 230.648702 294.255029 
L 230.648703 295.71298 
L 230.648698 297.170889 
L 230.648684 298.628772 
L 230.648655 300.086642 
" clip-path="url(#pecab6359bf)" style="fill: none; stroke: #ff0000; stroke-width: 0.25; stroke-linecap: square"/>
   </g>
   <g id="line2d_61">
    <path d="M 174.599539 169.016508 
L 173.422916 169.016549 
L 172.246374 169.01658 
L 171.069889 169.016604 
L 169.893443 169.016621 
L 168.717018 169.016633 
L 167.540601 169.01664 
L 166.36418 169.016644 
L 165.187748 169.016647 
L 164.011297 169.016647 
L 162.834822 169.016647 
L 161.658321 169.016646 
L 160.481791 169.016644 
L 159.305232 169.016642 
L 158.128643 169.016641 
L 156.952025 169.016639 
L 155.775379 169.016638 
L 154.598707 169.016637 
L 153.42201 169.016636 
L 152.245291 169.016635 
L 151.068552 169.016634 
L 149.891795 169.016634 
L 148.715023 169.016633 
L 147.538237 169.016633 
L 146.36144 169.016633 
L 145.184633 169.016633 
L 144.007818 169.016633 
L 142.830998 169.016633 
L 141.654173 169.016634 
L 140.477345 169.016635 
L 139.300516 169.016637 
" clip-path="url(#pecab6359bf)" style="fill: none; stroke: #ff0000; stroke-opacity: 0.333333; stroke-width: 0.25; stroke-linecap: square"/>
   </g>
   <g id="line2d_62">
    <path d="M 174.599539 169.016508 
L 173.422916 169.016548 
L 172.246374 169.01658 
L 171.069889 169.016604 
L 169.893443 169.016621 
L 168.717017 169.016632 
L 167.5406 169.01664 
L 166.364179 169.016644 
L 165.187746 169.016647 
L 164.011294 169.016647 
L 162.83482 169.016647 
L 161.658318 169.016646 
L 160.481788 169.016644 
L 159.305228 169.016642 
L 158.128638 169.016641 
L 156.95202 169.016639 
L 155.775373 169.016638 
L 154.598701 169.016636 
L 153.422004 169.016635 
L 152.245286 169.016635 
L 151.068547 169.016634 
L 149.891791 169.016633 
L 148.71502 169.016633 
L 147.538235 169.016633 
L 146.361439 169.016633 
L 145.184634 169.016633 
L 144.007822 169.016633 
L 142.831005 169.016634 
L 141.654184 169.016635 
L 140.47736 169.016636 
L 139.300536 169.01664 
" clip-path="url(#pecab6359bf)" style="fill: none; stroke: #ff0000; stroke-opacity: 0.666667; stroke-width: 0.25; stroke-linecap: square"/>
   </g>
   <g id="line2d_63">
    <path d="M 174.599539 169.016508 
L 173.422916 169.016547 
L 172.246374 169.016579 
L 171.069889 169.016603 
L 169.893443 169.016621 
L 168.717017 169.016632 
L 167.5406 169.01664 
L 166.364179 169.016644 
L 165.187747 169.016647 
L 164.011295 169.016647 
L 162.834821 169.016647 
L 161.658319 169.016646 
L 160.481789 169.016644 
L 159.305229 169.016642 
L 158.12864 169.016641 
L 156.952022 169.016639 
L 155.775375 169.016638 
L 154.598703 169.016637 
L 153.422006 169.016635 
L 152.245288 169.016635 
L 151.068549 169.016634 
L 149.891792 169.016633 
L 148.71502 169.016633 
L 147.538235 169.016633 
L 146.361438 169.016633 
L 145.184632 169.016632 
L 144.007819 169.016633 
L 142.831 169.016633 
L 141.654177 169.016634 
L 140.477352 169.016636 
L 139.300525 169.016638 
" clip-path="url(#pecab6359bf)" style="fill: none; stroke: #ff0000; stroke-width: 0.25; stroke-linecap: square"/>
   </g>
   <g id="line2d_64">
    <path d="M 230.647764 236.142907 
L 230.6482 237.317667 
L 230.648562 238.491487 
L 230.648796 239.664643 
L 230.648936 240.837357 
L 230.649006 242.009815 
L 230.64903 243.182173 
L 230.64902 244.354556 
L 230.648991 245.527062 
L 230.648949 246.699768 
L 230.648902 247.87273 
L 230.648854 249.045986 
L 230.648808 250.219559 
L 230.648765 251.393462 
L 230.648726 252.567695 
L 230.648692 253.742253 
L 230.648664 254.917123 
L 230.64864 256.092287 
L 230.64862 257.267724 
L 230.648604 258.443413 
L 230.648592 259.619327 
L 230.648582 260.795443 
L 230.648574 261.971736 
L 230.648568 263.148182 
L 230.648564 264.324757 
L 230.648561 265.50144 
L 230.64856 266.678209 
L 230.648562 267.855046 
L 230.648569 269.031933 
L 230.648583 270.208853 
L 230.648609 271.385791 
" clip-path="url(#pecab6359bf)" style="fill: none; stroke: #ff0000; stroke-opacity: 0.333333; stroke-width: 0.25; stroke-linecap: square"/>
   </g>
   <g id="line2d_65">
    <path d="M 230.647764 236.142907 
L 230.648134 237.317667 
L 230.648515 238.491486 
L 230.648763 239.664643 
L 230.648913 240.837358 
L 230.648992 242.00982 
L 230.649021 243.182182 
L 230.649017 244.35457 
L 230.64899 245.527082 
L 230.648951 246.699795 
L 230.648906 247.872763 
L 230.648858 249.046025 
L 230.648812 250.219605 
L 230.648769 251.393514 
L 230.64873 252.567753 
L 230.648696 253.742316 
L 230.648667 254.917189 
L 230.648642 256.092355 
L 230.648622 257.267793 
L 230.648605 258.443479 
L 230.648592 259.619389 
L 230.648582 260.795497 
L 230.648574 261.971779 
L 230.648568 263.148209 
L 230.648564 264.324764 
L 230.648563 265.501422 
L 230.648564 266.678161 
L 230.648569 267.854963 
L 230.64858 269.031807 
L 230.648601 270.208679 
L 230.648637 271.385562 
" clip-path="url(#pecab6359bf)" style="fill: none; stroke: #ff0000; stroke-opacity: 0.666667; stroke-width: 0.25; stroke-linecap: square"/>
   </g>
   <g id="line2d_66">
    <path d="M 230.647764 236.142907 
L 230.648074 237.317667 
L 230.648473 238.491486 
L 230.648736 239.664641 
L 230.648896 240.837356 
L 230.648983 242.009816 
L 230.649017 243.182176 
L 230.649016 244.354562 
L 230.648991 245.527072 
L 230.648953 246.699782 
L 230.648908 247.872748 
L 230.648861 249.046008 
L 230.648815 250.219586 
L 230.648771 251.393492 
L 230.648732 252.56773 
L 230.648697 253.742291 
L 230.648667 254.917164 
L 230.648642 256.09233 
L 230.648621 257.267768 
L 230.648604 258.443457 
L 230.64859 259.61937 
L 230.64858 260.795484 
L 230.648571 261.971772 
L 230.648565 263.148211 
L 230.648561 264.324777 
L 230.648559 265.501448 
L 230.648559 266.678203 
L 230.648563 267.855021 
L 230.648572 269.031886 
L 230.64859 270.20878 
L 230.648622 271.385688 
" clip-path="url(#pecab6359bf)" style="fill: none; stroke: #ff0000; stroke-width: 0.25; stroke-linecap: square"/>
   </g>
   <g id="patch_15">
    <path d="M 103.104 307.584 
L 103.104 41.472 
" style="fill: none; stroke: #000000; stroke-width: 0.8; stroke-linejoin: miter; stroke-linecap: square"/>
   </g>
   <g id="patch_16">
    <path d="M 369.216 307.584 
L 369.216 41.472 
" style="fill: none; stroke: #000000; stroke-width: 0.8; stroke-linejoin: miter; stroke-linecap: square"/>
   </g>
   <g id="patch_17">
    <path d="M 103.104 307.584 
L 369.216 307.584 
" style="fill: none; stroke: #000000; stroke-width: 0.8; stroke-linejoin: miter; stroke-linecap: square"/>
   </g>
   <g id="patch_18">
    <path d="M 103.104 41.472 
L 369.216 41.472 
" style="fill: none; stroke: #000000; stroke-width: 0.8; stroke-linejoin: miter; stroke-linecap: square"/>
   </g>
   <g id="text_19">
    <!-- Time: 137 ms -->
    <g transform="translate(261.069512 54.7776) scale(0.1 -0.1)">
     <defs>
      <path id="DejaVuSans-54" d="M -19 4666 
L 3928 4666 
L 3928 4134 
L 2272 4134 
L 2272 0 
L 1638 0 
L 1638 4134 
L -19 4134 
L -19 4666 
z
" transform="scale(0.015625)"/>
      <path id="DejaVuSans-69" d="M 603 3500 
L 1178 3500 
L 1178 0 
L 603 0 
L 603 3500 
z
M 603 4863 
L 1178 4863 
L 1178 4134 
L 603 4134 
L 603 4863 
z
" transform="scale(0.015625)"/>
      <path id="DejaVuSans-6d" d="M 3328 2828 
Q 3544 3216 3844 3400 
Q 4144 3584 4550 3584 
Q 5097 3584 5394 3201 
Q 5691 2819 5691 2113 
L 5691 0 
L 5113 0 
L 5113 2094 
Q 5113 2597 4934 2840 
Q 4756 3084 4391 3084 
Q 3944 3084 3684 2787 
Q 3425 2491 3425 1978 
L 3425 0 
L 2847 0 
L 2847 2094 
Q 2847 2600 2669 2842 
Q 2491 3084 2119 3084 
Q 1678 3084 1418 2786 
Q 1159 2488 1159 1978 
L 1159 0 
L 581 0 
L 581 3500 
L 1159 3500 
L 1159 2956 
Q 1356 3278 1631 3431 
Q 1906 3584 2284 3584 
Q 2666 3584 2933 3390 
Q 3200 3197 3328 2828 
z
" transform="scale(0.015625)"/>
      <path id="DejaVuSans-65" d="M 3597 1894 
L 3597 1613 
L 953 1613 
Q 991 1019 1311 708 
Q 1631 397 2203 397 
Q 2534 397 2845 478 
Q 3156 559 3463 722 
L 3463 178 
Q 3153 47 2828 -22 
Q 2503 -91 2169 -91 
Q 1331 -91 842 396 
Q 353 884 353 1716 
Q 353 2575 817 3079 
Q 1281 3584 2069 3584 
Q 2775 3584 3186 3129 
Q 3597 2675 3597 1894 
z
M 3022 2063 
Q 3016 2534 2758 2815 
Q 2500 3097 2075 3097 
Q 1594 3097 1305 2825 
Q 1016 2553 972 2059 
L 3022 2063 
z
" transform="scale(0.015625)"/>
      <path id="DejaVuSans-3a" d="M 750 794 
L 1409 794 
L 1409 0 
L 750 0 
L 750 794 
z
M 750 3309 
L 1409 3309 
L 1409 2516 
L 750 2516 
L 750 3309 
z
" transform="scale(0.015625)"/>
      <path id="DejaVuSans-20" transform="scale(0.015625)"/>
      <path id="DejaVuSans-37" d="M 525 4666 
L 3525 4666 
L 3525 4397 
L 1831 0 
L 1172 0 
L 2766 4134 
L 525 4134 
L 525 4666 
z
" transform="scale(0.015625)"/>
      <path id="DejaVuSans-73" d="M 2834 3397 
L 2834 2853 
Q 2591 2978 2328 3040 
Q 2066 3103 1784 3103 
Q 1356 3103 1142 2972 
Q 928 2841 928 2578 
Q 928 2378 1081 2264 
Q 1234 2150 1697 2047 
L 1894 2003 
Q 2506 1872 2764 1633 
Q 3022 1394 3022 966 
Q 3022 478 2636 193 
Q 2250 -91 1575 -91 
Q 1294 -91 989 -36 
Q 684 19 347 128 
L 347 722 
Q 666 556 975 473 
Q 1284 391 1588 391 
Q 1994 391 2212 530 
Q 2431 669 2431 922 
Q 2431 1156 2273 1281 
Q 2116 1406 1581 1522 
L 1381 1569 
Q 847 1681 609 1914 
Q 372 2147 372 2553 
Q 372 3047 722 3315 
Q 1072 3584 1716 3584 
Q 2034 3584 2315 3537 
Q 2597 3491 2834 3397 
z
" transform="scale(0.015625)"/>
     </defs>
     <use xlink:href="#DejaVuSans-54"/>
     <use xlink:href="#DejaVuSans-69" x="57.958984"/>
     <use xlink:href="#DejaVuSans-6d" x="85.742188"/>
     <use xlink:href="#DejaVuSans-65" x="183.154297"/>
     <use xlink:href="#DejaVuSans-3a" x="244.677734"/>
     <use xlink:href="#DejaVuSans-20" x="278.369141"/>
     <use xlink:href="#DejaVuSans-31" x="310.15625"/>
     <use xlink:href="#DejaVuSans-33" x="373.779297"/>
     <use xlink:href="#DejaVuSans-37" x="437.402344"/>
     <use xlink:href="#DejaVuSans-20" x="501.025391"/>
     <use xlink:href="#DejaVuSans-6d" x="532.8125"/>
     <use xlink:href="#DejaVuSans-73" x="630.224609"/>
    </g>
   </g>
  </g>
 </g>
 <defs>
  <clipPath id="pecab6359bf">
   <rect x="103.104" y="41.472" width="266.112" height="266.112"/>
  </clipPath>
 </defs>
</svg>
