<?xml version="1.0" encoding="utf-8" standalone="no"?>
<!DOCTYPE svg PUBLIC "-//W3C//DTD SVG 1.1//EN"
  "http://www.w3.org/Graphics/SVG/1.1/DTD/svg11.dtd">
<svg xmlns:xlink="http://www.w3.org/1999/xlink" width="460.8pt" height="345.6pt" viewBox="0 0 460.8 345.6" xmlns="http://www.w3.org/2000/svg" version="1.1">
 <metadata>
  <rdf:RDF xmlns:dc="http://purl.org/dc/elements/1.1/" xmlns:cc="http://creativecommons.org/ns#" xmlns:rdf="http://www.w3.org/1999/02/22-rdf-syntax-ns#">
   <cc:Work>
    <dc:type rdf:resource="http://purl.org/dc/dcmitype/StillImage"/>
    <dc:date>2024-01-22T16:49:21.058578</dc:date>
    <dc:format>image/svg+xml</dc:format>
    <dc:creator>
     <cc:Agent>
      <dc:title>Matplotlib v3.8.2, https://matplotlib.org/</dc:title>
     </cc:Agent>
    </dc:creator>
   </cc:Work>
  </rdf:RDF>
 </metadata>
 <defs>
  <style type="text/css">*{stroke-linejoin: round; stroke-linecap: butt}</style>
 </defs>
 <g id="figure_1">
  <g id="patch_1">
   <path d="M 0 345.6 
L 460.8 345.6 
L 460.8 0 
L 0 0 
z
" style="fill: #ffffff"/>
  </g>
  <g id="axes_1">
   <g id="patch_2">
    <path d="M 103.104 307.584 
L 369.216 307.584 
L 369.216 41.472 
L 103.104 41.472 
z
" style="fill: #ffffff"/>
   </g>
   <g id="patch_3">
    <path d="M 245.188225 122.61951 
L 245.195842 110.977112 
L 239.540963 110.973412 
L 239.533346 122.61581 
z
" clip-path="url(#p981cb0c29d)" style="fill: #00008b"/>
   </g>
   <g id="patch_4">
    <path d="M 184.482003 165.510466 
L 172.839613 165.495792 
L 172.832485 171.150668 
L 184.474876 171.165342 
z
" clip-path="url(#p981cb0c29d)" style="fill: #800000"/>
   </g>
   <g id="patch_5">
    <path d="M 285.297796 183.563292 
L 296.940194 183.557227 
L 296.937249 177.902348 
L 285.29485 177.908413 
z
" clip-path="url(#p981cb0c29d)" style="fill: #006400"/>
   </g>
   <g id="patch_6">
    <path d="M 227.134242 233.046973 
L 227.119545 244.689364 
L 232.77442 244.696503 
L 232.789117 233.054112 
z
" clip-path="url(#p981cb0c29d)" style="fill: #4b0082"/>
   </g>
   <g id="patch_7">
    <path d="M 244.597609 156.193272 
L 244.712033 144.551434 
L 239.057426 144.495857 
L 238.943002 156.137695 
z
" clip-path="url(#p981cb0c29d)" style="fill: #0000ff"/>
   </g>
   <g id="patch_8">
    <path d="M 227.04956 191.912574 
L 226.979099 203.554761 
L 232.633875 203.588985 
L 232.704336 191.946798 
z
" clip-path="url(#p981cb0c29d)" style="fill: #ff0000"/>
   </g>
   <g id="patch_9">
    <path d="M 210.066412 166.203919 
L 198.427456 165.920755 
L 198.289919 171.573962 
L 209.928875 171.857126 
z
" clip-path="url(#p981cb0c29d)" style="fill: #dbdc56"/>
   </g>
   <g id="patch_10">
    <path d="M 254.72837 184.161729 
L 266.316775 183.041751 
L 265.772785 177.413097 
L 254.18438 178.533075 
z
" clip-path="url(#p981cb0c29d)" style="fill: #9400d3"/>
   </g>
   <g id="patch_11">
    <path d="M 244.474338 198.457217 
L 246.404161 186.975873 
L 240.827509 186.03853 
L 238.897685 197.519874 
z
" clip-path="url(#p981cb0c29d)" style="fill: #1e90ff"/>
   </g>
   <g id="patch_12">
    <path d="M 248.387295 165.106432 
L 236.842854 163.599328 
L 236.110832 169.206628 
L 247.655273 170.713731 
z
" clip-path="url(#p981cb0c29d)" style="fill: #ff4500"/>
   </g>
   <g id="patch_13">
    <path d="M 227.653097 150.530982 
L 225.708834 162.009889 
L 231.284304 162.954246 
L 233.228566 151.475338 
z
" clip-path="url(#p981cb0c29d)" style="fill: #7cfc00"/>
   </g>
   <g id="patch_14">
    <path d="M 223.820694 183.426958 
L 235.357025 184.994931 
L 236.118612 179.39157 
L 224.582281 177.823597 
z
" clip-path="url(#p981cb0c29d)" style="fill: #ff00ff"/>
   </g>
   <g id="matplotlib.axis_1">
    <g id="xtick_1">
     <g id="line2d_1">
      <defs>
       <path id="m178c37972f" d="M 0 0 
L 0 3.5 
" style="stroke: #000000; stroke-width: 0.8"/>
      </defs>
      <g>
       <use xlink:href="#m178c37972f" x="103.104" y="307.584" style="stroke: #000000; stroke-width: 0.8"/>
      </g>
     </g>
     <g id="text_1">
      <!-- −40 -->
      <g transform="translate(92.551656 322.182437) scale(0.1 -0.1)">
       <defs>
        <path id="DejaVuSans-2212" d="M 678 2272 
L 4684 2272 
L 4684 1741 
L 678 1741 
L 678 2272 
z
" transform="scale(0.015625)"/>
        <path id="DejaVuSans-34" d="M 2419 4116 
L 825 1625 
L 2419 1625 
L 2419 4116 
z
M 2253 4666 
L 3047 4666 
L 3047 1625 
L 3713 1625 
L 3713 1100 
L 3047 1100 
L 3047 0 
L 2419 0 
L 2419 1100 
L 313 1100 
L 313 1709 
L 2253 4666 
z
" transform="scale(0.015625)"/>
        <path id="DejaVuSans-30" d="M 2034 4250 
Q 1547 4250 1301 3770 
Q 1056 3291 1056 2328 
Q 1056 1369 1301 889 
Q 1547 409 2034 409 
Q 2525 409 2770 889 
Q 3016 1369 3016 2328 
Q 3016 3291 2770 3770 
Q 2525 4250 2034 4250 
z
M 2034 4750 
Q 2819 4750 3233 4129 
Q 3647 3509 3647 2328 
Q 3647 1150 3233 529 
Q 2819 -91 2034 -91 
Q 1250 -91 836 529 
Q 422 1150 422 2328 
Q 422 3509 836 4129 
Q 1250 4750 2034 4750 
z
" transform="scale(0.015625)"/>
       </defs>
       <use xlink:href="#DejaVuSans-2212"/>
       <use xlink:href="#DejaVuSans-34" x="83.789062"/>
       <use xlink:href="#DejaVuSans-30" x="147.412109"/>
      </g>
     </g>
    </g>
    <g id="xtick_2">
     <g id="line2d_2">
      <g>
       <use xlink:href="#m178c37972f" x="136.368" y="307.584" style="stroke: #000000; stroke-width: 0.8"/>
      </g>
     </g>
     <g id="text_2">
      <!-- −30 -->
      <g transform="translate(125.815656 322.182437) scale(0.1 -0.1)">
       <defs>
        <path id="DejaVuSans-33" d="M 2597 2516 
Q 3050 2419 3304 2112 
Q 3559 1806 3559 1356 
Q 3559 666 3084 287 
Q 2609 -91 1734 -91 
Q 1441 -91 1130 -33 
Q 819 25 488 141 
L 488 750 
Q 750 597 1062 519 
Q 1375 441 1716 441 
Q 2309 441 2620 675 
Q 2931 909 2931 1356 
Q 2931 1769 2642 2001 
Q 2353 2234 1838 2234 
L 1294 2234 
L 1294 2753 
L 1863 2753 
Q 2328 2753 2575 2939 
Q 2822 3125 2822 3475 
Q 2822 3834 2567 4026 
Q 2313 4219 1838 4219 
Q 1578 4219 1281 4162 
Q 984 4106 628 3988 
L 628 4550 
Q 988 4650 1302 4700 
Q 1616 4750 1894 4750 
Q 2613 4750 3031 4423 
Q 3450 4097 3450 3541 
Q 3450 3153 3228 2886 
Q 3006 2619 2597 2516 
z
" transform="scale(0.015625)"/>
       </defs>
       <use xlink:href="#DejaVuSans-2212"/>
       <use xlink:href="#DejaVuSans-33" x="83.789062"/>
       <use xlink:href="#DejaVuSans-30" x="147.412109"/>
      </g>
     </g>
    </g>
    <g id="xtick_3">
     <g id="line2d_3">
      <g>
       <use xlink:href="#m178c37972f" x="169.632" y="307.584" style="stroke: #000000; stroke-width: 0.8"/>
      </g>
     </g>
     <g id="text_3">
      <!-- −20 -->
      <g transform="translate(159.079656 322.182437) scale(0.1 -0.1)">
       <defs>
        <path id="DejaVuSans-32" d="M 1228 531 
L 3431 531 
L 3431 0 
L 469 0 
L 469 531 
Q 828 903 1448 1529 
Q 2069 2156 2228 2338 
Q 2531 2678 2651 2914 
Q 2772 3150 2772 3378 
Q 2772 3750 2511 3984 
Q 2250 4219 1831 4219 
Q 1534 4219 1204 4116 
Q 875 4013 500 3803 
L 500 4441 
Q 881 4594 1212 4672 
Q 1544 4750 1819 4750 
Q 2544 4750 2975 4387 
Q 3406 4025 3406 3419 
Q 3406 3131 3298 2873 
Q 3191 2616 2906 2266 
Q 2828 2175 2409 1742 
Q 1991 1309 1228 531 
z
" transform="scale(0.015625)"/>
       </defs>
       <use xlink:href="#DejaVuSans-2212"/>
       <use xlink:href="#DejaVuSans-32" x="83.789062"/>
       <use xlink:href="#DejaVuSans-30" x="147.412109"/>
      </g>
     </g>
    </g>
    <g id="xtick_4">
     <g id="line2d_4">
      <g>
       <use xlink:href="#m178c37972f" x="202.896" y="307.584" style="stroke: #000000; stroke-width: 0.8"/>
      </g>
     </g>
     <g id="text_4">
      <!-- −10 -->
      <g transform="translate(192.343656 322.182437) scale(0.1 -0.1)">
       <defs>
        <path id="DejaVuSans-31" d="M 794 531 
L 1825 531 
L 1825 4091 
L 703 3866 
L 703 4441 
L 1819 4666 
L 2450 4666 
L 2450 531 
L 3481 531 
L 3481 0 
L 794 0 
L 794 531 
z
" transform="scale(0.015625)"/>
       </defs>
       <use xlink:href="#DejaVuSans-2212"/>
       <use xlink:href="#DejaVuSans-31" x="83.789062"/>
       <use xlink:href="#DejaVuSans-30" x="147.412109"/>
      </g>
     </g>
    </g>
    <g id="xtick_5">
     <g id="line2d_5">
      <g>
       <use xlink:href="#m178c37972f" x="236.16" y="307.584" style="stroke: #000000; stroke-width: 0.8"/>
      </g>
     </g>
     <g id="text_5">
      <!-- 0 -->
      <g transform="translate(232.97875 322.182437) scale(0.1 -0.1)">
       <use xlink:href="#DejaVuSans-30"/>
      </g>
     </g>
    </g>
    <g id="xtick_6">
     <g id="line2d_6">
      <g>
       <use xlink:href="#m178c37972f" x="269.424" y="307.584" style="stroke: #000000; stroke-width: 0.8"/>
      </g>
     </g>
     <g id="text_6">
      <!-- 10 -->
      <g transform="translate(263.0615 322.182437) scale(0.1 -0.1)">
       <use xlink:href="#DejaVuSans-31"/>
       <use xlink:href="#DejaVuSans-30" x="63.623047"/>
      </g>
     </g>
    </g>
    <g id="xtick_7">
     <g id="line2d_7">
      <g>
       <use xlink:href="#m178c37972f" x="302.688" y="307.584" style="stroke: #000000; stroke-width: 0.8"/>
      </g>
     </g>
     <g id="text_7">
      <!-- 20 -->
      <g transform="translate(296.3255 322.182437) scale(0.1 -0.1)">
       <use xlink:href="#DejaVuSans-32"/>
       <use xlink:href="#DejaVuSans-30" x="63.623047"/>
      </g>
     </g>
    </g>
    <g id="xtick_8">
     <g id="line2d_8">
      <g>
       <use xlink:href="#m178c37972f" x="335.952" y="307.584" style="stroke: #000000; stroke-width: 0.8"/>
      </g>
     </g>
     <g id="text_8">
      <!-- 30 -->
      <g transform="translate(329.5895 322.182437) scale(0.1 -0.1)">
       <use xlink:href="#DejaVuSans-33"/>
       <use xlink:href="#DejaVuSans-30" x="63.623047"/>
      </g>
     </g>
    </g>
    <g id="xtick_9">
     <g id="line2d_9">
      <g>
       <use xlink:href="#m178c37972f" x="369.216" y="307.584" style="stroke: #000000; stroke-width: 0.8"/>
      </g>
     </g>
     <g id="text_9">
      <!-- 40 -->
      <g transform="translate(362.8535 322.182437) scale(0.1 -0.1)">
       <use xlink:href="#DejaVuSans-34"/>
       <use xlink:href="#DejaVuSans-30" x="63.623047"/>
      </g>
     </g>
    </g>
   </g>
   <g id="matplotlib.axis_2">
    <g id="ytick_1">
     <g id="line2d_10">
      <defs>
       <path id="m08a6a13211" d="M 0 0 
L -3.5 0 
" style="stroke: #000000; stroke-width: 0.8"/>
      </defs>
      <g>
       <use xlink:href="#m08a6a13211" x="103.104" y="307.584" style="stroke: #000000; stroke-width: 0.8"/>
      </g>
     </g>
     <g id="text_10">
      <!-- −40 -->
      <g transform="translate(74.999313 311.383219) scale(0.1 -0.1)">
       <use xlink:href="#DejaVuSans-2212"/>
       <use xlink:href="#DejaVuSans-34" x="83.789062"/>
       <use xlink:href="#DejaVuSans-30" x="147.412109"/>
      </g>
     </g>
    </g>
    <g id="ytick_2">
     <g id="line2d_11">
      <g>
       <use xlink:href="#m08a6a13211" x="103.104" y="274.32" style="stroke: #000000; stroke-width: 0.8"/>
      </g>
     </g>
     <g id="text_11">
      <!-- −30 -->
      <g transform="translate(74.999313 278.119219) scale(0.1 -0.1)">
       <use xlink:href="#DejaVuSans-2212"/>
       <use xlink:href="#DejaVuSans-33" x="83.789062"/>
       <use xlink:href="#DejaVuSans-30" x="147.412109"/>
      </g>
     </g>
    </g>
    <g id="ytick_3">
     <g id="line2d_12">
      <g>
       <use xlink:href="#m08a6a13211" x="103.104" y="241.056" style="stroke: #000000; stroke-width: 0.8"/>
      </g>
     </g>
     <g id="text_12">
      <!-- −20 -->
      <g transform="translate(74.999313 244.855219) scale(0.1 -0.1)">
       <use xlink:href="#DejaVuSans-2212"/>
       <use xlink:href="#DejaVuSans-32" x="83.789062"/>
       <use xlink:href="#DejaVuSans-30" x="147.412109"/>
      </g>
     </g>
    </g>
    <g id="ytick_4">
     <g id="line2d_13">
      <g>
       <use xlink:href="#m08a6a13211" x="103.104" y="207.792" style="stroke: #000000; stroke-width: 0.8"/>
      </g>
     </g>
     <g id="text_13">
      <!-- −10 -->
      <g transform="translate(74.999313 211.591219) scale(0.1 -0.1)">
       <use xlink:href="#DejaVuSans-2212"/>
       <use xlink:href="#DejaVuSans-31" x="83.789062"/>
       <use xlink:href="#DejaVuSans-30" x="147.412109"/>
      </g>
     </g>
    </g>
    <g id="ytick_5">
     <g id="line2d_14">
      <g>
       <use xlink:href="#m08a6a13211" x="103.104" y="174.528" style="stroke: #000000; stroke-width: 0.8"/>
      </g>
     </g>
     <g id="text_14">
      <!-- 0 -->
      <g transform="translate(89.7415 178.327219) scale(0.1 -0.1)">
       <use xlink:href="#DejaVuSans-30"/>
      </g>
     </g>
    </g>
    <g id="ytick_6">
     <g id="line2d_15">
      <g>
       <use xlink:href="#m08a6a13211" x="103.104" y="141.264" style="stroke: #000000; stroke-width: 0.8"/>
      </g>
     </g>
     <g id="text_15">
      <!-- 10 -->
      <g transform="translate(83.379 145.063219) scale(0.1 -0.1)">
       <use xlink:href="#DejaVuSans-31"/>
       <use xlink:href="#DejaVuSans-30" x="63.623047"/>
      </g>
     </g>
    </g>
    <g id="ytick_7">
     <g id="line2d_16">
      <g>
       <use xlink:href="#m08a6a13211" x="103.104" y="108" style="stroke: #000000; stroke-width: 0.8"/>
      </g>
     </g>
     <g id="text_16">
      <!-- 20 -->
      <g transform="translate(83.379 111.799219) scale(0.1 -0.1)">
       <use xlink:href="#DejaVuSans-32"/>
       <use xlink:href="#DejaVuSans-30" x="63.623047"/>
      </g>
     </g>
    </g>
    <g id="ytick_8">
     <g id="line2d_17">
      <g>
       <use xlink:href="#m08a6a13211" x="103.104" y="74.736" style="stroke: #000000; stroke-width: 0.8"/>
      </g>
     </g>
     <g id="text_17">
      <!-- 30 -->
      <g transform="translate(83.379 78.535219) scale(0.1 -0.1)">
       <use xlink:href="#DejaVuSans-33"/>
       <use xlink:href="#DejaVuSans-30" x="63.623047"/>
      </g>
     </g>
    </g>
    <g id="ytick_9">
     <g id="line2d_18">
      <g>
       <use xlink:href="#m08a6a13211" x="103.104" y="41.472" style="stroke: #000000; stroke-width: 0.8"/>
      </g>
     </g>
     <g id="text_18">
      <!-- 40 -->
      <g transform="translate(83.379 45.271219) scale(0.1 -0.1)">
       <use xlink:href="#DejaVuSans-34"/>
       <use xlink:href="#DejaVuSans-30" x="63.623047"/>
      </g>
     </g>
    </g>
   </g>
   <g id="line2d_19">
    <path d="M 251.1288 346.6 
L 251.1288 189.4968 
" clip-path="url(#p981cb0c29d)" style="fill: none; stroke: #000000; stroke-width: 0.25; stroke-linecap: square"/>
   </g>
   <g id="line2d_20">
    <path d="M 251.1288 189.4968 
L 417.4488 189.4968 
" clip-path="url(#p981cb0c29d)" style="fill: none; stroke: #000000; stroke-width: 0.25; stroke-linecap: square"/>
   </g>
   <g id="line2d_21">
    <path d="M 417.4488 159.5592 
L 251.1288 159.5592 
" clip-path="url(#p981cb0c29d)" style="fill: none; stroke: #000000; stroke-width: 0.25; stroke-linecap: square"/>
   </g>
   <g id="line2d_22">
    <path d="M 251.1288 159.5592 
L 251.1288 -1 
" clip-path="url(#p981cb0c29d)" style="fill: none; stroke: #000000; stroke-width: 0.25; stroke-linecap: square"/>
   </g>
   <g id="line2d_23">
    <path d="M 221.1912 -1 
L 221.1912 159.5592 
" clip-path="url(#p981cb0c29d)" style="fill: none; stroke: #000000; stroke-width: 0.25; stroke-linecap: square"/>
   </g>
   <g id="line2d_24">
    <path d="M 221.1912 159.5592 
L 54.8712 159.5592 
" clip-path="url(#p981cb0c29d)" style="fill: none; stroke: #000000; stroke-width: 0.25; stroke-linecap: square"/>
   </g>
   <g id="line2d_25">
    <path d="M 54.8712 189.4968 
L 221.1912 189.4968 
" clip-path="url(#p981cb0c29d)" style="fill: none; stroke: #000000; stroke-width: 0.25; stroke-linecap: square"/>
   </g>
   <g id="line2d_26">
    <path d="M 221.1912 189.4968 
L 221.1912 346.6 
" clip-path="url(#p981cb0c29d)" style="fill: none; stroke: #000000; stroke-width: 0.25; stroke-linecap: square"/>
   </g>
   <g id="line2d_27">
    <path d="M 251.1288 174.528 
L 417.4488 174.528 
" clip-path="url(#p981cb0c29d)" style="fill: none; stroke-dasharray: 0.925,0.4; stroke-dashoffset: 0; stroke: #000000; stroke-width: 0.25"/>
   </g>
   <g id="line2d_28">
    <path d="M 236.16 159.5592 
L 236.16 -1 
" clip-path="url(#p981cb0c29d)" style="fill: none; stroke-dasharray: 0.925,0.4; stroke-dashoffset: 0; stroke: #000000; stroke-width: 0.25"/>
   </g>
   <g id="line2d_29">
    <path d="M 221.1912 174.528 
L 54.8712 174.528 
" clip-path="url(#p981cb0c29d)" style="fill: none; stroke-dasharray: 0.925,0.4; stroke-dashoffset: 0; stroke: #000000; stroke-width: 0.25"/>
   </g>
   <g id="line2d_30">
    <path d="M 236.16 189.4968 
L 236.16 346.6 
" clip-path="url(#p981cb0c29d)" style="fill: none; stroke-dasharray: 0.925,0.4; stroke-dashoffset: 0; stroke: #000000; stroke-width: 0.25"/>
   </g>
   <g id="line2d_31">
    <path d="M 242.364971 118.7456 
L 242.364795 116.796461 
L 242.364464 114.847774 
L 242.364003 112.899453 
L 242.363483 110.951422 
L 242.362954 109.00361 
L 242.36245 107.055955 
L 242.361991 105.108402 
L 242.361589 103.160902 
L 242.361246 101.213414 
L 242.360964 99.265901 
L 242.360736 97.318333 
L 242.360559 95.370684 
L 242.360425 93.422934 
L 242.360327 91.475066 
L 242.360258 89.527071 
L 242.360214 87.578939 
L 242.360188 85.630667 
L 242.360175 83.682254 
L 242.360173 81.733702 
L 242.360177 79.785015 
L 242.360185 77.8362 
L 242.360196 75.887266 
L 242.360208 73.938223 
L 242.360219 71.989083 
L 242.360231 70.039858 
L 242.360241 68.090562 
L 242.360251 66.141208 
L 242.36026 64.191811 
L 242.360268 62.242384 
L 242.360276 60.29294 
" clip-path="url(#p981cb0c29d)" style="fill: none; stroke: #ff0000; stroke-opacity: 0.2; stroke-width: 0.25; stroke-linecap: square"/>
   </g>
   <g id="line2d_32">
    <path d="M 242.364971 118.7456 
L 242.364732 116.796461 
L 242.364404 114.847787 
L 242.363948 112.899493 
L 242.363435 110.951501 
L 242.362914 109.003743 
L 242.362418 107.056155 
L 242.361967 105.108684 
L 242.361572 103.16128 
L 242.361237 101.213902 
L 242.360961 99.266514 
L 242.360739 97.319085 
L 242.360566 95.371589 
L 242.360435 93.424008 
L 242.360339 91.476325 
L 242.360273 89.528528 
L 242.360229 87.58061 
L 242.360203 85.632566 
L 242.36019 83.684396 
L 242.360186 81.736101 
L 242.360188 79.787687 
L 242.360195 77.839158 
L 242.360204 75.890524 
L 242.360215 73.941794 
L 242.360225 71.992979 
L 242.360236 70.044093 
L 242.360246 68.095146 
L 242.360256 66.146153 
L 242.360265 64.197125 
L 242.360274 62.248077 
L 242.360282 60.299019 
" clip-path="url(#p981cb0c29d)" style="fill: none; stroke: #ff0000; stroke-opacity: 0.4; stroke-width: 0.25; stroke-linecap: square"/>
   </g>
   <g id="line2d_33">
    <path d="M 242.364971 118.7456 
L 242.364678 116.796461 
L 242.364354 114.847779 
L 242.363904 112.899469 
L 242.363398 110.951453 
L 242.362884 109.003662 
L 242.362395 107.056034 
L 242.36195 105.108514 
L 242.36156 103.161053 
L 242.361229 101.21361 
L 242.360956 99.266148 
L 242.360737 97.318637 
L 242.360565 95.371052 
L 242.360435 93.423373 
L 242.36034 91.475583 
L 242.360273 89.527672 
L 242.360229 87.579631 
L 242.360202 85.631457 
L 242.360188 83.683149 
L 242.360183 81.734708 
L 242.360185 79.78614 
L 242.360191 77.83745 
L 242.3602 75.888649 
L 242.360211 73.939745 
L 242.360222 71.99075 
L 242.360232 70.041677 
L 242.360243 68.092538 
L 242.360252 66.143348 
L 242.360261 64.194119 
L 242.36027 62.244864 
L 242.360278 60.295597 
" clip-path="url(#p981cb0c29d)" style="fill: none; stroke: #ff0000; stroke-opacity: 0.6; stroke-width: 0.25; stroke-linecap: square"/>
   </g>
   <g id="line2d_34">
    <path d="M 242.364971 118.7456 
L 242.364633 116.796461 
L 242.364313 114.847784 
L 242.363869 112.899483 
L 242.363369 110.951482 
L 242.362862 109.00371 
L 242.362379 107.056106 
L 242.361939 105.108615 
L 242.361554 103.161187 
L 242.361227 101.213782 
L 242.360956 99.266363 
L 242.360738 97.3189 
L 242.360568 95.371367 
L 242.360439 93.423744 
L 242.360344 91.476016 
L 242.360277 89.52817 
L 242.360232 87.5802 
L 242.360205 85.6321 
L 242.360191 83.68387 
L 242.360186 81.735512 
L 242.360188 79.787031 
L 242.360194 77.838431 
L 242.360203 75.889724 
L 242.360213 73.940917 
L 242.360224 71.992022 
L 242.360235 70.043052 
L 242.360245 68.09402 
L 242.360254 66.144938 
L 242.360263 64.195819 
L 242.360272 62.246678 
L 242.360281 60.297525 
" clip-path="url(#p981cb0c29d)" style="fill: none; stroke: #ff0000; stroke-opacity: 0.8; stroke-width: 0.25; stroke-linecap: square"/>
   </g>
   <g id="line2d_35">
    <path d="M 242.364971 118.7456 
L 242.364594 116.796461 
L 242.364279 114.847781 
L 242.363841 112.899475 
L 242.363347 110.951465 
L 242.362845 109.003682 
L 242.362367 107.056064 
L 242.361931 105.108556 
L 242.361549 103.161109 
L 242.361224 101.213682 
L 242.360955 99.266238 
L 242.360739 97.318747 
L 242.360569 95.371184 
L 242.360439 93.423529 
L 242.360344 91.475765 
L 242.360277 89.527882 
L 242.360232 87.579871 
L 242.360205 85.631729 
L 242.36019 83.683455 
L 242.360185 81.73505 
L 242.360187 79.78652 
L 242.360193 77.83787 
L 242.360202 75.889109 
L 242.360212 73.940248 
L 242.360223 71.991297 
L 242.360233 70.04227 
L 242.360244 68.093179 
L 242.360253 66.144037 
L 242.360262 64.194857 
L 242.360271 62.245654 
L 242.360279 60.296438 
" clip-path="url(#p981cb0c29d)" style="fill: none; stroke: #ff0000; stroke-width: 0.25; stroke-linecap: square"/>
   </g>
   <g id="line2d_36">
    <path d="M 180.62255 168.332147 
L 178.657244 168.330454 
L 176.692792 168.329148 
L 174.729144 168.328199 
L 172.766248 168.32754 
L 170.804056 168.327111 
L 168.842521 168.326861 
L 166.881597 168.326743 
L 164.921238 168.32672 
L 162.961401 168.326761 
L 161.002045 168.326843 
L 159.043131 168.326947 
L 157.08462 168.32706 
L 155.126477 168.327173 
L 153.168667 168.327279 
L 151.211158 168.327374 
L 149.25392 168.327457 
L 147.296923 168.327527 
L 145.340142 168.327585 
L 143.383551 168.32763 
L 141.427126 168.327666 
L 139.470846 168.327692 
L 137.51469 168.327711 
L 135.558641 168.327724 
L 133.60268 168.327732 
L 131.646792 168.327736 
L 129.690963 168.327737 
L 127.73518 168.327737 
L 125.779429 168.327735 
L 123.823702 168.327733 
L 121.867987 168.327731 
" clip-path="url(#p981cb0c29d)" style="fill: none; stroke: #ff0000; stroke-opacity: 0.2; stroke-width: 0.25; stroke-linecap: square"/>
   </g>
   <g id="line2d_37">
    <path d="M 180.62255 168.332147 
L 178.657244 168.33049 
L 176.692792 168.329183 
L 174.729143 168.328231 
L 172.766246 168.327569 
L 170.804052 168.327136 
L 168.842514 168.326881 
L 166.881584 168.326758 
L 164.921219 168.32673 
L 162.961375 168.326767 
L 161.002009 168.326844 
L 159.043083 168.326945 
L 157.084558 168.327055 
L 155.126397 168.327166 
L 153.168568 168.32727 
L 151.211036 168.327364 
L 149.253771 168.327447 
L 147.296745 168.327517 
L 145.33993 168.327574 
L 143.383301 168.327621 
L 141.426834 168.327657 
L 139.470508 168.327684 
L 137.514301 168.327704 
L 135.558196 168.327718 
L 133.602174 168.327727 
L 131.64622 168.327733 
L 129.69032 168.327735 
L 127.734459 168.327735 
L 125.778627 168.327735 
L 123.822812 168.327733 
L 121.867004 168.327731 
" clip-path="url(#p981cb0c29d)" style="fill: none; stroke: #ff0000; stroke-opacity: 0.4; stroke-width: 0.25; stroke-linecap: square"/>
   </g>
   <g id="line2d_38">
    <path d="M 180.62255 168.332147 
L 178.657244 168.33052 
L 176.692793 168.329212 
L 174.729144 168.328257 
L 172.766249 168.327591 
L 170.804057 168.327155 
L 168.842522 168.326895 
L 166.881597 168.326769 
L 164.921236 168.326738 
L 162.961398 168.326772 
L 161.002039 168.326847 
L 159.043121 168.326946 
L 157.084606 168.327056 
L 155.126457 168.327165 
L 153.168639 168.32727 
L 151.211122 168.327364 
L 149.253873 168.327447 
L 147.296864 168.327518 
L 145.340069 168.327576 
L 143.383461 168.327623 
L 141.427018 168.32766 
L 139.470718 168.327687 
L 137.514539 168.327707 
L 135.558464 168.327721 
L 133.602475 168.32773 
L 131.646556 168.327735 
L 129.690693 168.327737 
L 127.734873 168.327737 
L 125.779083 168.327735 
L 123.823312 168.327733 
L 121.867552 168.327731 
" clip-path="url(#p981cb0c29d)" style="fill: none; stroke: #ff0000; stroke-opacity: 0.6; stroke-width: 0.25; stroke-linecap: square"/>
   </g>
   <g id="line2d_39">
    <path d="M 180.62255 168.332147 
L 178.657244 168.330545 
L 176.692792 168.329235 
L 174.729143 168.328278 
L 172.766246 168.327608 
L 170.804053 168.327168 
L 168.842516 168.326905 
L 166.881587 168.326775 
L 164.921224 168.326741 
L 162.961381 168.326773 
L 161.002018 168.326847 
L 159.043094 168.326945 
L 157.084573 168.327054 
L 155.126417 168.327163 
L 153.168592 168.327267 
L 151.211066 168.327362 
L 149.253807 168.327445 
L 147.296789 168.327515 
L 145.339982 168.327574 
L 143.383362 168.327621 
L 141.426906 168.327658 
L 139.47059 168.327685 
L 137.514396 168.327706 
L 135.558305 168.327719 
L 133.602298 168.327728 
L 131.646361 168.327733 
L 129.690478 168.327736 
L 127.734636 168.327736 
L 125.778824 168.327735 
L 123.823031 168.327733 
L 121.867246 168.327731 
" clip-path="url(#p981cb0c29d)" style="fill: none; stroke: #ff0000; stroke-opacity: 0.8; stroke-width: 0.25; stroke-linecap: square"/>
   </g>
   <g id="line2d_40">
    <path d="M 180.62255 168.332147 
L 178.657244 168.330567 
L 176.692792 168.329255 
L 174.729144 168.328294 
L 172.766248 168.327621 
L 170.804056 168.327178 
L 168.84252 168.326912 
L 166.881594 168.32678 
L 164.921232 168.326744 
L 162.961392 168.326775 
L 161.002032 168.326847 
L 159.043112 168.326945 
L 157.084594 168.327053 
L 155.126442 168.327162 
L 153.168622 168.327267 
L 151.211101 168.327361 
L 149.253848 168.327445 
L 147.296835 168.327516 
L 145.340035 168.327574 
L 143.383422 168.327621 
L 141.426973 168.327658 
L 139.470666 168.327686 
L 137.514481 168.327706 
L 135.558398 168.32772 
L 133.602401 168.327729 
L 131.646473 168.327734 
L 129.690601 168.327736 
L 127.734771 168.327736 
L 125.778971 168.327735 
L 123.823189 168.327733 
L 121.867417 168.327731 
" clip-path="url(#p981cb0c29d)" style="fill: none; stroke: #ff0000; stroke-width: 0.25; stroke-linecap: square"/>
   </g>
   <g id="line2d_41">
    <path d="M 289.144578 180.734202 
L 291.117522 180.73286 
L 293.090011 180.731712 
L 295.062141 180.730751 
L 297.034 180.729969 
L 299.005668 180.729353 
L 300.977213 180.728881 
L 302.948699 180.728534 
L 304.920177 180.728288 
L 306.891696 180.728125 
L 308.863294 180.728025 
L 310.835004 180.727973 
L 312.806852 180.727955 
L 314.77886 180.727962 
L 316.751042 180.727984 
L 318.72341 180.728016 
L 320.695969 180.728051 
L 322.668722 180.728088 
L 324.641667 180.728123 
L 326.614799 180.728154 
L 328.58811 180.728182 
L 330.56159 180.728206 
L 332.535225 180.728226 
L 334.509003 180.728242 
L 336.482907 180.728254 
L 338.45692 180.728264 
L 340.431025 180.728271 
L 342.405204 180.728276 
L 344.379439 180.72828 
L 346.353712 180.728283 
L 348.328007 180.728285 
" clip-path="url(#p981cb0c29d)" style="fill: none; stroke: #ff0000; stroke-opacity: 0.2; stroke-width: 0.25; stroke-linecap: square"/>
   </g>
   <g id="line2d_42">
    <path d="M 289.144578 180.734202 
L 291.117522 180.732848 
L 293.089995 180.731701 
L 295.062093 180.730741 
L 297.033904 180.729961 
L 299.005507 180.729346 
L 300.976971 180.728877 
L 302.948358 180.72853 
L 304.919721 180.728286 
L 306.891106 180.728123 
L 308.862553 180.728024 
L 310.834094 180.727973 
L 312.805756 180.727956 
L 314.777558 180.727963 
L 316.749518 180.727986 
L 318.721644 180.728017 
L 320.693944 180.728053 
L 322.666419 180.728089 
L 324.639068 180.728124 
L 326.611885 180.728156 
L 328.584865 180.728183 
L 330.557995 180.728207 
L 332.531265 180.728227 
L 334.50466 180.728243 
L 336.478166 180.728255 
L 338.451766 180.728265 
L 340.425443 180.728272 
L 342.39918 180.728278 
L 344.372962 180.728282 
L 346.34677 180.728286 
L 348.320591 180.728289 
" clip-path="url(#p981cb0c29d)" style="fill: none; stroke: #ff0000; stroke-opacity: 0.4; stroke-width: 0.25; stroke-linecap: square"/>
   </g>
   <g id="line2d_43">
    <path d="M 289.144578 180.734202 
L 291.117522 180.732837 
L 293.090005 180.731692 
L 295.062122 180.730733 
L 297.033963 180.729955 
L 299.005605 180.729341 
L 300.977118 180.728873 
L 302.948563 180.728528 
L 304.919995 180.728284 
L 306.89146 180.728122 
L 308.862996 180.728024 
L 310.834636 180.727973 
L 312.806407 180.727956 
L 314.778329 180.727963 
L 316.750418 180.727986 
L 318.722683 180.728017 
L 320.695132 180.728053 
L 322.667766 180.728089 
L 324.640583 180.728124 
L 326.613579 180.728156 
L 328.586745 180.728183 
L 330.560072 180.728207 
L 332.533546 180.728226 
L 334.507154 180.728242 
L 336.48088 180.728255 
L 338.454707 180.728264 
L 340.428619 180.728271 
L 342.402598 180.728277 
L 344.376626 180.728281 
L 346.350687 180.728284 
L 348.324764 180.728287 
" clip-path="url(#p981cb0c29d)" style="fill: none; stroke: #ff0000; stroke-opacity: 0.6; stroke-width: 0.25; stroke-linecap: square"/>
   </g>
   <g id="line2d_44">
    <path d="M 289.144578 180.734202 
L 291.117522 180.732828 
L 293.089999 180.731684 
L 295.062105 180.730727 
L 297.033928 180.72995 
L 299.005546 180.729338 
L 300.977031 180.72887 
L 302.948441 180.728526 
L 304.919833 180.728283 
L 306.891251 180.728122 
L 308.862735 180.728024 
L 310.834317 180.727973 
L 312.806025 180.727956 
L 314.777878 180.727964 
L 316.749892 180.727986 
L 318.722077 180.728018 
L 320.694441 180.728053 
L 322.666984 180.72809 
L 324.639706 180.728124 
L 326.612601 180.728156 
L 328.585661 180.728184 
L 330.558878 180.728207 
L 332.532238 180.728227 
L 334.505727 180.728243 
L 336.479331 180.728255 
L 338.453032 180.728265 
L 340.426814 180.728272 
L 342.40066 180.728277 
L 344.374553 180.728281 
L 346.348476 180.728285 
L 348.322413 180.728288 
" clip-path="url(#p981cb0c29d)" style="fill: none; stroke: #ff0000; stroke-opacity: 0.8; stroke-width: 0.25; stroke-linecap: square"/>
   </g>
   <g id="line2d_45">
    <path d="M 289.144578 180.734202 
L 291.117522 180.73282 
L 293.090002 180.731677 
L 295.062115 180.730722 
L 297.033948 180.729946 
L 299.005581 180.729335 
L 300.977082 180.728868 
L 302.948513 180.728525 
L 304.919928 180.728282 
L 306.891373 180.728121 
L 308.862887 180.728023 
L 310.834503 180.727973 
L 312.806247 180.727956 
L 314.77814 180.727964 
L 316.750197 180.727987 
L 318.722428 180.728018 
L 320.69484 180.728054 
L 322.667435 180.72809 
L 324.640211 180.728124 
L 326.613163 180.728156 
L 328.586283 180.728184 
L 330.559562 180.728207 
L 332.532986 180.728227 
L 334.506541 180.728242 
L 336.480213 180.728255 
L 338.453985 180.728264 
L 340.427839 180.728271 
L 342.401758 180.728277 
L 344.375726 180.728281 
L 346.349725 180.728284 
L 348.323738 180.728288 
" clip-path="url(#p981cb0c29d)" style="fill: none; stroke: #ff0000; stroke-width: 0.25; stroke-linecap: square"/>
   </g>
   <g id="line2d_46">
    <path d="M 229.954105 237.058221 
L 229.954041 238.871738 
L 229.954195 240.687009 
L 229.954568 242.503935 
L 229.955075 244.322417 
L 229.955646 246.142361 
L 229.956235 247.96367 
L 229.956808 249.786253 
L 229.957341 251.61002 
L 229.957821 253.434885 
L 229.958242 255.260765 
L 229.958602 257.087577 
L 229.958903 258.915247 
L 229.959149 260.743699 
L 229.959345 262.572863 
L 229.959497 264.402672 
L 229.959612 266.233064 
L 229.959695 268.063978 
L 229.959753 269.895357 
L 229.959791 271.727149 
L 229.959814 273.559304 
L 229.959824 275.391776 
L 229.959826 277.224521 
L 229.959821 279.057499 
L 229.959813 280.890673 
L 229.959802 282.724008 
L 229.959789 284.557474 
L 229.959776 286.391041 
L 229.959763 288.224682 
L 229.959749 290.058374 
L 229.959737 291.892095 
" clip-path="url(#p981cb0c29d)" style="fill: none; stroke: #ff0000; stroke-opacity: 0.2; stroke-width: 0.25; stroke-linecap: square"/>
   </g>
   <g id="line2d_47">
    <path d="M 229.954105 237.058221 
L 229.95414 238.871738 
L 229.954288 240.687007 
L 229.954653 242.503929 
L 229.955148 244.322405 
L 229.955708 246.142339 
L 229.956284 247.963634 
L 229.956843 249.7862 
L 229.957364 251.609946 
L 229.957833 253.434784 
L 229.958244 255.260631 
L 229.958596 257.087406 
L 229.95889 258.91503 
L 229.95913 260.74343 
L 229.959322 262.572535 
L 229.959471 264.402278 
L 229.959585 266.232594 
L 229.959669 268.063423 
L 229.959728 269.894708 
L 229.959768 271.726397 
L 229.959793 273.558437 
L 229.959806 275.390784 
L 229.95981 277.223393 
L 229.959808 279.056224 
L 229.959802 280.889239 
L 229.959793 282.722404 
L 229.959781 284.555686 
L 229.959769 286.389058 
L 229.959756 288.222491 
L 229.959744 290.055962 
L 229.95973 291.889449 
" clip-path="url(#p981cb0c29d)" style="fill: none; stroke: #ff0000; stroke-opacity: 0.4; stroke-width: 0.25; stroke-linecap: square"/>
   </g>
   <g id="line2d_48">
    <path d="M 229.954105 237.058221 
L 229.954218 238.871738 
L 229.95436 240.687009 
L 229.954716 242.503934 
L 229.955202 244.322416 
L 229.955752 246.142358 
L 229.956318 247.963664 
L 229.956869 249.786242 
L 229.957383 251.610004 
L 229.957846 253.434861 
L 229.958253 255.260729 
L 229.958601 257.087529 
L 229.958893 258.915182 
L 229.959132 260.743615 
L 229.959324 262.572757 
L 229.959475 264.40254 
L 229.959589 266.2329 
L 229.959674 268.063779 
L 229.959735 269.895119 
L 229.959775 271.726866 
L 229.959801 273.558971 
L 229.959814 275.391387 
L 229.959818 277.224071 
L 229.959816 279.056982 
L 229.959809 280.890083 
L 229.959799 282.723339 
L 229.959787 284.556719 
L 229.959774 286.390192 
L 229.959761 288.223734 
L 229.959748 290.05732 
L 229.959735 291.890927 
" clip-path="url(#p981cb0c29d)" style="fill: none; stroke: #ff0000; stroke-opacity: 0.6; stroke-width: 0.25; stroke-linecap: square"/>
   </g>
   <g id="line2d_49">
    <path d="M 229.954105 237.058221 
L 229.954281 238.871738 
L 229.954415 240.687008 
L 229.954763 242.50393 
L 229.955239 244.322408 
L 229.95578 246.142344 
L 229.956339 247.963643 
L 229.956883 249.786213 
L 229.957391 251.609964 
L 229.95785 253.434809 
L 229.958253 255.260664 
L 229.958599 257.087448 
L 229.958889 258.915083 
L 229.959128 260.743496 
L 229.959319 262.572615 
L 229.959469 264.402374 
L 229.959584 266.232709 
L 229.959669 268.063559 
L 229.95973 269.894867 
L 229.95977 271.726581 
L 229.959795 273.55865 
L 229.959809 275.391027 
L 229.959813 277.22367 
L 229.959811 279.056537 
L 229.959804 280.889591 
L 229.959795 282.722798 
L 229.959783 284.556125 
L 229.959771 286.389545 
L 229.959758 288.223029 
L 229.959745 290.056555 
L 229.959732 291.8901 
" clip-path="url(#p981cb0c29d)" style="fill: none; stroke: #ff0000; stroke-opacity: 0.8; stroke-width: 0.25; stroke-linecap: square"/>
   </g>
   <g id="line2d_50">
    <path d="M 229.954105 237.058221 
L 229.954331 238.871738 
L 229.954458 240.687008 
L 229.954798 242.503933 
L 229.955267 244.322413 
L 229.955801 246.142353 
L 229.956354 247.963657 
L 229.956893 249.786232 
L 229.957397 251.609989 
L 229.957853 253.434842 
L 229.958255 255.260705 
L 229.9586 257.087499 
L 229.95889 258.915145 
L 229.959128 260.74357 
L 229.959319 262.572702 
L 229.95947 264.402475 
L 229.959585 266.232825 
L 229.95967 268.063692 
L 229.959731 269.895018 
L 229.959772 271.726751 
L 229.959797 273.55884 
L 229.959811 275.39124 
L 229.959815 277.223905 
L 229.959813 279.056796 
L 229.959806 280.889876 
L 229.959797 282.723109 
L 229.959785 284.556465 
L 229.959773 286.389914 
L 229.95976 288.223429 
L 229.959747 290.056986 
L 229.959734 291.890564 
" clip-path="url(#p981cb0c29d)" style="fill: none; stroke: #ff0000; stroke-width: 0.25; stroke-linecap: square"/>
   </g>
   <g id="line2d_51">
    <path d="M 241.694219 152.351342 
L 241.816564 150.343867 
L 241.92405 148.340859 
L 242.023142 146.342456 
L 242.110372 144.348256 
L 242.184134 142.35799 
L 242.244228 140.371467 
L 242.291415 138.38853 
L 242.327054 136.40902 
L 242.352799 134.43277 
L 242.370386 132.459593 
L 242.381486 130.489291 
L 242.38761 128.521654 
L 242.390069 126.556474 
L 242.389955 124.593541 
L 242.388146 122.632651 
L 242.385325 120.67361 
L 242.382006 118.716229 
L 242.378559 116.760332 
L 242.375237 114.805751 
L 242.372196 112.852327 
L 242.369523 110.899913 
L 242.367252 108.948369 
L 242.36538 106.997567 
L 242.363875 105.047384 
L 242.362693 103.097709 
L 242.361777 101.148439 
L 242.361068 99.199477 
L 242.360505 97.250736 
L 242.360029 95.302136 
L 242.359586 93.353603 
" clip-path="url(#p981cb0c29d)" style="fill: none; stroke: #ff0000; stroke-opacity: 0.2; stroke-width: 0.25; stroke-linecap: square"/>
   </g>
   <g id="line2d_52">
    <path d="M 241.694219 152.351342 
L 241.819794 150.344066 
L 241.926905 148.34103 
L 242.02551 146.342584 
L 242.112212 144.348335 
L 242.185463 142.358016 
L 242.245098 140.371438 
L 242.2919 138.388441 
L 242.327231 136.408869 
L 242.352745 134.432552 
L 242.370168 132.459303 
L 242.381157 130.488922 
L 242.387213 128.521202 
L 242.389634 126.555932 
L 242.389504 124.592903 
L 242.387691 122.631913 
L 242.384876 120.672765 
L 242.381567 118.715273 
L 242.378133 116.75926 
L 242.374822 114.804558 
L 242.371791 112.851009 
L 242.369127 110.898466 
L 242.366862 108.94679 
L 242.364994 106.995851 
L 242.363492 105.045528 
L 242.362311 103.095711 
L 242.361396 101.146295 
L 242.360688 99.197185 
L 242.360126 97.248293 
L 242.35965 95.29954 
L 242.359203 93.350852 
" clip-path="url(#p981cb0c29d)" style="fill: none; stroke: #ff0000; stroke-opacity: 0.4; stroke-width: 0.25; stroke-linecap: square"/>
   </g>
   <g id="line2d_53">
    <path d="M 241.694219 152.351342 
L 241.822677 150.344249 
L 241.929432 148.341197 
L 242.027595 146.342739 
L 242.113836 144.348483 
L 242.186654 142.358165 
L 242.245914 140.371596 
L 242.292413 138.388617 
L 242.327517 136.409069 
L 242.352873 134.432781 
L 242.370196 132.459566 
L 242.381133 130.489223 
L 242.38717 128.521545 
L 242.389596 126.556319 
L 242.389485 124.593337 
L 242.3877 122.632396 
L 242.384916 120.673301 
L 242.38164 118.715864 
L 242.378235 116.759907 
L 242.374951 114.805264 
L 242.371944 112.851776 
L 242.369299 110.899296 
L 242.36705 108.947684 
L 242.365195 106.99681 
L 242.363703 105.046555 
L 242.362529 103.096806 
L 242.36162 101.14746 
L 242.360916 99.19842 
L 242.360357 97.2496 
L 242.359884 95.300918 
L 242.35944 93.352303 
" clip-path="url(#p981cb0c29d)" style="fill: none; stroke: #ff0000; stroke-opacity: 0.6; stroke-width: 0.25; stroke-linecap: square"/>
   </g>
   <g id="line2d_54">
    <path d="M 241.694219 152.351342 
L 241.825236 150.344414 
L 241.931642 148.341341 
L 242.029387 146.342857 
L 242.115204 144.348573 
L 242.18763 142.358229 
L 242.246555 140.371637 
L 242.292785 138.388635 
L 242.327688 136.409065 
L 242.352902 134.432755 
L 242.370133 132.459516 
L 242.381014 130.489148 
L 242.387022 128.521443 
L 242.389437 126.556189 
L 242.389324 124.593178 
L 242.387543 122.632206 
L 242.384766 120.673078 
L 242.381496 118.715606 
L 242.378097 116.759615 
L 242.374817 114.804936 
L 242.371812 112.851411 
L 242.369169 110.898893 
L 242.36692 108.947242 
L 242.365064 106.996329 
L 242.363571 105.046034 
L 242.362396 103.096245 
L 242.361485 101.146857 
L 242.360779 99.197776 
L 242.360218 97.248914 
L 242.359744 95.300191 
L 242.359298 93.351534 
" clip-path="url(#p981cb0c29d)" style="fill: none; stroke: #ff0000; stroke-opacity: 0.8; stroke-width: 0.25; stroke-linecap: square"/>
   </g>
   <g id="line2d_55">
    <path d="M 241.694219 152.351342 
L 241.827517 150.344564 
L 241.933592 148.341475 
L 242.030957 146.342974 
L 242.116394 144.348677 
L 242.188478 142.358325 
L 242.247116 140.371729 
L 242.293123 138.388728 
L 242.327862 136.409163 
L 242.352965 134.432859 
L 242.370127 132.459628 
L 242.38097 130.48927 
L 242.386963 128.521575 
L 242.389375 126.556332 
L 242.389269 124.593333 
L 242.3875 122.632373 
L 242.384736 120.673258 
L 242.381481 118.715801 
L 242.378095 116.759824 
L 242.374828 114.805159 
L 242.371835 112.85165 
L 242.369202 110.899147 
L 242.366964 108.947512 
L 242.365116 106.996616 
L 242.36363 105.046337 
L 242.362461 103.096565 
L 242.361556 101.147194 
L 242.360855 99.198131 
L 242.360299 97.249286 
L 242.359828 95.30058 
L 242.359386 93.351941 
" clip-path="url(#p981cb0c29d)" style="fill: none; stroke: #ff0000; stroke-width: 0.25; stroke-linecap: square"/>
   </g>
   <g id="line2d_56">
    <path d="M 229.820526 195.726258 
L 229.837471 197.750819 
L 229.855944 199.769545 
L 229.875055 201.782832 
L 229.893278 203.791071 
L 229.909689 205.794634 
L 229.923811 207.793873 
L 229.935491 209.789124 
L 229.944795 211.780706 
L 229.951924 213.768922 
L 229.957157 215.754061 
L 229.960801 217.736398 
L 229.963165 219.716194 
L 229.964532 221.693692 
L 229.965156 223.669123 
L 229.96525 225.642705 
L 229.964987 227.614637 
L 229.964505 229.585109 
L 229.963907 231.554293 
L 229.963268 233.52235 
L 229.962642 235.489428 
L 229.962061 237.455663 
L 229.961545 239.421178 
L 229.961103 241.386087 
L 229.960735 243.350491 
L 229.960437 245.314483 
L 229.960199 247.278146 
L 229.960011 249.241557 
L 229.959861 251.204782 
L 229.959736 253.167881 
L 229.959614 255.130909 
" clip-path="url(#p981cb0c29d)" style="fill: none; stroke: #ff0000; stroke-opacity: 0.2; stroke-width: 0.25; stroke-linecap: square"/>
   </g>
   <g id="line2d_57">
    <path d="M 229.820526 195.726258 
L 229.83873 197.750808 
L 229.857126 199.769528 
L 229.876119 201.782801 
L 229.894203 203.791022 
L 229.910462 205.794563 
L 229.92443 207.793777 
L 229.935959 209.789 
L 229.94512 211.780554 
L 229.952118 213.768744 
L 229.957235 215.753859 
L 229.960781 217.736176 
L 229.963063 219.715956 
L 229.964368 221.693445 
L 229.964946 223.668877 
L 229.965011 225.642468 
L 229.964734 227.614422 
L 229.96425 229.584928 
L 229.96366 231.554161 
L 229.963039 233.522283 
L 229.962435 235.489444 
L 229.96188 237.45578 
L 229.96139 239.421417 
L 229.960973 241.38647 
L 229.960626 243.351042 
L 229.960342 245.315226 
L 229.960112 247.27911 
L 229.959925 249.242768 
L 229.959767 251.206269 
L 229.959625 253.169676 
L 229.959492 255.133043 
" clip-path="url(#p981cb0c29d)" style="fill: none; stroke: #ff0000; stroke-opacity: 0.4; stroke-width: 0.25; stroke-linecap: square"/>
   </g>
   <g id="line2d_58">
    <path d="M 229.820526 195.726258 
L 229.839846 197.750798 
L 229.85815 199.769521 
L 229.877018 201.782801 
L 229.894961 203.791029 
L 229.911076 205.794579 
L 229.924905 207.793802 
L 229.936305 209.789035 
L 229.945353 211.780598 
L 229.952256 213.768796 
L 229.957298 215.753917 
L 229.960788 217.736238 
L 229.963033 219.716019 
L 229.964317 221.693506 
L 229.964888 223.668931 
L 229.964957 225.642511 
L 229.964692 227.614448 
L 229.964225 229.584931 
L 229.963655 231.554134 
L 229.963052 233.522218 
L 229.962465 235.489333 
L 229.961924 237.455615 
L 229.961444 239.421188 
L 229.961033 241.386166 
L 229.960688 243.350652 
L 229.960406 245.31474 
L 229.960177 247.278514 
L 229.95999 249.24205 
L 229.959835 251.205417 
L 229.9597 253.168675 
L 229.959571 255.131879 
" clip-path="url(#p981cb0c29d)" style="fill: none; stroke: #ff0000; stroke-opacity: 0.6; stroke-width: 0.25; stroke-linecap: square"/>
   </g>
   <g id="line2d_59">
    <path d="M 229.820526 195.726258 
L 229.840836 197.750788 
L 229.859038 199.769511 
L 229.877776 201.782791 
L 229.895579 203.791019 
L 229.911554 205.794568 
L 229.925253 207.79379 
L 229.936537 209.789023 
L 229.945486 211.780585 
L 229.95231 213.768782 
L 229.957291 215.753903 
L 229.960739 217.736226 
L 229.962957 219.71601 
L 229.964228 221.693502 
L 229.964797 223.668934 
L 229.964869 225.642523 
L 229.964611 227.614472 
L 229.964153 229.58497 
L 229.963592 231.554191 
L 229.962997 233.522298 
L 229.962416 235.489439 
L 229.961879 237.45575 
L 229.961402 239.421358 
L 229.960992 241.386375 
L 229.960648 243.350906 
L 229.960366 245.315043 
L 229.960137 247.278873 
L 229.959951 249.24247 
L 229.959795 251.205903 
L 229.959657 253.169234 
L 229.959527 255.132518 
" clip-path="url(#p981cb0c29d)" style="fill: none; stroke: #ff0000; stroke-opacity: 0.8; stroke-width: 0.25; stroke-linecap: square"/>
   </g>
   <g id="line2d_60">
    <path d="M 229.820526 195.726258 
L 229.841717 197.750779 
L 229.859817 199.769503 
L 229.87843 201.782784 
L 229.896101 203.791014 
L 229.91195 205.794564 
L 229.925533 207.793787 
L 229.936719 209.789019 
L 229.945588 211.780581 
L 229.95235 213.768777 
L 229.957288 215.753897 
L 229.960707 217.736217 
L 229.962912 219.715998 
L 229.964179 221.693487 
L 229.96475 223.668913 
L 229.96483 225.642496 
L 229.964581 227.614438 
L 229.964133 229.584926 
L 229.963581 231.554137 
L 229.962993 233.522231 
L 229.962419 235.489357 
L 229.961887 237.455652 
L 229.961414 239.421241 
L 229.961007 241.386238 
L 229.960667 243.350746 
L 229.960387 245.314858 
L 229.96016 247.278659 
L 229.959975 249.242226 
L 229.95982 251.205626 
L 229.959685 253.168921 
L 229.959556 255.132165 
" clip-path="url(#p981cb0c29d)" style="fill: none; stroke: #ff0000; stroke-width: 0.25; stroke-linecap: square"/>
   </g>
   <g id="line2d_61">
    <path d="M 205.946764 169.019206 
L 204.177795 168.894073 
L 202.404659 168.790309 
L 200.628159 168.697378 
L 198.848357 168.616268 
L 197.065377 168.547122 
L 195.279382 168.489465 
L 193.490543 168.442412 
L 191.699033 168.404845 
L 189.905014 168.375541 
L 188.108642 168.353268 
L 186.31006 168.336849 
L 184.509407 168.325201 
L 182.706814 168.317358 
L 180.90241 168.31248 
L 179.096322 168.309854 
L 177.288676 168.308889 
L 175.479595 168.309103 
L 173.669202 168.31011 
L 171.85762 168.311615 
L 170.044967 168.313389 
L 168.231363 168.315269 
L 166.416922 168.317139 
L 164.601756 168.318923 
L 162.785974 168.320579 
L 160.96968 168.32209 
L 159.152974 168.323456 
L 157.335951 168.324695 
L 155.518699 168.325834 
L 153.701303 168.326906 
L 151.88384 168.327949 
" clip-path="url(#p981cb0c29d)" style="fill: none; stroke: #ff0000; stroke-opacity: 0.2; stroke-width: 0.25; stroke-linecap: square"/>
   </g>
   <g id="line2d_62">
    <path d="M 205.946764 169.019206 
L 204.177917 168.892365 
L 202.404755 168.788869 
L 200.628223 168.696206 
L 198.84838 168.615347 
L 197.065354 168.546424 
L 195.279305 168.488955 
L 193.490406 168.442053 
L 191.698828 168.404601 
L 189.904733 168.375379 
L 188.108276 168.35316 
L 186.309601 168.336773 
L 184.508845 168.32514 
L 182.706141 168.317301 
L 180.901617 168.312423 
L 179.095401 168.309795 
L 177.287617 168.308829 
L 175.478391 168.309043 
L 173.667844 168.310055 
L 171.856099 168.311566 
L 170.043277 168.31335 
L 168.229495 168.31524 
L 166.414869 168.317122 
L 164.599511 168.318918 
L 162.78353 168.320588 
L 160.967031 168.322112 
L 159.150114 168.323493 
L 157.332874 168.324745 
L 155.515401 168.325897 
L 153.697778 168.32698 
L 151.880083 168.328033 
" clip-path="url(#p981cb0c29d)" style="fill: none; stroke: #ff0000; stroke-opacity: 0.4; stroke-width: 0.25; stroke-linecap: square"/>
   </g>
   <g id="line2d_63">
    <path d="M 205.946764 169.019206 
L 204.178016 168.890981 
L 202.404846 168.787729 
L 200.628312 168.695301 
L 198.848475 168.614656 
L 197.065463 168.545918 
L 195.279435 168.488601 
L 193.490564 168.441821 
L 191.699019 168.40446 
L 189.904965 168.375304 
L 188.108554 168.353131 
L 186.30993 168.336773 
L 184.50923 168.325159 
L 182.706587 168.317332 
L 180.902129 168.31246 
L 179.095984 168.309838 
L 177.288276 168.308874 
L 175.479129 168.30909 
L 173.668666 168.310103 
L 171.85701 168.311612 
L 170.044281 168.313393 
L 168.230595 168.315278 
L 166.41607 168.317152 
L 164.600816 168.318941 
L 162.784943 168.320601 
L 160.968555 168.322115 
L 159.151751 168.323485 
L 157.334628 168.324726 
L 155.517273 168.325867 
L 153.699771 168.32694 
L 151.882199 168.327984 
" clip-path="url(#p981cb0c29d)" style="fill: none; stroke: #ff0000; stroke-opacity: 0.6; stroke-width: 0.25; stroke-linecap: square"/>
   </g>
   <g id="line2d_64">
    <path d="M 205.946764 169.019206 
L 204.178098 168.889856 
L 202.404912 168.786819 
L 200.628361 168.694588 
L 198.848506 168.614116 
L 197.065475 168.545523 
L 195.279427 168.488323 
L 193.490534 168.44163 
L 191.698966 168.404334 
L 189.904885 168.375224 
L 188.108444 168.353081 
L 186.309788 168.336743 
L 184.509054 168.32514 
L 182.706373 168.317321 
L 180.901875 168.312454 
L 179.095687 168.309834 
L 177.287933 168.308872 
L 175.478738 168.309089 
L 173.668225 168.310102 
L 171.856516 168.311611 
L 170.043732 168.313392 
L 168.229989 168.315277 
L 166.415404 168.317152 
L 164.60009 168.318943 
L 162.784154 168.320605 
L 160.967701 168.322122 
L 159.150832 168.323496 
L 157.333642 168.324743 
L 155.516219 168.325888 
L 153.698648 168.326966 
L 151.881005 168.328014 
" clip-path="url(#p981cb0c29d)" style="fill: none; stroke: #ff0000; stroke-opacity: 0.8; stroke-width: 0.25; stroke-linecap: square"/>
   </g>
   <g id="line2d_65">
    <path d="M 205.946764 169.019206 
L 204.178166 168.88894 
L 202.40497 168.78609 
L 200.628413 168.694026 
L 198.848558 168.613697 
L 197.065529 168.545221 
L 195.279486 168.488111 
L 193.490601 168.441488 
L 191.699043 168.404242 
L 189.904975 168.375167 
L 188.108549 168.353048 
L 186.309909 168.336727 
L 184.509193 168.325136 
L 182.706532 168.317324 
L 180.902055 168.312462 
L 179.095889 168.309846 
L 177.288159 168.308887 
L 175.47899 168.309105 
L 173.668503 168.310118 
L 171.856822 168.311627 
L 170.044067 168.313406 
L 168.230354 168.31529 
L 166.415801 168.317164 
L 164.600518 168.318952 
L 162.784615 168.320611 
L 160.968196 168.322125 
L 159.151362 168.323495 
L 157.334206 168.324738 
L 155.516819 168.325879 
L 153.699284 168.326952 
L 151.881679 168.327996 
" clip-path="url(#p981cb0c29d)" style="fill: none; stroke: #ff0000; stroke-width: 0.25; stroke-linecap: square"/>
   </g>
   <g id="line2d_66">
    <path d="M 258.274909 180.880605 
L 260.25012 180.778166 
L 262.225209 180.705693 
L 264.199681 180.659006 
L 266.173182 180.632045 
L 268.145546 180.619691 
L 270.116726 180.617733 
L 272.08674 180.622789 
L 274.055638 180.632209 
L 276.023486 180.643985 
L 277.990355 180.656651 
L 279.956314 180.669183 
L 281.921428 180.680908 
L 283.885761 180.691428 
L 285.849373 180.700544 
L 287.812322 180.708207 
L 289.774666 180.714465 
L 291.736459 180.719431 
L 293.697754 180.723252 
L 295.658604 180.726091 
L 297.619058 180.728109 
L 299.579164 180.729463 
L 301.538969 180.73029 
L 303.498517 180.730714 
L 305.45785 180.730838 
L 307.417007 180.730747 
L 309.376026 180.730512 
L 311.334942 180.730187 
L 313.293787 180.729813 
L 315.25259 180.729416 
L 317.21138 180.728947 
" clip-path="url(#p981cb0c29d)" style="fill: none; stroke: #ff0000; stroke-opacity: 0.2; stroke-width: 0.25; stroke-linecap: square"/>
   </g>
   <g id="line2d_67">
    <path d="M 258.274909 180.880605 
L 260.250256 180.780834 
L 262.225352 180.708293 
L 264.199837 180.661419 
L 266.173358 180.634197 
L 268.145753 180.621541 
L 270.11697 180.619264 
L 272.087028 180.624 
L 274.055976 180.633115 
L 276.02388 180.644609 
L 277.990808 180.657023 
L 279.956827 180.669334 
L 281.922005 180.680872 
L 283.886402 180.691234 
L 285.85008 180.700221 
L 287.813096 180.707782 
L 289.775505 180.713962 
L 291.737363 180.718871 
L 293.698721 180.722654 
L 295.659632 180.725473 
L 297.620144 180.727487 
L 299.580306 180.728848 
L 301.540163 180.729696 
L 303.499759 180.73015 
L 305.459135 180.730312 
L 307.41833 180.730267 
L 309.377383 180.730081 
L 311.336326 180.729809 
L 313.295192 180.729488 
L 315.254011 180.729147 
L 317.212811 180.728766 
" clip-path="url(#p981cb0c29d)" style="fill: none; stroke: #ff0000; stroke-opacity: 0.4; stroke-width: 0.25; stroke-linecap: square"/>
   </g>
   <g id="line2d_68">
    <path d="M 258.274909 180.880605 
L 260.250376 180.783247 
L 262.225468 180.710595 
L 264.199947 180.66351 
L 266.173464 180.63602 
L 268.145855 180.62307 
L 270.117071 180.620497 
L 272.087127 180.624952 
L 274.056073 180.633811 
L 276.023974 180.645083 
L 277.990897 180.657312 
L 279.956912 180.669476 
L 281.922083 180.680901 
L 283.886473 180.691181 
L 285.850141 180.700115 
L 287.813145 180.707645 
L 289.775541 180.713814 
L 291.737384 180.718728 
L 293.698726 180.722529 
L 295.659618 180.725373 
L 297.62011 180.727419 
L 299.580249 180.728816 
L 301.54008 180.729701 
L 303.499648 180.730192 
L 305.458994 180.73039 
L 307.418156 180.730377 
L 309.377173 180.73022 
L 311.336077 180.729972 
L 313.294903 180.729671 
L 315.253678 180.729345 
L 317.212431 180.728996 
" clip-path="url(#p981cb0c29d)" style="fill: none; stroke: #ff0000; stroke-opacity: 0.6; stroke-width: 0.25; stroke-linecap: square"/>
   </g>
   <g id="line2d_69">
    <path d="M 258.274909 180.880605 
L 260.250483 180.78543 
L 262.225569 180.712632 
L 264.200044 180.665315 
L 266.173558 180.637548 
L 268.145948 180.624305 
L 270.117164 180.621446 
L 272.087222 180.625636 
L 274.056171 180.634261 
L 276.024075 180.645336 
L 277.991001 180.657407 
L 279.957018 180.669449 
L 281.922191 180.680785 
L 283.886582 180.691005 
L 285.850252 180.699903 
L 287.813257 180.707417 
L 289.775654 180.713585 
L 291.737497 180.718508 
L 293.698838 180.722325 
L 295.659729 180.72519 
L 297.620219 180.727258 
L 299.580355 180.728678 
L 301.540183 180.729583 
L 303.499747 180.730091 
L 305.459088 180.730301 
L 307.418244 180.730296 
L 309.377253 180.730142 
L 311.33615 180.729891 
L 313.294965 180.729583 
L 315.25373 180.729248 
L 317.212471 180.728897 
" clip-path="url(#p981cb0c29d)" style="fill: none; stroke: #ff0000; stroke-opacity: 0.8; stroke-width: 0.25; stroke-linecap: square"/>
   </g>
   <g id="line2d_70">
    <path d="M 258.274909 180.880605 
L 260.250577 180.787413 
L 262.225658 180.714453 
L 264.200126 180.666901 
L 266.173635 180.638863 
L 268.146023 180.625345 
L 270.117237 180.622223 
L 272.087295 180.626178 
L 274.056243 180.634602 
L 276.024145 180.645514 
L 277.991071 180.65746 
L 279.957086 180.669412 
L 281.922257 180.680689 
L 283.886646 180.690875 
L 285.850313 180.699761 
L 287.813315 180.707278 
L 289.775709 180.71346 
L 291.737549 180.718406 
L 293.698886 180.722249 
L 295.659773 180.725142 
L 297.620259 180.727238 
L 299.580391 180.728683 
L 301.540214 180.729611 
L 303.499772 180.730137 
L 305.459107 180.730361 
L 307.418257 180.730365 
L 309.37726 180.730216 
L 311.336149 180.729966 
L 313.294957 180.729657 
L 315.253713 180.729318 
L 317.212445 180.728968 
" clip-path="url(#p981cb0c29d)" style="fill: none; stroke: #ff0000; stroke-width: 0.25; stroke-linecap: square"/>
   </g>
   <g id="line2d_71">
    <path d="M 242.057236 193.863159 
L 242.64911 192.247208 
L 243.459107 190.731712 
L 244.408766 189.302367 
L 245.486387 187.969483 
L 246.683038 186.744814 
L 247.824868 185.470824 
L 248.95707 184.189716 
L 250.214456 183.032265 
L 251.667219 182.132781 
L 253.198108 181.373817 
L 254.793238 180.760314 
L 256.439286 180.298265 
L 258.122229 179.992376 
L 259.827425 179.845221 
L 261.540045 179.858099 
L 263.253461 179.897653 
L 264.96767 179.953407 
L 266.68268 180.021646 
L 268.398613 180.097239 
L 270.115619 180.175384 
L 271.833798 180.252301 
L 273.553173 180.32536 
L 275.273692 180.393014 
L 276.995241 180.454665 
L 278.717664 180.510521 
L 280.440784 180.561338 
L 282.16442 180.6083 
L 283.888396 180.652773 
L 285.612554 180.696026 
L 287.336781 180.738543 
" clip-path="url(#p981cb0c29d)" style="fill: none; stroke: #ff0000; stroke-opacity: 0.2; stroke-width: 0.25; stroke-linecap: square"/>
   </g>
   <g id="line2d_72">
    <path d="M 242.057236 193.863159 
L 242.649396 192.247313 
L 243.459079 190.731649 
L 244.408573 189.302196 
L 245.48616 187.969285 
L 246.682785 186.744589 
L 247.824303 185.470315 
L 248.956236 184.188961 
L 250.213417 183.031272 
L 251.666026 182.131512 
L 253.196778 181.372224 
L 254.791866 180.758534 
L 256.437919 180.296369 
L 258.120889 179.990382 
L 259.826137 179.843196 
L 261.538817 179.856608 
L 263.252302 179.896466 
L 264.966587 179.952563 
L 266.68168 180.021187 
L 268.397708 180.097199 
L 270.114819 180.175793 
L 271.833117 180.253179 
L 273.552626 180.32672 
L 275.273295 180.394857 
L 276.995009 180.45698 
L 278.717614 180.513275 
L 280.440934 180.564476 
L 282.164784 180.611742 
L 283.88899 180.656411 
L 285.613391 180.699752 
L 287.337868 180.742331 
" clip-path="url(#p981cb0c29d)" style="fill: none; stroke: #ff0000; stroke-opacity: 0.4; stroke-width: 0.25; stroke-linecap: square"/>
   </g>
   <g id="line2d_73">
    <path d="M 242.057236 193.863159 
L 242.649977 192.247525 
L 243.459714 190.731891 
L 244.407854 189.301539 
L 245.485703 187.968838 
L 246.682374 186.744183 
L 247.823634 185.469672 
L 248.955334 184.188102 
L 250.212313 183.030178 
L 251.664169 182.129173 
L 253.193904 181.367789 
L 254.788835 180.753613 
L 256.434994 180.291694 
L 258.118045 179.985909 
L 259.823402 179.839387 
L 261.53614 179.853301 
L 263.24969 179.893419 
L 264.964048 179.949793 
L 266.679224 180.018716 
L 268.395343 180.095043 
L 270.112558 180.173959 
L 271.830972 180.251669 
L 273.550611 180.325527 
L 275.271425 180.393967 
L 276.993299 180.456365 
L 278.716079 180.512892 
L 280.439588 180.564261 
L 282.163643 180.611607 
L 283.888066 180.656248 
L 285.612697 180.699455 
L 287.337411 180.741875 
" clip-path="url(#p981cb0c29d)" style="fill: none; stroke: #ff0000; stroke-opacity: 0.6; stroke-width: 0.25; stroke-linecap: square"/>
   </g>
   <g id="line2d_74">
    <path d="M 242.057236 193.863159 
L 242.650558 192.247739 
L 243.460357 190.732138 
L 244.407912 189.301398 
L 245.485712 187.968656 
L 246.68251 186.744124 
L 247.823623 185.469476 
L 248.955205 184.187796 
L 250.212074 183.029738 
L 251.663673 182.128294 
L 253.193056 181.366165 
L 254.787937 180.75179 
L 256.434142 180.289926 
L 258.117238 179.984182 
L 259.822657 179.837855 
L 261.535445 179.852151 
L 263.249053 179.892488 
L 264.963476 179.949092 
L 266.678724 180.018259 
L 268.394925 180.094838 
L 270.112232 180.174008 
L 271.83075 180.251966 
L 273.550506 180.326062 
L 275.271449 180.394721 
L 276.993467 180.457308 
L 278.716403 180.513977 
L 280.440083 180.565426 
L 282.164321 180.612768 
L 283.888941 180.657302 
L 285.613778 180.700304 
L 287.338704 180.742496 
" clip-path="url(#p981cb0c29d)" style="fill: none; stroke: #ff0000; stroke-opacity: 0.8; stroke-width: 0.25; stroke-linecap: square"/>
   </g>
   <g id="line2d_75">
    <path d="M 242.057236 193.863159 
L 242.650923 192.247873 
L 243.460523 190.732169 
L 244.409081 189.302101 
L 245.48648 187.969046 
L 246.683422 186.744667 
L 247.824439 185.469949 
L 248.955959 184.188229 
L 250.212758 183.030111 
L 251.664865 182.129505 
L 253.195012 181.368925 
L 254.789955 180.754726 
L 256.436037 180.292422 
L 258.119068 179.986294 
L 259.824431 179.839213 
L 261.537239 179.853019 
L 263.250871 179.893274 
L 264.965326 179.949807 
L 266.680614 180.018921 
L 268.396863 180.095457 
L 270.114226 180.174591 
L 271.83281 180.252516 
L 273.552642 180.326571 
L 275.273671 180.395178 
L 276.995785 180.45769 
L 278.71883 180.514247 
L 280.442628 180.565529 
L 282.166996 180.612632 
L 283.891755 180.656837 
L 285.616741 180.699422 
L 287.341822 180.741178 
" clip-path="url(#p981cb0c29d)" style="fill: none; stroke: #ff0000; stroke-width: 0.25; stroke-linecap: square"/>
   </g>
   <g id="line2d_76">
    <path d="M 244.378649 167.297721 
L 242.249236 167.153943 
L 240.146002 167.567932 
L 238.09821 168.229989 
L 236.135695 169.132109 
L 234.287726 170.263571 
L 232.581163 171.60835 
L 231.042807 173.149278 
L 229.69799 174.8661 
L 228.567212 176.7337 
L 227.668071 178.725091 
L 227.013626 180.810848 
L 226.613563 182.960399 
L 226.473691 185.142302 
L 226.595852 187.324741 
L 226.977951 189.47604 
L 227.464013 191.605057 
L 227.917016 193.739954 
L 228.333458 195.880768 
L 228.704851 198.028296 
L 229.024776 200.182547 
L 229.291017 202.342607 
L 229.505476 204.507042 
L 229.673116 206.674359 
L 229.800744 208.843313 
L 229.895825 211.013028 
L 229.965408 213.182988 
L 230.014477 215.35298 
L 230.046404 217.522947 
L 230.061928 219.692913 
L 230.059518 221.862875 
" clip-path="url(#p981cb0c29d)" style="fill: none; stroke: #ff0000; stroke-opacity: 0.2; stroke-width: 0.25; stroke-linecap: square"/>
   </g>
   <g id="line2d_77">
    <path d="M 244.378649 167.297721 
L 242.249223 167.154139 
L 240.145963 167.567909 
L 238.098152 168.229797 
L 236.135622 169.131761 
L 234.287662 170.263106 
L 232.581245 171.607929 
L 231.043119 173.148937 
L 229.698517 174.865769 
L 228.567927 176.733317 
L 227.668903 178.724583 
L 227.014537 180.810177 
L 226.614522 182.959534 
L 226.474671 185.141217 
L 226.596831 187.323414 
L 226.978913 189.474451 
L 227.465215 191.603123 
L 227.91835 193.73768 
L 228.334887 195.878143 
L 228.70633 198.025309 
L 229.026237 200.179188 
L 229.292359 202.338868 
L 229.506558 204.502913 
L 229.673763 206.669828 
L 229.800749 208.838364 
L 229.894961 211.007642 
L 229.963446 213.177145 
L 230.011237 215.346656 
L 230.041795 217.516119 
L 230.056044 219.685559 
L 230.052776 221.854978 
" clip-path="url(#p981cb0c29d)" style="fill: none; stroke: #ff0000; stroke-opacity: 0.4; stroke-width: 0.25; stroke-linecap: square"/>
   </g>
   <g id="line2d_78">
    <path d="M 244.378649 167.297721 
L 242.249204 167.154424 
L 240.145942 167.568113 
L 238.097976 168.229431 
L 236.1352 169.130756 
L 234.287 170.261597 
L 232.58227 171.60844 
L 231.047091 173.152259 
L 229.704342 174.870409 
L 228.574811 176.738458 
L 227.675486 178.72944 
L 227.02041 180.814651 
L 226.619581 182.963686 
L 226.47903 185.145138 
L 226.600786 187.327154 
L 226.982889 189.477961 
L 227.469325 191.606355 
L 227.922515 193.740635 
L 228.339101 195.880804 
L 228.710583 198.027659 
L 229.030495 200.181215 
L 229.296556 202.340561 
L 229.510591 204.504261 
L 229.677492 206.670821 
L 229.804003 208.838988 
L 229.897546 211.00788 
L 229.965169 213.176978 
L 230.011944 215.346064 
L 230.041422 217.515081 
L 230.0547 219.684055 
L 230.050879 221.852994 
" clip-path="url(#p981cb0c29d)" style="fill: none; stroke: #ff0000; stroke-opacity: 0.6; stroke-width: 0.25; stroke-linecap: square"/>
   </g>
   <g id="line2d_79">
    <path d="M 244.378649 167.297721 
L 242.249078 167.156306 
L 240.145827 167.569865 
L 238.09829 168.232274 
L 236.136153 169.134723 
L 234.288727 170.266537 
L 232.583006 171.611812 
L 231.045652 173.153132 
L 229.701671 174.869963 
L 228.571607 176.737308 
L 227.672976 178.728195 
L 227.01882 180.813256 
L 226.61879 182.961964 
L 226.478666 185.142923 
L 226.600269 187.324369 
L 226.981492 189.474683 
L 227.469886 191.601905 
L 227.924692 193.735047 
L 228.342972 195.874019 
L 228.716199 198.019628 
L 229.037782 200.171915 
L 229.30527 202.329983 
L 229.520286 204.492404 
L 229.687524 206.657674 
L 229.813556 208.824522 
L 229.905695 210.992049 
L 229.970978 213.159715 
L 230.014717 215.327289 
L 230.040938 217.494707 
L 230.051666 219.662002 
L 230.047606 221.829216 
" clip-path="url(#p981cb0c29d)" style="fill: none; stroke: #ff0000; stroke-opacity: 0.8; stroke-width: 0.25; stroke-linecap: square"/>
   </g>
   <g id="line2d_80">
    <path d="M 244.378649 167.297721 
L 242.249063 167.15653 
L 240.145781 167.569923 
L 238.098235 168.23229 
L 236.136088 169.1347 
L 234.28866 170.266492 
L 232.583046 171.611883 
L 231.045843 173.153332 
L 229.701968 174.870224 
L 228.571983 176.737593 
L 227.673374 178.728464 
L 227.019214 180.813497 
L 226.619172 182.962174 
L 226.479042 185.143099 
L 226.600658 187.324508 
L 226.98192 189.474772 
L 227.470558 191.601889 
L 227.92554 193.734938 
L 228.343991 195.873813 
L 228.71738 198.019323 
L 229.039101 200.171509 
L 229.306676 202.329478 
L 229.521702 204.491799 
L 229.688845 206.656967 
L 229.814652 208.82371 
L 229.906421 210.991122 
L 229.971192 213.158665 
L 230.014315 215.326103 
L 230.039893 217.493372 
L 230.05009 219.660506 
L 230.045852 221.827551 
" clip-path="url(#p981cb0c29d)" style="fill: none; stroke: #ff0000; stroke-width: 0.25; stroke-linecap: square"/>
   </g>
   <g id="line2d_81">
    <path d="M 230.053814 155.130657 
L 229.469923 156.743057 
L 228.660698 158.252007 
L 227.713745 159.675712 
L 226.639211 161.003055 
L 225.447695 162.223942 
L 224.323871 163.505446 
L 223.211223 164.795218 
L 221.97569 165.966795 
L 220.536574 166.876224 
L 219.01853 167.646857 
L 217.434831 168.272649 
L 215.799086 168.748507 
L 214.125249 169.070315 
L 212.427624 169.235089 
L 210.720792 169.239753 
L 209.013237 169.194844 
L 207.304777 169.13544 
L 205.595421 169.064091 
L 203.885051 168.98547 
L 202.173519 168.904281 
L 200.46072 168.824322 
L 198.746629 168.748269 
L 197.031303 168.677719 
L 195.314858 168.613355 
L 193.597458 168.555057 
L 191.879289 168.502138 
L 190.160546 168.453392 
L 188.441419 168.407435 
L 186.722079 168.362922 
L 185.002656 168.319241 
" clip-path="url(#p981cb0c29d)" style="fill: none; stroke: #ff0000; stroke-opacity: 0.2; stroke-width: 0.25; stroke-linecap: square"/>
   </g>
   <g id="line2d_82">
    <path d="M 230.053814 155.130657 
L 229.469531 156.742915 
L 228.660326 158.251874 
L 227.713435 159.675615 
L 226.638932 161.002979 
L 225.447442 162.223886 
L 224.32373 163.505483 
L 223.211128 164.795292 
L 221.975608 165.966882 
L 220.536579 166.876456 
L 219.018639 167.647309 
L 217.43502 168.273341 
L 215.799319 168.749419 
L 214.125491 169.071406 
L 212.427844 169.236307 
L 210.720971 169.241201 
L 209.013371 169.196066 
L 207.30486 169.136398 
L 205.595446 169.06473 
L 203.885012 168.985741 
L 202.173406 168.904142 
L 200.460523 168.823739 
L 198.746337 168.747219 
L 197.0309 168.676187 
L 195.314332 168.611339 
L 193.596794 168.552573 
L 191.878471 168.499219 
L 190.159561 168.4501 
L 188.440253 168.403854 
L 186.72072 168.359143 
L 185.001097 168.315286 
" clip-path="url(#p981cb0c29d)" style="fill: none; stroke: #ff0000; stroke-opacity: 0.4; stroke-width: 0.25; stroke-linecap: square"/>
   </g>
   <g id="line2d_83">
    <path d="M 230.053814 155.130657 
L 229.46914 156.742773 
L 228.659962 158.251744 
L 227.713544 159.675795 
L 226.638931 161.003061 
L 225.447537 162.224053 
L 224.324021 163.505811 
L 223.211571 164.795742 
L 221.976183 165.967466 
L 220.537405 166.877431 
L 219.020117 167.649569 
L 217.437009 168.276905 
L 215.801506 168.753698 
L 214.127631 169.075526 
L 212.429852 169.239291 
L 210.722949 169.244072 
L 209.015318 169.198682 
L 207.306771 169.138749 
L 205.597314 169.066789 
L 203.886829 168.98749 
L 202.175163 168.905568 
L 200.46221 168.824838 
L 198.747941 168.747991 
L 197.032409 168.676645 
L 195.315732 168.611503 
L 193.598072 168.552477 
L 191.879615 168.498915 
L 190.160556 168.449659 
L 188.441087 168.403371 
L 186.721383 168.35871 
L 185.001581 168.314922 
" clip-path="url(#p981cb0c29d)" style="fill: none; stroke: #ff0000; stroke-opacity: 0.6; stroke-width: 0.25; stroke-linecap: square"/>
   </g>
   <g id="line2d_84">
    <path d="M 230.053814 155.130657 
L 229.468831 156.742661 
L 228.659788 158.251701 
L 227.713516 159.675844 
L 226.638854 161.003065 
L 225.447626 162.224209 
L 224.324395 163.506208 
L 223.212192 164.796345 
L 221.977003 165.968271 
L 220.538316 166.878377 
L 219.021248 167.650951 
L 217.4383 168.278704 
L 215.802838 168.755674 
L 214.128916 169.077338 
L 212.431064 169.240568 
L 210.724133 169.245112 
L 209.016474 169.199447 
L 207.307892 169.139244 
L 205.598395 169.067006 
L 203.887863 168.987427 
L 202.17614 168.905228 
L 200.463119 168.824231 
L 198.748771 168.747134 
L 197.033148 168.675561 
L 195.316368 168.610224 
L 193.598592 168.551047 
L 191.880007 168.497389 
L 190.160808 168.448115 
L 188.441188 168.401901 
L 186.721322 168.357404 
L 185.001354 168.313798 
" clip-path="url(#p981cb0c29d)" style="fill: none; stroke: #ff0000; stroke-opacity: 0.8; stroke-width: 0.25; stroke-linecap: square"/>
   </g>
   <g id="line2d_85">
    <path d="M 230.053814 155.130657 
L 229.4687 156.742614 
L 228.660005 158.251837 
L 227.713397 159.67575 
L 226.638865 161.003067 
L 225.447844 162.224401 
L 224.324901 163.50664 
L 223.212938 164.796972 
L 221.97796 165.969108 
L 220.539208 166.8791 
L 219.021696 167.650791 
L 217.438386 168.277628 
L 215.802793 168.754155 
L 214.128914 169.076083 
L 212.431151 169.240359 
L 210.724203 169.245034 
L 209.016521 169.199321 
L 207.30791 169.139078 
L 205.598377 169.066793 
L 203.887801 168.987164 
L 202.176026 168.904921 
L 200.462944 168.823888 
L 198.748525 168.74677 
L 197.032821 168.675198 
L 195.31595 168.609892 
L 193.598073 168.550784 
L 191.879375 168.497247 
L 190.160055 168.448163 
L 188.440302 168.402223 
L 186.720296 168.358081 
L 185.000182 168.314847 
" clip-path="url(#p981cb0c29d)" style="fill: none; stroke: #ff0000; stroke-width: 0.25; stroke-linecap: square"/>
   </g>
   <g id="line2d_86">
    <path d="M 227.851909 181.169464 
L 229.969592 181.409802 
L 232.082601 181.069579 
L 234.137111 180.441401 
L 236.110116 179.572774 
L 237.972338 178.473989 
L 239.694674 177.157803 
L 241.251306 175.643216 
L 242.619468 173.952501 
L 243.777923 172.10926 
L 244.709593 170.140015 
L 245.399934 168.07287 
L 245.838663 165.937815 
L 246.019296 163.765843 
L 245.939271 161.58846 
L 245.599956 159.43716 
L 245.06246 157.327905 
L 244.570282 155.209081 
L 244.118832 153.082783 
L 243.715458 150.94846 
L 243.367312 148.806035 
L 243.077427 146.656486 
L 242.844363 144.501465 
L 242.663219 142.342754 
L 242.526863 140.181886 
L 242.427163 138.019973 
L 242.35607 135.857697 
L 242.307167 133.695378 
L 242.275882 131.533114 
L 242.258974 129.370893 
L 242.260285 127.208665 
" clip-path="url(#p981cb0c29d)" style="fill: none; stroke: #ff0000; stroke-opacity: 0.2; stroke-width: 0.25; stroke-linecap: square"/>
   </g>
   <g id="line2d_87">
    <path d="M 227.851909 181.169464 
L 229.969592 181.409799 
L 232.082647 181.069945 
L 234.137233 180.442115 
L 236.110349 179.573848 
L 237.972701 178.475399 
L 239.695265 177.159634 
L 241.252151 175.645436 
L 242.620447 173.954965 
L 243.778991 172.111923 
L 244.71067 170.142835 
L 245.401002 168.075849 
L 245.83971 165.940964 
L 246.020324 163.76918 
L 245.940294 161.592003 
L 245.600998 159.440926 
L 245.063188 157.332 
L 244.570828 155.213486 
L 244.119203 153.087509 
L 243.71566 150.953519 
L 243.367364 148.811437 
L 243.077374 146.662237 
L 242.844285 144.507571 
L 242.663227 142.349222 
L 242.527101 140.188724 
L 242.427798 138.027193 
L 242.357278 135.865314 
L 242.309098 133.703408 
L 242.27861 131.541573 
L 242.26245 129.379799 
L 242.264067 127.218029 
" clip-path="url(#p981cb0c29d)" style="fill: none; stroke: #ff0000; stroke-opacity: 0.4; stroke-width: 0.25; stroke-linecap: square"/>
   </g>
   <g id="line2d_88">
    <path d="M 227.851909 181.169464 
L 229.969611 181.409633 
L 232.082671 181.069878 
L 234.136939 180.44108 
L 236.109659 179.571996 
L 237.971489 178.472747 
L 239.694942 177.158237 
L 241.253316 175.645667 
L 242.622103 173.955695 
L 243.780765 172.112835 
L 244.71167 170.143495 
L 245.401248 168.076379 
L 245.839267 165.941484 
L 246.019377 163.769801 
L 245.939142 161.592787 
L 245.600022 159.441854 
L 245.061752 157.333236 
L 244.569057 155.215003 
L 244.117105 153.089315 
L 243.71324 150.95562 
L 243.364642 148.813836 
L 243.074394 146.664933 
L 242.841122 144.510565 
L 242.659989 142.352514 
L 242.523926 140.192319 
L 242.424845 138.031099 
L 242.354716 135.869541 
L 242.307067 133.70797 
L 242.27718 131.546485 
L 242.261567 129.385074 
L 242.263299 127.223679 
" clip-path="url(#p981cb0c29d)" style="fill: none; stroke: #ff0000; stroke-opacity: 0.6; stroke-width: 0.25; stroke-linecap: square"/>
   </g>
   <g id="line2d_89">
    <path d="M 227.851909 181.169464 
L 229.969633 181.409437 
L 232.082695 181.069737 
L 234.13681 180.440488 
L 236.109346 179.571041 
L 237.970958 178.471485 
L 239.694722 177.157447 
L 241.253667 175.645533 
L 242.622702 173.955833 
L 243.781496 172.113134 
L 244.712247 170.143803 
L 245.401712 168.076738 
L 245.839669 165.941925 
L 246.019808 163.770348 
L 245.93973 161.593443 
L 245.600922 159.442589 
L 245.062448 157.334165 
L 244.569661 155.216109 
L 244.117611 153.090609 
L 243.713639 150.957114 
L 243.364938 148.815538 
L 243.074617 146.666852 
L 242.841331 144.512703 
L 242.660275 142.354878 
L 242.52441 140.194916 
L 242.42567 138.033938 
L 242.356032 135.872635 
L 242.309001 133.711333 
L 242.279786 131.550131 
L 242.264785 129.389017 
L 242.266705 127.22793 
" clip-path="url(#p981cb0c29d)" style="fill: none; stroke: #ff0000; stroke-opacity: 0.8; stroke-width: 0.25; stroke-linecap: square"/>
   </g>
   <g id="line2d_90">
    <path d="M 227.851909 181.169464 
L 229.969653 181.409264 
L 232.082722 181.069643 
L 234.137072 180.441195 
L 236.109893 179.57243 
L 237.971884 178.473558 
L 239.694805 177.158458 
L 241.252385 175.645185 
L 242.620927 173.955136 
L 243.779566 172.112393 
L 244.710945 170.143417 
L 245.401039 168.076624 
L 245.839593 165.942002 
L 246.020201 163.770538 
L 245.940375 161.593707 
L 245.60154 159.44295 
L 245.062838 157.33469 
L 244.569919 155.21678 
L 244.117713 153.09144 
L 243.713557 150.958117 
L 243.364658 148.816723 
L 243.074149 146.668223 
L 242.840716 144.514264 
L 242.659585 142.35663 
L 242.523747 140.196863 
L 242.425159 138.036087 
L 242.355807 135.874995 
L 242.309172 133.713914 
L 242.280396 131.552948 
L 242.265765 129.39208 
L 242.267637 127.231247 
" clip-path="url(#p981cb0c29d)" style="fill: none; stroke: #ff0000; stroke-width: 0.25; stroke-linecap: square"/>
   </g>
   <g id="patch_15">
    <path d="M 103.104 307.584 
L 103.104 41.472 
" style="fill: none; stroke: #000000; stroke-width: 0.8; stroke-linejoin: miter; stroke-linecap: square"/>
   </g>
   <g id="patch_16">
    <path d="M 369.216 307.584 
L 369.216 41.472 
" style="fill: none; stroke: #000000; stroke-width: 0.8; stroke-linejoin: miter; stroke-linecap: square"/>
   </g>
   <g id="patch_17">
    <path d="M 103.104 307.584 
L 369.216 307.584 
" style="fill: none; stroke: #000000; stroke-width: 0.8; stroke-linejoin: miter; stroke-linecap: square"/>
   </g>
   <g id="patch_18">
    <path d="M 103.104 41.472 
L 369.216 41.472 
" style="fill: none; stroke: #000000; stroke-width: 0.8; stroke-linejoin: miter; stroke-linecap: square"/>
   </g>
   <g id="text_19">
    <!-- Time:  62 ms -->
    <g transform="translate(264.253887 54.7776) scale(0.1 -0.1)">
     <defs>
      <path id="DejaVuSans-54" d="M -19 4666 
L 3928 4666 
L 3928 4134 
L 2272 4134 
L 2272 0 
L 1638 0 
L 1638 4134 
L -19 4134 
L -19 4666 
z
" transform="scale(0.015625)"/>
      <path id="DejaVuSans-69" d="M 603 3500 
L 1178 3500 
L 1178 0 
L 603 0 
L 603 3500 
z
M 603 4863 
L 1178 4863 
L 1178 4134 
L 603 4134 
L 603 4863 
z
" transform="scale(0.015625)"/>
      <path id="DejaVuSans-6d" d="M 3328 2828 
Q 3544 3216 3844 3400 
Q 4144 3584 4550 3584 
Q 5097 3584 5394 3201 
Q 5691 2819 5691 2113 
L 5691 0 
L 5113 0 
L 5113 2094 
Q 5113 2597 4934 2840 
Q 4756 3084 4391 3084 
Q 3944 3084 3684 2787 
Q 3425 2491 3425 1978 
L 3425 0 
L 2847 0 
L 2847 2094 
Q 2847 2600 2669 2842 
Q 2491 3084 2119 3084 
Q 1678 3084 1418 2786 
Q 1159 2488 1159 1978 
L 1159 0 
L 581 0 
L 581 3500 
L 1159 3500 
L 1159 2956 
Q 1356 3278 1631 3431 
Q 1906 3584 2284 3584 
Q 2666 3584 2933 3390 
Q 3200 3197 3328 2828 
z
" transform="scale(0.015625)"/>
      <path id="DejaVuSans-65" d="M 3597 1894 
L 3597 1613 
L 953 1613 
Q 991 1019 1311 708 
Q 1631 397 2203 397 
Q 2534 397 2845 478 
Q 3156 559 3463 722 
L 3463 178 
Q 3153 47 2828 -22 
Q 2503 -91 2169 -91 
Q 1331 -91 842 396 
Q 353 884 353 1716 
Q 353 2575 817 3079 
Q 1281 3584 2069 3584 
Q 2775 3584 3186 3129 
Q 3597 2675 3597 1894 
z
M 3022 2063 
Q 3016 2534 2758 2815 
Q 2500 3097 2075 3097 
Q 1594 3097 1305 2825 
Q 1016 2553 972 2059 
L 3022 2063 
z
" transform="scale(0.015625)"/>
      <path id="DejaVuSans-3a" d="M 750 794 
L 1409 794 
L 1409 0 
L 750 0 
L 750 794 
z
M 750 3309 
L 1409 3309 
L 1409 2516 
L 750 2516 
L 750 3309 
z
" transform="scale(0.015625)"/>
      <path id="DejaVuSans-20" transform="scale(0.015625)"/>
      <path id="DejaVuSans-36" d="M 2113 2584 
Q 1688 2584 1439 2293 
Q 1191 2003 1191 1497 
Q 1191 994 1439 701 
Q 1688 409 2113 409 
Q 2538 409 2786 701 
Q 3034 994 3034 1497 
Q 3034 2003 2786 2293 
Q 2538 2584 2113 2584 
z
M 3366 4563 
L 3366 3988 
Q 3128 4100 2886 4159 
Q 2644 4219 2406 4219 
Q 1781 4219 1451 3797 
Q 1122 3375 1075 2522 
Q 1259 2794 1537 2939 
Q 1816 3084 2150 3084 
Q 2853 3084 3261 2657 
Q 3669 2231 3669 1497 
Q 3669 778 3244 343 
Q 2819 -91 2113 -91 
Q 1303 -91 875 529 
Q 447 1150 447 2328 
Q 447 3434 972 4092 
Q 1497 4750 2381 4750 
Q 2619 4750 2861 4703 
Q 3103 4656 3366 4563 
z
" transform="scale(0.015625)"/>
      <path id="DejaVuSans-73" d="M 2834 3397 
L 2834 2853 
Q 2591 2978 2328 3040 
Q 2066 3103 1784 3103 
Q 1356 3103 1142 2972 
Q 928 2841 928 2578 
Q 928 2378 1081 2264 
Q 1234 2150 1697 2047 
L 1894 2003 
Q 2506 1872 2764 1633 
Q 3022 1394 3022 966 
Q 3022 478 2636 193 
Q 2250 -91 1575 -91 
Q 1294 -91 989 -36 
Q 684 19 347 128 
L 347 722 
Q 666 556 975 473 
Q 1284 391 1588 391 
Q 1994 391 2212 530 
Q 2431 669 2431 922 
Q 2431 1156 2273 1281 
Q 2116 1406 1581 1522 
L 1381 1569 
Q 847 1681 609 1914 
Q 372 2147 372 2553 
Q 372 3047 722 3315 
Q 1072 3584 1716 3584 
Q 2034 3584 2315 3537 
Q 2597 3491 2834 3397 
z
" transform="scale(0.015625)"/>
     </defs>
     <use xlink:href="#DejaVuSans-54"/>
     <use xlink:href="#DejaVuSans-69" x="57.958984"/>
     <use xlink:href="#DejaVuSans-6d" x="85.742188"/>
     <use xlink:href="#DejaVuSans-65" x="183.154297"/>
     <use xlink:href="#DejaVuSans-3a" x="244.677734"/>
     <use xlink:href="#DejaVuSans-20" x="278.369141"/>
     <use xlink:href="#DejaVuSans-20" x="310.15625"/>
     <use xlink:href="#DejaVuSans-36" x="341.943359"/>
     <use xlink:href="#DejaVuSans-32" x="405.566406"/>
     <use xlink:href="#DejaVuSans-20" x="469.189453"/>
     <use xlink:href="#DejaVuSans-6d" x="500.976562"/>
     <use xlink:href="#DejaVuSans-73" x="598.388672"/>
    </g>
   </g>
  </g>
 </g>
 <defs>
  <clipPath id="p981cb0c29d">
   <rect x="103.104" y="41.472" width="266.112" height="266.112"/>
  </clipPath>
 </defs>
</svg>
