<?xml version="1.0" encoding="utf-8" standalone="no"?>
<!DOCTYPE svg PUBLIC "-//W3C//DTD SVG 1.1//EN"
  "http://www.w3.org/Graphics/SVG/1.1/DTD/svg11.dtd">
<svg xmlns:xlink="http://www.w3.org/1999/xlink" width="460.8pt" height="345.6pt" viewBox="0 0 460.8 345.6" xmlns="http://www.w3.org/2000/svg" version="1.1">
 <metadata>
  <rdf:RDF xmlns:dc="http://purl.org/dc/elements/1.1/" xmlns:cc="http://creativecommons.org/ns#" xmlns:rdf="http://www.w3.org/1999/02/22-rdf-syntax-ns#">
   <cc:Work>
    <dc:type rdf:resource="http://purl.org/dc/dcmitype/StillImage"/>
    <dc:date>2024-01-22T16:49:31.097809</dc:date>
    <dc:format>image/svg+xml</dc:format>
    <dc:creator>
     <cc:Agent>
      <dc:title>Matplotlib v3.8.2, https://matplotlib.org/</dc:title>
     </cc:Agent>
    </dc:creator>
   </cc:Work>
  </rdf:RDF>
 </metadata>
 <defs>
  <style type="text/css">*{stroke-linejoin: round; stroke-linecap: butt}</style>
 </defs>
 <g id="figure_1">
  <g id="patch_1">
   <path d="M 0 345.6 
L 460.8 345.6 
L 460.8 0 
L 0 0 
z
" style="fill: #ffffff"/>
  </g>
  <g id="axes_1">
   <g id="patch_2">
    <path d="M 103.104 307.584 
L 369.216 307.584 
L 369.216 41.472 
L 103.104 41.472 
z
" style="fill: #ffffff"/>
   </g>
   <g id="patch_3">
    <path d="M 245.187707 68.020146 
L 245.187721 56.377746 
L 239.532841 56.377739 
L 239.532827 68.020139 
z
" clip-path="url(#pd463768fae)" style="fill: #00008b"/>
   </g>
   <g id="patch_4">
    <path d="M 129.640383 165.500277 
L 117.997983 165.50029 
L 117.997989 171.15517 
L 129.640389 171.155157 
z
" clip-path="url(#pd463768fae)" style="fill: #800000"/>
   </g>
   <g id="patch_5">
    <path d="M 340.584326 183.555711 
L 352.226726 183.555727 
L 352.226734 177.900847 
L 340.584334 177.900831 
z
" clip-path="url(#pd463768fae)" style="fill: #006400"/>
   </g>
   <g id="patch_6">
    <path d="M 227.132297 284.231789 
L 227.132292 295.874189 
L 232.787172 295.874192 
L 232.787177 284.231792 
z
" clip-path="url(#pd463768fae)" style="fill: #4b0082"/>
   </g>
   <g id="patch_7">
    <path d="M 245.188714 101.126068 
L 245.186813 89.483668 
L 239.531933 89.484591 
L 239.533834 101.126991 
z
" clip-path="url(#pd463768fae)" style="fill: #0000ff"/>
   </g>
   <g id="patch_8">
    <path d="M 227.132531 247.406074 
L 227.132096 259.048474 
L 232.786976 259.048685 
L 232.787411 247.406285 
z
" clip-path="url(#pd463768fae)" style="fill: #ff0000"/>
   </g>
   <g id="patch_9">
    <path d="M 159.418249 165.498239 
L 147.775849 165.500546 
L 147.77697 171.155426 
L 159.41937 171.153118 
z
" clip-path="url(#pd463768fae)" style="fill: #dbdc56"/>
   </g>
   <g id="patch_10">
    <path d="M 309.412632 183.555967 
L 321.055032 183.556279 
L 321.055183 177.901399 
L 309.412783 177.901087 
z
" clip-path="url(#pd463768fae)" style="fill: #9400d3"/>
   </g>
   <g id="patch_11">
    <path d="M 280.295177 183.43613 
L 291.93628 183.609895 
L 292.020681 177.955645 
L 280.379577 177.781879 
z
" clip-path="url(#pd463768fae)" style="fill: #1e90ff"/>
   </g>
   <g id="patch_12">
    <path d="M 227.057544 212.952847 
L 227.29091 224.592908 
L 232.944654 224.479559 
L 232.711288 212.839498 
z
" clip-path="url(#pd463768fae)" style="fill: #ff4500"/>
   </g>
   <g id="patch_13">
    <path d="M 192.018143 165.626593 
L 180.377181 165.443635 
L 180.288316 171.097817 
L 191.929278 171.280775 
z
" clip-path="url(#pd463768fae)" style="fill: #7cfc00"/>
   </g>
   <g id="patch_14">
    <path d="M 245.275397 136.06386 
L 245.007691 124.424538 
L 239.354306 124.554567 
L 239.622013 136.193889 
z
" clip-path="url(#pd463768fae)" style="fill: #ff00ff"/>
   </g>
   <g id="matplotlib.axis_1">
    <g id="xtick_1">
     <g id="line2d_1">
      <defs>
       <path id="m62e93ed4a4" d="M 0 0 
L 0 3.5 
" style="stroke: #000000; stroke-width: 0.8"/>
      </defs>
      <g>
       <use xlink:href="#m62e93ed4a4" x="103.104" y="307.584" style="stroke: #000000; stroke-width: 0.8"/>
      </g>
     </g>
     <g id="text_1">
      <!-- −40 -->
      <g transform="translate(92.551656 322.182437) scale(0.1 -0.1)">
       <defs>
        <path id="DejaVuSans-2212" d="M 678 2272 
L 4684 2272 
L 4684 1741 
L 678 1741 
L 678 2272 
z
" transform="scale(0.015625)"/>
        <path id="DejaVuSans-34" d="M 2419 4116 
L 825 1625 
L 2419 1625 
L 2419 4116 
z
M 2253 4666 
L 3047 4666 
L 3047 1625 
L 3713 1625 
L 3713 1100 
L 3047 1100 
L 3047 0 
L 2419 0 
L 2419 1100 
L 313 1100 
L 313 1709 
L 2253 4666 
z
" transform="scale(0.015625)"/>
        <path id="DejaVuSans-30" d="M 2034 4250 
Q 1547 4250 1301 3770 
Q 1056 3291 1056 2328 
Q 1056 1369 1301 889 
Q 1547 409 2034 409 
Q 2525 409 2770 889 
Q 3016 1369 3016 2328 
Q 3016 3291 2770 3770 
Q 2525 4250 2034 4250 
z
M 2034 4750 
Q 2819 4750 3233 4129 
Q 3647 3509 3647 2328 
Q 3647 1150 3233 529 
Q 2819 -91 2034 -91 
Q 1250 -91 836 529 
Q 422 1150 422 2328 
Q 422 3509 836 4129 
Q 1250 4750 2034 4750 
z
" transform="scale(0.015625)"/>
       </defs>
       <use xlink:href="#DejaVuSans-2212"/>
       <use xlink:href="#DejaVuSans-34" x="83.789062"/>
       <use xlink:href="#DejaVuSans-30" x="147.412109"/>
      </g>
     </g>
    </g>
    <g id="xtick_2">
     <g id="line2d_2">
      <g>
       <use xlink:href="#m62e93ed4a4" x="136.368" y="307.584" style="stroke: #000000; stroke-width: 0.8"/>
      </g>
     </g>
     <g id="text_2">
      <!-- −30 -->
      <g transform="translate(125.815656 322.182437) scale(0.1 -0.1)">
       <defs>
        <path id="DejaVuSans-33" d="M 2597 2516 
Q 3050 2419 3304 2112 
Q 3559 1806 3559 1356 
Q 3559 666 3084 287 
Q 2609 -91 1734 -91 
Q 1441 -91 1130 -33 
Q 819 25 488 141 
L 488 750 
Q 750 597 1062 519 
Q 1375 441 1716 441 
Q 2309 441 2620 675 
Q 2931 909 2931 1356 
Q 2931 1769 2642 2001 
Q 2353 2234 1838 2234 
L 1294 2234 
L 1294 2753 
L 1863 2753 
Q 2328 2753 2575 2939 
Q 2822 3125 2822 3475 
Q 2822 3834 2567 4026 
Q 2313 4219 1838 4219 
Q 1578 4219 1281 4162 
Q 984 4106 628 3988 
L 628 4550 
Q 988 4650 1302 4700 
Q 1616 4750 1894 4750 
Q 2613 4750 3031 4423 
Q 3450 4097 3450 3541 
Q 3450 3153 3228 2886 
Q 3006 2619 2597 2516 
z
" transform="scale(0.015625)"/>
       </defs>
       <use xlink:href="#DejaVuSans-2212"/>
       <use xlink:href="#DejaVuSans-33" x="83.789062"/>
       <use xlink:href="#DejaVuSans-30" x="147.412109"/>
      </g>
     </g>
    </g>
    <g id="xtick_3">
     <g id="line2d_3">
      <g>
       <use xlink:href="#m62e93ed4a4" x="169.632" y="307.584" style="stroke: #000000; stroke-width: 0.8"/>
      </g>
     </g>
     <g id="text_3">
      <!-- −20 -->
      <g transform="translate(159.079656 322.182437) scale(0.1 -0.1)">
       <defs>
        <path id="DejaVuSans-32" d="M 1228 531 
L 3431 531 
L 3431 0 
L 469 0 
L 469 531 
Q 828 903 1448 1529 
Q 2069 2156 2228 2338 
Q 2531 2678 2651 2914 
Q 2772 3150 2772 3378 
Q 2772 3750 2511 3984 
Q 2250 4219 1831 4219 
Q 1534 4219 1204 4116 
Q 875 4013 500 3803 
L 500 4441 
Q 881 4594 1212 4672 
Q 1544 4750 1819 4750 
Q 2544 4750 2975 4387 
Q 3406 4025 3406 3419 
Q 3406 3131 3298 2873 
Q 3191 2616 2906 2266 
Q 2828 2175 2409 1742 
Q 1991 1309 1228 531 
z
" transform="scale(0.015625)"/>
       </defs>
       <use xlink:href="#DejaVuSans-2212"/>
       <use xlink:href="#DejaVuSans-32" x="83.789062"/>
       <use xlink:href="#DejaVuSans-30" x="147.412109"/>
      </g>
     </g>
    </g>
    <g id="xtick_4">
     <g id="line2d_4">
      <g>
       <use xlink:href="#m62e93ed4a4" x="202.896" y="307.584" style="stroke: #000000; stroke-width: 0.8"/>
      </g>
     </g>
     <g id="text_4">
      <!-- −10 -->
      <g transform="translate(192.343656 322.182437) scale(0.1 -0.1)">
       <defs>
        <path id="DejaVuSans-31" d="M 794 531 
L 1825 531 
L 1825 4091 
L 703 3866 
L 703 4441 
L 1819 4666 
L 2450 4666 
L 2450 531 
L 3481 531 
L 3481 0 
L 794 0 
L 794 531 
z
" transform="scale(0.015625)"/>
       </defs>
       <use xlink:href="#DejaVuSans-2212"/>
       <use xlink:href="#DejaVuSans-31" x="83.789062"/>
       <use xlink:href="#DejaVuSans-30" x="147.412109"/>
      </g>
     </g>
    </g>
    <g id="xtick_5">
     <g id="line2d_5">
      <g>
       <use xlink:href="#m62e93ed4a4" x="236.16" y="307.584" style="stroke: #000000; stroke-width: 0.8"/>
      </g>
     </g>
     <g id="text_5">
      <!-- 0 -->
      <g transform="translate(232.97875 322.182437) scale(0.1 -0.1)">
       <use xlink:href="#DejaVuSans-30"/>
      </g>
     </g>
    </g>
    <g id="xtick_6">
     <g id="line2d_6">
      <g>
       <use xlink:href="#m62e93ed4a4" x="269.424" y="307.584" style="stroke: #000000; stroke-width: 0.8"/>
      </g>
     </g>
     <g id="text_6">
      <!-- 10 -->
      <g transform="translate(263.0615 322.182437) scale(0.1 -0.1)">
       <use xlink:href="#DejaVuSans-31"/>
       <use xlink:href="#DejaVuSans-30" x="63.623047"/>
      </g>
     </g>
    </g>
    <g id="xtick_7">
     <g id="line2d_7">
      <g>
       <use xlink:href="#m62e93ed4a4" x="302.688" y="307.584" style="stroke: #000000; stroke-width: 0.8"/>
      </g>
     </g>
     <g id="text_7">
      <!-- 20 -->
      <g transform="translate(296.3255 322.182437) scale(0.1 -0.1)">
       <use xlink:href="#DejaVuSans-32"/>
       <use xlink:href="#DejaVuSans-30" x="63.623047"/>
      </g>
     </g>
    </g>
    <g id="xtick_8">
     <g id="line2d_8">
      <g>
       <use xlink:href="#m62e93ed4a4" x="335.952" y="307.584" style="stroke: #000000; stroke-width: 0.8"/>
      </g>
     </g>
     <g id="text_8">
      <!-- 30 -->
      <g transform="translate(329.5895 322.182437) scale(0.1 -0.1)">
       <use xlink:href="#DejaVuSans-33"/>
       <use xlink:href="#DejaVuSans-30" x="63.623047"/>
      </g>
     </g>
    </g>
    <g id="xtick_9">
     <g id="line2d_9">
      <g>
       <use xlink:href="#m62e93ed4a4" x="369.216" y="307.584" style="stroke: #000000; stroke-width: 0.8"/>
      </g>
     </g>
     <g id="text_9">
      <!-- 40 -->
      <g transform="translate(362.8535 322.182437) scale(0.1 -0.1)">
       <use xlink:href="#DejaVuSans-34"/>
       <use xlink:href="#DejaVuSans-30" x="63.623047"/>
      </g>
     </g>
    </g>
   </g>
   <g id="matplotlib.axis_2">
    <g id="ytick_1">
     <g id="line2d_10">
      <defs>
       <path id="ma48620977a" d="M 0 0 
L -3.5 0 
" style="stroke: #000000; stroke-width: 0.8"/>
      </defs>
      <g>
       <use xlink:href="#ma48620977a" x="103.104" y="307.584" style="stroke: #000000; stroke-width: 0.8"/>
      </g>
     </g>
     <g id="text_10">
      <!-- −40 -->
      <g transform="translate(74.999313 311.383219) scale(0.1 -0.1)">
       <use xlink:href="#DejaVuSans-2212"/>
       <use xlink:href="#DejaVuSans-34" x="83.789062"/>
       <use xlink:href="#DejaVuSans-30" x="147.412109"/>
      </g>
     </g>
    </g>
    <g id="ytick_2">
     <g id="line2d_11">
      <g>
       <use xlink:href="#ma48620977a" x="103.104" y="274.32" style="stroke: #000000; stroke-width: 0.8"/>
      </g>
     </g>
     <g id="text_11">
      <!-- −30 -->
      <g transform="translate(74.999313 278.119219) scale(0.1 -0.1)">
       <use xlink:href="#DejaVuSans-2212"/>
       <use xlink:href="#DejaVuSans-33" x="83.789062"/>
       <use xlink:href="#DejaVuSans-30" x="147.412109"/>
      </g>
     </g>
    </g>
    <g id="ytick_3">
     <g id="line2d_12">
      <g>
       <use xlink:href="#ma48620977a" x="103.104" y="241.056" style="stroke: #000000; stroke-width: 0.8"/>
      </g>
     </g>
     <g id="text_12">
      <!-- −20 -->
      <g transform="translate(74.999313 244.855219) scale(0.1 -0.1)">
       <use xlink:href="#DejaVuSans-2212"/>
       <use xlink:href="#DejaVuSans-32" x="83.789062"/>
       <use xlink:href="#DejaVuSans-30" x="147.412109"/>
      </g>
     </g>
    </g>
    <g id="ytick_4">
     <g id="line2d_13">
      <g>
       <use xlink:href="#ma48620977a" x="103.104" y="207.792" style="stroke: #000000; stroke-width: 0.8"/>
      </g>
     </g>
     <g id="text_13">
      <!-- −10 -->
      <g transform="translate(74.999313 211.591219) scale(0.1 -0.1)">
       <use xlink:href="#DejaVuSans-2212"/>
       <use xlink:href="#DejaVuSans-31" x="83.789062"/>
       <use xlink:href="#DejaVuSans-30" x="147.412109"/>
      </g>
     </g>
    </g>
    <g id="ytick_5">
     <g id="line2d_14">
      <g>
       <use xlink:href="#ma48620977a" x="103.104" y="174.528" style="stroke: #000000; stroke-width: 0.8"/>
      </g>
     </g>
     <g id="text_14">
      <!-- 0 -->
      <g transform="translate(89.7415 178.327219) scale(0.1 -0.1)">
       <use xlink:href="#DejaVuSans-30"/>
      </g>
     </g>
    </g>
    <g id="ytick_6">
     <g id="line2d_15">
      <g>
       <use xlink:href="#ma48620977a" x="103.104" y="141.264" style="stroke: #000000; stroke-width: 0.8"/>
      </g>
     </g>
     <g id="text_15">
      <!-- 10 -->
      <g transform="translate(83.379 145.063219) scale(0.1 -0.1)">
       <use xlink:href="#DejaVuSans-31"/>
       <use xlink:href="#DejaVuSans-30" x="63.623047"/>
      </g>
     </g>
    </g>
    <g id="ytick_7">
     <g id="line2d_16">
      <g>
       <use xlink:href="#ma48620977a" x="103.104" y="108" style="stroke: #000000; stroke-width: 0.8"/>
      </g>
     </g>
     <g id="text_16">
      <!-- 20 -->
      <g transform="translate(83.379 111.799219) scale(0.1 -0.1)">
       <use xlink:href="#DejaVuSans-32"/>
       <use xlink:href="#DejaVuSans-30" x="63.623047"/>
      </g>
     </g>
    </g>
    <g id="ytick_8">
     <g id="line2d_17">
      <g>
       <use xlink:href="#ma48620977a" x="103.104" y="74.736" style="stroke: #000000; stroke-width: 0.8"/>
      </g>
     </g>
     <g id="text_17">
      <!-- 30 -->
      <g transform="translate(83.379 78.535219) scale(0.1 -0.1)">
       <use xlink:href="#DejaVuSans-33"/>
       <use xlink:href="#DejaVuSans-30" x="63.623047"/>
      </g>
     </g>
    </g>
    <g id="ytick_9">
     <g id="line2d_18">
      <g>
       <use xlink:href="#ma48620977a" x="103.104" y="41.472" style="stroke: #000000; stroke-width: 0.8"/>
      </g>
     </g>
     <g id="text_18">
      <!-- 40 -->
      <g transform="translate(83.379 45.271219) scale(0.1 -0.1)">
       <use xlink:href="#DejaVuSans-34"/>
       <use xlink:href="#DejaVuSans-30" x="63.623047"/>
      </g>
     </g>
    </g>
   </g>
   <g id="line2d_19">
    <path d="M 251.1288 346.6 
L 251.1288 189.4968 
" clip-path="url(#pd463768fae)" style="fill: none; stroke: #000000; stroke-width: 0.25; stroke-linecap: square"/>
   </g>
   <g id="line2d_20">
    <path d="M 251.1288 189.4968 
L 417.4488 189.4968 
" clip-path="url(#pd463768fae)" style="fill: none; stroke: #000000; stroke-width: 0.25; stroke-linecap: square"/>
   </g>
   <g id="line2d_21">
    <path d="M 417.4488 159.5592 
L 251.1288 159.5592 
" clip-path="url(#pd463768fae)" style="fill: none; stroke: #000000; stroke-width: 0.25; stroke-linecap: square"/>
   </g>
   <g id="line2d_22">
    <path d="M 251.1288 159.5592 
L 251.1288 -1 
" clip-path="url(#pd463768fae)" style="fill: none; stroke: #000000; stroke-width: 0.25; stroke-linecap: square"/>
   </g>
   <g id="line2d_23">
    <path d="M 221.1912 -1 
L 221.1912 159.5592 
" clip-path="url(#pd463768fae)" style="fill: none; stroke: #000000; stroke-width: 0.25; stroke-linecap: square"/>
   </g>
   <g id="line2d_24">
    <path d="M 221.1912 159.5592 
L 54.8712 159.5592 
" clip-path="url(#pd463768fae)" style="fill: none; stroke: #000000; stroke-width: 0.25; stroke-linecap: square"/>
   </g>
   <g id="line2d_25">
    <path d="M 54.8712 189.4968 
L 221.1912 189.4968 
" clip-path="url(#pd463768fae)" style="fill: none; stroke: #000000; stroke-width: 0.25; stroke-linecap: square"/>
   </g>
   <g id="line2d_26">
    <path d="M 221.1912 189.4968 
L 221.1912 346.6 
" clip-path="url(#pd463768fae)" style="fill: none; stroke: #000000; stroke-width: 0.25; stroke-linecap: square"/>
   </g>
   <g id="line2d_27">
    <path d="M 251.1288 174.528 
L 417.4488 174.528 
" clip-path="url(#pd463768fae)" style="fill: none; stroke-dasharray: 0.925,0.4; stroke-dashoffset: 0; stroke: #000000; stroke-width: 0.25"/>
   </g>
   <g id="line2d_28">
    <path d="M 236.16 159.5592 
L 236.16 -1 
" clip-path="url(#pd463768fae)" style="fill: none; stroke-dasharray: 0.925,0.4; stroke-dashoffset: 0; stroke: #000000; stroke-width: 0.25"/>
   </g>
   <g id="line2d_29">
    <path d="M 221.1912 174.528 
L 54.8712 174.528 
" clip-path="url(#pd463768fae)" style="fill: none; stroke-dasharray: 0.925,0.4; stroke-dashoffset: 0; stroke: #000000; stroke-width: 0.25"/>
   </g>
   <g id="line2d_30">
    <path d="M 236.16 189.4968 
L 236.16 346.6 
" clip-path="url(#pd463768fae)" style="fill: none; stroke-dasharray: 0.925,0.4; stroke-dashoffset: 0; stroke: #000000; stroke-width: 0.25"/>
   </g>
   <g id="line2d_31">
    <path d="M 242.360271 64.152826 
L 242.360274 62.198943 
L 242.360275 60.244745 
L 242.360277 58.290244 
L 242.360278 56.335452 
L 242.360279 54.380382 
L 242.36028 52.425046 
L 242.36028 50.46946 
L 242.36028 48.513634 
L 242.36028 46.557584 
L 242.360281 44.601322 
L 242.360281 42.644863 
L 242.360281 40.688218 
L 242.360281 38.731403 
L 242.36028 36.774428 
L 242.36028 34.817307 
L 242.36028 32.860053 
L 242.36028 30.902676 
L 242.36028 28.94519 
L 242.36028 26.987603 
L 242.36028 25.029928 
L 242.36028 23.072175 
L 242.36028 21.114353 
L 242.36028 19.156473 
L 242.36028 17.198541 
L 242.36028 15.240568 
L 242.36028 13.28256 
L 242.36028 11.324526 
L 242.36028 9.366472 
L 242.36028 7.408405 
L 242.36028 5.450329 
" clip-path="url(#pd463768fae)" style="fill: none; stroke: #ff0000; stroke-opacity: 0.2; stroke-width: 0.25; stroke-linecap: square"/>
   </g>
   <g id="line2d_32">
    <path d="M 242.360271 64.152826 
L 242.360274 62.198943 
L 242.360275 60.244746 
L 242.360277 58.290249 
L 242.360278 56.335462 
L 242.360279 54.3804 
L 242.36028 52.425074 
L 242.36028 50.469499 
L 242.36028 48.513688 
L 242.36028 46.557655 
L 242.360281 44.601413 
L 242.360281 42.644976 
L 242.360281 40.688356 
L 242.360281 38.731569 
L 242.36028 36.774625 
L 242.36028 34.817539 
L 242.36028 32.860322 
L 242.36028 30.902986 
L 242.36028 28.945544 
L 242.36028 26.988005 
L 242.36028 25.030382 
L 242.36028 23.072684 
L 242.36028 21.114921 
L 242.36028 19.157103 
L 242.36028 17.199238 
L 242.36028 15.241334 
L 242.36028 13.283401 
L 242.36028 11.325444 
L 242.36028 9.367471 
L 242.36028 7.409487 
L 242.36028 5.4515 
" clip-path="url(#pd463768fae)" style="fill: none; stroke: #ff0000; stroke-opacity: 0.4; stroke-width: 0.25; stroke-linecap: square"/>
   </g>
   <g id="line2d_33">
    <path d="M 242.360271 64.152826 
L 242.360274 62.198943 
L 242.360275 60.244745 
L 242.360277 58.290245 
L 242.360278 56.335455 
L 242.360279 54.380388 
L 242.36028 52.425056 
L 242.36028 50.469473 
L 242.36028 48.513653 
L 242.36028 46.557609 
L 242.360281 44.601355 
L 242.360281 42.644904 
L 242.360281 40.68827 
L 242.360281 38.731465 
L 242.36028 36.774503 
L 242.36028 34.817397 
L 242.36028 32.860158 
L 242.36028 30.902799 
L 242.36028 28.945331 
L 242.36028 26.987765 
L 242.36028 25.030113 
L 242.36028 23.072384 
L 242.36028 21.114588 
L 242.36028 19.156736 
L 242.36028 17.198834 
L 242.36028 15.240893 
L 242.36028 13.282919 
L 242.36028 11.324921 
L 242.36028 9.366905 
L 242.36028 7.408877 
L 242.36028 5.450844 
" clip-path="url(#pd463768fae)" style="fill: none; stroke: #ff0000; stroke-opacity: 0.6; stroke-width: 0.25; stroke-linecap: square"/>
   </g>
   <g id="line2d_34">
    <path d="M 242.360271 64.152826 
L 242.360274 62.198943 
L 242.360275 60.244746 
L 242.360277 58.290248 
L 242.360278 56.33546 
L 242.360279 54.380395 
L 242.36028 52.425068 
L 242.36028 50.46949 
L 242.36028 48.513675 
L 242.36028 46.557638 
L 242.360281 44.601391 
L 242.360281 42.644948 
L 242.360281 40.688323 
L 242.360281 38.731528 
L 242.36028 36.774577 
L 242.36028 34.817482 
L 242.36028 32.860256 
L 242.36028 30.90291 
L 242.36028 28.945457 
L 242.36028 26.987907 
L 242.36028 25.030271 
L 242.36028 23.072559 
L 242.36028 21.114782 
L 242.36028 19.156948 
L 242.36028 17.199067 
L 242.36028 15.241146 
L 242.36028 13.283194 
L 242.36028 11.325218 
L 242.36028 9.367225 
L 242.36028 7.409221 
L 242.36028 5.451212 
" clip-path="url(#pd463768fae)" style="fill: none; stroke: #ff0000; stroke-opacity: 0.8; stroke-width: 0.25; stroke-linecap: square"/>
   </g>
   <g id="line2d_35">
    <path d="M 242.360271 64.152826 
L 242.360274 62.198943 
L 242.360275 60.244745 
L 242.360277 58.290246 
L 242.360278 56.335457 
L 242.360279 54.380391 
L 242.36028 52.42506 
L 242.36028 50.46948 
L 242.36028 48.513662 
L 242.36028 46.55762 
L 242.360281 44.601369 
L 242.360281 42.644922 
L 242.360281 40.688291 
L 242.360281 38.73149 
L 242.36028 36.774533 
L 242.36028 34.817432 
L 242.36028 32.860198 
L 242.36028 30.902845 
L 242.36028 28.945383 
L 242.36028 26.987824 
L 242.36028 25.030179 
L 242.36028 23.072458 
L 242.36028 21.11467 
L 242.36028 19.156826 
L 242.36028 17.198933 
L 242.36028 15.241001 
L 242.36028 13.283038 
L 242.36028 11.32505 
L 242.36028 9.367044 
L 242.36028 7.409027 
L 242.36028 5.451005 
" clip-path="url(#pd463768fae)" style="fill: none; stroke: #ff0000; stroke-width: 0.25; stroke-linecap: square"/>
   </g>
   <g id="line2d_36">
    <path d="M 125.775363 168.327723 
L 123.819186 168.327724 
L 121.862993 168.327724 
L 119.906776 168.327724 
L 117.950529 168.327723 
L 115.994248 168.327723 
L 114.037927 168.327723 
L 112.081564 168.327722 
L 110.125155 168.327722 
L 108.168699 168.327721 
L 106.212195 168.327721 
L 104.255642 168.327721 
L 102.29904 168.327721 
L 100.34239 168.32772 
L 98.385692 168.32772 
L 96.428948 168.32772 
L 94.47216 168.32772 
L 92.51533 168.32772 
L 90.55846 168.32772 
L 88.601553 168.32772 
L 86.644612 168.32772 
L 84.687639 168.32772 
L 82.730638 168.32772 
L 80.773611 168.32772 
L 78.816563 168.32772 
L 76.859496 168.32772 
L 74.902414 168.32772 
L 72.94532 168.32772 
L 70.988216 168.32772 
L 69.031106 168.32772 
L 67.073992 168.32772 
" clip-path="url(#pd463768fae)" style="fill: none; stroke: #ff0000; stroke-opacity: 0.2; stroke-width: 0.25; stroke-linecap: square"/>
   </g>
   <g id="line2d_37">
    <path d="M 125.775363 168.327723 
L 123.819186 168.327724 
L 121.862995 168.327724 
L 119.906782 168.327724 
L 117.950541 168.327723 
L 115.994267 168.327723 
L 114.037956 168.327722 
L 112.081604 168.327722 
L 110.12521 168.327722 
L 108.16877 168.327721 
L 106.212284 168.327721 
L 104.255752 168.327721 
L 102.299173 168.327721 
L 100.342548 168.32772 
L 98.385877 168.32772 
L 96.429163 168.32772 
L 94.472408 168.32772 
L 92.515612 168.32772 
L 90.558779 168.32772 
L 88.601912 168.32772 
L 86.645012 168.32772 
L 84.688084 168.32772 
L 82.731129 168.32772 
L 80.774152 168.32772 
L 78.817155 168.32772 
L 76.860142 168.32772 
L 74.903115 168.32772 
L 72.946078 168.32772 
L 70.989034 168.32772 
L 69.031985 168.32772 
L 67.074934 168.32772 
" clip-path="url(#pd463768fae)" style="fill: none; stroke: #ff0000; stroke-opacity: 0.4; stroke-width: 0.25; stroke-linecap: square"/>
   </g>
   <g id="line2d_38">
    <path d="M 125.775363 168.327723 
L 123.819186 168.327724 
L 121.862993 168.327724 
L 119.906778 168.327724 
L 117.950534 168.327723 
L 115.994255 168.327723 
L 114.037938 168.327722 
L 112.081579 168.327722 
L 110.125176 168.327722 
L 108.168727 168.327721 
L 106.21223 168.327721 
L 104.255686 168.327721 
L 102.299093 168.327721 
L 100.342453 168.32772 
L 98.385767 168.32772 
L 96.429036 168.32772 
L 94.472261 168.32772 
L 92.515446 168.32772 
L 90.558592 168.32772 
L 88.601702 168.32772 
L 86.644779 168.32772 
L 84.687826 168.32772 
L 82.730845 168.32772 
L 80.773841 168.32772 
L 78.816815 168.32772 
L 76.859773 168.32772 
L 74.902716 168.32772 
L 72.945647 168.32772 
L 70.988571 168.32772 
L 69.031489 168.32772 
L 67.074405 168.32772 
" clip-path="url(#pd463768fae)" style="fill: none; stroke: #ff0000; stroke-opacity: 0.6; stroke-width: 0.25; stroke-linecap: square"/>
   </g>
   <g id="line2d_39">
    <path d="M 125.775363 168.327723 
L 123.819186 168.327724 
L 121.862994 168.327724 
L 119.90678 168.327724 
L 117.950538 168.327723 
L 115.994262 168.327723 
L 114.037949 168.327722 
L 112.081594 168.327722 
L 110.125196 168.327722 
L 108.168752 168.327721 
L 106.212262 168.327721 
L 104.255725 168.327721 
L 102.29914 168.327721 
L 100.342509 168.32772 
L 98.385832 168.32772 
L 96.429111 168.32772 
L 94.472347 168.32772 
L 92.515543 168.32772 
L 90.558701 168.32772 
L 88.601824 168.32772 
L 86.644914 168.32772 
L 84.687975 168.32772 
L 82.731009 168.32772 
L 80.774019 168.32772 
L 78.81701 168.32772 
L 76.859983 168.32772 
L 74.902943 168.32772 
L 72.945892 168.32772 
L 70.988833 168.32772 
L 69.031769 168.32772 
L 67.074703 168.32772 
" clip-path="url(#pd463768fae)" style="fill: none; stroke: #ff0000; stroke-opacity: 0.8; stroke-width: 0.25; stroke-linecap: square"/>
   </g>
   <g id="line2d_40">
    <path d="M 125.775363 168.327723 
L 123.819186 168.327724 
L 121.862994 168.327724 
L 119.906779 168.327723 
L 117.950535 168.327723 
L 115.994258 168.327723 
L 114.037942 168.327722 
L 112.081585 168.327722 
L 110.125184 168.327722 
L 108.168737 168.327721 
L 106.212243 168.327721 
L 104.255702 168.327721 
L 102.299113 168.327721 
L 100.342476 168.32772 
L 98.385794 168.32772 
L 96.429067 168.32772 
L 94.472297 168.32772 
L 92.515487 168.32772 
L 90.558638 168.32772 
L 88.601754 168.32772 
L 86.644836 168.32772 
L 84.687889 168.32772 
L 82.730915 168.32772 
L 80.773917 168.32772 
L 78.816899 168.32772 
L 76.859863 168.32772 
L 74.902814 168.32772 
L 72.945753 168.32772 
L 70.988685 168.32772 
L 69.031611 168.32772 
L 67.074535 168.32772 
" clip-path="url(#pd463768fae)" style="fill: none; stroke: #ff0000; stroke-width: 0.25; stroke-linecap: square"/>
   </g>
   <g id="line2d_41">
    <path d="M 344.42594 180.728278 
L 346.40553 180.728279 
L 348.385497 180.72828 
L 350.365827 180.728281 
L 352.346503 180.728281 
L 354.32751 180.728282 
L 356.308833 180.728282 
L 358.290454 180.728282 
L 360.272358 180.728281 
L 362.254527 180.728281 
L 364.236946 180.728281 
L 366.219597 180.728281 
L 368.202467 180.728281 
L 370.185537 180.728281 
L 372.168794 180.72828 
L 374.152222 180.72828 
L 376.135807 180.72828 
L 378.119534 180.72828 
L 380.10339 180.72828 
L 382.087361 180.72828 
L 384.071436 180.72828 
L 386.055602 180.72828 
L 388.039847 180.72828 
L 390.024161 180.72828 
L 392.008534 180.72828 
L 393.992955 180.72828 
L 395.977415 180.72828 
L 397.961907 180.72828 
L 399.946421 180.72828 
L 401.930951 180.72828 
L 403.91549 180.72828 
" clip-path="url(#pd463768fae)" style="fill: none; stroke: #ff0000; stroke-opacity: 0.2; stroke-width: 0.25; stroke-linecap: square"/>
   </g>
   <g id="line2d_42">
    <path d="M 344.42594 180.728278 
L 346.40553 180.728279 
L 348.385495 180.72828 
L 350.365821 180.728281 
L 352.346491 180.728281 
L 354.32749 180.728282 
L 356.308802 180.728282 
L 358.29041 180.728281 
L 360.272298 180.728281 
L 362.254448 180.728281 
L 364.236846 180.728281 
L 366.219473 180.728281 
L 368.202314 180.728281 
L 370.185354 180.728281 
L 372.168576 180.72828 
L 374.151966 180.72828 
L 376.135509 180.72828 
L 378.11919 180.72828 
L 380.102996 180.72828 
L 382.086914 180.72828 
L 384.070931 180.72828 
L 386.055035 180.72828 
L 388.039214 180.72828 
L 390.023458 180.72828 
L 392.007756 180.72828 
L 393.992098 180.72828 
L 395.976476 180.72828 
L 397.96088 180.72828 
L 399.945303 180.72828 
L 401.929738 180.72828 
L 403.914178 180.72828 
" clip-path="url(#pd463768fae)" style="fill: none; stroke: #ff0000; stroke-opacity: 0.4; stroke-width: 0.25; stroke-linecap: square"/>
   </g>
   <g id="line2d_43">
    <path d="M 344.42594 180.728278 
L 346.40553 180.728279 
L 348.385497 180.72828 
L 350.365825 180.728281 
L 352.346499 180.728281 
L 354.327504 180.728281 
L 356.308823 180.728282 
L 358.290439 180.728281 
L 360.272337 180.728281 
L 362.254499 180.728281 
L 364.23691 180.728281 
L 366.219552 180.728281 
L 368.20241 180.728281 
L 370.185469 180.728281 
L 372.168711 180.72828 
L 374.152124 180.72828 
L 376.135691 180.72828 
L 378.119399 180.72828 
L 380.103233 180.72828 
L 382.087182 180.72828 
L 384.071231 180.72828 
L 386.05537 180.72828 
L 388.039586 180.72828 
L 390.023868 180.72828 
L 392.008207 180.72828 
L 393.992592 180.72828 
L 395.977014 180.72828 
L 397.961465 180.72828 
L 399.945937 180.72828 
L 401.930422 180.72828 
L 403.914913 180.72828 
" clip-path="url(#pd463768fae)" style="fill: none; stroke: #ff0000; stroke-opacity: 0.6; stroke-width: 0.25; stroke-linecap: square"/>
   </g>
   <g id="line2d_44">
    <path d="M 344.42594 180.728278 
L 346.40553 180.728279 
L 348.385496 180.72828 
L 350.365822 180.728281 
L 352.346494 180.728281 
L 354.327495 180.728281 
L 356.30881 180.728282 
L 358.290421 180.728281 
L 360.272312 180.728281 
L 362.254468 180.728281 
L 364.23687 180.728281 
L 366.219503 180.728281 
L 368.202352 180.728281 
L 370.185399 180.728281 
L 372.16863 180.72828 
L 374.152029 180.72828 
L 376.135582 180.72828 
L 378.119274 180.72828 
L 380.103093 180.72828 
L 382.087024 180.72828 
L 384.071055 180.72828 
L 386.055174 180.72828 
L 388.03937 180.72828 
L 390.023631 180.72828 
L 392.007947 180.72828 
L 393.992309 180.72828 
L 395.976707 180.72828 
L 397.961132 180.72828 
L 399.945578 180.72828 
L 401.930036 180.72828 
L 403.9145 180.72828 
" clip-path="url(#pd463768fae)" style="fill: none; stroke: #ff0000; stroke-opacity: 0.8; stroke-width: 0.25; stroke-linecap: square"/>
   </g>
   <g id="line2d_45">
    <path d="M 344.42594 180.728278 
L 346.40553 180.728279 
L 348.385496 180.72828 
L 350.365824 180.728281 
L 352.346497 180.728281 
L 354.327501 180.728281 
L 356.308818 180.728281 
L 358.290432 180.728281 
L 360.272327 180.728281 
L 362.254487 180.728281 
L 364.236894 180.728281 
L 366.219533 180.728281 
L 368.202387 180.728281 
L 370.185441 180.728281 
L 372.168678 180.72828 
L 374.152085 180.72828 
L 376.135646 180.72828 
L 378.119347 180.72828 
L 380.103175 180.72828 
L 382.087116 180.72828 
L 384.071157 180.72828 
L 386.055287 180.72828 
L 388.039494 180.72828 
L 390.023767 180.72828 
L 392.008096 180.72828 
L 393.992471 180.72828 
L 395.976882 180.72828 
L 397.961321 180.72828 
L 399.945781 180.72828 
L 401.930254 180.72828 
L 403.914733 180.72828 
" clip-path="url(#pd463768fae)" style="fill: none; stroke: #ff0000; stroke-width: 0.25; stroke-linecap: square"/>
   </g>
   <g id="line2d_46">
    <path d="M 229.959738 288.219821 
L 229.959735 290.052991 
L 229.959732 291.886155 
L 229.95973 293.719298 
L 229.959728 295.552406 
L 229.959726 297.385467 
L 229.959724 299.218471 
L 229.959723 301.051408 
L 229.959722 302.884274 
L 229.959721 304.717061 
L 229.959721 306.549767 
L 229.95972 308.382388 
L 229.95972 310.214925 
L 229.95972 312.047375 
L 229.95972 313.879742 
L 229.95972 315.712025 
L 229.959719 317.544227 
L 229.95972 319.376353 
L 229.95972 321.208405 
L 229.95972 323.040389 
L 229.95972 324.872308 
L 229.95972 326.704169 
L 229.95972 328.535977 
L 229.95972 330.367738 
L 229.95972 332.199458 
L 229.95972 334.031142 
L 229.95972 335.862798 
L 229.95972 337.69443 
L 229.95972 339.526044 
L 229.95972 341.357646 
L 229.95972 343.189242 
" clip-path="url(#pd463768fae)" style="fill: none; stroke: #ff0000; stroke-opacity: 0.2; stroke-width: 0.25; stroke-linecap: square"/>
   </g>
   <g id="line2d_47">
    <path d="M 229.959738 288.219821 
L 229.959735 290.052991 
L 229.959732 291.886159 
L 229.95973 293.719309 
L 229.959728 295.552429 
L 229.959726 297.385505 
L 229.959724 299.218529 
L 229.959723 301.05149 
L 229.959722 302.884383 
L 229.959721 304.717203 
L 229.959721 306.549945 
L 229.95972 308.382608 
L 229.95972 310.21519 
L 229.95972 312.047691 
L 229.95972 313.880112 
L 229.95972 315.712455 
L 229.95972 317.544722 
L 229.95972 319.376917 
L 229.95972 321.209043 
L 229.95972 323.041105 
L 229.95972 324.873108 
L 229.95972 326.705057 
L 229.95972 328.536958 
L 229.95972 330.368816 
L 229.95972 332.200637 
L 229.95972 334.032428 
L 229.95972 335.864193 
L 229.95972 337.695938 
L 229.95972 339.52767 
L 229.95972 341.359393 
L 229.95972 343.191112 
" clip-path="url(#pd463768fae)" style="fill: none; stroke: #ff0000; stroke-opacity: 0.4; stroke-width: 0.25; stroke-linecap: square"/>
   </g>
   <g id="line2d_48">
    <path d="M 229.959738 288.219821 
L 229.959735 290.052991 
L 229.959732 291.886156 
L 229.95973 293.719302 
L 229.959728 295.552415 
L 229.959726 297.385482 
L 229.959724 299.218493 
L 229.959723 301.05144 
L 229.959722 302.884316 
L 229.959721 304.717117 
L 229.959721 306.549837 
L 229.95972 308.382476 
L 229.95972 310.215031 
L 229.95972 312.047503 
L 229.95972 313.879892 
L 229.95972 315.7122 
L 229.95972 317.54443 
L 229.95972 319.376585 
L 229.95972 321.208669 
L 229.95972 323.040687 
L 229.95972 324.872643 
L 229.95972 326.704542 
L 229.95972 328.536392 
L 229.95972 330.368196 
L 229.95972 332.199961 
L 229.95972 334.031693 
L 229.95972 335.863398 
L 229.95972 337.695082 
L 229.95972 339.52675 
L 229.95972 341.358408 
L 229.95972 343.19006 
" clip-path="url(#pd463768fae)" style="fill: none; stroke: #ff0000; stroke-opacity: 0.6; stroke-width: 0.25; stroke-linecap: square"/>
   </g>
   <g id="line2d_49">
    <path d="M 229.959738 288.219821 
L 229.959734 290.052991 
L 229.959732 291.886158 
L 229.95973 293.719307 
L 229.959728 295.552423 
L 229.959726 297.385496 
L 229.959724 299.218514 
L 229.959723 301.05147 
L 229.959722 302.884356 
L 229.959721 304.717168 
L 229.959721 306.549902 
L 229.95972 308.382554 
L 229.95972 310.215125 
L 229.95972 312.047614 
L 229.95972 313.880021 
L 229.95972 315.712349 
L 229.95972 317.544601 
L 229.95972 319.376778 
L 229.95972 321.208886 
L 229.95972 323.040929 
L 229.95972 324.872912 
L 229.95972 326.704839 
L 229.95972 328.536717 
L 229.95972 330.368552 
L 229.95972 332.200348 
L 229.95972 334.032112 
L 229.95972 335.86385 
L 229.95972 337.695568 
L 229.95972 339.52727 
L 229.95972 341.358964 
L 229.95972 343.190653 
" clip-path="url(#pd463768fae)" style="fill: none; stroke: #ff0000; stroke-opacity: 0.8; stroke-width: 0.25; stroke-linecap: square"/>
   </g>
   <g id="line2d_50">
    <path d="M 229.959738 288.219821 
L 229.959734 290.052991 
L 229.959732 291.886157 
L 229.95973 293.719304 
L 229.959728 295.552418 
L 229.959726 297.385488 
L 229.959724 299.218502 
L 229.959723 301.051452 
L 229.959722 302.884333 
L 229.959721 304.717138 
L 229.959721 306.549864 
L 229.95972 308.382508 
L 229.95972 310.21507 
L 229.95972 312.047549 
L 229.95972 313.879946 
L 229.95972 315.712263 
L 229.95972 317.544502 
L 229.95972 319.376666 
L 229.95972 321.208761 
L 229.95972 323.040789 
L 229.95972 324.872757 
L 229.95972 326.704669 
L 229.95972 328.536531 
L 229.95972 330.368348 
L 229.95972 332.200127 
L 229.95972 334.031873 
L 229.95972 335.863593 
L 229.95972 337.695292 
L 229.95972 339.526976 
L 229.95972 341.35865 
L 229.95972 343.190319 
" clip-path="url(#pd463768fae)" style="fill: none; stroke: #ff0000; stroke-width: 0.25; stroke-linecap: square"/>
   </g>
   <g id="line2d_51">
    <path d="M 242.36046 97.253563 
L 242.360301 95.305329 
L 242.360189 93.357193 
L 242.36012 91.4091 
L 242.360083 89.461002 
L 242.36007 87.512856 
L 242.360073 85.564626 
L 242.360086 83.616281 
L 242.360106 81.667795 
L 242.360129 79.719147 
L 242.360153 77.770321 
L 242.360176 75.821303 
L 242.360197 73.872085 
L 242.360216 71.922662 
L 242.360232 69.973031 
L 242.360245 68.023194 
L 242.360256 66.073154 
L 242.360265 64.122918 
L 242.360271 62.172492 
L 242.360276 60.221888 
L 242.360279 58.271117 
L 242.360282 56.32019 
L 242.360283 54.369123 
L 242.360284 52.417931 
L 242.360284 50.466627 
L 242.360284 48.515229 
L 242.360284 46.563752 
L 242.360283 44.612212 
L 242.360283 42.660624 
L 242.360282 40.709004 
L 242.360281 38.757366 
" clip-path="url(#pd463768fae)" style="fill: none; stroke: #ff0000; stroke-opacity: 0.2; stroke-width: 0.25; stroke-linecap: square"/>
   </g>
   <g id="line2d_52">
    <path d="M 242.36046 97.253563 
L 242.360308 95.305329 
L 242.360196 93.357205 
L 242.360126 91.409134 
L 242.360089 89.461069 
L 242.360074 87.512969 
L 242.360076 85.564796 
L 242.360089 83.616521 
L 242.360108 81.668117 
L 242.36013 79.719564 
L 242.360153 77.770845 
L 242.360176 75.821948 
L 242.360196 73.872863 
L 242.360214 71.923587 
L 242.36023 69.974117 
L 242.360243 68.024454 
L 242.360254 66.074601 
L 242.360263 64.124566 
L 242.360269 62.174355 
L 242.360274 60.223979 
L 242.360278 58.273449 
L 242.36028 56.322777 
L 242.360282 54.371978 
L 242.360283 52.421066 
L 242.360283 50.470055 
L 242.360283 48.518962 
L 242.360283 46.567801 
L 242.360283 44.616587 
L 242.360282 42.665336 
L 242.360282 40.714062 
L 242.360281 38.762777 
" clip-path="url(#pd463768fae)" style="fill: none; stroke: #ff0000; stroke-opacity: 0.4; stroke-width: 0.25; stroke-linecap: square"/>
   </g>
   <g id="line2d_53">
    <path d="M 242.36046 97.253563 
L 242.360314 95.305329 
L 242.360202 93.357198 
L 242.360131 91.409113 
L 242.360093 89.461028 
L 242.360078 87.5129 
L 242.360079 85.564692 
L 242.360091 83.616375 
L 242.360109 81.667922 
L 242.360131 79.719312 
L 242.360154 77.770529 
L 242.360176 75.821561 
L 242.360196 73.872398 
L 242.360214 71.923036 
L 242.36023 69.973472 
L 242.360243 68.023709 
L 242.360254 66.073749 
L 242.360263 64.123598 
L 242.36027 62.173265 
L 242.360275 60.22276 
L 242.360278 58.272093 
L 242.360281 56.321279 
L 242.360283 54.370331 
L 242.360283 52.419263 
L 242.360284 50.46809 
L 242.360284 48.516829 
L 242.360284 46.565495 
L 242.360283 44.614104 
L 242.360282 42.66267 
L 242.360282 40.711208 
L 242.360281 38.759733 
" clip-path="url(#pd463768fae)" style="fill: none; stroke: #ff0000; stroke-opacity: 0.6; stroke-width: 0.25; stroke-linecap: square"/>
   </g>
   <g id="line2d_54">
    <path d="M 242.36046 97.253563 
L 242.360319 95.305329 
L 242.360206 93.357202 
L 242.360135 91.409126 
L 242.360096 89.461053 
L 242.36008 87.512941 
L 242.360081 85.564755 
L 242.360092 83.616462 
L 242.36011 81.668038 
L 242.360131 79.719462 
L 242.360154 77.770716 
L 242.360176 75.821789 
L 242.360196 73.872672 
L 242.360214 71.92336 
L 242.36023 69.97385 
L 242.360243 68.024144 
L 242.360254 66.074246 
L 242.360263 64.124161 
L 242.360269 62.173898 
L 242.360274 60.223466 
L 242.360278 58.272876 
L 242.360281 56.322142 
L 242.360282 54.371277 
L 242.360283 52.420296 
L 242.360284 50.469213 
L 242.360284 48.518045 
L 242.360283 46.566806 
L 242.360283 44.615512 
L 242.360282 42.664178 
L 242.360282 40.712819 
L 242.360281 38.761447 
" clip-path="url(#pd463768fae)" style="fill: none; stroke: #ff0000; stroke-opacity: 0.8; stroke-width: 0.25; stroke-linecap: square"/>
   </g>
   <g id="line2d_55">
    <path d="M 242.36046 97.253563 
L 242.360323 95.305329 
L 242.36021 93.357199 
L 242.360139 91.409118 
L 242.360099 89.461038 
L 242.360082 87.512917 
L 242.360082 85.564718 
L 242.360093 83.616411 
L 242.360111 81.66797 
L 242.360132 79.719374 
L 242.360154 77.770607 
L 242.360176 75.821656 
L 242.360196 73.872512 
L 242.360214 71.923171 
L 242.36023 69.97363 
L 242.360243 68.023892 
L 242.360254 66.073958 
L 242.360263 64.123836 
L 242.360269 62.173533 
L 242.360274 60.223059 
L 242.360278 58.272426 
L 242.360281 56.321647 
L 242.360282 54.370735 
L 242.360283 52.419705 
L 242.360284 50.468573 
L 242.360284 48.517353 
L 242.360283 46.566061 
L 242.360283 44.614714 
L 242.360282 42.663325 
L 242.360282 40.71191 
L 242.360281 38.760481 
" clip-path="url(#pd463768fae)" style="fill: none; stroke: #ff0000; stroke-width: 0.25; stroke-linecap: square"/>
   </g>
   <g id="line2d_56">
    <path d="M 229.95979 251.258264 
L 229.959749 253.227379 
L 229.959719 255.196821 
L 229.9597 257.166627 
L 229.959688 259.136829 
L 229.959682 261.10745 
L 229.95968 263.078509 
L 229.959681 265.05002 
L 229.959684 267.021988 
L 229.959688 268.994417 
L 229.959692 270.967306 
L 229.959697 272.940648 
L 229.959701 274.914434 
L 229.959705 276.888652 
L 229.959709 278.863286 
L 229.959712 280.83832 
L 229.959714 282.813732 
L 229.959716 284.789501 
L 229.959717 286.765604 
L 229.959719 288.742016 
L 229.959719 290.718711 
L 229.95972 292.695663 
L 229.95972 294.672845 
L 229.959721 296.650231 
L 229.959721 298.627792 
L 229.959721 300.605503 
L 229.959721 302.583338 
L 229.959721 304.56127 
L 229.959721 306.539275 
L 229.95972 308.517331 
L 229.95972 310.495415 
" clip-path="url(#pd463768fae)" style="fill: none; stroke: #ff0000; stroke-opacity: 0.2; stroke-width: 0.25; stroke-linecap: square"/>
   </g>
   <g id="line2d_57">
    <path d="M 229.95979 251.258264 
L 229.959751 253.227379 
L 229.959721 255.196808 
L 229.959701 257.166587 
L 229.959689 259.136748 
L 229.959683 261.107315 
L 229.959681 263.078304 
L 229.959682 265.04973 
L 229.959684 267.021598 
L 229.959688 268.993912 
L 229.959692 270.966669 
L 229.959697 272.939863 
L 229.959701 274.913484 
L 229.959705 276.88752 
L 229.959708 278.861955 
L 229.959711 280.836772 
L 229.959714 282.81195 
L 229.959716 284.787467 
L 229.959717 286.763299 
L 229.959718 288.739422 
L 229.959719 290.715811 
L 229.95972 292.692439 
L 229.95972 294.669279 
L 229.95972 296.646305 
L 229.959721 298.62349 
L 229.959721 300.600808 
L 229.959721 302.578233 
L 229.959721 304.555741 
L 229.95972 306.533307 
L 229.95972 308.51091 
L 229.95972 310.488528 
" clip-path="url(#pd463768fae)" style="fill: none; stroke: #ff0000; stroke-opacity: 0.4; stroke-width: 0.25; stroke-linecap: square"/>
   </g>
   <g id="line2d_58">
    <path d="M 229.95979 251.258264 
L 229.959752 253.227379 
L 229.959722 255.196816 
L 229.959702 257.166612 
L 229.95969 259.136799 
L 229.959683 261.107399 
L 229.959681 263.078432 
L 229.959682 265.049909 
L 229.959685 267.021838 
L 229.959688 268.994221 
L 229.959693 270.967057 
L 229.959697 272.940339 
L 229.959701 274.914057 
L 229.959705 276.8882 
L 229.959708 278.862752 
L 229.959711 280.837694 
L 229.959714 282.813007 
L 229.959716 284.788669 
L 229.959717 286.764656 
L 229.959718 288.740942 
L 229.959719 290.717504 
L 229.95972 292.694313 
L 229.95972 294.671344 
L 229.959721 296.648569 
L 229.959721 298.625962 
L 229.959721 300.603495 
L 229.959721 302.581144 
L 229.959721 304.558882 
L 229.959721 306.536685 
L 229.95972 308.514532 
L 229.95972 310.492399 
" clip-path="url(#pd463768fae)" style="fill: none; stroke: #ff0000; stroke-opacity: 0.6; stroke-width: 0.25; stroke-linecap: square"/>
   </g>
   <g id="line2d_59">
    <path d="M 229.95979 251.258264 
L 229.959753 253.227379 
L 229.959723 255.196811 
L 229.959703 257.166597 
L 229.95969 259.136768 
L 229.959684 261.107348 
L 229.959682 263.078355 
L 229.959682 265.049801 
L 229.959685 267.021694 
L 229.959688 268.994036 
L 229.959693 270.966825 
L 229.959697 272.940055 
L 229.959701 274.913717 
L 229.959705 276.887798 
L 229.959708 278.862282 
L 229.959711 280.837152 
L 229.959714 282.812387 
L 229.959716 284.787966 
L 229.959717 286.763865 
L 229.959718 288.740059 
L 229.959719 290.716523 
L 229.95972 292.69323 
L 229.95972 294.670155 
L 229.95972 296.647269 
L 229.959721 298.624547 
L 229.959721 300.601961 
L 229.959721 302.579487 
L 229.959721 304.557099 
L 229.959721 306.534774 
L 229.95972 308.512488 
L 229.95972 310.490221 
" clip-path="url(#pd463768fae)" style="fill: none; stroke: #ff0000; stroke-opacity: 0.8; stroke-width: 0.25; stroke-linecap: square"/>
   </g>
   <g id="line2d_60">
    <path d="M 229.95979 251.258264 
L 229.959754 253.227379 
L 229.959724 255.196814 
L 229.959703 257.166606 
L 229.959691 259.136786 
L 229.959684 261.107378 
L 229.959682 263.0784 
L 229.959682 265.049865 
L 229.959685 267.021779 
L 229.959688 268.994145 
L 229.959693 270.966962 
L 229.959697 272.940222 
L 229.959701 274.913917 
L 229.959705 276.888033 
L 229.959708 278.862557 
L 229.959711 280.837468 
L 229.959714 282.812748 
L 229.959716 284.788374 
L 229.959717 286.764322 
L 229.959718 288.740569 
L 229.959719 290.717088 
L 229.95972 292.693853 
L 229.95972 294.670837 
L 229.959721 296.648013 
L 229.959721 298.625355 
L 229.959721 300.602835 
L 229.959721 302.580429 
L 229.959721 304.55811 
L 229.959721 306.535855 
L 229.95972 308.513641 
L 229.95972 310.491448 
" clip-path="url(#pd463768fae)" style="fill: none; stroke: #ff0000; stroke-width: 0.25; stroke-linecap: square"/>
   </g>
   <g id="line2d_61">
    <path d="M 155.42531 168.326532 
L 153.597609 168.32684 
L 151.769185 168.327095 
L 149.9401 168.3273 
L 148.110413 168.32746 
L 146.280181 168.327582 
L 144.449457 168.327672 
L 142.618289 168.327736 
L 140.786725 168.327778 
L 138.954807 168.327804 
L 137.122575 168.327818 
L 135.290066 168.327823 
L 133.457314 168.327821 
L 131.62435 168.327814 
L 129.791202 168.327805 
L 127.957895 168.327795 
L 126.124452 168.327784 
L 124.290894 168.327774 
L 122.45724 168.327764 
L 120.623505 168.327755 
L 118.789704 168.327748 
L 116.955849 168.327741 
L 115.121951 168.327736 
L 113.288017 168.327731 
L 111.454058 168.327728 
L 109.620077 168.327725 
L 107.786081 168.327723 
L 105.952074 168.327721 
L 104.11806 168.32772 
L 102.28404 168.327719 
L 100.450017 168.327718 
" clip-path="url(#pd463768fae)" style="fill: none; stroke: #ff0000; stroke-opacity: 0.2; stroke-width: 0.25; stroke-linecap: square"/>
   </g>
   <g id="line2d_62">
    <path d="M 155.42531 168.326532 
L 153.597609 168.326837 
L 151.769181 168.327093 
L 149.940087 168.327298 
L 148.110388 168.327458 
L 146.280139 168.32758 
L 144.449394 168.327671 
L 142.618203 168.327735 
L 140.78661 168.327778 
L 138.954661 168.327804 
L 137.122394 168.327818 
L 135.289846 168.327823 
L 133.457052 168.327821 
L 131.624042 168.327815 
L 129.790846 168.327806 
L 127.957488 168.327796 
L 126.123991 168.327785 
L 124.290377 168.327775 
L 122.456664 168.327765 
L 120.622868 168.327756 
L 118.789004 168.327748 
L 116.955084 168.327742 
L 115.121119 168.327736 
L 113.287118 168.327732 
L 111.453089 168.327728 
L 109.61904 168.327725 
L 107.784974 168.327723 
L 105.950898 168.327721 
L 104.116814 168.327719 
L 102.282726 168.327718 
L 100.448636 168.327717 
" clip-path="url(#pd463768fae)" style="fill: none; stroke: #ff0000; stroke-opacity: 0.4; stroke-width: 0.25; stroke-linecap: square"/>
   </g>
   <g id="line2d_63">
    <path d="M 155.42531 168.326532 
L 153.597609 168.326835 
L 151.769183 168.327091 
L 149.940094 168.327296 
L 148.110402 168.327457 
L 146.280163 168.327579 
L 144.449429 168.32767 
L 142.618251 168.327734 
L 140.786675 168.327777 
L 138.954743 168.327804 
L 137.122496 168.327818 
L 135.28997 168.327823 
L 133.4572 168.327821 
L 131.624216 168.327815 
L 129.791047 168.327806 
L 127.957717 168.327796 
L 126.124251 168.327785 
L 124.290669 168.327774 
L 122.456989 168.327765 
L 120.623228 168.327756 
L 118.789399 168.327748 
L 116.955516 168.327741 
L 115.121588 168.327736 
L 113.287626 168.327731 
L 111.453636 168.327728 
L 109.619625 168.327725 
L 107.785599 168.327723 
L 105.951562 168.327721 
L 104.117518 168.32772 
L 102.283469 168.327719 
L 100.449417 168.327718 
" clip-path="url(#pd463768fae)" style="fill: none; stroke: #ff0000; stroke-opacity: 0.6; stroke-width: 0.25; stroke-linecap: square"/>
   </g>
   <g id="line2d_64">
    <path d="M 155.42531 168.326532 
L 153.597609 168.326834 
L 151.769182 168.327089 
L 149.94009 168.327295 
L 148.110394 168.327455 
L 146.28015 168.327578 
L 144.44941 168.327669 
L 142.618224 168.327733 
L 140.786639 168.327777 
L 138.954697 168.327804 
L 137.122438 168.327818 
L 135.2899 168.327823 
L 133.457116 168.327821 
L 131.624118 168.327815 
L 129.790933 168.327806 
L 127.957588 168.327796 
L 126.124104 168.327785 
L 124.290504 168.327775 
L 122.456805 168.327765 
L 120.623024 168.327756 
L 118.789176 168.327748 
L 116.955272 168.327742 
L 115.121323 168.327736 
L 113.287339 168.327732 
L 111.453327 168.327728 
L 109.619295 168.327725 
L 107.785246 168.327723 
L 105.951187 168.327721 
L 104.11712 168.32772 
L 102.283049 168.327718 
L 100.448976 168.327717 
" clip-path="url(#pd463768fae)" style="fill: none; stroke: #ff0000; stroke-opacity: 0.8; stroke-width: 0.25; stroke-linecap: square"/>
   </g>
   <g id="line2d_65">
    <path d="M 155.42531 168.326532 
L 153.597609 168.326832 
L 151.769183 168.327088 
L 149.940093 168.327294 
L 148.110399 168.327455 
L 146.280157 168.327578 
L 144.449421 168.327669 
L 142.618239 168.327733 
L 140.786659 168.327777 
L 138.954723 168.327804 
L 137.122471 168.327818 
L 135.28994 168.327823 
L 133.457164 168.327821 
L 131.624173 168.327815 
L 129.790997 168.327806 
L 127.957661 168.327796 
L 126.124187 168.327785 
L 124.290597 168.327775 
L 122.456909 168.327765 
L 120.623139 168.327756 
L 118.789302 168.327748 
L 116.955409 168.327742 
L 115.121473 168.327736 
L 113.287501 168.327732 
L 111.453502 168.327728 
L 109.619482 168.327725 
L 107.785446 168.327723 
L 105.951399 168.327721 
L 104.117345 168.32772 
L 102.283286 168.327719 
L 100.449225 168.327717 
" clip-path="url(#pd463768fae)" style="fill: none; stroke: #ff0000; stroke-width: 0.25; stroke-linecap: square"/>
   </g>
   <g id="line2d_66">
    <path d="M 313.277185 180.728745 
L 315.233907 180.728697 
L 317.190477 180.728645 
L 319.146915 180.728589 
L 321.103241 180.728535 
L 323.059473 180.728484 
L 325.015627 180.728439 
L 326.971718 180.7284 
L 328.92776 180.728367 
L 330.883763 180.72834 
L 332.839739 180.728319 
L 334.795696 180.728303 
L 336.751642 180.72829 
L 338.707584 180.728282 
L 340.663528 180.728276 
L 342.619479 180.728272 
L 344.575439 180.72827 
L 346.531412 180.728269 
L 348.4874 180.728269 
L 350.443403 180.72827 
L 352.399424 180.728271 
L 354.355461 180.728272 
L 356.311515 180.728273 
L 358.267584 180.728274 
L 360.223668 180.728275 
L 362.179764 180.728276 
L 364.135871 180.728277 
L 366.091987 180.728278 
L 368.04811 180.728279 
L 370.004237 180.728279 
L 371.960368 180.72828 
" clip-path="url(#pd463768fae)" style="fill: none; stroke: #ff0000; stroke-opacity: 0.2; stroke-width: 0.25; stroke-linecap: square"/>
   </g>
   <g id="line2d_67">
    <path d="M 313.277185 180.728745 
L 315.233907 180.728693 
L 317.190474 180.72864 
L 319.146906 180.728585 
L 321.103224 180.728531 
L 323.059445 180.728481 
L 325.015586 180.728437 
L 326.97166 180.728398 
L 328.927682 180.728366 
L 330.883663 180.72834 
L 332.839613 180.728319 
L 334.795542 180.728303 
L 336.751457 180.728291 
L 338.707365 180.728282 
L 340.663272 180.728276 
L 342.619183 180.728273 
L 344.5751 180.728271 
L 346.531027 180.72827 
L 348.486967 180.72827 
L 350.442919 180.728271 
L 352.398886 180.728271 
L 354.354867 180.728272 
L 356.310861 180.728274 
L 358.266869 180.728275 
L 360.222889 180.728276 
L 362.178919 180.728277 
L 364.134958 180.728278 
L 366.091004 180.728278 
L 368.047055 180.728279 
L 370.003109 180.72828 
L 371.959165 180.72828 
" clip-path="url(#pd463768fae)" style="fill: none; stroke: #ff0000; stroke-opacity: 0.4; stroke-width: 0.25; stroke-linecap: square"/>
   </g>
   <g id="line2d_68">
    <path d="M 313.277185 180.728745 
L 315.233907 180.728689 
L 317.190476 180.728637 
L 319.146911 180.728582 
L 321.103234 180.728529 
L 323.059462 180.728479 
L 325.01561 180.728435 
L 326.971695 180.728397 
L 328.927728 180.728365 
L 330.883722 180.728339 
L 332.839687 180.728318 
L 334.795633 180.728303 
L 336.751566 180.728291 
L 338.707494 180.728282 
L 340.663422 180.728276 
L 342.619356 180.728273 
L 344.575298 180.728271 
L 346.531251 180.72827 
L 348.487218 180.72827 
L 350.443199 180.72827 
L 352.399196 180.728271 
L 354.355209 180.728272 
L 356.311237 180.728273 
L 358.267279 180.728274 
L 360.223334 180.728275 
L 362.1794 180.728276 
L 364.135477 180.728277 
L 366.091561 180.728278 
L 368.047652 180.728279 
L 370.003746 180.728279 
L 371.959842 180.72828 
" clip-path="url(#pd463768fae)" style="fill: none; stroke: #ff0000; stroke-opacity: 0.6; stroke-width: 0.25; stroke-linecap: square"/>
   </g>
   <g id="line2d_69">
    <path d="M 313.277185 180.728745 
L 315.233907 180.728686 
L 317.190475 180.728634 
L 319.146908 180.72858 
L 321.103228 180.728527 
L 323.059452 180.728478 
L 325.015596 180.728434 
L 326.971674 180.728396 
L 328.927701 180.728365 
L 330.883687 180.728339 
L 332.839644 180.728318 
L 334.79558 180.728303 
L 336.751503 180.728291 
L 338.707419 180.728282 
L 340.663335 180.728277 
L 342.619255 180.728273 
L 344.575183 180.728271 
L 346.531122 180.72827 
L 348.487073 180.72827 
L 350.443038 180.728271 
L 352.399018 180.728271 
L 354.355013 180.728272 
L 356.311022 180.728273 
L 358.267045 180.728275 
L 360.22308 180.728276 
L 362.179126 180.728277 
L 364.135182 180.728277 
L 366.091245 180.728278 
L 368.047314 180.728279 
L 370.003387 180.72828 
L 371.959461 180.72828 
" clip-path="url(#pd463768fae)" style="fill: none; stroke: #ff0000; stroke-opacity: 0.8; stroke-width: 0.25; stroke-linecap: square"/>
   </g>
   <g id="line2d_70">
    <path d="M 313.277185 180.728745 
L 315.233907 180.728683 
L 317.190475 180.728632 
L 319.14691 180.728578 
L 321.103232 180.728526 
L 323.059458 180.728477 
L 325.015604 180.728433 
L 326.971686 180.728396 
L 328.927717 180.728364 
L 330.883708 180.728339 
L 332.839669 180.728318 
L 334.79561 180.728303 
L 336.751539 180.728291 
L 338.707463 180.728283 
L 340.663386 180.728277 
L 342.619313 180.728273 
L 344.575249 180.728271 
L 346.531196 180.72827 
L 348.487156 180.72827 
L 350.443131 180.72827 
L 352.39912 180.728271 
L 354.355125 180.728272 
L 356.311144 180.728273 
L 358.267178 180.728274 
L 360.223224 180.728276 
L 362.179282 180.728276 
L 364.135349 180.728277 
L 366.091424 180.728278 
L 368.047505 180.728279 
L 370.00359 180.728279 
L 371.959676 180.72828 
" clip-path="url(#pd463768fae)" style="fill: none; stroke: #ff0000; stroke-width: 0.25; stroke-linecap: square"/>
   </g>
   <g id="line2d_71">
    <path d="M 284.377903 180.680619 
L 286.157917 180.697177 
L 287.941544 180.710304 
L 289.728649 180.720109 
L 291.519091 180.727186 
L 293.312723 180.732069 
L 295.109399 180.735224 
L 296.908968 180.73705 
L 298.711278 180.737883 
L 300.516178 180.737998 
L 302.323516 180.737616 
L 304.133139 180.736913 
L 305.944897 180.736024 
L 307.75864 180.735051 
L 309.574223 180.734066 
L 311.3915 180.73312 
L 313.210333 180.732247 
L 315.030584 180.731464 
L 316.85212 180.730781 
L 318.674813 180.730199 
L 320.49854 180.729714 
L 322.323181 180.729319 
L 324.148623 180.729003 
L 325.974757 180.728758 
L 327.80148 180.728571 
L 329.628695 180.728434 
L 331.456309 180.728335 
L 333.284237 180.728267 
L 335.112398 180.72822 
L 336.940717 180.728188 
L 338.769126 180.728149 
" clip-path="url(#pd463768fae)" style="fill: none; stroke: #ff0000; stroke-opacity: 0.2; stroke-width: 0.25; stroke-linecap: square"/>
   </g>
   <g id="line2d_72">
    <path d="M 284.377903 180.680619 
L 286.157921 180.696734 
L 287.941527 180.709881 
L 289.728589 180.719724 
L 291.518963 180.72685 
L 293.312504 180.731789 
L 295.109061 180.735003 
L 296.908485 180.73689 
L 298.710621 180.73778 
L 300.515317 180.737948 
L 302.322418 180.737614 
L 304.131772 180.736952 
L 305.943227 180.736097 
L 307.756632 180.73515 
L 309.571839 180.734183 
L 311.388703 180.733248 
L 313.207083 180.732378 
L 315.02684 180.731593 
L 316.847842 180.730904 
L 318.669959 180.730311 
L 320.493066 180.729813 
L 322.317045 180.729403 
L 324.141781 180.729072 
L 325.967165 180.728811 
L 327.793094 180.728609 
L 329.619471 180.728455 
L 331.446204 180.72834 
L 333.273208 180.728253 
L 335.100402 180.728185 
L 336.927713 180.728127 
L 338.755073 180.728075 
" clip-path="url(#pd463768fae)" style="fill: none; stroke: #ff0000; stroke-opacity: 0.4; stroke-width: 0.25; stroke-linecap: square"/>
   </g>
   <g id="line2d_73">
    <path d="M 284.377903 180.680619 
L 286.157925 180.696383 
L 287.941544 180.709558 
L 289.728635 180.719438 
L 291.519054 180.726607 
L 293.312654 180.73159 
L 295.109288 180.734847 
L 296.908804 180.73677 
L 298.711051 180.737693 
L 300.515874 180.737886 
L 302.323121 180.737571 
L 304.132639 180.736922 
L 305.944277 180.736074 
L 307.757884 180.735129 
L 309.573314 180.734161 
L 311.390421 180.733222 
L 313.209064 180.732348 
L 315.029106 180.731559 
L 316.850414 180.730865 
L 318.672857 180.730271 
L 320.496313 180.729772 
L 322.320662 180.729364 
L 324.145789 180.729037 
L 325.971586 180.728781 
L 327.79795 180.728586 
L 329.624782 180.728441 
L 331.45199 180.728336 
L 333.279489 180.72826 
L 335.107199 180.728204 
L 336.935044 180.72816 
L 338.762956 180.728118 
" clip-path="url(#pd463768fae)" style="fill: none; stroke: #ff0000; stroke-opacity: 0.6; stroke-width: 0.25; stroke-linecap: square"/>
   </g>
   <g id="line2d_74">
    <path d="M 284.377903 180.680619 
L 286.157927 180.696107 
L 287.941537 180.709314 
L 289.728609 180.719233 
L 291.519 180.726442 
L 293.312562 180.731464 
L 295.109149 180.734756 
L 296.908607 180.73671 
L 298.710786 180.737657 
L 300.515532 180.737871 
L 302.322691 180.737571 
L 304.132111 180.736932 
L 305.94364 180.736091 
L 307.757127 180.73515 
L 309.572426 180.734185 
L 311.389392 180.733247 
L 313.207882 180.732373 
L 315.027761 180.731585 
L 316.848894 180.730891 
L 318.671152 180.730297 
L 320.494411 180.729798 
L 322.318552 180.729388 
L 324.143461 180.729059 
L 325.96903 180.728801 
L 327.795154 180.728602 
L 329.621737 180.728452 
L 331.448687 180.72834 
L 333.275918 180.728258 
L 335.10335 180.728194 
L 336.930909 180.728142 
L 338.758527 180.728093 
" clip-path="url(#pd463768fae)" style="fill: none; stroke: #ff0000; stroke-opacity: 0.8; stroke-width: 0.25; stroke-linecap: square"/>
   </g>
   <g id="line2d_75">
    <path d="M 284.377903 180.680619 
L 286.157929 180.695887 
L 287.941545 180.709125 
L 289.728628 180.719077 
L 291.519035 180.726319 
L 293.312621 180.731371 
L 295.109236 180.734689 
L 296.908729 180.736664 
L 298.710948 180.737627 
L 300.51574 180.737852 
L 302.322951 180.737559 
L 304.132429 180.736925 
L 305.944022 180.736086 
L 307.757579 180.735145 
L 309.572954 180.734179 
L 311.390001 180.733241 
L 313.20858 180.732366 
L 315.028552 180.731577 
L 316.849784 180.730883 
L 318.672148 180.730287 
L 320.495518 180.729788 
L 322.319776 180.729379 
L 324.144806 180.72905 
L 325.970502 180.728793 
L 327.796758 180.728595 
L 329.623478 180.728447 
L 331.45057 180.728339 
L 333.277946 180.72826 
L 335.105529 180.7282 
L 336.933242 180.728153 
L 338.761019 180.728108 
" clip-path="url(#pd463768fae)" style="fill: none; stroke: #ff0000; stroke-width: 0.25; stroke-linecap: square"/>
   </g>
   <g id="line2d_76">
    <path d="M 229.991229 216.642587 
L 230.005111 218.71618 
L 230.012172 220.783688 
L 230.013452 222.84528 
L 230.010837 224.901154 
L 230.005818 226.95153 
L 229.999533 228.99664 
L 229.992814 231.036729 
L 229.986239 233.072046 
L 229.980181 235.102845 
L 229.974853 237.129381 
L 229.970349 239.151909 
L 229.966679 241.170686 
L 229.963794 243.185966 
L 229.961614 245.198001 
L 229.96004 247.207037 
L 229.958967 249.21332 
L 229.958295 251.217086 
L 229.957931 253.218568 
L 229.957794 255.217991 
L 229.957817 257.215574 
L 229.957943 259.211526 
L 229.95813 261.206049 
L 229.958348 263.199337 
L 229.958573 265.191573 
L 229.958791 267.182933 
L 229.958997 269.173581 
L 229.959187 271.163673 
L 229.959361 273.153353 
L 229.959524 275.142757 
L 229.959678 277.13201 
" clip-path="url(#pd463768fae)" style="fill: none; stroke: #ff0000; stroke-opacity: 0.2; stroke-width: 0.25; stroke-linecap: square"/>
   </g>
   <g id="line2d_77">
    <path d="M 229.991229 216.642587 
L 230.003905 218.716188 
L 230.010997 220.783746 
L 230.012371 222.84544 
L 230.009888 224.90147 
L 230.005023 226.952054 
L 229.998899 228.997429 
L 229.992339 231.037839 
L 229.985915 233.073534 
L 229.979994 235.104769 
L 229.974786 237.1318 
L 229.970385 239.154885 
L 229.966799 241.17428 
L 229.963981 243.190241 
L 229.96185 245.203019 
L 229.960308 247.212863 
L 229.959253 249.220018 
L 229.958585 251.224722 
L 229.958214 253.227208 
L 229.958062 255.227701 
L 229.958062 257.22642 
L 229.958163 259.223574 
L 229.958324 261.219365 
L 229.958517 263.213987 
L 229.958721 265.207622 
L 229.958923 267.200444 
L 229.959117 269.192618 
L 229.959299 271.184296 
L 229.959471 273.175623 
L 229.959634 275.16673 
L 229.959794 277.15774 
" clip-path="url(#pd463768fae)" style="fill: none; stroke: #ff0000; stroke-opacity: 0.4; stroke-width: 0.25; stroke-linecap: square"/>
   </g>
   <g id="line2d_78">
    <path d="M 229.991229 216.642587 
L 230.002847 218.716194 
L 230.009992 220.783717 
L 230.011469 222.845343 
L 230.009118 224.901269 
L 230.004397 226.951717 
L 229.998415 228.996921 
L 229.991988 231.037126 
L 229.98568 233.072583 
L 229.979856 235.103547 
L 229.974725 237.130274 
L 229.970381 239.153021 
L 229.966832 241.172046 
L 229.964034 243.187604 
L 229.961909 245.199948 
L 229.960362 247.209326 
L 229.959293 249.215983 
L 229.958605 251.220159 
L 229.958212 253.222086 
L 229.958037 255.22199 
L 229.958017 257.22009 
L 229.958101 259.216598 
L 229.95825 261.211714 
L 229.958435 263.205633 
L 229.958635 265.198539 
L 229.958836 267.190606 
L 229.959031 269.182 
L 229.959215 271.172876 
L 229.959388 273.163377 
L 229.959553 275.153638 
L 229.959714 277.143782 
" clip-path="url(#pd463768fae)" style="fill: none; stroke: #ff0000; stroke-opacity: 0.6; stroke-width: 0.25; stroke-linecap: square"/>
   </g>
   <g id="line2d_79">
    <path d="M 229.991229 216.642587 
L 230.001919 218.716199 
L 230.009135 220.783743 
L 230.010724 222.845412 
L 230.008508 224.901401 
L 230.003925 226.951933 
L 229.998075 228.997241 
L 229.991766 231.03757 
L 229.985558 233.073169 
L 229.979815 235.104294 
L 229.974744 237.1312 
L 229.970441 239.154145 
L 229.966918 241.173384 
L 229.964133 243.189174 
L 229.96201 245.201765 
L 229.960458 247.211407 
L 229.95938 249.218344 
L 229.958682 251.222814 
L 229.958279 253.22505 
L 229.958095 255.225278 
L 229.958069 257.223715 
L 229.958149 259.220572 
L 229.958296 261.216051 
L 229.95848 263.210344 
L 229.958679 265.203635 
L 229.958881 267.196099 
L 229.959075 269.187899 
L 229.95926 271.17919 
L 229.959433 273.170115 
L 229.959599 275.160808 
L 229.95976 277.151391 
" clip-path="url(#pd463768fae)" style="fill: none; stroke: #ff0000; stroke-opacity: 0.8; stroke-width: 0.25; stroke-linecap: square"/>
   </g>
   <g id="line2d_80">
    <path d="M 229.991229 216.642587 
L 230.001099 218.716203 
L 230.008391 220.783734 
L 230.01009 222.845377 
L 230.007998 224.901329 
L 230.003539 226.951812 
L 229.997805 228.997059 
L 229.991594 231.037316 
L 229.985466 233.072834 
L 229.979783 235.103865 
L 229.974755 237.130668 
L 229.970478 239.1535 
L 229.966967 241.172617 
L 229.964184 243.188275 
L 229.962057 245.200726 
L 229.960497 247.21022 
L 229.959408 249.217 
L 229.958699 251.221306 
L 229.958285 253.223371 
L 229.958093 255.22342 
L 229.958059 257.221673 
L 229.958134 259.218339 
L 229.958277 261.213621 
L 229.958458 263.207713 
L 229.958655 265.200797 
L 229.958854 267.193049 
L 229.959047 269.184634 
L 229.959231 271.175705 
L 229.959404 273.166407 
L 229.959569 275.156874 
L 229.95973 277.147229 
" clip-path="url(#pd463768fae)" style="fill: none; stroke: #ff0000; stroke-width: 0.25; stroke-linecap: square"/>
   </g>
   <g id="line2d_81">
    <path d="M 187.931023 168.378284 
L 186.153242 168.360855 
L 184.371667 168.347023 
L 182.58644 168.336675 
L 180.797711 168.32919 
L 179.005634 168.32401 
L 177.210365 168.320647 
L 175.412063 168.318683 
L 173.610886 168.317768 
L 171.806996 168.317612 
L 170.000552 168.317982 
L 168.191713 168.318695 
L 166.380639 168.319608 
L 164.567486 168.320615 
L 162.752407 168.321637 
L 160.935554 168.322622 
L 159.117073 168.323534 
L 157.297109 168.324353 
L 155.4758 168.325069 
L 153.65328 168.32568 
L 151.829681 168.32619 
L 150.005124 168.326607 
L 148.179731 168.326941 
L 146.353613 168.327201 
L 144.52688 168.327399 
L 142.699633 168.327546 
L 140.871969 168.327652 
L 139.043976 168.327726 
L 137.215741 168.327777 
L 135.38734 168.327813 
L 133.558845 168.327856 
" clip-path="url(#pd463768fae)" style="fill: none; stroke: #ff0000; stroke-opacity: 0.2; stroke-width: 0.25; stroke-linecap: square"/>
   </g>
   <g id="line2d_82">
    <path d="M 187.931023 168.378284 
L 186.153238 168.36132 
L 184.371685 168.347465 
L 182.586503 168.337078 
L 180.797843 168.329542 
L 179.005862 168.324303 
L 177.210716 168.320878 
L 175.412564 168.318851 
L 173.611569 168.317875 
L 171.807891 168.317663 
L 170.001692 168.317984 
L 168.193133 168.318654 
L 166.382374 168.319532 
L 164.569573 168.320511 
L 162.754885 168.321515 
L 160.938462 168.322489 
L 159.120452 168.323397 
L 157.301001 168.324217 
L 155.480248 168.32494 
L 153.658329 168.325563 
L 151.835373 168.326087 
L 150.011507 168.32652 
L 148.186848 168.326869 
L 146.361512 168.327146 
L 144.535606 168.327361 
L 142.709231 168.327524 
L 140.882485 168.327648 
L 139.055456 168.327741 
L 137.228227 168.327815 
L 135.400877 168.327879 
L 133.573475 168.327935 
" clip-path="url(#pd463768fae)" style="fill: none; stroke: #ff0000; stroke-opacity: 0.4; stroke-width: 0.25; stroke-linecap: square"/>
   </g>
   <g id="line2d_83">
    <path d="M 187.931023 168.378284 
L 186.153234 168.361687 
L 184.371667 168.347804 
L 182.586454 168.337377 
L 180.797749 168.329795 
L 179.005705 168.32451 
L 177.21048 168.321042 
L 175.412232 168.318976 
L 173.611122 168.317967 
L 171.807312 168.317728 
L 170.000961 168.318029 
L 168.192232 168.318686 
L 166.381283 168.319556 
L 164.568271 168.320533 
L 162.753351 168.321538 
L 160.936675 168.322516 
L 159.118392 168.323429 
L 157.298645 168.324254 
L 155.477574 168.324981 
L 153.655314 168.325606 
L 151.831995 168.32613 
L 150.007743 168.32656 
L 148.182677 168.326906 
L 146.356911 168.327177 
L 144.530553 168.327384 
L 142.703705 168.327539 
L 140.876463 168.327652 
L 139.048918 168.327734 
L 137.221153 168.327795 
L 135.393246 168.327843 
L 133.565268 168.327889 
" clip-path="url(#pd463768fae)" style="fill: none; stroke: #ff0000; stroke-opacity: 0.6; stroke-width: 0.25; stroke-linecap: square"/>
   </g>
   <g id="line2d_84">
    <path d="M 187.931023 168.378284 
L 186.153232 168.361976 
L 184.371674 168.348058 
L 182.586481 168.337591 
L 180.797805 168.329967 
L 179.005801 168.324642 
L 177.210625 168.321136 
L 175.412437 168.319039 
L 173.611397 168.318004 
L 171.807667 168.317744 
L 170.001408 168.31803 
L 168.192781 168.318675 
L 166.381945 168.319539 
L 164.569058 168.320511 
L 162.754274 168.321514 
L 160.937746 168.32249 
L 159.119621 168.323402 
L 157.300044 168.324227 
L 155.479155 168.324954 
L 153.657088 168.325578 
L 151.833975 168.326103 
L 150.009939 168.326535 
L 148.1851 168.326882 
L 146.359572 168.327156 
L 144.533462 168.327368 
L 142.706873 168.327528 
L 140.879901 168.327647 
L 139.052635 168.327737 
L 137.225159 168.327805 
L 135.39755 168.327863 
L 133.569879 168.327916 
" clip-path="url(#pd463768fae)" style="fill: none; stroke: #ff0000; stroke-opacity: 0.8; stroke-width: 0.25; stroke-linecap: square"/>
   </g>
   <g id="line2d_85">
    <path d="M 187.931023 168.378284 
L 186.153229 168.362205 
L 184.371666 168.348255 
L 182.586462 168.337753 
L 180.797768 168.330095 
L 179.00574 168.324739 
L 177.210534 168.321206 
L 175.41231 168.319087 
L 173.611229 168.318035 
L 171.807451 168.317765 
L 170.001138 168.318042 
L 168.19245 168.318683 
L 166.381548 168.319545 
L 164.568588 168.320517 
L 162.753725 168.32152 
L 160.937111 168.322497 
L 159.118895 168.32341 
L 157.299221 168.324236 
L 155.478228 168.324963 
L 153.656052 168.325588 
L 151.832823 168.326113 
L 150.008666 168.326545 
L 148.1837 168.326892 
L 146.35804 168.327165 
L 144.531793 168.327375 
L 142.705061 168.327532 
L 140.877942 168.327649 
L 139.050523 168.327734 
L 137.222891 168.327799 
L 135.395121 168.327851 
L 133.567285 168.3279 
" clip-path="url(#pd463768fae)" style="fill: none; stroke: #ff0000; stroke-width: 0.25; stroke-linecap: square"/>
   </g>
   <g id="line2d_86">
    <path d="M 242.326528 132.379234 
L 242.31032 130.309244 
L 242.301902 128.245131 
L 242.300096 126.186735 
L 242.302765 124.133866 
L 242.308218 122.086312 
L 242.31516 120.043843 
L 242.322643 118.006221 
L 242.330005 115.973203 
L 242.336818 113.944541 
L 242.342833 111.919988 
L 242.347936 109.899294 
L 242.352111 107.882212 
L 242.355405 105.868495 
L 242.357906 103.8579 
L 242.359725 101.850187 
L 242.360974 99.845121 
L 242.361768 97.842471 
L 242.36221 95.842013 
L 242.362392 93.84353 
L 242.36239 91.846812 
L 242.362266 89.851655 
L 242.362068 87.857866 
L 242.361833 85.865258 
L 242.361586 83.873654 
L 242.361342 81.882886 
L 242.36111 79.892794 
L 242.360895 77.903231 
L 242.360696 75.914055 
L 242.36051 73.925139 
L 242.360332 71.936362 
" clip-path="url(#pd463768fae)" style="fill: none; stroke: #ff0000; stroke-opacity: 0.2; stroke-width: 0.25; stroke-linecap: square"/>
   </g>
   <g id="line2d_87">
    <path d="M 242.326528 132.379234 
L 242.311682 130.309234 
L 242.303228 128.245069 
L 242.301317 126.186567 
L 242.303837 124.13354 
L 242.309117 122.085773 
L 242.315878 120.043037 
L 242.323181 118.005094 
L 242.330373 115.9717 
L 242.337031 113.942607 
L 242.342909 111.917567 
L 242.347896 109.896331 
L 242.351974 107.878651 
L 242.355193 105.864279 
L 242.357639 103.852973 
L 242.359419 101.844493 
L 242.360649 99.838603 
L 242.361438 97.835072 
L 242.361888 95.833678 
L 242.362086 93.834202 
L 242.362108 91.836436 
L 242.362011 89.840176 
L 242.361842 87.845229 
L 242.361633 85.851409 
L 242.361409 83.858541 
L 242.361184 81.866458 
L 242.360968 79.875001 
L 242.360763 77.884024 
L 242.36057 75.893389 
L 242.360386 73.902968 
L 242.360206 71.912644 
" clip-path="url(#pd463768fae)" style="fill: none; stroke: #ff0000; stroke-opacity: 0.4; stroke-width: 0.25; stroke-linecap: square"/>
   </g>
   <g id="line2d_88">
    <path d="M 242.326528 132.379234 
L 242.312877 130.309225 
L 242.304363 128.245095 
L 242.302335 126.186663 
L 242.304707 124.133738 
L 242.309825 122.086106 
L 242.316425 120.043537 
L 242.32358 118.005794 
L 242.330641 115.97263 
L 242.33719 113.943798 
L 242.342981 111.91905 
L 242.347904 109.898135 
L 242.35194 107.880804 
L 242.355135 105.866811 
L 242.357575 103.85591 
L 242.359362 101.847862 
L 242.360608 99.84243 
L 242.361419 97.839384 
L 242.361894 95.838498 
L 242.362118 93.839555 
L 242.362162 91.842343 
L 242.362083 89.846661 
L 242.361927 87.852313 
L 242.361728 85.859113 
L 242.361508 83.866883 
L 242.361285 81.875457 
L 242.361068 79.884675 
L 242.360861 77.894388 
L 242.360665 75.904459 
L 242.360477 73.914758 
L 242.360295 71.925168 
" clip-path="url(#pd463768fae)" style="fill: none; stroke: #ff0000; stroke-opacity: 0.6; stroke-width: 0.25; stroke-linecap: square"/>
   </g>
   <g id="line2d_89">
    <path d="M 242.326528 132.379234 
L 242.313926 130.309219 
L 242.305332 128.245069 
L 242.303176 126.186595 
L 242.305397 124.13361 
L 242.310358 122.085898 
L 242.31681 120.043232 
L 242.323831 118.005372 
L 242.330779 115.972075 
L 242.337237 113.943094 
L 242.342961 111.91818 
L 242.347836 109.897083 
L 242.351843 107.879556 
L 242.355024 105.865352 
L 242.35746 103.854228 
L 242.359253 101.845942 
L 242.360508 99.84026 
L 242.361331 97.836951 
L 242.361817 95.835792 
L 242.362051 93.836564 
L 242.362102 91.839058 
L 242.362028 89.843072 
L 242.361875 87.84841 
L 242.361677 85.854888 
L 242.361458 83.86233 
L 242.361234 81.870567 
L 242.361017 79.879442 
L 242.360809 77.888807 
L 242.360613 75.898524 
L 242.360425 73.908464 
L 242.360242 71.918511 
" clip-path="url(#pd463768fae)" style="fill: none; stroke: #ff0000; stroke-opacity: 0.8; stroke-width: 0.25; stroke-linecap: square"/>
   </g>
   <g id="line2d_90">
    <path d="M 242.326528 132.379234 
L 242.314852 130.309213 
L 242.306172 128.245075 
L 242.303892 126.186625 
L 242.305972 124.133674 
L 242.310794 122.086007 
L 242.317116 120.043395 
L 242.324026 118.0056 
L 242.330885 115.972377 
L 242.337275 113.94348 
L 242.34295 111.918658 
L 242.347796 109.897662 
L 242.351789 107.880243 
L 242.354967 105.866155 
L 242.357409 103.855154 
L 242.359211 101.846998 
L 242.360478 99.841452 
L 242.361314 97.838285 
L 242.361811 95.837274 
L 242.362054 93.838199 
L 242.362113 91.840851 
L 242.362045 89.845026 
L 242.361897 87.850531 
L 242.361702 85.857179 
L 242.361486 83.864793 
L 242.361264 81.873206 
L 242.361048 79.88226 
L 242.360842 77.891806 
L 242.360646 75.901706 
L 242.360459 73.911831 
L 242.360277 71.922064 
" clip-path="url(#pd463768fae)" style="fill: none; stroke: #ff0000; stroke-width: 0.25; stroke-linecap: square"/>
   </g>
   <g id="patch_15">
    <path d="M 103.104 307.584 
L 103.104 41.472 
" style="fill: none; stroke: #000000; stroke-width: 0.8; stroke-linejoin: miter; stroke-linecap: square"/>
   </g>
   <g id="patch_16">
    <path d="M 369.216 307.584 
L 369.216 41.472 
" style="fill: none; stroke: #000000; stroke-width: 0.8; stroke-linejoin: miter; stroke-linecap: square"/>
   </g>
   <g id="patch_17">
    <path d="M 103.104 307.584 
L 369.216 307.584 
" style="fill: none; stroke: #000000; stroke-width: 0.8; stroke-linejoin: miter; stroke-linecap: square"/>
   </g>
   <g id="patch_18">
    <path d="M 103.104 41.472 
L 369.216 41.472 
" style="fill: none; stroke: #000000; stroke-width: 0.8; stroke-linejoin: miter; stroke-linecap: square"/>
   </g>
   <g id="text_19">
    <!-- Time:  90 ms -->
    <g transform="translate(264.253887 54.7776) scale(0.1 -0.1)">
     <defs>
      <path id="DejaVuSans-54" d="M -19 4666 
L 3928 4666 
L 3928 4134 
L 2272 4134 
L 2272 0 
L 1638 0 
L 1638 4134 
L -19 4134 
L -19 4666 
z
" transform="scale(0.015625)"/>
      <path id="DejaVuSans-69" d="M 603 3500 
L 1178 3500 
L 1178 0 
L 603 0 
L 603 3500 
z
M 603 4863 
L 1178 4863 
L 1178 4134 
L 603 4134 
L 603 4863 
z
" transform="scale(0.015625)"/>
      <path id="DejaVuSans-6d" d="M 3328 2828 
Q 3544 3216 3844 3400 
Q 4144 3584 4550 3584 
Q 5097 3584 5394 3201 
Q 5691 2819 5691 2113 
L 5691 0 
L 5113 0 
L 5113 2094 
Q 5113 2597 4934 2840 
Q 4756 3084 4391 3084 
Q 3944 3084 3684 2787 
Q 3425 2491 3425 1978 
L 3425 0 
L 2847 0 
L 2847 2094 
Q 2847 2600 2669 2842 
Q 2491 3084 2119 3084 
Q 1678 3084 1418 2786 
Q 1159 2488 1159 1978 
L 1159 0 
L 581 0 
L 581 3500 
L 1159 3500 
L 1159 2956 
Q 1356 3278 1631 3431 
Q 1906 3584 2284 3584 
Q 2666 3584 2933 3390 
Q 3200 3197 3328 2828 
z
" transform="scale(0.015625)"/>
      <path id="DejaVuSans-65" d="M 3597 1894 
L 3597 1613 
L 953 1613 
Q 991 1019 1311 708 
Q 1631 397 2203 397 
Q 2534 397 2845 478 
Q 3156 559 3463 722 
L 3463 178 
Q 3153 47 2828 -22 
Q 2503 -91 2169 -91 
Q 1331 -91 842 396 
Q 353 884 353 1716 
Q 353 2575 817 3079 
Q 1281 3584 2069 3584 
Q 2775 3584 3186 3129 
Q 3597 2675 3597 1894 
z
M 3022 2063 
Q 3016 2534 2758 2815 
Q 2500 3097 2075 3097 
Q 1594 3097 1305 2825 
Q 1016 2553 972 2059 
L 3022 2063 
z
" transform="scale(0.015625)"/>
      <path id="DejaVuSans-3a" d="M 750 794 
L 1409 794 
L 1409 0 
L 750 0 
L 750 794 
z
M 750 3309 
L 1409 3309 
L 1409 2516 
L 750 2516 
L 750 3309 
z
" transform="scale(0.015625)"/>
      <path id="DejaVuSans-20" transform="scale(0.015625)"/>
      <path id="DejaVuSans-39" d="M 703 97 
L 703 672 
Q 941 559 1184 500 
Q 1428 441 1663 441 
Q 2288 441 2617 861 
Q 2947 1281 2994 2138 
Q 2813 1869 2534 1725 
Q 2256 1581 1919 1581 
Q 1219 1581 811 2004 
Q 403 2428 403 3163 
Q 403 3881 828 4315 
Q 1253 4750 1959 4750 
Q 2769 4750 3195 4129 
Q 3622 3509 3622 2328 
Q 3622 1225 3098 567 
Q 2575 -91 1691 -91 
Q 1453 -91 1209 -44 
Q 966 3 703 97 
z
M 1959 2075 
Q 2384 2075 2632 2365 
Q 2881 2656 2881 3163 
Q 2881 3666 2632 3958 
Q 2384 4250 1959 4250 
Q 1534 4250 1286 3958 
Q 1038 3666 1038 3163 
Q 1038 2656 1286 2365 
Q 1534 2075 1959 2075 
z
" transform="scale(0.015625)"/>
      <path id="DejaVuSans-73" d="M 2834 3397 
L 2834 2853 
Q 2591 2978 2328 3040 
Q 2066 3103 1784 3103 
Q 1356 3103 1142 2972 
Q 928 2841 928 2578 
Q 928 2378 1081 2264 
Q 1234 2150 1697 2047 
L 1894 2003 
Q 2506 1872 2764 1633 
Q 3022 1394 3022 966 
Q 3022 478 2636 193 
Q 2250 -91 1575 -91 
Q 1294 -91 989 -36 
Q 684 19 347 128 
L 347 722 
Q 666 556 975 473 
Q 1284 391 1588 391 
Q 1994 391 2212 530 
Q 2431 669 2431 922 
Q 2431 1156 2273 1281 
Q 2116 1406 1581 1522 
L 1381 1569 
Q 847 1681 609 1914 
Q 372 2147 372 2553 
Q 372 3047 722 3315 
Q 1072 3584 1716 3584 
Q 2034 3584 2315 3537 
Q 2597 3491 2834 3397 
z
" transform="scale(0.015625)"/>
     </defs>
     <use xlink:href="#DejaVuSans-54"/>
     <use xlink:href="#DejaVuSans-69" x="57.958984"/>
     <use xlink:href="#DejaVuSans-6d" x="85.742188"/>
     <use xlink:href="#DejaVuSans-65" x="183.154297"/>
     <use xlink:href="#DejaVuSans-3a" x="244.677734"/>
     <use xlink:href="#DejaVuSans-20" x="278.369141"/>
     <use xlink:href="#DejaVuSans-20" x="310.15625"/>
     <use xlink:href="#DejaVuSans-39" x="341.943359"/>
     <use xlink:href="#DejaVuSans-30" x="405.566406"/>
     <use xlink:href="#DejaVuSans-20" x="469.189453"/>
     <use xlink:href="#DejaVuSans-6d" x="500.976562"/>
     <use xlink:href="#DejaVuSans-73" x="598.388672"/>
    </g>
   </g>
  </g>
 </g>
 <defs>
  <clipPath id="pd463768fae">
   <rect x="103.104" y="41.472" width="266.112" height="266.112"/>
  </clipPath>
 </defs>
</svg>
