<?xml version="1.0" encoding="utf-8" standalone="no"?>
<!DOCTYPE svg PUBLIC "-//W3C//DTD SVG 1.1//EN"
  "http://www.w3.org/Graphics/SVG/1.1/DTD/svg11.dtd">
<svg xmlns:xlink="http://www.w3.org/1999/xlink" width="460.8pt" height="345.6pt" viewBox="0 0 460.8 345.6" xmlns="http://www.w3.org/2000/svg" version="1.1">
 <metadata>
  <rdf:RDF xmlns:dc="http://purl.org/dc/elements/1.1/" xmlns:cc="http://creativecommons.org/ns#" xmlns:rdf="http://www.w3.org/1999/02/22-rdf-syntax-ns#">
   <cc:Work>
    <dc:type rdf:resource="http://purl.org/dc/dcmitype/StillImage"/>
    <dc:date>2024-01-23T15:52:34.016416</dc:date>
    <dc:format>image/svg+xml</dc:format>
    <dc:creator>
     <cc:Agent>
      <dc:title>Matplotlib v3.8.2, https://matplotlib.org/</dc:title>
     </cc:Agent>
    </dc:creator>
   </cc:Work>
  </rdf:RDF>
 </metadata>
 <defs>
  <style type="text/css">*{stroke-linejoin: round; stroke-linecap: butt}</style>
 </defs>
 <g id="figure_1">
  <g id="patch_1">
   <path d="M 0 345.6 
L 460.8 345.6 
L 460.8 0 
L 0 0 
z
" style="fill: #ffffff"/>
  </g>
  <g id="axes_1">
   <g id="patch_2">
    <path d="M 103.104 307.584 
L 369.216 307.584 
L 369.216 41.472 
L 103.104 41.472 
z
" style="fill: #ffffff"/>
   </g>
   <g id="patch_3">
    <path d="M 123.270393 166.189195 
L 111.627993 166.189198 
L 111.627994 171.844078 
L 123.270394 171.844075 
z
" clip-path="url(#pa6dcfa01c7)" style="fill: #00008b"/>
   </g>
   <g id="patch_4">
    <path d="M 244.498799 56.892079 
L 244.498797 45.249679 
L 238.843917 45.24968 
L 238.843919 56.89208 
z
" clip-path="url(#pa6dcfa01c7)" style="fill: #800000"/>
   </g>
   <g id="patch_5">
    <path d="M 227.821198 287.57058 
L 227.8212 299.21298 
L 233.47608 299.212979 
L 233.476078 287.570579 
z
" clip-path="url(#pa6dcfa01c7)" style="fill: #006400"/>
   </g>
   <g id="patch_6">
    <path d="M 349.202578 182.866803 
L 360.844978 182.866801 
L 360.844977 177.211921 
L 349.202577 177.211923 
z
" clip-path="url(#pa6dcfa01c7)" style="fill: #4b0082"/>
   </g>
   <g id="patch_7">
    <path d="M 244.498795 94.710605 
L 244.49887 83.068205 
L 238.84399 83.068168 
L 238.843915 94.710568 
z
" clip-path="url(#pa6dcfa01c7)" style="fill: #0000ff"/>
   </g>
   <g id="patch_8">
    <path d="M 156.308378 166.189199 
L 144.665978 166.189171 
L 144.665964 171.844051 
L 156.308364 171.844079 
z
" clip-path="url(#pa6dcfa01c7)" style="fill: #ff0000"/>
   </g>
   <g id="patch_9">
    <path d="M 315.397606 182.866786 
L 327.040006 182.866853 
L 327.040038 177.211973 
L 315.397638 177.211906 
z
" clip-path="url(#pa6dcfa01c7)" style="fill: #dbdc56"/>
   </g>
   <g id="patch_10">
    <path d="M 244.498645 118.633577 
L 244.498619 106.991177 
L 238.843739 106.991189 
L 238.843765 118.633589 
z
" clip-path="url(#pa6dcfa01c7)" style="fill: #9400d3"/>
   </g>
   <g id="patch_11">
    <path d="M 287.372615 182.86549 
L 299.015014 182.87094 
L 299.017661 177.216061 
L 287.375262 177.210611 
z
" clip-path="url(#pa6dcfa01c7)" style="fill: #1e90ff"/>
   </g>
   <g id="patch_12">
    <path d="M 227.823108 245.181789 
L 227.819949 256.824189 
L 233.474829 256.825723 
L 233.477988 245.183323 
z
" clip-path="url(#pa6dcfa01c7)" style="fill: #ff4500"/>
   </g>
   <g id="patch_13">
    <path d="M 184.950459 166.191605 
L 173.308062 166.182304 
L 173.303545 171.837182 
L 184.945941 171.846483 
z
" clip-path="url(#pa6dcfa01c7)" style="fill: #7cfc00"/>
   </g>
   <g id="patch_14">
    <path d="M 227.820522 225.653742 
L 227.811586 237.296139 
L 233.466464 237.300479 
L 233.4754 225.658083 
z
" clip-path="url(#pa6dcfa01c7)" style="fill: #ff00ff"/>
   </g>
   <g id="matplotlib.axis_1">
    <g id="xtick_1">
     <g id="line2d_1">
      <defs>
       <path id="m37eb2b2ad2" d="M 0 0 
L 0 3.5 
" style="stroke: #000000; stroke-width: 0.8"/>
      </defs>
      <g>
       <use xlink:href="#m37eb2b2ad2" x="103.104" y="307.584" style="stroke: #000000; stroke-width: 0.8"/>
      </g>
     </g>
     <g id="text_1">
      <!-- −40 -->
      <g transform="translate(92.551656 322.182437) scale(0.1 -0.1)">
       <defs>
        <path id="DejaVuSans-2212" d="M 678 2272 
L 4684 2272 
L 4684 1741 
L 678 1741 
L 678 2272 
z
" transform="scale(0.015625)"/>
        <path id="DejaVuSans-34" d="M 2419 4116 
L 825 1625 
L 2419 1625 
L 2419 4116 
z
M 2253 4666 
L 3047 4666 
L 3047 1625 
L 3713 1625 
L 3713 1100 
L 3047 1100 
L 3047 0 
L 2419 0 
L 2419 1100 
L 313 1100 
L 313 1709 
L 2253 4666 
z
" transform="scale(0.015625)"/>
        <path id="DejaVuSans-30" d="M 2034 4250 
Q 1547 4250 1301 3770 
Q 1056 3291 1056 2328 
Q 1056 1369 1301 889 
Q 1547 409 2034 409 
Q 2525 409 2770 889 
Q 3016 1369 3016 2328 
Q 3016 3291 2770 3770 
Q 2525 4250 2034 4250 
z
M 2034 4750 
Q 2819 4750 3233 4129 
Q 3647 3509 3647 2328 
Q 3647 1150 3233 529 
Q 2819 -91 2034 -91 
Q 1250 -91 836 529 
Q 422 1150 422 2328 
Q 422 3509 836 4129 
Q 1250 4750 2034 4750 
z
" transform="scale(0.015625)"/>
       </defs>
       <use xlink:href="#DejaVuSans-2212"/>
       <use xlink:href="#DejaVuSans-34" x="83.789062"/>
       <use xlink:href="#DejaVuSans-30" x="147.412109"/>
      </g>
     </g>
    </g>
    <g id="xtick_2">
     <g id="line2d_2">
      <g>
       <use xlink:href="#m37eb2b2ad2" x="136.368" y="307.584" style="stroke: #000000; stroke-width: 0.8"/>
      </g>
     </g>
     <g id="text_2">
      <!-- −30 -->
      <g transform="translate(125.815656 322.182437) scale(0.1 -0.1)">
       <defs>
        <path id="DejaVuSans-33" d="M 2597 2516 
Q 3050 2419 3304 2112 
Q 3559 1806 3559 1356 
Q 3559 666 3084 287 
Q 2609 -91 1734 -91 
Q 1441 -91 1130 -33 
Q 819 25 488 141 
L 488 750 
Q 750 597 1062 519 
Q 1375 441 1716 441 
Q 2309 441 2620 675 
Q 2931 909 2931 1356 
Q 2931 1769 2642 2001 
Q 2353 2234 1838 2234 
L 1294 2234 
L 1294 2753 
L 1863 2753 
Q 2328 2753 2575 2939 
Q 2822 3125 2822 3475 
Q 2822 3834 2567 4026 
Q 2313 4219 1838 4219 
Q 1578 4219 1281 4162 
Q 984 4106 628 3988 
L 628 4550 
Q 988 4650 1302 4700 
Q 1616 4750 1894 4750 
Q 2613 4750 3031 4423 
Q 3450 4097 3450 3541 
Q 3450 3153 3228 2886 
Q 3006 2619 2597 2516 
z
" transform="scale(0.015625)"/>
       </defs>
       <use xlink:href="#DejaVuSans-2212"/>
       <use xlink:href="#DejaVuSans-33" x="83.789062"/>
       <use xlink:href="#DejaVuSans-30" x="147.412109"/>
      </g>
     </g>
    </g>
    <g id="xtick_3">
     <g id="line2d_3">
      <g>
       <use xlink:href="#m37eb2b2ad2" x="169.632" y="307.584" style="stroke: #000000; stroke-width: 0.8"/>
      </g>
     </g>
     <g id="text_3">
      <!-- −20 -->
      <g transform="translate(159.079656 322.182437) scale(0.1 -0.1)">
       <defs>
        <path id="DejaVuSans-32" d="M 1228 531 
L 3431 531 
L 3431 0 
L 469 0 
L 469 531 
Q 828 903 1448 1529 
Q 2069 2156 2228 2338 
Q 2531 2678 2651 2914 
Q 2772 3150 2772 3378 
Q 2772 3750 2511 3984 
Q 2250 4219 1831 4219 
Q 1534 4219 1204 4116 
Q 875 4013 500 3803 
L 500 4441 
Q 881 4594 1212 4672 
Q 1544 4750 1819 4750 
Q 2544 4750 2975 4387 
Q 3406 4025 3406 3419 
Q 3406 3131 3298 2873 
Q 3191 2616 2906 2266 
Q 2828 2175 2409 1742 
Q 1991 1309 1228 531 
z
" transform="scale(0.015625)"/>
       </defs>
       <use xlink:href="#DejaVuSans-2212"/>
       <use xlink:href="#DejaVuSans-32" x="83.789062"/>
       <use xlink:href="#DejaVuSans-30" x="147.412109"/>
      </g>
     </g>
    </g>
    <g id="xtick_4">
     <g id="line2d_4">
      <g>
       <use xlink:href="#m37eb2b2ad2" x="202.896" y="307.584" style="stroke: #000000; stroke-width: 0.8"/>
      </g>
     </g>
     <g id="text_4">
      <!-- −10 -->
      <g transform="translate(192.343656 322.182437) scale(0.1 -0.1)">
       <defs>
        <path id="DejaVuSans-31" d="M 794 531 
L 1825 531 
L 1825 4091 
L 703 3866 
L 703 4441 
L 1819 4666 
L 2450 4666 
L 2450 531 
L 3481 531 
L 3481 0 
L 794 0 
L 794 531 
z
" transform="scale(0.015625)"/>
       </defs>
       <use xlink:href="#DejaVuSans-2212"/>
       <use xlink:href="#DejaVuSans-31" x="83.789062"/>
       <use xlink:href="#DejaVuSans-30" x="147.412109"/>
      </g>
     </g>
    </g>
    <g id="xtick_5">
     <g id="line2d_5">
      <g>
       <use xlink:href="#m37eb2b2ad2" x="236.16" y="307.584" style="stroke: #000000; stroke-width: 0.8"/>
      </g>
     </g>
     <g id="text_5">
      <!-- 0 -->
      <g transform="translate(232.97875 322.182437) scale(0.1 -0.1)">
       <use xlink:href="#DejaVuSans-30"/>
      </g>
     </g>
    </g>
    <g id="xtick_6">
     <g id="line2d_6">
      <g>
       <use xlink:href="#m37eb2b2ad2" x="269.424" y="307.584" style="stroke: #000000; stroke-width: 0.8"/>
      </g>
     </g>
     <g id="text_6">
      <!-- 10 -->
      <g transform="translate(263.0615 322.182437) scale(0.1 -0.1)">
       <use xlink:href="#DejaVuSans-31"/>
       <use xlink:href="#DejaVuSans-30" x="63.623047"/>
      </g>
     </g>
    </g>
    <g id="xtick_7">
     <g id="line2d_7">
      <g>
       <use xlink:href="#m37eb2b2ad2" x="302.688" y="307.584" style="stroke: #000000; stroke-width: 0.8"/>
      </g>
     </g>
     <g id="text_7">
      <!-- 20 -->
      <g transform="translate(296.3255 322.182437) scale(0.1 -0.1)">
       <use xlink:href="#DejaVuSans-32"/>
       <use xlink:href="#DejaVuSans-30" x="63.623047"/>
      </g>
     </g>
    </g>
    <g id="xtick_8">
     <g id="line2d_8">
      <g>
       <use xlink:href="#m37eb2b2ad2" x="335.952" y="307.584" style="stroke: #000000; stroke-width: 0.8"/>
      </g>
     </g>
     <g id="text_8">
      <!-- 30 -->
      <g transform="translate(329.5895 322.182437) scale(0.1 -0.1)">
       <use xlink:href="#DejaVuSans-33"/>
       <use xlink:href="#DejaVuSans-30" x="63.623047"/>
      </g>
     </g>
    </g>
    <g id="xtick_9">
     <g id="line2d_9">
      <g>
       <use xlink:href="#m37eb2b2ad2" x="369.216" y="307.584" style="stroke: #000000; stroke-width: 0.8"/>
      </g>
     </g>
     <g id="text_9">
      <!-- 40 -->
      <g transform="translate(362.8535 322.182437) scale(0.1 -0.1)">
       <use xlink:href="#DejaVuSans-34"/>
       <use xlink:href="#DejaVuSans-30" x="63.623047"/>
      </g>
     </g>
    </g>
   </g>
   <g id="matplotlib.axis_2">
    <g id="ytick_1">
     <g id="line2d_10">
      <defs>
       <path id="m53e6ec8569" d="M 0 0 
L -3.5 0 
" style="stroke: #000000; stroke-width: 0.8"/>
      </defs>
      <g>
       <use xlink:href="#m53e6ec8569" x="103.104" y="307.584" style="stroke: #000000; stroke-width: 0.8"/>
      </g>
     </g>
     <g id="text_10">
      <!-- −40 -->
      <g transform="translate(74.999313 311.383219) scale(0.1 -0.1)">
       <use xlink:href="#DejaVuSans-2212"/>
       <use xlink:href="#DejaVuSans-34" x="83.789062"/>
       <use xlink:href="#DejaVuSans-30" x="147.412109"/>
      </g>
     </g>
    </g>
    <g id="ytick_2">
     <g id="line2d_11">
      <g>
       <use xlink:href="#m53e6ec8569" x="103.104" y="274.32" style="stroke: #000000; stroke-width: 0.8"/>
      </g>
     </g>
     <g id="text_11">
      <!-- −30 -->
      <g transform="translate(74.999313 278.119219) scale(0.1 -0.1)">
       <use xlink:href="#DejaVuSans-2212"/>
       <use xlink:href="#DejaVuSans-33" x="83.789062"/>
       <use xlink:href="#DejaVuSans-30" x="147.412109"/>
      </g>
     </g>
    </g>
    <g id="ytick_3">
     <g id="line2d_12">
      <g>
       <use xlink:href="#m53e6ec8569" x="103.104" y="241.056" style="stroke: #000000; stroke-width: 0.8"/>
      </g>
     </g>
     <g id="text_12">
      <!-- −20 -->
      <g transform="translate(74.999313 244.855219) scale(0.1 -0.1)">
       <use xlink:href="#DejaVuSans-2212"/>
       <use xlink:href="#DejaVuSans-32" x="83.789062"/>
       <use xlink:href="#DejaVuSans-30" x="147.412109"/>
      </g>
     </g>
    </g>
    <g id="ytick_4">
     <g id="line2d_13">
      <g>
       <use xlink:href="#m53e6ec8569" x="103.104" y="207.792" style="stroke: #000000; stroke-width: 0.8"/>
      </g>
     </g>
     <g id="text_13">
      <!-- −10 -->
      <g transform="translate(74.999313 211.591219) scale(0.1 -0.1)">
       <use xlink:href="#DejaVuSans-2212"/>
       <use xlink:href="#DejaVuSans-31" x="83.789062"/>
       <use xlink:href="#DejaVuSans-30" x="147.412109"/>
      </g>
     </g>
    </g>
    <g id="ytick_5">
     <g id="line2d_14">
      <g>
       <use xlink:href="#m53e6ec8569" x="103.104" y="174.528" style="stroke: #000000; stroke-width: 0.8"/>
      </g>
     </g>
     <g id="text_14">
      <!-- 0 -->
      <g transform="translate(89.7415 178.327219) scale(0.1 -0.1)">
       <use xlink:href="#DejaVuSans-30"/>
      </g>
     </g>
    </g>
    <g id="ytick_6">
     <g id="line2d_15">
      <g>
       <use xlink:href="#m53e6ec8569" x="103.104" y="141.264" style="stroke: #000000; stroke-width: 0.8"/>
      </g>
     </g>
     <g id="text_15">
      <!-- 10 -->
      <g transform="translate(83.379 145.063219) scale(0.1 -0.1)">
       <use xlink:href="#DejaVuSans-31"/>
       <use xlink:href="#DejaVuSans-30" x="63.623047"/>
      </g>
     </g>
    </g>
    <g id="ytick_7">
     <g id="line2d_16">
      <g>
       <use xlink:href="#m53e6ec8569" x="103.104" y="108" style="stroke: #000000; stroke-width: 0.8"/>
      </g>
     </g>
     <g id="text_16">
      <!-- 20 -->
      <g transform="translate(83.379 111.799219) scale(0.1 -0.1)">
       <use xlink:href="#DejaVuSans-32"/>
       <use xlink:href="#DejaVuSans-30" x="63.623047"/>
      </g>
     </g>
    </g>
    <g id="ytick_8">
     <g id="line2d_17">
      <g>
       <use xlink:href="#m53e6ec8569" x="103.104" y="74.736" style="stroke: #000000; stroke-width: 0.8"/>
      </g>
     </g>
     <g id="text_17">
      <!-- 30 -->
      <g transform="translate(83.379 78.535219) scale(0.1 -0.1)">
       <use xlink:href="#DejaVuSans-33"/>
       <use xlink:href="#DejaVuSans-30" x="63.623047"/>
      </g>
     </g>
    </g>
    <g id="ytick_9">
     <g id="line2d_18">
      <g>
       <use xlink:href="#m53e6ec8569" x="103.104" y="41.472" style="stroke: #000000; stroke-width: 0.8"/>
      </g>
     </g>
     <g id="text_18">
      <!-- 40 -->
      <g transform="translate(83.379 45.271219) scale(0.1 -0.1)">
       <use xlink:href="#DejaVuSans-34"/>
       <use xlink:href="#DejaVuSans-30" x="63.623047"/>
      </g>
     </g>
    </g>
   </g>
   <g id="line2d_19">
    <path d="M 249.4656 287.6256 
L 249.4656 187.8336 
" clip-path="url(#pa6dcfa01c7)" style="fill: none; stroke: #000000; stroke-width: 0.25; stroke-linecap: square"/>
   </g>
   <g id="line2d_20">
    <path d="M 249.4656 187.8336 
L 349.2576 187.8336 
" clip-path="url(#pa6dcfa01c7)" style="fill: none; stroke: #000000; stroke-width: 0.25; stroke-linecap: square"/>
   </g>
   <g id="line2d_21">
    <path d="M 349.2576 161.2224 
L 249.4656 161.2224 
" clip-path="url(#pa6dcfa01c7)" style="fill: none; stroke: #000000; stroke-width: 0.25; stroke-linecap: square"/>
   </g>
   <g id="line2d_22">
    <path d="M 249.4656 161.2224 
L 249.4656 61.4304 
" clip-path="url(#pa6dcfa01c7)" style="fill: none; stroke: #000000; stroke-width: 0.25; stroke-linecap: square"/>
   </g>
   <g id="line2d_23">
    <path d="M 222.8544 61.4304 
L 222.8544 161.2224 
" clip-path="url(#pa6dcfa01c7)" style="fill: none; stroke: #000000; stroke-width: 0.25; stroke-linecap: square"/>
   </g>
   <g id="line2d_24">
    <path d="M 222.8544 161.2224 
L 123.0624 161.2224 
" clip-path="url(#pa6dcfa01c7)" style="fill: none; stroke: #000000; stroke-width: 0.25; stroke-linecap: square"/>
   </g>
   <g id="line2d_25">
    <path d="M 123.0624 187.8336 
L 222.8544 187.8336 
" clip-path="url(#pa6dcfa01c7)" style="fill: none; stroke: #000000; stroke-width: 0.25; stroke-linecap: square"/>
   </g>
   <g id="line2d_26">
    <path d="M 222.8544 187.8336 
L 222.8544 287.6256 
" clip-path="url(#pa6dcfa01c7)" style="fill: none; stroke: #000000; stroke-width: 0.25; stroke-linecap: square"/>
   </g>
   <g id="line2d_27">
    <path d="M 249.4656 174.528 
L 349.2576 174.528 
" clip-path="url(#pa6dcfa01c7)" style="fill: none; stroke-dasharray: 0.925,0.4; stroke-dashoffset: 0; stroke: #000000; stroke-width: 0.25"/>
   </g>
   <g id="line2d_28">
    <path d="M 236.16 161.2224 
L 236.16 61.4304 
" clip-path="url(#pa6dcfa01c7)" style="fill: none; stroke-dasharray: 0.925,0.4; stroke-dashoffset: 0; stroke: #000000; stroke-width: 0.25"/>
   </g>
   <g id="line2d_29">
    <path d="M 222.8544 174.528 
L 123.0624 174.528 
" clip-path="url(#pa6dcfa01c7)" style="fill: none; stroke-dasharray: 0.925,0.4; stroke-dashoffset: 0; stroke: #000000; stroke-width: 0.25"/>
   </g>
   <g id="line2d_30">
    <path d="M 236.16 187.8336 
L 236.16 287.6256 
" clip-path="url(#pa6dcfa01c7)" style="fill: none; stroke-dasharray: 0.925,0.4; stroke-dashoffset: 0; stroke: #000000; stroke-width: 0.25"/>
   </g>
   <g id="line2d_31">
    <path d="M 118.977049 169.016636 
L 117.449193 169.016637 
L 115.921377 169.016638 
L 114.393597 169.016639 
L 112.86585 169.016639 
L 111.338132 169.01664 
L 109.81044 169.01664 
L 108.282771 169.01664 
L 106.755123 169.01664 
L 105.227492 169.016641 
L 103.699876 169.016641 
L 102.172272 169.016641 
L 100.64468 169.016641 
L 99.117096 169.016641 
L 97.58952 169.016641 
L 96.061949 169.01664 
L 94.534383 169.01664 
L 93.00682 169.01664 
L 91.47926 169.01664 
L 89.951701 169.01664 
L 88.424143 169.01664 
L 86.896586 169.01664 
L 85.369029 169.01664 
L 83.841472 169.01664 
L 82.313915 169.01664 
L 80.786357 169.01664 
L 79.258799 169.01664 
L 77.73124 169.01664 
L 76.203681 169.01664 
L 74.676122 169.01664 
L 73.148562 169.01664 
" clip-path="url(#pa6dcfa01c7)" style="fill: none; stroke: #ff0000; stroke-opacity: 0.25; stroke-width: 0.25; stroke-linecap: square"/>
   </g>
   <g id="line2d_32">
    <path d="M 118.977049 169.016636 
L 117.449193 169.016637 
L 115.921377 169.016638 
L 114.393598 169.016638 
L 112.86585 169.016639 
L 111.338133 169.01664 
L 109.810441 169.01664 
L 108.282772 169.01664 
L 106.755124 169.01664 
L 105.227493 169.016641 
L 103.699878 169.016641 
L 102.172275 169.016641 
L 100.644683 169.016641 
L 99.1171 169.016641 
L 97.589525 169.016641 
L 96.061955 169.016641 
L 94.53439 169.01664 
L 93.006829 169.01664 
L 91.47927 169.01664 
L 89.951713 169.01664 
L 88.424157 169.01664 
L 86.896602 169.01664 
L 85.369047 169.01664 
L 83.841493 169.01664 
L 82.313938 169.01664 
L 80.786383 169.01664 
L 79.258828 169.01664 
L 77.731272 169.01664 
L 76.203716 169.01664 
L 74.67616 169.01664 
L 73.148604 169.01664 
" clip-path="url(#pa6dcfa01c7)" style="fill: none; stroke: #ff0000; stroke-opacity: 0.5; stroke-width: 0.25; stroke-linecap: square"/>
   </g>
   <g id="line2d_33">
    <path d="M 118.977049 169.016636 
L 117.449193 169.016636 
L 115.921377 169.016637 
L 114.393597 169.016638 
L 112.86585 169.016639 
L 111.338132 169.01664 
L 109.81044 169.01664 
L 108.282772 169.01664 
L 106.755123 169.01664 
L 105.227492 169.016641 
L 103.699876 169.016641 
L 102.172273 169.016641 
L 100.644681 169.016641 
L 99.117097 169.016641 
L 97.589521 169.016641 
L 96.061951 169.016641 
L 94.534385 169.01664 
L 93.006823 169.01664 
L 91.479263 169.01664 
L 89.951705 169.01664 
L 88.424148 169.01664 
L 86.896592 169.01664 
L 85.369036 169.01664 
L 83.84148 169.01664 
L 82.313924 169.01664 
L 80.786367 169.01664 
L 79.25881 169.01664 
L 77.731253 169.01664 
L 76.203696 169.01664 
L 74.676138 169.01664 
L 73.14858 169.01664 
" clip-path="url(#pa6dcfa01c7)" style="fill: none; stroke: #ff0000; stroke-opacity: 0.75; stroke-width: 0.25; stroke-linecap: square"/>
   </g>
   <g id="line2d_34">
    <path d="M 118.977049 169.016636 
L 117.449193 169.016636 
L 115.921377 169.016637 
L 114.393598 169.016638 
L 112.86585 169.016639 
L 111.338132 169.01664 
L 109.810441 169.01664 
L 108.282772 169.01664 
L 106.755124 169.01664 
L 105.227493 169.016641 
L 103.699877 169.016641 
L 102.172274 169.016641 
L 100.644682 169.016641 
L 99.117099 169.016641 
L 97.589524 169.016641 
L 96.061954 169.016641 
L 94.534388 169.01664 
L 93.006827 169.01664 
L 91.479267 169.01664 
L 89.95171 169.01664 
L 88.424154 169.01664 
L 86.896598 169.01664 
L 85.369043 169.01664 
L 83.841488 169.01664 
L 82.313932 169.01664 
L 80.786377 169.01664 
L 79.258821 169.01664 
L 77.731264 169.01664 
L 76.203708 169.01664 
L 74.676151 169.01664 
L 73.148594 169.01664 
" clip-path="url(#pa6dcfa01c7)" style="fill: none; stroke: #ff0000; stroke-width: 0.25; stroke-linecap: square"/>
   </g>
   <g id="line2d_35">
    <path d="M 241.671358 52.482863 
L 241.671358 51.07088 
L 241.671359 49.658885 
L 241.671359 48.246877 
L 241.671359 46.834855 
L 241.671359 45.422821 
L 241.67136 44.010772 
L 241.67136 42.598711 
L 241.67136 41.186638 
L 241.67136 39.774552 
L 241.67136 38.362454 
L 241.67136 36.950346 
L 241.67136 35.538227 
L 241.67136 34.126099 
L 241.67136 32.713963 
L 241.67136 31.301818 
L 241.67136 29.889666 
L 241.67136 28.477508 
L 241.67136 27.065344 
L 241.67136 25.653174 
L 241.67136 24.241 
L 241.67136 22.828823 
L 241.67136 21.416641 
L 241.67136 20.004457 
L 241.67136 18.592271 
L 241.67136 17.180082 
L 241.67136 15.767892 
L 241.67136 14.3557 
L 241.67136 12.943508 
L 241.67136 11.531315 
L 241.67136 10.119122 
" clip-path="url(#pa6dcfa01c7)" style="fill: none; stroke: #ff0000; stroke-opacity: 0.25; stroke-width: 0.25; stroke-linecap: square"/>
   </g>
   <g id="line2d_36">
    <path d="M 241.671358 52.482863 
L 241.671358 51.07088 
L 241.671359 49.658885 
L 241.671359 48.246877 
L 241.671359 46.834855 
L 241.671359 45.42282 
L 241.671359 44.010772 
L 241.67136 42.598711 
L 241.67136 41.186637 
L 241.67136 39.774551 
L 241.67136 38.362453 
L 241.67136 36.950345 
L 241.67136 35.538226 
L 241.67136 34.126098 
L 241.67136 32.713962 
L 241.67136 31.301817 
L 241.67136 29.889665 
L 241.67136 28.477507 
L 241.67136 27.065343 
L 241.67136 25.653174 
L 241.67136 24.241 
L 241.67136 22.828822 
L 241.67136 21.416642 
L 241.67136 20.004458 
L 241.67136 18.592272 
L 241.67136 17.180084 
L 241.67136 15.767895 
L 241.67136 14.355705 
L 241.67136 12.943514 
L 241.67136 11.531322 
L 241.67136 10.11913 
" clip-path="url(#pa6dcfa01c7)" style="fill: none; stroke: #ff0000; stroke-opacity: 0.5; stroke-width: 0.25; stroke-linecap: square"/>
   </g>
   <g id="line2d_37">
    <path d="M 241.671358 52.482863 
L 241.671358 51.07088 
L 241.671359 49.658885 
L 241.671359 48.246877 
L 241.671359 46.834855 
L 241.671359 45.42282 
L 241.671359 44.010772 
L 241.67136 42.598711 
L 241.67136 41.186637 
L 241.67136 39.774551 
L 241.67136 38.362454 
L 241.67136 36.950345 
L 241.67136 35.538227 
L 241.67136 34.126099 
L 241.67136 32.713962 
L 241.67136 31.301817 
L 241.67136 29.889665 
L 241.67136 28.477507 
L 241.67136 27.065343 
L 241.67136 25.653174 
L 241.67136 24.241 
L 241.67136 22.828822 
L 241.67136 21.416641 
L 241.67136 20.004457 
L 241.67136 18.592271 
L 241.67136 17.180083 
L 241.67136 15.767893 
L 241.67136 14.355702 
L 241.67136 12.94351 
L 241.67136 11.531318 
L 241.67136 10.119126 
" clip-path="url(#pa6dcfa01c7)" style="fill: none; stroke: #ff0000; stroke-opacity: 0.75; stroke-width: 0.25; stroke-linecap: square"/>
   </g>
   <g id="line2d_38">
    <path d="M 241.671358 52.482863 
L 241.671358 51.07088 
L 241.671359 49.658885 
L 241.671359 48.246877 
L 241.671359 46.834855 
L 241.671359 45.42282 
L 241.671359 44.010772 
L 241.67136 42.598711 
L 241.67136 41.186637 
L 241.67136 39.774551 
L 241.67136 38.362454 
L 241.67136 36.950345 
L 241.67136 35.538227 
L 241.67136 34.126099 
L 241.67136 32.713962 
L 241.67136 31.301817 
L 241.67136 29.889665 
L 241.67136 28.477507 
L 241.67136 27.065343 
L 241.67136 25.653174 
L 241.67136 24.241 
L 241.67136 22.828822 
L 241.67136 21.416642 
L 241.67136 20.004458 
L 241.67136 18.592272 
L 241.67136 17.180084 
L 241.67136 15.767894 
L 241.67136 14.355704 
L 241.67136 12.943512 
L 241.67136 11.53132 
L 241.67136 10.119128 
" clip-path="url(#pa6dcfa01c7)" style="fill: none; stroke: #ff0000; stroke-width: 0.25; stroke-linecap: square"/>
   </g>
   <g id="line2d_39">
    <path d="M 230.648638 291.883755 
L 230.648639 293.39178 
L 230.648639 294.89979 
L 230.64864 296.407787 
L 230.64864 297.915772 
L 230.64864 299.423749 
L 230.64864 300.931716 
L 230.64864 302.439677 
L 230.64864 303.947633 
L 230.64864 305.455583 
L 230.64864 306.96353 
L 230.64864 308.471475 
L 230.64864 309.979417 
L 230.64864 311.487358 
L 230.64864 312.995298 
L 230.64864 314.503237 
L 230.64864 316.011177 
L 230.64864 317.519116 
L 230.64864 319.027057 
L 230.64864 320.534997 
L 230.64864 322.042939 
L 230.64864 323.550882 
L 230.64864 325.058825 
L 230.64864 326.56677 
L 230.64864 328.074715 
L 230.64864 329.582661 
L 230.64864 331.090607 
L 230.64864 332.598554 
L 230.64864 334.106502 
L 230.64864 335.614449 
L 230.64864 337.122397 
" clip-path="url(#pa6dcfa01c7)" style="fill: none; stroke: #ff0000; stroke-opacity: 0.25; stroke-width: 0.25; stroke-linecap: square"/>
   </g>
   <g id="line2d_40">
    <path d="M 230.648638 291.883755 
L 230.648639 293.39178 
L 230.648639 294.89979 
L 230.64864 296.407787 
L 230.64864 297.915772 
L 230.64864 299.423748 
L 230.64864 300.931716 
L 230.64864 302.439677 
L 230.64864 303.947632 
L 230.64864 305.455583 
L 230.64864 306.96353 
L 230.64864 308.471474 
L 230.64864 309.979416 
L 230.64864 311.487356 
L 230.64864 312.995296 
L 230.64864 314.503235 
L 230.64864 316.011173 
L 230.64864 317.519113 
L 230.64864 319.027052 
L 230.64864 320.534992 
L 230.64864 322.042933 
L 230.64864 323.550875 
L 230.64864 325.058817 
L 230.64864 326.56676 
L 230.64864 328.074704 
L 230.64864 329.582648 
L 230.64864 331.090593 
L 230.64864 332.598538 
L 230.64864 334.106484 
L 230.64864 335.61443 
L 230.64864 337.122376 
" clip-path="url(#pa6dcfa01c7)" style="fill: none; stroke: #ff0000; stroke-opacity: 0.5; stroke-width: 0.25; stroke-linecap: square"/>
   </g>
   <g id="line2d_41">
    <path d="M 230.648638 291.883755 
L 230.648639 293.39178 
L 230.648639 294.89979 
L 230.64864 296.407787 
L 230.64864 297.915772 
L 230.64864 299.423749 
L 230.64864 300.931716 
L 230.64864 302.439677 
L 230.64864 303.947633 
L 230.64864 305.455583 
L 230.64864 306.96353 
L 230.64864 308.471475 
L 230.64864 309.979417 
L 230.64864 311.487357 
L 230.64864 312.995297 
L 230.64864 314.503236 
L 230.64864 316.011176 
L 230.64864 317.519115 
L 230.64864 319.027055 
L 230.64864 320.534996 
L 230.64864 322.042937 
L 230.64864 323.550879 
L 230.64864 325.058822 
L 230.64864 326.566766 
L 230.64864 328.07471 
L 230.64864 329.582656 
L 230.64864 331.090602 
L 230.64864 332.598548 
L 230.64864 334.106494 
L 230.64864 335.614441 
L 230.64864 337.122388 
" clip-path="url(#pa6dcfa01c7)" style="fill: none; stroke: #ff0000; stroke-opacity: 0.75; stroke-width: 0.25; stroke-linecap: square"/>
   </g>
   <g id="line2d_42">
    <path d="M 230.648638 291.883755 
L 230.648639 293.39178 
L 230.648639 294.89979 
L 230.648639 296.407787 
L 230.64864 297.915772 
L 230.64864 299.423748 
L 230.64864 300.931716 
L 230.64864 302.439677 
L 230.64864 303.947632 
L 230.64864 305.455583 
L 230.64864 306.96353 
L 230.64864 308.471474 
L 230.64864 309.979416 
L 230.64864 311.487356 
L 230.64864 312.995296 
L 230.64864 314.503235 
L 230.64864 316.011174 
L 230.64864 317.519113 
L 230.64864 319.027053 
L 230.64864 320.534993 
L 230.64864 322.042934 
L 230.64864 323.550876 
L 230.64864 325.058819 
L 230.64864 326.566762 
L 230.64864 328.074706 
L 230.64864 329.582651 
L 230.64864 331.090596 
L 230.64864 332.598542 
L 230.64864 334.106488 
L 230.64864 335.614435 
L 230.64864 337.122381 
" clip-path="url(#pa6dcfa01c7)" style="fill: none; stroke: #ff0000; stroke-width: 0.25; stroke-linecap: square"/>
   </g>
   <g id="line2d_43">
    <path d="M 353.515688 180.039363 
L 355.023778 180.039362 
L 356.531842 180.039361 
L 358.039884 180.039361 
L 359.547907 180.03936 
L 361.055912 180.03936 
L 362.563903 180.03936 
L 364.07188 180.03936 
L 365.579847 180.03936 
L 367.087804 180.03936 
L 368.595753 180.03936 
L 370.103697 180.03936 
L 371.611635 180.03936 
L 373.11957 180.03936 
L 374.627501 180.03936 
L 376.135431 180.03936 
L 377.64336 180.03936 
L 379.151288 180.03936 
L 380.659215 180.03936 
L 382.167143 180.03936 
L 383.675071 180.03936 
L 385.183 180.03936 
L 386.69093 180.03936 
L 388.198861 180.03936 
L 389.706792 180.03936 
L 391.214725 180.03936 
L 392.722658 180.03936 
L 394.230591 180.03936 
L 395.738526 180.03936 
L 397.24646 180.03936 
L 398.754395 180.03936 
" clip-path="url(#pa6dcfa01c7)" style="fill: none; stroke: #ff0000; stroke-opacity: 0.25; stroke-width: 0.25; stroke-linecap: square"/>
   </g>
   <g id="line2d_44">
    <path d="M 353.515688 180.039363 
L 355.023778 180.039362 
L 356.531842 180.039361 
L 358.039884 180.039361 
L 359.547907 180.03936 
L 361.055912 180.03936 
L 362.563902 180.03936 
L 364.07188 180.03936 
L 365.579846 180.03936 
L 367.087803 180.03936 
L 368.595752 180.03936 
L 370.103695 180.03936 
L 371.611633 180.03936 
L 373.119567 180.03936 
L 374.627498 180.03936 
L 376.135427 180.03936 
L 377.643355 180.03936 
L 379.151282 180.03936 
L 380.659208 180.03936 
L 382.167135 180.03936 
L 383.675062 180.03936 
L 385.182989 180.03936 
L 386.690917 180.03936 
L 388.198846 180.03936 
L 389.706775 180.03936 
L 391.214706 180.03936 
L 392.722636 180.03936 
L 394.230567 180.03936 
L 395.738499 180.03936 
L 397.246431 180.03936 
L 398.754363 180.03936 
" clip-path="url(#pa6dcfa01c7)" style="fill: none; stroke: #ff0000; stroke-opacity: 0.5; stroke-width: 0.25; stroke-linecap: square"/>
   </g>
   <g id="line2d_45">
    <path d="M 353.515688 180.039363 
L 355.023778 180.039362 
L 356.531842 180.039361 
L 358.039884 180.039361 
L 359.547907 180.03936 
L 361.055912 180.03936 
L 362.563903 180.03936 
L 364.07188 180.03936 
L 365.579846 180.03936 
L 367.087804 180.03936 
L 368.595753 180.03936 
L 370.103696 180.03936 
L 371.611634 180.03936 
L 373.119569 180.03936 
L 374.6275 180.03936 
L 376.13543 180.03936 
L 377.643358 180.03936 
L 379.151286 180.03936 
L 380.659213 180.03936 
L 382.16714 180.03936 
L 383.675068 180.03936 
L 385.182996 180.03936 
L 386.690925 180.03936 
L 388.198855 180.03936 
L 389.706786 180.03936 
L 391.214717 180.03936 
L 392.722649 180.03936 
L 394.230582 180.03936 
L 395.738515 180.03936 
L 397.246448 180.03936 
L 398.754381 180.03936 
" clip-path="url(#pa6dcfa01c7)" style="fill: none; stroke: #ff0000; stroke-opacity: 0.75; stroke-width: 0.25; stroke-linecap: square"/>
   </g>
   <g id="line2d_46">
    <path d="M 353.515688 180.039363 
L 355.023778 180.039362 
L 356.531842 180.039362 
L 358.039884 180.039361 
L 359.547907 180.039361 
L 361.055912 180.03936 
L 362.563902 180.03936 
L 364.07188 180.03936 
L 365.579846 180.03936 
L 367.087803 180.03936 
L 368.595752 180.03936 
L 370.103695 180.03936 
L 371.611633 180.03936 
L 373.119568 180.03936 
L 374.627499 180.03936 
L 376.135428 180.03936 
L 377.643356 180.03936 
L 379.151283 180.03936 
L 380.65921 180.03936 
L 382.167137 180.03936 
L 383.675064 180.03936 
L 385.182992 180.03936 
L 386.69092 180.03936 
L 388.19885 180.03936 
L 389.70678 180.03936 
L 391.21471 180.03936 
L 392.722641 180.03936 
L 394.230573 180.03936 
L 395.738506 180.03936 
L 397.246438 180.03936 
L 398.754371 180.03936 
" clip-path="url(#pa6dcfa01c7)" style="fill: none; stroke: #ff0000; stroke-width: 0.25; stroke-linecap: square"/>
   </g>
   <g id="line2d_47">
    <path d="M 241.671389 90.402799 
L 241.67139 88.889387 
L 241.671388 87.37616 
L 241.671385 85.863163 
L 241.671382 84.35043 
L 241.671379 82.837985 
L 241.671375 81.325846 
L 241.671372 79.814022 
L 241.67137 78.302516 
L 241.671367 76.791329 
L 241.671365 75.280453 
L 241.671364 73.76988 
L 241.671362 72.259599 
L 241.671361 70.749594 
L 241.67136 69.239851 
L 241.671359 67.730352 
L 241.671359 66.221079 
L 241.671358 64.712014 
L 241.671358 63.203138 
L 241.671357 61.694434 
L 241.671357 60.185883 
L 241.671356 58.677468 
L 241.671356 57.169171 
L 241.671356 55.660976 
L 241.671356 54.152869 
L 241.671355 52.644834 
L 241.671355 51.136858 
L 241.671355 49.628928 
L 241.671355 48.121032 
L 241.671356 46.61316 
L 241.671358 45.105301 
" clip-path="url(#pa6dcfa01c7)" style="fill: none; stroke: #ff0000; stroke-opacity: 0.25; stroke-width: 0.25; stroke-linecap: square"/>
   </g>
   <g id="line2d_48">
    <path d="M 241.671389 90.402799 
L 241.671391 88.889387 
L 241.671389 87.37616 
L 241.671386 85.863165 
L 241.671382 84.350433 
L 241.671379 82.83799 
L 241.671376 81.325853 
L 241.671373 79.81403 
L 241.67137 78.302527 
L 241.671367 76.791341 
L 241.671365 75.280466 
L 241.671363 73.769894 
L 241.671362 72.259611 
L 241.671361 70.749605 
L 241.67136 69.239858 
L 241.671359 67.730353 
L 241.671358 66.221072 
L 241.671358 64.711997 
L 241.671357 63.203108 
L 241.671357 61.694387 
L 241.671357 60.185815 
L 241.671356 58.677374 
L 241.671356 57.169048 
L 241.671356 55.660819 
L 241.671356 54.152672 
L 241.671356 52.644593 
L 241.671356 51.136566 
L 241.671356 49.62858 
L 241.671357 48.120623 
L 241.671358 46.612682 
L 241.67136 45.104749 
" clip-path="url(#pa6dcfa01c7)" style="fill: none; stroke: #ff0000; stroke-opacity: 0.5; stroke-width: 0.25; stroke-linecap: square"/>
   </g>
   <g id="line2d_49">
    <path d="M 241.671389 90.402799 
L 241.671392 88.889387 
L 241.67139 87.37616 
L 241.671386 85.863165 
L 241.671383 84.350433 
L 241.671379 82.83799 
L 241.671376 81.325853 
L 241.671373 79.81403 
L 241.67137 78.302527 
L 241.671367 76.791342 
L 241.671365 75.280468 
L 241.671363 73.769897 
L 241.671362 72.259617 
L 241.671361 70.749613 
L 241.67136 69.23987 
L 241.671359 67.73037 
L 241.671358 66.221095 
L 241.671358 64.712026 
L 241.671357 63.203146 
L 241.671357 61.694435 
L 241.671357 60.185876 
L 241.671356 58.67745 
L 241.671356 57.16914 
L 241.671356 55.66093 
L 241.671356 54.152805 
L 241.671355 52.644749 
L 241.671355 51.136749 
L 241.671355 49.628792 
L 241.671356 48.120866 
L 241.671357 46.61296 
L 241.671359 45.105064 
" clip-path="url(#pa6dcfa01c7)" style="fill: none; stroke: #ff0000; stroke-opacity: 0.75; stroke-width: 0.25; stroke-linecap: square"/>
   </g>
   <g id="line2d_50">
    <path d="M 241.671389 90.402799 
L 241.671393 88.889387 
L 241.67139 87.37616 
L 241.671387 85.863164 
L 241.671383 84.350432 
L 241.67138 82.837989 
L 241.671376 81.325851 
L 241.671373 79.814028 
L 241.67137 78.302524 
L 241.671367 76.791338 
L 241.671365 75.280463 
L 241.671363 73.76989 
L 241.671362 72.259608 
L 241.671361 70.749602 
L 241.67136 69.239856 
L 241.671359 67.730352 
L 241.671358 66.221073 
L 241.671358 64.712 
L 241.671357 63.203115 
L 241.671357 61.694398 
L 241.671357 60.185831 
L 241.671356 58.677396 
L 241.671356 57.169077 
L 241.671356 55.660857 
L 241.671356 54.152719 
L 241.671356 52.644651 
L 241.671356 51.136637 
L 241.671356 49.628664 
L 241.671356 48.120722 
L 241.671358 46.612798 
L 241.67136 45.104883 
" clip-path="url(#pa6dcfa01c7)" style="fill: none; stroke: #ff0000; stroke-width: 0.25; stroke-linecap: square"/>
   </g>
   <g id="line2d_51">
    <path d="M 151.996984 169.016625 
L 150.487171 169.016626 
L 148.977441 169.016628 
L 147.467807 169.01663 
L 145.958276 169.016632 
L 144.448853 169.016633 
L 142.939542 169.016635 
L 141.430344 169.016636 
L 139.921258 169.016637 
L 138.412282 169.016638 
L 136.903412 169.016639 
L 135.394644 169.016639 
L 133.885973 169.01664 
L 132.377394 169.01664 
L 130.868901 169.01664 
L 129.360486 169.016641 
L 127.852145 169.016641 
L 126.34387 169.016641 
L 124.835655 169.016641 
L 123.327494 169.016641 
L 121.819381 169.016641 
L 120.311311 169.016641 
L 118.803277 169.016641 
L 117.295275 169.016641 
L 115.787299 169.016641 
L 114.279346 169.016641 
L 112.77141 169.016642 
L 111.263489 169.016642 
L 109.755578 169.016641 
L 108.247673 169.016641 
L 106.739773 169.016641 
" clip-path="url(#pa6dcfa01c7)" style="fill: none; stroke: #ff0000; stroke-opacity: 0.25; stroke-width: 0.25; stroke-linecap: square"/>
   </g>
   <g id="line2d_52">
    <path d="M 151.996984 169.016625 
L 150.487171 169.016626 
L 148.977441 169.016628 
L 147.467807 169.01663 
L 145.958277 169.016632 
L 144.448855 169.016633 
L 142.939545 169.016635 
L 141.430347 169.016636 
L 139.921262 169.016637 
L 138.412286 169.016638 
L 136.903417 169.016639 
L 135.39465 169.016639 
L 133.885979 169.01664 
L 132.3774 169.01664 
L 130.868906 169.01664 
L 129.360491 169.016641 
L 127.852148 169.016641 
L 126.34387 169.016641 
L 124.835652 169.016641 
L 123.327487 169.016641 
L 121.819369 169.016641 
L 120.311293 169.016641 
L 118.803251 169.016641 
L 117.29524 169.016641 
L 115.787254 169.016641 
L 114.279289 169.016641 
L 112.77134 169.016641 
L 111.263403 169.016641 
L 109.755475 169.016641 
L 108.247552 169.016641 
L 106.739631 169.01664 
" clip-path="url(#pa6dcfa01c7)" style="fill: none; stroke: #ff0000; stroke-opacity: 0.5; stroke-width: 0.25; stroke-linecap: square"/>
   </g>
   <g id="line2d_53">
    <path d="M 151.996984 169.016625 
L 150.487171 169.016625 
L 148.977441 169.016627 
L 147.467807 169.016629 
L 145.958277 169.016631 
L 144.448855 169.016633 
L 142.939544 169.016635 
L 141.430347 169.016636 
L 139.921262 169.016637 
L 138.412286 169.016638 
L 136.903417 169.016639 
L 135.39465 169.016639 
L 133.88598 169.01664 
L 132.377401 169.01664 
L 130.868907 169.01664 
L 129.360493 169.016641 
L 127.852151 169.016641 
L 126.343876 169.016641 
L 124.83566 169.016641 
L 123.327497 169.016641 
L 121.819382 169.016641 
L 120.311309 169.016641 
L 118.803272 169.016641 
L 117.295266 169.016641 
L 115.787285 169.016641 
L 114.279326 169.016641 
L 112.771384 169.016641 
L 111.263456 169.016641 
L 109.755536 169.016641 
L 108.247622 169.016641 
L 106.739712 169.01664 
" clip-path="url(#pa6dcfa01c7)" style="fill: none; stroke: #ff0000; stroke-opacity: 0.75; stroke-width: 0.25; stroke-linecap: square"/>
   </g>
   <g id="line2d_54">
    <path d="M 151.996984 169.016625 
L 150.487171 169.016625 
L 148.977441 169.016627 
L 147.467807 169.016629 
L 145.958276 169.016631 
L 144.448854 169.016633 
L 142.939544 169.016635 
L 141.430347 169.016636 
L 139.921261 169.016637 
L 138.412285 169.016638 
L 136.903416 169.016639 
L 135.394648 169.016639 
L 133.885978 169.01664 
L 132.377399 169.01664 
L 130.868905 169.01664 
L 129.360489 169.016641 
L 127.852147 169.016641 
L 126.34387 169.016641 
L 124.835653 169.016641 
L 123.327489 169.016641 
L 121.819372 169.016641 
L 120.311297 169.016641 
L 118.803257 169.016641 
L 117.295248 169.016641 
L 115.787265 169.016641 
L 114.279302 169.016641 
L 112.771357 169.016641 
L 111.263424 169.016641 
L 109.7555 169.016641 
L 108.247581 169.016641 
L 106.739665 169.01664 
" clip-path="url(#pa6dcfa01c7)" style="fill: none; stroke: #ff0000; stroke-width: 0.25; stroke-linecap: square"/>
   </g>
   <g id="line2d_55">
    <path d="M 319.686895 180.039375 
L 321.218822 180.039378 
L 322.750674 180.039379 
L 324.282403 180.039378 
L 325.813971 180.039377 
L 327.345348 180.039375 
L 328.876512 180.039373 
L 330.407446 180.039371 
L 331.938141 180.039369 
L 333.468591 180.039368 
L 334.998796 180.039366 
L 336.528759 180.039365 
L 338.058486 180.039363 
L 339.587985 180.039362 
L 341.117266 180.039361 
L 342.646342 180.03936 
L 344.175225 180.03936 
L 345.70393 180.039359 
L 347.23247 180.039359 
L 348.760861 180.039358 
L 350.289117 180.039358 
L 351.817252 180.039357 
L 353.345281 180.039357 
L 354.873219 180.039357 
L 356.401077 180.039356 
L 357.92887 180.039356 
L 359.456609 180.039356 
L 360.984306 180.039356 
L 362.511971 180.039356 
L 364.039615 180.039356 
L 365.567246 180.039358 
" clip-path="url(#pa6dcfa01c7)" style="fill: none; stroke: #ff0000; stroke-opacity: 0.25; stroke-width: 0.25; stroke-linecap: square"/>
   </g>
   <g id="line2d_56">
    <path d="M 319.686895 180.039375 
L 321.218822 180.039379 
L 322.750674 180.039379 
L 324.282402 180.039379 
L 325.813969 180.039377 
L 327.345345 180.039376 
L 328.876507 180.039374 
L 330.40744 180.039372 
L 331.938134 180.039369 
L 333.468584 180.039368 
L 334.998789 180.039366 
L 336.528753 180.039364 
L 338.058482 180.039363 
L 339.587985 180.039362 
L 341.117271 180.039361 
L 342.646355 180.03936 
L 344.175248 180.039359 
L 345.703965 180.039359 
L 347.232521 180.039358 
L 348.760931 180.039358 
L 350.28921 180.039358 
L 351.817372 180.039357 
L 353.345434 180.039357 
L 354.873407 180.039357 
L 356.401307 180.039357 
L 357.929147 180.039356 
L 359.456938 180.039356 
L 360.984692 180.039357 
L 362.51242 180.039357 
L 364.040132 180.039358 
L 365.567837 180.03936 
" clip-path="url(#pa6dcfa01c7)" style="fill: none; stroke: #ff0000; stroke-opacity: 0.5; stroke-width: 0.25; stroke-linecap: square"/>
   </g>
   <g id="line2d_57">
    <path d="M 319.686895 180.039375 
L 321.218822 180.039379 
L 322.750674 180.03938 
L 324.282402 180.039379 
L 325.813969 180.039378 
L 327.345344 180.039376 
L 328.876506 180.039374 
L 330.407438 180.039372 
L 331.938131 180.03937 
L 333.46858 180.039368 
L 334.998784 180.039366 
L 336.528745 180.039364 
L 338.058471 180.039363 
L 339.58797 180.039362 
L 341.117253 180.039361 
L 342.64633 180.03936 
L 344.175216 180.039359 
L 345.703925 180.039359 
L 347.232471 180.039358 
L 348.76087 180.039358 
L 350.289135 180.039358 
L 351.817282 180.039357 
L 353.345325 180.039357 
L 354.873279 180.039357 
L 356.401156 180.039356 
L 357.928971 180.039356 
L 359.456734 180.039356 
L 360.984458 180.039356 
L 362.512154 180.039356 
L 364.039831 180.039357 
L 365.567499 180.039359 
" clip-path="url(#pa6dcfa01c7)" style="fill: none; stroke: #ff0000; stroke-opacity: 0.75; stroke-width: 0.25; stroke-linecap: square"/>
   </g>
   <g id="line2d_58">
    <path d="M 319.686895 180.039375 
L 321.218822 180.039379 
L 322.750674 180.03938 
L 324.282403 180.039379 
L 325.81397 180.039378 
L 327.345346 180.039376 
L 328.876508 180.039374 
L 330.407441 180.039372 
L 331.938135 180.03937 
L 333.468585 180.039368 
L 334.998791 180.039366 
L 336.528755 180.039364 
L 338.058483 180.039363 
L 339.587985 180.039362 
L 341.11727 180.039361 
L 342.646352 180.03936 
L 344.175243 180.039359 
L 345.703957 180.039359 
L 347.232509 180.039358 
L 348.760915 180.039358 
L 350.289188 180.039358 
L 351.817344 180.039357 
L 353.345397 180.039357 
L 354.873362 180.039357 
L 356.401252 180.039356 
L 357.92908 180.039356 
L 359.456858 180.039356 
L 360.984598 180.039356 
L 362.512311 180.039357 
L 364.040006 180.039358 
L 365.567694 180.03936 
" clip-path="url(#pa6dcfa01c7)" style="fill: none; stroke: #ff0000; stroke-width: 0.25; stroke-linecap: square"/>
   </g>
   <g id="line2d_59">
    <path d="M 241.671183 114.103189 
L 241.671212 112.812383 
L 241.671244 111.520476 
L 241.671271 110.227449 
L 241.671294 108.933302 
L 241.671312 107.638051 
L 241.671327 106.341723 
L 241.671338 105.044356 
L 241.671347 103.745999 
L 241.671354 102.446702 
L 241.67136 101.146524 
L 241.671364 99.845524 
L 241.671367 98.543764 
L 241.671369 97.241306 
L 241.671371 95.938212 
L 241.671372 94.634541 
L 241.671372 93.330352 
L 241.671372 92.025701 
L 241.671372 90.720641 
L 241.671372 89.415221 
L 241.671372 88.109488 
L 241.671372 86.803484 
L 241.671372 85.497251 
L 241.671371 84.190823 
L 241.671371 82.884234 
L 241.671371 81.577514 
L 241.67137 80.27069 
L 241.671369 78.963785 
L 241.671368 77.656821 
L 241.671367 76.349817 
L 241.671364 75.042791 
" clip-path="url(#pa6dcfa01c7)" style="fill: none; stroke: #ff0000; stroke-opacity: 0.25; stroke-width: 0.25; stroke-linecap: square"/>
   </g>
   <g id="line2d_60">
    <path d="M 241.671183 114.103189 
L 241.671204 112.812383 
L 241.671238 111.520474 
L 241.671267 110.227444 
L 241.67129 108.933293 
L 241.671309 107.638035 
L 241.671325 106.341699 
L 241.671337 105.044324 
L 241.671347 103.745956 
L 241.671355 102.446649 
L 241.671361 101.14646 
L 241.671365 99.845448 
L 241.671368 98.543677 
L 241.671371 97.241207 
L 241.671372 95.938102 
L 241.671373 94.634422 
L 241.671374 93.330226 
L 241.671374 92.025569 
L 241.671374 90.720506 
L 241.671373 89.415086 
L 241.671373 88.109357 
L 241.671372 86.803362 
L 241.671372 85.497143 
L 241.671371 84.190735 
L 241.671371 82.884173 
L 241.67137 81.577486 
L 241.671369 80.270703 
L 241.671368 78.963847 
L 241.671366 77.656942 
L 241.671364 76.350006 
L 241.67136 75.043058 
" clip-path="url(#pa6dcfa01c7)" style="fill: none; stroke: #ff0000; stroke-opacity: 0.5; stroke-width: 0.25; stroke-linecap: square"/>
   </g>
   <g id="line2d_61">
    <path d="M 241.671183 114.103189 
L 241.671198 112.812383 
L 241.671233 111.520475 
L 241.671263 110.227446 
L 241.671287 108.933296 
L 241.671308 107.638041 
L 241.671324 106.341708 
L 241.671337 105.044337 
L 241.671347 103.745973 
L 241.671355 102.44667 
L 241.671361 101.146485 
L 241.671365 99.845478 
L 241.671368 98.543711 
L 241.671371 97.241246 
L 241.671372 95.938146 
L 241.671373 94.634469 
L 241.671373 93.330276 
L 241.671374 92.025621 
L 241.671373 90.720558 
L 241.671373 89.415137 
L 241.671373 88.109405 
L 241.671372 86.803406 
L 241.671372 85.497179 
L 241.671371 84.190761 
L 241.671371 82.884185 
L 241.67137 81.577482 
L 241.67137 80.270679 
L 241.671369 78.9638 
L 241.671367 77.656866 
L 241.671365 76.349899 
L 241.671362 75.042914 
" clip-path="url(#pa6dcfa01c7)" style="fill: none; stroke: #ff0000; stroke-opacity: 0.75; stroke-width: 0.25; stroke-linecap: square"/>
   </g>
   <g id="line2d_62">
    <path d="M 241.671183 114.103189 
L 241.671192 112.812383 
L 241.671229 111.520474 
L 241.67126 110.227445 
L 241.671285 108.933295 
L 241.671306 107.638039 
L 241.671323 106.341705 
L 241.671337 105.044332 
L 241.671347 103.745967 
L 241.671355 102.446662 
L 241.671361 101.146475 
L 241.671366 99.845467 
L 241.671369 98.543698 
L 241.671371 97.241232 
L 241.671372 95.938129 
L 241.671373 94.634452 
L 241.671374 93.330257 
L 241.671374 92.025602 
L 241.671373 90.720539 
L 241.671373 89.41512 
L 241.671373 88.10939 
L 241.671372 86.803393 
L 241.671372 85.49717 
L 241.671371 84.190757 
L 241.671371 82.884189 
L 241.67137 81.577494 
L 241.671369 80.2707 
L 241.671368 78.963833 
L 241.671367 77.656913 
L 241.671364 76.349961 
L 241.671361 75.042993 
" clip-path="url(#pa6dcfa01c7)" style="fill: none; stroke: #ff0000; stroke-width: 0.25; stroke-linecap: square"/>
   </g>
   <g id="line2d_63">
    <path d="M 291.779438 180.041242 
L 293.195138 180.04079 
L 294.610938 180.040434 
L 296.02677 180.040155 
L 297.442579 180.03994 
L 298.858315 180.039776 
L 300.273942 180.039654 
L 301.689427 180.039564 
L 303.104748 180.039499 
L 304.519886 180.039452 
L 305.934829 180.039419 
L 307.349571 180.039397 
L 308.764107 180.039381 
L 310.17844 180.039371 
L 311.592572 180.039364 
L 313.00651 180.03936 
L 314.420261 180.039358 
L 315.833835 180.039356 
L 317.247245 180.039356 
L 318.660501 180.039355 
L 320.073617 180.039355 
L 321.486607 180.039355 
L 322.899483 180.039355 
L 324.31226 180.039355 
L 325.724951 180.039355 
L 327.137569 180.039355 
L 328.550128 180.039355 
L 329.962639 180.039355 
L 331.375115 180.039355 
L 332.787567 180.039356 
L 334.200005 180.039357 
" clip-path="url(#pa6dcfa01c7)" style="fill: none; stroke: #ff0000; stroke-opacity: 0.25; stroke-width: 0.25; stroke-linecap: square"/>
   </g>
   <g id="line2d_64">
    <path d="M 291.779438 180.041242 
L 293.195138 180.040784 
L 294.610938 180.04043 
L 296.02677 180.040152 
L 297.442577 180.039938 
L 298.858313 180.039775 
L 300.273939 180.039653 
L 301.689425 180.039564 
L 303.104745 180.039499 
L 304.519885 180.039452 
L 305.934831 180.03942 
L 307.349576 180.039397 
L 308.764119 180.039382 
L 310.178459 180.039372 
L 311.592601 180.039365 
L 313.006551 180.039361 
L 314.420318 180.039358 
L 315.833913 180.039357 
L 317.247346 180.039356 
L 318.660631 180.039356 
L 320.073781 180.039355 
L 321.486809 180.039355 
L 322.89973 180.039355 
L 324.312557 180.039355 
L 325.725304 180.039355 
L 327.137985 180.039355 
L 328.550613 180.039355 
L 329.9632 180.039356 
L 331.375758 180.039356 
L 332.788298 180.039358 
L 334.20083 180.03936 
" clip-path="url(#pa6dcfa01c7)" style="fill: none; stroke: #ff0000; stroke-opacity: 0.5; stroke-width: 0.25; stroke-linecap: square"/>
   </g>
   <g id="line2d_65">
    <path d="M 291.779438 180.041242 
L 293.195138 180.04078 
L 294.610937 180.040426 
L 296.026769 180.040149 
L 297.442576 180.039936 
L 298.858311 180.039774 
L 300.273936 180.039653 
L 301.68942 180.039564 
L 303.104739 180.039499 
L 304.519875 180.039453 
L 305.934818 180.03942 
L 307.349559 180.039397 
L 308.764096 180.039382 
L 310.17843 180.039372 
L 311.592564 180.039365 
L 313.006506 180.039361 
L 314.420262 180.039358 
L 315.833844 180.039357 
L 317.247263 180.039356 
L 318.66053 180.039355 
L 320.07366 180.039355 
L 321.486666 180.039355 
L 322.899562 180.039355 
L 324.312361 180.039355 
L 325.725078 180.039355 
L 327.137725 180.039355 
L 328.550315 180.039355 
L 329.962862 180.039355 
L 331.375377 180.039356 
L 332.787872 180.039357 
L 334.200356 180.039359 
" clip-path="url(#pa6dcfa01c7)" style="fill: none; stroke: #ff0000; stroke-opacity: 0.75; stroke-width: 0.25; stroke-linecap: square"/>
   </g>
   <g id="line2d_66">
    <path d="M 291.779438 180.041242 
L 293.195138 180.040775 
L 294.610938 180.040424 
L 296.02677 180.040148 
L 297.442577 180.039935 
L 298.858314 180.039773 
L 300.27394 180.039653 
L 301.689425 180.039564 
L 303.104746 180.039499 
L 304.519885 180.039453 
L 305.93483 180.03942 
L 307.349575 180.039398 
L 308.764116 180.039382 
L 310.178454 180.039372 
L 311.592594 180.039365 
L 313.006541 180.039361 
L 314.420305 180.039358 
L 315.833895 180.039357 
L 317.247322 180.039356 
L 318.6606 180.039355 
L 320.073742 180.039355 
L 321.486761 180.039355 
L 322.899671 180.039355 
L 324.312486 180.039355 
L 325.725219 180.039355 
L 327.137885 180.039355 
L 328.550496 180.039355 
L 329.963064 180.039355 
L 331.375602 180.039356 
L 332.788121 180.039357 
L 334.20063 180.039359 
" clip-path="url(#pa6dcfa01c7)" style="fill: none; stroke: #ff0000; stroke-width: 0.25; stroke-linecap: square"/>
   </g>
   <g id="line2d_67">
    <path d="M 230.649039 249.305794 
L 230.648901 251.003756 
L 230.648791 252.70721 
L 230.648717 254.415915 
L 230.648668 256.129596 
L 230.648635 257.847957 
L 230.648612 259.57068 
L 230.648598 261.297444 
L 230.648589 263.027919 
L 230.648584 264.761783 
L 230.648581 266.498716 
L 230.648581 268.238411 
L 230.648582 269.980573 
L 230.648584 271.724923 
L 230.648586 273.471199 
L 230.648589 275.219157 
L 230.648592 276.968571 
L 230.648596 278.719236 
L 230.648599 280.470965 
L 230.648602 282.223591 
L 230.648605 283.976965 
L 230.648608 285.730954 
L 230.648611 287.485444 
L 230.648613 289.240335 
L 230.648615 290.995543 
L 230.648616 292.750994 
L 230.648618 294.506628 
L 230.648619 296.262396 
L 230.648622 298.018254 
L 230.648627 299.774169 
L 230.648633 301.530112 
" clip-path="url(#pa6dcfa01c7)" style="fill: none; stroke: #ff0000; stroke-opacity: 0.25; stroke-width: 0.25; stroke-linecap: square"/>
   </g>
   <g id="line2d_68">
    <path d="M 230.649039 249.305794 
L 230.648925 251.003756 
L 230.648812 252.707218 
L 230.648734 254.415939 
L 230.648681 256.129644 
L 230.648644 257.848036 
L 230.648619 259.570799 
L 230.648602 261.29761 
L 230.648591 263.028142 
L 230.648584 264.762068 
L 230.64858 266.499072 
L 230.648578 268.238844 
L 230.648578 269.98109 
L 230.64858 271.72553 
L 230.648582 273.471902 
L 230.648584 275.219962 
L 230.648587 276.969483 
L 230.648591 278.72026 
L 230.648595 280.472107 
L 230.648598 282.224853 
L 230.648602 283.978352 
L 230.648606 285.732469 
L 230.64861 287.487089 
L 230.648614 289.242112 
L 230.648617 290.997454 
L 230.64862 292.753039 
L 230.648623 294.508808 
L 230.648626 296.26471 
L 230.648629 298.020701 
L 230.648635 299.776747 
L 230.648642 301.532818 
" clip-path="url(#pa6dcfa01c7)" style="fill: none; stroke: #ff0000; stroke-opacity: 0.5; stroke-width: 0.25; stroke-linecap: square"/>
   </g>
   <g id="line2d_69">
    <path d="M 230.649039 249.305794 
L 230.648947 251.003756 
L 230.64883 252.707213 
L 230.648749 254.415924 
L 230.648692 256.129615 
L 230.648652 257.847988 
L 230.648625 259.570727 
L 230.648605 261.29751 
L 230.648593 263.028008 
L 230.648584 264.761897 
L 230.64858 266.498859 
L 230.648578 268.238586 
L 230.648577 269.980783 
L 230.648579 271.72517 
L 230.648581 273.471487 
L 230.648584 275.219487 
L 230.648587 276.968947 
L 230.648591 278.719661 
L 230.648595 280.47144 
L 230.648599 282.224119 
L 230.648603 283.977547 
L 230.648607 285.731591 
L 230.64861 287.486138 
L 230.648613 289.241087 
L 230.648616 290.996353 
L 230.648619 292.751862 
L 230.648621 294.507554 
L 230.648623 296.263378 
L 230.648626 298.019291 
L 230.64863 299.77526 
L 230.648637 301.531253 
" clip-path="url(#pa6dcfa01c7)" style="fill: none; stroke: #ff0000; stroke-opacity: 0.75; stroke-width: 0.25; stroke-linecap: square"/>
   </g>
   <g id="line2d_70">
    <path d="M 230.649039 249.305794 
L 230.648969 251.003756 
L 230.648847 252.707216 
L 230.648762 254.415933 
L 230.648701 256.129632 
L 230.648658 257.848016 
L 230.648628 259.57077 
L 230.648607 261.297569 
L 230.648592 263.028086 
L 230.648583 264.761997 
L 230.648578 266.498983 
L 230.648575 268.238736 
L 230.648575 269.980962 
L 230.648577 271.72538 
L 230.648579 273.471729 
L 230.648583 275.219763 
L 230.648587 276.969259 
L 230.648591 278.720009 
L 230.648595 280.471827 
L 230.648599 282.224545 
L 230.648603 283.978013 
L 230.648607 285.732099 
L 230.648611 287.486688 
L 230.648614 289.24168 
L 230.648617 290.996989 
L 230.64862 292.752542 
L 230.648622 294.508278 
L 230.648625 296.264147 
L 230.648628 298.020106 
L 230.648633 299.776119 
L 230.64864 301.532158 
" clip-path="url(#pa6dcfa01c7)" style="fill: none; stroke: #ff0000; stroke-width: 0.25; stroke-linecap: square"/>
   </g>
   <g id="line2d_71">
    <path d="M 180.543689 169.013675 
L 179.127002 169.014373 
L 177.710341 169.014929 
L 176.293766 169.015368 
L 174.877326 169.015709 
L 173.461058 169.015969 
L 172.044993 169.016164 
L 170.629152 169.016309 
L 169.213552 169.016415 
L 167.798201 169.016491 
L 166.383105 169.016544 
L 164.968262 169.016581 
L 163.553671 169.016606 
L 162.139323 169.016623 
L 160.725209 169.016634 
L 159.311319 169.01664 
L 157.897639 169.016644 
L 156.484156 169.016646 
L 155.070853 169.016647 
L 153.657718 169.016648 
L 152.244732 169.016647 
L 150.831881 169.016647 
L 149.41915 169.016647 
L 148.006523 169.016647 
L 146.593984 169.016646 
L 145.181521 169.016646 
L 143.769118 169.016646 
L 142.356764 169.016646 
L 140.944446 169.016645 
L 139.532153 169.016644 
L 138.119873 169.016643 
" clip-path="url(#pa6dcfa01c7)" style="fill: none; stroke: #ff0000; stroke-opacity: 0.25; stroke-width: 0.25; stroke-linecap: square"/>
   </g>
   <g id="line2d_72">
    <path d="M 180.543689 169.013675 
L 179.127002 169.014381 
L 177.710341 169.014934 
L 176.293768 169.015372 
L 174.877328 169.015711 
L 173.461062 169.015971 
L 172.044997 169.016166 
L 170.629158 169.01631 
L 169.213558 169.016415 
L 167.798207 169.016491 
L 166.38311 169.016544 
L 164.968266 169.016581 
L 163.55367 169.016606 
L 162.139317 169.016622 
L 160.725196 169.016633 
L 159.311296 169.016639 
L 157.897603 169.016643 
L 156.484103 169.016646 
L 155.070781 169.016647 
L 153.657621 169.016647 
L 152.244607 169.016647 
L 150.831723 169.016647 
L 149.418952 169.016646 
L 148.00628 169.016646 
L 146.593691 169.016646 
L 145.181171 169.016646 
L 143.768706 169.016645 
L 142.356283 169.016645 
L 140.943889 169.016644 
L 139.531514 169.016642 
L 138.119146 169.01664 
" clip-path="url(#pa6dcfa01c7)" style="fill: none; stroke: #ff0000; stroke-opacity: 0.5; stroke-width: 0.25; stroke-linecap: square"/>
   </g>
   <g id="line2d_73">
    <path d="M 180.543689 169.013675 
L 179.127002 169.014388 
L 177.710342 169.014939 
L 176.293768 169.015375 
L 174.877329 169.015714 
L 173.461063 169.015972 
L 172.044999 169.016166 
L 170.629161 169.01631 
L 169.213562 169.016415 
L 167.798213 169.01649 
L 166.383118 169.016543 
L 164.968277 169.01658 
L 163.553686 169.016605 
L 162.139337 169.016622 
L 160.725222 169.016633 
L 159.31133 169.016639 
L 157.897646 169.016643 
L 156.484156 169.016646 
L 155.070847 169.016647 
L 153.657701 169.016647 
L 152.244704 169.016647 
L 150.831839 169.016647 
L 149.419091 169.016647 
L 148.006443 169.016647 
L 146.593882 169.016647 
L 145.181392 169.016646 
L 143.768961 169.016646 
L 142.356574 169.016646 
L 140.944219 169.016645 
L 139.531886 169.016644 
L 138.119563 169.016642 
" clip-path="url(#pa6dcfa01c7)" style="fill: none; stroke: #ff0000; stroke-opacity: 0.75; stroke-width: 0.25; stroke-linecap: square"/>
   </g>
   <g id="line2d_74">
    <path d="M 180.543689 169.013675 
L 179.127002 169.014394 
L 177.710341 169.014943 
L 176.293767 169.015378 
L 174.877328 169.015715 
L 173.461061 169.015973 
L 172.044996 169.016167 
L 170.629157 169.01631 
L 169.213557 169.016415 
L 167.798206 169.01649 
L 166.383109 169.016543 
L 164.968265 169.01658 
L 163.55367 169.016605 
L 162.139318 169.016622 
L 160.725199 169.016632 
L 159.311301 169.016639 
L 157.897611 169.016643 
L 156.484116 169.016646 
L 155.070798 169.016647 
L 153.657644 169.016647 
L 152.244637 169.016647 
L 150.83176 169.016647 
L 149.418999 169.016647 
L 148.006338 169.016646 
L 146.593762 169.016646 
L 145.181255 169.016646 
L 143.768806 169.016646 
L 142.356399 169.016645 
L 140.944024 169.016644 
L 139.531669 169.016643 
L 138.119323 169.016641 
" clip-path="url(#pa6dcfa01c7)" style="fill: none; stroke: #ff0000; stroke-width: 0.25; stroke-linecap: square"/>
   </g>
   <g id="line2d_75">
    <path d="M 230.641453 230.013211 
L 230.643554 231.47711 
L 230.645157 232.93466 
L 230.646322 234.386245 
L 230.647151 235.83227 
L 230.647728 237.273152 
L 230.648121 238.70931 
L 230.648382 240.141161 
L 230.64855 241.569114 
L 230.648654 242.993563 
L 230.648715 244.414887 
L 230.648747 245.833445 
L 230.64876 247.249571 
L 230.648763 248.663579 
L 230.648758 250.075758 
L 230.64875 251.48637 
L 230.64874 252.895655 
L 230.648729 254.303827 
L 230.648719 255.711075 
L 230.648708 257.117568 
L 230.648699 258.523452 
L 230.64869 259.92885 
L 230.648682 261.33387 
L 230.648675 262.7386 
L 230.648668 264.143113 
L 230.648662 265.547468 
L 230.648657 266.951711 
L 230.648652 268.355879 
L 230.648648 269.759998 
L 230.648643 271.16409 
L 230.648638 272.568169 
" clip-path="url(#pa6dcfa01c7)" style="fill: none; stroke: #ff0000; stroke-opacity: 0.25; stroke-width: 0.25; stroke-linecap: square"/>
   </g>
   <g id="line2d_76">
    <path d="M 230.641453 230.013211 
L 230.643532 231.477111 
L 230.645138 232.934667 
L 230.646308 234.386266 
L 230.64714 235.832312 
L 230.647721 237.273221 
L 230.648117 238.709414 
L 230.64838 240.141307 
L 230.648549 241.569309 
L 230.648654 242.993813 
L 230.648716 244.415199 
L 230.648748 245.833824 
L 230.648762 247.250023 
L 230.648764 248.66411 
L 230.648759 250.076373 
L 230.648751 251.487074 
L 230.64874 252.896452 
L 230.648729 254.304722 
L 230.648719 255.712072 
L 230.648708 257.118671 
L 230.648698 258.524663 
L 230.64869 259.930174 
L 230.648682 261.335308 
L 230.648675 262.740156 
L 230.648669 264.144788 
L 230.648663 265.549264 
L 230.648659 266.95363 
L 230.648654 268.357921 
L 230.64865 269.762165 
L 230.648646 271.166381 
L 230.648642 272.570585 
" clip-path="url(#pa6dcfa01c7)" style="fill: none; stroke: #ff0000; stroke-opacity: 0.5; stroke-width: 0.25; stroke-linecap: square"/>
   </g>
   <g id="line2d_77">
    <path d="M 230.641453 230.013211 
L 230.643512 231.477111 
L 230.645122 232.934663 
L 230.646296 234.386253 
L 230.647132 235.832287 
L 230.647716 237.273179 
L 230.648114 238.709351 
L 230.648379 240.141219 
L 230.64855 241.569191 
L 230.648656 242.993663 
L 230.648718 244.415012 
L 230.64875 245.833597 
L 230.648764 247.249753 
L 230.648766 248.663794 
L 230.648761 250.076007 
L 230.648752 251.486657 
L 230.648741 252.895981 
L 230.64873 254.304194 
L 230.648718 255.711486 
L 230.648708 257.118024 
L 230.648698 258.523954 
L 230.648689 259.929401 
L 230.648681 261.33447 
L 230.648674 262.739251 
L 230.648668 264.143816 
L 230.648662 265.548224 
L 230.648657 266.952521 
L 230.648653 268.356743 
L 230.648649 269.760917 
L 230.648645 271.165063 
L 230.64864 272.569197 
" clip-path="url(#pa6dcfa01c7)" style="fill: none; stroke: #ff0000; stroke-opacity: 0.75; stroke-width: 0.25; stroke-linecap: square"/>
   </g>
   <g id="line2d_78">
    <path d="M 230.641453 230.013211 
L 230.643493 231.477111 
L 230.645108 232.934665 
L 230.646286 234.386261 
L 230.647126 235.832302 
L 230.647712 237.273204 
L 230.648113 238.709388 
L 230.648379 240.141271 
L 230.648551 241.56926 
L 230.648657 242.993751 
L 230.648719 244.415122 
L 230.648752 245.833729 
L 230.648765 247.249911 
L 230.648767 248.663978 
L 230.648761 250.07622 
L 230.648752 251.4869 
L 230.648741 252.896255 
L 230.64873 254.304501 
L 230.648718 255.711826 
L 230.648708 257.118399 
L 230.648698 258.524365 
L 230.648689 259.929849 
L 230.648681 261.334955 
L 230.648674 262.739774 
L 230.648668 264.144378 
L 230.648663 265.548825 
L 230.648658 266.953161 
L 230.648654 268.357423 
L 230.64865 269.761636 
L 230.648646 271.165823 
L 230.648641 272.569997 
" clip-path="url(#pa6dcfa01c7)" style="fill: none; stroke: #ff0000; stroke-width: 0.25; stroke-linecap: square"/>
   </g>
   <g id="patch_15">
    <path d="M 103.104 307.584 
L 103.104 41.472 
" style="fill: none; stroke: #000000; stroke-width: 0.8; stroke-linejoin: miter; stroke-linecap: square"/>
   </g>
   <g id="patch_16">
    <path d="M 369.216 307.584 
L 369.216 41.472 
" style="fill: none; stroke: #000000; stroke-width: 0.8; stroke-linejoin: miter; stroke-linecap: square"/>
   </g>
   <g id="patch_17">
    <path d="M 103.104 307.584 
L 369.216 307.584 
" style="fill: none; stroke: #000000; stroke-width: 0.8; stroke-linejoin: miter; stroke-linecap: square"/>
   </g>
   <g id="patch_18">
    <path d="M 103.104 41.472 
L 369.216 41.472 
" style="fill: none; stroke: #000000; stroke-width: 0.8; stroke-linejoin: miter; stroke-linecap: square"/>
   </g>
   <g id="text_19">
    <!-- Time: 110 ms -->
    <g transform="translate(261.069512 54.7776) scale(0.1 -0.1)">
     <defs>
      <path id="DejaVuSans-54" d="M -19 4666 
L 3928 4666 
L 3928 4134 
L 2272 4134 
L 2272 0 
L 1638 0 
L 1638 4134 
L -19 4134 
L -19 4666 
z
" transform="scale(0.015625)"/>
      <path id="DejaVuSans-69" d="M 603 3500 
L 1178 3500 
L 1178 0 
L 603 0 
L 603 3500 
z
M 603 4863 
L 1178 4863 
L 1178 4134 
L 603 4134 
L 603 4863 
z
" transform="scale(0.015625)"/>
      <path id="DejaVuSans-6d" d="M 3328 2828 
Q 3544 3216 3844 3400 
Q 4144 3584 4550 3584 
Q 5097 3584 5394 3201 
Q 5691 2819 5691 2113 
L 5691 0 
L 5113 0 
L 5113 2094 
Q 5113 2597 4934 2840 
Q 4756 3084 4391 3084 
Q 3944 3084 3684 2787 
Q 3425 2491 3425 1978 
L 3425 0 
L 2847 0 
L 2847 2094 
Q 2847 2600 2669 2842 
Q 2491 3084 2119 3084 
Q 1678 3084 1418 2786 
Q 1159 2488 1159 1978 
L 1159 0 
L 581 0 
L 581 3500 
L 1159 3500 
L 1159 2956 
Q 1356 3278 1631 3431 
Q 1906 3584 2284 3584 
Q 2666 3584 2933 3390 
Q 3200 3197 3328 2828 
z
" transform="scale(0.015625)"/>
      <path id="DejaVuSans-65" d="M 3597 1894 
L 3597 1613 
L 953 1613 
Q 991 1019 1311 708 
Q 1631 397 2203 397 
Q 2534 397 2845 478 
Q 3156 559 3463 722 
L 3463 178 
Q 3153 47 2828 -22 
Q 2503 -91 2169 -91 
Q 1331 -91 842 396 
Q 353 884 353 1716 
Q 353 2575 817 3079 
Q 1281 3584 2069 3584 
Q 2775 3584 3186 3129 
Q 3597 2675 3597 1894 
z
M 3022 2063 
Q 3016 2534 2758 2815 
Q 2500 3097 2075 3097 
Q 1594 3097 1305 2825 
Q 1016 2553 972 2059 
L 3022 2063 
z
" transform="scale(0.015625)"/>
      <path id="DejaVuSans-3a" d="M 750 794 
L 1409 794 
L 1409 0 
L 750 0 
L 750 794 
z
M 750 3309 
L 1409 3309 
L 1409 2516 
L 750 2516 
L 750 3309 
z
" transform="scale(0.015625)"/>
      <path id="DejaVuSans-20" transform="scale(0.015625)"/>
      <path id="DejaVuSans-73" d="M 2834 3397 
L 2834 2853 
Q 2591 2978 2328 3040 
Q 2066 3103 1784 3103 
Q 1356 3103 1142 2972 
Q 928 2841 928 2578 
Q 928 2378 1081 2264 
Q 1234 2150 1697 2047 
L 1894 2003 
Q 2506 1872 2764 1633 
Q 3022 1394 3022 966 
Q 3022 478 2636 193 
Q 2250 -91 1575 -91 
Q 1294 -91 989 -36 
Q 684 19 347 128 
L 347 722 
Q 666 556 975 473 
Q 1284 391 1588 391 
Q 1994 391 2212 530 
Q 2431 669 2431 922 
Q 2431 1156 2273 1281 
Q 2116 1406 1581 1522 
L 1381 1569 
Q 847 1681 609 1914 
Q 372 2147 372 2553 
Q 372 3047 722 3315 
Q 1072 3584 1716 3584 
Q 2034 3584 2315 3537 
Q 2597 3491 2834 3397 
z
" transform="scale(0.015625)"/>
     </defs>
     <use xlink:href="#DejaVuSans-54"/>
     <use xlink:href="#DejaVuSans-69" x="57.958984"/>
     <use xlink:href="#DejaVuSans-6d" x="85.742188"/>
     <use xlink:href="#DejaVuSans-65" x="183.154297"/>
     <use xlink:href="#DejaVuSans-3a" x="244.677734"/>
     <use xlink:href="#DejaVuSans-20" x="278.369141"/>
     <use xlink:href="#DejaVuSans-31" x="310.15625"/>
     <use xlink:href="#DejaVuSans-31" x="373.779297"/>
     <use xlink:href="#DejaVuSans-30" x="437.402344"/>
     <use xlink:href="#DejaVuSans-20" x="501.025391"/>
     <use xlink:href="#DejaVuSans-6d" x="532.8125"/>
     <use xlink:href="#DejaVuSans-73" x="630.224609"/>
    </g>
   </g>
  </g>
 </g>
 <defs>
  <clipPath id="pa6dcfa01c7">
   <rect x="103.104" y="41.472" width="266.112" height="266.112"/>
  </clipPath>
 </defs>
</svg>
