<?xml version="1.0" encoding="utf-8" standalone="no"?>
<!DOCTYPE svg PUBLIC "-//W3C//DTD SVG 1.1//EN"
  "http://www.w3.org/Graphics/SVG/1.1/DTD/svg11.dtd">
<svg xmlns:xlink="http://www.w3.org/1999/xlink" width="460.8pt" height="345.6pt" viewBox="0 0 460.8 345.6" xmlns="http://www.w3.org/2000/svg" version="1.1">
 <metadata>
  <rdf:RDF xmlns:dc="http://purl.org/dc/elements/1.1/" xmlns:cc="http://creativecommons.org/ns#" xmlns:rdf="http://www.w3.org/1999/02/22-rdf-syntax-ns#">
   <cc:Work>
    <dc:type rdf:resource="http://purl.org/dc/dcmitype/StillImage"/>
    <dc:date>2024-01-20T23:47:38.887116</dc:date>
    <dc:format>image/svg+xml</dc:format>
    <dc:creator>
     <cc:Agent>
      <dc:title>Matplotlib v3.8.2, https://matplotlib.org/</dc:title>
     </cc:Agent>
    </dc:creator>
   </cc:Work>
  </rdf:RDF>
 </metadata>
 <defs>
  <style type="text/css">*{stroke-linejoin: round; stroke-linecap: butt}</style>
 </defs>
 <g id="figure_1">
  <g id="patch_1">
   <path d="M 0 345.6 
L 460.8 345.6 
L 460.8 0 
L 0 0 
z
" style="fill: #ffffff"/>
  </g>
  <g id="axes_1">
   <g id="patch_2">
    <path d="M 57.6 286.128 
L 414.72 286.128 
L 414.72 62.928 
L 57.6 62.928 
z
" style="fill: #ffffff"/>
   </g>
   <g id="patch_3">
    <path d="M 228.044054 210.393805 
L 228.456611 179.148529 
L 213.280334 178.948144 
L 212.867777 210.19342 
z
" clip-path="url(#p2c73fa20ea)" style="fill: #00008b"/>
   </g>
   <g id="patch_4">
    <path d="M 343.945706 116.512581 
L 312.697836 116.42243 
L 312.654048 131.599967 
L 343.901918 131.690118 
z
" clip-path="url(#p2c73fa20ea)" style="fill: #800000"/>
   </g>
   <g id="patch_5">
    <path d="M 136.807229 97.956094 
L 168.040602 97.000129 
L 167.576277 81.829633 
L 136.342903 82.785598 
z
" clip-path="url(#p2c73fa20ea)" style="fill: #006400"/>
   </g>
   <g id="PathCollection_1">
    <defs>
     <path id="m1d21620a34" d="M 0 0.158114 
C 0.041932 0.158114 0.082153 0.141454 0.111803 0.111803 
C 0.141454 0.082153 0.158114 0.041932 0.158114 0 
C 0.158114 -0.041932 0.141454 -0.082153 0.111803 -0.111803 
C 0.082153 -0.141454 0.041932 -0.158114 0 -0.158114 
C -0.041932 -0.158114 -0.082153 -0.141454 -0.111803 -0.111803 
C -0.141454 -0.082153 -0.158114 -0.041932 -0.158114 0 
C -0.158114 0.041932 -0.141454 0.082153 -0.111803 0.111803 
C -0.082153 0.141454 -0.041932 0.158114 0 0.158114 
z
" style="stroke: #00008b"/>
    </defs>
    <g clip-path="url(#p2c73fa20ea)">
     <use xlink:href="#m1d21620a34" x="219.519436" y="276.17057" style="fill: #00008b; stroke: #00008b"/>
    </g>
   </g>
   <g id="PathCollection_2">
    <defs>
     <path id="m07f2cd1b29" d="M 0 0.158114 
C 0.041932 0.158114 0.082153 0.141454 0.111803 0.111803 
C 0.141454 0.082153 0.158114 0.041932 0.158114 0 
C 0.158114 -0.041932 0.141454 -0.082153 0.111803 -0.111803 
C 0.082153 -0.141454 0.041932 -0.158114 0 -0.158114 
C -0.041932 -0.158114 -0.082153 -0.141454 -0.111803 -0.111803 
C -0.141454 -0.082153 -0.158114 -0.041932 -0.158114 0 
C -0.158114 0.041932 -0.141454 0.082153 -0.111803 0.111803 
C -0.082153 0.141454 -0.041932 0.158114 0 0.158114 
z
" style="stroke: #800000"/>
    </defs>
    <g clip-path="url(#p2c73fa20ea)">
     <use xlink:href="#m07f2cd1b29" x="405.1224" y="124.209444" style="fill: #800000; stroke: #800000"/>
    </g>
   </g>
   <g id="PathCollection_3">
    <defs>
     <path id="m211504dd59" d="M 0 0.158114 
C 0.041932 0.158114 0.082153 0.141454 0.111803 0.111803 
C 0.141454 0.082153 0.158114 0.041932 0.158114 0 
C 0.158114 -0.041932 0.141454 -0.082153 0.111803 -0.111803 
C 0.082153 -0.141454 0.041932 -0.158114 0 -0.158114 
C -0.041932 -0.158114 -0.082153 -0.141454 -0.111803 -0.111803 
C -0.141454 -0.082153 -0.158114 -0.041932 -0.158114 0 
C -0.158114 0.041932 -0.141454 0.082153 -0.111803 0.111803 
C -0.082153 0.141454 -0.041932 0.158114 0 0.158114 
z
" style="stroke: #006400"/>
    </defs>
    <g clip-path="url(#p2c73fa20ea)">
     <use xlink:href="#m211504dd59" x="67.55743" y="90.927436" style="fill: #006400; stroke: #006400"/>
    </g>
   </g>
   <g id="PathCollection_4">
    <g clip-path="url(#p2c73fa20ea)">
     <use xlink:href="#m1d21620a34" x="219.519436" y="276.17057" style="fill: #00008b; stroke: #00008b"/>
    </g>
   </g>
   <g id="PathCollection_5">
    <g clip-path="url(#p2c73fa20ea)">
     <use xlink:href="#m07f2cd1b29" x="405.1224" y="124.209444" style="fill: #800000; stroke: #800000"/>
    </g>
   </g>
   <g id="PathCollection_6">
    <g clip-path="url(#p2c73fa20ea)">
     <use xlink:href="#m211504dd59" x="67.55743" y="90.927436" style="fill: #006400; stroke: #006400"/>
    </g>
   </g>
   <g id="PathCollection_7">
    <g clip-path="url(#p2c73fa20ea)">
     <use xlink:href="#m1d21620a34" x="219.519824" y="270.684503" style="fill: #00008b; stroke: #00008b"/>
    </g>
   </g>
   <g id="PathCollection_8">
    <g clip-path="url(#p2c73fa20ea)">
     <use xlink:href="#m07f2cd1b29" x="399.9888" y="124.209444" style="fill: #800000; stroke: #800000"/>
    </g>
   </g>
   <g id="PathCollection_9">
    <g clip-path="url(#p2c73fa20ea)">
     <use xlink:href="#m211504dd59" x="73.043497" y="90.927824" style="fill: #006400; stroke: #006400"/>
    </g>
   </g>
   <g id="PathCollection_10">
    <g clip-path="url(#p2c73fa20ea)">
     <use xlink:href="#m1d21620a34" x="219.519225" y="265.205866" style="fill: #00008b; stroke: #00008b"/>
    </g>
   </g>
   <g id="PathCollection_11">
    <g clip-path="url(#p2c73fa20ea)">
     <use xlink:href="#m07f2cd1b29" x="394.8552" y="124.209444" style="fill: #800000; stroke: #800000"/>
    </g>
   </g>
   <g id="PathCollection_12">
    <g clip-path="url(#p2c73fa20ea)">
     <use xlink:href="#m211504dd59" x="78.522134" y="90.927216" style="fill: #006400; stroke: #006400"/>
    </g>
   </g>
   <g id="PathCollection_13">
    <g clip-path="url(#p2c73fa20ea)">
     <use xlink:href="#m1d21620a34" x="219.51692" y="259.734717" style="fill: #00008b; stroke: #00008b"/>
    </g>
   </g>
   <g id="PathCollection_14">
    <g clip-path="url(#p2c73fa20ea)">
     <use xlink:href="#m07f2cd1b29" x="389.7216" y="124.209444" style="fill: #800000; stroke: #800000"/>
    </g>
   </g>
   <g id="PathCollection_15">
    <g clip-path="url(#p2c73fa20ea)">
     <use xlink:href="#m211504dd59" x="83.993283" y="90.924912" style="fill: #006400; stroke: #006400"/>
    </g>
   </g>
   <g id="PathCollection_16">
    <g clip-path="url(#p2c73fa20ea)">
     <use xlink:href="#m1d21620a34" x="219.517366" y="254.271061" style="fill: #00008b; stroke: #00008b"/>
    </g>
   </g>
   <g id="PathCollection_17">
    <g clip-path="url(#p2c73fa20ea)">
     <use xlink:href="#m07f2cd1b29" x="384.588029" y="124.226646" style="fill: #800000; stroke: #800000"/>
    </g>
   </g>
   <g id="PathCollection_18">
    <g clip-path="url(#p2c73fa20ea)">
     <use xlink:href="#m211504dd59" x="89.456899" y="90.946033" style="fill: #006400; stroke: #006400"/>
    </g>
   </g>
   <g id="PathCollection_19">
    <g clip-path="url(#p2c73fa20ea)">
     <use xlink:href="#m1d21620a34" x="219.533072" y="248.831301" style="fill: #00008b; stroke: #00008b"/>
    </g>
   </g>
   <g id="PathCollection_20">
    <g clip-path="url(#p2c73fa20ea)">
     <use xlink:href="#m07f2cd1b29" x="379.467815" y="124.228783" style="fill: #800000; stroke: #800000"/>
    </g>
   </g>
   <g id="PathCollection_21">
    <g clip-path="url(#p2c73fa20ea)">
     <use xlink:href="#m211504dd59" x="94.941323" y="90.958312" style="fill: #006400; stroke: #006400"/>
    </g>
   </g>
   <g id="PathCollection_22">
    <g clip-path="url(#p2c73fa20ea)">
     <use xlink:href="#m1d21620a34" x="219.585304" y="243.410799" style="fill: #00008b; stroke: #00008b"/>
    </g>
   </g>
   <g id="PathCollection_23">
    <g clip-path="url(#p2c73fa20ea)">
     <use xlink:href="#m07f2cd1b29" x="374.353855" y="124.223023" style="fill: #800000; stroke: #800000"/>
    </g>
   </g>
   <g id="PathCollection_24">
    <g clip-path="url(#p2c73fa20ea)">
     <use xlink:href="#m211504dd59" x="100.459639" y="90.956741" style="fill: #006400; stroke: #006400"/>
    </g>
   </g>
   <g id="PathCollection_25">
    <g clip-path="url(#p2c73fa20ea)">
     <use xlink:href="#m1d21620a34" x="219.673378" y="238.003217" style="fill: #00008b; stroke: #00008b"/>
    </g>
   </g>
   <g id="PathCollection_26">
    <g clip-path="url(#p2c73fa20ea)">
     <use xlink:href="#m07f2cd1b29" x="369.243465" y="124.210526" style="fill: #800000; stroke: #800000"/>
    </g>
   </g>
   <g id="PathCollection_27">
    <g clip-path="url(#p2c73fa20ea)">
     <use xlink:href="#m211504dd59" x="106.017862" y="90.93633" style="fill: #006400; stroke: #006400"/>
    </g>
   </g>
   <g id="PathCollection_28">
    <g clip-path="url(#p2c73fa20ea)">
     <use xlink:href="#m1d21620a34" x="219.797783" y="232.602652" style="fill: #00008b; stroke: #00008b"/>
    </g>
   </g>
   <g id="PathCollection_29">
    <g clip-path="url(#p2c73fa20ea)">
     <use xlink:href="#m07f2cd1b29" x="364.134824" y="124.193253" style="fill: #800000; stroke: #800000"/>
    </g>
   </g>
   <g id="PathCollection_30">
    <g clip-path="url(#p2c73fa20ea)">
     <use xlink:href="#m211504dd59" x="111.621478" y="90.894054" style="fill: #006400; stroke: #006400"/>
    </g>
   </g>
   <g id="PathCollection_31">
    <g clip-path="url(#p2c73fa20ea)">
     <use xlink:href="#m1d21620a34" x="219.952981" y="227.203858" style="fill: #00008b; stroke: #00008b"/>
    </g>
   </g>
   <g id="PathCollection_32">
    <g clip-path="url(#p2c73fa20ea)">
     <use xlink:href="#m07f2cd1b29" x="359.026427" y="124.172407" style="fill: #800000; stroke: #800000"/>
    </g>
   </g>
   <g id="PathCollection_33">
    <g clip-path="url(#p2c73fa20ea)">
     <use xlink:href="#m211504dd59" x="117.273625" y="90.828187" style="fill: #006400; stroke: #006400"/>
    </g>
   </g>
   <g id="PathCollection_34">
    <g clip-path="url(#p2c73fa20ea)">
     <use xlink:href="#m1d21620a34" x="220.131588" y="221.802396" style="fill: #00008b; stroke: #00008b"/>
    </g>
   </g>
   <g id="PathCollection_35">
    <g clip-path="url(#p2c73fa20ea)">
     <use xlink:href="#m07f2cd1b29" x="353.917521" y="124.148342" style="fill: #800000; stroke: #800000"/>
    </g>
   </g>
   <g id="PathCollection_36">
    <g clip-path="url(#p2c73fa20ea)">
     <use xlink:href="#m211504dd59" x="122.975819" y="90.738368" style="fill: #006400; stroke: #006400"/>
    </g>
   </g>
   <g id="PathCollection_37">
    <g clip-path="url(#p2c73fa20ea)">
     <use xlink:href="#m1d21620a34" x="220.318859" y="216.39364" style="fill: #00008b; stroke: #00008b"/>
    </g>
   </g>
   <g id="PathCollection_38">
    <g clip-path="url(#p2c73fa20ea)">
     <use xlink:href="#m07f2cd1b29" x="348.807766" y="124.121033" style="fill: #800000; stroke: #800000"/>
    </g>
   </g>
   <g id="PathCollection_39">
    <g clip-path="url(#p2c73fa20ea)">
     <use xlink:href="#m211504dd59" x="128.728021" y="90.620071" style="fill: #006400; stroke: #006400"/>
    </g>
   </g>
   <g id="PathCollection_40">
    <g clip-path="url(#p2c73fa20ea)">
     <use xlink:href="#m1d21620a34" x="220.48228" y="210.972911" style="fill: #00008b; stroke: #00008b"/>
    </g>
   </g>
   <g id="PathCollection_41">
    <g clip-path="url(#p2c73fa20ea)">
     <use xlink:href="#m07f2cd1b29" x="343.69703" y="124.09793" style="fill: #800000; stroke: #800000"/>
    </g>
   </g>
   <g id="PathCollection_42">
    <g clip-path="url(#p2c73fa20ea)">
     <use xlink:href="#m211504dd59" x="134.529467" y="90.481213" style="fill: #006400; stroke: #006400"/>
    </g>
   </g>
   <g id="PathCollection_43">
    <g clip-path="url(#p2c73fa20ea)">
     <use xlink:href="#m1d21620a34" x="220.608281" y="205.546438" style="fill: #00008b; stroke: #00008b"/>
    </g>
   </g>
   <g id="PathCollection_44">
    <g clip-path="url(#p2c73fa20ea)">
     <use xlink:href="#m07f2cd1b29" x="338.574015" y="124.078003" style="fill: #800000; stroke: #800000"/>
    </g>
   </g>
   <g id="PathCollection_45">
    <g clip-path="url(#p2c73fa20ea)">
     <use xlink:href="#m211504dd59" x="140.375" y="90.314022" style="fill: #006400; stroke: #006400"/>
    </g>
   </g>
   <g id="PathCollection_46">
    <g clip-path="url(#p2c73fa20ea)">
     <use xlink:href="#m1d21620a34" x="220.677724" y="200.113176" style="fill: #00008b; stroke: #00008b"/>
    </g>
   </g>
   <g id="PathCollection_47">
    <g clip-path="url(#p2c73fa20ea)">
     <use xlink:href="#m07f2cd1b29" x="333.441024" y="124.063078" style="fill: #800000; stroke: #800000"/>
    </g>
   </g>
   <g id="PathCollection_48">
    <g clip-path="url(#p2c73fa20ea)">
     <use xlink:href="#m211504dd59" x="146.263173" y="90.119426" style="fill: #006400; stroke: #006400"/>
    </g>
   </g>
   <g id="PathCollection_49">
    <g clip-path="url(#p2c73fa20ea)">
     <use xlink:href="#m1d21620a34" x="220.662194" y="194.670974" style="fill: #00008b; stroke: #00008b"/>
    </g>
   </g>
   <g id="PathCollection_50">
    <g clip-path="url(#p2c73fa20ea)">
     <use xlink:href="#m07f2cd1b29" x="328.299877" y="124.056274" style="fill: #800000; stroke: #800000"/>
    </g>
   </g>
   <g id="PathCollection_51">
    <g clip-path="url(#p2c73fa20ea)">
     <use xlink:href="#m211504dd59" x="152.191753" y="89.892863" style="fill: #006400; stroke: #006400"/>
    </g>
   </g>
   <g id="matplotlib.axis_1">
    <g id="xtick_1">
     <g id="line2d_1">
      <defs>
       <path id="m26abffb133" d="M 0 0 
L 0 3.5 
" style="stroke: #000000; stroke-width: 0.8"/>
      </defs>
      <g>
       <use xlink:href="#m26abffb133" x="57.6" y="286.128" style="stroke: #000000; stroke-width: 0.8"/>
      </g>
     </g>
     <g id="text_1">
      <!-- −20 -->
      <g transform="translate(47.047656 300.726437) scale(0.1 -0.1)">
       <defs>
        <path id="DejaVuSans-2212" d="M 678 2272 
L 4684 2272 
L 4684 1741 
L 678 1741 
L 678 2272 
z
" transform="scale(0.015625)"/>
        <path id="DejaVuSans-32" d="M 1228 531 
L 3431 531 
L 3431 0 
L 469 0 
L 469 531 
Q 828 903 1448 1529 
Q 2069 2156 2228 2338 
Q 2531 2678 2651 2914 
Q 2772 3150 2772 3378 
Q 2772 3750 2511 3984 
Q 2250 4219 1831 4219 
Q 1534 4219 1204 4116 
Q 875 4013 500 3803 
L 500 4441 
Q 881 4594 1212 4672 
Q 1544 4750 1819 4750 
Q 2544 4750 2975 4387 
Q 3406 4025 3406 3419 
Q 3406 3131 3298 2873 
Q 3191 2616 2906 2266 
Q 2828 2175 2409 1742 
Q 1991 1309 1228 531 
z
" transform="scale(0.015625)"/>
        <path id="DejaVuSans-30" d="M 2034 4250 
Q 1547 4250 1301 3770 
Q 1056 3291 1056 2328 
Q 1056 1369 1301 889 
Q 1547 409 2034 409 
Q 2525 409 2770 889 
Q 3016 1369 3016 2328 
Q 3016 3291 2770 3770 
Q 2525 4250 2034 4250 
z
M 2034 4750 
Q 2819 4750 3233 4129 
Q 3647 3509 3647 2328 
Q 3647 1150 3233 529 
Q 2819 -91 2034 -91 
Q 1250 -91 836 529 
Q 422 1150 422 2328 
Q 422 3509 836 4129 
Q 1250 4750 2034 4750 
z
" transform="scale(0.015625)"/>
       </defs>
       <use xlink:href="#DejaVuSans-2212"/>
       <use xlink:href="#DejaVuSans-32" x="83.789062"/>
       <use xlink:href="#DejaVuSans-30" x="147.412109"/>
      </g>
     </g>
    </g>
    <g id="xtick_2">
     <g id="line2d_2">
      <g>
       <use xlink:href="#m26abffb133" x="102.24" y="286.128" style="stroke: #000000; stroke-width: 0.8"/>
      </g>
     </g>
     <g id="text_2">
      <!-- −15 -->
      <g transform="translate(91.687656 300.726437) scale(0.1 -0.1)">
       <defs>
        <path id="DejaVuSans-31" d="M 794 531 
L 1825 531 
L 1825 4091 
L 703 3866 
L 703 4441 
L 1819 4666 
L 2450 4666 
L 2450 531 
L 3481 531 
L 3481 0 
L 794 0 
L 794 531 
z
" transform="scale(0.015625)"/>
        <path id="DejaVuSans-35" d="M 691 4666 
L 3169 4666 
L 3169 4134 
L 1269 4134 
L 1269 2991 
Q 1406 3038 1543 3061 
Q 1681 3084 1819 3084 
Q 2600 3084 3056 2656 
Q 3513 2228 3513 1497 
Q 3513 744 3044 326 
Q 2575 -91 1722 -91 
Q 1428 -91 1123 -41 
Q 819 9 494 109 
L 494 744 
Q 775 591 1075 516 
Q 1375 441 1709 441 
Q 2250 441 2565 725 
Q 2881 1009 2881 1497 
Q 2881 1984 2565 2268 
Q 2250 2553 1709 2553 
Q 1456 2553 1204 2497 
Q 953 2441 691 2322 
L 691 4666 
z
" transform="scale(0.015625)"/>
       </defs>
       <use xlink:href="#DejaVuSans-2212"/>
       <use xlink:href="#DejaVuSans-31" x="83.789062"/>
       <use xlink:href="#DejaVuSans-35" x="147.412109"/>
      </g>
     </g>
    </g>
    <g id="xtick_3">
     <g id="line2d_3">
      <g>
       <use xlink:href="#m26abffb133" x="146.88" y="286.128" style="stroke: #000000; stroke-width: 0.8"/>
      </g>
     </g>
     <g id="text_3">
      <!-- −10 -->
      <g transform="translate(136.327656 300.726437) scale(0.1 -0.1)">
       <use xlink:href="#DejaVuSans-2212"/>
       <use xlink:href="#DejaVuSans-31" x="83.789062"/>
       <use xlink:href="#DejaVuSans-30" x="147.412109"/>
      </g>
     </g>
    </g>
    <g id="xtick_4">
     <g id="line2d_4">
      <g>
       <use xlink:href="#m26abffb133" x="191.52" y="286.128" style="stroke: #000000; stroke-width: 0.8"/>
      </g>
     </g>
     <g id="text_4">
      <!-- −5 -->
      <g transform="translate(184.148906 300.726437) scale(0.1 -0.1)">
       <use xlink:href="#DejaVuSans-2212"/>
       <use xlink:href="#DejaVuSans-35" x="83.789062"/>
      </g>
     </g>
    </g>
    <g id="xtick_5">
     <g id="line2d_5">
      <g>
       <use xlink:href="#m26abffb133" x="236.16" y="286.128" style="stroke: #000000; stroke-width: 0.8"/>
      </g>
     </g>
     <g id="text_5">
      <!-- 0 -->
      <g transform="translate(232.97875 300.726437) scale(0.1 -0.1)">
       <use xlink:href="#DejaVuSans-30"/>
      </g>
     </g>
    </g>
    <g id="xtick_6">
     <g id="line2d_6">
      <g>
       <use xlink:href="#m26abffb133" x="280.8" y="286.128" style="stroke: #000000; stroke-width: 0.8"/>
      </g>
     </g>
     <g id="text_6">
      <!-- 5 -->
      <g transform="translate(277.61875 300.726437) scale(0.1 -0.1)">
       <use xlink:href="#DejaVuSans-35"/>
      </g>
     </g>
    </g>
    <g id="xtick_7">
     <g id="line2d_7">
      <g>
       <use xlink:href="#m26abffb133" x="325.44" y="286.128" style="stroke: #000000; stroke-width: 0.8"/>
      </g>
     </g>
     <g id="text_7">
      <!-- 10 -->
      <g transform="translate(319.0775 300.726437) scale(0.1 -0.1)">
       <use xlink:href="#DejaVuSans-31"/>
       <use xlink:href="#DejaVuSans-30" x="63.623047"/>
      </g>
     </g>
    </g>
    <g id="xtick_8">
     <g id="line2d_8">
      <g>
       <use xlink:href="#m26abffb133" x="370.08" y="286.128" style="stroke: #000000; stroke-width: 0.8"/>
      </g>
     </g>
     <g id="text_8">
      <!-- 15 -->
      <g transform="translate(363.7175 300.726437) scale(0.1 -0.1)">
       <use xlink:href="#DejaVuSans-31"/>
       <use xlink:href="#DejaVuSans-35" x="63.623047"/>
      </g>
     </g>
    </g>
    <g id="xtick_9">
     <g id="line2d_9">
      <g>
       <use xlink:href="#m26abffb133" x="414.72" y="286.128" style="stroke: #000000; stroke-width: 0.8"/>
      </g>
     </g>
     <g id="text_9">
      <!-- 20 -->
      <g transform="translate(408.3575 300.726437) scale(0.1 -0.1)">
       <use xlink:href="#DejaVuSans-32"/>
       <use xlink:href="#DejaVuSans-30" x="63.623047"/>
      </g>
     </g>
    </g>
   </g>
   <g id="matplotlib.axis_2">
    <g id="ytick_1">
     <g id="line2d_10">
      <defs>
       <path id="me8a5ce9141" d="M 0 0 
L -3.5 0 
" style="stroke: #000000; stroke-width: 0.8"/>
      </defs>
      <g>
       <use xlink:href="#me8a5ce9141" x="57.6" y="286.128" style="stroke: #000000; stroke-width: 0.8"/>
      </g>
     </g>
     <g id="text_10">
      <!-- −20 -->
      <g transform="translate(29.495313 289.927219) scale(0.1 -0.1)">
       <use xlink:href="#DejaVuSans-2212"/>
       <use xlink:href="#DejaVuSans-32" x="83.789062"/>
       <use xlink:href="#DejaVuSans-30" x="147.412109"/>
      </g>
     </g>
    </g>
    <g id="ytick_2">
     <g id="line2d_11">
      <g>
       <use xlink:href="#me8a5ce9141" x="57.6" y="241.488" style="stroke: #000000; stroke-width: 0.8"/>
      </g>
     </g>
     <g id="text_11">
      <!-- −15 -->
      <g transform="translate(29.495313 245.287219) scale(0.1 -0.1)">
       <use xlink:href="#DejaVuSans-2212"/>
       <use xlink:href="#DejaVuSans-31" x="83.789062"/>
       <use xlink:href="#DejaVuSans-35" x="147.412109"/>
      </g>
     </g>
    </g>
    <g id="ytick_3">
     <g id="line2d_12">
      <g>
       <use xlink:href="#me8a5ce9141" x="57.6" y="196.848" style="stroke: #000000; stroke-width: 0.8"/>
      </g>
     </g>
     <g id="text_12">
      <!-- −10 -->
      <g transform="translate(29.495313 200.647219) scale(0.1 -0.1)">
       <use xlink:href="#DejaVuSans-2212"/>
       <use xlink:href="#DejaVuSans-31" x="83.789062"/>
       <use xlink:href="#DejaVuSans-30" x="147.412109"/>
      </g>
     </g>
    </g>
    <g id="ytick_4">
     <g id="line2d_13">
      <g>
       <use xlink:href="#me8a5ce9141" x="57.6" y="152.208" style="stroke: #000000; stroke-width: 0.8"/>
      </g>
     </g>
     <g id="text_13">
      <!-- −5 -->
      <g transform="translate(35.857813 156.007219) scale(0.1 -0.1)">
       <use xlink:href="#DejaVuSans-2212"/>
       <use xlink:href="#DejaVuSans-35" x="83.789062"/>
      </g>
     </g>
    </g>
    <g id="ytick_5">
     <g id="line2d_14">
      <g>
       <use xlink:href="#me8a5ce9141" x="57.6" y="107.568" style="stroke: #000000; stroke-width: 0.8"/>
      </g>
     </g>
     <g id="text_14">
      <!-- 0 -->
      <g transform="translate(44.2375 111.367219) scale(0.1 -0.1)">
       <use xlink:href="#DejaVuSans-30"/>
      </g>
     </g>
    </g>
    <g id="ytick_6">
     <g id="line2d_15">
      <g>
       <use xlink:href="#me8a5ce9141" x="57.6" y="62.928" style="stroke: #000000; stroke-width: 0.8"/>
      </g>
     </g>
     <g id="text_15">
      <!-- 5 -->
      <g transform="translate(44.2375 66.727219) scale(0.1 -0.1)">
       <use xlink:href="#DejaVuSans-35"/>
      </g>
     </g>
    </g>
   </g>
   <g id="line2d_16">
    <path d="M 276.336 346.6 
L 276.336 147.744 
" clip-path="url(#p2c73fa20ea)" style="fill: none; stroke: #000000; stroke-width: 0.25; stroke-linecap: square"/>
   </g>
   <g id="line2d_17">
    <path d="M 276.336 147.744 
L 461.8 147.744 
" clip-path="url(#p2c73fa20ea)" style="fill: none; stroke: #000000; stroke-width: 0.25; stroke-linecap: square"/>
   </g>
   <g id="line2d_18">
    <path d="M -1 67.392 
L 461.8 67.392 
" clip-path="url(#p2c73fa20ea)" style="fill: none; stroke: #000000; stroke-width: 0.25; stroke-linecap: square"/>
   </g>
   <g id="line2d_19">
    <path d="M 195.984 346.6 
L 195.984 147.744 
" clip-path="url(#p2c73fa20ea)" style="fill: none; stroke: #000000; stroke-width: 0.25; stroke-linecap: square"/>
   </g>
   <g id="line2d_20">
    <path d="M 195.984 147.744 
L -1 147.744 
" clip-path="url(#p2c73fa20ea)" style="fill: none; stroke: #000000; stroke-width: 0.25; stroke-linecap: square"/>
   </g>
   <g id="line2d_21">
    <path d="M 276.336 107.568 
L 461.8 107.568 
" clip-path="url(#p2c73fa20ea)" style="fill: none; stroke-dasharray: 0.925,0.4; stroke-dashoffset: 0; stroke: #000000; stroke-width: 0.25"/>
   </g>
   <g id="line2d_22">
    <path d="M 195.984 107.568 
L -1 107.568 
" clip-path="url(#p2c73fa20ea)" style="fill: none; stroke-dasharray: 0.925,0.4; stroke-dashoffset: 0; stroke: #000000; stroke-width: 0.25"/>
   </g>
   <g id="line2d_23">
    <path d="M 236.16 346.6 
L 236.16 147.744 
" clip-path="url(#p2c73fa20ea)" style="fill: none; stroke-dasharray: 0.925,0.4; stroke-dashoffset: 0; stroke: #000000; stroke-width: 0.25"/>
   </g>
   <g id="line2d_24">
    <path d="M 220.677724 200.113176 
L 220.662194 194.670974 
L 220.518643 189.2196 
L 220.1896 183.762945 
L 219.624422 178.309994 
L 218.777158 172.875562 
L 217.618171 167.478232 
L 216.151792 162.132675 
L 214.434339 156.836038 
L 212.578602 151.55707 
L 210.743151 146.239313 
L 209.171813 140.80392 
L 208.119857 135.209374 
L 208.049028 129.480495 
L 208.977943 123.787777 
L 210.578293 118.204003 
L 212.8436 112.809272 
L 215.757979 107.685302 
L 219.293723 102.914371 
L 223.410928 98.578023 
L 228.056442 94.75374 
L 233.165235 91.512538 
L 238.661328 88.916088 
L 244.459342 87.013168 
L 250.468487 85.843884 
L 256.59231 85.433813 
L 262.731451 85.794806 
L 268.83543 86.615205 
L 274.940574 87.474427 
L 281.045573 88.363144 
L 287.151203 89.260493 
" clip-path="url(#p2c73fa20ea)" style="fill: none; stroke: #ff0000; stroke-width: 0.25; stroke-linecap: square"/>
   </g>
   <g id="line2d_25">
    <path d="M 333.441024 124.063078 
L 328.299877 124.056274 
L 323.152076 124.061529 
L 317.99799 124.086506 
L 312.838067 124.138421 
L 307.672885 124.225928 
L 302.503236 124.359176 
L 297.330229 124.549769 
L 292.15542 124.810567 
L 286.980946 125.155286 
L 281.809628 125.59781 
L 276.644988 126.151089 
L 271.491081 126.825611 
L 266.352032 127.627316 
L 261.231148 128.554902 
L 256.129544 129.596586 
L 251.044425 130.726435 
L 245.967438 131.900423 
L 240.844976 132.864002 
L 235.631981 132.850337 
L 230.520014 131.82825 
L 225.473249 130.522295 
L 220.386629 129.382628 
L 215.27601 128.357585 
L 210.144307 127.445901 
L 204.994038 126.64787 
L 199.828693 125.956302 
L 194.652196 125.35599 
L 189.468255 124.825607 
L 184.280047 124.340064 
L 179.090242 123.872582 
" clip-path="url(#p2c73fa20ea)" style="fill: none; stroke: #ff0000; stroke-width: 0.25; stroke-linecap: square"/>
   </g>
   <g id="line2d_26">
    <path d="M 146.263173 90.119426 
L 152.191753 89.892863 
L 158.156641 89.615269 
L 164.155298 89.274096 
L 170.185248 88.864652 
L 176.244119 88.386801 
L 182.329988 87.846859 
L 188.441829 87.260036 
L 194.579983 86.653588 
L 200.746368 86.070924 
L 206.943891 85.577121 
L 213.174093 85.27059 
L 219.429283 85.272376 
L 225.680554 85.744989 
L 231.849831 86.914016 
L 237.748551 89.082169 
L 243.227235 92.16224 
L 248.264369 95.913613 
L 252.772423 100.273534 
L 256.67473 105.167337 
L 259.911345 110.508308 
L 262.434008 116.205798 
L 264.211313 122.164432 
L 265.216497 128.289032 
L 265.437229 134.481512 
L 264.874073 140.643498 
L 263.539629 146.678045 
L 261.458067 152.491055 
L 258.667435 157.99406 
L 255.422891 163.238959 
L 252.210552 168.502064 
" clip-path="url(#p2c73fa20ea)" style="fill: none; stroke: #ff0000; stroke-width: 0.25; stroke-linecap: square"/>
   </g>
   <g id="patch_6">
    <path d="M 57.6 286.128 
L 57.6 62.928 
" style="fill: none; stroke: #000000; stroke-width: 0.8; stroke-linejoin: miter; stroke-linecap: square"/>
   </g>
   <g id="patch_7">
    <path d="M 414.72 286.128 
L 414.72 62.928 
" style="fill: none; stroke: #000000; stroke-width: 0.8; stroke-linejoin: miter; stroke-linecap: square"/>
   </g>
   <g id="patch_8">
    <path d="M 57.6 286.128 
L 414.72 286.128 
" style="fill: none; stroke: #000000; stroke-width: 0.8; stroke-linejoin: miter; stroke-linecap: square"/>
   </g>
   <g id="patch_9">
    <path d="M 57.6 62.928 
L 414.72 62.928 
" style="fill: none; stroke: #000000; stroke-width: 0.8; stroke-linejoin: miter; stroke-linecap: square"/>
   </g>
   <g id="text_16">
    <!-- Time:  15 ms -->
    <g transform="translate(296.106688 74.088) scale(0.1 -0.1)">
     <defs>
      <path id="DejaVuSans-54" d="M -19 4666 
L 3928 4666 
L 3928 4134 
L 2272 4134 
L 2272 0 
L 1638 0 
L 1638 4134 
L -19 4134 
L -19 4666 
z
" transform="scale(0.015625)"/>
      <path id="DejaVuSans-69" d="M 603 3500 
L 1178 3500 
L 1178 0 
L 603 0 
L 603 3500 
z
M 603 4863 
L 1178 4863 
L 1178 4134 
L 603 4134 
L 603 4863 
z
" transform="scale(0.015625)"/>
      <path id="DejaVuSans-6d" d="M 3328 2828 
Q 3544 3216 3844 3400 
Q 4144 3584 4550 3584 
Q 5097 3584 5394 3201 
Q 5691 2819 5691 2113 
L 5691 0 
L 5113 0 
L 5113 2094 
Q 5113 2597 4934 2840 
Q 4756 3084 4391 3084 
Q 3944 3084 3684 2787 
Q 3425 2491 3425 1978 
L 3425 0 
L 2847 0 
L 2847 2094 
Q 2847 2600 2669 2842 
Q 2491 3084 2119 3084 
Q 1678 3084 1418 2786 
Q 1159 2488 1159 1978 
L 1159 0 
L 581 0 
L 581 3500 
L 1159 3500 
L 1159 2956 
Q 1356 3278 1631 3431 
Q 1906 3584 2284 3584 
Q 2666 3584 2933 3390 
Q 3200 3197 3328 2828 
z
" transform="scale(0.015625)"/>
      <path id="DejaVuSans-65" d="M 3597 1894 
L 3597 1613 
L 953 1613 
Q 991 1019 1311 708 
Q 1631 397 2203 397 
Q 2534 397 2845 478 
Q 3156 559 3463 722 
L 3463 178 
Q 3153 47 2828 -22 
Q 2503 -91 2169 -91 
Q 1331 -91 842 396 
Q 353 884 353 1716 
Q 353 2575 817 3079 
Q 1281 3584 2069 3584 
Q 2775 3584 3186 3129 
Q 3597 2675 3597 1894 
z
M 3022 2063 
Q 3016 2534 2758 2815 
Q 2500 3097 2075 3097 
Q 1594 3097 1305 2825 
Q 1016 2553 972 2059 
L 3022 2063 
z
" transform="scale(0.015625)"/>
      <path id="DejaVuSans-3a" d="M 750 794 
L 1409 794 
L 1409 0 
L 750 0 
L 750 794 
z
M 750 3309 
L 1409 3309 
L 1409 2516 
L 750 2516 
L 750 3309 
z
" transform="scale(0.015625)"/>
      <path id="DejaVuSans-20" transform="scale(0.015625)"/>
      <path id="DejaVuSans-73" d="M 2834 3397 
L 2834 2853 
Q 2591 2978 2328 3040 
Q 2066 3103 1784 3103 
Q 1356 3103 1142 2972 
Q 928 2841 928 2578 
Q 928 2378 1081 2264 
Q 1234 2150 1697 2047 
L 1894 2003 
Q 2506 1872 2764 1633 
Q 3022 1394 3022 966 
Q 3022 478 2636 193 
Q 2250 -91 1575 -91 
Q 1294 -91 989 -36 
Q 684 19 347 128 
L 347 722 
Q 666 556 975 473 
Q 1284 391 1588 391 
Q 1994 391 2212 530 
Q 2431 669 2431 922 
Q 2431 1156 2273 1281 
Q 2116 1406 1581 1522 
L 1381 1569 
Q 847 1681 609 1914 
Q 372 2147 372 2553 
Q 372 3047 722 3315 
Q 1072 3584 1716 3584 
Q 2034 3584 2315 3537 
Q 2597 3491 2834 3397 
z
" transform="scale(0.015625)"/>
     </defs>
     <use xlink:href="#DejaVuSans-54"/>
     <use xlink:href="#DejaVuSans-69" x="57.958984"/>
     <use xlink:href="#DejaVuSans-6d" x="85.742188"/>
     <use xlink:href="#DejaVuSans-65" x="183.154297"/>
     <use xlink:href="#DejaVuSans-3a" x="244.677734"/>
     <use xlink:href="#DejaVuSans-20" x="278.369141"/>
     <use xlink:href="#DejaVuSans-20" x="310.15625"/>
     <use xlink:href="#DejaVuSans-31" x="341.943359"/>
     <use xlink:href="#DejaVuSans-35" x="405.566406"/>
     <use xlink:href="#DejaVuSans-20" x="469.189453"/>
     <use xlink:href="#DejaVuSans-6d" x="500.976562"/>
     <use xlink:href="#DejaVuSans-73" x="598.388672"/>
    </g>
   </g>
  </g>
 </g>
 <defs>
  <clipPath id="p2c73fa20ea">
   <rect x="57.6" y="62.928" width="357.12" height="223.2"/>
  </clipPath>
 </defs>
</svg>
