<?xml version="1.0" encoding="utf-8" standalone="no"?>
<!DOCTYPE svg PUBLIC "-//W3C//DTD SVG 1.1//EN"
  "http://www.w3.org/Graphics/SVG/1.1/DTD/svg11.dtd">
<svg xmlns:xlink="http://www.w3.org/1999/xlink" width="460.8pt" height="345.6pt" viewBox="0 0 460.8 345.6" xmlns="http://www.w3.org/2000/svg" version="1.1">
 <metadata>
  <rdf:RDF xmlns:dc="http://purl.org/dc/elements/1.1/" xmlns:cc="http://creativecommons.org/ns#" xmlns:rdf="http://www.w3.org/1999/02/22-rdf-syntax-ns#">
   <cc:Work>
    <dc:type rdf:resource="http://purl.org/dc/dcmitype/StillImage"/>
    <dc:date>2024-01-20T23:47:50.472863</dc:date>
    <dc:format>image/svg+xml</dc:format>
    <dc:creator>
     <cc:Agent>
      <dc:title>Matplotlib v3.8.2, https://matplotlib.org/</dc:title>
     </cc:Agent>
    </dc:creator>
   </cc:Work>
  </rdf:RDF>
 </metadata>
 <defs>
  <style type="text/css">*{stroke-linejoin: round; stroke-linecap: butt}</style>
 </defs>
 <g id="figure_1">
  <g id="patch_1">
   <path d="M 0 345.6 
L 460.8 345.6 
L 460.8 0 
L 0 0 
z
" style="fill: #ffffff"/>
  </g>
  <g id="axes_1">
   <g id="patch_2">
    <path d="M 57.6 286.128 
L 414.72 286.128 
L 414.72 62.928 
L 57.6 62.928 
z
" style="fill: #ffffff"/>
   </g>
   <g id="patch_3">
    <path d="M 226.142561 107.633654 
L 248.146987 85.447109 
L 237.370665 74.759245 
L 215.36624 96.94579 
z
" clip-path="url(#p790e8c3327)" style="fill: #00008b"/>
   </g>
   <g id="patch_4">
    <path d="M 241.868941 123.882612 
L 210.75338 121.008693 
L 209.357477 136.121965 
L 240.473037 138.995884 
z
" clip-path="url(#p790e8c3327)" style="fill: #800000"/>
   </g>
   <g id="patch_5">
    <path d="M 245.802179 107.230821 
L 264.692087 132.122765 
L 276.78246 122.947667 
L 257.892552 98.055723 
z
" clip-path="url(#p790e8c3327)" style="fill: #006400"/>
   </g>
   <g id="PathCollection_1">
    <defs>
     <path id="mb1b7282c1d" d="M 0 0.158114 
C 0.041932 0.158114 0.082153 0.141454 0.111803 0.111803 
C 0.141454 0.082153 0.158114 0.041932 0.158114 0 
C 0.158114 -0.041932 0.141454 -0.082153 0.111803 -0.111803 
C 0.082153 -0.141454 0.041932 -0.158114 0 -0.158114 
C -0.041932 -0.158114 -0.082153 -0.141454 -0.111803 -0.111803 
C -0.141454 -0.082153 -0.158114 -0.041932 -0.158114 0 
C -0.158114 0.041932 -0.141454 0.082153 -0.111803 0.111803 
C -0.082153 0.141454 -0.041932 0.158114 0 0.158114 
z
" style="stroke: #00008b"/>
    </defs>
    <g clip-path="url(#p790e8c3327)">
     <use xlink:href="#mb1b7282c1d" x="219.519436" y="276.17057" style="fill: #00008b; stroke: #00008b"/>
    </g>
   </g>
   <g id="PathCollection_2">
    <defs>
     <path id="m356f76e4be" d="M 0 0.158114 
C 0.041932 0.158114 0.082153 0.141454 0.111803 0.111803 
C 0.141454 0.082153 0.158114 0.041932 0.158114 0 
C 0.158114 -0.041932 0.141454 -0.082153 0.111803 -0.111803 
C 0.082153 -0.141454 0.041932 -0.158114 0 -0.158114 
C -0.041932 -0.158114 -0.082153 -0.141454 -0.111803 -0.111803 
C -0.141454 -0.082153 -0.158114 -0.041932 -0.158114 0 
C -0.158114 0.041932 -0.141454 0.082153 -0.111803 0.111803 
C -0.082153 0.141454 -0.041932 0.158114 0 0.158114 
z
" style="stroke: #800000"/>
    </defs>
    <g clip-path="url(#p790e8c3327)">
     <use xlink:href="#m356f76e4be" x="405.1224" y="124.209444" style="fill: #800000; stroke: #800000"/>
    </g>
   </g>
   <g id="PathCollection_3">
    <defs>
     <path id="m2562d316ae" d="M 0 0.158114 
C 0.041932 0.158114 0.082153 0.141454 0.111803 0.111803 
C 0.141454 0.082153 0.158114 0.041932 0.158114 0 
C 0.158114 -0.041932 0.141454 -0.082153 0.111803 -0.111803 
C 0.082153 -0.141454 0.041932 -0.158114 0 -0.158114 
C -0.041932 -0.158114 -0.082153 -0.141454 -0.111803 -0.111803 
C -0.141454 -0.082153 -0.158114 -0.041932 -0.158114 0 
C -0.158114 0.041932 -0.141454 0.082153 -0.111803 0.111803 
C -0.082153 0.141454 -0.041932 0.158114 0 0.158114 
z
" style="stroke: #006400"/>
    </defs>
    <g clip-path="url(#p790e8c3327)">
     <use xlink:href="#m2562d316ae" x="67.55743" y="90.927436" style="fill: #006400; stroke: #006400"/>
    </g>
   </g>
   <g id="PathCollection_4">
    <g clip-path="url(#p790e8c3327)">
     <use xlink:href="#mb1b7282c1d" x="219.519436" y="276.17057" style="fill: #00008b; stroke: #00008b"/>
    </g>
   </g>
   <g id="PathCollection_5">
    <g clip-path="url(#p790e8c3327)">
     <use xlink:href="#m356f76e4be" x="405.1224" y="124.209444" style="fill: #800000; stroke: #800000"/>
    </g>
   </g>
   <g id="PathCollection_6">
    <g clip-path="url(#p790e8c3327)">
     <use xlink:href="#m2562d316ae" x="67.55743" y="90.927436" style="fill: #006400; stroke: #006400"/>
    </g>
   </g>
   <g id="PathCollection_7">
    <g clip-path="url(#p790e8c3327)">
     <use xlink:href="#mb1b7282c1d" x="219.519824" y="270.684503" style="fill: #00008b; stroke: #00008b"/>
    </g>
   </g>
   <g id="PathCollection_8">
    <g clip-path="url(#p790e8c3327)">
     <use xlink:href="#m356f76e4be" x="399.9888" y="124.209444" style="fill: #800000; stroke: #800000"/>
    </g>
   </g>
   <g id="PathCollection_9">
    <g clip-path="url(#p790e8c3327)">
     <use xlink:href="#m2562d316ae" x="73.043497" y="90.927824" style="fill: #006400; stroke: #006400"/>
    </g>
   </g>
   <g id="PathCollection_10">
    <g clip-path="url(#p790e8c3327)">
     <use xlink:href="#mb1b7282c1d" x="219.519225" y="265.205866" style="fill: #00008b; stroke: #00008b"/>
    </g>
   </g>
   <g id="PathCollection_11">
    <g clip-path="url(#p790e8c3327)">
     <use xlink:href="#m356f76e4be" x="394.8552" y="124.209444" style="fill: #800000; stroke: #800000"/>
    </g>
   </g>
   <g id="PathCollection_12">
    <g clip-path="url(#p790e8c3327)">
     <use xlink:href="#m2562d316ae" x="78.522134" y="90.927216" style="fill: #006400; stroke: #006400"/>
    </g>
   </g>
   <g id="PathCollection_13">
    <g clip-path="url(#p790e8c3327)">
     <use xlink:href="#mb1b7282c1d" x="219.51692" y="259.734717" style="fill: #00008b; stroke: #00008b"/>
    </g>
   </g>
   <g id="PathCollection_14">
    <g clip-path="url(#p790e8c3327)">
     <use xlink:href="#m356f76e4be" x="389.7216" y="124.209444" style="fill: #800000; stroke: #800000"/>
    </g>
   </g>
   <g id="PathCollection_15">
    <g clip-path="url(#p790e8c3327)">
     <use xlink:href="#m2562d316ae" x="83.993283" y="90.924912" style="fill: #006400; stroke: #006400"/>
    </g>
   </g>
   <g id="PathCollection_16">
    <g clip-path="url(#p790e8c3327)">
     <use xlink:href="#mb1b7282c1d" x="219.517366" y="254.271061" style="fill: #00008b; stroke: #00008b"/>
    </g>
   </g>
   <g id="PathCollection_17">
    <g clip-path="url(#p790e8c3327)">
     <use xlink:href="#m356f76e4be" x="384.588029" y="124.226646" style="fill: #800000; stroke: #800000"/>
    </g>
   </g>
   <g id="PathCollection_18">
    <g clip-path="url(#p790e8c3327)">
     <use xlink:href="#m2562d316ae" x="89.456899" y="90.946033" style="fill: #006400; stroke: #006400"/>
    </g>
   </g>
   <g id="PathCollection_19">
    <g clip-path="url(#p790e8c3327)">
     <use xlink:href="#mb1b7282c1d" x="219.533072" y="248.831301" style="fill: #00008b; stroke: #00008b"/>
    </g>
   </g>
   <g id="PathCollection_20">
    <g clip-path="url(#p790e8c3327)">
     <use xlink:href="#m356f76e4be" x="379.467815" y="124.228783" style="fill: #800000; stroke: #800000"/>
    </g>
   </g>
   <g id="PathCollection_21">
    <g clip-path="url(#p790e8c3327)">
     <use xlink:href="#m2562d316ae" x="94.941323" y="90.958312" style="fill: #006400; stroke: #006400"/>
    </g>
   </g>
   <g id="PathCollection_22">
    <g clip-path="url(#p790e8c3327)">
     <use xlink:href="#mb1b7282c1d" x="219.585304" y="243.410799" style="fill: #00008b; stroke: #00008b"/>
    </g>
   </g>
   <g id="PathCollection_23">
    <g clip-path="url(#p790e8c3327)">
     <use xlink:href="#m356f76e4be" x="374.353855" y="124.223023" style="fill: #800000; stroke: #800000"/>
    </g>
   </g>
   <g id="PathCollection_24">
    <g clip-path="url(#p790e8c3327)">
     <use xlink:href="#m2562d316ae" x="100.459639" y="90.956741" style="fill: #006400; stroke: #006400"/>
    </g>
   </g>
   <g id="PathCollection_25">
    <g clip-path="url(#p790e8c3327)">
     <use xlink:href="#mb1b7282c1d" x="219.673378" y="238.003217" style="fill: #00008b; stroke: #00008b"/>
    </g>
   </g>
   <g id="PathCollection_26">
    <g clip-path="url(#p790e8c3327)">
     <use xlink:href="#m356f76e4be" x="369.243465" y="124.210526" style="fill: #800000; stroke: #800000"/>
    </g>
   </g>
   <g id="PathCollection_27">
    <g clip-path="url(#p790e8c3327)">
     <use xlink:href="#m2562d316ae" x="106.017862" y="90.93633" style="fill: #006400; stroke: #006400"/>
    </g>
   </g>
   <g id="PathCollection_28">
    <g clip-path="url(#p790e8c3327)">
     <use xlink:href="#mb1b7282c1d" x="219.797783" y="232.602652" style="fill: #00008b; stroke: #00008b"/>
    </g>
   </g>
   <g id="PathCollection_29">
    <g clip-path="url(#p790e8c3327)">
     <use xlink:href="#m356f76e4be" x="364.134824" y="124.193253" style="fill: #800000; stroke: #800000"/>
    </g>
   </g>
   <g id="PathCollection_30">
    <g clip-path="url(#p790e8c3327)">
     <use xlink:href="#m2562d316ae" x="111.621478" y="90.894054" style="fill: #006400; stroke: #006400"/>
    </g>
   </g>
   <g id="PathCollection_31">
    <g clip-path="url(#p790e8c3327)">
     <use xlink:href="#mb1b7282c1d" x="219.952981" y="227.203858" style="fill: #00008b; stroke: #00008b"/>
    </g>
   </g>
   <g id="PathCollection_32">
    <g clip-path="url(#p790e8c3327)">
     <use xlink:href="#m356f76e4be" x="359.026427" y="124.172407" style="fill: #800000; stroke: #800000"/>
    </g>
   </g>
   <g id="PathCollection_33">
    <g clip-path="url(#p790e8c3327)">
     <use xlink:href="#m2562d316ae" x="117.273625" y="90.828187" style="fill: #006400; stroke: #006400"/>
    </g>
   </g>
   <g id="PathCollection_34">
    <g clip-path="url(#p790e8c3327)">
     <use xlink:href="#mb1b7282c1d" x="220.131588" y="221.802396" style="fill: #00008b; stroke: #00008b"/>
    </g>
   </g>
   <g id="PathCollection_35">
    <g clip-path="url(#p790e8c3327)">
     <use xlink:href="#m356f76e4be" x="353.917521" y="124.148342" style="fill: #800000; stroke: #800000"/>
    </g>
   </g>
   <g id="PathCollection_36">
    <g clip-path="url(#p790e8c3327)">
     <use xlink:href="#m2562d316ae" x="122.975819" y="90.738368" style="fill: #006400; stroke: #006400"/>
    </g>
   </g>
   <g id="PathCollection_37">
    <g clip-path="url(#p790e8c3327)">
     <use xlink:href="#mb1b7282c1d" x="220.318859" y="216.39364" style="fill: #00008b; stroke: #00008b"/>
    </g>
   </g>
   <g id="PathCollection_38">
    <g clip-path="url(#p790e8c3327)">
     <use xlink:href="#m356f76e4be" x="348.807766" y="124.121033" style="fill: #800000; stroke: #800000"/>
    </g>
   </g>
   <g id="PathCollection_39">
    <g clip-path="url(#p790e8c3327)">
     <use xlink:href="#m2562d316ae" x="128.728021" y="90.620071" style="fill: #006400; stroke: #006400"/>
    </g>
   </g>
   <g id="PathCollection_40">
    <g clip-path="url(#p790e8c3327)">
     <use xlink:href="#mb1b7282c1d" x="220.48228" y="210.972911" style="fill: #00008b; stroke: #00008b"/>
    </g>
   </g>
   <g id="PathCollection_41">
    <g clip-path="url(#p790e8c3327)">
     <use xlink:href="#m356f76e4be" x="343.69703" y="124.09793" style="fill: #800000; stroke: #800000"/>
    </g>
   </g>
   <g id="PathCollection_42">
    <g clip-path="url(#p790e8c3327)">
     <use xlink:href="#m2562d316ae" x="134.529467" y="90.481213" style="fill: #006400; stroke: #006400"/>
    </g>
   </g>
   <g id="PathCollection_43">
    <g clip-path="url(#p790e8c3327)">
     <use xlink:href="#mb1b7282c1d" x="220.608281" y="205.546438" style="fill: #00008b; stroke: #00008b"/>
    </g>
   </g>
   <g id="PathCollection_44">
    <g clip-path="url(#p790e8c3327)">
     <use xlink:href="#m356f76e4be" x="338.574015" y="124.078003" style="fill: #800000; stroke: #800000"/>
    </g>
   </g>
   <g id="PathCollection_45">
    <g clip-path="url(#p790e8c3327)">
     <use xlink:href="#m2562d316ae" x="140.375" y="90.314022" style="fill: #006400; stroke: #006400"/>
    </g>
   </g>
   <g id="PathCollection_46">
    <g clip-path="url(#p790e8c3327)">
     <use xlink:href="#mb1b7282c1d" x="220.677724" y="200.113176" style="fill: #00008b; stroke: #00008b"/>
    </g>
   </g>
   <g id="PathCollection_47">
    <g clip-path="url(#p790e8c3327)">
     <use xlink:href="#m356f76e4be" x="333.441024" y="124.063078" style="fill: #800000; stroke: #800000"/>
    </g>
   </g>
   <g id="PathCollection_48">
    <g clip-path="url(#p790e8c3327)">
     <use xlink:href="#m2562d316ae" x="146.263173" y="90.119426" style="fill: #006400; stroke: #006400"/>
    </g>
   </g>
   <g id="PathCollection_49">
    <g clip-path="url(#p790e8c3327)">
     <use xlink:href="#mb1b7282c1d" x="220.662194" y="194.670974" style="fill: #00008b; stroke: #00008b"/>
    </g>
   </g>
   <g id="PathCollection_50">
    <g clip-path="url(#p790e8c3327)">
     <use xlink:href="#m356f76e4be" x="328.299877" y="124.056274" style="fill: #800000; stroke: #800000"/>
    </g>
   </g>
   <g id="PathCollection_51">
    <g clip-path="url(#p790e8c3327)">
     <use xlink:href="#m2562d316ae" x="152.191753" y="89.892863" style="fill: #006400; stroke: #006400"/>
    </g>
   </g>
   <g id="PathCollection_52">
    <g clip-path="url(#p790e8c3327)">
     <use xlink:href="#mb1b7282c1d" x="220.519168" y="189.219586" style="fill: #00008b; stroke: #00008b"/>
    </g>
   </g>
   <g id="PathCollection_53">
    <g clip-path="url(#p790e8c3327)">
     <use xlink:href="#m356f76e4be" x="323.152078" y="124.063703" style="fill: #800000; stroke: #800000"/>
    </g>
   </g>
   <g id="PathCollection_54">
    <g clip-path="url(#p790e8c3327)">
     <use xlink:href="#m2562d316ae" x="158.156941" y="89.621793" style="fill: #006400; stroke: #006400"/>
    </g>
   </g>
   <g id="PathCollection_55">
    <g clip-path="url(#p790e8c3327)">
     <use xlink:href="#mb1b7282c1d" x="220.198494" y="183.761987" style="fill: #00008b; stroke: #00008b"/>
    </g>
   </g>
   <g id="PathCollection_56">
    <g clip-path="url(#p790e8c3327)">
     <use xlink:href="#m356f76e4be" x="317.998595" y="124.093912" style="fill: #800000; stroke: #800000"/>
    </g>
   </g>
   <g id="PathCollection_57">
    <g clip-path="url(#p790e8c3327)">
     <use xlink:href="#m2562d316ae" x="164.154442" y="89.29578" style="fill: #006400; stroke: #006400"/>
    </g>
   </g>
   <g id="PathCollection_58">
    <g clip-path="url(#p790e8c3327)">
     <use xlink:href="#mb1b7282c1d" x="219.646167" y="178.306431" style="fill: #00008b; stroke: #00008b"/>
    </g>
   </g>
   <g id="PathCollection_59">
    <g clip-path="url(#p790e8c3327)">
     <use xlink:href="#m356f76e4be" x="312.84003" y="124.154366" style="fill: #800000; stroke: #800000"/>
    </g>
   </g>
   <g id="PathCollection_60">
    <g clip-path="url(#p790e8c3327)">
     <use xlink:href="#m2562d316ae" x="170.179725" y="88.907786" style="fill: #006400; stroke: #006400"/>
    </g>
   </g>
   <g id="PathCollection_61">
    <g clip-path="url(#p790e8c3327)">
     <use xlink:href="#mb1b7282c1d" x="218.806129" y="172.868471" style="fill: #00008b; stroke: #00008b"/>
    </g>
   </g>
   <g id="PathCollection_62">
    <g clip-path="url(#p790e8c3327)">
     <use xlink:href="#m356f76e4be" x="307.677046" y="124.256584" style="fill: #800000; stroke: #800000"/>
    </g>
   </g>
   <g id="PathCollection_63">
    <g clip-path="url(#p790e8c3327)">
     <use xlink:href="#m2562d316ae" x="176.228515" y="88.458847" style="fill: #006400; stroke: #006400"/>
    </g>
   </g>
   <g id="PathCollection_64">
    <g clip-path="url(#p790e8c3327)">
     <use xlink:href="#mb1b7282c1d" x="217.651528" y="167.466572" style="fill: #00008b; stroke: #00008b"/>
    </g>
   </g>
   <g id="PathCollection_65">
    <g clip-path="url(#p790e8c3327)">
     <use xlink:href="#m356f76e4be" x="302.510347" y="124.409524" style="fill: #800000; stroke: #800000"/>
    </g>
   </g>
   <g id="PathCollection_66">
    <g clip-path="url(#p790e8c3327)">
     <use xlink:href="#m2562d316ae" x="182.296847" y="87.951848" style="fill: #006400; stroke: #006400"/>
    </g>
   </g>
   <g id="PathCollection_67">
    <g clip-path="url(#p790e8c3327)">
     <use xlink:href="#mb1b7282c1d" x="216.15957" y="162.12326" style="fill: #00008b; stroke: #00008b"/>
    </g>
   </g>
   <g id="PathCollection_68">
    <g clip-path="url(#p790e8c3327)">
     <use xlink:href="#m356f76e4be" x="297.341187" y="124.627073" style="fill: #800000; stroke: #800000"/>
    </g>
   </g>
   <g id="PathCollection_69">
    <g clip-path="url(#p790e8c3327)">
     <use xlink:href="#m2562d316ae" x="188.381757" y="87.40147" style="fill: #006400; stroke: #006400"/>
    </g>
   </g>
   <g id="PathCollection_70">
    <g clip-path="url(#p790e8c3327)">
     <use xlink:href="#mb1b7282c1d" x="214.396106" y="156.835963" style="fill: #00008b; stroke: #00008b"/>
    </g>
   </g>
   <g id="PathCollection_71">
    <g clip-path="url(#p790e8c3327)">
     <use xlink:href="#m356f76e4be" x="292.171098" y="124.918544" style="fill: #800000; stroke: #800000"/>
    </g>
   </g>
   <g id="PathCollection_72">
    <g clip-path="url(#p790e8c3327)">
     <use xlink:href="#m2562d316ae" x="194.481687" y="86.83235" style="fill: #006400; stroke: #006400"/>
    </g>
   </g>
   <g id="PathCollection_73">
    <g clip-path="url(#p790e8c3327)">
     <use xlink:href="#mb1b7282c1d" x="212.47388" y="151.574475" style="fill: #00008b; stroke: #00008b"/>
    </g>
   </g>
   <g id="PathCollection_74">
    <g clip-path="url(#p790e8c3327)">
     <use xlink:href="#m356f76e4be" x="287.002386" y="125.29842" style="fill: #800000; stroke: #800000"/>
    </g>
   </g>
   <g id="PathCollection_75">
    <g clip-path="url(#p790e8c3327)">
     <use xlink:href="#m2562d316ae" x="200.596885" y="86.287229" style="fill: #006400; stroke: #006400"/>
    </g>
   </g>
   <g id="PathCollection_76">
    <g clip-path="url(#p790e8c3327)">
     <use xlink:href="#mb1b7282c1d" x="210.552694" y="146.280695" style="fill: #00008b; stroke: #00008b"/>
    </g>
   </g>
   <g id="PathCollection_77">
    <g clip-path="url(#p790e8c3327)">
     <use xlink:href="#m356f76e4be" x="281.837142" y="125.770004" style="fill: #800000; stroke: #800000"/>
    </g>
   </g>
   <g id="PathCollection_78">
    <g clip-path="url(#p790e8c3327)">
     <use xlink:href="#m2562d316ae" x="206.729075" y="85.835817" style="fill: #006400; stroke: #006400"/>
    </g>
   </g>
   <g id="PathCollection_79">
    <g clip-path="url(#p790e8c3327)">
     <use xlink:href="#mb1b7282c1d" x="208.88553" y="140.868187" style="fill: #00008b; stroke: #00008b"/>
    </g>
   </g>
   <g id="PathCollection_80">
    <g clip-path="url(#p790e8c3327)">
     <use xlink:href="#m356f76e4be" x="276.678304" y="126.341495" style="fill: #800000; stroke: #800000"/>
    </g>
   </g>
   <g id="PathCollection_81">
    <g clip-path="url(#p790e8c3327)">
     <use xlink:href="#m2562d316ae" x="212.877725" y="85.571107" style="fill: #006400; stroke: #006400"/>
    </g>
   </g>
   <g id="PathCollection_82">
    <g clip-path="url(#p790e8c3327)">
     <use xlink:href="#mb1b7282c1d" x="207.721847" y="135.291323" style="fill: #00008b; stroke: #00008b"/>
    </g>
   </g>
   <g id="PathCollection_83">
    <g clip-path="url(#p790e8c3327)">
     <use xlink:href="#m356f76e4be" x="271.529675" y="127.023281" style="fill: #800000; stroke: #800000"/>
    </g>
   </g>
   <g id="PathCollection_84">
    <g clip-path="url(#p790e8c3327)">
     <use xlink:href="#m2562d316ae" x="219.033454" y="85.61687" style="fill: #006400; stroke: #006400"/>
    </g>
   </g>
   <g id="PathCollection_85">
    <g clip-path="url(#p790e8c3327)">
     <use xlink:href="#mb1b7282c1d" x="207.494051" y="129.563969" style="fill: #00008b; stroke: #00008b"/>
    </g>
   </g>
   <g id="PathCollection_86">
    <g clip-path="url(#p790e8c3327)">
     <use xlink:href="#m356f76e4be" x="266.392465" y="127.804317" style="fill: #800000; stroke: #800000"/>
    </g>
   </g>
   <g id="PathCollection_87">
    <g clip-path="url(#p790e8c3327)">
     <use xlink:href="#m2562d316ae" x="225.166543" y="86.110696" style="fill: #006400; stroke: #006400"/>
    </g>
   </g>
   <g id="PathCollection_88">
    <g clip-path="url(#p790e8c3327)">
     <use xlink:href="#mb1b7282c1d" x="208.309493" y="123.853867" style="fill: #00008b; stroke: #00008b"/>
    </g>
   </g>
   <g id="PathCollection_89">
    <g clip-path="url(#p790e8c3327)">
     <use xlink:href="#m356f76e4be" x="261.270489" y="128.691999" style="fill: #800000; stroke: #800000"/>
    </g>
   </g>
   <g id="PathCollection_90">
    <g clip-path="url(#p790e8c3327)">
     <use xlink:href="#m2562d316ae" x="231.203711" y="87.258275" style="fill: #006400; stroke: #006400"/>
    </g>
   </g>
   <g id="PathCollection_91">
    <g clip-path="url(#p790e8c3327)">
     <use xlink:href="#mb1b7282c1d" x="209.801027" y="118.24363" style="fill: #00008b; stroke: #00008b"/>
    </g>
   </g>
   <g id="PathCollection_92">
    <g clip-path="url(#p790e8c3327)">
     <use xlink:href="#m356f76e4be" x="256.162293" y="129.663683" style="fill: #800000; stroke: #800000"/>
    </g>
   </g>
   <g id="PathCollection_93">
    <g clip-path="url(#p790e8c3327)">
     <use xlink:href="#m2562d316ae" x="236.98129" y="89.313974" style="fill: #006400; stroke: #006400"/>
    </g>
   </g>
   <g id="PathCollection_94">
    <g clip-path="url(#p790e8c3327)">
     <use xlink:href="#mb1b7282c1d" x="211.960104" y="112.8139" style="fill: #00008b; stroke: #00008b"/>
    </g>
   </g>
   <g id="PathCollection_95">
    <g clip-path="url(#p790e8c3327)">
     <use xlink:href="#m356f76e4be" x="251.062485" y="130.683006" style="fill: #800000; stroke: #800000"/>
    </g>
   </g>
   <g id="PathCollection_96">
    <g clip-path="url(#p790e8c3327)">
     <use xlink:href="#m2562d316ae" x="242.328414" y="92.278169" style="fill: #006400; stroke: #006400"/>
    </g>
   </g>
   <g id="PathCollection_97">
    <g clip-path="url(#p790e8c3327)">
     <use xlink:href="#mb1b7282c1d" x="214.770185" y="107.646752" style="fill: #00008b; stroke: #00008b"/>
    </g>
   </g>
   <g id="PathCollection_98">
    <g clip-path="url(#p790e8c3327)">
     <use xlink:href="#m356f76e4be" x="245.962297" y="131.701086" style="fill: #800000; stroke: #800000"/>
    </g>
   </g>
   <g id="PathCollection_99">
    <g clip-path="url(#p790e8c3327)">
     <use xlink:href="#m2562d316ae" x="247.245415" y="95.870209" style="fill: #006400; stroke: #006400"/>
    </g>
   </g>
   <g id="PathCollection_100">
    <g clip-path="url(#p790e8c3327)">
     <use xlink:href="#mb1b7282c1d" x="218.201797" y="102.823568" style="fill: #00008b; stroke: #00008b"/>
    </g>
   </g>
   <g id="PathCollection_101">
    <g clip-path="url(#p790e8c3327)">
     <use xlink:href="#m356f76e4be" x="240.843122" y="132.614998" style="fill: #800000; stroke: #800000"/>
    </g>
   </g>
   <g id="PathCollection_102">
    <g clip-path="url(#p790e8c3327)">
     <use xlink:href="#m2562d316ae" x="251.655735" y="100.025902" style="fill: #006400; stroke: #006400"/>
    </g>
   </g>
   <g id="PathCollection_103">
    <g clip-path="url(#p790e8c3327)">
     <use xlink:href="#mb1b7282c1d" x="222.213892" y="98.424334" style="fill: #00008b; stroke: #00008b"/>
    </g>
   </g>
   <g id="PathCollection_104">
    <g clip-path="url(#p790e8c3327)">
     <use xlink:href="#m356f76e4be" x="235.644702" y="132.648396" style="fill: #800000; stroke: #800000"/>
    </g>
   </g>
   <g id="PathCollection_105">
    <g clip-path="url(#p790e8c3327)">
     <use xlink:href="#m2562d316ae" x="255.50085" y="104.666395" style="fill: #006400; stroke: #006400"/>
    </g>
   </g>
   <g id="PathCollection_106">
    <g clip-path="url(#p790e8c3327)">
     <use xlink:href="#mb1b7282c1d" x="226.753476" y="94.525205" style="fill: #00008b; stroke: #00008b"/>
    </g>
   </g>
   <g id="PathCollection_107">
    <g clip-path="url(#p790e8c3327)">
     <use xlink:href="#m356f76e4be" x="230.556829" y="131.593261" style="fill: #800000; stroke: #800000"/>
    </g>
   </g>
   <g id="PathCollection_108">
    <g clip-path="url(#p790e8c3327)">
     <use xlink:href="#m2562d316ae" x="258.72496" y="109.715984" style="fill: #006400; stroke: #006400"/>
    </g>
   </g>
   <g id="PathCollection_109">
    <g clip-path="url(#p790e8c3327)">
     <use xlink:href="#mb1b7282c1d" x="231.756613" y="91.196449" style="fill: #00008b; stroke: #00008b"/>
    </g>
   </g>
   <g id="PathCollection_110">
    <g clip-path="url(#p790e8c3327)">
     <use xlink:href="#m356f76e4be" x="225.613209" y="130.002289" style="fill: #800000; stroke: #800000"/>
    </g>
   </g>
   <g id="PathCollection_111">
    <g clip-path="url(#p790e8c3327)">
     <use xlink:href="#m2562d316ae" x="261.29232" y="115.089244" style="fill: #006400; stroke: #006400"/>
    </g>
   </g>
   <g id="matplotlib.axis_1">
    <g id="xtick_1">
     <g id="line2d_1">
      <defs>
       <path id="m159b2e3dbd" d="M 0 0 
L 0 3.5 
" style="stroke: #000000; stroke-width: 0.8"/>
      </defs>
      <g>
       <use xlink:href="#m159b2e3dbd" x="57.6" y="286.128" style="stroke: #000000; stroke-width: 0.8"/>
      </g>
     </g>
     <g id="text_1">
      <!-- −20 -->
      <g transform="translate(47.047656 300.726437) scale(0.1 -0.1)">
       <defs>
        <path id="DejaVuSans-2212" d="M 678 2272 
L 4684 2272 
L 4684 1741 
L 678 1741 
L 678 2272 
z
" transform="scale(0.015625)"/>
        <path id="DejaVuSans-32" d="M 1228 531 
L 3431 531 
L 3431 0 
L 469 0 
L 469 531 
Q 828 903 1448 1529 
Q 2069 2156 2228 2338 
Q 2531 2678 2651 2914 
Q 2772 3150 2772 3378 
Q 2772 3750 2511 3984 
Q 2250 4219 1831 4219 
Q 1534 4219 1204 4116 
Q 875 4013 500 3803 
L 500 4441 
Q 881 4594 1212 4672 
Q 1544 4750 1819 4750 
Q 2544 4750 2975 4387 
Q 3406 4025 3406 3419 
Q 3406 3131 3298 2873 
Q 3191 2616 2906 2266 
Q 2828 2175 2409 1742 
Q 1991 1309 1228 531 
z
" transform="scale(0.015625)"/>
        <path id="DejaVuSans-30" d="M 2034 4250 
Q 1547 4250 1301 3770 
Q 1056 3291 1056 2328 
Q 1056 1369 1301 889 
Q 1547 409 2034 409 
Q 2525 409 2770 889 
Q 3016 1369 3016 2328 
Q 3016 3291 2770 3770 
Q 2525 4250 2034 4250 
z
M 2034 4750 
Q 2819 4750 3233 4129 
Q 3647 3509 3647 2328 
Q 3647 1150 3233 529 
Q 2819 -91 2034 -91 
Q 1250 -91 836 529 
Q 422 1150 422 2328 
Q 422 3509 836 4129 
Q 1250 4750 2034 4750 
z
" transform="scale(0.015625)"/>
       </defs>
       <use xlink:href="#DejaVuSans-2212"/>
       <use xlink:href="#DejaVuSans-32" x="83.789062"/>
       <use xlink:href="#DejaVuSans-30" x="147.412109"/>
      </g>
     </g>
    </g>
    <g id="xtick_2">
     <g id="line2d_2">
      <g>
       <use xlink:href="#m159b2e3dbd" x="102.24" y="286.128" style="stroke: #000000; stroke-width: 0.8"/>
      </g>
     </g>
     <g id="text_2">
      <!-- −15 -->
      <g transform="translate(91.687656 300.726437) scale(0.1 -0.1)">
       <defs>
        <path id="DejaVuSans-31" d="M 794 531 
L 1825 531 
L 1825 4091 
L 703 3866 
L 703 4441 
L 1819 4666 
L 2450 4666 
L 2450 531 
L 3481 531 
L 3481 0 
L 794 0 
L 794 531 
z
" transform="scale(0.015625)"/>
        <path id="DejaVuSans-35" d="M 691 4666 
L 3169 4666 
L 3169 4134 
L 1269 4134 
L 1269 2991 
Q 1406 3038 1543 3061 
Q 1681 3084 1819 3084 
Q 2600 3084 3056 2656 
Q 3513 2228 3513 1497 
Q 3513 744 3044 326 
Q 2575 -91 1722 -91 
Q 1428 -91 1123 -41 
Q 819 9 494 109 
L 494 744 
Q 775 591 1075 516 
Q 1375 441 1709 441 
Q 2250 441 2565 725 
Q 2881 1009 2881 1497 
Q 2881 1984 2565 2268 
Q 2250 2553 1709 2553 
Q 1456 2553 1204 2497 
Q 953 2441 691 2322 
L 691 4666 
z
" transform="scale(0.015625)"/>
       </defs>
       <use xlink:href="#DejaVuSans-2212"/>
       <use xlink:href="#DejaVuSans-31" x="83.789062"/>
       <use xlink:href="#DejaVuSans-35" x="147.412109"/>
      </g>
     </g>
    </g>
    <g id="xtick_3">
     <g id="line2d_3">
      <g>
       <use xlink:href="#m159b2e3dbd" x="146.88" y="286.128" style="stroke: #000000; stroke-width: 0.8"/>
      </g>
     </g>
     <g id="text_3">
      <!-- −10 -->
      <g transform="translate(136.327656 300.726437) scale(0.1 -0.1)">
       <use xlink:href="#DejaVuSans-2212"/>
       <use xlink:href="#DejaVuSans-31" x="83.789062"/>
       <use xlink:href="#DejaVuSans-30" x="147.412109"/>
      </g>
     </g>
    </g>
    <g id="xtick_4">
     <g id="line2d_4">
      <g>
       <use xlink:href="#m159b2e3dbd" x="191.52" y="286.128" style="stroke: #000000; stroke-width: 0.8"/>
      </g>
     </g>
     <g id="text_4">
      <!-- −5 -->
      <g transform="translate(184.148906 300.726437) scale(0.1 -0.1)">
       <use xlink:href="#DejaVuSans-2212"/>
       <use xlink:href="#DejaVuSans-35" x="83.789062"/>
      </g>
     </g>
    </g>
    <g id="xtick_5">
     <g id="line2d_5">
      <g>
       <use xlink:href="#m159b2e3dbd" x="236.16" y="286.128" style="stroke: #000000; stroke-width: 0.8"/>
      </g>
     </g>
     <g id="text_5">
      <!-- 0 -->
      <g transform="translate(232.97875 300.726437) scale(0.1 -0.1)">
       <use xlink:href="#DejaVuSans-30"/>
      </g>
     </g>
    </g>
    <g id="xtick_6">
     <g id="line2d_6">
      <g>
       <use xlink:href="#m159b2e3dbd" x="280.8" y="286.128" style="stroke: #000000; stroke-width: 0.8"/>
      </g>
     </g>
     <g id="text_6">
      <!-- 5 -->
      <g transform="translate(277.61875 300.726437) scale(0.1 -0.1)">
       <use xlink:href="#DejaVuSans-35"/>
      </g>
     </g>
    </g>
    <g id="xtick_7">
     <g id="line2d_7">
      <g>
       <use xlink:href="#m159b2e3dbd" x="325.44" y="286.128" style="stroke: #000000; stroke-width: 0.8"/>
      </g>
     </g>
     <g id="text_7">
      <!-- 10 -->
      <g transform="translate(319.0775 300.726437) scale(0.1 -0.1)">
       <use xlink:href="#DejaVuSans-31"/>
       <use xlink:href="#DejaVuSans-30" x="63.623047"/>
      </g>
     </g>
    </g>
    <g id="xtick_8">
     <g id="line2d_8">
      <g>
       <use xlink:href="#m159b2e3dbd" x="370.08" y="286.128" style="stroke: #000000; stroke-width: 0.8"/>
      </g>
     </g>
     <g id="text_8">
      <!-- 15 -->
      <g transform="translate(363.7175 300.726437) scale(0.1 -0.1)">
       <use xlink:href="#DejaVuSans-31"/>
       <use xlink:href="#DejaVuSans-35" x="63.623047"/>
      </g>
     </g>
    </g>
    <g id="xtick_9">
     <g id="line2d_9">
      <g>
       <use xlink:href="#m159b2e3dbd" x="414.72" y="286.128" style="stroke: #000000; stroke-width: 0.8"/>
      </g>
     </g>
     <g id="text_9">
      <!-- 20 -->
      <g transform="translate(408.3575 300.726437) scale(0.1 -0.1)">
       <use xlink:href="#DejaVuSans-32"/>
       <use xlink:href="#DejaVuSans-30" x="63.623047"/>
      </g>
     </g>
    </g>
   </g>
   <g id="matplotlib.axis_2">
    <g id="ytick_1">
     <g id="line2d_10">
      <defs>
       <path id="m7b027e46a4" d="M 0 0 
L -3.5 0 
" style="stroke: #000000; stroke-width: 0.8"/>
      </defs>
      <g>
       <use xlink:href="#m7b027e46a4" x="57.6" y="286.128" style="stroke: #000000; stroke-width: 0.8"/>
      </g>
     </g>
     <g id="text_10">
      <!-- −20 -->
      <g transform="translate(29.495313 289.927219) scale(0.1 -0.1)">
       <use xlink:href="#DejaVuSans-2212"/>
       <use xlink:href="#DejaVuSans-32" x="83.789062"/>
       <use xlink:href="#DejaVuSans-30" x="147.412109"/>
      </g>
     </g>
    </g>
    <g id="ytick_2">
     <g id="line2d_11">
      <g>
       <use xlink:href="#m7b027e46a4" x="57.6" y="241.488" style="stroke: #000000; stroke-width: 0.8"/>
      </g>
     </g>
     <g id="text_11">
      <!-- −15 -->
      <g transform="translate(29.495313 245.287219) scale(0.1 -0.1)">
       <use xlink:href="#DejaVuSans-2212"/>
       <use xlink:href="#DejaVuSans-31" x="83.789062"/>
       <use xlink:href="#DejaVuSans-35" x="147.412109"/>
      </g>
     </g>
    </g>
    <g id="ytick_3">
     <g id="line2d_12">
      <g>
       <use xlink:href="#m7b027e46a4" x="57.6" y="196.848" style="stroke: #000000; stroke-width: 0.8"/>
      </g>
     </g>
     <g id="text_12">
      <!-- −10 -->
      <g transform="translate(29.495313 200.647219) scale(0.1 -0.1)">
       <use xlink:href="#DejaVuSans-2212"/>
       <use xlink:href="#DejaVuSans-31" x="83.789062"/>
       <use xlink:href="#DejaVuSans-30" x="147.412109"/>
      </g>
     </g>
    </g>
    <g id="ytick_4">
     <g id="line2d_13">
      <g>
       <use xlink:href="#m7b027e46a4" x="57.6" y="152.208" style="stroke: #000000; stroke-width: 0.8"/>
      </g>
     </g>
     <g id="text_13">
      <!-- −5 -->
      <g transform="translate(35.857813 156.007219) scale(0.1 -0.1)">
       <use xlink:href="#DejaVuSans-2212"/>
       <use xlink:href="#DejaVuSans-35" x="83.789062"/>
      </g>
     </g>
    </g>
    <g id="ytick_5">
     <g id="line2d_14">
      <g>
       <use xlink:href="#m7b027e46a4" x="57.6" y="107.568" style="stroke: #000000; stroke-width: 0.8"/>
      </g>
     </g>
     <g id="text_14">
      <!-- 0 -->
      <g transform="translate(44.2375 111.367219) scale(0.1 -0.1)">
       <use xlink:href="#DejaVuSans-30"/>
      </g>
     </g>
    </g>
    <g id="ytick_6">
     <g id="line2d_15">
      <g>
       <use xlink:href="#m7b027e46a4" x="57.6" y="62.928" style="stroke: #000000; stroke-width: 0.8"/>
      </g>
     </g>
     <g id="text_15">
      <!-- 5 -->
      <g transform="translate(44.2375 66.727219) scale(0.1 -0.1)">
       <use xlink:href="#DejaVuSans-35"/>
      </g>
     </g>
    </g>
   </g>
   <g id="line2d_16">
    <path d="M 276.336 346.6 
L 276.336 147.744 
" clip-path="url(#p790e8c3327)" style="fill: none; stroke: #000000; stroke-width: 0.25; stroke-linecap: square"/>
   </g>
   <g id="line2d_17">
    <path d="M 276.336 147.744 
L 461.8 147.744 
" clip-path="url(#p790e8c3327)" style="fill: none; stroke: #000000; stroke-width: 0.25; stroke-linecap: square"/>
   </g>
   <g id="line2d_18">
    <path d="M -1 67.392 
L 461.8 67.392 
" clip-path="url(#p790e8c3327)" style="fill: none; stroke: #000000; stroke-width: 0.25; stroke-linecap: square"/>
   </g>
   <g id="line2d_19">
    <path d="M 195.984 346.6 
L 195.984 147.744 
" clip-path="url(#p790e8c3327)" style="fill: none; stroke: #000000; stroke-width: 0.25; stroke-linecap: square"/>
   </g>
   <g id="line2d_20">
    <path d="M 195.984 147.744 
L -1 147.744 
" clip-path="url(#p790e8c3327)" style="fill: none; stroke: #000000; stroke-width: 0.25; stroke-linecap: square"/>
   </g>
   <g id="line2d_21">
    <path d="M 276.336 107.568 
L 461.8 107.568 
" clip-path="url(#p790e8c3327)" style="fill: none; stroke-dasharray: 0.925,0.4; stroke-dashoffset: 0; stroke: #000000; stroke-width: 0.25"/>
   </g>
   <g id="line2d_22">
    <path d="M 195.984 107.568 
L -1 107.568 
" clip-path="url(#p790e8c3327)" style="fill: none; stroke-dasharray: 0.925,0.4; stroke-dashoffset: 0; stroke: #000000; stroke-width: 0.25"/>
   </g>
   <g id="line2d_23">
    <path d="M 236.16 346.6 
L 236.16 147.744 
" clip-path="url(#p790e8c3327)" style="fill: none; stroke-dasharray: 0.925,0.4; stroke-dashoffset: 0; stroke: #000000; stroke-width: 0.25"/>
   </g>
   <g id="line2d_24">
    <path d="M 226.753476 94.525205 
L 231.756613 91.196449 
L 237.147576 88.49694 
L 242.84407 86.475811 
L 248.75736 85.170311 
L 254.794201 84.604878 
L 260.858937 84.790942 
L 266.886999 85.496625 
L 272.912492 86.21908 
L 278.935647 86.940399 
L 284.957778 87.635978 
L 290.980047 88.28247 
L 297.00267 88.8633 
L 303.024971 89.369128 
L 309.045712 89.796906 
L 315.063459 90.148545 
L 321.076875 90.4295 
L 327.084905 90.647321 
L 333.086856 90.810587 
L 339.082388 90.928336 
L 345.071491 91.00879 
L 351.05441 91.059753 
L 357.031592 91.087303 
L 363.003616 91.097037 
L 368.971156 91.093305 
L 374.93494 91.079481 
L 380.895717 91.057924 
L 386.854227 91.030093 
L 392.811177 90.996715 
L 398.767204 90.957915 
L 404.722837 90.913325 
" clip-path="url(#p790e8c3327)" style="fill: none; stroke: #ff0000; stroke-width: 0.25; stroke-linecap: square"/>
   </g>
   <g id="line2d_25">
    <path d="M 230.556829 131.593261 
L 225.613209 130.002289 
L 220.545707 128.878359 
L 215.454705 127.880281 
L 210.34295 127.010808 
L 205.213246 126.273275 
L 200.069312 125.664981 
L 194.915176 125.177267 
L 189.754518 124.797409 
L 184.590307 124.510668 
L 179.424713 124.30192 
L 174.259195 124.156733 
L 169.094647 124.061986 
L 163.931555 124.006174 
L 158.770134 123.979506 
L 153.610426 123.973843 
L 148.452377 123.982574 
L 143.295878 124.000483 
L 138.140797 124.02357 
L 132.986999 124.048874 
L 127.834346 124.074297 
L 122.682707 124.098433 
L 117.531956 124.120432 
L 112.381975 124.139867 
L 107.232647 124.15663 
L 102.083864 124.170846 
L 96.935521 124.182808 
L 91.787518 124.192916 
L 86.639761 124.201646 
L 81.492161 124.20951 
L 76.344637 124.217039 
" clip-path="url(#p790e8c3327)" style="fill: none; stroke: #ff0000; stroke-width: 0.25; stroke-linecap: square"/>
   </g>
   <g id="line2d_26">
    <path d="M 258.72496 109.715984 
L 261.29232 115.089244 
L 263.177559 120.700845 
L 264.364438 126.465624 
L 264.847777 132.298352 
L 264.632472 138.115298 
L 263.732621 143.835373 
L 262.171157 149.381058 
L 259.979074 154.679253 
L 257.947579 160.01331 
L 256.225028 165.429488 
L 254.812044 170.911149 
L 253.719763 176.44419 
L 252.932117 182.009149 
L 252.407516 187.587132 
L 252.093063 193.16458 
L 251.936941 198.733891 
L 251.892388 204.291841 
L 251.920376 209.837914 
L 251.993036 215.372925 
L 252.090277 220.898174 
L 252.195898 226.415101 
L 252.301335 231.925017 
L 252.400326 237.429131 
L 252.489893 242.928513 
L 252.569315 248.424122 
L 252.639283 253.916826 
L 252.701876 259.407412 
L 252.759094 264.896592 
L 252.812729 270.384998 
L 252.863564 275.873131 
" clip-path="url(#p790e8c3327)" style="fill: none; stroke: #ff0000; stroke-width: 0.25; stroke-linecap: square"/>
   </g>
   <g id="patch_6">
    <path d="M 57.6 286.128 
L 57.6 62.928 
" style="fill: none; stroke: #000000; stroke-width: 0.8; stroke-linejoin: miter; stroke-linecap: square"/>
   </g>
   <g id="patch_7">
    <path d="M 414.72 286.128 
L 414.72 62.928 
" style="fill: none; stroke: #000000; stroke-width: 0.8; stroke-linejoin: miter; stroke-linecap: square"/>
   </g>
   <g id="patch_8">
    <path d="M 57.6 286.128 
L 414.72 286.128 
" style="fill: none; stroke: #000000; stroke-width: 0.8; stroke-linejoin: miter; stroke-linecap: square"/>
   </g>
   <g id="patch_9">
    <path d="M 57.6 62.928 
L 414.72 62.928 
" style="fill: none; stroke: #000000; stroke-width: 0.8; stroke-linejoin: miter; stroke-linecap: square"/>
   </g>
   <g id="text_16">
    <!-- Time:  35 ms -->
    <g transform="translate(296.106688 74.088) scale(0.1 -0.1)">
     <defs>
      <path id="DejaVuSans-54" d="M -19 4666 
L 3928 4666 
L 3928 4134 
L 2272 4134 
L 2272 0 
L 1638 0 
L 1638 4134 
L -19 4134 
L -19 4666 
z
" transform="scale(0.015625)"/>
      <path id="DejaVuSans-69" d="M 603 3500 
L 1178 3500 
L 1178 0 
L 603 0 
L 603 3500 
z
M 603 4863 
L 1178 4863 
L 1178 4134 
L 603 4134 
L 603 4863 
z
" transform="scale(0.015625)"/>
      <path id="DejaVuSans-6d" d="M 3328 2828 
Q 3544 3216 3844 3400 
Q 4144 3584 4550 3584 
Q 5097 3584 5394 3201 
Q 5691 2819 5691 2113 
L 5691 0 
L 5113 0 
L 5113 2094 
Q 5113 2597 4934 2840 
Q 4756 3084 4391 3084 
Q 3944 3084 3684 2787 
Q 3425 2491 3425 1978 
L 3425 0 
L 2847 0 
L 2847 2094 
Q 2847 2600 2669 2842 
Q 2491 3084 2119 3084 
Q 1678 3084 1418 2786 
Q 1159 2488 1159 1978 
L 1159 0 
L 581 0 
L 581 3500 
L 1159 3500 
L 1159 2956 
Q 1356 3278 1631 3431 
Q 1906 3584 2284 3584 
Q 2666 3584 2933 3390 
Q 3200 3197 3328 2828 
z
" transform="scale(0.015625)"/>
      <path id="DejaVuSans-65" d="M 3597 1894 
L 3597 1613 
L 953 1613 
Q 991 1019 1311 708 
Q 1631 397 2203 397 
Q 2534 397 2845 478 
Q 3156 559 3463 722 
L 3463 178 
Q 3153 47 2828 -22 
Q 2503 -91 2169 -91 
Q 1331 -91 842 396 
Q 353 884 353 1716 
Q 353 2575 817 3079 
Q 1281 3584 2069 3584 
Q 2775 3584 3186 3129 
Q 3597 2675 3597 1894 
z
M 3022 2063 
Q 3016 2534 2758 2815 
Q 2500 3097 2075 3097 
Q 1594 3097 1305 2825 
Q 1016 2553 972 2059 
L 3022 2063 
z
" transform="scale(0.015625)"/>
      <path id="DejaVuSans-3a" d="M 750 794 
L 1409 794 
L 1409 0 
L 750 0 
L 750 794 
z
M 750 3309 
L 1409 3309 
L 1409 2516 
L 750 2516 
L 750 3309 
z
" transform="scale(0.015625)"/>
      <path id="DejaVuSans-20" transform="scale(0.015625)"/>
      <path id="DejaVuSans-33" d="M 2597 2516 
Q 3050 2419 3304 2112 
Q 3559 1806 3559 1356 
Q 3559 666 3084 287 
Q 2609 -91 1734 -91 
Q 1441 -91 1130 -33 
Q 819 25 488 141 
L 488 750 
Q 750 597 1062 519 
Q 1375 441 1716 441 
Q 2309 441 2620 675 
Q 2931 909 2931 1356 
Q 2931 1769 2642 2001 
Q 2353 2234 1838 2234 
L 1294 2234 
L 1294 2753 
L 1863 2753 
Q 2328 2753 2575 2939 
Q 2822 3125 2822 3475 
Q 2822 3834 2567 4026 
Q 2313 4219 1838 4219 
Q 1578 4219 1281 4162 
Q 984 4106 628 3988 
L 628 4550 
Q 988 4650 1302 4700 
Q 1616 4750 1894 4750 
Q 2613 4750 3031 4423 
Q 3450 4097 3450 3541 
Q 3450 3153 3228 2886 
Q 3006 2619 2597 2516 
z
" transform="scale(0.015625)"/>
      <path id="DejaVuSans-73" d="M 2834 3397 
L 2834 2853 
Q 2591 2978 2328 3040 
Q 2066 3103 1784 3103 
Q 1356 3103 1142 2972 
Q 928 2841 928 2578 
Q 928 2378 1081 2264 
Q 1234 2150 1697 2047 
L 1894 2003 
Q 2506 1872 2764 1633 
Q 3022 1394 3022 966 
Q 3022 478 2636 193 
Q 2250 -91 1575 -91 
Q 1294 -91 989 -36 
Q 684 19 347 128 
L 347 722 
Q 666 556 975 473 
Q 1284 391 1588 391 
Q 1994 391 2212 530 
Q 2431 669 2431 922 
Q 2431 1156 2273 1281 
Q 2116 1406 1581 1522 
L 1381 1569 
Q 847 1681 609 1914 
Q 372 2147 372 2553 
Q 372 3047 722 3315 
Q 1072 3584 1716 3584 
Q 2034 3584 2315 3537 
Q 2597 3491 2834 3397 
z
" transform="scale(0.015625)"/>
     </defs>
     <use xlink:href="#DejaVuSans-54"/>
     <use xlink:href="#DejaVuSans-69" x="57.958984"/>
     <use xlink:href="#DejaVuSans-6d" x="85.742188"/>
     <use xlink:href="#DejaVuSans-65" x="183.154297"/>
     <use xlink:href="#DejaVuSans-3a" x="244.677734"/>
     <use xlink:href="#DejaVuSans-20" x="278.369141"/>
     <use xlink:href="#DejaVuSans-20" x="310.15625"/>
     <use xlink:href="#DejaVuSans-33" x="341.943359"/>
     <use xlink:href="#DejaVuSans-35" x="405.566406"/>
     <use xlink:href="#DejaVuSans-20" x="469.189453"/>
     <use xlink:href="#DejaVuSans-6d" x="500.976562"/>
     <use xlink:href="#DejaVuSans-73" x="598.388672"/>
    </g>
   </g>
  </g>
 </g>
 <defs>
  <clipPath id="p790e8c3327">
   <rect x="57.6" y="62.928" width="357.12" height="223.2"/>
  </clipPath>
 </defs>
</svg>
