<?xml version="1.0" encoding="utf-8" standalone="no"?>
<!DOCTYPE svg PUBLIC "-//W3C//DTD SVG 1.1//EN"
  "http://www.w3.org/Graphics/SVG/1.1/DTD/svg11.dtd">
<svg xmlns:xlink="http://www.w3.org/1999/xlink" width="300.579188pt" height="286.589344pt" viewBox="0 0 300.579188 286.589344" xmlns="http://www.w3.org/2000/svg" version="1.1">
 <metadata>
  <rdf:RDF xmlns:dc="http://purl.org/dc/elements/1.1/" xmlns:cc="http://creativecommons.org/ns#" xmlns:rdf="http://www.w3.org/1999/02/22-rdf-syntax-ns#">
   <cc:Work>
    <dc:type rdf:resource="http://purl.org/dc/dcmitype/StillImage"/>
    <dc:date>2024-02-26T10:13:14.563468</dc:date>
    <dc:format>image/svg+xml</dc:format>
    <dc:creator>
     <cc:Agent>
      <dc:title>Matplotlib v3.8.2, https://matplotlib.org/</dc:title>
     </cc:Agent>
    </dc:creator>
   </cc:Work>
  </rdf:RDF>
 </metadata>
 <defs>
  <style type="text/css">*{stroke-linejoin: round; stroke-linecap: butt}</style>
 </defs>
 <g id="figure_1">
  <g id="patch_1">
   <path d="M 0 286.589344 
L 300.579188 286.589344 
L 300.579188 0 
L 0 0 
z
" style="fill: #ffffff"/>
  </g>
  <g id="axes_1">
   <g id="patch_2">
    <path d="M 28.104688 269.911219 
L 294.216687 269.911219 
L 294.216687 3.799219 
L 28.104688 3.799219 
z
" style="fill: #ffffff"/>
   </g>
   <g id="patch_3">
    <path d="M 164.512804 132.746512 
L 155.751995 125.078806 
L 152.027681 129.334056 
L 160.788489 137.001762 
z
" clip-path="url(#p50fded130f)" style="fill: #00008b"/>
   </g>
   <g id="patch_4">
    <path d="M 173.205117 121.527935 
L 167.611384 111.317371 
L 162.651967 114.034328 
L 168.245701 124.244892 
z
" clip-path="url(#p50fded130f)" style="fill: #800000"/>
   </g>
   <g id="patch_5">
    <path d="M 147.924098 136.858025 
L 148.116641 148.498832 
L 153.770748 148.405311 
L 153.578204 136.764503 
z
" clip-path="url(#p50fded130f)" style="fill: #006400"/>
   </g>
   <g id="patch_6">
    <path d="M 161.427141 150.000922 
L 172.853353 147.767729 
L 171.768659 142.217854 
L 160.342447 144.451047 
z
" clip-path="url(#p50fded130f)" style="fill: #4b0082"/>
   </g>
   <g id="patch_7">
    <path d="M 169.862628 178.833254 
L 169.975885 167.191405 
L 164.321273 167.136395 
L 164.208016 178.778244 
z
" clip-path="url(#p50fded130f)" style="fill: #0000ff"/>
   </g>
   <g id="patch_8">
    <path d="M 203.188793 128.211977 
L 191.546557 128.150138 
L 191.516521 133.804939 
L 203.158757 133.866777 
z
" clip-path="url(#p50fded130f)" style="fill: #ff0000"/>
   </g>
   <g id="patch_9">
    <path d="M 152.098984 95.371382 
L 151.371825 106.991051 
L 157.015664 107.344243 
L 157.742823 95.724573 
z
" clip-path="url(#p50fded130f)" style="fill: #dbdc56"/>
   </g>
   <g id="patch_10">
    <path d="M 110.428783 145.527942 
L 122.070972 145.598122 
L 122.105059 139.943345 
L 110.462871 139.873165 
z
" clip-path="url(#p50fded130f)" style="fill: #9400d3"/>
   </g>
   <g id="patch_11">
    <path d="M 169.834978 225.398464 
L 169.819011 213.756075 
L 164.164136 213.76383 
L 164.180103 225.406219 
z
" clip-path="url(#p50fded130f)" style="fill: #1e90ff"/>
   </g>
   <g id="patch_12">
    <path d="M 236.114731 128.18867 
L 224.472331 128.190929 
L 224.473429 133.845809 
L 236.115829 133.84355 
z
" clip-path="url(#p50fded130f)" style="fill: #ff4500"/>
   </g>
   <g id="patch_13">
    <path d="M 152.493718 48.308777 
L 152.505507 59.951171 
L 158.160384 59.945445 
L 158.148595 48.303051 
z
" clip-path="url(#p50fded130f)" style="fill: #7cfc00"/>
   </g>
   <g id="patch_14">
    <path d="M 72.616956 145.529388 
L 84.259346 145.514591 
L 84.252159 139.859716 
L 72.609769 139.874513 
z
" clip-path="url(#p50fded130f)" style="fill: #ff00ff"/>
   </g>
   <g id="matplotlib.axis_1">
    <g id="xtick_1">
     <g id="line2d_1">
      <defs>
       <path id="m25cf764247" d="M 0 0 
L 0 3.5 
" style="stroke: #000000; stroke-width: 0.8"/>
      </defs>
      <g>
       <use xlink:href="#m25cf764247" x="28.104688" y="269.911219" style="stroke: #000000; stroke-width: 0.8"/>
      </g>
     </g>
     <g id="text_1">
      <!-- −40 -->
      <g transform="translate(17.552344 284.509656) scale(0.1 -0.1)">
       <defs>
        <path id="DejaVuSans-2212" d="M 678 2272 
L 4684 2272 
L 4684 1741 
L 678 1741 
L 678 2272 
z
" transform="scale(0.015625)"/>
        <path id="DejaVuSans-34" d="M 2419 4116 
L 825 1625 
L 2419 1625 
L 2419 4116 
z
M 2253 4666 
L 3047 4666 
L 3047 1625 
L 3713 1625 
L 3713 1100 
L 3047 1100 
L 3047 0 
L 2419 0 
L 2419 1100 
L 313 1100 
L 313 1709 
L 2253 4666 
z
" transform="scale(0.015625)"/>
        <path id="DejaVuSans-30" d="M 2034 4250 
Q 1547 4250 1301 3770 
Q 1056 3291 1056 2328 
Q 1056 1369 1301 889 
Q 1547 409 2034 409 
Q 2525 409 2770 889 
Q 3016 1369 3016 2328 
Q 3016 3291 2770 3770 
Q 2525 4250 2034 4250 
z
M 2034 4750 
Q 2819 4750 3233 4129 
Q 3647 3509 3647 2328 
Q 3647 1150 3233 529 
Q 2819 -91 2034 -91 
Q 1250 -91 836 529 
Q 422 1150 422 2328 
Q 422 3509 836 4129 
Q 1250 4750 2034 4750 
z
" transform="scale(0.015625)"/>
       </defs>
       <use xlink:href="#DejaVuSans-2212"/>
       <use xlink:href="#DejaVuSans-34" x="83.789062"/>
       <use xlink:href="#DejaVuSans-30" x="147.412109"/>
      </g>
     </g>
    </g>
    <g id="xtick_2">
     <g id="line2d_2">
      <g>
       <use xlink:href="#m25cf764247" x="61.368688" y="269.911219" style="stroke: #000000; stroke-width: 0.8"/>
      </g>
     </g>
     <g id="text_2">
      <!-- −30 -->
      <g transform="translate(50.816344 284.509656) scale(0.1 -0.1)">
       <defs>
        <path id="DejaVuSans-33" d="M 2597 2516 
Q 3050 2419 3304 2112 
Q 3559 1806 3559 1356 
Q 3559 666 3084 287 
Q 2609 -91 1734 -91 
Q 1441 -91 1130 -33 
Q 819 25 488 141 
L 488 750 
Q 750 597 1062 519 
Q 1375 441 1716 441 
Q 2309 441 2620 675 
Q 2931 909 2931 1356 
Q 2931 1769 2642 2001 
Q 2353 2234 1838 2234 
L 1294 2234 
L 1294 2753 
L 1863 2753 
Q 2328 2753 2575 2939 
Q 2822 3125 2822 3475 
Q 2822 3834 2567 4026 
Q 2313 4219 1838 4219 
Q 1578 4219 1281 4162 
Q 984 4106 628 3988 
L 628 4550 
Q 988 4650 1302 4700 
Q 1616 4750 1894 4750 
Q 2613 4750 3031 4423 
Q 3450 4097 3450 3541 
Q 3450 3153 3228 2886 
Q 3006 2619 2597 2516 
z
" transform="scale(0.015625)"/>
       </defs>
       <use xlink:href="#DejaVuSans-2212"/>
       <use xlink:href="#DejaVuSans-33" x="83.789062"/>
       <use xlink:href="#DejaVuSans-30" x="147.412109"/>
      </g>
     </g>
    </g>
    <g id="xtick_3">
     <g id="line2d_3">
      <g>
       <use xlink:href="#m25cf764247" x="94.632688" y="269.911219" style="stroke: #000000; stroke-width: 0.8"/>
      </g>
     </g>
     <g id="text_3">
      <!-- −20 -->
      <g transform="translate(84.080344 284.509656) scale(0.1 -0.1)">
       <defs>
        <path id="DejaVuSans-32" d="M 1228 531 
L 3431 531 
L 3431 0 
L 469 0 
L 469 531 
Q 828 903 1448 1529 
Q 2069 2156 2228 2338 
Q 2531 2678 2651 2914 
Q 2772 3150 2772 3378 
Q 2772 3750 2511 3984 
Q 2250 4219 1831 4219 
Q 1534 4219 1204 4116 
Q 875 4013 500 3803 
L 500 4441 
Q 881 4594 1212 4672 
Q 1544 4750 1819 4750 
Q 2544 4750 2975 4387 
Q 3406 4025 3406 3419 
Q 3406 3131 3298 2873 
Q 3191 2616 2906 2266 
Q 2828 2175 2409 1742 
Q 1991 1309 1228 531 
z
" transform="scale(0.015625)"/>
       </defs>
       <use xlink:href="#DejaVuSans-2212"/>
       <use xlink:href="#DejaVuSans-32" x="83.789062"/>
       <use xlink:href="#DejaVuSans-30" x="147.412109"/>
      </g>
     </g>
    </g>
    <g id="xtick_4">
     <g id="line2d_4">
      <g>
       <use xlink:href="#m25cf764247" x="127.896687" y="269.911219" style="stroke: #000000; stroke-width: 0.8"/>
      </g>
     </g>
     <g id="text_4">
      <!-- −10 -->
      <g transform="translate(117.344344 284.509656) scale(0.1 -0.1)">
       <defs>
        <path id="DejaVuSans-31" d="M 794 531 
L 1825 531 
L 1825 4091 
L 703 3866 
L 703 4441 
L 1819 4666 
L 2450 4666 
L 2450 531 
L 3481 531 
L 3481 0 
L 794 0 
L 794 531 
z
" transform="scale(0.015625)"/>
       </defs>
       <use xlink:href="#DejaVuSans-2212"/>
       <use xlink:href="#DejaVuSans-31" x="83.789062"/>
       <use xlink:href="#DejaVuSans-30" x="147.412109"/>
      </g>
     </g>
    </g>
    <g id="xtick_5">
     <g id="line2d_5">
      <g>
       <use xlink:href="#m25cf764247" x="161.160687" y="269.911219" style="stroke: #000000; stroke-width: 0.8"/>
      </g>
     </g>
     <g id="text_5">
      <!-- 0 -->
      <g transform="translate(157.979437 284.509656) scale(0.1 -0.1)">
       <use xlink:href="#DejaVuSans-30"/>
      </g>
     </g>
    </g>
    <g id="xtick_6">
     <g id="line2d_6">
      <g>
       <use xlink:href="#m25cf764247" x="194.424688" y="269.911219" style="stroke: #000000; stroke-width: 0.8"/>
      </g>
     </g>
     <g id="text_6">
      <!-- 10 -->
      <g transform="translate(188.062187 284.509656) scale(0.1 -0.1)">
       <use xlink:href="#DejaVuSans-31"/>
       <use xlink:href="#DejaVuSans-30" x="63.623047"/>
      </g>
     </g>
    </g>
    <g id="xtick_7">
     <g id="line2d_7">
      <g>
       <use xlink:href="#m25cf764247" x="227.688687" y="269.911219" style="stroke: #000000; stroke-width: 0.8"/>
      </g>
     </g>
     <g id="text_7">
      <!-- 20 -->
      <g transform="translate(221.326187 284.509656) scale(0.1 -0.1)">
       <use xlink:href="#DejaVuSans-32"/>
       <use xlink:href="#DejaVuSans-30" x="63.623047"/>
      </g>
     </g>
    </g>
    <g id="xtick_8">
     <g id="line2d_8">
      <g>
       <use xlink:href="#m25cf764247" x="260.952687" y="269.911219" style="stroke: #000000; stroke-width: 0.8"/>
      </g>
     </g>
     <g id="text_8">
      <!-- 30 -->
      <g transform="translate(254.590187 284.509656) scale(0.1 -0.1)">
       <use xlink:href="#DejaVuSans-33"/>
       <use xlink:href="#DejaVuSans-30" x="63.623047"/>
      </g>
     </g>
    </g>
    <g id="xtick_9">
     <g id="line2d_9">
      <g>
       <use xlink:href="#m25cf764247" x="294.216687" y="269.911219" style="stroke: #000000; stroke-width: 0.8"/>
      </g>
     </g>
     <g id="text_9">
      <!-- 40 -->
      <g transform="translate(287.854187 284.509656) scale(0.1 -0.1)">
       <use xlink:href="#DejaVuSans-34"/>
       <use xlink:href="#DejaVuSans-30" x="63.623047"/>
      </g>
     </g>
    </g>
   </g>
   <g id="matplotlib.axis_2">
    <g id="ytick_1">
     <g id="line2d_10">
      <defs>
       <path id="mce82d579e8" d="M 0 0 
L -3.5 0 
" style="stroke: #000000; stroke-width: 0.8"/>
      </defs>
      <g>
       <use xlink:href="#mce82d579e8" x="28.104688" y="269.911219" style="stroke: #000000; stroke-width: 0.8"/>
      </g>
     </g>
     <g id="text_10">
      <!-- −40 -->
      <g transform="translate(0 273.710437) scale(0.1 -0.1)">
       <use xlink:href="#DejaVuSans-2212"/>
       <use xlink:href="#DejaVuSans-34" x="83.789062"/>
       <use xlink:href="#DejaVuSans-30" x="147.412109"/>
      </g>
     </g>
    </g>
    <g id="ytick_2">
     <g id="line2d_11">
      <g>
       <use xlink:href="#mce82d579e8" x="28.104688" y="236.647219" style="stroke: #000000; stroke-width: 0.8"/>
      </g>
     </g>
     <g id="text_11">
      <!-- −30 -->
      <g transform="translate(0 240.446437) scale(0.1 -0.1)">
       <use xlink:href="#DejaVuSans-2212"/>
       <use xlink:href="#DejaVuSans-33" x="83.789062"/>
       <use xlink:href="#DejaVuSans-30" x="147.412109"/>
      </g>
     </g>
    </g>
    <g id="ytick_3">
     <g id="line2d_12">
      <g>
       <use xlink:href="#mce82d579e8" x="28.104688" y="203.383219" style="stroke: #000000; stroke-width: 0.8"/>
      </g>
     </g>
     <g id="text_12">
      <!-- −20 -->
      <g transform="translate(0 207.182437) scale(0.1 -0.1)">
       <use xlink:href="#DejaVuSans-2212"/>
       <use xlink:href="#DejaVuSans-32" x="83.789062"/>
       <use xlink:href="#DejaVuSans-30" x="147.412109"/>
      </g>
     </g>
    </g>
    <g id="ytick_4">
     <g id="line2d_13">
      <g>
       <use xlink:href="#mce82d579e8" x="28.104688" y="170.119219" style="stroke: #000000; stroke-width: 0.8"/>
      </g>
     </g>
     <g id="text_13">
      <!-- −10 -->
      <g transform="translate(0 173.918437) scale(0.1 -0.1)">
       <use xlink:href="#DejaVuSans-2212"/>
       <use xlink:href="#DejaVuSans-31" x="83.789062"/>
       <use xlink:href="#DejaVuSans-30" x="147.412109"/>
      </g>
     </g>
    </g>
    <g id="ytick_5">
     <g id="line2d_14">
      <g>
       <use xlink:href="#mce82d579e8" x="28.104688" y="136.855219" style="stroke: #000000; stroke-width: 0.8"/>
      </g>
     </g>
     <g id="text_14">
      <!-- 0 -->
      <g transform="translate(14.742188 140.654437) scale(0.1 -0.1)">
       <use xlink:href="#DejaVuSans-30"/>
      </g>
     </g>
    </g>
    <g id="ytick_6">
     <g id="line2d_15">
      <g>
       <use xlink:href="#mce82d579e8" x="28.104688" y="103.591219" style="stroke: #000000; stroke-width: 0.8"/>
      </g>
     </g>
     <g id="text_15">
      <!-- 10 -->
      <g transform="translate(8.379688 107.390437) scale(0.1 -0.1)">
       <use xlink:href="#DejaVuSans-31"/>
       <use xlink:href="#DejaVuSans-30" x="63.623047"/>
      </g>
     </g>
    </g>
    <g id="ytick_7">
     <g id="line2d_16">
      <g>
       <use xlink:href="#mce82d579e8" x="28.104688" y="70.327219" style="stroke: #000000; stroke-width: 0.8"/>
      </g>
     </g>
     <g id="text_16">
      <!-- 20 -->
      <g transform="translate(8.379688 74.126437) scale(0.1 -0.1)">
       <use xlink:href="#DejaVuSans-32"/>
       <use xlink:href="#DejaVuSans-30" x="63.623047"/>
      </g>
     </g>
    </g>
    <g id="ytick_8">
     <g id="line2d_17">
      <g>
       <use xlink:href="#mce82d579e8" x="28.104688" y="37.063219" style="stroke: #000000; stroke-width: 0.8"/>
      </g>
     </g>
     <g id="text_17">
      <!-- 30 -->
      <g transform="translate(8.379688 40.862437) scale(0.1 -0.1)">
       <use xlink:href="#DejaVuSans-33"/>
       <use xlink:href="#DejaVuSans-30" x="63.623047"/>
      </g>
     </g>
    </g>
    <g id="ytick_9">
     <g id="line2d_18">
      <g>
       <use xlink:href="#mce82d579e8" x="28.104688" y="3.799219" style="stroke: #000000; stroke-width: 0.8"/>
      </g>
     </g>
     <g id="text_18">
      <!-- 40 -->
      <g transform="translate(8.379688 7.598437) scale(0.1 -0.1)">
       <use xlink:href="#DejaVuSans-34"/>
       <use xlink:href="#DejaVuSans-30" x="63.623047"/>
      </g>
     </g>
    </g>
   </g>
   <g id="line2d_19">
    <path d="M 175.297888 250.784419 
L 175.297888 150.992419 
" clip-path="url(#p50fded130f)" style="fill: none; stroke: #000000; stroke-width: 0.25; stroke-linecap: square"/>
   </g>
   <g id="line2d_20">
    <path d="M 175.297888 150.992419 
L 275.089887 150.992419 
" clip-path="url(#p50fded130f)" style="fill: none; stroke: #000000; stroke-width: 0.25; stroke-linecap: square"/>
   </g>
   <g id="line2d_21">
    <path d="M 275.089887 122.718019 
L 175.297888 122.718019 
" clip-path="url(#p50fded130f)" style="fill: none; stroke: #000000; stroke-width: 0.25; stroke-linecap: square"/>
   </g>
   <g id="line2d_22">
    <path d="M 175.297888 122.718019 
L 175.297888 22.926019 
" clip-path="url(#p50fded130f)" style="fill: none; stroke: #000000; stroke-width: 0.25; stroke-linecap: square"/>
   </g>
   <g id="line2d_23">
    <path d="M 147.023487 22.926019 
L 147.023487 122.718019 
" clip-path="url(#p50fded130f)" style="fill: none; stroke: #000000; stroke-width: 0.25; stroke-linecap: square"/>
   </g>
   <g id="line2d_24">
    <path d="M 147.023487 122.718019 
L 47.231488 122.718019 
" clip-path="url(#p50fded130f)" style="fill: none; stroke: #000000; stroke-width: 0.25; stroke-linecap: square"/>
   </g>
   <g id="line2d_25">
    <path d="M 47.231488 150.992419 
L 147.023487 150.992419 
" clip-path="url(#p50fded130f)" style="fill: none; stroke: #000000; stroke-width: 0.25; stroke-linecap: square"/>
   </g>
   <g id="line2d_26">
    <path d="M 147.023487 150.992419 
L 147.023487 250.784419 
" clip-path="url(#p50fded130f)" style="fill: none; stroke: #000000; stroke-width: 0.25; stroke-linecap: square"/>
   </g>
   <g id="line2d_27">
    <path d="M 175.297888 136.855219 
L 275.089887 136.855219 
" clip-path="url(#p50fded130f)" style="fill: none; stroke-dasharray: 0.925,0.4; stroke-dashoffset: 0; stroke: #000000; stroke-width: 0.25"/>
   </g>
   <g id="line2d_28">
    <path d="M 161.160687 122.718019 
L 161.160687 22.926019 
" clip-path="url(#p50fded130f)" style="fill: none; stroke-dasharray: 0.925,0.4; stroke-dashoffset: 0; stroke: #000000; stroke-width: 0.25"/>
   </g>
   <g id="line2d_29">
    <path d="M 147.023487 136.855219 
L 47.231488 136.855219 
" clip-path="url(#p50fded130f)" style="fill: none; stroke-dasharray: 0.925,0.4; stroke-dashoffset: 0; stroke: #000000; stroke-width: 0.25"/>
   </g>
   <g id="line2d_30">
    <path d="M 161.160687 150.992419 
L 161.160687 250.784419 
" clip-path="url(#p50fded130f)" style="fill: none; stroke-dasharray: 0.925,0.4; stroke-dashoffset: 0; stroke: #000000; stroke-width: 0.25"/>
   </g>
   <g id="line2d_31">
    <path d="M 159.877488 131.906515 
L 158.270242 131.040284 
L 156.586878 130.341032 
L 154.846508 129.815538 
L 153.068827 129.467876 
L 151.273533 129.298049 
L 149.479356 129.306534 
L 147.699749 129.437458 
L 145.929257 129.555019 
L 144.16776 129.656109 
L 142.414922 129.734489 
L 140.670369 129.782912 
L 138.933843 129.800597 
L 137.205026 129.816704 
L 135.483109 129.836314 
L 133.767779 129.883783 
L 132.059194 129.968507 
L 130.35526 130.054923 
L 128.654797 130.132639 
L 126.956718 130.188698 
L 125.260636 130.220703 
L 123.566333 130.228614 
L 121.873648 130.212599 
L 120.182309 130.181327 
L 118.4916 130.162248 
L 116.801349 130.163724 
L 115.111946 130.203771 
L 113.42443 130.288263 
L 111.738099 130.391502 
L 110.052775 130.509025 
L 108.368188 130.636388 
" clip-path="url(#p50fded130f)" style="fill: none; stroke: #ff0000; stroke-width: 0.25; stroke-linecap: square"/>
   </g>
   <g id="line2d_32">
    <path d="M 168.255471 119.064703 
L 167.928542 117.781132 
L 167.694569 116.466106 
L 167.55734 115.124279 
L 167.518961 113.76142 
L 167.558468 112.383317 
L 167.53888 110.989266 
L 167.48416 109.580651 
L 167.398676 108.15847 
L 167.31897 106.721424 
L 167.256024 105.269776 
L 167.216789 103.804423 
L 167.199962 102.326761 
L 167.204269 100.838186 
L 167.228513 99.340064 
L 167.271555 97.833713 
L 167.332271 96.320381 
L 167.409469 94.801225 
L 167.501742 93.277289 
L 167.607378 91.749485 
L 167.706312 90.217297 
L 167.776058 88.680331 
L 167.813063 87.139726 
L 167.793983 85.596904 
L 167.726268 84.054099 
L 167.638184 82.511405 
L 167.538746 80.968838 
L 167.440426 79.425869 
L 167.34248 77.88271 
L 167.241502 76.339679 
L 167.135638 74.796955 
" clip-path="url(#p50fded130f)" style="fill: none; stroke: #ff0000; stroke-width: 0.25; stroke-linecap: square"/>
   </g>
   <g id="line2d_33">
    <path d="M 150.427227 140.97708 
L 150.847423 142.631668 
L 151.413447 144.222424 
L 152.040361 145.768333 
L 152.586117 147.324136 
L 153.045565 148.889492 
L 153.420555 150.461937 
L 153.708666 152.040447 
L 153.904172 153.624312 
L 154.053288 155.207338 
L 154.182115 156.788628 
L 154.320366 158.367591 
L 154.484139 159.944068 
L 154.645344 161.521943 
L 154.779391 163.1044 
L 154.878773 164.692099 
L 154.944898 166.284632 
L 154.979742 167.881466 
L 154.98537 169.482011 
L 154.963832 171.085655 
L 154.917158 172.691781 
L 154.847427 174.299793 
L 154.756927 175.909151 
L 154.652521 177.519686 
L 154.576641 179.133432 
L 154.53096 180.749512 
L 154.536799 182.367111 
L 154.600377 183.984032 
L 154.68538 185.600313 
L 154.785819 187.215868 
L 154.894677 188.830923 
" clip-path="url(#p50fded130f)" style="fill: none; stroke: #ff0000; stroke-width: 0.25; stroke-linecap: square"/>
   </g>
   <g id="line2d_34">
    <path d="M 165.060328 146.806103 
L 166.5979 146.109388 
L 168.165965 145.530493 
L 169.743689 145.030473 
L 171.328955 144.611489 
L 172.920019 144.27662 
L 174.514953 144.028216 
L 176.111583 143.866368 
L 177.708028 143.790514 
L 179.301204 143.736249 
L 180.892256 143.683622 
L 182.48228 143.617073 
L 184.071881 143.526669 
L 185.664201 143.454168 
L 187.260121 143.408994 
L 188.859795 143.394299 
L 190.463063 143.407532 
L 192.069754 143.445181 
L 193.680585 143.469633 
L 195.295382 143.476578 
L 196.913312 143.436274 
L 198.532975 143.354734 
L 200.154937 143.261248 
L 201.779264 143.164847 
L 203.406222 143.076098 
L 205.035422 142.995004 
L 206.666448 142.920929 
L 208.298876 142.852747 
L 209.932297 142.788969 
L 211.566331 142.727874 
L 213.200631 142.667615 
" clip-path="url(#p50fded130f)" style="fill: none; stroke: #ff0000; stroke-width: 0.25; stroke-linecap: square"/>
   </g>
   <g id="line2d_35">
    <path d="M 167.063203 174.605246 
L 167.091951 172.984825 
L 167.125669 171.374404 
L 167.170191 169.772899 
L 167.227112 168.179165 
L 167.297948 166.592045 
L 167.384061 165.010341 
L 167.486539 163.432767 
L 167.606019 161.857904 
L 167.704543 160.281299 
L 167.767617 158.700627 
L 167.822956 157.115149 
L 167.883886 155.522875 
L 167.969889 153.92182 
L 168.097911 152.310239 
L 168.285515 150.687314 
L 168.536965 149.05159 
L 168.856081 147.402131 
L 169.242554 145.737613 
L 169.690181 144.055263 
L 170.178311 142.34774 
L 170.646519 140.59624 
L 171.006296 138.781439 
L 171.141064 136.901649 
L 170.95018 134.99726 
L 170.485901 133.11752 
L 169.819697 131.283956 
L 168.957881 129.525089 
L 168.044996 127.789071 
L 167.154481 126.041934 
L 166.346473 124.256674 
" clip-path="url(#p50fded130f)" style="fill: none; stroke: #ff0000; stroke-width: 0.25; stroke-linecap: square"/>
   </g>
   <g id="line2d_36">
    <path d="M 198.963985 131.031778 
L 197.352657 131.008458 
L 195.745403 130.979133 
L 194.141504 130.937196 
L 192.540191 130.880007 
L 190.9407 130.804701 
L 189.342273 130.708243 
L 187.744143 130.587525 
L 186.145525 130.439531 
L 184.540813 130.311393 
L 182.928182 130.208473 
L 181.308484 130.090152 
L 179.681067 129.940403 
L 178.046861 129.734613 
L 176.408046 129.453672 
L 174.768849 129.079454 
L 173.131475 128.61045 
L 171.49848 128.045981 
L 169.869908 127.393141 
L 168.221488 126.714195 
L 166.514021 126.112017 
L 164.728026 125.689743 
L 162.879316 125.542686 
L 161.021834 125.731128 
L 159.188496 126.109479 
L 157.405786 126.673786 
L 155.68496 127.386442 
L 153.967103 128.080111 
L 152.242331 128.7294 
L 150.513279 129.346726 
L 148.798484 129.993842 
" clip-path="url(#p50fded130f)" style="fill: none; stroke: #ff0000; stroke-width: 0.25; stroke-linecap: square"/>
   </g>
   <g id="line2d_37">
    <path d="M 154.700314 99.698595 
L 154.557324 101.357812 
L 154.399811 103.016491 
L 154.223896 104.675916 
L 154.079481 106.342865 
L 154.011597 108.020928 
L 154.01795 109.708303 
L 154.050468 111.405001 
L 154.098436 113.112599 
L 154.146521 114.833268 
L 154.182216 116.569162 
L 154.177859 118.322108 
L 154.135006 120.092592 
L 154.087136 121.881958 
L 154.052172 123.691349 
L 154.05089 125.521234 
L 154.107786 127.370331 
L 154.250805 129.234324 
L 154.513087 131.103852 
L 154.950018 132.957514 
L 155.609894 134.759165 
L 156.508523 136.467545 
L 157.62579 138.053287 
L 158.912204 139.516076 
L 160.352467 140.838062 
L 161.930694 142.00169 
L 163.627999 142.991518 
L 165.423002 143.794174 
L 167.293008 144.399313 
L 169.215743 144.799518 
L 171.15046 145.131958 
" clip-path="url(#p50fded130f)" style="fill: none; stroke: #ff0000; stroke-width: 0.25; stroke-linecap: square"/>
   </g>
   <g id="line2d_38">
    <path d="M 114.87746 142.717334 
L 116.266921 142.735644 
L 117.650514 142.754403 
L 119.027316 142.77725 
L 120.396412 142.804694 
L 121.756857 142.837226 
L 123.107684 142.875299 
L 124.447919 142.919301 
L 125.776593 142.969528 
L 127.09277 143.026151 
L 128.395574 143.089189 
L 129.684231 143.15847 
L 130.958107 143.233595 
L 132.217662 143.298376 
L 133.462791 143.347851 
L 134.693349 143.38428 
L 135.909706 143.400552 
L 137.112375 143.414207 
L 138.302759 143.428102 
L 139.482835 143.451021 
L 140.655308 143.486523 
L 141.823838 143.532033 
L 142.993332 143.575876 
L 144.169185 143.597434 
L 145.355242 143.566275 
L 146.552129 143.470748 
L 147.759411 143.317368 
L 148.978476 143.13005 
L 150.210815 142.934333 
L 151.451939 142.726212 
L 152.698771 142.51807 
" clip-path="url(#p50fded130f)" style="fill: none; stroke: #ff0000; stroke-width: 0.25; stroke-linecap: square"/>
   </g>
   <g id="line2d_39">
    <path d="M 167.001867 221.131241 
L 166.999557 219.581147 
L 166.997466 218.03119 
L 166.995684 216.481344 
L 166.9944 214.931586 
L 166.993852 213.381891 
L 166.994339 211.832236 
L 166.996226 210.282594 
L 166.999954 208.732943 
L 167.00604 207.183257 
L 167.015085 205.633513 
L 167.027773 204.083692 
L 167.044865 202.533774 
L 167.067195 200.983746 
L 167.095645 199.433604 
L 167.131124 197.883349 
L 167.174529 196.332994 
L 167.22669 194.78256 
L 167.288297 193.232077 
L 167.359811 191.681578 
L 167.441346 190.131089 
L 167.532521 188.580612 
L 167.632293 187.030112 
L 167.738747 185.479484 
L 167.813735 183.926445 
L 167.855042 182.371637 
L 167.841458 180.815865 
L 167.766243 179.261545 
L 167.670823 177.70812 
L 167.562644 176.155475 
L 167.459907 174.602453 
" clip-path="url(#p50fded130f)" style="fill: none; stroke: #ff0000; stroke-width: 0.25; stroke-linecap: square"/>
   </g>
   <g id="line2d_40">
    <path d="M 232.265932 131.019051 
L 230.29408 131.017239 
L 228.321561 131.014525 
L 226.349841 131.009121 
L 224.380409 131.000149 
L 222.414789 130.9866 
L 220.454544 130.967354 
L 218.50128 130.941203 
L 216.556652 130.9069 
L 214.622359 130.86322 
L 212.700138 130.809059 
L 210.791747 130.743542 
L 208.898935 130.666179 
L 207.023407 130.577037 
L 205.166757 130.476952 
L 203.330403 130.367772 
L 201.515499 130.252623 
L 199.722845 130.136224 
L 197.951039 130.058638 
L 196.201307 130.022402 
L 194.474788 130.04953 
L 192.773214 130.138665 
L 191.096266 130.274296 
L 189.442869 130.453872 
L 187.810541 130.673916 
L 186.197605 130.944628 
L 184.599921 131.264332 
L 183.010876 131.621541 
L 181.416517 131.968651 
L 179.805923 132.254996 
L 178.176533 132.430311 
" clip-path="url(#p50fded130f)" style="fill: none; stroke: #ff0000; stroke-width: 0.25; stroke-linecap: square"/>
   </g>
   <g id="line2d_41">
    <path d="M 155.326459 52.577498 
L 155.327051 54.127111 
L 155.327075 55.676677 
L 155.325859 57.226214 
L 155.322987 58.775742 
L 155.317967 60.325282 
L 155.310227 61.874853 
L 155.29911 63.424473 
L 155.283879 64.974159 
L 155.263721 66.523921 
L 155.237763 68.073768 
L 155.205093 69.623698 
L 155.164791 71.173703 
L 155.115984 72.723765 
L 155.057898 74.273855 
L 154.989954 75.823945 
L 154.911863 77.374007 
L 154.823771 78.92403 
L 154.726412 80.47404 
L 154.621309 82.024119 
L 154.524947 83.575362 
L 154.46215 85.128886 
L 154.432308 86.683895 
L 154.463246 88.239258 
L 154.54508 89.792976 
L 154.648349 91.345484 
L 154.762762 92.897139 
L 154.873998 94.448947 
L 154.981372 96.000956 
L 155.084869 97.55318 
L 155.184993 99.105601 
" clip-path="url(#p50fded130f)" style="fill: none; stroke: #ff0000; stroke-width: 0.25; stroke-linecap: square"/>
   </g>
   <g id="line2d_42">
    <path d="M 76.884504 142.696577 
L 78.434558 142.694552 
L 79.98451 142.692766 
L 81.534384 142.691357 
L 83.084204 142.69052 
L 84.633995 142.690503 
L 86.18378 142.691613 
L 87.733584 142.694218 
L 89.28343 142.698759 
L 90.833342 142.705752 
L 92.383342 142.715786 
L 93.93345 142.729525 
L 95.483682 142.747702 
L 97.034048 142.771103 
L 98.584553 142.800552 
L 100.135193 142.836876 
L 101.685954 142.880864 
L 103.236815 142.933211 
L 104.78775 142.994441 
L 106.338732 143.064812 
L 107.889747 143.144193 
L 109.440805 143.231922 
L 110.991958 143.326628 
L 112.543324 143.426025 
L 114.09697 143.491666 
L 115.652135 143.52097 
L 117.207727 143.496418 
L 118.761711 143.418031 
L 120.314706 143.320477 
L 121.867036 143.213152 
L 123.419801 143.112537 
" clip-path="url(#p50fded130f)" style="fill: none; stroke: #ff0000; stroke-width: 0.25; stroke-linecap: square"/>
   </g>
   <g id="patch_15">
    <path d="M 28.104688 269.911219 
L 28.104688 3.799219 
" style="fill: none; stroke: #000000; stroke-width: 0.8; stroke-linejoin: miter; stroke-linecap: square"/>
   </g>
   <g id="patch_16">
    <path d="M 294.216687 269.911219 
L 294.216687 3.799219 
" style="fill: none; stroke: #000000; stroke-width: 0.8; stroke-linejoin: miter; stroke-linecap: square"/>
   </g>
   <g id="patch_17">
    <path d="M 28.104688 269.911219 
L 294.216687 269.911219 
" style="fill: none; stroke: #000000; stroke-width: 0.8; stroke-linejoin: miter; stroke-linecap: square"/>
   </g>
   <g id="patch_18">
    <path d="M 28.104688 3.799219 
L 294.216687 3.799219 
" style="fill: none; stroke: #000000; stroke-width: 0.8; stroke-linejoin: miter; stroke-linecap: square"/>
   </g>
   <g id="text_19">
    <!-- Time: 3.2 s -->
    <g transform="translate(198.9952 17.104819) scale(0.1 -0.1)">
     <defs>
      <path id="DejaVuSans-54" d="M -19 4666 
L 3928 4666 
L 3928 4134 
L 2272 4134 
L 2272 0 
L 1638 0 
L 1638 4134 
L -19 4134 
L -19 4666 
z
" transform="scale(0.015625)"/>
      <path id="DejaVuSans-69" d="M 603 3500 
L 1178 3500 
L 1178 0 
L 603 0 
L 603 3500 
z
M 603 4863 
L 1178 4863 
L 1178 4134 
L 603 4134 
L 603 4863 
z
" transform="scale(0.015625)"/>
      <path id="DejaVuSans-6d" d="M 3328 2828 
Q 3544 3216 3844 3400 
Q 4144 3584 4550 3584 
Q 5097 3584 5394 3201 
Q 5691 2819 5691 2113 
L 5691 0 
L 5113 0 
L 5113 2094 
Q 5113 2597 4934 2840 
Q 4756 3084 4391 3084 
Q 3944 3084 3684 2787 
Q 3425 2491 3425 1978 
L 3425 0 
L 2847 0 
L 2847 2094 
Q 2847 2600 2669 2842 
Q 2491 3084 2119 3084 
Q 1678 3084 1418 2786 
Q 1159 2488 1159 1978 
L 1159 0 
L 581 0 
L 581 3500 
L 1159 3500 
L 1159 2956 
Q 1356 3278 1631 3431 
Q 1906 3584 2284 3584 
Q 2666 3584 2933 3390 
Q 3200 3197 3328 2828 
z
" transform="scale(0.015625)"/>
      <path id="DejaVuSans-65" d="M 3597 1894 
L 3597 1613 
L 953 1613 
Q 991 1019 1311 708 
Q 1631 397 2203 397 
Q 2534 397 2845 478 
Q 3156 559 3463 722 
L 3463 178 
Q 3153 47 2828 -22 
Q 2503 -91 2169 -91 
Q 1331 -91 842 396 
Q 353 884 353 1716 
Q 353 2575 817 3079 
Q 1281 3584 2069 3584 
Q 2775 3584 3186 3129 
Q 3597 2675 3597 1894 
z
M 3022 2063 
Q 3016 2534 2758 2815 
Q 2500 3097 2075 3097 
Q 1594 3097 1305 2825 
Q 1016 2553 972 2059 
L 3022 2063 
z
" transform="scale(0.015625)"/>
      <path id="DejaVuSans-3a" d="M 750 794 
L 1409 794 
L 1409 0 
L 750 0 
L 750 794 
z
M 750 3309 
L 1409 3309 
L 1409 2516 
L 750 2516 
L 750 3309 
z
" transform="scale(0.015625)"/>
      <path id="DejaVuSans-20" transform="scale(0.015625)"/>
      <path id="DejaVuSans-2e" d="M 684 794 
L 1344 794 
L 1344 0 
L 684 0 
L 684 794 
z
" transform="scale(0.015625)"/>
      <path id="DejaVuSans-73" d="M 2834 3397 
L 2834 2853 
Q 2591 2978 2328 3040 
Q 2066 3103 1784 3103 
Q 1356 3103 1142 2972 
Q 928 2841 928 2578 
Q 928 2378 1081 2264 
Q 1234 2150 1697 2047 
L 1894 2003 
Q 2506 1872 2764 1633 
Q 3022 1394 3022 966 
Q 3022 478 2636 193 
Q 2250 -91 1575 -91 
Q 1294 -91 989 -36 
Q 684 19 347 128 
L 347 722 
Q 666 556 975 473 
Q 1284 391 1588 391 
Q 1994 391 2212 530 
Q 2431 669 2431 922 
Q 2431 1156 2273 1281 
Q 2116 1406 1581 1522 
L 1381 1569 
Q 847 1681 609 1914 
Q 372 2147 372 2553 
Q 372 3047 722 3315 
Q 1072 3584 1716 3584 
Q 2034 3584 2315 3537 
Q 2597 3491 2834 3397 
z
" transform="scale(0.015625)"/>
     </defs>
     <use xlink:href="#DejaVuSans-54"/>
     <use xlink:href="#DejaVuSans-69" x="57.958984"/>
     <use xlink:href="#DejaVuSans-6d" x="85.742188"/>
     <use xlink:href="#DejaVuSans-65" x="183.154297"/>
     <use xlink:href="#DejaVuSans-3a" x="244.677734"/>
     <use xlink:href="#DejaVuSans-20" x="278.369141"/>
     <use xlink:href="#DejaVuSans-33" x="310.15625"/>
     <use xlink:href="#DejaVuSans-2e" x="373.779297"/>
     <use xlink:href="#DejaVuSans-32" x="405.566406"/>
     <use xlink:href="#DejaVuSans-20" x="469.189453"/>
     <use xlink:href="#DejaVuSans-73" x="500.976562"/>
    </g>
   </g>
  </g>
 </g>
 <defs>
  <clipPath id="p50fded130f">
   <rect x="28.104688" y="3.799219" width="266.112" height="266.112"/>
  </clipPath>
 </defs>
</svg>
