<?xml version="1.0" encoding="utf-8" standalone="no"?>
<!DOCTYPE svg PUBLIC "-//W3C//DTD SVG 1.1//EN"
  "http://www.w3.org/Graphics/SVG/1.1/DTD/svg11.dtd">
<svg xmlns:xlink="http://www.w3.org/1999/xlink" width="300.579188pt" height="286.589344pt" viewBox="0 0 300.579188 286.589344" xmlns="http://www.w3.org/2000/svg" version="1.1">
 <metadata>
  <rdf:RDF xmlns:dc="http://purl.org/dc/elements/1.1/" xmlns:cc="http://creativecommons.org/ns#" xmlns:rdf="http://www.w3.org/1999/02/22-rdf-syntax-ns#">
   <cc:Work>
    <dc:type rdf:resource="http://purl.org/dc/dcmitype/StillImage"/>
    <dc:date>2024-02-26T10:13:48.779141</dc:date>
    <dc:format>image/svg+xml</dc:format>
    <dc:creator>
     <cc:Agent>
      <dc:title>Matplotlib v3.8.2, https://matplotlib.org/</dc:title>
     </cc:Agent>
    </dc:creator>
   </cc:Work>
  </rdf:RDF>
 </metadata>
 <defs>
  <style type="text/css">*{stroke-linejoin: round; stroke-linecap: butt}</style>
 </defs>
 <g id="figure_1">
  <g id="patch_1">
   <path d="M 0 286.589344 
L 300.579188 286.589344 
L 300.579188 0 
L 0 0 
z
" style="fill: #ffffff"/>
  </g>
  <g id="axes_1">
   <g id="patch_2">
    <path d="M 28.104688 269.911219 
L 294.216687 269.911219 
L 294.216687 3.799219 
L 28.104688 3.799219 
z
" style="fill: #ffffff"/>
   </g>
   <g id="patch_3">
    <path d="M 90.925721 128.150807 
L 79.283412 128.196893 
L 79.305797 133.851729 
L 90.948106 133.805642 
z
" clip-path="url(#pcbe30317bc)" style="fill: #00008b"/>
   </g>
   <g id="patch_4">
    <path d="M 169.857259 58.765666 
L 169.82698 47.123305 
L 164.172119 47.138012 
L 164.202398 58.780373 
z
" clip-path="url(#pcbe30317bc)" style="fill: #800000"/>
   </g>
   <g id="patch_5">
    <path d="M 152.448888 206.296042 
L 152.506449 217.9383 
L 158.16126 217.910342 
L 158.103699 206.268084 
z
" clip-path="url(#pcbe30317bc)" style="fill: #006400"/>
   </g>
   <g id="patch_6">
    <path d="M 230.590617 145.539151 
L 242.233016 145.534522 
L 242.230767 139.879643 
L 230.588368 139.884272 
z
" clip-path="url(#pcbe30317bc)" style="fill: #4b0082"/>
   </g>
   <g id="patch_7">
    <path d="M 170.538554 108.790481 
L 170.014617 97.159876 
L 164.365467 97.414359 
L 164.889403 109.044964 
z
" clip-path="url(#pcbe30317bc)" style="fill: #0000ff"/>
   </g>
   <g id="patch_8">
    <path d="M 133.945309 126.730694 
L 122.351644 127.794841 
L 122.868515 133.42605 
L 134.46218 132.361903 
z
" clip-path="url(#pcbe30317bc)" style="fill: #ff0000"/>
   </g>
   <g id="patch_9">
    <path d="M 188.802422 145.789777 
L 200.436506 145.349828 
L 200.222817 139.698987 
L 188.588732 140.138936 
z
" clip-path="url(#pcbe30317bc)" style="fill: #dbdc56"/>
   </g>
   <g id="patch_10">
    <path d="M 171.925347 135.915646 
L 175.927394 124.982709 
L 170.617111 123.038858 
L 166.615064 133.971795 
z
" clip-path="url(#pcbe30317bc)" style="fill: #9400d3"/>
   </g>
   <g id="patch_11">
    <path d="M 169.118728 159.842287 
L 170.002744 148.233497 
L 164.364189 147.804118 
L 163.480173 159.412908 
z
" clip-path="url(#pcbe30317bc)" style="fill: #1e90ff"/>
   </g>
   <g id="patch_12">
    <path d="M 153.227057 140.501966 
L 149.206223 151.428007 
L 154.513157 153.380984 
L 158.533991 142.454943 
z
" clip-path="url(#pcbe30317bc)" style="fill: #ff4500"/>
   </g>
   <g id="patch_13">
    <path d="M 152.383701 113.812702 
L 152.288039 125.454709 
L 157.942728 125.501174 
L 158.03839 113.859167 
z
" clip-path="url(#pcbe30317bc)" style="fill: #7cfc00"/>
   </g>
   <g id="patch_14">
    <path d="M 135.971172 144.794298 
L 147.443703 142.812752 
L 146.481237 137.24038 
L 135.008707 139.221926 
z
" clip-path="url(#pcbe30317bc)" style="fill: #ff00ff"/>
   </g>
   <g id="matplotlib.axis_1">
    <g id="xtick_1">
     <g id="line2d_1">
      <defs>
       <path id="m600cafced4" d="M 0 0 
L 0 3.5 
" style="stroke: #000000; stroke-width: 0.8"/>
      </defs>
      <g>
       <use xlink:href="#m600cafced4" x="28.104688" y="269.911219" style="stroke: #000000; stroke-width: 0.8"/>
      </g>
     </g>
     <g id="text_1">
      <!-- −40 -->
      <g transform="translate(17.552344 284.509656) scale(0.1 -0.1)">
       <defs>
        <path id="DejaVuSans-2212" d="M 678 2272 
L 4684 2272 
L 4684 1741 
L 678 1741 
L 678 2272 
z
" transform="scale(0.015625)"/>
        <path id="DejaVuSans-34" d="M 2419 4116 
L 825 1625 
L 2419 1625 
L 2419 4116 
z
M 2253 4666 
L 3047 4666 
L 3047 1625 
L 3713 1625 
L 3713 1100 
L 3047 1100 
L 3047 0 
L 2419 0 
L 2419 1100 
L 313 1100 
L 313 1709 
L 2253 4666 
z
" transform="scale(0.015625)"/>
        <path id="DejaVuSans-30" d="M 2034 4250 
Q 1547 4250 1301 3770 
Q 1056 3291 1056 2328 
Q 1056 1369 1301 889 
Q 1547 409 2034 409 
Q 2525 409 2770 889 
Q 3016 1369 3016 2328 
Q 3016 3291 2770 3770 
Q 2525 4250 2034 4250 
z
M 2034 4750 
Q 2819 4750 3233 4129 
Q 3647 3509 3647 2328 
Q 3647 1150 3233 529 
Q 2819 -91 2034 -91 
Q 1250 -91 836 529 
Q 422 1150 422 2328 
Q 422 3509 836 4129 
Q 1250 4750 2034 4750 
z
" transform="scale(0.015625)"/>
       </defs>
       <use xlink:href="#DejaVuSans-2212"/>
       <use xlink:href="#DejaVuSans-34" x="83.789062"/>
       <use xlink:href="#DejaVuSans-30" x="147.412109"/>
      </g>
     </g>
    </g>
    <g id="xtick_2">
     <g id="line2d_2">
      <g>
       <use xlink:href="#m600cafced4" x="61.368688" y="269.911219" style="stroke: #000000; stroke-width: 0.8"/>
      </g>
     </g>
     <g id="text_2">
      <!-- −30 -->
      <g transform="translate(50.816344 284.509656) scale(0.1 -0.1)">
       <defs>
        <path id="DejaVuSans-33" d="M 2597 2516 
Q 3050 2419 3304 2112 
Q 3559 1806 3559 1356 
Q 3559 666 3084 287 
Q 2609 -91 1734 -91 
Q 1441 -91 1130 -33 
Q 819 25 488 141 
L 488 750 
Q 750 597 1062 519 
Q 1375 441 1716 441 
Q 2309 441 2620 675 
Q 2931 909 2931 1356 
Q 2931 1769 2642 2001 
Q 2353 2234 1838 2234 
L 1294 2234 
L 1294 2753 
L 1863 2753 
Q 2328 2753 2575 2939 
Q 2822 3125 2822 3475 
Q 2822 3834 2567 4026 
Q 2313 4219 1838 4219 
Q 1578 4219 1281 4162 
Q 984 4106 628 3988 
L 628 4550 
Q 988 4650 1302 4700 
Q 1616 4750 1894 4750 
Q 2613 4750 3031 4423 
Q 3450 4097 3450 3541 
Q 3450 3153 3228 2886 
Q 3006 2619 2597 2516 
z
" transform="scale(0.015625)"/>
       </defs>
       <use xlink:href="#DejaVuSans-2212"/>
       <use xlink:href="#DejaVuSans-33" x="83.789062"/>
       <use xlink:href="#DejaVuSans-30" x="147.412109"/>
      </g>
     </g>
    </g>
    <g id="xtick_3">
     <g id="line2d_3">
      <g>
       <use xlink:href="#m600cafced4" x="94.632688" y="269.911219" style="stroke: #000000; stroke-width: 0.8"/>
      </g>
     </g>
     <g id="text_3">
      <!-- −20 -->
      <g transform="translate(84.080344 284.509656) scale(0.1 -0.1)">
       <defs>
        <path id="DejaVuSans-32" d="M 1228 531 
L 3431 531 
L 3431 0 
L 469 0 
L 469 531 
Q 828 903 1448 1529 
Q 2069 2156 2228 2338 
Q 2531 2678 2651 2914 
Q 2772 3150 2772 3378 
Q 2772 3750 2511 3984 
Q 2250 4219 1831 4219 
Q 1534 4219 1204 4116 
Q 875 4013 500 3803 
L 500 4441 
Q 881 4594 1212 4672 
Q 1544 4750 1819 4750 
Q 2544 4750 2975 4387 
Q 3406 4025 3406 3419 
Q 3406 3131 3298 2873 
Q 3191 2616 2906 2266 
Q 2828 2175 2409 1742 
Q 1991 1309 1228 531 
z
" transform="scale(0.015625)"/>
       </defs>
       <use xlink:href="#DejaVuSans-2212"/>
       <use xlink:href="#DejaVuSans-32" x="83.789062"/>
       <use xlink:href="#DejaVuSans-30" x="147.412109"/>
      </g>
     </g>
    </g>
    <g id="xtick_4">
     <g id="line2d_4">
      <g>
       <use xlink:href="#m600cafced4" x="127.896687" y="269.911219" style="stroke: #000000; stroke-width: 0.8"/>
      </g>
     </g>
     <g id="text_4">
      <!-- −10 -->
      <g transform="translate(117.344344 284.509656) scale(0.1 -0.1)">
       <defs>
        <path id="DejaVuSans-31" d="M 794 531 
L 1825 531 
L 1825 4091 
L 703 3866 
L 703 4441 
L 1819 4666 
L 2450 4666 
L 2450 531 
L 3481 531 
L 3481 0 
L 794 0 
L 794 531 
z
" transform="scale(0.015625)"/>
       </defs>
       <use xlink:href="#DejaVuSans-2212"/>
       <use xlink:href="#DejaVuSans-31" x="83.789062"/>
       <use xlink:href="#DejaVuSans-30" x="147.412109"/>
      </g>
     </g>
    </g>
    <g id="xtick_5">
     <g id="line2d_5">
      <g>
       <use xlink:href="#m600cafced4" x="161.160687" y="269.911219" style="stroke: #000000; stroke-width: 0.8"/>
      </g>
     </g>
     <g id="text_5">
      <!-- 0 -->
      <g transform="translate(157.979437 284.509656) scale(0.1 -0.1)">
       <use xlink:href="#DejaVuSans-30"/>
      </g>
     </g>
    </g>
    <g id="xtick_6">
     <g id="line2d_6">
      <g>
       <use xlink:href="#m600cafced4" x="194.424688" y="269.911219" style="stroke: #000000; stroke-width: 0.8"/>
      </g>
     </g>
     <g id="text_6">
      <!-- 10 -->
      <g transform="translate(188.062187 284.509656) scale(0.1 -0.1)">
       <use xlink:href="#DejaVuSans-31"/>
       <use xlink:href="#DejaVuSans-30" x="63.623047"/>
      </g>
     </g>
    </g>
    <g id="xtick_7">
     <g id="line2d_7">
      <g>
       <use xlink:href="#m600cafced4" x="227.688687" y="269.911219" style="stroke: #000000; stroke-width: 0.8"/>
      </g>
     </g>
     <g id="text_7">
      <!-- 20 -->
      <g transform="translate(221.326187 284.509656) scale(0.1 -0.1)">
       <use xlink:href="#DejaVuSans-32"/>
       <use xlink:href="#DejaVuSans-30" x="63.623047"/>
      </g>
     </g>
    </g>
    <g id="xtick_8">
     <g id="line2d_8">
      <g>
       <use xlink:href="#m600cafced4" x="260.952687" y="269.911219" style="stroke: #000000; stroke-width: 0.8"/>
      </g>
     </g>
     <g id="text_8">
      <!-- 30 -->
      <g transform="translate(254.590187 284.509656) scale(0.1 -0.1)">
       <use xlink:href="#DejaVuSans-33"/>
       <use xlink:href="#DejaVuSans-30" x="63.623047"/>
      </g>
     </g>
    </g>
    <g id="xtick_9">
     <g id="line2d_9">
      <g>
       <use xlink:href="#m600cafced4" x="294.216687" y="269.911219" style="stroke: #000000; stroke-width: 0.8"/>
      </g>
     </g>
     <g id="text_9">
      <!-- 40 -->
      <g transform="translate(287.854187 284.509656) scale(0.1 -0.1)">
       <use xlink:href="#DejaVuSans-34"/>
       <use xlink:href="#DejaVuSans-30" x="63.623047"/>
      </g>
     </g>
    </g>
   </g>
   <g id="matplotlib.axis_2">
    <g id="ytick_1">
     <g id="line2d_10">
      <defs>
       <path id="mbf35272966" d="M 0 0 
L -3.5 0 
" style="stroke: #000000; stroke-width: 0.8"/>
      </defs>
      <g>
       <use xlink:href="#mbf35272966" x="28.104688" y="269.911219" style="stroke: #000000; stroke-width: 0.8"/>
      </g>
     </g>
     <g id="text_10">
      <!-- −40 -->
      <g transform="translate(0 273.710437) scale(0.1 -0.1)">
       <use xlink:href="#DejaVuSans-2212"/>
       <use xlink:href="#DejaVuSans-34" x="83.789062"/>
       <use xlink:href="#DejaVuSans-30" x="147.412109"/>
      </g>
     </g>
    </g>
    <g id="ytick_2">
     <g id="line2d_11">
      <g>
       <use xlink:href="#mbf35272966" x="28.104688" y="236.647219" style="stroke: #000000; stroke-width: 0.8"/>
      </g>
     </g>
     <g id="text_11">
      <!-- −30 -->
      <g transform="translate(0 240.446437) scale(0.1 -0.1)">
       <use xlink:href="#DejaVuSans-2212"/>
       <use xlink:href="#DejaVuSans-33" x="83.789062"/>
       <use xlink:href="#DejaVuSans-30" x="147.412109"/>
      </g>
     </g>
    </g>
    <g id="ytick_3">
     <g id="line2d_12">
      <g>
       <use xlink:href="#mbf35272966" x="28.104688" y="203.383219" style="stroke: #000000; stroke-width: 0.8"/>
      </g>
     </g>
     <g id="text_12">
      <!-- −20 -->
      <g transform="translate(0 207.182437) scale(0.1 -0.1)">
       <use xlink:href="#DejaVuSans-2212"/>
       <use xlink:href="#DejaVuSans-32" x="83.789062"/>
       <use xlink:href="#DejaVuSans-30" x="147.412109"/>
      </g>
     </g>
    </g>
    <g id="ytick_4">
     <g id="line2d_13">
      <g>
       <use xlink:href="#mbf35272966" x="28.104688" y="170.119219" style="stroke: #000000; stroke-width: 0.8"/>
      </g>
     </g>
     <g id="text_13">
      <!-- −10 -->
      <g transform="translate(0 173.918437) scale(0.1 -0.1)">
       <use xlink:href="#DejaVuSans-2212"/>
       <use xlink:href="#DejaVuSans-31" x="83.789062"/>
       <use xlink:href="#DejaVuSans-30" x="147.412109"/>
      </g>
     </g>
    </g>
    <g id="ytick_5">
     <g id="line2d_14">
      <g>
       <use xlink:href="#mbf35272966" x="28.104688" y="136.855219" style="stroke: #000000; stroke-width: 0.8"/>
      </g>
     </g>
     <g id="text_14">
      <!-- 0 -->
      <g transform="translate(14.742188 140.654437) scale(0.1 -0.1)">
       <use xlink:href="#DejaVuSans-30"/>
      </g>
     </g>
    </g>
    <g id="ytick_6">
     <g id="line2d_15">
      <g>
       <use xlink:href="#mbf35272966" x="28.104688" y="103.591219" style="stroke: #000000; stroke-width: 0.8"/>
      </g>
     </g>
     <g id="text_15">
      <!-- 10 -->
      <g transform="translate(8.379688 107.390437) scale(0.1 -0.1)">
       <use xlink:href="#DejaVuSans-31"/>
       <use xlink:href="#DejaVuSans-30" x="63.623047"/>
      </g>
     </g>
    </g>
    <g id="ytick_7">
     <g id="line2d_16">
      <g>
       <use xlink:href="#mbf35272966" x="28.104688" y="70.327219" style="stroke: #000000; stroke-width: 0.8"/>
      </g>
     </g>
     <g id="text_16">
      <!-- 20 -->
      <g transform="translate(8.379688 74.126437) scale(0.1 -0.1)">
       <use xlink:href="#DejaVuSans-32"/>
       <use xlink:href="#DejaVuSans-30" x="63.623047"/>
      </g>
     </g>
    </g>
    <g id="ytick_8">
     <g id="line2d_17">
      <g>
       <use xlink:href="#mbf35272966" x="28.104688" y="37.063219" style="stroke: #000000; stroke-width: 0.8"/>
      </g>
     </g>
     <g id="text_17">
      <!-- 30 -->
      <g transform="translate(8.379688 40.862437) scale(0.1 -0.1)">
       <use xlink:href="#DejaVuSans-33"/>
       <use xlink:href="#DejaVuSans-30" x="63.623047"/>
      </g>
     </g>
    </g>
    <g id="ytick_9">
     <g id="line2d_18">
      <g>
       <use xlink:href="#mbf35272966" x="28.104688" y="3.799219" style="stroke: #000000; stroke-width: 0.8"/>
      </g>
     </g>
     <g id="text_18">
      <!-- 40 -->
      <g transform="translate(8.379688 7.598437) scale(0.1 -0.1)">
       <use xlink:href="#DejaVuSans-34"/>
       <use xlink:href="#DejaVuSans-30" x="63.623047"/>
      </g>
     </g>
    </g>
   </g>
   <g id="line2d_19">
    <path d="M 175.297888 250.784419 
L 175.297888 150.992419 
" clip-path="url(#pcbe30317bc)" style="fill: none; stroke: #000000; stroke-width: 0.25; stroke-linecap: square"/>
   </g>
   <g id="line2d_20">
    <path d="M 175.297888 150.992419 
L 275.089887 150.992419 
" clip-path="url(#pcbe30317bc)" style="fill: none; stroke: #000000; stroke-width: 0.25; stroke-linecap: square"/>
   </g>
   <g id="line2d_21">
    <path d="M 275.089887 122.718019 
L 175.297888 122.718019 
" clip-path="url(#pcbe30317bc)" style="fill: none; stroke: #000000; stroke-width: 0.25; stroke-linecap: square"/>
   </g>
   <g id="line2d_22">
    <path d="M 175.297888 122.718019 
L 175.297888 22.926019 
" clip-path="url(#pcbe30317bc)" style="fill: none; stroke: #000000; stroke-width: 0.25; stroke-linecap: square"/>
   </g>
   <g id="line2d_23">
    <path d="M 147.023487 22.926019 
L 147.023487 122.718019 
" clip-path="url(#pcbe30317bc)" style="fill: none; stroke: #000000; stroke-width: 0.25; stroke-linecap: square"/>
   </g>
   <g id="line2d_24">
    <path d="M 147.023487 122.718019 
L 47.231488 122.718019 
" clip-path="url(#pcbe30317bc)" style="fill: none; stroke: #000000; stroke-width: 0.25; stroke-linecap: square"/>
   </g>
   <g id="line2d_25">
    <path d="M 47.231488 150.992419 
L 147.023487 150.992419 
" clip-path="url(#pcbe30317bc)" style="fill: none; stroke: #000000; stroke-width: 0.25; stroke-linecap: square"/>
   </g>
   <g id="line2d_26">
    <path d="M 147.023487 150.992419 
L 147.023487 250.784419 
" clip-path="url(#pcbe30317bc)" style="fill: none; stroke: #000000; stroke-width: 0.25; stroke-linecap: square"/>
   </g>
   <g id="line2d_27">
    <path d="M 175.297888 136.855219 
L 275.089887 136.855219 
" clip-path="url(#pcbe30317bc)" style="fill: none; stroke-dasharray: 0.925,0.4; stroke-dashoffset: 0; stroke: #000000; stroke-width: 0.25"/>
   </g>
   <g id="line2d_28">
    <path d="M 161.160687 122.718019 
L 161.160687 22.926019 
" clip-path="url(#pcbe30317bc)" style="fill: none; stroke-dasharray: 0.925,0.4; stroke-dashoffset: 0; stroke: #000000; stroke-width: 0.25"/>
   </g>
   <g id="line2d_29">
    <path d="M 147.023487 136.855219 
L 47.231488 136.855219 
" clip-path="url(#pcbe30317bc)" style="fill: none; stroke-dasharray: 0.925,0.4; stroke-dashoffset: 0; stroke: #000000; stroke-width: 0.25"/>
   </g>
   <g id="line2d_30">
    <path d="M 161.160687 150.992419 
L 161.160687 250.784419 
" clip-path="url(#pcbe30317bc)" style="fill: none; stroke-dasharray: 0.925,0.4; stroke-dashoffset: 0; stroke: #000000; stroke-width: 0.25"/>
   </g>
   <g id="line2d_31">
    <path d="M 86.786331 131.00009 
L 85.115759 131.001268 
L 83.444878 131.003108 
L 81.773705 131.004244 
L 80.102259 131.004838 
L 78.430561 131.005028 
L 76.758635 131.004925 
L 75.086502 131.00462 
L 73.414185 131.004187 
L 71.741705 131.00368 
L 70.069085 131.003144 
L 68.396342 131.002608 
L 66.723496 131.002096 
L 65.050562 131.001622 
L 63.377557 131.001194 
L 61.704493 131.000817 
L 60.031382 131.000492 
L 58.358235 131.000217 
L 56.685061 130.99999 
L 55.011867 130.999805 
L 53.338658 130.999659 
L 51.665441 130.999547 
L 49.992219 130.999461 
L 48.318994 130.999399 
L 46.645769 130.999355 
L 44.972545 130.999326 
L 43.299323 130.999306 
L 41.626103 130.999293 
L 39.952884 130.999285 
L 38.279666 130.999278 
L 36.606449 130.999269 
" clip-path="url(#pcbe30317bc)" style="fill: none; stroke: #ff0000; stroke-width: 0.25; stroke-linecap: square"/>
   </g>
   <g id="line2d_32">
    <path d="M 167.015207 54.504412 
L 167.014689 52.951839 
L 167.013659 51.399708 
L 167.013029 49.84797 
L 167.012708 48.296578 
L 167.012622 46.745488 
L 167.012706 45.194655 
L 167.01291 43.644042 
L 167.013191 42.093611 
L 167.013518 40.54333 
L 167.013865 38.993169 
L 167.014213 37.443102 
L 167.01455 35.893105 
L 167.014865 34.343159 
L 167.015153 32.793248 
L 167.01541 31.243357 
L 167.015636 29.693474 
L 167.01583 28.143591 
L 167.015995 26.593701 
L 167.016131 25.043798 
L 167.016243 23.493879 
L 167.016332 21.943942 
L 167.016403 20.393986 
L 167.016458 18.844013 
L 167.016499 17.294021 
L 167.016531 15.744015 
L 167.016556 14.193995 
L 167.016575 12.643965 
L 167.016591 11.093927 
L 167.016606 9.543884 
L 167.016623 7.993838 
" clip-path="url(#pcbe30317bc)" style="fill: none; stroke: #ff0000; stroke-width: 0.25; stroke-linecap: square"/>
   </g>
   <g id="line2d_33">
    <path d="M 155.303186 210.448215 
L 155.305074 212.103192 
L 155.307668 213.757972 
L 155.309379 215.412541 
L 155.310398 217.06689 
L 155.310888 218.721015 
L 155.310985 220.374919 
L 155.3108 222.028607 
L 155.310425 223.68209 
L 155.30993 225.335379 
L 155.309371 226.988487 
L 155.30879 228.641428 
L 155.308217 230.294218 
L 155.307673 231.946872 
L 155.307173 233.599404 
L 155.306725 235.251828 
L 155.306331 236.90416 
L 155.305993 238.55641 
L 155.305709 240.208592 
L 155.305474 241.860715 
L 155.305285 243.51279 
L 155.305134 245.164826 
L 155.305018 246.816829 
L 155.30493 248.468807 
L 155.304864 250.120766 
L 155.304817 251.77271 
L 155.304783 253.424642 
L 155.304758 255.076567 
L 155.304738 256.728488 
L 155.30472 258.380405 
L 155.304701 260.03232 
" clip-path="url(#pcbe30317bc)" style="fill: none; stroke: #ff0000; stroke-width: 0.25; stroke-linecap: square"/>
   </g>
   <g id="line2d_34">
    <path d="M 234.756275 142.709197 
L 236.410692 142.709397 
L 238.064979 142.709433 
L 239.719116 142.709526 
L 241.373092 142.709655 
L 243.0269 142.709803 
L 244.680539 142.709959 
L 246.334008 142.710114 
L 247.987315 142.710261 
L 249.640465 142.710397 
L 251.293468 142.71052 
L 252.946333 142.710628 
L 254.599073 142.710722 
L 256.251697 142.710801 
L 257.904218 142.710867 
L 259.556647 142.71092 
L 261.208994 142.710963 
L 262.861271 142.710997 
L 264.513486 142.711022 
L 266.165649 142.71104 
L 267.817768 142.711053 
L 269.469851 142.711062 
L 271.121904 142.711067 
L 272.773933 142.711069 
L 274.425943 142.711069 
L 276.077938 142.711068 
L 277.729923 142.711066 
L 279.3819 142.711063 
L 281.033872 142.71106 
L 282.685841 142.711057 
L 284.337808 142.711055 
" clip-path="url(#pcbe30317bc)" style="fill: none; stroke: #ff0000; stroke-width: 0.25; stroke-linecap: square"/>
   </g>
   <g id="line2d_35">
    <path d="M 167.560574 104.520697 
L 167.45201 103.10242 
L 167.367962 101.667548 
L 167.294623 100.215706 
L 167.231534 98.74615 
L 167.17806 97.258637 
L 167.133442 95.753327 
L 167.096843 94.230706 
L 167.067387 92.691505 
L 167.044192 91.136642 
L 167.026398 89.567166 
L 167.013183 87.984212 
L 167.003786 86.38896 
L 166.997508 84.782602 
L 166.993726 83.166321 
L 166.991892 81.541262 
L 166.991532 79.90852 
L 166.992248 78.269124 
L 166.99371 76.624031 
L 166.99565 74.974119 
L 166.99786 73.320183 
L 167.000183 71.662934 
L 167.002505 70.002999 
L 167.004748 68.340929 
L 167.006867 66.677194 
L 167.008843 65.012197 
L 167.010674 63.346272 
L 167.012377 61.679698 
L 167.013979 60.012697 
L 167.015515 58.345452 
L 167.017023 56.678102 
" clip-path="url(#pcbe30317bc)" style="fill: none; stroke: #ff0000; stroke-width: 0.25; stroke-linecap: square"/>
   </g>
   <g id="line2d_36">
    <path d="M 129.957707 129.858431 
L 128.406912 130.078372 
L 126.842793 130.259089 
L 125.268019 130.417112 
L 123.683169 130.552836 
L 122.088961 130.66731 
L 120.486178 130.762088 
L 118.875624 130.839052 
L 117.258084 130.900252 
L 115.63431 130.947778 
L 114.005008 130.983663 
L 112.370834 131.009822 
L 110.732397 131.028005 
L 109.090257 131.039782 
L 107.444925 131.046529 
L 105.796867 131.049429 
L 104.146506 131.049481 
L 102.494221 131.047508 
L 100.840348 131.044178 
L 99.185184 131.040018 
L 97.528989 131.03543 
L 95.871983 131.030712 
L 94.214354 131.026073 
L 92.556259 131.021647 
L 90.897825 131.017508 
L 89.239151 131.013683 
L 87.580317 131.01016 
L 85.921379 131.0069 
L 84.262382 131.003843 
L 82.603352 131.000915 
L 80.94431 130.998035 
" clip-path="url(#pcbe30317bc)" style="fill: none; stroke: #ff0000; stroke-width: 0.25; stroke-linecap: square"/>
   </g>
   <g id="line2d_37">
    <path d="M 192.937028 142.768854 
L 194.512619 142.744382 
L 196.090418 142.719525 
L 197.672013 142.701568 
L 199.258492 142.689192 
L 200.850648 142.681251 
L 202.449015 142.67677 
L 204.053901 142.674926 
L 205.665432 142.675034 
L 207.283574 142.676532 
L 208.90817 142.678964 
L 210.538963 142.68197 
L 212.175621 142.685267 
L 213.817757 142.688642 
L 215.46495 142.691937 
L 217.116755 142.695044 
L 218.77272 142.697892 
L 220.432398 142.700439 
L 222.095348 142.702669 
L 223.761152 142.704583 
L 225.42941 142.706195 
L 227.099753 142.707527 
L 228.771838 142.708609 
L 230.445351 142.709475 
L 232.120013 142.710158 
L 233.795571 142.710694 
L 235.471806 142.711117 
L 237.148526 142.711459 
L 238.825566 142.711752 
L 240.502791 142.712023 
L 242.180091 142.712301 
" clip-path="url(#pcbe30317bc)" style="fill: none; stroke: #ff0000; stroke-width: 0.25; stroke-linecap: square"/>
   </g>
   <g id="line2d_38">
    <path d="M 171.024406 131.363256 
L 171.271229 129.477252 
L 171.319753 127.612291 
L 171.181121 125.790904 
L 170.868894 124.032133 
L 170.398039 122.35145 
L 169.813848 120.75008 
L 169.303639 119.165509 
L 168.854622 117.602062 
L 168.462909 116.060021 
L 168.127257 114.538479 
L 167.845433 113.036522 
L 167.613588 111.553305 
L 167.426624 110.08792 
L 167.27878 108.639252 
L 167.164206 107.205946 
L 167.07736 105.786456 
L 167.01325 104.37912 
L 166.967507 102.982254 
L 166.9364 101.594215 
L 166.916755 100.213466 
L 166.905912 98.838599 
L 166.901678 97.468354 
L 166.902229 96.101641 
L 166.906061 94.737531 
L 166.911977 93.375249 
L 166.919028 92.014174 
L 166.926583 90.653831 
L 166.934163 89.293886 
L 166.941691 87.93412 
L 166.949493 86.57441 
" clip-path="url(#pcbe30317bc)" style="fill: none; stroke: #ff0000; stroke-width: 0.25; stroke-linecap: square"/>
   </g>
   <g id="line2d_39">
    <path d="M 166.43613 155.208969 
L 166.741458 153.823203 
L 167.149773 152.475771 
L 167.689921 151.186134 
L 168.377827 149.977973 
L 169.152249 148.830635 
L 170.00873 147.748347 
L 170.943147 146.73531 
L 171.951371 145.795704 
L 173.029218 144.933715 
L 174.172418 144.153593 
L 175.376546 143.45968 
L 176.63694 142.85642 
L 177.94855 142.348253 
L 179.305541 141.939983 
L 180.701043 141.636268 
L 182.127157 141.44146 
L 183.575004 141.359364 
L 185.034863 141.392993 
L 186.499692 141.507921 
L 187.97267 141.620947 
L 189.452437 141.734957 
L 190.937869 141.849854 
L 192.428013 141.963954 
L 193.921987 142.075461 
L 195.418964 142.183025 
L 196.918185 142.285917 
L 198.418973 142.384056 
L 199.920758 142.477993 
L 201.423077 142.568943 
L 202.925579 142.658789 
" clip-path="url(#pcbe30317bc)" style="fill: none; stroke: #ff0000; stroke-width: 0.25; stroke-linecap: square"/>
   </g>
   <g id="line2d_40">
    <path d="M 154.203794 144.73118 
L 153.870107 146.941475 
L 153.808748 149.131671 
L 154.008534 151.266296 
L 154.292899 153.342486 
L 154.536251 155.37576 
L 154.736916 157.367682 
L 154.898048 159.32086 
L 155.026109 161.239089 
L 155.126642 163.127359 
L 155.204265 164.99112 
L 155.262601 166.835754 
L 155.30472 168.666326 
L 155.333327 170.487319 
L 155.351055 172.302453 
L 155.360585 174.114723 
L 155.364166 175.926463 
L 155.363581 177.739411 
L 155.360245 179.554785 
L 155.35521 181.373366 
L 155.349257 183.195555 
L 155.342942 185.021454 
L 155.33666 186.850928 
L 155.330679 188.683669 
L 155.325149 190.519254 
L 155.320118 192.357184 
L 155.315563 194.196936 
L 155.311416 196.037998 
L 155.307576 197.879908 
L 155.303926 199.722284 
L 155.300378 201.564823 
" clip-path="url(#pcbe30317bc)" style="fill: none; stroke: #ff0000; stroke-width: 0.25; stroke-linecap: square"/>
   </g>
   <g id="line2d_41">
    <path d="M 155.377986 118.27853 
L 155.163214 119.656938 
L 154.734479 120.973762 
L 154.1915 122.238394 
L 153.557829 123.452798 
L 152.837208 124.612582 
L 152.033236 125.713463 
L 151.149394 126.751184 
L 150.189098 127.721455 
L 149.155618 128.619736 
L 148.052808 129.441524 
L 146.884673 130.182058 
L 145.655337 130.836207 
L 144.369466 131.39894 
L 143.032557 131.864817 
L 141.651219 132.228501 
L 140.23317 132.484922 
L 138.78721 132.629534 
L 137.323112 132.658585 
L 135.851414 132.569334 
L 134.377856 132.401731 
L 132.895878 132.244072 
L 131.407381 132.091313 
L 129.913705 131.942525 
L 128.415884 131.798658 
L 126.914814 131.660774 
L 125.411296 131.529422 
L 123.90604 131.40445 
L 122.399654 131.284953 
L 120.892648 131.169216 
L 119.385438 131.054764 
" clip-path="url(#pcbe30317bc)" style="fill: none; stroke: #ff0000; stroke-width: 0.25; stroke-linecap: square"/>
   </g>
   <g id="line2d_42">
    <path d="M 139.886392 141.148662 
L 141.226205 141.017339 
L 142.588756 141.228636 
L 143.967131 141.550305 
L 145.352923 141.99007 
L 146.734266 142.554111 
L 148.096718 143.245885 
L 149.423951 144.066399 
L 150.698634 145.014004 
L 151.903426 146.084191 
L 153.021736 147.270032 
L 154.038613 148.562235 
L 154.94093 149.949691 
L 155.717321 151.420161 
L 156.35871 152.959999 
L 156.857644 154.554905 
L 157.208647 156.189988 
L 157.408194 157.850031 
L 157.454588 159.519789 
L 157.347849 161.184265 
L 157.098467 162.830289 
L 156.864041 164.475155 
L 156.641122 166.118334 
L 156.428492 167.759882 
L 156.227328 169.400329 
L 156.038487 171.040229 
L 155.861609 172.679995 
L 155.695246 174.319885 
L 155.53628 175.959949 
L 155.381713 177.600154 
L 155.22875 179.240419 
" clip-path="url(#pcbe30317bc)" style="fill: none; stroke: #ff0000; stroke-width: 0.25; stroke-linecap: square"/>
   </g>
   <g id="patch_15">
    <path d="M 28.104688 269.911219 
L 28.104688 3.799219 
" style="fill: none; stroke: #000000; stroke-width: 0.8; stroke-linejoin: miter; stroke-linecap: square"/>
   </g>
   <g id="patch_16">
    <path d="M 294.216687 269.911219 
L 294.216687 3.799219 
" style="fill: none; stroke: #000000; stroke-width: 0.8; stroke-linejoin: miter; stroke-linecap: square"/>
   </g>
   <g id="patch_17">
    <path d="M 28.104688 269.911219 
L 294.216687 269.911219 
" style="fill: none; stroke: #000000; stroke-width: 0.8; stroke-linejoin: miter; stroke-linecap: square"/>
   </g>
   <g id="patch_18">
    <path d="M 28.104688 3.799219 
L 294.216687 3.799219 
" style="fill: none; stroke: #000000; stroke-width: 0.8; stroke-linejoin: miter; stroke-linecap: square"/>
   </g>
   <g id="text_19">
    <!-- Time: 7.5 s -->
    <g transform="translate(198.9952 17.104819) scale(0.1 -0.1)">
     <defs>
      <path id="DejaVuSans-54" d="M -19 4666 
L 3928 4666 
L 3928 4134 
L 2272 4134 
L 2272 0 
L 1638 0 
L 1638 4134 
L -19 4134 
L -19 4666 
z
" transform="scale(0.015625)"/>
      <path id="DejaVuSans-69" d="M 603 3500 
L 1178 3500 
L 1178 0 
L 603 0 
L 603 3500 
z
M 603 4863 
L 1178 4863 
L 1178 4134 
L 603 4134 
L 603 4863 
z
" transform="scale(0.015625)"/>
      <path id="DejaVuSans-6d" d="M 3328 2828 
Q 3544 3216 3844 3400 
Q 4144 3584 4550 3584 
Q 5097 3584 5394 3201 
Q 5691 2819 5691 2113 
L 5691 0 
L 5113 0 
L 5113 2094 
Q 5113 2597 4934 2840 
Q 4756 3084 4391 3084 
Q 3944 3084 3684 2787 
Q 3425 2491 3425 1978 
L 3425 0 
L 2847 0 
L 2847 2094 
Q 2847 2600 2669 2842 
Q 2491 3084 2119 3084 
Q 1678 3084 1418 2786 
Q 1159 2488 1159 1978 
L 1159 0 
L 581 0 
L 581 3500 
L 1159 3500 
L 1159 2956 
Q 1356 3278 1631 3431 
Q 1906 3584 2284 3584 
Q 2666 3584 2933 3390 
Q 3200 3197 3328 2828 
z
" transform="scale(0.015625)"/>
      <path id="DejaVuSans-65" d="M 3597 1894 
L 3597 1613 
L 953 1613 
Q 991 1019 1311 708 
Q 1631 397 2203 397 
Q 2534 397 2845 478 
Q 3156 559 3463 722 
L 3463 178 
Q 3153 47 2828 -22 
Q 2503 -91 2169 -91 
Q 1331 -91 842 396 
Q 353 884 353 1716 
Q 353 2575 817 3079 
Q 1281 3584 2069 3584 
Q 2775 3584 3186 3129 
Q 3597 2675 3597 1894 
z
M 3022 2063 
Q 3016 2534 2758 2815 
Q 2500 3097 2075 3097 
Q 1594 3097 1305 2825 
Q 1016 2553 972 2059 
L 3022 2063 
z
" transform="scale(0.015625)"/>
      <path id="DejaVuSans-3a" d="M 750 794 
L 1409 794 
L 1409 0 
L 750 0 
L 750 794 
z
M 750 3309 
L 1409 3309 
L 1409 2516 
L 750 2516 
L 750 3309 
z
" transform="scale(0.015625)"/>
      <path id="DejaVuSans-20" transform="scale(0.015625)"/>
      <path id="DejaVuSans-37" d="M 525 4666 
L 3525 4666 
L 3525 4397 
L 1831 0 
L 1172 0 
L 2766 4134 
L 525 4134 
L 525 4666 
z
" transform="scale(0.015625)"/>
      <path id="DejaVuSans-2e" d="M 684 794 
L 1344 794 
L 1344 0 
L 684 0 
L 684 794 
z
" transform="scale(0.015625)"/>
      <path id="DejaVuSans-35" d="M 691 4666 
L 3169 4666 
L 3169 4134 
L 1269 4134 
L 1269 2991 
Q 1406 3038 1543 3061 
Q 1681 3084 1819 3084 
Q 2600 3084 3056 2656 
Q 3513 2228 3513 1497 
Q 3513 744 3044 326 
Q 2575 -91 1722 -91 
Q 1428 -91 1123 -41 
Q 819 9 494 109 
L 494 744 
Q 775 591 1075 516 
Q 1375 441 1709 441 
Q 2250 441 2565 725 
Q 2881 1009 2881 1497 
Q 2881 1984 2565 2268 
Q 2250 2553 1709 2553 
Q 1456 2553 1204 2497 
Q 953 2441 691 2322 
L 691 4666 
z
" transform="scale(0.015625)"/>
      <path id="DejaVuSans-73" d="M 2834 3397 
L 2834 2853 
Q 2591 2978 2328 3040 
Q 2066 3103 1784 3103 
Q 1356 3103 1142 2972 
Q 928 2841 928 2578 
Q 928 2378 1081 2264 
Q 1234 2150 1697 2047 
L 1894 2003 
Q 2506 1872 2764 1633 
Q 3022 1394 3022 966 
Q 3022 478 2636 193 
Q 2250 -91 1575 -91 
Q 1294 -91 989 -36 
Q 684 19 347 128 
L 347 722 
Q 666 556 975 473 
Q 1284 391 1588 391 
Q 1994 391 2212 530 
Q 2431 669 2431 922 
Q 2431 1156 2273 1281 
Q 2116 1406 1581 1522 
L 1381 1569 
Q 847 1681 609 1914 
Q 372 2147 372 2553 
Q 372 3047 722 3315 
Q 1072 3584 1716 3584 
Q 2034 3584 2315 3537 
Q 2597 3491 2834 3397 
z
" transform="scale(0.015625)"/>
     </defs>
     <use xlink:href="#DejaVuSans-54"/>
     <use xlink:href="#DejaVuSans-69" x="57.958984"/>
     <use xlink:href="#DejaVuSans-6d" x="85.742188"/>
     <use xlink:href="#DejaVuSans-65" x="183.154297"/>
     <use xlink:href="#DejaVuSans-3a" x="244.677734"/>
     <use xlink:href="#DejaVuSans-20" x="278.369141"/>
     <use xlink:href="#DejaVuSans-37" x="310.15625"/>
     <use xlink:href="#DejaVuSans-2e" x="373.779297"/>
     <use xlink:href="#DejaVuSans-35" x="405.566406"/>
     <use xlink:href="#DejaVuSans-20" x="469.189453"/>
     <use xlink:href="#DejaVuSans-73" x="500.976562"/>
    </g>
   </g>
  </g>
 </g>
 <defs>
  <clipPath id="pcbe30317bc">
   <rect x="28.104688" y="3.799219" width="266.112" height="266.112"/>
  </clipPath>
 </defs>
</svg>
