<?xml version="1.0" encoding="utf-8" standalone="no"?>
<!DOCTYPE svg PUBLIC "-//W3C//DTD SVG 1.1//EN"
  "http://www.w3.org/Graphics/SVG/1.1/DTD/svg11.dtd">
<svg xmlns:xlink="http://www.w3.org/1999/xlink" width="300.579188pt" height="286.589344pt" viewBox="0 0 300.579188 286.589344" xmlns="http://www.w3.org/2000/svg" version="1.1">
 <metadata>
  <rdf:RDF xmlns:dc="http://purl.org/dc/elements/1.1/" xmlns:cc="http://creativecommons.org/ns#" xmlns:rdf="http://www.w3.org/1999/02/22-rdf-syntax-ns#">
   <cc:Work>
    <dc:type rdf:resource="http://purl.org/dc/dcmitype/StillImage"/>
    <dc:date>2024-02-26T10:13:18.531643</dc:date>
    <dc:format>image/svg+xml</dc:format>
    <dc:creator>
     <cc:Agent>
      <dc:title>Matplotlib v3.8.2, https://matplotlib.org/</dc:title>
     </cc:Agent>
    </dc:creator>
   </cc:Work>
  </rdf:RDF>
 </metadata>
 <defs>
  <style type="text/css">*{stroke-linejoin: round; stroke-linecap: butt}</style>
 </defs>
 <g id="figure_1">
  <g id="patch_1">
   <path d="M 0 286.589344 
L 300.579188 286.589344 
L 300.579188 0 
L 0 0 
z
" style="fill: #ffffff"/>
  </g>
  <g id="axes_1">
   <g id="patch_2">
    <path d="M 28.104688 269.911219 
L 294.216687 269.911219 
L 294.216687 3.799219 
L 28.104688 3.799219 
z
" style="fill: #ffffff"/>
   </g>
   <g id="patch_3">
    <path d="M 155.776499 127.827959 
L 144.419967 125.26385 
L 143.174543 130.77988 
L 154.531075 133.343989 
z
" clip-path="url(#pcdae025caa)" style="fill: #00008b"/>
   </g>
   <g id="patch_4">
    <path d="M 171.276797 116.321215 
L 169.498317 104.815456 
L 163.909806 105.67929 
L 165.688285 117.185048 
z
" clip-path="url(#pcdae025caa)" style="fill: #800000"/>
   </g>
   <g id="patch_5">
    <path d="M 149.341768 145.461775 
L 152.188914 156.750674 
L 157.672093 155.367775 
L 154.824948 144.078876 
z
" clip-path="url(#pcdae025caa)" style="fill: #006400"/>
   </g>
   <g id="patch_6">
    <path d="M 169.423288 148.002814 
L 180.788053 145.475444 
L 179.560473 139.955416 
L 168.195708 142.482786 
z
" clip-path="url(#pcdae025caa)" style="fill: #4b0082"/>
   </g>
   <g id="patch_7">
    <path d="M 170.019164 170.933909 
L 170.483581 159.300775 
L 164.833202 159.075201 
L 164.368785 170.708335 
z
" clip-path="url(#pcdae025caa)" style="fill: #0000ff"/>
   </g>
   <g id="patch_8">
    <path d="M 195.258919 128.074092 
L 183.626954 127.581264 
L 183.387581 133.231075 
L 195.019545 133.723904 
z
" clip-path="url(#pcdae025caa)" style="fill: #ff0000"/>
   </g>
   <g id="patch_9">
    <path d="M 151.479769 103.776655 
L 150.965331 115.407684 
L 156.614688 115.657554 
L 157.129126 104.026525 
z
" clip-path="url(#pcdae025caa)" style="fill: #dbdc56"/>
   </g>
   <g id="patch_10">
    <path d="M 117.203614 145.611707 
L 128.842728 145.888269 
L 128.977058 140.234984 
L 117.337943 139.958423 
z
" clip-path="url(#pcdae025caa)" style="fill: #9400d3"/>
   </g>
   <g id="patch_11">
    <path d="M 169.826007 217.652226 
L 169.821574 206.009827 
L 164.166694 206.01198 
L 164.171127 217.65438 
z
" clip-path="url(#pcdae025caa)" style="fill: #1e90ff"/>
   </g>
   <g id="patch_12">
    <path d="M 226.310805 128.168621 
L 214.668742 128.080058 
L 214.625726 133.734774 
L 226.267789 133.823337 
z
" clip-path="url(#pcdae025caa)" style="fill: #ff4500"/>
   </g>
   <g id="patch_13">
    <path d="M 152.494352 56.04863 
L 152.470114 67.691005 
L 158.124982 67.702778 
L 158.14922 56.060403 
z
" clip-path="url(#pcdae025caa)" style="fill: #7cfc00"/>
   </g>
   <g id="patch_14">
    <path d="M 80.363774 145.521567 
L 92.006174 145.517911 
L 92.004398 139.863031 
L 80.361999 139.866687 
z
" clip-path="url(#pcdae025caa)" style="fill: #ff00ff"/>
   </g>
   <g id="matplotlib.axis_1">
    <g id="xtick_1">
     <g id="line2d_1">
      <defs>
       <path id="m2d0a3fb744" d="M 0 0 
L 0 3.5 
" style="stroke: #000000; stroke-width: 0.8"/>
      </defs>
      <g>
       <use xlink:href="#m2d0a3fb744" x="28.104688" y="269.911219" style="stroke: #000000; stroke-width: 0.8"/>
      </g>
     </g>
     <g id="text_1">
      <!-- −40 -->
      <g transform="translate(17.552344 284.509656) scale(0.1 -0.1)">
       <defs>
        <path id="DejaVuSans-2212" d="M 678 2272 
L 4684 2272 
L 4684 1741 
L 678 1741 
L 678 2272 
z
" transform="scale(0.015625)"/>
        <path id="DejaVuSans-34" d="M 2419 4116 
L 825 1625 
L 2419 1625 
L 2419 4116 
z
M 2253 4666 
L 3047 4666 
L 3047 1625 
L 3713 1625 
L 3713 1100 
L 3047 1100 
L 3047 0 
L 2419 0 
L 2419 1100 
L 313 1100 
L 313 1709 
L 2253 4666 
z
" transform="scale(0.015625)"/>
        <path id="DejaVuSans-30" d="M 2034 4250 
Q 1547 4250 1301 3770 
Q 1056 3291 1056 2328 
Q 1056 1369 1301 889 
Q 1547 409 2034 409 
Q 2525 409 2770 889 
Q 3016 1369 3016 2328 
Q 3016 3291 2770 3770 
Q 2525 4250 2034 4250 
z
M 2034 4750 
Q 2819 4750 3233 4129 
Q 3647 3509 3647 2328 
Q 3647 1150 3233 529 
Q 2819 -91 2034 -91 
Q 1250 -91 836 529 
Q 422 1150 422 2328 
Q 422 3509 836 4129 
Q 1250 4750 2034 4750 
z
" transform="scale(0.015625)"/>
       </defs>
       <use xlink:href="#DejaVuSans-2212"/>
       <use xlink:href="#DejaVuSans-34" x="83.789062"/>
       <use xlink:href="#DejaVuSans-30" x="147.412109"/>
      </g>
     </g>
    </g>
    <g id="xtick_2">
     <g id="line2d_2">
      <g>
       <use xlink:href="#m2d0a3fb744" x="61.368688" y="269.911219" style="stroke: #000000; stroke-width: 0.8"/>
      </g>
     </g>
     <g id="text_2">
      <!-- −30 -->
      <g transform="translate(50.816344 284.509656) scale(0.1 -0.1)">
       <defs>
        <path id="DejaVuSans-33" d="M 2597 2516 
Q 3050 2419 3304 2112 
Q 3559 1806 3559 1356 
Q 3559 666 3084 287 
Q 2609 -91 1734 -91 
Q 1441 -91 1130 -33 
Q 819 25 488 141 
L 488 750 
Q 750 597 1062 519 
Q 1375 441 1716 441 
Q 2309 441 2620 675 
Q 2931 909 2931 1356 
Q 2931 1769 2642 2001 
Q 2353 2234 1838 2234 
L 1294 2234 
L 1294 2753 
L 1863 2753 
Q 2328 2753 2575 2939 
Q 2822 3125 2822 3475 
Q 2822 3834 2567 4026 
Q 2313 4219 1838 4219 
Q 1578 4219 1281 4162 
Q 984 4106 628 3988 
L 628 4550 
Q 988 4650 1302 4700 
Q 1616 4750 1894 4750 
Q 2613 4750 3031 4423 
Q 3450 4097 3450 3541 
Q 3450 3153 3228 2886 
Q 3006 2619 2597 2516 
z
" transform="scale(0.015625)"/>
       </defs>
       <use xlink:href="#DejaVuSans-2212"/>
       <use xlink:href="#DejaVuSans-33" x="83.789062"/>
       <use xlink:href="#DejaVuSans-30" x="147.412109"/>
      </g>
     </g>
    </g>
    <g id="xtick_3">
     <g id="line2d_3">
      <g>
       <use xlink:href="#m2d0a3fb744" x="94.632688" y="269.911219" style="stroke: #000000; stroke-width: 0.8"/>
      </g>
     </g>
     <g id="text_3">
      <!-- −20 -->
      <g transform="translate(84.080344 284.509656) scale(0.1 -0.1)">
       <defs>
        <path id="DejaVuSans-32" d="M 1228 531 
L 3431 531 
L 3431 0 
L 469 0 
L 469 531 
Q 828 903 1448 1529 
Q 2069 2156 2228 2338 
Q 2531 2678 2651 2914 
Q 2772 3150 2772 3378 
Q 2772 3750 2511 3984 
Q 2250 4219 1831 4219 
Q 1534 4219 1204 4116 
Q 875 4013 500 3803 
L 500 4441 
Q 881 4594 1212 4672 
Q 1544 4750 1819 4750 
Q 2544 4750 2975 4387 
Q 3406 4025 3406 3419 
Q 3406 3131 3298 2873 
Q 3191 2616 2906 2266 
Q 2828 2175 2409 1742 
Q 1991 1309 1228 531 
z
" transform="scale(0.015625)"/>
       </defs>
       <use xlink:href="#DejaVuSans-2212"/>
       <use xlink:href="#DejaVuSans-32" x="83.789062"/>
       <use xlink:href="#DejaVuSans-30" x="147.412109"/>
      </g>
     </g>
    </g>
    <g id="xtick_4">
     <g id="line2d_4">
      <g>
       <use xlink:href="#m2d0a3fb744" x="127.896687" y="269.911219" style="stroke: #000000; stroke-width: 0.8"/>
      </g>
     </g>
     <g id="text_4">
      <!-- −10 -->
      <g transform="translate(117.344344 284.509656) scale(0.1 -0.1)">
       <defs>
        <path id="DejaVuSans-31" d="M 794 531 
L 1825 531 
L 1825 4091 
L 703 3866 
L 703 4441 
L 1819 4666 
L 2450 4666 
L 2450 531 
L 3481 531 
L 3481 0 
L 794 0 
L 794 531 
z
" transform="scale(0.015625)"/>
       </defs>
       <use xlink:href="#DejaVuSans-2212"/>
       <use xlink:href="#DejaVuSans-31" x="83.789062"/>
       <use xlink:href="#DejaVuSans-30" x="147.412109"/>
      </g>
     </g>
    </g>
    <g id="xtick_5">
     <g id="line2d_5">
      <g>
       <use xlink:href="#m2d0a3fb744" x="161.160687" y="269.911219" style="stroke: #000000; stroke-width: 0.8"/>
      </g>
     </g>
     <g id="text_5">
      <!-- 0 -->
      <g transform="translate(157.979437 284.509656) scale(0.1 -0.1)">
       <use xlink:href="#DejaVuSans-30"/>
      </g>
     </g>
    </g>
    <g id="xtick_6">
     <g id="line2d_6">
      <g>
       <use xlink:href="#m2d0a3fb744" x="194.424688" y="269.911219" style="stroke: #000000; stroke-width: 0.8"/>
      </g>
     </g>
     <g id="text_6">
      <!-- 10 -->
      <g transform="translate(188.062187 284.509656) scale(0.1 -0.1)">
       <use xlink:href="#DejaVuSans-31"/>
       <use xlink:href="#DejaVuSans-30" x="63.623047"/>
      </g>
     </g>
    </g>
    <g id="xtick_7">
     <g id="line2d_7">
      <g>
       <use xlink:href="#m2d0a3fb744" x="227.688687" y="269.911219" style="stroke: #000000; stroke-width: 0.8"/>
      </g>
     </g>
     <g id="text_7">
      <!-- 20 -->
      <g transform="translate(221.326187 284.509656) scale(0.1 -0.1)">
       <use xlink:href="#DejaVuSans-32"/>
       <use xlink:href="#DejaVuSans-30" x="63.623047"/>
      </g>
     </g>
    </g>
    <g id="xtick_8">
     <g id="line2d_8">
      <g>
       <use xlink:href="#m2d0a3fb744" x="260.952687" y="269.911219" style="stroke: #000000; stroke-width: 0.8"/>
      </g>
     </g>
     <g id="text_8">
      <!-- 30 -->
      <g transform="translate(254.590187 284.509656) scale(0.1 -0.1)">
       <use xlink:href="#DejaVuSans-33"/>
       <use xlink:href="#DejaVuSans-30" x="63.623047"/>
      </g>
     </g>
    </g>
    <g id="xtick_9">
     <g id="line2d_9">
      <g>
       <use xlink:href="#m2d0a3fb744" x="294.216687" y="269.911219" style="stroke: #000000; stroke-width: 0.8"/>
      </g>
     </g>
     <g id="text_9">
      <!-- 40 -->
      <g transform="translate(287.854187 284.509656) scale(0.1 -0.1)">
       <use xlink:href="#DejaVuSans-34"/>
       <use xlink:href="#DejaVuSans-30" x="63.623047"/>
      </g>
     </g>
    </g>
   </g>
   <g id="matplotlib.axis_2">
    <g id="ytick_1">
     <g id="line2d_10">
      <defs>
       <path id="m667cb7b505" d="M 0 0 
L -3.5 0 
" style="stroke: #000000; stroke-width: 0.8"/>
      </defs>
      <g>
       <use xlink:href="#m667cb7b505" x="28.104688" y="269.911219" style="stroke: #000000; stroke-width: 0.8"/>
      </g>
     </g>
     <g id="text_10">
      <!-- −40 -->
      <g transform="translate(0 273.710437) scale(0.1 -0.1)">
       <use xlink:href="#DejaVuSans-2212"/>
       <use xlink:href="#DejaVuSans-34" x="83.789062"/>
       <use xlink:href="#DejaVuSans-30" x="147.412109"/>
      </g>
     </g>
    </g>
    <g id="ytick_2">
     <g id="line2d_11">
      <g>
       <use xlink:href="#m667cb7b505" x="28.104688" y="236.647219" style="stroke: #000000; stroke-width: 0.8"/>
      </g>
     </g>
     <g id="text_11">
      <!-- −30 -->
      <g transform="translate(0 240.446437) scale(0.1 -0.1)">
       <use xlink:href="#DejaVuSans-2212"/>
       <use xlink:href="#DejaVuSans-33" x="83.789062"/>
       <use xlink:href="#DejaVuSans-30" x="147.412109"/>
      </g>
     </g>
    </g>
    <g id="ytick_3">
     <g id="line2d_12">
      <g>
       <use xlink:href="#m667cb7b505" x="28.104688" y="203.383219" style="stroke: #000000; stroke-width: 0.8"/>
      </g>
     </g>
     <g id="text_12">
      <!-- −20 -->
      <g transform="translate(0 207.182437) scale(0.1 -0.1)">
       <use xlink:href="#DejaVuSans-2212"/>
       <use xlink:href="#DejaVuSans-32" x="83.789062"/>
       <use xlink:href="#DejaVuSans-30" x="147.412109"/>
      </g>
     </g>
    </g>
    <g id="ytick_4">
     <g id="line2d_13">
      <g>
       <use xlink:href="#m667cb7b505" x="28.104688" y="170.119219" style="stroke: #000000; stroke-width: 0.8"/>
      </g>
     </g>
     <g id="text_13">
      <!-- −10 -->
      <g transform="translate(0 173.918437) scale(0.1 -0.1)">
       <use xlink:href="#DejaVuSans-2212"/>
       <use xlink:href="#DejaVuSans-31" x="83.789062"/>
       <use xlink:href="#DejaVuSans-30" x="147.412109"/>
      </g>
     </g>
    </g>
    <g id="ytick_5">
     <g id="line2d_14">
      <g>
       <use xlink:href="#m667cb7b505" x="28.104688" y="136.855219" style="stroke: #000000; stroke-width: 0.8"/>
      </g>
     </g>
     <g id="text_14">
      <!-- 0 -->
      <g transform="translate(14.742188 140.654437) scale(0.1 -0.1)">
       <use xlink:href="#DejaVuSans-30"/>
      </g>
     </g>
    </g>
    <g id="ytick_6">
     <g id="line2d_15">
      <g>
       <use xlink:href="#m667cb7b505" x="28.104688" y="103.591219" style="stroke: #000000; stroke-width: 0.8"/>
      </g>
     </g>
     <g id="text_15">
      <!-- 10 -->
      <g transform="translate(8.379688 107.390437) scale(0.1 -0.1)">
       <use xlink:href="#DejaVuSans-31"/>
       <use xlink:href="#DejaVuSans-30" x="63.623047"/>
      </g>
     </g>
    </g>
    <g id="ytick_7">
     <g id="line2d_16">
      <g>
       <use xlink:href="#m667cb7b505" x="28.104688" y="70.327219" style="stroke: #000000; stroke-width: 0.8"/>
      </g>
     </g>
     <g id="text_16">
      <!-- 20 -->
      <g transform="translate(8.379688 74.126437) scale(0.1 -0.1)">
       <use xlink:href="#DejaVuSans-32"/>
       <use xlink:href="#DejaVuSans-30" x="63.623047"/>
      </g>
     </g>
    </g>
    <g id="ytick_8">
     <g id="line2d_17">
      <g>
       <use xlink:href="#m667cb7b505" x="28.104688" y="37.063219" style="stroke: #000000; stroke-width: 0.8"/>
      </g>
     </g>
     <g id="text_17">
      <!-- 30 -->
      <g transform="translate(8.379688 40.862437) scale(0.1 -0.1)">
       <use xlink:href="#DejaVuSans-33"/>
       <use xlink:href="#DejaVuSans-30" x="63.623047"/>
      </g>
     </g>
    </g>
    <g id="ytick_9">
     <g id="line2d_18">
      <g>
       <use xlink:href="#m667cb7b505" x="28.104688" y="3.799219" style="stroke: #000000; stroke-width: 0.8"/>
      </g>
     </g>
     <g id="text_18">
      <!-- 40 -->
      <g transform="translate(8.379688 7.598437) scale(0.1 -0.1)">
       <use xlink:href="#DejaVuSans-34"/>
       <use xlink:href="#DejaVuSans-30" x="63.623047"/>
      </g>
     </g>
    </g>
   </g>
   <g id="line2d_19">
    <path d="M 175.297888 250.784419 
L 175.297888 150.992419 
" clip-path="url(#pcdae025caa)" style="fill: none; stroke: #000000; stroke-width: 0.25; stroke-linecap: square"/>
   </g>
   <g id="line2d_20">
    <path d="M 175.297888 150.992419 
L 275.089887 150.992419 
" clip-path="url(#pcdae025caa)" style="fill: none; stroke: #000000; stroke-width: 0.25; stroke-linecap: square"/>
   </g>
   <g id="line2d_21">
    <path d="M 275.089887 122.718019 
L 175.297888 122.718019 
" clip-path="url(#pcdae025caa)" style="fill: none; stroke: #000000; stroke-width: 0.25; stroke-linecap: square"/>
   </g>
   <g id="line2d_22">
    <path d="M 175.297888 122.718019 
L 175.297888 22.926019 
" clip-path="url(#pcdae025caa)" style="fill: none; stroke: #000000; stroke-width: 0.25; stroke-linecap: square"/>
   </g>
   <g id="line2d_23">
    <path d="M 147.023487 22.926019 
L 147.023487 122.718019 
" clip-path="url(#pcdae025caa)" style="fill: none; stroke: #000000; stroke-width: 0.25; stroke-linecap: square"/>
   </g>
   <g id="line2d_24">
    <path d="M 147.023487 122.718019 
L 47.231488 122.718019 
" clip-path="url(#pcdae025caa)" style="fill: none; stroke: #000000; stroke-width: 0.25; stroke-linecap: square"/>
   </g>
   <g id="line2d_25">
    <path d="M 47.231488 150.992419 
L 147.023487 150.992419 
" clip-path="url(#pcdae025caa)" style="fill: none; stroke: #000000; stroke-width: 0.25; stroke-linecap: square"/>
   </g>
   <g id="line2d_26">
    <path d="M 147.023487 150.992419 
L 147.023487 250.784419 
" clip-path="url(#pcdae025caa)" style="fill: none; stroke: #000000; stroke-width: 0.25; stroke-linecap: square"/>
   </g>
   <g id="line2d_27">
    <path d="M 175.297888 136.855219 
L 275.089887 136.855219 
" clip-path="url(#pcdae025caa)" style="fill: none; stroke-dasharray: 0.925,0.4; stroke-dashoffset: 0; stroke: #000000; stroke-width: 0.25"/>
   </g>
   <g id="line2d_28">
    <path d="M 161.160687 122.718019 
L 161.160687 22.926019 
" clip-path="url(#pcdae025caa)" style="fill: none; stroke-dasharray: 0.925,0.4; stroke-dashoffset: 0; stroke: #000000; stroke-width: 0.25"/>
   </g>
   <g id="line2d_29">
    <path d="M 147.023487 136.855219 
L 47.231488 136.855219 
" clip-path="url(#pcdae025caa)" style="fill: none; stroke-dasharray: 0.925,0.4; stroke-dashoffset: 0; stroke: #000000; stroke-width: 0.25"/>
   </g>
   <g id="line2d_30">
    <path d="M 161.160687 150.992419 
L 161.160687 250.784419 
" clip-path="url(#pcdae025caa)" style="fill: none; stroke-dasharray: 0.925,0.4; stroke-dashoffset: 0; stroke: #000000; stroke-width: 0.25"/>
   </g>
   <g id="line2d_31">
    <path d="M 151.271802 129.295841 
L 149.475521 129.303919 
L 147.693435 129.443287 
L 145.919802 129.572583 
L 144.154537 129.686099 
L 142.397624 129.77667 
L 140.649028 129.836044 
L 138.908865 129.86315 
L 137.177201 129.885234 
L 135.453443 129.908528 
L 133.737307 129.953433 
L 132.02898 130.032786 
L 130.326613 130.113603 
L 128.629015 130.183514 
L 126.935219 130.229724 
L 125.244875 130.248661 
L 123.557823 130.240557 
L 121.873913 130.206565 
L 120.192843 130.152614 
L 118.513243 130.114034 
L 116.834833 130.097333 
L 115.157904 130.13037 
L 113.48393 130.21733 
L 111.811791 130.322174 
L 110.140935 130.436713 
L 108.470254 130.546797 
L 106.799588 130.651954 
L 105.128828 130.752104 
L 103.457982 130.848755 
L 101.787091 130.943611 
L 100.116201 131.038186 
" clip-path="url(#pcdae025caa)" style="fill: none; stroke: #ff0000; stroke-width: 0.25; stroke-linecap: square"/>
   </g>
   <g id="line2d_32">
    <path d="M 167.582232 112.389471 
L 167.593301 111.000252 
L 167.531089 109.598662 
L 167.440634 108.184685 
L 167.359505 106.756226 
L 167.295959 105.313243 
L 167.255509 103.856259 
L 167.237029 102.386285 
L 167.239471 100.904387 
L 167.261846 99.411661 
L 167.303185 97.909206 
L 167.362443 96.398101 
L 167.438383 94.879373 
L 167.529409 93.353973 
L 167.633364 91.822737 
L 167.73354 90.285395 
L 167.804389 88.741378 
L 167.843767 87.191954 
L 167.825152 85.638611 
L 167.757633 84.083821 
L 167.670989 82.527796 
L 167.575427 80.970676 
L 167.485378 79.412001 
L 167.401903 77.852053 
L 167.325367 76.291098 
L 167.255549 74.729379 
L 167.191754 73.167109 
L 167.132927 71.604469 
L 167.077753 70.041601 
L 167.024752 68.478616 
L 166.972371 66.9156 
" clip-path="url(#pcdae025caa)" style="fill: none; stroke: #ff0000; stroke-width: 0.25; stroke-linecap: square"/>
   </g>
   <g id="line2d_33">
    <path d="M 153.147981 148.841601 
L 153.506931 150.414775 
L 153.780556 151.992414 
L 153.96081 153.574338 
L 154.0978 155.154527 
L 154.218033 156.732507 
L 154.350344 158.30807 
L 154.509092 159.881389 
L 154.66264 161.456789 
L 154.789212 163.037257 
L 154.882111 164.623593 
L 154.942844 166.215652 
L 154.973205 167.81318 
L 154.975149 169.415862 
L 154.950757 171.023343 
L 154.902276 172.635254 
L 154.832237 174.251239 
L 154.743637 175.870978 
L 154.640186 177.494228 
L 154.561248 179.122905 
L 154.510567 180.756326 
L 154.514578 182.393734 
L 154.580269 184.032485 
L 154.667462 185.672417 
L 154.769154 187.313168 
L 154.867538 188.955369 
L 154.961094 190.598746 
L 155.049742 192.242971 
L 155.134065 193.887726 
L 155.215339 195.532751 
L 155.295292 197.177878 
" clip-path="url(#pcdae025caa)" style="fill: none; stroke: #ff0000; stroke-width: 0.25; stroke-linecap: square"/>
   </g>
   <g id="line2d_34">
    <path d="M 172.893801 144.212136 
L 174.491881 143.979115 
L 176.089876 143.821618 
L 177.687491 143.748861 
L 179.281828 143.69573 
L 180.874075 143.642297 
L 182.465364 143.574289 
L 184.056316 143.482279 
L 185.650217 143.409911 
L 187.247862 143.364799 
L 188.849425 143.349659 
L 190.454788 143.362033 
L 192.063819 143.398558 
L 193.677213 143.423747 
L 195.294856 143.434619 
L 196.916135 143.400561 
L 198.539666 143.324802 
L 200.165996 143.237641 
L 201.795167 143.147561 
L 203.427513 143.066589 
L 205.062685 142.995239 
L 206.700296 142.933437 
L 208.339942 142.880663 
L 209.981229 142.836069 
L 211.62378 142.798589 
L 213.267249 142.767021 
L 214.911325 142.740094 
L 216.555757 142.716542 
L 218.200395 142.695184 
L 219.845135 142.674995 
L 221.489911 142.655444 
" clip-path="url(#pcdae025caa)" style="fill: none; stroke: #ff0000; stroke-width: 0.25; stroke-linecap: square"/>
   </g>
   <g id="line2d_35">
    <path d="M 167.331019 166.590735 
L 167.426183 165.004555 
L 167.525087 163.419122 
L 167.639602 161.8341 
L 167.731081 160.245623 
L 167.784875 158.652013 
L 167.828385 157.052941 
L 167.875711 155.446893 
L 167.945784 153.832247 
L 168.055572 152.207614 
L 168.223016 150.572539 
L 168.452736 148.926147 
L 168.748904 147.268189 
L 169.112112 145.598328 
L 169.537917 143.915272 
L 170.007681 142.213613 
L 170.464594 140.477192 
L 170.819067 138.687342 
L 170.978577 136.844469 
L 170.862643 134.979685 
L 170.438649 133.149489 
L 169.828325 131.371401 
L 169.085976 129.652192 
L 168.355502 127.944038 
L 167.689575 126.232674 
L 167.152498 124.504078 
L 166.782402 122.761499 
L 166.585526 121.019232 
L 166.547384 119.290507 
L 166.617535 117.580028 
L 166.664096 115.877356 
" clip-path="url(#pcdae025caa)" style="fill: none; stroke: #ff0000; stroke-width: 0.25; stroke-linecap: square"/>
   </g>
   <g id="line2d_36">
    <path d="M 190.931592 130.763762 
L 189.32325 130.652584 
L 187.709852 130.533326 
L 186.092534 130.386968 
L 184.466869 130.258764 
L 182.83202 130.153101 
L 181.189845 130.029611 
L 179.540819 129.872683 
L 177.887129 129.658078 
L 176.232078 129.368374 
L 174.580617 128.988461 
L 172.935608 128.518752 
L 171.300323 127.960026 
L 169.676037 127.319689 
L 168.037419 126.667921 
L 166.351404 126.102064 
L 164.606387 125.712559 
L 162.822293 125.570898 
L 161.045729 125.71417 
L 159.314084 126.057607 
L 157.648443 126.559615 
L 156.021355 127.076521 
L 154.424454 127.569063 
L 152.851158 128.013182 
L 151.300709 128.413437 
L 149.776033 128.798845 
L 148.283069 129.212598 
L 146.816525 129.651938 
L 145.36005 130.078687 
L 143.905824 130.48338 
L 142.448283 130.861121 
" clip-path="url(#pcdae025caa)" style="fill: none; stroke: #ff0000; stroke-width: 0.25; stroke-linecap: square"/>
   </g>
   <g id="line2d_37">
    <path d="M 154.022127 108.025366 
L 154.047228 109.717105 
L 154.08938 111.420406 
L 154.147874 113.136451 
L 154.207667 114.867153 
L 154.256549 116.614406 
L 154.267061 118.379916 
L 154.240962 120.163833 
L 154.211079 121.966824 
L 154.193046 123.789541 
L 154.20639 125.632088 
L 154.273928 127.492962 
L 154.421422 129.367927 
L 154.679122 131.248287 
L 155.100938 133.114125 
L 155.724095 134.935429 
L 156.557184 136.680502 
L 157.587115 138.324123 
L 158.828045 139.819658 
L 160.221404 141.176436 
L 161.750112 142.376974 
L 163.394118 143.405735 
L 165.130665 144.250086 
L 166.936386 144.901405 
L 168.78869 145.356033 
L 170.66644 145.617578 
L 172.551383 145.698009 
L 174.42771 145.58053 
L 176.282875 145.30297 
L 178.111715 144.89568 
L 179.937708 144.478868 
" clip-path="url(#pcdae025caa)" style="fill: none; stroke: #ff0000; stroke-width: 0.25; stroke-linecap: square"/>
   </g>
   <g id="line2d_38">
    <path d="M 121.746515 142.873444 
L 123.090336 142.923346 
L 124.423141 142.973126 
L 125.743688 143.028335 
L 127.050975 143.088925 
L 128.344081 143.154636 
L 129.622213 143.224965 
L 130.884752 143.299127 
L 132.132135 143.36119 
L 133.364308 143.404596 
L 134.581112 143.432268 
L 135.782915 143.434554 
L 136.97047 143.428769 
L 138.145425 143.416977 
L 139.310257 143.406481 
L 140.468276 143.400648 
L 141.62367 143.398696 
L 142.781604 143.388109 
L 143.947114 143.345075 
L 145.122717 143.241087 
L 146.308996 143.068992 
L 147.50794 142.843266 
L 148.724794 142.594072 
L 149.963252 142.346137 
L 151.219842 142.096129 
L 152.491812 141.849436 
L 153.771808 141.590253 
L 155.0575 141.326488 
L 156.349922 141.077221 
L 157.647816 140.844071 
L 158.940011 140.572141 
" clip-path="url(#pcdae025caa)" style="fill: none; stroke: #ff0000; stroke-width: 0.25; stroke-linecap: square"/>
   </g>
   <g id="line2d_39">
    <path d="M 166.995205 213.381825 
L 166.99635 211.832103 
L 166.998162 210.282367 
L 167.001788 208.732601 
L 167.007754 207.182793 
L 167.016663 205.632929 
L 167.029197 204.083 
L 167.046113 202.532999 
L 167.068235 200.982923 
L 167.096436 199.432778 
L 167.131611 197.882578 
L 167.174642 196.332346 
L 167.226342 194.782116 
L 167.287383 193.231929 
L 167.35821 191.681828 
L 167.438921 190.13185 
L 167.529127 188.582009 
L 167.627777 187.032279 
L 167.732959 185.482569 
L 167.808192 183.930715 
L 167.851385 182.37731 
L 167.841961 180.823041 
L 167.774099 179.270098 
L 167.685363 177.718162 
L 167.582461 176.167195 
L 167.482656 174.616143 
L 167.387273 173.064929 
L 167.296466 171.513542 
L 167.209789 169.962 
L 167.126335 168.410333 
L 167.044884 166.858586 
" clip-path="url(#pcdae025caa)" style="fill: none; stroke: #ff0000; stroke-width: 0.25; stroke-linecap: square"/>
   </g>
   <g id="line2d_40">
    <path d="M 222.422139 130.976433 
L 220.468265 130.951698 
L 218.523224 130.924753 
L 216.588585 130.889517 
L 214.665902 130.844627 
L 212.75675 130.788896 
L 210.862707 130.721426 
L 208.985311 130.641748 
L 207.126018 130.549999 
L 205.286127 130.447132 
L 203.466703 130.335163 
L 201.668476 130.217457 
L 199.891747 130.099058 
L 198.13453 130.019817 
L 196.397377 129.985971 
L 194.681004 130.019533 
L 192.987084 130.126051 
L 191.314838 130.288025 
L 189.663108 130.506031 
L 188.028917 130.776457 
L 186.41111 131.112899 
L 184.803871 131.509376 
L 183.195403 131.943081 
L 181.563605 132.353237 
L 179.891008 132.67456 
L 178.173139 132.83796 
L 176.425053 132.850475 
L 174.658373 132.778994 
L 172.882716 132.609745 
L 171.105708 132.361472 
L 169.321467 132.125511 
" clip-path="url(#pcdae025caa)" style="fill: none; stroke: #ff0000; stroke-width: 0.25; stroke-linecap: square"/>
   </g>
   <g id="line2d_41">
    <path d="M 155.31694 60.325589 
L 155.309667 61.875704 
L 155.301 63.426032 
L 155.288665 64.976513 
L 155.271843 66.527091 
L 155.249654 68.077704 
L 155.221172 69.62828 
L 155.185452 71.178741 
L 155.141567 72.728992 
L 155.088661 74.278931 
L 155.02602 75.828441 
L 154.953163 77.377406 
L 154.86996 78.925711 
L 154.776773 80.473265 
L 154.674631 82.02002 
L 154.579676 83.566938 
L 154.516932 85.115084 
L 154.48575 86.663642 
L 154.511431 88.211566 
L 154.583089 89.757074 
L 154.668264 91.300758 
L 154.754869 92.843061 
L 154.826558 94.384818 
L 154.880207 95.926022 
L 154.913116 97.466584 
L 154.922918 99.006338 
L 154.907513 100.54505 
L 154.865023 102.082427 
L 154.793791 103.618129 
L 154.692438 105.151783 
L 154.608176 106.686423 
" clip-path="url(#pcdae025caa)" style="fill: none; stroke: #ff0000; stroke-width: 0.25; stroke-linecap: square"/>
   </g>
   <g id="line2d_42">
    <path d="M 84.634105 142.691522 
L 86.184086 142.692299 
L 87.734335 142.693802 
L 89.284807 142.69692 
L 90.835461 142.702137 
L 92.386251 142.71001 
L 93.937129 142.721166 
L 95.488043 142.736307 
L 97.038937 142.756194 
L 98.589743 142.781636 
L 100.140386 142.813468 
L 101.69078 142.852515 
L 103.240824 142.899547 
L 104.790409 142.955214 
L 106.339419 143.019967 
L 107.887741 143.093959 
L 109.435272 143.176913 
L 110.981945 143.267974 
L 112.527741 143.365532 
L 114.074582 143.432768 
L 115.621727 143.470168 
L 117.168488 143.460149 
L 118.713303 143.404747 
L 120.256506 143.335657 
L 121.798356 143.26217 
L 123.339616 143.200228 
L 124.880359 143.152079 
L 126.420621 143.119405 
L 127.960419 143.103388 
L 129.499771 143.104774 
L 131.038717 143.123914 
" clip-path="url(#pcdae025caa)" style="fill: none; stroke: #ff0000; stroke-width: 0.25; stroke-linecap: square"/>
   </g>
   <g id="patch_15">
    <path d="M 28.104688 269.911219 
L 28.104688 3.799219 
" style="fill: none; stroke: #000000; stroke-width: 0.8; stroke-linejoin: miter; stroke-linecap: square"/>
   </g>
   <g id="patch_16">
    <path d="M 294.216687 269.911219 
L 294.216687 3.799219 
" style="fill: none; stroke: #000000; stroke-width: 0.8; stroke-linejoin: miter; stroke-linecap: square"/>
   </g>
   <g id="patch_17">
    <path d="M 28.104688 269.911219 
L 294.216687 269.911219 
" style="fill: none; stroke: #000000; stroke-width: 0.8; stroke-linejoin: miter; stroke-linecap: square"/>
   </g>
   <g id="patch_18">
    <path d="M 28.104688 3.799219 
L 294.216687 3.799219 
" style="fill: none; stroke: #000000; stroke-width: 0.8; stroke-linejoin: miter; stroke-linecap: square"/>
   </g>
   <g id="text_19">
    <!-- Time: 3.7 s -->
    <g transform="translate(198.9952 17.104819) scale(0.1 -0.1)">
     <defs>
      <path id="DejaVuSans-54" d="M -19 4666 
L 3928 4666 
L 3928 4134 
L 2272 4134 
L 2272 0 
L 1638 0 
L 1638 4134 
L -19 4134 
L -19 4666 
z
" transform="scale(0.015625)"/>
      <path id="DejaVuSans-69" d="M 603 3500 
L 1178 3500 
L 1178 0 
L 603 0 
L 603 3500 
z
M 603 4863 
L 1178 4863 
L 1178 4134 
L 603 4134 
L 603 4863 
z
" transform="scale(0.015625)"/>
      <path id="DejaVuSans-6d" d="M 3328 2828 
Q 3544 3216 3844 3400 
Q 4144 3584 4550 3584 
Q 5097 3584 5394 3201 
Q 5691 2819 5691 2113 
L 5691 0 
L 5113 0 
L 5113 2094 
Q 5113 2597 4934 2840 
Q 4756 3084 4391 3084 
Q 3944 3084 3684 2787 
Q 3425 2491 3425 1978 
L 3425 0 
L 2847 0 
L 2847 2094 
Q 2847 2600 2669 2842 
Q 2491 3084 2119 3084 
Q 1678 3084 1418 2786 
Q 1159 2488 1159 1978 
L 1159 0 
L 581 0 
L 581 3500 
L 1159 3500 
L 1159 2956 
Q 1356 3278 1631 3431 
Q 1906 3584 2284 3584 
Q 2666 3584 2933 3390 
Q 3200 3197 3328 2828 
z
" transform="scale(0.015625)"/>
      <path id="DejaVuSans-65" d="M 3597 1894 
L 3597 1613 
L 953 1613 
Q 991 1019 1311 708 
Q 1631 397 2203 397 
Q 2534 397 2845 478 
Q 3156 559 3463 722 
L 3463 178 
Q 3153 47 2828 -22 
Q 2503 -91 2169 -91 
Q 1331 -91 842 396 
Q 353 884 353 1716 
Q 353 2575 817 3079 
Q 1281 3584 2069 3584 
Q 2775 3584 3186 3129 
Q 3597 2675 3597 1894 
z
M 3022 2063 
Q 3016 2534 2758 2815 
Q 2500 3097 2075 3097 
Q 1594 3097 1305 2825 
Q 1016 2553 972 2059 
L 3022 2063 
z
" transform="scale(0.015625)"/>
      <path id="DejaVuSans-3a" d="M 750 794 
L 1409 794 
L 1409 0 
L 750 0 
L 750 794 
z
M 750 3309 
L 1409 3309 
L 1409 2516 
L 750 2516 
L 750 3309 
z
" transform="scale(0.015625)"/>
      <path id="DejaVuSans-20" transform="scale(0.015625)"/>
      <path id="DejaVuSans-2e" d="M 684 794 
L 1344 794 
L 1344 0 
L 684 0 
L 684 794 
z
" transform="scale(0.015625)"/>
      <path id="DejaVuSans-37" d="M 525 4666 
L 3525 4666 
L 3525 4397 
L 1831 0 
L 1172 0 
L 2766 4134 
L 525 4134 
L 525 4666 
z
" transform="scale(0.015625)"/>
      <path id="DejaVuSans-73" d="M 2834 3397 
L 2834 2853 
Q 2591 2978 2328 3040 
Q 2066 3103 1784 3103 
Q 1356 3103 1142 2972 
Q 928 2841 928 2578 
Q 928 2378 1081 2264 
Q 1234 2150 1697 2047 
L 1894 2003 
Q 2506 1872 2764 1633 
Q 3022 1394 3022 966 
Q 3022 478 2636 193 
Q 2250 -91 1575 -91 
Q 1294 -91 989 -36 
Q 684 19 347 128 
L 347 722 
Q 666 556 975 473 
Q 1284 391 1588 391 
Q 1994 391 2212 530 
Q 2431 669 2431 922 
Q 2431 1156 2273 1281 
Q 2116 1406 1581 1522 
L 1381 1569 
Q 847 1681 609 1914 
Q 372 2147 372 2553 
Q 372 3047 722 3315 
Q 1072 3584 1716 3584 
Q 2034 3584 2315 3537 
Q 2597 3491 2834 3397 
z
" transform="scale(0.015625)"/>
     </defs>
     <use xlink:href="#DejaVuSans-54"/>
     <use xlink:href="#DejaVuSans-69" x="57.958984"/>
     <use xlink:href="#DejaVuSans-6d" x="85.742188"/>
     <use xlink:href="#DejaVuSans-65" x="183.154297"/>
     <use xlink:href="#DejaVuSans-3a" x="244.677734"/>
     <use xlink:href="#DejaVuSans-20" x="278.369141"/>
     <use xlink:href="#DejaVuSans-33" x="310.15625"/>
     <use xlink:href="#DejaVuSans-2e" x="373.779297"/>
     <use xlink:href="#DejaVuSans-37" x="405.566406"/>
     <use xlink:href="#DejaVuSans-20" x="469.189453"/>
     <use xlink:href="#DejaVuSans-73" x="500.976562"/>
    </g>
   </g>
  </g>
 </g>
 <defs>
  <clipPath id="pcdae025caa">
   <rect x="28.104688" y="3.799219" width="266.112" height="266.112"/>
  </clipPath>
 </defs>
</svg>
