<?xml version="1.0" encoding="utf-8" standalone="no"?>
<!DOCTYPE svg PUBLIC "-//W3C//DTD SVG 1.1//EN"
  "http://www.w3.org/Graphics/SVG/1.1/DTD/svg11.dtd">
<svg xmlns:xlink="http://www.w3.org/1999/xlink" width="300.579188pt" height="286.589344pt" viewBox="0 0 300.579188 286.589344" xmlns="http://www.w3.org/2000/svg" version="1.1">
 <metadata>
  <rdf:RDF xmlns:dc="http://purl.org/dc/elements/1.1/" xmlns:cc="http://creativecommons.org/ns#" xmlns:rdf="http://www.w3.org/1999/02/22-rdf-syntax-ns#">
   <cc:Work>
    <dc:type rdf:resource="http://purl.org/dc/dcmitype/StillImage"/>
    <dc:date>2024-02-26T10:13:22.496340</dc:date>
    <dc:format>image/svg+xml</dc:format>
    <dc:creator>
     <cc:Agent>
      <dc:title>Matplotlib v3.8.2, https://matplotlib.org/</dc:title>
     </cc:Agent>
    </dc:creator>
   </cc:Work>
  </rdf:RDF>
 </metadata>
 <defs>
  <style type="text/css">*{stroke-linejoin: round; stroke-linecap: butt}</style>
 </defs>
 <g id="figure_1">
  <g id="patch_1">
   <path d="M 0 286.589344 
L 300.579188 286.589344 
L 300.579188 0 
L 0 0 
z
" style="fill: #ffffff"/>
  </g>
  <g id="axes_1">
   <g id="patch_2">
    <path d="M 28.104688 269.911219 
L 294.216687 269.911219 
L 294.216687 3.799219 
L 28.104688 3.799219 
z
" style="fill: #ffffff"/>
   </g>
   <g id="patch_3">
    <path d="M 146.434668 127.059916 
L 134.793186 127.206056 
L 134.864168 132.86049 
L 146.50565 132.71435 
z
" clip-path="url(#p56fef9512c)" style="fill: #00008b"/>
   </g>
   <g id="patch_4">
    <path d="M 170.509722 109.479525 
L 169.751831 97.86182 
L 164.108945 98.229938 
L 164.866837 109.847644 
z
" clip-path="url(#p56fef9512c)" style="fill: #800000"/>
   </g>
   <g id="patch_5">
    <path d="M 150.787544 152.876908 
L 152.198481 164.433496 
L 157.811681 163.748184 
L 156.400744 152.191596 
z
" clip-path="url(#p56fef9512c)" style="fill: #006400"/>
   </g>
   <g id="patch_6">
    <path d="M 176.879966 146.893576 
L 188.487949 145.999026 
L 188.053453 140.360863 
L 176.445471 141.255413 
z
" clip-path="url(#p56fef9512c)" style="fill: #4b0082"/>
   </g>
   <g id="patch_7">
    <path d="M 170.402679 162.968404 
L 170.859566 151.334973 
L 165.209042 151.113056 
L 164.752155 162.746488 
z
" clip-path="url(#p56fef9512c)" style="fill: #0000ff"/>
   </g>
   <g id="patch_8">
    <path d="M 187.187717 127.596665 
L 175.573748 126.78352 
L 175.178792 132.42459 
L 186.792761 133.237735 
z
" clip-path="url(#p56fef9512c)" style="fill: #ff0000"/>
   </g>
   <g id="patch_9">
    <path d="M 151.38898 112.595449 
L 151.501368 124.237306 
L 157.155985 124.182718 
L 157.043597 112.54086 
z
" clip-path="url(#p56fef9512c)" style="fill: #dbdc56"/>
   </g>
   <g id="patch_10">
    <path d="M 123.679978 145.816195 
L 135.311317 146.323553 
L 135.557748 140.674045 
L 123.926409 140.166687 
z
" clip-path="url(#p56fef9512c)" style="fill: #9400d3"/>
   </g>
   <g id="patch_11">
    <path d="M 169.834894 209.917506 
L 169.89041 198.275238 
L 164.235594 198.248273 
L 164.180078 209.890541 
z
" clip-path="url(#p56fef9512c)" style="fill: #1e90ff"/>
   </g>
   <g id="patch_12">
    <path d="M 216.774443 128.026265 
L 205.136695 127.697146 
L 204.976838 133.349766 
L 216.614585 133.678885 
z
" clip-path="url(#p56fef9512c)" style="fill: #ff4500"/>
   </g>
   <g id="patch_13">
    <path d="M 152.452745 63.770912 
L 152.306496 75.412394 
L 157.96093 75.483429 
L 158.107179 63.841947 
z
" clip-path="url(#p56fef9512c)" style="fill: #7cfc00"/>
   </g>
   <g id="patch_14">
    <path d="M 88.10462 145.527989 
L 99.746936 145.572417 
L 99.768515 139.917578 
L 88.126199 139.873151 
z
" clip-path="url(#p56fef9512c)" style="fill: #ff00ff"/>
   </g>
   <g id="matplotlib.axis_1">
    <g id="xtick_1">
     <g id="line2d_1">
      <defs>
       <path id="m11e5b1d39b" d="M 0 0 
L 0 3.5 
" style="stroke: #000000; stroke-width: 0.8"/>
      </defs>
      <g>
       <use xlink:href="#m11e5b1d39b" x="28.104688" y="269.911219" style="stroke: #000000; stroke-width: 0.8"/>
      </g>
     </g>
     <g id="text_1">
      <!-- −40 -->
      <g transform="translate(17.552344 284.509656) scale(0.1 -0.1)">
       <defs>
        <path id="DejaVuSans-2212" d="M 678 2272 
L 4684 2272 
L 4684 1741 
L 678 1741 
L 678 2272 
z
" transform="scale(0.015625)"/>
        <path id="DejaVuSans-34" d="M 2419 4116 
L 825 1625 
L 2419 1625 
L 2419 4116 
z
M 2253 4666 
L 3047 4666 
L 3047 1625 
L 3713 1625 
L 3713 1100 
L 3047 1100 
L 3047 0 
L 2419 0 
L 2419 1100 
L 313 1100 
L 313 1709 
L 2253 4666 
z
" transform="scale(0.015625)"/>
        <path id="DejaVuSans-30" d="M 2034 4250 
Q 1547 4250 1301 3770 
Q 1056 3291 1056 2328 
Q 1056 1369 1301 889 
Q 1547 409 2034 409 
Q 2525 409 2770 889 
Q 3016 1369 3016 2328 
Q 3016 3291 2770 3770 
Q 2525 4250 2034 4250 
z
M 2034 4750 
Q 2819 4750 3233 4129 
Q 3647 3509 3647 2328 
Q 3647 1150 3233 529 
Q 2819 -91 2034 -91 
Q 1250 -91 836 529 
Q 422 1150 422 2328 
Q 422 3509 836 4129 
Q 1250 4750 2034 4750 
z
" transform="scale(0.015625)"/>
       </defs>
       <use xlink:href="#DejaVuSans-2212"/>
       <use xlink:href="#DejaVuSans-34" x="83.789062"/>
       <use xlink:href="#DejaVuSans-30" x="147.412109"/>
      </g>
     </g>
    </g>
    <g id="xtick_2">
     <g id="line2d_2">
      <g>
       <use xlink:href="#m11e5b1d39b" x="61.368688" y="269.911219" style="stroke: #000000; stroke-width: 0.8"/>
      </g>
     </g>
     <g id="text_2">
      <!-- −30 -->
      <g transform="translate(50.816344 284.509656) scale(0.1 -0.1)">
       <defs>
        <path id="DejaVuSans-33" d="M 2597 2516 
Q 3050 2419 3304 2112 
Q 3559 1806 3559 1356 
Q 3559 666 3084 287 
Q 2609 -91 1734 -91 
Q 1441 -91 1130 -33 
Q 819 25 488 141 
L 488 750 
Q 750 597 1062 519 
Q 1375 441 1716 441 
Q 2309 441 2620 675 
Q 2931 909 2931 1356 
Q 2931 1769 2642 2001 
Q 2353 2234 1838 2234 
L 1294 2234 
L 1294 2753 
L 1863 2753 
Q 2328 2753 2575 2939 
Q 2822 3125 2822 3475 
Q 2822 3834 2567 4026 
Q 2313 4219 1838 4219 
Q 1578 4219 1281 4162 
Q 984 4106 628 3988 
L 628 4550 
Q 988 4650 1302 4700 
Q 1616 4750 1894 4750 
Q 2613 4750 3031 4423 
Q 3450 4097 3450 3541 
Q 3450 3153 3228 2886 
Q 3006 2619 2597 2516 
z
" transform="scale(0.015625)"/>
       </defs>
       <use xlink:href="#DejaVuSans-2212"/>
       <use xlink:href="#DejaVuSans-33" x="83.789062"/>
       <use xlink:href="#DejaVuSans-30" x="147.412109"/>
      </g>
     </g>
    </g>
    <g id="xtick_3">
     <g id="line2d_3">
      <g>
       <use xlink:href="#m11e5b1d39b" x="94.632688" y="269.911219" style="stroke: #000000; stroke-width: 0.8"/>
      </g>
     </g>
     <g id="text_3">
      <!-- −20 -->
      <g transform="translate(84.080344 284.509656) scale(0.1 -0.1)">
       <defs>
        <path id="DejaVuSans-32" d="M 1228 531 
L 3431 531 
L 3431 0 
L 469 0 
L 469 531 
Q 828 903 1448 1529 
Q 2069 2156 2228 2338 
Q 2531 2678 2651 2914 
Q 2772 3150 2772 3378 
Q 2772 3750 2511 3984 
Q 2250 4219 1831 4219 
Q 1534 4219 1204 4116 
Q 875 4013 500 3803 
L 500 4441 
Q 881 4594 1212 4672 
Q 1544 4750 1819 4750 
Q 2544 4750 2975 4387 
Q 3406 4025 3406 3419 
Q 3406 3131 3298 2873 
Q 3191 2616 2906 2266 
Q 2828 2175 2409 1742 
Q 1991 1309 1228 531 
z
" transform="scale(0.015625)"/>
       </defs>
       <use xlink:href="#DejaVuSans-2212"/>
       <use xlink:href="#DejaVuSans-32" x="83.789062"/>
       <use xlink:href="#DejaVuSans-30" x="147.412109"/>
      </g>
     </g>
    </g>
    <g id="xtick_4">
     <g id="line2d_4">
      <g>
       <use xlink:href="#m11e5b1d39b" x="127.896687" y="269.911219" style="stroke: #000000; stroke-width: 0.8"/>
      </g>
     </g>
     <g id="text_4">
      <!-- −10 -->
      <g transform="translate(117.344344 284.509656) scale(0.1 -0.1)">
       <defs>
        <path id="DejaVuSans-31" d="M 794 531 
L 1825 531 
L 1825 4091 
L 703 3866 
L 703 4441 
L 1819 4666 
L 2450 4666 
L 2450 531 
L 3481 531 
L 3481 0 
L 794 0 
L 794 531 
z
" transform="scale(0.015625)"/>
       </defs>
       <use xlink:href="#DejaVuSans-2212"/>
       <use xlink:href="#DejaVuSans-31" x="83.789062"/>
       <use xlink:href="#DejaVuSans-30" x="147.412109"/>
      </g>
     </g>
    </g>
    <g id="xtick_5">
     <g id="line2d_5">
      <g>
       <use xlink:href="#m11e5b1d39b" x="161.160687" y="269.911219" style="stroke: #000000; stroke-width: 0.8"/>
      </g>
     </g>
     <g id="text_5">
      <!-- 0 -->
      <g transform="translate(157.979437 284.509656) scale(0.1 -0.1)">
       <use xlink:href="#DejaVuSans-30"/>
      </g>
     </g>
    </g>
    <g id="xtick_6">
     <g id="line2d_6">
      <g>
       <use xlink:href="#m11e5b1d39b" x="194.424688" y="269.911219" style="stroke: #000000; stroke-width: 0.8"/>
      </g>
     </g>
     <g id="text_6">
      <!-- 10 -->
      <g transform="translate(188.062187 284.509656) scale(0.1 -0.1)">
       <use xlink:href="#DejaVuSans-31"/>
       <use xlink:href="#DejaVuSans-30" x="63.623047"/>
      </g>
     </g>
    </g>
    <g id="xtick_7">
     <g id="line2d_7">
      <g>
       <use xlink:href="#m11e5b1d39b" x="227.688687" y="269.911219" style="stroke: #000000; stroke-width: 0.8"/>
      </g>
     </g>
     <g id="text_7">
      <!-- 20 -->
      <g transform="translate(221.326187 284.509656) scale(0.1 -0.1)">
       <use xlink:href="#DejaVuSans-32"/>
       <use xlink:href="#DejaVuSans-30" x="63.623047"/>
      </g>
     </g>
    </g>
    <g id="xtick_8">
     <g id="line2d_8">
      <g>
       <use xlink:href="#m11e5b1d39b" x="260.952687" y="269.911219" style="stroke: #000000; stroke-width: 0.8"/>
      </g>
     </g>
     <g id="text_8">
      <!-- 30 -->
      <g transform="translate(254.590187 284.509656) scale(0.1 -0.1)">
       <use xlink:href="#DejaVuSans-33"/>
       <use xlink:href="#DejaVuSans-30" x="63.623047"/>
      </g>
     </g>
    </g>
    <g id="xtick_9">
     <g id="line2d_9">
      <g>
       <use xlink:href="#m11e5b1d39b" x="294.216687" y="269.911219" style="stroke: #000000; stroke-width: 0.8"/>
      </g>
     </g>
     <g id="text_9">
      <!-- 40 -->
      <g transform="translate(287.854187 284.509656) scale(0.1 -0.1)">
       <use xlink:href="#DejaVuSans-34"/>
       <use xlink:href="#DejaVuSans-30" x="63.623047"/>
      </g>
     </g>
    </g>
   </g>
   <g id="matplotlib.axis_2">
    <g id="ytick_1">
     <g id="line2d_10">
      <defs>
       <path id="mea0c122748" d="M 0 0 
L -3.5 0 
" style="stroke: #000000; stroke-width: 0.8"/>
      </defs>
      <g>
       <use xlink:href="#mea0c122748" x="28.104688" y="269.911219" style="stroke: #000000; stroke-width: 0.8"/>
      </g>
     </g>
     <g id="text_10">
      <!-- −40 -->
      <g transform="translate(0 273.710437) scale(0.1 -0.1)">
       <use xlink:href="#DejaVuSans-2212"/>
       <use xlink:href="#DejaVuSans-34" x="83.789062"/>
       <use xlink:href="#DejaVuSans-30" x="147.412109"/>
      </g>
     </g>
    </g>
    <g id="ytick_2">
     <g id="line2d_11">
      <g>
       <use xlink:href="#mea0c122748" x="28.104688" y="236.647219" style="stroke: #000000; stroke-width: 0.8"/>
      </g>
     </g>
     <g id="text_11">
      <!-- −30 -->
      <g transform="translate(0 240.446437) scale(0.1 -0.1)">
       <use xlink:href="#DejaVuSans-2212"/>
       <use xlink:href="#DejaVuSans-33" x="83.789062"/>
       <use xlink:href="#DejaVuSans-30" x="147.412109"/>
      </g>
     </g>
    </g>
    <g id="ytick_3">
     <g id="line2d_12">
      <g>
       <use xlink:href="#mea0c122748" x="28.104688" y="203.383219" style="stroke: #000000; stroke-width: 0.8"/>
      </g>
     </g>
     <g id="text_12">
      <!-- −20 -->
      <g transform="translate(0 207.182437) scale(0.1 -0.1)">
       <use xlink:href="#DejaVuSans-2212"/>
       <use xlink:href="#DejaVuSans-32" x="83.789062"/>
       <use xlink:href="#DejaVuSans-30" x="147.412109"/>
      </g>
     </g>
    </g>
    <g id="ytick_4">
     <g id="line2d_13">
      <g>
       <use xlink:href="#mea0c122748" x="28.104688" y="170.119219" style="stroke: #000000; stroke-width: 0.8"/>
      </g>
     </g>
     <g id="text_13">
      <!-- −10 -->
      <g transform="translate(0 173.918437) scale(0.1 -0.1)">
       <use xlink:href="#DejaVuSans-2212"/>
       <use xlink:href="#DejaVuSans-31" x="83.789062"/>
       <use xlink:href="#DejaVuSans-30" x="147.412109"/>
      </g>
     </g>
    </g>
    <g id="ytick_5">
     <g id="line2d_14">
      <g>
       <use xlink:href="#mea0c122748" x="28.104688" y="136.855219" style="stroke: #000000; stroke-width: 0.8"/>
      </g>
     </g>
     <g id="text_14">
      <!-- 0 -->
      <g transform="translate(14.742188 140.654437) scale(0.1 -0.1)">
       <use xlink:href="#DejaVuSans-30"/>
      </g>
     </g>
    </g>
    <g id="ytick_6">
     <g id="line2d_15">
      <g>
       <use xlink:href="#mea0c122748" x="28.104688" y="103.591219" style="stroke: #000000; stroke-width: 0.8"/>
      </g>
     </g>
     <g id="text_15">
      <!-- 10 -->
      <g transform="translate(8.379688 107.390437) scale(0.1 -0.1)">
       <use xlink:href="#DejaVuSans-31"/>
       <use xlink:href="#DejaVuSans-30" x="63.623047"/>
      </g>
     </g>
    </g>
    <g id="ytick_7">
     <g id="line2d_16">
      <g>
       <use xlink:href="#mea0c122748" x="28.104688" y="70.327219" style="stroke: #000000; stroke-width: 0.8"/>
      </g>
     </g>
     <g id="text_16">
      <!-- 20 -->
      <g transform="translate(8.379688 74.126437) scale(0.1 -0.1)">
       <use xlink:href="#DejaVuSans-32"/>
       <use xlink:href="#DejaVuSans-30" x="63.623047"/>
      </g>
     </g>
    </g>
    <g id="ytick_8">
     <g id="line2d_17">
      <g>
       <use xlink:href="#mea0c122748" x="28.104688" y="37.063219" style="stroke: #000000; stroke-width: 0.8"/>
      </g>
     </g>
     <g id="text_17">
      <!-- 30 -->
      <g transform="translate(8.379688 40.862437) scale(0.1 -0.1)">
       <use xlink:href="#DejaVuSans-33"/>
       <use xlink:href="#DejaVuSans-30" x="63.623047"/>
      </g>
     </g>
    </g>
    <g id="ytick_9">
     <g id="line2d_18">
      <g>
       <use xlink:href="#mea0c122748" x="28.104688" y="3.799219" style="stroke: #000000; stroke-width: 0.8"/>
      </g>
     </g>
     <g id="text_18">
      <!-- 40 -->
      <g transform="translate(8.379688 7.598437) scale(0.1 -0.1)">
       <use xlink:href="#DejaVuSans-34"/>
       <use xlink:href="#DejaVuSans-30" x="63.623047"/>
      </g>
     </g>
    </g>
   </g>
   <g id="line2d_19">
    <path d="M 175.297888 250.784419 
L 175.297888 150.992419 
" clip-path="url(#p56fef9512c)" style="fill: none; stroke: #000000; stroke-width: 0.25; stroke-linecap: square"/>
   </g>
   <g id="line2d_20">
    <path d="M 175.297888 150.992419 
L 275.089887 150.992419 
" clip-path="url(#p56fef9512c)" style="fill: none; stroke: #000000; stroke-width: 0.25; stroke-linecap: square"/>
   </g>
   <g id="line2d_21">
    <path d="M 275.089887 122.718019 
L 175.297888 122.718019 
" clip-path="url(#p56fef9512c)" style="fill: none; stroke: #000000; stroke-width: 0.25; stroke-linecap: square"/>
   </g>
   <g id="line2d_22">
    <path d="M 175.297888 122.718019 
L 175.297888 22.926019 
" clip-path="url(#p56fef9512c)" style="fill: none; stroke: #000000; stroke-width: 0.25; stroke-linecap: square"/>
   </g>
   <g id="line2d_23">
    <path d="M 147.023487 22.926019 
L 147.023487 122.718019 
" clip-path="url(#p56fef9512c)" style="fill: none; stroke: #000000; stroke-width: 0.25; stroke-linecap: square"/>
   </g>
   <g id="line2d_24">
    <path d="M 147.023487 122.718019 
L 47.231488 122.718019 
" clip-path="url(#p56fef9512c)" style="fill: none; stroke: #000000; stroke-width: 0.25; stroke-linecap: square"/>
   </g>
   <g id="line2d_25">
    <path d="M 47.231488 150.992419 
L 147.023487 150.992419 
" clip-path="url(#p56fef9512c)" style="fill: none; stroke: #000000; stroke-width: 0.25; stroke-linecap: square"/>
   </g>
   <g id="line2d_26">
    <path d="M 147.023487 150.992419 
L 147.023487 250.784419 
" clip-path="url(#p56fef9512c)" style="fill: none; stroke: #000000; stroke-width: 0.25; stroke-linecap: square"/>
   </g>
   <g id="line2d_27">
    <path d="M 175.297888 136.855219 
L 275.089887 136.855219 
" clip-path="url(#p56fef9512c)" style="fill: none; stroke-dasharray: 0.925,0.4; stroke-dashoffset: 0; stroke: #000000; stroke-width: 0.25"/>
   </g>
   <g id="line2d_28">
    <path d="M 161.160687 122.718019 
L 161.160687 22.926019 
" clip-path="url(#p56fef9512c)" style="fill: none; stroke-dasharray: 0.925,0.4; stroke-dashoffset: 0; stroke: #000000; stroke-width: 0.25"/>
   </g>
   <g id="line2d_29">
    <path d="M 147.023487 136.855219 
L 47.231488 136.855219 
" clip-path="url(#p56fef9512c)" style="fill: none; stroke-dasharray: 0.925,0.4; stroke-dashoffset: 0; stroke: #000000; stroke-width: 0.25"/>
   </g>
   <g id="line2d_30">
    <path d="M 161.160687 150.992419 
L 161.160687 250.784419 
" clip-path="url(#p56fef9512c)" style="fill: none; stroke-dasharray: 0.925,0.4; stroke-dashoffset: 0; stroke: #000000; stroke-width: 0.25"/>
   </g>
   <g id="line2d_31">
    <path d="M 142.403106 129.919338 
L 140.649418 129.960203 
L 138.904048 129.958541 
L 137.167162 129.954398 
L 135.438363 129.956663 
L 133.717321 129.981219 
L 132.004429 130.045385 
L 130.29849 130.118675 
L 128.598306 130.184972 
L 126.902919 130.231138 
L 125.211832 130.249946 
L 123.524866 130.241411 
L 121.841843 130.207014 
L 120.162511 130.149713 
L 118.485192 130.112075 
L 116.809683 130.09785 
L 115.136381 130.137618 
L 113.466819 130.231467 
L 111.79943 130.339181 
L 110.133515 130.451337 
L 108.467873 130.552782 
L 106.802327 130.642661 
L 105.136787 130.720945 
L 103.471213 130.78824 
L 101.805595 130.845618 
L 100.139935 130.894476 
L 98.474244 130.93641 
L 96.80853 130.973133 
L 95.142803 131.006395 
L 93.477075 131.037936 
L 91.81136 131.06944 
" clip-path="url(#p56fef9512c)" style="fill: none; stroke: #ff0000; stroke-width: 0.25; stroke-linecap: square"/>
   </g>
   <g id="line2d_32">
    <path d="M 167.338981 105.31171 
L 167.309334 103.854732 
L 167.284382 102.385143 
L 167.279929 100.903545 
L 167.295333 99.411024 
L 167.329878 97.908682 
L 167.382718 96.397615 
L 167.452764 94.878878 
L 167.538536 93.353455 
L 167.637972 91.822222 
L 167.734167 90.284965 
L 167.80134 88.741185 
L 167.836977 87.192157 
L 167.815046 85.639461 
L 167.744941 84.085544 
L 167.656951 82.530542 
L 167.56152 80.974582 
L 167.472961 79.417228 
L 167.392563 77.858776 
L 167.320979 76.299503 
L 167.258331 74.739659 
L 167.20432 73.179459 
L 167.158337 71.619078 
L 167.11955 70.058645 
L 167.086981 68.49825 
L 167.059566 66.937946 
L 167.036203 65.377754 
L 167.015779 63.817672 
L 166.997205 62.257681 
L 166.979427 60.697752 
L 166.961447 59.137857 
" clip-path="url(#p56fef9512c)" style="fill: none; stroke: #ff0000; stroke-width: 0.25; stroke-linecap: square"/>
   </g>
   <g id="line2d_33">
    <path d="M 154.17066 156.737187 
L 154.299613 158.312546 
L 154.465495 159.884462 
L 154.6243 161.458522 
L 154.756195 163.037614 
L 154.854512 164.622593 
L 154.920537 166.213354 
L 154.955879 167.809676 
L 154.962345 169.411261 
L 154.9419 171.017775 
L 154.89669 172.628866 
L 154.829148 174.244194 
L 154.742171 175.863461 
L 154.639356 177.486446 
L 154.560994 179.115155 
L 154.510681 180.748954 
L 154.514613 182.38715 
L 154.579385 184.027205 
L 154.663824 185.669087 
L 154.760356 187.312553 
L 154.850607 188.958272 
L 154.932795 190.605991 
L 155.006269 192.25541 
L 155.07104 193.90622 
L 155.127636 195.55813 
L 155.176975 197.210882 
L 155.220248 198.864246 
L 155.258828 200.51803 
L 155.294193 202.172075 
L 155.327863 203.826255 
L 155.361328 205.480475 
" clip-path="url(#p56fef9512c)" style="fill: none; stroke: #ff0000; stroke-width: 0.25; stroke-linecap: square"/>
   </g>
   <g id="line2d_34">
    <path d="M 180.876534 143.704047 
L 182.46671 143.627219 
L 184.055736 143.519002 
L 185.648057 143.435956 
L 187.244226 143.381359 
L 188.844396 143.356547 
L 190.448476 143.359293 
L 192.056347 143.386478 
L 193.66851 143.405325 
L 195.284933 143.412348 
L 196.905101 143.377923 
L 198.527728 143.302223 
L 200.153468 143.215883 
L 201.782374 143.126276 
L 203.414874 143.045956 
L 205.050688 142.975466 
L 206.689498 142.914822 
L 208.330974 142.863645 
L 209.974784 142.821279 
L 211.620613 142.786893 
L 213.268165 142.759557 
L 214.917166 142.738313 
L 216.567372 142.722208 
L 218.21856 142.710334 
L 219.870536 142.701842 
L 221.523125 142.695955 
L 223.176175 142.691969 
L 224.829554 142.689255 
L 226.483149 142.687257 
L 228.136864 142.685482 
L 229.790626 142.683496 
" clip-path="url(#p56fef9512c)" style="fill: none; stroke: #ff0000; stroke-width: 0.25; stroke-linecap: square"/>
   </g>
   <g id="line2d_35">
    <path d="M 167.770676 158.646334 
L 167.80586 157.04073 
L 167.849152 155.423933 
L 167.916077 153.79454 
L 168.023017 152.151523 
L 168.187646 150.494843 
L 168.414863 148.82418 
L 168.709073 147.139889 
L 169.071208 145.442311 
L 169.497333 143.730947 
L 169.968251 142.00101 
L 170.426113 140.237048 
L 170.77632 138.420563 
L 170.935359 136.554839 
L 170.826231 134.670691 
L 170.398893 132.8272 
L 169.784227 131.043404 
L 169.07416 129.313219 
L 168.379028 127.606025 
L 167.753752 125.911057 
L 167.268805 124.217472 
L 166.947562 122.537133 
L 166.797476 120.886915 
L 166.819361 119.283112 
L 166.994761 117.737916 
L 167.251779 116.24685 
L 167.453561 114.781012 
L 167.588623 113.331478 
L 167.67204 111.893106 
L 167.69664 110.460373 
L 167.684809 109.03012 
" clip-path="url(#p56fef9512c)" style="fill: none; stroke: #ff0000; stroke-width: 0.25; stroke-linecap: square"/>
   </g>
   <g id="line2d_36">
    <path d="M 182.828609 130.140805 
L 181.183254 130.010627 
L 179.529703 129.848074 
L 177.87079 129.62525 
L 176.209967 129.326405 
L 174.552062 128.938408 
L 172.899693 128.462783 
L 171.255715 127.901488 
L 169.62083 127.26314 
L 167.968636 126.621473 
L 166.267054 126.076216 
L 164.507476 125.719638 
L 162.714246 125.625934 
L 160.939939 125.833562 
L 159.214013 126.212858 
L 157.561058 126.751806 
L 155.95988 127.331836 
L 154.386595 127.872453 
L 152.832062 128.342098 
L 151.295482 128.739734 
L 149.779804 129.088211 
L 148.287007 129.414606 
L 146.807857 129.695374 
L 145.33579 129.909975 
L 143.868373 130.050799 
L 142.405937 130.126219 
L 140.948485 130.145463 
L 139.495512 130.16637 
L 138.045586 130.203178 
L 136.598422 130.276117 
L 135.155056 130.397872 
" clip-path="url(#p56fef9512c)" style="fill: none; stroke: #ff0000; stroke-width: 0.25; stroke-linecap: square"/>
   </g>
   <g id="line2d_37">
    <path d="M 154.267985 116.619202 
L 154.272483 118.389083 
L 154.245423 120.179129 
L 154.216267 121.989487 
L 154.200197 123.820272 
L 154.216696 125.671076 
L 154.288487 127.53987 
L 154.441137 129.421865 
L 154.704518 131.30779 
L 155.133045 133.176867 
L 155.760135 134.9994 
L 156.591088 136.745093 
L 157.63005 138.378564 
L 158.869487 139.865115 
L 160.256845 141.209874 
L 161.773171 142.396637 
L 163.397166 143.411139 
L 165.104881 144.24277 
L 166.872266 144.884786 
L 168.675869 145.337579 
L 170.489215 145.643176 
L 172.305787 145.754023 
L 174.107384 145.67052 
L 175.878582 145.411981 
L 177.607364 144.991107 
L 179.324983 144.558596 
L 181.041796 144.146966 
L 182.759692 143.756826 
L 184.479061 143.384179 
L 186.199808 143.023752 
L 187.921218 142.668605 
" clip-path="url(#p56fef9512c)" style="fill: none; stroke: #ff0000; stroke-width: 0.25; stroke-linecap: square"/>
   </g>
   <g id="line2d_38">
    <path d="M 128.342925 143.170974 
L 129.618863 143.24512 
L 130.87594 143.318747 
L 132.114892 143.377626 
L 133.33594 143.417204 
L 134.539368 143.439563 
L 135.725892 143.435884 
L 136.896819 143.426163 
L 138.054311 143.412836 
L 139.201388 143.403794 
L 140.341901 143.403629 
L 141.480606 143.412713 
L 142.623444 143.422403 
L 143.777047 143.414131 
L 144.946979 143.360263 
L 146.136959 143.25108 
L 147.350967 143.097112 
L 148.594578 142.923039 
L 149.872551 142.752881 
L 151.186059 142.596291 
L 152.535154 142.466182 
L 153.918168 142.37187 
L 155.33292 142.331411 
L 156.775609 142.356987 
L 158.24315 142.43086 
L 159.737594 142.46637 
L 161.253885 142.376786 
L 162.756011 142.032301 
L 164.191862 141.422337 
L 165.582484 140.685967 
L 166.90987 139.828834 
" clip-path="url(#p56fef9512c)" style="fill: none; stroke: #ff0000; stroke-width: 0.25; stroke-linecap: square"/>
   </g>
   <g id="line2d_39">
    <path d="M 167.021025 205.632867 
L 167.035244 204.082889 
L 167.050957 202.532796 
L 167.071753 200.982615 
L 167.098565 199.432359 
L 167.13234 197.882051 
L 167.174004 196.331722 
L 167.224413 194.781417 
L 167.28429 193.231188 
L 167.354132 191.681092 
L 167.434102 190.131181 
L 167.523888 188.581487 
L 167.622535 187.032004 
L 167.728244 185.482662 
L 167.804039 183.931264 
L 167.847873 182.378411 
L 167.839903 180.824784 
L 167.774626 179.272505 
L 167.690234 177.721234 
L 167.593858 176.170891 
L 167.503186 174.620463 
L 167.41988 173.069883 
L 167.344558 171.519147 
L 167.277247 169.968275 
L 167.217497 168.417299 
L 167.164493 166.866253 
L 167.117154 165.315169 
L 167.074216 163.764067 
L 167.034304 162.212965 
L 166.995988 160.661873 
L 166.957835 159.1108 
" clip-path="url(#p56fef9512c)" style="fill: none; stroke: #ff0000; stroke-width: 0.25; stroke-linecap: square"/>
   </g>
   <g id="line2d_40">
    <path d="M 212.762918 130.761175 
L 210.87564 130.688016 
L 209.010509 130.609014 
L 207.167884 130.517674 
L 205.347721 130.4146 
L 203.549702 130.301561 
L 201.773126 130.181779 
L 200.016811 130.060273 
L 198.277231 129.975373 
L 196.553212 129.935823 
L 194.843749 129.960805 
L 193.148748 130.059605 
L 191.466072 130.219095 
L 189.793464 130.443989 
L 188.127098 130.734056 
L 186.466025 131.1089 
L 184.804058 131.564803 
L 183.123987 132.066547 
L 181.394714 132.535237 
L 179.593281 132.890924 
L 177.713631 133.03409 
L 175.777331 132.994955 
L 173.79616 132.830133 
L 171.784685 132.511851 
L 169.764504 132.013889 
L 167.721324 131.451979 
L 165.624908 130.970819 
L 163.453639 130.826649 
L 161.296339 131.227938 
L 159.191501 131.886918 
L 157.177628 132.797729 
" clip-path="url(#p56fef9512c)" style="fill: none; stroke: #ff0000; stroke-width: 0.25; stroke-linecap: square"/>
   </g>
   <g id="line2d_41">
    <path d="M 155.23918 68.077023 
L 155.206837 69.627171 
L 155.172552 71.177274 
L 155.130109 72.7272 
L 155.078512 74.276904 
L 155.016929 75.826327 
L 154.944776 77.375405 
L 154.861833 78.924081 
L 154.768383 80.472317 
L 154.665386 82.020121 
L 154.568902 83.568522 
L 154.504088 85.118697 
L 154.469289 86.669895 
L 154.489547 88.221286 
L 154.553285 89.771271 
L 154.629477 91.32036 
L 154.706108 92.868995 
L 154.767447 94.417918 
L 154.810678 95.967121 
L 154.833549 97.516508 
L 154.834324 99.065907 
L 154.811741 100.615091 
L 154.765011 102.163798 
L 154.693858 103.711759 
L 154.598619 105.258732 
L 154.486607 106.80501 
L 154.400929 108.353478 
L 154.352063 109.903997 
L 154.338168 111.455623 
L 154.374839 113.007149 
L 154.448465 114.557463 
" clip-path="url(#p56fef9512c)" style="fill: none; stroke: #ff0000; stroke-width: 0.25; stroke-linecap: square"/>
   </g>
   <g id="line2d_42">
    <path d="M 92.385971 142.710945 
L 93.936568 142.722784 
L 95.487139 142.736169 
L 97.03768 142.754193 
L 98.588191 142.777745 
L 100.138665 142.807744 
L 101.689082 142.845109 
L 103.239407 142.890715 
L 104.789595 142.945343 
L 106.339592 143.009593 
L 107.889341 143.083797 
L 109.438794 143.167886 
L 110.98793 143.261242 
L 112.536775 143.362518 
L 114.087413 143.435119 
L 115.639194 143.480732 
L 117.191718 143.48211 
L 118.74371 143.443494 
L 120.295348 143.394978 
L 121.846864 143.346575 
L 123.398735 143.313863 
L 124.950903 143.299304 
L 126.50323 143.304618 
L 128.055519 143.330779 
L 129.607552 143.37799 
L 131.159127 143.445614 
L 132.710087 143.532296 
L 134.262794 143.588699 
L 135.816728 143.602366 
L 137.370832 143.584535 
L 138.924125 143.529068 
" clip-path="url(#p56fef9512c)" style="fill: none; stroke: #ff0000; stroke-width: 0.25; stroke-linecap: square"/>
   </g>
   <g id="patch_15">
    <path d="M 28.104688 269.911219 
L 28.104688 3.799219 
" style="fill: none; stroke: #000000; stroke-width: 0.8; stroke-linejoin: miter; stroke-linecap: square"/>
   </g>
   <g id="patch_16">
    <path d="M 294.216687 269.911219 
L 294.216687 3.799219 
" style="fill: none; stroke: #000000; stroke-width: 0.8; stroke-linejoin: miter; stroke-linecap: square"/>
   </g>
   <g id="patch_17">
    <path d="M 28.104688 269.911219 
L 294.216687 269.911219 
" style="fill: none; stroke: #000000; stroke-width: 0.8; stroke-linejoin: miter; stroke-linecap: square"/>
   </g>
   <g id="patch_18">
    <path d="M 28.104688 3.799219 
L 294.216687 3.799219 
" style="fill: none; stroke: #000000; stroke-width: 0.8; stroke-linejoin: miter; stroke-linecap: square"/>
   </g>
   <g id="text_19">
    <!-- Time: 4.2 s -->
    <g transform="translate(198.9952 17.104819) scale(0.1 -0.1)">
     <defs>
      <path id="DejaVuSans-54" d="M -19 4666 
L 3928 4666 
L 3928 4134 
L 2272 4134 
L 2272 0 
L 1638 0 
L 1638 4134 
L -19 4134 
L -19 4666 
z
" transform="scale(0.015625)"/>
      <path id="DejaVuSans-69" d="M 603 3500 
L 1178 3500 
L 1178 0 
L 603 0 
L 603 3500 
z
M 603 4863 
L 1178 4863 
L 1178 4134 
L 603 4134 
L 603 4863 
z
" transform="scale(0.015625)"/>
      <path id="DejaVuSans-6d" d="M 3328 2828 
Q 3544 3216 3844 3400 
Q 4144 3584 4550 3584 
Q 5097 3584 5394 3201 
Q 5691 2819 5691 2113 
L 5691 0 
L 5113 0 
L 5113 2094 
Q 5113 2597 4934 2840 
Q 4756 3084 4391 3084 
Q 3944 3084 3684 2787 
Q 3425 2491 3425 1978 
L 3425 0 
L 2847 0 
L 2847 2094 
Q 2847 2600 2669 2842 
Q 2491 3084 2119 3084 
Q 1678 3084 1418 2786 
Q 1159 2488 1159 1978 
L 1159 0 
L 581 0 
L 581 3500 
L 1159 3500 
L 1159 2956 
Q 1356 3278 1631 3431 
Q 1906 3584 2284 3584 
Q 2666 3584 2933 3390 
Q 3200 3197 3328 2828 
z
" transform="scale(0.015625)"/>
      <path id="DejaVuSans-65" d="M 3597 1894 
L 3597 1613 
L 953 1613 
Q 991 1019 1311 708 
Q 1631 397 2203 397 
Q 2534 397 2845 478 
Q 3156 559 3463 722 
L 3463 178 
Q 3153 47 2828 -22 
Q 2503 -91 2169 -91 
Q 1331 -91 842 396 
Q 353 884 353 1716 
Q 353 2575 817 3079 
Q 1281 3584 2069 3584 
Q 2775 3584 3186 3129 
Q 3597 2675 3597 1894 
z
M 3022 2063 
Q 3016 2534 2758 2815 
Q 2500 3097 2075 3097 
Q 1594 3097 1305 2825 
Q 1016 2553 972 2059 
L 3022 2063 
z
" transform="scale(0.015625)"/>
      <path id="DejaVuSans-3a" d="M 750 794 
L 1409 794 
L 1409 0 
L 750 0 
L 750 794 
z
M 750 3309 
L 1409 3309 
L 1409 2516 
L 750 2516 
L 750 3309 
z
" transform="scale(0.015625)"/>
      <path id="DejaVuSans-20" transform="scale(0.015625)"/>
      <path id="DejaVuSans-2e" d="M 684 794 
L 1344 794 
L 1344 0 
L 684 0 
L 684 794 
z
" transform="scale(0.015625)"/>
      <path id="DejaVuSans-73" d="M 2834 3397 
L 2834 2853 
Q 2591 2978 2328 3040 
Q 2066 3103 1784 3103 
Q 1356 3103 1142 2972 
Q 928 2841 928 2578 
Q 928 2378 1081 2264 
Q 1234 2150 1697 2047 
L 1894 2003 
Q 2506 1872 2764 1633 
Q 3022 1394 3022 966 
Q 3022 478 2636 193 
Q 2250 -91 1575 -91 
Q 1294 -91 989 -36 
Q 684 19 347 128 
L 347 722 
Q 666 556 975 473 
Q 1284 391 1588 391 
Q 1994 391 2212 530 
Q 2431 669 2431 922 
Q 2431 1156 2273 1281 
Q 2116 1406 1581 1522 
L 1381 1569 
Q 847 1681 609 1914 
Q 372 2147 372 2553 
Q 372 3047 722 3315 
Q 1072 3584 1716 3584 
Q 2034 3584 2315 3537 
Q 2597 3491 2834 3397 
z
" transform="scale(0.015625)"/>
     </defs>
     <use xlink:href="#DejaVuSans-54"/>
     <use xlink:href="#DejaVuSans-69" x="57.958984"/>
     <use xlink:href="#DejaVuSans-6d" x="85.742188"/>
     <use xlink:href="#DejaVuSans-65" x="183.154297"/>
     <use xlink:href="#DejaVuSans-3a" x="244.677734"/>
     <use xlink:href="#DejaVuSans-20" x="278.369141"/>
     <use xlink:href="#DejaVuSans-34" x="310.15625"/>
     <use xlink:href="#DejaVuSans-2e" x="373.779297"/>
     <use xlink:href="#DejaVuSans-32" x="405.566406"/>
     <use xlink:href="#DejaVuSans-20" x="469.189453"/>
     <use xlink:href="#DejaVuSans-73" x="500.976562"/>
    </g>
   </g>
  </g>
 </g>
 <defs>
  <clipPath id="p56fef9512c">
   <rect x="28.104688" y="3.799219" width="266.112" height="266.112"/>
  </clipPath>
 </defs>
</svg>
