<?xml version="1.0" encoding="utf-8" standalone="no"?>
<!DOCTYPE svg PUBLIC "-//W3C//DTD SVG 1.1//EN"
  "http://www.w3.org/Graphics/SVG/1.1/DTD/svg11.dtd">
<svg xmlns:xlink="http://www.w3.org/1999/xlink" width="300.579188pt" height="286.589344pt" viewBox="0 0 300.579188 286.589344" xmlns="http://www.w3.org/2000/svg" version="1.1">
 <metadata>
  <rdf:RDF xmlns:dc="http://purl.org/dc/elements/1.1/" xmlns:cc="http://creativecommons.org/ns#" xmlns:rdf="http://www.w3.org/1999/02/22-rdf-syntax-ns#">
   <cc:Work>
    <dc:type rdf:resource="http://purl.org/dc/dcmitype/StillImage"/>
    <dc:date>2024-02-26T10:14:03.115050</dc:date>
    <dc:format>image/svg+xml</dc:format>
    <dc:creator>
     <cc:Agent>
      <dc:title>Matplotlib v3.8.2, https://matplotlib.org/</dc:title>
     </cc:Agent>
    </dc:creator>
   </cc:Work>
  </rdf:RDF>
 </metadata>
 <defs>
  <style type="text/css">*{stroke-linejoin: round; stroke-linecap: butt}</style>
 </defs>
 <g id="figure_1">
  <g id="patch_1">
   <path d="M 0 286.589344 
L 300.579188 286.589344 
L 300.579188 0 
L 0 0 
z
" style="fill: #ffffff"/>
  </g>
  <g id="axes_1">
   <g id="patch_2">
    <path d="M 28.104688 269.911219 
L 294.216687 269.911219 
L 294.216687 3.799219 
L 28.104688 3.799219 
z
" style="fill: #ffffff"/>
   </g>
   <g id="patch_3">
    <path d="M 60.83315 128.172367 
L 49.19075 128.171837 
L 49.190492 133.826717 
L 60.832892 133.827247 
z
" clip-path="url(#p495297994c)" style="fill: #00008b"/>
   </g>
   <g id="patch_4">
    <path d="M 169.84362 30.865189 
L 169.84403 19.222789 
L 164.18915 19.22259 
L 164.18874 30.86499 
z
" clip-path="url(#p495297994c)" style="fill: #800000"/>
   </g>
   <g id="patch_5">
    <path d="M 152.477886 236.039384 
L 152.477344 247.681784 
L 158.132224 247.682047 
L 158.132766 236.039647 
z
" clip-path="url(#p495297994c)" style="fill: #006400"/>
   </g>
   <g id="patch_6">
    <path d="M 260.344424 145.538395 
L 271.986824 145.538535 
L 271.986892 139.883655 
L 260.344492 139.883515 
z
" clip-path="url(#p495297994c)" style="fill: #4b0082"/>
   </g>
   <g id="patch_7">
    <path d="M 169.853822 80.789499 
L 169.828667 69.147126 
L 164.1738 69.159344 
L 164.198955 80.801717 
z
" clip-path="url(#p495297994c)" style="fill: #0000ff"/>
   </g>
   <g id="patch_8">
    <path d="M 104.994256 128.156094 
L 93.351939 128.200049 
L 93.373289 133.854889 
L 105.015606 133.810934 
z
" clip-path="url(#p495297994c)" style="fill: #ff0000"/>
   </g>
   <g id="patch_9">
    <path d="M 217.937492 145.534897 
L 229.579892 145.538151 
L 229.581473 139.883271 
L 217.939073 139.880017 
z
" clip-path="url(#p495297994c)" style="fill: #dbdc56"/>
   </g>
   <g id="patch_10">
    <path d="M 170.172967 107.204201 
L 169.51654 95.580321 
L 163.870656 95.899157 
L 164.527083 107.523037 
z
" clip-path="url(#p495297994c)" style="fill: #9400d3"/>
   </g>
   <g id="patch_11">
    <path d="M 181.114056 145.239949 
L 192.636753 143.57474 
L 191.827937 137.978001 
L 180.30524 139.643211 
z
" clip-path="url(#p495297994c)" style="fill: #1e90ff"/>
   </g>
   <g id="patch_12">
    <path d="M 152.491067 175.409534 
L 152.492438 187.051934 
L 158.147318 187.051268 
L 158.145947 175.408868 
z
" clip-path="url(#p495297994c)" style="fill: #ff4500"/>
   </g>
   <g id="patch_13">
    <path d="M 141.08441 128.67153 
L 129.642239 130.821461 
L 130.686491 136.379087 
L 142.128662 134.229156 
z
" clip-path="url(#p495297994c)" style="fill: #7cfc00"/>
   </g>
   <g id="patch_14">
    <path d="M 153.565725 155.916267 
L 155.533312 167.3912 
L 161.106851 166.435515 
L 159.139264 154.960582 
z
" clip-path="url(#p495297994c)" style="fill: #ff00ff"/>
   </g>
   <g id="matplotlib.axis_1">
    <g id="xtick_1">
     <g id="line2d_1">
      <defs>
       <path id="m4f80077fee" d="M 0 0 
L 0 3.5 
" style="stroke: #000000; stroke-width: 0.8"/>
      </defs>
      <g>
       <use xlink:href="#m4f80077fee" x="28.104688" y="269.911219" style="stroke: #000000; stroke-width: 0.8"/>
      </g>
     </g>
     <g id="text_1">
      <!-- −40 -->
      <g transform="translate(17.552344 284.509656) scale(0.1 -0.1)">
       <defs>
        <path id="DejaVuSans-2212" d="M 678 2272 
L 4684 2272 
L 4684 1741 
L 678 1741 
L 678 2272 
z
" transform="scale(0.015625)"/>
        <path id="DejaVuSans-34" d="M 2419 4116 
L 825 1625 
L 2419 1625 
L 2419 4116 
z
M 2253 4666 
L 3047 4666 
L 3047 1625 
L 3713 1625 
L 3713 1100 
L 3047 1100 
L 3047 0 
L 2419 0 
L 2419 1100 
L 313 1100 
L 313 1709 
L 2253 4666 
z
" transform="scale(0.015625)"/>
        <path id="DejaVuSans-30" d="M 2034 4250 
Q 1547 4250 1301 3770 
Q 1056 3291 1056 2328 
Q 1056 1369 1301 889 
Q 1547 409 2034 409 
Q 2525 409 2770 889 
Q 3016 1369 3016 2328 
Q 3016 3291 2770 3770 
Q 2525 4250 2034 4250 
z
M 2034 4750 
Q 2819 4750 3233 4129 
Q 3647 3509 3647 2328 
Q 3647 1150 3233 529 
Q 2819 -91 2034 -91 
Q 1250 -91 836 529 
Q 422 1150 422 2328 
Q 422 3509 836 4129 
Q 1250 4750 2034 4750 
z
" transform="scale(0.015625)"/>
       </defs>
       <use xlink:href="#DejaVuSans-2212"/>
       <use xlink:href="#DejaVuSans-34" x="83.789062"/>
       <use xlink:href="#DejaVuSans-30" x="147.412109"/>
      </g>
     </g>
    </g>
    <g id="xtick_2">
     <g id="line2d_2">
      <g>
       <use xlink:href="#m4f80077fee" x="61.368688" y="269.911219" style="stroke: #000000; stroke-width: 0.8"/>
      </g>
     </g>
     <g id="text_2">
      <!-- −30 -->
      <g transform="translate(50.816344 284.509656) scale(0.1 -0.1)">
       <defs>
        <path id="DejaVuSans-33" d="M 2597 2516 
Q 3050 2419 3304 2112 
Q 3559 1806 3559 1356 
Q 3559 666 3084 287 
Q 2609 -91 1734 -91 
Q 1441 -91 1130 -33 
Q 819 25 488 141 
L 488 750 
Q 750 597 1062 519 
Q 1375 441 1716 441 
Q 2309 441 2620 675 
Q 2931 909 2931 1356 
Q 2931 1769 2642 2001 
Q 2353 2234 1838 2234 
L 1294 2234 
L 1294 2753 
L 1863 2753 
Q 2328 2753 2575 2939 
Q 2822 3125 2822 3475 
Q 2822 3834 2567 4026 
Q 2313 4219 1838 4219 
Q 1578 4219 1281 4162 
Q 984 4106 628 3988 
L 628 4550 
Q 988 4650 1302 4700 
Q 1616 4750 1894 4750 
Q 2613 4750 3031 4423 
Q 3450 4097 3450 3541 
Q 3450 3153 3228 2886 
Q 3006 2619 2597 2516 
z
" transform="scale(0.015625)"/>
       </defs>
       <use xlink:href="#DejaVuSans-2212"/>
       <use xlink:href="#DejaVuSans-33" x="83.789062"/>
       <use xlink:href="#DejaVuSans-30" x="147.412109"/>
      </g>
     </g>
    </g>
    <g id="xtick_3">
     <g id="line2d_3">
      <g>
       <use xlink:href="#m4f80077fee" x="94.632688" y="269.911219" style="stroke: #000000; stroke-width: 0.8"/>
      </g>
     </g>
     <g id="text_3">
      <!-- −20 -->
      <g transform="translate(84.080344 284.509656) scale(0.1 -0.1)">
       <defs>
        <path id="DejaVuSans-32" d="M 1228 531 
L 3431 531 
L 3431 0 
L 469 0 
L 469 531 
Q 828 903 1448 1529 
Q 2069 2156 2228 2338 
Q 2531 2678 2651 2914 
Q 2772 3150 2772 3378 
Q 2772 3750 2511 3984 
Q 2250 4219 1831 4219 
Q 1534 4219 1204 4116 
Q 875 4013 500 3803 
L 500 4441 
Q 881 4594 1212 4672 
Q 1544 4750 1819 4750 
Q 2544 4750 2975 4387 
Q 3406 4025 3406 3419 
Q 3406 3131 3298 2873 
Q 3191 2616 2906 2266 
Q 2828 2175 2409 1742 
Q 1991 1309 1228 531 
z
" transform="scale(0.015625)"/>
       </defs>
       <use xlink:href="#DejaVuSans-2212"/>
       <use xlink:href="#DejaVuSans-32" x="83.789062"/>
       <use xlink:href="#DejaVuSans-30" x="147.412109"/>
      </g>
     </g>
    </g>
    <g id="xtick_4">
     <g id="line2d_4">
      <g>
       <use xlink:href="#m4f80077fee" x="127.896687" y="269.911219" style="stroke: #000000; stroke-width: 0.8"/>
      </g>
     </g>
     <g id="text_4">
      <!-- −10 -->
      <g transform="translate(117.344344 284.509656) scale(0.1 -0.1)">
       <defs>
        <path id="DejaVuSans-31" d="M 794 531 
L 1825 531 
L 1825 4091 
L 703 3866 
L 703 4441 
L 1819 4666 
L 2450 4666 
L 2450 531 
L 3481 531 
L 3481 0 
L 794 0 
L 794 531 
z
" transform="scale(0.015625)"/>
       </defs>
       <use xlink:href="#DejaVuSans-2212"/>
       <use xlink:href="#DejaVuSans-31" x="83.789062"/>
       <use xlink:href="#DejaVuSans-30" x="147.412109"/>
      </g>
     </g>
    </g>
    <g id="xtick_5">
     <g id="line2d_5">
      <g>
       <use xlink:href="#m4f80077fee" x="161.160687" y="269.911219" style="stroke: #000000; stroke-width: 0.8"/>
      </g>
     </g>
     <g id="text_5">
      <!-- 0 -->
      <g transform="translate(157.979437 284.509656) scale(0.1 -0.1)">
       <use xlink:href="#DejaVuSans-30"/>
      </g>
     </g>
    </g>
    <g id="xtick_6">
     <g id="line2d_6">
      <g>
       <use xlink:href="#m4f80077fee" x="194.424688" y="269.911219" style="stroke: #000000; stroke-width: 0.8"/>
      </g>
     </g>
     <g id="text_6">
      <!-- 10 -->
      <g transform="translate(188.062187 284.509656) scale(0.1 -0.1)">
       <use xlink:href="#DejaVuSans-31"/>
       <use xlink:href="#DejaVuSans-30" x="63.623047"/>
      </g>
     </g>
    </g>
    <g id="xtick_7">
     <g id="line2d_7">
      <g>
       <use xlink:href="#m4f80077fee" x="227.688687" y="269.911219" style="stroke: #000000; stroke-width: 0.8"/>
      </g>
     </g>
     <g id="text_7">
      <!-- 20 -->
      <g transform="translate(221.326187 284.509656) scale(0.1 -0.1)">
       <use xlink:href="#DejaVuSans-32"/>
       <use xlink:href="#DejaVuSans-30" x="63.623047"/>
      </g>
     </g>
    </g>
    <g id="xtick_8">
     <g id="line2d_8">
      <g>
       <use xlink:href="#m4f80077fee" x="260.952687" y="269.911219" style="stroke: #000000; stroke-width: 0.8"/>
      </g>
     </g>
     <g id="text_8">
      <!-- 30 -->
      <g transform="translate(254.590187 284.509656) scale(0.1 -0.1)">
       <use xlink:href="#DejaVuSans-33"/>
       <use xlink:href="#DejaVuSans-30" x="63.623047"/>
      </g>
     </g>
    </g>
    <g id="xtick_9">
     <g id="line2d_9">
      <g>
       <use xlink:href="#m4f80077fee" x="294.216687" y="269.911219" style="stroke: #000000; stroke-width: 0.8"/>
      </g>
     </g>
     <g id="text_9">
      <!-- 40 -->
      <g transform="translate(287.854187 284.509656) scale(0.1 -0.1)">
       <use xlink:href="#DejaVuSans-34"/>
       <use xlink:href="#DejaVuSans-30" x="63.623047"/>
      </g>
     </g>
    </g>
   </g>
   <g id="matplotlib.axis_2">
    <g id="ytick_1">
     <g id="line2d_10">
      <defs>
       <path id="mcffdaf02b9" d="M 0 0 
L -3.5 0 
" style="stroke: #000000; stroke-width: 0.8"/>
      </defs>
      <g>
       <use xlink:href="#mcffdaf02b9" x="28.104688" y="269.911219" style="stroke: #000000; stroke-width: 0.8"/>
      </g>
     </g>
     <g id="text_10">
      <!-- −40 -->
      <g transform="translate(0 273.710437) scale(0.1 -0.1)">
       <use xlink:href="#DejaVuSans-2212"/>
       <use xlink:href="#DejaVuSans-34" x="83.789062"/>
       <use xlink:href="#DejaVuSans-30" x="147.412109"/>
      </g>
     </g>
    </g>
    <g id="ytick_2">
     <g id="line2d_11">
      <g>
       <use xlink:href="#mcffdaf02b9" x="28.104688" y="236.647219" style="stroke: #000000; stroke-width: 0.8"/>
      </g>
     </g>
     <g id="text_11">
      <!-- −30 -->
      <g transform="translate(0 240.446437) scale(0.1 -0.1)">
       <use xlink:href="#DejaVuSans-2212"/>
       <use xlink:href="#DejaVuSans-33" x="83.789062"/>
       <use xlink:href="#DejaVuSans-30" x="147.412109"/>
      </g>
     </g>
    </g>
    <g id="ytick_3">
     <g id="line2d_12">
      <g>
       <use xlink:href="#mcffdaf02b9" x="28.104688" y="203.383219" style="stroke: #000000; stroke-width: 0.8"/>
      </g>
     </g>
     <g id="text_12">
      <!-- −20 -->
      <g transform="translate(0 207.182437) scale(0.1 -0.1)">
       <use xlink:href="#DejaVuSans-2212"/>
       <use xlink:href="#DejaVuSans-32" x="83.789062"/>
       <use xlink:href="#DejaVuSans-30" x="147.412109"/>
      </g>
     </g>
    </g>
    <g id="ytick_4">
     <g id="line2d_13">
      <g>
       <use xlink:href="#mcffdaf02b9" x="28.104688" y="170.119219" style="stroke: #000000; stroke-width: 0.8"/>
      </g>
     </g>
     <g id="text_13">
      <!-- −10 -->
      <g transform="translate(0 173.918437) scale(0.1 -0.1)">
       <use xlink:href="#DejaVuSans-2212"/>
       <use xlink:href="#DejaVuSans-31" x="83.789062"/>
       <use xlink:href="#DejaVuSans-30" x="147.412109"/>
      </g>
     </g>
    </g>
    <g id="ytick_5">
     <g id="line2d_14">
      <g>
       <use xlink:href="#mcffdaf02b9" x="28.104688" y="136.855219" style="stroke: #000000; stroke-width: 0.8"/>
      </g>
     </g>
     <g id="text_14">
      <!-- 0 -->
      <g transform="translate(14.742188 140.654437) scale(0.1 -0.1)">
       <use xlink:href="#DejaVuSans-30"/>
      </g>
     </g>
    </g>
    <g id="ytick_6">
     <g id="line2d_15">
      <g>
       <use xlink:href="#mcffdaf02b9" x="28.104688" y="103.591219" style="stroke: #000000; stroke-width: 0.8"/>
      </g>
     </g>
     <g id="text_15">
      <!-- 10 -->
      <g transform="translate(8.379688 107.390437) scale(0.1 -0.1)">
       <use xlink:href="#DejaVuSans-31"/>
       <use xlink:href="#DejaVuSans-30" x="63.623047"/>
      </g>
     </g>
    </g>
    <g id="ytick_7">
     <g id="line2d_16">
      <g>
       <use xlink:href="#mcffdaf02b9" x="28.104688" y="70.327219" style="stroke: #000000; stroke-width: 0.8"/>
      </g>
     </g>
     <g id="text_16">
      <!-- 20 -->
      <g transform="translate(8.379688 74.126437) scale(0.1 -0.1)">
       <use xlink:href="#DejaVuSans-32"/>
       <use xlink:href="#DejaVuSans-30" x="63.623047"/>
      </g>
     </g>
    </g>
    <g id="ytick_8">
     <g id="line2d_17">
      <g>
       <use xlink:href="#mcffdaf02b9" x="28.104688" y="37.063219" style="stroke: #000000; stroke-width: 0.8"/>
      </g>
     </g>
     <g id="text_17">
      <!-- 30 -->
      <g transform="translate(8.379688 40.862437) scale(0.1 -0.1)">
       <use xlink:href="#DejaVuSans-33"/>
       <use xlink:href="#DejaVuSans-30" x="63.623047"/>
      </g>
     </g>
    </g>
    <g id="ytick_9">
     <g id="line2d_18">
      <g>
       <use xlink:href="#mcffdaf02b9" x="28.104688" y="3.799219" style="stroke: #000000; stroke-width: 0.8"/>
      </g>
     </g>
     <g id="text_18">
      <!-- 40 -->
      <g transform="translate(8.379688 7.598437) scale(0.1 -0.1)">
       <use xlink:href="#DejaVuSans-34"/>
       <use xlink:href="#DejaVuSans-30" x="63.623047"/>
      </g>
     </g>
    </g>
   </g>
   <g id="line2d_19">
    <path d="M 175.297888 250.784419 
L 175.297888 150.992419 
" clip-path="url(#p495297994c)" style="fill: none; stroke: #000000; stroke-width: 0.25; stroke-linecap: square"/>
   </g>
   <g id="line2d_20">
    <path d="M 175.297888 150.992419 
L 275.089887 150.992419 
" clip-path="url(#p495297994c)" style="fill: none; stroke: #000000; stroke-width: 0.25; stroke-linecap: square"/>
   </g>
   <g id="line2d_21">
    <path d="M 275.089887 122.718019 
L 175.297888 122.718019 
" clip-path="url(#p495297994c)" style="fill: none; stroke: #000000; stroke-width: 0.25; stroke-linecap: square"/>
   </g>
   <g id="line2d_22">
    <path d="M 175.297888 122.718019 
L 175.297888 22.926019 
" clip-path="url(#p495297994c)" style="fill: none; stroke: #000000; stroke-width: 0.25; stroke-linecap: square"/>
   </g>
   <g id="line2d_23">
    <path d="M 147.023487 22.926019 
L 147.023487 122.718019 
" clip-path="url(#p495297994c)" style="fill: none; stroke: #000000; stroke-width: 0.25; stroke-linecap: square"/>
   </g>
   <g id="line2d_24">
    <path d="M 147.023487 122.718019 
L 47.231488 122.718019 
" clip-path="url(#p495297994c)" style="fill: none; stroke: #000000; stroke-width: 0.25; stroke-linecap: square"/>
   </g>
   <g id="line2d_25">
    <path d="M 47.231488 150.992419 
L 147.023487 150.992419 
" clip-path="url(#p495297994c)" style="fill: none; stroke: #000000; stroke-width: 0.25; stroke-linecap: square"/>
   </g>
   <g id="line2d_26">
    <path d="M 147.023487 150.992419 
L 147.023487 250.784419 
" clip-path="url(#p495297994c)" style="fill: none; stroke: #000000; stroke-width: 0.25; stroke-linecap: square"/>
   </g>
   <g id="line2d_27">
    <path d="M 175.297888 136.855219 
L 275.089887 136.855219 
" clip-path="url(#p495297994c)" style="fill: none; stroke-dasharray: 0.925,0.4; stroke-dashoffset: 0; stroke: #000000; stroke-width: 0.25"/>
   </g>
   <g id="line2d_28">
    <path d="M 161.160687 122.718019 
L 161.160687 22.926019 
" clip-path="url(#p495297994c)" style="fill: none; stroke-dasharray: 0.925,0.4; stroke-dashoffset: 0; stroke: #000000; stroke-width: 0.25"/>
   </g>
   <g id="line2d_29">
    <path d="M 147.023487 136.855219 
L 47.231488 136.855219 
" clip-path="url(#p495297994c)" style="fill: none; stroke-dasharray: 0.925,0.4; stroke-dashoffset: 0; stroke: #000000; stroke-width: 0.25"/>
   </g>
   <g id="line2d_30">
    <path d="M 161.160687 150.992419 
L 161.160687 250.784419 
" clip-path="url(#p495297994c)" style="fill: none; stroke-dasharray: 0.925,0.4; stroke-dashoffset: 0; stroke: #000000; stroke-width: 0.25"/>
   </g>
   <g id="line2d_31">
    <path d="M 56.685007 130.999592 
L 55.011821 130.999542 
L 53.338626 130.999496 
L 51.665429 130.999459 
L 49.992233 130.999431 
L 48.319044 130.99941 
L 46.645864 130.999394 
L 44.972695 130.999383 
L 43.299539 130.999377 
L 41.626397 130.999373 
L 39.953269 130.999371 
L 38.280156 130.999371 
L 36.607058 130.999372 
L 34.933973 130.999374 
L 33.260902 130.999377 
L 31.587843 130.999379 
L 29.914796 130.999382 
L 28.24176 130.999384 
L 26.568734 130.999387 
L 24.895716 130.999389 
L 23.222705 130.999391 
L 21.549702 130.999393 
L 19.876704 130.999394 
L 18.203711 130.999395 
L 16.530721 130.999396 
L 14.857735 130.999397 
L 13.184752 130.999398 
L 11.51177 130.999398 
L 9.838789 130.999399 
L 8.16581 130.9994 
L 6.49283 130.9994 
" clip-path="url(#p495297994c)" style="fill: none; stroke: #ff0000; stroke-width: 0.25; stroke-linecap: square"/>
   </g>
   <g id="line2d_32">
    <path d="M 167.016347 26.593804 
L 167.016385 25.043889 
L 167.01642 23.49395 
L 167.016449 21.943984 
L 167.016471 20.393988 
L 167.016489 18.84396 
L 167.016503 17.293902 
L 167.016512 15.743812 
L 167.016519 14.193693 
L 167.016524 12.643544 
L 167.016526 11.093369 
L 167.016527 9.543169 
L 167.016528 7.992945 
L 167.016527 6.4427 
L 167.016526 4.892436 
L 167.016524 3.342156 
L 167.016522 1.79186 
L 167.016521 0.241552 
L 167.016519 -1 
" clip-path="url(#p495297994c)" style="fill: none; stroke: #ff0000; stroke-width: 0.25; stroke-linecap: square"/>
   </g>
   <g id="line2d_33">
    <path d="M 155.305114 240.208587 
L 155.305055 241.860716 
L 155.305002 243.512798 
L 155.304959 245.164845 
L 155.304925 246.816863 
L 155.304898 248.46886 
L 155.304878 250.120843 
L 155.304864 251.772817 
L 155.304854 253.424786 
L 155.304847 255.076755 
L 155.304843 256.728725 
L 155.304842 258.3807 
L 155.304842 260.032682 
L 155.304842 261.684671 
L 155.304844 263.336669 
L 155.304846 264.988677 
L 155.304849 266.640693 
L 155.304851 268.292719 
L 155.304854 269.944754 
L 155.304856 271.596798 
L 155.304858 273.248849 
L 155.30486 274.900908 
L 155.304861 276.552973 
L 155.304863 278.205044 
L 155.304864 279.85712 
L 155.304865 281.5092 
L 155.304866 283.161284 
L 155.304867 284.81337 
L 155.304867 286.465457 
L 155.304868 287.589344 
" clip-path="url(#p495297994c)" style="fill: none; stroke: #ff0000; stroke-width: 0.25; stroke-linecap: square"/>
   </g>
   <g id="line2d_34">
    <path d="M 264.513491 142.711017 
L 266.165658 142.711025 
L 267.817782 142.711033 
L 269.469871 142.71104 
L 271.121933 142.711044 
L 272.773974 142.711047 
L 274.425999 142.711048 
L 276.078013 142.711049 
L 277.730021 142.711049 
L 279.382025 142.711049 
L 281.034028 142.711048 
L 282.686033 142.711047 
L 284.338041 142.711046 
L 285.990054 142.711045 
L 287.642074 142.711044 
L 289.294099 142.711044 
L 290.946131 142.711043 
L 292.598171 142.711042 
L 294.250217 142.711041 
L 295.902269 142.711041 
L 297.554328 142.71104 
L 299.206393 142.71104 
L 300.858463 142.711039 
L 301.579188 142.711039 
" clip-path="url(#p495297994c)" style="fill: none; stroke: #ff0000; stroke-width: 0.25; stroke-linecap: square"/>
   </g>
   <g id="line2d_35">
    <path d="M 167.014053 76.623912 
L 167.013811 74.974422 
L 167.013083 73.321092 
L 167.012708 71.664682 
L 167.012599 70.00587 
L 167.012683 68.34525 
L 167.0129 66.683342 
L 167.013202 65.020589 
L 167.013553 63.357369 
L 167.013922 61.693993 
L 167.014291 60.030718 
L 167.014643 58.367746 
L 167.014969 56.705235 
L 167.015264 55.043299 
L 167.015524 53.38202 
L 167.015748 51.721446 
L 167.015938 50.0616 
L 167.016095 48.402483 
L 167.016223 46.744077 
L 167.016325 45.08635 
L 167.016404 43.429257 
L 167.016464 41.772747 
L 167.016507 40.116759 
L 167.016538 38.461231 
L 167.016558 36.806097 
L 167.01657 35.151292 
L 167.016577 33.496751 
L 167.01658 31.842413 
L 167.016582 30.188217 
L 167.016582 28.534113 
L 167.016584 26.880051 
" clip-path="url(#p495297994c)" style="fill: none; stroke: #ff0000; stroke-width: 0.25; stroke-linecap: square"/>
   </g>
   <g id="line2d_36">
    <path d="M 100.838597 131.005342 
L 99.183772 131.005491 
L 97.528035 131.006573 
L 95.871631 131.007037 
L 94.214777 131.007047 
L 92.557653 131.006736 
L 90.900413 131.006213 
L 89.243182 131.005562 
L 87.586062 131.004848 
L 85.929133 131.004117 
L 84.272455 131.003406 
L 82.61607 131.002738 
L 80.960009 131.002127 
L 79.304288 131.001583 
L 77.648911 131.001107 
L 75.993878 131.000701 
L 74.339177 131.00036 
L 72.684793 131.000079 
L 71.030707 130.999854 
L 69.376896 130.999676 
L 67.723334 130.99954 
L 66.069995 130.999439 
L 64.416853 130.999366 
L 62.763879 130.999317 
L 61.111047 130.999286 
L 59.458332 130.999268 
L 57.80571 130.99926 
L 56.153158 130.999258 
L 54.500655 130.99926 
L 52.848183 130.999262 
L 51.195726 130.999262 
" clip-path="url(#p495297994c)" style="fill: none; stroke: #ff0000; stroke-width: 0.25; stroke-linecap: square"/>
   </g>
   <g id="line2d_37">
    <path d="M 222.093761 142.708555 
L 223.759482 142.709084 
L 225.427673 142.709526 
L 227.097957 142.709901 
L 228.769986 142.710214 
L 230.443446 142.710469 
L 232.118052 142.710672 
L 233.793552 142.710831 
L 235.469724 142.710952 
L 237.146375 142.71104 
L 238.823341 142.711103 
L 240.500484 142.711144 
L 242.177687 142.711169 
L 243.854858 142.71118 
L 245.531923 142.711183 
L 247.208827 142.711178 
L 248.88553 142.71117 
L 250.562004 142.711158 
L 252.238237 142.711145 
L 253.914221 142.711131 
L 255.589963 142.711118 
L 257.265472 142.711105 
L 258.940764 142.711093 
L 260.61586 142.711083 
L 262.290784 142.711073 
L 263.965561 142.711065 
L 265.640218 142.711057 
L 267.314781 142.71105 
L 268.989278 142.711044 
L 270.663731 142.711038 
L 272.338165 142.711032 
" clip-path="url(#p495297994c)" style="fill: none; stroke: #ff0000; stroke-width: 0.25; stroke-linecap: square"/>
   </g>
   <g id="line2d_38">
    <path d="M 167.041302 102.93948 
L 167.021812 101.551679 
L 166.995483 100.172485 
L 166.976956 98.799928 
L 166.964666 97.432527 
L 166.957295 96.068968 
L 166.953738 94.708103 
L 166.953075 93.348943 
L 166.954553 91.990651 
L 166.957556 90.632534 
L 166.961587 89.274025 
L 166.966252 87.914677 
L 166.97124 86.55415 
L 166.976314 85.192194 
L 166.981295 83.828642 
L 166.986052 82.463397 
L 166.990498 81.096421 
L 166.994579 79.727727 
L 166.998267 78.357366 
L 167.001554 76.985425 
L 167.004452 75.612015 
L 167.006982 74.237266 
L 167.009176 72.861323 
L 167.011071 71.484338 
L 167.012711 70.106467 
L 167.01414 68.727866 
L 167.015405 67.348688 
L 167.016552 65.969077 
L 167.017629 64.589167 
L 167.018681 63.209082 
L 167.019749 61.828922 
" clip-path="url(#p495297994c)" style="fill: none; stroke: #ff0000; stroke-width: 0.25; stroke-linecap: square"/>
   </g>
   <g id="line2d_39">
    <path d="M 185.012179 141.461208 
L 186.470996 141.608975 
L 187.944079 141.713012 
L 189.426983 141.817768 
L 190.91908 141.922565 
L 192.419802 142.02526 
L 193.928561 142.123572 
L 195.444719 142.215577 
L 196.967596 142.299875 
L 198.496485 142.375609 
L 200.030673 142.442408 
L 201.569463 142.500305 
L 203.112196 142.54964 
L 204.658257 142.590976 
L 206.207087 142.625016 
L 207.758188 142.652545 
L 209.311121 142.674373 
L 210.865506 142.691302 
L 212.421018 142.704091 
L 213.977387 142.713446 
L 215.534389 142.720003 
L 217.091843 142.724325 
L 218.649606 142.726898 
L 220.20757 142.72814 
L 221.765653 142.7284 
L 223.323799 142.727968 
L 224.881971 142.727078 
L 226.440148 142.725921 
L 227.998321 142.724649 
L 229.556487 142.723385 
L 231.11465 142.722204 
" clip-path="url(#p495297994c)" style="fill: none; stroke: #ff0000; stroke-width: 0.25; stroke-linecap: square"/>
   </g>
   <g id="line2d_40">
    <path d="M 155.322243 179.407233 
L 155.319192 181.230401 
L 155.316923 183.063378 
L 155.314774 184.906866 
L 155.312815 186.761224 
L 155.311084 188.626522 
L 155.309593 190.502599 
L 155.30834 192.389109 
L 155.307313 194.285563 
L 155.306491 196.191367 
L 155.305849 198.105854 
L 155.305364 200.028312 
L 155.305008 201.95801 
L 155.304759 203.894212 
L 155.304596 205.836196 
L 155.304498 207.783269 
L 155.304451 209.734769 
L 155.30444 211.690082 
L 155.304454 213.648639 
L 155.304484 215.609922 
L 155.304524 217.573466 
L 155.304569 219.538857 
L 155.304614 221.505733 
L 155.304659 223.473781 
L 155.3047 225.442732 
L 155.304737 227.412363 
L 155.304771 229.382487 
L 155.304802 231.352953 
L 155.30483 233.323641 
L 155.304857 235.294456 
L 155.304883 237.265323 
" clip-path="url(#p495297994c)" style="fill: none; stroke: #ff0000; stroke-width: 0.25; stroke-linecap: square"/>
   </g>
   <g id="line2d_41">
    <path d="M 137.354773 132.61177 
L 135.88545 132.525308 
L 134.411541 132.363148 
L 132.926607 132.209782 
L 131.431899 132.06225 
L 129.928356 131.920238 
L 128.416699 131.785468 
L 126.897622 131.659919 
L 125.371847 131.54519 
L 123.840121 131.442299 
L 122.303202 131.351681 
L 120.761831 131.273258 
L 119.216707 131.206549 
L 117.668476 131.150784 
L 116.117716 131.105 
L 114.564938 131.06813 
L 113.010579 131.039072 
L 111.455009 131.016734 
L 109.898537 131.000077 
L 108.341414 130.988139 
L 106.783839 130.980044 
L 105.225969 130.975016 
L 103.667919 130.972379 
L 102.109777 130.971551 
L 100.5516 130.972041 
L 98.993425 130.973443 
L 97.435271 130.975423 
L 95.877145 130.977716 
L 94.319042 130.980111 
L 92.760955 130.982447 
L 91.202875 130.984634 
" clip-path="url(#p495297994c)" style="fill: none; stroke: #ff0000; stroke-width: 0.25; stroke-linecap: square"/>
   </g>
   <g id="line2d_42">
    <path d="M 157.442917 159.516806 
L 157.336288 161.175891 
L 157.081133 162.81315 
L 156.843859 164.446324 
L 156.621008 166.073914 
L 156.412403 167.695281 
L 156.22043 169.310382 
L 156.047343 170.919325 
L 155.894475 172.522231 
L 155.762137 174.119219 
L 155.649756 175.710434 
L 155.556103 177.296062 
L 155.479525 178.876354 
L 155.418133 180.451628 
L 155.369966 182.022256 
L 155.333096 183.588653 
L 155.305703 185.151262 
L 155.286121 186.710537 
L 155.272865 188.266927 
L 155.264635 189.820862 
L 155.260315 191.372745 
L 155.258963 192.922943 
L 155.259799 194.471789 
L 155.262192 196.019571 
L 155.265628 197.566537 
L 155.269704 199.112901 
L 155.274117 200.658842 
L 155.278643 202.204505 
L 155.283124 203.750003 
L 155.287469 205.295419 
L 155.29167 206.840808 
" clip-path="url(#p495297994c)" style="fill: none; stroke: #ff0000; stroke-width: 0.25; stroke-linecap: square"/>
   </g>
   <g id="patch_15">
    <path d="M 28.104688 269.911219 
L 28.104688 3.799219 
" style="fill: none; stroke: #000000; stroke-width: 0.8; stroke-linejoin: miter; stroke-linecap: square"/>
   </g>
   <g id="patch_16">
    <path d="M 294.216687 269.911219 
L 294.216687 3.799219 
" style="fill: none; stroke: #000000; stroke-width: 0.8; stroke-linejoin: miter; stroke-linecap: square"/>
   </g>
   <g id="patch_17">
    <path d="M 28.104688 269.911219 
L 294.216687 269.911219 
" style="fill: none; stroke: #000000; stroke-width: 0.8; stroke-linejoin: miter; stroke-linecap: square"/>
   </g>
   <g id="patch_18">
    <path d="M 28.104688 3.799219 
L 294.216687 3.799219 
" style="fill: none; stroke: #000000; stroke-width: 0.8; stroke-linejoin: miter; stroke-linecap: square"/>
   </g>
   <g id="text_19">
    <!-- Time: 9.3 s -->
    <g transform="translate(198.9952 17.104819) scale(0.1 -0.1)">
     <defs>
      <path id="DejaVuSans-54" d="M -19 4666 
L 3928 4666 
L 3928 4134 
L 2272 4134 
L 2272 0 
L 1638 0 
L 1638 4134 
L -19 4134 
L -19 4666 
z
" transform="scale(0.015625)"/>
      <path id="DejaVuSans-69" d="M 603 3500 
L 1178 3500 
L 1178 0 
L 603 0 
L 603 3500 
z
M 603 4863 
L 1178 4863 
L 1178 4134 
L 603 4134 
L 603 4863 
z
" transform="scale(0.015625)"/>
      <path id="DejaVuSans-6d" d="M 3328 2828 
Q 3544 3216 3844 3400 
Q 4144 3584 4550 3584 
Q 5097 3584 5394 3201 
Q 5691 2819 5691 2113 
L 5691 0 
L 5113 0 
L 5113 2094 
Q 5113 2597 4934 2840 
Q 4756 3084 4391 3084 
Q 3944 3084 3684 2787 
Q 3425 2491 3425 1978 
L 3425 0 
L 2847 0 
L 2847 2094 
Q 2847 2600 2669 2842 
Q 2491 3084 2119 3084 
Q 1678 3084 1418 2786 
Q 1159 2488 1159 1978 
L 1159 0 
L 581 0 
L 581 3500 
L 1159 3500 
L 1159 2956 
Q 1356 3278 1631 3431 
Q 1906 3584 2284 3584 
Q 2666 3584 2933 3390 
Q 3200 3197 3328 2828 
z
" transform="scale(0.015625)"/>
      <path id="DejaVuSans-65" d="M 3597 1894 
L 3597 1613 
L 953 1613 
Q 991 1019 1311 708 
Q 1631 397 2203 397 
Q 2534 397 2845 478 
Q 3156 559 3463 722 
L 3463 178 
Q 3153 47 2828 -22 
Q 2503 -91 2169 -91 
Q 1331 -91 842 396 
Q 353 884 353 1716 
Q 353 2575 817 3079 
Q 1281 3584 2069 3584 
Q 2775 3584 3186 3129 
Q 3597 2675 3597 1894 
z
M 3022 2063 
Q 3016 2534 2758 2815 
Q 2500 3097 2075 3097 
Q 1594 3097 1305 2825 
Q 1016 2553 972 2059 
L 3022 2063 
z
" transform="scale(0.015625)"/>
      <path id="DejaVuSans-3a" d="M 750 794 
L 1409 794 
L 1409 0 
L 750 0 
L 750 794 
z
M 750 3309 
L 1409 3309 
L 1409 2516 
L 750 2516 
L 750 3309 
z
" transform="scale(0.015625)"/>
      <path id="DejaVuSans-20" transform="scale(0.015625)"/>
      <path id="DejaVuSans-39" d="M 703 97 
L 703 672 
Q 941 559 1184 500 
Q 1428 441 1663 441 
Q 2288 441 2617 861 
Q 2947 1281 2994 2138 
Q 2813 1869 2534 1725 
Q 2256 1581 1919 1581 
Q 1219 1581 811 2004 
Q 403 2428 403 3163 
Q 403 3881 828 4315 
Q 1253 4750 1959 4750 
Q 2769 4750 3195 4129 
Q 3622 3509 3622 2328 
Q 3622 1225 3098 567 
Q 2575 -91 1691 -91 
Q 1453 -91 1209 -44 
Q 966 3 703 97 
z
M 1959 2075 
Q 2384 2075 2632 2365 
Q 2881 2656 2881 3163 
Q 2881 3666 2632 3958 
Q 2384 4250 1959 4250 
Q 1534 4250 1286 3958 
Q 1038 3666 1038 3163 
Q 1038 2656 1286 2365 
Q 1534 2075 1959 2075 
z
" transform="scale(0.015625)"/>
      <path id="DejaVuSans-2e" d="M 684 794 
L 1344 794 
L 1344 0 
L 684 0 
L 684 794 
z
" transform="scale(0.015625)"/>
      <path id="DejaVuSans-73" d="M 2834 3397 
L 2834 2853 
Q 2591 2978 2328 3040 
Q 2066 3103 1784 3103 
Q 1356 3103 1142 2972 
Q 928 2841 928 2578 
Q 928 2378 1081 2264 
Q 1234 2150 1697 2047 
L 1894 2003 
Q 2506 1872 2764 1633 
Q 3022 1394 3022 966 
Q 3022 478 2636 193 
Q 2250 -91 1575 -91 
Q 1294 -91 989 -36 
Q 684 19 347 128 
L 347 722 
Q 666 556 975 473 
Q 1284 391 1588 391 
Q 1994 391 2212 530 
Q 2431 669 2431 922 
Q 2431 1156 2273 1281 
Q 2116 1406 1581 1522 
L 1381 1569 
Q 847 1681 609 1914 
Q 372 2147 372 2553 
Q 372 3047 722 3315 
Q 1072 3584 1716 3584 
Q 2034 3584 2315 3537 
Q 2597 3491 2834 3397 
z
" transform="scale(0.015625)"/>
     </defs>
     <use xlink:href="#DejaVuSans-54"/>
     <use xlink:href="#DejaVuSans-69" x="57.958984"/>
     <use xlink:href="#DejaVuSans-6d" x="85.742188"/>
     <use xlink:href="#DejaVuSans-65" x="183.154297"/>
     <use xlink:href="#DejaVuSans-3a" x="244.677734"/>
     <use xlink:href="#DejaVuSans-20" x="278.369141"/>
     <use xlink:href="#DejaVuSans-39" x="310.15625"/>
     <use xlink:href="#DejaVuSans-2e" x="373.779297"/>
     <use xlink:href="#DejaVuSans-33" x="405.566406"/>
     <use xlink:href="#DejaVuSans-20" x="469.189453"/>
     <use xlink:href="#DejaVuSans-73" x="500.976562"/>
    </g>
   </g>
  </g>
 </g>
 <defs>
  <clipPath id="p495297994c">
   <rect x="28.104688" y="3.799219" width="266.112" height="266.112"/>
  </clipPath>
 </defs>
</svg>
