<?xml version="1.0" encoding="utf-8" standalone="no"?>
<!DOCTYPE svg PUBLIC "-//W3C//DTD SVG 1.1//EN"
  "http://www.w3.org/Graphics/SVG/1.1/DTD/svg11.dtd">
<svg xmlns:xlink="http://www.w3.org/1999/xlink" width="300.579188pt" height="286.589344pt" viewBox="0 0 300.579188 286.589344" xmlns="http://www.w3.org/2000/svg" version="1.1">
 <metadata>
  <rdf:RDF xmlns:dc="http://purl.org/dc/elements/1.1/" xmlns:cc="http://creativecommons.org/ns#" xmlns:rdf="http://www.w3.org/1999/02/22-rdf-syntax-ns#">
   <cc:Work>
    <dc:type rdf:resource="http://purl.org/dc/dcmitype/StillImage"/>
    <dc:date>2024-02-26T10:13:20.117969</dc:date>
    <dc:format>image/svg+xml</dc:format>
    <dc:creator>
     <cc:Agent>
      <dc:title>Matplotlib v3.8.2, https://matplotlib.org/</dc:title>
     </cc:Agent>
    </dc:creator>
   </cc:Work>
  </rdf:RDF>
 </metadata>
 <defs>
  <style type="text/css">*{stroke-linejoin: round; stroke-linecap: butt}</style>
 </defs>
 <g id="figure_1">
  <g id="patch_1">
   <path d="M 0 286.589344 
L 300.579188 286.589344 
L 300.579188 0 
L 0 0 
z
" style="fill: #ffffff"/>
  </g>
  <g id="axes_1">
   <g id="patch_2">
    <path d="M 28.104688 269.911219 
L 294.216687 269.911219 
L 294.216687 3.799219 
L 28.104688 3.799219 
z
" style="fill: #ffffff"/>
   </g>
   <g id="patch_3">
    <path d="M 151.894705 127.168584 
L 140.269548 126.535167 
L 139.961889 132.181672 
L 151.587045 132.815088 
z
" clip-path="url(#p1d9747147d)" style="fill: #00008b"/>
   </g>
   <g id="patch_4">
    <path d="M 170.905163 113.665771 
L 169.649092 102.091327 
L 164.027219 102.701418 
L 165.28329 114.275863 
z
" clip-path="url(#p1d9747147d)" style="fill: #800000"/>
   </g>
   <g id="patch_5">
    <path d="M 150.050742 148.401521 
L 152.267788 159.830877 
L 157.819189 158.754026 
L 155.602144 147.32467 
z
" clip-path="url(#p1d9747147d)" style="fill: #006400"/>
   </g>
   <g id="patch_6">
    <path d="M 172.322676 147.409062 
L 183.850204 145.777632 
L 183.057795 140.178546 
L 171.530267 141.809977 
z
" clip-path="url(#p1d9747147d)" style="fill: #4b0082"/>
   </g>
   <g id="patch_7">
    <path d="M 170.155559 167.799713 
L 170.784988 156.17434 
L 165.138378 155.868617 
L 164.508949 167.49399 
z
" clip-path="url(#p1d9747147d)" style="fill: #0000ff"/>
   </g>
   <g id="patch_8">
    <path d="M 192.085971 127.922226 
L 180.468076 127.167244 
L 180.101371 132.810222 
L 191.719265 133.565204 
z
" clip-path="url(#p1d9747147d)" style="fill: #ff0000"/>
   </g>
   <g id="patch_9">
    <path d="M 151.363488 107.30099 
L 151.303227 118.943234 
L 156.958031 118.972504 
L 157.018292 107.33026 
z
" clip-path="url(#p1d9747147d)" style="fill: #dbdc56"/>
   </g>
   <g id="patch_10">
    <path d="M 119.835553 145.679433 
L 131.472101 146.048515 
L 131.65137 140.396477 
L 120.014822 140.027396 
z
" clip-path="url(#p1d9747147d)" style="fill: #9400d3"/>
   </g>
   <g id="patch_11">
    <path d="M 169.825652 214.55636 
L 169.836225 202.913964 
L 164.181347 202.908829 
L 164.170774 214.551224 
z
" clip-path="url(#p1d9747147d)" style="fill: #1e90ff"/>
   </g>
   <g id="patch_12">
    <path d="M 222.450991 128.133146 
L 210.809822 127.963857 
L 210.727596 133.618139 
L 222.368765 133.787428 
z
" clip-path="url(#p1d9747147d)" style="fill: #ff4500"/>
   </g>
   <g id="patch_13">
    <path d="M 152.485965 59.141189 
L 152.428077 70.783445 
L 158.082887 70.811562 
L 158.140775 59.169306 
z
" clip-path="url(#p1d9747147d)" style="fill: #7cfc00"/>
   </g>
   <g id="patch_14">
    <path d="M 83.461895 145.521179 
L 95.104293 145.528177 
L 95.107692 139.873298 
L 83.465294 139.8663 
z
" clip-path="url(#p1d9747147d)" style="fill: #ff00ff"/>
   </g>
   <g id="matplotlib.axis_1">
    <g id="xtick_1">
     <g id="line2d_1">
      <defs>
       <path id="m8bb82ff202" d="M 0 0 
L 0 3.5 
" style="stroke: #000000; stroke-width: 0.8"/>
      </defs>
      <g>
       <use xlink:href="#m8bb82ff202" x="28.104688" y="269.911219" style="stroke: #000000; stroke-width: 0.8"/>
      </g>
     </g>
     <g id="text_1">
      <!-- −40 -->
      <g transform="translate(17.552344 284.509656) scale(0.1 -0.1)">
       <defs>
        <path id="DejaVuSans-2212" d="M 678 2272 
L 4684 2272 
L 4684 1741 
L 678 1741 
L 678 2272 
z
" transform="scale(0.015625)"/>
        <path id="DejaVuSans-34" d="M 2419 4116 
L 825 1625 
L 2419 1625 
L 2419 4116 
z
M 2253 4666 
L 3047 4666 
L 3047 1625 
L 3713 1625 
L 3713 1100 
L 3047 1100 
L 3047 0 
L 2419 0 
L 2419 1100 
L 313 1100 
L 313 1709 
L 2253 4666 
z
" transform="scale(0.015625)"/>
        <path id="DejaVuSans-30" d="M 2034 4250 
Q 1547 4250 1301 3770 
Q 1056 3291 1056 2328 
Q 1056 1369 1301 889 
Q 1547 409 2034 409 
Q 2525 409 2770 889 
Q 3016 1369 3016 2328 
Q 3016 3291 2770 3770 
Q 2525 4250 2034 4250 
z
M 2034 4750 
Q 2819 4750 3233 4129 
Q 3647 3509 3647 2328 
Q 3647 1150 3233 529 
Q 2819 -91 2034 -91 
Q 1250 -91 836 529 
Q 422 1150 422 2328 
Q 422 3509 836 4129 
Q 1250 4750 2034 4750 
z
" transform="scale(0.015625)"/>
       </defs>
       <use xlink:href="#DejaVuSans-2212"/>
       <use xlink:href="#DejaVuSans-34" x="83.789062"/>
       <use xlink:href="#DejaVuSans-30" x="147.412109"/>
      </g>
     </g>
    </g>
    <g id="xtick_2">
     <g id="line2d_2">
      <g>
       <use xlink:href="#m8bb82ff202" x="61.368688" y="269.911219" style="stroke: #000000; stroke-width: 0.8"/>
      </g>
     </g>
     <g id="text_2">
      <!-- −30 -->
      <g transform="translate(50.816344 284.509656) scale(0.1 -0.1)">
       <defs>
        <path id="DejaVuSans-33" d="M 2597 2516 
Q 3050 2419 3304 2112 
Q 3559 1806 3559 1356 
Q 3559 666 3084 287 
Q 2609 -91 1734 -91 
Q 1441 -91 1130 -33 
Q 819 25 488 141 
L 488 750 
Q 750 597 1062 519 
Q 1375 441 1716 441 
Q 2309 441 2620 675 
Q 2931 909 2931 1356 
Q 2931 1769 2642 2001 
Q 2353 2234 1838 2234 
L 1294 2234 
L 1294 2753 
L 1863 2753 
Q 2328 2753 2575 2939 
Q 2822 3125 2822 3475 
Q 2822 3834 2567 4026 
Q 2313 4219 1838 4219 
Q 1578 4219 1281 4162 
Q 984 4106 628 3988 
L 628 4550 
Q 988 4650 1302 4700 
Q 1616 4750 1894 4750 
Q 2613 4750 3031 4423 
Q 3450 4097 3450 3541 
Q 3450 3153 3228 2886 
Q 3006 2619 2597 2516 
z
" transform="scale(0.015625)"/>
       </defs>
       <use xlink:href="#DejaVuSans-2212"/>
       <use xlink:href="#DejaVuSans-33" x="83.789062"/>
       <use xlink:href="#DejaVuSans-30" x="147.412109"/>
      </g>
     </g>
    </g>
    <g id="xtick_3">
     <g id="line2d_3">
      <g>
       <use xlink:href="#m8bb82ff202" x="94.632688" y="269.911219" style="stroke: #000000; stroke-width: 0.8"/>
      </g>
     </g>
     <g id="text_3">
      <!-- −20 -->
      <g transform="translate(84.080344 284.509656) scale(0.1 -0.1)">
       <defs>
        <path id="DejaVuSans-32" d="M 1228 531 
L 3431 531 
L 3431 0 
L 469 0 
L 469 531 
Q 828 903 1448 1529 
Q 2069 2156 2228 2338 
Q 2531 2678 2651 2914 
Q 2772 3150 2772 3378 
Q 2772 3750 2511 3984 
Q 2250 4219 1831 4219 
Q 1534 4219 1204 4116 
Q 875 4013 500 3803 
L 500 4441 
Q 881 4594 1212 4672 
Q 1544 4750 1819 4750 
Q 2544 4750 2975 4387 
Q 3406 4025 3406 3419 
Q 3406 3131 3298 2873 
Q 3191 2616 2906 2266 
Q 2828 2175 2409 1742 
Q 1991 1309 1228 531 
z
" transform="scale(0.015625)"/>
       </defs>
       <use xlink:href="#DejaVuSans-2212"/>
       <use xlink:href="#DejaVuSans-32" x="83.789062"/>
       <use xlink:href="#DejaVuSans-30" x="147.412109"/>
      </g>
     </g>
    </g>
    <g id="xtick_4">
     <g id="line2d_4">
      <g>
       <use xlink:href="#m8bb82ff202" x="127.896687" y="269.911219" style="stroke: #000000; stroke-width: 0.8"/>
      </g>
     </g>
     <g id="text_4">
      <!-- −10 -->
      <g transform="translate(117.344344 284.509656) scale(0.1 -0.1)">
       <defs>
        <path id="DejaVuSans-31" d="M 794 531 
L 1825 531 
L 1825 4091 
L 703 3866 
L 703 4441 
L 1819 4666 
L 2450 4666 
L 2450 531 
L 3481 531 
L 3481 0 
L 794 0 
L 794 531 
z
" transform="scale(0.015625)"/>
       </defs>
       <use xlink:href="#DejaVuSans-2212"/>
       <use xlink:href="#DejaVuSans-31" x="83.789062"/>
       <use xlink:href="#DejaVuSans-30" x="147.412109"/>
      </g>
     </g>
    </g>
    <g id="xtick_5">
     <g id="line2d_5">
      <g>
       <use xlink:href="#m8bb82ff202" x="161.160687" y="269.911219" style="stroke: #000000; stroke-width: 0.8"/>
      </g>
     </g>
     <g id="text_5">
      <!-- 0 -->
      <g transform="translate(157.979437 284.509656) scale(0.1 -0.1)">
       <use xlink:href="#DejaVuSans-30"/>
      </g>
     </g>
    </g>
    <g id="xtick_6">
     <g id="line2d_6">
      <g>
       <use xlink:href="#m8bb82ff202" x="194.424688" y="269.911219" style="stroke: #000000; stroke-width: 0.8"/>
      </g>
     </g>
     <g id="text_6">
      <!-- 10 -->
      <g transform="translate(188.062187 284.509656) scale(0.1 -0.1)">
       <use xlink:href="#DejaVuSans-31"/>
       <use xlink:href="#DejaVuSans-30" x="63.623047"/>
      </g>
     </g>
    </g>
    <g id="xtick_7">
     <g id="line2d_7">
      <g>
       <use xlink:href="#m8bb82ff202" x="227.688687" y="269.911219" style="stroke: #000000; stroke-width: 0.8"/>
      </g>
     </g>
     <g id="text_7">
      <!-- 20 -->
      <g transform="translate(221.326187 284.509656) scale(0.1 -0.1)">
       <use xlink:href="#DejaVuSans-32"/>
       <use xlink:href="#DejaVuSans-30" x="63.623047"/>
      </g>
     </g>
    </g>
    <g id="xtick_8">
     <g id="line2d_8">
      <g>
       <use xlink:href="#m8bb82ff202" x="260.952687" y="269.911219" style="stroke: #000000; stroke-width: 0.8"/>
      </g>
     </g>
     <g id="text_8">
      <!-- 30 -->
      <g transform="translate(254.590187 284.509656) scale(0.1 -0.1)">
       <use xlink:href="#DejaVuSans-33"/>
       <use xlink:href="#DejaVuSans-30" x="63.623047"/>
      </g>
     </g>
    </g>
    <g id="xtick_9">
     <g id="line2d_9">
      <g>
       <use xlink:href="#m8bb82ff202" x="294.216687" y="269.911219" style="stroke: #000000; stroke-width: 0.8"/>
      </g>
     </g>
     <g id="text_9">
      <!-- 40 -->
      <g transform="translate(287.854187 284.509656) scale(0.1 -0.1)">
       <use xlink:href="#DejaVuSans-34"/>
       <use xlink:href="#DejaVuSans-30" x="63.623047"/>
      </g>
     </g>
    </g>
   </g>
   <g id="matplotlib.axis_2">
    <g id="ytick_1">
     <g id="line2d_10">
      <defs>
       <path id="m60b1db0722" d="M 0 0 
L -3.5 0 
" style="stroke: #000000; stroke-width: 0.8"/>
      </defs>
      <g>
       <use xlink:href="#m60b1db0722" x="28.104688" y="269.911219" style="stroke: #000000; stroke-width: 0.8"/>
      </g>
     </g>
     <g id="text_10">
      <!-- −40 -->
      <g transform="translate(0 273.710437) scale(0.1 -0.1)">
       <use xlink:href="#DejaVuSans-2212"/>
       <use xlink:href="#DejaVuSans-34" x="83.789062"/>
       <use xlink:href="#DejaVuSans-30" x="147.412109"/>
      </g>
     </g>
    </g>
    <g id="ytick_2">
     <g id="line2d_11">
      <g>
       <use xlink:href="#m60b1db0722" x="28.104688" y="236.647219" style="stroke: #000000; stroke-width: 0.8"/>
      </g>
     </g>
     <g id="text_11">
      <!-- −30 -->
      <g transform="translate(0 240.446437) scale(0.1 -0.1)">
       <use xlink:href="#DejaVuSans-2212"/>
       <use xlink:href="#DejaVuSans-33" x="83.789062"/>
       <use xlink:href="#DejaVuSans-30" x="147.412109"/>
      </g>
     </g>
    </g>
    <g id="ytick_3">
     <g id="line2d_12">
      <g>
       <use xlink:href="#m60b1db0722" x="28.104688" y="203.383219" style="stroke: #000000; stroke-width: 0.8"/>
      </g>
     </g>
     <g id="text_12">
      <!-- −20 -->
      <g transform="translate(0 207.182437) scale(0.1 -0.1)">
       <use xlink:href="#DejaVuSans-2212"/>
       <use xlink:href="#DejaVuSans-32" x="83.789062"/>
       <use xlink:href="#DejaVuSans-30" x="147.412109"/>
      </g>
     </g>
    </g>
    <g id="ytick_4">
     <g id="line2d_13">
      <g>
       <use xlink:href="#m60b1db0722" x="28.104688" y="170.119219" style="stroke: #000000; stroke-width: 0.8"/>
      </g>
     </g>
     <g id="text_13">
      <!-- −10 -->
      <g transform="translate(0 173.918437) scale(0.1 -0.1)">
       <use xlink:href="#DejaVuSans-2212"/>
       <use xlink:href="#DejaVuSans-31" x="83.789062"/>
       <use xlink:href="#DejaVuSans-30" x="147.412109"/>
      </g>
     </g>
    </g>
    <g id="ytick_5">
     <g id="line2d_14">
      <g>
       <use xlink:href="#m60b1db0722" x="28.104688" y="136.855219" style="stroke: #000000; stroke-width: 0.8"/>
      </g>
     </g>
     <g id="text_14">
      <!-- 0 -->
      <g transform="translate(14.742188 140.654437) scale(0.1 -0.1)">
       <use xlink:href="#DejaVuSans-30"/>
      </g>
     </g>
    </g>
    <g id="ytick_6">
     <g id="line2d_15">
      <g>
       <use xlink:href="#m60b1db0722" x="28.104688" y="103.591219" style="stroke: #000000; stroke-width: 0.8"/>
      </g>
     </g>
     <g id="text_15">
      <!-- 10 -->
      <g transform="translate(8.379688 107.390437) scale(0.1 -0.1)">
       <use xlink:href="#DejaVuSans-31"/>
       <use xlink:href="#DejaVuSans-30" x="63.623047"/>
      </g>
     </g>
    </g>
    <g id="ytick_7">
     <g id="line2d_16">
      <g>
       <use xlink:href="#m60b1db0722" x="28.104688" y="70.327219" style="stroke: #000000; stroke-width: 0.8"/>
      </g>
     </g>
     <g id="text_16">
      <!-- 20 -->
      <g transform="translate(8.379688 74.126437) scale(0.1 -0.1)">
       <use xlink:href="#DejaVuSans-32"/>
       <use xlink:href="#DejaVuSans-30" x="63.623047"/>
      </g>
     </g>
    </g>
    <g id="ytick_8">
     <g id="line2d_17">
      <g>
       <use xlink:href="#m60b1db0722" x="28.104688" y="37.063219" style="stroke: #000000; stroke-width: 0.8"/>
      </g>
     </g>
     <g id="text_17">
      <!-- 30 -->
      <g transform="translate(8.379688 40.862437) scale(0.1 -0.1)">
       <use xlink:href="#DejaVuSans-33"/>
       <use xlink:href="#DejaVuSans-30" x="63.623047"/>
      </g>
     </g>
    </g>
    <g id="ytick_9">
     <g id="line2d_18">
      <g>
       <use xlink:href="#m60b1db0722" x="28.104688" y="3.799219" style="stroke: #000000; stroke-width: 0.8"/>
      </g>
     </g>
     <g id="text_18">
      <!-- 40 -->
      <g transform="translate(8.379688 7.598437) scale(0.1 -0.1)">
       <use xlink:href="#DejaVuSans-34"/>
       <use xlink:href="#DejaVuSans-30" x="63.623047"/>
      </g>
     </g>
    </g>
   </g>
   <g id="line2d_19">
    <path d="M 175.297888 250.784419 
L 175.297888 150.992419 
" clip-path="url(#p1d9747147d)" style="fill: none; stroke: #000000; stroke-width: 0.25; stroke-linecap: square"/>
   </g>
   <g id="line2d_20">
    <path d="M 175.297888 150.992419 
L 275.089887 150.992419 
" clip-path="url(#p1d9747147d)" style="fill: none; stroke: #000000; stroke-width: 0.25; stroke-linecap: square"/>
   </g>
   <g id="line2d_21">
    <path d="M 275.089887 122.718019 
L 175.297888 122.718019 
" clip-path="url(#p1d9747147d)" style="fill: none; stroke: #000000; stroke-width: 0.25; stroke-linecap: square"/>
   </g>
   <g id="line2d_22">
    <path d="M 175.297888 122.718019 
L 175.297888 22.926019 
" clip-path="url(#p1d9747147d)" style="fill: none; stroke: #000000; stroke-width: 0.25; stroke-linecap: square"/>
   </g>
   <g id="line2d_23">
    <path d="M 147.023487 22.926019 
L 147.023487 122.718019 
" clip-path="url(#p1d9747147d)" style="fill: none; stroke: #000000; stroke-width: 0.25; stroke-linecap: square"/>
   </g>
   <g id="line2d_24">
    <path d="M 147.023487 122.718019 
L 47.231488 122.718019 
" clip-path="url(#p1d9747147d)" style="fill: none; stroke: #000000; stroke-width: 0.25; stroke-linecap: square"/>
   </g>
   <g id="line2d_25">
    <path d="M 47.231488 150.992419 
L 147.023487 150.992419 
" clip-path="url(#p1d9747147d)" style="fill: none; stroke: #000000; stroke-width: 0.25; stroke-linecap: square"/>
   </g>
   <g id="line2d_26">
    <path d="M 147.023487 150.992419 
L 147.023487 250.784419 
" clip-path="url(#p1d9747147d)" style="fill: none; stroke: #000000; stroke-width: 0.25; stroke-linecap: square"/>
   </g>
   <g id="line2d_27">
    <path d="M 175.297888 136.855219 
L 275.089887 136.855219 
" clip-path="url(#p1d9747147d)" style="fill: none; stroke-dasharray: 0.925,0.4; stroke-dashoffset: 0; stroke: #000000; stroke-width: 0.25"/>
   </g>
   <g id="line2d_28">
    <path d="M 161.160687 122.718019 
L 161.160687 22.926019 
" clip-path="url(#p1d9747147d)" style="fill: none; stroke-dasharray: 0.925,0.4; stroke-dashoffset: 0; stroke: #000000; stroke-width: 0.25"/>
   </g>
   <g id="line2d_29">
    <path d="M 147.023487 136.855219 
L 47.231488 136.855219 
" clip-path="url(#p1d9747147d)" style="fill: none; stroke-dasharray: 0.925,0.4; stroke-dashoffset: 0; stroke: #000000; stroke-width: 0.25"/>
   </g>
   <g id="line2d_30">
    <path d="M 161.160687 150.992419 
L 161.160687 250.784419 
" clip-path="url(#p1d9747147d)" style="fill: none; stroke-dasharray: 0.925,0.4; stroke-dashoffset: 0; stroke: #000000; stroke-width: 0.25"/>
   </g>
   <g id="line2d_31">
    <path d="M 147.697422 129.487278 
L 145.928297 129.675128 
L 144.160309 129.779928 
L 142.399623 129.858988 
L 140.64676 129.904348 
L 138.902302 129.915841 
L 137.166351 129.921788 
L 135.438478 129.931069 
L 133.71836 129.961313 
L 132.006334 130.029247 
L 130.301048 130.104088 
L 128.601309 130.170627 
L 126.906176 130.215865 
L 125.215218 130.233632 
L 123.528278 130.224011 
L 121.845201 130.188475 
L 120.165732 130.130622 
L 118.488235 130.09191 
L 116.812502 130.076665 
L 115.138936 130.115507 
L 113.469145 130.209961 
L 111.8016 130.319648 
L 110.135613 130.43549 
L 108.469918 130.541919 
L 106.804336 130.638341 
L 105.138769 130.725063 
L 103.473173 130.803139 
L 101.807536 130.874138 
L 100.141861 130.939982 
L 98.476166 131.002807 
L 96.810475 131.064823 
" clip-path="url(#p1d9747147d)" style="fill: none; stroke: #ff0000; stroke-width: 0.25; stroke-linecap: square"/>
   </g>
   <g id="line2d_32">
    <path d="M 167.548309 109.598004 
L 167.466191 108.183595 
L 167.382182 106.755462 
L 167.315761 105.31282 
L 167.272343 103.856163 
L 167.251005 102.386478 
L 167.250827 100.904826 
L 167.27092 99.412305 
L 167.310373 97.910021 
L 167.368182 96.399062 
L 167.443122 94.880471 
L 167.533595 93.35521 
L 167.637424 91.824128 
L 167.73753 90.286942 
L 167.808106 88.743083 
L 167.846648 87.193831 
L 167.826995 85.640731 
L 167.758194 84.086286 
L 167.670734 82.53067 
L 167.575019 80.974012 
L 167.485697 79.415841 
L 167.403971 77.856437 
L 167.330372 76.296066 
L 167.264859 74.73497 
L 167.206936 73.173355 
L 167.155753 71.611392 
L 167.110209 70.049211 
L 167.069029 68.486904 
L 167.030834 66.924538 
L 166.994197 65.36215 
L 166.957708 63.799768 
" clip-path="url(#p1d9747147d)" style="fill: none; stroke: #ff0000; stroke-width: 0.25; stroke-linecap: square"/>
   </g>
   <g id="line2d_33">
    <path d="M 153.76969 151.99426 
L 153.934966 153.577774 
L 154.075366 155.157514 
L 154.198627 156.735017 
L 154.333343 158.31006 
L 154.494278 159.882781 
L 154.649624 161.457587 
L 154.77808 163.037459 
L 154.872909 164.62323 
L 154.935548 166.214772 
L 154.967727 167.811852 
L 154.971339 169.414164 
L 154.948405 171.021368 
L 154.90111 172.633104 
L 154.831921 174.249022 
L 154.743766 175.868812 
L 154.640276 177.492237 
L 154.561212 179.121257 
L 154.510122 180.755208 
L 154.513321 182.393371 
L 154.577357 184.033175 
L 154.661799 185.674492 
L 154.759316 187.317008 
L 154.851836 188.961345 
L 154.937902 190.607218 
L 155.01721 192.254297 
L 155.090137 193.902259 
L 155.157599 195.550825 
L 155.220896 197.199779 
L 155.281574 198.848945 
L 155.341227 200.498187 
" clip-path="url(#p1d9747147d)" style="fill: none; stroke: #ff0000; stroke-width: 0.25; stroke-linecap: square"/>
   </g>
   <g id="line2d_34">
    <path d="M 176.091819 143.842762 
L 177.690235 143.793804 
L 179.283856 143.729127 
L 180.875359 143.667487 
L 182.465773 143.59274 
L 184.055751 143.495622 
L 185.648807 143.420904 
L 187.245629 143.374209 
L 188.846382 143.35749 
L 190.450974 143.36825 
L 192.059297 143.403088 
L 193.672026 143.427335 
L 195.289086 143.438261 
L 196.909927 143.404782 
L 198.533149 143.328464 
L 200.159351 143.24037 
L 201.788594 143.148616 
L 203.421309 143.066121 
L 205.057186 142.993514 
L 206.695874 142.930852 
L 208.337 142.877751 
L 209.980192 142.833513 
L 211.625093 142.797227 
L 213.271366 142.767858 
L 214.918704 142.74431 
L 216.566839 142.725471 
L 218.215559 142.710251 
L 219.864686 142.697602 
L 221.514075 142.686534 
L 223.163604 142.676122 
L 224.813184 142.665554 
" clip-path="url(#p1d9747147d)" style="fill: none; stroke: #ff0000; stroke-width: 0.25; stroke-linecap: square"/>
   </g>
   <g id="line2d_35">
    <path d="M 167.531789 163.419555 
L 167.646968 161.834165 
L 167.73249 160.243871 
L 167.781579 158.64766 
L 167.821285 157.045173 
L 167.864861 155.434941 
L 167.931254 153.815401 
L 168.037209 152.185233 
L 168.200569 150.544043 
L 168.426138 148.891088 
L 168.718258 147.226284 
L 169.077804 145.54953 
L 169.500767 143.859865 
L 169.968544 142.15219 
L 170.424198 140.410702 
L 170.775848 138.61666 
L 170.937293 136.771792 
L 170.829873 134.906233 
L 170.40742 133.077924 
L 169.80048 131.304277 
L 169.07806 129.586729 
L 168.367031 127.886244 
L 167.718883 126.190952 
L 167.202046 124.487346 
L 166.852848 122.78123 
L 166.684026 121.088099 
L 166.700947 119.424453 
L 166.881111 117.803063 
L 167.126093 116.215317 
L 167.305928 114.635016 
L 167.415995 113.055529 
" clip-path="url(#p1d9747147d)" style="fill: none; stroke: #ff0000; stroke-width: 0.25; stroke-linecap: square"/>
   </g>
   <g id="line2d_36">
    <path d="M 187.710959 130.519196 
L 186.093671 130.366224 
L 184.466019 130.245035 
L 182.828834 130.141636 
L 181.183759 130.0193 
L 179.53139 129.862611 
L 177.874092 129.647237 
L 176.215249 129.356528 
L 174.559768 128.976291 
L 172.910498 128.507273 
L 171.270645 127.950613 
L 169.641424 127.314014 
L 167.997201 126.669331 
L 166.305607 126.11476 
L 164.556599 125.740815 
L 162.771993 125.618297 
L 160.99987 125.781291 
L 159.275796 126.137454 
L 157.621138 126.6501 
L 156.005768 127.170178 
L 154.420094 127.654296 
L 152.857233 128.074755 
L 151.319027 128.442986 
L 149.807701 128.785194 
L 148.325035 129.131148 
L 146.862757 129.466532 
L 145.408856 129.757942 
L 143.958026 129.995535 
L 142.507889 130.178517 
L 141.058799 130.326534 
L 139.615642 130.507798 
" clip-path="url(#p1d9747147d)" style="fill: none; stroke: #ff0000; stroke-width: 0.25; stroke-linecap: square"/>
   </g>
   <g id="line2d_37">
    <path d="M 154.098911 111.420144 
L 154.16076 113.136747 
L 154.218697 114.869083 
L 154.265951 116.618678 
L 154.275846 118.387053 
L 154.250737 120.174193 
L 154.222559 121.980571 
L 154.20653 123.806649 
L 154.221977 125.652351 
L 154.291435 127.516013 
L 154.440256 129.393263 
L 154.698099 131.275359 
L 155.118689 133.142392 
L 155.736537 134.965324 
L 156.556864 136.7148 
L 157.570863 138.364743 
L 158.799801 139.863857 
L 160.179702 141.224374 
L 161.69305 142.429141 
L 163.319215 143.463415 
L 165.035064 144.315537 
L 166.817066 144.977945 
L 168.643003 145.447494 
L 170.4919 145.730161 
L 172.347313 145.820244 
L 174.19208 145.719326 
L 176.009798 145.432555 
L 177.784201 144.963523 
L 179.550446 144.474973 
L 181.317334 143.99371 
L 183.08239 143.507073 
" clip-path="url(#p1d9747147d)" style="fill: none; stroke: #ff0000; stroke-width: 0.25; stroke-linecap: square"/>
   </g>
   <g id="line2d_38">
    <path d="M 124.42294 142.97825 
L 125.743461 143.037955 
L 127.050763 143.097288 
L 128.343607 143.161262 
L 129.62111 143.229363 
L 130.882564 143.300785 
L 132.128386 143.357271 
L 133.358306 143.392869 
L 134.572044 143.408883 
L 135.769628 143.395477 
L 136.951858 143.372658 
L 138.120299 143.342698 
L 139.277452 143.313154 
L 140.426651 143.288402 
L 141.572028 143.267624 
L 142.718566 143.240402 
L 143.871015 143.183259 
L 145.032131 143.072919 
L 146.203736 142.906754 
L 147.389228 142.701892 
L 148.593772 142.48683 
L 149.820265 142.284614 
L 151.064919 142.088741 
L 152.32594 141.91124 
L 153.598521 141.746991 
L 154.881559 141.618745 
L 156.172647 141.542256 
L 157.468913 141.533046 
L 158.76821 141.534216 
L 160.069148 141.477196 
L 161.352849 141.244625 
" clip-path="url(#p1d9747147d)" style="fill: none; stroke: #ff0000; stroke-width: 0.25; stroke-linecap: square"/>
   </g>
   <g id="line2d_39">
    <path d="M 166.998865 210.282368 
L 167.0035 208.732594 
L 167.009097 207.182759 
L 167.017573 205.632856 
L 167.029625 204.082879 
L 167.046027 202.532826 
L 167.067615 200.982697 
L 167.095273 199.432503 
L 167.129913 197.882262 
L 167.172429 196.332002 
L 167.223655 194.781761 
L 167.284289 193.231588 
L 167.354806 191.681532 
L 167.435342 190.131639 
L 167.525557 188.581933 
L 167.62446 187.032397 
L 167.730209 185.482953 
L 167.806068 183.931411 
L 167.850074 182.378369 
L 167.842014 180.824496 
L 167.77641 179.271926 
L 167.690971 177.720342 
L 167.592633 176.169683 
L 167.49884 174.618927 
L 167.41091 173.068013 
L 167.329163 171.516932 
L 167.253309 169.9657 
L 167.182567 168.414347 
L 167.11579 166.862908 
L 167.051577 165.311418 
L 166.988379 163.759913 
" clip-path="url(#p1d9747147d)" style="fill: none; stroke: #ff0000; stroke-width: 0.25; stroke-linecap: square"/>
   </g>
   <g id="line2d_40">
    <path d="M 218.523324 130.918304 
L 216.589293 130.875643 
L 214.668234 130.830579 
L 212.761642 130.774953 
L 210.870875 130.707744 
L 208.997254 130.628427 
L 207.142005 130.537137 
L 205.306197 130.434874 
L 203.490646 130.323752 
L 201.695825 130.20728 
L 199.921764 130.090708 
L 198.166266 130.013664 
L 196.429604 129.983634 
L 194.712358 130.023004 
L 193.016236 130.139806 
L 191.340352 130.316352 
L 189.683674 130.554439 
L 188.043199 130.850523 
L 186.418288 131.21951 
L 184.802614 131.653625 
L 183.181361 132.122225 
L 181.529263 132.559212 
L 179.827723 132.897422 
L 178.07137 133.054218 
L 176.27865 133.043287 
L 174.461721 132.930316 
L 172.633796 132.684694 
L 170.814869 132.278898 
L 169.006363 131.772394 
L 167.178675 131.30162 
L 165.30172 131.06373 
" clip-path="url(#p1d9747147d)" style="fill: none; stroke: #ff0000; stroke-width: 0.25; stroke-linecap: square"/>
   </g>
   <g id="line2d_41">
    <path d="M 155.299077 63.42602 
L 155.284426 64.976376 
L 155.268024 66.526771 
L 155.246334 68.077158 
L 155.218392 69.6275 
L 155.183219 71.177751 
L 155.139864 72.727856 
L 155.087445 74.277744 
L 155.02523 75.827337 
L 154.95272 77.376551 
L 154.869766 78.925311 
L 154.776715 80.47356 
L 154.674585 82.021288 
L 154.579622 83.569501 
L 154.516902 85.119302 
L 154.485676 86.669912 
L 154.511259 88.220321 
L 154.582663 89.768794 
L 154.667345 91.315954 
L 154.75306 92.862274 
L 154.823352 94.408596 
L 154.874981 95.95491 
L 154.905123 97.501103 
L 154.911296 99.046963 
L 154.891294 100.592187 
L 154.843147 102.136383 
L 154.765136 103.679081 
L 154.655868 105.219748 
L 154.531888 106.759329 
L 154.439664 108.301234 
L 154.389902 109.845116 
" clip-path="url(#p1d9747147d)" style="fill: none; stroke: #ff0000; stroke-width: 0.25; stroke-linecap: square"/>
   </g>
   <g id="line2d_42">
    <path d="M 87.734334 142.694014 
L 89.284794 142.697238 
L 90.835366 142.701505 
L 92.386028 142.708224 
L 93.93676 142.718024 
L 95.487534 142.731604 
L 97.038318 142.749728 
L 98.589075 142.773213 
L 100.139755 142.802908 
L 101.690298 142.839668 
L 103.240634 142.884309 
L 104.790678 142.937551 
L 106.340339 142.999946 
L 107.889524 143.071774 
L 109.438149 143.152932 
L 110.986153 143.242783 
L 112.533523 143.339985 
L 114.082217 143.40756 
L 115.631525 143.446775 
L 117.180874 143.439927 
L 118.728839 143.390253 
L 120.27579 143.330593 
L 121.822022 143.27147 
L 123.368138 143.229973 
L 124.91406 143.209611 
L 126.459584 143.213421 
L 128.004386 143.244003 
L 129.548038 143.303527 
L 131.090029 143.393684 
L 132.630864 143.501357 
L 134.174196 143.564774 
" clip-path="url(#p1d9747147d)" style="fill: none; stroke: #ff0000; stroke-width: 0.25; stroke-linecap: square"/>
   </g>
   <g id="patch_15">
    <path d="M 28.104688 269.911219 
L 28.104688 3.799219 
" style="fill: none; stroke: #000000; stroke-width: 0.8; stroke-linejoin: miter; stroke-linecap: square"/>
   </g>
   <g id="patch_16">
    <path d="M 294.216687 269.911219 
L 294.216687 3.799219 
" style="fill: none; stroke: #000000; stroke-width: 0.8; stroke-linejoin: miter; stroke-linecap: square"/>
   </g>
   <g id="patch_17">
    <path d="M 28.104688 269.911219 
L 294.216687 269.911219 
" style="fill: none; stroke: #000000; stroke-width: 0.8; stroke-linejoin: miter; stroke-linecap: square"/>
   </g>
   <g id="patch_18">
    <path d="M 28.104688 3.799219 
L 294.216687 3.799219 
" style="fill: none; stroke: #000000; stroke-width: 0.8; stroke-linejoin: miter; stroke-linecap: square"/>
   </g>
   <g id="text_19">
    <!-- Time: 3.9 s -->
    <g transform="translate(198.9952 17.104819) scale(0.1 -0.1)">
     <defs>
      <path id="DejaVuSans-54" d="M -19 4666 
L 3928 4666 
L 3928 4134 
L 2272 4134 
L 2272 0 
L 1638 0 
L 1638 4134 
L -19 4134 
L -19 4666 
z
" transform="scale(0.015625)"/>
      <path id="DejaVuSans-69" d="M 603 3500 
L 1178 3500 
L 1178 0 
L 603 0 
L 603 3500 
z
M 603 4863 
L 1178 4863 
L 1178 4134 
L 603 4134 
L 603 4863 
z
" transform="scale(0.015625)"/>
      <path id="DejaVuSans-6d" d="M 3328 2828 
Q 3544 3216 3844 3400 
Q 4144 3584 4550 3584 
Q 5097 3584 5394 3201 
Q 5691 2819 5691 2113 
L 5691 0 
L 5113 0 
L 5113 2094 
Q 5113 2597 4934 2840 
Q 4756 3084 4391 3084 
Q 3944 3084 3684 2787 
Q 3425 2491 3425 1978 
L 3425 0 
L 2847 0 
L 2847 2094 
Q 2847 2600 2669 2842 
Q 2491 3084 2119 3084 
Q 1678 3084 1418 2786 
Q 1159 2488 1159 1978 
L 1159 0 
L 581 0 
L 581 3500 
L 1159 3500 
L 1159 2956 
Q 1356 3278 1631 3431 
Q 1906 3584 2284 3584 
Q 2666 3584 2933 3390 
Q 3200 3197 3328 2828 
z
" transform="scale(0.015625)"/>
      <path id="DejaVuSans-65" d="M 3597 1894 
L 3597 1613 
L 953 1613 
Q 991 1019 1311 708 
Q 1631 397 2203 397 
Q 2534 397 2845 478 
Q 3156 559 3463 722 
L 3463 178 
Q 3153 47 2828 -22 
Q 2503 -91 2169 -91 
Q 1331 -91 842 396 
Q 353 884 353 1716 
Q 353 2575 817 3079 
Q 1281 3584 2069 3584 
Q 2775 3584 3186 3129 
Q 3597 2675 3597 1894 
z
M 3022 2063 
Q 3016 2534 2758 2815 
Q 2500 3097 2075 3097 
Q 1594 3097 1305 2825 
Q 1016 2553 972 2059 
L 3022 2063 
z
" transform="scale(0.015625)"/>
      <path id="DejaVuSans-3a" d="M 750 794 
L 1409 794 
L 1409 0 
L 750 0 
L 750 794 
z
M 750 3309 
L 1409 3309 
L 1409 2516 
L 750 2516 
L 750 3309 
z
" transform="scale(0.015625)"/>
      <path id="DejaVuSans-20" transform="scale(0.015625)"/>
      <path id="DejaVuSans-2e" d="M 684 794 
L 1344 794 
L 1344 0 
L 684 0 
L 684 794 
z
" transform="scale(0.015625)"/>
      <path id="DejaVuSans-39" d="M 703 97 
L 703 672 
Q 941 559 1184 500 
Q 1428 441 1663 441 
Q 2288 441 2617 861 
Q 2947 1281 2994 2138 
Q 2813 1869 2534 1725 
Q 2256 1581 1919 1581 
Q 1219 1581 811 2004 
Q 403 2428 403 3163 
Q 403 3881 828 4315 
Q 1253 4750 1959 4750 
Q 2769 4750 3195 4129 
Q 3622 3509 3622 2328 
Q 3622 1225 3098 567 
Q 2575 -91 1691 -91 
Q 1453 -91 1209 -44 
Q 966 3 703 97 
z
M 1959 2075 
Q 2384 2075 2632 2365 
Q 2881 2656 2881 3163 
Q 2881 3666 2632 3958 
Q 2384 4250 1959 4250 
Q 1534 4250 1286 3958 
Q 1038 3666 1038 3163 
Q 1038 2656 1286 2365 
Q 1534 2075 1959 2075 
z
" transform="scale(0.015625)"/>
      <path id="DejaVuSans-73" d="M 2834 3397 
L 2834 2853 
Q 2591 2978 2328 3040 
Q 2066 3103 1784 3103 
Q 1356 3103 1142 2972 
Q 928 2841 928 2578 
Q 928 2378 1081 2264 
Q 1234 2150 1697 2047 
L 1894 2003 
Q 2506 1872 2764 1633 
Q 3022 1394 3022 966 
Q 3022 478 2636 193 
Q 2250 -91 1575 -91 
Q 1294 -91 989 -36 
Q 684 19 347 128 
L 347 722 
Q 666 556 975 473 
Q 1284 391 1588 391 
Q 1994 391 2212 530 
Q 2431 669 2431 922 
Q 2431 1156 2273 1281 
Q 2116 1406 1581 1522 
L 1381 1569 
Q 847 1681 609 1914 
Q 372 2147 372 2553 
Q 372 3047 722 3315 
Q 1072 3584 1716 3584 
Q 2034 3584 2315 3537 
Q 2597 3491 2834 3397 
z
" transform="scale(0.015625)"/>
     </defs>
     <use xlink:href="#DejaVuSans-54"/>
     <use xlink:href="#DejaVuSans-69" x="57.958984"/>
     <use xlink:href="#DejaVuSans-6d" x="85.742188"/>
     <use xlink:href="#DejaVuSans-65" x="183.154297"/>
     <use xlink:href="#DejaVuSans-3a" x="244.677734"/>
     <use xlink:href="#DejaVuSans-20" x="278.369141"/>
     <use xlink:href="#DejaVuSans-33" x="310.15625"/>
     <use xlink:href="#DejaVuSans-2e" x="373.779297"/>
     <use xlink:href="#DejaVuSans-39" x="405.566406"/>
     <use xlink:href="#DejaVuSans-20" x="469.189453"/>
     <use xlink:href="#DejaVuSans-73" x="500.976562"/>
    </g>
   </g>
  </g>
 </g>
 <defs>
  <clipPath id="p1d9747147d">
   <rect x="28.104688" y="3.799219" width="266.112" height="266.112"/>
  </clipPath>
 </defs>
</svg>
