<?xml version="1.0" encoding="utf-8" standalone="no"?>
<!DOCTYPE svg PUBLIC "-//W3C//DTD SVG 1.1//EN"
  "http://www.w3.org/Graphics/SVG/1.1/DTD/svg11.dtd">
<svg xmlns:xlink="http://www.w3.org/1999/xlink" width="300.579188pt" height="286.589344pt" viewBox="0 0 300.579188 286.589344" xmlns="http://www.w3.org/2000/svg" version="1.1">
 <metadata>
  <rdf:RDF xmlns:dc="http://purl.org/dc/elements/1.1/" xmlns:cc="http://creativecommons.org/ns#" xmlns:rdf="http://www.w3.org/1999/02/22-rdf-syntax-ns#">
   <cc:Work>
    <dc:type rdf:resource="http://purl.org/dc/dcmitype/StillImage"/>
    <dc:date>2024-02-26T10:14:03.908739</dc:date>
    <dc:format>image/svg+xml</dc:format>
    <dc:creator>
     <cc:Agent>
      <dc:title>Matplotlib v3.8.2, https://matplotlib.org/</dc:title>
     </cc:Agent>
    </dc:creator>
   </cc:Work>
  </rdf:RDF>
 </metadata>
 <defs>
  <style type="text/css">*{stroke-linejoin: round; stroke-linecap: butt}</style>
 </defs>
 <g id="figure_1">
  <g id="patch_1">
   <path d="M 0 286.589344 
L 300.579188 286.589344 
L 300.579188 0 
L 0 0 
z
" style="fill: #ffffff"/>
  </g>
  <g id="axes_1">
   <g id="patch_2">
    <path d="M 28.104688 269.911219 
L 294.216687 269.911219 
L 294.216687 3.799219 
L 28.104688 3.799219 
z
" style="fill: #ffffff"/>
   </g>
   <g id="patch_3">
    <path d="M 59.159937 128.172291 
L 47.517537 128.171836 
L 47.517316 133.826716 
L 59.159716 133.827171 
z
" clip-path="url(#pb7a2be70cf)" style="fill: #00008b"/>
   </g>
   <g id="patch_4">
    <path d="M 169.843675 29.315238 
L 169.844035 17.672838 
L 164.189155 17.672663 
L 164.188795 29.315063 
z
" clip-path="url(#pb7a2be70cf)" style="fill: #800000"/>
   </g>
   <g id="patch_5">
    <path d="M 152.477809 237.691481 
L 152.477328 249.333881 
L 158.132208 249.334115 
L 158.132689 237.691715 
z
" clip-path="url(#pb7a2be70cf)" style="fill: #006400"/>
   </g>
   <g id="patch_6">
    <path d="M 261.996555 145.538415 
L 273.638955 145.538526 
L 273.639009 139.883646 
L 261.996609 139.883535 
z
" clip-path="url(#pb7a2be70cf)" style="fill: #4b0082"/>
   </g>
   <g id="patch_7">
    <path d="M 169.850253 79.137905 
L 169.832219 67.495519 
L 164.177346 67.504278 
L 164.19538 79.146664 
z
" clip-path="url(#pb7a2be70cf)" style="fill: #0000ff"/>
   </g>
   <g id="patch_8">
    <path d="M 103.341687 128.162335 
L 91.699328 128.193326 
L 91.714381 133.848186 
L 103.35674 133.817195 
z
" clip-path="url(#pb7a2be70cf)" style="fill: #ff0000"/>
   </g>
   <g id="patch_9">
    <path d="M 219.605699 145.535363 
L 231.248098 145.538554 
L 231.249648 139.883674 
L 219.607248 139.880483 
z
" clip-path="url(#pb7a2be70cf)" style="fill: #dbdc56"/>
   </g>
   <g id="patch_10">
    <path d="M 170.096867 105.859759 
L 169.570697 94.229255 
L 163.921595 94.484823 
L 164.447765 106.115327 
z
" clip-path="url(#pb7a2be70cf)" style="fill: #9400d3"/>
   </g>
   <g id="patch_11">
    <path d="M 182.339078 145.05638 
L 193.949443 144.1933 
L 193.530233 138.55398 
L 181.919868 139.41706 
z
" clip-path="url(#pb7a2be70cf)" style="fill: #1e90ff"/>
   </g>
   <g id="patch_12">
    <path d="M 152.491283 177.241079 
L 152.486758 188.883478 
L 158.141638 188.885676 
L 158.146162 177.243277 
z
" clip-path="url(#pb7a2be70cf)" style="fill: #ff4500"/>
   </g>
   <g id="patch_13">
    <path d="M 139.912818 128.900693 
L 128.333535 130.111346 
L 128.921566 135.735569 
L 140.500849 134.524917 
z
" clip-path="url(#pb7a2be70cf)" style="fill: #7cfc00"/>
   </g>
   <g id="patch_14">
    <path d="M 153.802461 157.231824 
L 154.717578 168.838203 
L 160.354963 168.393718 
L 159.439845 156.787338 
z
" clip-path="url(#pb7a2be70cf)" style="fill: #ff00ff"/>
   </g>
   <g id="matplotlib.axis_1">
    <g id="xtick_1">
     <g id="line2d_1">
      <defs>
       <path id="mf0c75b979d" d="M 0 0 
L 0 3.5 
" style="stroke: #000000; stroke-width: 0.8"/>
      </defs>
      <g>
       <use xlink:href="#mf0c75b979d" x="28.104688" y="269.911219" style="stroke: #000000; stroke-width: 0.8"/>
      </g>
     </g>
     <g id="text_1">
      <!-- −40 -->
      <g transform="translate(17.552344 284.509656) scale(0.1 -0.1)">
       <defs>
        <path id="DejaVuSans-2212" d="M 678 2272 
L 4684 2272 
L 4684 1741 
L 678 1741 
L 678 2272 
z
" transform="scale(0.015625)"/>
        <path id="DejaVuSans-34" d="M 2419 4116 
L 825 1625 
L 2419 1625 
L 2419 4116 
z
M 2253 4666 
L 3047 4666 
L 3047 1625 
L 3713 1625 
L 3713 1100 
L 3047 1100 
L 3047 0 
L 2419 0 
L 2419 1100 
L 313 1100 
L 313 1709 
L 2253 4666 
z
" transform="scale(0.015625)"/>
        <path id="DejaVuSans-30" d="M 2034 4250 
Q 1547 4250 1301 3770 
Q 1056 3291 1056 2328 
Q 1056 1369 1301 889 
Q 1547 409 2034 409 
Q 2525 409 2770 889 
Q 3016 1369 3016 2328 
Q 3016 3291 2770 3770 
Q 2525 4250 2034 4250 
z
M 2034 4750 
Q 2819 4750 3233 4129 
Q 3647 3509 3647 2328 
Q 3647 1150 3233 529 
Q 2819 -91 2034 -91 
Q 1250 -91 836 529 
Q 422 1150 422 2328 
Q 422 3509 836 4129 
Q 1250 4750 2034 4750 
z
" transform="scale(0.015625)"/>
       </defs>
       <use xlink:href="#DejaVuSans-2212"/>
       <use xlink:href="#DejaVuSans-34" x="83.789062"/>
       <use xlink:href="#DejaVuSans-30" x="147.412109"/>
      </g>
     </g>
    </g>
    <g id="xtick_2">
     <g id="line2d_2">
      <g>
       <use xlink:href="#mf0c75b979d" x="61.368688" y="269.911219" style="stroke: #000000; stroke-width: 0.8"/>
      </g>
     </g>
     <g id="text_2">
      <!-- −30 -->
      <g transform="translate(50.816344 284.509656) scale(0.1 -0.1)">
       <defs>
        <path id="DejaVuSans-33" d="M 2597 2516 
Q 3050 2419 3304 2112 
Q 3559 1806 3559 1356 
Q 3559 666 3084 287 
Q 2609 -91 1734 -91 
Q 1441 -91 1130 -33 
Q 819 25 488 141 
L 488 750 
Q 750 597 1062 519 
Q 1375 441 1716 441 
Q 2309 441 2620 675 
Q 2931 909 2931 1356 
Q 2931 1769 2642 2001 
Q 2353 2234 1838 2234 
L 1294 2234 
L 1294 2753 
L 1863 2753 
Q 2328 2753 2575 2939 
Q 2822 3125 2822 3475 
Q 2822 3834 2567 4026 
Q 2313 4219 1838 4219 
Q 1578 4219 1281 4162 
Q 984 4106 628 3988 
L 628 4550 
Q 988 4650 1302 4700 
Q 1616 4750 1894 4750 
Q 2613 4750 3031 4423 
Q 3450 4097 3450 3541 
Q 3450 3153 3228 2886 
Q 3006 2619 2597 2516 
z
" transform="scale(0.015625)"/>
       </defs>
       <use xlink:href="#DejaVuSans-2212"/>
       <use xlink:href="#DejaVuSans-33" x="83.789062"/>
       <use xlink:href="#DejaVuSans-30" x="147.412109"/>
      </g>
     </g>
    </g>
    <g id="xtick_3">
     <g id="line2d_3">
      <g>
       <use xlink:href="#mf0c75b979d" x="94.632688" y="269.911219" style="stroke: #000000; stroke-width: 0.8"/>
      </g>
     </g>
     <g id="text_3">
      <!-- −20 -->
      <g transform="translate(84.080344 284.509656) scale(0.1 -0.1)">
       <defs>
        <path id="DejaVuSans-32" d="M 1228 531 
L 3431 531 
L 3431 0 
L 469 0 
L 469 531 
Q 828 903 1448 1529 
Q 2069 2156 2228 2338 
Q 2531 2678 2651 2914 
Q 2772 3150 2772 3378 
Q 2772 3750 2511 3984 
Q 2250 4219 1831 4219 
Q 1534 4219 1204 4116 
Q 875 4013 500 3803 
L 500 4441 
Q 881 4594 1212 4672 
Q 1544 4750 1819 4750 
Q 2544 4750 2975 4387 
Q 3406 4025 3406 3419 
Q 3406 3131 3298 2873 
Q 3191 2616 2906 2266 
Q 2828 2175 2409 1742 
Q 1991 1309 1228 531 
z
" transform="scale(0.015625)"/>
       </defs>
       <use xlink:href="#DejaVuSans-2212"/>
       <use xlink:href="#DejaVuSans-32" x="83.789062"/>
       <use xlink:href="#DejaVuSans-30" x="147.412109"/>
      </g>
     </g>
    </g>
    <g id="xtick_4">
     <g id="line2d_4">
      <g>
       <use xlink:href="#mf0c75b979d" x="127.896687" y="269.911219" style="stroke: #000000; stroke-width: 0.8"/>
      </g>
     </g>
     <g id="text_4">
      <!-- −10 -->
      <g transform="translate(117.344344 284.509656) scale(0.1 -0.1)">
       <defs>
        <path id="DejaVuSans-31" d="M 794 531 
L 1825 531 
L 1825 4091 
L 703 3866 
L 703 4441 
L 1819 4666 
L 2450 4666 
L 2450 531 
L 3481 531 
L 3481 0 
L 794 0 
L 794 531 
z
" transform="scale(0.015625)"/>
       </defs>
       <use xlink:href="#DejaVuSans-2212"/>
       <use xlink:href="#DejaVuSans-31" x="83.789062"/>
       <use xlink:href="#DejaVuSans-30" x="147.412109"/>
      </g>
     </g>
    </g>
    <g id="xtick_5">
     <g id="line2d_5">
      <g>
       <use xlink:href="#mf0c75b979d" x="161.160687" y="269.911219" style="stroke: #000000; stroke-width: 0.8"/>
      </g>
     </g>
     <g id="text_5">
      <!-- 0 -->
      <g transform="translate(157.979437 284.509656) scale(0.1 -0.1)">
       <use xlink:href="#DejaVuSans-30"/>
      </g>
     </g>
    </g>
    <g id="xtick_6">
     <g id="line2d_6">
      <g>
       <use xlink:href="#mf0c75b979d" x="194.424688" y="269.911219" style="stroke: #000000; stroke-width: 0.8"/>
      </g>
     </g>
     <g id="text_6">
      <!-- 10 -->
      <g transform="translate(188.062187 284.509656) scale(0.1 -0.1)">
       <use xlink:href="#DejaVuSans-31"/>
       <use xlink:href="#DejaVuSans-30" x="63.623047"/>
      </g>
     </g>
    </g>
    <g id="xtick_7">
     <g id="line2d_7">
      <g>
       <use xlink:href="#mf0c75b979d" x="227.688687" y="269.911219" style="stroke: #000000; stroke-width: 0.8"/>
      </g>
     </g>
     <g id="text_7">
      <!-- 20 -->
      <g transform="translate(221.326187 284.509656) scale(0.1 -0.1)">
       <use xlink:href="#DejaVuSans-32"/>
       <use xlink:href="#DejaVuSans-30" x="63.623047"/>
      </g>
     </g>
    </g>
    <g id="xtick_8">
     <g id="line2d_8">
      <g>
       <use xlink:href="#mf0c75b979d" x="260.952687" y="269.911219" style="stroke: #000000; stroke-width: 0.8"/>
      </g>
     </g>
     <g id="text_8">
      <!-- 30 -->
      <g transform="translate(254.590187 284.509656) scale(0.1 -0.1)">
       <use xlink:href="#DejaVuSans-33"/>
       <use xlink:href="#DejaVuSans-30" x="63.623047"/>
      </g>
     </g>
    </g>
    <g id="xtick_9">
     <g id="line2d_9">
      <g>
       <use xlink:href="#mf0c75b979d" x="294.216687" y="269.911219" style="stroke: #000000; stroke-width: 0.8"/>
      </g>
     </g>
     <g id="text_9">
      <!-- 40 -->
      <g transform="translate(287.854187 284.509656) scale(0.1 -0.1)">
       <use xlink:href="#DejaVuSans-34"/>
       <use xlink:href="#DejaVuSans-30" x="63.623047"/>
      </g>
     </g>
    </g>
   </g>
   <g id="matplotlib.axis_2">
    <g id="ytick_1">
     <g id="line2d_10">
      <defs>
       <path id="m7472331725" d="M 0 0 
L -3.5 0 
" style="stroke: #000000; stroke-width: 0.8"/>
      </defs>
      <g>
       <use xlink:href="#m7472331725" x="28.104688" y="269.911219" style="stroke: #000000; stroke-width: 0.8"/>
      </g>
     </g>
     <g id="text_10">
      <!-- −40 -->
      <g transform="translate(0 273.710437) scale(0.1 -0.1)">
       <use xlink:href="#DejaVuSans-2212"/>
       <use xlink:href="#DejaVuSans-34" x="83.789062"/>
       <use xlink:href="#DejaVuSans-30" x="147.412109"/>
      </g>
     </g>
    </g>
    <g id="ytick_2">
     <g id="line2d_11">
      <g>
       <use xlink:href="#m7472331725" x="28.104688" y="236.647219" style="stroke: #000000; stroke-width: 0.8"/>
      </g>
     </g>
     <g id="text_11">
      <!-- −30 -->
      <g transform="translate(0 240.446437) scale(0.1 -0.1)">
       <use xlink:href="#DejaVuSans-2212"/>
       <use xlink:href="#DejaVuSans-33" x="83.789062"/>
       <use xlink:href="#DejaVuSans-30" x="147.412109"/>
      </g>
     </g>
    </g>
    <g id="ytick_3">
     <g id="line2d_12">
      <g>
       <use xlink:href="#m7472331725" x="28.104688" y="203.383219" style="stroke: #000000; stroke-width: 0.8"/>
      </g>
     </g>
     <g id="text_12">
      <!-- −20 -->
      <g transform="translate(0 207.182437) scale(0.1 -0.1)">
       <use xlink:href="#DejaVuSans-2212"/>
       <use xlink:href="#DejaVuSans-32" x="83.789062"/>
       <use xlink:href="#DejaVuSans-30" x="147.412109"/>
      </g>
     </g>
    </g>
    <g id="ytick_4">
     <g id="line2d_13">
      <g>
       <use xlink:href="#m7472331725" x="28.104688" y="170.119219" style="stroke: #000000; stroke-width: 0.8"/>
      </g>
     </g>
     <g id="text_13">
      <!-- −10 -->
      <g transform="translate(0 173.918437) scale(0.1 -0.1)">
       <use xlink:href="#DejaVuSans-2212"/>
       <use xlink:href="#DejaVuSans-31" x="83.789062"/>
       <use xlink:href="#DejaVuSans-30" x="147.412109"/>
      </g>
     </g>
    </g>
    <g id="ytick_5">
     <g id="line2d_14">
      <g>
       <use xlink:href="#m7472331725" x="28.104688" y="136.855219" style="stroke: #000000; stroke-width: 0.8"/>
      </g>
     </g>
     <g id="text_14">
      <!-- 0 -->
      <g transform="translate(14.742188 140.654437) scale(0.1 -0.1)">
       <use xlink:href="#DejaVuSans-30"/>
      </g>
     </g>
    </g>
    <g id="ytick_6">
     <g id="line2d_15">
      <g>
       <use xlink:href="#m7472331725" x="28.104688" y="103.591219" style="stroke: #000000; stroke-width: 0.8"/>
      </g>
     </g>
     <g id="text_15">
      <!-- 10 -->
      <g transform="translate(8.379688 107.390437) scale(0.1 -0.1)">
       <use xlink:href="#DejaVuSans-31"/>
       <use xlink:href="#DejaVuSans-30" x="63.623047"/>
      </g>
     </g>
    </g>
    <g id="ytick_7">
     <g id="line2d_16">
      <g>
       <use xlink:href="#m7472331725" x="28.104688" y="70.327219" style="stroke: #000000; stroke-width: 0.8"/>
      </g>
     </g>
     <g id="text_16">
      <!-- 20 -->
      <g transform="translate(8.379688 74.126437) scale(0.1 -0.1)">
       <use xlink:href="#DejaVuSans-32"/>
       <use xlink:href="#DejaVuSans-30" x="63.623047"/>
      </g>
     </g>
    </g>
    <g id="ytick_8">
     <g id="line2d_17">
      <g>
       <use xlink:href="#m7472331725" x="28.104688" y="37.063219" style="stroke: #000000; stroke-width: 0.8"/>
      </g>
     </g>
     <g id="text_17">
      <!-- 30 -->
      <g transform="translate(8.379688 40.862437) scale(0.1 -0.1)">
       <use xlink:href="#DejaVuSans-33"/>
       <use xlink:href="#DejaVuSans-30" x="63.623047"/>
      </g>
     </g>
    </g>
    <g id="ytick_9">
     <g id="line2d_18">
      <g>
       <use xlink:href="#m7472331725" x="28.104688" y="3.799219" style="stroke: #000000; stroke-width: 0.8"/>
      </g>
     </g>
     <g id="text_18">
      <!-- 40 -->
      <g transform="translate(8.379688 7.598437) scale(0.1 -0.1)">
       <use xlink:href="#DejaVuSans-34"/>
       <use xlink:href="#DejaVuSans-30" x="63.623047"/>
      </g>
     </g>
    </g>
   </g>
   <g id="line2d_19">
    <path d="M 175.297888 250.784419 
L 175.297888 150.992419 
" clip-path="url(#pb7a2be70cf)" style="fill: none; stroke: #000000; stroke-width: 0.25; stroke-linecap: square"/>
   </g>
   <g id="line2d_20">
    <path d="M 175.297888 150.992419 
L 275.089887 150.992419 
" clip-path="url(#pb7a2be70cf)" style="fill: none; stroke: #000000; stroke-width: 0.25; stroke-linecap: square"/>
   </g>
   <g id="line2d_21">
    <path d="M 275.089887 122.718019 
L 175.297888 122.718019 
" clip-path="url(#pb7a2be70cf)" style="fill: none; stroke: #000000; stroke-width: 0.25; stroke-linecap: square"/>
   </g>
   <g id="line2d_22">
    <path d="M 175.297888 122.718019 
L 175.297888 22.926019 
" clip-path="url(#pb7a2be70cf)" style="fill: none; stroke: #000000; stroke-width: 0.25; stroke-linecap: square"/>
   </g>
   <g id="line2d_23">
    <path d="M 147.023487 22.926019 
L 147.023487 122.718019 
" clip-path="url(#pb7a2be70cf)" style="fill: none; stroke: #000000; stroke-width: 0.25; stroke-linecap: square"/>
   </g>
   <g id="line2d_24">
    <path d="M 147.023487 122.718019 
L 47.231488 122.718019 
" clip-path="url(#pb7a2be70cf)" style="fill: none; stroke: #000000; stroke-width: 0.25; stroke-linecap: square"/>
   </g>
   <g id="line2d_25">
    <path d="M 47.231488 150.992419 
L 147.023487 150.992419 
" clip-path="url(#pb7a2be70cf)" style="fill: none; stroke: #000000; stroke-width: 0.25; stroke-linecap: square"/>
   </g>
   <g id="line2d_26">
    <path d="M 147.023487 150.992419 
L 147.023487 250.784419 
" clip-path="url(#pb7a2be70cf)" style="fill: none; stroke: #000000; stroke-width: 0.25; stroke-linecap: square"/>
   </g>
   <g id="line2d_27">
    <path d="M 175.297888 136.855219 
L 275.089887 136.855219 
" clip-path="url(#pb7a2be70cf)" style="fill: none; stroke-dasharray: 0.925,0.4; stroke-dashoffset: 0; stroke: #000000; stroke-width: 0.25"/>
   </g>
   <g id="line2d_28">
    <path d="M 161.160687 122.718019 
L 161.160687 22.926019 
" clip-path="url(#pb7a2be70cf)" style="fill: none; stroke-dasharray: 0.925,0.4; stroke-dashoffset: 0; stroke: #000000; stroke-width: 0.25"/>
   </g>
   <g id="line2d_29">
    <path d="M 147.023487 136.855219 
L 47.231488 136.855219 
" clip-path="url(#pb7a2be70cf)" style="fill: none; stroke-dasharray: 0.925,0.4; stroke-dashoffset: 0; stroke: #000000; stroke-width: 0.25"/>
   </g>
   <g id="line2d_30">
    <path d="M 161.160687 150.992419 
L 161.160687 250.784419 
" clip-path="url(#pb7a2be70cf)" style="fill: none; stroke-dasharray: 0.925,0.4; stroke-dashoffset: 0; stroke: #000000; stroke-width: 0.25"/>
   </g>
   <g id="line2d_31">
    <path d="M 55.011821 130.999542 
L 53.338626 130.999504 
L 51.665429 130.999467 
L 49.992233 130.999438 
L 48.319044 130.999416 
L 46.645863 130.9994 
L 44.972694 130.999388 
L 43.299538 130.999381 
L 41.626396 130.999376 
L 39.953268 130.999374 
L 38.280155 130.999373 
L 36.607056 130.999374 
L 34.933971 130.999375 
L 33.2609 130.999378 
L 31.587841 130.99938 
L 29.914794 130.999382 
L 28.241758 130.999385 
L 26.568732 130.999387 
L 24.895714 130.999389 
L 23.222704 130.999391 
L 21.549701 130.999393 
L 19.876704 130.999394 
L 18.203712 130.999395 
L 16.530724 130.999396 
L 14.857739 130.999397 
L 13.184757 130.999398 
L 11.511777 130.999398 
L 9.838799 130.999399 
L 8.165822 130.999399 
L 6.492845 130.9994 
L 4.819869 130.9994 
" clip-path="url(#pb7a2be70cf)" style="fill: none; stroke: #ff0000; stroke-width: 0.25; stroke-linecap: square"/>
   </g>
   <g id="line2d_32">
    <path d="M 167.016385 25.043889 
L 167.016415 23.49395 
L 167.016444 21.943984 
L 167.016467 20.393988 
L 167.016485 18.84396 
L 167.016499 17.293902 
L 167.016509 15.743812 
L 167.016516 14.193693 
L 167.016521 12.643545 
L 167.016524 11.09337 
L 167.016526 9.543169 
L 167.016526 7.992946 
L 167.016526 6.442701 
L 167.016525 4.892438 
L 167.016523 3.342157 
L 167.016522 1.791862 
L 167.01652 0.241554 
L 167.016519 -1 
" clip-path="url(#pb7a2be70cf)" style="fill: none; stroke: #ff0000; stroke-width: 0.25; stroke-linecap: square"/>
   </g>
   <g id="line2d_33">
    <path d="M 155.305055 241.860716 
L 155.305008 243.512798 
L 155.304965 245.164845 
L 155.304931 246.816863 
L 155.304904 248.46886 
L 155.304883 250.120842 
L 155.304868 251.772816 
L 155.304857 253.424785 
L 155.30485 255.076753 
L 155.304846 256.728723 
L 155.304844 258.380698 
L 155.304843 260.032679 
L 155.304844 261.684668 
L 155.304845 263.336666 
L 155.304847 264.988673 
L 155.304849 266.64069 
L 155.304852 268.292717 
L 155.304854 269.944752 
L 155.304856 271.596797 
L 155.304858 273.248849 
L 155.30486 274.90091 
L 155.304861 276.552977 
L 155.304863 278.20505 
L 155.304864 279.857129 
L 155.304865 281.509212 
L 155.304866 283.161299 
L 155.304866 284.813389 
L 155.304867 286.465482 
L 155.304867 287.589344 
" clip-path="url(#pb7a2be70cf)" style="fill: none; stroke: #ff0000; stroke-width: 0.25; stroke-linecap: square"/>
   </g>
   <g id="line2d_34">
    <path d="M 266.165658 142.711025 
L 267.817782 142.71103 
L 269.469871 142.711037 
L 271.121933 142.711041 
L 272.773974 142.711044 
L 274.425998 142.711046 
L 276.078012 142.711047 
L 277.730019 142.711048 
L 279.382023 142.711048 
L 281.034026 142.711047 
L 282.686031 142.711047 
L 284.338039 142.711046 
L 285.990052 142.711045 
L 287.642071 142.711044 
L 289.294096 142.711043 
L 290.946129 142.711042 
L 292.598168 142.711042 
L 294.250215 142.711041 
L 295.902269 142.711041 
L 297.554329 142.71104 
L 299.206395 142.71104 
L 300.858467 142.711039 
L 301.579188 142.711039 
" clip-path="url(#pb7a2be70cf)" style="fill: none; stroke: #ff0000; stroke-width: 0.25; stroke-linecap: square"/>
   </g>
   <g id="line2d_35">
    <path d="M 167.013811 74.974422 
L 167.0138 73.321092 
L 167.013391 71.664673 
L 167.01323 70.005844 
L 167.013252 68.345202 
L 167.013403 66.683267 
L 167.013637 65.020484 
L 167.013921 63.357232 
L 167.014229 61.693825 
L 167.014541 60.03052 
L 167.014843 58.367521 
L 167.015125 56.704989 
L 167.015382 55.04304 
L 167.01561 53.381756 
L 167.015809 51.721188 
L 167.015978 50.061363 
L 167.01612 48.402282 
L 167.016236 46.743931 
L 167.016329 45.08628 
L 167.016401 43.429289 
L 167.016457 41.772906 
L 167.016498 40.117075 
L 167.016526 38.461737 
L 167.016546 36.806828 
L 167.016558 35.152284 
L 167.016564 33.498044 
L 167.016567 31.844045 
L 167.016567 30.190231 
L 167.016566 28.536548 
L 167.016564 26.882946 
L 167.016563 25.229383 
" clip-path="url(#pb7a2be70cf)" style="fill: none; stroke: #ff0000; stroke-width: 0.25; stroke-linecap: square"/>
   </g>
   <g id="line2d_36">
    <path d="M 99.183772 131.005491 
L 97.528034 131.00526 
L 95.871628 131.005789 
L 94.214769 131.005895 
L 92.557638 131.005699 
L 90.900389 131.005299 
L 89.243149 131.004772 
L 87.58602 131.004178 
L 85.92908 131.00356 
L 84.272392 131.002952 
L 82.615999 131.002375 
L 80.95993 131.001845 
L 79.304203 131.001368 
L 77.648824 131.00095 
L 75.993791 131.00059 
L 74.339094 131.000287 
L 72.684719 131.000036 
L 71.030648 130.999832 
L 69.376857 130.99967 
L 67.723323 130.999546 
L 66.070019 130.999452 
L 64.416921 130.999384 
L 62.764001 130.999337 
L 61.111235 130.999307 
L 59.458596 130.99929 
L 57.806061 130.999283 
L 56.153609 130.999282 
L 54.501219 130.999285 
L 52.848873 130.99929 
L 51.196553 130.999296 
L 49.544247 130.9993 
" clip-path="url(#pb7a2be70cf)" style="fill: none; stroke: #ff0000; stroke-width: 0.25; stroke-linecap: square"/>
   </g>
   <g id="line2d_37">
    <path d="M 223.759482 142.709084 
L 225.427673 142.709518 
L 227.097962 142.709893 
L 228.77 142.710205 
L 230.443471 142.71046 
L 232.118091 142.710664 
L 233.793607 142.710824 
L 235.469795 142.710945 
L 237.146462 142.711035 
L 238.823443 142.711098 
L 240.500598 142.71114 
L 242.177811 142.711165 
L 243.854987 142.711178 
L 245.532052 142.711181 
L 247.20895 142.711177 
L 248.885638 142.711168 
L 250.56209 142.711157 
L 252.238289 142.711144 
L 253.914228 142.71113 
L 255.589911 142.711117 
L 257.265347 142.711105 
L 258.940549 142.711093 
L 260.615539 142.711083 
L 262.290337 142.711073 
L 263.964969 142.711065 
L 265.63946 142.711058 
L 267.313837 142.711052 
L 268.988126 142.711046 
L 270.662351 142.711041 
L 272.336536 142.711037 
L 274.010703 142.711032 
" clip-path="url(#pb7a2be70cf)" style="fill: none; stroke: #ff0000; stroke-width: 0.25; stroke-linecap: square"/>
   </g>
   <g id="line2d_38">
    <path d="M 167.021812 101.551679 
L 167.009231 100.172291 
L 166.989856 98.79977 
L 166.976528 97.432423 
L 166.968014 96.06893 
L 166.963276 94.708141 
L 166.961446 93.349063 
L 166.961808 91.990857 
L 166.963767 90.632825 
L 166.966841 89.274399 
L 166.970639 87.915128 
L 166.974856 86.554666 
L 166.979251 85.192761 
L 166.983643 83.829239 
L 166.987896 82.463999 
L 166.991915 81.096997 
L 166.995639 79.728238 
L 166.999029 78.357767 
L 167.00207 76.985664 
L 167.004762 75.612032 
L 167.007119 74.236992 
L 167.009164 72.860682 
L 167.010925 71.483246 
L 167.012438 70.104833 
L 167.013738 68.725593 
L 167.014865 67.345672 
L 167.015858 65.965213 
L 167.016756 64.584349 
L 167.017598 63.203204 
L 167.018421 61.82189 
L 167.01926 60.440503 
" clip-path="url(#pb7a2be70cf)" style="fill: none; stroke: #ff0000; stroke-width: 0.25; stroke-linecap: square"/>
   </g>
   <g id="line2d_39">
    <path d="M 186.470996 141.608975 
L 187.934656 141.80518 
L 189.417926 141.904849 
L 190.910467 142.00379 
L 192.411705 142.099912 
L 193.921026 142.19116 
L 195.437764 142.275883 
L 196.961216 142.352942 
L 198.490655 142.421695 
L 200.025358 142.481939 
L 201.564627 142.533819 
L 203.107797 142.577741 
L 204.654258 142.614296 
L 206.203451 142.644184 
L 207.754879 142.668161 
L 209.308102 142.686995 
L 210.862741 142.701431 
L 212.41847 142.712174 
L 213.975014 142.719866 
L 215.532147 142.725086 
L 217.089684 142.728339 
L 218.647479 142.730063 
L 220.205422 142.730628 
L 221.763431 142.730343 
L 223.32145 142.729459 
L 224.879444 142.728181 
L 226.437397 142.726667 
L 227.995304 142.725044 
L 229.553171 142.723405 
L 231.111012 142.721821 
L 232.66884 142.720343 
" clip-path="url(#pb7a2be70cf)" style="fill: none; stroke: #ff0000; stroke-width: 0.25; stroke-linecap: square"/>
   </g>
   <g id="line2d_40">
    <path d="M 155.319192 181.230401 
L 155.31646 183.063377 
L 155.314343 184.906864 
L 155.312427 186.761218 
L 155.310742 188.62651 
L 155.309299 190.502578 
L 155.308093 192.389073 
L 155.30711 194.285508 
L 155.306327 196.191286 
L 155.30572 198.105741 
L 155.305264 200.028161 
L 155.304934 201.957813 
L 155.304706 203.89396 
L 155.30456 205.835881 
L 155.304476 207.782882 
L 155.30444 209.734302 
L 155.304437 211.689526 
L 155.304456 213.647985 
L 155.304491 215.609163 
L 155.304533 217.572594 
L 155.304579 219.537868 
L 155.304625 221.504622 
L 155.304668 223.472547 
L 155.304708 225.441378 
L 155.304744 227.410892 
L 155.304775 229.380909 
L 155.304802 231.351282 
L 155.304826 233.321895 
L 155.304848 235.292661 
L 155.304868 237.26351 
L 155.304888 239.234395 
" clip-path="url(#pb7a2be70cf)" style="fill: none; stroke: #ff0000; stroke-width: 0.25; stroke-linecap: square"/>
   </g>
   <g id="line2d_41">
    <path d="M 135.88545 132.525308 
L 134.417192 132.318131 
L 132.931921 132.16795 
L 131.436858 132.023732 
L 129.932918 131.885341 
L 128.420833 131.754449 
L 126.901317 131.632912 
L 125.375108 131.522188 
L 123.84297 131.423165 
L 122.305671 131.336171 
L 120.763957 131.261047 
L 119.218531 131.197261 
L 117.67004 131.144013 
L 116.119061 131.100336 
L 114.566104 131.065174 
L 113.011608 131.037448 
L 111.455944 131.016106 
L 109.899422 131.00015 
L 108.342297 130.988664 
L 106.784771 130.980822 
L 105.227003 130.9759 
L 103.669114 130.973265 
L 102.11119 130.972382 
L 100.553291 130.972803 
L 98.995451 130.974154 
L 97.437688 130.976137 
L 95.880003 130.978508 
L 94.322387 130.981079 
L 92.764823 130.983699 
L 91.207292 130.986254 
L 89.649775 130.988659 
" clip-path="url(#pb7a2be70cf)" style="fill: none; stroke: #ff0000; stroke-width: 0.25; stroke-linecap: square"/>
   </g>
   <g id="line2d_42">
    <path d="M 157.336288 161.175891 
L 157.078712 162.812771 
L 156.841714 164.446162 
L 156.619113 166.074103 
L 156.410753 167.695921 
L 156.219024 169.311541 
L 156.046176 170.921037 
L 155.893536 172.524503 
L 155.761407 174.122035 
L 155.649209 175.713755 
L 155.555707 177.299837 
L 155.479241 178.880519 
L 155.417921 180.456106 
L 155.369784 182.026964 
L 155.332902 183.593499 
L 155.305458 185.15615 
L 155.285793 186.715362 
L 155.272423 188.271582 
L 155.264055 189.825235 
L 155.259579 191.376723 
L 155.258059 192.926415 
L 155.258722 194.474644 
L 155.260938 196.021705 
L 155.264204 197.567852 
L 155.268127 199.113307 
L 155.272412 200.658255 
L 155.276842 202.202852 
L 155.281266 203.747221 
L 155.285589 205.291458 
L 155.289759 206.835631 
L 155.293801 208.379785 
" clip-path="url(#pb7a2be70cf)" style="fill: none; stroke: #ff0000; stroke-width: 0.25; stroke-linecap: square"/>
   </g>
   <g id="patch_15">
    <path d="M 28.104688 269.911219 
L 28.104688 3.799219 
" style="fill: none; stroke: #000000; stroke-width: 0.8; stroke-linejoin: miter; stroke-linecap: square"/>
   </g>
   <g id="patch_16">
    <path d="M 294.216687 269.911219 
L 294.216687 3.799219 
" style="fill: none; stroke: #000000; stroke-width: 0.8; stroke-linejoin: miter; stroke-linecap: square"/>
   </g>
   <g id="patch_17">
    <path d="M 28.104688 269.911219 
L 294.216687 269.911219 
" style="fill: none; stroke: #000000; stroke-width: 0.8; stroke-linejoin: miter; stroke-linecap: square"/>
   </g>
   <g id="patch_18">
    <path d="M 28.104688 3.799219 
L 294.216687 3.799219 
" style="fill: none; stroke: #000000; stroke-width: 0.8; stroke-linejoin: miter; stroke-linecap: square"/>
   </g>
   <g id="text_19">
    <!-- Time: 9.4 s -->
    <g transform="translate(198.9952 17.104819) scale(0.1 -0.1)">
     <defs>
      <path id="DejaVuSans-54" d="M -19 4666 
L 3928 4666 
L 3928 4134 
L 2272 4134 
L 2272 0 
L 1638 0 
L 1638 4134 
L -19 4134 
L -19 4666 
z
" transform="scale(0.015625)"/>
      <path id="DejaVuSans-69" d="M 603 3500 
L 1178 3500 
L 1178 0 
L 603 0 
L 603 3500 
z
M 603 4863 
L 1178 4863 
L 1178 4134 
L 603 4134 
L 603 4863 
z
" transform="scale(0.015625)"/>
      <path id="DejaVuSans-6d" d="M 3328 2828 
Q 3544 3216 3844 3400 
Q 4144 3584 4550 3584 
Q 5097 3584 5394 3201 
Q 5691 2819 5691 2113 
L 5691 0 
L 5113 0 
L 5113 2094 
Q 5113 2597 4934 2840 
Q 4756 3084 4391 3084 
Q 3944 3084 3684 2787 
Q 3425 2491 3425 1978 
L 3425 0 
L 2847 0 
L 2847 2094 
Q 2847 2600 2669 2842 
Q 2491 3084 2119 3084 
Q 1678 3084 1418 2786 
Q 1159 2488 1159 1978 
L 1159 0 
L 581 0 
L 581 3500 
L 1159 3500 
L 1159 2956 
Q 1356 3278 1631 3431 
Q 1906 3584 2284 3584 
Q 2666 3584 2933 3390 
Q 3200 3197 3328 2828 
z
" transform="scale(0.015625)"/>
      <path id="DejaVuSans-65" d="M 3597 1894 
L 3597 1613 
L 953 1613 
Q 991 1019 1311 708 
Q 1631 397 2203 397 
Q 2534 397 2845 478 
Q 3156 559 3463 722 
L 3463 178 
Q 3153 47 2828 -22 
Q 2503 -91 2169 -91 
Q 1331 -91 842 396 
Q 353 884 353 1716 
Q 353 2575 817 3079 
Q 1281 3584 2069 3584 
Q 2775 3584 3186 3129 
Q 3597 2675 3597 1894 
z
M 3022 2063 
Q 3016 2534 2758 2815 
Q 2500 3097 2075 3097 
Q 1594 3097 1305 2825 
Q 1016 2553 972 2059 
L 3022 2063 
z
" transform="scale(0.015625)"/>
      <path id="DejaVuSans-3a" d="M 750 794 
L 1409 794 
L 1409 0 
L 750 0 
L 750 794 
z
M 750 3309 
L 1409 3309 
L 1409 2516 
L 750 2516 
L 750 3309 
z
" transform="scale(0.015625)"/>
      <path id="DejaVuSans-20" transform="scale(0.015625)"/>
      <path id="DejaVuSans-39" d="M 703 97 
L 703 672 
Q 941 559 1184 500 
Q 1428 441 1663 441 
Q 2288 441 2617 861 
Q 2947 1281 2994 2138 
Q 2813 1869 2534 1725 
Q 2256 1581 1919 1581 
Q 1219 1581 811 2004 
Q 403 2428 403 3163 
Q 403 3881 828 4315 
Q 1253 4750 1959 4750 
Q 2769 4750 3195 4129 
Q 3622 3509 3622 2328 
Q 3622 1225 3098 567 
Q 2575 -91 1691 -91 
Q 1453 -91 1209 -44 
Q 966 3 703 97 
z
M 1959 2075 
Q 2384 2075 2632 2365 
Q 2881 2656 2881 3163 
Q 2881 3666 2632 3958 
Q 2384 4250 1959 4250 
Q 1534 4250 1286 3958 
Q 1038 3666 1038 3163 
Q 1038 2656 1286 2365 
Q 1534 2075 1959 2075 
z
" transform="scale(0.015625)"/>
      <path id="DejaVuSans-2e" d="M 684 794 
L 1344 794 
L 1344 0 
L 684 0 
L 684 794 
z
" transform="scale(0.015625)"/>
      <path id="DejaVuSans-73" d="M 2834 3397 
L 2834 2853 
Q 2591 2978 2328 3040 
Q 2066 3103 1784 3103 
Q 1356 3103 1142 2972 
Q 928 2841 928 2578 
Q 928 2378 1081 2264 
Q 1234 2150 1697 2047 
L 1894 2003 
Q 2506 1872 2764 1633 
Q 3022 1394 3022 966 
Q 3022 478 2636 193 
Q 2250 -91 1575 -91 
Q 1294 -91 989 -36 
Q 684 19 347 128 
L 347 722 
Q 666 556 975 473 
Q 1284 391 1588 391 
Q 1994 391 2212 530 
Q 2431 669 2431 922 
Q 2431 1156 2273 1281 
Q 2116 1406 1581 1522 
L 1381 1569 
Q 847 1681 609 1914 
Q 372 2147 372 2553 
Q 372 3047 722 3315 
Q 1072 3584 1716 3584 
Q 2034 3584 2315 3537 
Q 2597 3491 2834 3397 
z
" transform="scale(0.015625)"/>
     </defs>
     <use xlink:href="#DejaVuSans-54"/>
     <use xlink:href="#DejaVuSans-69" x="57.958984"/>
     <use xlink:href="#DejaVuSans-6d" x="85.742188"/>
     <use xlink:href="#DejaVuSans-65" x="183.154297"/>
     <use xlink:href="#DejaVuSans-3a" x="244.677734"/>
     <use xlink:href="#DejaVuSans-20" x="278.369141"/>
     <use xlink:href="#DejaVuSans-39" x="310.15625"/>
     <use xlink:href="#DejaVuSans-2e" x="373.779297"/>
     <use xlink:href="#DejaVuSans-34" x="405.566406"/>
     <use xlink:href="#DejaVuSans-20" x="469.189453"/>
     <use xlink:href="#DejaVuSans-73" x="500.976562"/>
    </g>
   </g>
  </g>
 </g>
 <defs>
  <clipPath id="pb7a2be70cf">
   <rect x="28.104688" y="3.799219" width="266.112" height="266.112"/>
  </clipPath>
 </defs>
</svg>
