<?xml version="1.0" encoding="utf-8" standalone="no"?>
<!DOCTYPE svg PUBLIC "-//W3C//DTD SVG 1.1//EN"
  "http://www.w3.org/Graphics/SVG/1.1/DTD/svg11.dtd">
<svg xmlns:xlink="http://www.w3.org/1999/xlink" width="300.579188pt" height="286.589344pt" viewBox="0 0 300.579188 286.589344" xmlns="http://www.w3.org/2000/svg" version="1.1">
 <metadata>
  <rdf:RDF xmlns:dc="http://purl.org/dc/elements/1.1/" xmlns:cc="http://creativecommons.org/ns#" xmlns:rdf="http://www.w3.org/1999/02/22-rdf-syntax-ns#">
   <cc:Work>
    <dc:type rdf:resource="http://purl.org/dc/dcmitype/StillImage"/>
    <dc:date>2024-02-26T10:14:13.444194</dc:date>
    <dc:format>image/svg+xml</dc:format>
    <dc:creator>
     <cc:Agent>
      <dc:title>Matplotlib v3.8.2, https://matplotlib.org/</dc:title>
     </cc:Agent>
    </dc:creator>
   </cc:Work>
  </rdf:RDF>
 </metadata>
 <defs>
  <style type="text/css">*{stroke-linejoin: round; stroke-linecap: butt}</style>
 </defs>
 <g id="figure_1">
  <g id="patch_1">
   <path d="M 0 286.589344 
L 300.579188 286.589344 
L 300.579188 0 
L 0 0 
z
" style="fill: #ffffff"/>
  </g>
  <g id="axes_1">
   <g id="patch_2">
    <path d="M 28.104688 269.911219 
L 294.216687 269.911219 
L 294.216687 3.799219 
L 28.104688 3.799219 
z
" style="fill: #ffffff"/>
   </g>
   <g id="patch_3">
    <path d="M 39.082102 128.171968 
L 27.439702 128.171944 
L 27.43969 133.826824 
L 39.08209 133.826848 
z
" clip-path="url(#p83cb29d514)" style="fill: #00008b"/>
   </g>
   <g id="patch_4">
    <path d="M 169.843935 10.713644 
L 169.843963 -0.928756 
L 164.189083 -0.92877 
L 164.189055 10.71363 
z
" clip-path="url(#p83cb29d514)" style="fill: #800000"/>
   </g>
   <g id="patch_5">
    <path d="M 152.477443 257.515447 
L 152.477408 269.157847 
L 158.132288 269.157864 
L 158.132323 257.515464 
z
" clip-path="url(#p83cb29d514)" style="fill: #006400"/>
   </g>
   <g id="patch_6">
    <path d="M 281.820861 145.538479 
L 293.463261 145.538481 
L 293.463262 139.883601 
L 281.820862 139.883599 
z
" clip-path="url(#p83cb29d514)" style="fill: #4b0082"/>
   </g>
   <g id="patch_7">
    <path d="M 169.843251 59.202259 
L 169.843959 47.559859 
L 164.189079 47.559516 
L 164.188371 59.201916 
z
" clip-path="url(#p83cb29d514)" style="fill: #0000ff"/>
   </g>
   <g id="patch_8">
    <path d="M 83.47015 128.173346 
L 71.82775 128.17183 
L 71.827014 133.82671 
L 83.469414 133.828226 
z
" clip-path="url(#p83cb29d514)" style="fill: #ff0000"/>
   </g>
   <g id="patch_9">
    <path d="M 239.711262 145.53829 
L 251.353662 145.538652 
L 251.353838 139.883772 
L 239.711438 139.88341 
z
" clip-path="url(#p83cb29d514)" style="fill: #dbdc56"/>
   </g>
   <g id="patch_10">
    <path d="M 169.838921 89.649646 
L 169.828415 78.007251 
L 164.173537 78.012354 
L 164.184043 89.654749 
z
" clip-path="url(#p83cb29d514)" style="fill: #9400d3"/>
   </g>
   <g id="patch_11">
    <path d="M 200.322171 145.364813 
L 211.961966 145.611092 
L 212.081587 139.957477 
L 200.441792 139.711199 
z
" clip-path="url(#p83cb29d514)" style="fill: #1e90ff"/>
   </g>
   <g id="patch_12">
    <path d="M 152.478579 200.014951 
L 152.476554 211.657351 
L 158.131434 211.658335 
L 158.133459 200.015935 
z
" clip-path="url(#p83cb29d514)" style="fill: #ff4500"/>
   </g>
   <g id="patch_13">
    <path d="M 122.030559 128.422211 
L 110.393622 128.065597 
L 110.220409 133.717824 
L 121.857346 134.074438 
z
" clip-path="url(#p83cb29d514)" style="fill: #7cfc00"/>
   </g>
   <g id="patch_14">
    <path d="M 152.758415 176.094065 
L 152.318263 187.728142 
L 157.969101 187.941929 
L 158.409252 176.307853 
z
" clip-path="url(#p83cb29d514)" style="fill: #ff00ff"/>
   </g>
   <g id="matplotlib.axis_1">
    <g id="xtick_1">
     <g id="line2d_1">
      <defs>
       <path id="mdc42092667" d="M 0 0 
L 0 3.5 
" style="stroke: #000000; stroke-width: 0.8"/>
      </defs>
      <g>
       <use xlink:href="#mdc42092667" x="28.104688" y="269.911219" style="stroke: #000000; stroke-width: 0.8"/>
      </g>
     </g>
     <g id="text_1">
      <!-- −40 -->
      <g transform="translate(17.552344 284.509656) scale(0.1 -0.1)">
       <defs>
        <path id="DejaVuSans-2212" d="M 678 2272 
L 4684 2272 
L 4684 1741 
L 678 1741 
L 678 2272 
z
" transform="scale(0.015625)"/>
        <path id="DejaVuSans-34" d="M 2419 4116 
L 825 1625 
L 2419 1625 
L 2419 4116 
z
M 2253 4666 
L 3047 4666 
L 3047 1625 
L 3713 1625 
L 3713 1100 
L 3047 1100 
L 3047 0 
L 2419 0 
L 2419 1100 
L 313 1100 
L 313 1709 
L 2253 4666 
z
" transform="scale(0.015625)"/>
        <path id="DejaVuSans-30" d="M 2034 4250 
Q 1547 4250 1301 3770 
Q 1056 3291 1056 2328 
Q 1056 1369 1301 889 
Q 1547 409 2034 409 
Q 2525 409 2770 889 
Q 3016 1369 3016 2328 
Q 3016 3291 2770 3770 
Q 2525 4250 2034 4250 
z
M 2034 4750 
Q 2819 4750 3233 4129 
Q 3647 3509 3647 2328 
Q 3647 1150 3233 529 
Q 2819 -91 2034 -91 
Q 1250 -91 836 529 
Q 422 1150 422 2328 
Q 422 3509 836 4129 
Q 1250 4750 2034 4750 
z
" transform="scale(0.015625)"/>
       </defs>
       <use xlink:href="#DejaVuSans-2212"/>
       <use xlink:href="#DejaVuSans-34" x="83.789062"/>
       <use xlink:href="#DejaVuSans-30" x="147.412109"/>
      </g>
     </g>
    </g>
    <g id="xtick_2">
     <g id="line2d_2">
      <g>
       <use xlink:href="#mdc42092667" x="61.368688" y="269.911219" style="stroke: #000000; stroke-width: 0.8"/>
      </g>
     </g>
     <g id="text_2">
      <!-- −30 -->
      <g transform="translate(50.816344 284.509656) scale(0.1 -0.1)">
       <defs>
        <path id="DejaVuSans-33" d="M 2597 2516 
Q 3050 2419 3304 2112 
Q 3559 1806 3559 1356 
Q 3559 666 3084 287 
Q 2609 -91 1734 -91 
Q 1441 -91 1130 -33 
Q 819 25 488 141 
L 488 750 
Q 750 597 1062 519 
Q 1375 441 1716 441 
Q 2309 441 2620 675 
Q 2931 909 2931 1356 
Q 2931 1769 2642 2001 
Q 2353 2234 1838 2234 
L 1294 2234 
L 1294 2753 
L 1863 2753 
Q 2328 2753 2575 2939 
Q 2822 3125 2822 3475 
Q 2822 3834 2567 4026 
Q 2313 4219 1838 4219 
Q 1578 4219 1281 4162 
Q 984 4106 628 3988 
L 628 4550 
Q 988 4650 1302 4700 
Q 1616 4750 1894 4750 
Q 2613 4750 3031 4423 
Q 3450 4097 3450 3541 
Q 3450 3153 3228 2886 
Q 3006 2619 2597 2516 
z
" transform="scale(0.015625)"/>
       </defs>
       <use xlink:href="#DejaVuSans-2212"/>
       <use xlink:href="#DejaVuSans-33" x="83.789062"/>
       <use xlink:href="#DejaVuSans-30" x="147.412109"/>
      </g>
     </g>
    </g>
    <g id="xtick_3">
     <g id="line2d_3">
      <g>
       <use xlink:href="#mdc42092667" x="94.632688" y="269.911219" style="stroke: #000000; stroke-width: 0.8"/>
      </g>
     </g>
     <g id="text_3">
      <!-- −20 -->
      <g transform="translate(84.080344 284.509656) scale(0.1 -0.1)">
       <defs>
        <path id="DejaVuSans-32" d="M 1228 531 
L 3431 531 
L 3431 0 
L 469 0 
L 469 531 
Q 828 903 1448 1529 
Q 2069 2156 2228 2338 
Q 2531 2678 2651 2914 
Q 2772 3150 2772 3378 
Q 2772 3750 2511 3984 
Q 2250 4219 1831 4219 
Q 1534 4219 1204 4116 
Q 875 4013 500 3803 
L 500 4441 
Q 881 4594 1212 4672 
Q 1544 4750 1819 4750 
Q 2544 4750 2975 4387 
Q 3406 4025 3406 3419 
Q 3406 3131 3298 2873 
Q 3191 2616 2906 2266 
Q 2828 2175 2409 1742 
Q 1991 1309 1228 531 
z
" transform="scale(0.015625)"/>
       </defs>
       <use xlink:href="#DejaVuSans-2212"/>
       <use xlink:href="#DejaVuSans-32" x="83.789062"/>
       <use xlink:href="#DejaVuSans-30" x="147.412109"/>
      </g>
     </g>
    </g>
    <g id="xtick_4">
     <g id="line2d_4">
      <g>
       <use xlink:href="#mdc42092667" x="127.896687" y="269.911219" style="stroke: #000000; stroke-width: 0.8"/>
      </g>
     </g>
     <g id="text_4">
      <!-- −10 -->
      <g transform="translate(117.344344 284.509656) scale(0.1 -0.1)">
       <defs>
        <path id="DejaVuSans-31" d="M 794 531 
L 1825 531 
L 1825 4091 
L 703 3866 
L 703 4441 
L 1819 4666 
L 2450 4666 
L 2450 531 
L 3481 531 
L 3481 0 
L 794 0 
L 794 531 
z
" transform="scale(0.015625)"/>
       </defs>
       <use xlink:href="#DejaVuSans-2212"/>
       <use xlink:href="#DejaVuSans-31" x="83.789062"/>
       <use xlink:href="#DejaVuSans-30" x="147.412109"/>
      </g>
     </g>
    </g>
    <g id="xtick_5">
     <g id="line2d_5">
      <g>
       <use xlink:href="#mdc42092667" x="161.160687" y="269.911219" style="stroke: #000000; stroke-width: 0.8"/>
      </g>
     </g>
     <g id="text_5">
      <!-- 0 -->
      <g transform="translate(157.979437 284.509656) scale(0.1 -0.1)">
       <use xlink:href="#DejaVuSans-30"/>
      </g>
     </g>
    </g>
    <g id="xtick_6">
     <g id="line2d_6">
      <g>
       <use xlink:href="#mdc42092667" x="194.424688" y="269.911219" style="stroke: #000000; stroke-width: 0.8"/>
      </g>
     </g>
     <g id="text_6">
      <!-- 10 -->
      <g transform="translate(188.062187 284.509656) scale(0.1 -0.1)">
       <use xlink:href="#DejaVuSans-31"/>
       <use xlink:href="#DejaVuSans-30" x="63.623047"/>
      </g>
     </g>
    </g>
    <g id="xtick_7">
     <g id="line2d_7">
      <g>
       <use xlink:href="#mdc42092667" x="227.688687" y="269.911219" style="stroke: #000000; stroke-width: 0.8"/>
      </g>
     </g>
     <g id="text_7">
      <!-- 20 -->
      <g transform="translate(221.326187 284.509656) scale(0.1 -0.1)">
       <use xlink:href="#DejaVuSans-32"/>
       <use xlink:href="#DejaVuSans-30" x="63.623047"/>
      </g>
     </g>
    </g>
    <g id="xtick_8">
     <g id="line2d_8">
      <g>
       <use xlink:href="#mdc42092667" x="260.952687" y="269.911219" style="stroke: #000000; stroke-width: 0.8"/>
      </g>
     </g>
     <g id="text_8">
      <!-- 30 -->
      <g transform="translate(254.590187 284.509656) scale(0.1 -0.1)">
       <use xlink:href="#DejaVuSans-33"/>
       <use xlink:href="#DejaVuSans-30" x="63.623047"/>
      </g>
     </g>
    </g>
    <g id="xtick_9">
     <g id="line2d_9">
      <g>
       <use xlink:href="#mdc42092667" x="294.216687" y="269.911219" style="stroke: #000000; stroke-width: 0.8"/>
      </g>
     </g>
     <g id="text_9">
      <!-- 40 -->
      <g transform="translate(287.854187 284.509656) scale(0.1 -0.1)">
       <use xlink:href="#DejaVuSans-34"/>
       <use xlink:href="#DejaVuSans-30" x="63.623047"/>
      </g>
     </g>
    </g>
   </g>
   <g id="matplotlib.axis_2">
    <g id="ytick_1">
     <g id="line2d_10">
      <defs>
       <path id="m944bec5ae2" d="M 0 0 
L -3.5 0 
" style="stroke: #000000; stroke-width: 0.8"/>
      </defs>
      <g>
       <use xlink:href="#m944bec5ae2" x="28.104688" y="269.911219" style="stroke: #000000; stroke-width: 0.8"/>
      </g>
     </g>
     <g id="text_10">
      <!-- −40 -->
      <g transform="translate(0 273.710437) scale(0.1 -0.1)">
       <use xlink:href="#DejaVuSans-2212"/>
       <use xlink:href="#DejaVuSans-34" x="83.789062"/>
       <use xlink:href="#DejaVuSans-30" x="147.412109"/>
      </g>
     </g>
    </g>
    <g id="ytick_2">
     <g id="line2d_11">
      <g>
       <use xlink:href="#m944bec5ae2" x="28.104688" y="236.647219" style="stroke: #000000; stroke-width: 0.8"/>
      </g>
     </g>
     <g id="text_11">
      <!-- −30 -->
      <g transform="translate(0 240.446437) scale(0.1 -0.1)">
       <use xlink:href="#DejaVuSans-2212"/>
       <use xlink:href="#DejaVuSans-33" x="83.789062"/>
       <use xlink:href="#DejaVuSans-30" x="147.412109"/>
      </g>
     </g>
    </g>
    <g id="ytick_3">
     <g id="line2d_12">
      <g>
       <use xlink:href="#m944bec5ae2" x="28.104688" y="203.383219" style="stroke: #000000; stroke-width: 0.8"/>
      </g>
     </g>
     <g id="text_12">
      <!-- −20 -->
      <g transform="translate(0 207.182437) scale(0.1 -0.1)">
       <use xlink:href="#DejaVuSans-2212"/>
       <use xlink:href="#DejaVuSans-32" x="83.789062"/>
       <use xlink:href="#DejaVuSans-30" x="147.412109"/>
      </g>
     </g>
    </g>
    <g id="ytick_4">
     <g id="line2d_13">
      <g>
       <use xlink:href="#m944bec5ae2" x="28.104688" y="170.119219" style="stroke: #000000; stroke-width: 0.8"/>
      </g>
     </g>
     <g id="text_13">
      <!-- −10 -->
      <g transform="translate(0 173.918437) scale(0.1 -0.1)">
       <use xlink:href="#DejaVuSans-2212"/>
       <use xlink:href="#DejaVuSans-31" x="83.789062"/>
       <use xlink:href="#DejaVuSans-30" x="147.412109"/>
      </g>
     </g>
    </g>
    <g id="ytick_5">
     <g id="line2d_14">
      <g>
       <use xlink:href="#m944bec5ae2" x="28.104688" y="136.855219" style="stroke: #000000; stroke-width: 0.8"/>
      </g>
     </g>
     <g id="text_14">
      <!-- 0 -->
      <g transform="translate(14.742188 140.654437) scale(0.1 -0.1)">
       <use xlink:href="#DejaVuSans-30"/>
      </g>
     </g>
    </g>
    <g id="ytick_6">
     <g id="line2d_15">
      <g>
       <use xlink:href="#m944bec5ae2" x="28.104688" y="103.591219" style="stroke: #000000; stroke-width: 0.8"/>
      </g>
     </g>
     <g id="text_15">
      <!-- 10 -->
      <g transform="translate(8.379688 107.390437) scale(0.1 -0.1)">
       <use xlink:href="#DejaVuSans-31"/>
       <use xlink:href="#DejaVuSans-30" x="63.623047"/>
      </g>
     </g>
    </g>
    <g id="ytick_7">
     <g id="line2d_16">
      <g>
       <use xlink:href="#m944bec5ae2" x="28.104688" y="70.327219" style="stroke: #000000; stroke-width: 0.8"/>
      </g>
     </g>
     <g id="text_16">
      <!-- 20 -->
      <g transform="translate(8.379688 74.126437) scale(0.1 -0.1)">
       <use xlink:href="#DejaVuSans-32"/>
       <use xlink:href="#DejaVuSans-30" x="63.623047"/>
      </g>
     </g>
    </g>
    <g id="ytick_8">
     <g id="line2d_17">
      <g>
       <use xlink:href="#m944bec5ae2" x="28.104688" y="37.063219" style="stroke: #000000; stroke-width: 0.8"/>
      </g>
     </g>
     <g id="text_17">
      <!-- 30 -->
      <g transform="translate(8.379688 40.862437) scale(0.1 -0.1)">
       <use xlink:href="#DejaVuSans-33"/>
       <use xlink:href="#DejaVuSans-30" x="63.623047"/>
      </g>
     </g>
    </g>
    <g id="ytick_9">
     <g id="line2d_18">
      <g>
       <use xlink:href="#m944bec5ae2" x="28.104688" y="3.799219" style="stroke: #000000; stroke-width: 0.8"/>
      </g>
     </g>
     <g id="text_18">
      <!-- 40 -->
      <g transform="translate(8.379688 7.598437) scale(0.1 -0.1)">
       <use xlink:href="#DejaVuSans-34"/>
       <use xlink:href="#DejaVuSans-30" x="63.623047"/>
      </g>
     </g>
    </g>
   </g>
   <g id="line2d_19">
    <path d="M 175.297888 250.784419 
L 175.297888 150.992419 
" clip-path="url(#p83cb29d514)" style="fill: none; stroke: #000000; stroke-width: 0.25; stroke-linecap: square"/>
   </g>
   <g id="line2d_20">
    <path d="M 175.297888 150.992419 
L 275.089887 150.992419 
" clip-path="url(#p83cb29d514)" style="fill: none; stroke: #000000; stroke-width: 0.25; stroke-linecap: square"/>
   </g>
   <g id="line2d_21">
    <path d="M 275.089887 122.718019 
L 175.297888 122.718019 
" clip-path="url(#p83cb29d514)" style="fill: none; stroke: #000000; stroke-width: 0.25; stroke-linecap: square"/>
   </g>
   <g id="line2d_22">
    <path d="M 175.297888 122.718019 
L 175.297888 22.926019 
" clip-path="url(#p83cb29d514)" style="fill: none; stroke: #000000; stroke-width: 0.25; stroke-linecap: square"/>
   </g>
   <g id="line2d_23">
    <path d="M 147.023487 22.926019 
L 147.023487 122.718019 
" clip-path="url(#p83cb29d514)" style="fill: none; stroke: #000000; stroke-width: 0.25; stroke-linecap: square"/>
   </g>
   <g id="line2d_24">
    <path d="M 147.023487 122.718019 
L 47.231488 122.718019 
" clip-path="url(#p83cb29d514)" style="fill: none; stroke: #000000; stroke-width: 0.25; stroke-linecap: square"/>
   </g>
   <g id="line2d_25">
    <path d="M 47.231488 150.992419 
L 147.023487 150.992419 
" clip-path="url(#p83cb29d514)" style="fill: none; stroke: #000000; stroke-width: 0.25; stroke-linecap: square"/>
   </g>
   <g id="line2d_26">
    <path d="M 147.023487 150.992419 
L 147.023487 250.784419 
" clip-path="url(#p83cb29d514)" style="fill: none; stroke: #000000; stroke-width: 0.25; stroke-linecap: square"/>
   </g>
   <g id="line2d_27">
    <path d="M 175.297888 136.855219 
L 275.089887 136.855219 
" clip-path="url(#p83cb29d514)" style="fill: none; stroke-dasharray: 0.925,0.4; stroke-dashoffset: 0; stroke: #000000; stroke-width: 0.25"/>
   </g>
   <g id="line2d_28">
    <path d="M 161.160687 122.718019 
L 161.160687 22.926019 
" clip-path="url(#p83cb29d514)" style="fill: none; stroke-dasharray: 0.925,0.4; stroke-dashoffset: 0; stroke: #000000; stroke-width: 0.25"/>
   </g>
   <g id="line2d_29">
    <path d="M 147.023487 136.855219 
L 47.231488 136.855219 
" clip-path="url(#p83cb29d514)" style="fill: none; stroke-dasharray: 0.925,0.4; stroke-dashoffset: 0; stroke: #000000; stroke-width: 0.25"/>
   </g>
   <g id="line2d_30">
    <path d="M 161.160687 150.992419 
L 161.160687 250.784419 
" clip-path="url(#p83cb29d514)" style="fill: none; stroke-dasharray: 0.925,0.4; stroke-dashoffset: 0; stroke: #000000; stroke-width: 0.25"/>
   </g>
   <g id="line2d_31">
    <path d="M 34.933967 130.999396 
L 33.260896 130.999396 
L 31.587837 130.999395 
L 29.914789 130.999395 
L 28.241753 130.999395 
L 26.568726 130.999395 
L 24.895708 130.999395 
L 23.222698 130.999396 
L 21.549695 130.999396 
L 19.876699 130.999396 
L 18.203707 130.999397 
L 16.530719 130.999397 
L 14.857735 130.999397 
L 13.184755 130.999398 
L 11.511776 130.999398 
L 9.8388 130.999398 
L 8.165825 130.999398 
L 6.492851 130.999398 
L 4.819878 130.999399 
L 3.146905 130.999399 
L 1.473933 130.999399 
L -0.19904 130.999399 
L -1 130.999399 
" clip-path="url(#p83cb29d514)" style="fill: none; stroke: #ff0000; stroke-width: 0.25; stroke-linecap: square"/>
   </g>
   <g id="line2d_32">
    <path d="M 167.016508 6.4427 
L 167.016509 4.892437 
L 167.01651 3.342156 
L 167.016511 1.791861 
L 167.016511 0.241552 
L 167.016511 -1 
" clip-path="url(#p83cb29d514)" style="fill: none; stroke: #ff0000; stroke-width: 0.25; stroke-linecap: square"/>
   </g>
   <g id="line2d_33">
    <path d="M 155.304866 261.684659 
L 155.304866 263.336656 
L 155.304864 264.988662 
L 155.304864 266.640677 
L 155.304863 268.292703 
L 155.304863 269.944739 
L 155.304863 271.596783 
L 155.304863 273.248837 
L 155.304864 274.900899 
L 155.304864 276.552969 
L 155.304865 278.205046 
L 155.304865 279.85713 
L 155.304865 281.509219 
L 155.304866 283.161314 
L 155.304866 284.813413 
L 155.304866 286.465516 
L 155.304867 287.589344 
" clip-path="url(#p83cb29d514)" style="fill: none; stroke: #ff0000; stroke-width: 0.25; stroke-linecap: square"/>
   </g>
   <g id="line2d_34">
    <path d="M 285.990044 142.71104 
L 287.642061 142.71104 
L 289.294086 142.71104 
L 290.946118 142.71104 
L 292.598157 142.71104 
L 294.250203 142.71104 
L 295.902257 142.711039 
L 297.554318 142.711039 
L 299.206386 142.711039 
L 300.85846 142.711039 
L 301.579188 142.711039 
" clip-path="url(#p83cb29d514)" style="fill: none; stroke: #ff0000; stroke-width: 0.25; stroke-linecap: square"/>
   </g>
   <g id="line2d_35">
    <path d="M 167.016067 55.042287 
L 167.016165 53.380888 
L 167.016249 51.720217 
L 167.016319 50.060309 
L 167.016376 48.401174 
L 167.016422 46.742805 
L 167.016458 45.085182 
L 167.016486 43.428272 
L 167.016506 41.772037 
L 167.01652 40.11643 
L 167.01653 38.461402 
L 167.016536 36.806901 
L 167.016539 35.152876 
L 167.016539 33.499275 
L 167.016539 31.846047 
L 167.016537 30.193147 
L 167.016534 28.540529 
L 167.016532 26.888152 
L 167.016529 25.235978 
L 167.016526 23.583974 
L 167.016523 21.932109 
L 167.01652 20.280356 
L 167.016518 18.628693 
L 167.016516 16.977099 
L 167.016514 15.325559 
L 167.016512 13.674057 
L 167.016511 12.022585 
L 167.016509 10.371131 
L 167.016508 8.71969 
L 167.016507 7.068256 
L 167.016506 5.416826 
" clip-path="url(#p83cb29d514)" style="fill: none; stroke: #ff0000; stroke-width: 0.25; stroke-linecap: square"/>
   </g>
   <g id="line2d_36">
    <path d="M 79.303993 131.000215 
L 77.648582 131.000028 
L 75.99352 130.999864 
L 74.3388 130.999729 
L 72.684409 130.99962 
L 71.030329 130.999533 
L 69.376541 130.999467 
L 67.723023 130.999417 
L 66.069751 130.999381 
L 64.416701 130.999357 
L 62.763851 130.999341 
L 61.111176 130.999332 
L 59.458656 130.999329 
L 57.806269 130.99933 
L 56.153996 130.999333 
L 54.50182 130.999338 
L 52.849724 130.999344 
L 51.197693 130.99935 
L 49.545716 130.999357 
L 47.893781 130.999363 
L 46.241878 130.999369 
L 44.59 130.999374 
L 42.938141 130.999379 
L 41.286294 130.999383 
L 39.634456 130.999387 
L 37.982623 130.99939 
L 36.330794 130.999393 
L 34.678967 130.999396 
L 33.02714 130.999398 
L 31.375314 130.9994 
L 29.723487 130.999402 
" clip-path="url(#p83cb29d514)" style="fill: none; stroke: #ff0000; stroke-width: 0.25; stroke-linecap: square"/>
   </g>
   <g id="line2d_37">
    <path d="M 243.855418 142.711017 
L 245.53255 142.711031 
L 247.209508 142.711049 
L 248.886243 142.711061 
L 250.562724 142.711069 
L 252.238928 142.711073 
L 253.914844 142.711074 
L 255.590467 142.711074 
L 257.265801 142.711072 
L 258.940853 142.711069 
L 260.615635 142.711066 
L 262.290163 142.711063 
L 263.964454 142.711059 
L 265.638527 142.711056 
L 267.312401 142.711053 
L 268.986095 142.71105 
L 270.65963 142.711048 
L 272.333025 142.711046 
L 274.006296 142.711044 
L 275.679462 142.711043 
L 277.352538 142.711041 
L 279.025538 142.71104 
L 280.698475 142.71104 
L 282.371361 142.711039 
L 284.044207 142.711039 
L 285.717021 142.711038 
L 287.389811 142.711038 
L 289.062584 142.711038 
L 290.735345 142.711038 
L 292.408099 142.711038 
L 294.080849 142.711038 
" clip-path="url(#p83cb29d514)" style="fill: none; stroke: #ff0000; stroke-width: 0.25; stroke-linecap: square"/>
   </g>
   <g id="line2d_38">
    <path d="M 167.004507 85.19427 
L 167.006229 83.831 
L 167.007216 82.465979 
L 167.008235 81.099147 
L 167.009246 79.730492 
L 167.010221 78.360039 
L 167.011137 76.987846 
L 167.011983 75.613995 
L 167.012749 74.238584 
L 167.013434 72.861723 
L 167.014036 71.483532 
L 167.014559 70.104134 
L 167.015007 68.723649 
L 167.015385 67.3422 
L 167.015699 65.959901 
L 167.015956 64.576864 
L 167.016163 63.193191 
L 167.016326 61.808976 
L 167.016451 60.424307 
L 167.016545 59.03926 
L 167.016613 57.653905 
L 167.016659 56.268302 
L 167.016688 54.882503 
L 167.016704 53.496552 
L 167.01671 52.110486 
L 167.016708 50.724336 
L 167.016702 49.338125 
L 167.016694 47.951874 
L 167.016684 46.565597 
L 167.016675 45.179305 
L 167.016669 43.793006 
" clip-path="url(#p83cb29d514)" style="fill: none; stroke: #ff0000; stroke-width: 0.25; stroke-linecap: square"/>
   </g>
   <g id="line2d_39">
    <path d="M 204.651746 142.643218 
L 206.201879 142.661145 
L 207.75409 142.67871 
L 209.307974 142.692545 
L 210.863134 142.703181 
L 212.419222 142.711118 
L 213.97594 142.716817 
L 215.533037 142.720692 
L 217.090301 142.723112 
L 218.64756 142.724394 
L 220.204675 142.72481 
L 221.761539 142.724591 
L 223.318071 142.723922 
L 224.874211 142.722958 
L 226.429922 142.721818 
L 227.985184 142.720597 
L 229.539991 142.719364 
L 231.094349 142.71817 
L 232.648273 142.71705 
L 234.201788 142.716024 
L 235.754923 142.715105 
L 237.307712 142.714293 
L 238.860192 142.713588 
L 240.412403 142.71298 
L 241.964383 142.712459 
L 243.516173 142.712012 
L 245.067811 142.711625 
L 246.619332 142.711283 
L 248.170772 142.71097 
L 249.722161 142.710672 
L 251.273526 142.710369 
" clip-path="url(#p83cb29d514)" style="fill: none; stroke: #ff0000; stroke-width: 0.25; stroke-linecap: square"/>
   </g>
   <g id="line2d_40">
    <path d="M 155.30514 203.894597 
L 155.305006 205.836643 
L 155.304876 207.783751 
L 155.304788 209.735235 
L 155.304733 211.690455 
L 155.304703 213.648815 
L 155.304691 215.609772 
L 155.304692 217.572836 
L 155.304702 219.537565 
L 155.304717 221.503574 
L 155.304736 223.470522 
L 155.304755 225.43812 
L 155.304774 227.40612 
L 155.304791 229.374318 
L 155.304807 231.342545 
L 155.304821 233.310669 
L 155.304833 235.278588 
L 155.304843 237.246228 
L 155.304851 239.213538 
L 155.304857 241.180489 
L 155.304862 243.14707 
L 155.304866 245.113284 
L 155.304868 247.07915 
L 155.30487 249.044692 
L 155.304871 251.009946 
L 155.304871 252.97495 
L 155.304871 254.939747 
L 155.304871 256.904384 
L 155.304871 258.868903 
L 155.30487 260.833349 
L 155.30487 262.79776 
" clip-path="url(#p83cb29d514)" style="fill: none; stroke: #ff0000; stroke-width: 0.25; stroke-linecap: square"/>
   </g>
   <g id="line2d_41">
    <path d="M 117.678204 131.095747 
L 116.125484 131.070018 
L 114.571067 131.044777 
L 113.015294 131.024944 
L 111.458547 131.009738 
L 109.901154 130.99843 
L 108.343388 130.990347 
L 106.785476 130.984885 
L 105.227603 130.981511 
L 103.669916 130.979764 
L 102.112526 130.979251 
L 100.555521 130.979643 
L 98.998958 130.980668 
L 97.442876 130.982109 
L 95.887295 130.983792 
L 94.332221 130.985583 
L 92.777646 130.987384 
L 91.223552 130.989122 
L 89.669913 130.990749 
L 88.116699 130.992235 
L 86.563873 130.993566 
L 85.011395 130.994737 
L 83.459226 130.995754 
L 81.907324 130.996629 
L 80.355647 130.997378 
L 78.804156 130.99802 
L 77.252811 130.998576 
L 75.701578 130.999067 
L 74.150422 130.999517 
L 72.599313 130.999946 
L 71.048226 131.000379 
" clip-path="url(#p83cb29d514)" style="fill: none; stroke: #ff0000; stroke-width: 0.25; stroke-linecap: square"/>
   </g>
   <g id="line2d_42">
    <path d="M 155.391238 180.444536 
L 155.363758 182.017997 
L 155.335919 183.586667 
L 155.314887 185.1512 
L 155.299504 186.712081 
L 155.288727 188.269783 
L 155.28164 189.824754 
L 155.277456 191.377419 
L 155.275499 192.928167 
L 155.275208 194.477355 
L 155.276116 196.0253 
L 155.277848 197.572286 
L 155.280103 199.118559 
L 155.282646 200.66433 
L 155.285298 202.209777 
L 155.287929 203.755049 
L 155.290444 205.300267 
L 155.292781 206.845523 
L 155.294902 208.390891 
L 155.29679 209.93642 
L 155.298441 211.482144 
L 155.299863 213.028079 
L 155.301073 214.574231 
L 155.302092 216.120591 
L 155.302948 217.667145 
L 155.303666 219.21387 
L 155.304278 220.760738 
L 155.304811 222.307719 
L 155.305295 223.854781 
L 155.305757 225.401894 
L 155.306225 226.949029 
" clip-path="url(#p83cb29d514)" style="fill: none; stroke: #ff0000; stroke-width: 0.25; stroke-linecap: square"/>
   </g>
   <g id="patch_15">
    <path d="M 28.104688 269.911219 
L 28.104688 3.799219 
" style="fill: none; stroke: #000000; stroke-width: 0.8; stroke-linejoin: miter; stroke-linecap: square"/>
   </g>
   <g id="patch_16">
    <path d="M 294.216687 269.911219 
L 294.216687 3.799219 
" style="fill: none; stroke: #000000; stroke-width: 0.8; stroke-linejoin: miter; stroke-linecap: square"/>
   </g>
   <g id="patch_17">
    <path d="M 28.104688 269.911219 
L 294.216687 269.911219 
" style="fill: none; stroke: #000000; stroke-width: 0.8; stroke-linejoin: miter; stroke-linecap: square"/>
   </g>
   <g id="patch_18">
    <path d="M 28.104688 3.799219 
L 294.216687 3.799219 
" style="fill: none; stroke: #000000; stroke-width: 0.8; stroke-linejoin: miter; stroke-linecap: square"/>
   </g>
   <g id="text_19">
    <!-- Time: 10.6 s -->
    <g transform="translate(192.6327 17.104819) scale(0.1 -0.1)">
     <defs>
      <path id="DejaVuSans-54" d="M -19 4666 
L 3928 4666 
L 3928 4134 
L 2272 4134 
L 2272 0 
L 1638 0 
L 1638 4134 
L -19 4134 
L -19 4666 
z
" transform="scale(0.015625)"/>
      <path id="DejaVuSans-69" d="M 603 3500 
L 1178 3500 
L 1178 0 
L 603 0 
L 603 3500 
z
M 603 4863 
L 1178 4863 
L 1178 4134 
L 603 4134 
L 603 4863 
z
" transform="scale(0.015625)"/>
      <path id="DejaVuSans-6d" d="M 3328 2828 
Q 3544 3216 3844 3400 
Q 4144 3584 4550 3584 
Q 5097 3584 5394 3201 
Q 5691 2819 5691 2113 
L 5691 0 
L 5113 0 
L 5113 2094 
Q 5113 2597 4934 2840 
Q 4756 3084 4391 3084 
Q 3944 3084 3684 2787 
Q 3425 2491 3425 1978 
L 3425 0 
L 2847 0 
L 2847 2094 
Q 2847 2600 2669 2842 
Q 2491 3084 2119 3084 
Q 1678 3084 1418 2786 
Q 1159 2488 1159 1978 
L 1159 0 
L 581 0 
L 581 3500 
L 1159 3500 
L 1159 2956 
Q 1356 3278 1631 3431 
Q 1906 3584 2284 3584 
Q 2666 3584 2933 3390 
Q 3200 3197 3328 2828 
z
" transform="scale(0.015625)"/>
      <path id="DejaVuSans-65" d="M 3597 1894 
L 3597 1613 
L 953 1613 
Q 991 1019 1311 708 
Q 1631 397 2203 397 
Q 2534 397 2845 478 
Q 3156 559 3463 722 
L 3463 178 
Q 3153 47 2828 -22 
Q 2503 -91 2169 -91 
Q 1331 -91 842 396 
Q 353 884 353 1716 
Q 353 2575 817 3079 
Q 1281 3584 2069 3584 
Q 2775 3584 3186 3129 
Q 3597 2675 3597 1894 
z
M 3022 2063 
Q 3016 2534 2758 2815 
Q 2500 3097 2075 3097 
Q 1594 3097 1305 2825 
Q 1016 2553 972 2059 
L 3022 2063 
z
" transform="scale(0.015625)"/>
      <path id="DejaVuSans-3a" d="M 750 794 
L 1409 794 
L 1409 0 
L 750 0 
L 750 794 
z
M 750 3309 
L 1409 3309 
L 1409 2516 
L 750 2516 
L 750 3309 
z
" transform="scale(0.015625)"/>
      <path id="DejaVuSans-20" transform="scale(0.015625)"/>
      <path id="DejaVuSans-2e" d="M 684 794 
L 1344 794 
L 1344 0 
L 684 0 
L 684 794 
z
" transform="scale(0.015625)"/>
      <path id="DejaVuSans-36" d="M 2113 2584 
Q 1688 2584 1439 2293 
Q 1191 2003 1191 1497 
Q 1191 994 1439 701 
Q 1688 409 2113 409 
Q 2538 409 2786 701 
Q 3034 994 3034 1497 
Q 3034 2003 2786 2293 
Q 2538 2584 2113 2584 
z
M 3366 4563 
L 3366 3988 
Q 3128 4100 2886 4159 
Q 2644 4219 2406 4219 
Q 1781 4219 1451 3797 
Q 1122 3375 1075 2522 
Q 1259 2794 1537 2939 
Q 1816 3084 2150 3084 
Q 2853 3084 3261 2657 
Q 3669 2231 3669 1497 
Q 3669 778 3244 343 
Q 2819 -91 2113 -91 
Q 1303 -91 875 529 
Q 447 1150 447 2328 
Q 447 3434 972 4092 
Q 1497 4750 2381 4750 
Q 2619 4750 2861 4703 
Q 3103 4656 3366 4563 
z
" transform="scale(0.015625)"/>
      <path id="DejaVuSans-73" d="M 2834 3397 
L 2834 2853 
Q 2591 2978 2328 3040 
Q 2066 3103 1784 3103 
Q 1356 3103 1142 2972 
Q 928 2841 928 2578 
Q 928 2378 1081 2264 
Q 1234 2150 1697 2047 
L 1894 2003 
Q 2506 1872 2764 1633 
Q 3022 1394 3022 966 
Q 3022 478 2636 193 
Q 2250 -91 1575 -91 
Q 1294 -91 989 -36 
Q 684 19 347 128 
L 347 722 
Q 666 556 975 473 
Q 1284 391 1588 391 
Q 1994 391 2212 530 
Q 2431 669 2431 922 
Q 2431 1156 2273 1281 
Q 2116 1406 1581 1522 
L 1381 1569 
Q 847 1681 609 1914 
Q 372 2147 372 2553 
Q 372 3047 722 3315 
Q 1072 3584 1716 3584 
Q 2034 3584 2315 3537 
Q 2597 3491 2834 3397 
z
" transform="scale(0.015625)"/>
     </defs>
     <use xlink:href="#DejaVuSans-54"/>
     <use xlink:href="#DejaVuSans-69" x="57.958984"/>
     <use xlink:href="#DejaVuSans-6d" x="85.742188"/>
     <use xlink:href="#DejaVuSans-65" x="183.154297"/>
     <use xlink:href="#DejaVuSans-3a" x="244.677734"/>
     <use xlink:href="#DejaVuSans-20" x="278.369141"/>
     <use xlink:href="#DejaVuSans-31" x="310.15625"/>
     <use xlink:href="#DejaVuSans-30" x="373.779297"/>
     <use xlink:href="#DejaVuSans-2e" x="437.402344"/>
     <use xlink:href="#DejaVuSans-36" x="469.189453"/>
     <use xlink:href="#DejaVuSans-20" x="532.8125"/>
     <use xlink:href="#DejaVuSans-73" x="564.599609"/>
    </g>
   </g>
  </g>
 </g>
 <defs>
  <clipPath id="p83cb29d514">
   <rect x="28.104688" y="3.799219" width="266.112" height="266.112"/>
  </clipPath>
 </defs>
</svg>
