<?xml version="1.0" encoding="utf-8" standalone="no"?>
<!DOCTYPE svg PUBLIC "-//W3C//DTD SVG 1.1//EN"
  "http://www.w3.org/Graphics/SVG/1.1/DTD/svg11.dtd">
<svg xmlns:xlink="http://www.w3.org/1999/xlink" width="300.579188pt" height="286.589344pt" viewBox="0 0 300.579188 286.589344" xmlns="http://www.w3.org/2000/svg" version="1.1">
 <metadata>
  <rdf:RDF xmlns:dc="http://purl.org/dc/elements/1.1/" xmlns:cc="http://creativecommons.org/ns#" xmlns:rdf="http://www.w3.org/1999/02/22-rdf-syntax-ns#">
   <cc:Work>
    <dc:type rdf:resource="http://purl.org/dc/dcmitype/StillImage"/>
    <dc:date>2024-02-26T10:14:16.633787</dc:date>
    <dc:format>image/svg+xml</dc:format>
    <dc:creator>
     <cc:Agent>
      <dc:title>Matplotlib v3.8.2, https://matplotlib.org/</dc:title>
     </cc:Agent>
    </dc:creator>
   </cc:Work>
  </rdf:RDF>
 </metadata>
 <defs>
  <style type="text/css">*{stroke-linejoin: round; stroke-linecap: butt}</style>
 </defs>
 <g id="figure_1">
  <g id="patch_1">
   <path d="M 0 286.589344 
L 300.579188 286.589344 
L 300.579188 0 
L 0 0 
z
" style="fill: #ffffff"/>
  </g>
  <g id="axes_1">
   <g id="patch_2">
    <path d="M 28.104688 269.911219 
L 294.216687 269.911219 
L 294.216687 3.799219 
L 28.104688 3.799219 
z
" style="fill: #ffffff"/>
   </g>
   <g id="patch_3">
    <path d="M 32.389927 128.171959 
L 20.747527 128.171954 
L 20.747525 133.826834 
L 32.389925 133.826839 
z
" clip-path="url(#pad12ce1445)" style="fill: #00008b"/>
   </g>
   <g id="patch_4">
    <path d="M 169.843945 4.512435 
L 169.843953 -7.129965 
L 164.189073 -7.129969 
L 164.189065 4.512431 
z
" clip-path="url(#pad12ce1445)" style="fill: #800000"/>
   </g>
   <g id="patch_5">
    <path d="M 152.47743 264.123536 
L 152.477421 275.765936 
L 158.132301 275.765941 
L 158.13231 264.123541 
z
" clip-path="url(#pad12ce1445)" style="fill: #006400"/>
   </g>
   <g id="patch_6">
    <path d="M 288.429003 145.538479 
L 300.071403 145.538479 
L 300.071403 139.883599 
L 288.429003 139.883599 
z
" clip-path="url(#pad12ce1445)" style="fill: #4b0082"/>
   </g>
   <g id="patch_7">
    <path d="M 169.843608 52.564118 
L 169.844067 40.921718 
L 164.189187 40.921495 
L 164.188728 52.563895 
z
" clip-path="url(#pad12ce1445)" style="fill: #0000ff"/>
   </g>
   <g id="patch_8">
    <path d="M 76.851753 128.172607 
L 65.209353 128.171698 
L 65.208911 133.826578 
L 76.851311 133.827487 
z
" clip-path="url(#pad12ce1445)" style="fill: #ff0000"/>
   </g>
   <g id="patch_9">
    <path d="M 246.417703 145.538434 
L 258.060103 145.538547 
L 258.060158 139.883667 
L 246.417758 139.883554 
z
" clip-path="url(#pad12ce1445)" style="fill: #dbdc56"/>
   </g>
   <g id="patch_10">
    <path d="M 169.837195 84.182063 
L 169.840608 72.539664 
L 164.185728 72.538006 
L 164.182315 84.180406 
z
" clip-path="url(#pad12ce1445)" style="fill: #9400d3"/>
   </g>
   <g id="patch_11">
    <path d="M 206.569932 145.468466 
L 218.21174 145.585877 
L 218.268768 139.931284 
L 206.62696 139.813874 
z
" clip-path="url(#pad12ce1445)" style="fill: #1e90ff"/>
   </g>
   <g id="patch_12">
    <path d="M 152.477662 207.827557 
L 152.477095 219.469957 
L 158.131975 219.470232 
L 158.132542 207.827833 
z
" clip-path="url(#pad12ce1445)" style="fill: #ff4500"/>
   </g>
   <g id="patch_13">
    <path d="M 115.762549 128.271981 
L 104.121374 128.103096 
L 104.039344 133.757381 
L 115.680519 133.926266 
z
" clip-path="url(#pad12ce1445)" style="fill: #7cfc00"/>
   </g>
   <g id="patch_14">
    <path d="M 152.577589 182.403748 
L 152.389167 194.044624 
L 158.043306 194.136143 
L 158.231728 182.495268 
z
" clip-path="url(#pad12ce1445)" style="fill: #ff00ff"/>
   </g>
   <g id="matplotlib.axis_1">
    <g id="xtick_1">
     <g id="line2d_1">
      <defs>
       <path id="m10b3eabdfa" d="M 0 0 
L 0 3.5 
" style="stroke: #000000; stroke-width: 0.8"/>
      </defs>
      <g>
       <use xlink:href="#m10b3eabdfa" x="28.104688" y="269.911219" style="stroke: #000000; stroke-width: 0.8"/>
      </g>
     </g>
     <g id="text_1">
      <!-- −40 -->
      <g transform="translate(17.552344 284.509656) scale(0.1 -0.1)">
       <defs>
        <path id="DejaVuSans-2212" d="M 678 2272 
L 4684 2272 
L 4684 1741 
L 678 1741 
L 678 2272 
z
" transform="scale(0.015625)"/>
        <path id="DejaVuSans-34" d="M 2419 4116 
L 825 1625 
L 2419 1625 
L 2419 4116 
z
M 2253 4666 
L 3047 4666 
L 3047 1625 
L 3713 1625 
L 3713 1100 
L 3047 1100 
L 3047 0 
L 2419 0 
L 2419 1100 
L 313 1100 
L 313 1709 
L 2253 4666 
z
" transform="scale(0.015625)"/>
        <path id="DejaVuSans-30" d="M 2034 4250 
Q 1547 4250 1301 3770 
Q 1056 3291 1056 2328 
Q 1056 1369 1301 889 
Q 1547 409 2034 409 
Q 2525 409 2770 889 
Q 3016 1369 3016 2328 
Q 3016 3291 2770 3770 
Q 2525 4250 2034 4250 
z
M 2034 4750 
Q 2819 4750 3233 4129 
Q 3647 3509 3647 2328 
Q 3647 1150 3233 529 
Q 2819 -91 2034 -91 
Q 1250 -91 836 529 
Q 422 1150 422 2328 
Q 422 3509 836 4129 
Q 1250 4750 2034 4750 
z
" transform="scale(0.015625)"/>
       </defs>
       <use xlink:href="#DejaVuSans-2212"/>
       <use xlink:href="#DejaVuSans-34" x="83.789062"/>
       <use xlink:href="#DejaVuSans-30" x="147.412109"/>
      </g>
     </g>
    </g>
    <g id="xtick_2">
     <g id="line2d_2">
      <g>
       <use xlink:href="#m10b3eabdfa" x="61.368688" y="269.911219" style="stroke: #000000; stroke-width: 0.8"/>
      </g>
     </g>
     <g id="text_2">
      <!-- −30 -->
      <g transform="translate(50.816344 284.509656) scale(0.1 -0.1)">
       <defs>
        <path id="DejaVuSans-33" d="M 2597 2516 
Q 3050 2419 3304 2112 
Q 3559 1806 3559 1356 
Q 3559 666 3084 287 
Q 2609 -91 1734 -91 
Q 1441 -91 1130 -33 
Q 819 25 488 141 
L 488 750 
Q 750 597 1062 519 
Q 1375 441 1716 441 
Q 2309 441 2620 675 
Q 2931 909 2931 1356 
Q 2931 1769 2642 2001 
Q 2353 2234 1838 2234 
L 1294 2234 
L 1294 2753 
L 1863 2753 
Q 2328 2753 2575 2939 
Q 2822 3125 2822 3475 
Q 2822 3834 2567 4026 
Q 2313 4219 1838 4219 
Q 1578 4219 1281 4162 
Q 984 4106 628 3988 
L 628 4550 
Q 988 4650 1302 4700 
Q 1616 4750 1894 4750 
Q 2613 4750 3031 4423 
Q 3450 4097 3450 3541 
Q 3450 3153 3228 2886 
Q 3006 2619 2597 2516 
z
" transform="scale(0.015625)"/>
       </defs>
       <use xlink:href="#DejaVuSans-2212"/>
       <use xlink:href="#DejaVuSans-33" x="83.789062"/>
       <use xlink:href="#DejaVuSans-30" x="147.412109"/>
      </g>
     </g>
    </g>
    <g id="xtick_3">
     <g id="line2d_3">
      <g>
       <use xlink:href="#m10b3eabdfa" x="94.632688" y="269.911219" style="stroke: #000000; stroke-width: 0.8"/>
      </g>
     </g>
     <g id="text_3">
      <!-- −20 -->
      <g transform="translate(84.080344 284.509656) scale(0.1 -0.1)">
       <defs>
        <path id="DejaVuSans-32" d="M 1228 531 
L 3431 531 
L 3431 0 
L 469 0 
L 469 531 
Q 828 903 1448 1529 
Q 2069 2156 2228 2338 
Q 2531 2678 2651 2914 
Q 2772 3150 2772 3378 
Q 2772 3750 2511 3984 
Q 2250 4219 1831 4219 
Q 1534 4219 1204 4116 
Q 875 4013 500 3803 
L 500 4441 
Q 881 4594 1212 4672 
Q 1544 4750 1819 4750 
Q 2544 4750 2975 4387 
Q 3406 4025 3406 3419 
Q 3406 3131 3298 2873 
Q 3191 2616 2906 2266 
Q 2828 2175 2409 1742 
Q 1991 1309 1228 531 
z
" transform="scale(0.015625)"/>
       </defs>
       <use xlink:href="#DejaVuSans-2212"/>
       <use xlink:href="#DejaVuSans-32" x="83.789062"/>
       <use xlink:href="#DejaVuSans-30" x="147.412109"/>
      </g>
     </g>
    </g>
    <g id="xtick_4">
     <g id="line2d_4">
      <g>
       <use xlink:href="#m10b3eabdfa" x="127.896687" y="269.911219" style="stroke: #000000; stroke-width: 0.8"/>
      </g>
     </g>
     <g id="text_4">
      <!-- −10 -->
      <g transform="translate(117.344344 284.509656) scale(0.1 -0.1)">
       <defs>
        <path id="DejaVuSans-31" d="M 794 531 
L 1825 531 
L 1825 4091 
L 703 3866 
L 703 4441 
L 1819 4666 
L 2450 4666 
L 2450 531 
L 3481 531 
L 3481 0 
L 794 0 
L 794 531 
z
" transform="scale(0.015625)"/>
       </defs>
       <use xlink:href="#DejaVuSans-2212"/>
       <use xlink:href="#DejaVuSans-31" x="83.789062"/>
       <use xlink:href="#DejaVuSans-30" x="147.412109"/>
      </g>
     </g>
    </g>
    <g id="xtick_5">
     <g id="line2d_5">
      <g>
       <use xlink:href="#m10b3eabdfa" x="161.160687" y="269.911219" style="stroke: #000000; stroke-width: 0.8"/>
      </g>
     </g>
     <g id="text_5">
      <!-- 0 -->
      <g transform="translate(157.979437 284.509656) scale(0.1 -0.1)">
       <use xlink:href="#DejaVuSans-30"/>
      </g>
     </g>
    </g>
    <g id="xtick_6">
     <g id="line2d_6">
      <g>
       <use xlink:href="#m10b3eabdfa" x="194.424688" y="269.911219" style="stroke: #000000; stroke-width: 0.8"/>
      </g>
     </g>
     <g id="text_6">
      <!-- 10 -->
      <g transform="translate(188.062187 284.509656) scale(0.1 -0.1)">
       <use xlink:href="#DejaVuSans-31"/>
       <use xlink:href="#DejaVuSans-30" x="63.623047"/>
      </g>
     </g>
    </g>
    <g id="xtick_7">
     <g id="line2d_7">
      <g>
       <use xlink:href="#m10b3eabdfa" x="227.688687" y="269.911219" style="stroke: #000000; stroke-width: 0.8"/>
      </g>
     </g>
     <g id="text_7">
      <!-- 20 -->
      <g transform="translate(221.326187 284.509656) scale(0.1 -0.1)">
       <use xlink:href="#DejaVuSans-32"/>
       <use xlink:href="#DejaVuSans-30" x="63.623047"/>
      </g>
     </g>
    </g>
    <g id="xtick_8">
     <g id="line2d_8">
      <g>
       <use xlink:href="#m10b3eabdfa" x="260.952687" y="269.911219" style="stroke: #000000; stroke-width: 0.8"/>
      </g>
     </g>
     <g id="text_8">
      <!-- 30 -->
      <g transform="translate(254.590187 284.509656) scale(0.1 -0.1)">
       <use xlink:href="#DejaVuSans-33"/>
       <use xlink:href="#DejaVuSans-30" x="63.623047"/>
      </g>
     </g>
    </g>
    <g id="xtick_9">
     <g id="line2d_9">
      <g>
       <use xlink:href="#m10b3eabdfa" x="294.216687" y="269.911219" style="stroke: #000000; stroke-width: 0.8"/>
      </g>
     </g>
     <g id="text_9">
      <!-- 40 -->
      <g transform="translate(287.854187 284.509656) scale(0.1 -0.1)">
       <use xlink:href="#DejaVuSans-34"/>
       <use xlink:href="#DejaVuSans-30" x="63.623047"/>
      </g>
     </g>
    </g>
   </g>
   <g id="matplotlib.axis_2">
    <g id="ytick_1">
     <g id="line2d_10">
      <defs>
       <path id="m43dd6490ce" d="M 0 0 
L -3.5 0 
" style="stroke: #000000; stroke-width: 0.8"/>
      </defs>
      <g>
       <use xlink:href="#m43dd6490ce" x="28.104688" y="269.911219" style="stroke: #000000; stroke-width: 0.8"/>
      </g>
     </g>
     <g id="text_10">
      <!-- −40 -->
      <g transform="translate(0 273.710437) scale(0.1 -0.1)">
       <use xlink:href="#DejaVuSans-2212"/>
       <use xlink:href="#DejaVuSans-34" x="83.789062"/>
       <use xlink:href="#DejaVuSans-30" x="147.412109"/>
      </g>
     </g>
    </g>
    <g id="ytick_2">
     <g id="line2d_11">
      <g>
       <use xlink:href="#m43dd6490ce" x="28.104688" y="236.647219" style="stroke: #000000; stroke-width: 0.8"/>
      </g>
     </g>
     <g id="text_11">
      <!-- −30 -->
      <g transform="translate(0 240.446437) scale(0.1 -0.1)">
       <use xlink:href="#DejaVuSans-2212"/>
       <use xlink:href="#DejaVuSans-33" x="83.789062"/>
       <use xlink:href="#DejaVuSans-30" x="147.412109"/>
      </g>
     </g>
    </g>
    <g id="ytick_3">
     <g id="line2d_12">
      <g>
       <use xlink:href="#m43dd6490ce" x="28.104688" y="203.383219" style="stroke: #000000; stroke-width: 0.8"/>
      </g>
     </g>
     <g id="text_12">
      <!-- −20 -->
      <g transform="translate(0 207.182437) scale(0.1 -0.1)">
       <use xlink:href="#DejaVuSans-2212"/>
       <use xlink:href="#DejaVuSans-32" x="83.789062"/>
       <use xlink:href="#DejaVuSans-30" x="147.412109"/>
      </g>
     </g>
    </g>
    <g id="ytick_4">
     <g id="line2d_13">
      <g>
       <use xlink:href="#m43dd6490ce" x="28.104688" y="170.119219" style="stroke: #000000; stroke-width: 0.8"/>
      </g>
     </g>
     <g id="text_13">
      <!-- −10 -->
      <g transform="translate(0 173.918437) scale(0.1 -0.1)">
       <use xlink:href="#DejaVuSans-2212"/>
       <use xlink:href="#DejaVuSans-31" x="83.789062"/>
       <use xlink:href="#DejaVuSans-30" x="147.412109"/>
      </g>
     </g>
    </g>
    <g id="ytick_5">
     <g id="line2d_14">
      <g>
       <use xlink:href="#m43dd6490ce" x="28.104688" y="136.855219" style="stroke: #000000; stroke-width: 0.8"/>
      </g>
     </g>
     <g id="text_14">
      <!-- 0 -->
      <g transform="translate(14.742188 140.654437) scale(0.1 -0.1)">
       <use xlink:href="#DejaVuSans-30"/>
      </g>
     </g>
    </g>
    <g id="ytick_6">
     <g id="line2d_15">
      <g>
       <use xlink:href="#m43dd6490ce" x="28.104688" y="103.591219" style="stroke: #000000; stroke-width: 0.8"/>
      </g>
     </g>
     <g id="text_15">
      <!-- 10 -->
      <g transform="translate(8.379688 107.390437) scale(0.1 -0.1)">
       <use xlink:href="#DejaVuSans-31"/>
       <use xlink:href="#DejaVuSans-30" x="63.623047"/>
      </g>
     </g>
    </g>
    <g id="ytick_7">
     <g id="line2d_16">
      <g>
       <use xlink:href="#m43dd6490ce" x="28.104688" y="70.327219" style="stroke: #000000; stroke-width: 0.8"/>
      </g>
     </g>
     <g id="text_16">
      <!-- 20 -->
      <g transform="translate(8.379688 74.126437) scale(0.1 -0.1)">
       <use xlink:href="#DejaVuSans-32"/>
       <use xlink:href="#DejaVuSans-30" x="63.623047"/>
      </g>
     </g>
    </g>
    <g id="ytick_8">
     <g id="line2d_17">
      <g>
       <use xlink:href="#m43dd6490ce" x="28.104688" y="37.063219" style="stroke: #000000; stroke-width: 0.8"/>
      </g>
     </g>
     <g id="text_17">
      <!-- 30 -->
      <g transform="translate(8.379688 40.862437) scale(0.1 -0.1)">
       <use xlink:href="#DejaVuSans-33"/>
       <use xlink:href="#DejaVuSans-30" x="63.623047"/>
      </g>
     </g>
    </g>
    <g id="ytick_9">
     <g id="line2d_18">
      <g>
       <use xlink:href="#m43dd6490ce" x="28.104688" y="3.799219" style="stroke: #000000; stroke-width: 0.8"/>
      </g>
     </g>
     <g id="text_18">
      <!-- 40 -->
      <g transform="translate(8.379688 7.598437) scale(0.1 -0.1)">
       <use xlink:href="#DejaVuSans-34"/>
       <use xlink:href="#DejaVuSans-30" x="63.623047"/>
      </g>
     </g>
    </g>
   </g>
   <g id="line2d_19">
    <path d="M 175.297888 250.784419 
L 175.297888 150.992419 
" clip-path="url(#pad12ce1445)" style="fill: none; stroke: #000000; stroke-width: 0.25; stroke-linecap: square"/>
   </g>
   <g id="line2d_20">
    <path d="M 175.297888 150.992419 
L 275.089887 150.992419 
" clip-path="url(#pad12ce1445)" style="fill: none; stroke: #000000; stroke-width: 0.25; stroke-linecap: square"/>
   </g>
   <g id="line2d_21">
    <path d="M 275.089887 122.718019 
L 175.297888 122.718019 
" clip-path="url(#pad12ce1445)" style="fill: none; stroke: #000000; stroke-width: 0.25; stroke-linecap: square"/>
   </g>
   <g id="line2d_22">
    <path d="M 175.297888 122.718019 
L 175.297888 22.926019 
" clip-path="url(#pad12ce1445)" style="fill: none; stroke: #000000; stroke-width: 0.25; stroke-linecap: square"/>
   </g>
   <g id="line2d_23">
    <path d="M 147.023487 22.926019 
L 147.023487 122.718019 
" clip-path="url(#pad12ce1445)" style="fill: none; stroke: #000000; stroke-width: 0.25; stroke-linecap: square"/>
   </g>
   <g id="line2d_24">
    <path d="M 147.023487 122.718019 
L 47.231488 122.718019 
" clip-path="url(#pad12ce1445)" style="fill: none; stroke: #000000; stroke-width: 0.25; stroke-linecap: square"/>
   </g>
   <g id="line2d_25">
    <path d="M 47.231488 150.992419 
L 147.023487 150.992419 
" clip-path="url(#pad12ce1445)" style="fill: none; stroke: #000000; stroke-width: 0.25; stroke-linecap: square"/>
   </g>
   <g id="line2d_26">
    <path d="M 147.023487 150.992419 
L 147.023487 250.784419 
" clip-path="url(#pad12ce1445)" style="fill: none; stroke: #000000; stroke-width: 0.25; stroke-linecap: square"/>
   </g>
   <g id="line2d_27">
    <path d="M 175.297888 136.855219 
L 275.089887 136.855219 
" clip-path="url(#pad12ce1445)" style="fill: none; stroke-dasharray: 0.925,0.4; stroke-dashoffset: 0; stroke: #000000; stroke-width: 0.25"/>
   </g>
   <g id="line2d_28">
    <path d="M 161.160687 122.718019 
L 161.160687 22.926019 
" clip-path="url(#pad12ce1445)" style="fill: none; stroke-dasharray: 0.925,0.4; stroke-dashoffset: 0; stroke: #000000; stroke-width: 0.25"/>
   </g>
   <g id="line2d_29">
    <path d="M 147.023487 136.855219 
L 47.231488 136.855219 
" clip-path="url(#pad12ce1445)" style="fill: none; stroke-dasharray: 0.925,0.4; stroke-dashoffset: 0; stroke: #000000; stroke-width: 0.25"/>
   </g>
   <g id="line2d_30">
    <path d="M 161.160687 150.992419 
L 161.160687 250.784419 
" clip-path="url(#pad12ce1445)" style="fill: none; stroke-dasharray: 0.925,0.4; stroke-dashoffset: 0; stroke: #000000; stroke-width: 0.25"/>
   </g>
   <g id="line2d_31">
    <path d="M 28.241753 130.999396 
L 26.568726 130.999397 
L 24.895709 130.999397 
L 23.222699 130.999397 
L 21.549696 130.999397 
L 19.876699 130.999397 
L 18.203708 130.999397 
L 16.53072 130.999398 
L 14.857737 130.999398 
L 13.184756 130.999398 
L 11.511778 130.999398 
L 9.838801 130.999398 
L 8.165826 130.999398 
L 6.492852 130.999399 
L 4.819878 130.999399 
L 3.146905 130.999399 
L 1.473932 130.999399 
L -0.199041 130.999399 
L -1 130.999399 
" clip-path="url(#pad12ce1445)" style="fill: none; stroke: #ff0000; stroke-width: 0.25; stroke-linecap: square"/>
   </g>
   <g id="line2d_32">
    <path d="M 167.016509 0.241552 
L 167.016509 -1 
" clip-path="url(#pad12ce1445)" style="fill: none; stroke: #ff0000; stroke-width: 0.25; stroke-linecap: square"/>
   </g>
   <g id="line2d_33">
    <path d="M 155.304865 268.292703 
L 155.304865 269.944739 
L 155.304865 271.596783 
L 155.304865 273.248837 
L 155.304865 274.900899 
L 155.304866 276.552969 
L 155.304866 278.205046 
L 155.304866 279.85713 
L 155.304866 281.509219 
L 155.304866 283.161314 
L 155.304867 284.813413 
L 155.304867 286.465516 
L 155.304867 287.589344 
" clip-path="url(#pad12ce1445)" style="fill: none; stroke: #ff0000; stroke-width: 0.25; stroke-linecap: square"/>
   </g>
   <g id="line2d_34">
    <path d="M 292.598157 142.711039 
L 294.250203 142.711039 
L 295.902257 142.711039 
L 297.554318 142.711039 
L 299.206386 142.711039 
L 300.85846 142.711039 
L 301.579188 142.711039 
" clip-path="url(#pad12ce1445)" style="fill: none; stroke: #ff0000; stroke-width: 0.25; stroke-linecap: square"/>
   </g>
   <g id="line2d_35">
    <path d="M 167.016358 48.401174 
L 167.016398 46.742807 
L 167.016435 45.085185 
L 167.016465 43.428279 
L 167.016487 41.772046 
L 167.016504 40.116441 
L 167.016516 38.461414 
L 167.016524 36.806913 
L 167.016529 35.152886 
L 167.016532 33.49928 
L 167.016533 31.846046 
L 167.016532 30.193135 
L 167.016531 28.540503 
L 167.016529 26.888107 
L 167.016527 25.23591 
L 167.016524 23.583877 
L 167.016522 21.931977 
L 167.01652 20.280184 
L 167.016518 18.628474 
L 167.016516 16.976826 
L 167.016514 15.325226 
L 167.016513 13.673657 
L 167.016511 12.022111 
L 167.01651 10.370578 
L 167.01651 8.719052 
L 167.016509 7.067528 
L 167.016508 5.416004 
L 167.016508 3.764479 
L 167.016507 2.112952 
L 167.016507 0.461424 
L 167.016506 -1 
" clip-path="url(#pad12ce1445)" style="fill: none; stroke: #ff0000; stroke-width: 0.25; stroke-linecap: square"/>
   </g>
   <g id="line2d_36">
    <path d="M 72.68441 130.999665 
L 71.030332 130.999592 
L 69.376546 130.999522 
L 67.723031 130.999467 
L 66.069762 130.999425 
L 64.416715 130.999395 
L 62.763868 130.999373 
L 61.111196 130.999359 
L 59.458677 130.999351 
L 57.806291 130.999347 
L 56.154017 130.999346 
L 54.501837 130.999348 
L 52.849736 130.999352 
L 51.197698 130.999356 
L 49.54571 130.999361 
L 47.893761 130.999366 
L 46.241841 130.99937 
L 44.589941 130.999375 
L 42.938056 130.999379 
L 41.286179 130.999383 
L 39.634306 130.999386 
L 37.982433 130.999389 
L 36.330559 130.999392 
L 34.678681 130.999394 
L 33.026798 130.999395 
L 31.374911 130.999397 
L 29.72302 130.999398 
L 28.071125 130.999399 
L 26.419227 130.999399 
L 24.767327 130.9994 
L 23.115426 130.999401 
" clip-path="url(#pad12ce1445)" style="fill: none; stroke: #ff0000; stroke-width: 0.25; stroke-linecap: square"/>
   </g>
   <g id="line2d_37">
    <path d="M 250.562725 142.711049 
L 252.238931 142.71105 
L 253.914848 142.711054 
L 255.590474 142.711056 
L 257.26581 142.711056 
L 258.940865 142.711056 
L 260.615651 142.711055 
L 262.290183 142.711053 
L 263.964479 142.711052 
L 265.638557 142.71105 
L 267.312436 142.711049 
L 268.986137 142.711047 
L 270.659678 142.711045 
L 272.333079 142.711044 
L 274.006357 142.711043 
L 275.67953 142.711042 
L 277.352612 142.711041 
L 279.025619 142.711041 
L 280.698562 142.71104 
L 282.371453 142.711039 
L 284.044303 142.711039 
L 285.717119 142.711039 
L 287.38991 142.711039 
L 289.062681 142.711039 
L 290.735438 142.711038 
L 292.408184 142.711038 
L 294.080923 142.711038 
L 295.753657 142.711038 
L 297.426389 142.711038 
L 299.099118 142.711038 
L 300.771847 142.711038 
" clip-path="url(#pad12ce1445)" style="fill: none; stroke: #ff0000; stroke-width: 0.25; stroke-linecap: square"/>
   </g>
   <g id="line2d_38">
    <path d="M 167.010401 79.730491 
L 167.011462 78.360035 
L 167.012268 76.987836 
L 167.012997 75.613977 
L 167.013647 74.238558 
L 167.014216 72.861691 
L 167.014709 71.483495 
L 167.01513 70.104095 
L 167.015485 68.723613 
L 167.015779 67.342173 
L 167.016019 65.959889 
L 167.016212 64.576876 
L 167.016364 63.193235 
L 167.01648 61.809064 
L 167.016567 60.424451 
L 167.01663 59.039473 
L 167.016672 57.654201 
L 167.016698 56.268697 
L 167.016711 54.883013 
L 167.016714 53.497194 
L 167.01671 52.111278 
L 167.0167 50.725295 
L 167.016686 49.339268 
L 167.01667 47.953218 
L 167.016652 46.567156 
L 167.016634 45.181092 
L 167.016616 43.795031 
L 167.016598 42.408977 
L 167.01658 41.022929 
L 167.016564 39.636885 
L 167.016548 38.250844 
" clip-path="url(#pad12ce1445)" style="fill: none; stroke: #ff0000; stroke-width: 0.25; stroke-linecap: square"/>
   </g>
   <g id="line2d_39">
    <path d="M 210.863229 142.693876 
L 212.41935 142.699875 
L 213.976101 142.706474 
L 215.533239 142.71138 
L 217.090553 142.714886 
L 218.647867 142.717256 
L 220.205039 142.718722 
L 221.761959 142.719485 
L 223.318542 142.719713 
L 224.874725 142.71955 
L 226.430469 142.719112 
L 227.985748 142.718493 
L 229.540553 142.717768 
L 231.094884 142.716995 
L 232.648755 142.716216 
L 234.202183 142.715463 
L 235.755193 142.714758 
L 237.307814 142.714114 
L 238.860079 142.713538 
L 240.41202 142.713033 
L 241.963674 142.712598 
L 243.515073 142.712228 
L 245.066254 142.711918 
L 246.617247 142.711661 
L 248.168085 142.711449 
L 249.718798 142.711273 
L 251.269411 142.711126 
L 252.819951 142.710999 
L 254.370439 142.710886 
L 255.920895 142.710779 
L 257.471336 142.710667 
" clip-path="url(#pad12ce1445)" style="fill: none; stroke: #ff0000; stroke-width: 0.25; stroke-linecap: square"/>
   </g>
   <g id="line2d_40">
    <path d="M 155.304835 211.690489 
L 155.304819 213.648895 
L 155.304796 215.60992 
L 155.304785 217.573069 
L 155.304781 219.537896 
L 155.304784 221.504007 
L 155.30479 223.471059 
L 155.304798 225.438755 
L 155.304807 227.406842 
L 155.304817 229.375108 
L 155.304826 231.343379 
L 155.304834 233.311514 
L 155.304841 235.279404 
L 155.304848 237.246966 
L 155.304853 239.214141 
L 155.304857 241.180892 
L 155.304861 243.147198 
L 155.304864 245.113052 
L 155.304866 247.078463 
L 155.304867 249.043448 
L 155.304868 251.008031 
L 155.304869 252.972244 
L 155.304869 254.936123 
L 155.304869 256.899708 
L 155.304869 258.86304 
L 155.304869 260.82616 
L 155.304869 262.789109 
L 155.304869 264.751928 
L 155.304869 266.714653 
L 155.304868 268.67732 
L 155.304868 270.639958 
" clip-path="url(#pad12ce1445)" style="fill: none; stroke: #ff0000; stroke-width: 0.25; stroke-linecap: square"/>
   </g>
   <g id="line2d_41">
    <path d="M 111.458375 131.023241 
L 109.900947 131.014681 
L 108.343161 131.005295 
L 106.785222 130.998344 
L 105.227313 130.9934 
L 103.669584 130.99008 
L 102.112152 130.988051 
L 100.555102 130.987023 
L 98.998499 130.986752 
L 97.442383 130.987035 
L 95.886777 130.987704 
L 94.33169 130.988625 
L 92.777118 130.989692 
L 91.223047 130.990823 
L 89.669455 130.991956 
L 88.116316 130.993048 
L 86.563597 130.994068 
L 85.011264 130.994998 
L 83.459282 130.995828 
L 81.907612 130.996555 
L 80.35622 130.99718 
L 78.805068 130.99771 
L 77.254123 130.998154 
L 75.703351 130.998523 
L 74.152724 130.998826 
L 72.602212 130.999076 
L 71.051789 130.999285 
L 69.501434 130.999465 
L 67.951124 130.999626 
L 66.400843 130.999778 
L 64.850574 130.999936 
" clip-path="url(#pad12ce1445)" style="fill: none; stroke: #ff0000; stroke-width: 0.25; stroke-linecap: square"/>
   </g>
   <g id="line2d_42">
    <path d="M 155.317883 186.712271 
L 155.310448 188.269946 
L 155.301533 189.824838 
L 155.295293 191.377409 
L 155.291194 192.928054 
L 155.288778 194.477135 
L 155.287654 196.024975 
L 155.287496 197.571863 
L 155.288035 199.118049 
L 155.289053 200.663752 
L 155.290376 202.209155 
L 155.291868 203.754415 
L 155.293426 205.299657 
L 155.294972 206.844984 
L 155.296452 208.390475 
L 155.297827 209.936189 
L 155.299077 211.482168 
L 155.300187 213.028436 
L 155.301157 214.575007 
L 155.301988 216.121882 
L 155.302689 217.669052 
L 155.303273 219.216503 
L 155.303751 220.764213 
L 155.304138 222.312156 
L 155.30445 223.860302 
L 155.3047 225.40862 
L 155.304904 226.957079 
L 155.305076 228.505647 
L 155.305227 230.054291 
L 155.30537 231.602985 
L 155.30552 233.1517 
" clip-path="url(#pad12ce1445)" style="fill: none; stroke: #ff0000; stroke-width: 0.25; stroke-linecap: square"/>
   </g>
   <g id="patch_15">
    <path d="M 28.104688 269.911219 
L 28.104688 3.799219 
" style="fill: none; stroke: #000000; stroke-width: 0.8; stroke-linejoin: miter; stroke-linecap: square"/>
   </g>
   <g id="patch_16">
    <path d="M 294.216687 269.911219 
L 294.216687 3.799219 
" style="fill: none; stroke: #000000; stroke-width: 0.8; stroke-linejoin: miter; stroke-linecap: square"/>
   </g>
   <g id="patch_17">
    <path d="M 28.104688 269.911219 
L 294.216687 269.911219 
" style="fill: none; stroke: #000000; stroke-width: 0.8; stroke-linejoin: miter; stroke-linecap: square"/>
   </g>
   <g id="patch_18">
    <path d="M 28.104688 3.799219 
L 294.216687 3.799219 
" style="fill: none; stroke: #000000; stroke-width: 0.8; stroke-linejoin: miter; stroke-linecap: square"/>
   </g>
   <g id="text_19">
    <!-- Time: 11.0 s -->
    <g transform="translate(192.6327 17.104819) scale(0.1 -0.1)">
     <defs>
      <path id="DejaVuSans-54" d="M -19 4666 
L 3928 4666 
L 3928 4134 
L 2272 4134 
L 2272 0 
L 1638 0 
L 1638 4134 
L -19 4134 
L -19 4666 
z
" transform="scale(0.015625)"/>
      <path id="DejaVuSans-69" d="M 603 3500 
L 1178 3500 
L 1178 0 
L 603 0 
L 603 3500 
z
M 603 4863 
L 1178 4863 
L 1178 4134 
L 603 4134 
L 603 4863 
z
" transform="scale(0.015625)"/>
      <path id="DejaVuSans-6d" d="M 3328 2828 
Q 3544 3216 3844 3400 
Q 4144 3584 4550 3584 
Q 5097 3584 5394 3201 
Q 5691 2819 5691 2113 
L 5691 0 
L 5113 0 
L 5113 2094 
Q 5113 2597 4934 2840 
Q 4756 3084 4391 3084 
Q 3944 3084 3684 2787 
Q 3425 2491 3425 1978 
L 3425 0 
L 2847 0 
L 2847 2094 
Q 2847 2600 2669 2842 
Q 2491 3084 2119 3084 
Q 1678 3084 1418 2786 
Q 1159 2488 1159 1978 
L 1159 0 
L 581 0 
L 581 3500 
L 1159 3500 
L 1159 2956 
Q 1356 3278 1631 3431 
Q 1906 3584 2284 3584 
Q 2666 3584 2933 3390 
Q 3200 3197 3328 2828 
z
" transform="scale(0.015625)"/>
      <path id="DejaVuSans-65" d="M 3597 1894 
L 3597 1613 
L 953 1613 
Q 991 1019 1311 708 
Q 1631 397 2203 397 
Q 2534 397 2845 478 
Q 3156 559 3463 722 
L 3463 178 
Q 3153 47 2828 -22 
Q 2503 -91 2169 -91 
Q 1331 -91 842 396 
Q 353 884 353 1716 
Q 353 2575 817 3079 
Q 1281 3584 2069 3584 
Q 2775 3584 3186 3129 
Q 3597 2675 3597 1894 
z
M 3022 2063 
Q 3016 2534 2758 2815 
Q 2500 3097 2075 3097 
Q 1594 3097 1305 2825 
Q 1016 2553 972 2059 
L 3022 2063 
z
" transform="scale(0.015625)"/>
      <path id="DejaVuSans-3a" d="M 750 794 
L 1409 794 
L 1409 0 
L 750 0 
L 750 794 
z
M 750 3309 
L 1409 3309 
L 1409 2516 
L 750 2516 
L 750 3309 
z
" transform="scale(0.015625)"/>
      <path id="DejaVuSans-20" transform="scale(0.015625)"/>
      <path id="DejaVuSans-2e" d="M 684 794 
L 1344 794 
L 1344 0 
L 684 0 
L 684 794 
z
" transform="scale(0.015625)"/>
      <path id="DejaVuSans-73" d="M 2834 3397 
L 2834 2853 
Q 2591 2978 2328 3040 
Q 2066 3103 1784 3103 
Q 1356 3103 1142 2972 
Q 928 2841 928 2578 
Q 928 2378 1081 2264 
Q 1234 2150 1697 2047 
L 1894 2003 
Q 2506 1872 2764 1633 
Q 3022 1394 3022 966 
Q 3022 478 2636 193 
Q 2250 -91 1575 -91 
Q 1294 -91 989 -36 
Q 684 19 347 128 
L 347 722 
Q 666 556 975 473 
Q 1284 391 1588 391 
Q 1994 391 2212 530 
Q 2431 669 2431 922 
Q 2431 1156 2273 1281 
Q 2116 1406 1581 1522 
L 1381 1569 
Q 847 1681 609 1914 
Q 372 2147 372 2553 
Q 372 3047 722 3315 
Q 1072 3584 1716 3584 
Q 2034 3584 2315 3537 
Q 2597 3491 2834 3397 
z
" transform="scale(0.015625)"/>
     </defs>
     <use xlink:href="#DejaVuSans-54"/>
     <use xlink:href="#DejaVuSans-69" x="57.958984"/>
     <use xlink:href="#DejaVuSans-6d" x="85.742188"/>
     <use xlink:href="#DejaVuSans-65" x="183.154297"/>
     <use xlink:href="#DejaVuSans-3a" x="244.677734"/>
     <use xlink:href="#DejaVuSans-20" x="278.369141"/>
     <use xlink:href="#DejaVuSans-31" x="310.15625"/>
     <use xlink:href="#DejaVuSans-31" x="373.779297"/>
     <use xlink:href="#DejaVuSans-2e" x="437.402344"/>
     <use xlink:href="#DejaVuSans-30" x="469.189453"/>
     <use xlink:href="#DejaVuSans-20" x="532.8125"/>
     <use xlink:href="#DejaVuSans-73" x="564.599609"/>
    </g>
   </g>
  </g>
 </g>
 <defs>
  <clipPath id="pad12ce1445">
   <rect x="28.104688" y="3.799219" width="266.112" height="266.112"/>
  </clipPath>
 </defs>
</svg>
