<?xml version="1.0" encoding="utf-8" standalone="no"?>
<!DOCTYPE svg PUBLIC "-//W3C//DTD SVG 1.1//EN"
  "http://www.w3.org/Graphics/SVG/1.1/DTD/svg11.dtd">
<svg xmlns:xlink="http://www.w3.org/1999/xlink" width="300.579188pt" height="286.589344pt" viewBox="0 0 300.579188 286.589344" xmlns="http://www.w3.org/2000/svg" version="1.1">
 <metadata>
  <rdf:RDF xmlns:dc="http://purl.org/dc/elements/1.1/" xmlns:cc="http://creativecommons.org/ns#" xmlns:rdf="http://www.w3.org/1999/02/22-rdf-syntax-ns#">
   <cc:Work>
    <dc:type rdf:resource="http://purl.org/dc/dcmitype/StillImage"/>
    <dc:date>2024-02-26T10:13:28.899936</dc:date>
    <dc:format>image/svg+xml</dc:format>
    <dc:creator>
     <cc:Agent>
      <dc:title>Matplotlib v3.8.2, https://matplotlib.org/</dc:title>
     </cc:Agent>
    </dc:creator>
   </cc:Work>
  </rdf:RDF>
 </metadata>
 <defs>
  <style type="text/css">*{stroke-linejoin: round; stroke-linecap: butt}</style>
 </defs>
 <g id="figure_1">
  <g id="patch_1">
   <path d="M 0 286.589344 
L 300.579188 286.589344 
L 300.579188 0 
L 0 0 
z
" style="fill: #ffffff"/>
  </g>
  <g id="axes_1">
   <g id="patch_2">
    <path d="M 28.104688 269.911219 
L 294.216687 269.911219 
L 294.216687 3.799219 
L 28.104688 3.799219 
z
" style="fill: #ffffff"/>
   </g>
   <g id="patch_3">
    <path d="M 132.631009 127.283187 
L 120.995002 127.668968 
L 121.182381 133.320743 
L 132.818388 132.934962 
z
" clip-path="url(#p6fc9b053f4)" style="fill: #00008b"/>
   </g>
   <g id="patch_4">
    <path d="M 170.321533 97.737432 
L 170.723596 86.101977 
L 165.072089 85.906689 
L 164.670027 97.542145 
z
" clip-path="url(#p6fc9b053f4)" style="fill: #800000"/>
   </g>
   <g id="patch_5">
    <path d="M 151.899727 165.263297 
L 152.16386 176.9027 
L 157.817284 176.774407 
L 157.553151 165.135004 
z
" clip-path="url(#p6fc9b053f4)" style="fill: #006400"/>
   </g>
   <g id="patch_6">
    <path d="M 189.496941 146.271603 
L 201.138475 146.129588 
L 201.069497 140.475129 
L 189.427963 140.617143 
z
" clip-path="url(#p6fc9b053f4)" style="fill: #4b0082"/>
   </g>
   <g id="patch_7">
    <path d="M 171.399827 149.86469 
L 173.570754 138.426484 
L 168.015055 137.372033 
L 165.844127 148.810239 
z
" clip-path="url(#p6fc9b053f4)" style="fill: #0000ff"/>
   </g>
   <g id="patch_8">
    <path d="M 174.336522 125.530637 
L 163.225379 122.053861 
L 161.536659 127.450702 
L 172.647802 130.927478 
z
" clip-path="url(#p6fc9b053f4)" style="fill: #ff0000"/>
   </g>
   <g id="patch_9">
    <path d="M 151.452478 127.777295 
L 152.814254 139.339779 
L 158.430318 138.678345 
L 157.068542 127.115861 
z
" clip-path="url(#p6fc9b053f4)" style="fill: #dbdc56"/>
   </g>
   <g id="patch_10">
    <path d="M 133.272513 146.234716 
L 144.901044 146.80281 
L 145.176976 141.154666 
L 133.548444 140.586572 
z
" clip-path="url(#p6fc9b053f4)" style="fill: #9400d3"/>
   </g>
   <g id="patch_11">
    <path d="M 170.017178 197.588932 
L 170.397966 185.952761 
L 164.746112 185.767806 
L 164.365323 197.403977 
z
" clip-path="url(#p6fc9b053f4)" style="fill: #1e90ff"/>
   </g>
   <g id="patch_12">
    <path d="M 202.601469 127.349485 
L 190.977587 126.693094 
L 190.658769 132.338979 
L 202.282651 132.99537 
z
" clip-path="url(#p6fc9b053f4)" style="fill: #ff4500"/>
   </g>
   <g id="patch_13">
    <path d="M 152.112265 76.066407 
L 151.538085 87.69464 
L 157.186084 87.973527 
L 157.760264 76.345294 
z
" clip-path="url(#p6fc9b053f4)" style="fill: #7cfc00"/>
   </g>
   <g id="patch_14">
    <path d="M 100.463431 145.692582 
L 112.099077 146.089088 
L 112.291666 140.437489 
L 100.65602 140.040983 
z
" clip-path="url(#p6fc9b053f4)" style="fill: #ff00ff"/>
   </g>
   <g id="matplotlib.axis_1">
    <g id="xtick_1">
     <g id="line2d_1">
      <defs>
       <path id="mb71d424936" d="M 0 0 
L 0 3.5 
" style="stroke: #000000; stroke-width: 0.8"/>
      </defs>
      <g>
       <use xlink:href="#mb71d424936" x="28.104688" y="269.911219" style="stroke: #000000; stroke-width: 0.8"/>
      </g>
     </g>
     <g id="text_1">
      <!-- −40 -->
      <g transform="translate(17.552344 284.509656) scale(0.1 -0.1)">
       <defs>
        <path id="DejaVuSans-2212" d="M 678 2272 
L 4684 2272 
L 4684 1741 
L 678 1741 
L 678 2272 
z
" transform="scale(0.015625)"/>
        <path id="DejaVuSans-34" d="M 2419 4116 
L 825 1625 
L 2419 1625 
L 2419 4116 
z
M 2253 4666 
L 3047 4666 
L 3047 1625 
L 3713 1625 
L 3713 1100 
L 3047 1100 
L 3047 0 
L 2419 0 
L 2419 1100 
L 313 1100 
L 313 1709 
L 2253 4666 
z
" transform="scale(0.015625)"/>
        <path id="DejaVuSans-30" d="M 2034 4250 
Q 1547 4250 1301 3770 
Q 1056 3291 1056 2328 
Q 1056 1369 1301 889 
Q 1547 409 2034 409 
Q 2525 409 2770 889 
Q 3016 1369 3016 2328 
Q 3016 3291 2770 3770 
Q 2525 4250 2034 4250 
z
M 2034 4750 
Q 2819 4750 3233 4129 
Q 3647 3509 3647 2328 
Q 3647 1150 3233 529 
Q 2819 -91 2034 -91 
Q 1250 -91 836 529 
Q 422 1150 422 2328 
Q 422 3509 836 4129 
Q 1250 4750 2034 4750 
z
" transform="scale(0.015625)"/>
       </defs>
       <use xlink:href="#DejaVuSans-2212"/>
       <use xlink:href="#DejaVuSans-34" x="83.789062"/>
       <use xlink:href="#DejaVuSans-30" x="147.412109"/>
      </g>
     </g>
    </g>
    <g id="xtick_2">
     <g id="line2d_2">
      <g>
       <use xlink:href="#mb71d424936" x="61.368688" y="269.911219" style="stroke: #000000; stroke-width: 0.8"/>
      </g>
     </g>
     <g id="text_2">
      <!-- −30 -->
      <g transform="translate(50.816344 284.509656) scale(0.1 -0.1)">
       <defs>
        <path id="DejaVuSans-33" d="M 2597 2516 
Q 3050 2419 3304 2112 
Q 3559 1806 3559 1356 
Q 3559 666 3084 287 
Q 2609 -91 1734 -91 
Q 1441 -91 1130 -33 
Q 819 25 488 141 
L 488 750 
Q 750 597 1062 519 
Q 1375 441 1716 441 
Q 2309 441 2620 675 
Q 2931 909 2931 1356 
Q 2931 1769 2642 2001 
Q 2353 2234 1838 2234 
L 1294 2234 
L 1294 2753 
L 1863 2753 
Q 2328 2753 2575 2939 
Q 2822 3125 2822 3475 
Q 2822 3834 2567 4026 
Q 2313 4219 1838 4219 
Q 1578 4219 1281 4162 
Q 984 4106 628 3988 
L 628 4550 
Q 988 4650 1302 4700 
Q 1616 4750 1894 4750 
Q 2613 4750 3031 4423 
Q 3450 4097 3450 3541 
Q 3450 3153 3228 2886 
Q 3006 2619 2597 2516 
z
" transform="scale(0.015625)"/>
       </defs>
       <use xlink:href="#DejaVuSans-2212"/>
       <use xlink:href="#DejaVuSans-33" x="83.789062"/>
       <use xlink:href="#DejaVuSans-30" x="147.412109"/>
      </g>
     </g>
    </g>
    <g id="xtick_3">
     <g id="line2d_3">
      <g>
       <use xlink:href="#mb71d424936" x="94.632688" y="269.911219" style="stroke: #000000; stroke-width: 0.8"/>
      </g>
     </g>
     <g id="text_3">
      <!-- −20 -->
      <g transform="translate(84.080344 284.509656) scale(0.1 -0.1)">
       <defs>
        <path id="DejaVuSans-32" d="M 1228 531 
L 3431 531 
L 3431 0 
L 469 0 
L 469 531 
Q 828 903 1448 1529 
Q 2069 2156 2228 2338 
Q 2531 2678 2651 2914 
Q 2772 3150 2772 3378 
Q 2772 3750 2511 3984 
Q 2250 4219 1831 4219 
Q 1534 4219 1204 4116 
Q 875 4013 500 3803 
L 500 4441 
Q 881 4594 1212 4672 
Q 1544 4750 1819 4750 
Q 2544 4750 2975 4387 
Q 3406 4025 3406 3419 
Q 3406 3131 3298 2873 
Q 3191 2616 2906 2266 
Q 2828 2175 2409 1742 
Q 1991 1309 1228 531 
z
" transform="scale(0.015625)"/>
       </defs>
       <use xlink:href="#DejaVuSans-2212"/>
       <use xlink:href="#DejaVuSans-32" x="83.789062"/>
       <use xlink:href="#DejaVuSans-30" x="147.412109"/>
      </g>
     </g>
    </g>
    <g id="xtick_4">
     <g id="line2d_4">
      <g>
       <use xlink:href="#mb71d424936" x="127.896687" y="269.911219" style="stroke: #000000; stroke-width: 0.8"/>
      </g>
     </g>
     <g id="text_4">
      <!-- −10 -->
      <g transform="translate(117.344344 284.509656) scale(0.1 -0.1)">
       <defs>
        <path id="DejaVuSans-31" d="M 794 531 
L 1825 531 
L 1825 4091 
L 703 3866 
L 703 4441 
L 1819 4666 
L 2450 4666 
L 2450 531 
L 3481 531 
L 3481 0 
L 794 0 
L 794 531 
z
" transform="scale(0.015625)"/>
       </defs>
       <use xlink:href="#DejaVuSans-2212"/>
       <use xlink:href="#DejaVuSans-31" x="83.789062"/>
       <use xlink:href="#DejaVuSans-30" x="147.412109"/>
      </g>
     </g>
    </g>
    <g id="xtick_5">
     <g id="line2d_5">
      <g>
       <use xlink:href="#mb71d424936" x="161.160687" y="269.911219" style="stroke: #000000; stroke-width: 0.8"/>
      </g>
     </g>
     <g id="text_5">
      <!-- 0 -->
      <g transform="translate(157.979437 284.509656) scale(0.1 -0.1)">
       <use xlink:href="#DejaVuSans-30"/>
      </g>
     </g>
    </g>
    <g id="xtick_6">
     <g id="line2d_6">
      <g>
       <use xlink:href="#mb71d424936" x="194.424688" y="269.911219" style="stroke: #000000; stroke-width: 0.8"/>
      </g>
     </g>
     <g id="text_6">
      <!-- 10 -->
      <g transform="translate(188.062187 284.509656) scale(0.1 -0.1)">
       <use xlink:href="#DejaVuSans-31"/>
       <use xlink:href="#DejaVuSans-30" x="63.623047"/>
      </g>
     </g>
    </g>
    <g id="xtick_7">
     <g id="line2d_7">
      <g>
       <use xlink:href="#mb71d424936" x="227.688687" y="269.911219" style="stroke: #000000; stroke-width: 0.8"/>
      </g>
     </g>
     <g id="text_7">
      <!-- 20 -->
      <g transform="translate(221.326187 284.509656) scale(0.1 -0.1)">
       <use xlink:href="#DejaVuSans-32"/>
       <use xlink:href="#DejaVuSans-30" x="63.623047"/>
      </g>
     </g>
    </g>
    <g id="xtick_8">
     <g id="line2d_8">
      <g>
       <use xlink:href="#mb71d424936" x="260.952687" y="269.911219" style="stroke: #000000; stroke-width: 0.8"/>
      </g>
     </g>
     <g id="text_8">
      <!-- 30 -->
      <g transform="translate(254.590187 284.509656) scale(0.1 -0.1)">
       <use xlink:href="#DejaVuSans-33"/>
       <use xlink:href="#DejaVuSans-30" x="63.623047"/>
      </g>
     </g>
    </g>
    <g id="xtick_9">
     <g id="line2d_9">
      <g>
       <use xlink:href="#mb71d424936" x="294.216687" y="269.911219" style="stroke: #000000; stroke-width: 0.8"/>
      </g>
     </g>
     <g id="text_9">
      <!-- 40 -->
      <g transform="translate(287.854187 284.509656) scale(0.1 -0.1)">
       <use xlink:href="#DejaVuSans-34"/>
       <use xlink:href="#DejaVuSans-30" x="63.623047"/>
      </g>
     </g>
    </g>
   </g>
   <g id="matplotlib.axis_2">
    <g id="ytick_1">
     <g id="line2d_10">
      <defs>
       <path id="me1dc0b0dc3" d="M 0 0 
L -3.5 0 
" style="stroke: #000000; stroke-width: 0.8"/>
      </defs>
      <g>
       <use xlink:href="#me1dc0b0dc3" x="28.104688" y="269.911219" style="stroke: #000000; stroke-width: 0.8"/>
      </g>
     </g>
     <g id="text_10">
      <!-- −40 -->
      <g transform="translate(0 273.710437) scale(0.1 -0.1)">
       <use xlink:href="#DejaVuSans-2212"/>
       <use xlink:href="#DejaVuSans-34" x="83.789062"/>
       <use xlink:href="#DejaVuSans-30" x="147.412109"/>
      </g>
     </g>
    </g>
    <g id="ytick_2">
     <g id="line2d_11">
      <g>
       <use xlink:href="#me1dc0b0dc3" x="28.104688" y="236.647219" style="stroke: #000000; stroke-width: 0.8"/>
      </g>
     </g>
     <g id="text_11">
      <!-- −30 -->
      <g transform="translate(0 240.446437) scale(0.1 -0.1)">
       <use xlink:href="#DejaVuSans-2212"/>
       <use xlink:href="#DejaVuSans-33" x="83.789062"/>
       <use xlink:href="#DejaVuSans-30" x="147.412109"/>
      </g>
     </g>
    </g>
    <g id="ytick_3">
     <g id="line2d_12">
      <g>
       <use xlink:href="#me1dc0b0dc3" x="28.104688" y="203.383219" style="stroke: #000000; stroke-width: 0.8"/>
      </g>
     </g>
     <g id="text_12">
      <!-- −20 -->
      <g transform="translate(0 207.182437) scale(0.1 -0.1)">
       <use xlink:href="#DejaVuSans-2212"/>
       <use xlink:href="#DejaVuSans-32" x="83.789062"/>
       <use xlink:href="#DejaVuSans-30" x="147.412109"/>
      </g>
     </g>
    </g>
    <g id="ytick_4">
     <g id="line2d_13">
      <g>
       <use xlink:href="#me1dc0b0dc3" x="28.104688" y="170.119219" style="stroke: #000000; stroke-width: 0.8"/>
      </g>
     </g>
     <g id="text_13">
      <!-- −10 -->
      <g transform="translate(0 173.918437) scale(0.1 -0.1)">
       <use xlink:href="#DejaVuSans-2212"/>
       <use xlink:href="#DejaVuSans-31" x="83.789062"/>
       <use xlink:href="#DejaVuSans-30" x="147.412109"/>
      </g>
     </g>
    </g>
    <g id="ytick_5">
     <g id="line2d_14">
      <g>
       <use xlink:href="#me1dc0b0dc3" x="28.104688" y="136.855219" style="stroke: #000000; stroke-width: 0.8"/>
      </g>
     </g>
     <g id="text_14">
      <!-- 0 -->
      <g transform="translate(14.742188 140.654437) scale(0.1 -0.1)">
       <use xlink:href="#DejaVuSans-30"/>
      </g>
     </g>
    </g>
    <g id="ytick_6">
     <g id="line2d_15">
      <g>
       <use xlink:href="#me1dc0b0dc3" x="28.104688" y="103.591219" style="stroke: #000000; stroke-width: 0.8"/>
      </g>
     </g>
     <g id="text_15">
      <!-- 10 -->
      <g transform="translate(8.379688 107.390437) scale(0.1 -0.1)">
       <use xlink:href="#DejaVuSans-31"/>
       <use xlink:href="#DejaVuSans-30" x="63.623047"/>
      </g>
     </g>
    </g>
    <g id="ytick_7">
     <g id="line2d_16">
      <g>
       <use xlink:href="#me1dc0b0dc3" x="28.104688" y="70.327219" style="stroke: #000000; stroke-width: 0.8"/>
      </g>
     </g>
     <g id="text_16">
      <!-- 20 -->
      <g transform="translate(8.379688 74.126437) scale(0.1 -0.1)">
       <use xlink:href="#DejaVuSans-32"/>
       <use xlink:href="#DejaVuSans-30" x="63.623047"/>
      </g>
     </g>
    </g>
    <g id="ytick_8">
     <g id="line2d_17">
      <g>
       <use xlink:href="#me1dc0b0dc3" x="28.104688" y="37.063219" style="stroke: #000000; stroke-width: 0.8"/>
      </g>
     </g>
     <g id="text_17">
      <!-- 30 -->
      <g transform="translate(8.379688 40.862437) scale(0.1 -0.1)">
       <use xlink:href="#DejaVuSans-33"/>
       <use xlink:href="#DejaVuSans-30" x="63.623047"/>
      </g>
     </g>
    </g>
    <g id="ytick_9">
     <g id="line2d_18">
      <g>
       <use xlink:href="#me1dc0b0dc3" x="28.104688" y="3.799219" style="stroke: #000000; stroke-width: 0.8"/>
      </g>
     </g>
     <g id="text_18">
      <!-- 40 -->
      <g transform="translate(8.379688 7.598437) scale(0.1 -0.1)">
       <use xlink:href="#DejaVuSans-34"/>
       <use xlink:href="#DejaVuSans-30" x="63.623047"/>
      </g>
     </g>
    </g>
   </g>
   <g id="line2d_19">
    <path d="M 175.297888 250.784419 
L 175.297888 150.992419 
" clip-path="url(#p6fc9b053f4)" style="fill: none; stroke: #000000; stroke-width: 0.25; stroke-linecap: square"/>
   </g>
   <g id="line2d_20">
    <path d="M 175.297888 150.992419 
L 275.089887 150.992419 
" clip-path="url(#p6fc9b053f4)" style="fill: none; stroke: #000000; stroke-width: 0.25; stroke-linecap: square"/>
   </g>
   <g id="line2d_21">
    <path d="M 275.089887 122.718019 
L 175.297888 122.718019 
" clip-path="url(#p6fc9b053f4)" style="fill: none; stroke: #000000; stroke-width: 0.25; stroke-linecap: square"/>
   </g>
   <g id="line2d_22">
    <path d="M 175.297888 122.718019 
L 175.297888 22.926019 
" clip-path="url(#p6fc9b053f4)" style="fill: none; stroke: #000000; stroke-width: 0.25; stroke-linecap: square"/>
   </g>
   <g id="line2d_23">
    <path d="M 147.023487 22.926019 
L 147.023487 122.718019 
" clip-path="url(#p6fc9b053f4)" style="fill: none; stroke: #000000; stroke-width: 0.25; stroke-linecap: square"/>
   </g>
   <g id="line2d_24">
    <path d="M 147.023487 122.718019 
L 47.231488 122.718019 
" clip-path="url(#p6fc9b053f4)" style="fill: none; stroke: #000000; stroke-width: 0.25; stroke-linecap: square"/>
   </g>
   <g id="line2d_25">
    <path d="M 47.231488 150.992419 
L 147.023487 150.992419 
" clip-path="url(#p6fc9b053f4)" style="fill: none; stroke: #000000; stroke-width: 0.25; stroke-linecap: square"/>
   </g>
   <g id="line2d_26">
    <path d="M 147.023487 150.992419 
L 147.023487 250.784419 
" clip-path="url(#p6fc9b053f4)" style="fill: none; stroke: #000000; stroke-width: 0.25; stroke-linecap: square"/>
   </g>
   <g id="line2d_27">
    <path d="M 175.297888 136.855219 
L 275.089887 136.855219 
" clip-path="url(#p6fc9b053f4)" style="fill: none; stroke-dasharray: 0.925,0.4; stroke-dashoffset: 0; stroke: #000000; stroke-width: 0.25"/>
   </g>
   <g id="line2d_28">
    <path d="M 161.160687 122.718019 
L 161.160687 22.926019 
" clip-path="url(#p6fc9b053f4)" style="fill: none; stroke-dasharray: 0.925,0.4; stroke-dashoffset: 0; stroke: #000000; stroke-width: 0.25"/>
   </g>
   <g id="line2d_29">
    <path d="M 147.023487 136.855219 
L 47.231488 136.855219 
" clip-path="url(#p6fc9b053f4)" style="fill: none; stroke-dasharray: 0.925,0.4; stroke-dashoffset: 0; stroke: #000000; stroke-width: 0.25"/>
   </g>
   <g id="line2d_30">
    <path d="M 161.160687 150.992419 
L 161.160687 250.784419 
" clip-path="url(#p6fc9b053f4)" style="fill: none; stroke-dasharray: 0.925,0.4; stroke-dashoffset: 0; stroke: #000000; stroke-width: 0.25"/>
   </g>
   <g id="line2d_31">
    <path d="M 128.601808 130.255986 
L 126.906695 130.301965 
L 125.215961 130.323839 
L 123.529321 130.318869 
L 121.846573 130.288538 
L 120.167445 130.235612 
L 118.490379 130.201193 
L 116.815135 130.18773 
L 115.141973 130.225048 
L 113.472127 130.312024 
L 111.804169 130.411383 
L 110.137452 130.51454 
L 108.470919 130.607639 
L 106.804377 130.689734 
L 105.137707 130.760594 
L 103.470843 130.820525 
L 101.803751 130.870207 
L 100.136413 130.910558 
L 98.468822 130.942623 
L 96.800977 130.967494 
L 95.132881 130.986251 
L 93.464542 130.999919 
L 91.79597 131.009446 
L 90.127181 131.015686 
L 88.458195 131.019394 
L 86.789037 131.021231 
L 85.119734 131.021763 
L 83.450315 131.021471 
L 81.780811 131.020765 
L 80.111252 131.01999 
L 78.441668 131.01937 
" clip-path="url(#p6fc9b053f4)" style="fill: none; stroke: #ff0000; stroke-width: 0.25; stroke-linecap: square"/>
   </g>
   <g id="line2d_32">
    <path d="M 167.608055 93.354073 
L 167.696811 91.822061 
L 167.776641 90.283707 
L 167.82983 88.7392 
L 167.854821 87.189788 
L 167.82445 85.637079 
L 167.748274 84.083336 
L 167.655742 82.528552 
L 167.557129 80.972836 
L 167.466013 79.415801 
L 167.383638 77.857783 
L 167.310634 76.299101 
L 167.247128 74.74005 
L 167.192861 73.180884 
L 167.147297 71.62182 
L 167.109717 70.063026 
L 167.0793 68.504631 
L 167.055181 66.946721 
L 167.036497 65.389349 
L 167.02242 63.832536 
L 167.012178 62.27628 
L 167.005067 60.720559 
L 167.000458 59.165333 
L 166.997799 57.610555 
L 166.996611 56.056168 
L 166.996484 54.502111 
L 166.997073 52.948321 
L 166.998087 51.394734 
L 166.999286 49.841292 
L 167.000471 48.287937 
L 167.00146 46.734619 
" clip-path="url(#p6fc9b053f4)" style="fill: none; stroke: #ff0000; stroke-width: 0.25; stroke-linecap: square"/>
   </g>
   <g id="line2d_33">
    <path d="M 154.894425 169.412937 
L 154.858505 171.018852 
L 154.822273 172.62979 
L 154.764948 174.245088 
L 154.688782 175.864439 
L 154.596875 177.487592 
L 154.527865 179.116223 
L 154.486068 180.749757 
L 154.497374 182.387419 
L 154.568859 184.026712 
L 154.659082 185.667835 
L 154.760564 187.3106 
L 154.854946 188.955752 
L 154.940155 190.603072 
L 155.015388 192.252277 
L 155.080452 193.903077 
L 155.13562 195.555188 
L 155.181491 197.208349 
L 155.218877 198.86233 
L 155.248711 200.516933 
L 155.271974 202.171995 
L 155.289645 203.827385 
L 155.302664 205.482998 
L 155.311909 207.138756 
L 155.318178 208.794602 
L 155.32219 210.450496 
L 155.324581 212.10641 
L 155.325908 213.762328 
L 155.326658 215.418245 
L 155.327249 217.074156 
L 155.328048 218.730065 
" clip-path="url(#p6fc9b053f4)" style="fill: none; stroke: #ff0000; stroke-width: 0.25; stroke-linecap: square"/>
   </g>
   <g id="line2d_34">
    <path d="M 193.667447 143.38111 
L 195.283219 143.373366 
L 196.902429 143.326747 
L 198.524261 143.24732 
L 200.149522 143.162301 
L 201.778303 143.078788 
L 203.410735 143.004591 
L 205.04652 142.939997 
L 206.685331 142.884841 
L 208.326832 142.838629 
L 209.970698 142.800648 
L 211.616619 142.770059 
L 213.264308 142.745963 
L 214.913503 142.727458 
L 216.563967 142.713674 
L 218.21549 142.703802 
L 219.867886 142.697106 
L 221.520992 142.692937 
L 223.174666 142.69073 
L 224.828788 142.690005 
L 226.483255 142.690367 
L 228.137982 142.69149 
L 229.792897 142.693117 
L 231.447945 142.695052 
L 233.103081 142.697147 
L 234.758274 142.699297 
L 236.413498 142.701434 
L 238.068739 142.703519 
L 239.723987 142.705533 
L 241.379237 142.707478 
L 243.034487 142.709366 
" clip-path="url(#p6fc9b053f4)" style="fill: none; stroke: #ff0000; stroke-width: 0.25; stroke-linecap: square"/>
   </g>
   <g id="line2d_35">
    <path d="M 169.249221 145.368876 
L 169.707441 143.618362 
L 170.19216 141.835679 
L 170.648713 140.007407 
L 170.975653 138.117353 
L 171.067906 136.174114 
L 170.84451 134.223354 
L 170.333479 132.320463 
L 169.625034 130.487752 
L 168.755114 128.746 
L 167.91855 127.021752 
L 167.185102 125.297643 
L 166.631826 123.564124 
L 166.289295 121.840864 
L 166.176213 120.15591 
L 166.311646 118.542405 
L 166.595826 117.015574 
L 166.982248 115.572215 
L 167.241834 114.150235 
L 167.411334 112.752882 
L 167.516921 111.377951 
L 167.549775 110.020443 
L 167.532409 108.677649 
L 167.490425 107.345605 
L 167.433778 106.020682 
L 167.378022 104.699526 
L 167.324514 103.380135 
L 167.273638 102.061259 
L 167.225495 100.742275 
L 167.17954 99.423055 
L 167.134209 98.10373 
" clip-path="url(#p6fc9b053f4)" style="fill: none; stroke: #ff0000; stroke-width: 0.25; stroke-linecap: square"/>
   </g>
   <g id="line2d_36">
    <path d="M 169.612813 127.115354 
L 167.93659 126.49067 
L 166.209909 125.962305 
L 164.425784 125.622512 
L 162.609032 125.553973 
L 160.814335 125.788499 
L 159.069914 126.196416 
L 157.40011 126.763467 
L 155.809362 127.43845 
L 154.250442 128.087328 
L 152.709186 128.673452 
L 151.174129 129.167513 
L 149.642299 129.561484 
L 148.115102 129.860958 
L 146.593197 130.069839 
L 145.077358 130.196534 
L 143.56735 130.249606 
L 142.062676 130.243789 
L 140.562008 130.193171 
L 139.062592 130.131635 
L 137.561886 130.085018 
L 136.05906 130.051369 
L 134.553597 130.059672 
L 133.046913 130.117331 
L 131.53978 130.20816 
L 130.032715 130.324279 
L 128.525529 130.453486 
L 127.017215 130.578725 
L 125.507994 130.698395 
L 123.998313 130.814774 
L 122.488652 130.932113 
" clip-path="url(#p6fc9b053f4)" style="fill: none; stroke: #ff0000; stroke-width: 0.25; stroke-linecap: square"/>
   </g>
   <g id="line2d_37">
    <path d="M 154.457753 131.35654 
L 154.941398 133.22782 
L 155.714397 135.012107 
L 156.715813 136.687874 
L 157.892999 138.250155 
L 159.230962 139.678027 
L 160.71217 140.952439 
L 162.315799 142.057053 
L 164.01807 142.978394 
L 165.792599 143.706949 
L 167.612463 144.237992 
L 169.451776 144.572298 
L 171.28695 144.714671 
L 173.097323 144.683553 
L 174.873699 144.570075 
L 176.61363 144.388588 
L 178.320381 144.178044 
L 179.998751 143.963747 
L 181.653244 143.75948 
L 183.287434 143.567768 
L 184.9054 143.393326 
L 186.511269 143.242247 
L 188.108096 143.114728 
L 189.698236 143.007378 
L 191.283682 142.916443 
L 192.866044 142.838173 
L 194.446547 142.769056 
L 196.026105 142.706231 
L 197.605314 142.648376 
L 199.184444 142.594556 
L 200.763642 142.544753 
" clip-path="url(#p6fc9b053f4)" style="fill: none; stroke: #ff0000; stroke-width: 0.25; stroke-linecap: square"/>
   </g>
   <g id="line2d_38">
    <path d="M 138.055997 143.604242 
L 139.224744 143.694691 
L 140.396913 143.818019 
L 141.574324 143.985663 
L 142.759554 144.203821 
L 143.955073 144.48046 
L 145.172897 144.787902 
L 146.429074 145.091922 
L 147.734813 145.375388 
L 149.098173 145.628297 
L 150.525153 145.84277 
L 152.020346 146.008423 
L 153.586806 146.107052 
L 155.224383 146.106398 
L 156.924689 145.952678 
L 158.658592 145.562254 
L 160.384787 144.906765 
L 162.094182 144.047105 
L 163.75754 142.978451 
L 165.341214 141.700104 
L 166.807405 140.219717 
L 168.117363 138.555699 
L 169.234661 136.73328 
L 170.133204 134.783361 
L 170.795295 132.737326 
L 171.212179 130.627059 
L 171.378427 128.483698 
L 171.292117 126.337803 
L 170.95497 124.219089 
L 170.371929 122.156166 
L 169.56397 120.171222 
" clip-path="url(#p6fc9b053f4)" style="fill: none; stroke: #ff0000; stroke-width: 0.25; stroke-linecap: square"/>
   </g>
   <g id="line2d_39">
    <path d="M 167.310546 193.230556 
L 167.381645 191.678369 
L 167.454361 190.125115 
L 167.536221 188.571471 
L 167.626489 187.017757 
L 167.723552 185.464242 
L 167.791945 183.909334 
L 167.828829 182.35391 
L 167.814879 180.799051 
L 167.744481 179.247195 
L 167.656098 177.698186 
L 167.557003 176.152278 
L 167.464957 174.608807 
L 167.382225 173.068083 
L 167.309949 171.530501 
L 167.248804 169.996493 
L 167.199127 168.466504 
L 167.161037 166.940976 
L 167.134536 165.420331 
L 167.119589 163.904955 
L 167.116181 162.395185 
L 167.124349 160.891289 
L 167.144201 159.393452 
L 167.175905 157.901751 
L 167.219668 156.416133 
L 167.275688 154.936389 
L 167.34409 153.462112 
L 167.424832 151.992661 
L 167.498846 150.526047 
L 167.56307 149.060884 
L 167.62481 147.596458 
" clip-path="url(#p6fc9b053f4)" style="fill: none; stroke: #ff0000; stroke-width: 0.25; stroke-linecap: square"/>
   </g>
   <g id="line2d_40">
    <path d="M 198.332486 129.914051 
L 196.630119 129.844232 
L 194.941119 129.803729 
L 193.261245 129.791492 
L 191.585147 129.803328 
L 189.906342 129.841043 
L 188.217215 129.909125 
L 186.510092 130.029236 
L 184.777052 130.217944 
L 183.011486 130.495873 
L 181.196441 130.811963 
L 179.309569 131.08277 
L 177.33879 131.228685 
L 175.288942 131.215023 
L 173.168149 131.108329 
L 170.980334 130.950456 
L 168.725198 130.847767 
L 166.426618 131.107432 
L 164.212247 131.922166 
L 162.092619 133.036928 
L 160.12051 134.434852 
L 158.345223 136.08755 
L 156.806416 137.95747 
L 155.533136 140.004741 
L 154.544394 142.190102 
L 153.85359 144.474988 
L 153.469938 146.820091 
L 153.397817 149.185246 
L 153.634883 151.531138 
L 153.937317 153.863849 
L 154.256129 156.192234 
" clip-path="url(#p6fc9b053f4)" style="fill: none; stroke: #ff0000; stroke-width: 0.25; stroke-linecap: square"/>
   </g>
   <g id="line2d_41">
    <path d="M 154.745294 80.470473 
L 154.649175 82.019967 
L 154.562186 83.571431 
L 154.503484 85.125187 
L 154.470259 86.680178 
L 154.487848 88.235374 
L 154.544019 89.789031 
L 154.60958 91.341184 
L 154.672617 92.891785 
L 154.718132 94.440951 
L 154.74334 95.988148 
L 154.74611 97.532737 
L 154.724927 99.073992 
L 154.678889 100.611137 
L 154.607726 102.143376 
L 154.511872 103.669944 
L 154.392576 105.190161 
L 154.282724 106.706035 
L 154.20659 108.218425 
L 154.162785 109.725975 
L 154.155155 111.227532 
L 154.20602 112.721085 
L 154.304045 114.204661 
L 154.416848 115.67927 
L 154.536169 117.145344 
L 154.647216 118.604314 
L 154.749676 120.056737 
L 154.844322 121.503437 
L 154.932598 122.945596 
L 155.015234 124.384884 
L 155.097841 125.822601 
" clip-path="url(#p6fc9b053f4)" style="fill: none; stroke: #ff0000; stroke-width: 0.25; stroke-linecap: square"/>
   </g>
   <g id="line2d_42">
    <path d="M 104.82312 142.985879 
L 106.377549 143.065036 
L 107.927636 143.145713 
L 109.472096 143.237103 
L 111.010082 143.338795 
L 112.540772 143.449637 
L 114.065562 143.535237 
L 115.583017 143.598436 
L 117.092228 143.626419 
L 118.591473 143.625168 
L 120.0797 143.616733 
L 121.556209 143.607925 
L 123.02052 143.609888 
L 124.472198 143.622041 
L 125.911021 143.642669 
L 127.33705 143.66892 
L 128.75069 143.696762 
L 130.152733 143.720879 
L 131.544356 143.734486 
L 132.926911 143.712946 
L 134.300083 143.627013 
L 135.66323 143.474023 
L 137.005805 143.19625 
L 138.294691 142.719089 
L 139.531317 142.10109 
L 140.784932 141.49071 
L 142.114691 141.025401 
L 143.509332 140.73858 
L 144.941196 140.618023 
L 146.386662 140.673393 
L 147.828216 140.841985 
" clip-path="url(#p6fc9b053f4)" style="fill: none; stroke: #ff0000; stroke-width: 0.25; stroke-linecap: square"/>
   </g>
   <g id="patch_15">
    <path d="M 28.104688 269.911219 
L 28.104688 3.799219 
" style="fill: none; stroke: #000000; stroke-width: 0.8; stroke-linejoin: miter; stroke-linecap: square"/>
   </g>
   <g id="patch_16">
    <path d="M 294.216687 269.911219 
L 294.216687 3.799219 
" style="fill: none; stroke: #000000; stroke-width: 0.8; stroke-linejoin: miter; stroke-linecap: square"/>
   </g>
   <g id="patch_17">
    <path d="M 28.104688 269.911219 
L 294.216687 269.911219 
" style="fill: none; stroke: #000000; stroke-width: 0.8; stroke-linejoin: miter; stroke-linecap: square"/>
   </g>
   <g id="patch_18">
    <path d="M 28.104688 3.799219 
L 294.216687 3.799219 
" style="fill: none; stroke: #000000; stroke-width: 0.8; stroke-linejoin: miter; stroke-linecap: square"/>
   </g>
   <g id="text_19">
    <!-- Time: 5.0 s -->
    <g transform="translate(198.9952 17.104819) scale(0.1 -0.1)">
     <defs>
      <path id="DejaVuSans-54" d="M -19 4666 
L 3928 4666 
L 3928 4134 
L 2272 4134 
L 2272 0 
L 1638 0 
L 1638 4134 
L -19 4134 
L -19 4666 
z
" transform="scale(0.015625)"/>
      <path id="DejaVuSans-69" d="M 603 3500 
L 1178 3500 
L 1178 0 
L 603 0 
L 603 3500 
z
M 603 4863 
L 1178 4863 
L 1178 4134 
L 603 4134 
L 603 4863 
z
" transform="scale(0.015625)"/>
      <path id="DejaVuSans-6d" d="M 3328 2828 
Q 3544 3216 3844 3400 
Q 4144 3584 4550 3584 
Q 5097 3584 5394 3201 
Q 5691 2819 5691 2113 
L 5691 0 
L 5113 0 
L 5113 2094 
Q 5113 2597 4934 2840 
Q 4756 3084 4391 3084 
Q 3944 3084 3684 2787 
Q 3425 2491 3425 1978 
L 3425 0 
L 2847 0 
L 2847 2094 
Q 2847 2600 2669 2842 
Q 2491 3084 2119 3084 
Q 1678 3084 1418 2786 
Q 1159 2488 1159 1978 
L 1159 0 
L 581 0 
L 581 3500 
L 1159 3500 
L 1159 2956 
Q 1356 3278 1631 3431 
Q 1906 3584 2284 3584 
Q 2666 3584 2933 3390 
Q 3200 3197 3328 2828 
z
" transform="scale(0.015625)"/>
      <path id="DejaVuSans-65" d="M 3597 1894 
L 3597 1613 
L 953 1613 
Q 991 1019 1311 708 
Q 1631 397 2203 397 
Q 2534 397 2845 478 
Q 3156 559 3463 722 
L 3463 178 
Q 3153 47 2828 -22 
Q 2503 -91 2169 -91 
Q 1331 -91 842 396 
Q 353 884 353 1716 
Q 353 2575 817 3079 
Q 1281 3584 2069 3584 
Q 2775 3584 3186 3129 
Q 3597 2675 3597 1894 
z
M 3022 2063 
Q 3016 2534 2758 2815 
Q 2500 3097 2075 3097 
Q 1594 3097 1305 2825 
Q 1016 2553 972 2059 
L 3022 2063 
z
" transform="scale(0.015625)"/>
      <path id="DejaVuSans-3a" d="M 750 794 
L 1409 794 
L 1409 0 
L 750 0 
L 750 794 
z
M 750 3309 
L 1409 3309 
L 1409 2516 
L 750 2516 
L 750 3309 
z
" transform="scale(0.015625)"/>
      <path id="DejaVuSans-20" transform="scale(0.015625)"/>
      <path id="DejaVuSans-35" d="M 691 4666 
L 3169 4666 
L 3169 4134 
L 1269 4134 
L 1269 2991 
Q 1406 3038 1543 3061 
Q 1681 3084 1819 3084 
Q 2600 3084 3056 2656 
Q 3513 2228 3513 1497 
Q 3513 744 3044 326 
Q 2575 -91 1722 -91 
Q 1428 -91 1123 -41 
Q 819 9 494 109 
L 494 744 
Q 775 591 1075 516 
Q 1375 441 1709 441 
Q 2250 441 2565 725 
Q 2881 1009 2881 1497 
Q 2881 1984 2565 2268 
Q 2250 2553 1709 2553 
Q 1456 2553 1204 2497 
Q 953 2441 691 2322 
L 691 4666 
z
" transform="scale(0.015625)"/>
      <path id="DejaVuSans-2e" d="M 684 794 
L 1344 794 
L 1344 0 
L 684 0 
L 684 794 
z
" transform="scale(0.015625)"/>
      <path id="DejaVuSans-73" d="M 2834 3397 
L 2834 2853 
Q 2591 2978 2328 3040 
Q 2066 3103 1784 3103 
Q 1356 3103 1142 2972 
Q 928 2841 928 2578 
Q 928 2378 1081 2264 
Q 1234 2150 1697 2047 
L 1894 2003 
Q 2506 1872 2764 1633 
Q 3022 1394 3022 966 
Q 3022 478 2636 193 
Q 2250 -91 1575 -91 
Q 1294 -91 989 -36 
Q 684 19 347 128 
L 347 722 
Q 666 556 975 473 
Q 1284 391 1588 391 
Q 1994 391 2212 530 
Q 2431 669 2431 922 
Q 2431 1156 2273 1281 
Q 2116 1406 1581 1522 
L 1381 1569 
Q 847 1681 609 1914 
Q 372 2147 372 2553 
Q 372 3047 722 3315 
Q 1072 3584 1716 3584 
Q 2034 3584 2315 3537 
Q 2597 3491 2834 3397 
z
" transform="scale(0.015625)"/>
     </defs>
     <use xlink:href="#DejaVuSans-54"/>
     <use xlink:href="#DejaVuSans-69" x="57.958984"/>
     <use xlink:href="#DejaVuSans-6d" x="85.742188"/>
     <use xlink:href="#DejaVuSans-65" x="183.154297"/>
     <use xlink:href="#DejaVuSans-3a" x="244.677734"/>
     <use xlink:href="#DejaVuSans-20" x="278.369141"/>
     <use xlink:href="#DejaVuSans-35" x="310.15625"/>
     <use xlink:href="#DejaVuSans-2e" x="373.779297"/>
     <use xlink:href="#DejaVuSans-30" x="405.566406"/>
     <use xlink:href="#DejaVuSans-20" x="469.189453"/>
     <use xlink:href="#DejaVuSans-73" x="500.976562"/>
    </g>
   </g>
  </g>
 </g>
 <defs>
  <clipPath id="p6fc9b053f4">
   <rect x="28.104688" y="3.799219" width="266.112" height="266.112"/>
  </clipPath>
 </defs>
</svg>
