<?xml version="1.0" encoding="utf-8" standalone="no"?>
<!DOCTYPE svg PUBLIC "-//W3C//DTD SVG 1.1//EN"
  "http://www.w3.org/Graphics/SVG/1.1/DTD/svg11.dtd">
<svg xmlns:xlink="http://www.w3.org/1999/xlink" width="300.579188pt" height="286.589344pt" viewBox="0 0 300.579188 286.589344" xmlns="http://www.w3.org/2000/svg" version="1.1">
 <metadata>
  <rdf:RDF xmlns:dc="http://purl.org/dc/elements/1.1/" xmlns:cc="http://creativecommons.org/ns#" xmlns:rdf="http://www.w3.org/1999/02/22-rdf-syntax-ns#">
   <cc:Work>
    <dc:type rdf:resource="http://purl.org/dc/dcmitype/StillImage"/>
    <dc:date>2024-02-26T10:13:36.075300</dc:date>
    <dc:format>image/svg+xml</dc:format>
    <dc:creator>
     <cc:Agent>
      <dc:title>Matplotlib v3.8.2, https://matplotlib.org/</dc:title>
     </cc:Agent>
    </dc:creator>
   </cc:Work>
  </rdf:RDF>
 </metadata>
 <defs>
  <style type="text/css">*{stroke-linejoin: round; stroke-linecap: butt}</style>
 </defs>
 <g id="figure_1">
  <g id="patch_1">
   <path d="M 0 286.589344 
L 300.579188 286.589344 
L 300.579188 0 
L 0 0 
z
" style="fill: #ffffff"/>
  </g>
  <g id="axes_1">
   <g id="patch_2">
    <path d="M 28.104688 269.911219 
L 294.216687 269.911219 
L 294.216687 3.799219 
L 28.104688 3.799219 
z
" style="fill: #ffffff"/>
   </g>
   <g id="patch_3">
    <path d="M 117.519301 127.404625 
L 105.885159 127.843051 
L 106.098109 133.49392 
L 117.732251 133.055494 
z
" clip-path="url(#pca04f1d288)" style="fill: #00008b"/>
   </g>
   <g id="patch_4">
    <path d="M 170.391407 83.550305 
L 169.871977 71.919499 
L 164.222728 72.171793 
L 164.742158 83.8026 
z
" clip-path="url(#pca04f1d288)" style="fill: #800000"/>
   </g>
   <g id="patch_5">
    <path d="M 151.723749 179.913838 
L 152.007228 191.552786 
L 157.660432 191.415097 
L 157.376953 179.776148 
z
" clip-path="url(#pca04f1d288)" style="fill: #006400"/>
   </g>
   <g id="patch_6">
    <path d="M 204.23393 145.792292 
L 215.871398 145.453455 
L 215.70682 139.80097 
L 204.069352 140.139807 
z
" clip-path="url(#pca04f1d288)" style="fill: #4b0082"/>
   </g>
   <g id="patch_7">
    <path d="M 172.335791 131.644049 
L 168.449279 120.66951 
L 163.118789 122.557245 
L 167.0053 133.531784 
z
" clip-path="url(#pca04f1d288)" style="fill: #0000ff"/>
   </g>
   <g id="patch_8">
    <path d="M 157.508616 124.460038 
L 146.405326 127.96181 
L 148.106187 133.354837 
L 159.209477 129.853065 
z
" clip-path="url(#pca04f1d288)" style="fill: #ff0000"/>
   </g>
   <g id="patch_9">
    <path d="M 161.213779 143.902968 
L 171.420686 149.503374 
L 174.140883 144.545734 
L 163.933977 138.945328 
z
" clip-path="url(#pca04f1d288)" style="fill: #dbdc56"/>
   </g>
   <g id="patch_10">
    <path d="M 144.418638 147.599403 
L 155.916304 149.429472 
L 156.805195 143.844891 
L 145.307529 142.014822 
z
" clip-path="url(#pca04f1d288)" style="fill: #9400d3"/>
   </g>
   <g id="patch_11">
    <path d="M 170.475712 183.418911 
L 170.123598 171.781837 
L 164.471305 171.952864 
L 164.823418 183.589938 
z
" clip-path="url(#pca04f1d288)" style="fill: #1e90ff"/>
   </g>
   <g id="patch_12">
    <path d="M 186.625192 127.331317 
L 175.041988 128.503863 
L 175.61151 134.129991 
L 187.194714 132.957445 
z
" clip-path="url(#pca04f1d288)" style="fill: #ff4500"/>
   </g>
   <g id="patch_13">
    <path d="M 151.918966 90.277952 
L 152.264847 101.915213 
L 157.917231 101.747213 
L 157.571349 90.109952 
z
" clip-path="url(#pca04f1d288)" style="fill: #7cfc00"/>
   </g>
   <g id="patch_14">
    <path d="M 114.166508 146.254513 
L 125.808893 146.235946 
L 125.799875 140.581073 
L 114.15749 140.59964 
z
" clip-path="url(#pca04f1d288)" style="fill: #ff00ff"/>
   </g>
   <g id="matplotlib.axis_1">
    <g id="xtick_1">
     <g id="line2d_1">
      <defs>
       <path id="ma24256aa81" d="M 0 0 
L 0 3.5 
" style="stroke: #000000; stroke-width: 0.8"/>
      </defs>
      <g>
       <use xlink:href="#ma24256aa81" x="28.104688" y="269.911219" style="stroke: #000000; stroke-width: 0.8"/>
      </g>
     </g>
     <g id="text_1">
      <!-- −40 -->
      <g transform="translate(17.552344 284.509656) scale(0.1 -0.1)">
       <defs>
        <path id="DejaVuSans-2212" d="M 678 2272 
L 4684 2272 
L 4684 1741 
L 678 1741 
L 678 2272 
z
" transform="scale(0.015625)"/>
        <path id="DejaVuSans-34" d="M 2419 4116 
L 825 1625 
L 2419 1625 
L 2419 4116 
z
M 2253 4666 
L 3047 4666 
L 3047 1625 
L 3713 1625 
L 3713 1100 
L 3047 1100 
L 3047 0 
L 2419 0 
L 2419 1100 
L 313 1100 
L 313 1709 
L 2253 4666 
z
" transform="scale(0.015625)"/>
        <path id="DejaVuSans-30" d="M 2034 4250 
Q 1547 4250 1301 3770 
Q 1056 3291 1056 2328 
Q 1056 1369 1301 889 
Q 1547 409 2034 409 
Q 2525 409 2770 889 
Q 3016 1369 3016 2328 
Q 3016 3291 2770 3770 
Q 2525 4250 2034 4250 
z
M 2034 4750 
Q 2819 4750 3233 4129 
Q 3647 3509 3647 2328 
Q 3647 1150 3233 529 
Q 2819 -91 2034 -91 
Q 1250 -91 836 529 
Q 422 1150 422 2328 
Q 422 3509 836 4129 
Q 1250 4750 2034 4750 
z
" transform="scale(0.015625)"/>
       </defs>
       <use xlink:href="#DejaVuSans-2212"/>
       <use xlink:href="#DejaVuSans-34" x="83.789062"/>
       <use xlink:href="#DejaVuSans-30" x="147.412109"/>
      </g>
     </g>
    </g>
    <g id="xtick_2">
     <g id="line2d_2">
      <g>
       <use xlink:href="#ma24256aa81" x="61.368688" y="269.911219" style="stroke: #000000; stroke-width: 0.8"/>
      </g>
     </g>
     <g id="text_2">
      <!-- −30 -->
      <g transform="translate(50.816344 284.509656) scale(0.1 -0.1)">
       <defs>
        <path id="DejaVuSans-33" d="M 2597 2516 
Q 3050 2419 3304 2112 
Q 3559 1806 3559 1356 
Q 3559 666 3084 287 
Q 2609 -91 1734 -91 
Q 1441 -91 1130 -33 
Q 819 25 488 141 
L 488 750 
Q 750 597 1062 519 
Q 1375 441 1716 441 
Q 2309 441 2620 675 
Q 2931 909 2931 1356 
Q 2931 1769 2642 2001 
Q 2353 2234 1838 2234 
L 1294 2234 
L 1294 2753 
L 1863 2753 
Q 2328 2753 2575 2939 
Q 2822 3125 2822 3475 
Q 2822 3834 2567 4026 
Q 2313 4219 1838 4219 
Q 1578 4219 1281 4162 
Q 984 4106 628 3988 
L 628 4550 
Q 988 4650 1302 4700 
Q 1616 4750 1894 4750 
Q 2613 4750 3031 4423 
Q 3450 4097 3450 3541 
Q 3450 3153 3228 2886 
Q 3006 2619 2597 2516 
z
" transform="scale(0.015625)"/>
       </defs>
       <use xlink:href="#DejaVuSans-2212"/>
       <use xlink:href="#DejaVuSans-33" x="83.789062"/>
       <use xlink:href="#DejaVuSans-30" x="147.412109"/>
      </g>
     </g>
    </g>
    <g id="xtick_3">
     <g id="line2d_3">
      <g>
       <use xlink:href="#ma24256aa81" x="94.632688" y="269.911219" style="stroke: #000000; stroke-width: 0.8"/>
      </g>
     </g>
     <g id="text_3">
      <!-- −20 -->
      <g transform="translate(84.080344 284.509656) scale(0.1 -0.1)">
       <defs>
        <path id="DejaVuSans-32" d="M 1228 531 
L 3431 531 
L 3431 0 
L 469 0 
L 469 531 
Q 828 903 1448 1529 
Q 2069 2156 2228 2338 
Q 2531 2678 2651 2914 
Q 2772 3150 2772 3378 
Q 2772 3750 2511 3984 
Q 2250 4219 1831 4219 
Q 1534 4219 1204 4116 
Q 875 4013 500 3803 
L 500 4441 
Q 881 4594 1212 4672 
Q 1544 4750 1819 4750 
Q 2544 4750 2975 4387 
Q 3406 4025 3406 3419 
Q 3406 3131 3298 2873 
Q 3191 2616 2906 2266 
Q 2828 2175 2409 1742 
Q 1991 1309 1228 531 
z
" transform="scale(0.015625)"/>
       </defs>
       <use xlink:href="#DejaVuSans-2212"/>
       <use xlink:href="#DejaVuSans-32" x="83.789062"/>
       <use xlink:href="#DejaVuSans-30" x="147.412109"/>
      </g>
     </g>
    </g>
    <g id="xtick_4">
     <g id="line2d_4">
      <g>
       <use xlink:href="#ma24256aa81" x="127.896687" y="269.911219" style="stroke: #000000; stroke-width: 0.8"/>
      </g>
     </g>
     <g id="text_4">
      <!-- −10 -->
      <g transform="translate(117.344344 284.509656) scale(0.1 -0.1)">
       <defs>
        <path id="DejaVuSans-31" d="M 794 531 
L 1825 531 
L 1825 4091 
L 703 3866 
L 703 4441 
L 1819 4666 
L 2450 4666 
L 2450 531 
L 3481 531 
L 3481 0 
L 794 0 
L 794 531 
z
" transform="scale(0.015625)"/>
       </defs>
       <use xlink:href="#DejaVuSans-2212"/>
       <use xlink:href="#DejaVuSans-31" x="83.789062"/>
       <use xlink:href="#DejaVuSans-30" x="147.412109"/>
      </g>
     </g>
    </g>
    <g id="xtick_5">
     <g id="line2d_5">
      <g>
       <use xlink:href="#ma24256aa81" x="161.160687" y="269.911219" style="stroke: #000000; stroke-width: 0.8"/>
      </g>
     </g>
     <g id="text_5">
      <!-- 0 -->
      <g transform="translate(157.979437 284.509656) scale(0.1 -0.1)">
       <use xlink:href="#DejaVuSans-30"/>
      </g>
     </g>
    </g>
    <g id="xtick_6">
     <g id="line2d_6">
      <g>
       <use xlink:href="#ma24256aa81" x="194.424688" y="269.911219" style="stroke: #000000; stroke-width: 0.8"/>
      </g>
     </g>
     <g id="text_6">
      <!-- 10 -->
      <g transform="translate(188.062187 284.509656) scale(0.1 -0.1)">
       <use xlink:href="#DejaVuSans-31"/>
       <use xlink:href="#DejaVuSans-30" x="63.623047"/>
      </g>
     </g>
    </g>
    <g id="xtick_7">
     <g id="line2d_7">
      <g>
       <use xlink:href="#ma24256aa81" x="227.688687" y="269.911219" style="stroke: #000000; stroke-width: 0.8"/>
      </g>
     </g>
     <g id="text_7">
      <!-- 20 -->
      <g transform="translate(221.326187 284.509656) scale(0.1 -0.1)">
       <use xlink:href="#DejaVuSans-32"/>
       <use xlink:href="#DejaVuSans-30" x="63.623047"/>
      </g>
     </g>
    </g>
    <g id="xtick_8">
     <g id="line2d_8">
      <g>
       <use xlink:href="#ma24256aa81" x="260.952687" y="269.911219" style="stroke: #000000; stroke-width: 0.8"/>
      </g>
     </g>
     <g id="text_8">
      <!-- 30 -->
      <g transform="translate(254.590187 284.509656) scale(0.1 -0.1)">
       <use xlink:href="#DejaVuSans-33"/>
       <use xlink:href="#DejaVuSans-30" x="63.623047"/>
      </g>
     </g>
    </g>
    <g id="xtick_9">
     <g id="line2d_9">
      <g>
       <use xlink:href="#ma24256aa81" x="294.216687" y="269.911219" style="stroke: #000000; stroke-width: 0.8"/>
      </g>
     </g>
     <g id="text_9">
      <!-- 40 -->
      <g transform="translate(287.854187 284.509656) scale(0.1 -0.1)">
       <use xlink:href="#DejaVuSans-34"/>
       <use xlink:href="#DejaVuSans-30" x="63.623047"/>
      </g>
     </g>
    </g>
   </g>
   <g id="matplotlib.axis_2">
    <g id="ytick_1">
     <g id="line2d_10">
      <defs>
       <path id="m9c196b0a4b" d="M 0 0 
L -3.5 0 
" style="stroke: #000000; stroke-width: 0.8"/>
      </defs>
      <g>
       <use xlink:href="#m9c196b0a4b" x="28.104688" y="269.911219" style="stroke: #000000; stroke-width: 0.8"/>
      </g>
     </g>
     <g id="text_10">
      <!-- −40 -->
      <g transform="translate(0 273.710437) scale(0.1 -0.1)">
       <use xlink:href="#DejaVuSans-2212"/>
       <use xlink:href="#DejaVuSans-34" x="83.789062"/>
       <use xlink:href="#DejaVuSans-30" x="147.412109"/>
      </g>
     </g>
    </g>
    <g id="ytick_2">
     <g id="line2d_11">
      <g>
       <use xlink:href="#m9c196b0a4b" x="28.104688" y="236.647219" style="stroke: #000000; stroke-width: 0.8"/>
      </g>
     </g>
     <g id="text_11">
      <!-- −30 -->
      <g transform="translate(0 240.446437) scale(0.1 -0.1)">
       <use xlink:href="#DejaVuSans-2212"/>
       <use xlink:href="#DejaVuSans-33" x="83.789062"/>
       <use xlink:href="#DejaVuSans-30" x="147.412109"/>
      </g>
     </g>
    </g>
    <g id="ytick_3">
     <g id="line2d_12">
      <g>
       <use xlink:href="#m9c196b0a4b" x="28.104688" y="203.383219" style="stroke: #000000; stroke-width: 0.8"/>
      </g>
     </g>
     <g id="text_12">
      <!-- −20 -->
      <g transform="translate(0 207.182437) scale(0.1 -0.1)">
       <use xlink:href="#DejaVuSans-2212"/>
       <use xlink:href="#DejaVuSans-32" x="83.789062"/>
       <use xlink:href="#DejaVuSans-30" x="147.412109"/>
      </g>
     </g>
    </g>
    <g id="ytick_4">
     <g id="line2d_13">
      <g>
       <use xlink:href="#m9c196b0a4b" x="28.104688" y="170.119219" style="stroke: #000000; stroke-width: 0.8"/>
      </g>
     </g>
     <g id="text_13">
      <!-- −10 -->
      <g transform="translate(0 173.918437) scale(0.1 -0.1)">
       <use xlink:href="#DejaVuSans-2212"/>
       <use xlink:href="#DejaVuSans-31" x="83.789062"/>
       <use xlink:href="#DejaVuSans-30" x="147.412109"/>
      </g>
     </g>
    </g>
    <g id="ytick_5">
     <g id="line2d_14">
      <g>
       <use xlink:href="#m9c196b0a4b" x="28.104688" y="136.855219" style="stroke: #000000; stroke-width: 0.8"/>
      </g>
     </g>
     <g id="text_14">
      <!-- 0 -->
      <g transform="translate(14.742188 140.654437) scale(0.1 -0.1)">
       <use xlink:href="#DejaVuSans-30"/>
      </g>
     </g>
    </g>
    <g id="ytick_6">
     <g id="line2d_15">
      <g>
       <use xlink:href="#m9c196b0a4b" x="28.104688" y="103.591219" style="stroke: #000000; stroke-width: 0.8"/>
      </g>
     </g>
     <g id="text_15">
      <!-- 10 -->
      <g transform="translate(8.379688 107.390437) scale(0.1 -0.1)">
       <use xlink:href="#DejaVuSans-31"/>
       <use xlink:href="#DejaVuSans-30" x="63.623047"/>
      </g>
     </g>
    </g>
    <g id="ytick_7">
     <g id="line2d_16">
      <g>
       <use xlink:href="#m9c196b0a4b" x="28.104688" y="70.327219" style="stroke: #000000; stroke-width: 0.8"/>
      </g>
     </g>
     <g id="text_16">
      <!-- 20 -->
      <g transform="translate(8.379688 74.126437) scale(0.1 -0.1)">
       <use xlink:href="#DejaVuSans-32"/>
       <use xlink:href="#DejaVuSans-30" x="63.623047"/>
      </g>
     </g>
    </g>
    <g id="ytick_8">
     <g id="line2d_17">
      <g>
       <use xlink:href="#m9c196b0a4b" x="28.104688" y="37.063219" style="stroke: #000000; stroke-width: 0.8"/>
      </g>
     </g>
     <g id="text_17">
      <!-- 30 -->
      <g transform="translate(8.379688 40.862437) scale(0.1 -0.1)">
       <use xlink:href="#DejaVuSans-33"/>
       <use xlink:href="#DejaVuSans-30" x="63.623047"/>
      </g>
     </g>
    </g>
    <g id="ytick_9">
     <g id="line2d_18">
      <g>
       <use xlink:href="#m9c196b0a4b" x="28.104688" y="3.799219" style="stroke: #000000; stroke-width: 0.8"/>
      </g>
     </g>
     <g id="text_18">
      <!-- 40 -->
      <g transform="translate(8.379688 7.598437) scale(0.1 -0.1)">
       <use xlink:href="#DejaVuSans-34"/>
       <use xlink:href="#DejaVuSans-30" x="63.623047"/>
      </g>
     </g>
    </g>
   </g>
   <g id="line2d_19">
    <path d="M 175.297888 250.784419 
L 175.297888 150.992419 
" clip-path="url(#pca04f1d288)" style="fill: none; stroke: #000000; stroke-width: 0.25; stroke-linecap: square"/>
   </g>
   <g id="line2d_20">
    <path d="M 175.297888 150.992419 
L 275.089887 150.992419 
" clip-path="url(#pca04f1d288)" style="fill: none; stroke: #000000; stroke-width: 0.25; stroke-linecap: square"/>
   </g>
   <g id="line2d_21">
    <path d="M 275.089887 122.718019 
L 175.297888 122.718019 
" clip-path="url(#pca04f1d288)" style="fill: none; stroke: #000000; stroke-width: 0.25; stroke-linecap: square"/>
   </g>
   <g id="line2d_22">
    <path d="M 175.297888 122.718019 
L 175.297888 22.926019 
" clip-path="url(#pca04f1d288)" style="fill: none; stroke: #000000; stroke-width: 0.25; stroke-linecap: square"/>
   </g>
   <g id="line2d_23">
    <path d="M 147.023487 22.926019 
L 147.023487 122.718019 
" clip-path="url(#pca04f1d288)" style="fill: none; stroke: #000000; stroke-width: 0.25; stroke-linecap: square"/>
   </g>
   <g id="line2d_24">
    <path d="M 147.023487 122.718019 
L 47.231488 122.718019 
" clip-path="url(#pca04f1d288)" style="fill: none; stroke: #000000; stroke-width: 0.25; stroke-linecap: square"/>
   </g>
   <g id="line2d_25">
    <path d="M 47.231488 150.992419 
L 147.023487 150.992419 
" clip-path="url(#pca04f1d288)" style="fill: none; stroke: #000000; stroke-width: 0.25; stroke-linecap: square"/>
   </g>
   <g id="line2d_26">
    <path d="M 147.023487 150.992419 
L 147.023487 250.784419 
" clip-path="url(#pca04f1d288)" style="fill: none; stroke: #000000; stroke-width: 0.25; stroke-linecap: square"/>
   </g>
   <g id="line2d_27">
    <path d="M 175.297888 136.855219 
L 275.089887 136.855219 
" clip-path="url(#pca04f1d288)" style="fill: none; stroke-dasharray: 0.925,0.4; stroke-dashoffset: 0; stroke: #000000; stroke-width: 0.25"/>
   </g>
   <g id="line2d_28">
    <path d="M 161.160687 122.718019 
L 161.160687 22.926019 
" clip-path="url(#pca04f1d288)" style="fill: none; stroke-dasharray: 0.925,0.4; stroke-dashoffset: 0; stroke: #000000; stroke-width: 0.25"/>
   </g>
   <g id="line2d_29">
    <path d="M 147.023487 136.855219 
L 47.231488 136.855219 
" clip-path="url(#pca04f1d288)" style="fill: none; stroke-dasharray: 0.925,0.4; stroke-dashoffset: 0; stroke: #000000; stroke-width: 0.25"/>
   </g>
   <g id="line2d_30">
    <path d="M 161.160687 150.992419 
L 161.160687 250.784419 
" clip-path="url(#pca04f1d288)" style="fill: none; stroke-dasharray: 0.925,0.4; stroke-dashoffset: 0; stroke: #000000; stroke-width: 0.25"/>
   </g>
   <g id="line2d_31">
    <path d="M 113.47507 130.325108 
L 111.808705 130.449273 
L 110.141875 130.551958 
L 108.475137 130.643193 
L 106.808338 130.722518 
L 105.141382 130.790095 
L 103.474214 130.846535 
L 101.806798 130.892742 
L 100.139109 130.92979 
L 98.471129 130.958825 
L 96.802842 130.980993 
L 95.134233 130.997395 
L 93.465294 131.009045 
L 91.796018 131.016863 
L 90.126405 131.021653 
L 88.456459 131.024112 
L 86.786189 131.024828 
L 85.115609 131.024286 
L 83.444735 131.022882 
L 81.77359 131.020926 
L 80.102195 131.01866 
L 78.430576 131.016261 
L 76.75876 131.013859 
L 75.086772 131.011536 
L 73.41464 131.009343 
L 71.742389 131.007301 
L 70.070043 131.00541 
L 68.397625 131.003654 
L 66.725158 131.002005 
L 65.052659 131.000425 
L 63.380147 130.998873 
" clip-path="url(#pca04f1d288)" style="fill: none; stroke: #ff0000; stroke-width: 0.25; stroke-linecap: square"/>
   </g>
   <g id="line2d_32">
    <path d="M 167.382961 79.419652 
L 167.307067 77.861049 
L 167.242769 76.301695 
L 167.188053 74.742003 
L 167.1423 73.182253 
L 167.10472 71.622678 
L 167.074433 70.063458 
L 167.050526 68.504727 
L 167.0321 66.946581 
L 167.018302 65.38908 
L 167.008342 63.832256 
L 167.001508 62.276117 
L 166.997172 60.720653 
L 166.994787 59.165842 
L 166.993889 57.611651 
L 166.994089 56.058038 
L 166.995065 54.504958 
L 166.996562 52.952363 
L 166.998375 51.400203 
L 167.000348 49.848431 
L 167.002365 48.296997 
L 167.004345 46.745856 
L 167.006234 45.194964 
L 167.007999 43.644281 
L 167.009627 42.093768 
L 167.01112 40.543391 
L 167.012489 38.993119 
L 167.013754 37.442924 
L 167.014941 35.892783 
L 167.01608 34.342673 
L 167.017204 32.792578 
" clip-path="url(#pca04f1d288)" style="fill: none; stroke: #ff0000; stroke-width: 0.25; stroke-linecap: square"/>
   </g>
   <g id="line2d_33">
    <path d="M 154.569994 184.024943 
L 154.692091 185.664467 
L 154.791249 187.307863 
L 154.884776 188.95352 
L 154.968269 190.601341 
L 155.041247 192.25101 
L 155.103778 193.902209 
L 155.15633 195.554636 
L 155.199647 197.208018 
L 155.234638 198.862116 
L 155.262291 200.516723 
L 155.283613 202.171671 
L 155.299577 203.826821 
L 155.311096 205.482063 
L 155.318997 207.137312 
L 155.324018 208.792502 
L 155.326797 210.447586 
L 155.327878 212.102532 
L 155.327714 213.757318 
L 155.326675 215.411933 
L 155.325057 217.066376 
L 155.323088 218.720648 
L 155.32094 220.374761 
L 155.318737 222.028727 
L 155.316564 223.682563 
L 155.314469 225.336286 
L 155.312478 226.989918 
L 155.310593 228.643477 
L 155.308803 230.296985 
L 155.307081 231.950461 
L 155.305399 233.603921 
" clip-path="url(#pca04f1d288)" style="fill: none; stroke: #ff0000; stroke-width: 0.25; stroke-linecap: square"/>
   </g>
   <g id="line2d_34">
    <path d="M 208.326228 142.826776 
L 209.970375 142.796631 
L 211.616463 142.768572 
L 213.264296 142.746365 
L 214.913609 142.729208 
L 216.564164 142.716325 
L 218.215745 142.706995 
L 219.86816 142.700561 
L 221.521239 142.696443 
L 223.174833 142.694132 
L 224.828813 142.693194 
L 226.483068 142.693268 
L 228.137504 142.694052 
L 229.792042 142.695307 
L 231.446617 142.696842 
L 233.101178 142.698509 
L 234.755684 142.700201 
L 236.410105 142.701838 
L 238.064421 142.703368 
L 239.718618 142.704759 
L 241.372691 142.705995 
L 243.026639 142.707072 
L 244.680466 142.707994 
L 246.334181 142.708775 
L 247.987795 142.70943 
L 249.641322 142.709979 
L 251.294777 142.710443 
L 252.948175 142.710843 
L 254.601532 142.711202 
L 256.254864 142.71154 
L 257.908184 142.711881 
" clip-path="url(#pca04f1d288)" style="fill: none; stroke: #ff0000; stroke-width: 0.25; stroke-linecap: square"/>
   </g>
   <g id="line2d_35">
    <path d="M 168.628076 128.785481 
L 167.72729 127.100647 
L 167.004464 125.379607 
L 166.46752 123.648807 
L 166.171899 121.924372 
L 166.154633 120.24201 
L 166.339645 118.637429 
L 166.653312 117.116577 
L 167.082343 115.67979 
L 167.399272 114.25687 
L 167.604664 112.843835 
L 167.729186 111.441197 
L 167.766198 110.044847 
L 167.736344 108.65273 
L 167.676065 107.260411 
L 167.598112 105.863444 
L 167.521584 104.4575 
L 167.449525 103.039998 
L 167.382871 101.609345 
L 167.322197 100.164717 
L 167.267756 98.705943 
L 167.219522 97.233397 
L 167.177233 95.747895 
L 167.14044 94.250595 
L 167.108546 92.742912 
L 167.080843 91.226436 
L 167.056542 89.702857 
L 167.034799 88.173893 
L 167.014742 86.641222 
L 166.995488 85.106419 
L 166.976162 83.570878 
" clip-path="url(#pca04f1d288)" style="fill: none; stroke: #ff0000; stroke-width: 0.25; stroke-linecap: square"/>
   </g>
   <g id="line2d_36">
    <path d="M 154.341396 128.313263 
L 152.807401 128.907438 
L 151.271302 129.381939 
L 149.737389 129.744685 
L 148.207932 130.002176 
L 146.684543 130.161669 
L 145.168096 130.233641 
L 143.658034 130.230042 
L 142.15281 130.167169 
L 140.64996 130.059392 
L 139.144219 129.948692 
L 137.631384 129.866765 
L 136.110551 129.811733 
L 134.580928 129.807125 
L 133.044192 129.865767 
L 131.501641 129.972198 
L 129.952719 130.104175 
L 128.396449 130.245616 
L 126.83116 130.37596 
L 125.257016 130.492378 
L 123.674577 130.5946 
L 122.084573 130.682978 
L 120.487839 130.758367 
L 118.88527 130.822 
L 117.277784 130.875373 
L 115.666289 130.920153 
L 114.051664 130.958103 
L 112.43474 130.991024 
L 110.816285 131.02071 
L 109.196992 131.048917 
L 107.577462 131.077301 
" clip-path="url(#pca04f1d288)" style="fill: none; stroke: #ff0000; stroke-width: 0.25; stroke-linecap: square"/>
   </g>
   <g id="line2d_37">
    <path d="M 165.843586 143.695457 
L 167.677331 144.224351 
L 169.532981 144.553646 
L 171.38574 144.686623 
L 173.213137 144.634485 
L 175.005936 144.509081 
L 176.762405 144.332286 
L 178.484193 144.129677 
L 180.174705 143.921875 
L 181.837615 143.719479 
L 183.476669 143.526091 
L 185.096501 143.347739 
L 186.702072 143.192575 
L 188.297249 143.063342 
L 189.884882 142.957766 
L 191.467345 142.873157 
L 193.046576 142.806712 
L 194.624104 142.7557 
L 196.201102 142.717607 
L 197.778394 142.690246 
L 199.356484 142.671599 
L 200.935666 142.659864 
L 202.516068 142.65348 
L 204.097687 142.651114 
L 205.680419 142.651653 
L 207.264096 142.654191 
L 208.848509 142.658025 
L 210.433441 142.662636 
L 212.018689 142.66779 
L 213.604089 142.673658 
L 215.189535 142.680545 
" clip-path="url(#pca04f1d288)" style="fill: none; stroke: #ff0000; stroke-width: 0.25; stroke-linecap: square"/>
   </g>
   <g id="line2d_38">
    <path d="M 149.169493 145.540321 
L 150.611916 145.722147 
L 152.118884 145.86069 
L 153.692203 145.939208 
L 155.330748 145.93199 
L 157.027251 145.795808 
L 158.75996 145.464269 
L 160.476245 144.847808 
L 162.164423 144.022887 
L 163.801126 143.002095 
L 165.354847 141.788922 
L 166.790919 140.394804 
L 168.074793 138.841213 
L 169.177669 137.156935 
L 170.080838 135.373748 
L 170.774951 133.522213 
L 171.257846 131.631002 
L 171.531804 129.726608 
L 171.602641 127.833058 
L 171.478758 125.971455 
L 171.170263 124.159754 
L 170.68804 122.412848 
L 170.042294 120.743638 
L 169.462427 119.070428 
L 168.931333 117.397101 
L 168.442073 115.723168 
L 167.98972 114.047479 
L 167.567831 112.369497 
L 167.167346 110.689514 
L 166.779604 109.008119 
L 166.39829 107.325773 
" clip-path="url(#pca04f1d288)" style="fill: none; stroke: #ff0000; stroke-width: 0.25; stroke-linecap: square"/>
   </g>
   <g id="line2d_39">
    <path d="M 167.615509 179.23616 
L 167.473508 177.685888 
L 167.350948 176.135966 
L 167.229999 174.589051 
L 167.115448 173.045862 
L 167.00864 171.507412 
L 166.910864 169.974749 
L 166.82354 168.448944 
L 166.748405 166.93108 
L 166.687683 165.422256 
L 166.644231 163.923592 
L 166.621673 162.436255 
L 166.624515 160.961498 
L 166.658254 159.500743 
L 166.729495 158.055693 
L 166.846092 156.628519 
L 167.017351 155.222161 
L 167.254335 153.840788 
L 167.570359 152.490589 
L 167.964502 151.175851 
L 168.459172 149.909459 
L 169.067116 148.706692 
L 169.802765 147.59055 
L 170.618593 146.544219 
L 171.502635 145.567066 
L 172.449405 144.662337 
L 173.453429 143.832778 
L 174.509273 143.080533 
L 175.597787 142.384888 
L 176.683529 141.690285 
L 177.755446 140.976902 
" clip-path="url(#pca04f1d288)" style="fill: none; stroke: #ff0000; stroke-width: 0.25; stroke-linecap: square"/>
   </g>
   <g id="line2d_40">
    <path d="M 182.95217 130.429579 
L 181.118351 130.730654 
L 179.213548 130.998646 
L 177.226602 131.156783 
L 175.161999 131.17304 
L 173.028572 131.111112 
L 170.831939 131.01328 
L 168.576474 130.98799 
L 166.302566 131.351911 
L 164.136243 132.234984 
L 162.078173 133.396872 
L 160.179837 134.820351 
L 158.487541 136.47389 
L 157.037412 138.317011 
L 155.852141 140.305699 
L 154.943051 142.397324 
L 154.313345 144.550602 
L 153.959559 146.725627 
L 153.872272 148.88515 
L 154.037225 150.996535 
L 154.274815 153.058217 
L 154.467838 155.085405 
L 154.634697 157.081186 
L 154.78284 159.051185 
L 154.91627 161.001587 
L 155.036481 162.938252 
L 155.144736 164.866017 
L 155.242274 166.788422 
L 155.332221 168.708006 
L 155.417604 170.626445 
L 155.500031 172.544599 
" clip-path="url(#pca04f1d288)" style="fill: none; stroke: #ff0000; stroke-width: 0.25; stroke-linecap: square"/>
   </g>
   <g id="line2d_41">
    <path d="M 154.880186 94.461133 
L 154.918098 96.012583 
L 154.938081 97.560667 
L 154.935344 99.104258 
L 154.908408 100.642061 
L 154.856053 102.172705 
L 154.777327 103.694758 
L 154.671602 105.206745 
L 154.577481 106.710119 
L 154.515909 108.204655 
L 154.480291 109.688268 
L 154.481707 111.159393 
L 154.531563 112.615534 
L 154.613535 114.054957 
L 154.675442 115.479242 
L 154.699897 116.887868 
L 154.661325 118.279175 
L 154.544137 119.649214 
L 154.331483 120.991326 
L 154.001281 122.293862 
L 153.534266 123.539355 
L 152.925631 124.708489 
L 152.239855 125.821523 
L 151.481449 126.87489 
L 150.654949 127.865475 
L 149.764887 128.790433 
L 148.815918 129.646693 
L 147.812902 130.43132 
L 146.780304 131.170208 
L 145.74805 131.905528 
L 144.729647 132.65815 
" clip-path="url(#pca04f1d288)" style="fill: none; stroke: #ff0000; stroke-width: 0.25; stroke-linecap: square"/>
   </g>
   <g id="line2d_42">
    <path d="M 118.520889 143.488781 
L 119.983191 143.417793 
L 121.430038 143.364969 
L 122.860302 143.322957 
L 124.273422 143.292209 
L 125.669088 143.272545 
L 127.047326 143.263225 
L 128.408592 143.263013 
L 129.753862 143.2702 
L 131.08474 143.282583 
L 132.403585 143.271311 
L 133.71206 143.211066 
L 135.011611 143.095426 
L 136.300151 142.89275 
L 137.566548 142.558293 
L 138.802049 142.087809 
L 140.074088 141.661582 
L 141.41283 141.379672 
L 142.81331 141.357117 
L 144.230216 141.596554 
L 145.660005 141.956738 
L 147.090073 142.443386 
L 148.504883 143.060115 
L 149.887029 143.807718 
L 151.218349 144.683937 
L 152.481076 145.683366 
L 153.658926 146.798017 
L 154.737871 148.018136 
L 155.706041 149.332991 
L 156.554086 150.730902 
L 157.307038 152.183217 
" clip-path="url(#pca04f1d288)" style="fill: none; stroke: #ff0000; stroke-width: 0.25; stroke-linecap: square"/>
   </g>
   <g id="patch_15">
    <path d="M 28.104688 269.911219 
L 28.104688 3.799219 
" style="fill: none; stroke: #000000; stroke-width: 0.8; stroke-linejoin: miter; stroke-linecap: square"/>
   </g>
   <g id="patch_16">
    <path d="M 294.216687 269.911219 
L 294.216687 3.799219 
" style="fill: none; stroke: #000000; stroke-width: 0.8; stroke-linejoin: miter; stroke-linecap: square"/>
   </g>
   <g id="patch_17">
    <path d="M 28.104688 269.911219 
L 294.216687 269.911219 
" style="fill: none; stroke: #000000; stroke-width: 0.8; stroke-linejoin: miter; stroke-linecap: square"/>
   </g>
   <g id="patch_18">
    <path d="M 28.104688 3.799219 
L 294.216687 3.799219 
" style="fill: none; stroke: #000000; stroke-width: 0.8; stroke-linejoin: miter; stroke-linecap: square"/>
   </g>
   <g id="text_19">
    <!-- Time: 5.9 s -->
    <g transform="translate(198.9952 17.104819) scale(0.1 -0.1)">
     <defs>
      <path id="DejaVuSans-54" d="M -19 4666 
L 3928 4666 
L 3928 4134 
L 2272 4134 
L 2272 0 
L 1638 0 
L 1638 4134 
L -19 4134 
L -19 4666 
z
" transform="scale(0.015625)"/>
      <path id="DejaVuSans-69" d="M 603 3500 
L 1178 3500 
L 1178 0 
L 603 0 
L 603 3500 
z
M 603 4863 
L 1178 4863 
L 1178 4134 
L 603 4134 
L 603 4863 
z
" transform="scale(0.015625)"/>
      <path id="DejaVuSans-6d" d="M 3328 2828 
Q 3544 3216 3844 3400 
Q 4144 3584 4550 3584 
Q 5097 3584 5394 3201 
Q 5691 2819 5691 2113 
L 5691 0 
L 5113 0 
L 5113 2094 
Q 5113 2597 4934 2840 
Q 4756 3084 4391 3084 
Q 3944 3084 3684 2787 
Q 3425 2491 3425 1978 
L 3425 0 
L 2847 0 
L 2847 2094 
Q 2847 2600 2669 2842 
Q 2491 3084 2119 3084 
Q 1678 3084 1418 2786 
Q 1159 2488 1159 1978 
L 1159 0 
L 581 0 
L 581 3500 
L 1159 3500 
L 1159 2956 
Q 1356 3278 1631 3431 
Q 1906 3584 2284 3584 
Q 2666 3584 2933 3390 
Q 3200 3197 3328 2828 
z
" transform="scale(0.015625)"/>
      <path id="DejaVuSans-65" d="M 3597 1894 
L 3597 1613 
L 953 1613 
Q 991 1019 1311 708 
Q 1631 397 2203 397 
Q 2534 397 2845 478 
Q 3156 559 3463 722 
L 3463 178 
Q 3153 47 2828 -22 
Q 2503 -91 2169 -91 
Q 1331 -91 842 396 
Q 353 884 353 1716 
Q 353 2575 817 3079 
Q 1281 3584 2069 3584 
Q 2775 3584 3186 3129 
Q 3597 2675 3597 1894 
z
M 3022 2063 
Q 3016 2534 2758 2815 
Q 2500 3097 2075 3097 
Q 1594 3097 1305 2825 
Q 1016 2553 972 2059 
L 3022 2063 
z
" transform="scale(0.015625)"/>
      <path id="DejaVuSans-3a" d="M 750 794 
L 1409 794 
L 1409 0 
L 750 0 
L 750 794 
z
M 750 3309 
L 1409 3309 
L 1409 2516 
L 750 2516 
L 750 3309 
z
" transform="scale(0.015625)"/>
      <path id="DejaVuSans-20" transform="scale(0.015625)"/>
      <path id="DejaVuSans-35" d="M 691 4666 
L 3169 4666 
L 3169 4134 
L 1269 4134 
L 1269 2991 
Q 1406 3038 1543 3061 
Q 1681 3084 1819 3084 
Q 2600 3084 3056 2656 
Q 3513 2228 3513 1497 
Q 3513 744 3044 326 
Q 2575 -91 1722 -91 
Q 1428 -91 1123 -41 
Q 819 9 494 109 
L 494 744 
Q 775 591 1075 516 
Q 1375 441 1709 441 
Q 2250 441 2565 725 
Q 2881 1009 2881 1497 
Q 2881 1984 2565 2268 
Q 2250 2553 1709 2553 
Q 1456 2553 1204 2497 
Q 953 2441 691 2322 
L 691 4666 
z
" transform="scale(0.015625)"/>
      <path id="DejaVuSans-2e" d="M 684 794 
L 1344 794 
L 1344 0 
L 684 0 
L 684 794 
z
" transform="scale(0.015625)"/>
      <path id="DejaVuSans-39" d="M 703 97 
L 703 672 
Q 941 559 1184 500 
Q 1428 441 1663 441 
Q 2288 441 2617 861 
Q 2947 1281 2994 2138 
Q 2813 1869 2534 1725 
Q 2256 1581 1919 1581 
Q 1219 1581 811 2004 
Q 403 2428 403 3163 
Q 403 3881 828 4315 
Q 1253 4750 1959 4750 
Q 2769 4750 3195 4129 
Q 3622 3509 3622 2328 
Q 3622 1225 3098 567 
Q 2575 -91 1691 -91 
Q 1453 -91 1209 -44 
Q 966 3 703 97 
z
M 1959 2075 
Q 2384 2075 2632 2365 
Q 2881 2656 2881 3163 
Q 2881 3666 2632 3958 
Q 2384 4250 1959 4250 
Q 1534 4250 1286 3958 
Q 1038 3666 1038 3163 
Q 1038 2656 1286 2365 
Q 1534 2075 1959 2075 
z
" transform="scale(0.015625)"/>
      <path id="DejaVuSans-73" d="M 2834 3397 
L 2834 2853 
Q 2591 2978 2328 3040 
Q 2066 3103 1784 3103 
Q 1356 3103 1142 2972 
Q 928 2841 928 2578 
Q 928 2378 1081 2264 
Q 1234 2150 1697 2047 
L 1894 2003 
Q 2506 1872 2764 1633 
Q 3022 1394 3022 966 
Q 3022 478 2636 193 
Q 2250 -91 1575 -91 
Q 1294 -91 989 -36 
Q 684 19 347 128 
L 347 722 
Q 666 556 975 473 
Q 1284 391 1588 391 
Q 1994 391 2212 530 
Q 2431 669 2431 922 
Q 2431 1156 2273 1281 
Q 2116 1406 1581 1522 
L 1381 1569 
Q 847 1681 609 1914 
Q 372 2147 372 2553 
Q 372 3047 722 3315 
Q 1072 3584 1716 3584 
Q 2034 3584 2315 3537 
Q 2597 3491 2834 3397 
z
" transform="scale(0.015625)"/>
     </defs>
     <use xlink:href="#DejaVuSans-54"/>
     <use xlink:href="#DejaVuSans-69" x="57.958984"/>
     <use xlink:href="#DejaVuSans-6d" x="85.742188"/>
     <use xlink:href="#DejaVuSans-65" x="183.154297"/>
     <use xlink:href="#DejaVuSans-3a" x="244.677734"/>
     <use xlink:href="#DejaVuSans-20" x="278.369141"/>
     <use xlink:href="#DejaVuSans-35" x="310.15625"/>
     <use xlink:href="#DejaVuSans-2e" x="373.779297"/>
     <use xlink:href="#DejaVuSans-39" x="405.566406"/>
     <use xlink:href="#DejaVuSans-20" x="469.189453"/>
     <use xlink:href="#DejaVuSans-73" x="500.976562"/>
    </g>
   </g>
  </g>
 </g>
 <defs>
  <clipPath id="pca04f1d288">
   <rect x="28.104688" y="3.799219" width="266.112" height="266.112"/>
  </clipPath>
 </defs>
</svg>
