<?xml version="1.0" encoding="utf-8" standalone="no"?>
<!DOCTYPE svg PUBLIC "-//W3C//DTD SVG 1.1//EN"
  "http://www.w3.org/Graphics/SVG/1.1/DTD/svg11.dtd">
<svg xmlns:xlink="http://www.w3.org/1999/xlink" width="300.579188pt" height="286.589344pt" viewBox="0 0 300.579188 286.589344" xmlns="http://www.w3.org/2000/svg" version="1.1">
 <metadata>
  <rdf:RDF xmlns:dc="http://purl.org/dc/elements/1.1/" xmlns:cc="http://creativecommons.org/ns#" xmlns:rdf="http://www.w3.org/1999/02/22-rdf-syntax-ns#">
   <cc:Work>
    <dc:type rdf:resource="http://purl.org/dc/dcmitype/StillImage"/>
    <dc:date>2024-02-26T10:13:06.630171</dc:date>
    <dc:format>image/svg+xml</dc:format>
    <dc:creator>
     <cc:Agent>
      <dc:title>Matplotlib v3.8.2, https://matplotlib.org/</dc:title>
     </cc:Agent>
    </dc:creator>
   </cc:Work>
  </rdf:RDF>
 </metadata>
 <defs>
  <style type="text/css">*{stroke-linejoin: round; stroke-linecap: butt}</style>
 </defs>
 <g id="figure_1">
  <g id="patch_1">
   <path d="M 0 286.589344 
L 300.579188 286.589344 
L 300.579188 0 
L 0 0 
z
" style="fill: #ffffff"/>
  </g>
  <g id="axes_1">
   <g id="patch_2">
    <path d="M 28.104688 269.911219 
L 294.216687 269.911219 
L 294.216687 3.799219 
L 28.104688 3.799219 
z
" style="fill: #ffffff"/>
   </g>
   <g id="patch_3">
    <path d="M 171.226531 151.080311 
L 171.271533 139.437998 
L 165.616695 139.41614 
L 165.571694 151.058453 
z
" clip-path="url(#p26ff155368)" style="fill: #00008b"/>
   </g>
   <g id="patch_4">
    <path d="M 181.397372 127.937933 
L 170.437253 124.010939 
L 168.529856 129.334425 
L 179.489975 133.261419 
z
" clip-path="url(#p26ff155368)" style="fill: #800000"/>
   </g>
   <g id="patch_5">
    <path d="M 151.806443 120.056502 
L 149.766601 131.51881 
L 155.334008 132.509591 
L 157.37385 121.047282 
z
" clip-path="url(#p26ff155368)" style="fill: #006400"/>
   </g>
   <g id="patch_6">
    <path d="M 144.100832 146.722 
L 155.381735 149.600665 
L 156.779944 144.121369 
L 145.499041 141.242704 
z
" clip-path="url(#p26ff155368)" style="fill: #4b0082"/>
   </g>
   <g id="patch_7">
    <path d="M 169.829869 195.309025 
L 169.831844 183.666626 
L 164.176964 183.665666 
L 164.174989 195.308066 
z
" clip-path="url(#p26ff155368)" style="fill: #0000ff"/>
   </g>
   <g id="patch_8">
    <path d="M 219.608904 128.189025 
L 207.966511 128.201078 
L 207.972365 133.855955 
L 219.614758 133.843902 
z
" clip-path="url(#p26ff155368)" style="fill: #ff0000"/>
   </g>
   <g id="patch_9">
    <path d="M 152.500298 78.847406 
L 152.444593 90.489673 
L 158.099408 90.51673 
L 158.155114 78.874463 
z
" clip-path="url(#p26ff155368)" style="fill: #dbdc56"/>
   </g>
   <g id="patch_10">
    <path d="M 96.544851 145.528465 
L 108.187247 145.519407 
L 108.182848 139.864529 
L 96.540451 139.873586 
z
" clip-path="url(#p26ff155368)" style="fill: #9400d3"/>
   </g>
   <g id="patch_11">
    <path d="M 169.843947 240.906235 
L 169.843947 229.263835 
L 164.189067 229.263835 
L 164.189067 240.906235 
z
" clip-path="url(#p26ff155368)" style="fill: #1e90ff"/>
   </g>
   <g id="patch_12">
    <path d="M 255.758834 128.172071 
L 244.116435 128.175564 
L 244.118131 133.830444 
L 255.760531 133.826951 
z
" clip-path="url(#p26ff155368)" style="fill: #ff4500"/>
   </g>
   <g id="patch_13">
    <path d="M 152.477644 32.805173 
L 152.480888 44.447572 
L 158.135768 44.445996 
L 158.132524 32.803597 
z
" clip-path="url(#p26ff155368)" style="fill: #7cfc00"/>
   </g>
   <g id="patch_14">
    <path d="M 57.109671 145.538479 
L 68.752071 145.538479 
L 68.752071 139.883599 
L 57.109671 139.883599 
z
" clip-path="url(#p26ff155368)" style="fill: #ff00ff"/>
   </g>
   <g id="matplotlib.axis_1">
    <g id="xtick_1">
     <g id="line2d_1">
      <defs>
       <path id="mab3aeee246" d="M 0 0 
L 0 3.5 
" style="stroke: #000000; stroke-width: 0.8"/>
      </defs>
      <g>
       <use xlink:href="#mab3aeee246" x="28.104688" y="269.911219" style="stroke: #000000; stroke-width: 0.8"/>
      </g>
     </g>
     <g id="text_1">
      <!-- −40 -->
      <g transform="translate(17.552344 284.509656) scale(0.1 -0.1)">
       <defs>
        <path id="DejaVuSans-2212" d="M 678 2272 
L 4684 2272 
L 4684 1741 
L 678 1741 
L 678 2272 
z
" transform="scale(0.015625)"/>
        <path id="DejaVuSans-34" d="M 2419 4116 
L 825 1625 
L 2419 1625 
L 2419 4116 
z
M 2253 4666 
L 3047 4666 
L 3047 1625 
L 3713 1625 
L 3713 1100 
L 3047 1100 
L 3047 0 
L 2419 0 
L 2419 1100 
L 313 1100 
L 313 1709 
L 2253 4666 
z
" transform="scale(0.015625)"/>
        <path id="DejaVuSans-30" d="M 2034 4250 
Q 1547 4250 1301 3770 
Q 1056 3291 1056 2328 
Q 1056 1369 1301 889 
Q 1547 409 2034 409 
Q 2525 409 2770 889 
Q 3016 1369 3016 2328 
Q 3016 3291 2770 3770 
Q 2525 4250 2034 4250 
z
M 2034 4750 
Q 2819 4750 3233 4129 
Q 3647 3509 3647 2328 
Q 3647 1150 3233 529 
Q 2819 -91 2034 -91 
Q 1250 -91 836 529 
Q 422 1150 422 2328 
Q 422 3509 836 4129 
Q 1250 4750 2034 4750 
z
" transform="scale(0.015625)"/>
       </defs>
       <use xlink:href="#DejaVuSans-2212"/>
       <use xlink:href="#DejaVuSans-34" x="83.789062"/>
       <use xlink:href="#DejaVuSans-30" x="147.412109"/>
      </g>
     </g>
    </g>
    <g id="xtick_2">
     <g id="line2d_2">
      <g>
       <use xlink:href="#mab3aeee246" x="61.368688" y="269.911219" style="stroke: #000000; stroke-width: 0.8"/>
      </g>
     </g>
     <g id="text_2">
      <!-- −30 -->
      <g transform="translate(50.816344 284.509656) scale(0.1 -0.1)">
       <defs>
        <path id="DejaVuSans-33" d="M 2597 2516 
Q 3050 2419 3304 2112 
Q 3559 1806 3559 1356 
Q 3559 666 3084 287 
Q 2609 -91 1734 -91 
Q 1441 -91 1130 -33 
Q 819 25 488 141 
L 488 750 
Q 750 597 1062 519 
Q 1375 441 1716 441 
Q 2309 441 2620 675 
Q 2931 909 2931 1356 
Q 2931 1769 2642 2001 
Q 2353 2234 1838 2234 
L 1294 2234 
L 1294 2753 
L 1863 2753 
Q 2328 2753 2575 2939 
Q 2822 3125 2822 3475 
Q 2822 3834 2567 4026 
Q 2313 4219 1838 4219 
Q 1578 4219 1281 4162 
Q 984 4106 628 3988 
L 628 4550 
Q 988 4650 1302 4700 
Q 1616 4750 1894 4750 
Q 2613 4750 3031 4423 
Q 3450 4097 3450 3541 
Q 3450 3153 3228 2886 
Q 3006 2619 2597 2516 
z
" transform="scale(0.015625)"/>
       </defs>
       <use xlink:href="#DejaVuSans-2212"/>
       <use xlink:href="#DejaVuSans-33" x="83.789062"/>
       <use xlink:href="#DejaVuSans-30" x="147.412109"/>
      </g>
     </g>
    </g>
    <g id="xtick_3">
     <g id="line2d_3">
      <g>
       <use xlink:href="#mab3aeee246" x="94.632688" y="269.911219" style="stroke: #000000; stroke-width: 0.8"/>
      </g>
     </g>
     <g id="text_3">
      <!-- −20 -->
      <g transform="translate(84.080344 284.509656) scale(0.1 -0.1)">
       <defs>
        <path id="DejaVuSans-32" d="M 1228 531 
L 3431 531 
L 3431 0 
L 469 0 
L 469 531 
Q 828 903 1448 1529 
Q 2069 2156 2228 2338 
Q 2531 2678 2651 2914 
Q 2772 3150 2772 3378 
Q 2772 3750 2511 3984 
Q 2250 4219 1831 4219 
Q 1534 4219 1204 4116 
Q 875 4013 500 3803 
L 500 4441 
Q 881 4594 1212 4672 
Q 1544 4750 1819 4750 
Q 2544 4750 2975 4387 
Q 3406 4025 3406 3419 
Q 3406 3131 3298 2873 
Q 3191 2616 2906 2266 
Q 2828 2175 2409 1742 
Q 1991 1309 1228 531 
z
" transform="scale(0.015625)"/>
       </defs>
       <use xlink:href="#DejaVuSans-2212"/>
       <use xlink:href="#DejaVuSans-32" x="83.789062"/>
       <use xlink:href="#DejaVuSans-30" x="147.412109"/>
      </g>
     </g>
    </g>
    <g id="xtick_4">
     <g id="line2d_4">
      <g>
       <use xlink:href="#mab3aeee246" x="127.896687" y="269.911219" style="stroke: #000000; stroke-width: 0.8"/>
      </g>
     </g>
     <g id="text_4">
      <!-- −10 -->
      <g transform="translate(117.344344 284.509656) scale(0.1 -0.1)">
       <defs>
        <path id="DejaVuSans-31" d="M 794 531 
L 1825 531 
L 1825 4091 
L 703 3866 
L 703 4441 
L 1819 4666 
L 2450 4666 
L 2450 531 
L 3481 531 
L 3481 0 
L 794 0 
L 794 531 
z
" transform="scale(0.015625)"/>
       </defs>
       <use xlink:href="#DejaVuSans-2212"/>
       <use xlink:href="#DejaVuSans-31" x="83.789062"/>
       <use xlink:href="#DejaVuSans-30" x="147.412109"/>
      </g>
     </g>
    </g>
    <g id="xtick_5">
     <g id="line2d_5">
      <g>
       <use xlink:href="#mab3aeee246" x="161.160687" y="269.911219" style="stroke: #000000; stroke-width: 0.8"/>
      </g>
     </g>
     <g id="text_5">
      <!-- 0 -->
      <g transform="translate(157.979437 284.509656) scale(0.1 -0.1)">
       <use xlink:href="#DejaVuSans-30"/>
      </g>
     </g>
    </g>
    <g id="xtick_6">
     <g id="line2d_6">
      <g>
       <use xlink:href="#mab3aeee246" x="194.424688" y="269.911219" style="stroke: #000000; stroke-width: 0.8"/>
      </g>
     </g>
     <g id="text_6">
      <!-- 10 -->
      <g transform="translate(188.062187 284.509656) scale(0.1 -0.1)">
       <use xlink:href="#DejaVuSans-31"/>
       <use xlink:href="#DejaVuSans-30" x="63.623047"/>
      </g>
     </g>
    </g>
    <g id="xtick_7">
     <g id="line2d_7">
      <g>
       <use xlink:href="#mab3aeee246" x="227.688687" y="269.911219" style="stroke: #000000; stroke-width: 0.8"/>
      </g>
     </g>
     <g id="text_7">
      <!-- 20 -->
      <g transform="translate(221.326187 284.509656) scale(0.1 -0.1)">
       <use xlink:href="#DejaVuSans-32"/>
       <use xlink:href="#DejaVuSans-30" x="63.623047"/>
      </g>
     </g>
    </g>
    <g id="xtick_8">
     <g id="line2d_8">
      <g>
       <use xlink:href="#mab3aeee246" x="260.952687" y="269.911219" style="stroke: #000000; stroke-width: 0.8"/>
      </g>
     </g>
     <g id="text_8">
      <!-- 30 -->
      <g transform="translate(254.590187 284.509656) scale(0.1 -0.1)">
       <use xlink:href="#DejaVuSans-33"/>
       <use xlink:href="#DejaVuSans-30" x="63.623047"/>
      </g>
     </g>
    </g>
    <g id="xtick_9">
     <g id="line2d_9">
      <g>
       <use xlink:href="#mab3aeee246" x="294.216687" y="269.911219" style="stroke: #000000; stroke-width: 0.8"/>
      </g>
     </g>
     <g id="text_9">
      <!-- 40 -->
      <g transform="translate(287.854187 284.509656) scale(0.1 -0.1)">
       <use xlink:href="#DejaVuSans-34"/>
       <use xlink:href="#DejaVuSans-30" x="63.623047"/>
      </g>
     </g>
    </g>
   </g>
   <g id="matplotlib.axis_2">
    <g id="ytick_1">
     <g id="line2d_10">
      <defs>
       <path id="mdda989cda6" d="M 0 0 
L -3.5 0 
" style="stroke: #000000; stroke-width: 0.8"/>
      </defs>
      <g>
       <use xlink:href="#mdda989cda6" x="28.104688" y="269.911219" style="stroke: #000000; stroke-width: 0.8"/>
      </g>
     </g>
     <g id="text_10">
      <!-- −40 -->
      <g transform="translate(0 273.710437) scale(0.1 -0.1)">
       <use xlink:href="#DejaVuSans-2212"/>
       <use xlink:href="#DejaVuSans-34" x="83.789062"/>
       <use xlink:href="#DejaVuSans-30" x="147.412109"/>
      </g>
     </g>
    </g>
    <g id="ytick_2">
     <g id="line2d_11">
      <g>
       <use xlink:href="#mdda989cda6" x="28.104688" y="236.647219" style="stroke: #000000; stroke-width: 0.8"/>
      </g>
     </g>
     <g id="text_11">
      <!-- −30 -->
      <g transform="translate(0 240.446437) scale(0.1 -0.1)">
       <use xlink:href="#DejaVuSans-2212"/>
       <use xlink:href="#DejaVuSans-33" x="83.789062"/>
       <use xlink:href="#DejaVuSans-30" x="147.412109"/>
      </g>
     </g>
    </g>
    <g id="ytick_3">
     <g id="line2d_12">
      <g>
       <use xlink:href="#mdda989cda6" x="28.104688" y="203.383219" style="stroke: #000000; stroke-width: 0.8"/>
      </g>
     </g>
     <g id="text_12">
      <!-- −20 -->
      <g transform="translate(0 207.182437) scale(0.1 -0.1)">
       <use xlink:href="#DejaVuSans-2212"/>
       <use xlink:href="#DejaVuSans-32" x="83.789062"/>
       <use xlink:href="#DejaVuSans-30" x="147.412109"/>
      </g>
     </g>
    </g>
    <g id="ytick_4">
     <g id="line2d_13">
      <g>
       <use xlink:href="#mdda989cda6" x="28.104688" y="170.119219" style="stroke: #000000; stroke-width: 0.8"/>
      </g>
     </g>
     <g id="text_13">
      <!-- −10 -->
      <g transform="translate(0 173.918437) scale(0.1 -0.1)">
       <use xlink:href="#DejaVuSans-2212"/>
       <use xlink:href="#DejaVuSans-31" x="83.789062"/>
       <use xlink:href="#DejaVuSans-30" x="147.412109"/>
      </g>
     </g>
    </g>
    <g id="ytick_5">
     <g id="line2d_14">
      <g>
       <use xlink:href="#mdda989cda6" x="28.104688" y="136.855219" style="stroke: #000000; stroke-width: 0.8"/>
      </g>
     </g>
     <g id="text_14">
      <!-- 0 -->
      <g transform="translate(14.742188 140.654437) scale(0.1 -0.1)">
       <use xlink:href="#DejaVuSans-30"/>
      </g>
     </g>
    </g>
    <g id="ytick_6">
     <g id="line2d_15">
      <g>
       <use xlink:href="#mdda989cda6" x="28.104688" y="103.591219" style="stroke: #000000; stroke-width: 0.8"/>
      </g>
     </g>
     <g id="text_15">
      <!-- 10 -->
      <g transform="translate(8.379688 107.390437) scale(0.1 -0.1)">
       <use xlink:href="#DejaVuSans-31"/>
       <use xlink:href="#DejaVuSans-30" x="63.623047"/>
      </g>
     </g>
    </g>
    <g id="ytick_7">
     <g id="line2d_16">
      <g>
       <use xlink:href="#mdda989cda6" x="28.104688" y="70.327219" style="stroke: #000000; stroke-width: 0.8"/>
      </g>
     </g>
     <g id="text_16">
      <!-- 20 -->
      <g transform="translate(8.379688 74.126437) scale(0.1 -0.1)">
       <use xlink:href="#DejaVuSans-32"/>
       <use xlink:href="#DejaVuSans-30" x="63.623047"/>
      </g>
     </g>
    </g>
    <g id="ytick_8">
     <g id="line2d_17">
      <g>
       <use xlink:href="#mdda989cda6" x="28.104688" y="37.063219" style="stroke: #000000; stroke-width: 0.8"/>
      </g>
     </g>
     <g id="text_17">
      <!-- 30 -->
      <g transform="translate(8.379688 40.862437) scale(0.1 -0.1)">
       <use xlink:href="#DejaVuSans-33"/>
       <use xlink:href="#DejaVuSans-30" x="63.623047"/>
      </g>
     </g>
    </g>
    <g id="ytick_9">
     <g id="line2d_18">
      <g>
       <use xlink:href="#mdda989cda6" x="28.104688" y="3.799219" style="stroke: #000000; stroke-width: 0.8"/>
      </g>
     </g>
     <g id="text_18">
      <!-- 40 -->
      <g transform="translate(8.379688 7.598437) scale(0.1 -0.1)">
       <use xlink:href="#DejaVuSans-34"/>
       <use xlink:href="#DejaVuSans-30" x="63.623047"/>
      </g>
     </g>
    </g>
   </g>
   <g id="line2d_19">
    <path d="M 175.297888 250.784419 
L 175.297888 150.992419 
" clip-path="url(#p26ff155368)" style="fill: none; stroke: #000000; stroke-width: 0.25; stroke-linecap: square"/>
   </g>
   <g id="line2d_20">
    <path d="M 175.297888 150.992419 
L 275.089887 150.992419 
" clip-path="url(#p26ff155368)" style="fill: none; stroke: #000000; stroke-width: 0.25; stroke-linecap: square"/>
   </g>
   <g id="line2d_21">
    <path d="M 275.089887 122.718019 
L 175.297888 122.718019 
" clip-path="url(#p26ff155368)" style="fill: none; stroke: #000000; stroke-width: 0.25; stroke-linecap: square"/>
   </g>
   <g id="line2d_22">
    <path d="M 175.297888 122.718019 
L 175.297888 22.926019 
" clip-path="url(#p26ff155368)" style="fill: none; stroke: #000000; stroke-width: 0.25; stroke-linecap: square"/>
   </g>
   <g id="line2d_23">
    <path d="M 147.023487 22.926019 
L 147.023487 122.718019 
" clip-path="url(#p26ff155368)" style="fill: none; stroke: #000000; stroke-width: 0.25; stroke-linecap: square"/>
   </g>
   <g id="line2d_24">
    <path d="M 147.023487 122.718019 
L 47.231488 122.718019 
" clip-path="url(#p26ff155368)" style="fill: none; stroke: #000000; stroke-width: 0.25; stroke-linecap: square"/>
   </g>
   <g id="line2d_25">
    <path d="M 47.231488 150.992419 
L 147.023487 150.992419 
" clip-path="url(#p26ff155368)" style="fill: none; stroke: #000000; stroke-width: 0.25; stroke-linecap: square"/>
   </g>
   <g id="line2d_26">
    <path d="M 147.023487 150.992419 
L 147.023487 250.784419 
" clip-path="url(#p26ff155368)" style="fill: none; stroke: #000000; stroke-width: 0.25; stroke-linecap: square"/>
   </g>
   <g id="line2d_27">
    <path d="M 175.297888 136.855219 
L 275.089887 136.855219 
" clip-path="url(#p26ff155368)" style="fill: none; stroke-dasharray: 0.925,0.4; stroke-dashoffset: 0; stroke: #000000; stroke-width: 0.25"/>
   </g>
   <g id="line2d_28">
    <path d="M 161.160687 122.718019 
L 161.160687 22.926019 
" clip-path="url(#p26ff155368)" style="fill: none; stroke-dasharray: 0.925,0.4; stroke-dashoffset: 0; stroke: #000000; stroke-width: 0.25"/>
   </g>
   <g id="line2d_29">
    <path d="M 147.023487 136.855219 
L 47.231488 136.855219 
" clip-path="url(#p26ff155368)" style="fill: none; stroke-dasharray: 0.925,0.4; stroke-dashoffset: 0; stroke: #000000; stroke-width: 0.25"/>
   </g>
   <g id="line2d_30">
    <path d="M 161.160687 150.992419 
L 161.160687 250.784419 
" clip-path="url(#p26ff155368)" style="fill: none; stroke-dasharray: 0.925,0.4; stroke-dashoffset: 0; stroke: #000000; stroke-width: 0.25"/>
   </g>
   <g id="line2d_31">
    <path d="M 168.553971 147.025958 
L 168.421613 145.248225 
L 168.147903 143.474656 
L 167.672147 141.732742 
L 166.990374 140.049909 
L 166.157534 138.42747 
L 165.228953 136.851497 
L 164.150348 135.370253 
L 162.875172 134.053079 
L 161.473969 132.871651 
L 159.961806 131.837721 
L 158.354687 130.961019 
L 156.670014 130.25024 
L 154.926397 129.712467 
L 153.143 129.352513 
L 151.338986 129.172842 
L 149.533168 129.173007 
L 147.739392 129.302868 
L 145.951874 129.421169 
L 144.169919 129.526518 
L 142.392509 129.613948 
L 140.618675 129.678162 
L 138.847758 129.719091 
L 137.079842 129.76987 
L 135.314482 129.836452 
L 133.552876 129.948274 
L 131.796339 130.111797 
L 130.04226 130.293701 
L 128.290086 130.489756 
L 126.538971 130.693513 
L 124.789321 130.909031 
" clip-path="url(#p26ff155368)" style="fill: none; stroke: #ff0000; stroke-width: 0.25; stroke-linecap: square"/>
   </g>
   <g id="line2d_32">
    <path d="M 176.090564 129.398559 
L 174.963614 128.636179 
L 173.903082 127.802541 
L 172.917264 126.896755 
L 172.006557 125.927597 
L 171.173559 124.90052 
L 170.420597 123.820486 
L 169.749566 122.6919 
L 169.162235 121.518383 
L 168.660326 120.302925 
L 168.245911 119.048303 
L 167.921434 117.758021 
L 167.690121 116.436328 
L 167.555632 115.088459 
L 167.521248 113.720769 
L 167.581553 112.340488 
L 167.576415 110.946052 
L 167.530029 109.54037 
L 167.447062 108.125455 
L 167.360299 106.701016 
L 167.284029 105.267445 
L 167.227125 103.825699 
L 167.188406 102.377298 
L 167.166701 100.923651 
L 167.161007 99.466043 
L 167.170551 98.005619 
L 167.19484 96.543368 
L 167.233751 95.080131 
L 167.287528 93.616603 
L 167.357788 92.15341 
L 167.421759 90.689796 
" clip-path="url(#p26ff155368)" style="fill: none; stroke: #ff0000; stroke-width: 0.25; stroke-linecap: square"/>
   </g>
   <g id="line2d_33">
    <path d="M 153.985766 124.71639 
L 153.570226 126.283046 
L 153.111692 127.852956 
L 152.58456 129.418626 
L 152.00155 130.983569 
L 151.410028 132.565052 
L 150.867675 134.182066 
L 150.444234 135.847955 
L 150.198538 137.556586 
L 150.179407 139.282613 
L 150.426364 140.983195 
L 150.833634 142.638014 
L 151.388792 144.229661 
L 152.000518 145.778787 
L 152.53064 147.337043 
L 152.977763 148.902593 
L 153.344277 150.472941 
L 153.629012 152.04696 
L 153.827824 153.624015 
L 153.979796 155.198763 
L 154.111719 156.769899 
L 154.253542 158.336468 
L 154.425623 159.897539 
L 154.606284 161.45613 
L 154.774062 163.015361 
L 154.922202 164.576267 
L 155.052883 166.138725 
L 155.170238 167.702393 
L 155.278596 169.266901 
L 155.382337 170.831871 
L 155.485669 172.396935 
" clip-path="url(#p26ff155368)" style="fill: none; stroke: #ff0000; stroke-width: 0.25; stroke-linecap: square"/>
   </g>
   <g id="line2d_34">
    <path d="M 148.902822 144.87196 
L 150.440388 145.421685 
L 151.96915 146.038064 
L 153.495744 146.703591 
L 155.057293 147.330889 
L 156.682423 147.825348 
L 158.372038 148.094182 
L 160.089117 148.037599 
L 161.79204 147.801919 
L 163.4602 147.407895 
L 165.07365 146.86128 
L 166.627789 146.199443 
L 168.19713 145.619477 
L 169.776568 145.11913 
L 171.363221 144.699291 
L 172.955012 144.36284 
L 174.54973 144.111984 
L 176.144933 143.946592 
L 177.738504 143.866079 
L 179.327188 143.814635 
L 180.911666 143.77182 
L 182.492625 143.715651 
L 184.070268 143.632339 
L 185.646794 143.553077 
L 187.223562 143.496817 
L 188.800865 143.474813 
L 190.378261 143.486653 
L 191.955541 143.519063 
L 193.533303 143.530926 
L 195.111059 143.506992 
L 196.688193 143.455573 
" clip-path="url(#p26ff155368)" style="fill: none; stroke: #ff0000; stroke-width: 0.25; stroke-linecap: square"/>
   </g>
   <g id="line2d_35">
    <path d="M 167.001522 191.144554 
L 167.003416 189.487346 
L 167.006 187.828468 
L 167.010348 186.16865 
L 167.016964 184.508631 
L 167.026419 182.849168 
L 167.039342 181.19104 
L 167.056408 179.535051 
L 167.078326 177.882037 
L 167.105807 176.232865 
L 167.139532 174.588438 
L 167.180105 172.949694 
L 167.227992 171.317596 
L 167.283452 169.693124 
L 167.346446 168.077261 
L 167.416541 166.470971 
L 167.492792 164.875164 
L 167.573609 163.290669 
L 167.656616 161.718192 
L 167.709594 160.15703 
L 167.714325 158.608214 
L 167.688738 157.073245 
L 167.6368 155.552815 
L 167.569547 154.046683 
L 167.495391 152.553911 
L 167.425611 151.072788 
L 167.364078 149.601419 
L 167.311022 148.138049 
L 167.266286 146.680804 
L 167.229429 145.227587 
L 167.208505 143.77582 
" clip-path="url(#p26ff155368)" style="fill: none; stroke: #ff0000; stroke-width: 0.25; stroke-linecap: square"/>
   </g>
   <g id="line2d_36">
    <path d="M 215.449071 131.020353 
L 213.790635 131.02249 
L 212.130153 131.023887 
L 210.468574 131.024331 
L 208.806858 131.023372 
L 207.145982 131.02047 
L 205.486949 131.014986 
L 203.830791 131.006183 
L 202.178575 130.993221 
L 200.531405 130.975167 
L 198.890429 130.951008 
L 197.256838 130.919672 
L 195.631858 130.880063 
L 194.016753 130.831103 
L 192.412804 130.771788 
L 190.821294 130.701263 
L 189.243477 130.618906 
L 187.680543 130.524429 
L 186.133558 130.417992 
L 184.600767 130.342197 
L 183.083186 130.307627 
L 181.582418 130.289368 
L 180.098771 130.286532 
L 178.632034 130.274461 
L 177.181574 130.241046 
L 175.746909 130.169341 
L 174.327315 130.053712 
L 172.922421 129.888679 
L 171.532199 129.668692 
L 170.155059 129.397588 
L 168.770218 129.174705 
" clip-path="url(#p26ff155368)" style="fill: none; stroke: #ff0000; stroke-width: 0.25; stroke-linecap: square"/>
   </g>
   <g id="line2d_37">
    <path d="M 155.316111 83.009197 
L 155.299853 84.682068 
L 155.281045 86.355225 
L 155.254788 88.028445 
L 155.21946 89.701514 
L 155.173364 91.374192 
L 155.114785 93.046211 
L 155.042067 94.717265 
L 154.953731 96.387017 
L 154.848626 98.055104 
L 154.726128 99.721169 
L 154.586394 101.384889 
L 154.430664 103.046039 
L 154.261629 104.704568 
L 154.13223 106.365151 
L 154.086785 108.028265 
L 154.124537 109.689216 
L 154.200291 111.345981 
L 154.309131 112.997478 
L 154.429933 114.644401 
L 154.552555 116.287273 
L 154.659938 117.927294 
L 154.754541 119.564261 
L 154.837045 121.19825 
L 154.90913 122.829449 
L 154.972919 124.458224 
L 155.030272 126.084932 
L 155.080786 127.709999 
L 155.122164 129.333886 
L 155.186503 130.95602 
L 155.349881 132.570645 
" clip-path="url(#p26ff155368)" style="fill: none; stroke: #ff0000; stroke-width: 0.25; stroke-linecap: square"/>
   </g>
   <g id="line2d_38">
    <path d="M 100.979417 142.697133 
L 102.363849 142.696497 
L 103.748654 142.696132 
L 105.133756 142.696329 
L 106.519081 142.697274 
L 107.904553 142.699184 
L 109.290095 142.702316 
L 110.67563 142.706964 
L 112.061078 142.713463 
L 113.446356 142.722187 
L 114.831375 142.733548 
L 116.216044 142.747991 
L 117.600263 142.765985 
L 118.983928 142.788016 
L 120.366926 142.814565 
L 121.749139 142.846092 
L 123.130442 142.883007 
L 124.510705 142.925636 
L 125.889801 142.974175 
L 127.267606 143.028642 
L 128.644009 143.088811 
L 130.01892 143.154139 
L 131.392284 143.223678 
L 132.764952 143.27711 
L 134.136724 143.311785 
L 135.507406 143.31789 
L 136.876364 143.296135 
L 138.243718 143.265362 
L 139.609735 143.231548 
L 140.975051 143.208245 
L 142.340019 143.196988 
" clip-path="url(#p26ff155368)" style="fill: none; stroke: #ff0000; stroke-width: 0.25; stroke-linecap: square"/>
   </g>
   <g id="line2d_39">
    <path d="M 167.016507 236.635374 
L 167.016507 235.085035 
L 167.016507 233.534697 
L 167.016507 231.984359 
L 167.016507 230.43402 
L 167.016507 228.883682 
L 167.016507 227.333343 
L 167.016507 225.783005 
L 167.016507 224.232666 
L 167.016507 222.682328 
L 167.016507 221.13199 
L 167.016507 219.581651 
L 167.016507 218.031313 
L 167.016507 216.480974 
L 167.016507 214.930636 
L 167.016507 213.380298 
L 167.016507 211.829959 
L 167.016507 210.279621 
L 167.016507 208.729282 
L 167.016507 207.178944 
L 167.016507 205.628606 
L 167.016507 204.078267 
L 167.016507 202.527929 
L 167.016507 200.97759 
L 167.016507 199.427252 
L 167.016507 197.876914 
L 167.016507 196.326575 
L 167.016507 194.776237 
L 167.016507 193.225898 
L 167.016507 191.67556 
L 167.016507 190.125221 
" clip-path="url(#p26ff155368)" style="fill: none; stroke: #ff0000; stroke-width: 0.25; stroke-linecap: square"/>
   </g>
   <g id="line2d_40">
    <path d="M 251.899882 130.999987 
L 249.938483 131.001257 
L 247.977172 131.002437 
L 246.015941 131.003911 
L 244.054782 131.00571 
L 242.093687 131.007854 
L 240.132647 131.010344 
L 238.171655 131.013154 
L 236.210703 131.016221 
L 234.249784 131.019429 
L 232.288889 131.022597 
L 230.328008 131.025458 
L 228.367134 131.027641 
L 226.406255 131.028648 
L 224.445361 131.027835 
L 222.484444 131.024391 
L 220.523497 131.017321 
L 218.562519 131.005435 
L 216.601516 130.987351 
L 214.64051 130.96151 
L 212.67954 130.926214 
L 210.718671 130.879691 
L 208.757995 130.820205 
L 206.797631 130.746207 
L 204.837714 130.656552 
L 202.878369 130.550781 
L 200.919673 130.429492 
L 198.960933 130.304728 
L 196.999537 130.226874 
L 195.036749 130.191138 
L 193.073683 130.212623 
" clip-path="url(#p26ff155368)" style="fill: none; stroke: #ff0000; stroke-width: 0.25; stroke-linecap: square"/>
   </g>
   <g id="line2d_41">
    <path d="M 155.305592 37.075104 
L 155.306706 38.625584 
L 155.307825 40.1761 
L 155.309243 41.726634 
L 155.310997 43.277168 
L 155.313125 44.827684 
L 155.315657 46.378165 
L 155.318617 47.928591 
L 155.322016 49.478943 
L 155.325846 51.029202 
L 155.330072 52.579347 
L 155.334629 54.129357 
L 155.339406 55.679211 
L 155.344237 57.228888 
L 155.348887 58.778367 
L 155.353042 60.327627 
L 155.356287 61.876648 
L 155.358092 63.425411 
L 155.357797 64.973895 
L 155.354589 66.522082 
L 155.347492 68.069951 
L 155.335348 69.617475 
L 155.316812 71.164621 
L 155.290341 72.711345 
L 155.254204 74.25758 
L 155.206498 75.803233 
L 155.145177 77.348174 
L 155.068103 78.892228 
L 154.973131 80.435167 
L 154.858215 81.976709 
L 154.766409 83.519851 
" clip-path="url(#p26ff155368)" style="fill: none; stroke: #ff0000; stroke-width: 0.25; stroke-linecap: square"/>
   </g>
   <g id="line2d_42">
    <path d="M 61.380532 142.711039 
L 62.930871 142.711039 
L 64.481209 142.711039 
L 66.031548 142.711039 
L 67.581886 142.711039 
L 69.132225 142.711039 
L 70.682563 142.711039 
L 72.232901 142.711039 
L 73.78324 142.711039 
L 75.333578 142.711039 
L 76.883917 142.711039 
L 78.434255 142.711039 
L 79.984593 142.711039 
L 81.534932 142.711039 
L 83.08527 142.711039 
L 84.635609 142.711039 
L 86.185947 142.711039 
L 87.736285 142.711039 
L 89.286624 142.711039 
L 90.836962 142.711039 
L 92.387301 142.711039 
L 93.937639 142.711039 
L 95.487977 142.711039 
L 97.038316 142.711039 
L 98.588654 142.711039 
L 100.138993 142.711039 
L 101.689331 142.711039 
L 103.23967 142.711039 
L 104.790008 142.711039 
L 106.340346 142.711039 
L 107.890685 142.711039 
" clip-path="url(#p26ff155368)" style="fill: none; stroke: #ff0000; stroke-width: 0.25; stroke-linecap: square"/>
   </g>
   <g id="patch_15">
    <path d="M 28.104688 269.911219 
L 28.104688 3.799219 
" style="fill: none; stroke: #000000; stroke-width: 0.8; stroke-linejoin: miter; stroke-linecap: square"/>
   </g>
   <g id="patch_16">
    <path d="M 294.216687 269.911219 
L 294.216687 3.799219 
" style="fill: none; stroke: #000000; stroke-width: 0.8; stroke-linejoin: miter; stroke-linecap: square"/>
   </g>
   <g id="patch_17">
    <path d="M 28.104688 269.911219 
L 294.216687 269.911219 
" style="fill: none; stroke: #000000; stroke-width: 0.8; stroke-linejoin: miter; stroke-linecap: square"/>
   </g>
   <g id="patch_18">
    <path d="M 28.104688 3.799219 
L 294.216687 3.799219 
" style="fill: none; stroke: #000000; stroke-width: 0.8; stroke-linejoin: miter; stroke-linecap: square"/>
   </g>
   <g id="text_19">
    <!-- Time: 2.2 s -->
    <g transform="translate(198.9952 17.104819) scale(0.1 -0.1)">
     <defs>
      <path id="DejaVuSans-54" d="M -19 4666 
L 3928 4666 
L 3928 4134 
L 2272 4134 
L 2272 0 
L 1638 0 
L 1638 4134 
L -19 4134 
L -19 4666 
z
" transform="scale(0.015625)"/>
      <path id="DejaVuSans-69" d="M 603 3500 
L 1178 3500 
L 1178 0 
L 603 0 
L 603 3500 
z
M 603 4863 
L 1178 4863 
L 1178 4134 
L 603 4134 
L 603 4863 
z
" transform="scale(0.015625)"/>
      <path id="DejaVuSans-6d" d="M 3328 2828 
Q 3544 3216 3844 3400 
Q 4144 3584 4550 3584 
Q 5097 3584 5394 3201 
Q 5691 2819 5691 2113 
L 5691 0 
L 5113 0 
L 5113 2094 
Q 5113 2597 4934 2840 
Q 4756 3084 4391 3084 
Q 3944 3084 3684 2787 
Q 3425 2491 3425 1978 
L 3425 0 
L 2847 0 
L 2847 2094 
Q 2847 2600 2669 2842 
Q 2491 3084 2119 3084 
Q 1678 3084 1418 2786 
Q 1159 2488 1159 1978 
L 1159 0 
L 581 0 
L 581 3500 
L 1159 3500 
L 1159 2956 
Q 1356 3278 1631 3431 
Q 1906 3584 2284 3584 
Q 2666 3584 2933 3390 
Q 3200 3197 3328 2828 
z
" transform="scale(0.015625)"/>
      <path id="DejaVuSans-65" d="M 3597 1894 
L 3597 1613 
L 953 1613 
Q 991 1019 1311 708 
Q 1631 397 2203 397 
Q 2534 397 2845 478 
Q 3156 559 3463 722 
L 3463 178 
Q 3153 47 2828 -22 
Q 2503 -91 2169 -91 
Q 1331 -91 842 396 
Q 353 884 353 1716 
Q 353 2575 817 3079 
Q 1281 3584 2069 3584 
Q 2775 3584 3186 3129 
Q 3597 2675 3597 1894 
z
M 3022 2063 
Q 3016 2534 2758 2815 
Q 2500 3097 2075 3097 
Q 1594 3097 1305 2825 
Q 1016 2553 972 2059 
L 3022 2063 
z
" transform="scale(0.015625)"/>
      <path id="DejaVuSans-3a" d="M 750 794 
L 1409 794 
L 1409 0 
L 750 0 
L 750 794 
z
M 750 3309 
L 1409 3309 
L 1409 2516 
L 750 2516 
L 750 3309 
z
" transform="scale(0.015625)"/>
      <path id="DejaVuSans-20" transform="scale(0.015625)"/>
      <path id="DejaVuSans-2e" d="M 684 794 
L 1344 794 
L 1344 0 
L 684 0 
L 684 794 
z
" transform="scale(0.015625)"/>
      <path id="DejaVuSans-73" d="M 2834 3397 
L 2834 2853 
Q 2591 2978 2328 3040 
Q 2066 3103 1784 3103 
Q 1356 3103 1142 2972 
Q 928 2841 928 2578 
Q 928 2378 1081 2264 
Q 1234 2150 1697 2047 
L 1894 2003 
Q 2506 1872 2764 1633 
Q 3022 1394 3022 966 
Q 3022 478 2636 193 
Q 2250 -91 1575 -91 
Q 1294 -91 989 -36 
Q 684 19 347 128 
L 347 722 
Q 666 556 975 473 
Q 1284 391 1588 391 
Q 1994 391 2212 530 
Q 2431 669 2431 922 
Q 2431 1156 2273 1281 
Q 2116 1406 1581 1522 
L 1381 1569 
Q 847 1681 609 1914 
Q 372 2147 372 2553 
Q 372 3047 722 3315 
Q 1072 3584 1716 3584 
Q 2034 3584 2315 3537 
Q 2597 3491 2834 3397 
z
" transform="scale(0.015625)"/>
     </defs>
     <use xlink:href="#DejaVuSans-54"/>
     <use xlink:href="#DejaVuSans-69" x="57.958984"/>
     <use xlink:href="#DejaVuSans-6d" x="85.742188"/>
     <use xlink:href="#DejaVuSans-65" x="183.154297"/>
     <use xlink:href="#DejaVuSans-3a" x="244.677734"/>
     <use xlink:href="#DejaVuSans-20" x="278.369141"/>
     <use xlink:href="#DejaVuSans-32" x="310.15625"/>
     <use xlink:href="#DejaVuSans-2e" x="373.779297"/>
     <use xlink:href="#DejaVuSans-32" x="405.566406"/>
     <use xlink:href="#DejaVuSans-20" x="469.189453"/>
     <use xlink:href="#DejaVuSans-73" x="500.976562"/>
    </g>
   </g>
  </g>
 </g>
 <defs>
  <clipPath id="p26ff155368">
   <rect x="28.104688" y="3.799219" width="266.112" height="266.112"/>
  </clipPath>
 </defs>
</svg>
