<?xml version="1.0" encoding="utf-8" standalone="no"?>
<!DOCTYPE svg PUBLIC "-//W3C//DTD SVG 1.1//EN"
  "http://www.w3.org/Graphics/SVG/1.1/DTD/svg11.dtd">
<svg xmlns:xlink="http://www.w3.org/1999/xlink" width="300.579188pt" height="286.589344pt" viewBox="0 0 300.579188 286.589344" xmlns="http://www.w3.org/2000/svg" version="1.1">
 <metadata>
  <rdf:RDF xmlns:dc="http://purl.org/dc/elements/1.1/" xmlns:cc="http://creativecommons.org/ns#" xmlns:rdf="http://www.w3.org/1999/02/22-rdf-syntax-ns#">
   <cc:Work>
    <dc:type rdf:resource="http://purl.org/dc/dcmitype/StillImage"/>
    <dc:date>2024-02-26T10:14:20.586087</dc:date>
    <dc:format>image/svg+xml</dc:format>
    <dc:creator>
     <cc:Agent>
      <dc:title>Matplotlib v3.8.2, https://matplotlib.org/</dc:title>
     </cc:Agent>
    </dc:creator>
   </cc:Work>
  </rdf:RDF>
 </metadata>
 <defs>
  <style type="text/css">*{stroke-linejoin: round; stroke-linecap: butt}</style>
 </defs>
 <g id="figure_1">
  <g id="patch_1">
   <path d="M 0 286.589344 
L 300.579188 286.589344 
L 300.579188 0 
L 0 0 
z
" style="fill: #ffffff"/>
  </g>
  <g id="axes_1">
   <g id="patch_2">
    <path d="M 28.104688 269.911219 
L 294.216687 269.911219 
L 294.216687 3.799219 
L 28.104688 3.799219 
z
" style="fill: #ffffff"/>
   </g>
   <g id="patch_3">
    <path d="M 24.024908 128.171958 
L 12.382508 128.171958 
L 12.382508 133.826838 
L 24.024908 133.826838 
z
" clip-path="url(#pe0215991b3)" style="fill: #00008b"/>
   </g>
   <g id="patch_4">
    <path d="M 169.843948 -3.239274 
L 169.843949 -14.881674 
L 164.189069 -14.881675 
L 164.189068 -3.239275 
z
" clip-path="url(#pe0215991b3)" style="fill: #800000"/>
   </g>
   <g id="patch_5">
    <path d="M 152.477427 272.383846 
L 152.477426 284.026246 
L 158.132306 284.026247 
L 158.132307 272.383847 
z
" clip-path="url(#pe0215991b3)" style="fill: #006400"/>
   </g>
   <g id="patch_6">
    <path d="M 296.689341 145.538479 
L 308.331741 145.538479 
L 308.33174 139.883599 
L 296.68934 139.883599 
z
" clip-path="url(#pe0215991b3)" style="fill: #4b0082"/>
   </g>
   <g id="patch_7">
    <path d="M 169.843844 44.282669 
L 169.844018 32.640269 
L 164.189138 32.640184 
L 164.188964 44.282584 
z
" clip-path="url(#pe0215991b3)" style="fill: #0000ff"/>
   </g>
   <g id="patch_8">
    <path d="M 68.585154 128.172149 
L 56.942754 128.171819 
L 56.942594 133.826699 
L 68.584994 133.827029 
z
" clip-path="url(#pe0215991b3)" style="fill: #ff0000"/>
   </g>
   <g id="patch_9">
    <path d="M 254.794445 145.538479 
L 266.436845 145.538494 
L 266.436852 139.883614 
L 254.794452 139.883599 
z
" clip-path="url(#pe0215991b3)" style="fill: #dbdc56"/>
   </g>
   <g id="patch_10">
    <path d="M 169.839889 77.305803 
L 169.844573 65.663404 
L 164.189693 65.661129 
L 164.185009 77.303528 
z
" clip-path="url(#pe0215991b3)" style="fill: #9400d3"/>
   </g>
   <g id="patch_11">
    <path d="M 214.375217 145.521148 
L 226.017561 145.556996 
L 226.034973 139.902143 
L 214.392628 139.866295 
z
" clip-path="url(#pe0215991b3)" style="fill: #1e90ff"/>
   </g>
   <g id="patch_12">
    <path d="M 152.477413 217.649941 
L 152.477362 229.292341 
L 158.132242 229.292366 
L 158.132293 217.649966 
z
" clip-path="url(#pe0215991b3)" style="fill: #ff4500"/>
   </g>
   <g id="patch_13">
    <path d="M 107.945618 128.196104 
L 96.303329 128.145105 
L 96.278558 133.79993 
L 107.920846 133.85093 
z
" clip-path="url(#pe0215991b3)" style="fill: #7cfc00"/>
   </g>
   <g id="patch_14">
    <path d="M 152.496513 190.191809 
L 152.447297 201.834105 
L 158.102126 201.85801 
L 158.151343 190.215714 
z
" clip-path="url(#pe0215991b3)" style="fill: #ff00ff"/>
   </g>
   <g id="matplotlib.axis_1">
    <g id="xtick_1">
     <g id="line2d_1">
      <defs>
       <path id="m23889032d2" d="M 0 0 
L 0 3.5 
" style="stroke: #000000; stroke-width: 0.8"/>
      </defs>
      <g>
       <use xlink:href="#m23889032d2" x="28.104688" y="269.911219" style="stroke: #000000; stroke-width: 0.8"/>
      </g>
     </g>
     <g id="text_1">
      <!-- −40 -->
      <g transform="translate(17.552344 284.509656) scale(0.1 -0.1)">
       <defs>
        <path id="DejaVuSans-2212" d="M 678 2272 
L 4684 2272 
L 4684 1741 
L 678 1741 
L 678 2272 
z
" transform="scale(0.015625)"/>
        <path id="DejaVuSans-34" d="M 2419 4116 
L 825 1625 
L 2419 1625 
L 2419 4116 
z
M 2253 4666 
L 3047 4666 
L 3047 1625 
L 3713 1625 
L 3713 1100 
L 3047 1100 
L 3047 0 
L 2419 0 
L 2419 1100 
L 313 1100 
L 313 1709 
L 2253 4666 
z
" transform="scale(0.015625)"/>
        <path id="DejaVuSans-30" d="M 2034 4250 
Q 1547 4250 1301 3770 
Q 1056 3291 1056 2328 
Q 1056 1369 1301 889 
Q 1547 409 2034 409 
Q 2525 409 2770 889 
Q 3016 1369 3016 2328 
Q 3016 3291 2770 3770 
Q 2525 4250 2034 4250 
z
M 2034 4750 
Q 2819 4750 3233 4129 
Q 3647 3509 3647 2328 
Q 3647 1150 3233 529 
Q 2819 -91 2034 -91 
Q 1250 -91 836 529 
Q 422 1150 422 2328 
Q 422 3509 836 4129 
Q 1250 4750 2034 4750 
z
" transform="scale(0.015625)"/>
       </defs>
       <use xlink:href="#DejaVuSans-2212"/>
       <use xlink:href="#DejaVuSans-34" x="83.789062"/>
       <use xlink:href="#DejaVuSans-30" x="147.412109"/>
      </g>
     </g>
    </g>
    <g id="xtick_2">
     <g id="line2d_2">
      <g>
       <use xlink:href="#m23889032d2" x="61.368688" y="269.911219" style="stroke: #000000; stroke-width: 0.8"/>
      </g>
     </g>
     <g id="text_2">
      <!-- −30 -->
      <g transform="translate(50.816344 284.509656) scale(0.1 -0.1)">
       <defs>
        <path id="DejaVuSans-33" d="M 2597 2516 
Q 3050 2419 3304 2112 
Q 3559 1806 3559 1356 
Q 3559 666 3084 287 
Q 2609 -91 1734 -91 
Q 1441 -91 1130 -33 
Q 819 25 488 141 
L 488 750 
Q 750 597 1062 519 
Q 1375 441 1716 441 
Q 2309 441 2620 675 
Q 2931 909 2931 1356 
Q 2931 1769 2642 2001 
Q 2353 2234 1838 2234 
L 1294 2234 
L 1294 2753 
L 1863 2753 
Q 2328 2753 2575 2939 
Q 2822 3125 2822 3475 
Q 2822 3834 2567 4026 
Q 2313 4219 1838 4219 
Q 1578 4219 1281 4162 
Q 984 4106 628 3988 
L 628 4550 
Q 988 4650 1302 4700 
Q 1616 4750 1894 4750 
Q 2613 4750 3031 4423 
Q 3450 4097 3450 3541 
Q 3450 3153 3228 2886 
Q 3006 2619 2597 2516 
z
" transform="scale(0.015625)"/>
       </defs>
       <use xlink:href="#DejaVuSans-2212"/>
       <use xlink:href="#DejaVuSans-33" x="83.789062"/>
       <use xlink:href="#DejaVuSans-30" x="147.412109"/>
      </g>
     </g>
    </g>
    <g id="xtick_3">
     <g id="line2d_3">
      <g>
       <use xlink:href="#m23889032d2" x="94.632688" y="269.911219" style="stroke: #000000; stroke-width: 0.8"/>
      </g>
     </g>
     <g id="text_3">
      <!-- −20 -->
      <g transform="translate(84.080344 284.509656) scale(0.1 -0.1)">
       <defs>
        <path id="DejaVuSans-32" d="M 1228 531 
L 3431 531 
L 3431 0 
L 469 0 
L 469 531 
Q 828 903 1448 1529 
Q 2069 2156 2228 2338 
Q 2531 2678 2651 2914 
Q 2772 3150 2772 3378 
Q 2772 3750 2511 3984 
Q 2250 4219 1831 4219 
Q 1534 4219 1204 4116 
Q 875 4013 500 3803 
L 500 4441 
Q 881 4594 1212 4672 
Q 1544 4750 1819 4750 
Q 2544 4750 2975 4387 
Q 3406 4025 3406 3419 
Q 3406 3131 3298 2873 
Q 3191 2616 2906 2266 
Q 2828 2175 2409 1742 
Q 1991 1309 1228 531 
z
" transform="scale(0.015625)"/>
       </defs>
       <use xlink:href="#DejaVuSans-2212"/>
       <use xlink:href="#DejaVuSans-32" x="83.789062"/>
       <use xlink:href="#DejaVuSans-30" x="147.412109"/>
      </g>
     </g>
    </g>
    <g id="xtick_4">
     <g id="line2d_4">
      <g>
       <use xlink:href="#m23889032d2" x="127.896687" y="269.911219" style="stroke: #000000; stroke-width: 0.8"/>
      </g>
     </g>
     <g id="text_4">
      <!-- −10 -->
      <g transform="translate(117.344344 284.509656) scale(0.1 -0.1)">
       <defs>
        <path id="DejaVuSans-31" d="M 794 531 
L 1825 531 
L 1825 4091 
L 703 3866 
L 703 4441 
L 1819 4666 
L 2450 4666 
L 2450 531 
L 3481 531 
L 3481 0 
L 794 0 
L 794 531 
z
" transform="scale(0.015625)"/>
       </defs>
       <use xlink:href="#DejaVuSans-2212"/>
       <use xlink:href="#DejaVuSans-31" x="83.789062"/>
       <use xlink:href="#DejaVuSans-30" x="147.412109"/>
      </g>
     </g>
    </g>
    <g id="xtick_5">
     <g id="line2d_5">
      <g>
       <use xlink:href="#m23889032d2" x="161.160687" y="269.911219" style="stroke: #000000; stroke-width: 0.8"/>
      </g>
     </g>
     <g id="text_5">
      <!-- 0 -->
      <g transform="translate(157.979437 284.509656) scale(0.1 -0.1)">
       <use xlink:href="#DejaVuSans-30"/>
      </g>
     </g>
    </g>
    <g id="xtick_6">
     <g id="line2d_6">
      <g>
       <use xlink:href="#m23889032d2" x="194.424688" y="269.911219" style="stroke: #000000; stroke-width: 0.8"/>
      </g>
     </g>
     <g id="text_6">
      <!-- 10 -->
      <g transform="translate(188.062187 284.509656) scale(0.1 -0.1)">
       <use xlink:href="#DejaVuSans-31"/>
       <use xlink:href="#DejaVuSans-30" x="63.623047"/>
      </g>
     </g>
    </g>
    <g id="xtick_7">
     <g id="line2d_7">
      <g>
       <use xlink:href="#m23889032d2" x="227.688687" y="269.911219" style="stroke: #000000; stroke-width: 0.8"/>
      </g>
     </g>
     <g id="text_7">
      <!-- 20 -->
      <g transform="translate(221.326187 284.509656) scale(0.1 -0.1)">
       <use xlink:href="#DejaVuSans-32"/>
       <use xlink:href="#DejaVuSans-30" x="63.623047"/>
      </g>
     </g>
    </g>
    <g id="xtick_8">
     <g id="line2d_8">
      <g>
       <use xlink:href="#m23889032d2" x="260.952687" y="269.911219" style="stroke: #000000; stroke-width: 0.8"/>
      </g>
     </g>
     <g id="text_8">
      <!-- 30 -->
      <g transform="translate(254.590187 284.509656) scale(0.1 -0.1)">
       <use xlink:href="#DejaVuSans-33"/>
       <use xlink:href="#DejaVuSans-30" x="63.623047"/>
      </g>
     </g>
    </g>
    <g id="xtick_9">
     <g id="line2d_9">
      <g>
       <use xlink:href="#m23889032d2" x="294.216687" y="269.911219" style="stroke: #000000; stroke-width: 0.8"/>
      </g>
     </g>
     <g id="text_9">
      <!-- 40 -->
      <g transform="translate(287.854187 284.509656) scale(0.1 -0.1)">
       <use xlink:href="#DejaVuSans-34"/>
       <use xlink:href="#DejaVuSans-30" x="63.623047"/>
      </g>
     </g>
    </g>
   </g>
   <g id="matplotlib.axis_2">
    <g id="ytick_1">
     <g id="line2d_10">
      <defs>
       <path id="m02277081dd" d="M 0 0 
L -3.5 0 
" style="stroke: #000000; stroke-width: 0.8"/>
      </defs>
      <g>
       <use xlink:href="#m02277081dd" x="28.104688" y="269.911219" style="stroke: #000000; stroke-width: 0.8"/>
      </g>
     </g>
     <g id="text_10">
      <!-- −40 -->
      <g transform="translate(0 273.710437) scale(0.1 -0.1)">
       <use xlink:href="#DejaVuSans-2212"/>
       <use xlink:href="#DejaVuSans-34" x="83.789062"/>
       <use xlink:href="#DejaVuSans-30" x="147.412109"/>
      </g>
     </g>
    </g>
    <g id="ytick_2">
     <g id="line2d_11">
      <g>
       <use xlink:href="#m02277081dd" x="28.104688" y="236.647219" style="stroke: #000000; stroke-width: 0.8"/>
      </g>
     </g>
     <g id="text_11">
      <!-- −30 -->
      <g transform="translate(0 240.446437) scale(0.1 -0.1)">
       <use xlink:href="#DejaVuSans-2212"/>
       <use xlink:href="#DejaVuSans-33" x="83.789062"/>
       <use xlink:href="#DejaVuSans-30" x="147.412109"/>
      </g>
     </g>
    </g>
    <g id="ytick_3">
     <g id="line2d_12">
      <g>
       <use xlink:href="#m02277081dd" x="28.104688" y="203.383219" style="stroke: #000000; stroke-width: 0.8"/>
      </g>
     </g>
     <g id="text_12">
      <!-- −20 -->
      <g transform="translate(0 207.182437) scale(0.1 -0.1)">
       <use xlink:href="#DejaVuSans-2212"/>
       <use xlink:href="#DejaVuSans-32" x="83.789062"/>
       <use xlink:href="#DejaVuSans-30" x="147.412109"/>
      </g>
     </g>
    </g>
    <g id="ytick_4">
     <g id="line2d_13">
      <g>
       <use xlink:href="#m02277081dd" x="28.104688" y="170.119219" style="stroke: #000000; stroke-width: 0.8"/>
      </g>
     </g>
     <g id="text_13">
      <!-- −10 -->
      <g transform="translate(0 173.918437) scale(0.1 -0.1)">
       <use xlink:href="#DejaVuSans-2212"/>
       <use xlink:href="#DejaVuSans-31" x="83.789062"/>
       <use xlink:href="#DejaVuSans-30" x="147.412109"/>
      </g>
     </g>
    </g>
    <g id="ytick_5">
     <g id="line2d_14">
      <g>
       <use xlink:href="#m02277081dd" x="28.104688" y="136.855219" style="stroke: #000000; stroke-width: 0.8"/>
      </g>
     </g>
     <g id="text_14">
      <!-- 0 -->
      <g transform="translate(14.742188 140.654437) scale(0.1 -0.1)">
       <use xlink:href="#DejaVuSans-30"/>
      </g>
     </g>
    </g>
    <g id="ytick_6">
     <g id="line2d_15">
      <g>
       <use xlink:href="#m02277081dd" x="28.104688" y="103.591219" style="stroke: #000000; stroke-width: 0.8"/>
      </g>
     </g>
     <g id="text_15">
      <!-- 10 -->
      <g transform="translate(8.379688 107.390437) scale(0.1 -0.1)">
       <use xlink:href="#DejaVuSans-31"/>
       <use xlink:href="#DejaVuSans-30" x="63.623047"/>
      </g>
     </g>
    </g>
    <g id="ytick_7">
     <g id="line2d_16">
      <g>
       <use xlink:href="#m02277081dd" x="28.104688" y="70.327219" style="stroke: #000000; stroke-width: 0.8"/>
      </g>
     </g>
     <g id="text_16">
      <!-- 20 -->
      <g transform="translate(8.379688 74.126437) scale(0.1 -0.1)">
       <use xlink:href="#DejaVuSans-32"/>
       <use xlink:href="#DejaVuSans-30" x="63.623047"/>
      </g>
     </g>
    </g>
    <g id="ytick_8">
     <g id="line2d_17">
      <g>
       <use xlink:href="#m02277081dd" x="28.104688" y="37.063219" style="stroke: #000000; stroke-width: 0.8"/>
      </g>
     </g>
     <g id="text_17">
      <!-- 30 -->
      <g transform="translate(8.379688 40.862437) scale(0.1 -0.1)">
       <use xlink:href="#DejaVuSans-33"/>
       <use xlink:href="#DejaVuSans-30" x="63.623047"/>
      </g>
     </g>
    </g>
    <g id="ytick_9">
     <g id="line2d_18">
      <g>
       <use xlink:href="#m02277081dd" x="28.104688" y="3.799219" style="stroke: #000000; stroke-width: 0.8"/>
      </g>
     </g>
     <g id="text_18">
      <!-- 40 -->
      <g transform="translate(8.379688 7.598437) scale(0.1 -0.1)">
       <use xlink:href="#DejaVuSans-34"/>
       <use xlink:href="#DejaVuSans-30" x="63.623047"/>
      </g>
     </g>
    </g>
   </g>
   <g id="line2d_19">
    <path d="M 175.297888 250.784419 
L 175.297888 150.992419 
" clip-path="url(#pe0215991b3)" style="fill: none; stroke: #000000; stroke-width: 0.25; stroke-linecap: square"/>
   </g>
   <g id="line2d_20">
    <path d="M 175.297888 150.992419 
L 275.089887 150.992419 
" clip-path="url(#pe0215991b3)" style="fill: none; stroke: #000000; stroke-width: 0.25; stroke-linecap: square"/>
   </g>
   <g id="line2d_21">
    <path d="M 275.089887 122.718019 
L 175.297888 122.718019 
" clip-path="url(#pe0215991b3)" style="fill: none; stroke: #000000; stroke-width: 0.25; stroke-linecap: square"/>
   </g>
   <g id="line2d_22">
    <path d="M 175.297888 122.718019 
L 175.297888 22.926019 
" clip-path="url(#pe0215991b3)" style="fill: none; stroke: #000000; stroke-width: 0.25; stroke-linecap: square"/>
   </g>
   <g id="line2d_23">
    <path d="M 147.023487 22.926019 
L 147.023487 122.718019 
" clip-path="url(#pe0215991b3)" style="fill: none; stroke: #000000; stroke-width: 0.25; stroke-linecap: square"/>
   </g>
   <g id="line2d_24">
    <path d="M 147.023487 122.718019 
L 47.231488 122.718019 
" clip-path="url(#pe0215991b3)" style="fill: none; stroke: #000000; stroke-width: 0.25; stroke-linecap: square"/>
   </g>
   <g id="line2d_25">
    <path d="M 47.231488 150.992419 
L 147.023487 150.992419 
" clip-path="url(#pe0215991b3)" style="fill: none; stroke: #000000; stroke-width: 0.25; stroke-linecap: square"/>
   </g>
   <g id="line2d_26">
    <path d="M 147.023487 150.992419 
L 147.023487 250.784419 
" clip-path="url(#pe0215991b3)" style="fill: none; stroke: #000000; stroke-width: 0.25; stroke-linecap: square"/>
   </g>
   <g id="line2d_27">
    <path d="M 175.297888 136.855219 
L 275.089887 136.855219 
" clip-path="url(#pe0215991b3)" style="fill: none; stroke-dasharray: 0.925,0.4; stroke-dashoffset: 0; stroke: #000000; stroke-width: 0.25"/>
   </g>
   <g id="line2d_28">
    <path d="M 161.160687 122.718019 
L 161.160687 22.926019 
" clip-path="url(#pe0215991b3)" style="fill: none; stroke-dasharray: 0.925,0.4; stroke-dashoffset: 0; stroke: #000000; stroke-width: 0.25"/>
   </g>
   <g id="line2d_29">
    <path d="M 147.023487 136.855219 
L 47.231488 136.855219 
" clip-path="url(#pe0215991b3)" style="fill: none; stroke-dasharray: 0.925,0.4; stroke-dashoffset: 0; stroke: #000000; stroke-width: 0.25"/>
   </g>
   <g id="line2d_30">
    <path d="M 161.160687 150.992419 
L 161.160687 250.784419 
" clip-path="url(#pe0215991b3)" style="fill: none; stroke-dasharray: 0.925,0.4; stroke-dashoffset: 0; stroke: #000000; stroke-width: 0.25"/>
   </g>
   <g id="line2d_31">
    <path d="M 19.876699 130.999398 
L 18.203708 130.999398 
L 16.530721 130.999398 
L 14.857737 130.999398 
L 13.184757 130.999398 
L 11.511779 130.999398 
L 9.838802 130.999399 
L 8.165827 130.999399 
L 6.492853 130.999399 
L 4.81988 130.999399 
L 3.146907 130.999399 
L 1.473933 130.999399 
L -0.19904 130.999399 
L -1 130.999399 
" clip-path="url(#pe0215991b3)" style="fill: none; stroke: #ff0000; stroke-width: 0.25; stroke-linecap: square"/>
   </g>
   <g id="line2d_32">
    <path clip-path="url(#pe0215991b3)" style="fill: none; stroke: #ff0000; stroke-width: 0.25; stroke-linecap: square"/>
   </g>
   <g id="line2d_33">
    <path d="M 155.304866 276.552969 
L 155.304867 278.205046 
L 155.304867 279.85713 
L 155.304867 281.50922 
L 155.304867 283.161314 
L 155.304867 284.813414 
L 155.304867 286.465517 
L 155.304867 287.589344 
" clip-path="url(#pe0215991b3)" style="fill: none; stroke: #ff0000; stroke-width: 0.25; stroke-linecap: square"/>
   </g>
   <g id="line2d_34">
    <path d="M 300.85846 142.711039 
L 301.579188 142.711039 
" clip-path="url(#pe0215991b3)" style="fill: none; stroke: #ff0000; stroke-width: 0.25; stroke-linecap: square"/>
   </g>
   <g id="line2d_35">
    <path d="M 167.016482 40.116448 
L 167.016491 38.461427 
L 167.016501 36.806934 
L 167.016509 35.152916 
L 167.016514 33.499321 
L 167.016518 31.846097 
L 167.01652 30.193195 
L 167.016521 28.54057 
L 167.016521 26.888179 
L 167.01652 25.235983 
L 167.016519 23.583947 
L 167.016518 21.932039 
L 167.016517 20.28023 
L 167.016516 18.628497 
L 167.016515 16.976818 
L 167.016513 15.325175 
L 167.016512 13.673554 
L 167.016511 12.021944 
L 167.016511 10.370333 
L 167.01651 8.718716 
L 167.016509 7.067086 
L 167.016509 5.415441 
L 167.016508 3.763779 
L 167.016508 2.112099 
L 167.016508 0.460402 
L 167.016508 -1 
" clip-path="url(#pe0215991b3)" style="fill: none; stroke: #ff0000; stroke-width: 0.25; stroke-linecap: square"/>
   </g>
   <g id="line2d_36">
    <path d="M 64.416719 130.999441 
L 62.763874 130.999424 
L 61.111206 130.999405 
L 59.458692 130.999392 
L 57.80631 130.999382 
L 56.154042 130.999377 
L 54.501867 130.999373 
L 52.849769 130.999372 
L 51.197734 130.999372 
L 49.545748 130.999374 
L 47.893798 130.999376 
L 46.241876 130.999378 
L 44.589971 130.99938 
L 42.938077 130.999383 
L 41.286188 130.999385 
L 39.634299 130.999388 
L 37.982405 130.99939 
L 36.330504 130.999392 
L 34.678594 130.999393 
L 33.026673 130.999394 
L 31.374741 130.999396 
L 29.722799 130.999397 
L 28.070845 130.999397 
L 26.418881 130.999398 
L 24.766908 130.999398 
L 23.114926 130.999399 
L 21.462938 130.999399 
L 19.810945 130.999399 
L 18.158948 130.999399 
L 16.506949 130.9994 
L 14.854948 130.9994 
" clip-path="url(#pe0215991b3)" style="fill: none; stroke: #ff0000; stroke-width: 0.25; stroke-linecap: square"/>
   </g>
   <g id="line2d_37">
    <path d="M 258.940864 142.711048 
L 260.615649 142.711047 
L 262.290179 142.711046 
L 263.964472 142.711046 
L 265.638547 142.711045 
L 267.312424 142.711044 
L 268.986123 142.711043 
L 270.659664 142.711042 
L 272.333065 142.711042 
L 274.006344 142.711041 
L 275.67952 142.711041 
L 277.352607 142.71104 
L 279.025621 142.71104 
L 280.698574 142.71104 
L 282.371478 142.711039 
L 284.044343 142.711039 
L 285.717179 142.711039 
L 287.389992 142.711039 
L 289.062791 142.711039 
L 290.735578 142.711039 
L 292.40836 142.711039 
L 294.081139 142.711039 
L 295.753918 142.711039 
L 297.426698 142.711039 
L 299.099481 142.711039 
L 300.772266 142.711039 
L 301.579188 142.711039 
" clip-path="url(#pe0215991b3)" style="fill: none; stroke: #ff0000; stroke-width: 0.25; stroke-linecap: square"/>
   </g>
   <g id="line2d_38">
    <path d="M 167.014341 72.861675 
L 167.014791 71.483466 
L 167.015199 70.104045 
L 167.015542 68.723541 
L 167.015826 67.342075 
L 167.016057 65.959767 
L 167.016242 64.576731 
L 167.016387 63.193072 
L 167.016498 61.808889 
L 167.01658 60.424272 
L 167.016638 59.039301 
L 167.016677 57.65405 
L 167.016701 56.268581 
L 167.016712 54.882951 
L 167.016714 53.497206 
L 167.016709 52.111386 
L 167.016699 50.725526 
L 167.016685 49.339651 
L 167.01667 47.953782 
L 167.016654 46.567935 
L 167.016637 45.182121 
L 167.01662 43.796347 
L 167.016604 42.410616 
L 167.016589 41.024929 
L 167.016575 39.639284 
L 167.016562 38.253677 
L 167.016549 36.868102 
L 167.016538 35.482555 
L 167.016526 34.097026 
L 167.016516 32.711511 
L 167.016505 31.326002 
" clip-path="url(#pe0215991b3)" style="fill: none; stroke: #ff0000; stroke-width: 0.25; stroke-linecap: square"/>
   </g>
   <g id="line2d_39">
    <path d="M 218.647905 142.710711 
L 220.205095 142.711645 
L 221.762037 142.71309 
L 223.318646 142.714047 
L 224.87486 142.714619 
L 226.430635 142.714894 
L 227.985947 142.714945 
L 229.540783 142.714834 
L 231.095144 142.714612 
L 232.649039 142.714317 
L 234.202487 142.713982 
L 235.755509 142.71363 
L 237.308133 142.71328 
L 238.860389 142.712945 
L 240.412308 142.712632 
L 241.963922 142.712348 
L 243.515263 142.712095 
L 245.066363 142.711875 
L 246.617251 142.711686 
L 248.167956 142.711527 
L 249.718505 142.711395 
L 251.268921 142.711287 
L 252.819228 142.711201 
L 254.369446 142.711133 
L 255.919591 142.711079 
L 257.46968 142.711037 
L 259.019727 142.711004 
L 260.569742 142.710977 
L 262.119737 142.710954 
L 263.669719 142.710932 
L 265.219695 142.710909 
" clip-path="url(#pe0215991b3)" style="fill: none; stroke: #ff0000; stroke-width: 0.25; stroke-linecap: square"/>
   </g>
   <g id="line2d_40">
    <path d="M 155.304821 221.504058 
L 155.304827 223.471153 
L 155.304831 225.438907 
L 155.304836 227.407061 
L 155.30484 229.375401 
L 155.304845 231.343749 
L 155.304849 233.31196 
L 155.304853 235.279921 
L 155.304857 237.247544 
L 155.30486 239.214767 
L 155.304862 241.181545 
L 155.304864 243.147854 
L 155.304865 245.113682 
L 155.304866 247.079031 
L 155.304867 249.043911 
L 155.304868 251.008341 
L 155.304868 252.972347 
L 155.304868 254.935956 
L 155.304868 256.899203 
L 155.304868 258.86212 
L 155.304868 260.824743 
L 155.304868 262.787107 
L 155.304868 264.749246 
L 155.304868 266.711195 
L 155.304868 268.672985 
L 155.304868 270.634646 
L 155.304868 272.596206 
L 155.304868 274.55769 
L 155.304868 276.51912 
L 155.304868 278.480518 
L 155.304868 280.441901 
" clip-path="url(#pe0215991b3)" style="fill: none; stroke: #ff0000; stroke-width: 0.25; stroke-linecap: square"/>
   </g>
   <g id="line2d_41">
    <path d="M 103.669535 130.99924 
L 102.112088 130.998017 
L 100.555021 130.996036 
L 98.998397 130.994745 
L 97.442256 130.993996 
L 95.886625 130.993664 
L 94.33151 130.993642 
L 92.776911 130.993844 
L 91.222814 130.994198 
L 89.6692 130.994649 
L 88.116041 130.995151 
L 86.563308 130.995672 
L 85.010969 130.996187 
L 83.458988 130.996677 
L 81.907331 130.997131 
L 80.355963 130.997542 
L 78.804851 130.997906 
L 77.253962 130.998223 
L 75.703267 130.998493 
L 74.152737 130.99872 
L 72.602347 130.998908 
L 71.052072 130.99906 
L 69.501894 130.999182 
L 67.951792 130.999278 
L 66.40175 130.999352 
L 64.851756 130.99941 
L 63.301796 130.999456 
L 61.751862 130.999492 
L 60.201944 130.999524 
L 58.652037 130.999554 
L 57.102133 130.999586 
" clip-path="url(#pe0215991b3)" style="fill: none; stroke: #ff0000; stroke-width: 0.25; stroke-linecap: square"/>
   </g>
   <g id="line2d_42">
    <path d="M 155.299622 194.477114 
L 155.29932 196.024909 
L 155.298022 197.571736 
L 155.297351 199.117852 
L 155.297154 200.663477 
L 155.297303 202.208801 
L 155.297694 203.753982 
L 155.298243 205.299152 
L 155.298886 206.844418 
L 155.299571 208.389863 
L 155.300262 209.935551 
L 155.300931 211.481528 
L 155.301559 213.027827 
L 155.302134 214.574466 
L 155.302649 216.121452 
L 155.303102 217.668783 
L 155.303493 219.216452 
L 155.303825 220.764443 
L 155.304101 222.312736 
L 155.304327 223.861309 
L 155.304509 225.410137 
L 155.304652 226.959192 
L 155.304762 228.508449 
L 155.304845 230.057878 
L 155.304907 231.607454 
L 155.304951 233.15715 
L 155.304984 234.70694 
L 155.305008 236.256803 
L 155.305028 237.806717 
L 155.305046 239.356662 
L 155.305066 240.906622 
" clip-path="url(#pe0215991b3)" style="fill: none; stroke: #ff0000; stroke-width: 0.25; stroke-linecap: square"/>
   </g>
   <g id="patch_15">
    <path d="M 28.104688 269.911219 
L 28.104688 3.799219 
" style="fill: none; stroke: #000000; stroke-width: 0.8; stroke-linejoin: miter; stroke-linecap: square"/>
   </g>
   <g id="patch_16">
    <path d="M 294.216687 269.911219 
L 294.216687 3.799219 
" style="fill: none; stroke: #000000; stroke-width: 0.8; stroke-linejoin: miter; stroke-linecap: square"/>
   </g>
   <g id="patch_17">
    <path d="M 28.104688 269.911219 
L 294.216687 269.911219 
" style="fill: none; stroke: #000000; stroke-width: 0.8; stroke-linejoin: miter; stroke-linecap: square"/>
   </g>
   <g id="patch_18">
    <path d="M 28.104688 3.799219 
L 294.216687 3.799219 
" style="fill: none; stroke: #000000; stroke-width: 0.8; stroke-linejoin: miter; stroke-linecap: square"/>
   </g>
   <g id="text_19">
    <!-- Time: 11.5 s -->
    <g transform="translate(192.6327 17.104819) scale(0.1 -0.1)">
     <defs>
      <path id="DejaVuSans-54" d="M -19 4666 
L 3928 4666 
L 3928 4134 
L 2272 4134 
L 2272 0 
L 1638 0 
L 1638 4134 
L -19 4134 
L -19 4666 
z
" transform="scale(0.015625)"/>
      <path id="DejaVuSans-69" d="M 603 3500 
L 1178 3500 
L 1178 0 
L 603 0 
L 603 3500 
z
M 603 4863 
L 1178 4863 
L 1178 4134 
L 603 4134 
L 603 4863 
z
" transform="scale(0.015625)"/>
      <path id="DejaVuSans-6d" d="M 3328 2828 
Q 3544 3216 3844 3400 
Q 4144 3584 4550 3584 
Q 5097 3584 5394 3201 
Q 5691 2819 5691 2113 
L 5691 0 
L 5113 0 
L 5113 2094 
Q 5113 2597 4934 2840 
Q 4756 3084 4391 3084 
Q 3944 3084 3684 2787 
Q 3425 2491 3425 1978 
L 3425 0 
L 2847 0 
L 2847 2094 
Q 2847 2600 2669 2842 
Q 2491 3084 2119 3084 
Q 1678 3084 1418 2786 
Q 1159 2488 1159 1978 
L 1159 0 
L 581 0 
L 581 3500 
L 1159 3500 
L 1159 2956 
Q 1356 3278 1631 3431 
Q 1906 3584 2284 3584 
Q 2666 3584 2933 3390 
Q 3200 3197 3328 2828 
z
" transform="scale(0.015625)"/>
      <path id="DejaVuSans-65" d="M 3597 1894 
L 3597 1613 
L 953 1613 
Q 991 1019 1311 708 
Q 1631 397 2203 397 
Q 2534 397 2845 478 
Q 3156 559 3463 722 
L 3463 178 
Q 3153 47 2828 -22 
Q 2503 -91 2169 -91 
Q 1331 -91 842 396 
Q 353 884 353 1716 
Q 353 2575 817 3079 
Q 1281 3584 2069 3584 
Q 2775 3584 3186 3129 
Q 3597 2675 3597 1894 
z
M 3022 2063 
Q 3016 2534 2758 2815 
Q 2500 3097 2075 3097 
Q 1594 3097 1305 2825 
Q 1016 2553 972 2059 
L 3022 2063 
z
" transform="scale(0.015625)"/>
      <path id="DejaVuSans-3a" d="M 750 794 
L 1409 794 
L 1409 0 
L 750 0 
L 750 794 
z
M 750 3309 
L 1409 3309 
L 1409 2516 
L 750 2516 
L 750 3309 
z
" transform="scale(0.015625)"/>
      <path id="DejaVuSans-20" transform="scale(0.015625)"/>
      <path id="DejaVuSans-2e" d="M 684 794 
L 1344 794 
L 1344 0 
L 684 0 
L 684 794 
z
" transform="scale(0.015625)"/>
      <path id="DejaVuSans-35" d="M 691 4666 
L 3169 4666 
L 3169 4134 
L 1269 4134 
L 1269 2991 
Q 1406 3038 1543 3061 
Q 1681 3084 1819 3084 
Q 2600 3084 3056 2656 
Q 3513 2228 3513 1497 
Q 3513 744 3044 326 
Q 2575 -91 1722 -91 
Q 1428 -91 1123 -41 
Q 819 9 494 109 
L 494 744 
Q 775 591 1075 516 
Q 1375 441 1709 441 
Q 2250 441 2565 725 
Q 2881 1009 2881 1497 
Q 2881 1984 2565 2268 
Q 2250 2553 1709 2553 
Q 1456 2553 1204 2497 
Q 953 2441 691 2322 
L 691 4666 
z
" transform="scale(0.015625)"/>
      <path id="DejaVuSans-73" d="M 2834 3397 
L 2834 2853 
Q 2591 2978 2328 3040 
Q 2066 3103 1784 3103 
Q 1356 3103 1142 2972 
Q 928 2841 928 2578 
Q 928 2378 1081 2264 
Q 1234 2150 1697 2047 
L 1894 2003 
Q 2506 1872 2764 1633 
Q 3022 1394 3022 966 
Q 3022 478 2636 193 
Q 2250 -91 1575 -91 
Q 1294 -91 989 -36 
Q 684 19 347 128 
L 347 722 
Q 666 556 975 473 
Q 1284 391 1588 391 
Q 1994 391 2212 530 
Q 2431 669 2431 922 
Q 2431 1156 2273 1281 
Q 2116 1406 1581 1522 
L 1381 1569 
Q 847 1681 609 1914 
Q 372 2147 372 2553 
Q 372 3047 722 3315 
Q 1072 3584 1716 3584 
Q 2034 3584 2315 3537 
Q 2597 3491 2834 3397 
z
" transform="scale(0.015625)"/>
     </defs>
     <use xlink:href="#DejaVuSans-54"/>
     <use xlink:href="#DejaVuSans-69" x="57.958984"/>
     <use xlink:href="#DejaVuSans-6d" x="85.742188"/>
     <use xlink:href="#DejaVuSans-65" x="183.154297"/>
     <use xlink:href="#DejaVuSans-3a" x="244.677734"/>
     <use xlink:href="#DejaVuSans-20" x="278.369141"/>
     <use xlink:href="#DejaVuSans-31" x="310.15625"/>
     <use xlink:href="#DejaVuSans-31" x="373.779297"/>
     <use xlink:href="#DejaVuSans-2e" x="437.402344"/>
     <use xlink:href="#DejaVuSans-35" x="469.189453"/>
     <use xlink:href="#DejaVuSans-20" x="532.8125"/>
     <use xlink:href="#DejaVuSans-73" x="564.599609"/>
    </g>
   </g>
  </g>
 </g>
 <defs>
  <clipPath id="pe0215991b3">
   <rect x="28.104688" y="3.799219" width="266.112" height="266.112"/>
  </clipPath>
 </defs>
</svg>
