<?xml version="1.0" encoding="utf-8" standalone="no"?>
<!DOCTYPE svg PUBLIC "-//W3C//DTD SVG 1.1//EN"
  "http://www.w3.org/Graphics/SVG/1.1/DTD/svg11.dtd">
<svg xmlns:xlink="http://www.w3.org/1999/xlink" width="300.579188pt" height="286.589344pt" viewBox="0 0 300.579188 286.589344" xmlns="http://www.w3.org/2000/svg" version="1.1">
 <metadata>
  <rdf:RDF xmlns:dc="http://purl.org/dc/elements/1.1/" xmlns:cc="http://creativecommons.org/ns#" xmlns:rdf="http://www.w3.org/1999/02/22-rdf-syntax-ns#">
   <cc:Work>
    <dc:type rdf:resource="http://purl.org/dc/dcmitype/StillImage"/>
    <dc:date>2024-02-26T10:13:05.835344</dc:date>
    <dc:format>image/svg+xml</dc:format>
    <dc:creator>
     <cc:Agent>
      <dc:title>Matplotlib v3.8.2, https://matplotlib.org/</dc:title>
     </cc:Agent>
    </dc:creator>
   </cc:Work>
  </rdf:RDF>
 </metadata>
 <defs>
  <style type="text/css">*{stroke-linejoin: round; stroke-linecap: butt}</style>
 </defs>
 <g id="figure_1">
  <g id="patch_1">
   <path d="M 0 286.589344 
L 300.579188 286.589344 
L 300.579188 0 
L 0 0 
z
" style="fill: #ffffff"/>
  </g>
  <g id="axes_1">
   <g id="patch_2">
    <path d="M 28.104688 269.911219 
L 294.216687 269.911219 
L 294.216687 3.799219 
L 28.104688 3.799219 
z
" style="fill: #ffffff"/>
   </g>
   <g id="patch_3">
    <path d="M 171.156616 152.951076 
L 171.602066 141.317201 
L 165.951326 141.10084 
L 165.505876 152.734715 
z
" clip-path="url(#p2d42f3fc26)" style="fill: #00008b"/>
   </g>
   <g id="patch_4">
    <path d="M 182.454226 128.221876 
L 171.231487 125.124198 
L 169.726901 130.575243 
L 180.94964 133.672921 
z
" clip-path="url(#p2d42f3fc26)" style="fill: #800000"/>
   </g>
   <g id="patch_5">
    <path d="M 152.02374 118.549442 
L 150.351545 130.071128 
L 155.947792 130.883337 
L 157.619987 119.361651 
z
" clip-path="url(#p2d42f3fc26)" style="fill: #006400"/>
   </g>
   <g id="patch_6">
    <path d="M 142.614661 146.401604 
L 153.992648 148.868766 
L 155.190984 143.342315 
L 143.812997 140.875153 
z
" clip-path="url(#p2d42f3fc26)" style="fill: #4b0082"/>
   </g>
   <g id="patch_7">
    <path d="M 169.830229 196.965138 
L 169.827694 185.322738 
L 164.172815 185.323969 
L 164.175349 196.966369 
z
" clip-path="url(#p2d42f3fc26)" style="fill: #0000ff"/>
   </g>
   <g id="patch_8">
    <path d="M 221.267627 128.187475 
L 209.625232 128.198354 
L 209.630516 133.853231 
L 221.272911 133.842353 
z
" clip-path="url(#p2d42f3fc26)" style="fill: #ff0000"/>
   </g>
   <g id="patch_9">
    <path d="M 152.504953 77.180117 
L 152.472411 88.822471 
L 158.127269 88.838277 
L 158.159811 77.195923 
z
" clip-path="url(#p2d42f3fc26)" style="fill: #dbdc56"/>
   </g>
   <g id="patch_10">
    <path d="M 95.1607 145.529679 
L 106.803095 145.519466 
L 106.798134 139.864588 
L 95.155739 139.874801 
z
" clip-path="url(#p2d42f3fc26)" style="fill: #9400d3"/>
   </g>
   <g id="patch_11">
    <path d="M 169.843947 242.456574 
L 169.843947 230.814174 
L 164.189067 230.814174 
L 164.189067 242.456574 
z
" clip-path="url(#p2d42f3fc26)" style="fill: #1e90ff"/>
   </g>
   <g id="patch_12">
    <path d="M 257.720733 128.171829 
L 246.078333 128.173266 
L 246.079031 133.828145 
L 257.721431 133.826709 
z
" clip-path="url(#p2d42f3fc26)" style="fill: #ff4500"/>
   </g>
   <g id="patch_13">
    <path d="M 152.477459 31.254241 
L 152.478845 42.896641 
L 158.133725 42.895967 
L 158.132339 31.253568 
z
" clip-path="url(#p2d42f3fc26)" style="fill: #7cfc00"/>
   </g>
   <g id="patch_14">
    <path d="M 55.559332 145.538479 
L 67.201732 145.538479 
L 67.201732 139.883599 
L 55.559332 139.883599 
z
" clip-path="url(#p2d42f3fc26)" style="fill: #ff00ff"/>
   </g>
   <g id="matplotlib.axis_1">
    <g id="xtick_1">
     <g id="line2d_1">
      <defs>
       <path id="m5a523f3af9" d="M 0 0 
L 0 3.5 
" style="stroke: #000000; stroke-width: 0.8"/>
      </defs>
      <g>
       <use xlink:href="#m5a523f3af9" x="28.104688" y="269.911219" style="stroke: #000000; stroke-width: 0.8"/>
      </g>
     </g>
     <g id="text_1">
      <!-- −40 -->
      <g transform="translate(17.552344 284.509656) scale(0.1 -0.1)">
       <defs>
        <path id="DejaVuSans-2212" d="M 678 2272 
L 4684 2272 
L 4684 1741 
L 678 1741 
L 678 2272 
z
" transform="scale(0.015625)"/>
        <path id="DejaVuSans-34" d="M 2419 4116 
L 825 1625 
L 2419 1625 
L 2419 4116 
z
M 2253 4666 
L 3047 4666 
L 3047 1625 
L 3713 1625 
L 3713 1100 
L 3047 1100 
L 3047 0 
L 2419 0 
L 2419 1100 
L 313 1100 
L 313 1709 
L 2253 4666 
z
" transform="scale(0.015625)"/>
        <path id="DejaVuSans-30" d="M 2034 4250 
Q 1547 4250 1301 3770 
Q 1056 3291 1056 2328 
Q 1056 1369 1301 889 
Q 1547 409 2034 409 
Q 2525 409 2770 889 
Q 3016 1369 3016 2328 
Q 3016 3291 2770 3770 
Q 2525 4250 2034 4250 
z
M 2034 4750 
Q 2819 4750 3233 4129 
Q 3647 3509 3647 2328 
Q 3647 1150 3233 529 
Q 2819 -91 2034 -91 
Q 1250 -91 836 529 
Q 422 1150 422 2328 
Q 422 3509 836 4129 
Q 1250 4750 2034 4750 
z
" transform="scale(0.015625)"/>
       </defs>
       <use xlink:href="#DejaVuSans-2212"/>
       <use xlink:href="#DejaVuSans-34" x="83.789062"/>
       <use xlink:href="#DejaVuSans-30" x="147.412109"/>
      </g>
     </g>
    </g>
    <g id="xtick_2">
     <g id="line2d_2">
      <g>
       <use xlink:href="#m5a523f3af9" x="61.368688" y="269.911219" style="stroke: #000000; stroke-width: 0.8"/>
      </g>
     </g>
     <g id="text_2">
      <!-- −30 -->
      <g transform="translate(50.816344 284.509656) scale(0.1 -0.1)">
       <defs>
        <path id="DejaVuSans-33" d="M 2597 2516 
Q 3050 2419 3304 2112 
Q 3559 1806 3559 1356 
Q 3559 666 3084 287 
Q 2609 -91 1734 -91 
Q 1441 -91 1130 -33 
Q 819 25 488 141 
L 488 750 
Q 750 597 1062 519 
Q 1375 441 1716 441 
Q 2309 441 2620 675 
Q 2931 909 2931 1356 
Q 2931 1769 2642 2001 
Q 2353 2234 1838 2234 
L 1294 2234 
L 1294 2753 
L 1863 2753 
Q 2328 2753 2575 2939 
Q 2822 3125 2822 3475 
Q 2822 3834 2567 4026 
Q 2313 4219 1838 4219 
Q 1578 4219 1281 4162 
Q 984 4106 628 3988 
L 628 4550 
Q 988 4650 1302 4700 
Q 1616 4750 1894 4750 
Q 2613 4750 3031 4423 
Q 3450 4097 3450 3541 
Q 3450 3153 3228 2886 
Q 3006 2619 2597 2516 
z
" transform="scale(0.015625)"/>
       </defs>
       <use xlink:href="#DejaVuSans-2212"/>
       <use xlink:href="#DejaVuSans-33" x="83.789062"/>
       <use xlink:href="#DejaVuSans-30" x="147.412109"/>
      </g>
     </g>
    </g>
    <g id="xtick_3">
     <g id="line2d_3">
      <g>
       <use xlink:href="#m5a523f3af9" x="94.632688" y="269.911219" style="stroke: #000000; stroke-width: 0.8"/>
      </g>
     </g>
     <g id="text_3">
      <!-- −20 -->
      <g transform="translate(84.080344 284.509656) scale(0.1 -0.1)">
       <defs>
        <path id="DejaVuSans-32" d="M 1228 531 
L 3431 531 
L 3431 0 
L 469 0 
L 469 531 
Q 828 903 1448 1529 
Q 2069 2156 2228 2338 
Q 2531 2678 2651 2914 
Q 2772 3150 2772 3378 
Q 2772 3750 2511 3984 
Q 2250 4219 1831 4219 
Q 1534 4219 1204 4116 
Q 875 4013 500 3803 
L 500 4441 
Q 881 4594 1212 4672 
Q 1544 4750 1819 4750 
Q 2544 4750 2975 4387 
Q 3406 4025 3406 3419 
Q 3406 3131 3298 2873 
Q 3191 2616 2906 2266 
Q 2828 2175 2409 1742 
Q 1991 1309 1228 531 
z
" transform="scale(0.015625)"/>
       </defs>
       <use xlink:href="#DejaVuSans-2212"/>
       <use xlink:href="#DejaVuSans-32" x="83.789062"/>
       <use xlink:href="#DejaVuSans-30" x="147.412109"/>
      </g>
     </g>
    </g>
    <g id="xtick_4">
     <g id="line2d_4">
      <g>
       <use xlink:href="#m5a523f3af9" x="127.896687" y="269.911219" style="stroke: #000000; stroke-width: 0.8"/>
      </g>
     </g>
     <g id="text_4">
      <!-- −10 -->
      <g transform="translate(117.344344 284.509656) scale(0.1 -0.1)">
       <defs>
        <path id="DejaVuSans-31" d="M 794 531 
L 1825 531 
L 1825 4091 
L 703 3866 
L 703 4441 
L 1819 4666 
L 2450 4666 
L 2450 531 
L 3481 531 
L 3481 0 
L 794 0 
L 794 531 
z
" transform="scale(0.015625)"/>
       </defs>
       <use xlink:href="#DejaVuSans-2212"/>
       <use xlink:href="#DejaVuSans-31" x="83.789062"/>
       <use xlink:href="#DejaVuSans-30" x="147.412109"/>
      </g>
     </g>
    </g>
    <g id="xtick_5">
     <g id="line2d_5">
      <g>
       <use xlink:href="#m5a523f3af9" x="161.160687" y="269.911219" style="stroke: #000000; stroke-width: 0.8"/>
      </g>
     </g>
     <g id="text_5">
      <!-- 0 -->
      <g transform="translate(157.979437 284.509656) scale(0.1 -0.1)">
       <use xlink:href="#DejaVuSans-30"/>
      </g>
     </g>
    </g>
    <g id="xtick_6">
     <g id="line2d_6">
      <g>
       <use xlink:href="#m5a523f3af9" x="194.424688" y="269.911219" style="stroke: #000000; stroke-width: 0.8"/>
      </g>
     </g>
     <g id="text_6">
      <!-- 10 -->
      <g transform="translate(188.062187 284.509656) scale(0.1 -0.1)">
       <use xlink:href="#DejaVuSans-31"/>
       <use xlink:href="#DejaVuSans-30" x="63.623047"/>
      </g>
     </g>
    </g>
    <g id="xtick_7">
     <g id="line2d_7">
      <g>
       <use xlink:href="#m5a523f3af9" x="227.688687" y="269.911219" style="stroke: #000000; stroke-width: 0.8"/>
      </g>
     </g>
     <g id="text_7">
      <!-- 20 -->
      <g transform="translate(221.326187 284.509656) scale(0.1 -0.1)">
       <use xlink:href="#DejaVuSans-32"/>
       <use xlink:href="#DejaVuSans-30" x="63.623047"/>
      </g>
     </g>
    </g>
    <g id="xtick_8">
     <g id="line2d_8">
      <g>
       <use xlink:href="#m5a523f3af9" x="260.952687" y="269.911219" style="stroke: #000000; stroke-width: 0.8"/>
      </g>
     </g>
     <g id="text_8">
      <!-- 30 -->
      <g transform="translate(254.590187 284.509656) scale(0.1 -0.1)">
       <use xlink:href="#DejaVuSans-33"/>
       <use xlink:href="#DejaVuSans-30" x="63.623047"/>
      </g>
     </g>
    </g>
    <g id="xtick_9">
     <g id="line2d_9">
      <g>
       <use xlink:href="#m5a523f3af9" x="294.216687" y="269.911219" style="stroke: #000000; stroke-width: 0.8"/>
      </g>
     </g>
     <g id="text_9">
      <!-- 40 -->
      <g transform="translate(287.854187 284.509656) scale(0.1 -0.1)">
       <use xlink:href="#DejaVuSans-34"/>
       <use xlink:href="#DejaVuSans-30" x="63.623047"/>
      </g>
     </g>
    </g>
   </g>
   <g id="matplotlib.axis_2">
    <g id="ytick_1">
     <g id="line2d_10">
      <defs>
       <path id="madb6ed673e" d="M 0 0 
L -3.5 0 
" style="stroke: #000000; stroke-width: 0.8"/>
      </defs>
      <g>
       <use xlink:href="#madb6ed673e" x="28.104688" y="269.911219" style="stroke: #000000; stroke-width: 0.8"/>
      </g>
     </g>
     <g id="text_10">
      <!-- −40 -->
      <g transform="translate(0 273.710437) scale(0.1 -0.1)">
       <use xlink:href="#DejaVuSans-2212"/>
       <use xlink:href="#DejaVuSans-34" x="83.789062"/>
       <use xlink:href="#DejaVuSans-30" x="147.412109"/>
      </g>
     </g>
    </g>
    <g id="ytick_2">
     <g id="line2d_11">
      <g>
       <use xlink:href="#madb6ed673e" x="28.104688" y="236.647219" style="stroke: #000000; stroke-width: 0.8"/>
      </g>
     </g>
     <g id="text_11">
      <!-- −30 -->
      <g transform="translate(0 240.446437) scale(0.1 -0.1)">
       <use xlink:href="#DejaVuSans-2212"/>
       <use xlink:href="#DejaVuSans-33" x="83.789062"/>
       <use xlink:href="#DejaVuSans-30" x="147.412109"/>
      </g>
     </g>
    </g>
    <g id="ytick_3">
     <g id="line2d_12">
      <g>
       <use xlink:href="#madb6ed673e" x="28.104688" y="203.383219" style="stroke: #000000; stroke-width: 0.8"/>
      </g>
     </g>
     <g id="text_12">
      <!-- −20 -->
      <g transform="translate(0 207.182437) scale(0.1 -0.1)">
       <use xlink:href="#DejaVuSans-2212"/>
       <use xlink:href="#DejaVuSans-32" x="83.789062"/>
       <use xlink:href="#DejaVuSans-30" x="147.412109"/>
      </g>
     </g>
    </g>
    <g id="ytick_4">
     <g id="line2d_13">
      <g>
       <use xlink:href="#madb6ed673e" x="28.104688" y="170.119219" style="stroke: #000000; stroke-width: 0.8"/>
      </g>
     </g>
     <g id="text_13">
      <!-- −10 -->
      <g transform="translate(0 173.918437) scale(0.1 -0.1)">
       <use xlink:href="#DejaVuSans-2212"/>
       <use xlink:href="#DejaVuSans-31" x="83.789062"/>
       <use xlink:href="#DejaVuSans-30" x="147.412109"/>
      </g>
     </g>
    </g>
    <g id="ytick_5">
     <g id="line2d_14">
      <g>
       <use xlink:href="#madb6ed673e" x="28.104688" y="136.855219" style="stroke: #000000; stroke-width: 0.8"/>
      </g>
     </g>
     <g id="text_14">
      <!-- 0 -->
      <g transform="translate(14.742188 140.654437) scale(0.1 -0.1)">
       <use xlink:href="#DejaVuSans-30"/>
      </g>
     </g>
    </g>
    <g id="ytick_6">
     <g id="line2d_15">
      <g>
       <use xlink:href="#madb6ed673e" x="28.104688" y="103.591219" style="stroke: #000000; stroke-width: 0.8"/>
      </g>
     </g>
     <g id="text_15">
      <!-- 10 -->
      <g transform="translate(8.379688 107.390437) scale(0.1 -0.1)">
       <use xlink:href="#DejaVuSans-31"/>
       <use xlink:href="#DejaVuSans-30" x="63.623047"/>
      </g>
     </g>
    </g>
    <g id="ytick_7">
     <g id="line2d_16">
      <g>
       <use xlink:href="#madb6ed673e" x="28.104688" y="70.327219" style="stroke: #000000; stroke-width: 0.8"/>
      </g>
     </g>
     <g id="text_16">
      <!-- 20 -->
      <g transform="translate(8.379688 74.126437) scale(0.1 -0.1)">
       <use xlink:href="#DejaVuSans-32"/>
       <use xlink:href="#DejaVuSans-30" x="63.623047"/>
      </g>
     </g>
    </g>
    <g id="ytick_8">
     <g id="line2d_17">
      <g>
       <use xlink:href="#madb6ed673e" x="28.104688" y="37.063219" style="stroke: #000000; stroke-width: 0.8"/>
      </g>
     </g>
     <g id="text_17">
      <!-- 30 -->
      <g transform="translate(8.379688 40.862437) scale(0.1 -0.1)">
       <use xlink:href="#DejaVuSans-33"/>
       <use xlink:href="#DejaVuSans-30" x="63.623047"/>
      </g>
     </g>
    </g>
    <g id="ytick_9">
     <g id="line2d_18">
      <g>
       <use xlink:href="#madb6ed673e" x="28.104688" y="3.799219" style="stroke: #000000; stroke-width: 0.8"/>
      </g>
     </g>
     <g id="text_18">
      <!-- 40 -->
      <g transform="translate(8.379688 7.598437) scale(0.1 -0.1)">
       <use xlink:href="#DejaVuSans-34"/>
       <use xlink:href="#DejaVuSans-30" x="63.623047"/>
      </g>
     </g>
    </g>
   </g>
   <g id="line2d_19">
    <path d="M 175.297888 250.784419 
L 175.297888 150.992419 
" clip-path="url(#p2d42f3fc26)" style="fill: none; stroke: #000000; stroke-width: 0.25; stroke-linecap: square"/>
   </g>
   <g id="line2d_20">
    <path d="M 175.297888 150.992419 
L 275.089887 150.992419 
" clip-path="url(#p2d42f3fc26)" style="fill: none; stroke: #000000; stroke-width: 0.25; stroke-linecap: square"/>
   </g>
   <g id="line2d_21">
    <path d="M 275.089887 122.718019 
L 175.297888 122.718019 
" clip-path="url(#p2d42f3fc26)" style="fill: none; stroke: #000000; stroke-width: 0.25; stroke-linecap: square"/>
   </g>
   <g id="line2d_22">
    <path d="M 175.297888 122.718019 
L 175.297888 22.926019 
" clip-path="url(#p2d42f3fc26)" style="fill: none; stroke: #000000; stroke-width: 0.25; stroke-linecap: square"/>
   </g>
   <g id="line2d_23">
    <path d="M 147.023487 22.926019 
L 147.023487 122.718019 
" clip-path="url(#p2d42f3fc26)" style="fill: none; stroke: #000000; stroke-width: 0.25; stroke-linecap: square"/>
   </g>
   <g id="line2d_24">
    <path d="M 147.023487 122.718019 
L 47.231488 122.718019 
" clip-path="url(#p2d42f3fc26)" style="fill: none; stroke: #000000; stroke-width: 0.25; stroke-linecap: square"/>
   </g>
   <g id="line2d_25">
    <path d="M 47.231488 150.992419 
L 147.023487 150.992419 
" clip-path="url(#p2d42f3fc26)" style="fill: none; stroke: #000000; stroke-width: 0.25; stroke-linecap: square"/>
   </g>
   <g id="line2d_26">
    <path d="M 147.023487 150.992419 
L 147.023487 250.784419 
" clip-path="url(#p2d42f3fc26)" style="fill: none; stroke: #000000; stroke-width: 0.25; stroke-linecap: square"/>
   </g>
   <g id="line2d_27">
    <path d="M 175.297888 136.855219 
L 275.089887 136.855219 
" clip-path="url(#p2d42f3fc26)" style="fill: none; stroke-dasharray: 0.925,0.4; stroke-dashoffset: 0; stroke: #000000; stroke-width: 0.25"/>
   </g>
   <g id="line2d_28">
    <path d="M 161.160687 122.718019 
L 161.160687 22.926019 
" clip-path="url(#p2d42f3fc26)" style="fill: none; stroke-dasharray: 0.925,0.4; stroke-dashoffset: 0; stroke: #000000; stroke-width: 0.25"/>
   </g>
   <g id="line2d_29">
    <path d="M 147.023487 136.855219 
L 47.231488 136.855219 
" clip-path="url(#p2d42f3fc26)" style="fill: none; stroke-dasharray: 0.925,0.4; stroke-dashoffset: 0; stroke: #000000; stroke-width: 0.25"/>
   </g>
   <g id="line2d_30">
    <path d="M 161.160687 150.992419 
L 161.160687 250.784419 
" clip-path="url(#p2d42f3fc26)" style="fill: none; stroke-dasharray: 0.925,0.4; stroke-dashoffset: 0; stroke: #000000; stroke-width: 0.25"/>
   </g>
   <g id="line2d_31">
    <path d="M 168.577745 148.796086 
L 168.553971 147.025958 
L 168.426627 145.247859 
L 168.154676 143.473932 
L 167.680347 141.731434 
L 166.999596 140.047858 
L 166.167389 138.424599 
L 165.239079 136.847775 
L 164.160165 135.365805 
L 162.884936 134.047345 
L 161.484146 132.863604 
L 159.972325 131.826671 
L 158.364885 130.947065 
L 156.678951 130.234239 
L 154.933233 129.695588 
L 153.147118 129.335917 
L 151.340008 129.157245 
L 149.53079 129.159155 
L 147.733375 129.29233 
L 145.941683 129.414227 
L 144.154979 129.523349 
L 142.372235 129.61462 
L 140.592484 129.682623 
L 138.815094 129.727415 
L 137.040289 129.783212 
L 135.267722 129.856361 
L 133.498728 129.975154 
L 131.734663 130.145461 
L 129.973023 130.335521 
L 128.213443 130.542107 
L 126.455564 130.762196 
" clip-path="url(#p2d42f3fc26)" style="fill: none; stroke: #ff0000; stroke-width: 0.25; stroke-linecap: square"/>
   </g>
   <g id="line2d_32">
    <path d="M 177.284134 130.077943 
L 176.090564 129.398559 
L 174.959156 128.64281 
L 173.900211 127.806604 
L 172.913338 126.90104 
L 172.001574 125.931718 
L 171.167689 124.904076 
L 170.414021 123.823213 
L 169.742455 122.693673 
L 169.154612 121.519259 
L 168.652129 120.303078 
L 168.236968 119.048012 
L 167.91179 117.757561 
L 167.679923 116.436058 
L 167.544952 115.088873 
L 167.510334 113.7225 
L 167.573759 112.344482 
L 167.572293 110.953043 
L 167.529017 109.551222 
L 167.448379 108.14114 
L 167.362332 106.72266 
L 167.284971 105.296187 
L 167.224731 103.862633 
L 167.179975 102.423439 
L 167.149008 100.97991 
L 167.130281 99.533196 
L 167.122459 98.084284 
L 167.124503 96.633985 
L 167.135817 95.182933 
L 167.156295 93.731603 
L 167.188255 92.280371 
" clip-path="url(#p2d42f3fc26)" style="fill: none; stroke: #ff0000; stroke-width: 0.25; stroke-linecap: square"/>
   </g>
   <g id="line2d_33">
    <path d="M 154.335693 123.146612 
L 153.985766 124.71639 
L 153.59408 126.28918 
L 153.133885 127.858643 
L 152.604164 129.423521 
L 152.018206 130.987483 
L 151.423918 132.568078 
L 150.879172 134.184438 
L 150.453698 135.849934 
L 150.206234 137.558382 
L 150.18554 139.284385 
L 150.430946 140.985079 
L 150.838325 142.639619 
L 151.391171 144.231642 
L 152.001516 145.78068 
L 152.530101 147.338623 
L 152.976084 148.903447 
L 153.341996 150.47265 
L 153.626884 152.045109 
L 153.826849 153.620222 
L 153.980775 155.192706 
L 154.115295 156.761254 
L 154.26044 158.324852 
L 154.437002 159.882446 
L 154.623088 161.437122 
L 154.798079 162.991997 
L 154.955376 164.548176 
L 155.097895 166.105528 
L 155.230148 167.663729 
L 155.356833 169.22242 
L 155.482599 170.781213 
" clip-path="url(#p2d42f3fc26)" style="fill: none; stroke: #ff0000; stroke-width: 0.25; stroke-linecap: square"/>
   </g>
   <g id="line2d_34">
    <path d="M 147.359712 144.380238 
L 148.902822 144.87196 
L 150.442746 145.415044 
L 151.97151 146.031233 
L 153.498035 146.696572 
L 155.059488 147.323548 
L 156.684448 147.817599 
L 158.373769 148.086006 
L 160.090396 148.029012 
L 161.79277 147.793213 
L 163.460141 147.398584 
L 165.072524 146.851143 
L 166.62425 146.18592 
L 168.191996 145.60469 
L 169.769721 145.103002 
L 171.354527 144.681671 
L 172.944341 144.343506 
L 174.536962 144.090644 
L 176.129965 143.922885 
L 177.721269 143.83961 
L 179.307553 143.78538 
L 180.889467 143.739749 
L 182.467656 143.680654 
L 184.042297 143.594223 
L 185.615663 143.511802 
L 187.189166 143.452321 
L 188.76314 143.427232 
L 190.33715 143.436387 
L 191.910994 143.465543 
L 193.485202 143.473483 
L 195.059233 143.44444 
" clip-path="url(#p2d42f3fc26)" style="fill: none; stroke: #ff0000; stroke-width: 0.25; stroke-linecap: square"/>
   </g>
   <g id="line2d_35">
    <path d="M 167.000387 192.800321 
L 167.001522 191.144554 
L 167.003164 189.487346 
L 167.006281 187.829257 
L 167.011318 186.170854 
L 167.018785 184.512719 
L 167.02926 182.855444 
L 167.043376 181.199646 
L 167.061814 179.545963 
L 167.085278 177.895058 
L 167.114471 176.247625 
L 167.15005 174.604383 
L 167.192582 172.966077 
L 167.242471 171.333471 
L 167.299885 169.707333 
L 167.364657 168.088425 
L 167.436171 166.477472 
L 167.513234 164.875143 
L 167.593925 163.282008 
L 167.675426 161.698515 
L 167.7261 160.123815 
L 167.726606 158.558784 
L 167.694456 157.004768 
L 167.631941 155.462416 
L 167.548853 153.931452 
L 167.452535 152.41092 
L 167.353588 150.898996 
L 167.255101 149.393765 
L 167.156202 147.893602 
L 167.055551 146.396879 
L 166.957398 144.901486 
" clip-path="url(#p2d42f3fc26)" style="fill: none; stroke: #ff0000; stroke-width: 0.25; stroke-linecap: square"/>
   </g>
   <g id="line2d_36">
    <path d="M 217.105444 131.018821 
L 215.449071 131.020353 
L 213.790633 131.021316 
L 212.130898 131.021373 
L 210.470642 131.020123 
L 208.810655 131.017081 
L 207.151745 131.011676 
L 205.494741 131.003243 
L 203.8405 130.991031 
L 202.189913 130.974201 
L 200.543903 130.951847 
L 198.90343 130.923012 
L 197.26949 130.886721 
L 195.643111 130.842026 
L 194.025342 130.788059 
L 192.417241 130.724104 
L 190.819852 130.649686 
L 189.234173 130.564671 
L 187.661116 130.469389 
L 186.101457 130.364777 
L 184.553365 130.292968 
L 183.017775 130.266318 
L 181.496148 130.261052 
L 179.98882 130.278976 
L 178.495248 130.296577 
L 177.014402 130.303318 
L 175.544973 130.283705 
L 174.085459 130.233144 
L 172.63447 130.148413 
L 171.19062 130.026642 
L 169.748245 129.908245 
" clip-path="url(#p2d42f3fc26)" style="fill: none; stroke: #ff0000; stroke-width: 0.25; stroke-linecap: square"/>
   </g>
   <g id="line2d_37">
    <path d="M 155.327079 81.336527 
L 155.316111 83.009197 
L 155.302966 84.682096 
L 155.28374 86.35507 
L 155.256973 88.02797 
L 155.221091 89.700625 
L 155.174443 91.372839 
L 155.11535 93.044388 
L 155.042194 94.715013 
L 154.953534 96.384426 
L 154.848256 98.052316 
L 154.725784 99.718379 
L 154.586326 101.382352 
L 154.43119 103.044074 
L 154.263153 104.703556 
L 154.135866 106.365541 
L 154.094279 108.030431 
L 154.137972 109.6934 
L 154.221673 111.35248 
L 154.341708 113.006482 
L 154.474948 114.65635 
L 154.610645 116.302757 
L 154.733853 117.946916 
L 154.843284 119.588961 
L 154.938577 121.229062 
L 155.020116 122.867473 
L 155.088366 124.504594 
L 155.143268 126.140786 
L 155.182083 127.776425 
L 155.199736 129.41179 
L 155.266673 131.045585 
" clip-path="url(#p2d42f3fc26)" style="fill: none; stroke: #ff0000; stroke-width: 0.25; stroke-linecap: square"/>
   </g>
   <g id="line2d_38">
    <path d="M 99.594953 142.697623 
L 100.979417 142.697133 
L 102.363849 142.696816 
L 103.748269 142.697034 
L 105.132693 142.697951 
L 106.51714 142.699764 
L 107.901629 142.702701 
L 109.286177 142.707032 
L 110.670803 142.713061 
L 112.055523 142.721131 
L 113.440355 142.73162 
L 114.825312 142.744938 
L 116.210408 142.761518 
L 117.595652 142.781809 
L 118.98105 142.80626 
L 120.366604 142.835296 
L 121.752312 142.8693 
L 123.138168 142.908572 
L 124.524162 142.95329 
L 125.910285 143.00346 
L 127.296531 143.058849 
L 128.682902 143.118914 
L 130.069411 143.182712 
L 131.456093 143.248803 
L 132.843801 143.295421 
L 134.232232 143.319796 
L 135.620933 143.308605 
L 137.008856 143.261911 
L 138.396163 143.200788 
L 139.782962 143.131234 
L 141.169974 143.067233 
" clip-path="url(#p2d42f3fc26)" style="fill: none; stroke: #ff0000; stroke-width: 0.25; stroke-linecap: square"/>
   </g>
   <g id="line2d_39">
    <path d="M 167.016507 238.185712 
L 167.016507 236.635374 
L 167.016507 235.085035 
L 167.016507 233.534697 
L 167.016507 231.984359 
L 167.016507 230.43402 
L 167.016507 228.883682 
L 167.016507 227.333343 
L 167.016507 225.783005 
L 167.016507 224.232666 
L 167.016507 222.682328 
L 167.016507 221.13199 
L 167.016507 219.581651 
L 167.016507 218.031313 
L 167.016507 216.480974 
L 167.016507 214.930636 
L 167.016507 213.380298 
L 167.016507 211.829959 
L 167.016507 210.279621 
L 167.016507 208.729282 
L 167.016507 207.178944 
L 167.016507 205.628606 
L 167.016507 204.078267 
L 167.016507 202.527929 
L 167.016507 200.97759 
L 167.016507 199.427252 
L 167.016507 197.876914 
L 167.016507 196.326575 
L 167.016507 194.776237 
L 167.016507 193.225898 
L 167.016507 191.67556 
" clip-path="url(#p2d42f3fc26)" style="fill: none; stroke: #ff0000; stroke-width: 0.25; stroke-linecap: square"/>
   </g>
   <g id="line2d_40">
    <path d="M 253.861328 130.999292 
L 251.899882 130.999987 
L 249.938483 131.000695 
L 247.977131 131.001686 
L 246.015828 131.00301 
L 244.054577 131.004716 
L 242.09338 131.006847 
L 240.13224 131.009436 
L 238.171161 131.012493 
L 236.210145 131.016 
L 234.249197 131.019893 
L 232.28832 131.024049 
L 230.327516 131.028265 
L 228.366789 131.032236 
L 226.406139 131.03553 
L 224.445569 131.037559 
L 222.48508 131.037555 
L 220.524674 131.034536 
L 218.564357 131.027288 
L 216.604142 131.014345 
L 214.644056 130.993983 
L 212.684144 130.964232 
L 210.72448 130.922916 
L 208.765179 130.867718 
L 206.806397 130.796303 
L 204.848341 130.706493 
L 202.89125 130.596511 
L 200.935367 130.465329 
L 198.979705 130.328955 
L 197.021338 130.236984 
L 195.061389 130.186413 
" clip-path="url(#p2d42f3fc26)" style="fill: none; stroke: #ff0000; stroke-width: 0.25; stroke-linecap: square"/>
   </g>
   <g id="line2d_41">
    <path d="M 155.304986 35.524725 
L 155.305592 37.075104 
L 155.30619 38.625585 
L 155.30696 40.176141 
L 155.307923 41.726746 
L 155.309101 43.277373 
L 155.310516 44.827995 
L 155.312183 46.378584 
L 155.314113 47.929113 
L 155.316309 49.479552 
L 155.318758 51.029872 
L 155.321431 52.580041 
L 155.324276 54.130029 
L 155.327211 55.679803 
L 155.330117 57.229331 
L 155.33283 58.778578 
L 155.335133 60.327513 
L 155.336742 61.876103 
L 155.337301 63.424316 
L 155.336367 64.972121 
L 155.333405 66.519491 
L 155.327771 68.066399 
L 155.318714 69.612821 
L 155.305363 71.158733 
L 155.286732 72.704114 
L 155.261724 74.248942 
L 155.229145 75.793194 
L 155.18773 77.336842 
L 155.136176 78.879856 
L 155.073204 80.422203 
L 154.997631 81.963849 
" clip-path="url(#p2d42f3fc26)" style="fill: none; stroke: #ff0000; stroke-width: 0.25; stroke-linecap: square"/>
   </g>
   <g id="line2d_42">
    <path d="M 59.830194 142.711039 
L 61.380532 142.711039 
L 62.930871 142.711039 
L 64.481209 142.711039 
L 66.031548 142.711039 
L 67.581886 142.711039 
L 69.132225 142.711039 
L 70.682563 142.711039 
L 72.232901 142.711039 
L 73.78324 142.711039 
L 75.333578 142.711039 
L 76.883917 142.711039 
L 78.434255 142.711039 
L 79.984593 142.711039 
L 81.534932 142.711039 
L 83.08527 142.711039 
L 84.635609 142.711039 
L 86.185947 142.711039 
L 87.736285 142.711039 
L 89.286624 142.711039 
L 90.836962 142.711039 
L 92.387301 142.711039 
L 93.937639 142.711039 
L 95.487977 142.711039 
L 97.038316 142.711039 
L 98.588654 142.711039 
L 100.138993 142.711039 
L 101.689331 142.711039 
L 103.23967 142.711039 
L 104.790008 142.711039 
L 106.340346 142.711039 
" clip-path="url(#p2d42f3fc26)" style="fill: none; stroke: #ff0000; stroke-width: 0.25; stroke-linecap: square"/>
   </g>
   <g id="patch_15">
    <path d="M 28.104688 269.911219 
L 28.104688 3.799219 
" style="fill: none; stroke: #000000; stroke-width: 0.8; stroke-linejoin: miter; stroke-linecap: square"/>
   </g>
   <g id="patch_16">
    <path d="M 294.216687 269.911219 
L 294.216687 3.799219 
" style="fill: none; stroke: #000000; stroke-width: 0.8; stroke-linejoin: miter; stroke-linecap: square"/>
   </g>
   <g id="patch_17">
    <path d="M 28.104688 269.911219 
L 294.216687 269.911219 
" style="fill: none; stroke: #000000; stroke-width: 0.8; stroke-linejoin: miter; stroke-linecap: square"/>
   </g>
   <g id="patch_18">
    <path d="M 28.104688 3.799219 
L 294.216687 3.799219 
" style="fill: none; stroke: #000000; stroke-width: 0.8; stroke-linejoin: miter; stroke-linecap: square"/>
   </g>
   <g id="text_19">
    <!-- Time: 2.1 s -->
    <g transform="translate(198.9952 17.104819) scale(0.1 -0.1)">
     <defs>
      <path id="DejaVuSans-54" d="M -19 4666 
L 3928 4666 
L 3928 4134 
L 2272 4134 
L 2272 0 
L 1638 0 
L 1638 4134 
L -19 4134 
L -19 4666 
z
" transform="scale(0.015625)"/>
      <path id="DejaVuSans-69" d="M 603 3500 
L 1178 3500 
L 1178 0 
L 603 0 
L 603 3500 
z
M 603 4863 
L 1178 4863 
L 1178 4134 
L 603 4134 
L 603 4863 
z
" transform="scale(0.015625)"/>
      <path id="DejaVuSans-6d" d="M 3328 2828 
Q 3544 3216 3844 3400 
Q 4144 3584 4550 3584 
Q 5097 3584 5394 3201 
Q 5691 2819 5691 2113 
L 5691 0 
L 5113 0 
L 5113 2094 
Q 5113 2597 4934 2840 
Q 4756 3084 4391 3084 
Q 3944 3084 3684 2787 
Q 3425 2491 3425 1978 
L 3425 0 
L 2847 0 
L 2847 2094 
Q 2847 2600 2669 2842 
Q 2491 3084 2119 3084 
Q 1678 3084 1418 2786 
Q 1159 2488 1159 1978 
L 1159 0 
L 581 0 
L 581 3500 
L 1159 3500 
L 1159 2956 
Q 1356 3278 1631 3431 
Q 1906 3584 2284 3584 
Q 2666 3584 2933 3390 
Q 3200 3197 3328 2828 
z
" transform="scale(0.015625)"/>
      <path id="DejaVuSans-65" d="M 3597 1894 
L 3597 1613 
L 953 1613 
Q 991 1019 1311 708 
Q 1631 397 2203 397 
Q 2534 397 2845 478 
Q 3156 559 3463 722 
L 3463 178 
Q 3153 47 2828 -22 
Q 2503 -91 2169 -91 
Q 1331 -91 842 396 
Q 353 884 353 1716 
Q 353 2575 817 3079 
Q 1281 3584 2069 3584 
Q 2775 3584 3186 3129 
Q 3597 2675 3597 1894 
z
M 3022 2063 
Q 3016 2534 2758 2815 
Q 2500 3097 2075 3097 
Q 1594 3097 1305 2825 
Q 1016 2553 972 2059 
L 3022 2063 
z
" transform="scale(0.015625)"/>
      <path id="DejaVuSans-3a" d="M 750 794 
L 1409 794 
L 1409 0 
L 750 0 
L 750 794 
z
M 750 3309 
L 1409 3309 
L 1409 2516 
L 750 2516 
L 750 3309 
z
" transform="scale(0.015625)"/>
      <path id="DejaVuSans-20" transform="scale(0.015625)"/>
      <path id="DejaVuSans-2e" d="M 684 794 
L 1344 794 
L 1344 0 
L 684 0 
L 684 794 
z
" transform="scale(0.015625)"/>
      <path id="DejaVuSans-73" d="M 2834 3397 
L 2834 2853 
Q 2591 2978 2328 3040 
Q 2066 3103 1784 3103 
Q 1356 3103 1142 2972 
Q 928 2841 928 2578 
Q 928 2378 1081 2264 
Q 1234 2150 1697 2047 
L 1894 2003 
Q 2506 1872 2764 1633 
Q 3022 1394 3022 966 
Q 3022 478 2636 193 
Q 2250 -91 1575 -91 
Q 1294 -91 989 -36 
Q 684 19 347 128 
L 347 722 
Q 666 556 975 473 
Q 1284 391 1588 391 
Q 1994 391 2212 530 
Q 2431 669 2431 922 
Q 2431 1156 2273 1281 
Q 2116 1406 1581 1522 
L 1381 1569 
Q 847 1681 609 1914 
Q 372 2147 372 2553 
Q 372 3047 722 3315 
Q 1072 3584 1716 3584 
Q 2034 3584 2315 3537 
Q 2597 3491 2834 3397 
z
" transform="scale(0.015625)"/>
     </defs>
     <use xlink:href="#DejaVuSans-54"/>
     <use xlink:href="#DejaVuSans-69" x="57.958984"/>
     <use xlink:href="#DejaVuSans-6d" x="85.742188"/>
     <use xlink:href="#DejaVuSans-65" x="183.154297"/>
     <use xlink:href="#DejaVuSans-3a" x="244.677734"/>
     <use xlink:href="#DejaVuSans-20" x="278.369141"/>
     <use xlink:href="#DejaVuSans-32" x="310.15625"/>
     <use xlink:href="#DejaVuSans-2e" x="373.779297"/>
     <use xlink:href="#DejaVuSans-31" x="405.566406"/>
     <use xlink:href="#DejaVuSans-20" x="469.189453"/>
     <use xlink:href="#DejaVuSans-73" x="500.976562"/>
    </g>
   </g>
  </g>
 </g>
 <defs>
  <clipPath id="p2d42f3fc26">
   <rect x="28.104688" y="3.799219" width="266.112" height="266.112"/>
  </clipPath>
 </defs>
</svg>
