<?xml version="1.0" encoding="utf-8" standalone="no"?>
<!DOCTYPE svg PUBLIC "-//W3C//DTD SVG 1.1//EN"
  "http://www.w3.org/Graphics/SVG/1.1/DTD/svg11.dtd">
<svg xmlns:xlink="http://www.w3.org/1999/xlink" width="300.579188pt" height="286.589344pt" viewBox="0 0 300.579188 286.589344" xmlns="http://www.w3.org/2000/svg" version="1.1">
 <metadata>
  <rdf:RDF xmlns:dc="http://purl.org/dc/elements/1.1/" xmlns:cc="http://creativecommons.org/ns#" xmlns:rdf="http://www.w3.org/1999/02/22-rdf-syntax-ns#">
   <cc:Work>
    <dc:type rdf:resource="http://purl.org/dc/dcmitype/StillImage"/>
    <dc:date>2024-02-26T10:13:01.874565</dc:date>
    <dc:format>image/svg+xml</dc:format>
    <dc:creator>
     <cc:Agent>
      <dc:title>Matplotlib v3.8.2, https://matplotlib.org/</dc:title>
     </cc:Agent>
    </dc:creator>
   </cc:Work>
  </rdf:RDF>
 </metadata>
 <defs>
  <style type="text/css">*{stroke-linejoin: round; stroke-linecap: butt}</style>
 </defs>
 <g id="figure_1">
  <g id="patch_1">
   <path d="M 0 286.589344 
L 300.579188 286.589344 
L 300.579188 0 
L 0 0 
z
" style="fill: #ffffff"/>
  </g>
  <g id="axes_1">
   <g id="patch_2">
    <path d="M 28.104688 269.911219 
L 294.216687 269.911219 
L 294.216687 3.799219 
L 28.104688 3.799219 
z
" style="fill: #ffffff"/>
   </g>
   <g id="patch_3">
    <path d="M 170.504891 161.761126 
L 171.394356 150.152753 
L 165.756003 149.720727 
L 164.866539 161.329101 
z
" clip-path="url(#p486e4fdaac)" style="fill: #00008b"/>
   </g>
   <g id="patch_4">
    <path d="M 188.590206 128.762525 
L 176.949923 128.540505 
L 176.842084 134.194357 
L 188.482367 134.416377 
z
" clip-path="url(#p486e4fdaac)" style="fill: #800000"/>
   </g>
   <g id="patch_5">
    <path d="M 152.565297 110.934771 
L 152.164263 122.570261 
L 157.815788 122.765049 
L 158.216821 111.129558 
z
" clip-path="url(#p486e4fdaac)" style="fill: #006400"/>
   </g>
   <g id="patch_6">
    <path d="M 135.116264 145.536896 
L 146.735312 146.273907 
L 147.093289 140.630369 
L 135.474241 139.893358 
z
" clip-path="url(#p486e4fdaac)" style="fill: #4b0082"/>
   </g>
   <g id="patch_7">
    <path d="M 169.837506 205.231314 
L 169.825324 193.58892 
L 164.170447 193.594837 
L 164.182629 205.23723 
z
" clip-path="url(#p486e4fdaac)" style="fill: #0000ff"/>
   </g>
   <g id="patch_8">
    <path d="M 229.536157 128.178592 
L 217.893764 128.191847 
L 217.900203 133.846724 
L 229.542595 133.833468 
z
" clip-path="url(#p486e4fdaac)" style="fill: #ff0000"/>
   </g>
   <g id="patch_9">
    <path d="M 152.500688 68.832326 
L 152.520947 80.474708 
L 158.175818 80.464868 
L 158.15556 68.822486 
z
" clip-path="url(#p486e4fdaac)" style="fill: #dbdc56"/>
   </g>
   <g id="patch_10">
    <path d="M 88.237584 145.536857 
L 99.879979 145.526801 
L 99.875095 139.871923 
L 88.2327 139.881979 
z
" clip-path="url(#p486e4fdaac)" style="fill: #9400d3"/>
   </g>
   <g id="patch_11">
    <path d="M 169.843947 250.208266 
L 169.843947 238.565866 
L 164.189067 238.565866 
L 164.189067 250.208266 
z
" clip-path="url(#p486e4fdaac)" style="fill: #1e90ff"/>
   </g>
   <g id="patch_12">
    <path d="M 267.52789 128.171959 
L 255.88549 128.171959 
L 255.88549 133.826839 
L 267.52789 133.826839 
z
" clip-path="url(#p486e4fdaac)" style="fill: #ff4500"/>
   </g>
   <g id="patch_13">
    <path d="M 152.477428 23.502172 
L 152.477428 35.144572 
L 158.132308 35.144572 
L 158.132308 23.502172 
z
" clip-path="url(#p486e4fdaac)" style="fill: #7cfc00"/>
   </g>
   <g id="patch_14">
    <path d="M 47.80764 145.538479 
L 59.45004 145.538479 
L 59.45004 139.883599 
L 47.80764 139.883599 
z
" clip-path="url(#p486e4fdaac)" style="fill: #ff00ff"/>
   </g>
   <g id="matplotlib.axis_1">
    <g id="xtick_1">
     <g id="line2d_1">
      <defs>
       <path id="md919148d03" d="M 0 0 
L 0 3.5 
" style="stroke: #000000; stroke-width: 0.8"/>
      </defs>
      <g>
       <use xlink:href="#md919148d03" x="28.104688" y="269.911219" style="stroke: #000000; stroke-width: 0.8"/>
      </g>
     </g>
     <g id="text_1">
      <!-- −40 -->
      <g transform="translate(17.552344 284.509656) scale(0.1 -0.1)">
       <defs>
        <path id="DejaVuSans-2212" d="M 678 2272 
L 4684 2272 
L 4684 1741 
L 678 1741 
L 678 2272 
z
" transform="scale(0.015625)"/>
        <path id="DejaVuSans-34" d="M 2419 4116 
L 825 1625 
L 2419 1625 
L 2419 4116 
z
M 2253 4666 
L 3047 4666 
L 3047 1625 
L 3713 1625 
L 3713 1100 
L 3047 1100 
L 3047 0 
L 2419 0 
L 2419 1100 
L 313 1100 
L 313 1709 
L 2253 4666 
z
" transform="scale(0.015625)"/>
        <path id="DejaVuSans-30" d="M 2034 4250 
Q 1547 4250 1301 3770 
Q 1056 3291 1056 2328 
Q 1056 1369 1301 889 
Q 1547 409 2034 409 
Q 2525 409 2770 889 
Q 3016 1369 3016 2328 
Q 3016 3291 2770 3770 
Q 2525 4250 2034 4250 
z
M 2034 4750 
Q 2819 4750 3233 4129 
Q 3647 3509 3647 2328 
Q 3647 1150 3233 529 
Q 2819 -91 2034 -91 
Q 1250 -91 836 529 
Q 422 1150 422 2328 
Q 422 3509 836 4129 
Q 1250 4750 2034 4750 
z
" transform="scale(0.015625)"/>
       </defs>
       <use xlink:href="#DejaVuSans-2212"/>
       <use xlink:href="#DejaVuSans-34" x="83.789062"/>
       <use xlink:href="#DejaVuSans-30" x="147.412109"/>
      </g>
     </g>
    </g>
    <g id="xtick_2">
     <g id="line2d_2">
      <g>
       <use xlink:href="#md919148d03" x="61.368688" y="269.911219" style="stroke: #000000; stroke-width: 0.8"/>
      </g>
     </g>
     <g id="text_2">
      <!-- −30 -->
      <g transform="translate(50.816344 284.509656) scale(0.1 -0.1)">
       <defs>
        <path id="DejaVuSans-33" d="M 2597 2516 
Q 3050 2419 3304 2112 
Q 3559 1806 3559 1356 
Q 3559 666 3084 287 
Q 2609 -91 1734 -91 
Q 1441 -91 1130 -33 
Q 819 25 488 141 
L 488 750 
Q 750 597 1062 519 
Q 1375 441 1716 441 
Q 2309 441 2620 675 
Q 2931 909 2931 1356 
Q 2931 1769 2642 2001 
Q 2353 2234 1838 2234 
L 1294 2234 
L 1294 2753 
L 1863 2753 
Q 2328 2753 2575 2939 
Q 2822 3125 2822 3475 
Q 2822 3834 2567 4026 
Q 2313 4219 1838 4219 
Q 1578 4219 1281 4162 
Q 984 4106 628 3988 
L 628 4550 
Q 988 4650 1302 4700 
Q 1616 4750 1894 4750 
Q 2613 4750 3031 4423 
Q 3450 4097 3450 3541 
Q 3450 3153 3228 2886 
Q 3006 2619 2597 2516 
z
" transform="scale(0.015625)"/>
       </defs>
       <use xlink:href="#DejaVuSans-2212"/>
       <use xlink:href="#DejaVuSans-33" x="83.789062"/>
       <use xlink:href="#DejaVuSans-30" x="147.412109"/>
      </g>
     </g>
    </g>
    <g id="xtick_3">
     <g id="line2d_3">
      <g>
       <use xlink:href="#md919148d03" x="94.632688" y="269.911219" style="stroke: #000000; stroke-width: 0.8"/>
      </g>
     </g>
     <g id="text_3">
      <!-- −20 -->
      <g transform="translate(84.080344 284.509656) scale(0.1 -0.1)">
       <defs>
        <path id="DejaVuSans-32" d="M 1228 531 
L 3431 531 
L 3431 0 
L 469 0 
L 469 531 
Q 828 903 1448 1529 
Q 2069 2156 2228 2338 
Q 2531 2678 2651 2914 
Q 2772 3150 2772 3378 
Q 2772 3750 2511 3984 
Q 2250 4219 1831 4219 
Q 1534 4219 1204 4116 
Q 875 4013 500 3803 
L 500 4441 
Q 881 4594 1212 4672 
Q 1544 4750 1819 4750 
Q 2544 4750 2975 4387 
Q 3406 4025 3406 3419 
Q 3406 3131 3298 2873 
Q 3191 2616 2906 2266 
Q 2828 2175 2409 1742 
Q 1991 1309 1228 531 
z
" transform="scale(0.015625)"/>
       </defs>
       <use xlink:href="#DejaVuSans-2212"/>
       <use xlink:href="#DejaVuSans-32" x="83.789062"/>
       <use xlink:href="#DejaVuSans-30" x="147.412109"/>
      </g>
     </g>
    </g>
    <g id="xtick_4">
     <g id="line2d_4">
      <g>
       <use xlink:href="#md919148d03" x="127.896687" y="269.911219" style="stroke: #000000; stroke-width: 0.8"/>
      </g>
     </g>
     <g id="text_4">
      <!-- −10 -->
      <g transform="translate(117.344344 284.509656) scale(0.1 -0.1)">
       <defs>
        <path id="DejaVuSans-31" d="M 794 531 
L 1825 531 
L 1825 4091 
L 703 3866 
L 703 4441 
L 1819 4666 
L 2450 4666 
L 2450 531 
L 3481 531 
L 3481 0 
L 794 0 
L 794 531 
z
" transform="scale(0.015625)"/>
       </defs>
       <use xlink:href="#DejaVuSans-2212"/>
       <use xlink:href="#DejaVuSans-31" x="83.789062"/>
       <use xlink:href="#DejaVuSans-30" x="147.412109"/>
      </g>
     </g>
    </g>
    <g id="xtick_5">
     <g id="line2d_5">
      <g>
       <use xlink:href="#md919148d03" x="161.160687" y="269.911219" style="stroke: #000000; stroke-width: 0.8"/>
      </g>
     </g>
     <g id="text_5">
      <!-- 0 -->
      <g transform="translate(157.979437 284.509656) scale(0.1 -0.1)">
       <use xlink:href="#DejaVuSans-30"/>
      </g>
     </g>
    </g>
    <g id="xtick_6">
     <g id="line2d_6">
      <g>
       <use xlink:href="#md919148d03" x="194.424688" y="269.911219" style="stroke: #000000; stroke-width: 0.8"/>
      </g>
     </g>
     <g id="text_6">
      <!-- 10 -->
      <g transform="translate(188.062187 284.509656) scale(0.1 -0.1)">
       <use xlink:href="#DejaVuSans-31"/>
       <use xlink:href="#DejaVuSans-30" x="63.623047"/>
      </g>
     </g>
    </g>
    <g id="xtick_7">
     <g id="line2d_7">
      <g>
       <use xlink:href="#md919148d03" x="227.688687" y="269.911219" style="stroke: #000000; stroke-width: 0.8"/>
      </g>
     </g>
     <g id="text_7">
      <!-- 20 -->
      <g transform="translate(221.326187 284.509656) scale(0.1 -0.1)">
       <use xlink:href="#DejaVuSans-32"/>
       <use xlink:href="#DejaVuSans-30" x="63.623047"/>
      </g>
     </g>
    </g>
    <g id="xtick_8">
     <g id="line2d_8">
      <g>
       <use xlink:href="#md919148d03" x="260.952687" y="269.911219" style="stroke: #000000; stroke-width: 0.8"/>
      </g>
     </g>
     <g id="text_8">
      <!-- 30 -->
      <g transform="translate(254.590187 284.509656) scale(0.1 -0.1)">
       <use xlink:href="#DejaVuSans-33"/>
       <use xlink:href="#DejaVuSans-30" x="63.623047"/>
      </g>
     </g>
    </g>
    <g id="xtick_9">
     <g id="line2d_9">
      <g>
       <use xlink:href="#md919148d03" x="294.216687" y="269.911219" style="stroke: #000000; stroke-width: 0.8"/>
      </g>
     </g>
     <g id="text_9">
      <!-- 40 -->
      <g transform="translate(287.854187 284.509656) scale(0.1 -0.1)">
       <use xlink:href="#DejaVuSans-34"/>
       <use xlink:href="#DejaVuSans-30" x="63.623047"/>
      </g>
     </g>
    </g>
   </g>
   <g id="matplotlib.axis_2">
    <g id="ytick_1">
     <g id="line2d_10">
      <defs>
       <path id="m698451699b" d="M 0 0 
L -3.5 0 
" style="stroke: #000000; stroke-width: 0.8"/>
      </defs>
      <g>
       <use xlink:href="#m698451699b" x="28.104688" y="269.911219" style="stroke: #000000; stroke-width: 0.8"/>
      </g>
     </g>
     <g id="text_10">
      <!-- −40 -->
      <g transform="translate(0 273.710437) scale(0.1 -0.1)">
       <use xlink:href="#DejaVuSans-2212"/>
       <use xlink:href="#DejaVuSans-34" x="83.789062"/>
       <use xlink:href="#DejaVuSans-30" x="147.412109"/>
      </g>
     </g>
    </g>
    <g id="ytick_2">
     <g id="line2d_11">
      <g>
       <use xlink:href="#m698451699b" x="28.104688" y="236.647219" style="stroke: #000000; stroke-width: 0.8"/>
      </g>
     </g>
     <g id="text_11">
      <!-- −30 -->
      <g transform="translate(0 240.446437) scale(0.1 -0.1)">
       <use xlink:href="#DejaVuSans-2212"/>
       <use xlink:href="#DejaVuSans-33" x="83.789062"/>
       <use xlink:href="#DejaVuSans-30" x="147.412109"/>
      </g>
     </g>
    </g>
    <g id="ytick_3">
     <g id="line2d_12">
      <g>
       <use xlink:href="#m698451699b" x="28.104688" y="203.383219" style="stroke: #000000; stroke-width: 0.8"/>
      </g>
     </g>
     <g id="text_12">
      <!-- −20 -->
      <g transform="translate(0 207.182437) scale(0.1 -0.1)">
       <use xlink:href="#DejaVuSans-2212"/>
       <use xlink:href="#DejaVuSans-32" x="83.789062"/>
       <use xlink:href="#DejaVuSans-30" x="147.412109"/>
      </g>
     </g>
    </g>
    <g id="ytick_4">
     <g id="line2d_13">
      <g>
       <use xlink:href="#m698451699b" x="28.104688" y="170.119219" style="stroke: #000000; stroke-width: 0.8"/>
      </g>
     </g>
     <g id="text_13">
      <!-- −10 -->
      <g transform="translate(0 173.918437) scale(0.1 -0.1)">
       <use xlink:href="#DejaVuSans-2212"/>
       <use xlink:href="#DejaVuSans-31" x="83.789062"/>
       <use xlink:href="#DejaVuSans-30" x="147.412109"/>
      </g>
     </g>
    </g>
    <g id="ytick_5">
     <g id="line2d_14">
      <g>
       <use xlink:href="#m698451699b" x="28.104688" y="136.855219" style="stroke: #000000; stroke-width: 0.8"/>
      </g>
     </g>
     <g id="text_14">
      <!-- 0 -->
      <g transform="translate(14.742188 140.654437) scale(0.1 -0.1)">
       <use xlink:href="#DejaVuSans-30"/>
      </g>
     </g>
    </g>
    <g id="ytick_6">
     <g id="line2d_15">
      <g>
       <use xlink:href="#m698451699b" x="28.104688" y="103.591219" style="stroke: #000000; stroke-width: 0.8"/>
      </g>
     </g>
     <g id="text_15">
      <!-- 10 -->
      <g transform="translate(8.379688 107.390437) scale(0.1 -0.1)">
       <use xlink:href="#DejaVuSans-31"/>
       <use xlink:href="#DejaVuSans-30" x="63.623047"/>
      </g>
     </g>
    </g>
    <g id="ytick_7">
     <g id="line2d_16">
      <g>
       <use xlink:href="#m698451699b" x="28.104688" y="70.327219" style="stroke: #000000; stroke-width: 0.8"/>
      </g>
     </g>
     <g id="text_16">
      <!-- 20 -->
      <g transform="translate(8.379688 74.126437) scale(0.1 -0.1)">
       <use xlink:href="#DejaVuSans-32"/>
       <use xlink:href="#DejaVuSans-30" x="63.623047"/>
      </g>
     </g>
    </g>
    <g id="ytick_8">
     <g id="line2d_17">
      <g>
       <use xlink:href="#m698451699b" x="28.104688" y="37.063219" style="stroke: #000000; stroke-width: 0.8"/>
      </g>
     </g>
     <g id="text_17">
      <!-- 30 -->
      <g transform="translate(8.379688 40.862437) scale(0.1 -0.1)">
       <use xlink:href="#DejaVuSans-33"/>
       <use xlink:href="#DejaVuSans-30" x="63.623047"/>
      </g>
     </g>
    </g>
    <g id="ytick_9">
     <g id="line2d_18">
      <g>
       <use xlink:href="#m698451699b" x="28.104688" y="3.799219" style="stroke: #000000; stroke-width: 0.8"/>
      </g>
     </g>
     <g id="text_18">
      <!-- 40 -->
      <g transform="translate(8.379688 7.598437) scale(0.1 -0.1)">
       <use xlink:href="#DejaVuSans-34"/>
       <use xlink:href="#DejaVuSans-30" x="63.623047"/>
      </g>
     </g>
    </g>
   </g>
   <g id="line2d_19">
    <path d="M 175.297888 250.784419 
L 175.297888 150.992419 
" clip-path="url(#p486e4fdaac)" style="fill: none; stroke: #000000; stroke-width: 0.25; stroke-linecap: square"/>
   </g>
   <g id="line2d_20">
    <path d="M 175.297888 150.992419 
L 275.089887 150.992419 
" clip-path="url(#p486e4fdaac)" style="fill: none; stroke: #000000; stroke-width: 0.25; stroke-linecap: square"/>
   </g>
   <g id="line2d_21">
    <path d="M 275.089887 122.718019 
L 175.297888 122.718019 
" clip-path="url(#p486e4fdaac)" style="fill: none; stroke: #000000; stroke-width: 0.25; stroke-linecap: square"/>
   </g>
   <g id="line2d_22">
    <path d="M 175.297888 122.718019 
L 175.297888 22.926019 
" clip-path="url(#p486e4fdaac)" style="fill: none; stroke: #000000; stroke-width: 0.25; stroke-linecap: square"/>
   </g>
   <g id="line2d_23">
    <path d="M 147.023487 22.926019 
L 147.023487 122.718019 
" clip-path="url(#p486e4fdaac)" style="fill: none; stroke: #000000; stroke-width: 0.25; stroke-linecap: square"/>
   </g>
   <g id="line2d_24">
    <path d="M 147.023487 122.718019 
L 47.231488 122.718019 
" clip-path="url(#p486e4fdaac)" style="fill: none; stroke: #000000; stroke-width: 0.25; stroke-linecap: square"/>
   </g>
   <g id="line2d_25">
    <path d="M 47.231488 150.992419 
L 147.023487 150.992419 
" clip-path="url(#p486e4fdaac)" style="fill: none; stroke: #000000; stroke-width: 0.25; stroke-linecap: square"/>
   </g>
   <g id="line2d_26">
    <path d="M 147.023487 150.992419 
L 147.023487 250.784419 
" clip-path="url(#p486e4fdaac)" style="fill: none; stroke: #000000; stroke-width: 0.25; stroke-linecap: square"/>
   </g>
   <g id="line2d_27">
    <path d="M 175.297888 136.855219 
L 275.089887 136.855219 
" clip-path="url(#p486e4fdaac)" style="fill: none; stroke-dasharray: 0.925,0.4; stroke-dashoffset: 0; stroke: #000000; stroke-width: 0.25"/>
   </g>
   <g id="line2d_28">
    <path d="M 161.160687 122.718019 
L 161.160687 22.926019 
" clip-path="url(#p486e4fdaac)" style="fill: none; stroke-dasharray: 0.925,0.4; stroke-dashoffset: 0; stroke: #000000; stroke-width: 0.25"/>
   </g>
   <g id="line2d_29">
    <path d="M 147.023487 136.855219 
L 47.231488 136.855219 
" clip-path="url(#p486e4fdaac)" style="fill: none; stroke-dasharray: 0.925,0.4; stroke-dashoffset: 0; stroke: #000000; stroke-width: 0.25"/>
   </g>
   <g id="line2d_30">
    <path d="M 161.160687 150.992419 
L 161.160687 250.784419 
" clip-path="url(#p486e4fdaac)" style="fill: none; stroke-dasharray: 0.925,0.4; stroke-dashoffset: 0; stroke: #000000; stroke-width: 0.25"/>
   </g>
   <g id="line2d_31">
    <path d="M 167.976389 157.447135 
L 168.130447 155.740927 
L 168.282172 154.024379 
L 168.421417 152.295734 
L 168.532756 150.55324 
L 168.595049 148.79583 
L 168.582355 147.024517 
L 168.463265 145.244235 
L 168.198154 143.467035 
L 167.728117 141.720379 
L 167.047724 140.032716 
L 166.21169 138.406345 
L 165.275402 136.827867 
L 164.183112 135.347569 
L 162.899506 134.026432 
L 161.488626 132.840578 
L 159.964874 131.802439 
L 158.343513 130.923082 
L 156.641759 130.212263 
L 154.878431 129.677677 
L 153.073002 129.32461 
L 151.245022 129.155578 
L 149.41359 129.170474 
L 147.593564 129.333235 
L 145.776104 129.482889 
L 143.960599 129.618654 
L 142.146009 129.734069 
L 140.331459 129.822018 
L 138.516778 129.88558 
L 136.703093 129.964668 
L 134.890485 130.063844 
" clip-path="url(#p486e4fdaac)" style="fill: none; stroke: #ff0000; stroke-width: 0.25; stroke-linecap: square"/>
   </g>
   <g id="line2d_32">
    <path d="M 184.157819 131.598632 
L 182.716145 131.478441 
L 181.29671 131.291372 
L 179.907509 131.013562 
L 178.561611 130.621079 
L 177.28309 130.081319 
L 176.089991 129.39876 
L 174.961585 128.635101 
L 173.901932 127.795932 
L 172.914651 126.887025 
L 172.00321 125.914074 
L 171.170463 124.882992 
L 170.418679 123.799431 
L 169.749693 122.66842 
L 169.164957 121.4943 
L 168.665813 120.280728 
L 168.254137 119.03102 
L 167.932566 117.749136 
L 167.703763 116.440059 
L 167.570339 115.109694 
L 167.535128 113.764787 
L 167.591498 112.412744 
L 167.584794 111.05259 
L 167.534084 109.687459 
L 167.442718 108.319714 
L 167.33702 106.9494 
L 167.232571 105.576376 
L 167.135144 104.201113 
L 167.043094 102.824459 
L 166.953876 101.447113 
L 166.866406 100.06949 
" clip-path="url(#p486e4fdaac)" style="fill: none; stroke: #ff0000; stroke-width: 0.25; stroke-linecap: square"/>
   </g>
   <g id="line2d_33">
    <path d="M 155.299035 115.272078 
L 155.190542 116.84991 
L 155.068092 118.428132 
L 154.904163 120.005638 
L 154.689908 121.58218 
L 154.415908 123.15697 
L 154.080184 124.730197 
L 153.677078 126.300622 
L 153.202983 127.86663 
L 152.657746 129.427013 
L 152.05674 130.986231 
L 151.449456 132.562902 
L 150.894017 134.176569 
L 150.459754 135.840541 
L 150.205023 137.548346 
L 150.178095 139.274265 
L 150.417815 140.975234 
L 150.816944 142.630583 
L 151.362467 144.223137 
L 151.967041 145.771609 
L 152.49121 147.327501 
L 152.935697 148.88855 
L 153.304263 150.452336 
L 153.597512 152.017939 
L 153.813035 153.585251 
L 153.991579 155.149043 
L 154.163017 156.707685 
L 154.359004 158.259332 
L 154.603305 159.801376 
L 154.873742 161.337435 
L 155.147538 162.872177 
" clip-path="url(#p486e4fdaac)" style="fill: none; stroke: #ff0000; stroke-width: 0.25; stroke-linecap: square"/>
   </g>
   <g id="line2d_34">
    <path d="M 139.525746 142.907997 
L 141.104777 143.083633 
L 142.683067 143.283981 
L 144.256871 143.541932 
L 145.824011 143.86787 
L 147.381401 144.271848 
L 148.928786 144.751164 
L 150.464434 145.307357 
L 151.98787 145.937315 
L 153.508509 146.616058 
L 155.064781 147.254935 
L 156.685291 147.760898 
L 158.371222 148.042611 
L 160.086622 148.001385 
L 161.788398 147.777094 
L 163.455925 147.394379 
L 165.069249 146.858931 
L 166.6252 146.212089 
L 168.19571 145.648802 
L 169.774191 145.162211 
L 171.357771 144.751955 
L 172.944459 144.419168 
L 174.53232 144.163762 
L 176.119484 143.982874 
L 177.704801 143.873322 
L 179.285051 143.781737 
L 180.860384 143.682824 
L 182.430328 143.551678 
L 183.992837 143.366616 
L 185.550942 143.155807 
L 187.107748 142.939104 
" clip-path="url(#p486e4fdaac)" style="fill: none; stroke: #ff0000; stroke-width: 0.25; stroke-linecap: square"/>
   </g>
   <g id="line2d_35">
    <path d="M 167.005858 201.064876 
L 167.003976 199.413075 
L 167.00224 197.761365 
L 167.000681 196.109713 
L 166.99944 194.458088 
L 166.998702 192.80646 
L 166.998707 191.154796 
L 166.999754 189.503066 
L 167.00221 187.851236 
L 167.006513 186.199275 
L 167.01318 184.547152 
L 167.022803 182.894837 
L 167.036046 181.242303 
L 167.053642 179.589527 
L 167.076368 177.936491 
L 167.105025 176.283185 
L 167.140394 174.629606 
L 167.183186 172.975763 
L 167.233967 171.321671 
L 167.293064 169.667347 
L 167.360443 168.012808 
L 167.435562 166.358055 
L 167.517191 164.703059 
L 167.603199 163.047748 
L 167.690307 161.39199 
L 167.742211 159.734309 
L 167.738845 158.075504 
L 167.701886 156.416918 
L 167.633667 154.759351 
L 167.545743 153.102827 
L 167.451521 151.446745 
" clip-path="url(#p486e4fdaac)" style="fill: none; stroke: #ff0000; stroke-width: 0.25; stroke-linecap: square"/>
   </g>
   <g id="line2d_36">
    <path d="M 225.370016 131.010469 
L 223.71818 131.012658 
L 222.066467 131.014691 
L 220.414846 131.016589 
L 218.763283 131.018208 
L 217.111747 131.01936 
L 215.460204 131.019797 
L 213.808622 131.019207 
L 212.156969 131.017207 
L 210.505211 131.013331 
L 208.853317 131.00703 
L 207.201256 130.997666 
L 205.549 130.984514 
L 203.896526 130.966769 
L 202.243816 130.943563 
L 200.590861 130.913988 
L 198.937662 130.877131 
L 197.28423 130.832134 
L 195.630586 130.778261 
L 193.97676 130.714999 
L 192.322777 130.64218 
L 190.668649 130.560138 
L 189.014357 130.469896 
L 187.359826 130.373393 
L 185.704908 130.27375 
L 184.047494 130.215336 
L 182.388654 130.214211 
L 180.729826 130.244843 
L 179.072273 130.317984 
L 177.415775 130.41144 
L 175.759767 130.512203 
" clip-path="url(#p486e4fdaac)" style="fill: none; stroke: #ff0000; stroke-width: 0.25; stroke-linecap: square"/>
   </g>
   <g id="line2d_37">
    <path d="M 155.336236 72.977303 
L 155.338253 74.648597 
L 155.339612 76.320158 
L 155.339385 77.991927 
L 155.336928 79.663843 
L 155.33146 81.335847 
L 155.32205 83.007875 
L 155.307613 84.679863 
L 155.286906 86.351735 
L 155.258539 88.023407 
L 155.221 89.694776 
L 155.172689 91.365716 
L 155.111986 93.036077 
L 155.037334 94.705678 
L 154.947365 96.374317 
L 154.84106 98.041779 
L 154.717962 99.70786 
L 154.578436 101.372415 
L 154.42399 103.035411 
L 154.257659 104.697001 
L 154.130177 106.361733 
L 154.087025 108.030283 
L 154.129577 109.698049 
L 154.216371 111.362937 
L 154.343098 113.02373 
L 154.489375 114.68121 
L 154.645279 116.336083 
L 154.797622 117.989679 
L 154.944447 119.642413 
L 155.086508 121.294551 
L 155.225272 122.946409 
" clip-path="url(#p486e4fdaac)" style="fill: none; stroke: #ff0000; stroke-width: 0.25; stroke-linecap: square"/>
   </g>
   <g id="line2d_38">
    <path d="M 92.671557 142.706559 
L 94.05634 142.70439 
L 95.44111 142.702367 
L 96.825866 142.700182 
L 98.210603 142.697853 
L 99.595318 142.695411 
L 100.980008 142.692901 
L 102.364669 142.690392 
L 103.749296 142.687974 
L 105.133885 142.685769 
L 106.518433 142.683936 
L 107.902933 142.682674 
L 109.287382 142.68223 
L 110.671774 142.682907 
L 112.056103 142.685065 
L 113.440361 142.689135 
L 114.82454 142.695616 
L 116.20863 142.705082 
L 117.592614 142.718185 
L 118.976475 142.735652 
L 120.360185 142.758281 
L 121.74371 142.786933 
L 123.127006 142.822516 
L 124.510013 142.86596 
L 125.892662 142.91819 
L 127.274868 142.980079 
L 128.656534 143.052392 
L 130.037559 143.135716 
L 131.417842 143.230368 
L 132.799552 143.301166 
L 134.182305 143.3472 
" clip-path="url(#p486e4fdaac)" style="fill: none; stroke: #ff0000; stroke-width: 0.25; stroke-linecap: square"/>
   </g>
   <g id="line2d_39">
    <path d="M 167.016507 245.937404 
L 167.016507 244.387066 
L 167.016507 242.836727 
L 167.016507 241.286389 
L 167.016507 239.736051 
L 167.016507 238.185712 
L 167.016507 236.635374 
L 167.016507 235.085035 
L 167.016507 233.534697 
L 167.016507 231.984359 
L 167.016507 230.43402 
L 167.016507 228.883682 
L 167.016507 227.333343 
L 167.016507 225.783005 
L 167.016507 224.232666 
L 167.016507 222.682328 
L 167.016507 221.13199 
L 167.016507 219.581651 
L 167.016507 218.031313 
L 167.016507 216.480974 
L 167.016507 214.930636 
L 167.016507 213.380298 
L 167.016507 211.829959 
L 167.016507 210.279621 
L 167.016507 208.729282 
L 167.016507 207.178944 
L 167.016507 205.628606 
L 167.016507 204.078267 
L 167.016507 202.527929 
L 167.016507 200.97759 
L 167.016507 199.427252 
" clip-path="url(#p486e4fdaac)" style="fill: none; stroke: #ff0000; stroke-width: 0.25; stroke-linecap: square"/>
   </g>
   <g id="line2d_40">
    <path d="M 263.667961 130.999399 
L 261.70669 130.999399 
L 259.74542 130.999399 
L 257.78415 130.999399 
L 255.822879 130.999399 
L 253.861609 130.999399 
L 251.900338 130.999399 
L 249.939068 130.999399 
L 247.977798 130.999399 
L 246.016527 130.999399 
L 244.055257 130.999399 
L 242.093986 130.999399 
L 240.132716 130.999399 
L 238.171445 130.999399 
L 236.210175 130.999399 
L 234.248905 130.999399 
L 232.287634 130.999399 
L 230.326364 130.999399 
L 228.365093 130.999399 
L 226.403823 130.999399 
L 224.442553 130.999399 
L 222.481282 130.999399 
L 220.520012 130.999399 
L 218.558741 130.999399 
L 216.597471 130.999399 
L 214.6362 130.999399 
L 212.67493 130.999399 
L 210.71366 130.999399 
L 208.752389 130.999399 
L 206.791119 130.999399 
L 204.829848 130.999399 
" clip-path="url(#p486e4fdaac)" style="fill: none; stroke: #ff0000; stroke-width: 0.25; stroke-linecap: square"/>
   </g>
   <g id="line2d_41">
    <path d="M 155.304868 27.773033 
L 155.304868 29.323372 
L 155.304868 30.87371 
L 155.304868 32.424049 
L 155.304868 33.974387 
L 155.304868 35.524725 
L 155.304868 37.075064 
L 155.304868 38.625402 
L 155.304868 40.175741 
L 155.304868 41.726079 
L 155.304868 43.276417 
L 155.304868 44.826756 
L 155.304868 46.377094 
L 155.304868 47.927433 
L 155.304868 49.477771 
L 155.304868 51.028109 
L 155.304868 52.578448 
L 155.304868 54.128786 
L 155.304868 55.679125 
L 155.304868 57.229463 
L 155.304868 58.779801 
L 155.304868 60.33014 
L 155.304868 61.880478 
L 155.304868 63.430817 
L 155.304868 64.981155 
L 155.304868 66.531494 
L 155.304868 68.081832 
L 155.304868 69.63217 
L 155.304868 71.182509 
L 155.304868 72.732847 
L 155.304868 74.283186 
" clip-path="url(#p486e4fdaac)" style="fill: none; stroke: #ff0000; stroke-width: 0.25; stroke-linecap: square"/>
   </g>
   <g id="line2d_42">
    <path d="M 52.078502 142.711039 
L 53.62884 142.711039 
L 55.179179 142.711039 
L 56.729517 142.711039 
L 58.279856 142.711039 
L 59.830194 142.711039 
L 61.380532 142.711039 
L 62.930871 142.711039 
L 64.481209 142.711039 
L 66.031548 142.711039 
L 67.581886 142.711039 
L 69.132225 142.711039 
L 70.682563 142.711039 
L 72.232901 142.711039 
L 73.78324 142.711039 
L 75.333578 142.711039 
L 76.883917 142.711039 
L 78.434255 142.711039 
L 79.984593 142.711039 
L 81.534932 142.711039 
L 83.08527 142.711039 
L 84.635609 142.711039 
L 86.185947 142.711039 
L 87.736285 142.711039 
L 89.286624 142.711039 
L 90.836962 142.711039 
L 92.387301 142.711039 
L 93.937639 142.711039 
L 95.487977 142.711039 
L 97.038316 142.711039 
L 98.588654 142.711039 
" clip-path="url(#p486e4fdaac)" style="fill: none; stroke: #ff0000; stroke-width: 0.25; stroke-linecap: square"/>
   </g>
   <g id="patch_15">
    <path d="M 28.104688 269.911219 
L 28.104688 3.799219 
" style="fill: none; stroke: #000000; stroke-width: 0.8; stroke-linejoin: miter; stroke-linecap: square"/>
   </g>
   <g id="patch_16">
    <path d="M 294.216687 269.911219 
L 294.216687 3.799219 
" style="fill: none; stroke: #000000; stroke-width: 0.8; stroke-linejoin: miter; stroke-linecap: square"/>
   </g>
   <g id="patch_17">
    <path d="M 28.104688 269.911219 
L 294.216687 269.911219 
" style="fill: none; stroke: #000000; stroke-width: 0.8; stroke-linejoin: miter; stroke-linecap: square"/>
   </g>
   <g id="patch_18">
    <path d="M 28.104688 3.799219 
L 294.216687 3.799219 
" style="fill: none; stroke: #000000; stroke-width: 0.8; stroke-linejoin: miter; stroke-linecap: square"/>
   </g>
   <g id="text_19">
    <!-- Time: 1.6 s -->
    <g transform="translate(198.9952 17.104819) scale(0.1 -0.1)">
     <defs>
      <path id="DejaVuSans-54" d="M -19 4666 
L 3928 4666 
L 3928 4134 
L 2272 4134 
L 2272 0 
L 1638 0 
L 1638 4134 
L -19 4134 
L -19 4666 
z
" transform="scale(0.015625)"/>
      <path id="DejaVuSans-69" d="M 603 3500 
L 1178 3500 
L 1178 0 
L 603 0 
L 603 3500 
z
M 603 4863 
L 1178 4863 
L 1178 4134 
L 603 4134 
L 603 4863 
z
" transform="scale(0.015625)"/>
      <path id="DejaVuSans-6d" d="M 3328 2828 
Q 3544 3216 3844 3400 
Q 4144 3584 4550 3584 
Q 5097 3584 5394 3201 
Q 5691 2819 5691 2113 
L 5691 0 
L 5113 0 
L 5113 2094 
Q 5113 2597 4934 2840 
Q 4756 3084 4391 3084 
Q 3944 3084 3684 2787 
Q 3425 2491 3425 1978 
L 3425 0 
L 2847 0 
L 2847 2094 
Q 2847 2600 2669 2842 
Q 2491 3084 2119 3084 
Q 1678 3084 1418 2786 
Q 1159 2488 1159 1978 
L 1159 0 
L 581 0 
L 581 3500 
L 1159 3500 
L 1159 2956 
Q 1356 3278 1631 3431 
Q 1906 3584 2284 3584 
Q 2666 3584 2933 3390 
Q 3200 3197 3328 2828 
z
" transform="scale(0.015625)"/>
      <path id="DejaVuSans-65" d="M 3597 1894 
L 3597 1613 
L 953 1613 
Q 991 1019 1311 708 
Q 1631 397 2203 397 
Q 2534 397 2845 478 
Q 3156 559 3463 722 
L 3463 178 
Q 3153 47 2828 -22 
Q 2503 -91 2169 -91 
Q 1331 -91 842 396 
Q 353 884 353 1716 
Q 353 2575 817 3079 
Q 1281 3584 2069 3584 
Q 2775 3584 3186 3129 
Q 3597 2675 3597 1894 
z
M 3022 2063 
Q 3016 2534 2758 2815 
Q 2500 3097 2075 3097 
Q 1594 3097 1305 2825 
Q 1016 2553 972 2059 
L 3022 2063 
z
" transform="scale(0.015625)"/>
      <path id="DejaVuSans-3a" d="M 750 794 
L 1409 794 
L 1409 0 
L 750 0 
L 750 794 
z
M 750 3309 
L 1409 3309 
L 1409 2516 
L 750 2516 
L 750 3309 
z
" transform="scale(0.015625)"/>
      <path id="DejaVuSans-20" transform="scale(0.015625)"/>
      <path id="DejaVuSans-2e" d="M 684 794 
L 1344 794 
L 1344 0 
L 684 0 
L 684 794 
z
" transform="scale(0.015625)"/>
      <path id="DejaVuSans-36" d="M 2113 2584 
Q 1688 2584 1439 2293 
Q 1191 2003 1191 1497 
Q 1191 994 1439 701 
Q 1688 409 2113 409 
Q 2538 409 2786 701 
Q 3034 994 3034 1497 
Q 3034 2003 2786 2293 
Q 2538 2584 2113 2584 
z
M 3366 4563 
L 3366 3988 
Q 3128 4100 2886 4159 
Q 2644 4219 2406 4219 
Q 1781 4219 1451 3797 
Q 1122 3375 1075 2522 
Q 1259 2794 1537 2939 
Q 1816 3084 2150 3084 
Q 2853 3084 3261 2657 
Q 3669 2231 3669 1497 
Q 3669 778 3244 343 
Q 2819 -91 2113 -91 
Q 1303 -91 875 529 
Q 447 1150 447 2328 
Q 447 3434 972 4092 
Q 1497 4750 2381 4750 
Q 2619 4750 2861 4703 
Q 3103 4656 3366 4563 
z
" transform="scale(0.015625)"/>
      <path id="DejaVuSans-73" d="M 2834 3397 
L 2834 2853 
Q 2591 2978 2328 3040 
Q 2066 3103 1784 3103 
Q 1356 3103 1142 2972 
Q 928 2841 928 2578 
Q 928 2378 1081 2264 
Q 1234 2150 1697 2047 
L 1894 2003 
Q 2506 1872 2764 1633 
Q 3022 1394 3022 966 
Q 3022 478 2636 193 
Q 2250 -91 1575 -91 
Q 1294 -91 989 -36 
Q 684 19 347 128 
L 347 722 
Q 666 556 975 473 
Q 1284 391 1588 391 
Q 1994 391 2212 530 
Q 2431 669 2431 922 
Q 2431 1156 2273 1281 
Q 2116 1406 1581 1522 
L 1381 1569 
Q 847 1681 609 1914 
Q 372 2147 372 2553 
Q 372 3047 722 3315 
Q 1072 3584 1716 3584 
Q 2034 3584 2315 3537 
Q 2597 3491 2834 3397 
z
" transform="scale(0.015625)"/>
     </defs>
     <use xlink:href="#DejaVuSans-54"/>
     <use xlink:href="#DejaVuSans-69" x="57.958984"/>
     <use xlink:href="#DejaVuSans-6d" x="85.742188"/>
     <use xlink:href="#DejaVuSans-65" x="183.154297"/>
     <use xlink:href="#DejaVuSans-3a" x="244.677734"/>
     <use xlink:href="#DejaVuSans-20" x="278.369141"/>
     <use xlink:href="#DejaVuSans-31" x="310.15625"/>
     <use xlink:href="#DejaVuSans-2e" x="373.779297"/>
     <use xlink:href="#DejaVuSans-36" x="405.566406"/>
     <use xlink:href="#DejaVuSans-20" x="469.189453"/>
     <use xlink:href="#DejaVuSans-73" x="500.976562"/>
    </g>
   </g>
  </g>
 </g>
 <defs>
  <clipPath id="p486e4fdaac">
   <rect x="28.104688" y="3.799219" width="266.112" height="266.112"/>
  </clipPath>
 </defs>
</svg>
