<?xml version="1.0" encoding="utf-8" standalone="no"?>
<!DOCTYPE svg PUBLIC "-//W3C//DTD SVG 1.1//EN"
  "http://www.w3.org/Graphics/SVG/1.1/DTD/svg11.dtd">
<svg xmlns:xlink="http://www.w3.org/1999/xlink" width="300.579188pt" height="286.589344pt" viewBox="0 0 300.579188 286.589344" xmlns="http://www.w3.org/2000/svg" version="1.1">
 <metadata>
  <rdf:RDF xmlns:dc="http://purl.org/dc/elements/1.1/" xmlns:cc="http://creativecommons.org/ns#" xmlns:rdf="http://www.w3.org/1999/02/22-rdf-syntax-ns#">
   <cc:Work>
    <dc:type rdf:resource="http://purl.org/dc/dcmitype/StillImage"/>
    <dc:date>2024-02-26T10:13:02.667202</dc:date>
    <dc:format>image/svg+xml</dc:format>
    <dc:creator>
     <cc:Agent>
      <dc:title>Matplotlib v3.8.2, https://matplotlib.org/</dc:title>
     </cc:Agent>
    </dc:creator>
   </cc:Work>
  </rdf:RDF>
 </metadata>
 <defs>
  <style type="text/css">*{stroke-linejoin: round; stroke-linecap: butt}</style>
 </defs>
 <g id="figure_1">
  <g id="patch_1">
   <path d="M 0 286.589344 
L 300.579188 286.589344 
L 300.579188 0 
L 0 0 
z
" style="fill: #ffffff"/>
  </g>
  <g id="axes_1">
   <g id="patch_2">
    <path d="M 28.104688 269.911219 
L 294.216687 269.911219 
L 294.216687 3.799219 
L 28.104688 3.799219 
z
" style="fill: #ffffff"/>
   </g>
   <g id="patch_3">
    <path d="M 170.635802 160.052409 
L 171.564014 148.44707 
L 165.927134 147.996224 
L 164.998923 159.601563 
z
" clip-path="url(#p67a3be0db7)" style="fill: #00008b"/>
   </g>
   <g id="patch_4">
    <path d="M 187.245376 128.737973 
L 175.615949 128.188509 
L 175.349067 133.837088 
L 186.978493 134.386551 
z
" clip-path="url(#p67a3be0db7)" style="fill: #800000"/>
   </g>
   <g id="patch_5">
    <path d="M 152.512694 112.470863 
L 151.930328 124.098689 
L 157.578129 124.381552 
L 158.160495 112.753727 
z
" clip-path="url(#p67a3be0db7)" style="fill: #006400"/>
   </g>
   <g id="patch_6">
    <path d="M 136.638887 145.632815 
L 148.239111 146.622906 
L 148.720013 140.988512 
L 137.119789 139.99842 
z
" clip-path="url(#p67a3be0db7)" style="fill: #4b0082"/>
   </g>
   <g id="patch_7">
    <path d="M 169.835778 203.579661 
L 169.823834 191.937267 
L 164.168957 191.943068 
L 164.180901 203.585462 
z
" clip-path="url(#p67a3be0db7)" style="fill: #0000ff"/>
   </g>
   <g id="patch_8">
    <path d="M 227.884384 128.180472 
L 216.241992 128.193974 
L 216.24855 133.84885 
L 227.890942 133.835349 
z
" clip-path="url(#p67a3be0db7)" style="fill: #ff0000"/>
   </g>
   <g id="patch_9">
    <path d="M 152.503595 70.502883 
L 152.519731 82.145272 
L 158.174606 82.137434 
L 158.15847 70.495045 
z
" clip-path="url(#p67a3be0db7)" style="fill: #dbdc56"/>
   </g>
   <g id="patch_10">
    <path d="M 89.622834 145.53566 
L 101.265228 145.523631 
L 101.259386 139.868754 
L 89.616992 139.880783 
z
" clip-path="url(#p67a3be0db7)" style="fill: #9400d3"/>
   </g>
   <g id="patch_11">
    <path d="M 169.843947 248.657927 
L 169.843947 237.015527 
L 164.189067 237.015527 
L 164.189067 248.657927 
z
" clip-path="url(#p67a3be0db7)" style="fill: #1e90ff"/>
   </g>
   <g id="patch_12">
    <path d="M 265.56662 128.171959 
L 253.92422 128.171959 
L 253.92422 133.826839 
L 265.56662 133.826839 
z
" clip-path="url(#p67a3be0db7)" style="fill: #ff4500"/>
   </g>
   <g id="patch_13">
    <path d="M 152.477428 25.05251 
L 152.477428 36.69491 
L 158.132308 36.69491 
L 158.132308 25.05251 
z
" clip-path="url(#p67a3be0db7)" style="fill: #7cfc00"/>
   </g>
   <g id="patch_14">
    <path d="M 49.357979 145.538479 
L 61.000379 145.538479 
L 61.000379 139.883599 
L 49.357979 139.883599 
z
" clip-path="url(#p67a3be0db7)" style="fill: #ff00ff"/>
   </g>
   <g id="matplotlib.axis_1">
    <g id="xtick_1">
     <g id="line2d_1">
      <defs>
       <path id="macfef03457" d="M 0 0 
L 0 3.5 
" style="stroke: #000000; stroke-width: 0.8"/>
      </defs>
      <g>
       <use xlink:href="#macfef03457" x="28.104688" y="269.911219" style="stroke: #000000; stroke-width: 0.8"/>
      </g>
     </g>
     <g id="text_1">
      <!-- −40 -->
      <g transform="translate(17.552344 284.509656) scale(0.1 -0.1)">
       <defs>
        <path id="DejaVuSans-2212" d="M 678 2272 
L 4684 2272 
L 4684 1741 
L 678 1741 
L 678 2272 
z
" transform="scale(0.015625)"/>
        <path id="DejaVuSans-34" d="M 2419 4116 
L 825 1625 
L 2419 1625 
L 2419 4116 
z
M 2253 4666 
L 3047 4666 
L 3047 1625 
L 3713 1625 
L 3713 1100 
L 3047 1100 
L 3047 0 
L 2419 0 
L 2419 1100 
L 313 1100 
L 313 1709 
L 2253 4666 
z
" transform="scale(0.015625)"/>
        <path id="DejaVuSans-30" d="M 2034 4250 
Q 1547 4250 1301 3770 
Q 1056 3291 1056 2328 
Q 1056 1369 1301 889 
Q 1547 409 2034 409 
Q 2525 409 2770 889 
Q 3016 1369 3016 2328 
Q 3016 3291 2770 3770 
Q 2525 4250 2034 4250 
z
M 2034 4750 
Q 2819 4750 3233 4129 
Q 3647 3509 3647 2328 
Q 3647 1150 3233 529 
Q 2819 -91 2034 -91 
Q 1250 -91 836 529 
Q 422 1150 422 2328 
Q 422 3509 836 4129 
Q 1250 4750 2034 4750 
z
" transform="scale(0.015625)"/>
       </defs>
       <use xlink:href="#DejaVuSans-2212"/>
       <use xlink:href="#DejaVuSans-34" x="83.789062"/>
       <use xlink:href="#DejaVuSans-30" x="147.412109"/>
      </g>
     </g>
    </g>
    <g id="xtick_2">
     <g id="line2d_2">
      <g>
       <use xlink:href="#macfef03457" x="61.368688" y="269.911219" style="stroke: #000000; stroke-width: 0.8"/>
      </g>
     </g>
     <g id="text_2">
      <!-- −30 -->
      <g transform="translate(50.816344 284.509656) scale(0.1 -0.1)">
       <defs>
        <path id="DejaVuSans-33" d="M 2597 2516 
Q 3050 2419 3304 2112 
Q 3559 1806 3559 1356 
Q 3559 666 3084 287 
Q 2609 -91 1734 -91 
Q 1441 -91 1130 -33 
Q 819 25 488 141 
L 488 750 
Q 750 597 1062 519 
Q 1375 441 1716 441 
Q 2309 441 2620 675 
Q 2931 909 2931 1356 
Q 2931 1769 2642 2001 
Q 2353 2234 1838 2234 
L 1294 2234 
L 1294 2753 
L 1863 2753 
Q 2328 2753 2575 2939 
Q 2822 3125 2822 3475 
Q 2822 3834 2567 4026 
Q 2313 4219 1838 4219 
Q 1578 4219 1281 4162 
Q 984 4106 628 3988 
L 628 4550 
Q 988 4650 1302 4700 
Q 1616 4750 1894 4750 
Q 2613 4750 3031 4423 
Q 3450 4097 3450 3541 
Q 3450 3153 3228 2886 
Q 3006 2619 2597 2516 
z
" transform="scale(0.015625)"/>
       </defs>
       <use xlink:href="#DejaVuSans-2212"/>
       <use xlink:href="#DejaVuSans-33" x="83.789062"/>
       <use xlink:href="#DejaVuSans-30" x="147.412109"/>
      </g>
     </g>
    </g>
    <g id="xtick_3">
     <g id="line2d_3">
      <g>
       <use xlink:href="#macfef03457" x="94.632688" y="269.911219" style="stroke: #000000; stroke-width: 0.8"/>
      </g>
     </g>
     <g id="text_3">
      <!-- −20 -->
      <g transform="translate(84.080344 284.509656) scale(0.1 -0.1)">
       <defs>
        <path id="DejaVuSans-32" d="M 1228 531 
L 3431 531 
L 3431 0 
L 469 0 
L 469 531 
Q 828 903 1448 1529 
Q 2069 2156 2228 2338 
Q 2531 2678 2651 2914 
Q 2772 3150 2772 3378 
Q 2772 3750 2511 3984 
Q 2250 4219 1831 4219 
Q 1534 4219 1204 4116 
Q 875 4013 500 3803 
L 500 4441 
Q 881 4594 1212 4672 
Q 1544 4750 1819 4750 
Q 2544 4750 2975 4387 
Q 3406 4025 3406 3419 
Q 3406 3131 3298 2873 
Q 3191 2616 2906 2266 
Q 2828 2175 2409 1742 
Q 1991 1309 1228 531 
z
" transform="scale(0.015625)"/>
       </defs>
       <use xlink:href="#DejaVuSans-2212"/>
       <use xlink:href="#DejaVuSans-32" x="83.789062"/>
       <use xlink:href="#DejaVuSans-30" x="147.412109"/>
      </g>
     </g>
    </g>
    <g id="xtick_4">
     <g id="line2d_4">
      <g>
       <use xlink:href="#macfef03457" x="127.896687" y="269.911219" style="stroke: #000000; stroke-width: 0.8"/>
      </g>
     </g>
     <g id="text_4">
      <!-- −10 -->
      <g transform="translate(117.344344 284.509656) scale(0.1 -0.1)">
       <defs>
        <path id="DejaVuSans-31" d="M 794 531 
L 1825 531 
L 1825 4091 
L 703 3866 
L 703 4441 
L 1819 4666 
L 2450 4666 
L 2450 531 
L 3481 531 
L 3481 0 
L 794 0 
L 794 531 
z
" transform="scale(0.015625)"/>
       </defs>
       <use xlink:href="#DejaVuSans-2212"/>
       <use xlink:href="#DejaVuSans-31" x="83.789062"/>
       <use xlink:href="#DejaVuSans-30" x="147.412109"/>
      </g>
     </g>
    </g>
    <g id="xtick_5">
     <g id="line2d_5">
      <g>
       <use xlink:href="#macfef03457" x="161.160687" y="269.911219" style="stroke: #000000; stroke-width: 0.8"/>
      </g>
     </g>
     <g id="text_5">
      <!-- 0 -->
      <g transform="translate(157.979437 284.509656) scale(0.1 -0.1)">
       <use xlink:href="#DejaVuSans-30"/>
      </g>
     </g>
    </g>
    <g id="xtick_6">
     <g id="line2d_6">
      <g>
       <use xlink:href="#macfef03457" x="194.424688" y="269.911219" style="stroke: #000000; stroke-width: 0.8"/>
      </g>
     </g>
     <g id="text_6">
      <!-- 10 -->
      <g transform="translate(188.062187 284.509656) scale(0.1 -0.1)">
       <use xlink:href="#DejaVuSans-31"/>
       <use xlink:href="#DejaVuSans-30" x="63.623047"/>
      </g>
     </g>
    </g>
    <g id="xtick_7">
     <g id="line2d_7">
      <g>
       <use xlink:href="#macfef03457" x="227.688687" y="269.911219" style="stroke: #000000; stroke-width: 0.8"/>
      </g>
     </g>
     <g id="text_7">
      <!-- 20 -->
      <g transform="translate(221.326187 284.509656) scale(0.1 -0.1)">
       <use xlink:href="#DejaVuSans-32"/>
       <use xlink:href="#DejaVuSans-30" x="63.623047"/>
      </g>
     </g>
    </g>
    <g id="xtick_8">
     <g id="line2d_8">
      <g>
       <use xlink:href="#macfef03457" x="260.952687" y="269.911219" style="stroke: #000000; stroke-width: 0.8"/>
      </g>
     </g>
     <g id="text_8">
      <!-- 30 -->
      <g transform="translate(254.590187 284.509656) scale(0.1 -0.1)">
       <use xlink:href="#DejaVuSans-33"/>
       <use xlink:href="#DejaVuSans-30" x="63.623047"/>
      </g>
     </g>
    </g>
    <g id="xtick_9">
     <g id="line2d_9">
      <g>
       <use xlink:href="#macfef03457" x="294.216687" y="269.911219" style="stroke: #000000; stroke-width: 0.8"/>
      </g>
     </g>
     <g id="text_9">
      <!-- 40 -->
      <g transform="translate(287.854187 284.509656) scale(0.1 -0.1)">
       <use xlink:href="#DejaVuSans-34"/>
       <use xlink:href="#DejaVuSans-30" x="63.623047"/>
      </g>
     </g>
    </g>
   </g>
   <g id="matplotlib.axis_2">
    <g id="ytick_1">
     <g id="line2d_10">
      <defs>
       <path id="m5c990570b7" d="M 0 0 
L -3.5 0 
" style="stroke: #000000; stroke-width: 0.8"/>
      </defs>
      <g>
       <use xlink:href="#m5c990570b7" x="28.104688" y="269.911219" style="stroke: #000000; stroke-width: 0.8"/>
      </g>
     </g>
     <g id="text_10">
      <!-- −40 -->
      <g transform="translate(0 273.710437) scale(0.1 -0.1)">
       <use xlink:href="#DejaVuSans-2212"/>
       <use xlink:href="#DejaVuSans-34" x="83.789062"/>
       <use xlink:href="#DejaVuSans-30" x="147.412109"/>
      </g>
     </g>
    </g>
    <g id="ytick_2">
     <g id="line2d_11">
      <g>
       <use xlink:href="#m5c990570b7" x="28.104688" y="236.647219" style="stroke: #000000; stroke-width: 0.8"/>
      </g>
     </g>
     <g id="text_11">
      <!-- −30 -->
      <g transform="translate(0 240.446437) scale(0.1 -0.1)">
       <use xlink:href="#DejaVuSans-2212"/>
       <use xlink:href="#DejaVuSans-33" x="83.789062"/>
       <use xlink:href="#DejaVuSans-30" x="147.412109"/>
      </g>
     </g>
    </g>
    <g id="ytick_3">
     <g id="line2d_12">
      <g>
       <use xlink:href="#m5c990570b7" x="28.104688" y="203.383219" style="stroke: #000000; stroke-width: 0.8"/>
      </g>
     </g>
     <g id="text_12">
      <!-- −20 -->
      <g transform="translate(0 207.182437) scale(0.1 -0.1)">
       <use xlink:href="#DejaVuSans-2212"/>
       <use xlink:href="#DejaVuSans-32" x="83.789062"/>
       <use xlink:href="#DejaVuSans-30" x="147.412109"/>
      </g>
     </g>
    </g>
    <g id="ytick_4">
     <g id="line2d_13">
      <g>
       <use xlink:href="#m5c990570b7" x="28.104688" y="170.119219" style="stroke: #000000; stroke-width: 0.8"/>
      </g>
     </g>
     <g id="text_13">
      <!-- −10 -->
      <g transform="translate(0 173.918437) scale(0.1 -0.1)">
       <use xlink:href="#DejaVuSans-2212"/>
       <use xlink:href="#DejaVuSans-31" x="83.789062"/>
       <use xlink:href="#DejaVuSans-30" x="147.412109"/>
      </g>
     </g>
    </g>
    <g id="ytick_5">
     <g id="line2d_14">
      <g>
       <use xlink:href="#m5c990570b7" x="28.104688" y="136.855219" style="stroke: #000000; stroke-width: 0.8"/>
      </g>
     </g>
     <g id="text_14">
      <!-- 0 -->
      <g transform="translate(14.742188 140.654437) scale(0.1 -0.1)">
       <use xlink:href="#DejaVuSans-30"/>
      </g>
     </g>
    </g>
    <g id="ytick_6">
     <g id="line2d_15">
      <g>
       <use xlink:href="#m5c990570b7" x="28.104688" y="103.591219" style="stroke: #000000; stroke-width: 0.8"/>
      </g>
     </g>
     <g id="text_15">
      <!-- 10 -->
      <g transform="translate(8.379688 107.390437) scale(0.1 -0.1)">
       <use xlink:href="#DejaVuSans-31"/>
       <use xlink:href="#DejaVuSans-30" x="63.623047"/>
      </g>
     </g>
    </g>
    <g id="ytick_7">
     <g id="line2d_16">
      <g>
       <use xlink:href="#m5c990570b7" x="28.104688" y="70.327219" style="stroke: #000000; stroke-width: 0.8"/>
      </g>
     </g>
     <g id="text_16">
      <!-- 20 -->
      <g transform="translate(8.379688 74.126437) scale(0.1 -0.1)">
       <use xlink:href="#DejaVuSans-32"/>
       <use xlink:href="#DejaVuSans-30" x="63.623047"/>
      </g>
     </g>
    </g>
    <g id="ytick_8">
     <g id="line2d_17">
      <g>
       <use xlink:href="#m5c990570b7" x="28.104688" y="37.063219" style="stroke: #000000; stroke-width: 0.8"/>
      </g>
     </g>
     <g id="text_17">
      <!-- 30 -->
      <g transform="translate(8.379688 40.862437) scale(0.1 -0.1)">
       <use xlink:href="#DejaVuSans-33"/>
       <use xlink:href="#DejaVuSans-30" x="63.623047"/>
      </g>
     </g>
    </g>
    <g id="ytick_9">
     <g id="line2d_18">
      <g>
       <use xlink:href="#m5c990570b7" x="28.104688" y="3.799219" style="stroke: #000000; stroke-width: 0.8"/>
      </g>
     </g>
     <g id="text_18">
      <!-- 40 -->
      <g transform="translate(8.379688 7.598437) scale(0.1 -0.1)">
       <use xlink:href="#DejaVuSans-34"/>
       <use xlink:href="#DejaVuSans-30" x="63.623047"/>
      </g>
     </g>
    </g>
   </g>
   <g id="line2d_19">
    <path d="M 175.297888 250.784419 
L 175.297888 150.992419 
" clip-path="url(#p67a3be0db7)" style="fill: none; stroke: #000000; stroke-width: 0.25; stroke-linecap: square"/>
   </g>
   <g id="line2d_20">
    <path d="M 175.297888 150.992419 
L 275.089887 150.992419 
" clip-path="url(#p67a3be0db7)" style="fill: none; stroke: #000000; stroke-width: 0.25; stroke-linecap: square"/>
   </g>
   <g id="line2d_21">
    <path d="M 275.089887 122.718019 
L 175.297888 122.718019 
" clip-path="url(#p67a3be0db7)" style="fill: none; stroke: #000000; stroke-width: 0.25; stroke-linecap: square"/>
   </g>
   <g id="line2d_22">
    <path d="M 175.297888 122.718019 
L 175.297888 22.926019 
" clip-path="url(#p67a3be0db7)" style="fill: none; stroke: #000000; stroke-width: 0.25; stroke-linecap: square"/>
   </g>
   <g id="line2d_23">
    <path d="M 147.023487 22.926019 
L 147.023487 122.718019 
" clip-path="url(#p67a3be0db7)" style="fill: none; stroke: #000000; stroke-width: 0.25; stroke-linecap: square"/>
   </g>
   <g id="line2d_24">
    <path d="M 147.023487 122.718019 
L 47.231488 122.718019 
" clip-path="url(#p67a3be0db7)" style="fill: none; stroke: #000000; stroke-width: 0.25; stroke-linecap: square"/>
   </g>
   <g id="line2d_25">
    <path d="M 47.231488 150.992419 
L 147.023487 150.992419 
" clip-path="url(#p67a3be0db7)" style="fill: none; stroke: #000000; stroke-width: 0.25; stroke-linecap: square"/>
   </g>
   <g id="line2d_26">
    <path d="M 147.023487 150.992419 
L 147.023487 250.784419 
" clip-path="url(#p67a3be0db7)" style="fill: none; stroke: #000000; stroke-width: 0.25; stroke-linecap: square"/>
   </g>
   <g id="line2d_27">
    <path d="M 175.297888 136.855219 
L 275.089887 136.855219 
" clip-path="url(#p67a3be0db7)" style="fill: none; stroke-dasharray: 0.925,0.4; stroke-dashoffset: 0; stroke: #000000; stroke-width: 0.25"/>
   </g>
   <g id="line2d_28">
    <path d="M 161.160687 122.718019 
L 161.160687 22.926019 
" clip-path="url(#p67a3be0db7)" style="fill: none; stroke-dasharray: 0.925,0.4; stroke-dashoffset: 0; stroke: #000000; stroke-width: 0.25"/>
   </g>
   <g id="line2d_29">
    <path d="M 147.023487 136.855219 
L 47.231488 136.855219 
" clip-path="url(#p67a3be0db7)" style="fill: none; stroke-dasharray: 0.925,0.4; stroke-dashoffset: 0; stroke: #000000; stroke-width: 0.25"/>
   </g>
   <g id="line2d_30">
    <path d="M 161.160687 150.992419 
L 161.160687 250.784419 
" clip-path="url(#p67a3be0db7)" style="fill: none; stroke-dasharray: 0.925,0.4; stroke-dashoffset: 0; stroke: #000000; stroke-width: 0.25"/>
   </g>
   <g id="line2d_31">
    <path d="M 168.130447 155.740927 
L 168.281468 154.024317 
L 168.419227 152.295681 
L 168.528891 150.553344 
L 168.589394 148.796277 
L 168.574885 147.025536 
L 168.454077 145.246094 
L 168.187512 143.470015 
L 167.716507 141.724737 
L 167.036003 140.038499 
L 166.200806 138.413383 
L 165.266328 136.835852 
L 164.177067 135.35581 
L 162.895517 134.035868 
L 161.4873 132.850895 
L 159.966688 131.813379 
L 158.348958 130.934273 
L 156.651303 130.223241 
L 154.892495 129.687936 
L 153.091989 129.333483 
L 151.269271 129.162397 
L 149.443393 129.174135 
L 147.628798 129.328477 
L 145.817374 129.469708 
L 144.008456 129.596588 
L 142.201012 129.702827 
L 140.394165 129.781499 
L 138.587615 129.833916 
L 136.782126 129.898586 
L 134.977673 129.98187 
L 133.174762 130.09231 
" clip-path="url(#p67a3be0db7)" style="fill: none; stroke: #ff0000; stroke-width: 0.25; stroke-linecap: square"/>
   </g>
   <g id="line2d_32">
    <path d="M 182.716145 131.478441 
L 181.297221 131.28753 
L 179.907515 131.012851 
L 178.560855 130.62363 
L 177.281303 130.086798 
L 176.087733 129.405359 
L 174.958767 128.642618 
L 173.898329 127.804279 
L 172.909949 126.896105 
L 171.997108 125.923664 
L 171.162794 124.892659 
L 170.409427 123.808573 
L 169.73891 122.676352 
L 169.152718 121.500287 
L 168.652177 120.283991 
L 168.239105 119.030739 
L 167.916204 117.744383 
L 167.686451 116.429747 
L 167.552876 115.092693 
L 167.518605 113.740022 
L 167.578541 112.379301 
L 167.575182 111.009227 
L 167.528602 109.63296 
L 167.442275 108.252841 
L 167.343792 106.868947 
L 167.24808 105.481349 
L 167.161392 104.090653 
L 167.081922 102.697862 
L 167.006998 101.303824 
L 166.934518 99.909168 
L 166.863941 98.514256 
" clip-path="url(#p67a3be0db7)" style="fill: none; stroke: #ff0000; stroke-width: 0.25; stroke-linecap: square"/>
   </g>
   <g id="line2d_33">
    <path d="M 155.190542 116.84991 
L 155.045411 118.426208 
L 154.882371 120.003827 
L 154.669747 121.58063 
L 154.397951 123.15586 
L 154.064788 124.729702 
L 153.664466 126.300921 
L 153.193272 127.867891 
L 152.650968 129.429379 
L 152.052633 130.989701 
L 151.447565 132.567297 
L 150.893906 134.181655 
L 150.461106 135.846108 
L 150.207553 137.55422 
L 150.181561 139.280326 
L 150.421911 140.98143 
L 150.822313 142.636747 
L 151.368506 144.229389 
L 151.972916 145.778261 
L 152.496587 147.334637 
L 152.939818 148.896307 
L 153.306092 150.460808 
L 153.595685 152.02714 
L 153.805923 153.595044 
L 153.974753 155.159558 
L 154.130056 156.719245 
L 154.305444 158.272378 
L 154.524768 159.816821 
L 154.769892 161.355346 
L 155.016904 162.892384 
L 155.259586 164.429586 
" clip-path="url(#p67a3be0db7)" style="fill: none; stroke: #ff0000; stroke-width: 0.25; stroke-linecap: square"/>
   </g>
   <g id="line2d_34">
    <path d="M 141.104777 143.083633 
L 142.67945 143.310663 
L 144.253345 143.567563 
L 145.820724 143.891702 
L 147.37854 144.293436 
L 148.926496 144.77043 
L 150.462812 145.324485 
L 151.986936 145.952692 
L 153.50828 146.630008 
L 155.065194 147.267766 
L 156.686341 147.772663 
L 158.372888 148.053195 
L 160.08879 148.010551 
L 161.791038 147.78484 
L 163.458998 147.400603 
L 165.072675 146.863502 
L 166.628849 146.214769 
L 168.19975 145.649661 
L 169.778845 145.161615 
L 171.363238 144.750404 
L 172.950897 144.417305 
L 174.539827 144.162388 
L 176.128075 143.982956 
L 177.714382 143.875935 
L 179.295679 143.790925 
L 180.872266 143.704758 
L 182.443791 143.589975 
L 184.008534 143.424222 
L 185.568704 143.230937 
L 187.127296 143.031486 
L 188.685945 142.835039 
" clip-path="url(#p67a3be0db7)" style="fill: none; stroke: #ff0000; stroke-width: 0.25; stroke-linecap: square"/>
   </g>
   <g id="line2d_35">
    <path d="M 167.003976 199.413075 
L 167.002367 197.761364 
L 167.000941 196.10865 
L 166.999866 194.455159 
L 166.999331 192.801121 
L 166.99958 191.146766 
L 167.000914 189.492327 
L 167.003703 187.83804 
L 167.008382 186.184146 
L 167.015463 184.530896 
L 167.025524 182.878546 
L 167.039213 181.227367 
L 167.057229 179.577639 
L 167.080312 177.929655 
L 167.109209 176.283723 
L 167.144638 174.640159 
L 167.187238 172.99929 
L 167.237497 171.361442 
L 167.295672 169.726936 
L 167.361676 168.096065 
L 167.434953 166.469085 
L 167.514319 164.846181 
L 167.597785 163.227444 
L 167.682341 161.612846 
L 167.735335 160.001038 
L 167.735801 158.392509 
L 167.700658 156.788379 
L 167.632598 155.189125 
L 167.542255 153.594307 
L 167.440772 152.002682 
L 167.341764 150.412312 
" clip-path="url(#p67a3be0db7)" style="fill: none; stroke: #ff0000; stroke-width: 0.25; stroke-linecap: square"/>
   </g>
   <g id="line2d_36">
    <path d="M 223.71818 131.012658 
L 222.066467 131.014661 
L 220.413791 131.016441 
L 218.760375 131.017896 
L 217.106445 131.018829 
L 215.452229 131.018984 
L 213.797955 131.018042 
L 212.143859 131.01561 
L 210.490177 131.011218 
L 208.837158 131.004315 
L 207.185055 130.994266 
L 205.534137 130.980358 
L 203.88468 130.961808 
L 202.236977 130.937783 
L 200.591335 130.907419 
L 198.948071 130.869868 
L 197.307513 130.824346 
L 195.669994 130.770203 
L 194.03584 130.707013 
L 192.405353 130.634686 
L 190.778795 130.553606 
L 189.156354 130.464797 
L 187.538117 130.37012 
L 185.924032 130.2725 
L 184.312135 130.212242 
L 182.703154 130.206693 
L 181.098326 130.235761 
L 179.498632 130.309439 
L 177.903442 130.40698 
L 176.311564 130.517516 
L 174.720938 130.625991 
" clip-path="url(#p67a3be0db7)" style="fill: none; stroke: #ff0000; stroke-width: 0.25; stroke-linecap: square"/>
   </g>
   <g id="line2d_37">
    <path d="M 155.338253 74.648597 
L 155.3391 76.320159 
L 155.338901 77.992013 
L 155.336483 79.664089 
L 155.331053 81.336314 
L 155.321672 83.008613 
L 155.307242 84.680909 
L 155.286512 86.353113 
L 155.258084 88.025127 
L 155.220435 89.696834 
L 155.171959 91.368094 
L 155.111024 93.038739 
L 155.036063 94.708571 
L 154.945698 96.377368 
L 154.838898 98.044893 
L 154.715191 99.710922 
L 154.574931 101.375284 
L 154.419611 103.037921 
L 154.252249 104.69896 
L 154.124811 106.363058 
L 154.082527 108.030775 
L 154.126096 109.69741 
L 154.212627 111.360929 
L 154.338731 113.020078 
L 154.4834 114.675677 
L 154.636952 116.328387 
L 154.785905 117.979527 
L 154.929105 119.629403 
L 155.067413 121.27825 
L 155.202441 122.926359 
L 155.335482 124.574174 
" clip-path="url(#p67a3be0db7)" style="fill: none; stroke: #ff0000; stroke-width: 0.25; stroke-linecap: square"/>
   </g>
   <g id="line2d_38">
    <path d="M 94.05634 142.70439 
L 95.44111 142.702207 
L 96.825798 142.700172 
L 98.210416 142.698073 
L 99.594977 142.695952 
L 100.979492 142.693871 
L 102.363973 142.691911 
L 103.748434 142.69018 
L 105.132887 142.688818 
L 106.517343 142.687999 
L 107.901816 142.687938 
L 109.286318 142.688896 
L 110.670863 142.691185 
L 112.055462 142.695174 
L 113.440127 142.701287 
L 114.824869 142.710016 
L 116.209694 142.721909 
L 117.594606 142.737578 
L 118.979605 142.757691 
L 120.364681 142.782962 
L 121.749818 142.814134 
L 123.134988 142.851963 
L 124.520153 142.897186 
L 125.905261 142.95048 
L 127.290251 143.012414 
L 128.675054 143.083382 
L 130.0596 143.163524 
L 131.443829 143.25263 
L 132.829434 143.321141 
L 134.216044 143.369411 
L 135.603461 143.388458 
" clip-path="url(#p67a3be0db7)" style="fill: none; stroke: #ff0000; stroke-width: 0.25; stroke-linecap: square"/>
   </g>
   <g id="line2d_39">
    <path d="M 167.016507 244.387066 
L 167.016507 242.836727 
L 167.016507 241.286389 
L 167.016507 239.736051 
L 167.016507 238.185712 
L 167.016507 236.635374 
L 167.016507 235.085035 
L 167.016507 233.534697 
L 167.016507 231.984359 
L 167.016507 230.43402 
L 167.016507 228.883682 
L 167.016507 227.333343 
L 167.016507 225.783005 
L 167.016507 224.232666 
L 167.016507 222.682328 
L 167.016507 221.13199 
L 167.016507 219.581651 
L 167.016507 218.031313 
L 167.016507 216.480974 
L 167.016507 214.930636 
L 167.016507 213.380298 
L 167.016507 211.829959 
L 167.016507 210.279621 
L 167.016507 208.729282 
L 167.016507 207.178944 
L 167.016507 205.628606 
L 167.016507 204.078267 
L 167.016507 202.527929 
L 167.016507 200.97759 
L 167.016507 199.427252 
L 167.016507 197.876914 
" clip-path="url(#p67a3be0db7)" style="fill: none; stroke: #ff0000; stroke-width: 0.25; stroke-linecap: square"/>
   </g>
   <g id="line2d_40">
    <path d="M 261.70669 130.999399 
L 259.74542 130.999399 
L 257.78415 130.999399 
L 255.822879 130.999399 
L 253.861609 130.999399 
L 251.900338 130.999399 
L 249.939068 130.999399 
L 247.977798 130.999399 
L 246.016527 130.999399 
L 244.055257 130.999399 
L 242.093986 130.999399 
L 240.132716 130.999399 
L 238.171445 130.999399 
L 236.210175 130.999399 
L 234.248905 130.999399 
L 232.287634 130.999399 
L 230.326364 130.999399 
L 228.365093 130.999399 
L 226.403823 130.999399 
L 224.442553 130.999399 
L 222.481282 130.999399 
L 220.520012 130.999399 
L 218.558741 130.999399 
L 216.597471 130.999399 
L 214.6362 130.999399 
L 212.67493 130.999399 
L 210.71366 130.999399 
L 208.752389 130.999399 
L 206.791119 130.999399 
L 204.829848 130.999399 
L 202.868578 130.999399 
" clip-path="url(#p67a3be0db7)" style="fill: none; stroke: #ff0000; stroke-width: 0.25; stroke-linecap: square"/>
   </g>
   <g id="line2d_41">
    <path d="M 155.304868 29.323372 
L 155.304868 30.87371 
L 155.304868 32.424049 
L 155.304868 33.974387 
L 155.304868 35.524725 
L 155.304868 37.075064 
L 155.304868 38.625402 
L 155.304868 40.175741 
L 155.304868 41.726079 
L 155.304868 43.276417 
L 155.304868 44.826756 
L 155.304868 46.377094 
L 155.304868 47.927433 
L 155.304868 49.477771 
L 155.304868 51.028109 
L 155.304868 52.578448 
L 155.304868 54.128786 
L 155.304868 55.679125 
L 155.304868 57.229463 
L 155.304868 58.779801 
L 155.304868 60.33014 
L 155.304868 61.880478 
L 155.304868 63.430817 
L 155.304868 64.981155 
L 155.304868 66.531494 
L 155.304868 68.081832 
L 155.304868 69.63217 
L 155.304868 71.182509 
L 155.304868 72.732847 
L 155.304868 74.283186 
L 155.304868 75.833524 
" clip-path="url(#p67a3be0db7)" style="fill: none; stroke: #ff0000; stroke-width: 0.25; stroke-linecap: square"/>
   </g>
   <g id="line2d_42">
    <path d="M 53.62884 142.711039 
L 55.179179 142.711039 
L 56.729517 142.711039 
L 58.279856 142.711039 
L 59.830194 142.711039 
L 61.380532 142.711039 
L 62.930871 142.711039 
L 64.481209 142.711039 
L 66.031548 142.711039 
L 67.581886 142.711039 
L 69.132225 142.711039 
L 70.682563 142.711039 
L 72.232901 142.711039 
L 73.78324 142.711039 
L 75.333578 142.711039 
L 76.883917 142.711039 
L 78.434255 142.711039 
L 79.984593 142.711039 
L 81.534932 142.711039 
L 83.08527 142.711039 
L 84.635609 142.711039 
L 86.185947 142.711039 
L 87.736285 142.711039 
L 89.286624 142.711039 
L 90.836962 142.711039 
L 92.387301 142.711039 
L 93.937639 142.711039 
L 95.487977 142.711039 
L 97.038316 142.711039 
L 98.588654 142.711039 
L 100.138993 142.711039 
" clip-path="url(#p67a3be0db7)" style="fill: none; stroke: #ff0000; stroke-width: 0.25; stroke-linecap: square"/>
   </g>
   <g id="patch_15">
    <path d="M 28.104688 269.911219 
L 28.104688 3.799219 
" style="fill: none; stroke: #000000; stroke-width: 0.8; stroke-linejoin: miter; stroke-linecap: square"/>
   </g>
   <g id="patch_16">
    <path d="M 294.216687 269.911219 
L 294.216687 3.799219 
" style="fill: none; stroke: #000000; stroke-width: 0.8; stroke-linejoin: miter; stroke-linecap: square"/>
   </g>
   <g id="patch_17">
    <path d="M 28.104688 269.911219 
L 294.216687 269.911219 
" style="fill: none; stroke: #000000; stroke-width: 0.8; stroke-linejoin: miter; stroke-linecap: square"/>
   </g>
   <g id="patch_18">
    <path d="M 28.104688 3.799219 
L 294.216687 3.799219 
" style="fill: none; stroke: #000000; stroke-width: 0.8; stroke-linejoin: miter; stroke-linecap: square"/>
   </g>
   <g id="text_19">
    <!-- Time: 1.7 s -->
    <g transform="translate(198.9952 17.104819) scale(0.1 -0.1)">
     <defs>
      <path id="DejaVuSans-54" d="M -19 4666 
L 3928 4666 
L 3928 4134 
L 2272 4134 
L 2272 0 
L 1638 0 
L 1638 4134 
L -19 4134 
L -19 4666 
z
" transform="scale(0.015625)"/>
      <path id="DejaVuSans-69" d="M 603 3500 
L 1178 3500 
L 1178 0 
L 603 0 
L 603 3500 
z
M 603 4863 
L 1178 4863 
L 1178 4134 
L 603 4134 
L 603 4863 
z
" transform="scale(0.015625)"/>
      <path id="DejaVuSans-6d" d="M 3328 2828 
Q 3544 3216 3844 3400 
Q 4144 3584 4550 3584 
Q 5097 3584 5394 3201 
Q 5691 2819 5691 2113 
L 5691 0 
L 5113 0 
L 5113 2094 
Q 5113 2597 4934 2840 
Q 4756 3084 4391 3084 
Q 3944 3084 3684 2787 
Q 3425 2491 3425 1978 
L 3425 0 
L 2847 0 
L 2847 2094 
Q 2847 2600 2669 2842 
Q 2491 3084 2119 3084 
Q 1678 3084 1418 2786 
Q 1159 2488 1159 1978 
L 1159 0 
L 581 0 
L 581 3500 
L 1159 3500 
L 1159 2956 
Q 1356 3278 1631 3431 
Q 1906 3584 2284 3584 
Q 2666 3584 2933 3390 
Q 3200 3197 3328 2828 
z
" transform="scale(0.015625)"/>
      <path id="DejaVuSans-65" d="M 3597 1894 
L 3597 1613 
L 953 1613 
Q 991 1019 1311 708 
Q 1631 397 2203 397 
Q 2534 397 2845 478 
Q 3156 559 3463 722 
L 3463 178 
Q 3153 47 2828 -22 
Q 2503 -91 2169 -91 
Q 1331 -91 842 396 
Q 353 884 353 1716 
Q 353 2575 817 3079 
Q 1281 3584 2069 3584 
Q 2775 3584 3186 3129 
Q 3597 2675 3597 1894 
z
M 3022 2063 
Q 3016 2534 2758 2815 
Q 2500 3097 2075 3097 
Q 1594 3097 1305 2825 
Q 1016 2553 972 2059 
L 3022 2063 
z
" transform="scale(0.015625)"/>
      <path id="DejaVuSans-3a" d="M 750 794 
L 1409 794 
L 1409 0 
L 750 0 
L 750 794 
z
M 750 3309 
L 1409 3309 
L 1409 2516 
L 750 2516 
L 750 3309 
z
" transform="scale(0.015625)"/>
      <path id="DejaVuSans-20" transform="scale(0.015625)"/>
      <path id="DejaVuSans-2e" d="M 684 794 
L 1344 794 
L 1344 0 
L 684 0 
L 684 794 
z
" transform="scale(0.015625)"/>
      <path id="DejaVuSans-37" d="M 525 4666 
L 3525 4666 
L 3525 4397 
L 1831 0 
L 1172 0 
L 2766 4134 
L 525 4134 
L 525 4666 
z
" transform="scale(0.015625)"/>
      <path id="DejaVuSans-73" d="M 2834 3397 
L 2834 2853 
Q 2591 2978 2328 3040 
Q 2066 3103 1784 3103 
Q 1356 3103 1142 2972 
Q 928 2841 928 2578 
Q 928 2378 1081 2264 
Q 1234 2150 1697 2047 
L 1894 2003 
Q 2506 1872 2764 1633 
Q 3022 1394 3022 966 
Q 3022 478 2636 193 
Q 2250 -91 1575 -91 
Q 1294 -91 989 -36 
Q 684 19 347 128 
L 347 722 
Q 666 556 975 473 
Q 1284 391 1588 391 
Q 1994 391 2212 530 
Q 2431 669 2431 922 
Q 2431 1156 2273 1281 
Q 2116 1406 1581 1522 
L 1381 1569 
Q 847 1681 609 1914 
Q 372 2147 372 2553 
Q 372 3047 722 3315 
Q 1072 3584 1716 3584 
Q 2034 3584 2315 3537 
Q 2597 3491 2834 3397 
z
" transform="scale(0.015625)"/>
     </defs>
     <use xlink:href="#DejaVuSans-54"/>
     <use xlink:href="#DejaVuSans-69" x="57.958984"/>
     <use xlink:href="#DejaVuSans-6d" x="85.742188"/>
     <use xlink:href="#DejaVuSans-65" x="183.154297"/>
     <use xlink:href="#DejaVuSans-3a" x="244.677734"/>
     <use xlink:href="#DejaVuSans-20" x="278.369141"/>
     <use xlink:href="#DejaVuSans-31" x="310.15625"/>
     <use xlink:href="#DejaVuSans-2e" x="373.779297"/>
     <use xlink:href="#DejaVuSans-37" x="405.566406"/>
     <use xlink:href="#DejaVuSans-20" x="469.189453"/>
     <use xlink:href="#DejaVuSans-73" x="500.976562"/>
    </g>
   </g>
  </g>
 </g>
 <defs>
  <clipPath id="p67a3be0db7">
   <rect x="28.104688" y="3.799219" width="266.112" height="266.112"/>
  </clipPath>
 </defs>
</svg>
