<?xml version="1.0" encoding="utf-8" standalone="no"?>
<!DOCTYPE svg PUBLIC "-//W3C//DTD SVG 1.1//EN"
  "http://www.w3.org/Graphics/SVG/1.1/DTD/svg11.dtd">
<svg xmlns:xlink="http://www.w3.org/1999/xlink" width="300.579188pt" height="286.589344pt" viewBox="0 0 300.579188 286.589344" xmlns="http://www.w3.org/2000/svg" version="1.1">
 <metadata>
  <rdf:RDF xmlns:dc="http://purl.org/dc/elements/1.1/" xmlns:cc="http://creativecommons.org/ns#" xmlns:rdf="http://www.w3.org/1999/02/22-rdf-syntax-ns#">
   <cc:Work>
    <dc:type rdf:resource="http://purl.org/dc/dcmitype/StillImage"/>
    <dc:date>2024-02-26T10:14:09.468261</dc:date>
    <dc:format>image/svg+xml</dc:format>
    <dc:creator>
     <cc:Agent>
      <dc:title>Matplotlib v3.8.2, https://matplotlib.org/</dc:title>
     </cc:Agent>
    </dc:creator>
   </cc:Work>
  </rdf:RDF>
 </metadata>
 <defs>
  <style type="text/css">*{stroke-linejoin: round; stroke-linecap: butt}</style>
 </defs>
 <g id="figure_1">
  <g id="patch_1">
   <path d="M 0 286.589344 
L 300.579188 286.589344 
L 300.579188 0 
L 0 0 
z
" style="fill: #ffffff"/>
  </g>
  <g id="axes_1">
   <g id="patch_2">
    <path d="M 28.104688 269.911219 
L 294.216687 269.911219 
L 294.216687 3.799219 
L 28.104688 3.799219 
z
" style="fill: #ffffff"/>
   </g>
   <g id="patch_3">
    <path d="M 47.447619 128.172014 
L 35.805219 128.171911 
L 35.805169 133.826791 
L 47.447569 133.826894 
z
" clip-path="url(#p9b3dbe2b56)" style="fill: #00008b"/>
   </g>
   <g id="patch_4">
    <path d="M 169.843891 18.464769 
L 169.843991 6.822369 
L 164.189111 6.822321 
L 164.189011 18.464721 
z
" clip-path="url(#p9b3dbe2b56)" style="fill: #800000"/>
   </g>
   <g id="patch_5">
    <path d="M 152.477502 249.255518 
L 152.477373 260.897918 
L 158.132253 260.89798 
L 158.132382 249.25558 
z
" clip-path="url(#p9b3dbe2b56)" style="fill: #006400"/>
   </g>
   <g id="patch_6">
    <path d="M 273.560816 145.538473 
L 285.203216 145.538489 
L 285.203224 139.883609 
L 273.560824 139.883593 
z
" clip-path="url(#p9b3dbe2b56)" style="fill: #4b0082"/>
   </g>
   <g id="patch_7">
    <path d="M 169.842966 67.514692 
L 169.842785 55.872292 
L 164.187905 55.87238 
L 164.188086 67.51478 
z
" clip-path="url(#p9b3dbe2b56)" style="fill: #0000ff"/>
   </g>
   <g id="patch_8">
    <path d="M 91.75029 128.174207 
L 80.10789 128.173827 
L 80.107706 133.828707 
L 91.750106 133.829087 
z
" clip-path="url(#p9b3dbe2b56)" style="fill: #ff0000"/>
   </g>
   <g id="patch_9">
    <path d="M 231.32514 145.53772 
L 242.96754 145.538892 
L 242.96811 139.884012 
L 231.32571 139.88284 
z
" clip-path="url(#p9b3dbe2b56)" style="fill: #dbdc56"/>
   </g>
   <g id="patch_10">
    <path d="M 169.866179 96.433925 
L 169.78209 84.791828 
L 164.127358 84.832672 
L 164.211446 96.474768 
z
" clip-path="url(#p9b3dbe2b56)" style="fill: #9400d3"/>
   </g>
   <g id="patch_11">
    <path d="M 192.56112 145.121804 
L 204.195474 145.55458 
L 204.405679 139.903608 
L 192.771326 139.470832 
z
" clip-path="url(#p9b3dbe2b56)" style="fill: #1e90ff"/>
   </g>
   <g id="patch_12">
    <path d="M 152.482177 190.368748 
L 152.475896 202.011147 
L 158.130776 202.014197 
L 158.137056 190.371799 
z
" clip-path="url(#p9b3dbe2b56)" style="fill: #ff4500"/>
   </g>
   <g id="patch_13">
    <path d="M 129.826673 128.778587 
L 118.201599 128.143663 
L 117.893207 133.790128 
L 129.518281 134.425052 
z
" clip-path="url(#p9b3dbe2b56)" style="fill: #7cfc00"/>
   </g>
   <g id="patch_14">
    <path d="M 153.258588 168.069428 
L 152.339431 179.675488 
L 157.97666 180.121935 
L 158.895817 168.515876 
z
" clip-path="url(#p9b3dbe2b56)" style="fill: #ff00ff"/>
   </g>
   <g id="matplotlib.axis_1">
    <g id="xtick_1">
     <g id="line2d_1">
      <defs>
       <path id="ma8847db6e6" d="M 0 0 
L 0 3.5 
" style="stroke: #000000; stroke-width: 0.8"/>
      </defs>
      <g>
       <use xlink:href="#ma8847db6e6" x="28.104688" y="269.911219" style="stroke: #000000; stroke-width: 0.8"/>
      </g>
     </g>
     <g id="text_1">
      <!-- −40 -->
      <g transform="translate(17.552344 284.509656) scale(0.1 -0.1)">
       <defs>
        <path id="DejaVuSans-2212" d="M 678 2272 
L 4684 2272 
L 4684 1741 
L 678 1741 
L 678 2272 
z
" transform="scale(0.015625)"/>
        <path id="DejaVuSans-34" d="M 2419 4116 
L 825 1625 
L 2419 1625 
L 2419 4116 
z
M 2253 4666 
L 3047 4666 
L 3047 1625 
L 3713 1625 
L 3713 1100 
L 3047 1100 
L 3047 0 
L 2419 0 
L 2419 1100 
L 313 1100 
L 313 1709 
L 2253 4666 
z
" transform="scale(0.015625)"/>
        <path id="DejaVuSans-30" d="M 2034 4250 
Q 1547 4250 1301 3770 
Q 1056 3291 1056 2328 
Q 1056 1369 1301 889 
Q 1547 409 2034 409 
Q 2525 409 2770 889 
Q 3016 1369 3016 2328 
Q 3016 3291 2770 3770 
Q 2525 4250 2034 4250 
z
M 2034 4750 
Q 2819 4750 3233 4129 
Q 3647 3509 3647 2328 
Q 3647 1150 3233 529 
Q 2819 -91 2034 -91 
Q 1250 -91 836 529 
Q 422 1150 422 2328 
Q 422 3509 836 4129 
Q 1250 4750 2034 4750 
z
" transform="scale(0.015625)"/>
       </defs>
       <use xlink:href="#DejaVuSans-2212"/>
       <use xlink:href="#DejaVuSans-34" x="83.789062"/>
       <use xlink:href="#DejaVuSans-30" x="147.412109"/>
      </g>
     </g>
    </g>
    <g id="xtick_2">
     <g id="line2d_2">
      <g>
       <use xlink:href="#ma8847db6e6" x="61.368688" y="269.911219" style="stroke: #000000; stroke-width: 0.8"/>
      </g>
     </g>
     <g id="text_2">
      <!-- −30 -->
      <g transform="translate(50.816344 284.509656) scale(0.1 -0.1)">
       <defs>
        <path id="DejaVuSans-33" d="M 2597 2516 
Q 3050 2419 3304 2112 
Q 3559 1806 3559 1356 
Q 3559 666 3084 287 
Q 2609 -91 1734 -91 
Q 1441 -91 1130 -33 
Q 819 25 488 141 
L 488 750 
Q 750 597 1062 519 
Q 1375 441 1716 441 
Q 2309 441 2620 675 
Q 2931 909 2931 1356 
Q 2931 1769 2642 2001 
Q 2353 2234 1838 2234 
L 1294 2234 
L 1294 2753 
L 1863 2753 
Q 2328 2753 2575 2939 
Q 2822 3125 2822 3475 
Q 2822 3834 2567 4026 
Q 2313 4219 1838 4219 
Q 1578 4219 1281 4162 
Q 984 4106 628 3988 
L 628 4550 
Q 988 4650 1302 4700 
Q 1616 4750 1894 4750 
Q 2613 4750 3031 4423 
Q 3450 4097 3450 3541 
Q 3450 3153 3228 2886 
Q 3006 2619 2597 2516 
z
" transform="scale(0.015625)"/>
       </defs>
       <use xlink:href="#DejaVuSans-2212"/>
       <use xlink:href="#DejaVuSans-33" x="83.789062"/>
       <use xlink:href="#DejaVuSans-30" x="147.412109"/>
      </g>
     </g>
    </g>
    <g id="xtick_3">
     <g id="line2d_3">
      <g>
       <use xlink:href="#ma8847db6e6" x="94.632688" y="269.911219" style="stroke: #000000; stroke-width: 0.8"/>
      </g>
     </g>
     <g id="text_3">
      <!-- −20 -->
      <g transform="translate(84.080344 284.509656) scale(0.1 -0.1)">
       <defs>
        <path id="DejaVuSans-32" d="M 1228 531 
L 3431 531 
L 3431 0 
L 469 0 
L 469 531 
Q 828 903 1448 1529 
Q 2069 2156 2228 2338 
Q 2531 2678 2651 2914 
Q 2772 3150 2772 3378 
Q 2772 3750 2511 3984 
Q 2250 4219 1831 4219 
Q 1534 4219 1204 4116 
Q 875 4013 500 3803 
L 500 4441 
Q 881 4594 1212 4672 
Q 1544 4750 1819 4750 
Q 2544 4750 2975 4387 
Q 3406 4025 3406 3419 
Q 3406 3131 3298 2873 
Q 3191 2616 2906 2266 
Q 2828 2175 2409 1742 
Q 1991 1309 1228 531 
z
" transform="scale(0.015625)"/>
       </defs>
       <use xlink:href="#DejaVuSans-2212"/>
       <use xlink:href="#DejaVuSans-32" x="83.789062"/>
       <use xlink:href="#DejaVuSans-30" x="147.412109"/>
      </g>
     </g>
    </g>
    <g id="xtick_4">
     <g id="line2d_4">
      <g>
       <use xlink:href="#ma8847db6e6" x="127.896687" y="269.911219" style="stroke: #000000; stroke-width: 0.8"/>
      </g>
     </g>
     <g id="text_4">
      <!-- −10 -->
      <g transform="translate(117.344344 284.509656) scale(0.1 -0.1)">
       <defs>
        <path id="DejaVuSans-31" d="M 794 531 
L 1825 531 
L 1825 4091 
L 703 3866 
L 703 4441 
L 1819 4666 
L 2450 4666 
L 2450 531 
L 3481 531 
L 3481 0 
L 794 0 
L 794 531 
z
" transform="scale(0.015625)"/>
       </defs>
       <use xlink:href="#DejaVuSans-2212"/>
       <use xlink:href="#DejaVuSans-31" x="83.789062"/>
       <use xlink:href="#DejaVuSans-30" x="147.412109"/>
      </g>
     </g>
    </g>
    <g id="xtick_5">
     <g id="line2d_5">
      <g>
       <use xlink:href="#ma8847db6e6" x="161.160687" y="269.911219" style="stroke: #000000; stroke-width: 0.8"/>
      </g>
     </g>
     <g id="text_5">
      <!-- 0 -->
      <g transform="translate(157.979437 284.509656) scale(0.1 -0.1)">
       <use xlink:href="#DejaVuSans-30"/>
      </g>
     </g>
    </g>
    <g id="xtick_6">
     <g id="line2d_6">
      <g>
       <use xlink:href="#ma8847db6e6" x="194.424688" y="269.911219" style="stroke: #000000; stroke-width: 0.8"/>
      </g>
     </g>
     <g id="text_6">
      <!-- 10 -->
      <g transform="translate(188.062187 284.509656) scale(0.1 -0.1)">
       <use xlink:href="#DejaVuSans-31"/>
       <use xlink:href="#DejaVuSans-30" x="63.623047"/>
      </g>
     </g>
    </g>
    <g id="xtick_7">
     <g id="line2d_7">
      <g>
       <use xlink:href="#ma8847db6e6" x="227.688687" y="269.911219" style="stroke: #000000; stroke-width: 0.8"/>
      </g>
     </g>
     <g id="text_7">
      <!-- 20 -->
      <g transform="translate(221.326187 284.509656) scale(0.1 -0.1)">
       <use xlink:href="#DejaVuSans-32"/>
       <use xlink:href="#DejaVuSans-30" x="63.623047"/>
      </g>
     </g>
    </g>
    <g id="xtick_8">
     <g id="line2d_8">
      <g>
       <use xlink:href="#ma8847db6e6" x="260.952687" y="269.911219" style="stroke: #000000; stroke-width: 0.8"/>
      </g>
     </g>
     <g id="text_8">
      <!-- 30 -->
      <g transform="translate(254.590187 284.509656) scale(0.1 -0.1)">
       <use xlink:href="#DejaVuSans-33"/>
       <use xlink:href="#DejaVuSans-30" x="63.623047"/>
      </g>
     </g>
    </g>
    <g id="xtick_9">
     <g id="line2d_9">
      <g>
       <use xlink:href="#ma8847db6e6" x="294.216687" y="269.911219" style="stroke: #000000; stroke-width: 0.8"/>
      </g>
     </g>
     <g id="text_9">
      <!-- 40 -->
      <g transform="translate(287.854187 284.509656) scale(0.1 -0.1)">
       <use xlink:href="#DejaVuSans-34"/>
       <use xlink:href="#DejaVuSans-30" x="63.623047"/>
      </g>
     </g>
    </g>
   </g>
   <g id="matplotlib.axis_2">
    <g id="ytick_1">
     <g id="line2d_10">
      <defs>
       <path id="m7d78e16a52" d="M 0 0 
L -3.5 0 
" style="stroke: #000000; stroke-width: 0.8"/>
      </defs>
      <g>
       <use xlink:href="#m7d78e16a52" x="28.104688" y="269.911219" style="stroke: #000000; stroke-width: 0.8"/>
      </g>
     </g>
     <g id="text_10">
      <!-- −40 -->
      <g transform="translate(0 273.710437) scale(0.1 -0.1)">
       <use xlink:href="#DejaVuSans-2212"/>
       <use xlink:href="#DejaVuSans-34" x="83.789062"/>
       <use xlink:href="#DejaVuSans-30" x="147.412109"/>
      </g>
     </g>
    </g>
    <g id="ytick_2">
     <g id="line2d_11">
      <g>
       <use xlink:href="#m7d78e16a52" x="28.104688" y="236.647219" style="stroke: #000000; stroke-width: 0.8"/>
      </g>
     </g>
     <g id="text_11">
      <!-- −30 -->
      <g transform="translate(0 240.446437) scale(0.1 -0.1)">
       <use xlink:href="#DejaVuSans-2212"/>
       <use xlink:href="#DejaVuSans-33" x="83.789062"/>
       <use xlink:href="#DejaVuSans-30" x="147.412109"/>
      </g>
     </g>
    </g>
    <g id="ytick_3">
     <g id="line2d_12">
      <g>
       <use xlink:href="#m7d78e16a52" x="28.104688" y="203.383219" style="stroke: #000000; stroke-width: 0.8"/>
      </g>
     </g>
     <g id="text_12">
      <!-- −20 -->
      <g transform="translate(0 207.182437) scale(0.1 -0.1)">
       <use xlink:href="#DejaVuSans-2212"/>
       <use xlink:href="#DejaVuSans-32" x="83.789062"/>
       <use xlink:href="#DejaVuSans-30" x="147.412109"/>
      </g>
     </g>
    </g>
    <g id="ytick_4">
     <g id="line2d_13">
      <g>
       <use xlink:href="#m7d78e16a52" x="28.104688" y="170.119219" style="stroke: #000000; stroke-width: 0.8"/>
      </g>
     </g>
     <g id="text_13">
      <!-- −10 -->
      <g transform="translate(0 173.918437) scale(0.1 -0.1)">
       <use xlink:href="#DejaVuSans-2212"/>
       <use xlink:href="#DejaVuSans-31" x="83.789062"/>
       <use xlink:href="#DejaVuSans-30" x="147.412109"/>
      </g>
     </g>
    </g>
    <g id="ytick_5">
     <g id="line2d_14">
      <g>
       <use xlink:href="#m7d78e16a52" x="28.104688" y="136.855219" style="stroke: #000000; stroke-width: 0.8"/>
      </g>
     </g>
     <g id="text_14">
      <!-- 0 -->
      <g transform="translate(14.742188 140.654437) scale(0.1 -0.1)">
       <use xlink:href="#DejaVuSans-30"/>
      </g>
     </g>
    </g>
    <g id="ytick_6">
     <g id="line2d_15">
      <g>
       <use xlink:href="#m7d78e16a52" x="28.104688" y="103.591219" style="stroke: #000000; stroke-width: 0.8"/>
      </g>
     </g>
     <g id="text_15">
      <!-- 10 -->
      <g transform="translate(8.379688 107.390437) scale(0.1 -0.1)">
       <use xlink:href="#DejaVuSans-31"/>
       <use xlink:href="#DejaVuSans-30" x="63.623047"/>
      </g>
     </g>
    </g>
    <g id="ytick_7">
     <g id="line2d_16">
      <g>
       <use xlink:href="#m7d78e16a52" x="28.104688" y="70.327219" style="stroke: #000000; stroke-width: 0.8"/>
      </g>
     </g>
     <g id="text_16">
      <!-- 20 -->
      <g transform="translate(8.379688 74.126437) scale(0.1 -0.1)">
       <use xlink:href="#DejaVuSans-32"/>
       <use xlink:href="#DejaVuSans-30" x="63.623047"/>
      </g>
     </g>
    </g>
    <g id="ytick_8">
     <g id="line2d_17">
      <g>
       <use xlink:href="#m7d78e16a52" x="28.104688" y="37.063219" style="stroke: #000000; stroke-width: 0.8"/>
      </g>
     </g>
     <g id="text_17">
      <!-- 30 -->
      <g transform="translate(8.379688 40.862437) scale(0.1 -0.1)">
       <use xlink:href="#DejaVuSans-33"/>
       <use xlink:href="#DejaVuSans-30" x="63.623047"/>
      </g>
     </g>
    </g>
    <g id="ytick_9">
     <g id="line2d_18">
      <g>
       <use xlink:href="#m7d78e16a52" x="28.104688" y="3.799219" style="stroke: #000000; stroke-width: 0.8"/>
      </g>
     </g>
     <g id="text_18">
      <!-- 40 -->
      <g transform="translate(8.379688 7.598437) scale(0.1 -0.1)">
       <use xlink:href="#DejaVuSans-34"/>
       <use xlink:href="#DejaVuSans-30" x="63.623047"/>
      </g>
     </g>
    </g>
   </g>
   <g id="line2d_19">
    <path d="M 175.297888 250.784419 
L 175.297888 150.992419 
" clip-path="url(#p9b3dbe2b56)" style="fill: none; stroke: #000000; stroke-width: 0.25; stroke-linecap: square"/>
   </g>
   <g id="line2d_20">
    <path d="M 175.297888 150.992419 
L 275.089887 150.992419 
" clip-path="url(#p9b3dbe2b56)" style="fill: none; stroke: #000000; stroke-width: 0.25; stroke-linecap: square"/>
   </g>
   <g id="line2d_21">
    <path d="M 275.089887 122.718019 
L 175.297888 122.718019 
" clip-path="url(#p9b3dbe2b56)" style="fill: none; stroke: #000000; stroke-width: 0.25; stroke-linecap: square"/>
   </g>
   <g id="line2d_22">
    <path d="M 175.297888 122.718019 
L 175.297888 22.926019 
" clip-path="url(#p9b3dbe2b56)" style="fill: none; stroke: #000000; stroke-width: 0.25; stroke-linecap: square"/>
   </g>
   <g id="line2d_23">
    <path d="M 147.023487 22.926019 
L 147.023487 122.718019 
" clip-path="url(#p9b3dbe2b56)" style="fill: none; stroke: #000000; stroke-width: 0.25; stroke-linecap: square"/>
   </g>
   <g id="line2d_24">
    <path d="M 147.023487 122.718019 
L 47.231488 122.718019 
" clip-path="url(#p9b3dbe2b56)" style="fill: none; stroke: #000000; stroke-width: 0.25; stroke-linecap: square"/>
   </g>
   <g id="line2d_25">
    <path d="M 47.231488 150.992419 
L 147.023487 150.992419 
" clip-path="url(#p9b3dbe2b56)" style="fill: none; stroke: #000000; stroke-width: 0.25; stroke-linecap: square"/>
   </g>
   <g id="line2d_26">
    <path d="M 147.023487 150.992419 
L 147.023487 250.784419 
" clip-path="url(#p9b3dbe2b56)" style="fill: none; stroke: #000000; stroke-width: 0.25; stroke-linecap: square"/>
   </g>
   <g id="line2d_27">
    <path d="M 175.297888 136.855219 
L 275.089887 136.855219 
" clip-path="url(#p9b3dbe2b56)" style="fill: none; stroke-dasharray: 0.925,0.4; stroke-dashoffset: 0; stroke: #000000; stroke-width: 0.25"/>
   </g>
   <g id="line2d_28">
    <path d="M 161.160687 122.718019 
L 161.160687 22.926019 
" clip-path="url(#p9b3dbe2b56)" style="fill: none; stroke-dasharray: 0.925,0.4; stroke-dashoffset: 0; stroke: #000000; stroke-width: 0.25"/>
   </g>
   <g id="line2d_29">
    <path d="M 147.023487 136.855219 
L 47.231488 136.855219 
" clip-path="url(#p9b3dbe2b56)" style="fill: none; stroke-dasharray: 0.925,0.4; stroke-dashoffset: 0; stroke: #000000; stroke-width: 0.25"/>
   </g>
   <g id="line2d_30">
    <path d="M 161.160687 150.992419 
L 161.160687 250.784419 
" clip-path="url(#p9b3dbe2b56)" style="fill: none; stroke-dasharray: 0.925,0.4; stroke-dashoffset: 0; stroke: #000000; stroke-width: 0.25"/>
   </g>
   <g id="line2d_31">
    <path d="M 43.299537 130.999407 
L 41.626394 130.999403 
L 39.953266 130.999397 
L 38.280152 130.999394 
L 36.607053 130.999391 
L 34.933967 130.99939 
L 33.260895 130.999389 
L 31.587836 130.999389 
L 29.914789 130.99939 
L 28.241752 130.99939 
L 26.568726 130.999391 
L 24.895708 130.999392 
L 23.222698 130.999393 
L 21.549695 130.999394 
L 19.876698 130.999395 
L 18.203706 130.999395 
L 16.530719 130.999396 
L 14.857736 130.999397 
L 13.184755 130.999397 
L 11.511778 130.999398 
L 9.838802 130.999398 
L 8.165828 130.999398 
L 6.492855 130.999398 
L 4.819883 130.999399 
L 3.146912 130.999399 
L 1.473942 130.999399 
L -0.199029 130.999399 
L -1 130.999399 
" clip-path="url(#p9b3dbe2b56)" style="fill: none; stroke: #ff0000; stroke-width: 0.25; stroke-linecap: square"/>
   </g>
   <g id="line2d_32">
    <path d="M 167.016496 14.193693 
L 167.016501 12.643545 
L 167.016506 11.093369 
L 167.01651 9.543169 
L 167.016512 7.992945 
L 167.016514 6.442701 
L 167.016515 4.892437 
L 167.016516 3.342157 
L 167.016516 1.791862 
L 167.016515 0.241554 
L 167.016515 -1 
" clip-path="url(#p9b3dbe2b56)" style="fill: none; stroke: #ff0000; stroke-width: 0.25; stroke-linecap: square"/>
   </g>
   <g id="line2d_33">
    <path d="M 155.304884 253.424782 
L 155.304877 255.076749 
L 155.30487 256.728718 
L 155.304865 258.380691 
L 155.304861 260.032671 
L 155.304859 261.684659 
L 155.304858 263.336656 
L 155.304857 264.988662 
L 155.304857 266.640678 
L 155.304858 268.292704 
L 155.304858 269.94474 
L 155.304859 271.596785 
L 155.30486 273.248839 
L 155.304861 274.900901 
L 155.304862 276.552971 
L 155.304863 278.205049 
L 155.304864 279.857132 
L 155.304865 281.509222 
L 155.304865 283.161317 
L 155.304866 284.813416 
L 155.304866 286.465519 
L 155.304867 287.589344 
" clip-path="url(#p9b3dbe2b56)" style="fill: none; stroke: #ff0000; stroke-width: 0.25; stroke-linecap: square"/>
   </g>
   <g id="line2d_34">
    <path d="M 277.730017 142.711041 
L 279.38202 142.711041 
L 281.034022 142.711041 
L 282.686025 142.711041 
L 284.338032 142.711041 
L 285.990044 142.711041 
L 287.642062 142.711041 
L 289.294086 142.711041 
L 290.946118 142.711041 
L 292.598158 142.71104 
L 294.250204 142.71104 
L 295.902259 142.71104 
L 297.55432 142.71104 
L 299.206388 142.71104 
L 300.858462 142.711039 
L 301.579188 142.711039 
" clip-path="url(#p9b3dbe2b56)" style="fill: none; stroke: #ff0000; stroke-width: 0.25; stroke-linecap: square"/>
   </g>
   <g id="line2d_35">
    <path d="M 167.01521 63.357035 
L 167.015435 61.693536 
L 167.015588 60.030126 
L 167.015735 58.367014 
L 167.015871 56.704365 
L 167.015993 55.042302 
L 167.016101 53.380914 
L 167.016194 51.720259 
L 167.016272 50.060369 
L 167.016338 48.401253 
L 167.016391 46.742906 
L 167.016433 45.085306 
L 167.016466 43.428421 
L 167.016491 41.77221 
L 167.016509 40.116626 
L 167.016522 38.461621 
L 167.016531 36.80714 
L 167.016536 35.153132 
L 167.016538 33.499544 
L 167.016539 31.846325 
L 167.016538 30.193425 
L 167.016536 28.5408 
L 167.016533 26.888406 
L 167.01653 25.236204 
L 167.016527 23.584158 
L 167.016524 21.932236 
L 167.016521 20.280408 
L 167.016518 18.628651 
L 167.016515 16.976941 
L 167.016512 15.325261 
L 167.01651 13.673594 
" clip-path="url(#p9b3dbe2b56)" style="fill: none; stroke: #ff0000; stroke-width: 0.25; stroke-linecap: square"/>
   </g>
   <g id="line2d_36">
    <path d="M 87.585963 131.001915 
L 85.928998 131.001457 
L 84.272281 131.001129 
L 82.615856 131.000826 
L 80.959754 131.000552 
L 79.303995 131.000311 
L 77.648585 131.000103 
L 75.993525 130.999927 
L 74.338806 130.999781 
L 72.684417 130.999662 
L 71.03034 130.999567 
L 69.376556 130.999493 
L 67.723041 130.999437 
L 66.069774 130.999395 
L 64.41673 130.999366 
L 62.763887 130.999347 
L 61.11122 130.999336 
L 59.458709 130.99933 
L 57.806333 130.999329 
L 56.154071 130.999331 
L 54.501908 130.999335 
L 52.849825 130.999341 
L 51.19781 130.999347 
L 49.545848 130.999354 
L 47.89393 130.999361 
L 46.242044 130.999367 
L 44.590183 130.999374 
L 42.93834 130.99938 
L 41.286509 130.999386 
L 39.634685 130.999391 
L 37.982865 130.999397 
" clip-path="url(#p9b3dbe2b56)" style="fill: none; stroke: #ff0000; stroke-width: 0.25; stroke-linecap: square"/>
   </g>
   <g id="line2d_37">
    <path d="M 235.469906 142.710789 
L 237.146625 142.710866 
L 238.823666 142.710946 
L 240.500886 142.711007 
L 242.178165 142.711051 
L 243.855405 142.711081 
L 245.532528 142.7111 
L 247.209472 142.711112 
L 248.886192 142.711116 
L 250.562656 142.711116 
L 252.238842 142.711113 
L 253.914739 142.711108 
L 255.590344 142.711101 
L 257.26566 142.711094 
L 258.940698 142.711086 
L 260.615468 142.711079 
L 262.289988 142.711072 
L 263.964276 142.711066 
L 265.638353 142.71106 
L 267.312238 142.711056 
L 268.985953 142.711052 
L 270.659518 142.711048 
L 272.332955 142.711046 
L 274.006283 142.711043 
L 275.67952 142.711042 
L 277.352683 142.71104 
L 279.025789 142.711039 
L 280.698852 142.711038 
L 282.371886 142.711037 
L 284.0449 142.711036 
L 285.717906 142.711036 
" clip-path="url(#p9b3dbe2b56)" style="fill: none; stroke: #ff0000; stroke-width: 0.25; stroke-linecap: square"/>
   </g>
   <g id="line2d_38">
    <path d="M 166.995059 91.99112 
L 166.996768 90.633298 
L 166.99627 89.27511 
L 166.996528 87.916093 
L 166.997336 86.55589 
L 166.998526 85.194233 
L 166.999963 83.830938 
L 167.001538 82.465885 
L 167.003167 81.099017 
L 167.004787 79.730319 
L 167.00635 78.359821 
L 167.007821 76.987579 
L 167.00918 75.613676 
L 167.010413 74.238212 
L 167.011513 72.8613 
L 167.012481 71.483059 
L 167.01332 70.103613 
L 167.014038 68.723087 
L 167.014643 67.341603 
L 167.015146 65.95928 
L 167.015559 64.576231 
L 167.015894 63.192562 
L 167.016161 61.80837 
L 167.016373 60.423747 
L 167.016539 59.038773 
L 167.01667 57.653522 
L 167.016776 56.268059 
L 167.016865 54.88244 
L 167.016944 53.496714 
L 167.017022 52.110923 
L 167.017108 50.725102 
" clip-path="url(#p9b3dbe2b56)" style="fill: none; stroke: #ff0000; stroke-width: 0.25; stroke-linecap: square"/>
   </g>
   <g id="line2d_39">
    <path d="M 196.952667 142.459766 
L 198.4834 142.512706 
L 200.019322 142.55896 
L 201.559739 142.597942 
L 203.10397 142.630234 
L 204.651388 142.656502 
L 206.201423 142.677447 
L 207.753568 142.693774 
L 209.307371 142.706164 
L 210.862439 142.715254 
L 212.41843 142.721628 
L 213.975052 142.725811 
L 215.532063 142.728262 
L 217.089257 142.729377 
L 218.646473 142.729492 
L 220.203578 142.728886 
L 221.760475 142.727787 
L 223.317091 142.726376 
L 224.873379 142.724795 
L 226.429311 142.72315 
L 227.984876 142.721519 
L 229.540081 142.719954 
L 231.094941 142.718488 
L 232.649484 142.717139 
L 234.203743 142.715911 
L 235.757758 142.714797 
L 237.311572 142.713785 
L 238.86523 142.712856 
L 240.418774 142.711988 
L 241.972248 142.711156 
L 243.525689 142.710333 
" clip-path="url(#p9b3dbe2b56)" style="fill: none; stroke: #ff0000; stroke-width: 0.25; stroke-linecap: square"/>
   </g>
   <g id="line2d_40">
    <path d="M 155.307133 194.285623 
L 155.306476 196.191473 
L 155.30589 198.106019 
L 155.305439 200.028537 
L 155.305104 201.958277 
L 155.304864 203.894492 
L 155.304702 205.836443 
L 155.3046 207.783423 
L 155.304544 209.734755 
L 155.304523 211.68981 
L 155.304527 213.648003 
L 155.304547 215.608802 
L 155.304577 217.571727 
L 155.304613 219.536351 
L 155.30465 221.502298 
L 155.304687 223.469242 
L 155.304722 225.436908 
L 155.304753 227.405062 
L 155.30478 229.373514 
L 155.304802 231.34211 
L 155.304821 233.310735 
L 155.304836 235.279301 
L 155.304848 237.247749 
L 155.304857 239.216044 
L 155.304863 241.184171 
L 155.304868 243.152129 
L 155.304871 245.119935 
L 155.304873 247.087612 
L 155.304875 249.05519 
L 155.304876 251.022704 
L 155.304877 252.990187 
" clip-path="url(#p9b3dbe2b56)" style="fill: none; stroke: #ff0000; stroke-width: 0.25; stroke-linecap: square"/>
   </g>
   <g id="line2d_41">
    <path d="M 125.394483 131.361046 
L 123.85994 131.284357 
L 122.320396 131.217222 
L 120.776559 131.160752 
L 119.229165 131.114072 
L 117.678876 131.076191 
L 116.126282 131.046066 
L 114.571898 131.022654 
L 113.016171 131.004953 
L 111.459483 130.992025 
L 109.902156 130.983015 
L 108.344457 130.977159 
L 106.786608 130.973788 
L 105.228785 130.972327 
L 103.671126 130.97229 
L 102.113737 130.973274 
L 100.556693 130.974953 
L 99.000045 130.977065 
L 97.443821 130.979408 
L 95.888031 130.981831 
L 94.332669 130.984223 
L 92.777717 130.986511 
L 91.223145 130.988647 
L 89.668918 130.99061 
L 88.114991 130.992394 
L 86.56132 130.99401 
L 85.007856 130.995477 
L 83.454551 130.996823 
L 81.901356 130.998082 
L 80.348229 130.999291 
L 78.79513 131.000486 
" clip-path="url(#p9b3dbe2b56)" style="fill: none; stroke: #ff0000; stroke-width: 0.25; stroke-linecap: square"/>
   </g>
   <g id="line2d_42">
    <path d="M 155.716816 172.493453 
L 155.617624 174.095682 
L 155.530277 175.691356 
L 155.459327 177.281025 
L 155.402839 178.864936 
L 155.358841 180.443425 
L 155.325432 182.01689 
L 155.300842 183.585774 
L 155.283468 185.150541 
L 155.271892 186.71166 
L 155.264882 188.269593 
L 155.26139 189.824781 
L 155.260534 191.377637 
L 155.261588 192.928543 
L 155.263963 194.477845 
L 155.267187 196.025851 
L 155.270893 197.572832 
L 155.274804 199.119024 
L 155.278714 200.664625 
L 155.282481 202.209803 
L 155.286009 203.754692 
L 155.289244 205.299401 
L 155.292162 206.844011 
L 155.294765 208.388584 
L 155.297071 209.933159 
L 155.299114 211.477762 
L 155.300936 213.022404 
L 155.302586 214.567085 
L 155.304119 216.111799 
L 155.30559 217.656534 
L 155.307055 219.20128 
" clip-path="url(#p9b3dbe2b56)" style="fill: none; stroke: #ff0000; stroke-width: 0.25; stroke-linecap: square"/>
   </g>
   <g id="patch_15">
    <path d="M 28.104688 269.911219 
L 28.104688 3.799219 
" style="fill: none; stroke: #000000; stroke-width: 0.8; stroke-linejoin: miter; stroke-linecap: square"/>
   </g>
   <g id="patch_16">
    <path d="M 294.216687 269.911219 
L 294.216687 3.799219 
" style="fill: none; stroke: #000000; stroke-width: 0.8; stroke-linejoin: miter; stroke-linecap: square"/>
   </g>
   <g id="patch_17">
    <path d="M 28.104688 269.911219 
L 294.216687 269.911219 
" style="fill: none; stroke: #000000; stroke-width: 0.8; stroke-linejoin: miter; stroke-linecap: square"/>
   </g>
   <g id="patch_18">
    <path d="M 28.104688 3.799219 
L 294.216687 3.799219 
" style="fill: none; stroke: #000000; stroke-width: 0.8; stroke-linejoin: miter; stroke-linecap: square"/>
   </g>
   <g id="text_19">
    <!-- Time: 10.1 s -->
    <g transform="translate(192.6327 17.104819) scale(0.1 -0.1)">
     <defs>
      <path id="DejaVuSans-54" d="M -19 4666 
L 3928 4666 
L 3928 4134 
L 2272 4134 
L 2272 0 
L 1638 0 
L 1638 4134 
L -19 4134 
L -19 4666 
z
" transform="scale(0.015625)"/>
      <path id="DejaVuSans-69" d="M 603 3500 
L 1178 3500 
L 1178 0 
L 603 0 
L 603 3500 
z
M 603 4863 
L 1178 4863 
L 1178 4134 
L 603 4134 
L 603 4863 
z
" transform="scale(0.015625)"/>
      <path id="DejaVuSans-6d" d="M 3328 2828 
Q 3544 3216 3844 3400 
Q 4144 3584 4550 3584 
Q 5097 3584 5394 3201 
Q 5691 2819 5691 2113 
L 5691 0 
L 5113 0 
L 5113 2094 
Q 5113 2597 4934 2840 
Q 4756 3084 4391 3084 
Q 3944 3084 3684 2787 
Q 3425 2491 3425 1978 
L 3425 0 
L 2847 0 
L 2847 2094 
Q 2847 2600 2669 2842 
Q 2491 3084 2119 3084 
Q 1678 3084 1418 2786 
Q 1159 2488 1159 1978 
L 1159 0 
L 581 0 
L 581 3500 
L 1159 3500 
L 1159 2956 
Q 1356 3278 1631 3431 
Q 1906 3584 2284 3584 
Q 2666 3584 2933 3390 
Q 3200 3197 3328 2828 
z
" transform="scale(0.015625)"/>
      <path id="DejaVuSans-65" d="M 3597 1894 
L 3597 1613 
L 953 1613 
Q 991 1019 1311 708 
Q 1631 397 2203 397 
Q 2534 397 2845 478 
Q 3156 559 3463 722 
L 3463 178 
Q 3153 47 2828 -22 
Q 2503 -91 2169 -91 
Q 1331 -91 842 396 
Q 353 884 353 1716 
Q 353 2575 817 3079 
Q 1281 3584 2069 3584 
Q 2775 3584 3186 3129 
Q 3597 2675 3597 1894 
z
M 3022 2063 
Q 3016 2534 2758 2815 
Q 2500 3097 2075 3097 
Q 1594 3097 1305 2825 
Q 1016 2553 972 2059 
L 3022 2063 
z
" transform="scale(0.015625)"/>
      <path id="DejaVuSans-3a" d="M 750 794 
L 1409 794 
L 1409 0 
L 750 0 
L 750 794 
z
M 750 3309 
L 1409 3309 
L 1409 2516 
L 750 2516 
L 750 3309 
z
" transform="scale(0.015625)"/>
      <path id="DejaVuSans-20" transform="scale(0.015625)"/>
      <path id="DejaVuSans-2e" d="M 684 794 
L 1344 794 
L 1344 0 
L 684 0 
L 684 794 
z
" transform="scale(0.015625)"/>
      <path id="DejaVuSans-73" d="M 2834 3397 
L 2834 2853 
Q 2591 2978 2328 3040 
Q 2066 3103 1784 3103 
Q 1356 3103 1142 2972 
Q 928 2841 928 2578 
Q 928 2378 1081 2264 
Q 1234 2150 1697 2047 
L 1894 2003 
Q 2506 1872 2764 1633 
Q 3022 1394 3022 966 
Q 3022 478 2636 193 
Q 2250 -91 1575 -91 
Q 1294 -91 989 -36 
Q 684 19 347 128 
L 347 722 
Q 666 556 975 473 
Q 1284 391 1588 391 
Q 1994 391 2212 530 
Q 2431 669 2431 922 
Q 2431 1156 2273 1281 
Q 2116 1406 1581 1522 
L 1381 1569 
Q 847 1681 609 1914 
Q 372 2147 372 2553 
Q 372 3047 722 3315 
Q 1072 3584 1716 3584 
Q 2034 3584 2315 3537 
Q 2597 3491 2834 3397 
z
" transform="scale(0.015625)"/>
     </defs>
     <use xlink:href="#DejaVuSans-54"/>
     <use xlink:href="#DejaVuSans-69" x="57.958984"/>
     <use xlink:href="#DejaVuSans-6d" x="85.742188"/>
     <use xlink:href="#DejaVuSans-65" x="183.154297"/>
     <use xlink:href="#DejaVuSans-3a" x="244.677734"/>
     <use xlink:href="#DejaVuSans-20" x="278.369141"/>
     <use xlink:href="#DejaVuSans-31" x="310.15625"/>
     <use xlink:href="#DejaVuSans-30" x="373.779297"/>
     <use xlink:href="#DejaVuSans-2e" x="437.402344"/>
     <use xlink:href="#DejaVuSans-31" x="469.189453"/>
     <use xlink:href="#DejaVuSans-20" x="532.8125"/>
     <use xlink:href="#DejaVuSans-73" x="564.599609"/>
    </g>
   </g>
  </g>
 </g>
 <defs>
  <clipPath id="p9b3dbe2b56">
   <rect x="28.104688" y="3.799219" width="266.112" height="266.112"/>
  </clipPath>
 </defs>
</svg>
