<?xml version="1.0" encoding="utf-8" standalone="no"?>
<!DOCTYPE svg PUBLIC "-//W3C//DTD SVG 1.1//EN"
  "http://www.w3.org/Graphics/SVG/1.1/DTD/svg11.dtd">
<svg xmlns:xlink="http://www.w3.org/1999/xlink" width="300.579188pt" height="286.589344pt" viewBox="0 0 300.579188 286.589344" xmlns="http://www.w3.org/2000/svg" version="1.1">
 <metadata>
  <rdf:RDF xmlns:dc="http://purl.org/dc/elements/1.1/" xmlns:cc="http://creativecommons.org/ns#" xmlns:rdf="http://www.w3.org/1999/02/22-rdf-syntax-ns#">
   <cc:Work>
    <dc:type rdf:resource="http://purl.org/dc/dcmitype/StillImage"/>
    <dc:date>2024-02-26T10:14:23.773813</dc:date>
    <dc:format>image/svg+xml</dc:format>
    <dc:creator>
     <cc:Agent>
      <dc:title>Matplotlib v3.8.2, https://matplotlib.org/</dc:title>
     </cc:Agent>
    </dc:creator>
   </cc:Work>
  </rdf:RDF>
 </metadata>
 <defs>
  <style type="text/css">*{stroke-linejoin: round; stroke-linecap: butt}</style>
 </defs>
 <g id="figure_1">
  <g id="patch_1">
   <path d="M 0 286.589344 
L 300.579188 286.589344 
L 300.579188 0 
L 0 0 
z
" style="fill: #ffffff"/>
  </g>
  <g id="axes_1">
   <g id="patch_2">
    <path d="M 28.104688 269.911219 
L 294.216687 269.911219 
L 294.216687 3.799219 
L 28.104688 3.799219 
z
" style="fill: #ffffff"/>
   </g>
   <g id="patch_3">
    <path d="M 17.332978 128.171958 
L 5.690578 128.171959 
L 5.690579 133.826839 
L 17.332979 133.826838 
z
" clip-path="url(#p638434d4cf)" style="fill: #00008b"/>
   </g>
   <g id="patch_4">
    <path d="M 169.843948 -9.440702 
L 169.843948 -21.083102 
L 164.189068 -21.083102 
L 164.189068 -9.440702 
z
" clip-path="url(#p638434d4cf)" style="fill: #800000"/>
   </g>
   <g id="patch_5">
    <path d="M 152.477427 278.992214 
L 152.477427 290.634614 
L 158.132307 290.634614 
L 158.132307 278.992214 
z
" clip-path="url(#p638434d4cf)" style="fill: #006400"/>
   </g>
   <g id="patch_6">
    <path d="M 303.297711 145.538479 
L 314.940111 145.538479 
L 314.94011 139.883599 
L 303.29771 139.883599 
z
" clip-path="url(#p638434d4cf)" style="fill: #4b0082"/>
   </g>
   <g id="patch_7">
    <path d="M 169.843916 37.667319 
L 169.84398 26.024919 
L 164.1891 26.024888 
L 164.189036 37.667288 
z
" clip-path="url(#p638434d4cf)" style="fill: #0000ff"/>
   </g>
   <g id="patch_8">
    <path d="M 61.975273 128.172015 
L 50.332873 128.171897 
L 50.332816 133.826777 
L 61.975216 133.826895 
z
" clip-path="url(#p638434d4cf)" style="fill: #ff0000"/>
   </g>
   <g id="patch_9">
    <path d="M 261.491222 145.538483 
L 273.133622 145.538482 
L 273.133621 139.883602 
L 261.491221 139.883603 
z
" clip-path="url(#p638434d4cf)" style="fill: #dbdc56"/>
   </g>
   <g id="patch_10">
    <path d="M 169.841827 71.781685 
L 169.844849 60.139285 
L 164.189969 60.137818 
L 164.186947 71.780217 
z
" clip-path="url(#p638434d4cf)" style="fill: #9400d3"/>
   </g>
   <g id="patch_11">
    <path d="M 220.606705 145.534436 
L 232.2491 145.545711 
L 232.254576 139.890833 
L 220.612181 139.879559 
z
" clip-path="url(#p638434d4cf)" style="fill: #1e90ff"/>
   </g>
   <g id="patch_12">
    <path d="M 152.477402 225.522576 
L 152.477418 237.164976 
L 158.132298 237.164968 
L 158.132282 225.522568 
z
" clip-path="url(#p638434d4cf)" style="fill: #ff4500"/>
   </g>
   <g id="patch_13">
    <path d="M 101.71162 128.177305 
L 90.06923 128.16164 
L 90.061621 133.816515 
L 101.704011 133.83218 
z
" clip-path="url(#p638434d4cf)" style="fill: #7cfc00"/>
   </g>
   <g id="patch_14">
    <path d="M 152.479354 196.384614 
L 152.467139 208.027007 
L 158.122016 208.03294 
L 158.134231 196.390547 
z
" clip-path="url(#p638434d4cf)" style="fill: #ff00ff"/>
   </g>
   <g id="matplotlib.axis_1">
    <g id="xtick_1">
     <g id="line2d_1">
      <defs>
       <path id="mc8877eff89" d="M 0 0 
L 0 3.5 
" style="stroke: #000000; stroke-width: 0.8"/>
      </defs>
      <g>
       <use xlink:href="#mc8877eff89" x="28.104688" y="269.911219" style="stroke: #000000; stroke-width: 0.8"/>
      </g>
     </g>
     <g id="text_1">
      <!-- −40 -->
      <g transform="translate(17.552344 284.509656) scale(0.1 -0.1)">
       <defs>
        <path id="DejaVuSans-2212" d="M 678 2272 
L 4684 2272 
L 4684 1741 
L 678 1741 
L 678 2272 
z
" transform="scale(0.015625)"/>
        <path id="DejaVuSans-34" d="M 2419 4116 
L 825 1625 
L 2419 1625 
L 2419 4116 
z
M 2253 4666 
L 3047 4666 
L 3047 1625 
L 3713 1625 
L 3713 1100 
L 3047 1100 
L 3047 0 
L 2419 0 
L 2419 1100 
L 313 1100 
L 313 1709 
L 2253 4666 
z
" transform="scale(0.015625)"/>
        <path id="DejaVuSans-30" d="M 2034 4250 
Q 1547 4250 1301 3770 
Q 1056 3291 1056 2328 
Q 1056 1369 1301 889 
Q 1547 409 2034 409 
Q 2525 409 2770 889 
Q 3016 1369 3016 2328 
Q 3016 3291 2770 3770 
Q 2525 4250 2034 4250 
z
M 2034 4750 
Q 2819 4750 3233 4129 
Q 3647 3509 3647 2328 
Q 3647 1150 3233 529 
Q 2819 -91 2034 -91 
Q 1250 -91 836 529 
Q 422 1150 422 2328 
Q 422 3509 836 4129 
Q 1250 4750 2034 4750 
z
" transform="scale(0.015625)"/>
       </defs>
       <use xlink:href="#DejaVuSans-2212"/>
       <use xlink:href="#DejaVuSans-34" x="83.789062"/>
       <use xlink:href="#DejaVuSans-30" x="147.412109"/>
      </g>
     </g>
    </g>
    <g id="xtick_2">
     <g id="line2d_2">
      <g>
       <use xlink:href="#mc8877eff89" x="61.368688" y="269.911219" style="stroke: #000000; stroke-width: 0.8"/>
      </g>
     </g>
     <g id="text_2">
      <!-- −30 -->
      <g transform="translate(50.816344 284.509656) scale(0.1 -0.1)">
       <defs>
        <path id="DejaVuSans-33" d="M 2597 2516 
Q 3050 2419 3304 2112 
Q 3559 1806 3559 1356 
Q 3559 666 3084 287 
Q 2609 -91 1734 -91 
Q 1441 -91 1130 -33 
Q 819 25 488 141 
L 488 750 
Q 750 597 1062 519 
Q 1375 441 1716 441 
Q 2309 441 2620 675 
Q 2931 909 2931 1356 
Q 2931 1769 2642 2001 
Q 2353 2234 1838 2234 
L 1294 2234 
L 1294 2753 
L 1863 2753 
Q 2328 2753 2575 2939 
Q 2822 3125 2822 3475 
Q 2822 3834 2567 4026 
Q 2313 4219 1838 4219 
Q 1578 4219 1281 4162 
Q 984 4106 628 3988 
L 628 4550 
Q 988 4650 1302 4700 
Q 1616 4750 1894 4750 
Q 2613 4750 3031 4423 
Q 3450 4097 3450 3541 
Q 3450 3153 3228 2886 
Q 3006 2619 2597 2516 
z
" transform="scale(0.015625)"/>
       </defs>
       <use xlink:href="#DejaVuSans-2212"/>
       <use xlink:href="#DejaVuSans-33" x="83.789062"/>
       <use xlink:href="#DejaVuSans-30" x="147.412109"/>
      </g>
     </g>
    </g>
    <g id="xtick_3">
     <g id="line2d_3">
      <g>
       <use xlink:href="#mc8877eff89" x="94.632688" y="269.911219" style="stroke: #000000; stroke-width: 0.8"/>
      </g>
     </g>
     <g id="text_3">
      <!-- −20 -->
      <g transform="translate(84.080344 284.509656) scale(0.1 -0.1)">
       <defs>
        <path id="DejaVuSans-32" d="M 1228 531 
L 3431 531 
L 3431 0 
L 469 0 
L 469 531 
Q 828 903 1448 1529 
Q 2069 2156 2228 2338 
Q 2531 2678 2651 2914 
Q 2772 3150 2772 3378 
Q 2772 3750 2511 3984 
Q 2250 4219 1831 4219 
Q 1534 4219 1204 4116 
Q 875 4013 500 3803 
L 500 4441 
Q 881 4594 1212 4672 
Q 1544 4750 1819 4750 
Q 2544 4750 2975 4387 
Q 3406 4025 3406 3419 
Q 3406 3131 3298 2873 
Q 3191 2616 2906 2266 
Q 2828 2175 2409 1742 
Q 1991 1309 1228 531 
z
" transform="scale(0.015625)"/>
       </defs>
       <use xlink:href="#DejaVuSans-2212"/>
       <use xlink:href="#DejaVuSans-32" x="83.789062"/>
       <use xlink:href="#DejaVuSans-30" x="147.412109"/>
      </g>
     </g>
    </g>
    <g id="xtick_4">
     <g id="line2d_4">
      <g>
       <use xlink:href="#mc8877eff89" x="127.896687" y="269.911219" style="stroke: #000000; stroke-width: 0.8"/>
      </g>
     </g>
     <g id="text_4">
      <!-- −10 -->
      <g transform="translate(117.344344 284.509656) scale(0.1 -0.1)">
       <defs>
        <path id="DejaVuSans-31" d="M 794 531 
L 1825 531 
L 1825 4091 
L 703 3866 
L 703 4441 
L 1819 4666 
L 2450 4666 
L 2450 531 
L 3481 531 
L 3481 0 
L 794 0 
L 794 531 
z
" transform="scale(0.015625)"/>
       </defs>
       <use xlink:href="#DejaVuSans-2212"/>
       <use xlink:href="#DejaVuSans-31" x="83.789062"/>
       <use xlink:href="#DejaVuSans-30" x="147.412109"/>
      </g>
     </g>
    </g>
    <g id="xtick_5">
     <g id="line2d_5">
      <g>
       <use xlink:href="#mc8877eff89" x="161.160687" y="269.911219" style="stroke: #000000; stroke-width: 0.8"/>
      </g>
     </g>
     <g id="text_5">
      <!-- 0 -->
      <g transform="translate(157.979437 284.509656) scale(0.1 -0.1)">
       <use xlink:href="#DejaVuSans-30"/>
      </g>
     </g>
    </g>
    <g id="xtick_6">
     <g id="line2d_6">
      <g>
       <use xlink:href="#mc8877eff89" x="194.424688" y="269.911219" style="stroke: #000000; stroke-width: 0.8"/>
      </g>
     </g>
     <g id="text_6">
      <!-- 10 -->
      <g transform="translate(188.062187 284.509656) scale(0.1 -0.1)">
       <use xlink:href="#DejaVuSans-31"/>
       <use xlink:href="#DejaVuSans-30" x="63.623047"/>
      </g>
     </g>
    </g>
    <g id="xtick_7">
     <g id="line2d_7">
      <g>
       <use xlink:href="#mc8877eff89" x="227.688687" y="269.911219" style="stroke: #000000; stroke-width: 0.8"/>
      </g>
     </g>
     <g id="text_7">
      <!-- 20 -->
      <g transform="translate(221.326187 284.509656) scale(0.1 -0.1)">
       <use xlink:href="#DejaVuSans-32"/>
       <use xlink:href="#DejaVuSans-30" x="63.623047"/>
      </g>
     </g>
    </g>
    <g id="xtick_8">
     <g id="line2d_8">
      <g>
       <use xlink:href="#mc8877eff89" x="260.952687" y="269.911219" style="stroke: #000000; stroke-width: 0.8"/>
      </g>
     </g>
     <g id="text_8">
      <!-- 30 -->
      <g transform="translate(254.590187 284.509656) scale(0.1 -0.1)">
       <use xlink:href="#DejaVuSans-33"/>
       <use xlink:href="#DejaVuSans-30" x="63.623047"/>
      </g>
     </g>
    </g>
    <g id="xtick_9">
     <g id="line2d_9">
      <g>
       <use xlink:href="#mc8877eff89" x="294.216687" y="269.911219" style="stroke: #000000; stroke-width: 0.8"/>
      </g>
     </g>
     <g id="text_9">
      <!-- 40 -->
      <g transform="translate(287.854187 284.509656) scale(0.1 -0.1)">
       <use xlink:href="#DejaVuSans-34"/>
       <use xlink:href="#DejaVuSans-30" x="63.623047"/>
      </g>
     </g>
    </g>
   </g>
   <g id="matplotlib.axis_2">
    <g id="ytick_1">
     <g id="line2d_10">
      <defs>
       <path id="m80b2252b16" d="M 0 0 
L -3.5 0 
" style="stroke: #000000; stroke-width: 0.8"/>
      </defs>
      <g>
       <use xlink:href="#m80b2252b16" x="28.104688" y="269.911219" style="stroke: #000000; stroke-width: 0.8"/>
      </g>
     </g>
     <g id="text_10">
      <!-- −40 -->
      <g transform="translate(0 273.710437) scale(0.1 -0.1)">
       <use xlink:href="#DejaVuSans-2212"/>
       <use xlink:href="#DejaVuSans-34" x="83.789062"/>
       <use xlink:href="#DejaVuSans-30" x="147.412109"/>
      </g>
     </g>
    </g>
    <g id="ytick_2">
     <g id="line2d_11">
      <g>
       <use xlink:href="#m80b2252b16" x="28.104688" y="236.647219" style="stroke: #000000; stroke-width: 0.8"/>
      </g>
     </g>
     <g id="text_11">
      <!-- −30 -->
      <g transform="translate(0 240.446437) scale(0.1 -0.1)">
       <use xlink:href="#DejaVuSans-2212"/>
       <use xlink:href="#DejaVuSans-33" x="83.789062"/>
       <use xlink:href="#DejaVuSans-30" x="147.412109"/>
      </g>
     </g>
    </g>
    <g id="ytick_3">
     <g id="line2d_12">
      <g>
       <use xlink:href="#m80b2252b16" x="28.104688" y="203.383219" style="stroke: #000000; stroke-width: 0.8"/>
      </g>
     </g>
     <g id="text_12">
      <!-- −20 -->
      <g transform="translate(0 207.182437) scale(0.1 -0.1)">
       <use xlink:href="#DejaVuSans-2212"/>
       <use xlink:href="#DejaVuSans-32" x="83.789062"/>
       <use xlink:href="#DejaVuSans-30" x="147.412109"/>
      </g>
     </g>
    </g>
    <g id="ytick_4">
     <g id="line2d_13">
      <g>
       <use xlink:href="#m80b2252b16" x="28.104688" y="170.119219" style="stroke: #000000; stroke-width: 0.8"/>
      </g>
     </g>
     <g id="text_13">
      <!-- −10 -->
      <g transform="translate(0 173.918437) scale(0.1 -0.1)">
       <use xlink:href="#DejaVuSans-2212"/>
       <use xlink:href="#DejaVuSans-31" x="83.789062"/>
       <use xlink:href="#DejaVuSans-30" x="147.412109"/>
      </g>
     </g>
    </g>
    <g id="ytick_5">
     <g id="line2d_14">
      <g>
       <use xlink:href="#m80b2252b16" x="28.104688" y="136.855219" style="stroke: #000000; stroke-width: 0.8"/>
      </g>
     </g>
     <g id="text_14">
      <!-- 0 -->
      <g transform="translate(14.742188 140.654437) scale(0.1 -0.1)">
       <use xlink:href="#DejaVuSans-30"/>
      </g>
     </g>
    </g>
    <g id="ytick_6">
     <g id="line2d_15">
      <g>
       <use xlink:href="#m80b2252b16" x="28.104688" y="103.591219" style="stroke: #000000; stroke-width: 0.8"/>
      </g>
     </g>
     <g id="text_15">
      <!-- 10 -->
      <g transform="translate(8.379688 107.390437) scale(0.1 -0.1)">
       <use xlink:href="#DejaVuSans-31"/>
       <use xlink:href="#DejaVuSans-30" x="63.623047"/>
      </g>
     </g>
    </g>
    <g id="ytick_7">
     <g id="line2d_16">
      <g>
       <use xlink:href="#m80b2252b16" x="28.104688" y="70.327219" style="stroke: #000000; stroke-width: 0.8"/>
      </g>
     </g>
     <g id="text_16">
      <!-- 20 -->
      <g transform="translate(8.379688 74.126437) scale(0.1 -0.1)">
       <use xlink:href="#DejaVuSans-32"/>
       <use xlink:href="#DejaVuSans-30" x="63.623047"/>
      </g>
     </g>
    </g>
    <g id="ytick_8">
     <g id="line2d_17">
      <g>
       <use xlink:href="#m80b2252b16" x="28.104688" y="37.063219" style="stroke: #000000; stroke-width: 0.8"/>
      </g>
     </g>
     <g id="text_17">
      <!-- 30 -->
      <g transform="translate(8.379688 40.862437) scale(0.1 -0.1)">
       <use xlink:href="#DejaVuSans-33"/>
       <use xlink:href="#DejaVuSans-30" x="63.623047"/>
      </g>
     </g>
    </g>
    <g id="ytick_9">
     <g id="line2d_18">
      <g>
       <use xlink:href="#m80b2252b16" x="28.104688" y="3.799219" style="stroke: #000000; stroke-width: 0.8"/>
      </g>
     </g>
     <g id="text_18">
      <!-- 40 -->
      <g transform="translate(8.379688 7.598437) scale(0.1 -0.1)">
       <use xlink:href="#DejaVuSans-34"/>
       <use xlink:href="#DejaVuSans-30" x="63.623047"/>
      </g>
     </g>
    </g>
   </g>
   <g id="line2d_19">
    <path d="M 175.297888 250.784419 
L 175.297888 150.992419 
" clip-path="url(#p638434d4cf)" style="fill: none; stroke: #000000; stroke-width: 0.25; stroke-linecap: square"/>
   </g>
   <g id="line2d_20">
    <path d="M 175.297888 150.992419 
L 275.089887 150.992419 
" clip-path="url(#p638434d4cf)" style="fill: none; stroke: #000000; stroke-width: 0.25; stroke-linecap: square"/>
   </g>
   <g id="line2d_21">
    <path d="M 275.089887 122.718019 
L 175.297888 122.718019 
" clip-path="url(#p638434d4cf)" style="fill: none; stroke: #000000; stroke-width: 0.25; stroke-linecap: square"/>
   </g>
   <g id="line2d_22">
    <path d="M 175.297888 122.718019 
L 175.297888 22.926019 
" clip-path="url(#p638434d4cf)" style="fill: none; stroke: #000000; stroke-width: 0.25; stroke-linecap: square"/>
   </g>
   <g id="line2d_23">
    <path d="M 147.023487 22.926019 
L 147.023487 122.718019 
" clip-path="url(#p638434d4cf)" style="fill: none; stroke: #000000; stroke-width: 0.25; stroke-linecap: square"/>
   </g>
   <g id="line2d_24">
    <path d="M 147.023487 122.718019 
L 47.231488 122.718019 
" clip-path="url(#p638434d4cf)" style="fill: none; stroke: #000000; stroke-width: 0.25; stroke-linecap: square"/>
   </g>
   <g id="line2d_25">
    <path d="M 47.231488 150.992419 
L 147.023487 150.992419 
" clip-path="url(#p638434d4cf)" style="fill: none; stroke: #000000; stroke-width: 0.25; stroke-linecap: square"/>
   </g>
   <g id="line2d_26">
    <path d="M 147.023487 150.992419 
L 147.023487 250.784419 
" clip-path="url(#p638434d4cf)" style="fill: none; stroke: #000000; stroke-width: 0.25; stroke-linecap: square"/>
   </g>
   <g id="line2d_27">
    <path d="M 175.297888 136.855219 
L 275.089887 136.855219 
" clip-path="url(#p638434d4cf)" style="fill: none; stroke-dasharray: 0.925,0.4; stroke-dashoffset: 0; stroke: #000000; stroke-width: 0.25"/>
   </g>
   <g id="line2d_28">
    <path d="M 161.160687 122.718019 
L 161.160687 22.926019 
" clip-path="url(#p638434d4cf)" style="fill: none; stroke-dasharray: 0.925,0.4; stroke-dashoffset: 0; stroke: #000000; stroke-width: 0.25"/>
   </g>
   <g id="line2d_29">
    <path d="M 147.023487 136.855219 
L 47.231488 136.855219 
" clip-path="url(#p638434d4cf)" style="fill: none; stroke-dasharray: 0.925,0.4; stroke-dashoffset: 0; stroke: #000000; stroke-width: 0.25"/>
   </g>
   <g id="line2d_30">
    <path d="M 161.160687 150.992419 
L 161.160687 250.784419 
" clip-path="url(#p638434d4cf)" style="fill: none; stroke-dasharray: 0.925,0.4; stroke-dashoffset: 0; stroke: #000000; stroke-width: 0.25"/>
   </g>
   <g id="line2d_31">
    <path d="M 13.184757 130.999398 
L 11.511779 130.999398 
L 9.838802 130.999399 
L 8.165827 130.999399 
L 6.492853 130.999399 
L 4.81988 130.999399 
L 3.146907 130.999399 
L 1.473934 130.999399 
L -0.199039 130.999399 
L -1 130.999399 
" clip-path="url(#p638434d4cf)" style="fill: none; stroke: #ff0000; stroke-width: 0.25; stroke-linecap: square"/>
   </g>
   <g id="line2d_32">
    <path clip-path="url(#p638434d4cf)" style="fill: none; stroke: #ff0000; stroke-width: 0.25; stroke-linecap: square"/>
   </g>
   <g id="line2d_33">
    <path d="M 155.304867 283.161314 
L 155.304867 284.813414 
L 155.304867 286.465517 
L 155.304867 287.589344 
" clip-path="url(#p638434d4cf)" style="fill: none; stroke: #ff0000; stroke-width: 0.25; stroke-linecap: square"/>
   </g>
   <g id="line2d_34">
    <path clip-path="url(#p638434d4cf)" style="fill: none; stroke: #ff0000; stroke-width: 0.25; stroke-linecap: square"/>
   </g>
   <g id="line2d_35">
    <path d="M 167.016506 33.499324 
L 167.016508 31.846104 
L 167.016511 30.193208 
L 167.016513 28.540591 
L 167.016514 26.888208 
L 167.016514 25.236021 
L 167.016514 23.583993 
L 167.016514 21.932093 
L 167.016514 20.280291 
L 167.016513 18.628563 
L 167.016513 16.976886 
L 167.016512 15.325243 
L 167.016511 13.673618 
L 167.016511 12.021997 
L 167.01651 10.370372 
L 167.01651 8.718734 
L 167.016509 7.067076 
L 167.016509 5.415395 
L 167.016508 3.763688 
L 167.016508 2.111954 
L 167.016508 0.460192 
L 167.016508 -1 
" clip-path="url(#p638434d4cf)" style="fill: none; stroke: #ff0000; stroke-width: 0.25; stroke-linecap: square"/>
   </g>
   <g id="line2d_36">
    <path d="M 57.806312 130.999399 
L 56.154044 130.999396 
L 54.501872 130.999391 
L 52.849777 130.999388 
L 51.197745 130.999386 
L 49.545762 130.999385 
L 47.893816 130.999385 
L 46.241897 130.999386 
L 44.589995 130.999387 
L 42.938103 130.999388 
L 41.286215 130.999389 
L 39.634326 130.999391 
L 37.982431 130.999392 
L 36.330527 130.999393 
L 34.678612 130.999394 
L 33.026685 130.999395 
L 31.374743 130.999396 
L 29.722788 130.999397 
L 28.070819 130.999397 
L 26.418836 130.999398 
L 24.766839 130.999398 
L 23.114831 130.999398 
L 21.462812 130.999399 
L 19.810783 130.999399 
L 18.158746 130.999399 
L 16.506701 130.999399 
L 14.854651 130.999399 
L 13.202597 130.999399 
L 11.550539 130.999399 
L 9.898479 130.999399 
L 8.246419 130.999399 
" clip-path="url(#p638434d4cf)" style="fill: none; stroke: #ff0000; stroke-width: 0.25; stroke-linecap: square"/>
   </g>
   <g id="line2d_37">
    <path d="M 265.638546 142.711043 
L 267.312422 142.711043 
L 268.986118 142.711042 
L 270.659656 142.711041 
L 272.333053 142.711041 
L 274.006329 142.71104 
L 275.679502 142.71104 
L 277.352586 142.71104 
L 279.025597 142.711039 
L 280.698548 142.711039 
L 282.371452 142.711039 
L 284.044318 142.711039 
L 285.717157 142.711039 
L 287.389976 142.711039 
L 289.062781 142.711039 
L 290.735579 142.711039 
L 292.408374 142.711039 
L 294.08117 142.711039 
L 295.753969 142.711039 
L 297.426774 142.711039 
L 299.099585 142.711039 
L 300.772404 142.711039 
L 301.579188 142.711039 
" clip-path="url(#p638434d4cf)" style="fill: none; stroke: #ff0000; stroke-width: 0.25; stroke-linecap: square"/>
   </g>
   <g id="line2d_38">
    <path d="M 167.015704 67.342068 
L 167.015898 65.959751 
L 167.016095 64.576701 
L 167.016253 63.193025 
L 167.016378 61.808823 
L 167.016474 60.424185 
L 167.016546 59.039194 
L 167.016598 57.653923 
L 167.016634 56.268438 
L 167.016656 54.882796 
L 167.016668 53.497045 
L 167.016672 52.111227 
L 167.016669 50.725377 
L 167.016662 49.339524 
L 167.016652 47.953688 
L 167.01664 46.56789 
L 167.016627 45.18214 
L 167.016614 43.796449 
L 167.016601 42.410821 
L 167.016588 41.025259 
L 167.016577 39.639763 
L 167.016566 38.25433 
L 167.016556 36.868957 
L 167.016547 35.483638 
L 167.016538 34.098367 
L 167.016531 32.713137 
L 167.016524 31.327941 
L 167.016518 29.942771 
L 167.016512 28.55762 
L 167.016506 27.172481 
L 167.016501 25.787348 
" clip-path="url(#p638434d4cf)" style="fill: none; stroke: #ff0000; stroke-width: 0.25; stroke-linecap: square"/>
   </g>
   <g id="line2d_39">
    <path d="M 224.874863 142.712636 
L 226.430641 142.712635 
L 227.985956 142.712885 
L 229.540796 142.712994 
L 231.095163 142.712998 
L 232.649065 142.712927 
L 234.20252 142.712804 
L 235.75555 142.71265 
L 237.308183 142.712479 
L 238.860448 142.712301 
L 240.412376 142.712126 
L 241.964 142.71196 
L 243.515352 142.711806 
L 245.066462 142.711666 
L 246.61736 142.711542 
L 248.168075 142.711435 
L 249.718632 142.711342 
L 251.269056 142.711265 
L 252.819369 142.711201 
L 254.369589 142.71115 
L 255.919735 142.711109 
L 257.46982 142.711077 
L 259.019859 142.711053 
L 260.569862 142.711035 
L 262.119837 142.711022 
L 263.669793 142.711013 
L 265.219735 142.711007 
L 266.769668 142.711002 
L 268.319595 142.710999 
L 269.869518 142.710996 
L 271.41944 142.710992 
" clip-path="url(#p638434d4cf)" style="fill: none; stroke: #ff0000; stroke-width: 0.25; stroke-linecap: square"/>
   </g>
   <g id="line2d_40">
    <path d="M 155.304845 229.375411 
L 155.30485 231.343772 
L 155.304854 233.312001 
L 155.304857 235.279985 
L 155.30486 237.247635 
L 155.304862 239.214887 
L 155.304864 241.181696 
L 155.304865 243.148035 
L 155.304866 245.113892 
L 155.304867 247.079266 
L 155.304868 249.044168 
L 155.304868 251.008615 
L 155.304868 252.972628 
L 155.304868 254.936237 
L 155.304868 256.89947 
L 155.304868 258.862361 
L 155.304868 260.824941 
L 155.304868 262.787244 
L 155.304868 264.749301 
L 155.304868 266.711144 
L 155.304868 268.672802 
L 155.304868 270.634302 
L 155.304868 272.59567 
L 155.304868 274.556928 
L 155.304868 276.518097 
L 155.304868 278.479197 
L 155.304868 280.440243 
L 155.304868 282.40125 
L 155.304868 284.36223 
L 155.304868 286.323194 
L 155.304867 287.589344 
" clip-path="url(#p638434d4cf)" style="fill: none; stroke: #ff0000; stroke-width: 0.25; stroke-linecap: square"/>
   </g>
   <g id="line2d_41">
    <path d="M 97.442254 130.996852 
L 95.88662 130.99691 
L 94.331505 130.996601 
L 92.776904 130.996487 
L 91.222805 130.996516 
L 89.669187 130.996645 
L 88.116024 130.996842 
L 86.563287 130.997079 
L 85.010941 130.997337 
L 83.458953 130.9976 
L 81.907288 130.997856 
L 80.355911 130.998098 
L 78.804788 130.998321 
L 77.253887 130.998522 
L 75.703178 130.998699 
L 74.152634 130.998852 
L 72.602227 130.998982 
L 71.051936 130.999091 
L 69.501739 130.999181 
L 67.951618 130.999253 
L 66.401558 130.99931 
L 64.851545 130.999354 
L 63.301567 130.999387 
L 61.751616 130.999411 
L 60.201683 130.999428 
L 58.651763 130.99944 
L 57.101852 130.999447 
L 55.551946 130.999453 
L 54.002044 130.999457 
L 52.452142 130.99946 
L 50.902241 130.999465 
" clip-path="url(#p638434d4cf)" style="fill: none; stroke: #ff0000; stroke-width: 0.25; stroke-linecap: square"/>
   </g>
   <g id="line2d_42">
    <path d="M 155.300168 200.663467 
L 155.300685 202.208777 
L 155.300772 203.753938 
L 155.300989 205.299083 
L 155.30129 206.84432 
L 155.301641 208.389733 
L 155.302014 209.935389 
L 155.302389 211.481335 
L 155.302751 213.027604 
L 155.30309 214.574217 
L 155.3034 216.121183 
L 155.303678 217.668502 
L 155.303922 219.216167 
L 155.304133 220.764166 
L 155.304312 222.312482 
L 155.304462 223.861094 
L 155.304584 225.409979 
L 155.304683 226.959114 
L 155.30476 228.508475 
L 155.304819 230.058036 
L 155.304864 231.607773 
L 155.304895 233.157663 
L 155.304916 234.707683 
L 155.30493 236.257813 
L 155.304937 237.808032 
L 155.30494 239.358324 
L 155.304939 240.908672 
L 155.304937 242.459062 
L 155.304934 244.00948 
L 155.304931 245.559916 
L 155.304928 247.11036 
" clip-path="url(#p638434d4cf)" style="fill: none; stroke: #ff0000; stroke-width: 0.25; stroke-linecap: square"/>
   </g>
   <g id="patch_15">
    <path d="M 28.104688 269.911219 
L 28.104688 3.799219 
" style="fill: none; stroke: #000000; stroke-width: 0.8; stroke-linejoin: miter; stroke-linecap: square"/>
   </g>
   <g id="patch_16">
    <path d="M 294.216687 269.911219 
L 294.216687 3.799219 
" style="fill: none; stroke: #000000; stroke-width: 0.8; stroke-linejoin: miter; stroke-linecap: square"/>
   </g>
   <g id="patch_17">
    <path d="M 28.104688 269.911219 
L 294.216687 269.911219 
" style="fill: none; stroke: #000000; stroke-width: 0.8; stroke-linejoin: miter; stroke-linecap: square"/>
   </g>
   <g id="patch_18">
    <path d="M 28.104688 3.799219 
L 294.216687 3.799219 
" style="fill: none; stroke: #000000; stroke-width: 0.8; stroke-linejoin: miter; stroke-linecap: square"/>
   </g>
   <g id="text_19">
    <!-- Time: 11.9 s -->
    <g transform="translate(192.6327 17.104819) scale(0.1 -0.1)">
     <defs>
      <path id="DejaVuSans-54" d="M -19 4666 
L 3928 4666 
L 3928 4134 
L 2272 4134 
L 2272 0 
L 1638 0 
L 1638 4134 
L -19 4134 
L -19 4666 
z
" transform="scale(0.015625)"/>
      <path id="DejaVuSans-69" d="M 603 3500 
L 1178 3500 
L 1178 0 
L 603 0 
L 603 3500 
z
M 603 4863 
L 1178 4863 
L 1178 4134 
L 603 4134 
L 603 4863 
z
" transform="scale(0.015625)"/>
      <path id="DejaVuSans-6d" d="M 3328 2828 
Q 3544 3216 3844 3400 
Q 4144 3584 4550 3584 
Q 5097 3584 5394 3201 
Q 5691 2819 5691 2113 
L 5691 0 
L 5113 0 
L 5113 2094 
Q 5113 2597 4934 2840 
Q 4756 3084 4391 3084 
Q 3944 3084 3684 2787 
Q 3425 2491 3425 1978 
L 3425 0 
L 2847 0 
L 2847 2094 
Q 2847 2600 2669 2842 
Q 2491 3084 2119 3084 
Q 1678 3084 1418 2786 
Q 1159 2488 1159 1978 
L 1159 0 
L 581 0 
L 581 3500 
L 1159 3500 
L 1159 2956 
Q 1356 3278 1631 3431 
Q 1906 3584 2284 3584 
Q 2666 3584 2933 3390 
Q 3200 3197 3328 2828 
z
" transform="scale(0.015625)"/>
      <path id="DejaVuSans-65" d="M 3597 1894 
L 3597 1613 
L 953 1613 
Q 991 1019 1311 708 
Q 1631 397 2203 397 
Q 2534 397 2845 478 
Q 3156 559 3463 722 
L 3463 178 
Q 3153 47 2828 -22 
Q 2503 -91 2169 -91 
Q 1331 -91 842 396 
Q 353 884 353 1716 
Q 353 2575 817 3079 
Q 1281 3584 2069 3584 
Q 2775 3584 3186 3129 
Q 3597 2675 3597 1894 
z
M 3022 2063 
Q 3016 2534 2758 2815 
Q 2500 3097 2075 3097 
Q 1594 3097 1305 2825 
Q 1016 2553 972 2059 
L 3022 2063 
z
" transform="scale(0.015625)"/>
      <path id="DejaVuSans-3a" d="M 750 794 
L 1409 794 
L 1409 0 
L 750 0 
L 750 794 
z
M 750 3309 
L 1409 3309 
L 1409 2516 
L 750 2516 
L 750 3309 
z
" transform="scale(0.015625)"/>
      <path id="DejaVuSans-20" transform="scale(0.015625)"/>
      <path id="DejaVuSans-2e" d="M 684 794 
L 1344 794 
L 1344 0 
L 684 0 
L 684 794 
z
" transform="scale(0.015625)"/>
      <path id="DejaVuSans-39" d="M 703 97 
L 703 672 
Q 941 559 1184 500 
Q 1428 441 1663 441 
Q 2288 441 2617 861 
Q 2947 1281 2994 2138 
Q 2813 1869 2534 1725 
Q 2256 1581 1919 1581 
Q 1219 1581 811 2004 
Q 403 2428 403 3163 
Q 403 3881 828 4315 
Q 1253 4750 1959 4750 
Q 2769 4750 3195 4129 
Q 3622 3509 3622 2328 
Q 3622 1225 3098 567 
Q 2575 -91 1691 -91 
Q 1453 -91 1209 -44 
Q 966 3 703 97 
z
M 1959 2075 
Q 2384 2075 2632 2365 
Q 2881 2656 2881 3163 
Q 2881 3666 2632 3958 
Q 2384 4250 1959 4250 
Q 1534 4250 1286 3958 
Q 1038 3666 1038 3163 
Q 1038 2656 1286 2365 
Q 1534 2075 1959 2075 
z
" transform="scale(0.015625)"/>
      <path id="DejaVuSans-73" d="M 2834 3397 
L 2834 2853 
Q 2591 2978 2328 3040 
Q 2066 3103 1784 3103 
Q 1356 3103 1142 2972 
Q 928 2841 928 2578 
Q 928 2378 1081 2264 
Q 1234 2150 1697 2047 
L 1894 2003 
Q 2506 1872 2764 1633 
Q 3022 1394 3022 966 
Q 3022 478 2636 193 
Q 2250 -91 1575 -91 
Q 1294 -91 989 -36 
Q 684 19 347 128 
L 347 722 
Q 666 556 975 473 
Q 1284 391 1588 391 
Q 1994 391 2212 530 
Q 2431 669 2431 922 
Q 2431 1156 2273 1281 
Q 2116 1406 1581 1522 
L 1381 1569 
Q 847 1681 609 1914 
Q 372 2147 372 2553 
Q 372 3047 722 3315 
Q 1072 3584 1716 3584 
Q 2034 3584 2315 3537 
Q 2597 3491 2834 3397 
z
" transform="scale(0.015625)"/>
     </defs>
     <use xlink:href="#DejaVuSans-54"/>
     <use xlink:href="#DejaVuSans-69" x="57.958984"/>
     <use xlink:href="#DejaVuSans-6d" x="85.742188"/>
     <use xlink:href="#DejaVuSans-65" x="183.154297"/>
     <use xlink:href="#DejaVuSans-3a" x="244.677734"/>
     <use xlink:href="#DejaVuSans-20" x="278.369141"/>
     <use xlink:href="#DejaVuSans-31" x="310.15625"/>
     <use xlink:href="#DejaVuSans-31" x="373.779297"/>
     <use xlink:href="#DejaVuSans-2e" x="437.402344"/>
     <use xlink:href="#DejaVuSans-39" x="469.189453"/>
     <use xlink:href="#DejaVuSans-20" x="532.8125"/>
     <use xlink:href="#DejaVuSans-73" x="564.599609"/>
    </g>
   </g>
  </g>
 </g>
 <defs>
  <clipPath id="p638434d4cf">
   <rect x="28.104688" y="3.799219" width="266.112" height="266.112"/>
  </clipPath>
 </defs>
</svg>
